ISO-10303-21;
HEADER;
/* Generated by software containing ST-Developer
 * from STEP Tools, Inc. (www.steptools.com) 
 */

FILE_DESCRIPTION(
/* description */ (''),
/* implementation_level */ '2;1');

FILE_NAME(
/* name */ 'latest_michael v2.step',
/* time_stamp */ '2026-03-14T09:21:58+01:00',
/* author */ (''),
/* organization */ (''),
/* preprocessor_version */ 'ST-DEVELOPER v20.1',
/* originating_system */ 'Autodesk Translation Framework v14.24.0.0',
/* authorisation */ '');

FILE_SCHEMA (('AUTOMOTIVE_DESIGN { 1 0 10303 214 3 1 1 }'));
ENDSEC;

DATA;
#10=MECHANICAL_DESIGN_GEOMETRIC_PRESENTATION_REPRESENTATION('',(#13),#1373);
#11=SHAPE_REPRESENTATION_RELATIONSHIP('SRR','None',#1380,#12);
#12=ADVANCED_BREP_SHAPE_REPRESENTATION('',(#14),#1372);
#13=STYLED_ITEM('',(#1389),#14);
#14=MANIFOLD_SOLID_BREP('Body7',#789);
#15=FACE_BOUND('',#253,.T.);
#16=FACE_BOUND('',#264,.T.);
#17=FACE_BOUND('',#287,.T.);
#18=CONICAL_SURFACE('',#828,9.00919628641662,0.0366519142918809);
#19=CONICAL_SURFACE('',#831,9.00919628641661,0.0366519142918809);
#20=CONICAL_SURFACE('',#843,7.75000000000002,0.0523598775598299);
#21=CONICAL_SURFACE('',#847,7.75,0.0523598775598299);
#22=CONICAL_SURFACE('',#852,7.75,0.0523598775598299);
#23=CONICAL_SURFACE('',#856,7.74999999999999,0.0523598775598299);
#24=CONICAL_SURFACE('',#865,6.49999999999999,0.0523598775598299);
#25=CONICAL_SURFACE('',#868,6.50000000000002,0.0523598775598299);
#26=CONICAL_SURFACE('',#871,6.5,0.0523598775598299);
#27=CONICAL_SURFACE('',#874,6.49999999999999,0.0523598775598299);
#28=CONICAL_SURFACE('',#878,4.49999999999999,0.0523598775598299);
#29=CONICAL_SURFACE('',#880,4.5,0.0523598775598299);
#30=CONICAL_SURFACE('',#882,4.50000000000002,0.0523598775598299);
#31=CONICAL_SURFACE('',#884,4.5,0.0523598775598299);
#32=CONICAL_SURFACE('',#885,9.00919628641664,0.0366519142918809);
#33=CONICAL_SURFACE('',#888,9.00919628641662,0.0366519142918809);
#34=PLANE('',#827);
#35=PLANE('',#830);
#36=PLANE('',#833);
#37=PLANE('',#838);
#38=PLANE('',#846);
#39=PLANE('',#850);
#40=PLANE('',#851);
#41=PLANE('',#855);
#42=PLANE('',#859);
#43=PLANE('',#864);
#44=PLANE('',#867);
#45=PLANE('',#870);
#46=PLANE('',#873);
#47=PLANE('',#876);
#48=PLANE('',#877);
#49=PLANE('',#879);
#50=PLANE('',#881);
#51=PLANE('',#883);
#52=PLANE('',#887);
#53=PLANE('',#890);
#54=PLANE('',#891);
#55=LINE('',#1154,#123);
#56=LINE('',#1155,#124);
#57=LINE('',#1166,#125);
#58=LINE('',#1167,#126);
#59=LINE('',#1178,#127);
#60=LINE('',#1179,#128);
#61=LINE('',#1187,#129);
#62=LINE('',#1188,#130);
#63=LINE('',#1191,#131);
#64=LINE('',#1193,#132);
#65=LINE('',#1194,#133);
#66=LINE('',#1197,#134);
#67=LINE('',#1201,#135);
#68=LINE('',#1202,#136);
#69=LINE('',#1205,#137);
#70=LINE('',#1210,#138);
#71=LINE('',#1214,#139);
#72=LINE('',#1218,#140);
#73=LINE('',#1222,#141);
#74=LINE('',#1227,#142);
#75=LINE('',#1231,#143);
#76=LINE('',#1235,#144);
#77=LINE('',#1239,#145);
#78=LINE('',#1246,#146);
#79=LINE('',#1249,#147);
#80=LINE('',#1252,#148);
#81=LINE('',#1254,#149);
#82=LINE('',#1255,#150);
#83=LINE('',#1260,#151);
#84=LINE('',#1264,#152);
#85=LINE('',#1266,#153);
#86=LINE('',#1267,#154);
#87=LINE('',#1270,#155);
#88=LINE('',#1272,#156);
#89=LINE('',#1273,#157);
#90=LINE('',#1279,#158);
#91=LINE('',#1282,#159);
#92=LINE('',#1284,#160);
#93=LINE('',#1285,#161);
#94=LINE('',#1294,#162);
#95=LINE('',#1298,#163);
#96=LINE('',#1302,#164);
#97=LINE('',#1305,#165);
#98=LINE('',#1309,#166);
#99=LINE('',#1310,#167);
#100=LINE('',#1311,#168);
#101=LINE('',#1315,#169);
#102=LINE('',#1318,#170);
#103=LINE('',#1319,#171);
#104=LINE('',#1323,#172);
#105=LINE('',#1326,#173);
#106=LINE('',#1327,#174);
#107=LINE('',#1331,#175);
#108=LINE('',#1334,#176);
#109=LINE('',#1335,#177);
#110=LINE('',#1340,#178);
#111=LINE('',#1341,#179);
#112=LINE('',#1343,#180);
#113=LINE('',#1345,#181);
#114=LINE('',#1347,#182);
#115=LINE('',#1349,#183);
#116=LINE('',#1351,#184);
#117=LINE('',#1353,#185);
#118=LINE('',#1358,#186);
#119=LINE('',#1361,#187);
#120=LINE('',#1362,#188);
#121=LINE('',#1366,#189);
#122=LINE('',#1368,#190);
#123=VECTOR('',#908,10.);
#124=VECTOR('',#909,10.);
#125=VECTOR('',#922,10.);
#126=VECTOR('',#923,10.);
#127=VECTOR('',#936,10.);
#128=VECTOR('',#937,10.);
#129=VECTOR('',#948,10.);
#130=VECTOR('',#949,10.);
#131=VECTOR('',#952,10.);
#132=VECTOR('',#953,10.);
#133=VECTOR('',#954,10.);
#134=VECTOR('',#957,10.);
#135=VECTOR('',#962,10.);
#136=VECTOR('',#963,10.);
#137=VECTOR('',#966,10.);
#138=VECTOR('',#971,10.);
#139=VECTOR('',#974,10.);
#140=VECTOR('',#977,10.);
#141=VECTOR('',#980,10.);
#142=VECTOR('',#985,10.);
#143=VECTOR('',#988,10.);
#144=VECTOR('',#991,10.);
#145=VECTOR('',#994,10.);
#146=VECTOR('',#1001,10.);
#147=VECTOR('',#1004,10.);
#148=VECTOR('',#1007,10.);
#149=VECTOR('',#1008,10.);
#150=VECTOR('',#1009,10.);
#151=VECTOR('',#1014,10.);
#152=VECTOR('',#1019,10.);
#153=VECTOR('',#1020,10.);
#154=VECTOR('',#1021,10.);
#155=VECTOR('',#1024,10.);
#156=VECTOR('',#1025,10.);
#157=VECTOR('',#1026,10.);
#158=VECTOR('',#1033,10.);
#159=VECTOR('',#1036,10.);
#160=VECTOR('',#1037,10.);
#161=VECTOR('',#1038,10.);
#162=VECTOR('',#1049,10.);
#163=VECTOR('',#1052,10.);
#164=VECTOR('',#1055,10.);
#165=VECTOR('',#1058,10.);
#166=VECTOR('',#1061,10.);
#167=VECTOR('',#1062,10.);
#168=VECTOR('',#1063,10.);
#169=VECTOR('',#1068,10.);
#170=VECTOR('',#1071,10.);
#171=VECTOR('',#1072,10.);
#172=VECTOR('',#1077,10.);
#173=VECTOR('',#1080,10.);
#174=VECTOR('',#1081,10.);
#175=VECTOR('',#1086,10.);
#176=VECTOR('',#1089,10.);
#177=VECTOR('',#1090,10.);
#178=VECTOR('',#1099,10.);
#179=VECTOR('',#1100,10.);
#180=VECTOR('',#1103,10.);
#181=VECTOR('',#1106,10.);
#182=VECTOR('',#1109,10.);
#183=VECTOR('',#1112,10.);
#184=VECTOR('',#1115,10.);
#185=VECTOR('',#1118,10.);
#186=VECTOR('',#1125,10.);
#187=VECTOR('',#1128,10.);
#188=VECTOR('',#1129,10.);
#189=VECTOR('',#1134,10.);
#190=VECTOR('',#1137,10.);
#191=CYLINDRICAL_SURFACE('',#808,0.25);
#192=CYLINDRICAL_SURFACE('',#814,0.25);
#193=CYLINDRICAL_SURFACE('',#820,0.25);
#194=CYLINDRICAL_SURFACE('',#826,0.25);
#195=FACE_OUTER_BOUND('',#240,.T.);
#196=FACE_OUTER_BOUND('',#241,.T.);
#197=FACE_OUTER_BOUND('',#242,.T.);
#198=FACE_OUTER_BOUND('',#243,.T.);
#199=FACE_OUTER_BOUND('',#244,.T.);
#200=FACE_OUTER_BOUND('',#245,.T.);
#201=FACE_OUTER_BOUND('',#246,.T.);
#202=FACE_OUTER_BOUND('',#247,.T.);
#203=FACE_OUTER_BOUND('',#248,.T.);
#204=FACE_OUTER_BOUND('',#249,.T.);
#205=FACE_OUTER_BOUND('',#250,.T.);
#206=FACE_OUTER_BOUND('',#251,.T.);
#207=FACE_OUTER_BOUND('',#252,.T.);
#208=FACE_OUTER_BOUND('',#254,.T.);
#209=FACE_OUTER_BOUND('',#255,.T.);
#210=FACE_OUTER_BOUND('',#256,.T.);
#211=FACE_OUTER_BOUND('',#257,.T.);
#212=FACE_OUTER_BOUND('',#258,.T.);
#213=FACE_OUTER_BOUND('',#259,.T.);
#214=FACE_OUTER_BOUND('',#260,.T.);
#215=FACE_OUTER_BOUND('',#261,.T.);
#216=FACE_OUTER_BOUND('',#262,.T.);
#217=FACE_OUTER_BOUND('',#263,.T.);
#218=FACE_OUTER_BOUND('',#265,.T.);
#219=FACE_OUTER_BOUND('',#266,.T.);
#220=FACE_OUTER_BOUND('',#267,.T.);
#221=FACE_OUTER_BOUND('',#268,.T.);
#222=FACE_OUTER_BOUND('',#269,.T.);
#223=FACE_OUTER_BOUND('',#270,.T.);
#224=FACE_OUTER_BOUND('',#271,.T.);
#225=FACE_OUTER_BOUND('',#272,.T.);
#226=FACE_OUTER_BOUND('',#273,.T.);
#227=FACE_OUTER_BOUND('',#274,.T.);
#228=FACE_OUTER_BOUND('',#275,.T.);
#229=FACE_OUTER_BOUND('',#276,.T.);
#230=FACE_OUTER_BOUND('',#277,.T.);
#231=FACE_OUTER_BOUND('',#278,.T.);
#232=FACE_OUTER_BOUND('',#279,.T.);
#233=FACE_OUTER_BOUND('',#280,.T.);
#234=FACE_OUTER_BOUND('',#281,.T.);
#235=FACE_OUTER_BOUND('',#282,.T.);
#236=FACE_OUTER_BOUND('',#283,.T.);
#237=FACE_OUTER_BOUND('',#284,.T.);
#238=FACE_OUTER_BOUND('',#285,.T.);
#239=FACE_OUTER_BOUND('',#286,.T.);
#240=EDGE_LOOP('',(#516,#517,#518,#519));
#241=EDGE_LOOP('',(#520,#521,#522,#523));
#242=EDGE_LOOP('',(#524,#525,#526,#527));
#243=EDGE_LOOP('',(#528,#529,#530,#531));
#244=EDGE_LOOP('',(#532,#533,#534,#535));
#245=EDGE_LOOP('',(#536,#537,#538,#539));
#246=EDGE_LOOP('',(#540,#541,#542,#543));
#247=EDGE_LOOP('',(#544,#545,#546,#547));
#248=EDGE_LOOP('',(#548,#549,#550,#551));
#249=EDGE_LOOP('',(#552,#553,#554,#555));
#250=EDGE_LOOP('',(#556,#557,#558,#559));
#251=EDGE_LOOP('',(#560,#561,#562,#563));
#252=EDGE_LOOP('',(#564,#565,#566,#567,#568,#569,#570,#571));
#253=EDGE_LOOP('',(#572,#573,#574,#575,#576,#577,#578,#579));
#254=EDGE_LOOP('',(#580,#581,#582,#583,#584,#585,#586,#587));
#255=EDGE_LOOP('',(#588,#589,#590,#591));
#256=EDGE_LOOP('',(#592,#593,#594,#595));
#257=EDGE_LOOP('',(#596,#597,#598,#599));
#258=EDGE_LOOP('',(#600,#601,#602,#603));
#259=EDGE_LOOP('',(#604,#605,#606,#607));
#260=EDGE_LOOP('',(#608,#609,#610,#611));
#261=EDGE_LOOP('',(#612,#613,#614,#615));
#262=EDGE_LOOP('',(#616,#617,#618,#619));
#263=EDGE_LOOP('',(#620,#621,#622,#623,#624,#625,#626,#627));
#264=EDGE_LOOP('',(#628,#629,#630,#631,#632,#633,#634,#635));
#265=EDGE_LOOP('',(#636,#637,#638,#639));
#266=EDGE_LOOP('',(#640,#641,#642,#643));
#267=EDGE_LOOP('',(#644,#645,#646,#647));
#268=EDGE_LOOP('',(#648,#649,#650,#651));
#269=EDGE_LOOP('',(#652,#653,#654,#655));
#270=EDGE_LOOP('',(#656,#657,#658,#659));
#271=EDGE_LOOP('',(#660,#661,#662,#663));
#272=EDGE_LOOP('',(#664,#665,#666,#667));
#273=EDGE_LOOP('',(#668,#669,#670,#671,#672,#673,#674,#675));
#274=EDGE_LOOP('',(#676,#677,#678,#679));
#275=EDGE_LOOP('',(#680,#681,#682,#683));
#276=EDGE_LOOP('',(#684,#685,#686,#687));
#277=EDGE_LOOP('',(#688,#689,#690,#691));
#278=EDGE_LOOP('',(#692,#693,#694,#695));
#279=EDGE_LOOP('',(#696,#697,#698,#699));
#280=EDGE_LOOP('',(#700,#701,#702,#703));
#281=EDGE_LOOP('',(#704,#705,#706,#707));
#282=EDGE_LOOP('',(#708,#709,#710,#711));
#283=EDGE_LOOP('',(#712,#713,#714,#715));
#284=EDGE_LOOP('',(#716,#717,#718,#719));
#285=EDGE_LOOP('',(#720,#721,#722,#723));
#286=EDGE_LOOP('',(#724,#725,#726,#727,#728,#729,#730,#731));
#287=EDGE_LOOP('',(#732,#733,#734,#735,#736,#737,#738,#739));
#288=CIRCLE('',#804,0.249999999999996);
#289=CIRCLE('',#805,8.76819535586895);
#290=CIRCLE('',#806,0.25);
#291=CIRCLE('',#807,9.01802745431361);
#292=CIRCLE('',#809,0.25);
#293=CIRCLE('',#811,0.25);
#294=CIRCLE('',#812,9.01802745431362);
#295=CIRCLE('',#813,8.76819535586896);
#296=CIRCLE('',#815,0.25);
#297=CIRCLE('',#817,0.25);
#298=CIRCLE('',#818,9.01802745431363);
#299=CIRCLE('',#819,8.76819535586897);
#300=CIRCLE('',#821,0.25);
#301=CIRCLE('',#823,0.25);
#302=CIRCLE('',#824,9.01802745431362);
#303=CIRCLE('',#825,8.76819535586896);
#304=CIRCLE('',#829,9.44921631108138);
#305=CIRCLE('',#832,9.44921631108137);
#306=CIRCLE('',#834,6.65722333784912);
#307=CIRCLE('',#835,6.65722333784913);
#308=CIRCLE('',#836,6.65722333784914);
#309=CIRCLE('',#837,6.65722333784912);
#310=CIRCLE('',#839,3.68767942111285);
#311=CIRCLE('',#840,3.68767942111286);
#312=CIRCLE('',#841,3.68767942111288);
#313=CIRCLE('',#842,3.68767942111286);
#314=CIRCLE('',#844,7.90722333784914);
#315=CIRCLE('',#845,7.75000000000002);
#316=CIRCLE('',#848,7.90722333784913);
#317=CIRCLE('',#849,7.75);
#318=CIRCLE('',#853,7.90722333784913);
#319=CIRCLE('',#854,7.75);
#320=CIRCLE('',#857,7.90722333784912);
#321=CIRCLE('',#858,7.74999999999999);
#322=CIRCLE('',#860,4.5);
#323=CIRCLE('',#861,4.50000000000002);
#324=CIRCLE('',#862,4.5);
#325=CIRCLE('',#863,4.49999999999999);
#326=CIRCLE('',#866,6.49999999999999);
#327=CIRCLE('',#869,6.50000000000002);
#328=CIRCLE('',#872,6.5);
#329=CIRCLE('',#875,6.49999999999999);
#330=CIRCLE('',#886,9.44921631108139);
#331=CIRCLE('',#889,9.44921631108138);
#332=VERTEX_POINT('',#1142);
#333=VERTEX_POINT('',#1143);
#334=VERTEX_POINT('',#1145);
#335=VERTEX_POINT('',#1147);
#336=VERTEX_POINT('',#1151);
#337=VERTEX_POINT('',#1152);
#338=VERTEX_POINT('',#1157);
#339=VERTEX_POINT('',#1158);
#340=VERTEX_POINT('',#1163);
#341=VERTEX_POINT('',#1164);
#342=VERTEX_POINT('',#1169);
#343=VERTEX_POINT('',#1170);
#344=VERTEX_POINT('',#1175);
#345=VERTEX_POINT('',#1176);
#346=VERTEX_POINT('',#1181);
#347=VERTEX_POINT('',#1182);
#348=VERTEX_POINT('',#1190);
#349=VERTEX_POINT('',#1192);
#350=VERTEX_POINT('',#1196);
#351=VERTEX_POINT('',#1200);
#352=VERTEX_POINT('',#1204);
#353=VERTEX_POINT('',#1208);
#354=VERTEX_POINT('',#1209);
#355=VERTEX_POINT('',#1211);
#356=VERTEX_POINT('',#1213);
#357=VERTEX_POINT('',#1215);
#358=VERTEX_POINT('',#1217);
#359=VERTEX_POINT('',#1219);
#360=VERTEX_POINT('',#1221);
#361=VERTEX_POINT('',#1225);
#362=VERTEX_POINT('',#1226);
#363=VERTEX_POINT('',#1228);
#364=VERTEX_POINT('',#1230);
#365=VERTEX_POINT('',#1232);
#366=VERTEX_POINT('',#1234);
#367=VERTEX_POINT('',#1236);
#368=VERTEX_POINT('',#1238);
#369=VERTEX_POINT('',#1242);
#370=VERTEX_POINT('',#1243);
#371=VERTEX_POINT('',#1245);
#372=VERTEX_POINT('',#1247);
#373=VERTEX_POINT('',#1251);
#374=VERTEX_POINT('',#1253);
#375=VERTEX_POINT('',#1257);
#376=VERTEX_POINT('',#1259);
#377=VERTEX_POINT('',#1263);
#378=VERTEX_POINT('',#1265);
#379=VERTEX_POINT('',#1269);
#380=VERTEX_POINT('',#1271);
#381=VERTEX_POINT('',#1275);
#382=VERTEX_POINT('',#1277);
#383=VERTEX_POINT('',#1281);
#384=VERTEX_POINT('',#1283);
#385=VERTEX_POINT('',#1290);
#386=VERTEX_POINT('',#1291);
#387=VERTEX_POINT('',#1293);
#388=VERTEX_POINT('',#1295);
#389=VERTEX_POINT('',#1297);
#390=VERTEX_POINT('',#1299);
#391=VERTEX_POINT('',#1301);
#392=VERTEX_POINT('',#1303);
#393=VERTEX_POINT('',#1307);
#394=VERTEX_POINT('',#1308);
#395=VERTEX_POINT('',#1313);
#396=VERTEX_POINT('',#1317);
#397=VERTEX_POINT('',#1321);
#398=VERTEX_POINT('',#1325);
#399=VERTEX_POINT('',#1329);
#400=VERTEX_POINT('',#1333);
#401=VERTEX_POINT('',#1356);
#402=VERTEX_POINT('',#1360);
#403=VERTEX_POINT('',#1364);
#404=EDGE_CURVE('',#332,#333,#288,.T.);
#405=EDGE_CURVE('',#333,#334,#289,.T.);
#406=EDGE_CURVE('',#334,#335,#290,.T.);
#407=EDGE_CURVE('',#335,#332,#291,.T.);
#408=EDGE_CURVE('',#336,#337,#292,.T.);
#409=EDGE_CURVE('',#337,#335,#55,.T.);
#410=EDGE_CURVE('',#334,#336,#56,.T.);
#411=EDGE_CURVE('',#338,#339,#293,.T.);
#412=EDGE_CURVE('',#339,#337,#294,.T.);
#413=EDGE_CURVE('',#336,#338,#295,.T.);
#414=EDGE_CURVE('',#340,#341,#296,.T.);
#415=EDGE_CURVE('',#341,#339,#57,.T.);
#416=EDGE_CURVE('',#338,#340,#58,.T.);
#417=EDGE_CURVE('',#342,#343,#297,.T.);
#418=EDGE_CURVE('',#343,#341,#298,.T.);
#419=EDGE_CURVE('',#340,#342,#299,.T.);
#420=EDGE_CURVE('',#344,#345,#300,.T.);
#421=EDGE_CURVE('',#345,#343,#59,.T.);
#422=EDGE_CURVE('',#342,#344,#60,.T.);
#423=EDGE_CURVE('',#346,#347,#301,.T.);
#424=EDGE_CURVE('',#347,#345,#302,.T.);
#425=EDGE_CURVE('',#344,#346,#303,.T.);
#426=EDGE_CURVE('',#346,#333,#61,.T.);
#427=EDGE_CURVE('',#332,#347,#62,.T.);
#428=EDGE_CURVE('',#345,#348,#63,.T.);
#429=EDGE_CURVE('',#349,#348,#64,.F.);
#430=EDGE_CURVE('',#343,#349,#65,.T.);
#431=EDGE_CURVE('',#347,#350,#66,.T.);
#432=EDGE_CURVE('',#348,#350,#304,.F.);
#433=EDGE_CURVE('',#332,#351,#67,.T.);
#434=EDGE_CURVE('',#350,#351,#68,.F.);
#435=EDGE_CURVE('',#335,#352,#69,.T.);
#436=EDGE_CURVE('',#351,#352,#305,.F.);
#437=EDGE_CURVE('',#353,#354,#70,.F.);
#438=EDGE_CURVE('',#354,#355,#306,.F.);
#439=EDGE_CURVE('',#355,#356,#71,.F.);
#440=EDGE_CURVE('',#356,#357,#307,.F.);
#441=EDGE_CURVE('',#357,#358,#72,.F.);
#442=EDGE_CURVE('',#358,#359,#308,.F.);
#443=EDGE_CURVE('',#359,#360,#73,.F.);
#444=EDGE_CURVE('',#360,#353,#309,.F.);
#445=EDGE_CURVE('',#361,#362,#74,.F.);
#446=EDGE_CURVE('',#363,#361,#310,.F.);
#447=EDGE_CURVE('',#364,#363,#75,.F.);
#448=EDGE_CURVE('',#365,#364,#311,.F.);
#449=EDGE_CURVE('',#366,#365,#76,.F.);
#450=EDGE_CURVE('',#367,#366,#312,.F.);
#451=EDGE_CURVE('',#368,#367,#77,.F.);
#452=EDGE_CURVE('',#362,#368,#313,.F.);
#453=EDGE_CURVE('',#369,#370,#314,.T.);
#454=EDGE_CURVE('',#369,#371,#78,.T.);
#455=EDGE_CURVE('',#372,#371,#315,.T.);
#456=EDGE_CURVE('',#370,#372,#79,.T.);
#457=EDGE_CURVE('',#373,#369,#80,.T.);
#458=EDGE_CURVE('',#373,#374,#81,.T.);
#459=EDGE_CURVE('',#371,#374,#82,.T.);
#460=EDGE_CURVE('',#375,#373,#316,.T.);
#461=EDGE_CURVE('',#375,#376,#83,.T.);
#462=EDGE_CURVE('',#374,#376,#317,.T.);
#463=EDGE_CURVE('',#377,#375,#84,.T.);
#464=EDGE_CURVE('',#377,#378,#85,.T.);
#465=EDGE_CURVE('',#376,#378,#86,.T.);
#466=EDGE_CURVE('',#370,#379,#87,.T.);
#467=EDGE_CURVE('',#380,#372,#88,.T.);
#468=EDGE_CURVE('',#379,#380,#89,.T.);
#469=EDGE_CURVE('',#379,#381,#318,.T.);
#470=EDGE_CURVE('',#382,#380,#319,.T.);
#471=EDGE_CURVE('',#381,#382,#90,.T.);
#472=EDGE_CURVE('',#381,#383,#91,.T.);
#473=EDGE_CURVE('',#384,#382,#92,.T.);
#474=EDGE_CURVE('',#383,#384,#93,.T.);
#475=EDGE_CURVE('',#383,#377,#320,.T.);
#476=EDGE_CURVE('',#378,#384,#321,.T.);
#477=EDGE_CURVE('',#385,#386,#322,.T.);
#478=EDGE_CURVE('',#386,#387,#94,.T.);
#479=EDGE_CURVE('',#387,#388,#323,.T.);
#480=EDGE_CURVE('',#388,#389,#95,.T.);
#481=EDGE_CURVE('',#389,#390,#324,.T.);
#482=EDGE_CURVE('',#390,#391,#96,.T.);
#483=EDGE_CURVE('',#391,#392,#325,.T.);
#484=EDGE_CURVE('',#392,#385,#97,.T.);
#485=EDGE_CURVE('',#393,#394,#98,.T.);
#486=EDGE_CURVE('',#393,#354,#99,.T.);
#487=EDGE_CURVE('',#394,#353,#100,.T.);
#488=EDGE_CURVE('',#395,#394,#326,.T.);
#489=EDGE_CURVE('',#395,#360,#101,.T.);
#490=EDGE_CURVE('',#395,#396,#102,.T.);
#491=EDGE_CURVE('',#396,#359,#103,.T.);
#492=EDGE_CURVE('',#397,#396,#327,.T.);
#493=EDGE_CURVE('',#397,#358,#104,.T.);
#494=EDGE_CURVE('',#397,#398,#105,.T.);
#495=EDGE_CURVE('',#398,#357,#106,.T.);
#496=EDGE_CURVE('',#399,#398,#328,.T.);
#497=EDGE_CURVE('',#399,#356,#107,.T.);
#498=EDGE_CURVE('',#399,#400,#108,.T.);
#499=EDGE_CURVE('',#400,#355,#109,.T.);
#500=EDGE_CURVE('',#393,#400,#329,.T.);
#501=EDGE_CURVE('',#385,#362,#110,.T.);
#502=EDGE_CURVE('',#361,#392,#111,.T.);
#503=EDGE_CURVE('',#363,#391,#112,.T.);
#504=EDGE_CURVE('',#364,#390,#113,.T.);
#505=EDGE_CURVE('',#365,#389,#114,.T.);
#506=EDGE_CURVE('',#366,#388,#115,.T.);
#507=EDGE_CURVE('',#367,#387,#116,.T.);
#508=EDGE_CURVE('',#368,#386,#117,.T.);
#509=EDGE_CURVE('',#401,#349,#330,.F.);
#510=EDGE_CURVE('',#341,#401,#118,.T.);
#511=EDGE_CURVE('',#402,#401,#119,.F.);
#512=EDGE_CURVE('',#339,#402,#120,.T.);
#513=EDGE_CURVE('',#403,#402,#331,.F.);
#514=EDGE_CURVE('',#337,#403,#121,.T.);
#515=EDGE_CURVE('',#352,#403,#122,.F.);
#516=ORIENTED_EDGE('',*,*,#404,.T.);
#517=ORIENTED_EDGE('',*,*,#405,.T.);
#518=ORIENTED_EDGE('',*,*,#406,.T.);
#519=ORIENTED_EDGE('',*,*,#407,.T.);
#520=ORIENTED_EDGE('',*,*,#408,.T.);
#521=ORIENTED_EDGE('',*,*,#409,.T.);
#522=ORIENTED_EDGE('',*,*,#406,.F.);
#523=ORIENTED_EDGE('',*,*,#410,.T.);
#524=ORIENTED_EDGE('',*,*,#411,.T.);
#525=ORIENTED_EDGE('',*,*,#412,.T.);
#526=ORIENTED_EDGE('',*,*,#408,.F.);
#527=ORIENTED_EDGE('',*,*,#413,.T.);
#528=ORIENTED_EDGE('',*,*,#414,.T.);
#529=ORIENTED_EDGE('',*,*,#415,.T.);
#530=ORIENTED_EDGE('',*,*,#411,.F.);
#531=ORIENTED_EDGE('',*,*,#416,.T.);
#532=ORIENTED_EDGE('',*,*,#417,.T.);
#533=ORIENTED_EDGE('',*,*,#418,.T.);
#534=ORIENTED_EDGE('',*,*,#414,.F.);
#535=ORIENTED_EDGE('',*,*,#419,.T.);
#536=ORIENTED_EDGE('',*,*,#420,.T.);
#537=ORIENTED_EDGE('',*,*,#421,.T.);
#538=ORIENTED_EDGE('',*,*,#417,.F.);
#539=ORIENTED_EDGE('',*,*,#422,.T.);
#540=ORIENTED_EDGE('',*,*,#423,.T.);
#541=ORIENTED_EDGE('',*,*,#424,.T.);
#542=ORIENTED_EDGE('',*,*,#420,.F.);
#543=ORIENTED_EDGE('',*,*,#425,.T.);
#544=ORIENTED_EDGE('',*,*,#423,.F.);
#545=ORIENTED_EDGE('',*,*,#426,.T.);
#546=ORIENTED_EDGE('',*,*,#404,.F.);
#547=ORIENTED_EDGE('',*,*,#427,.T.);
#548=ORIENTED_EDGE('',*,*,#421,.F.);
#549=ORIENTED_EDGE('',*,*,#428,.T.);
#550=ORIENTED_EDGE('',*,*,#429,.F.);
#551=ORIENTED_EDGE('',*,*,#430,.F.);
#552=ORIENTED_EDGE('',*,*,#424,.F.);
#553=ORIENTED_EDGE('',*,*,#431,.T.);
#554=ORIENTED_EDGE('',*,*,#432,.F.);
#555=ORIENTED_EDGE('',*,*,#428,.F.);
#556=ORIENTED_EDGE('',*,*,#427,.F.);
#557=ORIENTED_EDGE('',*,*,#433,.T.);
#558=ORIENTED_EDGE('',*,*,#434,.F.);
#559=ORIENTED_EDGE('',*,*,#431,.F.);
#560=ORIENTED_EDGE('',*,*,#407,.F.);
#561=ORIENTED_EDGE('',*,*,#435,.T.);
#562=ORIENTED_EDGE('',*,*,#436,.F.);
#563=ORIENTED_EDGE('',*,*,#433,.F.);
#564=ORIENTED_EDGE('',*,*,#405,.F.);
#565=ORIENTED_EDGE('',*,*,#426,.F.);
#566=ORIENTED_EDGE('',*,*,#425,.F.);
#567=ORIENTED_EDGE('',*,*,#422,.F.);
#568=ORIENTED_EDGE('',*,*,#419,.F.);
#569=ORIENTED_EDGE('',*,*,#416,.F.);
#570=ORIENTED_EDGE('',*,*,#413,.F.);
#571=ORIENTED_EDGE('',*,*,#410,.F.);
#572=ORIENTED_EDGE('',*,*,#437,.T.);
#573=ORIENTED_EDGE('',*,*,#438,.T.);
#574=ORIENTED_EDGE('',*,*,#439,.T.);
#575=ORIENTED_EDGE('',*,*,#440,.T.);
#576=ORIENTED_EDGE('',*,*,#441,.T.);
#577=ORIENTED_EDGE('',*,*,#442,.T.);
#578=ORIENTED_EDGE('',*,*,#443,.T.);
#579=ORIENTED_EDGE('',*,*,#444,.T.);
#580=ORIENTED_EDGE('',*,*,#445,.F.);
#581=ORIENTED_EDGE('',*,*,#446,.F.);
#582=ORIENTED_EDGE('',*,*,#447,.F.);
#583=ORIENTED_EDGE('',*,*,#448,.F.);
#584=ORIENTED_EDGE('',*,*,#449,.F.);
#585=ORIENTED_EDGE('',*,*,#450,.F.);
#586=ORIENTED_EDGE('',*,*,#451,.F.);
#587=ORIENTED_EDGE('',*,*,#452,.F.);
#588=ORIENTED_EDGE('',*,*,#453,.F.);
#589=ORIENTED_EDGE('',*,*,#454,.T.);
#590=ORIENTED_EDGE('',*,*,#455,.F.);
#591=ORIENTED_EDGE('',*,*,#456,.F.);
#592=ORIENTED_EDGE('',*,*,#457,.F.);
#593=ORIENTED_EDGE('',*,*,#458,.T.);
#594=ORIENTED_EDGE('',*,*,#459,.F.);
#595=ORIENTED_EDGE('',*,*,#454,.F.);
#596=ORIENTED_EDGE('',*,*,#460,.F.);
#597=ORIENTED_EDGE('',*,*,#461,.T.);
#598=ORIENTED_EDGE('',*,*,#462,.F.);
#599=ORIENTED_EDGE('',*,*,#458,.F.);
#600=ORIENTED_EDGE('',*,*,#463,.F.);
#601=ORIENTED_EDGE('',*,*,#464,.T.);
#602=ORIENTED_EDGE('',*,*,#465,.F.);
#603=ORIENTED_EDGE('',*,*,#461,.F.);
#604=ORIENTED_EDGE('',*,*,#466,.F.);
#605=ORIENTED_EDGE('',*,*,#456,.T.);
#606=ORIENTED_EDGE('',*,*,#467,.F.);
#607=ORIENTED_EDGE('',*,*,#468,.F.);
#608=ORIENTED_EDGE('',*,*,#469,.F.);
#609=ORIENTED_EDGE('',*,*,#468,.T.);
#610=ORIENTED_EDGE('',*,*,#470,.F.);
#611=ORIENTED_EDGE('',*,*,#471,.F.);
#612=ORIENTED_EDGE('',*,*,#472,.F.);
#613=ORIENTED_EDGE('',*,*,#471,.T.);
#614=ORIENTED_EDGE('',*,*,#473,.F.);
#615=ORIENTED_EDGE('',*,*,#474,.F.);
#616=ORIENTED_EDGE('',*,*,#475,.F.);
#617=ORIENTED_EDGE('',*,*,#474,.T.);
#618=ORIENTED_EDGE('',*,*,#476,.F.);
#619=ORIENTED_EDGE('',*,*,#464,.F.);
#620=ORIENTED_EDGE('',*,*,#476,.T.);
#621=ORIENTED_EDGE('',*,*,#473,.T.);
#622=ORIENTED_EDGE('',*,*,#470,.T.);
#623=ORIENTED_EDGE('',*,*,#467,.T.);
#624=ORIENTED_EDGE('',*,*,#455,.T.);
#625=ORIENTED_EDGE('',*,*,#459,.T.);
#626=ORIENTED_EDGE('',*,*,#462,.T.);
#627=ORIENTED_EDGE('',*,*,#465,.T.);
#628=ORIENTED_EDGE('',*,*,#477,.T.);
#629=ORIENTED_EDGE('',*,*,#478,.T.);
#630=ORIENTED_EDGE('',*,*,#479,.T.);
#631=ORIENTED_EDGE('',*,*,#480,.T.);
#632=ORIENTED_EDGE('',*,*,#481,.T.);
#633=ORIENTED_EDGE('',*,*,#482,.T.);
#634=ORIENTED_EDGE('',*,*,#483,.T.);
#635=ORIENTED_EDGE('',*,*,#484,.T.);
#636=ORIENTED_EDGE('',*,*,#485,.F.);
#637=ORIENTED_EDGE('',*,*,#486,.T.);
#638=ORIENTED_EDGE('',*,*,#437,.F.);
#639=ORIENTED_EDGE('',*,*,#487,.F.);
#640=ORIENTED_EDGE('',*,*,#488,.T.);
#641=ORIENTED_EDGE('',*,*,#487,.T.);
#642=ORIENTED_EDGE('',*,*,#444,.F.);
#643=ORIENTED_EDGE('',*,*,#489,.F.);
#644=ORIENTED_EDGE('',*,*,#490,.F.);
#645=ORIENTED_EDGE('',*,*,#489,.T.);
#646=ORIENTED_EDGE('',*,*,#443,.F.);
#647=ORIENTED_EDGE('',*,*,#491,.F.);
#648=ORIENTED_EDGE('',*,*,#492,.T.);
#649=ORIENTED_EDGE('',*,*,#491,.T.);
#650=ORIENTED_EDGE('',*,*,#442,.F.);
#651=ORIENTED_EDGE('',*,*,#493,.F.);
#652=ORIENTED_EDGE('',*,*,#494,.F.);
#653=ORIENTED_EDGE('',*,*,#493,.T.);
#654=ORIENTED_EDGE('',*,*,#441,.F.);
#655=ORIENTED_EDGE('',*,*,#495,.F.);
#656=ORIENTED_EDGE('',*,*,#496,.T.);
#657=ORIENTED_EDGE('',*,*,#495,.T.);
#658=ORIENTED_EDGE('',*,*,#440,.F.);
#659=ORIENTED_EDGE('',*,*,#497,.F.);
#660=ORIENTED_EDGE('',*,*,#498,.F.);
#661=ORIENTED_EDGE('',*,*,#497,.T.);
#662=ORIENTED_EDGE('',*,*,#439,.F.);
#663=ORIENTED_EDGE('',*,*,#499,.F.);
#664=ORIENTED_EDGE('',*,*,#500,.T.);
#665=ORIENTED_EDGE('',*,*,#499,.T.);
#666=ORIENTED_EDGE('',*,*,#438,.F.);
#667=ORIENTED_EDGE('',*,*,#486,.F.);
#668=ORIENTED_EDGE('',*,*,#500,.F.);
#669=ORIENTED_EDGE('',*,*,#485,.T.);
#670=ORIENTED_EDGE('',*,*,#488,.F.);
#671=ORIENTED_EDGE('',*,*,#490,.T.);
#672=ORIENTED_EDGE('',*,*,#492,.F.);
#673=ORIENTED_EDGE('',*,*,#494,.T.);
#674=ORIENTED_EDGE('',*,*,#496,.F.);
#675=ORIENTED_EDGE('',*,*,#498,.T.);
#676=ORIENTED_EDGE('',*,*,#501,.F.);
#677=ORIENTED_EDGE('',*,*,#484,.F.);
#678=ORIENTED_EDGE('',*,*,#502,.F.);
#679=ORIENTED_EDGE('',*,*,#445,.T.);
#680=ORIENTED_EDGE('',*,*,#502,.T.);
#681=ORIENTED_EDGE('',*,*,#483,.F.);
#682=ORIENTED_EDGE('',*,*,#503,.F.);
#683=ORIENTED_EDGE('',*,*,#446,.T.);
#684=ORIENTED_EDGE('',*,*,#503,.T.);
#685=ORIENTED_EDGE('',*,*,#482,.F.);
#686=ORIENTED_EDGE('',*,*,#504,.F.);
#687=ORIENTED_EDGE('',*,*,#447,.T.);
#688=ORIENTED_EDGE('',*,*,#504,.T.);
#689=ORIENTED_EDGE('',*,*,#481,.F.);
#690=ORIENTED_EDGE('',*,*,#505,.F.);
#691=ORIENTED_EDGE('',*,*,#448,.T.);
#692=ORIENTED_EDGE('',*,*,#505,.T.);
#693=ORIENTED_EDGE('',*,*,#480,.F.);
#694=ORIENTED_EDGE('',*,*,#506,.F.);
#695=ORIENTED_EDGE('',*,*,#449,.T.);
#696=ORIENTED_EDGE('',*,*,#506,.T.);
#697=ORIENTED_EDGE('',*,*,#479,.F.);
#698=ORIENTED_EDGE('',*,*,#507,.F.);
#699=ORIENTED_EDGE('',*,*,#450,.T.);
#700=ORIENTED_EDGE('',*,*,#507,.T.);
#701=ORIENTED_EDGE('',*,*,#478,.F.);
#702=ORIENTED_EDGE('',*,*,#508,.F.);
#703=ORIENTED_EDGE('',*,*,#451,.T.);
#704=ORIENTED_EDGE('',*,*,#508,.T.);
#705=ORIENTED_EDGE('',*,*,#477,.F.);
#706=ORIENTED_EDGE('',*,*,#501,.T.);
#707=ORIENTED_EDGE('',*,*,#452,.T.);
#708=ORIENTED_EDGE('',*,*,#418,.F.);
#709=ORIENTED_EDGE('',*,*,#430,.T.);
#710=ORIENTED_EDGE('',*,*,#509,.F.);
#711=ORIENTED_EDGE('',*,*,#510,.F.);
#712=ORIENTED_EDGE('',*,*,#415,.F.);
#713=ORIENTED_EDGE('',*,*,#510,.T.);
#714=ORIENTED_EDGE('',*,*,#511,.F.);
#715=ORIENTED_EDGE('',*,*,#512,.F.);
#716=ORIENTED_EDGE('',*,*,#412,.F.);
#717=ORIENTED_EDGE('',*,*,#512,.T.);
#718=ORIENTED_EDGE('',*,*,#513,.F.);
#719=ORIENTED_EDGE('',*,*,#514,.F.);
#720=ORIENTED_EDGE('',*,*,#409,.F.);
#721=ORIENTED_EDGE('',*,*,#514,.T.);
#722=ORIENTED_EDGE('',*,*,#515,.F.);
#723=ORIENTED_EDGE('',*,*,#435,.F.);
#724=ORIENTED_EDGE('',*,*,#436,.T.);
#725=ORIENTED_EDGE('',*,*,#515,.T.);
#726=ORIENTED_EDGE('',*,*,#513,.T.);
#727=ORIENTED_EDGE('',*,*,#511,.T.);
#728=ORIENTED_EDGE('',*,*,#509,.T.);
#729=ORIENTED_EDGE('',*,*,#429,.T.);
#730=ORIENTED_EDGE('',*,*,#432,.T.);
#731=ORIENTED_EDGE('',*,*,#434,.T.);
#732=ORIENTED_EDGE('',*,*,#463,.T.);
#733=ORIENTED_EDGE('',*,*,#460,.T.);
#734=ORIENTED_EDGE('',*,*,#457,.T.);
#735=ORIENTED_EDGE('',*,*,#453,.T.);
#736=ORIENTED_EDGE('',*,*,#466,.T.);
#737=ORIENTED_EDGE('',*,*,#469,.T.);
#738=ORIENTED_EDGE('',*,*,#472,.T.);
#739=ORIENTED_EDGE('',*,*,#475,.T.);
#740=TOROIDAL_SURFACE('',#803,8.76819535586895,0.25);
#741=TOROIDAL_SURFACE('',#810,8.76819535586896,0.25);
#742=TOROIDAL_SURFACE('',#816,8.76819535586897,0.25);
#743=TOROIDAL_SURFACE('',#822,8.76819535586896,0.25);
#744=ADVANCED_FACE('',(#195),#740,.T.);
#745=ADVANCED_FACE('',(#196),#191,.T.);
#746=ADVANCED_FACE('',(#197),#741,.T.);
#747=ADVANCED_FACE('',(#198),#192,.T.);
#748=ADVANCED_FACE('',(#199),#742,.T.);
#749=ADVANCED_FACE('',(#200),#193,.T.);
#750=ADVANCED_FACE('',(#201),#743,.T.);
#751=ADVANCED_FACE('',(#202),#194,.T.);
#752=ADVANCED_FACE('',(#203),#34,.T.);
#753=ADVANCED_FACE('',(#204),#18,.T.);
#754=ADVANCED_FACE('',(#205),#35,.T.);
#755=ADVANCED_FACE('',(#206),#19,.T.);
#756=ADVANCED_FACE('',(#207,#15),#36,.F.);
#757=ADVANCED_FACE('',(#208),#37,.T.);
#758=ADVANCED_FACE('',(#209),#20,.T.);
#759=ADVANCED_FACE('',(#210),#38,.T.);
#760=ADVANCED_FACE('',(#211),#21,.T.);
#761=ADVANCED_FACE('',(#212),#39,.T.);
#762=ADVANCED_FACE('',(#213),#40,.T.);
#763=ADVANCED_FACE('',(#214),#22,.T.);
#764=ADVANCED_FACE('',(#215),#41,.T.);
#765=ADVANCED_FACE('',(#216),#23,.T.);
#766=ADVANCED_FACE('',(#217,#16),#42,.T.);
#767=ADVANCED_FACE('',(#218),#43,.T.);
#768=ADVANCED_FACE('',(#219),#24,.T.);
#769=ADVANCED_FACE('',(#220),#44,.T.);
#770=ADVANCED_FACE('',(#221),#25,.T.);
#771=ADVANCED_FACE('',(#222),#45,.T.);
#772=ADVANCED_FACE('',(#223),#26,.T.);
#773=ADVANCED_FACE('',(#224),#46,.T.);
#774=ADVANCED_FACE('',(#225),#27,.T.);
#775=ADVANCED_FACE('',(#226),#47,.F.);
#776=ADVANCED_FACE('',(#227),#48,.T.);
#777=ADVANCED_FACE('',(#228),#28,.F.);
#778=ADVANCED_FACE('',(#229),#49,.T.);
#779=ADVANCED_FACE('',(#230),#29,.F.);
#780=ADVANCED_FACE('',(#231),#50,.T.);
#781=ADVANCED_FACE('',(#232),#30,.F.);
#782=ADVANCED_FACE('',(#233),#51,.T.);
#783=ADVANCED_FACE('',(#234),#31,.F.);
#784=ADVANCED_FACE('',(#235),#32,.T.);
#785=ADVANCED_FACE('',(#236),#52,.T.);
#786=ADVANCED_FACE('',(#237),#33,.T.);
#787=ADVANCED_FACE('',(#238),#53,.T.);
#788=ADVANCED_FACE('',(#239,#17),#54,.T.);
#789=CLOSED_SHELL('',(#744,#745,#746,#747,#748,#749,#750,#751,#752,#753,
#754,#755,#756,#757,#758,#759,#760,#761,#762,#763,#764,#765,#766,#767,#768,
#769,#770,#771,#772,#773,#774,#775,#776,#777,#778,#779,#780,#781,#782,#783,
#784,#785,#786,#787,#788));
#790=DERIVED_UNIT_ELEMENT(#792,1.);
#791=DERIVED_UNIT_ELEMENT(#1375,-3.);
#792=(
MASS_UNIT()
NAMED_UNIT(*)
SI_UNIT(.KILO.,.GRAM.)
);
#793=DERIVED_UNIT((#790,#791));
#794=MEASURE_REPRESENTATION_ITEM('density measure',
POSITIVE_RATIO_MEASURE(952.),#793);
#795=PROPERTY_DEFINITION_REPRESENTATION(#800,#797);
#796=PROPERTY_DEFINITION_REPRESENTATION(#801,#798);
#797=REPRESENTATION('material name',(#799),#1372);
#798=REPRESENTATION('density',(#794),#1372);
#799=DESCRIPTIVE_REPRESENTATION_ITEM('Polyethylene, High Density',
'Polyethylene, High Density');
#800=PROPERTY_DEFINITION('material property','material name',#1382);
#801=PROPERTY_DEFINITION('material property','density of part',#1382);
#802=AXIS2_PLACEMENT_3D('',#1140,#892,#893);
#803=AXIS2_PLACEMENT_3D('',#1141,#894,#895);
#804=AXIS2_PLACEMENT_3D('',#1144,#896,#897);
#805=AXIS2_PLACEMENT_3D('',#1146,#898,#899);
#806=AXIS2_PLACEMENT_3D('',#1148,#900,#901);
#807=AXIS2_PLACEMENT_3D('',#1149,#902,#903);
#808=AXIS2_PLACEMENT_3D('',#1150,#904,#905);
#809=AXIS2_PLACEMENT_3D('',#1153,#906,#907);
#810=AXIS2_PLACEMENT_3D('',#1156,#910,#911);
#811=AXIS2_PLACEMENT_3D('',#1159,#912,#913);
#812=AXIS2_PLACEMENT_3D('',#1160,#914,#915);
#813=AXIS2_PLACEMENT_3D('',#1161,#916,#917);
#814=AXIS2_PLACEMENT_3D('',#1162,#918,#919);
#815=AXIS2_PLACEMENT_3D('',#1165,#920,#921);
#816=AXIS2_PLACEMENT_3D('',#1168,#924,#925);
#817=AXIS2_PLACEMENT_3D('',#1171,#926,#927);
#818=AXIS2_PLACEMENT_3D('',#1172,#928,#929);
#819=AXIS2_PLACEMENT_3D('',#1173,#930,#931);
#820=AXIS2_PLACEMENT_3D('',#1174,#932,#933);
#821=AXIS2_PLACEMENT_3D('',#1177,#934,#935);
#822=AXIS2_PLACEMENT_3D('',#1180,#938,#939);
#823=AXIS2_PLACEMENT_3D('',#1183,#940,#941);
#824=AXIS2_PLACEMENT_3D('',#1184,#942,#943);
#825=AXIS2_PLACEMENT_3D('',#1185,#944,#945);
#826=AXIS2_PLACEMENT_3D('',#1186,#946,#947);
#827=AXIS2_PLACEMENT_3D('',#1189,#950,#951);
#828=AXIS2_PLACEMENT_3D('',#1195,#955,#956);
#829=AXIS2_PLACEMENT_3D('',#1198,#958,#959);
#830=AXIS2_PLACEMENT_3D('',#1199,#960,#961);
#831=AXIS2_PLACEMENT_3D('',#1203,#964,#965);
#832=AXIS2_PLACEMENT_3D('',#1206,#967,#968);
#833=AXIS2_PLACEMENT_3D('',#1207,#969,#970);
#834=AXIS2_PLACEMENT_3D('',#1212,#972,#973);
#835=AXIS2_PLACEMENT_3D('',#1216,#975,#976);
#836=AXIS2_PLACEMENT_3D('',#1220,#978,#979);
#837=AXIS2_PLACEMENT_3D('',#1223,#981,#982);
#838=AXIS2_PLACEMENT_3D('',#1224,#983,#984);
#839=AXIS2_PLACEMENT_3D('',#1229,#986,#987);
#840=AXIS2_PLACEMENT_3D('',#1233,#989,#990);
#841=AXIS2_PLACEMENT_3D('',#1237,#992,#993);
#842=AXIS2_PLACEMENT_3D('',#1240,#995,#996);
#843=AXIS2_PLACEMENT_3D('',#1241,#997,#998);
#844=AXIS2_PLACEMENT_3D('',#1244,#999,#1000);
#845=AXIS2_PLACEMENT_3D('',#1248,#1002,#1003);
#846=AXIS2_PLACEMENT_3D('',#1250,#1005,#1006);
#847=AXIS2_PLACEMENT_3D('',#1256,#1010,#1011);
#848=AXIS2_PLACEMENT_3D('',#1258,#1012,#1013);
#849=AXIS2_PLACEMENT_3D('',#1261,#1015,#1016);
#850=AXIS2_PLACEMENT_3D('',#1262,#1017,#1018);
#851=AXIS2_PLACEMENT_3D('',#1268,#1022,#1023);
#852=AXIS2_PLACEMENT_3D('',#1274,#1027,#1028);
#853=AXIS2_PLACEMENT_3D('',#1276,#1029,#1030);
#854=AXIS2_PLACEMENT_3D('',#1278,#1031,#1032);
#855=AXIS2_PLACEMENT_3D('',#1280,#1034,#1035);
#856=AXIS2_PLACEMENT_3D('',#1286,#1039,#1040);
#857=AXIS2_PLACEMENT_3D('',#1287,#1041,#1042);
#858=AXIS2_PLACEMENT_3D('',#1288,#1043,#1044);
#859=AXIS2_PLACEMENT_3D('',#1289,#1045,#1046);
#860=AXIS2_PLACEMENT_3D('',#1292,#1047,#1048);
#861=AXIS2_PLACEMENT_3D('',#1296,#1050,#1051);
#862=AXIS2_PLACEMENT_3D('',#1300,#1053,#1054);
#863=AXIS2_PLACEMENT_3D('',#1304,#1056,#1057);
#864=AXIS2_PLACEMENT_3D('',#1306,#1059,#1060);
#865=AXIS2_PLACEMENT_3D('',#1312,#1064,#1065);
#866=AXIS2_PLACEMENT_3D('',#1314,#1066,#1067);
#867=AXIS2_PLACEMENT_3D('',#1316,#1069,#1070);
#868=AXIS2_PLACEMENT_3D('',#1320,#1073,#1074);
#869=AXIS2_PLACEMENT_3D('',#1322,#1075,#1076);
#870=AXIS2_PLACEMENT_3D('',#1324,#1078,#1079);
#871=AXIS2_PLACEMENT_3D('',#1328,#1082,#1083);
#872=AXIS2_PLACEMENT_3D('',#1330,#1084,#1085);
#873=AXIS2_PLACEMENT_3D('',#1332,#1087,#1088);
#874=AXIS2_PLACEMENT_3D('',#1336,#1091,#1092);
#875=AXIS2_PLACEMENT_3D('',#1337,#1093,#1094);
#876=AXIS2_PLACEMENT_3D('',#1338,#1095,#1096);
#877=AXIS2_PLACEMENT_3D('',#1339,#1097,#1098);
#878=AXIS2_PLACEMENT_3D('',#1342,#1101,#1102);
#879=AXIS2_PLACEMENT_3D('',#1344,#1104,#1105);
#880=AXIS2_PLACEMENT_3D('',#1346,#1107,#1108);
#881=AXIS2_PLACEMENT_3D('',#1348,#1110,#1111);
#882=AXIS2_PLACEMENT_3D('',#1350,#1113,#1114);
#883=AXIS2_PLACEMENT_3D('',#1352,#1116,#1117);
#884=AXIS2_PLACEMENT_3D('',#1354,#1119,#1120);
#885=AXIS2_PLACEMENT_3D('',#1355,#1121,#1122);
#886=AXIS2_PLACEMENT_3D('',#1357,#1123,#1124);
#887=AXIS2_PLACEMENT_3D('',#1359,#1126,#1127);
#888=AXIS2_PLACEMENT_3D('',#1363,#1130,#1131);
#889=AXIS2_PLACEMENT_3D('',#1365,#1132,#1133);
#890=AXIS2_PLACEMENT_3D('',#1367,#1135,#1136);
#891=AXIS2_PLACEMENT_3D('',#1369,#1138,#1139);
#892=DIRECTION('axis',(0.,0.,1.));
#893=DIRECTION('refdir',(1.,0.,0.));
#894=DIRECTION('center_axis',(0.,1.,0.));
#895=DIRECTION('ref_axis',(0.,0.,1.));
#896=DIRECTION('center_axis',(1.77755065347791E-14,0.,1.));
#897=DIRECTION('ref_axis',(-0.999328393778656,-0.0366437087065569,1.77635683940028E-14));
#898=DIRECTION('center_axis',(0.,1.,0.));
#899=DIRECTION('ref_axis',(-0.707106781186547,0.,0.707106781186548));
#900=DIRECTION('center_axis',(-1.,0.,0.));
#901=DIRECTION('ref_axis',(0.,-1.,0.));
#902=DIRECTION('center_axis',(0.,-1.,0.));
#903=DIRECTION('ref_axis',(-0.707106781186547,0.,0.707106781186548));
#904=DIRECTION('center_axis',(-1.,0.,0.));
#905=DIRECTION('ref_axis',(0.,-0.719945730144493,0.694030363634556));
#906=DIRECTION('center_axis',(-1.,0.,-1.77755065347791E-14));
#907=DIRECTION('ref_axis',(0.,-1.,0.));
#908=DIRECTION('',(-1.,0.,0.));
#909=DIRECTION('',(1.,0.,0.));
#910=DIRECTION('center_axis',(0.,1.,0.));
#911=DIRECTION('ref_axis',(0.,0.,1.));
#912=DIRECTION('center_axis',(-1.77755065347785E-14,0.,1.));
#913=DIRECTION('ref_axis',(0.,-1.,0.));
#914=DIRECTION('center_axis',(0.,-1.,0.));
#915=DIRECTION('ref_axis',(0.707106781186548,0.,0.707106781186548));
#916=DIRECTION('center_axis',(0.,1.,0.));
#917=DIRECTION('ref_axis',(0.707106781186548,0.,0.707106781186548));
#918=DIRECTION('center_axis',(-1.1842378929335E-16,0.,1.));
#919=DIRECTION('ref_axis',(0.694030363634532,-0.719945730144516,0.));
#920=DIRECTION('center_axis',(0.,0.,1.));
#921=DIRECTION('ref_axis',(0.,-1.,0.));
#922=DIRECTION('',(-1.1842378929335E-16,0.,1.));
#923=DIRECTION('',(1.1842378929335E-16,0.,-1.));
#924=DIRECTION('center_axis',(0.,1.,0.));
#925=DIRECTION('ref_axis',(0.,0.,1.));
#926=DIRECTION('center_axis',(1.,0.,-3.55510130695582E-14));
#927=DIRECTION('ref_axis',(0.,-1.,0.));
#928=DIRECTION('center_axis',(0.,-1.,0.));
#929=DIRECTION('ref_axis',(0.707106781186547,0.,-0.707106781186548));
#930=DIRECTION('center_axis',(0.,1.,0.));
#931=DIRECTION('ref_axis',(0.707106781186547,0.,-0.707106781186547));
#932=DIRECTION('center_axis',(1.,0.,0.));
#933=DIRECTION('ref_axis',(0.,-0.719945730144493,-0.694030363634556));
#934=DIRECTION('center_axis',(1.,0.,0.));
#935=DIRECTION('ref_axis',(0.,-1.,0.));
#936=DIRECTION('',(1.,0.,0.));
#937=DIRECTION('',(-1.,0.,0.));
#938=DIRECTION('center_axis',(0.,1.,0.));
#939=DIRECTION('ref_axis',(0.,0.,1.));
#940=DIRECTION('center_axis',(0.,0.,-1.));
#941=DIRECTION('ref_axis',(0.,-1.,0.));
#942=DIRECTION('center_axis',(0.,-1.,0.));
#943=DIRECTION('ref_axis',(-0.707106781186548,0.,-0.707106781186548));
#944=DIRECTION('center_axis',(0.,1.,0.));
#945=DIRECTION('ref_axis',(-0.707106781186548,0.,-0.707106781186548));
#946=DIRECTION('center_axis',(0.,0.,-1.));
#947=DIRECTION('ref_axis',(-0.694030363634532,-0.719945730144516,0.));
#948=DIRECTION('',(0.,0.,1.));
#949=DIRECTION('',(0.,0.,-1.));
#950=DIRECTION('center_axis',(0.,-0.0366437087065563,-0.999328393778656));
#951=DIRECTION('ref_axis',(-1.,0.,0.));
#952=DIRECTION('',(0.,0.999328393778656,-0.0366437087065563));
#953=DIRECTION('',(1.,0.,0.));
#954=DIRECTION('',(0.,0.999328393778656,-0.0366437087065563));
#955=DIRECTION('center_axis',(0.,1.,0.));
#956=DIRECTION('ref_axis',(0.,0.,-1.));
#957=DIRECTION('',(-0.0366437087065563,0.999328393778656,0.));
#958=DIRECTION('center_axis',(0.,-1.,0.));
#959=DIRECTION('ref_axis',(0.,0.,-1.));
#960=DIRECTION('center_axis',(-0.999328393778656,-0.0366437087065563,0.));
#961=DIRECTION('ref_axis',(0.,0.,1.));
#962=DIRECTION('',(-0.0366437087065563,0.999328393778656,0.));
#963=DIRECTION('',(0.,0.,-1.));
#964=DIRECTION('center_axis',(0.,1.,0.));
#965=DIRECTION('ref_axis',(-1.,0.,-4.92928776032582E-16));
#966=DIRECTION('',(3.61254769640345E-17,0.999328393778656,0.0366437087065563));
#967=DIRECTION('center_axis',(0.,-1.,0.));
#968=DIRECTION('ref_axis',(-1.,0.,-4.92928776032582E-16));
#969=DIRECTION('center_axis',(0.,1.,0.));
#970=DIRECTION('ref_axis',(1.,0.,0.));
#971=DIRECTION('',(0.,0.,-1.));
#972=DIRECTION('center_axis',(0.,-1.,0.));
#973=DIRECTION('ref_axis',(-1.,0.,-6.83214169000097E-16));
#974=DIRECTION('',(-1.,0.,-1.12427648063307E-16));
#975=DIRECTION('center_axis',(0.,-1.,0.));
#976=DIRECTION('ref_axis',(0.,0.,1.));
#977=DIRECTION('',(-1.1842378929335E-16,0.,1.));
#978=DIRECTION('center_axis',(0.,-1.,0.));
#979=DIRECTION('ref_axis',(1.,0.,-2.04964250700028E-15));
#980=DIRECTION('',(1.,0.,0.));
#981=DIRECTION('center_axis',(0.,-1.,0.));
#982=DIRECTION('ref_axis',(0.,0.,-1.));
#983=DIRECTION('center_axis',(0.,1.,0.));
#984=DIRECTION('ref_axis',(1.,0.,0.));
#985=DIRECTION('',(0.,0.,1.));
#986=DIRECTION('center_axis',(0.,1.,0.));
#987=DIRECTION('ref_axis',(-1.,0.,0.));
#988=DIRECTION('',(1.,0.,0.));
#989=DIRECTION('center_axis',(0.,1.,0.));
#990=DIRECTION('ref_axis',(0.,0.,1.));
#991=DIRECTION('',(1.1842378929335E-16,0.,-1.));
#992=DIRECTION('center_axis',(0.,1.,0.));
#993=DIRECTION('ref_axis',(1.,0.,-9.86864910777914E-16));
#994=DIRECTION('',(-1.,0.,0.));
#995=DIRECTION('center_axis',(0.,1.,0.));
#996=DIRECTION('ref_axis',(0.,0.,-1.));
#997=DIRECTION('center_axis',(0.,-1.,0.));
#998=DIRECTION('ref_axis',(1.,0.,-1.71905500587121E-15));
#999=DIRECTION('center_axis',(0.,-1.,0.));
#1000=DIRECTION('ref_axis',(1.,0.,-1.71905500587121E-15));
#1001=DIRECTION('',(0.,0.998629534754574,0.0523359562429438));
#1002=DIRECTION('center_axis',(0.,1.,0.));
#1003=DIRECTION('ref_axis',(1.,0.,-1.71905500587121E-15));
#1004=DIRECTION('',(-0.0523359562429438,0.998629534754574,-6.19782225458037E-18));
#1005=DIRECTION('center_axis',(0.,0.0523359562429438,-0.998629534754574));
#1006=DIRECTION('ref_axis',(-1.,0.,0.));
#1007=DIRECTION('',(1.,0.,0.));
#1008=DIRECTION('',(0.,0.998629534754574,0.0523359562429438));
#1009=DIRECTION('',(-1.,0.,0.));
#1010=DIRECTION('center_axis',(0.,-1.,0.));
#1011=DIRECTION('ref_axis',(0.,0.,-1.));
#1012=DIRECTION('center_axis',(0.,-1.,0.));
#1013=DIRECTION('ref_axis',(0.,0.,-1.));
#1014=DIRECTION('',(0.0523359562429438,0.998629534754574,0.));
#1015=DIRECTION('center_axis',(0.,1.,0.));
#1016=DIRECTION('ref_axis',(0.,0.,-1.));
#1017=DIRECTION('center_axis',(-0.998629534754574,0.0523359562429438,0.));
#1018=DIRECTION('ref_axis',(0.,0.,1.));
#1019=DIRECTION('',(0.,0.,-1.));
#1020=DIRECTION('',(0.0523359562429438,0.998629534754574,0.));
#1021=DIRECTION('',(0.,0.,1.));
#1022=DIRECTION('center_axis',(0.998629534754574,0.0523359562429438,1.18261493605892E-16));
#1023=DIRECTION('ref_axis',(1.1842378929335E-16,0.,-1.));
#1024=DIRECTION('',(-1.1842378929335E-16,0.,1.));
#1025=DIRECTION('',(1.1842378929335E-16,0.,-1.));
#1026=DIRECTION('',(-0.0523359562429438,0.998629534754574,0.));
#1027=DIRECTION('center_axis',(0.,-1.,0.));
#1028=DIRECTION('ref_axis',(0.,0.,1.));
#1029=DIRECTION('center_axis',(0.,-1.,0.));
#1030=DIRECTION('ref_axis',(0.,0.,1.));
#1031=DIRECTION('center_axis',(0.,1.,0.));
#1032=DIRECTION('ref_axis',(0.,0.,1.));
#1033=DIRECTION('',(0.,0.998629534754574,-0.0523359562429438));
#1034=DIRECTION('center_axis',(0.,0.0523359562429438,0.998629534754574));
#1035=DIRECTION('ref_axis',(1.,0.,0.));
#1036=DIRECTION('',(-1.,0.,0.));
#1037=DIRECTION('',(1.,0.,0.));
#1038=DIRECTION('',(-5.99789250443262E-17,0.998629534754574,-0.0523359562429438));
#1039=DIRECTION('center_axis',(0.,-1.,0.));
#1040=DIRECTION('ref_axis',(-1.,0.,-5.73018335290404E-16));
#1041=DIRECTION('center_axis',(0.,-1.,0.));
#1042=DIRECTION('ref_axis',(-1.,0.,-5.73018335290404E-16));
#1043=DIRECTION('center_axis',(0.,1.,0.));
#1044=DIRECTION('ref_axis',(-1.,0.,-5.73018335290404E-16));
#1045=DIRECTION('center_axis',(0.,1.,0.));
#1046=DIRECTION('ref_axis',(1.,0.,0.));
#1047=DIRECTION('center_axis',(0.,-1.,0.));
#1048=DIRECTION('ref_axis',(0.,0.,-1.));
#1049=DIRECTION('',(1.,0.,0.));
#1050=DIRECTION('center_axis',(0.,-1.,0.));
#1051=DIRECTION('ref_axis',(1.,0.,-9.86864910777914E-16));
#1052=DIRECTION('',(-1.1842378929335E-16,0.,1.));
#1053=DIRECTION('center_axis',(0.,-1.,0.));
#1054=DIRECTION('ref_axis',(0.,0.,1.));
#1055=DIRECTION('',(-1.,0.,0.));
#1056=DIRECTION('center_axis',(0.,-1.,0.));
#1057=DIRECTION('ref_axis',(-1.,0.,0.));
#1058=DIRECTION('',(0.,0.,-1.));
#1059=DIRECTION('center_axis',(-0.998629534754574,-0.0523359562429438,0.));
#1060=DIRECTION('ref_axis',(0.,0.,1.));
#1061=DIRECTION('',(0.,0.,-1.));
#1062=DIRECTION('',(-0.0523359562429438,0.998629534754574,-3.57566668533483E-17));
#1063=DIRECTION('',(-0.0523359562429438,0.998629534754574,0.));
#1064=DIRECTION('center_axis',(0.,1.,0.));
#1065=DIRECTION('ref_axis',(0.,0.,-1.));
#1066=DIRECTION('center_axis',(0.,1.,0.));
#1067=DIRECTION('ref_axis',(0.,0.,-1.));
#1068=DIRECTION('',(0.,0.998629534754574,-0.0523359562429438));
#1069=DIRECTION('center_axis',(0.,-0.0523359562429438,-0.998629534754574));
#1070=DIRECTION('ref_axis',(-1.,0.,0.));
#1071=DIRECTION('',(1.,0.,0.));
#1072=DIRECTION('',(3.57566668533482E-17,0.998629534754574,-0.0523359562429438));
#1073=DIRECTION('center_axis',(0.,1.,0.));
#1074=DIRECTION('ref_axis',(1.,0.,-2.04964250700028E-15));
#1075=DIRECTION('center_axis',(0.,1.,0.));
#1076=DIRECTION('ref_axis',(1.,0.,-2.04964250700028E-15));
#1077=DIRECTION('',(0.0523359562429438,0.998629534754574,6.19782225458037E-18));
#1078=DIRECTION('center_axis',(0.998629534754574,-0.0523359562429438,1.18261493605892E-16));
#1079=DIRECTION('ref_axis',(1.1842378929335E-16,0.,-1.));
#1080=DIRECTION('',(-1.1842378929335E-16,0.,1.));
#1081=DIRECTION('',(0.0523359562429438,0.998629534754574,0.));
#1082=DIRECTION('center_axis',(0.,1.,0.));
#1083=DIRECTION('ref_axis',(0.,0.,1.));
#1084=DIRECTION('center_axis',(0.,1.,0.));
#1085=DIRECTION('ref_axis',(0.,0.,1.));
#1086=DIRECTION('',(-5.88400846953832E-18,0.998629534754574,0.0523359562429438));
#1087=DIRECTION('center_axis',(-1.12273569879011E-16,-0.0523359562429438,
0.998629534754574));
#1088=DIRECTION('ref_axis',(1.,0.,1.12427648063307E-16));
#1089=DIRECTION('',(-1.,0.,-1.12427648063307E-16));
#1090=DIRECTION('',(-5.88400846953832E-18,0.998629534754574,0.0523359562429438));
#1091=DIRECTION('center_axis',(0.,1.,0.));
#1092=DIRECTION('ref_axis',(-1.,0.,-6.83214169000097E-16));
#1093=DIRECTION('center_axis',(0.,1.,0.));
#1094=DIRECTION('ref_axis',(-1.,0.,-6.83214169000097E-16));
#1095=DIRECTION('center_axis',(0.,1.,0.));
#1096=DIRECTION('ref_axis',(1.,0.,0.));
#1097=DIRECTION('center_axis',(0.998629534754574,0.0523359562429438,0.));
#1098=DIRECTION('ref_axis',(0.,0.,-1.));
#1099=DIRECTION('',(0.0523359562429438,-0.998629534754574,-1.03297037576339E-16));
#1100=DIRECTION('',(-0.0523359562429438,0.998629534754574,0.));
#1101=DIRECTION('center_axis',(0.,1.,0.));
#1102=DIRECTION('ref_axis',(-1.,0.,0.));
#1103=DIRECTION('',(2.06594075152679E-16,0.998629534754574,0.0523359562429438));
#1104=DIRECTION('center_axis',(0.,0.0523359562429438,-0.998629534754574));
#1105=DIRECTION('ref_axis',(-1.,0.,0.));
#1106=DIRECTION('',(1.03297037576339E-16,0.998629534754574,0.0523359562429438));
#1107=DIRECTION('center_axis',(0.,1.,0.));
#1108=DIRECTION('ref_axis',(0.,0.,1.));
#1109=DIRECTION('',(0.0523359562429438,0.998629534754574,6.19782225458037E-18));
#1110=DIRECTION('center_axis',(-0.998629534754574,0.0523359562429438,-1.18261493605892E-16));
#1111=DIRECTION('ref_axis',(-1.1842378929335E-16,0.,1.));
#1112=DIRECTION('',(0.0523359562429438,0.998629534754574,-5.16485187881697E-17));
#1113=DIRECTION('center_axis',(0.,1.,0.));
#1114=DIRECTION('ref_axis',(1.,0.,-9.86864910777914E-16));
#1115=DIRECTION('',(0.,0.998629534754574,-0.0523359562429438));
#1116=DIRECTION('center_axis',(0.,0.0523359562429438,0.998629534754574));
#1117=DIRECTION('ref_axis',(1.,0.,0.));
#1118=DIRECTION('',(0.,0.998629534754574,-0.0523359562429438));
#1119=DIRECTION('center_axis',(0.,1.,0.));
#1120=DIRECTION('ref_axis',(0.,0.,-1.));
#1121=DIRECTION('center_axis',(0.,1.,0.));
#1122=DIRECTION('ref_axis',(1.,0.,-1.47878632809774E-15));
#1123=DIRECTION('center_axis',(0.,-1.,0.));
#1124=DIRECTION('ref_axis',(1.,0.,-1.47878632809774E-15));
#1125=DIRECTION('',(0.0366437087065563,0.999328393778656,4.33948683879212E-18));
#1126=DIRECTION('center_axis',(0.999328393778656,-0.0366437087065563,1.18344255139706E-16));
#1127=DIRECTION('ref_axis',(1.1842378929335E-16,0.,-1.));
#1128=DIRECTION('',(-1.1842378929335E-16,0.,1.));
#1129=DIRECTION('',(0.0366437087065563,0.999328393778656,0.));
#1130=DIRECTION('center_axis',(0.,1.,0.));
#1131=DIRECTION('ref_axis',(0.,0.,1.));
#1132=DIRECTION('center_axis',(0.,-1.,0.));
#1133=DIRECTION('ref_axis',(0.,0.,1.));
#1134=DIRECTION('',(0.,0.999328393778656,0.0366437087065563));
#1135=DIRECTION('center_axis',(0.,-0.0366437087065563,0.999328393778656));
#1136=DIRECTION('ref_axis',(1.,0.,0.));
#1137=DIRECTION('',(-1.,0.,0.));
#1138=DIRECTION('center_axis',(0.,1.,0.));
#1139=DIRECTION('ref_axis',(1.,0.,0.));
#1140=CARTESIAN_POINT('',(0.,0.,0.));
#1141=CARTESIAN_POINT('Origin',(-39.5,3.25,37.5));
#1142=CARTESIAN_POINT('',(-48.5180274543136,3.24083907282336,37.5));
#1143=CARTESIAN_POINT('',(-48.268195355869,3.,37.5));
#1144=CARTESIAN_POINT('Origin',(-48.268195355869,3.25,37.5));
#1145=CARTESIAN_POINT('',(-39.5,3.,46.268195355869));
#1146=CARTESIAN_POINT('Origin',(-39.5,3.,37.5));
#1147=CARTESIAN_POINT('',(-39.5,3.24083907282336,46.5180274543136));
#1148=CARTESIAN_POINT('Origin',(-39.5,3.25,46.268195355869));
#1149=CARTESIAN_POINT('Origin',(-39.5,3.24083907282336,37.5));
#1150=CARTESIAN_POINT('Origin',(-19.75,3.25,46.268195355869));
#1151=CARTESIAN_POINT('',(39.5,3.,46.268195355869));
#1152=CARTESIAN_POINT('',(39.5,3.24083907282336,46.5180274543136));
#1153=CARTESIAN_POINT('Origin',(39.5,3.25,46.268195355869));
#1154=CARTESIAN_POINT('',(-19.75,3.24083907282336,46.5180274543136));
#1155=CARTESIAN_POINT('',(-19.75,3.,46.268195355869));
#1156=CARTESIAN_POINT('Origin',(39.5,3.25,37.5));
#1157=CARTESIAN_POINT('',(48.2681953558689,3.,37.5));
#1158=CARTESIAN_POINT('',(48.5180274543136,3.24083907282336,37.5));
#1159=CARTESIAN_POINT('Origin',(48.2681953558689,3.25,37.5));
#1160=CARTESIAN_POINT('Origin',(39.5,3.24083907282336,37.5));
#1161=CARTESIAN_POINT('Origin',(39.5,3.,37.5));
#1162=CARTESIAN_POINT('Origin',(48.268195355869,3.25,18.75));
#1163=CARTESIAN_POINT('',(48.268195355869,3.,-37.5));
#1164=CARTESIAN_POINT('',(48.5180274543136,3.24083907282336,-37.5));
#1165=CARTESIAN_POINT('Origin',(48.268195355869,3.25,-37.5));
#1166=CARTESIAN_POINT('',(48.5180274543136,3.24083907282336,18.75));
#1167=CARTESIAN_POINT('',(48.268195355869,3.,18.75));
#1168=CARTESIAN_POINT('Origin',(39.5,3.25,-37.5));
#1169=CARTESIAN_POINT('',(39.5,3.,-46.268195355869));
#1170=CARTESIAN_POINT('',(39.5,3.24083907282336,-46.5180274543136));
#1171=CARTESIAN_POINT('Origin',(39.5,3.25,-46.268195355869));
#1172=CARTESIAN_POINT('Origin',(39.5,3.24083907282336,-37.5));
#1173=CARTESIAN_POINT('Origin',(39.5,3.,-37.5));
#1174=CARTESIAN_POINT('Origin',(19.75,3.25,-46.268195355869));
#1175=CARTESIAN_POINT('',(-39.5,3.,-46.268195355869));
#1176=CARTESIAN_POINT('',(-39.5,3.24083907282336,-46.5180274543136));
#1177=CARTESIAN_POINT('Origin',(-39.5,3.25,-46.268195355869));
#1178=CARTESIAN_POINT('',(19.75,3.24083907282336,-46.5180274543136));
#1179=CARTESIAN_POINT('',(19.75,3.,-46.268195355869));
#1180=CARTESIAN_POINT('Origin',(-39.5,3.25,-37.5));
#1181=CARTESIAN_POINT('',(-48.268195355869,3.,-37.5));
#1182=CARTESIAN_POINT('',(-48.5180274543136,3.24083907282336,-37.5));
#1183=CARTESIAN_POINT('Origin',(-48.268195355869,3.25,-37.5));
#1184=CARTESIAN_POINT('Origin',(-39.5,3.24083907282336,-37.5));
#1185=CARTESIAN_POINT('Origin',(-39.5,3.,-37.5));
#1186=CARTESIAN_POINT('Origin',(-48.268195355869,3.25,-18.75));
#1187=CARTESIAN_POINT('',(-48.268195355869,3.,-18.75));
#1188=CARTESIAN_POINT('',(-48.5180274543136,3.24083907282336,-18.75));
#1189=CARTESIAN_POINT('Origin',(39.5,3.,-46.5091962864166));
#1190=CARTESIAN_POINT('',(-39.5,15.,-46.9492163110814));
#1191=CARTESIAN_POINT('',(-39.5,3.,-46.5091962864166));
#1192=CARTESIAN_POINT('',(39.5,15.,-46.9492163110814));
#1193=CARTESIAN_POINT('',(19.75,15.,-46.9492163110814));
#1194=CARTESIAN_POINT('',(39.5,3.,-46.5091962864166));
#1195=CARTESIAN_POINT('Origin',(-39.5,3.,-37.5));
#1196=CARTESIAN_POINT('',(-48.9492163110814,15.,-37.5));
#1197=CARTESIAN_POINT('',(-48.5091962864166,3.,-37.5));
#1198=CARTESIAN_POINT('Origin',(-39.5,15.,-37.5));
#1199=CARTESIAN_POINT('Origin',(-48.5091962864166,3.,-37.5));
#1200=CARTESIAN_POINT('',(-48.9492163110814,15.,37.5));
#1201=CARTESIAN_POINT('',(-48.5091962864166,3.,37.5));
#1202=CARTESIAN_POINT('',(-48.9492163110814,15.,-18.75));
#1203=CARTESIAN_POINT('Origin',(-39.5,3.,37.5));
#1204=CARTESIAN_POINT('',(-39.5,15.,46.9492163110814));
#1205=CARTESIAN_POINT('',(-39.5,3.,46.5091962864166));
#1206=CARTESIAN_POINT('Origin',(-39.5,15.,37.5));
#1207=CARTESIAN_POINT('Origin',(-8.88178419700125E-15,3.,-8.88178419700125E-15));
#1208=CARTESIAN_POINT('',(-46.1572233378491,3.,-37.5));
#1209=CARTESIAN_POINT('',(-46.1572233378491,3.,37.5));
#1210=CARTESIAN_POINT('',(-46.1572233378491,3.,-18.75));
#1211=CARTESIAN_POINT('',(-39.5,3.,44.1572233378491));
#1212=CARTESIAN_POINT('Origin',(-39.5,3.,37.5));
#1213=CARTESIAN_POINT('',(39.5,3.,44.1572233378491));
#1214=CARTESIAN_POINT('',(-19.75,3.,44.1572233378491));
#1215=CARTESIAN_POINT('',(46.1572233378491,3.,37.5));
#1216=CARTESIAN_POINT('Origin',(39.5,3.,37.5));
#1217=CARTESIAN_POINT('',(46.1572233378491,3.,-37.5));
#1218=CARTESIAN_POINT('',(46.1572233378491,3.,18.75));
#1219=CARTESIAN_POINT('',(39.5,3.,-44.1572233378491));
#1220=CARTESIAN_POINT('Origin',(39.5,3.,-37.5));
#1221=CARTESIAN_POINT('',(-39.5,3.,-44.1572233378491));
#1222=CARTESIAN_POINT('',(19.75,3.,-44.1572233378491));
#1223=CARTESIAN_POINT('Origin',(-39.5,3.,-37.5));
#1224=CARTESIAN_POINT('Origin',(0.,2.5,-8.88178419700125E-15));
#1225=CARTESIAN_POINT('',(-43.1876794211129,2.5,37.5));
#1226=CARTESIAN_POINT('',(-43.1876794211129,2.5,-37.5));
#1227=CARTESIAN_POINT('',(-43.1876794211129,2.5,18.75));
#1228=CARTESIAN_POINT('',(-39.5,2.5,41.1876794211128));
#1229=CARTESIAN_POINT('Origin',(-39.5,2.5,37.5));
#1230=CARTESIAN_POINT('',(39.5,2.5,41.1876794211128));
#1231=CARTESIAN_POINT('',(19.75,2.5,41.1876794211128));
#1232=CARTESIAN_POINT('',(43.1876794211129,2.5,37.5));
#1233=CARTESIAN_POINT('Origin',(39.5,2.5,37.5));
#1234=CARTESIAN_POINT('',(43.1876794211129,2.5,-37.5));
#1235=CARTESIAN_POINT('',(43.1876794211129,2.5,-18.75));
#1236=CARTESIAN_POINT('',(39.5,2.5,-41.1876794211129));
#1237=CARTESIAN_POINT('Origin',(39.5,2.5,-37.5));
#1238=CARTESIAN_POINT('',(-39.5,2.5,-41.1876794211129));
#1239=CARTESIAN_POINT('',(-19.75,2.5,-41.1876794211129));
#1240=CARTESIAN_POINT('Origin',(-39.5,2.5,-37.5));
#1241=CARTESIAN_POINT('Origin',(39.5,18.,-37.5));
#1242=CARTESIAN_POINT('',(39.5,15.,-45.4072233378491));
#1243=CARTESIAN_POINT('',(47.4072233378491,15.,-37.5));
#1244=CARTESIAN_POINT('Origin',(39.5,15.,-37.5));
#1245=CARTESIAN_POINT('',(39.5,18.,-45.25));
#1246=CARTESIAN_POINT('',(39.5,18.,-45.25));
#1247=CARTESIAN_POINT('',(47.25,18.,-37.5));
#1248=CARTESIAN_POINT('Origin',(39.5,18.,-37.5));
#1249=CARTESIAN_POINT('',(47.25,18.,-37.5));
#1250=CARTESIAN_POINT('Origin',(39.5,3.02055697868139,-46.0350393436442));
#1251=CARTESIAN_POINT('',(-39.5,15.,-45.4072233378491));
#1252=CARTESIAN_POINT('',(19.75,15.,-45.4072233378491));
#1253=CARTESIAN_POINT('',(-39.5,18.,-45.25));
#1254=CARTESIAN_POINT('',(-39.5,18.,-45.25));
#1255=CARTESIAN_POINT('',(-39.5,18.,-45.25));
#1256=CARTESIAN_POINT('Origin',(-39.5,18.,-37.5));
#1257=CARTESIAN_POINT('',(-47.4072233378491,15.,-37.5));
#1258=CARTESIAN_POINT('Origin',(-39.5,15.,-37.5));
#1259=CARTESIAN_POINT('',(-47.25,18.,-37.5));
#1260=CARTESIAN_POINT('',(-47.25,18.,-37.5));
#1261=CARTESIAN_POINT('Origin',(-39.5,18.,-37.5));
#1262=CARTESIAN_POINT('Origin',(-48.0350393436442,3.02055697868139,-37.5));
#1263=CARTESIAN_POINT('',(-47.4072233378491,15.,37.5));
#1264=CARTESIAN_POINT('',(-47.4072233378491,15.,-18.75));
#1265=CARTESIAN_POINT('',(-47.25,18.,37.5));
#1266=CARTESIAN_POINT('',(-47.25,18.,37.5));
#1267=CARTESIAN_POINT('',(-47.25,18.,37.5));
#1268=CARTESIAN_POINT('Origin',(48.0350393436442,3.02055697868139,37.5));
#1269=CARTESIAN_POINT('',(47.4072233378491,15.,37.5));
#1270=CARTESIAN_POINT('',(47.4072233378491,15.,18.75));
#1271=CARTESIAN_POINT('',(47.25,18.,37.5));
#1272=CARTESIAN_POINT('',(47.25,18.,-37.5));
#1273=CARTESIAN_POINT('',(47.25,18.,37.5));
#1274=CARTESIAN_POINT('Origin',(39.5,18.,37.5));
#1275=CARTESIAN_POINT('',(39.5,15.,45.4072233378491));
#1276=CARTESIAN_POINT('Origin',(39.5,15.,37.5));
#1277=CARTESIAN_POINT('',(39.5,18.,45.25));
#1278=CARTESIAN_POINT('Origin',(39.5,18.,37.5));
#1279=CARTESIAN_POINT('',(39.5,18.,45.25));
#1280=CARTESIAN_POINT('Origin',(-39.5,3.02055697868139,46.0350393436442));
#1281=CARTESIAN_POINT('',(-39.5,15.,45.4072233378491));
#1282=CARTESIAN_POINT('',(-19.75,15.,45.4072233378491));
#1283=CARTESIAN_POINT('',(-39.5,18.,45.25));
#1284=CARTESIAN_POINT('',(39.5,18.,45.25));
#1285=CARTESIAN_POINT('',(-39.5,18.,45.25));
#1286=CARTESIAN_POINT('Origin',(-39.5,18.,37.5));
#1287=CARTESIAN_POINT('Origin',(-39.5,15.,37.5));
#1288=CARTESIAN_POINT('Origin',(-39.5,18.,37.5));
#1289=CARTESIAN_POINT('Origin',(0.,18.,-8.88178419700125E-15));
#1290=CARTESIAN_POINT('',(-44.,18.,-37.5));
#1291=CARTESIAN_POINT('',(-39.5,18.,-42.));
#1292=CARTESIAN_POINT('Origin',(-39.5,18.,-37.5));
#1293=CARTESIAN_POINT('',(39.5,18.,-42.));
#1294=CARTESIAN_POINT('',(-39.5,18.,-42.));
#1295=CARTESIAN_POINT('',(44.,18.,-37.5));
#1296=CARTESIAN_POINT('Origin',(39.5,18.,-37.5));
#1297=CARTESIAN_POINT('',(44.,18.,37.5));
#1298=CARTESIAN_POINT('',(44.,18.,-37.5));
#1299=CARTESIAN_POINT('',(39.5,18.,42.));
#1300=CARTESIAN_POINT('Origin',(39.5,18.,37.5));
#1301=CARTESIAN_POINT('',(-39.5,18.,42.));
#1302=CARTESIAN_POINT('',(39.5,18.,42.));
#1303=CARTESIAN_POINT('',(-44.,18.,37.5));
#1304=CARTESIAN_POINT('Origin',(-39.5,18.,37.5));
#1305=CARTESIAN_POINT('',(-44.,18.,37.5));
#1306=CARTESIAN_POINT('Origin',(-46.,0.,-37.5));
#1307=CARTESIAN_POINT('',(-46.,0.,37.5));
#1308=CARTESIAN_POINT('',(-46.,0.,-37.5));
#1309=CARTESIAN_POINT('',(-46.,0.,37.5));
#1310=CARTESIAN_POINT('',(-46.,0.,37.5));
#1311=CARTESIAN_POINT('',(-46.,0.,-37.5));
#1312=CARTESIAN_POINT('Origin',(-39.5,0.,-37.5));
#1313=CARTESIAN_POINT('',(-39.5,0.,-44.));
#1314=CARTESIAN_POINT('Origin',(-39.5,0.,-37.5));
#1315=CARTESIAN_POINT('',(-39.5,0.,-44.));
#1316=CARTESIAN_POINT('Origin',(39.5,0.,-44.));
#1317=CARTESIAN_POINT('',(39.5,0.,-44.));
#1318=CARTESIAN_POINT('',(-39.5,0.,-44.));
#1319=CARTESIAN_POINT('',(39.5,0.,-44.));
#1320=CARTESIAN_POINT('Origin',(39.5,0.,-37.5));
#1321=CARTESIAN_POINT('',(46.,0.,-37.5));
#1322=CARTESIAN_POINT('Origin',(39.5,0.,-37.5));
#1323=CARTESIAN_POINT('',(46.,0.,-37.5));
#1324=CARTESIAN_POINT('Origin',(46.,2.77555756156289E-16,37.5));
#1325=CARTESIAN_POINT('',(46.,0.,37.5));
#1326=CARTESIAN_POINT('',(46.,0.,-37.5));
#1327=CARTESIAN_POINT('',(46.,0.,37.5));
#1328=CARTESIAN_POINT('Origin',(39.5,0.,37.5));
#1329=CARTESIAN_POINT('',(39.5,0.,44.));
#1330=CARTESIAN_POINT('Origin',(39.5,0.,37.5));
#1331=CARTESIAN_POINT('',(39.5,0.,44.));
#1332=CARTESIAN_POINT('Origin',(-39.5,0.,44.));
#1333=CARTESIAN_POINT('',(-39.5,0.,44.));
#1334=CARTESIAN_POINT('',(39.5,0.,44.));
#1335=CARTESIAN_POINT('',(-39.5,0.,44.));
#1336=CARTESIAN_POINT('Origin',(-39.5,0.,37.5));
#1337=CARTESIAN_POINT('Origin',(-39.5,0.,37.5));
#1338=CARTESIAN_POINT('Origin',(0.,0.,-8.88178419700125E-15));
#1339=CARTESIAN_POINT('Origin',(-43.2149606563559,3.02055697868139,37.5));
#1340=CARTESIAN_POINT('',(-44.,18.,-37.5));
#1341=CARTESIAN_POINT('',(-44.,18.,37.5));
#1342=CARTESIAN_POINT('Origin',(-39.5,18.,37.5));
#1343=CARTESIAN_POINT('',(-39.5,18.,42.));
#1344=CARTESIAN_POINT('Origin',(39.5,3.02055697868139,41.2149606563558));
#1345=CARTESIAN_POINT('',(39.5,18.,42.));
#1346=CARTESIAN_POINT('Origin',(39.5,18.,37.5));
#1347=CARTESIAN_POINT('',(44.,18.,37.5));
#1348=CARTESIAN_POINT('Origin',(43.2149606563558,3.02055697868139,-37.5));
#1349=CARTESIAN_POINT('',(44.,18.,-37.5));
#1350=CARTESIAN_POINT('Origin',(39.5,18.,-37.5));
#1351=CARTESIAN_POINT('',(39.5,18.,-42.));
#1352=CARTESIAN_POINT('Origin',(-39.5,3.02055697868139,-41.2149606563559));
#1353=CARTESIAN_POINT('',(-39.5,18.,-42.));
#1354=CARTESIAN_POINT('Origin',(-39.5,18.,-37.5));
#1355=CARTESIAN_POINT('Origin',(39.5,3.,-37.5));
#1356=CARTESIAN_POINT('',(48.9492163110814,15.,-37.5));
#1357=CARTESIAN_POINT('Origin',(39.5,15.,-37.5));
#1358=CARTESIAN_POINT('',(48.5091962864166,3.,-37.5));
#1359=CARTESIAN_POINT('Origin',(48.5091962864166,3.,37.5));
#1360=CARTESIAN_POINT('',(48.9492163110814,15.,37.5));
#1361=CARTESIAN_POINT('',(48.9492163110814,15.,18.75));
#1362=CARTESIAN_POINT('',(48.5091962864166,3.,37.5));
#1363=CARTESIAN_POINT('Origin',(39.5,3.,37.5));
#1364=CARTESIAN_POINT('',(39.5,15.,46.9492163110814));
#1365=CARTESIAN_POINT('Origin',(39.5,15.,37.5));
#1366=CARTESIAN_POINT('',(39.5,3.,46.5091962864166));
#1367=CARTESIAN_POINT('Origin',(-39.5,3.,46.5091962864166));
#1368=CARTESIAN_POINT('',(-19.75,15.,46.9492163110814));
#1369=CARTESIAN_POINT('Origin',(-8.88178419700125E-15,15.,-8.88178419700125E-15));
#1370=UNCERTAINTY_MEASURE_WITH_UNIT(LENGTH_MEASURE(0.01),#1374,
'DISTANCE_ACCURACY_VALUE',
'Maximum model space distance between geometric entities at asserted c
onnectivities');
#1371=UNCERTAINTY_MEASURE_WITH_UNIT(LENGTH_MEASURE(0.01),#1374,
'DISTANCE_ACCURACY_VALUE',
'Maximum model space distance between geometric entities at asserted c
onnectivities');
#1372=(
GEOMETRIC_REPRESENTATION_CONTEXT(3)
GLOBAL_UNCERTAINTY_ASSIGNED_CONTEXT((#1370))
GLOBAL_UNIT_ASSIGNED_CONTEXT((#1374,#1376,#1377))
REPRESENTATION_CONTEXT('','3D')
);
#1373=(
GEOMETRIC_REPRESENTATION_CONTEXT(3)
GLOBAL_UNCERTAINTY_ASSIGNED_CONTEXT((#1371))
GLOBAL_UNIT_ASSIGNED_CONTEXT((#1374,#1376,#1377))
REPRESENTATION_CONTEXT('','3D')
);
#1374=(
LENGTH_UNIT()
NAMED_UNIT(*)
SI_UNIT(.MILLI.,.METRE.)
);
#1375=(
LENGTH_UNIT()
NAMED_UNIT(*)
SI_UNIT($,.METRE.)
);
#1376=(
NAMED_UNIT(*)
PLANE_ANGLE_UNIT()
SI_UNIT($,.RADIAN.)
);
#1377=(
NAMED_UNIT(*)
SI_UNIT($,.STERADIAN.)
SOLID_ANGLE_UNIT()
);
#1378=SHAPE_DEFINITION_REPRESENTATION(#1379,#1380);
#1379=PRODUCT_DEFINITION_SHAPE('',$,#1382);
#1380=SHAPE_REPRESENTATION('',(#802),#1372);
#1381=PRODUCT_DEFINITION_CONTEXT('part definition',#1386,'design');
#1382=PRODUCT_DEFINITION('latest_michael','latest_michael v2',#1383,#1381);
#1383=PRODUCT_DEFINITION_FORMATION('',$,#1388);
#1384=PRODUCT_RELATED_PRODUCT_CATEGORY('latest_michael v2',
'latest_michael v2',(#1388));
#1385=APPLICATION_PROTOCOL_DEFINITION('international standard',
'automotive_design',2009,#1386);
#1386=APPLICATION_CONTEXT(
'Core Data for Automotive Mechanical Design Process');
#1387=PRODUCT_CONTEXT('part definition',#1386,'mechanical');
#1388=PRODUCT('latest_michael','latest_michael v2',$,(#1387));
#1389=PRESENTATION_STYLE_ASSIGNMENT((#1390));
#1390=SURFACE_STYLE_USAGE(.BOTH.,#1391);
#1391=SURFACE_SIDE_STYLE('',(#1392));
#1392=SURFACE_STYLE_FILL_AREA(#1393);
#1393=FILL_AREA_STYLE('Surface - Matte',(#1394));
#1394=FILL_AREA_STYLE_COLOUR('Surface - Matte',#1395);
#1395=COLOUR_RGB('Surface - Matte',0.701960784313725,0.701960784313725,
0.701960784313725);
ENDSEC;
END-ISO-10303-21;
