ISO-10303-21;
HEADER;
/* Generated by software containing ST-Developer
 * from STEP Tools, Inc. (www.steptools.com) 
 */

FILE_DESCRIPTION(
/* description */ (''),
/* implementation_level */ '2;1');

FILE_NAME(
/* name */ 'Barrel - Printhead v1.step',
/* time_stamp */ '2026-03-14T10:14:01+01:00',
/* author */ (''),
/* organization */ (''),
/* preprocessor_version */ 'ST-DEVELOPER v20.1',
/* originating_system */ 'Autodesk Translation Framework v14.24.0.0',
/* authorisation */ '');

FILE_SCHEMA (('AUTOMOTIVE_DESIGN { 1 0 10303 214 3 1 1 }'));
ENDSEC;

DATA;
#10=MECHANICAL_DESIGN_GEOMETRIC_PRESENTATION_REPRESENTATION('',(#13,#14),
#671);
#11=SHAPE_REPRESENTATION_RELATIONSHIP('SRR','None',#678,#12);
#12=ADVANCED_BREP_SHAPE_REPRESENTATION('',(#15,#16),#670);
#13=STYLED_ITEM('',(#687),#15);
#14=STYLED_ITEM('',(#687),#16);
#15=MANIFOLD_SOLID_BREP('Body1',#378);
#16=MANIFOLD_SOLID_BREP('Body2',#379);
#17=FACE_BOUND('',#80,.T.);
#18=FACE_BOUND('',#84,.T.);
#19=FACE_BOUND('',#87,.T.);
#20=FACE_BOUND('',#88,.T.);
#21=FACE_BOUND('',#89,.T.);
#22=FACE_BOUND('',#90,.T.);
#23=FACE_BOUND('',#91,.T.);
#24=FACE_BOUND('',#92,.T.);
#25=FACE_BOUND('',#93,.T.);
#26=FACE_BOUND('',#94,.T.);
#27=FACE_BOUND('',#95,.T.);
#28=FACE_BOUND('',#97,.T.);
#29=FACE_BOUND('',#98,.T.);
#30=FACE_BOUND('',#99,.T.);
#31=FACE_BOUND('',#100,.T.);
#32=FACE_BOUND('',#101,.T.);
#33=FACE_BOUND('',#102,.T.);
#34=FACE_BOUND('',#103,.T.);
#35=FACE_BOUND('',#104,.T.);
#36=FACE_BOUND('',#105,.T.);
#37=FACE_BOUND('',#108,.T.);
#38=FACE_BOUND('',#110,.T.);
#39=PLANE('',#420);
#40=PLANE('',#427);
#41=PLANE('',#431);
#42=PLANE('',#432);
#43=PLANE('',#436);
#44=PLANE('',#438);
#45=PLANE('',#442);
#46=PLANE('',#445);
#47=FACE_OUTER_BOUND('',#70,.T.);
#48=FACE_OUTER_BOUND('',#71,.T.);
#49=FACE_OUTER_BOUND('',#72,.T.);
#50=FACE_OUTER_BOUND('',#73,.T.);
#51=FACE_OUTER_BOUND('',#74,.T.);
#52=FACE_OUTER_BOUND('',#75,.T.);
#53=FACE_OUTER_BOUND('',#76,.T.);
#54=FACE_OUTER_BOUND('',#77,.T.);
#55=FACE_OUTER_BOUND('',#78,.T.);
#56=FACE_OUTER_BOUND('',#79,.T.);
#57=FACE_OUTER_BOUND('',#81,.T.);
#58=FACE_OUTER_BOUND('',#82,.T.);
#59=FACE_OUTER_BOUND('',#83,.T.);
#60=FACE_OUTER_BOUND('',#85,.T.);
#61=FACE_OUTER_BOUND('',#86,.T.);
#62=FACE_OUTER_BOUND('',#96,.T.);
#63=FACE_OUTER_BOUND('',#106,.T.);
#64=FACE_OUTER_BOUND('',#107,.T.);
#65=FACE_OUTER_BOUND('',#109,.T.);
#66=FACE_OUTER_BOUND('',#111,.T.);
#67=FACE_OUTER_BOUND('',#112,.T.);
#68=FACE_OUTER_BOUND('',#113,.T.);
#69=FACE_OUTER_BOUND('',#114,.T.);
#70=EDGE_LOOP('',(#250,#251,#252,#253));
#71=EDGE_LOOP('',(#254,#255,#256,#257));
#72=EDGE_LOOP('',(#258,#259,#260,#261));
#73=EDGE_LOOP('',(#262,#263,#264,#265));
#74=EDGE_LOOP('',(#266,#267,#268,#269));
#75=EDGE_LOOP('',(#270,#271,#272,#273));
#76=EDGE_LOOP('',(#274,#275,#276,#277));
#77=EDGE_LOOP('',(#278,#279,#280,#281));
#78=EDGE_LOOP('',(#282,#283,#284,#285));
#79=EDGE_LOOP('',(#286));
#80=EDGE_LOOP('',(#287));
#81=EDGE_LOOP('',(#288,#289,#290,#291));
#82=EDGE_LOOP('',(#292,#293,#294,#295));
#83=EDGE_LOOP('',(#296));
#84=EDGE_LOOP('',(#297));
#85=EDGE_LOOP('',(#298,#299,#300,#301));
#86=EDGE_LOOP('',(#302));
#87=EDGE_LOOP('',(#303));
#88=EDGE_LOOP('',(#304));
#89=EDGE_LOOP('',(#305));
#90=EDGE_LOOP('',(#306));
#91=EDGE_LOOP('',(#307));
#92=EDGE_LOOP('',(#308));
#93=EDGE_LOOP('',(#309));
#94=EDGE_LOOP('',(#310));
#95=EDGE_LOOP('',(#311));
#96=EDGE_LOOP('',(#312));
#97=EDGE_LOOP('',(#313));
#98=EDGE_LOOP('',(#314));
#99=EDGE_LOOP('',(#315));
#100=EDGE_LOOP('',(#316));
#101=EDGE_LOOP('',(#317));
#102=EDGE_LOOP('',(#318));
#103=EDGE_LOOP('',(#319));
#104=EDGE_LOOP('',(#320));
#105=EDGE_LOOP('',(#321));
#106=EDGE_LOOP('',(#322,#323,#324,#325));
#107=EDGE_LOOP('',(#326));
#108=EDGE_LOOP('',(#327));
#109=EDGE_LOOP('',(#328));
#110=EDGE_LOOP('',(#329));
#111=EDGE_LOOP('',(#330,#331,#332,#333));
#112=EDGE_LOOP('',(#334));
#113=EDGE_LOOP('',(#335,#336,#337,#338));
#114=EDGE_LOOP('',(#339));
#115=LINE('',#574,#130);
#116=LINE('',#580,#131);
#117=LINE('',#586,#132);
#118=LINE('',#592,#133);
#119=LINE('',#598,#134);
#120=LINE('',#604,#135);
#121=LINE('',#610,#136);
#122=LINE('',#616,#137);
#123=LINE('',#622,#138);
#124=LINE('',#630,#139);
#125=LINE('',#635,#140);
#126=LINE('',#642,#141);
#127=LINE('',#650,#142);
#128=LINE('',#660,#143);
#129=LINE('',#666,#144);
#130=VECTOR('',#452,3.);
#131=VECTOR('',#459,3.);
#132=VECTOR('',#466,3.);
#133=VECTOR('',#473,3.);
#134=VECTOR('',#480,3.);
#135=VECTOR('',#487,3.);
#136=VECTOR('',#494,3.);
#137=VECTOR('',#501,3.);
#138=VECTOR('',#508,20.);
#139=VECTOR('',#519,12.5);
#140=VECTOR('',#524,20.);
#141=VECTOR('',#533,35.);
#142=VECTOR('',#544,9.925);
#143=VECTOR('',#557,12.5);
#144=VECTOR('',#566,12.5);
#145=CIRCLE('',#394,3.);
#146=CIRCLE('',#395,3.);
#147=CIRCLE('',#397,3.);
#148=CIRCLE('',#398,3.);
#149=CIRCLE('',#400,3.);
#150=CIRCLE('',#401,3.);
#151=CIRCLE('',#403,3.);
#152=CIRCLE('',#404,3.);
#153=CIRCLE('',#406,3.);
#154=CIRCLE('',#407,3.);
#155=CIRCLE('',#409,3.);
#156=CIRCLE('',#410,3.);
#157=CIRCLE('',#412,3.);
#158=CIRCLE('',#413,3.);
#159=CIRCLE('',#415,3.);
#160=CIRCLE('',#416,3.);
#161=CIRCLE('',#418,20.);
#162=CIRCLE('',#419,20.);
#163=CIRCLE('',#421,12.5);
#164=CIRCLE('',#423,12.5);
#165=CIRCLE('',#425,20.);
#166=CIRCLE('',#426,20.);
#167=CIRCLE('',#429,35.);
#168=CIRCLE('',#430,35.);
#169=CIRCLE('',#434,9.925);
#170=CIRCLE('',#435,9.925);
#171=CIRCLE('',#437,12.5);
#172=CIRCLE('',#439,12.5);
#173=CIRCLE('',#441,12.5);
#174=CIRCLE('',#443,12.5);
#175=VERTEX_POINT('',#571);
#176=VERTEX_POINT('',#573);
#177=VERTEX_POINT('',#577);
#178=VERTEX_POINT('',#579);
#179=VERTEX_POINT('',#583);
#180=VERTEX_POINT('',#585);
#181=VERTEX_POINT('',#589);
#182=VERTEX_POINT('',#591);
#183=VERTEX_POINT('',#595);
#184=VERTEX_POINT('',#597);
#185=VERTEX_POINT('',#601);
#186=VERTEX_POINT('',#603);
#187=VERTEX_POINT('',#607);
#188=VERTEX_POINT('',#609);
#189=VERTEX_POINT('',#613);
#190=VERTEX_POINT('',#615);
#191=VERTEX_POINT('',#619);
#192=VERTEX_POINT('',#621);
#193=VERTEX_POINT('',#625);
#194=VERTEX_POINT('',#628);
#195=VERTEX_POINT('',#632);
#196=VERTEX_POINT('',#634);
#197=VERTEX_POINT('',#639);
#198=VERTEX_POINT('',#641);
#199=VERTEX_POINT('',#647);
#200=VERTEX_POINT('',#649);
#201=VERTEX_POINT('',#653);
#202=VERTEX_POINT('',#656);
#203=VERTEX_POINT('',#659);
#204=VERTEX_POINT('',#663);
#205=EDGE_CURVE('',#175,#175,#145,.T.);
#206=EDGE_CURVE('',#175,#176,#115,.T.);
#207=EDGE_CURVE('',#176,#176,#146,.T.);
#208=EDGE_CURVE('',#177,#177,#147,.T.);
#209=EDGE_CURVE('',#177,#178,#116,.T.);
#210=EDGE_CURVE('',#178,#178,#148,.T.);
#211=EDGE_CURVE('',#179,#179,#149,.T.);
#212=EDGE_CURVE('',#179,#180,#117,.T.);
#213=EDGE_CURVE('',#180,#180,#150,.T.);
#214=EDGE_CURVE('',#181,#181,#151,.T.);
#215=EDGE_CURVE('',#181,#182,#118,.T.);
#216=EDGE_CURVE('',#182,#182,#152,.T.);
#217=EDGE_CURVE('',#183,#183,#153,.T.);
#218=EDGE_CURVE('',#183,#184,#119,.T.);
#219=EDGE_CURVE('',#184,#184,#154,.T.);
#220=EDGE_CURVE('',#185,#185,#155,.T.);
#221=EDGE_CURVE('',#185,#186,#120,.T.);
#222=EDGE_CURVE('',#186,#186,#156,.T.);
#223=EDGE_CURVE('',#187,#187,#157,.T.);
#224=EDGE_CURVE('',#187,#188,#121,.T.);
#225=EDGE_CURVE('',#188,#188,#158,.T.);
#226=EDGE_CURVE('',#189,#189,#159,.T.);
#227=EDGE_CURVE('',#189,#190,#122,.T.);
#228=EDGE_CURVE('',#190,#190,#160,.T.);
#229=EDGE_CURVE('',#191,#191,#161,.T.);
#230=EDGE_CURVE('',#191,#192,#123,.T.);
#231=EDGE_CURVE('',#192,#192,#162,.T.);
#232=EDGE_CURVE('',#193,#193,#163,.T.);
#233=EDGE_CURVE('',#194,#194,#164,.T.);
#234=EDGE_CURVE('',#194,#193,#124,.T.);
#235=EDGE_CURVE('',#195,#195,#165,.T.);
#236=EDGE_CURVE('',#195,#196,#125,.T.);
#237=EDGE_CURVE('',#196,#196,#166,.T.);
#238=EDGE_CURVE('',#197,#197,#167,.T.);
#239=EDGE_CURVE('',#197,#198,#126,.T.);
#240=EDGE_CURVE('',#198,#198,#168,.T.);
#241=EDGE_CURVE('',#199,#199,#169,.T.);
#242=EDGE_CURVE('',#199,#200,#127,.T.);
#243=EDGE_CURVE('',#200,#200,#170,.T.);
#244=EDGE_CURVE('',#201,#201,#171,.T.);
#245=EDGE_CURVE('',#202,#202,#172,.T.);
#246=EDGE_CURVE('',#202,#203,#128,.T.);
#247=EDGE_CURVE('',#203,#203,#173,.T.);
#248=EDGE_CURVE('',#204,#204,#174,.T.);
#249=EDGE_CURVE('',#204,#201,#129,.T.);
#250=ORIENTED_EDGE('',*,*,#205,.F.);
#251=ORIENTED_EDGE('',*,*,#206,.T.);
#252=ORIENTED_EDGE('',*,*,#207,.F.);
#253=ORIENTED_EDGE('',*,*,#206,.F.);
#254=ORIENTED_EDGE('',*,*,#208,.F.);
#255=ORIENTED_EDGE('',*,*,#209,.T.);
#256=ORIENTED_EDGE('',*,*,#210,.F.);
#257=ORIENTED_EDGE('',*,*,#209,.F.);
#258=ORIENTED_EDGE('',*,*,#211,.F.);
#259=ORIENTED_EDGE('',*,*,#212,.T.);
#260=ORIENTED_EDGE('',*,*,#213,.F.);
#261=ORIENTED_EDGE('',*,*,#212,.F.);
#262=ORIENTED_EDGE('',*,*,#214,.F.);
#263=ORIENTED_EDGE('',*,*,#215,.T.);
#264=ORIENTED_EDGE('',*,*,#216,.F.);
#265=ORIENTED_EDGE('',*,*,#215,.F.);
#266=ORIENTED_EDGE('',*,*,#217,.F.);
#267=ORIENTED_EDGE('',*,*,#218,.T.);
#268=ORIENTED_EDGE('',*,*,#219,.F.);
#269=ORIENTED_EDGE('',*,*,#218,.F.);
#270=ORIENTED_EDGE('',*,*,#220,.F.);
#271=ORIENTED_EDGE('',*,*,#221,.T.);
#272=ORIENTED_EDGE('',*,*,#222,.F.);
#273=ORIENTED_EDGE('',*,*,#221,.F.);
#274=ORIENTED_EDGE('',*,*,#223,.F.);
#275=ORIENTED_EDGE('',*,*,#224,.T.);
#276=ORIENTED_EDGE('',*,*,#225,.F.);
#277=ORIENTED_EDGE('',*,*,#224,.F.);
#278=ORIENTED_EDGE('',*,*,#226,.F.);
#279=ORIENTED_EDGE('',*,*,#227,.T.);
#280=ORIENTED_EDGE('',*,*,#228,.F.);
#281=ORIENTED_EDGE('',*,*,#227,.F.);
#282=ORIENTED_EDGE('',*,*,#229,.F.);
#283=ORIENTED_EDGE('',*,*,#230,.T.);
#284=ORIENTED_EDGE('',*,*,#231,.F.);
#285=ORIENTED_EDGE('',*,*,#230,.F.);
#286=ORIENTED_EDGE('',*,*,#229,.T.);
#287=ORIENTED_EDGE('',*,*,#232,.T.);
#288=ORIENTED_EDGE('',*,*,#233,.F.);
#289=ORIENTED_EDGE('',*,*,#234,.T.);
#290=ORIENTED_EDGE('',*,*,#232,.F.);
#291=ORIENTED_EDGE('',*,*,#234,.F.);
#292=ORIENTED_EDGE('',*,*,#235,.F.);
#293=ORIENTED_EDGE('',*,*,#236,.T.);
#294=ORIENTED_EDGE('',*,*,#237,.F.);
#295=ORIENTED_EDGE('',*,*,#236,.F.);
#296=ORIENTED_EDGE('',*,*,#235,.T.);
#297=ORIENTED_EDGE('',*,*,#233,.T.);
#298=ORIENTED_EDGE('',*,*,#238,.F.);
#299=ORIENTED_EDGE('',*,*,#239,.T.);
#300=ORIENTED_EDGE('',*,*,#240,.T.);
#301=ORIENTED_EDGE('',*,*,#239,.F.);
#302=ORIENTED_EDGE('',*,*,#238,.T.);
#303=ORIENTED_EDGE('',*,*,#207,.T.);
#304=ORIENTED_EDGE('',*,*,#210,.T.);
#305=ORIENTED_EDGE('',*,*,#213,.T.);
#306=ORIENTED_EDGE('',*,*,#216,.T.);
#307=ORIENTED_EDGE('',*,*,#219,.T.);
#308=ORIENTED_EDGE('',*,*,#222,.T.);
#309=ORIENTED_EDGE('',*,*,#225,.T.);
#310=ORIENTED_EDGE('',*,*,#228,.T.);
#311=ORIENTED_EDGE('',*,*,#237,.T.);
#312=ORIENTED_EDGE('',*,*,#240,.F.);
#313=ORIENTED_EDGE('',*,*,#205,.T.);
#314=ORIENTED_EDGE('',*,*,#208,.T.);
#315=ORIENTED_EDGE('',*,*,#211,.T.);
#316=ORIENTED_EDGE('',*,*,#214,.T.);
#317=ORIENTED_EDGE('',*,*,#217,.T.);
#318=ORIENTED_EDGE('',*,*,#220,.T.);
#319=ORIENTED_EDGE('',*,*,#223,.T.);
#320=ORIENTED_EDGE('',*,*,#226,.T.);
#321=ORIENTED_EDGE('',*,*,#231,.T.);
#322=ORIENTED_EDGE('',*,*,#241,.F.);
#323=ORIENTED_EDGE('',*,*,#242,.T.);
#324=ORIENTED_EDGE('',*,*,#243,.T.);
#325=ORIENTED_EDGE('',*,*,#242,.F.);
#326=ORIENTED_EDGE('',*,*,#244,.F.);
#327=ORIENTED_EDGE('',*,*,#243,.F.);
#328=ORIENTED_EDGE('',*,*,#245,.F.);
#329=ORIENTED_EDGE('',*,*,#241,.T.);
#330=ORIENTED_EDGE('',*,*,#245,.T.);
#331=ORIENTED_EDGE('',*,*,#246,.T.);
#332=ORIENTED_EDGE('',*,*,#247,.F.);
#333=ORIENTED_EDGE('',*,*,#246,.F.);
#334=ORIENTED_EDGE('',*,*,#248,.T.);
#335=ORIENTED_EDGE('',*,*,#248,.F.);
#336=ORIENTED_EDGE('',*,*,#249,.T.);
#337=ORIENTED_EDGE('',*,*,#244,.T.);
#338=ORIENTED_EDGE('',*,*,#249,.F.);
#339=ORIENTED_EDGE('',*,*,#247,.T.);
#340=CYLINDRICAL_SURFACE('',#393,3.);
#341=CYLINDRICAL_SURFACE('',#396,3.);
#342=CYLINDRICAL_SURFACE('',#399,3.);
#343=CYLINDRICAL_SURFACE('',#402,3.);
#344=CYLINDRICAL_SURFACE('',#405,3.);
#345=CYLINDRICAL_SURFACE('',#408,3.);
#346=CYLINDRICAL_SURFACE('',#411,3.);
#347=CYLINDRICAL_SURFACE('',#414,3.);
#348=CYLINDRICAL_SURFACE('',#417,20.);
#349=CYLINDRICAL_SURFACE('',#422,12.5);
#350=CYLINDRICAL_SURFACE('',#424,20.);
#351=CYLINDRICAL_SURFACE('',#428,35.);
#352=CYLINDRICAL_SURFACE('',#433,9.925);
#353=CYLINDRICAL_SURFACE('',#440,12.5);
#354=CYLINDRICAL_SURFACE('',#444,12.5);
#355=ADVANCED_FACE('',(#47),#340,.F.);
#356=ADVANCED_FACE('',(#48),#341,.F.);
#357=ADVANCED_FACE('',(#49),#342,.F.);
#358=ADVANCED_FACE('',(#50),#343,.F.);
#359=ADVANCED_FACE('',(#51),#344,.F.);
#360=ADVANCED_FACE('',(#52),#345,.F.);
#361=ADVANCED_FACE('',(#53),#346,.F.);
#362=ADVANCED_FACE('',(#54),#347,.F.);
#363=ADVANCED_FACE('',(#55),#348,.T.);
#364=ADVANCED_FACE('',(#56,#17),#39,.T.);
#365=ADVANCED_FACE('',(#57),#349,.F.);
#366=ADVANCED_FACE('',(#58),#350,.T.);
#367=ADVANCED_FACE('',(#59,#18),#40,.T.);
#368=ADVANCED_FACE('',(#60),#351,.T.);
#369=ADVANCED_FACE('',(#61,#19,#20,#21,#22,#23,#24,#25,#26,#27),#41,.T.);
#370=ADVANCED_FACE('',(#62,#28,#29,#30,#31,#32,#33,#34,#35,#36),#42,.F.);
#371=ADVANCED_FACE('',(#63),#352,.T.);
#372=ADVANCED_FACE('',(#64,#37),#43,.F.);
#373=ADVANCED_FACE('',(#65,#38),#44,.T.);
#374=ADVANCED_FACE('',(#66),#353,.T.);
#375=ADVANCED_FACE('',(#67),#45,.F.);
#376=ADVANCED_FACE('',(#68),#354,.T.);
#377=ADVANCED_FACE('',(#69),#46,.T.);
#378=CLOSED_SHELL('',(#355,#356,#357,#358,#359,#360,#361,#362,#363,#364,
#365,#366,#367,#368,#369,#370));
#379=CLOSED_SHELL('',(#371,#372,#373,#374,#375,#376,#377));
#380=DERIVED_UNIT_ELEMENT(#382,1.);
#381=DERIVED_UNIT_ELEMENT(#673,-3.);
#382=(
MASS_UNIT()
NAMED_UNIT(*)
SI_UNIT(.KILO.,.GRAM.)
);
#383=DERIVED_UNIT((#380,#381));
#384=MEASURE_REPRESENTATION_ITEM('density measure',
POSITIVE_RATIO_MEASURE(7850.),#383);
#385=PROPERTY_DEFINITION_REPRESENTATION(#390,#387);
#386=PROPERTY_DEFINITION_REPRESENTATION(#391,#388);
#387=REPRESENTATION('material name',(#389),#670);
#388=REPRESENTATION('density',(#384),#670);
#389=DESCRIPTIVE_REPRESENTATION_ITEM('Steel','Steel');
#390=PROPERTY_DEFINITION('material property','material name',#680);
#391=PROPERTY_DEFINITION('material property','density of part',#680);
#392=AXIS2_PLACEMENT_3D('',#569,#446,#447);
#393=AXIS2_PLACEMENT_3D('',#570,#448,#449);
#394=AXIS2_PLACEMENT_3D('',#572,#450,#451);
#395=AXIS2_PLACEMENT_3D('',#575,#453,#454);
#396=AXIS2_PLACEMENT_3D('',#576,#455,#456);
#397=AXIS2_PLACEMENT_3D('',#578,#457,#458);
#398=AXIS2_PLACEMENT_3D('',#581,#460,#461);
#399=AXIS2_PLACEMENT_3D('',#582,#462,#463);
#400=AXIS2_PLACEMENT_3D('',#584,#464,#465);
#401=AXIS2_PLACEMENT_3D('',#587,#467,#468);
#402=AXIS2_PLACEMENT_3D('',#588,#469,#470);
#403=AXIS2_PLACEMENT_3D('',#590,#471,#472);
#404=AXIS2_PLACEMENT_3D('',#593,#474,#475);
#405=AXIS2_PLACEMENT_3D('',#594,#476,#477);
#406=AXIS2_PLACEMENT_3D('',#596,#478,#479);
#407=AXIS2_PLACEMENT_3D('',#599,#481,#482);
#408=AXIS2_PLACEMENT_3D('',#600,#483,#484);
#409=AXIS2_PLACEMENT_3D('',#602,#485,#486);
#410=AXIS2_PLACEMENT_3D('',#605,#488,#489);
#411=AXIS2_PLACEMENT_3D('',#606,#490,#491);
#412=AXIS2_PLACEMENT_3D('',#608,#492,#493);
#413=AXIS2_PLACEMENT_3D('',#611,#495,#496);
#414=AXIS2_PLACEMENT_3D('',#612,#497,#498);
#415=AXIS2_PLACEMENT_3D('',#614,#499,#500);
#416=AXIS2_PLACEMENT_3D('',#617,#502,#503);
#417=AXIS2_PLACEMENT_3D('',#618,#504,#505);
#418=AXIS2_PLACEMENT_3D('',#620,#506,#507);
#419=AXIS2_PLACEMENT_3D('',#623,#509,#510);
#420=AXIS2_PLACEMENT_3D('',#624,#511,#512);
#421=AXIS2_PLACEMENT_3D('',#626,#513,#514);
#422=AXIS2_PLACEMENT_3D('',#627,#515,#516);
#423=AXIS2_PLACEMENT_3D('',#629,#517,#518);
#424=AXIS2_PLACEMENT_3D('',#631,#520,#521);
#425=AXIS2_PLACEMENT_3D('',#633,#522,#523);
#426=AXIS2_PLACEMENT_3D('',#636,#525,#526);
#427=AXIS2_PLACEMENT_3D('',#637,#527,#528);
#428=AXIS2_PLACEMENT_3D('',#638,#529,#530);
#429=AXIS2_PLACEMENT_3D('',#640,#531,#532);
#430=AXIS2_PLACEMENT_3D('',#643,#534,#535);
#431=AXIS2_PLACEMENT_3D('',#644,#536,#537);
#432=AXIS2_PLACEMENT_3D('',#645,#538,#539);
#433=AXIS2_PLACEMENT_3D('',#646,#540,#541);
#434=AXIS2_PLACEMENT_3D('',#648,#542,#543);
#435=AXIS2_PLACEMENT_3D('',#651,#545,#546);
#436=AXIS2_PLACEMENT_3D('',#652,#547,#548);
#437=AXIS2_PLACEMENT_3D('',#654,#549,#550);
#438=AXIS2_PLACEMENT_3D('',#655,#551,#552);
#439=AXIS2_PLACEMENT_3D('',#657,#553,#554);
#440=AXIS2_PLACEMENT_3D('',#658,#555,#556);
#441=AXIS2_PLACEMENT_3D('',#661,#558,#559);
#442=AXIS2_PLACEMENT_3D('',#662,#560,#561);
#443=AXIS2_PLACEMENT_3D('',#664,#562,#563);
#444=AXIS2_PLACEMENT_3D('',#665,#564,#565);
#445=AXIS2_PLACEMENT_3D('',#667,#567,#568);
#446=DIRECTION('axis',(0.,0.,1.));
#447=DIRECTION('refdir',(1.,0.,0.));
#448=DIRECTION('center_axis',(0.,1.,0.));
#449=DIRECTION('ref_axis',(1.,0.,0.));
#450=DIRECTION('center_axis',(0.,1.,0.));
#451=DIRECTION('ref_axis',(1.,0.,0.));
#452=DIRECTION('',(0.,1.,0.));
#453=DIRECTION('center_axis',(0.,-1.,0.));
#454=DIRECTION('ref_axis',(1.,0.,0.));
#455=DIRECTION('center_axis',(0.,1.,0.));
#456=DIRECTION('ref_axis',(1.,0.,0.));
#457=DIRECTION('center_axis',(0.,1.,0.));
#458=DIRECTION('ref_axis',(1.,0.,0.));
#459=DIRECTION('',(0.,1.,0.));
#460=DIRECTION('center_axis',(0.,-1.,0.));
#461=DIRECTION('ref_axis',(1.,0.,0.));
#462=DIRECTION('center_axis',(0.,1.,0.));
#463=DIRECTION('ref_axis',(1.,0.,0.));
#464=DIRECTION('center_axis',(0.,1.,0.));
#465=DIRECTION('ref_axis',(1.,0.,0.));
#466=DIRECTION('',(0.,1.,0.));
#467=DIRECTION('center_axis',(0.,-1.,0.));
#468=DIRECTION('ref_axis',(1.,0.,0.));
#469=DIRECTION('center_axis',(0.,1.,0.));
#470=DIRECTION('ref_axis',(1.,0.,0.));
#471=DIRECTION('center_axis',(0.,1.,0.));
#472=DIRECTION('ref_axis',(1.,0.,0.));
#473=DIRECTION('',(0.,1.,0.));
#474=DIRECTION('center_axis',(0.,-1.,0.));
#475=DIRECTION('ref_axis',(1.,0.,0.));
#476=DIRECTION('center_axis',(0.,1.,0.));
#477=DIRECTION('ref_axis',(1.,0.,0.));
#478=DIRECTION('center_axis',(0.,1.,0.));
#479=DIRECTION('ref_axis',(1.,0.,0.));
#480=DIRECTION('',(0.,1.,0.));
#481=DIRECTION('center_axis',(0.,-1.,0.));
#482=DIRECTION('ref_axis',(1.,0.,0.));
#483=DIRECTION('center_axis',(0.,1.,0.));
#484=DIRECTION('ref_axis',(1.,0.,0.));
#485=DIRECTION('center_axis',(0.,1.,0.));
#486=DIRECTION('ref_axis',(1.,0.,0.));
#487=DIRECTION('',(0.,1.,0.));
#488=DIRECTION('center_axis',(0.,-1.,0.));
#489=DIRECTION('ref_axis',(1.,0.,0.));
#490=DIRECTION('center_axis',(0.,1.,0.));
#491=DIRECTION('ref_axis',(1.,0.,0.));
#492=DIRECTION('center_axis',(0.,1.,0.));
#493=DIRECTION('ref_axis',(1.,0.,0.));
#494=DIRECTION('',(0.,1.,0.));
#495=DIRECTION('center_axis',(0.,-1.,0.));
#496=DIRECTION('ref_axis',(1.,0.,0.));
#497=DIRECTION('center_axis',(0.,1.,0.));
#498=DIRECTION('ref_axis',(1.,0.,0.));
#499=DIRECTION('center_axis',(0.,1.,0.));
#500=DIRECTION('ref_axis',(1.,0.,0.));
#501=DIRECTION('',(0.,1.,0.));
#502=DIRECTION('center_axis',(0.,-1.,0.));
#503=DIRECTION('ref_axis',(1.,0.,0.));
#504=DIRECTION('center_axis',(0.,-1.,0.));
#505=DIRECTION('ref_axis',(1.,0.,0.));
#506=DIRECTION('center_axis',(0.,-1.,0.));
#507=DIRECTION('ref_axis',(1.,0.,0.));
#508=DIRECTION('',(0.,1.,0.));
#509=DIRECTION('center_axis',(0.,1.,0.));
#510=DIRECTION('ref_axis',(1.,0.,0.));
#511=DIRECTION('center_axis',(0.,-1.,0.));
#512=DIRECTION('ref_axis',(1.,0.,0.));
#513=DIRECTION('center_axis',(0.,1.,0.));
#514=DIRECTION('ref_axis',(1.,0.,0.));
#515=DIRECTION('center_axis',(0.,-1.,0.));
#516=DIRECTION('ref_axis',(-1.,0.,0.));
#517=DIRECTION('center_axis',(0.,-1.,0.));
#518=DIRECTION('ref_axis',(-1.,0.,0.));
#519=DIRECTION('',(0.,-1.,0.));
#520=DIRECTION('center_axis',(0.,1.,0.));
#521=DIRECTION('ref_axis',(-1.,0.,0.));
#522=DIRECTION('center_axis',(0.,1.,0.));
#523=DIRECTION('ref_axis',(-1.,0.,0.));
#524=DIRECTION('',(0.,-1.,0.));
#525=DIRECTION('center_axis',(0.,-1.,0.));
#526=DIRECTION('ref_axis',(-1.,0.,0.));
#527=DIRECTION('center_axis',(0.,1.,0.));
#528=DIRECTION('ref_axis',(-1.,0.,0.));
#529=DIRECTION('center_axis',(0.,1.,0.));
#530=DIRECTION('ref_axis',(1.,0.,0.));
#531=DIRECTION('center_axis',(0.,1.,0.));
#532=DIRECTION('ref_axis',(1.,0.,0.));
#533=DIRECTION('',(0.,-1.,0.));
#534=DIRECTION('center_axis',(0.,1.,0.));
#535=DIRECTION('ref_axis',(1.,0.,0.));
#536=DIRECTION('center_axis',(0.,1.,0.));
#537=DIRECTION('ref_axis',(1.,0.,0.));
#538=DIRECTION('center_axis',(0.,1.,0.));
#539=DIRECTION('ref_axis',(1.,0.,0.));
#540=DIRECTION('center_axis',(0.,-1.,0.));
#541=DIRECTION('ref_axis',(1.,0.,0.));
#542=DIRECTION('center_axis',(0.,1.,0.));
#543=DIRECTION('ref_axis',(1.,0.,0.));
#544=DIRECTION('',(0.,-1.,0.));
#545=DIRECTION('center_axis',(0.,1.,0.));
#546=DIRECTION('ref_axis',(1.,0.,0.));
#547=DIRECTION('center_axis',(0.,-1.,0.));
#548=DIRECTION('ref_axis',(1.,0.,0.));
#549=DIRECTION('center_axis',(0.,-1.,0.));
#550=DIRECTION('ref_axis',(-1.,0.,0.));
#551=DIRECTION('center_axis',(0.,-1.,0.));
#552=DIRECTION('ref_axis',(1.,0.,0.));
#553=DIRECTION('center_axis',(0.,1.,0.));
#554=DIRECTION('ref_axis',(-1.,0.,0.));
#555=DIRECTION('center_axis',(0.,-1.,0.));
#556=DIRECTION('ref_axis',(-1.,0.,0.));
#557=DIRECTION('',(0.,1.,0.));
#558=DIRECTION('center_axis',(0.,1.,0.));
#559=DIRECTION('ref_axis',(-1.,0.,0.));
#560=DIRECTION('center_axis',(0.,1.,0.));
#561=DIRECTION('ref_axis',(-1.,0.,0.));
#562=DIRECTION('center_axis',(0.,-1.,0.));
#563=DIRECTION('ref_axis',(-1.,0.,0.));
#564=DIRECTION('center_axis',(0.,-1.,0.));
#565=DIRECTION('ref_axis',(-1.,0.,0.));
#566=DIRECTION('',(0.,1.,0.));
#567=DIRECTION('center_axis',(0.,1.,0.));
#568=DIRECTION('ref_axis',(-1.,0.,0.));
#569=CARTESIAN_POINT('',(0.,0.,0.));
#570=CARTESIAN_POINT('Origin',(-27.5,0.,-6.10622663543836E-15));
#571=CARTESIAN_POINT('',(-30.5,0.,-6.47362067518257E-15));
#572=CARTESIAN_POINT('Origin',(-27.5,0.,-6.10622663543836E-15));
#573=CARTESIAN_POINT('',(-30.5,10.,-6.47362067518257E-15));
#574=CARTESIAN_POINT('',(-30.5,0.,-5.73883259569415E-15));
#575=CARTESIAN_POINT('Origin',(-27.5,10.,-6.10622663543836E-15));
#576=CARTESIAN_POINT('Origin',(19.4454364826301,0.,19.4454364826301));
#577=CARTESIAN_POINT('',(16.4454364826301,0.,19.4454364826301));
#578=CARTESIAN_POINT('Origin',(19.4454364826301,0.,19.4454364826301));
#579=CARTESIAN_POINT('',(16.4454364826301,10.,19.4454364826301));
#580=CARTESIAN_POINT('',(16.4454364826301,0.,19.4454364826301));
#581=CARTESIAN_POINT('Origin',(19.4454364826301,10.,19.4454364826301));
#582=CARTESIAN_POINT('Origin',(27.5,0.,-6.10622663543836E-15));
#583=CARTESIAN_POINT('',(24.5,0.,-6.47362067518257E-15));
#584=CARTESIAN_POINT('Origin',(27.5,0.,-6.10622663543836E-15));
#585=CARTESIAN_POINT('',(24.5,10.,-6.47362067518257E-15));
#586=CARTESIAN_POINT('',(24.5,0.,-5.73883259569416E-15));
#587=CARTESIAN_POINT('Origin',(27.5,10.,-6.10622663543836E-15));
#588=CARTESIAN_POINT('Origin',(-19.4454364826301,0.,-19.4454364826301));
#589=CARTESIAN_POINT('',(-22.4454364826301,0.,-19.4454364826301));
#590=CARTESIAN_POINT('Origin',(-19.4454364826301,0.,-19.4454364826301));
#591=CARTESIAN_POINT('',(-22.4454364826301,10.,-19.4454364826301));
#592=CARTESIAN_POINT('',(-22.4454364826301,0.,-19.4454364826301));
#593=CARTESIAN_POINT('Origin',(-19.4454364826301,10.,-19.4454364826301));
#594=CARTESIAN_POINT('Origin',(-19.4454364826301,0.,19.4454364826301));
#595=CARTESIAN_POINT('',(-22.4454364826301,0.,19.4454364826301));
#596=CARTESIAN_POINT('Origin',(-19.4454364826301,0.,19.4454364826301));
#597=CARTESIAN_POINT('',(-22.4454364826301,10.,19.4454364826301));
#598=CARTESIAN_POINT('',(-22.4454364826301,0.,19.4454364826301));
#599=CARTESIAN_POINT('Origin',(-19.4454364826301,10.,19.4454364826301));
#600=CARTESIAN_POINT('Origin',(0.,0.,27.5));
#601=CARTESIAN_POINT('',(-3.,0.,27.5));
#602=CARTESIAN_POINT('Origin',(0.,0.,27.5));
#603=CARTESIAN_POINT('',(-3.,10.,27.5));
#604=CARTESIAN_POINT('',(-3.,0.,27.5));
#605=CARTESIAN_POINT('Origin',(0.,10.,27.5));
#606=CARTESIAN_POINT('Origin',(19.4454364826301,0.,-19.4454364826301));
#607=CARTESIAN_POINT('',(16.4454364826301,0.,-19.4454364826301));
#608=CARTESIAN_POINT('Origin',(19.4454364826301,0.,-19.4454364826301));
#609=CARTESIAN_POINT('',(16.4454364826301,10.,-19.4454364826301));
#610=CARTESIAN_POINT('',(16.4454364826301,0.,-19.4454364826301));
#611=CARTESIAN_POINT('Origin',(19.4454364826301,10.,-19.4454364826301));
#612=CARTESIAN_POINT('Origin',(-3.36777869765522E-15,0.,-27.5));
#613=CARTESIAN_POINT('',(-3.,0.,-27.5));
#614=CARTESIAN_POINT('Origin',(-3.36777869765522E-15,0.,-27.5));
#615=CARTESIAN_POINT('',(-3.,10.,-27.5));
#616=CARTESIAN_POINT('',(-3.,0.,-27.5));
#617=CARTESIAN_POINT('Origin',(-3.36777869765522E-15,10.,-27.5));
#618=CARTESIAN_POINT('Origin',(0.,0.,0.));
#619=CARTESIAN_POINT('',(-20.,-55.,-2.44929359829471E-15));
#620=CARTESIAN_POINT('Origin',(0.,-55.,0.));
#621=CARTESIAN_POINT('',(-20.,0.,-2.44929359829471E-15));
#622=CARTESIAN_POINT('',(-20.,0.,-2.44929359829471E-15));
#623=CARTESIAN_POINT('Origin',(0.,0.,0.));
#624=CARTESIAN_POINT('Origin',(0.,-55.,0.));
#625=CARTESIAN_POINT('',(12.5,-55.,1.53080849893419E-15));
#626=CARTESIAN_POINT('Origin',(0.,-55.,0.));
#627=CARTESIAN_POINT('Origin',(0.,413.,0.));
#628=CARTESIAN_POINT('',(12.5,413.,-1.53080849893419E-15));
#629=CARTESIAN_POINT('Origin',(0.,413.,0.));
#630=CARTESIAN_POINT('',(12.5,413.,1.53080849893419E-15));
#631=CARTESIAN_POINT('Origin',(0.,10.,0.));
#632=CARTESIAN_POINT('',(20.,413.,-2.44929359829471E-15));
#633=CARTESIAN_POINT('Origin',(0.,413.,0.));
#634=CARTESIAN_POINT('',(20.,10.,-2.44929359829471E-15));
#635=CARTESIAN_POINT('',(20.,10.,-2.44929359829471E-15));
#636=CARTESIAN_POINT('Origin',(0.,10.,0.));
#637=CARTESIAN_POINT('Origin',(0.,413.,0.));
#638=CARTESIAN_POINT('Origin',(0.,0.,0.));
#639=CARTESIAN_POINT('',(-35.,10.,4.28626379701574E-15));
#640=CARTESIAN_POINT('Origin',(0.,10.,0.));
#641=CARTESIAN_POINT('',(-35.,0.,4.28626379701574E-15));
#642=CARTESIAN_POINT('',(-35.,0.,4.28626379701574E-15));
#643=CARTESIAN_POINT('Origin',(0.,0.,0.));
#644=CARTESIAN_POINT('Origin',(0.,10.,0.));
#645=CARTESIAN_POINT('Origin',(0.,0.,0.));
#646=CARTESIAN_POINT('Origin',(0.,-81.,0.));
#647=CARTESIAN_POINT('',(-9.925,-81.,-1.21546194815375E-15));
#648=CARTESIAN_POINT('Origin',(0.,-81.,0.));
#649=CARTESIAN_POINT('',(-9.925,-91.,-1.21546194815375E-15));
#650=CARTESIAN_POINT('',(-9.925,-81.,-1.21546194815375E-15));
#651=CARTESIAN_POINT('Origin',(0.,-91.,0.));
#652=CARTESIAN_POINT('Origin',(0.,-91.,0.));
#653=CARTESIAN_POINT('',(12.5,-91.,1.53080849893419E-15));
#654=CARTESIAN_POINT('Origin',(0.,-91.,0.));
#655=CARTESIAN_POINT('Origin',(0.,-81.,0.));
#656=CARTESIAN_POINT('',(12.5,-81.,-1.53080849893419E-15));
#657=CARTESIAN_POINT('Origin',(0.,-81.,0.));
#658=CARTESIAN_POINT('Origin',(0.,413.,0.));
#659=CARTESIAN_POINT('',(12.5,413.,-1.53080849893419E-15));
#660=CARTESIAN_POINT('',(12.5,413.,1.53080849893419E-15));
#661=CARTESIAN_POINT('Origin',(0.,413.,0.));
#662=CARTESIAN_POINT('Origin',(0.,-141.,0.));
#663=CARTESIAN_POINT('',(12.5,-141.,-1.53080849893419E-15));
#664=CARTESIAN_POINT('Origin',(0.,-141.,0.));
#665=CARTESIAN_POINT('Origin',(0.,413.,0.));
#666=CARTESIAN_POINT('',(12.5,413.,1.53080849893419E-15));
#667=CARTESIAN_POINT('Origin',(0.,413.,0.));
#668=UNCERTAINTY_MEASURE_WITH_UNIT(LENGTH_MEASURE(0.01),#672,
'DISTANCE_ACCURACY_VALUE',
'Maximum model space distance between geometric entities at asserted c
onnectivities');
#669=UNCERTAINTY_MEASURE_WITH_UNIT(LENGTH_MEASURE(0.01),#672,
'DISTANCE_ACCURACY_VALUE',
'Maximum model space distance between geometric entities at asserted c
onnectivities');
#670=(
GEOMETRIC_REPRESENTATION_CONTEXT(3)
GLOBAL_UNCERTAINTY_ASSIGNED_CONTEXT((#668))
GLOBAL_UNIT_ASSIGNED_CONTEXT((#672,#674,#675))
REPRESENTATION_CONTEXT('','3D')
);
#671=(
GEOMETRIC_REPRESENTATION_CONTEXT(3)
GLOBAL_UNCERTAINTY_ASSIGNED_CONTEXT((#669))
GLOBAL_UNIT_ASSIGNED_CONTEXT((#672,#674,#675))
REPRESENTATION_CONTEXT('','3D')
);
#672=(
LENGTH_UNIT()
NAMED_UNIT(*)
SI_UNIT(.MILLI.,.METRE.)
);
#673=(
LENGTH_UNIT()
NAMED_UNIT(*)
SI_UNIT($,.METRE.)
);
#674=(
NAMED_UNIT(*)
PLANE_ANGLE_UNIT()
SI_UNIT($,.RADIAN.)
);
#675=(
NAMED_UNIT(*)
SI_UNIT($,.STERADIAN.)
SOLID_ANGLE_UNIT()
);
#676=SHAPE_DEFINITION_REPRESENTATION(#677,#678);
#677=PRODUCT_DEFINITION_SHAPE('',$,#680);
#678=SHAPE_REPRESENTATION('',(#392),#670);
#679=PRODUCT_DEFINITION_CONTEXT('part definition',#684,'design');
#680=PRODUCT_DEFINITION('Barrel - Printhead','Barrel - Printhead v1',#681,
#679);
#681=PRODUCT_DEFINITION_FORMATION('',$,#686);
#682=PRODUCT_RELATED_PRODUCT_CATEGORY('Barrel - Printhead v1',
'Barrel - Printhead v1',(#686));
#683=APPLICATION_PROTOCOL_DEFINITION('international standard',
'automotive_design',2009,#684);
#684=APPLICATION_CONTEXT(
'Core Data for Automotive Mechanical Design Process');
#685=PRODUCT_CONTEXT('part definition',#684,'mechanical');
#686=PRODUCT('Barrel - Printhead','Barrel - Printhead v1',$,(#685));
#687=PRESENTATION_STYLE_ASSIGNMENT((#688));
#688=SURFACE_STYLE_USAGE(.BOTH.,#689);
#689=SURFACE_SIDE_STYLE('',(#690));
#690=SURFACE_STYLE_FILL_AREA(#691);
#691=FILL_AREA_STYLE('Steel - Satin',(#692));
#692=FILL_AREA_STYLE_COLOUR('Steel - Satin',#693);
#693=COLOUR_RGB('Steel - Satin',0.627450980392157,0.627450980392157,0.627450980392157);
ENDSEC;
END-ISO-10303-21;
