ISO-10303-21;
HEADER;
/* Generated by software containing ST-Developer
 * from STEP Tools, Inc. (www.steptools.com) 
 */

FILE_DESCRIPTION(
/* description */ (''),
/* implementation_level */ '2;1');

FILE_NAME(
/* name */ 'clutch v1.step',
/* time_stamp */ '2026-03-14T09:49:08+01:00',
/* author */ (''),
/* organization */ (''),
/* preprocessor_version */ 'ST-DEVELOPER v20.1',
/* originating_system */ 'Autodesk Translation Framework v14.24.0.0',
/* authorisation */ '');

FILE_SCHEMA (('AUTOMOTIVE_DESIGN { 1 0 10303 214 3 1 1 }'));
ENDSEC;

DATA;
#10=MECHANICAL_DESIGN_GEOMETRIC_PRESENTATION_REPRESENTATION('',(#13,#14),
#666);
#11=SHAPE_REPRESENTATION_RELATIONSHIP('SRR','None',#673,#12);
#12=ADVANCED_BREP_SHAPE_REPRESENTATION('',(#15,#16),#665);
#13=STYLED_ITEM('',(#682),#15);
#14=STYLED_ITEM('',(#682),#16);
#15=MANIFOLD_SOLID_BREP('Body1',#305);
#16=MANIFOLD_SOLID_BREP('Body4',#306);
#17=B_SPLINE_CURVE_WITH_KNOTS('',3,(#458,#459,#460,#461,#462,#463,#464,
#465,#466,#467,#468,#469,#470,#471,#472,#473,#474,#475,#476,#477),
 .UNSPECIFIED.,.F.,.F.,(4,2,2,2,2,2,2,2,2,4),(0.,0.081769499301451,0.163538998602902,
0.327077997205804,0.598527513470066,0.869977029734327,1.08317349684544,
1.29636996395655,1.44305711044043,1.58974425692431),.UNSPECIFIED.);
#18=B_SPLINE_CURVE_WITH_KNOTS('',3,(#478,#479,#480,#481,#482,#483,#484,
#485,#486,#487,#488,#489,#490,#491,#492,#493,#494,#495,#496,#497),
 .UNSPECIFIED.,.F.,.F.,(4,2,2,2,2,2,2,2,2,4),(1.58974425692431,1.73643140340819,
1.88311854989207,2.09631501700318,2.30951148411429,2.58096100037855,2.85241051664281,
3.01594951524571,3.09771901454716,3.17948851384862),.UNSPECIFIED.);
#19=B_SPLINE_CURVE_WITH_KNOTS('',3,(#502,#503,#504,#505,#506,#507,#508,
#509,#510,#511,#512,#513,#514,#515,#516,#517,#518,#519,#520,#521),
 .UNSPECIFIED.,.F.,.F.,(4,2,2,2,2,2,2,2,2,4),(0.,0.146687146483878,0.293374292967757,
0.506570760078869,0.719767227189981,0.991216743454243,1.2626662597185,1.42620525832141,
1.50797475762286,1.58974425692431),.UNSPECIFIED.);
#20=B_SPLINE_CURVE_WITH_KNOTS('',3,(#522,#523,#524,#525,#526,#527,#528,
#529,#530,#531,#532,#533,#534,#535,#536,#537,#538,#539,#540,#541),
 .UNSPECIFIED.,.F.,.F.,(4,2,2,2,2,2,2,2,2,4),(1.58974425692431,1.67151375622576,
1.75328325552721,1.91682225413011,2.18827177039437,2.45972128665864,2.67291775376975,
2.88611422088086,3.03280136736474,3.17948851384862),.UNSPECIFIED.);
#21=B_SPLINE_CURVE_WITH_KNOTS('',3,(#575,#576,#577,#578,#579,#580,#581,
#582,#583,#584,#585,#586,#587,#588,#589,#590,#591,#592,#593,#594),
 .UNSPECIFIED.,.F.,.F.,(4,2,2,2,2,2,2,2,2,4),(0.,0.146687146483878,0.293374292967757,
0.506570760078869,0.719767227189981,0.991216743454243,1.2626662597185,1.42620525832141,
1.50797475762286,1.58974425692431),.UNSPECIFIED.);
#22=B_SPLINE_CURVE_WITH_KNOTS('',3,(#595,#596,#597,#598,#599,#600,#601,
#602,#603,#604,#605,#606,#607,#608,#609,#610,#611,#612,#613,#614),
 .UNSPECIFIED.,.F.,.F.,(4,2,2,2,2,2,2,2,2,4),(1.58974425692431,1.67151375622576,
1.75328325552721,1.91682225413011,2.18827177039437,2.45972128665864,2.67291775376975,
2.88611422088086,3.03280136736474,3.17948851384862),.UNSPECIFIED.);
#23=B_SPLINE_CURVE_WITH_KNOTS('',3,(#619,#620,#621,#622,#623,#624,#625,
#626,#627,#628,#629,#630,#631,#632,#633,#634,#635,#636,#637,#638),
 .UNSPECIFIED.,.F.,.F.,(4,2,2,2,2,2,2,2,2,4),(0.,0.081769499301451,0.163538998602902,
0.327077997205804,0.598527513470065,0.869977029734327,1.08317349684544,
1.29636996395655,1.44305711044043,1.58974425692431),.UNSPECIFIED.);
#24=B_SPLINE_CURVE_WITH_KNOTS('',3,(#639,#640,#641,#642,#643,#644,#645,
#646,#647,#648,#649,#650,#651,#652,#653,#654,#655,#656,#657,#658),
 .UNSPECIFIED.,.F.,.F.,(4,2,2,2,2,2,2,2,2,4),(1.58974425692431,1.73643140340819,
1.88311854989206,2.09631501700318,2.30951148411429,2.58096100037855,2.85241051664281,
3.01594951524571,3.09771901454717,3.17948851384862),.UNSPECIFIED.);
#25=CYLINDRICAL_SURFACE('',#324,12.5);
#26=CYLINDRICAL_SURFACE('',#329,4.);
#27=CYLINDRICAL_SURFACE('',#330,4.);
#28=CYLINDRICAL_SURFACE('',#331,25.);
#29=CYLINDRICAL_SURFACE('',#338,12.5);
#30=CYLINDRICAL_SURFACE('',#343,4.);
#31=CYLINDRICAL_SURFACE('',#344,4.);
#32=CYLINDRICAL_SURFACE('',#345,25.);
#33=FACE_BOUND('',#70,.T.);
#34=FACE_BOUND('',#72,.T.);
#35=FACE_BOUND('',#78,.T.);
#36=FACE_BOUND('',#79,.T.);
#37=FACE_BOUND('',#82,.T.);
#38=FACE_BOUND('',#84,.T.);
#39=FACE_BOUND('',#90,.T.);
#40=FACE_BOUND('',#91,.T.);
#41=CIRCLE('',#321,4.);
#42=CIRCLE('',#323,4.);
#43=CIRCLE('',#325,12.5);
#44=CIRCLE('',#326,12.5);
#45=CIRCLE('',#328,25.);
#46=CIRCLE('',#332,25.);
#47=CIRCLE('',#335,4.);
#48=CIRCLE('',#337,4.);
#49=CIRCLE('',#339,12.5);
#50=CIRCLE('',#340,12.5);
#51=CIRCLE('',#342,25.);
#52=CIRCLE('',#346,25.);
#53=FACE_OUTER_BOUND('',#69,.T.);
#54=FACE_OUTER_BOUND('',#71,.T.);
#55=FACE_OUTER_BOUND('',#73,.T.);
#56=FACE_OUTER_BOUND('',#74,.T.);
#57=FACE_OUTER_BOUND('',#75,.T.);
#58=FACE_OUTER_BOUND('',#76,.T.);
#59=FACE_OUTER_BOUND('',#77,.T.);
#60=FACE_OUTER_BOUND('',#80,.T.);
#61=FACE_OUTER_BOUND('',#81,.T.);
#62=FACE_OUTER_BOUND('',#83,.T.);
#63=FACE_OUTER_BOUND('',#85,.T.);
#64=FACE_OUTER_BOUND('',#86,.T.);
#65=FACE_OUTER_BOUND('',#87,.T.);
#66=FACE_OUTER_BOUND('',#88,.T.);
#67=FACE_OUTER_BOUND('',#89,.T.);
#68=FACE_OUTER_BOUND('',#92,.T.);
#69=EDGE_LOOP('',(#201,#202,#203,#204));
#70=EDGE_LOOP('',(#205));
#71=EDGE_LOOP('',(#206,#207,#208,#209));
#72=EDGE_LOOP('',(#210));
#73=EDGE_LOOP('',(#211,#212,#213,#214));
#74=EDGE_LOOP('',(#215,#216,#217,#218));
#75=EDGE_LOOP('',(#219,#220,#221,#222,#223));
#76=EDGE_LOOP('',(#224,#225,#226,#227,#228));
#77=EDGE_LOOP('',(#229,#230,#231,#232));
#78=EDGE_LOOP('',(#233,#234));
#79=EDGE_LOOP('',(#235,#236));
#80=EDGE_LOOP('',(#237,#238,#239,#240));
#81=EDGE_LOOP('',(#241,#242,#243,#244));
#82=EDGE_LOOP('',(#245));
#83=EDGE_LOOP('',(#246,#247,#248,#249));
#84=EDGE_LOOP('',(#250));
#85=EDGE_LOOP('',(#251,#252,#253,#254));
#86=EDGE_LOOP('',(#255,#256,#257,#258));
#87=EDGE_LOOP('',(#259,#260,#261,#262,#263));
#88=EDGE_LOOP('',(#264,#265,#266,#267,#268));
#89=EDGE_LOOP('',(#269,#270,#271,#272));
#90=EDGE_LOOP('',(#273,#274));
#91=EDGE_LOOP('',(#275,#276));
#92=EDGE_LOOP('',(#277,#278,#279,#280));
#93=LINE('',#430,#113);
#94=LINE('',#432,#114);
#95=LINE('',#434,#115);
#96=LINE('',#435,#116);
#97=LINE('',#441,#117);
#98=LINE('',#443,#118);
#99=LINE('',#445,#119);
#100=LINE('',#446,#120);
#101=LINE('',#456,#121);
#102=LINE('',#500,#122);
#103=LINE('',#548,#123);
#104=LINE('',#550,#124);
#105=LINE('',#552,#125);
#106=LINE('',#553,#126);
#107=LINE('',#559,#127);
#108=LINE('',#561,#128);
#109=LINE('',#563,#129);
#110=LINE('',#564,#130);
#111=LINE('',#615,#131);
#112=LINE('',#659,#132);
#113=VECTOR('',#352,10.);
#114=VECTOR('',#353,10.);
#115=VECTOR('',#354,10.);
#116=VECTOR('',#355,10.);
#117=VECTOR('',#360,10.);
#118=VECTOR('',#361,10.);
#119=VECTOR('',#362,10.);
#120=VECTOR('',#363,10.);
#121=VECTOR('',#378,4.);
#122=VECTOR('',#381,4.);
#123=VECTOR('',#390,10.);
#124=VECTOR('',#391,10.);
#125=VECTOR('',#392,10.);
#126=VECTOR('',#393,10.);
#127=VECTOR('',#398,10.);
#128=VECTOR('',#399,10.);
#129=VECTOR('',#400,10.);
#130=VECTOR('',#401,10.);
#131=VECTOR('',#416,4.);
#132=VECTOR('',#419,4.);
#133=VERTEX_POINT('',#428);
#134=VERTEX_POINT('',#429);
#135=VERTEX_POINT('',#431);
#136=VERTEX_POINT('',#433);
#137=VERTEX_POINT('',#436);
#138=VERTEX_POINT('',#439);
#139=VERTEX_POINT('',#440);
#140=VERTEX_POINT('',#442);
#141=VERTEX_POINT('',#444);
#142=VERTEX_POINT('',#447);
#143=VERTEX_POINT('',#455);
#144=VERTEX_POINT('',#457);
#145=VERTEX_POINT('',#499);
#146=VERTEX_POINT('',#501);
#147=VERTEX_POINT('',#546);
#148=VERTEX_POINT('',#547);
#149=VERTEX_POINT('',#549);
#150=VERTEX_POINT('',#551);
#151=VERTEX_POINT('',#554);
#152=VERTEX_POINT('',#557);
#153=VERTEX_POINT('',#558);
#154=VERTEX_POINT('',#560);
#155=VERTEX_POINT('',#562);
#156=VERTEX_POINT('',#565);
#157=VERTEX_POINT('',#573);
#158=VERTEX_POINT('',#574);
#159=VERTEX_POINT('',#617);
#160=VERTEX_POINT('',#618);
#161=EDGE_CURVE('',#133,#134,#93,.T.);
#162=EDGE_CURVE('',#135,#133,#94,.T.);
#163=EDGE_CURVE('',#136,#135,#95,.T.);
#164=EDGE_CURVE('',#134,#136,#96,.T.);
#165=EDGE_CURVE('',#137,#137,#41,.T.);
#166=EDGE_CURVE('',#138,#139,#97,.T.);
#167=EDGE_CURVE('',#140,#138,#98,.T.);
#168=EDGE_CURVE('',#141,#140,#99,.T.);
#169=EDGE_CURVE('',#139,#141,#100,.T.);
#170=EDGE_CURVE('',#142,#142,#42,.T.);
#171=EDGE_CURVE('',#140,#136,#43,.T.);
#172=EDGE_CURVE('',#141,#135,#44,.T.);
#173=EDGE_CURVE('',#134,#138,#45,.T.);
#174=EDGE_CURVE('',#142,#143,#101,.T.);
#175=EDGE_CURVE('',#144,#143,#17,.T.);
#176=EDGE_CURVE('',#143,#144,#18,.T.);
#177=EDGE_CURVE('',#137,#145,#102,.T.);
#178=EDGE_CURVE('',#146,#145,#19,.T.);
#179=EDGE_CURVE('',#145,#146,#20,.T.);
#180=EDGE_CURVE('',#133,#139,#46,.T.);
#181=EDGE_CURVE('',#147,#148,#103,.T.);
#182=EDGE_CURVE('',#149,#147,#104,.T.);
#183=EDGE_CURVE('',#150,#149,#105,.T.);
#184=EDGE_CURVE('',#148,#150,#106,.T.);
#185=EDGE_CURVE('',#151,#151,#47,.T.);
#186=EDGE_CURVE('',#152,#153,#107,.T.);
#187=EDGE_CURVE('',#154,#152,#108,.T.);
#188=EDGE_CURVE('',#155,#154,#109,.T.);
#189=EDGE_CURVE('',#153,#155,#110,.T.);
#190=EDGE_CURVE('',#156,#156,#48,.T.);
#191=EDGE_CURVE('',#154,#150,#49,.T.);
#192=EDGE_CURVE('',#155,#149,#50,.T.);
#193=EDGE_CURVE('',#148,#152,#51,.T.);
#194=EDGE_CURVE('',#157,#158,#21,.T.);
#195=EDGE_CURVE('',#158,#157,#22,.T.);
#196=EDGE_CURVE('',#158,#156,#111,.T.);
#197=EDGE_CURVE('',#159,#160,#23,.T.);
#198=EDGE_CURVE('',#160,#159,#24,.T.);
#199=EDGE_CURVE('',#160,#151,#112,.T.);
#200=EDGE_CURVE('',#147,#153,#52,.T.);
#201=ORIENTED_EDGE('',*,*,#161,.F.);
#202=ORIENTED_EDGE('',*,*,#162,.F.);
#203=ORIENTED_EDGE('',*,*,#163,.F.);
#204=ORIENTED_EDGE('',*,*,#164,.F.);
#205=ORIENTED_EDGE('',*,*,#165,.F.);
#206=ORIENTED_EDGE('',*,*,#166,.F.);
#207=ORIENTED_EDGE('',*,*,#167,.F.);
#208=ORIENTED_EDGE('',*,*,#168,.F.);
#209=ORIENTED_EDGE('',*,*,#169,.F.);
#210=ORIENTED_EDGE('',*,*,#170,.F.);
#211=ORIENTED_EDGE('',*,*,#168,.T.);
#212=ORIENTED_EDGE('',*,*,#171,.T.);
#213=ORIENTED_EDGE('',*,*,#163,.T.);
#214=ORIENTED_EDGE('',*,*,#172,.F.);
#215=ORIENTED_EDGE('',*,*,#167,.T.);
#216=ORIENTED_EDGE('',*,*,#173,.F.);
#217=ORIENTED_EDGE('',*,*,#164,.T.);
#218=ORIENTED_EDGE('',*,*,#171,.F.);
#219=ORIENTED_EDGE('',*,*,#170,.T.);
#220=ORIENTED_EDGE('',*,*,#174,.T.);
#221=ORIENTED_EDGE('',*,*,#175,.F.);
#222=ORIENTED_EDGE('',*,*,#176,.F.);
#223=ORIENTED_EDGE('',*,*,#174,.F.);
#224=ORIENTED_EDGE('',*,*,#165,.T.);
#225=ORIENTED_EDGE('',*,*,#177,.T.);
#226=ORIENTED_EDGE('',*,*,#178,.F.);
#227=ORIENTED_EDGE('',*,*,#179,.F.);
#228=ORIENTED_EDGE('',*,*,#177,.F.);
#229=ORIENTED_EDGE('',*,*,#166,.T.);
#230=ORIENTED_EDGE('',*,*,#180,.F.);
#231=ORIENTED_EDGE('',*,*,#161,.T.);
#232=ORIENTED_EDGE('',*,*,#173,.T.);
#233=ORIENTED_EDGE('',*,*,#175,.T.);
#234=ORIENTED_EDGE('',*,*,#176,.T.);
#235=ORIENTED_EDGE('',*,*,#178,.T.);
#236=ORIENTED_EDGE('',*,*,#179,.T.);
#237=ORIENTED_EDGE('',*,*,#169,.T.);
#238=ORIENTED_EDGE('',*,*,#172,.T.);
#239=ORIENTED_EDGE('',*,*,#162,.T.);
#240=ORIENTED_EDGE('',*,*,#180,.T.);
#241=ORIENTED_EDGE('',*,*,#181,.F.);
#242=ORIENTED_EDGE('',*,*,#182,.F.);
#243=ORIENTED_EDGE('',*,*,#183,.F.);
#244=ORIENTED_EDGE('',*,*,#184,.F.);
#245=ORIENTED_EDGE('',*,*,#185,.F.);
#246=ORIENTED_EDGE('',*,*,#186,.F.);
#247=ORIENTED_EDGE('',*,*,#187,.F.);
#248=ORIENTED_EDGE('',*,*,#188,.F.);
#249=ORIENTED_EDGE('',*,*,#189,.F.);
#250=ORIENTED_EDGE('',*,*,#190,.F.);
#251=ORIENTED_EDGE('',*,*,#188,.T.);
#252=ORIENTED_EDGE('',*,*,#191,.T.);
#253=ORIENTED_EDGE('',*,*,#183,.T.);
#254=ORIENTED_EDGE('',*,*,#192,.F.);
#255=ORIENTED_EDGE('',*,*,#187,.T.);
#256=ORIENTED_EDGE('',*,*,#193,.F.);
#257=ORIENTED_EDGE('',*,*,#184,.T.);
#258=ORIENTED_EDGE('',*,*,#191,.F.);
#259=ORIENTED_EDGE('',*,*,#194,.F.);
#260=ORIENTED_EDGE('',*,*,#195,.F.);
#261=ORIENTED_EDGE('',*,*,#196,.T.);
#262=ORIENTED_EDGE('',*,*,#190,.T.);
#263=ORIENTED_EDGE('',*,*,#196,.F.);
#264=ORIENTED_EDGE('',*,*,#197,.F.);
#265=ORIENTED_EDGE('',*,*,#198,.F.);
#266=ORIENTED_EDGE('',*,*,#199,.T.);
#267=ORIENTED_EDGE('',*,*,#185,.T.);
#268=ORIENTED_EDGE('',*,*,#199,.F.);
#269=ORIENTED_EDGE('',*,*,#186,.T.);
#270=ORIENTED_EDGE('',*,*,#200,.F.);
#271=ORIENTED_EDGE('',*,*,#181,.T.);
#272=ORIENTED_EDGE('',*,*,#193,.T.);
#273=ORIENTED_EDGE('',*,*,#194,.T.);
#274=ORIENTED_EDGE('',*,*,#195,.T.);
#275=ORIENTED_EDGE('',*,*,#197,.T.);
#276=ORIENTED_EDGE('',*,*,#198,.T.);
#277=ORIENTED_EDGE('',*,*,#189,.T.);
#278=ORIENTED_EDGE('',*,*,#192,.T.);
#279=ORIENTED_EDGE('',*,*,#182,.T.);
#280=ORIENTED_EDGE('',*,*,#200,.T.);
#281=PLANE('',#320);
#282=PLANE('',#322);
#283=PLANE('',#327);
#284=PLANE('',#333);
#285=PLANE('',#334);
#286=PLANE('',#336);
#287=PLANE('',#341);
#288=PLANE('',#347);
#289=ADVANCED_FACE('',(#53,#33),#281,.F.);
#290=ADVANCED_FACE('',(#54,#34),#282,.F.);
#291=ADVANCED_FACE('',(#55),#25,.F.);
#292=ADVANCED_FACE('',(#56),#283,.F.);
#293=ADVANCED_FACE('',(#57),#26,.F.);
#294=ADVANCED_FACE('',(#58),#27,.F.);
#295=ADVANCED_FACE('',(#59,#35,#36),#28,.T.);
#296=ADVANCED_FACE('',(#60),#284,.T.);
#297=ADVANCED_FACE('',(#61,#37),#285,.F.);
#298=ADVANCED_FACE('',(#62,#38),#286,.F.);
#299=ADVANCED_FACE('',(#63),#29,.F.);
#300=ADVANCED_FACE('',(#64),#287,.F.);
#301=ADVANCED_FACE('',(#65),#30,.F.);
#302=ADVANCED_FACE('',(#66),#31,.F.);
#303=ADVANCED_FACE('',(#67,#39,#40),#32,.T.);
#304=ADVANCED_FACE('',(#68),#288,.T.);
#305=CLOSED_SHELL('',(#289,#290,#291,#292,#293,#294,#295,#296));
#306=CLOSED_SHELL('',(#297,#298,#299,#300,#301,#302,#303,#304));
#307=DERIVED_UNIT_ELEMENT(#309,1.);
#308=DERIVED_UNIT_ELEMENT(#668,-3.);
#309=(
MASS_UNIT()
NAMED_UNIT(*)
SI_UNIT(.KILO.,.GRAM.)
);
#310=DERIVED_UNIT((#307,#308));
#311=MEASURE_REPRESENTATION_ITEM('density measure',
POSITIVE_RATIO_MEASURE(7850.),#310);
#312=PROPERTY_DEFINITION_REPRESENTATION(#317,#314);
#313=PROPERTY_DEFINITION_REPRESENTATION(#318,#315);
#314=REPRESENTATION('material name',(#316),#665);
#315=REPRESENTATION('density',(#311),#665);
#316=DESCRIPTIVE_REPRESENTATION_ITEM('Steel','Steel');
#317=PROPERTY_DEFINITION('material property','material name',#675);
#318=PROPERTY_DEFINITION('material property','density of part',#675);
#319=AXIS2_PLACEMENT_3D('',#426,#348,#349);
#320=AXIS2_PLACEMENT_3D('',#427,#350,#351);
#321=AXIS2_PLACEMENT_3D('',#437,#356,#357);
#322=AXIS2_PLACEMENT_3D('',#438,#358,#359);
#323=AXIS2_PLACEMENT_3D('',#448,#364,#365);
#324=AXIS2_PLACEMENT_3D('',#449,#366,#367);
#325=AXIS2_PLACEMENT_3D('',#450,#368,#369);
#326=AXIS2_PLACEMENT_3D('',#451,#370,#371);
#327=AXIS2_PLACEMENT_3D('',#452,#372,#373);
#328=AXIS2_PLACEMENT_3D('',#453,#374,#375);
#329=AXIS2_PLACEMENT_3D('',#454,#376,#377);
#330=AXIS2_PLACEMENT_3D('',#498,#379,#380);
#331=AXIS2_PLACEMENT_3D('',#542,#382,#383);
#332=AXIS2_PLACEMENT_3D('',#543,#384,#385);
#333=AXIS2_PLACEMENT_3D('',#544,#386,#387);
#334=AXIS2_PLACEMENT_3D('',#545,#388,#389);
#335=AXIS2_PLACEMENT_3D('',#555,#394,#395);
#336=AXIS2_PLACEMENT_3D('',#556,#396,#397);
#337=AXIS2_PLACEMENT_3D('',#566,#402,#403);
#338=AXIS2_PLACEMENT_3D('',#567,#404,#405);
#339=AXIS2_PLACEMENT_3D('',#568,#406,#407);
#340=AXIS2_PLACEMENT_3D('',#569,#408,#409);
#341=AXIS2_PLACEMENT_3D('',#570,#410,#411);
#342=AXIS2_PLACEMENT_3D('',#571,#412,#413);
#343=AXIS2_PLACEMENT_3D('',#572,#414,#415);
#344=AXIS2_PLACEMENT_3D('',#616,#417,#418);
#345=AXIS2_PLACEMENT_3D('',#660,#420,#421);
#346=AXIS2_PLACEMENT_3D('',#661,#422,#423);
#347=AXIS2_PLACEMENT_3D('',#662,#424,#425);
#348=DIRECTION('axis',(0.,0.,1.));
#349=DIRECTION('refdir',(1.,0.,0.));
#350=DIRECTION('center_axis',(0.,0.,1.));
#351=DIRECTION('ref_axis',(1.,0.,0.));
#352=DIRECTION('',(0.,-1.,0.));
#353=DIRECTION('',(-1.,0.,0.));
#354=DIRECTION('',(0.,1.,0.));
#355=DIRECTION('',(1.,0.,0.));
#356=DIRECTION('center_axis',(0.,0.,-1.));
#357=DIRECTION('ref_axis',(1.,0.,0.));
#358=DIRECTION('center_axis',(0.,0.,1.));
#359=DIRECTION('ref_axis',(1.,0.,0.));
#360=DIRECTION('',(0.,1.,0.));
#361=DIRECTION('',(1.,0.,0.));
#362=DIRECTION('',(0.,-1.,0.));
#363=DIRECTION('',(-1.,0.,0.));
#364=DIRECTION('center_axis',(0.,0.,-1.));
#365=DIRECTION('ref_axis',(1.,0.,0.));
#366=DIRECTION('center_axis',(0.,1.,0.));
#367=DIRECTION('ref_axis',(1.,0.,0.));
#368=DIRECTION('center_axis',(0.,-1.,0.));
#369=DIRECTION('ref_axis',(1.,0.,0.));
#370=DIRECTION('center_axis',(0.,-1.,0.));
#371=DIRECTION('ref_axis',(1.,0.,0.));
#372=DIRECTION('center_axis',(0.,1.,0.));
#373=DIRECTION('ref_axis',(1.,0.,0.));
#374=DIRECTION('center_axis',(0.,1.,0.));
#375=DIRECTION('ref_axis',(1.,0.,0.));
#376=DIRECTION('center_axis',(0.,0.,1.));
#377=DIRECTION('ref_axis',(1.,0.,0.));
#378=DIRECTION('',(0.,0.,1.));
#379=DIRECTION('center_axis',(0.,0.,1.));
#380=DIRECTION('ref_axis',(1.,0.,0.));
#381=DIRECTION('',(0.,0.,1.));
#382=DIRECTION('center_axis',(0.,1.,0.));
#383=DIRECTION('ref_axis',(1.,0.,0.));
#384=DIRECTION('center_axis',(0.,1.,0.));
#385=DIRECTION('ref_axis',(1.,0.,0.));
#386=DIRECTION('center_axis',(0.,1.,0.));
#387=DIRECTION('ref_axis',(1.,0.,0.));
#388=DIRECTION('center_axis',(0.,0.,-1.));
#389=DIRECTION('ref_axis',(-1.,0.,0.));
#390=DIRECTION('',(0.,-1.,0.));
#391=DIRECTION('',(1.,0.,0.));
#392=DIRECTION('',(0.,1.,0.));
#393=DIRECTION('',(-1.,0.,0.));
#394=DIRECTION('center_axis',(0.,0.,1.));
#395=DIRECTION('ref_axis',(1.,0.,0.));
#396=DIRECTION('center_axis',(0.,0.,-1.));
#397=DIRECTION('ref_axis',(-1.,0.,0.));
#398=DIRECTION('',(0.,1.,0.));
#399=DIRECTION('',(-1.,0.,0.));
#400=DIRECTION('',(0.,-1.,0.));
#401=DIRECTION('',(1.,0.,0.));
#402=DIRECTION('center_axis',(0.,0.,1.));
#403=DIRECTION('ref_axis',(1.,0.,0.));
#404=DIRECTION('center_axis',(0.,1.,0.));
#405=DIRECTION('ref_axis',(1.,0.,0.));
#406=DIRECTION('center_axis',(0.,-1.,0.));
#407=DIRECTION('ref_axis',(1.,0.,0.));
#408=DIRECTION('center_axis',(0.,-1.,0.));
#409=DIRECTION('ref_axis',(1.,0.,0.));
#410=DIRECTION('center_axis',(0.,1.,0.));
#411=DIRECTION('ref_axis',(1.,0.,0.));
#412=DIRECTION('center_axis',(0.,1.,0.));
#413=DIRECTION('ref_axis',(1.,0.,0.));
#414=DIRECTION('center_axis',(0.,0.,1.));
#415=DIRECTION('ref_axis',(1.,0.,0.));
#416=DIRECTION('',(0.,0.,1.));
#417=DIRECTION('center_axis',(0.,0.,1.));
#418=DIRECTION('ref_axis',(1.,0.,0.));
#419=DIRECTION('',(0.,0.,1.));
#420=DIRECTION('center_axis',(0.,1.,0.));
#421=DIRECTION('ref_axis',(1.,0.,0.));
#422=DIRECTION('center_axis',(0.,1.,0.));
#423=DIRECTION('ref_axis',(1.,0.,0.));
#424=DIRECTION('center_axis',(0.,1.,0.));
#425=DIRECTION('ref_axis',(1.,0.,0.));
#426=CARTESIAN_POINT('',(0.,0.,0.));
#427=CARTESIAN_POINT('Origin',(-5.,-2.5,0.5));
#428=CARTESIAN_POINT('',(-24.9949994999,16.,0.5));
#429=CARTESIAN_POINT('',(-24.9949994999,0.,0.5));
#430=CARTESIAN_POINT('',(-24.9949994999,0.,0.5));
#431=CARTESIAN_POINT('',(-12.4899959967968,16.,0.5));
#432=CARTESIAN_POINT('',(-2.5,16.,0.5));
#433=CARTESIAN_POINT('',(-12.4899959967968,0.,0.5));
#434=CARTESIAN_POINT('',(-12.4899959967968,0.,0.5));
#435=CARTESIAN_POINT('',(-2.5,0.,0.5));
#436=CARTESIAN_POINT('',(-22.750000372529,8.00000023841858,0.5));
#437=CARTESIAN_POINT('Origin',(-18.750000372529,8.00000023841858,0.5));
#438=CARTESIAN_POINT('Origin',(-5.,-2.5,0.5));
#439=CARTESIAN_POINT('',(24.9949994999,0.,0.5));
#440=CARTESIAN_POINT('',(24.9949994999,16.,0.5));
#441=CARTESIAN_POINT('',(24.9949994999,0.,0.5));
#442=CARTESIAN_POINT('',(12.4899959967968,0.,0.5));
#443=CARTESIAN_POINT('',(-2.5,0.,0.5));
#444=CARTESIAN_POINT('',(12.4899959967968,16.,0.5));
#445=CARTESIAN_POINT('',(12.4899959967968,0.,0.5));
#446=CARTESIAN_POINT('',(-2.5,16.,0.5));
#447=CARTESIAN_POINT('',(14.750000372529,8.00000011920929,0.5));
#448=CARTESIAN_POINT('Origin',(18.750000372529,8.00000011920929,0.5));
#449=CARTESIAN_POINT('Origin',(0.,0.,0.));
#450=CARTESIAN_POINT('Origin',(0.,0.,0.));
#451=CARTESIAN_POINT('Origin',(0.,16.,0.));
#452=CARTESIAN_POINT('Origin',(0.,0.,0.));
#453=CARTESIAN_POINT('Origin',(0.,0.,0.));
#454=CARTESIAN_POINT('Origin',(18.750000372529,8.00000011920929,0.));
#455=CARTESIAN_POINT('',(14.750000372529,8.00000011920929,20.1850808522134));
#456=CARTESIAN_POINT('',(14.750000372529,8.00000011920929,0.));
#457=CARTESIAN_POINT('',(22.750000372529,8.00000011920929,10.3652054031712));
#458=CARTESIAN_POINT('Ctrl Pts',(22.750000372529,8.00000011920929,10.3652054031712));
#459=CARTESIAN_POINT('Ctrl Pts',(22.750000372529,7.72743512153779,10.3652054031712));
#460=CARTESIAN_POINT('Ctrl Pts',(22.7226249408849,7.47321493993343,10.4256684426298));
#461=CARTESIAN_POINT('Ctrl Pts',(22.6294359949569,6.9953967911792,10.6264233506265));
#462=CARTESIAN_POINT('Ctrl Pts',(22.5633715711324,6.77196001594159,10.7669822032762));
#463=CARTESIAN_POINT('Ctrl Pts',(22.3227517764283,6.14663272784565,11.2618529367208));
#464=CARTESIAN_POINT('Ctrl Pts',(22.1044838515607,5.79129679101003,11.6879783747307));
#465=CARTESIAN_POINT('Ctrl Pts',(21.5049383090033,5.03840593766987,12.7724549691629));
#466=CARTESIAN_POINT('Ctrl Pts',(21.0310498233221,4.66007320862025,13.5491614810668));
#467=CARTESIAN_POINT('Ctrl Pts',(19.9534165671818,4.13864248009989,15.0912560208774));
#468=CARTESIAN_POINT('Ctrl Pts',(19.348490285194,4.00000011920929,15.8573214676018));
#469=CARTESIAN_POINT('Ctrl Pts',(18.2799463575585,4.00000011920929,17.0689364501128));
#470=CARTESIAN_POINT('Ctrl Pts',(17.7438767666124,4.08704143011789,17.6261199276065));
#471=CARTESIAN_POINT('Ctrl Pts',(16.6929723259877,4.52262038884688,18.6244445448747));
#472=CARTESIAN_POINT('Ctrl Pts',(16.1792245567668,4.87238193435703,19.0661952567031));
#473=CARTESIAN_POINT('Ctrl Pts',(15.4771912116543,5.66039271075278,19.6365085547271));
#474=CARTESIAN_POINT('Ctrl Pts',(15.2099182300104,6.07257212119215,19.8421341606814));
#475=CARTESIAN_POINT('Ctrl Pts',(14.8457998355559,6.99781118188517,20.1160165918657));
#476=CARTESIAN_POINT('Ctrl Pts',(14.750000372529,7.51104296426303,20.1850808522134));
#477=CARTESIAN_POINT('Ctrl Pts',(14.750000372529,8.00000011920929,20.1850808522134));
#478=CARTESIAN_POINT('Ctrl Pts',(14.750000372529,8.00000011920929,20.1850808522134));
#479=CARTESIAN_POINT('Ctrl Pts',(14.750000372529,8.48895727415555,20.1850808522134));
#480=CARTESIAN_POINT('Ctrl Pts',(14.8457998355559,9.00218905653341,20.1160165918657));
#481=CARTESIAN_POINT('Ctrl Pts',(15.2099182300104,9.92742811722643,19.8421341606814));
#482=CARTESIAN_POINT('Ctrl Pts',(15.4771912116543,10.3396075276658,19.6365085547271));
#483=CARTESIAN_POINT('Ctrl Pts',(16.1792245567668,11.1276183040615,19.0661952567031));
#484=CARTESIAN_POINT('Ctrl Pts',(16.6929723259877,11.4773798495717,18.6244445448746));
#485=CARTESIAN_POINT('Ctrl Pts',(17.7438767666124,11.9129588083007,17.6261199276064));
#486=CARTESIAN_POINT('Ctrl Pts',(18.2799463575585,12.0000001192093,17.0689364501128));
#487=CARTESIAN_POINT('Ctrl Pts',(19.348490285194,12.0000001192093,15.8573214676018));
#488=CARTESIAN_POINT('Ctrl Pts',(19.9534165671818,11.8613577583187,15.0912560208774));
#489=CARTESIAN_POINT('Ctrl Pts',(21.0310498233221,11.3399270297983,13.5491614810668));
#490=CARTESIAN_POINT('Ctrl Pts',(21.5049383090033,10.9615943007487,12.7724549691629));
#491=CARTESIAN_POINT('Ctrl Pts',(22.1044838515607,10.2087034474086,11.6879783747307));
#492=CARTESIAN_POINT('Ctrl Pts',(22.3227517764283,9.85336751057293,11.2618529367208));
#493=CARTESIAN_POINT('Ctrl Pts',(22.5633715711324,9.22804022247698,10.7669822032762));
#494=CARTESIAN_POINT('Ctrl Pts',(22.6294359949569,9.00460344723938,10.6264233506265));
#495=CARTESIAN_POINT('Ctrl Pts',(22.7226249408849,8.52678529848515,10.4256684426298));
#496=CARTESIAN_POINT('Ctrl Pts',(22.750000372529,8.27256511688079,10.3652054031712));
#497=CARTESIAN_POINT('Ctrl Pts',(22.750000372529,8.00000011920929,10.3652054031712));
#498=CARTESIAN_POINT('Origin',(-18.750000372529,8.00000023841858,0.));
#499=CARTESIAN_POINT('',(-22.750000372529,8.00000023841858,10.3652054031712));
#500=CARTESIAN_POINT('',(-22.750000372529,8.00000023841858,0.));
#501=CARTESIAN_POINT('',(-14.750000372529,8.00000023841858,20.1850808522134));
#502=CARTESIAN_POINT('Ctrl Pts',(-14.750000372529,8.00000023841858,20.1850808522134));
#503=CARTESIAN_POINT('Ctrl Pts',(-14.750000372529,7.51104308347232,20.1850808522134));
#504=CARTESIAN_POINT('Ctrl Pts',(-14.8457998355559,6.99781130109446,20.1160165918657));
#505=CARTESIAN_POINT('Ctrl Pts',(-15.2099182300104,6.07257224040144,19.8421341606814));
#506=CARTESIAN_POINT('Ctrl Pts',(-15.4771912116543,5.66039282996206,19.6365085547271));
#507=CARTESIAN_POINT('Ctrl Pts',(-16.1792245567668,4.87238205356632,19.0661952567031));
#508=CARTESIAN_POINT('Ctrl Pts',(-16.6929723259877,4.52262050805617,18.6244445448747));
#509=CARTESIAN_POINT('Ctrl Pts',(-17.7438767666124,4.08704154932718,17.6261199276064));
#510=CARTESIAN_POINT('Ctrl Pts',(-18.2799463575585,4.00000023841858,17.0689364501128));
#511=CARTESIAN_POINT('Ctrl Pts',(-19.348490285194,4.00000023841858,15.8573214676018));
#512=CARTESIAN_POINT('Ctrl Pts',(-19.9534165671818,4.13864259930918,15.0912560208774));
#513=CARTESIAN_POINT('Ctrl Pts',(-21.0310498233221,4.66007332782954,13.5491614810668));
#514=CARTESIAN_POINT('Ctrl Pts',(-21.5049383090033,5.03840605687916,12.7724549691629));
#515=CARTESIAN_POINT('Ctrl Pts',(-22.1044838515607,5.79129691021932,11.6879783747307));
#516=CARTESIAN_POINT('Ctrl Pts',(-22.3227517764283,6.14663284705494,11.2618529367208));
#517=CARTESIAN_POINT('Ctrl Pts',(-22.5633715711324,6.77196013515088,10.7669822032762));
#518=CARTESIAN_POINT('Ctrl Pts',(-22.6294359949569,6.99539691038849,10.6264233506265));
#519=CARTESIAN_POINT('Ctrl Pts',(-22.7226249408849,7.47321505914272,10.4256684426298));
#520=CARTESIAN_POINT('Ctrl Pts',(-22.750000372529,7.72743524074708,10.3652054031712));
#521=CARTESIAN_POINT('Ctrl Pts',(-22.750000372529,8.00000023841858,10.3652054031712));
#522=CARTESIAN_POINT('Ctrl Pts',(-22.750000372529,8.00000023841858,10.3652054031712));
#523=CARTESIAN_POINT('Ctrl Pts',(-22.750000372529,8.27256523609008,10.3652054031712));
#524=CARTESIAN_POINT('Ctrl Pts',(-22.7226249408849,8.52678541769444,10.4256684426298));
#525=CARTESIAN_POINT('Ctrl Pts',(-22.6294359949569,9.00460356644867,10.6264233506265));
#526=CARTESIAN_POINT('Ctrl Pts',(-22.5633715711324,9.22804034168627,10.7669822032762));
#527=CARTESIAN_POINT('Ctrl Pts',(-22.3227517764283,9.85336762978222,11.2618529367208));
#528=CARTESIAN_POINT('Ctrl Pts',(-22.1044838515607,10.2087035666178,11.6879783747307));
#529=CARTESIAN_POINT('Ctrl Pts',(-21.5049383090033,10.961594419958,12.7724549691629));
#530=CARTESIAN_POINT('Ctrl Pts',(-21.0310498233221,11.3399271490076,13.5491614810668));
#531=CARTESIAN_POINT('Ctrl Pts',(-19.9534165671818,11.861357877528,15.0912560208774));
#532=CARTESIAN_POINT('Ctrl Pts',(-19.348490285194,12.0000002384186,15.8573214676018));
#533=CARTESIAN_POINT('Ctrl Pts',(-18.2799463575585,12.0000002384186,17.0689364501128));
#534=CARTESIAN_POINT('Ctrl Pts',(-17.7438767666124,11.91295892751,17.6261199276064));
#535=CARTESIAN_POINT('Ctrl Pts',(-16.6929723259877,11.477379968781,18.6244445448747));
#536=CARTESIAN_POINT('Ctrl Pts',(-16.1792245567668,11.1276184232708,19.0661952567031));
#537=CARTESIAN_POINT('Ctrl Pts',(-15.4771912116543,10.3396076468751,19.6365085547271));
#538=CARTESIAN_POINT('Ctrl Pts',(-15.2099182300104,9.92742823643572,19.8421341606814));
#539=CARTESIAN_POINT('Ctrl Pts',(-14.8457998355559,9.00218917574269,20.1160165918657));
#540=CARTESIAN_POINT('Ctrl Pts',(-14.750000372529,8.48895739336484,20.1850808522134));
#541=CARTESIAN_POINT('Ctrl Pts',(-14.750000372529,8.00000023841858,20.1850808522134));
#542=CARTESIAN_POINT('Origin',(0.,0.,0.));
#543=CARTESIAN_POINT('Origin',(0.,16.,0.));
#544=CARTESIAN_POINT('Origin',(0.,16.,0.));
#545=CARTESIAN_POINT('Origin',(-5.,-2.5,-0.5));
#546=CARTESIAN_POINT('',(24.9949994999,16.,-0.5));
#547=CARTESIAN_POINT('',(24.9949994999,0.,-0.5));
#548=CARTESIAN_POINT('',(24.9949994999,0.,-0.5));
#549=CARTESIAN_POINT('',(12.4899959967968,16.,-0.5));
#550=CARTESIAN_POINT('',(-2.5,16.,-0.5));
#551=CARTESIAN_POINT('',(12.4899959967968,0.,-0.5));
#552=CARTESIAN_POINT('',(12.4899959967968,0.,-0.5));
#553=CARTESIAN_POINT('',(-2.5,0.,-0.5));
#554=CARTESIAN_POINT('',(14.750000372529,8.00000011920929,-0.5));
#555=CARTESIAN_POINT('Origin',(18.750000372529,8.00000011920929,-0.5));
#556=CARTESIAN_POINT('Origin',(-5.,-2.5,-0.5));
#557=CARTESIAN_POINT('',(-24.9949994999,0.,-0.5));
#558=CARTESIAN_POINT('',(-24.9949994999,16.,-0.5));
#559=CARTESIAN_POINT('',(-24.9949994999,0.,-0.5));
#560=CARTESIAN_POINT('',(-12.4899959967968,0.,-0.5));
#561=CARTESIAN_POINT('',(-2.5,0.,-0.5));
#562=CARTESIAN_POINT('',(-12.4899959967968,16.,-0.5));
#563=CARTESIAN_POINT('',(-12.4899959967968,0.,-0.5));
#564=CARTESIAN_POINT('',(-2.5,16.,-0.5));
#565=CARTESIAN_POINT('',(-22.750000372529,8.00000023841858,-0.5));
#566=CARTESIAN_POINT('Origin',(-18.750000372529,8.00000023841858,-0.5));
#567=CARTESIAN_POINT('Origin',(0.,0.,0.));
#568=CARTESIAN_POINT('Origin',(0.,0.,0.));
#569=CARTESIAN_POINT('Origin',(0.,16.,0.));
#570=CARTESIAN_POINT('Origin',(0.,0.,0.));
#571=CARTESIAN_POINT('Origin',(0.,0.,0.));
#572=CARTESIAN_POINT('Origin',(-18.750000372529,8.00000023841858,0.));
#573=CARTESIAN_POINT('',(-14.750000372529,8.00000023841858,-20.1850808522134));
#574=CARTESIAN_POINT('',(-22.750000372529,8.00000023841858,-10.3652054031712));
#575=CARTESIAN_POINT('Ctrl Pts',(-14.750000372529,8.00000023841858,-20.1850808522134));
#576=CARTESIAN_POINT('Ctrl Pts',(-14.750000372529,8.48895739336484,-20.1850808522134));
#577=CARTESIAN_POINT('Ctrl Pts',(-14.8457998355559,9.00218917574269,-20.1160165918657));
#578=CARTESIAN_POINT('Ctrl Pts',(-15.2099182300104,9.92742823643572,-19.8421341606814));
#579=CARTESIAN_POINT('Ctrl Pts',(-15.4771912116543,10.3396076468751,-19.6365085547271));
#580=CARTESIAN_POINT('Ctrl Pts',(-16.1792245567668,11.1276184232708,-19.0661952567031));
#581=CARTESIAN_POINT('Ctrl Pts',(-16.6929723259877,11.477379968781,-18.6244445448747));
#582=CARTESIAN_POINT('Ctrl Pts',(-17.7438767666124,11.91295892751,-17.6261199276064));
#583=CARTESIAN_POINT('Ctrl Pts',(-18.2799463575585,12.0000002384186,-17.0689364501128));
#584=CARTESIAN_POINT('Ctrl Pts',(-19.348490285194,12.0000002384186,-15.8573214676018));
#585=CARTESIAN_POINT('Ctrl Pts',(-19.9534165671818,11.861357877528,-15.0912560208774));
#586=CARTESIAN_POINT('Ctrl Pts',(-21.0310498233221,11.3399271490076,-13.5491614810668));
#587=CARTESIAN_POINT('Ctrl Pts',(-21.5049383090033,10.961594419958,-12.7724549691629));
#588=CARTESIAN_POINT('Ctrl Pts',(-22.1044838515607,10.2087035666178,-11.6879783747307));
#589=CARTESIAN_POINT('Ctrl Pts',(-22.3227517764283,9.85336762978222,-11.2618529367208));
#590=CARTESIAN_POINT('Ctrl Pts',(-22.5633715711324,9.22804034168627,-10.7669822032762));
#591=CARTESIAN_POINT('Ctrl Pts',(-22.6294359949569,9.00460356644867,-10.6264233506265));
#592=CARTESIAN_POINT('Ctrl Pts',(-22.7226249408849,8.52678541769444,-10.4256684426298));
#593=CARTESIAN_POINT('Ctrl Pts',(-22.750000372529,8.27256523609008,-10.3652054031712));
#594=CARTESIAN_POINT('Ctrl Pts',(-22.750000372529,8.00000023841858,-10.3652054031712));
#595=CARTESIAN_POINT('Ctrl Pts',(-22.750000372529,8.00000023841858,-10.3652054031712));
#596=CARTESIAN_POINT('Ctrl Pts',(-22.750000372529,7.72743524074707,-10.3652054031712));
#597=CARTESIAN_POINT('Ctrl Pts',(-22.7226249408849,7.47321505914271,-10.4256684426298));
#598=CARTESIAN_POINT('Ctrl Pts',(-22.6294359949569,6.99539691038848,-10.6264233506265));
#599=CARTESIAN_POINT('Ctrl Pts',(-22.5633715711324,6.77196013515088,-10.7669822032762));
#600=CARTESIAN_POINT('Ctrl Pts',(-22.3227517764283,6.14663284705494,-11.2618529367208));
#601=CARTESIAN_POINT('Ctrl Pts',(-22.1044838515607,5.79129691021932,-11.6879783747307));
#602=CARTESIAN_POINT('Ctrl Pts',(-21.5049383090033,5.03840605687916,-12.7724549691629));
#603=CARTESIAN_POINT('Ctrl Pts',(-21.0310498233221,4.66007332782954,-13.5491614810668));
#604=CARTESIAN_POINT('Ctrl Pts',(-19.9534165671818,4.13864259930918,-15.0912560208774));
#605=CARTESIAN_POINT('Ctrl Pts',(-19.348490285194,4.00000023841858,-15.8573214676018));
#606=CARTESIAN_POINT('Ctrl Pts',(-18.2799463575585,4.00000023841858,-17.0689364501128));
#607=CARTESIAN_POINT('Ctrl Pts',(-17.7438767666124,4.08704154932718,-17.6261199276064));
#608=CARTESIAN_POINT('Ctrl Pts',(-16.6929723259877,4.52262050805617,-18.6244445448747));
#609=CARTESIAN_POINT('Ctrl Pts',(-16.1792245567668,4.87238205356632,-19.0661952567031));
#610=CARTESIAN_POINT('Ctrl Pts',(-15.4771912116543,5.66039282996206,-19.6365085547271));
#611=CARTESIAN_POINT('Ctrl Pts',(-15.2099182300104,6.07257224040144,-19.8421341606814));
#612=CARTESIAN_POINT('Ctrl Pts',(-14.8457998355559,6.99781130109446,-20.1160165918657));
#613=CARTESIAN_POINT('Ctrl Pts',(-14.750000372529,7.51104308347232,-20.1850808522134));
#614=CARTESIAN_POINT('Ctrl Pts',(-14.750000372529,8.00000023841858,-20.1850808522134));
#615=CARTESIAN_POINT('',(-22.750000372529,8.00000023841858,0.));
#616=CARTESIAN_POINT('Origin',(18.750000372529,8.00000011920929,0.));
#617=CARTESIAN_POINT('',(22.750000372529,8.00000011920929,-10.3652054031712));
#618=CARTESIAN_POINT('',(14.750000372529,8.00000011920929,-20.1850808522134));
#619=CARTESIAN_POINT('Ctrl Pts',(22.750000372529,8.00000011920929,-10.3652054031712));
#620=CARTESIAN_POINT('Ctrl Pts',(22.750000372529,8.27256511688079,-10.3652054031712));
#621=CARTESIAN_POINT('Ctrl Pts',(22.7226249408849,8.52678529848515,-10.4256684426298));
#622=CARTESIAN_POINT('Ctrl Pts',(22.6294359949569,9.00460344723938,-10.6264233506265));
#623=CARTESIAN_POINT('Ctrl Pts',(22.5633715711324,9.22804022247698,-10.7669822032762));
#624=CARTESIAN_POINT('Ctrl Pts',(22.3227517764283,9.85336751057293,-11.2618529367208));
#625=CARTESIAN_POINT('Ctrl Pts',(22.1044838515607,10.2087034474086,-11.6879783747307));
#626=CARTESIAN_POINT('Ctrl Pts',(21.5049383090033,10.9615943007487,-12.7724549691629));
#627=CARTESIAN_POINT('Ctrl Pts',(21.0310498233221,11.3399270297983,-13.5491614810668));
#628=CARTESIAN_POINT('Ctrl Pts',(19.9534165671818,11.8613577583187,-15.0912560208774));
#629=CARTESIAN_POINT('Ctrl Pts',(19.348490285194,12.0000001192093,-15.8573214676018));
#630=CARTESIAN_POINT('Ctrl Pts',(18.2799463575585,12.0000001192093,-17.0689364501128));
#631=CARTESIAN_POINT('Ctrl Pts',(17.7438767666124,11.9129588083007,-17.6261199276064));
#632=CARTESIAN_POINT('Ctrl Pts',(16.6929723259877,11.4773798495717,-18.6244445448747));
#633=CARTESIAN_POINT('Ctrl Pts',(16.1792245567668,11.1276183040615,-19.0661952567031));
#634=CARTESIAN_POINT('Ctrl Pts',(15.4771912116543,10.3396075276658,-19.6365085547271));
#635=CARTESIAN_POINT('Ctrl Pts',(15.2099182300104,9.92742811722643,-19.8421341606814));
#636=CARTESIAN_POINT('Ctrl Pts',(14.8457998355559,9.00218905653341,-20.1160165918657));
#637=CARTESIAN_POINT('Ctrl Pts',(14.750000372529,8.48895727415555,-20.1850808522134));
#638=CARTESIAN_POINT('Ctrl Pts',(14.750000372529,8.00000011920929,-20.1850808522134));
#639=CARTESIAN_POINT('Ctrl Pts',(14.750000372529,8.00000011920929,-20.1850808522134));
#640=CARTESIAN_POINT('Ctrl Pts',(14.750000372529,7.51104296426303,-20.1850808522134));
#641=CARTESIAN_POINT('Ctrl Pts',(14.8457998355559,6.99781118188517,-20.1160165918657));
#642=CARTESIAN_POINT('Ctrl Pts',(15.2099182300104,6.07257212119215,-19.8421341606814));
#643=CARTESIAN_POINT('Ctrl Pts',(15.4771912116543,5.66039271075278,-19.6365085547271));
#644=CARTESIAN_POINT('Ctrl Pts',(16.1792245567668,4.87238193435703,-19.0661952567031));
#645=CARTESIAN_POINT('Ctrl Pts',(16.6929723259877,4.52262038884688,-18.6244445448747));
#646=CARTESIAN_POINT('Ctrl Pts',(17.7438767666124,4.08704143011789,-17.6261199276064));
#647=CARTESIAN_POINT('Ctrl Pts',(18.2799463575585,4.00000011920929,-17.0689364501128));
#648=CARTESIAN_POINT('Ctrl Pts',(19.348490285194,4.00000011920929,-15.8573214676018));
#649=CARTESIAN_POINT('Ctrl Pts',(19.9534165671818,4.13864248009989,-15.0912560208774));
#650=CARTESIAN_POINT('Ctrl Pts',(21.0310498233221,4.66007320862025,-13.5491614810668));
#651=CARTESIAN_POINT('Ctrl Pts',(21.5049383090033,5.03840593766987,-12.7724549691629));
#652=CARTESIAN_POINT('Ctrl Pts',(22.1044838515607,5.79129679101003,-11.6879783747307));
#653=CARTESIAN_POINT('Ctrl Pts',(22.3227517764283,6.14663272784565,-11.2618529367208));
#654=CARTESIAN_POINT('Ctrl Pts',(22.5633715711324,6.7719600159416,-10.7669822032762));
#655=CARTESIAN_POINT('Ctrl Pts',(22.6294359949569,6.9953967911792,-10.6264233506265));
#656=CARTESIAN_POINT('Ctrl Pts',(22.7226249408849,7.47321493993343,-10.4256684426298));
#657=CARTESIAN_POINT('Ctrl Pts',(22.750000372529,7.72743512153779,-10.3652054031712));
#658=CARTESIAN_POINT('Ctrl Pts',(22.750000372529,8.00000011920929,-10.3652054031712));
#659=CARTESIAN_POINT('',(14.750000372529,8.00000011920929,0.));
#660=CARTESIAN_POINT('Origin',(0.,0.,0.));
#661=CARTESIAN_POINT('Origin',(0.,16.,0.));
#662=CARTESIAN_POINT('Origin',(0.,16.,0.));
#663=UNCERTAINTY_MEASURE_WITH_UNIT(LENGTH_MEASURE(0.01),#667,
'DISTANCE_ACCURACY_VALUE',
'Maximum model space distance between geometric entities at asserted c
onnectivities');
#664=UNCERTAINTY_MEASURE_WITH_UNIT(LENGTH_MEASURE(0.01),#667,
'DISTANCE_ACCURACY_VALUE',
'Maximum model space distance between geometric entities at asserted c
onnectivities');
#665=(
GEOMETRIC_REPRESENTATION_CONTEXT(3)
GLOBAL_UNCERTAINTY_ASSIGNED_CONTEXT((#663))
GLOBAL_UNIT_ASSIGNED_CONTEXT((#667,#669,#670))
REPRESENTATION_CONTEXT('','3D')
);
#666=(
GEOMETRIC_REPRESENTATION_CONTEXT(3)
GLOBAL_UNCERTAINTY_ASSIGNED_CONTEXT((#664))
GLOBAL_UNIT_ASSIGNED_CONTEXT((#667,#669,#670))
REPRESENTATION_CONTEXT('','3D')
);
#667=(
LENGTH_UNIT()
NAMED_UNIT(*)
SI_UNIT(.MILLI.,.METRE.)
);
#668=(
LENGTH_UNIT()
NAMED_UNIT(*)
SI_UNIT($,.METRE.)
);
#669=(
NAMED_UNIT(*)
PLANE_ANGLE_UNIT()
SI_UNIT($,.RADIAN.)
);
#670=(
NAMED_UNIT(*)
SI_UNIT($,.STERADIAN.)
SOLID_ANGLE_UNIT()
);
#671=SHAPE_DEFINITION_REPRESENTATION(#672,#673);
#672=PRODUCT_DEFINITION_SHAPE('',$,#675);
#673=SHAPE_REPRESENTATION('',(#319),#665);
#674=PRODUCT_DEFINITION_CONTEXT('part definition',#679,'design');
#675=PRODUCT_DEFINITION('clutch','clutch v1',#676,#674);
#676=PRODUCT_DEFINITION_FORMATION('',$,#681);
#677=PRODUCT_RELATED_PRODUCT_CATEGORY('clutch v1','clutch v1',(#681));
#678=APPLICATION_PROTOCOL_DEFINITION('international standard',
'automotive_design',2009,#679);
#679=APPLICATION_CONTEXT(
'Core Data for Automotive Mechanical Design Process');
#680=PRODUCT_CONTEXT('part definition',#679,'mechanical');
#681=PRODUCT('clutch','clutch v1',$,(#680));
#682=PRESENTATION_STYLE_ASSIGNMENT((#683));
#683=SURFACE_STYLE_USAGE(.BOTH.,#684);
#684=SURFACE_SIDE_STYLE('',(#685));
#685=SURFACE_STYLE_FILL_AREA(#686);
#686=FILL_AREA_STYLE('Steel - Satin',(#687));
#687=FILL_AREA_STYLE_COLOUR('Steel - Satin',#688);
#688=COLOUR_RGB('Steel - Satin',0.627450980392157,0.627450980392157,0.627450980392157);
ENDSEC;
END-ISO-10303-21;
