ISO-10303-21;
HEADER;
/* Generated by software containing ST-Developer
 * from STEP Tools, Inc. (www.steptools.com) 
 */

FILE_DESCRIPTION(
/* description */ (''),
/* implementation_level */ '2;1');

FILE_NAME(
/* name */ '160 center  plus center hole v1.step',
/* time_stamp */ '2026-03-14T10:14:42+01:00',
/* author */ (''),
/* organization */ (''),
/* preprocessor_version */ 'ST-DEVELOPER v20.1',
/* originating_system */ 'Autodesk Translation Framework v14.24.0.0',
/* authorisation */ '');

FILE_SCHEMA (('AUTOMOTIVE_DESIGN { 1 0 10303 214 3 1 1 }'));
ENDSEC;

DATA;
#10=MECHANICAL_DESIGN_GEOMETRIC_PRESENTATION_REPRESENTATION('',(#13),#1061);
#11=SHAPE_REPRESENTATION_RELATIONSHIP('SRR','None',#1068,#12);
#12=ADVANCED_BREP_SHAPE_REPRESENTATION('',(#14),#1060);
#13=STYLED_ITEM('',(#1077),#14);
#14=MANIFOLD_SOLID_BREP('Body1',#597);
#15=CYLINDRICAL_SURFACE('',#628,38.6000012382866);
#16=CYLINDRICAL_SURFACE('',#630,45.);
#17=CYLINDRICAL_SURFACE('',#633,45.);
#18=CYLINDRICAL_SURFACE('',#635,132.1);
#19=CYLINDRICAL_SURFACE('',#637,45.);
#20=CYLINDRICAL_SURFACE('',#641,45.);
#21=CYLINDRICAL_SURFACE('',#656,45.);
#22=CYLINDRICAL_SURFACE('',#657,38.60000307858);
#23=CYLINDRICAL_SURFACE('',#658,45.);
#24=CYLINDRICAL_SURFACE('',#660,45.);
#25=CYLINDRICAL_SURFACE('',#661,132.100006327778);
#26=CYLINDRICAL_SURFACE('',#662,45.);
#27=CYLINDRICAL_SURFACE('',#663,12.5);
#28=CYLINDRICAL_SURFACE('',#666,12.5);
#29=CYLINDRICAL_SURFACE('',#669,12.5);
#30=CYLINDRICAL_SURFACE('',#676,22.5);
#31=CYLINDRICAL_SURFACE('',#681,22.5);
#32=CYLINDRICAL_SURFACE('',#686,25.);
#33=CYLINDRICAL_SURFACE('',#687,25.);
#34=FACE_BOUND('',#77,.T.);
#35=FACE_BOUND('',#88,.T.);
#36=FACE_BOUND('',#102,.T.);
#37=FACE_BOUND('',#104,.T.);
#38=FACE_BOUND('',#107,.T.);
#39=FACE_BOUND('',#109,.T.);
#40=FACE_BOUND('',#112,.T.);
#41=FACE_BOUND('',#114,.T.);
#42=FACE_BOUND('',#117,.T.);
#43=FACE_OUTER_BOUND('',#76,.T.);
#44=FACE_OUTER_BOUND('',#78,.T.);
#45=FACE_OUTER_BOUND('',#79,.T.);
#46=FACE_OUTER_BOUND('',#80,.T.);
#47=FACE_OUTER_BOUND('',#81,.T.);
#48=FACE_OUTER_BOUND('',#82,.T.);
#49=FACE_OUTER_BOUND('',#83,.T.);
#50=FACE_OUTER_BOUND('',#84,.T.);
#51=FACE_OUTER_BOUND('',#85,.T.);
#52=FACE_OUTER_BOUND('',#86,.T.);
#53=FACE_OUTER_BOUND('',#87,.T.);
#54=FACE_OUTER_BOUND('',#89,.T.);
#55=FACE_OUTER_BOUND('',#90,.T.);
#56=FACE_OUTER_BOUND('',#91,.T.);
#57=FACE_OUTER_BOUND('',#92,.T.);
#58=FACE_OUTER_BOUND('',#93,.T.);
#59=FACE_OUTER_BOUND('',#94,.T.);
#60=FACE_OUTER_BOUND('',#95,.T.);
#61=FACE_OUTER_BOUND('',#96,.T.);
#62=FACE_OUTER_BOUND('',#97,.T.);
#63=FACE_OUTER_BOUND('',#98,.T.);
#64=FACE_OUTER_BOUND('',#99,.T.);
#65=FACE_OUTER_BOUND('',#100,.T.);
#66=FACE_OUTER_BOUND('',#101,.T.);
#67=FACE_OUTER_BOUND('',#103,.T.);
#68=FACE_OUTER_BOUND('',#105,.T.);
#69=FACE_OUTER_BOUND('',#106,.T.);
#70=FACE_OUTER_BOUND('',#108,.T.);
#71=FACE_OUTER_BOUND('',#110,.T.);
#72=FACE_OUTER_BOUND('',#111,.T.);
#73=FACE_OUTER_BOUND('',#113,.T.);
#74=FACE_OUTER_BOUND('',#115,.T.);
#75=FACE_OUTER_BOUND('',#116,.T.);
#76=EDGE_LOOP('',(#382,#383,#384,#385,#386,#387,#388,#389,#390,#391,#392,
#393,#394,#395,#396,#397,#398,#399,#400,#401,#402));
#77=EDGE_LOOP('',(#403));
#78=EDGE_LOOP('',(#404,#405,#406,#407));
#79=EDGE_LOOP('',(#408,#409,#410,#411));
#80=EDGE_LOOP('',(#412,#413,#414,#415));
#81=EDGE_LOOP('',(#416,#417,#418,#419));
#82=EDGE_LOOP('',(#420,#421,#422,#423));
#83=EDGE_LOOP('',(#424,#425,#426,#427));
#84=EDGE_LOOP('',(#428,#429,#430,#431));
#85=EDGE_LOOP('',(#432,#433,#434,#435));
#86=EDGE_LOOP('',(#436,#437,#438,#439));
#87=EDGE_LOOP('',(#440,#441,#442,#443,#444,#445,#446,#447,#448,#449,#450,
#451,#452,#453,#454,#455,#456,#457,#458,#459,#460));
#88=EDGE_LOOP('',(#461));
#89=EDGE_LOOP('',(#462,#463,#464,#465));
#90=EDGE_LOOP('',(#466,#467,#468,#469));
#91=EDGE_LOOP('',(#470,#471,#472,#473));
#92=EDGE_LOOP('',(#474,#475,#476,#477));
#93=EDGE_LOOP('',(#478,#479,#480,#481));
#94=EDGE_LOOP('',(#482,#483,#484,#485));
#95=EDGE_LOOP('',(#486,#487,#488,#489));
#96=EDGE_LOOP('',(#490,#491,#492,#493));
#97=EDGE_LOOP('',(#494,#495,#496,#497));
#98=EDGE_LOOP('',(#498,#499,#500,#501));
#99=EDGE_LOOP('',(#502,#503,#504,#505));
#100=EDGE_LOOP('',(#506,#507,#508,#509));
#101=EDGE_LOOP('',(#510));
#102=EDGE_LOOP('',(#511));
#103=EDGE_LOOP('',(#512));
#104=EDGE_LOOP('',(#513));
#105=EDGE_LOOP('',(#514,#515,#516,#517));
#106=EDGE_LOOP('',(#518));
#107=EDGE_LOOP('',(#519));
#108=EDGE_LOOP('',(#520));
#109=EDGE_LOOP('',(#521));
#110=EDGE_LOOP('',(#522,#523,#524,#525));
#111=EDGE_LOOP('',(#526));
#112=EDGE_LOOP('',(#527));
#113=EDGE_LOOP('',(#528));
#114=EDGE_LOOP('',(#529));
#115=EDGE_LOOP('',(#530,#531,#532,#533,#534,#535,#536,#537,#538,#539,#540,
#541));
#116=EDGE_LOOP('',(#542,#543,#544,#545));
#117=EDGE_LOOP('',(#546,#547,#548,#549));
#118=LINE('',#890,#158);
#119=LINE('',#896,#159);
#120=LINE('',#904,#160);
#121=LINE('',#912,#161);
#122=LINE('',#916,#162);
#123=LINE('',#924,#163);
#124=LINE('',#932,#164);
#125=LINE('',#935,#165);
#126=LINE('',#938,#166);
#127=LINE('',#942,#167);
#128=LINE('',#943,#168);
#129=LINE('',#946,#169);
#130=LINE('',#950,#170);
#131=LINE('',#954,#171);
#132=LINE('',#958,#172);
#133=LINE('',#959,#173);
#134=LINE('',#962,#174);
#135=LINE('',#964,#175);
#136=LINE('',#965,#176);
#137=LINE('',#968,#177);
#138=LINE('',#976,#178);
#139=LINE('',#984,#179);
#140=LINE('',#988,#180);
#141=LINE('',#996,#181);
#142=LINE('',#997,#182);
#143=LINE('',#999,#183);
#144=LINE('',#1000,#184);
#145=LINE('',#1002,#185);
#146=LINE('',#1004,#186);
#147=LINE('',#1006,#187);
#148=LINE('',#1008,#188);
#149=LINE('',#1010,#189);
#150=LINE('',#1017,#190);
#151=LINE('',#1023,#191);
#152=LINE('',#1029,#192);
#153=LINE('',#1040,#193);
#154=LINE('',#1048,#194);
#155=LINE('',#1054,#195);
#156=LINE('',#1055,#196);
#157=LINE('',#1057,#197);
#158=VECTOR('',#694,10.);
#159=VECTOR('',#699,10.);
#160=VECTOR('',#706,10.);
#161=VECTOR('',#713,10.);
#162=VECTOR('',#716,10.);
#163=VECTOR('',#723,10.);
#164=VECTOR('',#732,10.);
#165=VECTOR('',#735,10.);
#166=VECTOR('',#738,10.);
#167=VECTOR('',#743,10.);
#168=VECTOR('',#744,10.);
#169=VECTOR('',#747,10.);
#170=VECTOR('',#752,10.);
#171=VECTOR('',#757,10.);
#172=VECTOR('',#762,10.);
#173=VECTOR('',#763,10.);
#174=VECTOR('',#766,10.);
#175=VECTOR('',#767,10.);
#176=VECTOR('',#768,10.);
#177=VECTOR('',#771,10.);
#178=VECTOR('',#780,10.);
#179=VECTOR('',#787,10.);
#180=VECTOR('',#790,10.);
#181=VECTOR('',#801,10.);
#182=VECTOR('',#802,10.);
#183=VECTOR('',#805,10.);
#184=VECTOR('',#806,10.);
#185=VECTOR('',#809,10.);
#186=VECTOR('',#812,10.);
#187=VECTOR('',#815,10.);
#188=VECTOR('',#818,10.);
#189=VECTOR('',#821,10.);
#190=VECTOR('',#830,12.5);
#191=VECTOR('',#837,12.5);
#192=VECTOR('',#844,12.5);
#193=VECTOR('',#859,22.5);
#194=VECTOR('',#870,22.5);
#195=VECTOR('',#879,25.);
#196=VECTOR('',#880,25.);
#197=VECTOR('',#883,25.);
#198=CIRCLE('',#612,45.);
#199=CIRCLE('',#613,25.);
#200=CIRCLE('',#614,25.);
#201=CIRCLE('',#615,45.);
#202=CIRCLE('',#616,132.1);
#203=CIRCLE('',#617,45.);
#204=CIRCLE('',#618,45.);
#205=CIRCLE('',#619,38.6000012382866);
#206=CIRCLE('',#620,45.);
#207=CIRCLE('',#621,25.);
#208=CIRCLE('',#622,45.);
#209=CIRCLE('',#623,38.60000307858);
#210=CIRCLE('',#624,45.);
#211=CIRCLE('',#625,45.);
#212=CIRCLE('',#626,132.100006327778);
#213=CIRCLE('',#627,22.5);
#214=CIRCLE('',#629,38.6000012382866);
#215=CIRCLE('',#631,45.);
#216=CIRCLE('',#634,45.);
#217=CIRCLE('',#636,132.1);
#218=CIRCLE('',#638,45.);
#219=CIRCLE('',#642,45.);
#220=CIRCLE('',#644,132.100006327778);
#221=CIRCLE('',#645,45.);
#222=CIRCLE('',#646,45.);
#223=CIRCLE('',#647,38.60000307858);
#224=CIRCLE('',#648,45.);
#225=CIRCLE('',#649,25.);
#226=CIRCLE('',#650,45.);
#227=CIRCLE('',#651,25.);
#228=CIRCLE('',#652,25.);
#229=CIRCLE('',#653,22.5);
#230=CIRCLE('',#664,12.5);
#231=CIRCLE('',#665,12.5);
#232=CIRCLE('',#667,12.5);
#233=CIRCLE('',#668,12.5);
#234=CIRCLE('',#670,12.5);
#235=CIRCLE('',#671,12.5);
#236=CIRCLE('',#673,25.);
#237=CIRCLE('',#675,25.);
#238=CIRCLE('',#677,22.5);
#239=CIRCLE('',#680,25.);
#240=CIRCLE('',#682,22.5);
#241=CIRCLE('',#685,25.);
#242=VERTEX_POINT('',#886);
#243=VERTEX_POINT('',#887);
#244=VERTEX_POINT('',#889);
#245=VERTEX_POINT('',#891);
#246=VERTEX_POINT('',#893);
#247=VERTEX_POINT('',#895);
#248=VERTEX_POINT('',#897);
#249=VERTEX_POINT('',#899);
#250=VERTEX_POINT('',#901);
#251=VERTEX_POINT('',#903);
#252=VERTEX_POINT('',#905);
#253=VERTEX_POINT('',#907);
#254=VERTEX_POINT('',#909);
#255=VERTEX_POINT('',#911);
#256=VERTEX_POINT('',#913);
#257=VERTEX_POINT('',#915);
#258=VERTEX_POINT('',#917);
#259=VERTEX_POINT('',#919);
#260=VERTEX_POINT('',#921);
#261=VERTEX_POINT('',#923);
#262=VERTEX_POINT('',#925);
#263=VERTEX_POINT('',#928);
#264=VERTEX_POINT('',#931);
#265=VERTEX_POINT('',#933);
#266=VERTEX_POINT('',#937);
#267=VERTEX_POINT('',#941);
#268=VERTEX_POINT('',#945);
#269=VERTEX_POINT('',#949);
#270=VERTEX_POINT('',#953);
#271=VERTEX_POINT('',#957);
#272=VERTEX_POINT('',#961);
#273=VERTEX_POINT('',#963);
#274=VERTEX_POINT('',#967);
#275=VERTEX_POINT('',#971);
#276=VERTEX_POINT('',#973);
#277=VERTEX_POINT('',#975);
#278=VERTEX_POINT('',#977);
#279=VERTEX_POINT('',#979);
#280=VERTEX_POINT('',#981);
#281=VERTEX_POINT('',#983);
#282=VERTEX_POINT('',#985);
#283=VERTEX_POINT('',#987);
#284=VERTEX_POINT('',#990);
#285=VERTEX_POINT('',#993);
#286=VERTEX_POINT('',#1014);
#287=VERTEX_POINT('',#1016);
#288=VERTEX_POINT('',#1020);
#289=VERTEX_POINT('',#1022);
#290=VERTEX_POINT('',#1026);
#291=VERTEX_POINT('',#1028);
#292=VERTEX_POINT('',#1032);
#293=VERTEX_POINT('',#1035);
#294=VERTEX_POINT('',#1038);
#295=VERTEX_POINT('',#1043);
#296=VERTEX_POINT('',#1046);
#297=VERTEX_POINT('',#1051);
#298=EDGE_CURVE('',#242,#243,#198,.T.);
#299=EDGE_CURVE('',#244,#242,#118,.T.);
#300=EDGE_CURVE('',#245,#244,#199,.T.);
#301=EDGE_CURVE('',#246,#245,#200,.T.);
#302=EDGE_CURVE('',#247,#246,#119,.T.);
#303=EDGE_CURVE('',#248,#247,#201,.T.);
#304=EDGE_CURVE('',#249,#248,#202,.T.);
#305=EDGE_CURVE('',#250,#249,#203,.T.);
#306=EDGE_CURVE('',#251,#250,#120,.T.);
#307=EDGE_CURVE('',#252,#251,#204,.T.);
#308=EDGE_CURVE('',#253,#252,#205,.T.);
#309=EDGE_CURVE('',#254,#253,#206,.T.);
#310=EDGE_CURVE('',#255,#254,#121,.T.);
#311=EDGE_CURVE('',#256,#255,#207,.T.);
#312=EDGE_CURVE('',#257,#256,#122,.T.);
#313=EDGE_CURVE('',#258,#257,#208,.T.);
#314=EDGE_CURVE('',#259,#258,#209,.T.);
#315=EDGE_CURVE('',#260,#259,#210,.T.);
#316=EDGE_CURVE('',#261,#260,#123,.T.);
#317=EDGE_CURVE('',#262,#261,#211,.T.);
#318=EDGE_CURVE('',#243,#262,#212,.T.);
#319=EDGE_CURVE('',#263,#263,#213,.T.);
#320=EDGE_CURVE('',#264,#252,#124,.T.);
#321=EDGE_CURVE('',#264,#265,#214,.T.);
#322=EDGE_CURVE('',#253,#265,#125,.T.);
#323=EDGE_CURVE('',#251,#266,#126,.T.);
#324=EDGE_CURVE('',#266,#264,#215,.T.);
#325=EDGE_CURVE('',#267,#250,#127,.T.);
#326=EDGE_CURVE('',#267,#266,#128,.T.);
#327=EDGE_CURVE('',#249,#268,#129,.T.);
#328=EDGE_CURVE('',#268,#267,#216,.T.);
#329=EDGE_CURVE('',#269,#248,#130,.T.);
#330=EDGE_CURVE('',#269,#268,#217,.T.);
#331=EDGE_CURVE('',#247,#270,#131,.T.);
#332=EDGE_CURVE('',#270,#269,#218,.T.);
#333=EDGE_CURVE('',#271,#246,#132,.T.);
#334=EDGE_CURVE('',#271,#270,#133,.T.);
#335=EDGE_CURVE('',#272,#242,#134,.T.);
#336=EDGE_CURVE('',#272,#273,#135,.T.);
#337=EDGE_CURVE('',#273,#244,#136,.T.);
#338=EDGE_CURVE('',#243,#274,#137,.T.);
#339=EDGE_CURVE('',#274,#272,#219,.T.);
#340=EDGE_CURVE('',#275,#274,#220,.T.);
#341=EDGE_CURVE('',#276,#275,#221,.T.);
#342=EDGE_CURVE('',#277,#276,#138,.T.);
#343=EDGE_CURVE('',#278,#277,#222,.T.);
#344=EDGE_CURVE('',#279,#278,#223,.T.);
#345=EDGE_CURVE('',#280,#279,#224,.T.);
#346=EDGE_CURVE('',#281,#280,#139,.T.);
#347=EDGE_CURVE('',#282,#281,#225,.T.);
#348=EDGE_CURVE('',#283,#282,#140,.T.);
#349=EDGE_CURVE('',#265,#283,#226,.T.);
#350=EDGE_CURVE('',#284,#271,#227,.T.);
#351=EDGE_CURVE('',#273,#284,#228,.T.);
#352=EDGE_CURVE('',#285,#285,#229,.T.);
#353=EDGE_CURVE('',#283,#254,#141,.T.);
#354=EDGE_CURVE('',#282,#255,#142,.T.);
#355=EDGE_CURVE('',#281,#256,#143,.T.);
#356=EDGE_CURVE('',#257,#280,#144,.T.);
#357=EDGE_CURVE('',#279,#258,#145,.T.);
#358=EDGE_CURVE('',#259,#278,#146,.T.);
#359=EDGE_CURVE('',#277,#260,#147,.T.);
#360=EDGE_CURVE('',#261,#276,#148,.T.);
#361=EDGE_CURVE('',#275,#262,#149,.T.);
#362=EDGE_CURVE('',#286,#286,#230,.T.);
#363=EDGE_CURVE('',#286,#287,#150,.T.);
#364=EDGE_CURVE('',#287,#287,#231,.T.);
#365=EDGE_CURVE('',#288,#288,#232,.T.);
#366=EDGE_CURVE('',#288,#289,#151,.T.);
#367=EDGE_CURVE('',#289,#289,#233,.T.);
#368=EDGE_CURVE('',#290,#290,#234,.T.);
#369=EDGE_CURVE('',#290,#291,#152,.T.);
#370=EDGE_CURVE('',#291,#291,#235,.T.);
#371=EDGE_CURVE('',#292,#292,#236,.T.);
#372=EDGE_CURVE('',#293,#293,#237,.T.);
#373=EDGE_CURVE('',#294,#294,#238,.T.);
#374=EDGE_CURVE('',#294,#285,#153,.T.);
#375=EDGE_CURVE('',#295,#295,#239,.T.);
#376=EDGE_CURVE('',#296,#296,#240,.T.);
#377=EDGE_CURVE('',#296,#263,#154,.T.);
#378=EDGE_CURVE('',#297,#297,#241,.T.);
#379=EDGE_CURVE('',#295,#245,#155,.T.);
#380=EDGE_CURVE('',#284,#292,#156,.T.);
#381=EDGE_CURVE('',#297,#293,#157,.T.);
#382=ORIENTED_EDGE('',*,*,#298,.F.);
#383=ORIENTED_EDGE('',*,*,#299,.F.);
#384=ORIENTED_EDGE('',*,*,#300,.F.);
#385=ORIENTED_EDGE('',*,*,#301,.F.);
#386=ORIENTED_EDGE('',*,*,#302,.F.);
#387=ORIENTED_EDGE('',*,*,#303,.F.);
#388=ORIENTED_EDGE('',*,*,#304,.F.);
#389=ORIENTED_EDGE('',*,*,#305,.F.);
#390=ORIENTED_EDGE('',*,*,#306,.F.);
#391=ORIENTED_EDGE('',*,*,#307,.F.);
#392=ORIENTED_EDGE('',*,*,#308,.F.);
#393=ORIENTED_EDGE('',*,*,#309,.F.);
#394=ORIENTED_EDGE('',*,*,#310,.F.);
#395=ORIENTED_EDGE('',*,*,#311,.F.);
#396=ORIENTED_EDGE('',*,*,#312,.F.);
#397=ORIENTED_EDGE('',*,*,#313,.F.);
#398=ORIENTED_EDGE('',*,*,#314,.F.);
#399=ORIENTED_EDGE('',*,*,#315,.F.);
#400=ORIENTED_EDGE('',*,*,#316,.F.);
#401=ORIENTED_EDGE('',*,*,#317,.F.);
#402=ORIENTED_EDGE('',*,*,#318,.F.);
#403=ORIENTED_EDGE('',*,*,#319,.F.);
#404=ORIENTED_EDGE('',*,*,#308,.T.);
#405=ORIENTED_EDGE('',*,*,#320,.F.);
#406=ORIENTED_EDGE('',*,*,#321,.T.);
#407=ORIENTED_EDGE('',*,*,#322,.F.);
#408=ORIENTED_EDGE('',*,*,#307,.T.);
#409=ORIENTED_EDGE('',*,*,#323,.T.);
#410=ORIENTED_EDGE('',*,*,#324,.T.);
#411=ORIENTED_EDGE('',*,*,#320,.T.);
#412=ORIENTED_EDGE('',*,*,#306,.T.);
#413=ORIENTED_EDGE('',*,*,#325,.F.);
#414=ORIENTED_EDGE('',*,*,#326,.T.);
#415=ORIENTED_EDGE('',*,*,#323,.F.);
#416=ORIENTED_EDGE('',*,*,#305,.T.);
#417=ORIENTED_EDGE('',*,*,#327,.T.);
#418=ORIENTED_EDGE('',*,*,#328,.T.);
#419=ORIENTED_EDGE('',*,*,#325,.T.);
#420=ORIENTED_EDGE('',*,*,#304,.T.);
#421=ORIENTED_EDGE('',*,*,#329,.F.);
#422=ORIENTED_EDGE('',*,*,#330,.T.);
#423=ORIENTED_EDGE('',*,*,#327,.F.);
#424=ORIENTED_EDGE('',*,*,#303,.T.);
#425=ORIENTED_EDGE('',*,*,#331,.T.);
#426=ORIENTED_EDGE('',*,*,#332,.T.);
#427=ORIENTED_EDGE('',*,*,#329,.T.);
#428=ORIENTED_EDGE('',*,*,#302,.T.);
#429=ORIENTED_EDGE('',*,*,#333,.F.);
#430=ORIENTED_EDGE('',*,*,#334,.T.);
#431=ORIENTED_EDGE('',*,*,#331,.F.);
#432=ORIENTED_EDGE('',*,*,#299,.T.);
#433=ORIENTED_EDGE('',*,*,#335,.F.);
#434=ORIENTED_EDGE('',*,*,#336,.T.);
#435=ORIENTED_EDGE('',*,*,#337,.T.);
#436=ORIENTED_EDGE('',*,*,#298,.T.);
#437=ORIENTED_EDGE('',*,*,#338,.T.);
#438=ORIENTED_EDGE('',*,*,#339,.T.);
#439=ORIENTED_EDGE('',*,*,#335,.T.);
#440=ORIENTED_EDGE('',*,*,#339,.F.);
#441=ORIENTED_EDGE('',*,*,#340,.F.);
#442=ORIENTED_EDGE('',*,*,#341,.F.);
#443=ORIENTED_EDGE('',*,*,#342,.F.);
#444=ORIENTED_EDGE('',*,*,#343,.F.);
#445=ORIENTED_EDGE('',*,*,#344,.F.);
#446=ORIENTED_EDGE('',*,*,#345,.F.);
#447=ORIENTED_EDGE('',*,*,#346,.F.);
#448=ORIENTED_EDGE('',*,*,#347,.F.);
#449=ORIENTED_EDGE('',*,*,#348,.F.);
#450=ORIENTED_EDGE('',*,*,#349,.F.);
#451=ORIENTED_EDGE('',*,*,#321,.F.);
#452=ORIENTED_EDGE('',*,*,#324,.F.);
#453=ORIENTED_EDGE('',*,*,#326,.F.);
#454=ORIENTED_EDGE('',*,*,#328,.F.);
#455=ORIENTED_EDGE('',*,*,#330,.F.);
#456=ORIENTED_EDGE('',*,*,#332,.F.);
#457=ORIENTED_EDGE('',*,*,#334,.F.);
#458=ORIENTED_EDGE('',*,*,#350,.F.);
#459=ORIENTED_EDGE('',*,*,#351,.F.);
#460=ORIENTED_EDGE('',*,*,#336,.F.);
#461=ORIENTED_EDGE('',*,*,#352,.F.);
#462=ORIENTED_EDGE('',*,*,#310,.T.);
#463=ORIENTED_EDGE('',*,*,#353,.F.);
#464=ORIENTED_EDGE('',*,*,#348,.T.);
#465=ORIENTED_EDGE('',*,*,#354,.T.);
#466=ORIENTED_EDGE('',*,*,#312,.T.);
#467=ORIENTED_EDGE('',*,*,#355,.F.);
#468=ORIENTED_EDGE('',*,*,#346,.T.);
#469=ORIENTED_EDGE('',*,*,#356,.F.);
#470=ORIENTED_EDGE('',*,*,#313,.T.);
#471=ORIENTED_EDGE('',*,*,#356,.T.);
#472=ORIENTED_EDGE('',*,*,#345,.T.);
#473=ORIENTED_EDGE('',*,*,#357,.T.);
#474=ORIENTED_EDGE('',*,*,#314,.T.);
#475=ORIENTED_EDGE('',*,*,#357,.F.);
#476=ORIENTED_EDGE('',*,*,#344,.T.);
#477=ORIENTED_EDGE('',*,*,#358,.F.);
#478=ORIENTED_EDGE('',*,*,#315,.T.);
#479=ORIENTED_EDGE('',*,*,#358,.T.);
#480=ORIENTED_EDGE('',*,*,#343,.T.);
#481=ORIENTED_EDGE('',*,*,#359,.T.);
#482=ORIENTED_EDGE('',*,*,#316,.T.);
#483=ORIENTED_EDGE('',*,*,#359,.F.);
#484=ORIENTED_EDGE('',*,*,#342,.T.);
#485=ORIENTED_EDGE('',*,*,#360,.F.);
#486=ORIENTED_EDGE('',*,*,#317,.T.);
#487=ORIENTED_EDGE('',*,*,#360,.T.);
#488=ORIENTED_EDGE('',*,*,#341,.T.);
#489=ORIENTED_EDGE('',*,*,#361,.T.);
#490=ORIENTED_EDGE('',*,*,#318,.T.);
#491=ORIENTED_EDGE('',*,*,#361,.F.);
#492=ORIENTED_EDGE('',*,*,#340,.T.);
#493=ORIENTED_EDGE('',*,*,#338,.F.);
#494=ORIENTED_EDGE('',*,*,#309,.T.);
#495=ORIENTED_EDGE('',*,*,#322,.T.);
#496=ORIENTED_EDGE('',*,*,#349,.T.);
#497=ORIENTED_EDGE('',*,*,#353,.T.);
#498=ORIENTED_EDGE('',*,*,#362,.F.);
#499=ORIENTED_EDGE('',*,*,#363,.T.);
#500=ORIENTED_EDGE('',*,*,#364,.F.);
#501=ORIENTED_EDGE('',*,*,#363,.F.);
#502=ORIENTED_EDGE('',*,*,#365,.F.);
#503=ORIENTED_EDGE('',*,*,#366,.T.);
#504=ORIENTED_EDGE('',*,*,#367,.F.);
#505=ORIENTED_EDGE('',*,*,#366,.F.);
#506=ORIENTED_EDGE('',*,*,#368,.F.);
#507=ORIENTED_EDGE('',*,*,#369,.T.);
#508=ORIENTED_EDGE('',*,*,#370,.F.);
#509=ORIENTED_EDGE('',*,*,#369,.F.);
#510=ORIENTED_EDGE('',*,*,#371,.T.);
#511=ORIENTED_EDGE('',*,*,#368,.T.);
#512=ORIENTED_EDGE('',*,*,#372,.T.);
#513=ORIENTED_EDGE('',*,*,#365,.T.);
#514=ORIENTED_EDGE('',*,*,#373,.F.);
#515=ORIENTED_EDGE('',*,*,#374,.T.);
#516=ORIENTED_EDGE('',*,*,#352,.T.);
#517=ORIENTED_EDGE('',*,*,#374,.F.);
#518=ORIENTED_EDGE('',*,*,#373,.T.);
#519=ORIENTED_EDGE('',*,*,#362,.T.);
#520=ORIENTED_EDGE('',*,*,#375,.T.);
#521=ORIENTED_EDGE('',*,*,#370,.T.);
#522=ORIENTED_EDGE('',*,*,#376,.F.);
#523=ORIENTED_EDGE('',*,*,#377,.T.);
#524=ORIENTED_EDGE('',*,*,#319,.T.);
#525=ORIENTED_EDGE('',*,*,#377,.F.);
#526=ORIENTED_EDGE('',*,*,#376,.T.);
#527=ORIENTED_EDGE('',*,*,#364,.T.);
#528=ORIENTED_EDGE('',*,*,#378,.T.);
#529=ORIENTED_EDGE('',*,*,#367,.T.);
#530=ORIENTED_EDGE('',*,*,#375,.F.);
#531=ORIENTED_EDGE('',*,*,#379,.T.);
#532=ORIENTED_EDGE('',*,*,#300,.T.);
#533=ORIENTED_EDGE('',*,*,#337,.F.);
#534=ORIENTED_EDGE('',*,*,#351,.T.);
#535=ORIENTED_EDGE('',*,*,#380,.T.);
#536=ORIENTED_EDGE('',*,*,#371,.F.);
#537=ORIENTED_EDGE('',*,*,#380,.F.);
#538=ORIENTED_EDGE('',*,*,#350,.T.);
#539=ORIENTED_EDGE('',*,*,#333,.T.);
#540=ORIENTED_EDGE('',*,*,#301,.T.);
#541=ORIENTED_EDGE('',*,*,#379,.F.);
#542=ORIENTED_EDGE('',*,*,#378,.F.);
#543=ORIENTED_EDGE('',*,*,#381,.T.);
#544=ORIENTED_EDGE('',*,*,#372,.F.);
#545=ORIENTED_EDGE('',*,*,#381,.F.);
#546=ORIENTED_EDGE('',*,*,#355,.T.);
#547=ORIENTED_EDGE('',*,*,#311,.T.);
#548=ORIENTED_EDGE('',*,*,#354,.F.);
#549=ORIENTED_EDGE('',*,*,#347,.T.);
#550=PLANE('',#611);
#551=PLANE('',#632);
#552=PLANE('',#639);
#553=PLANE('',#640);
#554=PLANE('',#643);
#555=PLANE('',#654);
#556=PLANE('',#655);
#557=PLANE('',#659);
#558=PLANE('',#672);
#559=PLANE('',#674);
#560=PLANE('',#678);
#561=PLANE('',#679);
#562=PLANE('',#683);
#563=PLANE('',#684);
#564=ADVANCED_FACE('',(#43,#34),#550,.T.);
#565=ADVANCED_FACE('',(#44),#15,.F.);
#566=ADVANCED_FACE('',(#45),#16,.T.);
#567=ADVANCED_FACE('',(#46),#551,.T.);
#568=ADVANCED_FACE('',(#47),#17,.T.);
#569=ADVANCED_FACE('',(#48),#18,.F.);
#570=ADVANCED_FACE('',(#49),#19,.T.);
#571=ADVANCED_FACE('',(#50),#552,.T.);
#572=ADVANCED_FACE('',(#51),#553,.T.);
#573=ADVANCED_FACE('',(#52),#20,.T.);
#574=ADVANCED_FACE('',(#53,#35),#554,.F.);
#575=ADVANCED_FACE('',(#54),#555,.T.);
#576=ADVANCED_FACE('',(#55),#556,.T.);
#577=ADVANCED_FACE('',(#56),#21,.T.);
#578=ADVANCED_FACE('',(#57),#22,.F.);
#579=ADVANCED_FACE('',(#58),#23,.T.);
#580=ADVANCED_FACE('',(#59),#557,.T.);
#581=ADVANCED_FACE('',(#60),#24,.T.);
#582=ADVANCED_FACE('',(#61),#25,.F.);
#583=ADVANCED_FACE('',(#62),#26,.T.);
#584=ADVANCED_FACE('',(#63),#27,.F.);
#585=ADVANCED_FACE('',(#64),#28,.F.);
#586=ADVANCED_FACE('',(#65),#29,.F.);
#587=ADVANCED_FACE('',(#66,#36),#558,.T.);
#588=ADVANCED_FACE('',(#67,#37),#559,.T.);
#589=ADVANCED_FACE('',(#68),#30,.T.);
#590=ADVANCED_FACE('',(#69,#38),#560,.T.);
#591=ADVANCED_FACE('',(#70,#39),#561,.T.);
#592=ADVANCED_FACE('',(#71),#31,.T.);
#593=ADVANCED_FACE('',(#72,#40),#562,.T.);
#594=ADVANCED_FACE('',(#73,#41),#563,.T.);
#595=ADVANCED_FACE('',(#74),#32,.T.);
#596=ADVANCED_FACE('',(#75,#42),#33,.T.);
#597=CLOSED_SHELL('',(#564,#565,#566,#567,#568,#569,#570,#571,#572,#573,
#574,#575,#576,#577,#578,#579,#580,#581,#582,#583,#584,#585,#586,#587,#588,
#589,#590,#591,#592,#593,#594,#595,#596));
#598=DERIVED_UNIT_ELEMENT(#600,1.);
#599=DERIVED_UNIT_ELEMENT(#1063,-3.);
#600=(
MASS_UNIT()
NAMED_UNIT(*)
SI_UNIT(.KILO.,.GRAM.)
);
#601=DERIVED_UNIT((#598,#599));
#602=MEASURE_REPRESENTATION_ITEM('density measure',
POSITIVE_RATIO_MEASURE(7850.),#601);
#603=PROPERTY_DEFINITION_REPRESENTATION(#608,#605);
#604=PROPERTY_DEFINITION_REPRESENTATION(#609,#606);
#605=REPRESENTATION('material name',(#607),#1060);
#606=REPRESENTATION('density',(#602),#1060);
#607=DESCRIPTIVE_REPRESENTATION_ITEM('Steel','Steel');
#608=PROPERTY_DEFINITION('material property','material name',#1070);
#609=PROPERTY_DEFINITION('material property','density of part',#1070);
#610=AXIS2_PLACEMENT_3D('',#884,#688,#689);
#611=AXIS2_PLACEMENT_3D('',#885,#690,#691);
#612=AXIS2_PLACEMENT_3D('',#888,#692,#693);
#613=AXIS2_PLACEMENT_3D('',#892,#695,#696);
#614=AXIS2_PLACEMENT_3D('',#894,#697,#698);
#615=AXIS2_PLACEMENT_3D('',#898,#700,#701);
#616=AXIS2_PLACEMENT_3D('',#900,#702,#703);
#617=AXIS2_PLACEMENT_3D('',#902,#704,#705);
#618=AXIS2_PLACEMENT_3D('',#906,#707,#708);
#619=AXIS2_PLACEMENT_3D('',#908,#709,#710);
#620=AXIS2_PLACEMENT_3D('',#910,#711,#712);
#621=AXIS2_PLACEMENT_3D('',#914,#714,#715);
#622=AXIS2_PLACEMENT_3D('',#918,#717,#718);
#623=AXIS2_PLACEMENT_3D('',#920,#719,#720);
#624=AXIS2_PLACEMENT_3D('',#922,#721,#722);
#625=AXIS2_PLACEMENT_3D('',#926,#724,#725);
#626=AXIS2_PLACEMENT_3D('',#927,#726,#727);
#627=AXIS2_PLACEMENT_3D('',#929,#728,#729);
#628=AXIS2_PLACEMENT_3D('',#930,#730,#731);
#629=AXIS2_PLACEMENT_3D('',#934,#733,#734);
#630=AXIS2_PLACEMENT_3D('',#936,#736,#737);
#631=AXIS2_PLACEMENT_3D('',#939,#739,#740);
#632=AXIS2_PLACEMENT_3D('',#940,#741,#742);
#633=AXIS2_PLACEMENT_3D('',#944,#745,#746);
#634=AXIS2_PLACEMENT_3D('',#947,#748,#749);
#635=AXIS2_PLACEMENT_3D('',#948,#750,#751);
#636=AXIS2_PLACEMENT_3D('',#951,#753,#754);
#637=AXIS2_PLACEMENT_3D('',#952,#755,#756);
#638=AXIS2_PLACEMENT_3D('',#955,#758,#759);
#639=AXIS2_PLACEMENT_3D('',#956,#760,#761);
#640=AXIS2_PLACEMENT_3D('',#960,#764,#765);
#641=AXIS2_PLACEMENT_3D('',#966,#769,#770);
#642=AXIS2_PLACEMENT_3D('',#969,#772,#773);
#643=AXIS2_PLACEMENT_3D('',#970,#774,#775);
#644=AXIS2_PLACEMENT_3D('',#972,#776,#777);
#645=AXIS2_PLACEMENT_3D('',#974,#778,#779);
#646=AXIS2_PLACEMENT_3D('',#978,#781,#782);
#647=AXIS2_PLACEMENT_3D('',#980,#783,#784);
#648=AXIS2_PLACEMENT_3D('',#982,#785,#786);
#649=AXIS2_PLACEMENT_3D('',#986,#788,#789);
#650=AXIS2_PLACEMENT_3D('',#989,#791,#792);
#651=AXIS2_PLACEMENT_3D('',#991,#793,#794);
#652=AXIS2_PLACEMENT_3D('',#992,#795,#796);
#653=AXIS2_PLACEMENT_3D('',#994,#797,#798);
#654=AXIS2_PLACEMENT_3D('',#995,#799,#800);
#655=AXIS2_PLACEMENT_3D('',#998,#803,#804);
#656=AXIS2_PLACEMENT_3D('',#1001,#807,#808);
#657=AXIS2_PLACEMENT_3D('',#1003,#810,#811);
#658=AXIS2_PLACEMENT_3D('',#1005,#813,#814);
#659=AXIS2_PLACEMENT_3D('',#1007,#816,#817);
#660=AXIS2_PLACEMENT_3D('',#1009,#819,#820);
#661=AXIS2_PLACEMENT_3D('',#1011,#822,#823);
#662=AXIS2_PLACEMENT_3D('',#1012,#824,#825);
#663=AXIS2_PLACEMENT_3D('',#1013,#826,#827);
#664=AXIS2_PLACEMENT_3D('',#1015,#828,#829);
#665=AXIS2_PLACEMENT_3D('',#1018,#831,#832);
#666=AXIS2_PLACEMENT_3D('',#1019,#833,#834);
#667=AXIS2_PLACEMENT_3D('',#1021,#835,#836);
#668=AXIS2_PLACEMENT_3D('',#1024,#838,#839);
#669=AXIS2_PLACEMENT_3D('',#1025,#840,#841);
#670=AXIS2_PLACEMENT_3D('',#1027,#842,#843);
#671=AXIS2_PLACEMENT_3D('',#1030,#845,#846);
#672=AXIS2_PLACEMENT_3D('',#1031,#847,#848);
#673=AXIS2_PLACEMENT_3D('',#1033,#849,#850);
#674=AXIS2_PLACEMENT_3D('',#1034,#851,#852);
#675=AXIS2_PLACEMENT_3D('',#1036,#853,#854);
#676=AXIS2_PLACEMENT_3D('',#1037,#855,#856);
#677=AXIS2_PLACEMENT_3D('',#1039,#857,#858);
#678=AXIS2_PLACEMENT_3D('',#1041,#860,#861);
#679=AXIS2_PLACEMENT_3D('',#1042,#862,#863);
#680=AXIS2_PLACEMENT_3D('',#1044,#864,#865);
#681=AXIS2_PLACEMENT_3D('',#1045,#866,#867);
#682=AXIS2_PLACEMENT_3D('',#1047,#868,#869);
#683=AXIS2_PLACEMENT_3D('',#1049,#871,#872);
#684=AXIS2_PLACEMENT_3D('',#1050,#873,#874);
#685=AXIS2_PLACEMENT_3D('',#1052,#875,#876);
#686=AXIS2_PLACEMENT_3D('',#1053,#877,#878);
#687=AXIS2_PLACEMENT_3D('',#1056,#881,#882);
#688=DIRECTION('axis',(0.,0.,1.));
#689=DIRECTION('refdir',(1.,0.,0.));
#690=DIRECTION('center_axis',(0.,1.,0.));
#691=DIRECTION('ref_axis',(1.,0.,0.));
#692=DIRECTION('center_axis',(0.,-1.,0.));
#693=DIRECTION('ref_axis',(-0.118812108466985,0.,0.992916755262811));
#694=DIRECTION('',(-1.,0.,-2.96059473233375E-17));
#695=DIRECTION('center_axis',(0.,1.,0.));
#696=DIRECTION('ref_axis',(-1.,0.,0.));
#697=DIRECTION('center_axis',(0.,1.,0.));
#698=DIRECTION('ref_axis',(-1.,0.,0.));
#699=DIRECTION('',(1.,0.,0.));
#700=DIRECTION('center_axis',(0.,-1.,0.));
#701=DIRECTION('ref_axis',(-0.118812114130439,0.,-0.992916754585124));
#702=DIRECTION('center_axis',(0.,1.,0.));
#703=DIRECTION('ref_axis',(-0.272520817562452,0.,0.962149886449659));
#704=DIRECTION('center_axis',(0.,-1.,0.));
#705=DIRECTION('ref_axis',(0.118812114130439,0.,-0.992916754585124));
#706=DIRECTION('',(1.,0.,0.));
#707=DIRECTION('center_axis',(0.,-1.,0.));
#708=DIRECTION('ref_axis',(-0.172928609532132,0.,-0.984934361267432));
#709=DIRECTION('center_axis',(0.,1.,0.));
#710=DIRECTION('ref_axis',(-0.492227958272411,0.,0.870466333119767));
#711=DIRECTION('center_axis',(0.,-1.,0.));
#712=DIRECTION('ref_axis',(0.172928609532132,0.,-0.984934361267432));
#713=DIRECTION('',(1.,0.,0.));
#714=DIRECTION('center_axis',(0.,1.,0.));
#715=DIRECTION('ref_axis',(-1.,0.,0.));
#716=DIRECTION('',(-1.,0.,-2.96059473233375E-17));
#717=DIRECTION('center_axis',(0.,-1.,0.));
#718=DIRECTION('ref_axis',(0.172928607628786,0.,0.984934361601609));
#719=DIRECTION('center_axis',(0.,1.,0.));
#720=DIRECTION('ref_axis',(0.492227947351268,0.,-0.870466339295413));
#721=DIRECTION('center_axis',(0.,-1.,0.));
#722=DIRECTION('ref_axis',(-0.172928607628786,0.,0.984934361601609));
#723=DIRECTION('',(-1.,0.,-2.96059473233375E-17));
#724=DIRECTION('center_axis',(0.,-1.,0.));
#725=DIRECTION('ref_axis',(0.118812108466985,0.,0.992916755262811));
#726=DIRECTION('center_axis',(0.,1.,0.));
#727=DIRECTION('ref_axis',(0.272520813152564,0.,-0.962149887698723));
#728=DIRECTION('center_axis',(0.,1.,0.));
#729=DIRECTION('ref_axis',(-1.,0.,0.));
#730=DIRECTION('center_axis',(0.,-1.,0.));
#731=DIRECTION('ref_axis',(-0.492227958272411,0.,0.870466333119767));
#732=DIRECTION('',(0.,1.,0.));
#733=DIRECTION('center_axis',(0.,-1.,0.));
#734=DIRECTION('ref_axis',(-0.492227958272411,0.,0.870466333119767));
#735=DIRECTION('',(0.,-1.,0.));
#736=DIRECTION('center_axis',(0.,1.,0.));
#737=DIRECTION('ref_axis',(-0.172928609532132,0.,-0.984934361267432));
#738=DIRECTION('',(0.,-1.,0.));
#739=DIRECTION('center_axis',(0.,1.,0.));
#740=DIRECTION('ref_axis',(-0.172928609532132,0.,-0.984934361267432));
#741=DIRECTION('center_axis',(0.,0.,-1.));
#742=DIRECTION('ref_axis',(-1.,0.,0.));
#743=DIRECTION('',(0.,1.,0.));
#744=DIRECTION('',(-1.,0.,0.));
#745=DIRECTION('center_axis',(0.,-1.,0.));
#746=DIRECTION('ref_axis',(0.118812114130439,0.,-0.992916754585124));
#747=DIRECTION('',(0.,-1.,0.));
#748=DIRECTION('center_axis',(0.,1.,0.));
#749=DIRECTION('ref_axis',(0.118812114130439,0.,-0.992916754585124));
#750=DIRECTION('center_axis',(0.,-1.,0.));
#751=DIRECTION('ref_axis',(-0.272520817562452,0.,0.962149886449659));
#752=DIRECTION('',(0.,1.,0.));
#753=DIRECTION('center_axis',(0.,-1.,0.));
#754=DIRECTION('ref_axis',(-0.272520817562452,0.,0.962149886449659));
#755=DIRECTION('center_axis',(0.,1.,0.));
#756=DIRECTION('ref_axis',(-0.118812114130439,0.,-0.992916754585124));
#757=DIRECTION('',(0.,-1.,0.));
#758=DIRECTION('center_axis',(0.,1.,0.));
#759=DIRECTION('ref_axis',(-0.118812114130439,0.,-0.992916754585124));
#760=DIRECTION('center_axis',(0.,0.,-1.));
#761=DIRECTION('ref_axis',(-1.,0.,0.));
#762=DIRECTION('',(0.,1.,0.));
#763=DIRECTION('',(-1.,0.,0.));
#764=DIRECTION('center_axis',(-2.96059473233375E-17,0.,1.));
#765=DIRECTION('ref_axis',(1.,0.,2.96059473233375E-17));
#766=DIRECTION('',(0.,1.,0.));
#767=DIRECTION('',(1.,0.,2.96059473233375E-17));
#768=DIRECTION('',(0.,1.,0.));
#769=DIRECTION('center_axis',(0.,-1.,0.));
#770=DIRECTION('ref_axis',(-0.118812108466985,0.,0.992916755262811));
#771=DIRECTION('',(0.,-1.,0.));
#772=DIRECTION('center_axis',(0.,1.,0.));
#773=DIRECTION('ref_axis',(-0.118812108466985,0.,0.992916755262811));
#774=DIRECTION('center_axis',(0.,1.,0.));
#775=DIRECTION('ref_axis',(1.,0.,0.));
#776=DIRECTION('center_axis',(0.,-1.,0.));
#777=DIRECTION('ref_axis',(0.272520813152564,0.,-0.962149887698723));
#778=DIRECTION('center_axis',(0.,1.,0.));
#779=DIRECTION('ref_axis',(0.118812108466985,0.,0.992916755262811));
#780=DIRECTION('',(1.,0.,2.96059473233375E-17));
#781=DIRECTION('center_axis',(0.,1.,0.));
#782=DIRECTION('ref_axis',(-0.172928607628786,0.,0.984934361601609));
#783=DIRECTION('center_axis',(0.,-1.,0.));
#784=DIRECTION('ref_axis',(0.492227947351268,0.,-0.870466339295413));
#785=DIRECTION('center_axis',(0.,1.,0.));
#786=DIRECTION('ref_axis',(0.172928607628786,0.,0.984934361601609));
#787=DIRECTION('',(1.,0.,2.96059473233375E-17));
#788=DIRECTION('center_axis',(0.,-1.,0.));
#789=DIRECTION('ref_axis',(1.,0.,0.));
#790=DIRECTION('',(-1.,0.,0.));
#791=DIRECTION('center_axis',(0.,1.,0.));
#792=DIRECTION('ref_axis',(0.172928609532132,0.,-0.984934361267432));
#793=DIRECTION('center_axis',(0.,-1.,0.));
#794=DIRECTION('ref_axis',(1.,0.,0.));
#795=DIRECTION('center_axis',(0.,-1.,0.));
#796=DIRECTION('ref_axis',(1.,0.,0.));
#797=DIRECTION('center_axis',(0.,-1.,0.));
#798=DIRECTION('ref_axis',(1.,0.,0.));
#799=DIRECTION('center_axis',(0.,0.,-1.));
#800=DIRECTION('ref_axis',(-1.,0.,0.));
#801=DIRECTION('',(0.,1.,0.));
#802=DIRECTION('',(0.,1.,0.));
#803=DIRECTION('center_axis',(-2.96059473233375E-17,0.,1.));
#804=DIRECTION('ref_axis',(1.,0.,2.96059473233375E-17));
#805=DIRECTION('',(0.,1.,0.));
#806=DIRECTION('',(0.,-1.,0.));
#807=DIRECTION('center_axis',(0.,1.,0.));
#808=DIRECTION('ref_axis',(0.172928607628786,0.,0.984934361601609));
#809=DIRECTION('',(0.,1.,0.));
#810=DIRECTION('center_axis',(0.,-1.,0.));
#811=DIRECTION('ref_axis',(0.492227947351268,0.,-0.870466339295413));
#812=DIRECTION('',(0.,-1.,0.));
#813=DIRECTION('center_axis',(0.,-1.,0.));
#814=DIRECTION('ref_axis',(-0.172928607628786,0.,0.984934361601609));
#815=DIRECTION('',(0.,1.,0.));
#816=DIRECTION('center_axis',(-2.96059473233375E-17,0.,1.));
#817=DIRECTION('ref_axis',(1.,0.,2.96059473233375E-17));
#818=DIRECTION('',(0.,-1.,0.));
#819=DIRECTION('center_axis',(0.,1.,0.));
#820=DIRECTION('ref_axis',(0.118812108466985,0.,0.992916755262811));
#821=DIRECTION('',(0.,1.,0.));
#822=DIRECTION('center_axis',(0.,-1.,0.));
#823=DIRECTION('ref_axis',(0.272520813152564,0.,-0.962149887698723));
#824=DIRECTION('center_axis',(0.,-1.,0.));
#825=DIRECTION('ref_axis',(0.172928609532132,0.,-0.984934361267432));
#826=DIRECTION('center_axis',(0.,1.,0.));
#827=DIRECTION('ref_axis',(0.,0.,-1.));
#828=DIRECTION('center_axis',(0.,1.,0.));
#829=DIRECTION('ref_axis',(0.,0.,-1.));
#830=DIRECTION('',(0.,1.,0.));
#831=DIRECTION('center_axis',(0.,-1.,0.));
#832=DIRECTION('ref_axis',(0.,0.,-1.));
#833=DIRECTION('center_axis',(0.,1.,0.));
#834=DIRECTION('ref_axis',(0.,0.,-1.));
#835=DIRECTION('center_axis',(0.,1.,0.));
#836=DIRECTION('ref_axis',(0.,0.,-1.));
#837=DIRECTION('',(0.,1.,0.));
#838=DIRECTION('center_axis',(0.,-1.,0.));
#839=DIRECTION('ref_axis',(0.,0.,-1.));
#840=DIRECTION('center_axis',(0.,1.,0.));
#841=DIRECTION('ref_axis',(0.,0.,-1.));
#842=DIRECTION('center_axis',(0.,1.,0.));
#843=DIRECTION('ref_axis',(0.,0.,-1.));
#844=DIRECTION('',(0.,1.,0.));
#845=DIRECTION('center_axis',(0.,-1.,0.));
#846=DIRECTION('ref_axis',(0.,0.,-1.));
#847=DIRECTION('center_axis',(0.,-1.,0.));
#848=DIRECTION('ref_axis',(1.,0.,0.));
#849=DIRECTION('center_axis',(0.,-1.,0.));
#850=DIRECTION('ref_axis',(1.,0.,0.));
#851=DIRECTION('center_axis',(0.,-1.,0.));
#852=DIRECTION('ref_axis',(1.,0.,0.));
#853=DIRECTION('center_axis',(0.,-1.,0.));
#854=DIRECTION('ref_axis',(1.,0.,0.));
#855=DIRECTION('center_axis',(0.,-1.,0.));
#856=DIRECTION('ref_axis',(1.,0.,0.));
#857=DIRECTION('center_axis',(0.,-1.,0.));
#858=DIRECTION('ref_axis',(1.,0.,0.));
#859=DIRECTION('',(0.,1.,0.));
#860=DIRECTION('center_axis',(0.,-1.,0.));
#861=DIRECTION('ref_axis',(1.,0.,0.));
#862=DIRECTION('center_axis',(0.,1.,0.));
#863=DIRECTION('ref_axis',(-1.,0.,0.));
#864=DIRECTION('center_axis',(0.,1.,0.));
#865=DIRECTION('ref_axis',(-1.,0.,0.));
#866=DIRECTION('center_axis',(0.,1.,0.));
#867=DIRECTION('ref_axis',(-1.,0.,0.));
#868=DIRECTION('center_axis',(0.,1.,0.));
#869=DIRECTION('ref_axis',(-1.,0.,0.));
#870=DIRECTION('',(0.,-1.,0.));
#871=DIRECTION('center_axis',(0.,1.,0.));
#872=DIRECTION('ref_axis',(-1.,0.,0.));
#873=DIRECTION('center_axis',(0.,1.,0.));
#874=DIRECTION('ref_axis',(-1.,0.,0.));
#875=DIRECTION('center_axis',(0.,1.,0.));
#876=DIRECTION('ref_axis',(-1.,0.,0.));
#877=DIRECTION('center_axis',(0.,1.,0.));
#878=DIRECTION('ref_axis',(1.,0.,0.));
#879=DIRECTION('',(0.,-1.,0.));
#880=DIRECTION('',(0.,-1.,0.));
#881=DIRECTION('center_axis',(0.,1.,0.));
#882=DIRECTION('ref_axis',(1.,0.,0.));
#883=DIRECTION('',(0.,-1.,0.));
#884=CARTESIAN_POINT('',(0.,0.,0.));
#885=CARTESIAN_POINT('Origin',(0.,13.,4.44089209850063E-15));
#886=CARTESIAN_POINT('',(70.7851641879384,13.,25.));
#887=CARTESIAN_POINT('',(60.1678161976909,13.,23.7295314593466));
#888=CARTESIAN_POINT('Origin',(70.7851641879384,13.,-20.));
#889=CARTESIAN_POINT('',(75.,13.,25.));
#890=CARTESIAN_POINT('',(-37.5,13.,25.));
#891=CARTESIAN_POINT('',(50.,13.,5.44079402257828E-15));
#892=CARTESIAN_POINT('Origin',(75.,13.,2.3791770247099E-15));
#893=CARTESIAN_POINT('',(75.,13.,-25.));
#894=CARTESIAN_POINT('Origin',(75.,13.,2.3791770247099E-15));
#895=CARTESIAN_POINT('',(70.7851648315524,13.,-25.));
#896=CARTESIAN_POINT('',(37.5,13.,-25.));
#897=CARTESIAN_POINT('',(60.167816342451,13.,-23.729531338227));
#898=CARTESIAN_POINT('Origin',(70.7851648315524,13.,20.));
#899=CARTESIAN_POINT('',(-2.16781634245095,13.,-23.729531338227));
#900=CARTESIAN_POINT('Origin',(29.,13.,-152.1));
#901=CARTESIAN_POINT('',(-12.7851648315523,13.,-25.));
#902=CARTESIAN_POINT('Origin',(-12.7851648315523,13.,20.));
#903=CARTESIAN_POINT('',(-17.5219390745086,13.,-25.));
#904=CARTESIAN_POINT('',(37.5,13.,-25.));
#905=CARTESIAN_POINT('',(-32.8510387362042,13.,-22.3086126404755));
#906=CARTESIAN_POINT('Origin',(-17.5219390745086,13.,20.));
#907=CARTESIAN_POINT('',(-59.1489616661271,13.,-22.3086126404755));
#908=CARTESIAN_POINT('Origin',(-46.0000002011657,13.,-58.6000015363098));
#909=CARTESIAN_POINT('',(-74.4780613278227,13.,-25.));
#910=CARTESIAN_POINT('Origin',(-74.4780613278227,13.,20.));
#911=CARTESIAN_POINT('',(-75.,13.,-25.));
#912=CARTESIAN_POINT('',(37.5,13.,-25.));
#913=CARTESIAN_POINT('',(-75.,13.,25.));
#914=CARTESIAN_POINT('Origin',(-75.,13.,4.14875675150614E-15));
#915=CARTESIAN_POINT('',(-74.4780621352176,13.,25.));
#916=CARTESIAN_POINT('',(-37.5,13.,25.));
#917=CARTESIAN_POINT('',(-59.1489626370414,13.,22.3086126997212));
#918=CARTESIAN_POINT('Origin',(-74.4780621352176,13.,-20.));
#919=CARTESIAN_POINT('',(-32.8510387338654,13.,22.3086126997212));
#920=CARTESIAN_POINT('Origin',(-46.0000006854534,13.,58.6000033766032));
#921=CARTESIAN_POINT('',(-17.5219392356892,13.,25.));
#922=CARTESIAN_POINT('Origin',(-17.5219392356892,13.,-20.));
#923=CARTESIAN_POINT('',(-12.7851645345973,13.,25.));
#924=CARTESIAN_POINT('',(-37.5,13.,25.));
#925=CARTESIAN_POINT('',(-2.16781654434987,13.,23.7295314593466));
#926=CARTESIAN_POINT('Origin',(-12.7851645345973,13.,-20.));
#927=CARTESIAN_POINT('Origin',(28.9999998266705,13.,152.100006625801));
#928=CARTESIAN_POINT('',(5.50000000000001,13.,-4.44089209850063E-15));
#929=CARTESIAN_POINT('Origin',(-17.,13.,4.46789188623738E-16));
#930=CARTESIAN_POINT('Origin',(-46.0000002011657,15.,-58.6000015363098));
#931=CARTESIAN_POINT('',(-32.8510387362042,2.,-22.3086126404755));
#932=CARTESIAN_POINT('',(-32.8510387362042,15.,-22.3086126404755));
#933=CARTESIAN_POINT('',(-59.1489616661271,2.,-22.3086126404755));
#934=CARTESIAN_POINT('Origin',(-46.0000002011657,2.,-58.6000015363098));
#935=CARTESIAN_POINT('',(-59.1489616661271,15.,-22.3086126404755));
#936=CARTESIAN_POINT('Origin',(-17.5219390745086,15.,20.));
#937=CARTESIAN_POINT('',(-17.5219390745086,2.,-25.));
#938=CARTESIAN_POINT('',(-17.5219390745086,15.,-25.));
#939=CARTESIAN_POINT('Origin',(-17.5219390745086,2.,20.));
#940=CARTESIAN_POINT('Origin',(75.,0.,-25.));
#941=CARTESIAN_POINT('',(-12.7851648315523,2.,-25.));
#942=CARTESIAN_POINT('',(-12.7851648315523,15.,-25.));
#943=CARTESIAN_POINT('',(37.5,2.,-25.));
#944=CARTESIAN_POINT('Origin',(-12.7851648315523,15.,20.));
#945=CARTESIAN_POINT('',(-2.16781634245095,2.,-23.729531338227));
#946=CARTESIAN_POINT('',(-2.16781634245096,15.,-23.729531338227));
#947=CARTESIAN_POINT('Origin',(-12.7851648315523,2.,20.));
#948=CARTESIAN_POINT('Origin',(29.,15.,-152.1));
#949=CARTESIAN_POINT('',(60.167816342451,2.,-23.729531338227));
#950=CARTESIAN_POINT('',(60.167816342451,15.,-23.729531338227));
#951=CARTESIAN_POINT('Origin',(29.,2.,-152.1));
#952=CARTESIAN_POINT('Origin',(70.7851648315524,15.,20.));
#953=CARTESIAN_POINT('',(70.7851648315524,2.,-25.));
#954=CARTESIAN_POINT('',(70.7851648315524,15.,-25.));
#955=CARTESIAN_POINT('Origin',(70.7851648315524,2.,20.));
#956=CARTESIAN_POINT('Origin',(75.,0.,-25.));
#957=CARTESIAN_POINT('',(75.,2.,-25.));
#958=CARTESIAN_POINT('',(75.,0.,-25.));
#959=CARTESIAN_POINT('',(37.5,2.,-25.));
#960=CARTESIAN_POINT('Origin',(-75.,0.,25.));
#961=CARTESIAN_POINT('',(70.7851641879384,2.,25.));
#962=CARTESIAN_POINT('',(70.7851641879384,15.,25.));
#963=CARTESIAN_POINT('',(75.,2.,25.));
#964=CARTESIAN_POINT('',(-37.5,2.,25.));
#965=CARTESIAN_POINT('',(75.,0.,25.));
#966=CARTESIAN_POINT('Origin',(70.7851641879384,15.,-20.));
#967=CARTESIAN_POINT('',(60.1678161976909,2.,23.7295314593466));
#968=CARTESIAN_POINT('',(60.1678161976909,15.,23.7295314593466));
#969=CARTESIAN_POINT('Origin',(70.7851641879384,2.,-20.));
#970=CARTESIAN_POINT('Origin',(0.,2.,4.44089209850063E-15));
#971=CARTESIAN_POINT('',(-2.16781654434987,2.,23.7295314593466));
#972=CARTESIAN_POINT('Origin',(28.9999998266705,2.,152.100006625801));
#973=CARTESIAN_POINT('',(-12.7851645345973,2.,25.));
#974=CARTESIAN_POINT('Origin',(-12.7851645345973,2.,-20.));
#975=CARTESIAN_POINT('',(-17.5219392356892,2.,25.));
#976=CARTESIAN_POINT('',(-37.5,2.,25.));
#977=CARTESIAN_POINT('',(-32.8510387338654,2.,22.3086126997212));
#978=CARTESIAN_POINT('Origin',(-17.5219392356892,2.,-20.));
#979=CARTESIAN_POINT('',(-59.1489626370414,2.,22.3086126997212));
#980=CARTESIAN_POINT('Origin',(-46.0000006854534,2.,58.6000033766032));
#981=CARTESIAN_POINT('',(-74.4780621352176,2.,25.));
#982=CARTESIAN_POINT('Origin',(-74.4780621352176,2.,-20.));
#983=CARTESIAN_POINT('',(-75.,2.,25.));
#984=CARTESIAN_POINT('',(-37.5,2.,25.));
#985=CARTESIAN_POINT('',(-75.,2.,-25.));
#986=CARTESIAN_POINT('Origin',(-75.,2.,4.44089209850063E-15));
#987=CARTESIAN_POINT('',(-74.4780613278227,2.,-25.));
#988=CARTESIAN_POINT('',(37.5,2.,-25.));
#989=CARTESIAN_POINT('Origin',(-74.4780613278227,2.,20.));
#990=CARTESIAN_POINT('',(50.,2.,5.44079402257828E-15));
#991=CARTESIAN_POINT('Origin',(75.,2.,2.22044604925031E-15));
#992=CARTESIAN_POINT('Origin',(75.,2.,2.22044604925031E-15));
#993=CARTESIAN_POINT('',(-39.5,2.,-4.44089209850063E-15));
#994=CARTESIAN_POINT('Origin',(-17.,2.,4.78249918300066E-16));
#995=CARTESIAN_POINT('Origin',(75.,0.,-25.));
#996=CARTESIAN_POINT('',(-74.4780613278227,15.,-25.));
#997=CARTESIAN_POINT('',(-75.,0.,-25.));
#998=CARTESIAN_POINT('Origin',(-75.,0.,25.));
#999=CARTESIAN_POINT('',(-75.,0.,25.));
#1000=CARTESIAN_POINT('',(-74.4780621352176,15.,25.));
#1001=CARTESIAN_POINT('Origin',(-74.4780621352176,15.,-20.));
#1002=CARTESIAN_POINT('',(-59.1489626370414,15.,22.3086126997212));
#1003=CARTESIAN_POINT('Origin',(-46.0000006854534,15.,58.6000033766032));
#1004=CARTESIAN_POINT('',(-32.8510387338654,15.,22.3086126997212));
#1005=CARTESIAN_POINT('Origin',(-17.5219392356892,15.,-20.));
#1006=CARTESIAN_POINT('',(-17.5219392356892,15.,25.));
#1007=CARTESIAN_POINT('Origin',(-75.,0.,25.));
#1008=CARTESIAN_POINT('',(-12.7851645345973,15.,25.));
#1009=CARTESIAN_POINT('Origin',(-12.7851645345973,15.,-20.));
#1010=CARTESIAN_POINT('',(-2.16781654434986,15.,23.7295314593466));
#1011=CARTESIAN_POINT('Origin',(28.9999998266705,15.,152.100006625801));
#1012=CARTESIAN_POINT('Origin',(-74.4780613278227,15.,20.));
#1013=CARTESIAN_POINT('Origin',(-17.,7.5,0.));
#1014=CARTESIAN_POINT('',(-17.,-2.5,12.5));
#1015=CARTESIAN_POINT('Origin',(-17.,-2.5,0.));
#1016=CARTESIAN_POINT('',(-17.,17.5,12.5));
#1017=CARTESIAN_POINT('',(-17.,7.5,12.5));
#1018=CARTESIAN_POINT('Origin',(-17.,17.5,0.));
#1019=CARTESIAN_POINT('Origin',(-75.,7.5,4.44089209850063E-15));
#1020=CARTESIAN_POINT('',(-75.,-2.5,12.5));
#1021=CARTESIAN_POINT('Origin',(-75.,-2.5,4.44089209850063E-15));
#1022=CARTESIAN_POINT('',(-75.,17.5,12.5));
#1023=CARTESIAN_POINT('',(-75.,7.5,12.5));
#1024=CARTESIAN_POINT('Origin',(-75.,17.5,4.44089209850063E-15));
#1025=CARTESIAN_POINT('Origin',(75.,7.5,0.));
#1026=CARTESIAN_POINT('',(75.,-2.5,12.5));
#1027=CARTESIAN_POINT('Origin',(75.,-2.5,0.));
#1028=CARTESIAN_POINT('',(75.,17.5,12.5));
#1029=CARTESIAN_POINT('',(75.,7.5,12.5));
#1030=CARTESIAN_POINT('Origin',(75.,17.5,0.));
#1031=CARTESIAN_POINT('Origin',(75.,-2.5,0.));
#1032=CARTESIAN_POINT('',(50.,-2.5,5.44079402257828E-15));
#1033=CARTESIAN_POINT('Origin',(75.,-2.5,2.22044604925031E-15));
#1034=CARTESIAN_POINT('Origin',(-75.,-2.5,4.44089209850063E-15));
#1035=CARTESIAN_POINT('',(-100.,-2.5,7.21037374937452E-15));
#1036=CARTESIAN_POINT('Origin',(-75.,-2.5,4.44089209850063E-15));
#1037=CARTESIAN_POINT('Origin',(-17.,0.,4.78249918300066E-16));
#1038=CARTESIAN_POINT('',(-39.5,-2.5,-2.27720537978148E-15));
#1039=CARTESIAN_POINT('Origin',(-17.,-2.5,4.78249918300066E-16));
#1040=CARTESIAN_POINT('',(-39.5,0.,-2.27720537978148E-15));
#1041=CARTESIAN_POINT('Origin',(-17.,-2.5,0.));
#1042=CARTESIAN_POINT('Origin',(75.,17.5,4.44089209850063E-15));
#1043=CARTESIAN_POINT('',(50.,17.5,5.44079402257828E-15));
#1044=CARTESIAN_POINT('Origin',(75.,17.5,2.3791770247099E-15));
#1045=CARTESIAN_POINT('Origin',(-17.,15.,4.46789188623738E-16));
#1046=CARTESIAN_POINT('',(5.50000000000001,17.5,-2.30866610945781E-15));
#1047=CARTESIAN_POINT('Origin',(-17.,17.5,4.46789188623738E-16));
#1048=CARTESIAN_POINT('',(5.50000000000001,15.,-2.30866610945781E-15));
#1049=CARTESIAN_POINT('Origin',(-17.,17.5,0.));
#1050=CARTESIAN_POINT('Origin',(-75.,17.5,4.44089209850063E-15));
#1051=CARTESIAN_POINT('',(-100.,17.5,7.21037374937452E-15));
#1052=CARTESIAN_POINT('Origin',(-75.,17.5,4.14875675150614E-15));
#1053=CARTESIAN_POINT('Origin',(75.,0.,2.3791770247099E-15));
#1054=CARTESIAN_POINT('',(50.,0.,5.44079402257828E-15));
#1055=CARTESIAN_POINT('',(50.,0.,5.44079402257828E-15));
#1056=CARTESIAN_POINT('Origin',(-75.,0.,4.14875675150614E-15));
#1057=CARTESIAN_POINT('',(-100.,0.,7.21037374937452E-15));
#1058=UNCERTAINTY_MEASURE_WITH_UNIT(LENGTH_MEASURE(0.01),#1062,
'DISTANCE_ACCURACY_VALUE',
'Maximum model space distance between geometric entities at asserted c
onnectivities');
#1059=UNCERTAINTY_MEASURE_WITH_UNIT(LENGTH_MEASURE(0.01),#1062,
'DISTANCE_ACCURACY_VALUE',
'Maximum model space distance between geometric entities at asserted c
onnectivities');
#1060=(
GEOMETRIC_REPRESENTATION_CONTEXT(3)
GLOBAL_UNCERTAINTY_ASSIGNED_CONTEXT((#1058))
GLOBAL_UNIT_ASSIGNED_CONTEXT((#1062,#1064,#1065))
REPRESENTATION_CONTEXT('','3D')
);
#1061=(
GEOMETRIC_REPRESENTATION_CONTEXT(3)
GLOBAL_UNCERTAINTY_ASSIGNED_CONTEXT((#1059))
GLOBAL_UNIT_ASSIGNED_CONTEXT((#1062,#1064,#1065))
REPRESENTATION_CONTEXT('','3D')
);
#1062=(
LENGTH_UNIT()
NAMED_UNIT(*)
SI_UNIT(.MILLI.,.METRE.)
);
#1063=(
LENGTH_UNIT()
NAMED_UNIT(*)
SI_UNIT($,.METRE.)
);
#1064=(
NAMED_UNIT(*)
PLANE_ANGLE_UNIT()
SI_UNIT($,.RADIAN.)
);
#1065=(
NAMED_UNIT(*)
SI_UNIT($,.STERADIAN.)
SOLID_ANGLE_UNIT()
);
#1066=SHAPE_DEFINITION_REPRESENTATION(#1067,#1068);
#1067=PRODUCT_DEFINITION_SHAPE('',$,#1070);
#1068=SHAPE_REPRESENTATION('',(#610),#1060);
#1069=PRODUCT_DEFINITION_CONTEXT('part definition',#1074,'design');
#1070=PRODUCT_DEFINITION('160 center  plus center hole',
'160 center  plus center hole v1',#1071,#1069);
#1071=PRODUCT_DEFINITION_FORMATION('',$,#1076);
#1072=PRODUCT_RELATED_PRODUCT_CATEGORY(
'160 center  plus center hole v1','160 center  plus center hole v1',(#1076));
#1073=APPLICATION_PROTOCOL_DEFINITION('international standard',
'automotive_design',2009,#1074);
#1074=APPLICATION_CONTEXT(
'Core Data for Automotive Mechanical Design Process');
#1075=PRODUCT_CONTEXT('part definition',#1074,'mechanical');
#1076=PRODUCT('160 center  plus center hole',
'160 center  plus center hole v1',$,(#1075));
#1077=PRESENTATION_STYLE_ASSIGNMENT((#1078));
#1078=SURFACE_STYLE_USAGE(.BOTH.,#1079);
#1079=SURFACE_SIDE_STYLE('',(#1080));
#1080=SURFACE_STYLE_FILL_AREA(#1081);
#1081=FILL_AREA_STYLE('Steel - Satin',(#1082));
#1082=FILL_AREA_STYLE_COLOUR('Steel - Satin',#1083);
#1083=COLOUR_RGB('Steel - Satin',0.627450980392157,0.627450980392157,0.627450980392157);
ENDSEC;
END-ISO-10303-21;
