ISO-10303-21;
HEADER;
/* Generated by software containing ST-Developer
 * from STEP Tools, Inc. (www.steptools.com) 
 */

FILE_DESCRIPTION(
/* description */ (''),
/* implementation_level */ '2;1');

FILE_NAME(
/* name */ 'ScrewBracket-SFU2005-Custom v1.step',
/* time_stamp */ '2026-03-14T09:17:39+01:00',
/* author */ (''),
/* organization */ (''),
/* preprocessor_version */ 'ST-DEVELOPER v20.1',
/* originating_system */ 'Autodesk Translation Framework v14.24.0.0',
/* authorisation */ '');

FILE_SCHEMA (('AUTOMOTIVE_DESIGN { 1 0 10303 214 3 1 1 }'));
ENDSEC;

DATA;
#10=MECHANICAL_DESIGN_GEOMETRIC_PRESENTATION_REPRESENTATION('',(#13),#1336);
#11=SHAPE_REPRESENTATION_RELATIONSHIP('SRR','None',#1343,#12);
#12=ADVANCED_BREP_SHAPE_REPRESENTATION('',(#14),#1335);
#13=STYLED_ITEM('',(#1352),#14);
#14=MANIFOLD_SOLID_BREP('Body1',#775);
#15=CONICAL_SURFACE('',#853,19.,0.785398163397443);
#16=CONICAL_SURFACE('',#860,18.,0.785398163397448);
#17=CONICAL_SURFACE('',#867,2.65,0.785398163397448);
#18=CONICAL_SURFACE('',#868,2.65,0.785398163397448);
#19=CONICAL_SURFACE('',#869,2.65,0.785398163397448);
#20=CONICAL_SURFACE('',#870,2.65,0.78539816339745);
#21=CONICAL_SURFACE('',#871,2.65,0.785398163397448);
#22=CONICAL_SURFACE('',#872,2.65,0.785398163397448);
#23=CONICAL_SURFACE('',#873,2.65,0.785398163397452);
#24=CONICAL_SURFACE('',#874,2.65,0.785398163397452);
#25=CONICAL_SURFACE('',#875,2.65,0.785398163397452);
#26=CONICAL_SURFACE('',#876,2.65,0.785398163397452);
#27=CYLINDRICAL_SURFACE('',#809,18.);
#28=CYLINDRICAL_SURFACE('',#813,2.65);
#29=CYLINDRICAL_SURFACE('',#817,2.65);
#30=CYLINDRICAL_SURFACE('',#821,2.65);
#31=CYLINDRICAL_SURFACE('',#825,2.65);
#32=CYLINDRICAL_SURFACE('',#829,2.65);
#33=CYLINDRICAL_SURFACE('',#833,2.65);
#34=CYLINDRICAL_SURFACE('',#837,2.65);
#35=CYLINDRICAL_SURFACE('',#841,2.65);
#36=CYLINDRICAL_SURFACE('',#845,2.65);
#37=CYLINDRICAL_SURFACE('',#849,2.65);
#38=FACE_BOUND('',#139,.T.);
#39=FACE_BOUND('',#140,.T.);
#40=FACE_BOUND('',#141,.T.);
#41=FACE_BOUND('',#142,.T.);
#42=FACE_BOUND('',#143,.T.);
#43=FACE_BOUND('',#144,.T.);
#44=FACE_BOUND('',#145,.T.);
#45=FACE_BOUND('',#147,.T.);
#46=FACE_BOUND('',#149,.T.);
#47=FACE_BOUND('',#150,.T.);
#48=FACE_BOUND('',#151,.T.);
#49=FACE_BOUND('',#152,.T.);
#50=CIRCLE('',#790,3.65000000000001);
#51=CIRCLE('',#791,3.65000000000001);
#52=CIRCLE('',#792,3.65000000000001);
#53=CIRCLE('',#793,3.65);
#54=CIRCLE('',#794,3.65000000000001);
#55=CIRCLE('',#795,3.65000000000001);
#56=CIRCLE('',#796,19.);
#57=CIRCLE('',#798,19.);
#58=CIRCLE('',#800,3.64999999999999);
#59=CIRCLE('',#801,3.64999999999999);
#60=CIRCLE('',#802,3.65000000000002);
#61=CIRCLE('',#803,3.65000000000002);
#62=CIRCLE('',#810,18.);
#63=CIRCLE('',#811,18.);
#64=CIRCLE('',#812,18.);
#65=CIRCLE('',#814,2.65);
#66=CIRCLE('',#815,2.65);
#67=CIRCLE('',#818,2.65);
#68=CIRCLE('',#819,2.65);
#69=CIRCLE('',#822,2.65);
#70=CIRCLE('',#823,2.65);
#71=CIRCLE('',#826,2.65);
#72=CIRCLE('',#827,2.65);
#73=CIRCLE('',#830,2.65);
#74=CIRCLE('',#831,2.65);
#75=CIRCLE('',#834,2.65);
#76=CIRCLE('',#835,2.65);
#77=CIRCLE('',#838,2.65);
#78=CIRCLE('',#839,2.65);
#79=CIRCLE('',#842,2.65);
#80=CIRCLE('',#843,2.65);
#81=CIRCLE('',#846,2.65);
#82=CIRCLE('',#847,2.65);
#83=CIRCLE('',#850,2.65);
#84=CIRCLE('',#851,2.65);
#85=FACE_OUTER_BOUND('',#138,.T.);
#86=FACE_OUTER_BOUND('',#146,.T.);
#87=FACE_OUTER_BOUND('',#148,.T.);
#88=FACE_OUTER_BOUND('',#153,.T.);
#89=FACE_OUTER_BOUND('',#154,.T.);
#90=FACE_OUTER_BOUND('',#155,.T.);
#91=FACE_OUTER_BOUND('',#156,.T.);
#92=FACE_OUTER_BOUND('',#157,.T.);
#93=FACE_OUTER_BOUND('',#158,.T.);
#94=FACE_OUTER_BOUND('',#159,.T.);
#95=FACE_OUTER_BOUND('',#160,.T.);
#96=FACE_OUTER_BOUND('',#161,.T.);
#97=FACE_OUTER_BOUND('',#162,.T.);
#98=FACE_OUTER_BOUND('',#163,.T.);
#99=FACE_OUTER_BOUND('',#164,.T.);
#100=FACE_OUTER_BOUND('',#165,.T.);
#101=FACE_OUTER_BOUND('',#166,.T.);
#102=FACE_OUTER_BOUND('',#167,.T.);
#103=FACE_OUTER_BOUND('',#168,.T.);
#104=FACE_OUTER_BOUND('',#169,.T.);
#105=FACE_OUTER_BOUND('',#170,.T.);
#106=FACE_OUTER_BOUND('',#171,.T.);
#107=FACE_OUTER_BOUND('',#172,.T.);
#108=FACE_OUTER_BOUND('',#173,.T.);
#109=FACE_OUTER_BOUND('',#174,.T.);
#110=FACE_OUTER_BOUND('',#175,.T.);
#111=FACE_OUTER_BOUND('',#176,.T.);
#112=FACE_OUTER_BOUND('',#177,.T.);
#113=FACE_OUTER_BOUND('',#178,.T.);
#114=FACE_OUTER_BOUND('',#179,.T.);
#115=FACE_OUTER_BOUND('',#180,.T.);
#116=FACE_OUTER_BOUND('',#181,.T.);
#117=FACE_OUTER_BOUND('',#182,.T.);
#118=FACE_OUTER_BOUND('',#183,.T.);
#119=FACE_OUTER_BOUND('',#184,.T.);
#120=FACE_OUTER_BOUND('',#185,.T.);
#121=FACE_OUTER_BOUND('',#186,.T.);
#122=FACE_OUTER_BOUND('',#187,.T.);
#123=FACE_OUTER_BOUND('',#188,.T.);
#124=FACE_OUTER_BOUND('',#189,.T.);
#125=FACE_OUTER_BOUND('',#190,.T.);
#126=FACE_OUTER_BOUND('',#191,.T.);
#127=FACE_OUTER_BOUND('',#192,.T.);
#128=FACE_OUTER_BOUND('',#193,.T.);
#129=FACE_OUTER_BOUND('',#194,.T.);
#130=FACE_OUTER_BOUND('',#195,.T.);
#131=FACE_OUTER_BOUND('',#196,.T.);
#132=FACE_OUTER_BOUND('',#197,.T.);
#133=FACE_OUTER_BOUND('',#198,.T.);
#134=FACE_OUTER_BOUND('',#199,.T.);
#135=FACE_OUTER_BOUND('',#200,.T.);
#136=FACE_OUTER_BOUND('',#201,.T.);
#137=FACE_OUTER_BOUND('',#202,.T.);
#138=EDGE_LOOP('',(#492,#493,#494,#495,#496,#497));
#139=EDGE_LOOP('',(#498));
#140=EDGE_LOOP('',(#499));
#141=EDGE_LOOP('',(#500));
#142=EDGE_LOOP('',(#501));
#143=EDGE_LOOP('',(#502));
#144=EDGE_LOOP('',(#503));
#145=EDGE_LOOP('',(#504));
#146=EDGE_LOOP('',(#505,#506,#507,#508,#509,#510));
#147=EDGE_LOOP('',(#511));
#148=EDGE_LOOP('',(#512,#513,#514,#515));
#149=EDGE_LOOP('',(#516));
#150=EDGE_LOOP('',(#517));
#151=EDGE_LOOP('',(#518));
#152=EDGE_LOOP('',(#519));
#153=EDGE_LOOP('',(#520,#521,#522,#523));
#154=EDGE_LOOP('',(#524,#525,#526,#527));
#155=EDGE_LOOP('',(#528,#529,#530,#531));
#156=EDGE_LOOP('',(#532,#533,#534,#535));
#157=EDGE_LOOP('',(#536,#537,#538,#539));
#158=EDGE_LOOP('',(#540,#541,#542,#543,#544));
#159=EDGE_LOOP('',(#545,#546,#547,#548));
#160=EDGE_LOOP('',(#549));
#161=EDGE_LOOP('',(#550,#551,#552,#553));
#162=EDGE_LOOP('',(#554));
#163=EDGE_LOOP('',(#555,#556,#557,#558));
#164=EDGE_LOOP('',(#559));
#165=EDGE_LOOP('',(#560,#561,#562,#563));
#166=EDGE_LOOP('',(#564));
#167=EDGE_LOOP('',(#565,#566,#567,#568));
#168=EDGE_LOOP('',(#569));
#169=EDGE_LOOP('',(#570,#571,#572,#573));
#170=EDGE_LOOP('',(#574));
#171=EDGE_LOOP('',(#575,#576,#577,#578));
#172=EDGE_LOOP('',(#579));
#173=EDGE_LOOP('',(#580,#581,#582,#583));
#174=EDGE_LOOP('',(#584));
#175=EDGE_LOOP('',(#585,#586,#587,#588));
#176=EDGE_LOOP('',(#589));
#177=EDGE_LOOP('',(#590,#591,#592,#593));
#178=EDGE_LOOP('',(#594));
#179=EDGE_LOOP('',(#595,#596,#597,#598));
#180=EDGE_LOOP('',(#599,#600,#601,#602));
#181=EDGE_LOOP('',(#603,#604,#605,#606));
#182=EDGE_LOOP('',(#607,#608,#609,#610));
#183=EDGE_LOOP('',(#611,#612,#613,#614));
#184=EDGE_LOOP('',(#615,#616,#617,#618));
#185=EDGE_LOOP('',(#619,#620,#621,#622));
#186=EDGE_LOOP('',(#623,#624,#625,#626,#627));
#187=EDGE_LOOP('',(#628,#629,#630,#631));
#188=EDGE_LOOP('',(#632,#633,#634,#635));
#189=EDGE_LOOP('',(#636,#637,#638,#639));
#190=EDGE_LOOP('',(#640,#641,#642,#643));
#191=EDGE_LOOP('',(#644,#645,#646,#647));
#192=EDGE_LOOP('',(#648,#649,#650,#651));
#193=EDGE_LOOP('',(#652,#653,#654,#655));
#194=EDGE_LOOP('',(#656,#657,#658,#659));
#195=EDGE_LOOP('',(#660,#661,#662,#663));
#196=EDGE_LOOP('',(#664,#665,#666,#667));
#197=EDGE_LOOP('',(#668,#669,#670,#671));
#198=EDGE_LOOP('',(#672,#673,#674,#675));
#199=EDGE_LOOP('',(#676,#677,#678,#679));
#200=EDGE_LOOP('',(#680,#681,#682,#683));
#201=EDGE_LOOP('',(#684,#685,#686,#687));
#202=EDGE_LOOP('',(#688,#689,#690,#691));
#203=LINE('',#1124,#268);
#204=LINE('',#1126,#269);
#205=LINE('',#1128,#270);
#206=LINE('',#1130,#271);
#207=LINE('',#1132,#272);
#208=LINE('',#1133,#273);
#209=LINE('',#1151,#274);
#210=LINE('',#1153,#275);
#211=LINE('',#1155,#276);
#212=LINE('',#1157,#277);
#213=LINE('',#1159,#278);
#214=LINE('',#1160,#279);
#215=LINE('',#1166,#280);
#216=LINE('',#1168,#281);
#217=LINE('',#1170,#282);
#218=LINE('',#1171,#283);
#219=LINE('',#1182,#284);
#220=LINE('',#1184,#285);
#221=LINE('',#1185,#286);
#222=LINE('',#1188,#287);
#223=LINE('',#1190,#288);
#224=LINE('',#1191,#289);
#225=LINE('',#1194,#290);
#226=LINE('',#1196,#291);
#227=LINE('',#1197,#292);
#228=LINE('',#1200,#293);
#229=LINE('',#1202,#294);
#230=LINE('',#1203,#295);
#231=LINE('',#1205,#296);
#232=LINE('',#1206,#297);
#233=LINE('',#1213,#298);
#234=LINE('',#1219,#299);
#235=LINE('',#1226,#300);
#236=LINE('',#1233,#301);
#237=LINE('',#1240,#302);
#238=LINE('',#1247,#303);
#239=LINE('',#1254,#304);
#240=LINE('',#1261,#305);
#241=LINE('',#1268,#306);
#242=LINE('',#1275,#307);
#243=LINE('',#1282,#308);
#244=LINE('',#1286,#309);
#245=LINE('',#1288,#310);
#246=LINE('',#1289,#311);
#247=LINE('',#1291,#312);
#248=LINE('',#1293,#313);
#249=LINE('',#1295,#314);
#250=LINE('',#1297,#315);
#251=LINE('',#1300,#316);
#252=LINE('',#1302,#317);
#253=LINE('',#1303,#318);
#254=LINE('',#1305,#319);
#255=LINE('',#1307,#320);
#256=LINE('',#1309,#321);
#257=LINE('',#1311,#322);
#258=LINE('',#1314,#323);
#259=LINE('',#1316,#324);
#260=LINE('',#1318,#325);
#261=LINE('',#1320,#326);
#262=LINE('',#1322,#327);
#263=LINE('',#1324,#328);
#264=LINE('',#1326,#329);
#265=LINE('',#1328,#330);
#266=LINE('',#1330,#331);
#267=LINE('',#1332,#332);
#268=VECTOR('',#881,16.1421356237309);
#269=VECTOR('',#882,30.5857864376269);
#270=VECTOR('',#883,60.);
#271=VECTOR('',#884,30.5857864376269);
#272=VECTOR('',#885,16.1421356237309);
#273=VECTOR('',#886,37.1715728752539);
#274=VECTOR('',#903,16.1421356237309);
#275=VECTOR('',#904,30.5857864376269);
#276=VECTOR('',#905,60.);
#277=VECTOR('',#906,30.5857864376269);
#278=VECTOR('',#907,16.1421356237309);
#279=VECTOR('',#908,37.1715728752539);
#280=VECTOR('',#913,38.);
#281=VECTOR('',#914,62.);
#282=VECTOR('',#915,38.);
#283=VECTOR('',#916,62.);
#284=VECTOR('',#927,32.);
#285=VECTOR('',#928,38.);
#286=VECTOR('',#929,32.);
#287=VECTOR('',#932,16.9705627484771);
#288=VECTOR('',#933,38.);
#289=VECTOR('',#934,16.9705627484771);
#290=VECTOR('',#937,38.);
#291=VECTOR('',#938,38.);
#292=VECTOR('',#939,38.);
#293=VECTOR('',#942,16.9705627484771);
#294=VECTOR('',#943,38.);
#295=VECTOR('',#944,16.9705627484771);
#296=VECTOR('',#947,32.);
#297=VECTOR('',#948,32.);
#298=VECTOR('',#955,18.);
#299=VECTOR('',#962,2.65);
#300=VECTOR('',#971,2.65);
#301=VECTOR('',#980,2.65);
#302=VECTOR('',#989,2.65);
#303=VECTOR('',#998,2.65);
#304=VECTOR('',#1007,2.65);
#305=VECTOR('',#1016,2.65);
#306=VECTOR('',#1025,2.65);
#307=VECTOR('',#1034,2.65);
#308=VECTOR('',#1043,2.65);
#309=VECTOR('',#1050,19.);
#310=VECTOR('',#1053,1.47362575820791);
#311=VECTOR('',#1054,1.47362575820791);
#312=VECTOR('',#1057,1.73205080756889);
#313=VECTOR('',#1060,1.47362575820791);
#314=VECTOR('',#1063,1.73205080756889);
#315=VECTOR('',#1066,1.47362575820791);
#316=VECTOR('',#1071,18.);
#317=VECTOR('',#1074,1.47362575820791);
#318=VECTOR('',#1075,1.47362575820791);
#319=VECTOR('',#1078,1.73205080756888);
#320=VECTOR('',#1081,1.4736257582079);
#321=VECTOR('',#1084,1.73205080756888);
#322=VECTOR('',#1087,1.4736257582079);
#323=VECTOR('',#1092,2.65);
#324=VECTOR('',#1095,2.65);
#325=VECTOR('',#1098,2.65);
#326=VECTOR('',#1101,2.65);
#327=VECTOR('',#1104,2.65);
#328=VECTOR('',#1107,2.65);
#329=VECTOR('',#1110,2.65);
#330=VECTOR('',#1113,2.65);
#331=VECTOR('',#1116,2.65);
#332=VECTOR('',#1119,2.65);
#333=VERTEX_POINT('',#1122);
#334=VERTEX_POINT('',#1123);
#335=VERTEX_POINT('',#1125);
#336=VERTEX_POINT('',#1127);
#337=VERTEX_POINT('',#1129);
#338=VERTEX_POINT('',#1131);
#339=VERTEX_POINT('',#1134);
#340=VERTEX_POINT('',#1136);
#341=VERTEX_POINT('',#1138);
#342=VERTEX_POINT('',#1140);
#343=VERTEX_POINT('',#1142);
#344=VERTEX_POINT('',#1144);
#345=VERTEX_POINT('',#1146);
#346=VERTEX_POINT('',#1149);
#347=VERTEX_POINT('',#1150);
#348=VERTEX_POINT('',#1152);
#349=VERTEX_POINT('',#1154);
#350=VERTEX_POINT('',#1156);
#351=VERTEX_POINT('',#1158);
#352=VERTEX_POINT('',#1161);
#353=VERTEX_POINT('',#1164);
#354=VERTEX_POINT('',#1165);
#355=VERTEX_POINT('',#1167);
#356=VERTEX_POINT('',#1169);
#357=VERTEX_POINT('',#1172);
#358=VERTEX_POINT('',#1174);
#359=VERTEX_POINT('',#1176);
#360=VERTEX_POINT('',#1178);
#361=VERTEX_POINT('',#1181);
#362=VERTEX_POINT('',#1183);
#363=VERTEX_POINT('',#1187);
#364=VERTEX_POINT('',#1189);
#365=VERTEX_POINT('',#1193);
#366=VERTEX_POINT('',#1195);
#367=VERTEX_POINT('',#1199);
#368=VERTEX_POINT('',#1201);
#369=VERTEX_POINT('',#1208);
#370=VERTEX_POINT('',#1209);
#371=VERTEX_POINT('',#1212);
#372=VERTEX_POINT('',#1216);
#373=VERTEX_POINT('',#1218);
#374=VERTEX_POINT('',#1223);
#375=VERTEX_POINT('',#1225);
#376=VERTEX_POINT('',#1230);
#377=VERTEX_POINT('',#1232);
#378=VERTEX_POINT('',#1237);
#379=VERTEX_POINT('',#1239);
#380=VERTEX_POINT('',#1244);
#381=VERTEX_POINT('',#1246);
#382=VERTEX_POINT('',#1251);
#383=VERTEX_POINT('',#1253);
#384=VERTEX_POINT('',#1258);
#385=VERTEX_POINT('',#1260);
#386=VERTEX_POINT('',#1265);
#387=VERTEX_POINT('',#1267);
#388=VERTEX_POINT('',#1272);
#389=VERTEX_POINT('',#1274);
#390=VERTEX_POINT('',#1279);
#391=VERTEX_POINT('',#1281);
#392=EDGE_CURVE('',#333,#334,#203,.T.);
#393=EDGE_CURVE('',#334,#335,#204,.T.);
#394=EDGE_CURVE('',#335,#336,#205,.T.);
#395=EDGE_CURVE('',#336,#337,#206,.T.);
#396=EDGE_CURVE('',#337,#338,#207,.T.);
#397=EDGE_CURVE('',#338,#333,#208,.T.);
#398=EDGE_CURVE('',#339,#339,#50,.F.);
#399=EDGE_CURVE('',#340,#340,#51,.F.);
#400=EDGE_CURVE('',#341,#341,#52,.F.);
#401=EDGE_CURVE('',#342,#342,#53,.F.);
#402=EDGE_CURVE('',#343,#343,#54,.F.);
#403=EDGE_CURVE('',#344,#344,#55,.F.);
#404=EDGE_CURVE('',#345,#345,#56,.F.);
#405=EDGE_CURVE('',#346,#347,#209,.T.);
#406=EDGE_CURVE('',#347,#348,#210,.T.);
#407=EDGE_CURVE('',#348,#349,#211,.T.);
#408=EDGE_CURVE('',#349,#350,#212,.T.);
#409=EDGE_CURVE('',#350,#351,#213,.T.);
#410=EDGE_CURVE('',#351,#346,#214,.T.);
#411=EDGE_CURVE('',#352,#352,#57,.T.);
#412=EDGE_CURVE('',#353,#354,#215,.T.);
#413=EDGE_CURVE('',#354,#355,#216,.T.);
#414=EDGE_CURVE('',#356,#355,#217,.T.);
#415=EDGE_CURVE('',#356,#353,#218,.T.);
#416=EDGE_CURVE('',#357,#357,#58,.T.);
#417=EDGE_CURVE('',#358,#358,#59,.T.);
#418=EDGE_CURVE('',#359,#359,#60,.T.);
#419=EDGE_CURVE('',#360,#360,#61,.T.);
#420=EDGE_CURVE('',#355,#361,#219,.T.);
#421=EDGE_CURVE('',#362,#361,#220,.T.);
#422=EDGE_CURVE('',#362,#356,#221,.T.);
#423=EDGE_CURVE('',#361,#363,#222,.T.);
#424=EDGE_CURVE('',#364,#363,#223,.T.);
#425=EDGE_CURVE('',#364,#362,#224,.T.);
#426=EDGE_CURVE('',#363,#365,#225,.T.);
#427=EDGE_CURVE('',#366,#365,#226,.T.);
#428=EDGE_CURVE('',#366,#364,#227,.T.);
#429=EDGE_CURVE('',#365,#367,#228,.T.);
#430=EDGE_CURVE('',#368,#367,#229,.T.);
#431=EDGE_CURVE('',#368,#366,#230,.T.);
#432=EDGE_CURVE('',#367,#354,#231,.T.);
#433=EDGE_CURVE('',#353,#368,#232,.T.);
#434=EDGE_CURVE('',#369,#370,#62,.T.);
#435=EDGE_CURVE('',#370,#369,#63,.T.);
#436=EDGE_CURVE('',#369,#371,#233,.T.);
#437=EDGE_CURVE('',#371,#371,#64,.F.);
#438=EDGE_CURVE('',#372,#372,#65,.T.);
#439=EDGE_CURVE('',#372,#373,#234,.T.);
#440=EDGE_CURVE('',#373,#373,#66,.T.);
#441=EDGE_CURVE('',#374,#374,#67,.T.);
#442=EDGE_CURVE('',#374,#375,#235,.T.);
#443=EDGE_CURVE('',#375,#375,#68,.T.);
#444=EDGE_CURVE('',#376,#376,#69,.T.);
#445=EDGE_CURVE('',#376,#377,#236,.T.);
#446=EDGE_CURVE('',#377,#377,#70,.T.);
#447=EDGE_CURVE('',#378,#378,#71,.T.);
#448=EDGE_CURVE('',#378,#379,#237,.T.);
#449=EDGE_CURVE('',#379,#379,#72,.T.);
#450=EDGE_CURVE('',#380,#380,#73,.T.);
#451=EDGE_CURVE('',#380,#381,#238,.T.);
#452=EDGE_CURVE('',#381,#381,#74,.T.);
#453=EDGE_CURVE('',#382,#382,#75,.T.);
#454=EDGE_CURVE('',#382,#383,#239,.T.);
#455=EDGE_CURVE('',#383,#383,#76,.T.);
#456=EDGE_CURVE('',#384,#384,#77,.T.);
#457=EDGE_CURVE('',#384,#385,#240,.T.);
#458=EDGE_CURVE('',#385,#385,#78,.F.);
#459=EDGE_CURVE('',#386,#386,#79,.T.);
#460=EDGE_CURVE('',#386,#387,#241,.T.);
#461=EDGE_CURVE('',#387,#387,#80,.F.);
#462=EDGE_CURVE('',#388,#388,#81,.T.);
#463=EDGE_CURVE('',#388,#389,#242,.T.);
#464=EDGE_CURVE('',#389,#389,#82,.F.);
#465=EDGE_CURVE('',#390,#390,#83,.T.);
#466=EDGE_CURVE('',#390,#391,#243,.T.);
#467=EDGE_CURVE('',#391,#391,#84,.F.);
#468=EDGE_CURVE('',#371,#352,#244,.T.);
#469=EDGE_CURVE('',#351,#365,#245,.F.);
#470=EDGE_CURVE('',#367,#350,#246,.T.);
#471=EDGE_CURVE('',#354,#349,#247,.F.);
#472=EDGE_CURVE('',#346,#363,#248,.F.);
#473=EDGE_CURVE('',#355,#348,#249,.F.);
#474=EDGE_CURVE('',#347,#361,#250,.T.);
#475=EDGE_CURVE('',#370,#345,#251,.T.);
#476=EDGE_CURVE('',#338,#364,#252,.F.);
#477=EDGE_CURVE('',#362,#337,#253,.F.);
#478=EDGE_CURVE('',#356,#336,#254,.T.);
#479=EDGE_CURVE('',#333,#366,#255,.F.);
#480=EDGE_CURVE('',#353,#335,#256,.T.);
#481=EDGE_CURVE('',#334,#368,#257,.F.);
#482=EDGE_CURVE('',#373,#339,#258,.T.);
#483=EDGE_CURVE('',#375,#340,#259,.T.);
#484=EDGE_CURVE('',#377,#341,#260,.T.);
#485=EDGE_CURVE('',#379,#342,#261,.T.);
#486=EDGE_CURVE('',#381,#343,#262,.T.);
#487=EDGE_CURVE('',#383,#344,#263,.T.);
#488=EDGE_CURVE('',#387,#357,#264,.T.);
#489=EDGE_CURVE('',#389,#358,#265,.T.);
#490=EDGE_CURVE('',#391,#359,#266,.T.);
#491=EDGE_CURVE('',#385,#360,#267,.T.);
#492=ORIENTED_EDGE('',*,*,#392,.T.);
#493=ORIENTED_EDGE('',*,*,#393,.T.);
#494=ORIENTED_EDGE('',*,*,#394,.T.);
#495=ORIENTED_EDGE('',*,*,#395,.T.);
#496=ORIENTED_EDGE('',*,*,#396,.T.);
#497=ORIENTED_EDGE('',*,*,#397,.T.);
#498=ORIENTED_EDGE('',*,*,#398,.T.);
#499=ORIENTED_EDGE('',*,*,#399,.T.);
#500=ORIENTED_EDGE('',*,*,#400,.T.);
#501=ORIENTED_EDGE('',*,*,#401,.T.);
#502=ORIENTED_EDGE('',*,*,#402,.T.);
#503=ORIENTED_EDGE('',*,*,#403,.T.);
#504=ORIENTED_EDGE('',*,*,#404,.T.);
#505=ORIENTED_EDGE('',*,*,#405,.T.);
#506=ORIENTED_EDGE('',*,*,#406,.T.);
#507=ORIENTED_EDGE('',*,*,#407,.T.);
#508=ORIENTED_EDGE('',*,*,#408,.T.);
#509=ORIENTED_EDGE('',*,*,#409,.T.);
#510=ORIENTED_EDGE('',*,*,#410,.T.);
#511=ORIENTED_EDGE('',*,*,#411,.T.);
#512=ORIENTED_EDGE('',*,*,#412,.T.);
#513=ORIENTED_EDGE('',*,*,#413,.T.);
#514=ORIENTED_EDGE('',*,*,#414,.F.);
#515=ORIENTED_EDGE('',*,*,#415,.T.);
#516=ORIENTED_EDGE('',*,*,#416,.T.);
#517=ORIENTED_EDGE('',*,*,#417,.T.);
#518=ORIENTED_EDGE('',*,*,#418,.T.);
#519=ORIENTED_EDGE('',*,*,#419,.T.);
#520=ORIENTED_EDGE('',*,*,#414,.T.);
#521=ORIENTED_EDGE('',*,*,#420,.T.);
#522=ORIENTED_EDGE('',*,*,#421,.F.);
#523=ORIENTED_EDGE('',*,*,#422,.T.);
#524=ORIENTED_EDGE('',*,*,#421,.T.);
#525=ORIENTED_EDGE('',*,*,#423,.T.);
#526=ORIENTED_EDGE('',*,*,#424,.F.);
#527=ORIENTED_EDGE('',*,*,#425,.T.);
#528=ORIENTED_EDGE('',*,*,#424,.T.);
#529=ORIENTED_EDGE('',*,*,#426,.T.);
#530=ORIENTED_EDGE('',*,*,#427,.F.);
#531=ORIENTED_EDGE('',*,*,#428,.T.);
#532=ORIENTED_EDGE('',*,*,#427,.T.);
#533=ORIENTED_EDGE('',*,*,#429,.T.);
#534=ORIENTED_EDGE('',*,*,#430,.F.);
#535=ORIENTED_EDGE('',*,*,#431,.T.);
#536=ORIENTED_EDGE('',*,*,#430,.T.);
#537=ORIENTED_EDGE('',*,*,#432,.T.);
#538=ORIENTED_EDGE('',*,*,#412,.F.);
#539=ORIENTED_EDGE('',*,*,#433,.T.);
#540=ORIENTED_EDGE('',*,*,#434,.T.);
#541=ORIENTED_EDGE('',*,*,#435,.T.);
#542=ORIENTED_EDGE('',*,*,#436,.T.);
#543=ORIENTED_EDGE('',*,*,#437,.T.);
#544=ORIENTED_EDGE('',*,*,#436,.F.);
#545=ORIENTED_EDGE('',*,*,#438,.F.);
#546=ORIENTED_EDGE('',*,*,#439,.T.);
#547=ORIENTED_EDGE('',*,*,#440,.T.);
#548=ORIENTED_EDGE('',*,*,#439,.F.);
#549=ORIENTED_EDGE('',*,*,#438,.T.);
#550=ORIENTED_EDGE('',*,*,#441,.F.);
#551=ORIENTED_EDGE('',*,*,#442,.T.);
#552=ORIENTED_EDGE('',*,*,#443,.T.);
#553=ORIENTED_EDGE('',*,*,#442,.F.);
#554=ORIENTED_EDGE('',*,*,#441,.T.);
#555=ORIENTED_EDGE('',*,*,#444,.F.);
#556=ORIENTED_EDGE('',*,*,#445,.T.);
#557=ORIENTED_EDGE('',*,*,#446,.T.);
#558=ORIENTED_EDGE('',*,*,#445,.F.);
#559=ORIENTED_EDGE('',*,*,#444,.T.);
#560=ORIENTED_EDGE('',*,*,#447,.F.);
#561=ORIENTED_EDGE('',*,*,#448,.T.);
#562=ORIENTED_EDGE('',*,*,#449,.T.);
#563=ORIENTED_EDGE('',*,*,#448,.F.);
#564=ORIENTED_EDGE('',*,*,#447,.T.);
#565=ORIENTED_EDGE('',*,*,#450,.F.);
#566=ORIENTED_EDGE('',*,*,#451,.T.);
#567=ORIENTED_EDGE('',*,*,#452,.T.);
#568=ORIENTED_EDGE('',*,*,#451,.F.);
#569=ORIENTED_EDGE('',*,*,#450,.T.);
#570=ORIENTED_EDGE('',*,*,#453,.F.);
#571=ORIENTED_EDGE('',*,*,#454,.T.);
#572=ORIENTED_EDGE('',*,*,#455,.T.);
#573=ORIENTED_EDGE('',*,*,#454,.F.);
#574=ORIENTED_EDGE('',*,*,#453,.T.);
#575=ORIENTED_EDGE('',*,*,#456,.F.);
#576=ORIENTED_EDGE('',*,*,#457,.T.);
#577=ORIENTED_EDGE('',*,*,#458,.T.);
#578=ORIENTED_EDGE('',*,*,#457,.F.);
#579=ORIENTED_EDGE('',*,*,#456,.T.);
#580=ORIENTED_EDGE('',*,*,#459,.F.);
#581=ORIENTED_EDGE('',*,*,#460,.T.);
#582=ORIENTED_EDGE('',*,*,#461,.T.);
#583=ORIENTED_EDGE('',*,*,#460,.F.);
#584=ORIENTED_EDGE('',*,*,#459,.T.);
#585=ORIENTED_EDGE('',*,*,#462,.F.);
#586=ORIENTED_EDGE('',*,*,#463,.T.);
#587=ORIENTED_EDGE('',*,*,#464,.T.);
#588=ORIENTED_EDGE('',*,*,#463,.F.);
#589=ORIENTED_EDGE('',*,*,#462,.T.);
#590=ORIENTED_EDGE('',*,*,#465,.F.);
#591=ORIENTED_EDGE('',*,*,#466,.T.);
#592=ORIENTED_EDGE('',*,*,#467,.T.);
#593=ORIENTED_EDGE('',*,*,#466,.F.);
#594=ORIENTED_EDGE('',*,*,#465,.T.);
#595=ORIENTED_EDGE('',*,*,#437,.F.);
#596=ORIENTED_EDGE('',*,*,#468,.T.);
#597=ORIENTED_EDGE('',*,*,#411,.F.);
#598=ORIENTED_EDGE('',*,*,#468,.F.);
#599=ORIENTED_EDGE('',*,*,#469,.F.);
#600=ORIENTED_EDGE('',*,*,#409,.F.);
#601=ORIENTED_EDGE('',*,*,#470,.F.);
#602=ORIENTED_EDGE('',*,*,#429,.F.);
#603=ORIENTED_EDGE('',*,*,#470,.T.);
#604=ORIENTED_EDGE('',*,*,#408,.F.);
#605=ORIENTED_EDGE('',*,*,#471,.F.);
#606=ORIENTED_EDGE('',*,*,#432,.F.);
#607=ORIENTED_EDGE('',*,*,#469,.T.);
#608=ORIENTED_EDGE('',*,*,#426,.F.);
#609=ORIENTED_EDGE('',*,*,#472,.F.);
#610=ORIENTED_EDGE('',*,*,#410,.F.);
#611=ORIENTED_EDGE('',*,*,#471,.T.);
#612=ORIENTED_EDGE('',*,*,#407,.F.);
#613=ORIENTED_EDGE('',*,*,#473,.F.);
#614=ORIENTED_EDGE('',*,*,#413,.F.);
#615=ORIENTED_EDGE('',*,*,#472,.T.);
#616=ORIENTED_EDGE('',*,*,#423,.F.);
#617=ORIENTED_EDGE('',*,*,#474,.F.);
#618=ORIENTED_EDGE('',*,*,#405,.F.);
#619=ORIENTED_EDGE('',*,*,#473,.T.);
#620=ORIENTED_EDGE('',*,*,#406,.F.);
#621=ORIENTED_EDGE('',*,*,#474,.T.);
#622=ORIENTED_EDGE('',*,*,#420,.F.);
#623=ORIENTED_EDGE('',*,*,#434,.F.);
#624=ORIENTED_EDGE('',*,*,#435,.F.);
#625=ORIENTED_EDGE('',*,*,#475,.T.);
#626=ORIENTED_EDGE('',*,*,#404,.F.);
#627=ORIENTED_EDGE('',*,*,#475,.F.);
#628=ORIENTED_EDGE('',*,*,#476,.F.);
#629=ORIENTED_EDGE('',*,*,#396,.F.);
#630=ORIENTED_EDGE('',*,*,#477,.F.);
#631=ORIENTED_EDGE('',*,*,#425,.F.);
#632=ORIENTED_EDGE('',*,*,#477,.T.);
#633=ORIENTED_EDGE('',*,*,#395,.F.);
#634=ORIENTED_EDGE('',*,*,#478,.F.);
#635=ORIENTED_EDGE('',*,*,#422,.F.);
#636=ORIENTED_EDGE('',*,*,#476,.T.);
#637=ORIENTED_EDGE('',*,*,#428,.F.);
#638=ORIENTED_EDGE('',*,*,#479,.F.);
#639=ORIENTED_EDGE('',*,*,#397,.F.);
#640=ORIENTED_EDGE('',*,*,#478,.T.);
#641=ORIENTED_EDGE('',*,*,#394,.F.);
#642=ORIENTED_EDGE('',*,*,#480,.F.);
#643=ORIENTED_EDGE('',*,*,#415,.F.);
#644=ORIENTED_EDGE('',*,*,#479,.T.);
#645=ORIENTED_EDGE('',*,*,#431,.F.);
#646=ORIENTED_EDGE('',*,*,#481,.F.);
#647=ORIENTED_EDGE('',*,*,#392,.F.);
#648=ORIENTED_EDGE('',*,*,#480,.T.);
#649=ORIENTED_EDGE('',*,*,#393,.F.);
#650=ORIENTED_EDGE('',*,*,#481,.T.);
#651=ORIENTED_EDGE('',*,*,#433,.F.);
#652=ORIENTED_EDGE('',*,*,#440,.F.);
#653=ORIENTED_EDGE('',*,*,#482,.T.);
#654=ORIENTED_EDGE('',*,*,#398,.F.);
#655=ORIENTED_EDGE('',*,*,#482,.F.);
#656=ORIENTED_EDGE('',*,*,#443,.F.);
#657=ORIENTED_EDGE('',*,*,#483,.T.);
#658=ORIENTED_EDGE('',*,*,#399,.F.);
#659=ORIENTED_EDGE('',*,*,#483,.F.);
#660=ORIENTED_EDGE('',*,*,#446,.F.);
#661=ORIENTED_EDGE('',*,*,#484,.T.);
#662=ORIENTED_EDGE('',*,*,#400,.F.);
#663=ORIENTED_EDGE('',*,*,#484,.F.);
#664=ORIENTED_EDGE('',*,*,#449,.F.);
#665=ORIENTED_EDGE('',*,*,#485,.T.);
#666=ORIENTED_EDGE('',*,*,#401,.F.);
#667=ORIENTED_EDGE('',*,*,#485,.F.);
#668=ORIENTED_EDGE('',*,*,#452,.F.);
#669=ORIENTED_EDGE('',*,*,#486,.T.);
#670=ORIENTED_EDGE('',*,*,#402,.F.);
#671=ORIENTED_EDGE('',*,*,#486,.F.);
#672=ORIENTED_EDGE('',*,*,#455,.F.);
#673=ORIENTED_EDGE('',*,*,#487,.T.);
#674=ORIENTED_EDGE('',*,*,#403,.F.);
#675=ORIENTED_EDGE('',*,*,#487,.F.);
#676=ORIENTED_EDGE('',*,*,#461,.F.);
#677=ORIENTED_EDGE('',*,*,#488,.T.);
#678=ORIENTED_EDGE('',*,*,#416,.F.);
#679=ORIENTED_EDGE('',*,*,#488,.F.);
#680=ORIENTED_EDGE('',*,*,#464,.F.);
#681=ORIENTED_EDGE('',*,*,#489,.T.);
#682=ORIENTED_EDGE('',*,*,#417,.F.);
#683=ORIENTED_EDGE('',*,*,#489,.F.);
#684=ORIENTED_EDGE('',*,*,#467,.F.);
#685=ORIENTED_EDGE('',*,*,#490,.T.);
#686=ORIENTED_EDGE('',*,*,#418,.F.);
#687=ORIENTED_EDGE('',*,*,#490,.F.);
#688=ORIENTED_EDGE('',*,*,#458,.F.);
#689=ORIENTED_EDGE('',*,*,#491,.T.);
#690=ORIENTED_EDGE('',*,*,#419,.F.);
#691=ORIENTED_EDGE('',*,*,#491,.F.);
#692=PLANE('',#789);
#693=PLANE('',#797);
#694=PLANE('',#799);
#695=PLANE('',#804);
#696=PLANE('',#805);
#697=PLANE('',#806);
#698=PLANE('',#807);
#699=PLANE('',#808);
#700=PLANE('',#816);
#701=PLANE('',#820);
#702=PLANE('',#824);
#703=PLANE('',#828);
#704=PLANE('',#832);
#705=PLANE('',#836);
#706=PLANE('',#840);
#707=PLANE('',#844);
#708=PLANE('',#848);
#709=PLANE('',#852);
#710=PLANE('',#854);
#711=PLANE('',#855);
#712=PLANE('',#856);
#713=PLANE('',#857);
#714=PLANE('',#858);
#715=PLANE('',#859);
#716=PLANE('',#861);
#717=PLANE('',#862);
#718=PLANE('',#863);
#719=PLANE('',#864);
#720=PLANE('',#865);
#721=PLANE('',#866);
#722=ADVANCED_FACE('',(#85,#38,#39,#40,#41,#42,#43,#44),#692,.T.);
#723=ADVANCED_FACE('',(#86,#45),#693,.F.);
#724=ADVANCED_FACE('',(#87,#46,#47,#48,#49),#694,.F.);
#725=ADVANCED_FACE('',(#88),#695,.F.);
#726=ADVANCED_FACE('',(#89),#696,.T.);
#727=ADVANCED_FACE('',(#90),#697,.T.);
#728=ADVANCED_FACE('',(#91),#698,.T.);
#729=ADVANCED_FACE('',(#92),#699,.T.);
#730=ADVANCED_FACE('',(#93),#27,.F.);
#731=ADVANCED_FACE('',(#94),#28,.F.);
#732=ADVANCED_FACE('',(#95),#700,.T.);
#733=ADVANCED_FACE('',(#96),#29,.F.);
#734=ADVANCED_FACE('',(#97),#701,.T.);
#735=ADVANCED_FACE('',(#98),#30,.F.);
#736=ADVANCED_FACE('',(#99),#702,.T.);
#737=ADVANCED_FACE('',(#100),#31,.F.);
#738=ADVANCED_FACE('',(#101),#703,.T.);
#739=ADVANCED_FACE('',(#102),#32,.F.);
#740=ADVANCED_FACE('',(#103),#704,.T.);
#741=ADVANCED_FACE('',(#104),#33,.F.);
#742=ADVANCED_FACE('',(#105),#705,.T.);
#743=ADVANCED_FACE('',(#106),#34,.F.);
#744=ADVANCED_FACE('',(#107),#706,.T.);
#745=ADVANCED_FACE('',(#108),#35,.F.);
#746=ADVANCED_FACE('',(#109),#707,.F.);
#747=ADVANCED_FACE('',(#110),#36,.F.);
#748=ADVANCED_FACE('',(#111),#708,.T.);
#749=ADVANCED_FACE('',(#112),#37,.F.);
#750=ADVANCED_FACE('',(#113),#709,.F.);
#751=ADVANCED_FACE('',(#114),#15,.F.);
#752=ADVANCED_FACE('',(#115),#710,.T.);
#753=ADVANCED_FACE('',(#116),#711,.T.);
#754=ADVANCED_FACE('',(#117),#712,.T.);
#755=ADVANCED_FACE('',(#118),#713,.F.);
#756=ADVANCED_FACE('',(#119),#714,.T.);
#757=ADVANCED_FACE('',(#120),#715,.F.);
#758=ADVANCED_FACE('',(#121),#16,.F.);
#759=ADVANCED_FACE('',(#122),#716,.F.);
#760=ADVANCED_FACE('',(#123),#717,.T.);
#761=ADVANCED_FACE('',(#124),#718,.F.);
#762=ADVANCED_FACE('',(#125),#719,.T.);
#763=ADVANCED_FACE('',(#126),#720,.F.);
#764=ADVANCED_FACE('',(#127),#721,.F.);
#765=ADVANCED_FACE('',(#128),#17,.F.);
#766=ADVANCED_FACE('',(#129),#18,.F.);
#767=ADVANCED_FACE('',(#130),#19,.F.);
#768=ADVANCED_FACE('',(#131),#20,.F.);
#769=ADVANCED_FACE('',(#132),#21,.F.);
#770=ADVANCED_FACE('',(#133),#22,.F.);
#771=ADVANCED_FACE('',(#134),#23,.F.);
#772=ADVANCED_FACE('',(#135),#24,.F.);
#773=ADVANCED_FACE('',(#136),#25,.F.);
#774=ADVANCED_FACE('',(#137),#26,.F.);
#775=CLOSED_SHELL('',(#722,#723,#724,#725,#726,#727,#728,#729,#730,#731,
#732,#733,#734,#735,#736,#737,#738,#739,#740,#741,#742,#743,#744,#745,#746,
#747,#748,#749,#750,#751,#752,#753,#754,#755,#756,#757,#758,#759,#760,#761,
#762,#763,#764,#765,#766,#767,#768,#769,#770,#771,#772,#773,#774));
#776=DERIVED_UNIT_ELEMENT(#778,1.);
#777=DERIVED_UNIT_ELEMENT(#1338,-3.);
#778=(
MASS_UNIT()
NAMED_UNIT(*)
SI_UNIT(.KILO.,.GRAM.)
);
#779=DERIVED_UNIT((#776,#777));
#780=MEASURE_REPRESENTATION_ITEM('density measure',
POSITIVE_RATIO_MEASURE(7830.),#779);
#781=PROPERTY_DEFINITION_REPRESENTATION(#786,#783);
#782=PROPERTY_DEFINITION_REPRESENTATION(#787,#784);
#783=REPRESENTATION('material name',(#785),#1335);
#784=REPRESENTATION('density',(#780),#1335);
#785=DESCRIPTIVE_REPRESENTATION_ITEM('Temporary Database|Steel',
'Temporary Database|Steel');
#786=PROPERTY_DEFINITION('material property','material name',#1345);
#787=PROPERTY_DEFINITION('material property','density of part',#1345);
#788=AXIS2_PLACEMENT_3D('',#1120,#877,#878);
#789=AXIS2_PLACEMENT_3D('',#1121,#879,#880);
#790=AXIS2_PLACEMENT_3D('',#1135,#887,#888);
#791=AXIS2_PLACEMENT_3D('',#1137,#889,#890);
#792=AXIS2_PLACEMENT_3D('',#1139,#891,#892);
#793=AXIS2_PLACEMENT_3D('',#1141,#893,#894);
#794=AXIS2_PLACEMENT_3D('',#1143,#895,#896);
#795=AXIS2_PLACEMENT_3D('',#1145,#897,#898);
#796=AXIS2_PLACEMENT_3D('',#1147,#899,#900);
#797=AXIS2_PLACEMENT_3D('',#1148,#901,#902);
#798=AXIS2_PLACEMENT_3D('',#1162,#909,#910);
#799=AXIS2_PLACEMENT_3D('',#1163,#911,#912);
#800=AXIS2_PLACEMENT_3D('',#1173,#917,#918);
#801=AXIS2_PLACEMENT_3D('',#1175,#919,#920);
#802=AXIS2_PLACEMENT_3D('',#1177,#921,#922);
#803=AXIS2_PLACEMENT_3D('',#1179,#923,#924);
#804=AXIS2_PLACEMENT_3D('',#1180,#925,#926);
#805=AXIS2_PLACEMENT_3D('',#1186,#930,#931);
#806=AXIS2_PLACEMENT_3D('',#1192,#935,#936);
#807=AXIS2_PLACEMENT_3D('',#1198,#940,#941);
#808=AXIS2_PLACEMENT_3D('',#1204,#945,#946);
#809=AXIS2_PLACEMENT_3D('',#1207,#949,#950);
#810=AXIS2_PLACEMENT_3D('',#1210,#951,#952);
#811=AXIS2_PLACEMENT_3D('',#1211,#953,#954);
#812=AXIS2_PLACEMENT_3D('',#1214,#956,#957);
#813=AXIS2_PLACEMENT_3D('',#1215,#958,#959);
#814=AXIS2_PLACEMENT_3D('',#1217,#960,#961);
#815=AXIS2_PLACEMENT_3D('',#1220,#963,#964);
#816=AXIS2_PLACEMENT_3D('',#1221,#965,#966);
#817=AXIS2_PLACEMENT_3D('',#1222,#967,#968);
#818=AXIS2_PLACEMENT_3D('',#1224,#969,#970);
#819=AXIS2_PLACEMENT_3D('',#1227,#972,#973);
#820=AXIS2_PLACEMENT_3D('',#1228,#974,#975);
#821=AXIS2_PLACEMENT_3D('',#1229,#976,#977);
#822=AXIS2_PLACEMENT_3D('',#1231,#978,#979);
#823=AXIS2_PLACEMENT_3D('',#1234,#981,#982);
#824=AXIS2_PLACEMENT_3D('',#1235,#983,#984);
#825=AXIS2_PLACEMENT_3D('',#1236,#985,#986);
#826=AXIS2_PLACEMENT_3D('',#1238,#987,#988);
#827=AXIS2_PLACEMENT_3D('',#1241,#990,#991);
#828=AXIS2_PLACEMENT_3D('',#1242,#992,#993);
#829=AXIS2_PLACEMENT_3D('',#1243,#994,#995);
#830=AXIS2_PLACEMENT_3D('',#1245,#996,#997);
#831=AXIS2_PLACEMENT_3D('',#1248,#999,#1000);
#832=AXIS2_PLACEMENT_3D('',#1249,#1001,#1002);
#833=AXIS2_PLACEMENT_3D('',#1250,#1003,#1004);
#834=AXIS2_PLACEMENT_3D('',#1252,#1005,#1006);
#835=AXIS2_PLACEMENT_3D('',#1255,#1008,#1009);
#836=AXIS2_PLACEMENT_3D('',#1256,#1010,#1011);
#837=AXIS2_PLACEMENT_3D('',#1257,#1012,#1013);
#838=AXIS2_PLACEMENT_3D('',#1259,#1014,#1015);
#839=AXIS2_PLACEMENT_3D('',#1262,#1017,#1018);
#840=AXIS2_PLACEMENT_3D('',#1263,#1019,#1020);
#841=AXIS2_PLACEMENT_3D('',#1264,#1021,#1022);
#842=AXIS2_PLACEMENT_3D('',#1266,#1023,#1024);
#843=AXIS2_PLACEMENT_3D('',#1269,#1026,#1027);
#844=AXIS2_PLACEMENT_3D('',#1270,#1028,#1029);
#845=AXIS2_PLACEMENT_3D('',#1271,#1030,#1031);
#846=AXIS2_PLACEMENT_3D('',#1273,#1032,#1033);
#847=AXIS2_PLACEMENT_3D('',#1276,#1035,#1036);
#848=AXIS2_PLACEMENT_3D('',#1277,#1037,#1038);
#849=AXIS2_PLACEMENT_3D('',#1278,#1039,#1040);
#850=AXIS2_PLACEMENT_3D('',#1280,#1041,#1042);
#851=AXIS2_PLACEMENT_3D('',#1283,#1044,#1045);
#852=AXIS2_PLACEMENT_3D('',#1284,#1046,#1047);
#853=AXIS2_PLACEMENT_3D('',#1285,#1048,#1049);
#854=AXIS2_PLACEMENT_3D('',#1287,#1051,#1052);
#855=AXIS2_PLACEMENT_3D('',#1290,#1055,#1056);
#856=AXIS2_PLACEMENT_3D('',#1292,#1058,#1059);
#857=AXIS2_PLACEMENT_3D('',#1294,#1061,#1062);
#858=AXIS2_PLACEMENT_3D('',#1296,#1064,#1065);
#859=AXIS2_PLACEMENT_3D('',#1298,#1067,#1068);
#860=AXIS2_PLACEMENT_3D('',#1299,#1069,#1070);
#861=AXIS2_PLACEMENT_3D('',#1301,#1072,#1073);
#862=AXIS2_PLACEMENT_3D('',#1304,#1076,#1077);
#863=AXIS2_PLACEMENT_3D('',#1306,#1079,#1080);
#864=AXIS2_PLACEMENT_3D('',#1308,#1082,#1083);
#865=AXIS2_PLACEMENT_3D('',#1310,#1085,#1086);
#866=AXIS2_PLACEMENT_3D('',#1312,#1088,#1089);
#867=AXIS2_PLACEMENT_3D('',#1313,#1090,#1091);
#868=AXIS2_PLACEMENT_3D('',#1315,#1093,#1094);
#869=AXIS2_PLACEMENT_3D('',#1317,#1096,#1097);
#870=AXIS2_PLACEMENT_3D('',#1319,#1099,#1100);
#871=AXIS2_PLACEMENT_3D('',#1321,#1102,#1103);
#872=AXIS2_PLACEMENT_3D('',#1323,#1105,#1106);
#873=AXIS2_PLACEMENT_3D('',#1325,#1108,#1109);
#874=AXIS2_PLACEMENT_3D('',#1327,#1111,#1112);
#875=AXIS2_PLACEMENT_3D('',#1329,#1114,#1115);
#876=AXIS2_PLACEMENT_3D('',#1331,#1117,#1118);
#877=DIRECTION('axis',(0.,0.,1.));
#878=DIRECTION('refdir',(1.,0.,0.));
#879=DIRECTION('center_axis',(0.,0.,1.));
#880=DIRECTION('ref_axis',(1.,0.,0.));
#881=DIRECTION('',(-0.707106781186546,-0.707106781186549,0.));
#882=DIRECTION('',(0.,-1.,0.));
#883=DIRECTION('',(1.,0.,0.));
#884=DIRECTION('',(0.,1.,0.));
#885=DIRECTION('',(-0.707106781186549,0.707106781186546,0.));
#886=DIRECTION('',(-1.,0.,0.));
#887=DIRECTION('center_axis',(0.,0.,1.));
#888=DIRECTION('ref_axis',(1.,0.,0.));
#889=DIRECTION('center_axis',(0.,0.,1.));
#890=DIRECTION('ref_axis',(1.,0.,0.));
#891=DIRECTION('center_axis',(0.,0.,1.));
#892=DIRECTION('ref_axis',(1.,0.,0.));
#893=DIRECTION('center_axis',(0.,0.,1.));
#894=DIRECTION('ref_axis',(1.,0.,0.));
#895=DIRECTION('center_axis',(0.,0.,1.));
#896=DIRECTION('ref_axis',(1.,0.,0.));
#897=DIRECTION('center_axis',(0.,0.,1.));
#898=DIRECTION('ref_axis',(1.,0.,0.));
#899=DIRECTION('center_axis',(0.,0.,1.));
#900=DIRECTION('ref_axis',(1.,0.,0.));
#901=DIRECTION('center_axis',(0.,0.,1.));
#902=DIRECTION('ref_axis',(1.,0.,0.));
#903=DIRECTION('',(0.707106781186549,-0.707106781186546,0.));
#904=DIRECTION('',(0.,-1.,0.));
#905=DIRECTION('',(-1.,0.,0.));
#906=DIRECTION('',(0.,1.,0.));
#907=DIRECTION('',(0.707106781186546,0.707106781186549,0.));
#908=DIRECTION('',(1.,0.,0.));
#909=DIRECTION('center_axis',(0.,0.,1.));
#910=DIRECTION('ref_axis',(1.,0.,0.));
#911=DIRECTION('center_axis',(0.,1.,0.));
#912=DIRECTION('ref_axis',(0.,0.,1.));
#913=DIRECTION('',(0.,0.,-1.));
#914=DIRECTION('',(1.,0.,0.));
#915=DIRECTION('',(0.,0.,-1.));
#916=DIRECTION('',(-1.,0.,0.));
#917=DIRECTION('center_axis',(0.,1.,0.));
#918=DIRECTION('ref_axis',(0.,0.,1.));
#919=DIRECTION('center_axis',(0.,1.,0.));
#920=DIRECTION('ref_axis',(0.,0.,1.));
#921=DIRECTION('center_axis',(0.,1.,0.));
#922=DIRECTION('ref_axis',(0.,0.,1.));
#923=DIRECTION('center_axis',(0.,1.,0.));
#924=DIRECTION('ref_axis',(0.,0.,1.));
#925=DIRECTION('center_axis',(-1.,0.,0.));
#926=DIRECTION('ref_axis',(0.,0.,1.));
#927=DIRECTION('',(0.,1.,0.));
#928=DIRECTION('',(0.,0.,-1.));
#929=DIRECTION('',(0.,-1.,0.));
#930=DIRECTION('center_axis',(0.707106781186546,0.707106781186549,0.));
#931=DIRECTION('ref_axis',(0.,0.,-1.));
#932=DIRECTION('',(-0.707106781186549,0.707106781186546,0.));
#933=DIRECTION('',(0.,0.,-1.));
#934=DIRECTION('',(0.707106781186549,-0.707106781186546,0.));
#935=DIRECTION('center_axis',(0.,1.,0.));
#936=DIRECTION('ref_axis',(0.,0.,1.));
#937=DIRECTION('',(-1.,0.,0.));
#938=DIRECTION('',(0.,0.,-1.));
#939=DIRECTION('',(1.,0.,0.));
#940=DIRECTION('center_axis',(-0.707106781186549,0.707106781186546,0.));
#941=DIRECTION('ref_axis',(0.,0.,1.));
#942=DIRECTION('',(-0.707106781186547,-0.707106781186548,0.));
#943=DIRECTION('',(0.,0.,-1.));
#944=DIRECTION('',(0.707106781186547,0.707106781186548,0.));
#945=DIRECTION('center_axis',(-1.,0.,0.));
#946=DIRECTION('ref_axis',(0.,0.,1.));
#947=DIRECTION('',(0.,-1.,0.));
#948=DIRECTION('',(0.,1.,0.));
#949=DIRECTION('center_axis',(0.,0.,-1.));
#950=DIRECTION('ref_axis',(-1.,0.,0.));
#951=DIRECTION('center_axis',(0.,0.,1.));
#952=DIRECTION('ref_axis',(1.,0.,0.));
#953=DIRECTION('center_axis',(0.,0.,1.));
#954=DIRECTION('ref_axis',(1.,0.,0.));
#955=DIRECTION('',(0.,0.,-1.));
#956=DIRECTION('center_axis',(0.,0.,1.));
#957=DIRECTION('ref_axis',(1.,0.,0.));
#958=DIRECTION('center_axis',(0.,0.,1.));
#959=DIRECTION('ref_axis',(1.,0.,0.));
#960=DIRECTION('center_axis',(0.,0.,1.));
#961=DIRECTION('ref_axis',(1.,0.,0.));
#962=DIRECTION('',(0.,0.,1.));
#963=DIRECTION('center_axis',(0.,0.,1.));
#964=DIRECTION('ref_axis',(1.,0.,0.));
#965=DIRECTION('center_axis',(0.,0.,1.));
#966=DIRECTION('ref_axis',(1.,0.,0.));
#967=DIRECTION('center_axis',(0.,0.,1.));
#968=DIRECTION('ref_axis',(1.,0.,0.));
#969=DIRECTION('center_axis',(0.,0.,1.));
#970=DIRECTION('ref_axis',(1.,0.,0.));
#971=DIRECTION('',(0.,0.,1.));
#972=DIRECTION('center_axis',(0.,0.,1.));
#973=DIRECTION('ref_axis',(1.,0.,0.));
#974=DIRECTION('center_axis',(0.,0.,1.));
#975=DIRECTION('ref_axis',(1.,0.,0.));
#976=DIRECTION('center_axis',(0.,0.,1.));
#977=DIRECTION('ref_axis',(1.,0.,0.));
#978=DIRECTION('center_axis',(0.,0.,1.));
#979=DIRECTION('ref_axis',(1.,0.,0.));
#980=DIRECTION('',(0.,0.,1.));
#981=DIRECTION('center_axis',(0.,0.,1.));
#982=DIRECTION('ref_axis',(1.,0.,0.));
#983=DIRECTION('center_axis',(0.,0.,1.));
#984=DIRECTION('ref_axis',(1.,0.,0.));
#985=DIRECTION('center_axis',(0.,0.,1.));
#986=DIRECTION('ref_axis',(1.,0.,0.));
#987=DIRECTION('center_axis',(0.,0.,1.));
#988=DIRECTION('ref_axis',(1.,0.,0.));
#989=DIRECTION('',(0.,0.,1.));
#990=DIRECTION('center_axis',(0.,0.,1.));
#991=DIRECTION('ref_axis',(1.,0.,0.));
#992=DIRECTION('center_axis',(0.,0.,1.));
#993=DIRECTION('ref_axis',(1.,0.,0.));
#994=DIRECTION('center_axis',(0.,0.,1.));
#995=DIRECTION('ref_axis',(1.,0.,0.));
#996=DIRECTION('center_axis',(0.,0.,1.));
#997=DIRECTION('ref_axis',(1.,0.,0.));
#998=DIRECTION('',(0.,0.,1.));
#999=DIRECTION('center_axis',(0.,0.,1.));
#1000=DIRECTION('ref_axis',(1.,0.,0.));
#1001=DIRECTION('center_axis',(0.,0.,1.));
#1002=DIRECTION('ref_axis',(1.,0.,0.));
#1003=DIRECTION('center_axis',(0.,0.,1.));
#1004=DIRECTION('ref_axis',(1.,0.,0.));
#1005=DIRECTION('center_axis',(0.,0.,1.));
#1006=DIRECTION('ref_axis',(1.,0.,0.));
#1007=DIRECTION('',(0.,0.,1.));
#1008=DIRECTION('center_axis',(0.,0.,1.));
#1009=DIRECTION('ref_axis',(1.,0.,0.));
#1010=DIRECTION('center_axis',(0.,0.,1.));
#1011=DIRECTION('ref_axis',(1.,0.,0.));
#1012=DIRECTION('center_axis',(0.,-1.,0.));
#1013=DIRECTION('ref_axis',(0.,0.,-1.));
#1014=DIRECTION('center_axis',(0.,-1.,0.));
#1015=DIRECTION('ref_axis',(0.,0.,-1.));
#1016=DIRECTION('',(0.,-1.,0.));
#1017=DIRECTION('center_axis',(0.,1.,0.));
#1018=DIRECTION('ref_axis',(0.,0.,1.));
#1019=DIRECTION('center_axis',(0.,-1.,0.));
#1020=DIRECTION('ref_axis',(0.,0.,-1.));
#1021=DIRECTION('center_axis',(0.,-1.,0.));
#1022=DIRECTION('ref_axis',(0.,0.,-1.));
#1023=DIRECTION('center_axis',(0.,-1.,0.));
#1024=DIRECTION('ref_axis',(0.,0.,1.));
#1025=DIRECTION('',(0.,-1.,0.));
#1026=DIRECTION('center_axis',(0.,1.,0.));
#1027=DIRECTION('ref_axis',(0.,0.,1.));
#1028=DIRECTION('center_axis',(0.,1.,0.));
#1029=DIRECTION('ref_axis',(0.,0.,1.));
#1030=DIRECTION('center_axis',(0.,-1.,0.));
#1031=DIRECTION('ref_axis',(0.,0.,-1.));
#1032=DIRECTION('center_axis',(0.,-1.,0.));
#1033=DIRECTION('ref_axis',(0.,0.,-1.));
#1034=DIRECTION('',(0.,-1.,0.));
#1035=DIRECTION('center_axis',(0.,1.,0.));
#1036=DIRECTION('ref_axis',(0.,0.,1.));
#1037=DIRECTION('center_axis',(0.,-1.,0.));
#1038=DIRECTION('ref_axis',(0.,0.,-1.));
#1039=DIRECTION('center_axis',(0.,-1.,0.));
#1040=DIRECTION('ref_axis',(0.,0.,-1.));
#1041=DIRECTION('center_axis',(0.,-1.,0.));
#1042=DIRECTION('ref_axis',(0.,0.,1.));
#1043=DIRECTION('',(0.,-1.,0.));
#1044=DIRECTION('center_axis',(0.,1.,0.));
#1045=DIRECTION('ref_axis',(0.,0.,1.));
#1046=DIRECTION('center_axis',(0.,1.,0.));
#1047=DIRECTION('ref_axis',(0.,0.,1.));
#1048=DIRECTION('center_axis',(0.,0.,-1.));
#1049=DIRECTION('ref_axis',(-1.,0.,0.));
#1050=DIRECTION('',(0.707106781186544,-8.65956056235489E-17,-0.707106781186551));
#1051=DIRECTION('center_axis',(-0.500000000000002,0.5,-0.707106781186546));
#1052=DIRECTION('ref_axis',(-0.816496580927725,0.,0.577350269189628));
#1053=DIRECTION('',(0.281084637714819,-0.678598344545847,-0.678598344545848));
#1054=DIRECTION('',(0.678598344545849,-0.281084637714816,-0.678598344545847));
#1055=DIRECTION('center_axis',(-0.707106781186548,0.,-0.707106781186548));
#1056=DIRECTION('ref_axis',(-0.707106781186548,0.,0.707106781186548));
#1057=DIRECTION('',(-0.577350269189627,-0.577350269189625,0.577350269189626));
#1058=DIRECTION('center_axis',(0.,0.707106781186548,-0.707106781186548));
#1059=DIRECTION('ref_axis',(-1.,0.,0.));
#1060=DIRECTION('',(-0.28108463771482,-0.678598344545846,-0.678598344545848));
#1061=DIRECTION('center_axis',(0.,0.707106781186548,0.707106781186548));
#1062=DIRECTION('ref_axis',(1.,0.,0.));
#1063=DIRECTION('',(0.577350269189625,-0.577350269189627,0.577350269189626));
#1064=DIRECTION('center_axis',(0.499999999999999,0.500000000000001,-0.707106781186547));
#1065=DIRECTION('ref_axis',(-0.816496580927726,0.,-0.577350269189625));
#1066=DIRECTION('',(0.678598344545848,0.281084637714821,0.678598344545846));
#1067=DIRECTION('center_axis',(-0.707106781186548,0.,0.707106781186548));
#1068=DIRECTION('ref_axis',(0.707106781186548,0.,0.707106781186548));
#1069=DIRECTION('center_axis',(0.,0.,1.));
#1070=DIRECTION('ref_axis',(1.,0.,0.));
#1071=DIRECTION('',(-0.707106781186547,-8.65956056235493E-17,0.707106781186547));
#1072=DIRECTION('center_axis',(-0.500000000000001,-0.500000000000003,-0.707106781186545));
#1073=DIRECTION('ref_axis',(-0.816496580927724,0.,0.577350269189628));
#1074=DIRECTION('',(-0.281084637714817,-0.678598344545846,0.67859834454585));
#1075=DIRECTION('',(0.678598344545845,0.28108463771482,-0.678598344545849));
#1076=DIRECTION('center_axis',(0.70710678118655,0.,0.707106781186545));
#1077=DIRECTION('ref_axis',(0.707106781186545,0.,-0.70710678118655));
#1078=DIRECTION('',(-0.577350269189625,0.577350269189625,0.577350269189628));
#1079=DIRECTION('center_axis',(0.,-0.70710678118655,-0.707106781186545));
#1080=DIRECTION('ref_axis',(-1.,0.,0.));
#1081=DIRECTION('',(0.281084637714815,-0.678598344545846,0.67859834454585));
#1082=DIRECTION('center_axis',(0.,-0.70710678118655,0.707106781186545));
#1083=DIRECTION('ref_axis',(1.,0.,0.));
#1084=DIRECTION('',(0.577350269189625,0.577350269189625,0.577350269189628));
#1085=DIRECTION('center_axis',(0.500000000000004,-0.500000000000002,-0.707106781186543));
#1086=DIRECTION('ref_axis',(-0.816496580927722,0.,-0.577350269189632));
#1087=DIRECTION('',(0.678598344545846,-0.281084637714813,0.678598344545851));
#1088=DIRECTION('center_axis',(0.70710678118655,0.,-0.707106781186545));
#1089=DIRECTION('ref_axis',(-0.707106781186545,0.,-0.70710678118655));
#1090=DIRECTION('center_axis',(0.,0.,1.));
#1091=DIRECTION('ref_axis',(1.,0.,0.));
#1092=DIRECTION('',(-0.707106781186547,-8.65956056235493E-17,0.707106781186548));
#1093=DIRECTION('center_axis',(0.,0.,1.));
#1094=DIRECTION('ref_axis',(1.,0.,0.));
#1095=DIRECTION('',(-0.707106781186547,-8.65956056235493E-17,0.707106781186548));
#1096=DIRECTION('center_axis',(0.,0.,1.));
#1097=DIRECTION('ref_axis',(1.,0.,0.));
#1098=DIRECTION('',(-0.707106781186547,-8.65956056235493E-17,0.707106781186548));
#1099=DIRECTION('center_axis',(0.,0.,1.));
#1100=DIRECTION('ref_axis',(1.,0.,0.));
#1101=DIRECTION('',(-0.707106781186548,-8.65956056235495E-17,0.707106781186547));
#1102=DIRECTION('center_axis',(0.,0.,1.));
#1103=DIRECTION('ref_axis',(1.,0.,0.));
#1104=DIRECTION('',(-0.707106781186547,-8.65956056235493E-17,0.707106781186548));
#1105=DIRECTION('center_axis',(0.,0.,1.));
#1106=DIRECTION('ref_axis',(1.,0.,0.));
#1107=DIRECTION('',(-0.707106781186547,-8.65956056235493E-17,0.707106781186548));
#1108=DIRECTION('center_axis',(0.,-1.,0.));
#1109=DIRECTION('ref_axis',(0.,0.,-1.));
#1110=DIRECTION('',(-8.65956056235496E-17,-0.707106781186545,0.70710678118655));
#1111=DIRECTION('center_axis',(0.,-1.,0.));
#1112=DIRECTION('ref_axis',(0.,0.,-1.));
#1113=DIRECTION('',(-8.65956056235496E-17,-0.707106781186545,0.70710678118655));
#1114=DIRECTION('center_axis',(0.,-1.,0.));
#1115=DIRECTION('ref_axis',(0.,0.,-1.));
#1116=DIRECTION('',(-8.65956056235496E-17,-0.707106781186545,0.70710678118655));
#1117=DIRECTION('center_axis',(0.,-1.,0.));
#1118=DIRECTION('ref_axis',(0.,0.,-1.));
#1119=DIRECTION('',(-8.65956056235496E-17,-0.707106781186545,0.70710678118655));
#1120=CARTESIAN_POINT('',(0.,0.,0.));
#1121=CARTESIAN_POINT('Origin',(0.,0.,20.));
#1122=CARTESIAN_POINT('',(-18.585786437627,21.,20.));
#1123=CARTESIAN_POINT('',(-30.,9.58578643762691,20.));
#1124=CARTESIAN_POINT('',(-18.585786437627,21.,20.));
#1125=CARTESIAN_POINT('',(-30.,-21.,20.));
#1126=CARTESIAN_POINT('',(-30.,9.58578643762691,20.));
#1127=CARTESIAN_POINT('',(30.,-21.,20.));
#1128=CARTESIAN_POINT('',(-30.,-21.,20.));
#1129=CARTESIAN_POINT('',(30.,9.58578643762694,20.));
#1130=CARTESIAN_POINT('',(30.,-21.,20.));
#1131=CARTESIAN_POINT('',(18.5857864376269,21.,20.));
#1132=CARTESIAN_POINT('',(30.,9.58578643762694,20.));
#1133=CARTESIAN_POINT('',(18.5857864376269,21.,20.));
#1134=CARTESIAN_POINT('',(-20.2670093578839,16.6170093578839,20.));
#1135=CARTESIAN_POINT('Origin',(-16.6170093578839,16.6170093578839,20.));
#1136=CARTESIAN_POINT('',(12.9670093578839,16.6170093578839,20.));
#1137=CARTESIAN_POINT('Origin',(16.6170093578839,16.6170093578839,20.));
#1138=CARTESIAN_POINT('',(19.85,2.37192956677353E-15,20.));
#1139=CARTESIAN_POINT('Origin',(23.5,2.81892564846231E-15,20.));
#1140=CARTESIAN_POINT('',(12.9670093578839,-16.6170093578839,20.));
#1141=CARTESIAN_POINT('Origin',(16.6170093578839,-16.6170093578839,20.));
#1142=CARTESIAN_POINT('',(-20.2670093578839,-16.6170093578839,20.));
#1143=CARTESIAN_POINT('Origin',(-16.6170093578839,-16.6170093578839,20.));
#1144=CARTESIAN_POINT('',(-27.15,-4.46996081688786E-16,20.));
#1145=CARTESIAN_POINT('Origin',(-23.5,0.,20.));
#1146=CARTESIAN_POINT('',(-19.,-2.32682891837997E-15,20.));
#1147=CARTESIAN_POINT('Origin',(0.,0.,20.));
#1148=CARTESIAN_POINT('Origin',(0.,0.,-20.));
#1149=CARTESIAN_POINT('',(18.5857864376269,21.,-20.));
#1150=CARTESIAN_POINT('',(30.,9.58578643762694,-20.));
#1151=CARTESIAN_POINT('',(18.5857864376269,21.,-20.));
#1152=CARTESIAN_POINT('',(30.,-21.,-20.));
#1153=CARTESIAN_POINT('',(30.,9.58578643762694,-20.));
#1154=CARTESIAN_POINT('',(-30.,-21.,-20.));
#1155=CARTESIAN_POINT('',(30.,-21.,-20.));
#1156=CARTESIAN_POINT('',(-30.,9.58578643762691,-20.));
#1157=CARTESIAN_POINT('',(-30.,-21.,-20.));
#1158=CARTESIAN_POINT('',(-18.5857864376269,21.,-20.));
#1159=CARTESIAN_POINT('',(-30.,9.58578643762691,-20.));
#1160=CARTESIAN_POINT('',(-18.5857864376269,21.,-20.));
#1161=CARTESIAN_POINT('',(19.,0.,-20.));
#1162=CARTESIAN_POINT('Origin',(0.,0.,-20.));
#1163=CARTESIAN_POINT('Origin',(-31.,-22.,20.));
#1164=CARTESIAN_POINT('',(-31.,-22.,19.));
#1165=CARTESIAN_POINT('',(-31.,-22.,-19.));
#1166=CARTESIAN_POINT('',(-31.,-22.,19.));
#1167=CARTESIAN_POINT('',(31.,-22.,-19.));
#1168=CARTESIAN_POINT('',(-31.,-22.,-19.));
#1169=CARTESIAN_POINT('',(31.,-22.,19.));
#1170=CARTESIAN_POINT('',(31.,-22.,19.));
#1171=CARTESIAN_POINT('',(31.,-22.,19.));
#1172=CARTESIAN_POINT('',(24.,-22.,15.65));
#1173=CARTESIAN_POINT('Origin',(24.,-22.,12.));
#1174=CARTESIAN_POINT('',(24.,-22.,-8.35000000000001));
#1175=CARTESIAN_POINT('Origin',(24.,-22.,-12.));
#1176=CARTESIAN_POINT('',(-24.,-22.,-8.34999999999998));
#1177=CARTESIAN_POINT('Origin',(-24.,-22.,-12.));
#1178=CARTESIAN_POINT('',(-24.,-22.,15.65));
#1179=CARTESIAN_POINT('Origin',(-24.,-22.,12.));
#1180=CARTESIAN_POINT('Origin',(31.,-22.,20.));
#1181=CARTESIAN_POINT('',(31.,10.,-19.));
#1182=CARTESIAN_POINT('',(31.,-22.,-19.));
#1183=CARTESIAN_POINT('',(31.,10.,19.));
#1184=CARTESIAN_POINT('',(31.,10.,19.));
#1185=CARTESIAN_POINT('',(31.,10.,19.));
#1186=CARTESIAN_POINT('Origin',(19.,22.,20.));
#1187=CARTESIAN_POINT('',(19.,22.,-19.));
#1188=CARTESIAN_POINT('',(31.,10.,-19.));
#1189=CARTESIAN_POINT('',(19.,22.,19.));
#1190=CARTESIAN_POINT('',(19.,22.,19.));
#1191=CARTESIAN_POINT('',(19.,22.,19.));
#1192=CARTESIAN_POINT('Origin',(-19.,22.,20.));
#1193=CARTESIAN_POINT('',(-19.,22.,-19.));
#1194=CARTESIAN_POINT('',(19.,22.,-19.));
#1195=CARTESIAN_POINT('',(-19.,22.,19.));
#1196=CARTESIAN_POINT('',(-19.,22.,19.));
#1197=CARTESIAN_POINT('',(-19.,22.,19.));
#1198=CARTESIAN_POINT('Origin',(-31.,10.,20.));
#1199=CARTESIAN_POINT('',(-31.,10.,-19.));
#1200=CARTESIAN_POINT('',(-19.,22.,-19.));
#1201=CARTESIAN_POINT('',(-31.,10.,19.));
#1202=CARTESIAN_POINT('',(-31.,10.,19.));
#1203=CARTESIAN_POINT('',(-31.,10.,19.));
#1204=CARTESIAN_POINT('Origin',(-31.,-22.,20.));
#1205=CARTESIAN_POINT('',(-31.,10.,-19.));
#1206=CARTESIAN_POINT('',(-31.,-22.,19.));
#1207=CARTESIAN_POINT('Origin',(0.,0.,20.));
#1208=CARTESIAN_POINT('',(18.,0.,19.));
#1209=CARTESIAN_POINT('',(-18.,-2.20436423846524E-15,19.));
#1210=CARTESIAN_POINT('Origin',(0.,0.,19.));
#1211=CARTESIAN_POINT('Origin',(0.,0.,19.));
#1212=CARTESIAN_POINT('',(18.,0.,-19.));
#1213=CARTESIAN_POINT('',(18.,-2.20436423846524E-15,20.));
#1214=CARTESIAN_POINT('Origin',(0.,0.,-19.));
#1215=CARTESIAN_POINT('Origin',(-16.6170093578839,16.6170093578839,5.));
#1216=CARTESIAN_POINT('',(-19.2670093578839,16.6170093578839,5.));
#1217=CARTESIAN_POINT('Origin',(-16.6170093578839,16.6170093578839,5.));
#1218=CARTESIAN_POINT('',(-19.2670093578839,16.6170093578839,19.));
#1219=CARTESIAN_POINT('',(-19.2670093578839,16.6170093578839,5.));
#1220=CARTESIAN_POINT('Origin',(-16.6170093578839,16.6170093578839,19.));
#1221=CARTESIAN_POINT('Origin',(-16.6170093578839,16.6170093578839,5.));
#1222=CARTESIAN_POINT('Origin',(16.6170093578839,16.6170093578839,5.));
#1223=CARTESIAN_POINT('',(13.9670093578839,16.6170093578839,5.));
#1224=CARTESIAN_POINT('Origin',(16.6170093578839,16.6170093578839,5.));
#1225=CARTESIAN_POINT('',(13.9670093578839,16.6170093578839,19.));
#1226=CARTESIAN_POINT('',(13.9670093578839,16.6170093578839,5.));
#1227=CARTESIAN_POINT('Origin',(16.6170093578839,16.6170093578839,19.));
#1228=CARTESIAN_POINT('Origin',(16.6170093578839,16.6170093578839,5.));
#1229=CARTESIAN_POINT('Origin',(23.5,2.81892564846231E-15,5.));
#1230=CARTESIAN_POINT('',(20.85,2.49439424668826E-15,5.));
#1231=CARTESIAN_POINT('Origin',(23.5,2.81892564846231E-15,5.));
#1232=CARTESIAN_POINT('',(20.85,2.49439424668826E-15,19.));
#1233=CARTESIAN_POINT('',(20.85,2.49439424668826E-15,5.));
#1234=CARTESIAN_POINT('Origin',(23.5,2.81892564846231E-15,19.));
#1235=CARTESIAN_POINT('Origin',(23.5,2.81892564846231E-15,5.));
#1236=CARTESIAN_POINT('Origin',(16.6170093578839,-16.6170093578839,5.));
#1237=CARTESIAN_POINT('',(13.9670093578839,-16.6170093578839,5.));
#1238=CARTESIAN_POINT('Origin',(16.6170093578839,-16.6170093578839,5.));
#1239=CARTESIAN_POINT('',(13.9670093578839,-16.6170093578839,19.));
#1240=CARTESIAN_POINT('',(13.9670093578839,-16.6170093578839,5.));
#1241=CARTESIAN_POINT('Origin',(16.6170093578839,-16.6170093578839,19.));
#1242=CARTESIAN_POINT('Origin',(16.6170093578839,-16.6170093578839,5.));
#1243=CARTESIAN_POINT('Origin',(-16.6170093578839,-16.6170093578839,5.));
#1244=CARTESIAN_POINT('',(-19.2670093578839,-16.6170093578839,5.));
#1245=CARTESIAN_POINT('Origin',(-16.6170093578839,-16.6170093578839,5.));
#1246=CARTESIAN_POINT('',(-19.2670093578839,-16.6170093578839,19.));
#1247=CARTESIAN_POINT('',(-19.2670093578839,-16.6170093578839,5.));
#1248=CARTESIAN_POINT('Origin',(-16.6170093578839,-16.6170093578839,19.));
#1249=CARTESIAN_POINT('Origin',(-16.6170093578839,-16.6170093578839,5.));
#1250=CARTESIAN_POINT('Origin',(-23.5,0.,5.));
#1251=CARTESIAN_POINT('',(-26.15,-3.24531401774049E-16,5.));
#1252=CARTESIAN_POINT('Origin',(-23.5,0.,5.));
#1253=CARTESIAN_POINT('',(-26.15,-3.24531401774049E-16,19.));
#1254=CARTESIAN_POINT('',(-26.15,-3.24531401774049E-16,5.));
#1255=CARTESIAN_POINT('Origin',(-23.5,0.,19.));
#1256=CARTESIAN_POINT('Origin',(-23.5,0.,5.));
#1257=CARTESIAN_POINT('Origin',(-24.,-7.,12.));
#1258=CARTESIAN_POINT('',(-24.,-7.,14.65));
#1259=CARTESIAN_POINT('Origin',(-24.,-7.,12.));
#1260=CARTESIAN_POINT('',(-24.,-21.,14.65));
#1261=CARTESIAN_POINT('',(-24.,-7.,14.65));
#1262=CARTESIAN_POINT('Origin',(-24.,-21.,12.));
#1263=CARTESIAN_POINT('Origin',(-24.,-7.,12.));
#1264=CARTESIAN_POINT('Origin',(24.,-7.,12.));
#1265=CARTESIAN_POINT('',(24.,-7.,14.65));
#1266=CARTESIAN_POINT('Origin',(24.,-7.,12.));
#1267=CARTESIAN_POINT('',(24.,-21.,14.65));
#1268=CARTESIAN_POINT('',(24.,-7.,14.65));
#1269=CARTESIAN_POINT('Origin',(24.,-21.,12.));
#1270=CARTESIAN_POINT('Origin',(24.,-7.,12.));
#1271=CARTESIAN_POINT('Origin',(24.,-7.,-12.));
#1272=CARTESIAN_POINT('',(24.,-7.,-9.35));
#1273=CARTESIAN_POINT('Origin',(24.,-7.,-12.));
#1274=CARTESIAN_POINT('',(24.,-21.,-9.35));
#1275=CARTESIAN_POINT('',(24.,-7.,-9.35));
#1276=CARTESIAN_POINT('Origin',(24.,-21.,-12.));
#1277=CARTESIAN_POINT('Origin',(24.,-7.,-12.));
#1278=CARTESIAN_POINT('Origin',(-24.,-7.,-12.));
#1279=CARTESIAN_POINT('',(-24.,-7.,-9.35));
#1280=CARTESIAN_POINT('Origin',(-24.,-7.,-12.));
#1281=CARTESIAN_POINT('',(-24.,-21.,-9.35));
#1282=CARTESIAN_POINT('',(-24.,-7.,-9.35));
#1283=CARTESIAN_POINT('Origin',(-24.,-21.,-12.));
#1284=CARTESIAN_POINT('Origin',(-24.,-7.,-12.));
#1285=CARTESIAN_POINT('Origin',(0.,0.,-20.));
#1286=CARTESIAN_POINT('',(19.,-2.32682891837997E-15,-20.));
#1287=CARTESIAN_POINT('Origin',(-19.7928932188135,19.7928932188134,-20.));
#1288=CARTESIAN_POINT('',(-19.,22.,-19.));
#1289=CARTESIAN_POINT('',(-31.,10.,-19.));
#1290=CARTESIAN_POINT('Origin',(-30.,0.,-20.));
#1291=CARTESIAN_POINT('',(-30.,-21.,-20.));
#1292=CARTESIAN_POINT('Origin',(0.,21.,-20.));
#1293=CARTESIAN_POINT('',(19.,22.,-19.));
#1294=CARTESIAN_POINT('Origin',(-31.,-22.,-19.));
#1295=CARTESIAN_POINT('',(30.,-21.,-20.));
#1296=CARTESIAN_POINT('Origin',(19.7928932188134,19.7928932188135,-20.));
#1297=CARTESIAN_POINT('',(30.,9.58578643762694,-20.));
#1298=CARTESIAN_POINT('Origin',(31.,-22.,-19.));
#1299=CARTESIAN_POINT('Origin',(0.,0.,19.));
#1300=CARTESIAN_POINT('',(-18.,-2.20436423846524E-15,19.));
#1301=CARTESIAN_POINT('Origin',(19.,22.,19.));
#1302=CARTESIAN_POINT('',(19.,22.,19.));
#1303=CARTESIAN_POINT('',(30.,9.58578643762694,20.));
#1304=CARTESIAN_POINT('Origin',(30.,0.,20.));
#1305=CARTESIAN_POINT('',(31.,-22.,19.));
#1306=CARTESIAN_POINT('Origin',(-19.,22.,19.));
#1307=CARTESIAN_POINT('',(-19.,22.,19.));
#1308=CARTESIAN_POINT('Origin',(0.,-21.,20.));
#1309=CARTESIAN_POINT('',(-31.,-22.,19.));
#1310=CARTESIAN_POINT('Origin',(-31.,10.,19.));
#1311=CARTESIAN_POINT('',(-31.,10.,19.));
#1312=CARTESIAN_POINT('Origin',(-31.,-22.,19.));
#1313=CARTESIAN_POINT('Origin',(-16.6170093578839,16.6170093578839,19.));
#1314=CARTESIAN_POINT('',(-19.2670093578839,16.6170093578839,19.));
#1315=CARTESIAN_POINT('Origin',(16.6170093578839,16.6170093578839,19.));
#1316=CARTESIAN_POINT('',(13.9670093578839,16.6170093578839,19.));
#1317=CARTESIAN_POINT('Origin',(23.5,2.81892564846231E-15,19.));
#1318=CARTESIAN_POINT('',(20.85,2.49439424668826E-15,19.));
#1319=CARTESIAN_POINT('Origin',(16.6170093578839,-16.6170093578839,19.));
#1320=CARTESIAN_POINT('',(13.9670093578839,-16.6170093578839,19.));
#1321=CARTESIAN_POINT('Origin',(-16.6170093578839,-16.6170093578839,19.));
#1322=CARTESIAN_POINT('',(-19.2670093578839,-16.6170093578839,19.));
#1323=CARTESIAN_POINT('Origin',(-23.5,0.,19.));
#1324=CARTESIAN_POINT('',(-26.15,-3.24531401774049E-16,19.));
#1325=CARTESIAN_POINT('Origin',(24.,-21.,12.));
#1326=CARTESIAN_POINT('',(24.,-21.,14.65));
#1327=CARTESIAN_POINT('Origin',(24.,-21.,-12.));
#1328=CARTESIAN_POINT('',(24.,-21.,-9.35));
#1329=CARTESIAN_POINT('Origin',(-24.,-21.,-12.));
#1330=CARTESIAN_POINT('',(-24.,-21.,-9.35));
#1331=CARTESIAN_POINT('Origin',(-24.,-21.,12.));
#1332=CARTESIAN_POINT('',(-24.,-21.,14.65));
#1333=UNCERTAINTY_MEASURE_WITH_UNIT(LENGTH_MEASURE(0.01),#1337,
'DISTANCE_ACCURACY_VALUE',
'Maximum model space distance between geometric entities at asserted c
onnectivities');
#1334=UNCERTAINTY_MEASURE_WITH_UNIT(LENGTH_MEASURE(0.01),#1337,
'DISTANCE_ACCURACY_VALUE',
'Maximum model space distance between geometric entities at asserted c
onnectivities');
#1335=(
GEOMETRIC_REPRESENTATION_CONTEXT(3)
GLOBAL_UNCERTAINTY_ASSIGNED_CONTEXT((#1333))
GLOBAL_UNIT_ASSIGNED_CONTEXT((#1337,#1339,#1340))
REPRESENTATION_CONTEXT('','3D')
);
#1336=(
GEOMETRIC_REPRESENTATION_CONTEXT(3)
GLOBAL_UNCERTAINTY_ASSIGNED_CONTEXT((#1334))
GLOBAL_UNIT_ASSIGNED_CONTEXT((#1337,#1339,#1340))
REPRESENTATION_CONTEXT('','3D')
);
#1337=(
LENGTH_UNIT()
NAMED_UNIT(*)
SI_UNIT(.MILLI.,.METRE.)
);
#1338=(
LENGTH_UNIT()
NAMED_UNIT(*)
SI_UNIT($,.METRE.)
);
#1339=(
NAMED_UNIT(*)
PLANE_ANGLE_UNIT()
SI_UNIT($,.RADIAN.)
);
#1340=(
NAMED_UNIT(*)
SI_UNIT($,.STERADIAN.)
SOLID_ANGLE_UNIT()
);
#1341=SHAPE_DEFINITION_REPRESENTATION(#1342,#1343);
#1342=PRODUCT_DEFINITION_SHAPE('',$,#1345);
#1343=SHAPE_REPRESENTATION('',(#788),#1335);
#1344=PRODUCT_DEFINITION_CONTEXT('part definition',#1349,'design');
#1345=PRODUCT_DEFINITION('ScrewBracket-SFU2005-Custom',
'ScrewBracket-SFU2005-Custom v1',#1346,#1344);
#1346=PRODUCT_DEFINITION_FORMATION('',$,#1351);
#1347=PRODUCT_RELATED_PRODUCT_CATEGORY('ScrewBracket-SFU2005-Custom v1',
'ScrewBracket-SFU2005-Custom v1',(#1351));
#1348=APPLICATION_PROTOCOL_DEFINITION('international standard',
'automotive_design',2009,#1349);
#1349=APPLICATION_CONTEXT(
'Core Data for Automotive Mechanical Design Process');
#1350=PRODUCT_CONTEXT('part definition',#1349,'mechanical');
#1351=PRODUCT('ScrewBracket-SFU2005-Custom',
'ScrewBracket-SFU2005-Custom v1',$,(#1350));
#1352=PRESENTATION_STYLE_ASSIGNMENT((#1353));
#1353=SURFACE_STYLE_USAGE(.BOTH.,#1354);
#1354=SURFACE_SIDE_STYLE('',(#1355));
#1355=SURFACE_STYLE_FILL_AREA(#1356);
#1356=FILL_AREA_STYLE('Steel - Satin',(#1357));
#1357=FILL_AREA_STYLE_COLOUR('Steel - Satin',#1358);
#1358=COLOUR_RGB('Steel - Satin',0.627450980392157,0.627450980392157,0.627450980392157);
ENDSEC;
END-ISO-10303-21;
