ISO-10303-21;
HEADER;
/* Generated by software containing ST-Developer
 * from STEP Tools, Inc. (www.steptools.com) 
 */

FILE_DESCRIPTION(
/* description */ (''),
/* implementation_level */ '2;1');

FILE_NAME(
/* name */ 'Heat_band v1.step',
/* time_stamp */ '2026-03-14T09:51:45+01:00',
/* author */ (''),
/* organization */ (''),
/* preprocessor_version */ 'ST-DEVELOPER v20.1',
/* originating_system */ 'Autodesk Translation Framework v14.24.0.0',
/* authorisation */ '');

FILE_SCHEMA (('AUTOMOTIVE_DESIGN { 1 0 10303 214 3 1 1 }'));
ENDSEC;

DATA;
#10=MECHANICAL_DESIGN_GEOMETRIC_PRESENTATION_REPRESENTATION('',(#13),#1029);
#11=SHAPE_REPRESENTATION_RELATIONSHIP('SRR','None',#1036,#12);
#12=ADVANCED_BREP_SHAPE_REPRESENTATION('',(#14),#1028);
#13=STYLED_ITEM('',(#1045),#14);
#14=MANIFOLD_SOLID_BREP('Body1',#527);
#15=PLANE('',#571);
#16=PLANE('',#572);
#17=PLANE('',#573);
#18=PLANE('',#574);
#19=PLANE('',#575);
#20=PLANE('',#576);
#21=PLANE('',#577);
#22=PLANE('',#578);
#23=PLANE('',#579);
#24=PLANE('',#580);
#25=PLANE('',#581);
#26=PLANE('',#582);
#27=PLANE('',#583);
#28=PLANE('',#584);
#29=PLANE('',#585);
#30=PLANE('',#586);
#31=PLANE('',#587);
#32=PLANE('',#588);
#33=PLANE('',#589);
#34=PLANE('',#590);
#35=PLANE('',#591);
#36=PLANE('',#592);
#37=PLANE('',#593);
#38=FACE_BOUND('',#184,.T.);
#39=FACE_BOUND('',#185,.T.);
#40=FACE_BOUND('',#187,.T.);
#41=FACE_BOUND('',#188,.T.);
#42=FACE_BOUND('',#191,.T.);
#43=FACE_BOUND('',#192,.T.);
#44=FACE_BOUND('',#193,.T.);
#45=FACE_BOUND('',#210,.T.);
#46=FACE_BOUND('',#212,.T.);
#47=B_SPLINE_CURVE_WITH_KNOTS('',3,(#764,#765,#766,#767,#768,#769,#770,
#771,#772,#773,#774,#775,#776,#777,#778,#779,#780,#781,#782,#783,#784,#785,
#786,#787,#788,#789,#790,#791,#792,#793,#794,#795,#796,#797),
 .UNSPECIFIED.,.T.,.F.,(4,2,2,2,2,2,2,2,2,2,2,2,2,2,2,2,4),(0.,0.0976371759161523,
0.195274351832305,0.29222210507062,0.389169858308935,0.48611761154725,0.583065364785565,
0.680702540701717,0.778339716617869,0.875976892534021,0.973614068450174,
1.07056182168849,1.1675095749268,1.26445732816512,1.36140508140343,1.45904225731959,
1.55667943323574),.UNSPECIFIED.);
#48=B_SPLINE_CURVE_WITH_KNOTS('',3,(#800,#801,#802,#803,#804,#805,#806,
#807,#808,#809,#810,#811,#812,#813,#814,#815,#816,#817,#818,#819,#820,#821,
#822,#823,#824,#825,#826,#827,#828,#829,#830,#831,#832,#833),
 .UNSPECIFIED.,.T.,.F.,(4,2,2,2,2,2,2,2,2,2,2,2,2,2,2,2,4),(-1.55667943323574,
-1.45904225731959,-1.36140508140343,-1.26445732816512,-1.1675095749268,
-1.07056182168849,-0.973614068450173,-0.875976892534021,-0.778339716617869,
-0.680702540701717,-0.583065364785565,-0.48611761154725,-0.389169858308935,
-0.29222210507062,-0.195274351832305,-0.0976371759161523,0.),
 .UNSPECIFIED.);
#49=B_SPLINE_CURVE_WITH_KNOTS('',3,(#836,#837,#838,#839,#840,#841,#842,
#843,#844,#845,#846,#847,#848,#849,#850,#851,#852,#853,#854,#855,#856,#857,
#858,#859,#860,#861,#862,#863,#864,#865,#866,#867,#868,#869),
 .UNSPECIFIED.,.T.,.F.,(4,2,2,2,2,2,2,2,2,2,2,2,2,2,2,2,4),(0.,0.0976371759161523,
0.195274351832305,0.29222210507062,0.389169858308935,0.48611761154725,0.583065364785565,
0.680702540701717,0.778339716617869,0.875976892534021,0.973614068450174,
1.07056182168849,1.1675095749268,1.26445732816512,1.36140508140343,1.45904225731959,
1.55667943323574),.UNSPECIFIED.);
#50=B_SPLINE_CURVE_WITH_KNOTS('',3,(#880,#881,#882,#883,#884,#885,#886,
#887,#888,#889,#890,#891,#892,#893,#894,#895,#896,#897,#898,#899,#900,#901,
#902,#903,#904,#905,#906,#907,#908,#909,#910,#911,#912,#913),
 .UNSPECIFIED.,.T.,.F.,(4,2,2,2,2,2,2,2,2,2,2,2,2,2,2,2,4),(-1.55667943323574,
-1.45904225731959,-1.36140508140343,-1.26445732816512,-1.1675095749268,
-1.07056182168849,-0.973614068450174,-0.875976892534022,-0.778339716617869,
-0.680702540701717,-0.583065364785565,-0.48611761154725,-0.389169858308935,
-0.29222210507062,-0.195274351832305,-0.0976371759161523,0.),
 .UNSPECIFIED.);
#51=LINE('',#757,#95);
#52=LINE('',#763,#96);
#53=LINE('',#835,#97);
#54=LINE('',#875,#98);
#55=LINE('',#878,#99);
#56=LINE('',#919,#100);
#57=LINE('',#922,#101);
#58=LINE('',#928,#102);
#59=LINE('',#931,#103);
#60=LINE('',#937,#104);
#61=LINE('',#940,#105);
#62=LINE('',#947,#106);
#63=LINE('',#950,#107);
#64=LINE('',#955,#108);
#65=LINE('',#958,#109);
#66=LINE('',#959,#110);
#67=LINE('',#961,#111);
#68=LINE('',#962,#112);
#69=LINE('',#971,#113);
#70=LINE('',#973,#114);
#71=LINE('',#974,#115);
#72=LINE('',#977,#116);
#73=LINE('',#979,#117);
#74=LINE('',#980,#118);
#75=LINE('',#982,#119);
#76=LINE('',#983,#120);
#77=LINE('',#991,#121);
#78=LINE('',#993,#122);
#79=LINE('',#995,#123);
#80=LINE('',#997,#124);
#81=LINE('',#999,#125);
#82=LINE('',#1000,#126);
#83=LINE('',#1003,#127);
#84=LINE('',#1005,#128);
#85=LINE('',#1006,#129);
#86=LINE('',#1009,#130);
#87=LINE('',#1010,#131);
#88=LINE('',#1013,#132);
#89=LINE('',#1014,#133);
#90=LINE('',#1017,#134);
#91=LINE('',#1018,#135);
#92=LINE('',#1021,#136);
#93=LINE('',#1022,#137);
#94=LINE('',#1024,#138);
#95=VECTOR('',#608,5.);
#96=VECTOR('',#615,2.5);
#97=VECTOR('',#618,2.5);
#98=VECTOR('',#623,1000.);
#99=VECTOR('',#626,1000.);
#100=VECTOR('',#631,1000.);
#101=VECTOR('',#634,1000.);
#102=VECTOR('',#639,1000.);
#103=VECTOR('',#642,1000.);
#104=VECTOR('',#647,1000.);
#105=VECTOR('',#650,1000.);
#106=VECTOR('',#657,1000.);
#107=VECTOR('',#660,1000.);
#108=VECTOR('',#667,2.5);
#109=VECTOR('',#672,1000.);
#110=VECTOR('',#673,1000.);
#111=VECTOR('',#676,1000.);
#112=VECTOR('',#677,1000.);
#113=VECTOR('',#692,1000.);
#114=VECTOR('',#693,1000.);
#115=VECTOR('',#694,1000.);
#116=VECTOR('',#697,1000.);
#117=VECTOR('',#698,1000.);
#118=VECTOR('',#699,1000.);
#119=VECTOR('',#702,1000.);
#120=VECTOR('',#703,1000.);
#121=VECTOR('',#714,1000.);
#122=VECTOR('',#715,1000.);
#123=VECTOR('',#716,1000.);
#124=VECTOR('',#717,1000.);
#125=VECTOR('',#718,1000.);
#126=VECTOR('',#719,1000.);
#127=VECTOR('',#722,1000.);
#128=VECTOR('',#723,1000.);
#129=VECTOR('',#724,1000.);
#130=VECTOR('',#727,1000.);
#131=VECTOR('',#728,1000.);
#132=VECTOR('',#731,1000.);
#133=VECTOR('',#732,1000.);
#134=VECTOR('',#735,1000.);
#135=VECTOR('',#736,1000.);
#136=VECTOR('',#739,1000.);
#137=VECTOR('',#740,1000.);
#138=VECTOR('',#743,1000.);
#139=CYLINDRICAL_SURFACE('',#546,5.);
#140=CYLINDRICAL_SURFACE('',#548,2.5);
#141=CYLINDRICAL_SURFACE('',#550,2.5);
#142=CYLINDRICAL_SURFACE('',#551,4.09124267883804);
#143=CYLINDRICAL_SURFACE('',#554,4.09124267883805);
#144=CYLINDRICAL_SURFACE('',#557,20.);
#145=CYLINDRICAL_SURFACE('',#560,28.);
#146=CYLINDRICAL_SURFACE('',#569,2.5);
#147=FACE_OUTER_BOUND('',#179,.T.);
#148=FACE_OUTER_BOUND('',#180,.T.);
#149=FACE_OUTER_BOUND('',#181,.T.);
#150=FACE_OUTER_BOUND('',#182,.T.);
#151=FACE_OUTER_BOUND('',#183,.T.);
#152=FACE_OUTER_BOUND('',#186,.T.);
#153=FACE_OUTER_BOUND('',#189,.T.);
#154=FACE_OUTER_BOUND('',#190,.T.);
#155=FACE_OUTER_BOUND('',#194,.T.);
#156=FACE_OUTER_BOUND('',#195,.T.);
#157=FACE_OUTER_BOUND('',#196,.T.);
#158=FACE_OUTER_BOUND('',#197,.T.);
#159=FACE_OUTER_BOUND('',#198,.T.);
#160=FACE_OUTER_BOUND('',#199,.T.);
#161=FACE_OUTER_BOUND('',#200,.T.);
#162=FACE_OUTER_BOUND('',#201,.T.);
#163=FACE_OUTER_BOUND('',#202,.T.);
#164=FACE_OUTER_BOUND('',#203,.T.);
#165=FACE_OUTER_BOUND('',#204,.T.);
#166=FACE_OUTER_BOUND('',#205,.T.);
#167=FACE_OUTER_BOUND('',#206,.T.);
#168=FACE_OUTER_BOUND('',#207,.T.);
#169=FACE_OUTER_BOUND('',#208,.T.);
#170=FACE_OUTER_BOUND('',#209,.T.);
#171=FACE_OUTER_BOUND('',#211,.T.);
#172=FACE_OUTER_BOUND('',#213,.T.);
#173=FACE_OUTER_BOUND('',#214,.T.);
#174=FACE_OUTER_BOUND('',#215,.T.);
#175=FACE_OUTER_BOUND('',#216,.T.);
#176=FACE_OUTER_BOUND('',#217,.T.);
#177=FACE_OUTER_BOUND('',#218,.T.);
#178=FACE_OUTER_BOUND('',#219,.T.);
#179=EDGE_LOOP('',(#356,#357,#358,#359,#360));
#180=EDGE_LOOP('',(#361,#362,#363,#364,#365));
#181=EDGE_LOOP('',(#366,#367,#368,#369));
#182=EDGE_LOOP('',(#370,#371,#372,#373));
#183=EDGE_LOOP('',(#374,#375,#376,#377));
#184=EDGE_LOOP('',(#378));
#185=EDGE_LOOP('',(#379));
#186=EDGE_LOOP('',(#380,#381,#382,#383));
#187=EDGE_LOOP('',(#384));
#188=EDGE_LOOP('',(#385));
#189=EDGE_LOOP('',(#386,#387,#388,#389));
#190=EDGE_LOOP('',(#390,#391,#392,#393));
#191=EDGE_LOOP('',(#394,#395,#396,#397));
#192=EDGE_LOOP('',(#398,#399,#400,#401));
#193=EDGE_LOOP('',(#402,#403,#404,#405));
#194=EDGE_LOOP('',(#406,#407,#408,#409));
#195=EDGE_LOOP('',(#410,#411,#412,#413));
#196=EDGE_LOOP('',(#414,#415,#416,#417));
#197=EDGE_LOOP('',(#418,#419,#420,#421));
#198=EDGE_LOOP('',(#422,#423,#424,#425));
#199=EDGE_LOOP('',(#426,#427));
#200=EDGE_LOOP('',(#428,#429));
#201=EDGE_LOOP('',(#430,#431));
#202=EDGE_LOOP('',(#432,#433));
#203=EDGE_LOOP('',(#434,#435,#436,#437));
#204=EDGE_LOOP('',(#438,#439,#440,#441));
#205=EDGE_LOOP('',(#442,#443,#444,#445));
#206=EDGE_LOOP('',(#446,#447,#448,#449));
#207=EDGE_LOOP('',(#450,#451,#452,#453));
#208=EDGE_LOOP('',(#454));
#209=EDGE_LOOP('',(#455));
#210=EDGE_LOOP('',(#456));
#211=EDGE_LOOP('',(#457));
#212=EDGE_LOOP('',(#458,#459,#460,#461,#462,#463));
#213=EDGE_LOOP('',(#464,#465,#466,#467));
#214=EDGE_LOOP('',(#468,#469,#470,#471));
#215=EDGE_LOOP('',(#472,#473,#474,#475));
#216=EDGE_LOOP('',(#476,#477,#478,#479));
#217=EDGE_LOOP('',(#480,#481,#482,#483));
#218=EDGE_LOOP('',(#484,#485,#486,#487));
#219=EDGE_LOOP('',(#488,#489,#490,#491,#492,#493));
#220=CIRCLE('',#542,5.);
#221=CIRCLE('',#543,5.);
#222=CIRCLE('',#544,1.);
#223=CIRCLE('',#545,4.);
#224=CIRCLE('',#547,5.);
#225=CIRCLE('',#549,2.5);
#226=CIRCLE('',#552,4.09124267883804);
#227=CIRCLE('',#553,4.09124267883804);
#228=CIRCLE('',#555,4.09124267883805);
#229=CIRCLE('',#556,4.09124267883805);
#230=CIRCLE('',#558,20.);
#231=CIRCLE('',#559,20.);
#232=CIRCLE('',#561,28.);
#233=CIRCLE('',#562,28.);
#234=CIRCLE('',#563,28.);
#235=CIRCLE('',#564,28.);
#236=CIRCLE('',#565,28.);
#237=CIRCLE('',#566,28.);
#238=CIRCLE('',#567,28.);
#239=CIRCLE('',#568,28.);
#240=CIRCLE('',#570,2.5);
#241=VERTEX_POINT('',#748);
#242=VERTEX_POINT('',#749);
#243=VERTEX_POINT('',#752);
#244=VERTEX_POINT('',#756);
#245=VERTEX_POINT('',#760);
#246=VERTEX_POINT('',#762);
#247=VERTEX_POINT('',#799);
#248=VERTEX_POINT('',#834);
#249=VERTEX_POINT('',#871);
#250=VERTEX_POINT('',#872);
#251=VERTEX_POINT('',#874);
#252=VERTEX_POINT('',#876);
#253=VERTEX_POINT('',#879);
#254=VERTEX_POINT('',#915);
#255=VERTEX_POINT('',#916);
#256=VERTEX_POINT('',#918);
#257=VERTEX_POINT('',#920);
#258=VERTEX_POINT('',#924);
#259=VERTEX_POINT('',#925);
#260=VERTEX_POINT('',#927);
#261=VERTEX_POINT('',#929);
#262=VERTEX_POINT('',#933);
#263=VERTEX_POINT('',#934);
#264=VERTEX_POINT('',#936);
#265=VERTEX_POINT('',#938);
#266=VERTEX_POINT('',#943);
#267=VERTEX_POINT('',#944);
#268=VERTEX_POINT('',#946);
#269=VERTEX_POINT('',#948);
#270=VERTEX_POINT('',#954);
#271=VERTEX_POINT('',#970);
#272=VERTEX_POINT('',#972);
#273=VERTEX_POINT('',#976);
#274=VERTEX_POINT('',#978);
#275=VERTEX_POINT('',#989);
#276=VERTEX_POINT('',#990);
#277=VERTEX_POINT('',#992);
#278=VERTEX_POINT('',#994);
#279=VERTEX_POINT('',#996);
#280=VERTEX_POINT('',#998);
#281=VERTEX_POINT('',#1002);
#282=VERTEX_POINT('',#1004);
#283=VERTEX_POINT('',#1008);
#284=VERTEX_POINT('',#1012);
#285=VERTEX_POINT('',#1016);
#286=VERTEX_POINT('',#1020);
#287=EDGE_CURVE('',#241,#242,#220,.T.);
#288=EDGE_CURVE('',#242,#241,#221,.T.);
#289=EDGE_CURVE('',#242,#243,#222,.T.);
#290=EDGE_CURVE('',#243,#243,#223,.T.);
#291=EDGE_CURVE('',#241,#244,#51,.T.);
#292=EDGE_CURVE('',#244,#244,#224,.T.);
#293=EDGE_CURVE('',#245,#245,#225,.T.);
#294=EDGE_CURVE('',#245,#246,#52,.T.);
#295=EDGE_CURVE('',#246,#246,#47,.T.);
#296=EDGE_CURVE('',#247,#247,#48,.T.);
#297=EDGE_CURVE('',#247,#248,#53,.T.);
#298=EDGE_CURVE('',#248,#248,#49,.T.);
#299=EDGE_CURVE('',#249,#250,#226,.T.);
#300=EDGE_CURVE('',#249,#251,#54,.T.);
#301=EDGE_CURVE('',#251,#252,#227,.T.);
#302=EDGE_CURVE('',#252,#250,#55,.T.);
#303=EDGE_CURVE('',#253,#253,#50,.T.);
#304=EDGE_CURVE('',#254,#255,#228,.T.);
#305=EDGE_CURVE('',#254,#256,#56,.T.);
#306=EDGE_CURVE('',#256,#257,#229,.T.);
#307=EDGE_CURVE('',#257,#255,#57,.T.);
#308=EDGE_CURVE('',#258,#259,#230,.T.);
#309=EDGE_CURVE('',#258,#260,#58,.T.);
#310=EDGE_CURVE('',#260,#261,#231,.T.);
#311=EDGE_CURVE('',#259,#261,#59,.T.);
#312=EDGE_CURVE('',#262,#263,#232,.T.);
#313=EDGE_CURVE('',#262,#264,#60,.T.);
#314=EDGE_CURVE('',#264,#265,#233,.T.);
#315=EDGE_CURVE('',#263,#265,#61,.T.);
#316=EDGE_CURVE('',#250,#249,#234,.T.);
#317=EDGE_CURVE('',#252,#251,#235,.T.);
#318=EDGE_CURVE('',#266,#267,#236,.T.);
#319=EDGE_CURVE('',#266,#268,#62,.T.);
#320=EDGE_CURVE('',#268,#269,#237,.T.);
#321=EDGE_CURVE('',#269,#267,#63,.T.);
#322=EDGE_CURVE('',#254,#255,#238,.T.);
#323=EDGE_CURVE('',#256,#257,#239,.T.);
#324=EDGE_CURVE('',#253,#270,#64,.T.);
#325=EDGE_CURVE('',#270,#270,#240,.T.);
#326=EDGE_CURVE('',#265,#260,#65,.T.);
#327=EDGE_CURVE('',#263,#258,#66,.T.);
#328=EDGE_CURVE('',#261,#264,#67,.T.);
#329=EDGE_CURVE('',#259,#262,#68,.T.);
#330=EDGE_CURVE('',#266,#271,#69,.T.);
#331=EDGE_CURVE('',#271,#272,#70,.T.);
#332=EDGE_CURVE('',#268,#272,#71,.T.);
#333=EDGE_CURVE('',#273,#269,#72,.T.);
#334=EDGE_CURVE('',#274,#273,#73,.T.);
#335=EDGE_CURVE('',#274,#267,#74,.T.);
#336=EDGE_CURVE('',#272,#273,#75,.T.);
#337=EDGE_CURVE('',#271,#274,#76,.T.);
#338=EDGE_CURVE('',#275,#276,#77,.T.);
#339=EDGE_CURVE('',#277,#275,#78,.T.);
#340=EDGE_CURVE('',#278,#277,#79,.T.);
#341=EDGE_CURVE('',#279,#278,#80,.T.);
#342=EDGE_CURVE('',#280,#279,#81,.T.);
#343=EDGE_CURVE('',#276,#280,#82,.T.);
#344=EDGE_CURVE('',#281,#275,#83,.T.);
#345=EDGE_CURVE('',#282,#281,#84,.T.);
#346=EDGE_CURVE('',#282,#277,#85,.T.);
#347=EDGE_CURVE('',#283,#282,#86,.T.);
#348=EDGE_CURVE('',#283,#278,#87,.T.);
#349=EDGE_CURVE('',#284,#283,#88,.T.);
#350=EDGE_CURVE('',#284,#279,#89,.T.);
#351=EDGE_CURVE('',#285,#284,#90,.T.);
#352=EDGE_CURVE('',#285,#280,#91,.T.);
#353=EDGE_CURVE('',#286,#285,#92,.T.);
#354=EDGE_CURVE('',#286,#276,#93,.T.);
#355=EDGE_CURVE('',#281,#286,#94,.T.);
#356=ORIENTED_EDGE('',*,*,#287,.F.);
#357=ORIENTED_EDGE('',*,*,#288,.F.);
#358=ORIENTED_EDGE('',*,*,#289,.T.);
#359=ORIENTED_EDGE('',*,*,#290,.F.);
#360=ORIENTED_EDGE('',*,*,#289,.F.);
#361=ORIENTED_EDGE('',*,*,#287,.T.);
#362=ORIENTED_EDGE('',*,*,#288,.T.);
#363=ORIENTED_EDGE('',*,*,#291,.T.);
#364=ORIENTED_EDGE('',*,*,#292,.T.);
#365=ORIENTED_EDGE('',*,*,#291,.F.);
#366=ORIENTED_EDGE('',*,*,#293,.F.);
#367=ORIENTED_EDGE('',*,*,#294,.T.);
#368=ORIENTED_EDGE('',*,*,#295,.F.);
#369=ORIENTED_EDGE('',*,*,#294,.F.);
#370=ORIENTED_EDGE('',*,*,#296,.F.);
#371=ORIENTED_EDGE('',*,*,#297,.T.);
#372=ORIENTED_EDGE('',*,*,#298,.F.);
#373=ORIENTED_EDGE('',*,*,#297,.F.);
#374=ORIENTED_EDGE('',*,*,#299,.F.);
#375=ORIENTED_EDGE('',*,*,#300,.T.);
#376=ORIENTED_EDGE('',*,*,#301,.T.);
#377=ORIENTED_EDGE('',*,*,#302,.T.);
#378=ORIENTED_EDGE('',*,*,#303,.T.);
#379=ORIENTED_EDGE('',*,*,#298,.T.);
#380=ORIENTED_EDGE('',*,*,#304,.F.);
#381=ORIENTED_EDGE('',*,*,#305,.T.);
#382=ORIENTED_EDGE('',*,*,#306,.T.);
#383=ORIENTED_EDGE('',*,*,#307,.T.);
#384=ORIENTED_EDGE('',*,*,#296,.T.);
#385=ORIENTED_EDGE('',*,*,#295,.T.);
#386=ORIENTED_EDGE('',*,*,#308,.F.);
#387=ORIENTED_EDGE('',*,*,#309,.T.);
#388=ORIENTED_EDGE('',*,*,#310,.T.);
#389=ORIENTED_EDGE('',*,*,#311,.F.);
#390=ORIENTED_EDGE('',*,*,#312,.F.);
#391=ORIENTED_EDGE('',*,*,#313,.T.);
#392=ORIENTED_EDGE('',*,*,#314,.T.);
#393=ORIENTED_EDGE('',*,*,#315,.F.);
#394=ORIENTED_EDGE('',*,*,#316,.F.);
#395=ORIENTED_EDGE('',*,*,#302,.F.);
#396=ORIENTED_EDGE('',*,*,#317,.T.);
#397=ORIENTED_EDGE('',*,*,#300,.F.);
#398=ORIENTED_EDGE('',*,*,#318,.F.);
#399=ORIENTED_EDGE('',*,*,#319,.T.);
#400=ORIENTED_EDGE('',*,*,#320,.T.);
#401=ORIENTED_EDGE('',*,*,#321,.T.);
#402=ORIENTED_EDGE('',*,*,#305,.F.);
#403=ORIENTED_EDGE('',*,*,#322,.T.);
#404=ORIENTED_EDGE('',*,*,#307,.F.);
#405=ORIENTED_EDGE('',*,*,#323,.F.);
#406=ORIENTED_EDGE('',*,*,#303,.F.);
#407=ORIENTED_EDGE('',*,*,#324,.T.);
#408=ORIENTED_EDGE('',*,*,#325,.T.);
#409=ORIENTED_EDGE('',*,*,#324,.F.);
#410=ORIENTED_EDGE('',*,*,#326,.T.);
#411=ORIENTED_EDGE('',*,*,#309,.F.);
#412=ORIENTED_EDGE('',*,*,#327,.F.);
#413=ORIENTED_EDGE('',*,*,#315,.T.);
#414=ORIENTED_EDGE('',*,*,#328,.T.);
#415=ORIENTED_EDGE('',*,*,#313,.F.);
#416=ORIENTED_EDGE('',*,*,#329,.F.);
#417=ORIENTED_EDGE('',*,*,#311,.T.);
#418=ORIENTED_EDGE('',*,*,#312,.T.);
#419=ORIENTED_EDGE('',*,*,#327,.T.);
#420=ORIENTED_EDGE('',*,*,#308,.T.);
#421=ORIENTED_EDGE('',*,*,#329,.T.);
#422=ORIENTED_EDGE('',*,*,#314,.F.);
#423=ORIENTED_EDGE('',*,*,#328,.F.);
#424=ORIENTED_EDGE('',*,*,#310,.F.);
#425=ORIENTED_EDGE('',*,*,#326,.F.);
#426=ORIENTED_EDGE('',*,*,#322,.F.);
#427=ORIENTED_EDGE('',*,*,#304,.T.);
#428=ORIENTED_EDGE('',*,*,#306,.F.);
#429=ORIENTED_EDGE('',*,*,#323,.T.);
#430=ORIENTED_EDGE('',*,*,#299,.T.);
#431=ORIENTED_EDGE('',*,*,#316,.T.);
#432=ORIENTED_EDGE('',*,*,#317,.F.);
#433=ORIENTED_EDGE('',*,*,#301,.F.);
#434=ORIENTED_EDGE('',*,*,#319,.F.);
#435=ORIENTED_EDGE('',*,*,#330,.T.);
#436=ORIENTED_EDGE('',*,*,#331,.T.);
#437=ORIENTED_EDGE('',*,*,#332,.F.);
#438=ORIENTED_EDGE('',*,*,#321,.F.);
#439=ORIENTED_EDGE('',*,*,#333,.F.);
#440=ORIENTED_EDGE('',*,*,#334,.F.);
#441=ORIENTED_EDGE('',*,*,#335,.T.);
#442=ORIENTED_EDGE('',*,*,#336,.F.);
#443=ORIENTED_EDGE('',*,*,#331,.F.);
#444=ORIENTED_EDGE('',*,*,#337,.T.);
#445=ORIENTED_EDGE('',*,*,#334,.T.);
#446=ORIENTED_EDGE('',*,*,#330,.F.);
#447=ORIENTED_EDGE('',*,*,#318,.T.);
#448=ORIENTED_EDGE('',*,*,#335,.F.);
#449=ORIENTED_EDGE('',*,*,#337,.F.);
#450=ORIENTED_EDGE('',*,*,#320,.F.);
#451=ORIENTED_EDGE('',*,*,#332,.T.);
#452=ORIENTED_EDGE('',*,*,#336,.T.);
#453=ORIENTED_EDGE('',*,*,#333,.T.);
#454=ORIENTED_EDGE('',*,*,#293,.T.);
#455=ORIENTED_EDGE('',*,*,#292,.F.);
#456=ORIENTED_EDGE('',*,*,#325,.F.);
#457=ORIENTED_EDGE('',*,*,#290,.T.);
#458=ORIENTED_EDGE('',*,*,#338,.F.);
#459=ORIENTED_EDGE('',*,*,#339,.F.);
#460=ORIENTED_EDGE('',*,*,#340,.F.);
#461=ORIENTED_EDGE('',*,*,#341,.F.);
#462=ORIENTED_EDGE('',*,*,#342,.F.);
#463=ORIENTED_EDGE('',*,*,#343,.F.);
#464=ORIENTED_EDGE('',*,*,#339,.T.);
#465=ORIENTED_EDGE('',*,*,#344,.F.);
#466=ORIENTED_EDGE('',*,*,#345,.F.);
#467=ORIENTED_EDGE('',*,*,#346,.T.);
#468=ORIENTED_EDGE('',*,*,#340,.T.);
#469=ORIENTED_EDGE('',*,*,#346,.F.);
#470=ORIENTED_EDGE('',*,*,#347,.F.);
#471=ORIENTED_EDGE('',*,*,#348,.T.);
#472=ORIENTED_EDGE('',*,*,#341,.T.);
#473=ORIENTED_EDGE('',*,*,#348,.F.);
#474=ORIENTED_EDGE('',*,*,#349,.F.);
#475=ORIENTED_EDGE('',*,*,#350,.T.);
#476=ORIENTED_EDGE('',*,*,#342,.T.);
#477=ORIENTED_EDGE('',*,*,#350,.F.);
#478=ORIENTED_EDGE('',*,*,#351,.F.);
#479=ORIENTED_EDGE('',*,*,#352,.T.);
#480=ORIENTED_EDGE('',*,*,#343,.T.);
#481=ORIENTED_EDGE('',*,*,#352,.F.);
#482=ORIENTED_EDGE('',*,*,#353,.F.);
#483=ORIENTED_EDGE('',*,*,#354,.T.);
#484=ORIENTED_EDGE('',*,*,#338,.T.);
#485=ORIENTED_EDGE('',*,*,#354,.F.);
#486=ORIENTED_EDGE('',*,*,#355,.F.);
#487=ORIENTED_EDGE('',*,*,#344,.T.);
#488=ORIENTED_EDGE('',*,*,#345,.T.);
#489=ORIENTED_EDGE('',*,*,#355,.T.);
#490=ORIENTED_EDGE('',*,*,#353,.T.);
#491=ORIENTED_EDGE('',*,*,#351,.T.);
#492=ORIENTED_EDGE('',*,*,#349,.T.);
#493=ORIENTED_EDGE('',*,*,#347,.T.);
#494=TOROIDAL_SURFACE('',#541,4.,1.);
#495=ADVANCED_FACE('',(#147),#494,.T.);
#496=ADVANCED_FACE('',(#148),#139,.T.);
#497=ADVANCED_FACE('',(#149),#140,.T.);
#498=ADVANCED_FACE('',(#150),#141,.T.);
#499=ADVANCED_FACE('',(#151,#38,#39),#142,.T.);
#500=ADVANCED_FACE('',(#152,#40,#41),#143,.T.);
#501=ADVANCED_FACE('',(#153),#144,.F.);
#502=ADVANCED_FACE('',(#154,#42,#43,#44),#145,.T.);
#503=ADVANCED_FACE('',(#155),#146,.T.);
#504=ADVANCED_FACE('',(#156),#15,.F.);
#505=ADVANCED_FACE('',(#157),#16,.F.);
#506=ADVANCED_FACE('',(#158),#17,.T.);
#507=ADVANCED_FACE('',(#159),#18,.F.);
#508=ADVANCED_FACE('',(#160),#19,.T.);
#509=ADVANCED_FACE('',(#161),#20,.F.);
#510=ADVANCED_FACE('',(#162),#21,.F.);
#511=ADVANCED_FACE('',(#163),#22,.T.);
#512=ADVANCED_FACE('',(#164),#23,.T.);
#513=ADVANCED_FACE('',(#165),#24,.T.);
#514=ADVANCED_FACE('',(#166),#25,.T.);
#515=ADVANCED_FACE('',(#167),#26,.F.);
#516=ADVANCED_FACE('',(#168),#27,.T.);
#517=ADVANCED_FACE('',(#169),#28,.T.);
#518=ADVANCED_FACE('',(#170,#45),#29,.F.);
#519=ADVANCED_FACE('',(#171,#46),#30,.F.);
#520=ADVANCED_FACE('',(#172),#31,.F.);
#521=ADVANCED_FACE('',(#173),#32,.F.);
#522=ADVANCED_FACE('',(#174),#33,.F.);
#523=ADVANCED_FACE('',(#175),#34,.F.);
#524=ADVANCED_FACE('',(#176),#35,.F.);
#525=ADVANCED_FACE('',(#177),#36,.F.);
#526=ADVANCED_FACE('',(#178),#37,.T.);
#527=CLOSED_SHELL('',(#495,#496,#497,#498,#499,#500,#501,#502,#503,#504,
#505,#506,#507,#508,#509,#510,#511,#512,#513,#514,#515,#516,#517,#518,#519,
#520,#521,#522,#523,#524,#525,#526));
#528=DERIVED_UNIT_ELEMENT(#530,1.);
#529=DERIVED_UNIT_ELEMENT(#1031,-3.);
#530=(
MASS_UNIT()
NAMED_UNIT(*)
SI_UNIT(.KILO.,.GRAM.)
);
#531=DERIVED_UNIT((#528,#529));
#532=MEASURE_REPRESENTATION_ITEM('density measure',
POSITIVE_RATIO_MEASURE(7850.),#531);
#533=PROPERTY_DEFINITION_REPRESENTATION(#538,#535);
#534=PROPERTY_DEFINITION_REPRESENTATION(#539,#536);
#535=REPRESENTATION('material name',(#537),#1028);
#536=REPRESENTATION('density',(#532),#1028);
#537=DESCRIPTIVE_REPRESENTATION_ITEM('Steel','Steel');
#538=PROPERTY_DEFINITION('material property','material name',#1038);
#539=PROPERTY_DEFINITION('material property','density of part',#1038);
#540=AXIS2_PLACEMENT_3D('',#746,#594,#595);
#541=AXIS2_PLACEMENT_3D('',#747,#596,#597);
#542=AXIS2_PLACEMENT_3D('',#750,#598,#599);
#543=AXIS2_PLACEMENT_3D('',#751,#600,#601);
#544=AXIS2_PLACEMENT_3D('',#753,#602,#603);
#545=AXIS2_PLACEMENT_3D('',#754,#604,#605);
#546=AXIS2_PLACEMENT_3D('',#755,#606,#607);
#547=AXIS2_PLACEMENT_3D('',#758,#609,#610);
#548=AXIS2_PLACEMENT_3D('',#759,#611,#612);
#549=AXIS2_PLACEMENT_3D('',#761,#613,#614);
#550=AXIS2_PLACEMENT_3D('',#798,#616,#617);
#551=AXIS2_PLACEMENT_3D('',#870,#619,#620);
#552=AXIS2_PLACEMENT_3D('',#873,#621,#622);
#553=AXIS2_PLACEMENT_3D('',#877,#624,#625);
#554=AXIS2_PLACEMENT_3D('',#914,#627,#628);
#555=AXIS2_PLACEMENT_3D('',#917,#629,#630);
#556=AXIS2_PLACEMENT_3D('',#921,#632,#633);
#557=AXIS2_PLACEMENT_3D('',#923,#635,#636);
#558=AXIS2_PLACEMENT_3D('',#926,#637,#638);
#559=AXIS2_PLACEMENT_3D('',#930,#640,#641);
#560=AXIS2_PLACEMENT_3D('',#932,#643,#644);
#561=AXIS2_PLACEMENT_3D('',#935,#645,#646);
#562=AXIS2_PLACEMENT_3D('',#939,#648,#649);
#563=AXIS2_PLACEMENT_3D('',#941,#651,#652);
#564=AXIS2_PLACEMENT_3D('',#942,#653,#654);
#565=AXIS2_PLACEMENT_3D('',#945,#655,#656);
#566=AXIS2_PLACEMENT_3D('',#949,#658,#659);
#567=AXIS2_PLACEMENT_3D('',#951,#661,#662);
#568=AXIS2_PLACEMENT_3D('',#952,#663,#664);
#569=AXIS2_PLACEMENT_3D('',#953,#665,#666);
#570=AXIS2_PLACEMENT_3D('',#956,#668,#669);
#571=AXIS2_PLACEMENT_3D('',#957,#670,#671);
#572=AXIS2_PLACEMENT_3D('',#960,#674,#675);
#573=AXIS2_PLACEMENT_3D('',#963,#678,#679);
#574=AXIS2_PLACEMENT_3D('',#964,#680,#681);
#575=AXIS2_PLACEMENT_3D('',#965,#682,#683);
#576=AXIS2_PLACEMENT_3D('',#966,#684,#685);
#577=AXIS2_PLACEMENT_3D('',#967,#686,#687);
#578=AXIS2_PLACEMENT_3D('',#968,#688,#689);
#579=AXIS2_PLACEMENT_3D('',#969,#690,#691);
#580=AXIS2_PLACEMENT_3D('',#975,#695,#696);
#581=AXIS2_PLACEMENT_3D('',#981,#700,#701);
#582=AXIS2_PLACEMENT_3D('',#984,#704,#705);
#583=AXIS2_PLACEMENT_3D('',#985,#706,#707);
#584=AXIS2_PLACEMENT_3D('',#986,#708,#709);
#585=AXIS2_PLACEMENT_3D('',#987,#710,#711);
#586=AXIS2_PLACEMENT_3D('',#988,#712,#713);
#587=AXIS2_PLACEMENT_3D('',#1001,#720,#721);
#588=AXIS2_PLACEMENT_3D('',#1007,#725,#726);
#589=AXIS2_PLACEMENT_3D('',#1011,#729,#730);
#590=AXIS2_PLACEMENT_3D('',#1015,#733,#734);
#591=AXIS2_PLACEMENT_3D('',#1019,#737,#738);
#592=AXIS2_PLACEMENT_3D('',#1023,#741,#742);
#593=AXIS2_PLACEMENT_3D('',#1025,#744,#745);
#594=DIRECTION('axis',(0.,0.,1.));
#595=DIRECTION('refdir',(1.,0.,0.));
#596=DIRECTION('center_axis',(1.,0.,0.));
#597=DIRECTION('ref_axis',(0.,0.,-1.));
#598=DIRECTION('center_axis',(1.,0.,0.));
#599=DIRECTION('ref_axis',(0.,0.,-1.));
#600=DIRECTION('center_axis',(1.,0.,0.));
#601=DIRECTION('ref_axis',(0.,0.,-1.));
#602=DIRECTION('center_axis',(0.,-1.,0.));
#603=DIRECTION('ref_axis',(0.,0.,1.));
#604=DIRECTION('center_axis',(-1.,0.,0.));
#605=DIRECTION('ref_axis',(0.,0.,-1.));
#606=DIRECTION('center_axis',(-1.,0.,0.));
#607=DIRECTION('ref_axis',(0.,0.,1.));
#608=DIRECTION('',(1.,0.,0.));
#609=DIRECTION('center_axis',(-1.,0.,0.));
#610=DIRECTION('ref_axis',(0.,0.,1.));
#611=DIRECTION('center_axis',(1.,0.,0.));
#612=DIRECTION('ref_axis',(0.,0.,-1.));
#613=DIRECTION('center_axis',(1.,0.,0.));
#614=DIRECTION('ref_axis',(0.,0.,-1.));
#615=DIRECTION('',(-1.,0.,0.));
#616=DIRECTION('center_axis',(1.,0.,0.));
#617=DIRECTION('ref_axis',(0.,0.,-1.));
#618=DIRECTION('',(-1.,0.,0.));
#619=DIRECTION('center_axis',(0.,0.,-1.));
#620=DIRECTION('ref_axis',(-0.200683468840089,0.979656136271452,0.));
#621=DIRECTION('center_axis',(0.,0.,1.));
#622=DIRECTION('ref_axis',(-1.,0.,0.));
#623=DIRECTION('',(0.,0.,-1.));
#624=DIRECTION('center_axis',(0.,0.,1.));
#625=DIRECTION('ref_axis',(-1.,0.,0.));
#626=DIRECTION('',(0.,0.,1.));
#627=DIRECTION('center_axis',(0.,0.,-1.));
#628=DIRECTION('ref_axis',(0.200683468840088,0.979656136271452,0.));
#629=DIRECTION('center_axis',(0.,0.,1.));
#630=DIRECTION('ref_axis',(1.,0.,0.));
#631=DIRECTION('',(0.,0.,-1.));
#632=DIRECTION('center_axis',(0.,0.,1.));
#633=DIRECTION('ref_axis',(1.,0.,0.));
#634=DIRECTION('',(0.,0.,1.));
#635=DIRECTION('center_axis',(0.,0.,-1.));
#636=DIRECTION('ref_axis',(1.83697019872103E-16,-1.,0.));
#637=DIRECTION('center_axis',(0.,0.,-1.));
#638=DIRECTION('ref_axis',(1.,0.,0.));
#639=DIRECTION('',(0.,0.,-1.));
#640=DIRECTION('center_axis',(0.,0.,-1.));
#641=DIRECTION('ref_axis',(1.,0.,0.));
#642=DIRECTION('',(0.,0.,-1.));
#643=DIRECTION('center_axis',(0.,0.,-1.));
#644=DIRECTION('ref_axis',(1.83697019872103E-16,-1.,0.));
#645=DIRECTION('center_axis',(0.,0.,1.));
#646=DIRECTION('ref_axis',(1.,0.,0.));
#647=DIRECTION('',(0.,0.,-1.));
#648=DIRECTION('center_axis',(0.,0.,1.));
#649=DIRECTION('ref_axis',(1.,0.,0.));
#650=DIRECTION('',(0.,0.,-1.));
#651=DIRECTION('center_axis',(0.,0.,-1.));
#652=DIRECTION('ref_axis',(-1.,0.,0.));
#653=DIRECTION('center_axis',(0.,0.,-1.));
#654=DIRECTION('ref_axis',(-1.,0.,0.));
#655=DIRECTION('center_axis',(0.,0.,1.));
#656=DIRECTION('ref_axis',(1.,0.,0.));
#657=DIRECTION('',(0.,0.,1.));
#658=DIRECTION('center_axis',(0.,0.,1.));
#659=DIRECTION('ref_axis',(1.,0.,0.));
#660=DIRECTION('',(0.,0.,-1.));
#661=DIRECTION('center_axis',(0.,0.,1.));
#662=DIRECTION('ref_axis',(1.,0.,0.));
#663=DIRECTION('center_axis',(0.,0.,1.));
#664=DIRECTION('ref_axis',(1.,0.,0.));
#665=DIRECTION('center_axis',(1.,0.,0.));
#666=DIRECTION('ref_axis',(0.,0.,-1.));
#667=DIRECTION('',(-1.,0.,0.));
#668=DIRECTION('center_axis',(1.,0.,0.));
#669=DIRECTION('ref_axis',(0.,0.,1.));
#670=DIRECTION('center_axis',(1.,-2.15626599546187E-16,0.));
#671=DIRECTION('ref_axis',(2.15626599546187E-16,1.,0.));
#672=DIRECTION('',(-2.15626599546187E-16,-1.,0.));
#673=DIRECTION('',(-2.15626599546187E-16,-1.,0.));
#674=DIRECTION('center_axis',(-1.,-2.15626599546187E-16,0.));
#675=DIRECTION('ref_axis',(2.15626599546187E-16,-1.,0.));
#676=DIRECTION('',(-2.15626599546187E-16,1.,0.));
#677=DIRECTION('',(-2.15626599546187E-16,1.,0.));
#678=DIRECTION('center_axis',(0.,0.,1.));
#679=DIRECTION('ref_axis',(1.,0.,0.));
#680=DIRECTION('center_axis',(0.,0.,1.));
#681=DIRECTION('ref_axis',(1.,0.,0.));
#682=DIRECTION('center_axis',(0.,0.,1.));
#683=DIRECTION('ref_axis',(1.,0.,0.));
#684=DIRECTION('center_axis',(0.,0.,1.));
#685=DIRECTION('ref_axis',(1.,0.,0.));
#686=DIRECTION('center_axis',(0.,0.,-1.));
#687=DIRECTION('ref_axis',(-1.,0.,0.));
#688=DIRECTION('center_axis',(0.,0.,-1.));
#689=DIRECTION('ref_axis',(-1.,0.,0.));
#690=DIRECTION('center_axis',(-1.,0.,0.));
#691=DIRECTION('ref_axis',(0.,0.,1.));
#692=DIRECTION('',(0.,-1.,0.));
#693=DIRECTION('',(0.,0.,1.));
#694=DIRECTION('',(0.,-1.,0.));
#695=DIRECTION('center_axis',(1.,8.01694789612453E-16,0.));
#696=DIRECTION('ref_axis',(-8.01694789612453E-16,1.,0.));
#697=DIRECTION('',(-8.01694789612453E-16,1.,0.));
#698=DIRECTION('',(0.,0.,1.));
#699=DIRECTION('',(-8.01694789612453E-16,1.,0.));
#700=DIRECTION('center_axis',(0.,-1.,0.));
#701=DIRECTION('ref_axis',(0.,0.,-1.));
#702=DIRECTION('',(1.,0.,0.));
#703=DIRECTION('',(1.,0.,0.));
#704=DIRECTION('center_axis',(0.,0.,1.));
#705=DIRECTION('ref_axis',(1.,0.,0.));
#706=DIRECTION('center_axis',(0.,0.,1.));
#707=DIRECTION('ref_axis',(1.,0.,0.));
#708=DIRECTION('center_axis',(1.,0.,0.));
#709=DIRECTION('ref_axis',(0.,0.,-1.));
#710=DIRECTION('center_axis',(-1.,0.,0.));
#711=DIRECTION('ref_axis',(0.,0.,1.));
#712=DIRECTION('center_axis',(1.,0.,0.));
#713=DIRECTION('ref_axis',(0.,0.,-1.));
#714=DIRECTION('',(0.,0.866025403784439,0.5));
#715=DIRECTION('',(0.,0.,1.));
#716=DIRECTION('',(0.,-0.866025403784439,0.5));
#717=DIRECTION('',(0.,-0.866025403784438,-0.5));
#718=DIRECTION('',(0.,0.,-1.));
#719=DIRECTION('',(0.,0.866025403784439,-0.5));
#720=DIRECTION('center_axis',(0.,-1.,0.));
#721=DIRECTION('ref_axis',(0.,0.,-1.));
#722=DIRECTION('',(-1.,0.,0.));
#723=DIRECTION('',(0.,0.,1.));
#724=DIRECTION('',(-1.,0.,0.));
#725=DIRECTION('center_axis',(0.,-0.5,-0.866025403784439));
#726=DIRECTION('ref_axis',(0.,0.866025403784439,-0.5));
#727=DIRECTION('',(0.,-0.866025403784439,0.5));
#728=DIRECTION('',(-1.,0.,0.));
#729=DIRECTION('center_axis',(0.,0.5,-0.866025403784438));
#730=DIRECTION('ref_axis',(0.,0.866025403784438,0.5));
#731=DIRECTION('',(0.,-0.866025403784438,-0.5));
#732=DIRECTION('',(-1.,0.,0.));
#733=DIRECTION('center_axis',(0.,1.,0.));
#734=DIRECTION('ref_axis',(0.,0.,1.));
#735=DIRECTION('',(0.,0.,-1.));
#736=DIRECTION('',(-1.,0.,0.));
#737=DIRECTION('center_axis',(0.,0.5,0.866025403784439));
#738=DIRECTION('ref_axis',(0.,-0.866025403784439,0.5));
#739=DIRECTION('',(0.,0.866025403784439,-0.5));
#740=DIRECTION('',(-1.,0.,0.));
#741=DIRECTION('center_axis',(0.,-0.5,0.866025403784439));
#742=DIRECTION('ref_axis',(0.,-0.866025403784439,-0.5));
#743=DIRECTION('',(0.,0.866025403784439,0.5));
#744=DIRECTION('center_axis',(-1.,0.,0.));
#745=DIRECTION('ref_axis',(0.,0.,1.));
#746=CARTESIAN_POINT('',(0.,0.,0.));
#747=CARTESIAN_POINT('Origin',(-19.,30.7225018569393,0.));
#748=CARTESIAN_POINT('',(-19.,30.7225018569393,-5.));
#749=CARTESIAN_POINT('',(-19.,30.7225018569393,5.));
#750=CARTESIAN_POINT('Origin',(-19.,30.7225018569393,0.));
#751=CARTESIAN_POINT('Origin',(-19.,30.7225018569393,0.));
#752=CARTESIAN_POINT('',(-20.,30.7225018569393,4.));
#753=CARTESIAN_POINT('Origin',(-19.,30.7225018569393,4.));
#754=CARTESIAN_POINT('Origin',(-20.,30.7225018569393,0.));
#755=CARTESIAN_POINT('Origin',(-15.,30.7225018569393,0.));
#756=CARTESIAN_POINT('',(-15.,30.7225018569393,-5.));
#757=CARTESIAN_POINT('',(-15.,30.7225018569393,-5.));
#758=CARTESIAN_POINT('Origin',(-15.,30.7225018569393,0.));
#759=CARTESIAN_POINT('Origin',(-20.,30.7225018569393,0.));
#760=CARTESIAN_POINT('',(20.,30.7225018569393,2.5));
#761=CARTESIAN_POINT('Origin',(20.,30.7225018569393,0.));
#762=CARTESIAN_POINT('',(10.3847757011109,30.7225018569393,2.5));
#763=CARTESIAN_POINT('',(-20.,30.7225018569393,2.5));
#764=CARTESIAN_POINT('Ctrl Pts',(9.53209237129612,28.2225018569393,-1.73472347597681E-16));
#765=CARTESIAN_POINT('Ctrl Pts',(9.53209237129612,28.2225018569393,0.325457253053841));
#766=CARTESIAN_POINT('Ctrl Pts',(9.58630448475457,28.2893676492256,0.663249326189474));
#767=CARTESIAN_POINT('Ctrl Pts',(9.7616229424593,28.5465342006207,1.27483736098602));
#768=CARTESIAN_POINT('Ctrl Pts',(9.87871827028369,28.7367708823519,1.54980293134537));
#769=CARTESIAN_POINT('Ctrl Pts',(10.0868424977339,29.1711598669511,1.98419191594451));
#770=CARTESIAN_POINT('Ctrl Pts',(10.1935300199175,29.446536449318,2.1754922802095));
#771=CARTESIAN_POINT('Ctrl Pts',(10.3431811486691,30.0603730897596,2.43360643533165));
#772=CARTESIAN_POINT('Ctrl Pts',(10.3847757011109,30.3993426794783,2.5));
#773=CARTESIAN_POINT('Ctrl Pts',(10.3847757011109,31.0456610344004,2.5));
#774=CARTESIAN_POINT('Ctrl Pts',(10.3431811486691,31.384630624119,2.43360643533165));
#775=CARTESIAN_POINT('Ctrl Pts',(10.1935300199175,31.9984672645606,2.17549228020951));
#776=CARTESIAN_POINT('Ctrl Pts',(10.0868424977339,32.2738438469275,1.98419191594451));
#777=CARTESIAN_POINT('Ctrl Pts',(9.87871827028369,32.7082328315267,1.54980293134537));
#778=CARTESIAN_POINT('Ctrl Pts',(9.7616229424593,32.8984695132579,1.27483736098602));
#779=CARTESIAN_POINT('Ctrl Pts',(9.58630448475457,33.155636064653,0.663249326189474));
#780=CARTESIAN_POINT('Ctrl Pts',(9.53209237129612,33.2225018569393,0.325457253053841));
#781=CARTESIAN_POINT('Ctrl Pts',(9.53209237129612,33.2225018569393,-0.325457253053841));
#782=CARTESIAN_POINT('Ctrl Pts',(9.58630448475457,33.155636064653,-0.663249326189474));
#783=CARTESIAN_POINT('Ctrl Pts',(9.7616229424593,32.8984695132579,-1.27483736098602));
#784=CARTESIAN_POINT('Ctrl Pts',(9.87871827028369,32.7082328315267,-1.54980293134537));
#785=CARTESIAN_POINT('Ctrl Pts',(10.0868424977339,32.2738438469275,-1.98419191594451));
#786=CARTESIAN_POINT('Ctrl Pts',(10.1935300199175,31.9984672645606,-2.17549228020951));
#787=CARTESIAN_POINT('Ctrl Pts',(10.3431811486691,31.384630624119,-2.43360643533165));
#788=CARTESIAN_POINT('Ctrl Pts',(10.3847757011109,31.0456610344004,-2.5));
#789=CARTESIAN_POINT('Ctrl Pts',(10.3847757011109,30.3993426794783,-2.5));
#790=CARTESIAN_POINT('Ctrl Pts',(10.3431811486691,30.0603730897597,-2.43360643533165));
#791=CARTESIAN_POINT('Ctrl Pts',(10.1935300199175,29.4465364493181,-2.17549228020951));
#792=CARTESIAN_POINT('Ctrl Pts',(10.0868424977339,29.1711598669511,-1.98419191594451));
#793=CARTESIAN_POINT('Ctrl Pts',(9.87871827028369,28.7367708823519,-1.54980293134537));
#794=CARTESIAN_POINT('Ctrl Pts',(9.7616229424593,28.5465342006207,-1.27483736098602));
#795=CARTESIAN_POINT('Ctrl Pts',(9.58630448475457,28.2893676492256,-0.663249326189474));
#796=CARTESIAN_POINT('Ctrl Pts',(9.53209237129612,28.2225018569393,-0.325457253053842));
#797=CARTESIAN_POINT('Ctrl Pts',(9.53209237129612,28.2225018569393,-6.59194920871187E-16));
#798=CARTESIAN_POINT('Origin',(-20.,30.7225018569393,0.));
#799=CARTESIAN_POINT('',(2.20229034343482,30.7225018569393,2.5));
#800=CARTESIAN_POINT('Ctrl Pts',(3.05497367324961,28.2225018569393,-5.89805981832114E-16));
#801=CARTESIAN_POINT('Ctrl Pts',(3.05497367324961,28.2225018569393,-0.325457253053841));
#802=CARTESIAN_POINT('Ctrl Pts',(3.00076155979117,28.2893676492256,-0.663249326189474));
#803=CARTESIAN_POINT('Ctrl Pts',(2.82544310208644,28.5465342006207,-1.27483736098602));
#804=CARTESIAN_POINT('Ctrl Pts',(2.70834777426205,28.7367708823519,-1.54980293134537));
#805=CARTESIAN_POINT('Ctrl Pts',(2.50022354681183,29.1711598669511,-1.98419191594451));
#806=CARTESIAN_POINT('Ctrl Pts',(2.39353602462823,29.4465364493181,-2.17549228020951));
#807=CARTESIAN_POINT('Ctrl Pts',(2.24388489587665,30.0603730897597,-2.43360643533165));
#808=CARTESIAN_POINT('Ctrl Pts',(2.20229034343482,30.3993426794783,-2.5));
#809=CARTESIAN_POINT('Ctrl Pts',(2.20229034343482,31.0456610344004,-2.5));
#810=CARTESIAN_POINT('Ctrl Pts',(2.24388489587665,31.384630624119,-2.43360643533165));
#811=CARTESIAN_POINT('Ctrl Pts',(2.39353602462823,31.9984672645606,-2.17549228020951));
#812=CARTESIAN_POINT('Ctrl Pts',(2.50022354681183,32.2738438469275,-1.9841919159445));
#813=CARTESIAN_POINT('Ctrl Pts',(2.70834777426205,32.7082328315267,-1.54980293134537));
#814=CARTESIAN_POINT('Ctrl Pts',(2.82544310208644,32.8984695132579,-1.27483736098602));
#815=CARTESIAN_POINT('Ctrl Pts',(3.00076155979116,33.155636064653,-0.663249326189474));
#816=CARTESIAN_POINT('Ctrl Pts',(3.05497367324961,33.2225018569393,-0.32545725305384));
#817=CARTESIAN_POINT('Ctrl Pts',(3.05497367324961,33.2225018569393,0.325457253053841));
#818=CARTESIAN_POINT('Ctrl Pts',(3.00076155979117,33.155636064653,0.663249326189474));
#819=CARTESIAN_POINT('Ctrl Pts',(2.82544310208644,32.8984695132579,1.27483736098602));
#820=CARTESIAN_POINT('Ctrl Pts',(2.70834777426205,32.7082328315267,1.54980293134537));
#821=CARTESIAN_POINT('Ctrl Pts',(2.50022354681183,32.2738438469275,1.98419191594451));
#822=CARTESIAN_POINT('Ctrl Pts',(2.39353602462823,31.9984672645606,2.17549228020951));
#823=CARTESIAN_POINT('Ctrl Pts',(2.24388489587665,31.384630624119,2.43360643533165));
#824=CARTESIAN_POINT('Ctrl Pts',(2.20229034343482,31.0456610344004,2.5));
#825=CARTESIAN_POINT('Ctrl Pts',(2.20229034343482,30.3993426794783,2.5));
#826=CARTESIAN_POINT('Ctrl Pts',(2.24388489587665,30.0603730897597,2.43360643533165));
#827=CARTESIAN_POINT('Ctrl Pts',(2.39353602462823,29.4465364493181,2.17549228020951));
#828=CARTESIAN_POINT('Ctrl Pts',(2.50022354681183,29.1711598669511,1.98419191594451));
#829=CARTESIAN_POINT('Ctrl Pts',(2.70834777426205,28.7367708823519,1.54980293134537));
#830=CARTESIAN_POINT('Ctrl Pts',(2.82544310208644,28.5465342006207,1.27483736098602));
#831=CARTESIAN_POINT('Ctrl Pts',(3.00076155979117,28.2893676492256,0.663249326189474));
#832=CARTESIAN_POINT('Ctrl Pts',(3.05497367324961,28.2225018569393,0.32545725305384));
#833=CARTESIAN_POINT('Ctrl Pts',(3.05497367324961,28.2225018569393,-3.46944695195361E-16));
#834=CARTESIAN_POINT('',(-2.20229034343482,30.7225018569393,2.5));
#835=CARTESIAN_POINT('',(-20.,30.7225018569393,2.5));
#836=CARTESIAN_POINT('Ctrl Pts',(-3.05497367324962,28.2225018569393,-1.04083408558608E-16));
#837=CARTESIAN_POINT('Ctrl Pts',(-3.05497367324962,28.2225018569393,0.325457253053841));
#838=CARTESIAN_POINT('Ctrl Pts',(-3.00076155979117,28.2893676492256,0.663249326189474));
#839=CARTESIAN_POINT('Ctrl Pts',(-2.82544310208645,28.5465342006207,1.27483736098602));
#840=CARTESIAN_POINT('Ctrl Pts',(-2.70834777426206,28.7367708823519,1.54980293134537));
#841=CARTESIAN_POINT('Ctrl Pts',(-2.50022354681184,29.1711598669511,1.98419191594451));
#842=CARTESIAN_POINT('Ctrl Pts',(-2.39353602462824,29.446536449318,2.1754922802095));
#843=CARTESIAN_POINT('Ctrl Pts',(-2.24388489587666,30.0603730897596,2.43360643533165));
#844=CARTESIAN_POINT('Ctrl Pts',(-2.20229034343483,30.3993426794783,2.5));
#845=CARTESIAN_POINT('Ctrl Pts',(-2.20229034343483,31.0456610344004,2.5));
#846=CARTESIAN_POINT('Ctrl Pts',(-2.24388489587666,31.384630624119,2.43360643533165));
#847=CARTESIAN_POINT('Ctrl Pts',(-2.39353602462823,31.9984672645606,2.17549228020951));
#848=CARTESIAN_POINT('Ctrl Pts',(-2.50022354681184,32.2738438469275,1.98419191594451));
#849=CARTESIAN_POINT('Ctrl Pts',(-2.70834777426206,32.7082328315267,1.54980293134537));
#850=CARTESIAN_POINT('Ctrl Pts',(-2.82544310208645,32.8984695132579,1.27483736098602));
#851=CARTESIAN_POINT('Ctrl Pts',(-3.00076155979117,33.155636064653,0.663249326189474));
#852=CARTESIAN_POINT('Ctrl Pts',(-3.05497367324962,33.2225018569393,0.325457253053841));
#853=CARTESIAN_POINT('Ctrl Pts',(-3.05497367324962,33.2225018569393,-0.32545725305384));
#854=CARTESIAN_POINT('Ctrl Pts',(-3.00076155979116,33.155636064653,-0.663249326189475));
#855=CARTESIAN_POINT('Ctrl Pts',(-2.82544310208644,32.8984695132579,-1.27483736098602));
#856=CARTESIAN_POINT('Ctrl Pts',(-2.70834777426205,32.7082328315267,-1.54980293134537));
#857=CARTESIAN_POINT('Ctrl Pts',(-2.50022354681184,32.2738438469275,-1.9841919159445));
#858=CARTESIAN_POINT('Ctrl Pts',(-2.39353602462823,31.9984672645606,-2.17549228020951));
#859=CARTESIAN_POINT('Ctrl Pts',(-2.24388489587666,31.384630624119,-2.43360643533165));
#860=CARTESIAN_POINT('Ctrl Pts',(-2.20229034343483,31.0456610344004,-2.5));
#861=CARTESIAN_POINT('Ctrl Pts',(-2.20229034343483,30.3993426794783,-2.5));
#862=CARTESIAN_POINT('Ctrl Pts',(-2.24388489587666,30.0603730897597,-2.43360643533165));
#863=CARTESIAN_POINT('Ctrl Pts',(-2.39353602462823,29.4465364493181,-2.17549228020951));
#864=CARTESIAN_POINT('Ctrl Pts',(-2.50022354681184,29.1711598669511,-1.9841919159445));
#865=CARTESIAN_POINT('Ctrl Pts',(-2.70834777426205,28.7367708823519,-1.54980293134537));
#866=CARTESIAN_POINT('Ctrl Pts',(-2.82544310208645,28.5465342006207,-1.27483736098602));
#867=CARTESIAN_POINT('Ctrl Pts',(-3.00076155979117,28.2893676492256,-0.663249326189472));
#868=CARTESIAN_POINT('Ctrl Pts',(-3.05497367324962,28.2225018569393,-0.325457253053841));
#869=CARTESIAN_POINT('Ctrl Pts',(-3.05497367324962,28.2225018569393,-2.42861286636753E-16));
#870=CARTESIAN_POINT('Origin',(-6.29353302227287,30.7225018569393,15.));
#871=CARTESIAN_POINT('',(-3.44329053132812,27.7874747020464,15.));
#872=CARTESIAN_POINT('',(-7.76013768492221,26.9031645556996,15.));
#873=CARTESIAN_POINT('Origin',(-6.29353302227287,30.7225018569393,15.));
#874=CARTESIAN_POINT('',(-3.44329053132812,27.7874747020464,-15.));
#875=CARTESIAN_POINT('',(-3.44329053132813,27.7874747020464,0.));
#876=CARTESIAN_POINT('',(-7.76013768492221,26.9031645556996,-15.));
#877=CARTESIAN_POINT('Origin',(-6.29353302227287,30.7225018569393,-15.));
#878=CARTESIAN_POINT('',(-7.76013768492219,26.9031645556996,0.));
#879=CARTESIAN_POINT('',(-10.3847757011109,30.7225018569393,2.5));
#880=CARTESIAN_POINT('Ctrl Pts',(-9.53209237129612,28.2225018569393,-3.46944695195361E-16));
#881=CARTESIAN_POINT('Ctrl Pts',(-9.53209237129612,28.2225018569393,-0.325457253053841));
#882=CARTESIAN_POINT('Ctrl Pts',(-9.58630448475457,28.2893676492256,-0.663249326189472));
#883=CARTESIAN_POINT('Ctrl Pts',(-9.76162294245929,28.5465342006207,-1.27483736098602));
#884=CARTESIAN_POINT('Ctrl Pts',(-9.87871827028368,28.7367708823519,-1.54980293134537));
#885=CARTESIAN_POINT('Ctrl Pts',(-10.0868424977339,29.1711598669511,-1.9841919159445));
#886=CARTESIAN_POINT('Ctrl Pts',(-10.1935300199175,29.4465364493181,-2.17549228020951));
#887=CARTESIAN_POINT('Ctrl Pts',(-10.3431811486691,30.0603730897597,-2.43360643533165));
#888=CARTESIAN_POINT('Ctrl Pts',(-10.3847757011109,30.3993426794783,-2.5));
#889=CARTESIAN_POINT('Ctrl Pts',(-10.3847757011109,31.0456610344004,-2.5));
#890=CARTESIAN_POINT('Ctrl Pts',(-10.3431811486691,31.384630624119,-2.43360643533165));
#891=CARTESIAN_POINT('Ctrl Pts',(-10.1935300199175,31.9984672645606,-2.17549228020951));
#892=CARTESIAN_POINT('Ctrl Pts',(-10.0868424977339,32.2738438469275,-1.9841919159445));
#893=CARTESIAN_POINT('Ctrl Pts',(-9.87871827028368,32.7082328315267,-1.54980293134537));
#894=CARTESIAN_POINT('Ctrl Pts',(-9.7616229424593,32.8984695132579,-1.27483736098602));
#895=CARTESIAN_POINT('Ctrl Pts',(-9.58630448475457,33.155636064653,-0.663249326189476));
#896=CARTESIAN_POINT('Ctrl Pts',(-9.53209237129612,33.2225018569393,-0.325457253053841));
#897=CARTESIAN_POINT('Ctrl Pts',(-9.53209237129612,33.2225018569393,0.325457253053841));
#898=CARTESIAN_POINT('Ctrl Pts',(-9.58630448475457,33.155636064653,0.663249326189474));
#899=CARTESIAN_POINT('Ctrl Pts',(-9.76162294245929,32.8984695132579,1.27483736098602));
#900=CARTESIAN_POINT('Ctrl Pts',(-9.87871827028368,32.7082328315267,1.54980293134537));
#901=CARTESIAN_POINT('Ctrl Pts',(-10.0868424977339,32.2738438469275,1.98419191594451));
#902=CARTESIAN_POINT('Ctrl Pts',(-10.1935300199175,31.9984672645606,2.17549228020951));
#903=CARTESIAN_POINT('Ctrl Pts',(-10.3431811486691,31.384630624119,2.43360643533165));
#904=CARTESIAN_POINT('Ctrl Pts',(-10.3847757011109,31.0456610344004,2.5));
#905=CARTESIAN_POINT('Ctrl Pts',(-10.3847757011109,30.3993426794783,2.5));
#906=CARTESIAN_POINT('Ctrl Pts',(-10.3431811486691,30.0603730897596,2.43360643533165));
#907=CARTESIAN_POINT('Ctrl Pts',(-10.1935300199175,29.446536449318,2.1754922802095));
#908=CARTESIAN_POINT('Ctrl Pts',(-10.0868424977339,29.1711598669511,1.98419191594451));
#909=CARTESIAN_POINT('Ctrl Pts',(-9.87871827028368,28.7367708823519,1.54980293134537));
#910=CARTESIAN_POINT('Ctrl Pts',(-9.76162294245929,28.5465342006207,1.27483736098602));
#911=CARTESIAN_POINT('Ctrl Pts',(-9.58630448475457,28.2893676492256,0.663249326189474));
#912=CARTESIAN_POINT('Ctrl Pts',(-9.53209237129612,28.2225018569393,0.325457253053841));
#913=CARTESIAN_POINT('Ctrl Pts',(-9.53209237129612,28.2225018569393,-1.38777878078145E-16));
#914=CARTESIAN_POINT('Origin',(6.29353302227287,30.7225018569393,15.));
#915=CARTESIAN_POINT('',(7.76013768492223,26.9031645556996,15.));
#916=CARTESIAN_POINT('',(3.4432905313281,27.7874747020464,15.));
#917=CARTESIAN_POINT('Origin',(6.29353302227287,30.7225018569393,15.));
#918=CARTESIAN_POINT('',(7.76013768492221,26.9031645556996,-15.));
#919=CARTESIAN_POINT('',(7.76013768492223,26.9031645556996,0.));
#920=CARTESIAN_POINT('',(3.44329053132812,27.7874747020464,-15.));
#921=CARTESIAN_POINT('Origin',(6.29353302227287,30.7225018569393,-15.));
#922=CARTESIAN_POINT('',(3.4432905313281,27.7874747020464,0.));
#923=CARTESIAN_POINT('Origin',(0.,0.,30.));
#924=CARTESIAN_POINT('',(2.5,19.8431348329844,30.));
#925=CARTESIAN_POINT('',(-2.5,19.8431348329844,30.));
#926=CARTESIAN_POINT('Origin',(0.,0.,30.));
#927=CARTESIAN_POINT('',(2.5,19.8431348329844,-30.));
#928=CARTESIAN_POINT('',(2.5,19.8431348329844,30.));
#929=CARTESIAN_POINT('',(-2.5,19.8431348329844,-30.));
#930=CARTESIAN_POINT('Origin',(0.,0.,-30.));
#931=CARTESIAN_POINT('',(-2.5,19.8431348329844,30.));
#932=CARTESIAN_POINT('Origin',(0.,0.,30.));
#933=CARTESIAN_POINT('',(-2.5,27.8881695347687,30.));
#934=CARTESIAN_POINT('',(2.5,27.8881695347687,30.));
#935=CARTESIAN_POINT('Origin',(0.,0.,30.));
#936=CARTESIAN_POINT('',(-2.5,27.8881695347687,-30.));
#937=CARTESIAN_POINT('',(-2.5,27.8881695347687,30.));
#938=CARTESIAN_POINT('',(2.5,27.8881695347687,-30.));
#939=CARTESIAN_POINT('Origin',(0.,0.,-30.));
#940=CARTESIAN_POINT('',(2.5,27.8881695347687,30.));
#941=CARTESIAN_POINT('Origin',(0.,0.,15.));
#942=CARTESIAN_POINT('Origin',(0.,0.,-15.));
#943=CARTESIAN_POINT('',(-9.99999999999999,-26.153393661244,-20.));
#944=CARTESIAN_POINT('',(9.99999999999999,-26.153393661244,-20.));
#945=CARTESIAN_POINT('Origin',(0.,0.,-20.));
#946=CARTESIAN_POINT('',(-9.99999999999999,-26.153393661244,0.));
#947=CARTESIAN_POINT('',(-10.,-26.153393661244,30.));
#948=CARTESIAN_POINT('',(9.99999999999999,-26.153393661244,0.));
#949=CARTESIAN_POINT('Origin',(0.,0.,0.));
#950=CARTESIAN_POINT('',(10.,-26.153393661244,30.));
#951=CARTESIAN_POINT('Origin',(0.,0.,15.));
#952=CARTESIAN_POINT('Origin',(0.,0.,-15.));
#953=CARTESIAN_POINT('Origin',(-20.,30.7225018569393,0.));
#954=CARTESIAN_POINT('',(-15.,30.7225018569393,2.5));
#955=CARTESIAN_POINT('',(-20.,30.7225018569393,2.5));
#956=CARTESIAN_POINT('Origin',(-15.,30.7225018569393,0.));
#957=CARTESIAN_POINT('Origin',(2.5,27.8881695347687,30.));
#958=CARTESIAN_POINT('',(2.5,27.8881695347687,-30.));
#959=CARTESIAN_POINT('',(2.5,27.8881695347687,30.));
#960=CARTESIAN_POINT('Origin',(-2.5,27.8881695347687,30.));
#961=CARTESIAN_POINT('',(-2.5,27.8881695347687,-30.));
#962=CARTESIAN_POINT('',(-2.5,27.8881695347687,30.));
#963=CARTESIAN_POINT('Origin',(0.,0.,30.));
#964=CARTESIAN_POINT('Origin',(0.,0.,-30.));
#965=CARTESIAN_POINT('Origin',(6.29353302227287,30.7225018569393,15.));
#966=CARTESIAN_POINT('Origin',(6.29353302227287,30.7225018569393,-15.));
#967=CARTESIAN_POINT('Origin',(-6.29353302227287,30.7225018569393,15.));
#968=CARTESIAN_POINT('Origin',(-6.29353302227287,30.7225018569393,-15.));
#969=CARTESIAN_POINT('Origin',(-10.,-23.017078081682,-20.));
#970=CARTESIAN_POINT('',(-10.,-36.,-20.));
#971=CARTESIAN_POINT('',(-10.,-23.017078081682,-20.));
#972=CARTESIAN_POINT('',(-10.,-36.,0.));
#973=CARTESIAN_POINT('',(-10.,-36.,-20.));
#974=CARTESIAN_POINT('',(-10.,-23.017078081682,0.));
#975=CARTESIAN_POINT('Origin',(10.,-23.017078081682,-20.));
#976=CARTESIAN_POINT('',(10.,-36.,0.));
#977=CARTESIAN_POINT('',(10.,-23.017078081682,0.));
#978=CARTESIAN_POINT('',(10.,-36.,-20.));
#979=CARTESIAN_POINT('',(10.,-36.,-20.));
#980=CARTESIAN_POINT('',(10.,-23.017078081682,-20.));
#981=CARTESIAN_POINT('Origin',(-10.,-36.,-20.));
#982=CARTESIAN_POINT('',(-10.,-36.,0.));
#983=CARTESIAN_POINT('',(-10.,-36.,-20.));
#984=CARTESIAN_POINT('Origin',(0.,0.,-20.));
#985=CARTESIAN_POINT('Origin',(0.,0.,0.));
#986=CARTESIAN_POINT('Origin',(20.,30.7225018569393,0.));
#987=CARTESIAN_POINT('Origin',(-15.,30.7225018569393,0.));
#988=CARTESIAN_POINT('Origin',(-20.,30.7225018569393,0.));
#989=CARTESIAN_POINT('',(-20.,27.9725018569393,1.58771324027147));
#990=CARTESIAN_POINT('',(-20.,30.7225018569393,3.17542648054294));
#991=CARTESIAN_POINT('',(-20.,27.9725018569393,1.58771324027147));
#992=CARTESIAN_POINT('',(-20.,27.9725018569393,-1.58771324027147));
#993=CARTESIAN_POINT('',(-20.,27.9725018569393,-1.58771324027147));
#994=CARTESIAN_POINT('',(-20.,30.7225018569393,-3.17542648054294));
#995=CARTESIAN_POINT('',(-20.,30.7225018569393,-3.17542648054294));
#996=CARTESIAN_POINT('',(-20.,33.4725018569393,-1.58771324027147));
#997=CARTESIAN_POINT('',(-20.,33.4725018569393,-1.58771324027147));
#998=CARTESIAN_POINT('',(-20.,33.4725018569393,1.58771324027147));
#999=CARTESIAN_POINT('',(-20.,33.4725018569393,1.58771324027147));
#1000=CARTESIAN_POINT('',(-20.,30.7225018569393,3.17542648054294));
#1001=CARTESIAN_POINT('Origin',(-17.,27.9725018569393,-1.58771324027147));
#1002=CARTESIAN_POINT('',(-17.,27.9725018569393,1.58771324027147));
#1003=CARTESIAN_POINT('',(-17.,27.9725018569393,1.58771324027147));
#1004=CARTESIAN_POINT('',(-17.,27.9725018569393,-1.58771324027147));
#1005=CARTESIAN_POINT('',(-17.,27.9725018569393,-1.58771324027147));
#1006=CARTESIAN_POINT('',(-17.,27.9725018569393,-1.58771324027147));
#1007=CARTESIAN_POINT('Origin',(-17.,30.7225018569393,-3.17542648054294));
#1008=CARTESIAN_POINT('',(-17.,30.7225018569393,-3.17542648054294));
#1009=CARTESIAN_POINT('',(-17.,30.7225018569393,-3.17542648054294));
#1010=CARTESIAN_POINT('',(-17.,30.7225018569393,-3.17542648054294));
#1011=CARTESIAN_POINT('Origin',(-17.,33.4725018569393,-1.58771324027147));
#1012=CARTESIAN_POINT('',(-17.,33.4725018569393,-1.58771324027147));
#1013=CARTESIAN_POINT('',(-17.,33.4725018569393,-1.58771324027147));
#1014=CARTESIAN_POINT('',(-17.,33.4725018569393,-1.58771324027147));
#1015=CARTESIAN_POINT('Origin',(-17.,33.4725018569393,1.58771324027147));
#1016=CARTESIAN_POINT('',(-17.,33.4725018569393,1.58771324027147));
#1017=CARTESIAN_POINT('',(-17.,33.4725018569393,1.58771324027147));
#1018=CARTESIAN_POINT('',(-17.,33.4725018569393,1.58771324027147));
#1019=CARTESIAN_POINT('Origin',(-17.,30.7225018569393,3.17542648054294));
#1020=CARTESIAN_POINT('',(-17.,30.7225018569393,3.17542648054294));
#1021=CARTESIAN_POINT('',(-17.,30.7225018569393,3.17542648054294));
#1022=CARTESIAN_POINT('',(-17.,30.7225018569393,3.17542648054294));
#1023=CARTESIAN_POINT('Origin',(-17.,27.9725018569393,1.58771324027147));
#1024=CARTESIAN_POINT('',(-17.,27.9725018569393,1.58771324027147));
#1025=CARTESIAN_POINT('Origin',(-17.,0.,0.));
#1026=UNCERTAINTY_MEASURE_WITH_UNIT(LENGTH_MEASURE(0.01),#1030,
'DISTANCE_ACCURACY_VALUE',
'Maximum model space distance between geometric entities at asserted c
onnectivities');
#1027=UNCERTAINTY_MEASURE_WITH_UNIT(LENGTH_MEASURE(0.01),#1030,
'DISTANCE_ACCURACY_VALUE',
'Maximum model space distance between geometric entities at asserted c
onnectivities');
#1028=(
GEOMETRIC_REPRESENTATION_CONTEXT(3)
GLOBAL_UNCERTAINTY_ASSIGNED_CONTEXT((#1026))
GLOBAL_UNIT_ASSIGNED_CONTEXT((#1030,#1032,#1033))
REPRESENTATION_CONTEXT('','3D')
);
#1029=(
GEOMETRIC_REPRESENTATION_CONTEXT(3)
GLOBAL_UNCERTAINTY_ASSIGNED_CONTEXT((#1027))
GLOBAL_UNIT_ASSIGNED_CONTEXT((#1030,#1032,#1033))
REPRESENTATION_CONTEXT('','3D')
);
#1030=(
LENGTH_UNIT()
NAMED_UNIT(*)
SI_UNIT(.MILLI.,.METRE.)
);
#1031=(
LENGTH_UNIT()
NAMED_UNIT(*)
SI_UNIT($,.METRE.)
);
#1032=(
NAMED_UNIT(*)
PLANE_ANGLE_UNIT()
SI_UNIT($,.RADIAN.)
);
#1033=(
NAMED_UNIT(*)
SI_UNIT($,.STERADIAN.)
SOLID_ANGLE_UNIT()
);
#1034=SHAPE_DEFINITION_REPRESENTATION(#1035,#1036);
#1035=PRODUCT_DEFINITION_SHAPE('',$,#1038);
#1036=SHAPE_REPRESENTATION('',(#540),#1028);
#1037=PRODUCT_DEFINITION_CONTEXT('part definition',#1042,'design');
#1038=PRODUCT_DEFINITION('Heat_band','Heat_band v1',#1039,#1037);
#1039=PRODUCT_DEFINITION_FORMATION('',$,#1044);
#1040=PRODUCT_RELATED_PRODUCT_CATEGORY('Heat_band v1','Heat_band v1',(#1044));
#1041=APPLICATION_PROTOCOL_DEFINITION('international standard',
'automotive_design',2009,#1042);
#1042=APPLICATION_CONTEXT(
'Core Data for Automotive Mechanical Design Process');
#1043=PRODUCT_CONTEXT('part definition',#1042,'mechanical');
#1044=PRODUCT('Heat_band','Heat_band v1',$,(#1043));
#1045=PRESENTATION_STYLE_ASSIGNMENT((#1046));
#1046=SURFACE_STYLE_USAGE(.BOTH.,#1047);
#1047=SURFACE_SIDE_STYLE('',(#1048));
#1048=SURFACE_STYLE_FILL_AREA(#1049);
#1049=FILL_AREA_STYLE('Steel - Satin',(#1050));
#1050=FILL_AREA_STYLE_COLOUR('Steel - Satin',#1051);
#1051=COLOUR_RGB('Steel - Satin',0.627450980392157,0.627450980392157,0.627450980392157);
ENDSEC;
END-ISO-10303-21;
