ISO-10303-21;
HEADER;
/* Generated by software containing ST-Developer
 * from STEP Tools, Inc. (www.steptools.com) 
 */

FILE_DESCRIPTION(
/* description */ (''),
/* implementation_level */ '2;1');

FILE_NAME(
/* name */ 'fixed jaw v1.step',
/* time_stamp */ '2026-03-14T10:14:57+01:00',
/* author */ (''),
/* organization */ (''),
/* preprocessor_version */ 'ST-DEVELOPER v20.1',
/* originating_system */ 'Autodesk Translation Framework v14.24.0.0',
/* authorisation */ '');

FILE_SCHEMA (('AUTOMOTIVE_DESIGN { 1 0 10303 214 3 1 1 }'));
ENDSEC;

DATA;
#10=MECHANICAL_DESIGN_GEOMETRIC_PRESENTATION_REPRESENTATION('',(#13),#423);
#11=SHAPE_REPRESENTATION_RELATIONSHIP('SRR','None',#430,#12);
#12=ADVANCED_BREP_SHAPE_REPRESENTATION('',(#14),#422);
#13=STYLED_ITEM('',(#439),#14);
#14=MANIFOLD_SOLID_BREP('Body1',#247);
#15=LINE('',#365,#33);
#16=LINE('',#368,#34);
#17=LINE('',#374,#35);
#18=LINE('',#380,#36);
#19=LINE('',#386,#37);
#20=LINE('',#392,#38);
#21=LINE('',#397,#39);
#22=LINE('',#399,#40);
#23=LINE('',#401,#41);
#24=LINE('',#402,#42);
#25=LINE('',#405,#43);
#26=LINE('',#407,#44);
#27=LINE('',#408,#45);
#28=LINE('',#411,#46);
#29=LINE('',#413,#47);
#30=LINE('',#414,#48);
#31=LINE('',#416,#49);
#32=LINE('',#417,#50);
#33=VECTOR('',#298,35.);
#34=VECTOR('',#301,20.);
#35=VECTOR('',#308,15.);
#36=VECTOR('',#315,15.);
#37=VECTOR('',#322,15.);
#38=VECTOR('',#329,15.);
#39=VECTOR('',#334,10.);
#40=VECTOR('',#335,10.);
#41=VECTOR('',#336,10.);
#42=VECTOR('',#337,10.);
#43=VECTOR('',#340,10.);
#44=VECTOR('',#341,10.);
#45=VECTOR('',#342,10.);
#46=VECTOR('',#345,10.);
#47=VECTOR('',#346,10.);
#48=VECTOR('',#347,10.);
#49=VECTOR('',#350,10.);
#50=VECTOR('',#351,10.);
#51=CYLINDRICAL_SURFACE('',#264,35.);
#52=CYLINDRICAL_SURFACE('',#266,20.);
#53=CYLINDRICAL_SURFACE('',#268,15.);
#54=CYLINDRICAL_SURFACE('',#271,15.);
#55=CYLINDRICAL_SURFACE('',#274,15.);
#56=CYLINDRICAL_SURFACE('',#277,15.);
#57=FACE_BOUND('',#82,.T.);
#58=FACE_BOUND('',#94,.T.);
#59=FACE_BOUND('',#95,.T.);
#60=FACE_BOUND('',#96,.T.);
#61=FACE_BOUND('',#97,.T.);
#62=FACE_BOUND('',#98,.T.);
#63=FACE_BOUND('',#100,.T.);
#64=FACE_BOUND('',#101,.T.);
#65=FACE_BOUND('',#102,.T.);
#66=FACE_BOUND('',#103,.T.);
#67=FACE_BOUND('',#104,.T.);
#68=FACE_OUTER_BOUND('',#81,.T.);
#69=FACE_OUTER_BOUND('',#83,.T.);
#70=FACE_OUTER_BOUND('',#84,.T.);
#71=FACE_OUTER_BOUND('',#85,.T.);
#72=FACE_OUTER_BOUND('',#86,.T.);
#73=FACE_OUTER_BOUND('',#87,.T.);
#74=FACE_OUTER_BOUND('',#88,.T.);
#75=FACE_OUTER_BOUND('',#89,.T.);
#76=FACE_OUTER_BOUND('',#90,.T.);
#77=FACE_OUTER_BOUND('',#91,.T.);
#78=FACE_OUTER_BOUND('',#92,.T.);
#79=FACE_OUTER_BOUND('',#93,.T.);
#80=FACE_OUTER_BOUND('',#99,.T.);
#81=EDGE_LOOP('',(#167));
#82=EDGE_LOOP('',(#168));
#83=EDGE_LOOP('',(#169,#170,#171,#172));
#84=EDGE_LOOP('',(#173,#174,#175,#176));
#85=EDGE_LOOP('',(#177,#178,#179,#180));
#86=EDGE_LOOP('',(#181,#182,#183,#184));
#87=EDGE_LOOP('',(#185,#186,#187,#188));
#88=EDGE_LOOP('',(#189,#190,#191,#192));
#89=EDGE_LOOP('',(#193,#194,#195,#196));
#90=EDGE_LOOP('',(#197,#198,#199,#200));
#91=EDGE_LOOP('',(#201,#202,#203,#204));
#92=EDGE_LOOP('',(#205,#206,#207,#208));
#93=EDGE_LOOP('',(#209,#210,#211,#212));
#94=EDGE_LOOP('',(#213));
#95=EDGE_LOOP('',(#214));
#96=EDGE_LOOP('',(#215));
#97=EDGE_LOOP('',(#216));
#98=EDGE_LOOP('',(#217));
#99=EDGE_LOOP('',(#218,#219,#220,#221));
#100=EDGE_LOOP('',(#222));
#101=EDGE_LOOP('',(#223));
#102=EDGE_LOOP('',(#224));
#103=EDGE_LOOP('',(#225));
#104=EDGE_LOOP('',(#226));
#105=CIRCLE('',#262,35.);
#106=CIRCLE('',#263,20.);
#107=CIRCLE('',#265,35.);
#108=CIRCLE('',#267,20.);
#109=CIRCLE('',#269,15.);
#110=CIRCLE('',#270,15.);
#111=CIRCLE('',#272,15.);
#112=CIRCLE('',#273,15.);
#113=CIRCLE('',#275,15.);
#114=CIRCLE('',#276,15.);
#115=CIRCLE('',#278,15.);
#116=CIRCLE('',#279,15.);
#117=VERTEX_POINT('',#358);
#118=VERTEX_POINT('',#360);
#119=VERTEX_POINT('',#363);
#120=VERTEX_POINT('',#367);
#121=VERTEX_POINT('',#371);
#122=VERTEX_POINT('',#373);
#123=VERTEX_POINT('',#377);
#124=VERTEX_POINT('',#379);
#125=VERTEX_POINT('',#383);
#126=VERTEX_POINT('',#385);
#127=VERTEX_POINT('',#389);
#128=VERTEX_POINT('',#391);
#129=VERTEX_POINT('',#395);
#130=VERTEX_POINT('',#396);
#131=VERTEX_POINT('',#398);
#132=VERTEX_POINT('',#400);
#133=VERTEX_POINT('',#404);
#134=VERTEX_POINT('',#406);
#135=VERTEX_POINT('',#410);
#136=VERTEX_POINT('',#412);
#137=EDGE_CURVE('',#117,#117,#105,.T.);
#138=EDGE_CURVE('',#118,#118,#106,.T.);
#139=EDGE_CURVE('',#119,#119,#107,.T.);
#140=EDGE_CURVE('',#119,#117,#15,.T.);
#141=EDGE_CURVE('',#118,#120,#16,.T.);
#142=EDGE_CURVE('',#120,#120,#108,.T.);
#143=EDGE_CURVE('',#121,#121,#109,.T.);
#144=EDGE_CURVE('',#121,#122,#17,.T.);
#145=EDGE_CURVE('',#122,#122,#110,.T.);
#146=EDGE_CURVE('',#123,#123,#111,.T.);
#147=EDGE_CURVE('',#123,#124,#18,.T.);
#148=EDGE_CURVE('',#124,#124,#112,.T.);
#149=EDGE_CURVE('',#125,#125,#113,.T.);
#150=EDGE_CURVE('',#125,#126,#19,.T.);
#151=EDGE_CURVE('',#126,#126,#114,.T.);
#152=EDGE_CURVE('',#127,#127,#115,.T.);
#153=EDGE_CURVE('',#127,#128,#20,.T.);
#154=EDGE_CURVE('',#128,#128,#116,.T.);
#155=EDGE_CURVE('',#129,#130,#21,.T.);
#156=EDGE_CURVE('',#129,#131,#22,.T.);
#157=EDGE_CURVE('',#132,#131,#23,.T.);
#158=EDGE_CURVE('',#130,#132,#24,.T.);
#159=EDGE_CURVE('',#130,#133,#25,.T.);
#160=EDGE_CURVE('',#134,#132,#26,.T.);
#161=EDGE_CURVE('',#133,#134,#27,.T.);
#162=EDGE_CURVE('',#133,#135,#28,.T.);
#163=EDGE_CURVE('',#136,#134,#29,.T.);
#164=EDGE_CURVE('',#135,#136,#30,.T.);
#165=EDGE_CURVE('',#135,#129,#31,.T.);
#166=EDGE_CURVE('',#131,#136,#32,.T.);
#167=ORIENTED_EDGE('',*,*,#137,.F.);
#168=ORIENTED_EDGE('',*,*,#138,.T.);
#169=ORIENTED_EDGE('',*,*,#139,.F.);
#170=ORIENTED_EDGE('',*,*,#140,.T.);
#171=ORIENTED_EDGE('',*,*,#137,.T.);
#172=ORIENTED_EDGE('',*,*,#140,.F.);
#173=ORIENTED_EDGE('',*,*,#138,.F.);
#174=ORIENTED_EDGE('',*,*,#141,.T.);
#175=ORIENTED_EDGE('',*,*,#142,.F.);
#176=ORIENTED_EDGE('',*,*,#141,.F.);
#177=ORIENTED_EDGE('',*,*,#143,.F.);
#178=ORIENTED_EDGE('',*,*,#144,.T.);
#179=ORIENTED_EDGE('',*,*,#145,.F.);
#180=ORIENTED_EDGE('',*,*,#144,.F.);
#181=ORIENTED_EDGE('',*,*,#146,.F.);
#182=ORIENTED_EDGE('',*,*,#147,.T.);
#183=ORIENTED_EDGE('',*,*,#148,.F.);
#184=ORIENTED_EDGE('',*,*,#147,.F.);
#185=ORIENTED_EDGE('',*,*,#149,.F.);
#186=ORIENTED_EDGE('',*,*,#150,.T.);
#187=ORIENTED_EDGE('',*,*,#151,.F.);
#188=ORIENTED_EDGE('',*,*,#150,.F.);
#189=ORIENTED_EDGE('',*,*,#152,.F.);
#190=ORIENTED_EDGE('',*,*,#153,.T.);
#191=ORIENTED_EDGE('',*,*,#154,.F.);
#192=ORIENTED_EDGE('',*,*,#153,.F.);
#193=ORIENTED_EDGE('',*,*,#155,.F.);
#194=ORIENTED_EDGE('',*,*,#156,.T.);
#195=ORIENTED_EDGE('',*,*,#157,.F.);
#196=ORIENTED_EDGE('',*,*,#158,.F.);
#197=ORIENTED_EDGE('',*,*,#159,.F.);
#198=ORIENTED_EDGE('',*,*,#158,.T.);
#199=ORIENTED_EDGE('',*,*,#160,.F.);
#200=ORIENTED_EDGE('',*,*,#161,.F.);
#201=ORIENTED_EDGE('',*,*,#162,.F.);
#202=ORIENTED_EDGE('',*,*,#161,.T.);
#203=ORIENTED_EDGE('',*,*,#163,.F.);
#204=ORIENTED_EDGE('',*,*,#164,.F.);
#205=ORIENTED_EDGE('',*,*,#165,.F.);
#206=ORIENTED_EDGE('',*,*,#164,.T.);
#207=ORIENTED_EDGE('',*,*,#166,.F.);
#208=ORIENTED_EDGE('',*,*,#156,.F.);
#209=ORIENTED_EDGE('',*,*,#166,.T.);
#210=ORIENTED_EDGE('',*,*,#163,.T.);
#211=ORIENTED_EDGE('',*,*,#160,.T.);
#212=ORIENTED_EDGE('',*,*,#157,.T.);
#213=ORIENTED_EDGE('',*,*,#139,.T.);
#214=ORIENTED_EDGE('',*,*,#143,.T.);
#215=ORIENTED_EDGE('',*,*,#146,.T.);
#216=ORIENTED_EDGE('',*,*,#149,.T.);
#217=ORIENTED_EDGE('',*,*,#152,.T.);
#218=ORIENTED_EDGE('',*,*,#165,.T.);
#219=ORIENTED_EDGE('',*,*,#155,.T.);
#220=ORIENTED_EDGE('',*,*,#159,.T.);
#221=ORIENTED_EDGE('',*,*,#162,.T.);
#222=ORIENTED_EDGE('',*,*,#142,.T.);
#223=ORIENTED_EDGE('',*,*,#145,.T.);
#224=ORIENTED_EDGE('',*,*,#148,.T.);
#225=ORIENTED_EDGE('',*,*,#151,.T.);
#226=ORIENTED_EDGE('',*,*,#154,.T.);
#227=PLANE('',#261);
#228=PLANE('',#280);
#229=PLANE('',#281);
#230=PLANE('',#282);
#231=PLANE('',#283);
#232=PLANE('',#284);
#233=PLANE('',#285);
#234=ADVANCED_FACE('',(#68,#57),#227,.F.);
#235=ADVANCED_FACE('',(#69),#51,.F.);
#236=ADVANCED_FACE('',(#70),#52,.F.);
#237=ADVANCED_FACE('',(#71),#53,.F.);
#238=ADVANCED_FACE('',(#72),#54,.F.);
#239=ADVANCED_FACE('',(#73),#55,.F.);
#240=ADVANCED_FACE('',(#74),#56,.F.);
#241=ADVANCED_FACE('',(#75),#228,.T.);
#242=ADVANCED_FACE('',(#76),#229,.T.);
#243=ADVANCED_FACE('',(#77),#230,.T.);
#244=ADVANCED_FACE('',(#78),#231,.T.);
#245=ADVANCED_FACE('',(#79,#58,#59,#60,#61,#62),#232,.T.);
#246=ADVANCED_FACE('',(#80,#63,#64,#65,#66,#67),#233,.F.);
#247=CLOSED_SHELL('',(#234,#235,#236,#237,#238,#239,#240,#241,#242,#243,
#244,#245,#246));
#248=DERIVED_UNIT_ELEMENT(#250,1.);
#249=DERIVED_UNIT_ELEMENT(#425,-3.);
#250=(
MASS_UNIT()
NAMED_UNIT(*)
SI_UNIT(.KILO.,.GRAM.)
);
#251=DERIVED_UNIT((#248,#249));
#252=MEASURE_REPRESENTATION_ITEM('density measure',
POSITIVE_RATIO_MEASURE(7850.),#251);
#253=PROPERTY_DEFINITION_REPRESENTATION(#258,#255);
#254=PROPERTY_DEFINITION_REPRESENTATION(#259,#256);
#255=REPRESENTATION('material name',(#257),#422);
#256=REPRESENTATION('density',(#252),#422);
#257=DESCRIPTIVE_REPRESENTATION_ITEM('Steel','Steel');
#258=PROPERTY_DEFINITION('material property','material name',#432);
#259=PROPERTY_DEFINITION('material property','density of part',#432);
#260=AXIS2_PLACEMENT_3D('',#356,#286,#287);
#261=AXIS2_PLACEMENT_3D('',#357,#288,#289);
#262=AXIS2_PLACEMENT_3D('',#359,#290,#291);
#263=AXIS2_PLACEMENT_3D('',#361,#292,#293);
#264=AXIS2_PLACEMENT_3D('',#362,#294,#295);
#265=AXIS2_PLACEMENT_3D('',#364,#296,#297);
#266=AXIS2_PLACEMENT_3D('',#366,#299,#300);
#267=AXIS2_PLACEMENT_3D('',#369,#302,#303);
#268=AXIS2_PLACEMENT_3D('',#370,#304,#305);
#269=AXIS2_PLACEMENT_3D('',#372,#306,#307);
#270=AXIS2_PLACEMENT_3D('',#375,#309,#310);
#271=AXIS2_PLACEMENT_3D('',#376,#311,#312);
#272=AXIS2_PLACEMENT_3D('',#378,#313,#314);
#273=AXIS2_PLACEMENT_3D('',#381,#316,#317);
#274=AXIS2_PLACEMENT_3D('',#382,#318,#319);
#275=AXIS2_PLACEMENT_3D('',#384,#320,#321);
#276=AXIS2_PLACEMENT_3D('',#387,#323,#324);
#277=AXIS2_PLACEMENT_3D('',#388,#325,#326);
#278=AXIS2_PLACEMENT_3D('',#390,#327,#328);
#279=AXIS2_PLACEMENT_3D('',#393,#330,#331);
#280=AXIS2_PLACEMENT_3D('',#394,#332,#333);
#281=AXIS2_PLACEMENT_3D('',#403,#338,#339);
#282=AXIS2_PLACEMENT_3D('',#409,#343,#344);
#283=AXIS2_PLACEMENT_3D('',#415,#348,#349);
#284=AXIS2_PLACEMENT_3D('',#418,#352,#353);
#285=AXIS2_PLACEMENT_3D('',#419,#354,#355);
#286=DIRECTION('axis',(0.,0.,1.));
#287=DIRECTION('refdir',(1.,0.,0.));
#288=DIRECTION('center_axis',(0.,0.,-1.));
#289=DIRECTION('ref_axis',(1.,0.,0.));
#290=DIRECTION('center_axis',(0.,0.,-1.));
#291=DIRECTION('ref_axis',(1.,0.,0.));
#292=DIRECTION('center_axis',(0.,0.,-1.));
#293=DIRECTION('ref_axis',(1.,0.,0.));
#294=DIRECTION('center_axis',(0.,0.,-1.));
#295=DIRECTION('ref_axis',(1.,0.,0.));
#296=DIRECTION('center_axis',(0.,0.,-1.));
#297=DIRECTION('ref_axis',(1.,0.,0.));
#298=DIRECTION('',(0.,0.,-1.));
#299=DIRECTION('center_axis',(0.,0.,-1.));
#300=DIRECTION('ref_axis',(1.,0.,0.));
#301=DIRECTION('',(0.,0.,-1.));
#302=DIRECTION('center_axis',(0.,0.,1.));
#303=DIRECTION('ref_axis',(1.,0.,0.));
#304=DIRECTION('center_axis',(0.,0.,-1.));
#305=DIRECTION('ref_axis',(1.,0.,0.));
#306=DIRECTION('center_axis',(0.,0.,-1.));
#307=DIRECTION('ref_axis',(1.,0.,0.));
#308=DIRECTION('',(0.,0.,-1.));
#309=DIRECTION('center_axis',(0.,0.,1.));
#310=DIRECTION('ref_axis',(1.,0.,0.));
#311=DIRECTION('center_axis',(0.,0.,-1.));
#312=DIRECTION('ref_axis',(1.,0.,0.));
#313=DIRECTION('center_axis',(0.,0.,-1.));
#314=DIRECTION('ref_axis',(1.,0.,0.));
#315=DIRECTION('',(0.,0.,-1.));
#316=DIRECTION('center_axis',(0.,0.,1.));
#317=DIRECTION('ref_axis',(1.,0.,0.));
#318=DIRECTION('center_axis',(0.,0.,-1.));
#319=DIRECTION('ref_axis',(1.,0.,0.));
#320=DIRECTION('center_axis',(0.,0.,-1.));
#321=DIRECTION('ref_axis',(1.,0.,0.));
#322=DIRECTION('',(0.,0.,-1.));
#323=DIRECTION('center_axis',(0.,0.,1.));
#324=DIRECTION('ref_axis',(1.,0.,0.));
#325=DIRECTION('center_axis',(0.,0.,-1.));
#326=DIRECTION('ref_axis',(1.,0.,0.));
#327=DIRECTION('center_axis',(0.,0.,-1.));
#328=DIRECTION('ref_axis',(1.,0.,0.));
#329=DIRECTION('',(0.,0.,-1.));
#330=DIRECTION('center_axis',(0.,0.,1.));
#331=DIRECTION('ref_axis',(1.,0.,0.));
#332=DIRECTION('center_axis',(1.,0.,0.));
#333=DIRECTION('ref_axis',(0.,1.,0.));
#334=DIRECTION('',(0.,-1.,0.));
#335=DIRECTION('',(0.,0.,1.));
#336=DIRECTION('',(0.,1.,0.));
#337=DIRECTION('',(0.,0.,1.));
#338=DIRECTION('center_axis',(0.,-1.,0.));
#339=DIRECTION('ref_axis',(1.,0.,0.));
#340=DIRECTION('',(-1.,0.,0.));
#341=DIRECTION('',(1.,0.,0.));
#342=DIRECTION('',(0.,0.,1.));
#343=DIRECTION('center_axis',(-1.,0.,0.));
#344=DIRECTION('ref_axis',(0.,-1.,0.));
#345=DIRECTION('',(0.,1.,0.));
#346=DIRECTION('',(0.,-1.,0.));
#347=DIRECTION('',(0.,0.,1.));
#348=DIRECTION('center_axis',(0.,1.,0.));
#349=DIRECTION('ref_axis',(-1.,0.,0.));
#350=DIRECTION('',(1.,0.,0.));
#351=DIRECTION('',(-1.,0.,0.));
#352=DIRECTION('center_axis',(0.,0.,1.));
#353=DIRECTION('ref_axis',(1.,0.,0.));
#354=DIRECTION('center_axis',(0.,0.,1.));
#355=DIRECTION('ref_axis',(1.,0.,0.));
#356=CARTESIAN_POINT('',(0.,0.,0.));
#357=CARTESIAN_POINT('Origin',(0.,0.,13.));
#358=CARTESIAN_POINT('',(-35.,4.28626379701574E-15,13.));
#359=CARTESIAN_POINT('Origin',(0.,0.,13.));
#360=CARTESIAN_POINT('',(-20.,2.44929359829471E-15,13.));
#361=CARTESIAN_POINT('Origin',(0.,0.,13.));
#362=CARTESIAN_POINT('Origin',(0.,0.,19.));
#363=CARTESIAN_POINT('',(-35.,4.28626379701574E-15,25.));
#364=CARTESIAN_POINT('Origin',(0.,0.,25.));
#365=CARTESIAN_POINT('',(-35.,4.28626379701574E-15,19.));
#366=CARTESIAN_POINT('Origin',(0.,0.,0.));
#367=CARTESIAN_POINT('',(-20.,-2.44929359829471E-15,0.));
#368=CARTESIAN_POINT('',(-20.,2.44929359829471E-15,0.));
#369=CARTESIAN_POINT('Origin',(0.,0.,0.));
#370=CARTESIAN_POINT('Origin',(125.,-170.,12.5));
#371=CARTESIAN_POINT('',(110.,-170.,25.));
#372=CARTESIAN_POINT('Origin',(125.,-170.,25.));
#373=CARTESIAN_POINT('',(110.,-170.,0.));
#374=CARTESIAN_POINT('',(110.,-170.,12.5));
#375=CARTESIAN_POINT('Origin',(125.,-170.,0.));
#376=CARTESIAN_POINT('Origin',(-125.,170.,12.5));
#377=CARTESIAN_POINT('',(-140.,170.,25.));
#378=CARTESIAN_POINT('Origin',(-125.,170.,25.));
#379=CARTESIAN_POINT('',(-140.,170.,0.));
#380=CARTESIAN_POINT('',(-140.,170.,12.5));
#381=CARTESIAN_POINT('Origin',(-125.,170.,0.));
#382=CARTESIAN_POINT('Origin',(125.,170.,12.5));
#383=CARTESIAN_POINT('',(110.,170.,25.));
#384=CARTESIAN_POINT('Origin',(125.,170.,25.));
#385=CARTESIAN_POINT('',(110.,170.,0.));
#386=CARTESIAN_POINT('',(110.,170.,12.5));
#387=CARTESIAN_POINT('Origin',(125.,170.,0.));
#388=CARTESIAN_POINT('Origin',(-125.,-170.,12.5));
#389=CARTESIAN_POINT('',(-140.,-170.,25.));
#390=CARTESIAN_POINT('Origin',(-125.,-170.,25.));
#391=CARTESIAN_POINT('',(-140.,-170.,0.));
#392=CARTESIAN_POINT('',(-140.,-170.,12.5));
#393=CARTESIAN_POINT('Origin',(-125.,-170.,0.));
#394=CARTESIAN_POINT('Origin',(160.,-190.,0.));
#395=CARTESIAN_POINT('',(160.,190.,0.));
#396=CARTESIAN_POINT('',(160.,-190.,0.));
#397=CARTESIAN_POINT('',(160.,190.,0.));
#398=CARTESIAN_POINT('',(160.,190.,25.));
#399=CARTESIAN_POINT('',(160.,190.,0.));
#400=CARTESIAN_POINT('',(160.,-190.,25.));
#401=CARTESIAN_POINT('',(160.,190.,25.));
#402=CARTESIAN_POINT('',(160.,-190.,0.));
#403=CARTESIAN_POINT('Origin',(-160.,-190.,0.));
#404=CARTESIAN_POINT('',(-160.,-190.,0.));
#405=CARTESIAN_POINT('',(160.,-190.,0.));
#406=CARTESIAN_POINT('',(-160.,-190.,25.));
#407=CARTESIAN_POINT('',(160.,-190.,25.));
#408=CARTESIAN_POINT('',(-160.,-190.,0.));
#409=CARTESIAN_POINT('Origin',(-160.,190.,0.));
#410=CARTESIAN_POINT('',(-160.,190.,0.));
#411=CARTESIAN_POINT('',(-160.,-190.,0.));
#412=CARTESIAN_POINT('',(-160.,190.,25.));
#413=CARTESIAN_POINT('',(-160.,-190.,25.));
#414=CARTESIAN_POINT('',(-160.,190.,0.));
#415=CARTESIAN_POINT('Origin',(160.,190.,0.));
#416=CARTESIAN_POINT('',(-160.,190.,0.));
#417=CARTESIAN_POINT('',(-160.,190.,25.));
#418=CARTESIAN_POINT('Origin',(0.,0.,25.));
#419=CARTESIAN_POINT('Origin',(0.,0.,0.));
#420=UNCERTAINTY_MEASURE_WITH_UNIT(LENGTH_MEASURE(0.01),#424,
'DISTANCE_ACCURACY_VALUE',
'Maximum model space distance between geometric entities at asserted c
onnectivities');
#421=UNCERTAINTY_MEASURE_WITH_UNIT(LENGTH_MEASURE(0.01),#424,
'DISTANCE_ACCURACY_VALUE',
'Maximum model space distance between geometric entities at asserted c
onnectivities');
#422=(
GEOMETRIC_REPRESENTATION_CONTEXT(3)
GLOBAL_UNCERTAINTY_ASSIGNED_CONTEXT((#420))
GLOBAL_UNIT_ASSIGNED_CONTEXT((#424,#426,#427))
REPRESENTATION_CONTEXT('','3D')
);
#423=(
GEOMETRIC_REPRESENTATION_CONTEXT(3)
GLOBAL_UNCERTAINTY_ASSIGNED_CONTEXT((#421))
GLOBAL_UNIT_ASSIGNED_CONTEXT((#424,#426,#427))
REPRESENTATION_CONTEXT('','3D')
);
#424=(
LENGTH_UNIT()
NAMED_UNIT(*)
SI_UNIT(.MILLI.,.METRE.)
);
#425=(
LENGTH_UNIT()
NAMED_UNIT(*)
SI_UNIT($,.METRE.)
);
#426=(
NAMED_UNIT(*)
PLANE_ANGLE_UNIT()
SI_UNIT($,.RADIAN.)
);
#427=(
NAMED_UNIT(*)
SI_UNIT($,.STERADIAN.)
SOLID_ANGLE_UNIT()
);
#428=SHAPE_DEFINITION_REPRESENTATION(#429,#430);
#429=PRODUCT_DEFINITION_SHAPE('',$,#432);
#430=SHAPE_REPRESENTATION('',(#260),#422);
#431=PRODUCT_DEFINITION_CONTEXT('part definition',#436,'design');
#432=PRODUCT_DEFINITION('fixed jaw','fixed jaw v1',#433,#431);
#433=PRODUCT_DEFINITION_FORMATION('',$,#438);
#434=PRODUCT_RELATED_PRODUCT_CATEGORY('fixed jaw v1','fixed jaw v1',(#438));
#435=APPLICATION_PROTOCOL_DEFINITION('international standard',
'automotive_design',2009,#436);
#436=APPLICATION_CONTEXT(
'Core Data for Automotive Mechanical Design Process');
#437=PRODUCT_CONTEXT('part definition',#436,'mechanical');
#438=PRODUCT('fixed jaw','fixed jaw v1',$,(#437));
#439=PRESENTATION_STYLE_ASSIGNMENT((#440));
#440=SURFACE_STYLE_USAGE(.BOTH.,#441);
#441=SURFACE_SIDE_STYLE('',(#442));
#442=SURFACE_STYLE_FILL_AREA(#443);
#443=FILL_AREA_STYLE('Steel - Satin',(#444));
#444=FILL_AREA_STYLE_COLOUR('Steel - Satin',#445);
#445=COLOUR_RGB('Steel - Satin',0.627450980392157,0.627450980392157,0.627450980392157);
ENDSEC;
END-ISO-10303-21;
