ISO-10303-21;
HEADER;
/* Generated by software containing ST-Developer
 * from STEP Tools, Inc. (www.steptools.com) 
 */

FILE_DESCRIPTION(
/* description */ (''),
/* implementation_level */ '2;1');

FILE_NAME(
/* name */ '160 center link v1.step',
/* time_stamp */ '2026-03-14T10:14:44+01:00',
/* author */ (''),
/* organization */ (''),
/* preprocessor_version */ 'ST-DEVELOPER v20.1',
/* originating_system */ 'Autodesk Translation Framework v14.24.0.0',
/* authorisation */ '');

FILE_SCHEMA (('AUTOMOTIVE_DESIGN { 1 0 10303 214 3 1 1 }'));
ENDSEC;

DATA;
#10=MECHANICAL_DESIGN_GEOMETRIC_PRESENTATION_REPRESENTATION('',(#13),#656);
#11=SHAPE_REPRESENTATION_RELATIONSHIP('SRR','None',#663,#12);
#12=ADVANCED_BREP_SHAPE_REPRESENTATION('',(#14),#655);
#13=STYLED_ITEM('',(#672),#14);
#14=MANIFOLD_SOLID_BREP('Body1',#368);
#15=FACE_BOUND('',#65,.T.);
#16=FACE_BOUND('',#67,.T.);
#17=FACE_BOUND('',#69,.T.);
#18=FACE_BOUND('',#71,.T.);
#19=FACE_BOUND('',#74,.T.);
#20=CYLINDRICAL_SURFACE('',#392,117.785718530735);
#21=CYLINDRICAL_SURFACE('',#394,41.5);
#22=CYLINDRICAL_SURFACE('',#398,41.5);
#23=CYLINDRICAL_SURFACE('',#409,41.5);
#24=CYLINDRICAL_SURFACE('',#410,117.785718530737);
#25=CYLINDRICAL_SURFACE('',#411,41.5);
#26=CYLINDRICAL_SURFACE('',#412,12.5);
#27=CYLINDRICAL_SURFACE('',#415,12.5);
#28=CYLINDRICAL_SURFACE('',#426,25.);
#29=CYLINDRICAL_SURFACE('',#427,25.);
#30=FACE_OUTER_BOUND('',#50,.T.);
#31=FACE_OUTER_BOUND('',#51,.T.);
#32=FACE_OUTER_BOUND('',#52,.T.);
#33=FACE_OUTER_BOUND('',#53,.T.);
#34=FACE_OUTER_BOUND('',#54,.T.);
#35=FACE_OUTER_BOUND('',#55,.T.);
#36=FACE_OUTER_BOUND('',#56,.T.);
#37=FACE_OUTER_BOUND('',#57,.T.);
#38=FACE_OUTER_BOUND('',#58,.T.);
#39=FACE_OUTER_BOUND('',#59,.T.);
#40=FACE_OUTER_BOUND('',#60,.T.);
#41=FACE_OUTER_BOUND('',#61,.T.);
#42=FACE_OUTER_BOUND('',#62,.T.);
#43=FACE_OUTER_BOUND('',#63,.T.);
#44=FACE_OUTER_BOUND('',#64,.T.);
#45=FACE_OUTER_BOUND('',#66,.T.);
#46=FACE_OUTER_BOUND('',#68,.T.);
#47=FACE_OUTER_BOUND('',#70,.T.);
#48=FACE_OUTER_BOUND('',#72,.T.);
#49=FACE_OUTER_BOUND('',#73,.T.);
#50=EDGE_LOOP('',(#236,#237,#238,#239,#240,#241,#242,#243,#244,#245,#246,
#247,#248));
#51=EDGE_LOOP('',(#249,#250,#251,#252));
#52=EDGE_LOOP('',(#253,#254,#255,#256));
#53=EDGE_LOOP('',(#257,#258,#259,#260));
#54=EDGE_LOOP('',(#261,#262,#263,#264));
#55=EDGE_LOOP('',(#265,#266,#267,#268));
#56=EDGE_LOOP('',(#269,#270,#271,#272,#273,#274,#275,#276,#277,#278,#279,
#280,#281));
#57=EDGE_LOOP('',(#282,#283,#284,#285));
#58=EDGE_LOOP('',(#286,#287,#288,#289));
#59=EDGE_LOOP('',(#290,#291,#292,#293));
#60=EDGE_LOOP('',(#294,#295,#296,#297));
#61=EDGE_LOOP('',(#298,#299,#300,#301));
#62=EDGE_LOOP('',(#302,#303,#304,#305));
#63=EDGE_LOOP('',(#306,#307,#308,#309));
#64=EDGE_LOOP('',(#310));
#65=EDGE_LOOP('',(#311));
#66=EDGE_LOOP('',(#312));
#67=EDGE_LOOP('',(#313));
#68=EDGE_LOOP('',(#314));
#69=EDGE_LOOP('',(#315));
#70=EDGE_LOOP('',(#316));
#71=EDGE_LOOP('',(#317));
#72=EDGE_LOOP('',(#318,#319,#320,#321,#322,#323,#324,#325,#326,#327,#328,
#329));
#73=EDGE_LOOP('',(#330,#331,#332,#333));
#74=EDGE_LOOP('',(#334,#335,#336,#337));
#75=LINE('',#553,#100);
#76=LINE('',#557,#101);
#77=LINE('',#565,#102);
#78=LINE('',#571,#103);
#79=LINE('',#577,#104);
#80=LINE('',#580,#105);
#81=LINE('',#583,#106);
#82=LINE('',#587,#107);
#83=LINE('',#588,#108);
#84=LINE('',#591,#109);
#85=LINE('',#593,#110);
#86=LINE('',#594,#111);
#87=LINE('',#597,#112);
#88=LINE('',#605,#113);
#89=LINE('',#611,#114);
#90=LINE('',#615,#115);
#91=LINE('',#616,#116);
#92=LINE('',#618,#117);
#93=LINE('',#619,#118);
#94=LINE('',#621,#119);
#95=LINE('',#628,#120);
#96=LINE('',#634,#121);
#97=LINE('',#649,#122);
#98=LINE('',#650,#123);
#99=LINE('',#652,#124);
#100=VECTOR('',#434,10.);
#101=VECTOR('',#437,10.);
#102=VECTOR('',#444,10.);
#103=VECTOR('',#449,10.);
#104=VECTOR('',#456,10.);
#105=VECTOR('',#459,10.);
#106=VECTOR('',#462,10.);
#107=VECTOR('',#467,10.);
#108=VECTOR('',#468,10.);
#109=VECTOR('',#471,10.);
#110=VECTOR('',#472,10.);
#111=VECTOR('',#473,10.);
#112=VECTOR('',#476,10.);
#113=VECTOR('',#485,10.);
#114=VECTOR('',#490,10.);
#115=VECTOR('',#497,10.);
#116=VECTOR('',#498,10.);
#117=VECTOR('',#501,10.);
#118=VECTOR('',#502,10.);
#119=VECTOR('',#505,10.);
#120=VECTOR('',#514,12.5);
#121=VECTOR('',#521,12.5);
#122=VECTOR('',#542,25.);
#123=VECTOR('',#543,25.);
#124=VECTOR('',#546,25.);
#125=CIRCLE('',#383,41.5);
#126=CIRCLE('',#384,25.);
#127=CIRCLE('',#385,41.5);
#128=CIRCLE('',#386,117.785718530735);
#129=CIRCLE('',#387,41.5);
#130=CIRCLE('',#388,25.);
#131=CIRCLE('',#389,25.);
#132=CIRCLE('',#390,41.5);
#133=CIRCLE('',#391,117.785718530737);
#134=CIRCLE('',#393,117.785718530735);
#135=CIRCLE('',#395,41.5);
#136=CIRCLE('',#399,41.5);
#137=CIRCLE('',#401,117.785718530737);
#138=CIRCLE('',#402,41.5);
#139=CIRCLE('',#403,25.);
#140=CIRCLE('',#404,25.);
#141=CIRCLE('',#405,41.5);
#142=CIRCLE('',#406,25.);
#143=CIRCLE('',#413,12.5);
#144=CIRCLE('',#414,12.5);
#145=CIRCLE('',#416,12.5);
#146=CIRCLE('',#417,12.5);
#147=CIRCLE('',#419,25.);
#148=CIRCLE('',#421,25.);
#149=CIRCLE('',#423,25.);
#150=CIRCLE('',#425,25.);
#151=VERTEX_POINT('',#549);
#152=VERTEX_POINT('',#550);
#153=VERTEX_POINT('',#552);
#154=VERTEX_POINT('',#554);
#155=VERTEX_POINT('',#556);
#156=VERTEX_POINT('',#558);
#157=VERTEX_POINT('',#560);
#158=VERTEX_POINT('',#562);
#159=VERTEX_POINT('',#564);
#160=VERTEX_POINT('',#566);
#161=VERTEX_POINT('',#568);
#162=VERTEX_POINT('',#570);
#163=VERTEX_POINT('',#572);
#164=VERTEX_POINT('',#576);
#165=VERTEX_POINT('',#578);
#166=VERTEX_POINT('',#582);
#167=VERTEX_POINT('',#586);
#168=VERTEX_POINT('',#590);
#169=VERTEX_POINT('',#592);
#170=VERTEX_POINT('',#596);
#171=VERTEX_POINT('',#600);
#172=VERTEX_POINT('',#602);
#173=VERTEX_POINT('',#604);
#174=VERTEX_POINT('',#606);
#175=VERTEX_POINT('',#608);
#176=VERTEX_POINT('',#610);
#177=VERTEX_POINT('',#625);
#178=VERTEX_POINT('',#627);
#179=VERTEX_POINT('',#631);
#180=VERTEX_POINT('',#633);
#181=VERTEX_POINT('',#637);
#182=VERTEX_POINT('',#640);
#183=VERTEX_POINT('',#643);
#184=VERTEX_POINT('',#646);
#185=EDGE_CURVE('',#151,#152,#125,.T.);
#186=EDGE_CURVE('',#153,#151,#75,.T.);
#187=EDGE_CURVE('',#154,#153,#126,.T.);
#188=EDGE_CURVE('',#155,#154,#76,.T.);
#189=EDGE_CURVE('',#156,#155,#127,.T.);
#190=EDGE_CURVE('',#157,#156,#128,.T.);
#191=EDGE_CURVE('',#158,#157,#129,.T.);
#192=EDGE_CURVE('',#159,#158,#77,.T.);
#193=EDGE_CURVE('',#160,#159,#130,.T.);
#194=EDGE_CURVE('',#161,#160,#131,.T.);
#195=EDGE_CURVE('',#162,#161,#78,.T.);
#196=EDGE_CURVE('',#163,#162,#132,.T.);
#197=EDGE_CURVE('',#152,#163,#133,.T.);
#198=EDGE_CURVE('',#164,#156,#79,.T.);
#199=EDGE_CURVE('',#164,#165,#134,.T.);
#200=EDGE_CURVE('',#157,#165,#80,.T.);
#201=EDGE_CURVE('',#155,#166,#81,.T.);
#202=EDGE_CURVE('',#166,#164,#135,.T.);
#203=EDGE_CURVE('',#167,#154,#82,.T.);
#204=EDGE_CURVE('',#167,#166,#83,.T.);
#205=EDGE_CURVE('',#168,#151,#84,.T.);
#206=EDGE_CURVE('',#168,#169,#85,.T.);
#207=EDGE_CURVE('',#169,#153,#86,.T.);
#208=EDGE_CURVE('',#152,#170,#87,.T.);
#209=EDGE_CURVE('',#170,#168,#136,.T.);
#210=EDGE_CURVE('',#171,#170,#137,.T.);
#211=EDGE_CURVE('',#172,#171,#138,.T.);
#212=EDGE_CURVE('',#173,#172,#88,.T.);
#213=EDGE_CURVE('',#174,#173,#139,.T.);
#214=EDGE_CURVE('',#175,#174,#140,.T.);
#215=EDGE_CURVE('',#176,#175,#89,.T.);
#216=EDGE_CURVE('',#165,#176,#141,.T.);
#217=EDGE_CURVE('',#169,#167,#142,.T.);
#218=EDGE_CURVE('',#176,#158,#90,.T.);
#219=EDGE_CURVE('',#175,#159,#91,.T.);
#220=EDGE_CURVE('',#173,#161,#92,.T.);
#221=EDGE_CURVE('',#162,#172,#93,.T.);
#222=EDGE_CURVE('',#171,#163,#94,.T.);
#223=EDGE_CURVE('',#177,#177,#143,.T.);
#224=EDGE_CURVE('',#177,#178,#95,.T.);
#225=EDGE_CURVE('',#178,#178,#144,.T.);
#226=EDGE_CURVE('',#179,#179,#145,.T.);
#227=EDGE_CURVE('',#179,#180,#96,.T.);
#228=EDGE_CURVE('',#180,#180,#146,.T.);
#229=EDGE_CURVE('',#181,#181,#147,.T.);
#230=EDGE_CURVE('',#182,#182,#148,.T.);
#231=EDGE_CURVE('',#183,#183,#149,.T.);
#232=EDGE_CURVE('',#184,#184,#150,.T.);
#233=EDGE_CURVE('',#184,#160,#97,.T.);
#234=EDGE_CURVE('',#174,#181,#98,.T.);
#235=EDGE_CURVE('',#183,#182,#99,.T.);
#236=ORIENTED_EDGE('',*,*,#185,.F.);
#237=ORIENTED_EDGE('',*,*,#186,.F.);
#238=ORIENTED_EDGE('',*,*,#187,.F.);
#239=ORIENTED_EDGE('',*,*,#188,.F.);
#240=ORIENTED_EDGE('',*,*,#189,.F.);
#241=ORIENTED_EDGE('',*,*,#190,.F.);
#242=ORIENTED_EDGE('',*,*,#191,.F.);
#243=ORIENTED_EDGE('',*,*,#192,.F.);
#244=ORIENTED_EDGE('',*,*,#193,.F.);
#245=ORIENTED_EDGE('',*,*,#194,.F.);
#246=ORIENTED_EDGE('',*,*,#195,.F.);
#247=ORIENTED_EDGE('',*,*,#196,.F.);
#248=ORIENTED_EDGE('',*,*,#197,.F.);
#249=ORIENTED_EDGE('',*,*,#190,.T.);
#250=ORIENTED_EDGE('',*,*,#198,.F.);
#251=ORIENTED_EDGE('',*,*,#199,.T.);
#252=ORIENTED_EDGE('',*,*,#200,.F.);
#253=ORIENTED_EDGE('',*,*,#189,.T.);
#254=ORIENTED_EDGE('',*,*,#201,.T.);
#255=ORIENTED_EDGE('',*,*,#202,.T.);
#256=ORIENTED_EDGE('',*,*,#198,.T.);
#257=ORIENTED_EDGE('',*,*,#188,.T.);
#258=ORIENTED_EDGE('',*,*,#203,.F.);
#259=ORIENTED_EDGE('',*,*,#204,.T.);
#260=ORIENTED_EDGE('',*,*,#201,.F.);
#261=ORIENTED_EDGE('',*,*,#186,.T.);
#262=ORIENTED_EDGE('',*,*,#205,.F.);
#263=ORIENTED_EDGE('',*,*,#206,.T.);
#264=ORIENTED_EDGE('',*,*,#207,.T.);
#265=ORIENTED_EDGE('',*,*,#185,.T.);
#266=ORIENTED_EDGE('',*,*,#208,.T.);
#267=ORIENTED_EDGE('',*,*,#209,.T.);
#268=ORIENTED_EDGE('',*,*,#205,.T.);
#269=ORIENTED_EDGE('',*,*,#209,.F.);
#270=ORIENTED_EDGE('',*,*,#210,.F.);
#271=ORIENTED_EDGE('',*,*,#211,.F.);
#272=ORIENTED_EDGE('',*,*,#212,.F.);
#273=ORIENTED_EDGE('',*,*,#213,.F.);
#274=ORIENTED_EDGE('',*,*,#214,.F.);
#275=ORIENTED_EDGE('',*,*,#215,.F.);
#276=ORIENTED_EDGE('',*,*,#216,.F.);
#277=ORIENTED_EDGE('',*,*,#199,.F.);
#278=ORIENTED_EDGE('',*,*,#202,.F.);
#279=ORIENTED_EDGE('',*,*,#204,.F.);
#280=ORIENTED_EDGE('',*,*,#217,.F.);
#281=ORIENTED_EDGE('',*,*,#206,.F.);
#282=ORIENTED_EDGE('',*,*,#192,.T.);
#283=ORIENTED_EDGE('',*,*,#218,.F.);
#284=ORIENTED_EDGE('',*,*,#215,.T.);
#285=ORIENTED_EDGE('',*,*,#219,.T.);
#286=ORIENTED_EDGE('',*,*,#195,.T.);
#287=ORIENTED_EDGE('',*,*,#220,.F.);
#288=ORIENTED_EDGE('',*,*,#212,.T.);
#289=ORIENTED_EDGE('',*,*,#221,.F.);
#290=ORIENTED_EDGE('',*,*,#196,.T.);
#291=ORIENTED_EDGE('',*,*,#221,.T.);
#292=ORIENTED_EDGE('',*,*,#211,.T.);
#293=ORIENTED_EDGE('',*,*,#222,.T.);
#294=ORIENTED_EDGE('',*,*,#197,.T.);
#295=ORIENTED_EDGE('',*,*,#222,.F.);
#296=ORIENTED_EDGE('',*,*,#210,.T.);
#297=ORIENTED_EDGE('',*,*,#208,.F.);
#298=ORIENTED_EDGE('',*,*,#191,.T.);
#299=ORIENTED_EDGE('',*,*,#200,.T.);
#300=ORIENTED_EDGE('',*,*,#216,.T.);
#301=ORIENTED_EDGE('',*,*,#218,.T.);
#302=ORIENTED_EDGE('',*,*,#223,.F.);
#303=ORIENTED_EDGE('',*,*,#224,.T.);
#304=ORIENTED_EDGE('',*,*,#225,.F.);
#305=ORIENTED_EDGE('',*,*,#224,.F.);
#306=ORIENTED_EDGE('',*,*,#226,.F.);
#307=ORIENTED_EDGE('',*,*,#227,.T.);
#308=ORIENTED_EDGE('',*,*,#228,.F.);
#309=ORIENTED_EDGE('',*,*,#227,.F.);
#310=ORIENTED_EDGE('',*,*,#229,.T.);
#311=ORIENTED_EDGE('',*,*,#225,.T.);
#312=ORIENTED_EDGE('',*,*,#230,.T.);
#313=ORIENTED_EDGE('',*,*,#228,.T.);
#314=ORIENTED_EDGE('',*,*,#231,.T.);
#315=ORIENTED_EDGE('',*,*,#226,.T.);
#316=ORIENTED_EDGE('',*,*,#232,.T.);
#317=ORIENTED_EDGE('',*,*,#223,.T.);
#318=ORIENTED_EDGE('',*,*,#232,.F.);
#319=ORIENTED_EDGE('',*,*,#233,.T.);
#320=ORIENTED_EDGE('',*,*,#193,.T.);
#321=ORIENTED_EDGE('',*,*,#219,.F.);
#322=ORIENTED_EDGE('',*,*,#214,.T.);
#323=ORIENTED_EDGE('',*,*,#234,.T.);
#324=ORIENTED_EDGE('',*,*,#229,.F.);
#325=ORIENTED_EDGE('',*,*,#234,.F.);
#326=ORIENTED_EDGE('',*,*,#213,.T.);
#327=ORIENTED_EDGE('',*,*,#220,.T.);
#328=ORIENTED_EDGE('',*,*,#194,.T.);
#329=ORIENTED_EDGE('',*,*,#233,.F.);
#330=ORIENTED_EDGE('',*,*,#231,.F.);
#331=ORIENTED_EDGE('',*,*,#235,.T.);
#332=ORIENTED_EDGE('',*,*,#230,.F.);
#333=ORIENTED_EDGE('',*,*,#235,.F.);
#334=ORIENTED_EDGE('',*,*,#203,.T.);
#335=ORIENTED_EDGE('',*,*,#187,.T.);
#336=ORIENTED_EDGE('',*,*,#207,.F.);
#337=ORIENTED_EDGE('',*,*,#217,.T.);
#338=PLANE('',#382);
#339=PLANE('',#396);
#340=PLANE('',#397);
#341=PLANE('',#400);
#342=PLANE('',#407);
#343=PLANE('',#408);
#344=PLANE('',#418);
#345=PLANE('',#420);
#346=PLANE('',#422);
#347=PLANE('',#424);
#348=ADVANCED_FACE('',(#30),#338,.T.);
#349=ADVANCED_FACE('',(#31),#20,.F.);
#350=ADVANCED_FACE('',(#32),#21,.T.);
#351=ADVANCED_FACE('',(#33),#339,.T.);
#352=ADVANCED_FACE('',(#34),#340,.T.);
#353=ADVANCED_FACE('',(#35),#22,.T.);
#354=ADVANCED_FACE('',(#36),#341,.F.);
#355=ADVANCED_FACE('',(#37),#342,.T.);
#356=ADVANCED_FACE('',(#38),#343,.T.);
#357=ADVANCED_FACE('',(#39),#23,.T.);
#358=ADVANCED_FACE('',(#40),#24,.F.);
#359=ADVANCED_FACE('',(#41),#25,.T.);
#360=ADVANCED_FACE('',(#42),#26,.F.);
#361=ADVANCED_FACE('',(#43),#27,.F.);
#362=ADVANCED_FACE('',(#44,#15),#344,.T.);
#363=ADVANCED_FACE('',(#45,#16),#345,.T.);
#364=ADVANCED_FACE('',(#46,#17),#346,.T.);
#365=ADVANCED_FACE('',(#47,#18),#347,.T.);
#366=ADVANCED_FACE('',(#48),#28,.T.);
#367=ADVANCED_FACE('',(#49,#19),#29,.T.);
#368=CLOSED_SHELL('',(#348,#349,#350,#351,#352,#353,#354,#355,#356,#357,
#358,#359,#360,#361,#362,#363,#364,#365,#366,#367));
#369=DERIVED_UNIT_ELEMENT(#371,1.);
#370=DERIVED_UNIT_ELEMENT(#658,-3.);
#371=(
MASS_UNIT()
NAMED_UNIT(*)
SI_UNIT(.KILO.,.GRAM.)
);
#372=DERIVED_UNIT((#369,#370));
#373=MEASURE_REPRESENTATION_ITEM('density measure',
POSITIVE_RATIO_MEASURE(7850.),#372);
#374=PROPERTY_DEFINITION_REPRESENTATION(#379,#376);
#375=PROPERTY_DEFINITION_REPRESENTATION(#380,#377);
#376=REPRESENTATION('material name',(#378),#655);
#377=REPRESENTATION('density',(#373),#655);
#378=DESCRIPTIVE_REPRESENTATION_ITEM('Steel','Steel');
#379=PROPERTY_DEFINITION('material property','material name',#665);
#380=PROPERTY_DEFINITION('material property','density of part',#665);
#381=AXIS2_PLACEMENT_3D('',#547,#428,#429);
#382=AXIS2_PLACEMENT_3D('',#548,#430,#431);
#383=AXIS2_PLACEMENT_3D('',#551,#432,#433);
#384=AXIS2_PLACEMENT_3D('',#555,#435,#436);
#385=AXIS2_PLACEMENT_3D('',#559,#438,#439);
#386=AXIS2_PLACEMENT_3D('',#561,#440,#441);
#387=AXIS2_PLACEMENT_3D('',#563,#442,#443);
#388=AXIS2_PLACEMENT_3D('',#567,#445,#446);
#389=AXIS2_PLACEMENT_3D('',#569,#447,#448);
#390=AXIS2_PLACEMENT_3D('',#573,#450,#451);
#391=AXIS2_PLACEMENT_3D('',#574,#452,#453);
#392=AXIS2_PLACEMENT_3D('',#575,#454,#455);
#393=AXIS2_PLACEMENT_3D('',#579,#457,#458);
#394=AXIS2_PLACEMENT_3D('',#581,#460,#461);
#395=AXIS2_PLACEMENT_3D('',#584,#463,#464);
#396=AXIS2_PLACEMENT_3D('',#585,#465,#466);
#397=AXIS2_PLACEMENT_3D('',#589,#469,#470);
#398=AXIS2_PLACEMENT_3D('',#595,#474,#475);
#399=AXIS2_PLACEMENT_3D('',#598,#477,#478);
#400=AXIS2_PLACEMENT_3D('',#599,#479,#480);
#401=AXIS2_PLACEMENT_3D('',#601,#481,#482);
#402=AXIS2_PLACEMENT_3D('',#603,#483,#484);
#403=AXIS2_PLACEMENT_3D('',#607,#486,#487);
#404=AXIS2_PLACEMENT_3D('',#609,#488,#489);
#405=AXIS2_PLACEMENT_3D('',#612,#491,#492);
#406=AXIS2_PLACEMENT_3D('',#613,#493,#494);
#407=AXIS2_PLACEMENT_3D('',#614,#495,#496);
#408=AXIS2_PLACEMENT_3D('',#617,#499,#500);
#409=AXIS2_PLACEMENT_3D('',#620,#503,#504);
#410=AXIS2_PLACEMENT_3D('',#622,#506,#507);
#411=AXIS2_PLACEMENT_3D('',#623,#508,#509);
#412=AXIS2_PLACEMENT_3D('',#624,#510,#511);
#413=AXIS2_PLACEMENT_3D('',#626,#512,#513);
#414=AXIS2_PLACEMENT_3D('',#629,#515,#516);
#415=AXIS2_PLACEMENT_3D('',#630,#517,#518);
#416=AXIS2_PLACEMENT_3D('',#632,#519,#520);
#417=AXIS2_PLACEMENT_3D('',#635,#522,#523);
#418=AXIS2_PLACEMENT_3D('',#636,#524,#525);
#419=AXIS2_PLACEMENT_3D('',#638,#526,#527);
#420=AXIS2_PLACEMENT_3D('',#639,#528,#529);
#421=AXIS2_PLACEMENT_3D('',#641,#530,#531);
#422=AXIS2_PLACEMENT_3D('',#642,#532,#533);
#423=AXIS2_PLACEMENT_3D('',#644,#534,#535);
#424=AXIS2_PLACEMENT_3D('',#645,#536,#537);
#425=AXIS2_PLACEMENT_3D('',#647,#538,#539);
#426=AXIS2_PLACEMENT_3D('',#648,#540,#541);
#427=AXIS2_PLACEMENT_3D('',#651,#544,#545);
#428=DIRECTION('axis',(0.,0.,1.));
#429=DIRECTION('refdir',(1.,0.,0.));
#430=DIRECTION('center_axis',(0.,1.,0.));
#431=DIRECTION('ref_axis',(1.,0.,0.));
#432=DIRECTION('center_axis',(0.,-1.,0.));
#433=DIRECTION('ref_axis',(0.168080693641425,0.,-0.985773239860475));
#434=DIRECTION('',(1.,0.,0.));
#435=DIRECTION('center_axis',(0.,1.,0.));
#436=DIRECTION('ref_axis',(-1.,0.,0.));
#437=DIRECTION('',(-1.,0.,-4.03717463500057E-17));
#438=DIRECTION('center_axis',(0.,-1.,0.));
#439=DIRECTION('ref_axis',(0.168080693641338,0.,0.98577323986049));
#440=DIRECTION('center_axis',(0.,1.,0.));
#441=DIRECTION('ref_axis',(-0.383381536146307,0.,-0.923590059356476));
#442=DIRECTION('center_axis',(0.,-1.,0.));
#443=DIRECTION('ref_axis',(-0.168080693641338,0.,0.98577323986049));
#444=DIRECTION('',(-1.,0.,-4.03717463500057E-17));
#445=DIRECTION('center_axis',(0.,1.,0.));
#446=DIRECTION('ref_axis',(-1.,0.,0.));
#447=DIRECTION('center_axis',(0.,1.,0.));
#448=DIRECTION('ref_axis',(-1.,0.,0.));
#449=DIRECTION('',(1.,0.,0.));
#450=DIRECTION('center_axis',(0.,-1.,0.));
#451=DIRECTION('ref_axis',(-0.168080693641425,0.,-0.985773239860475));
#452=DIRECTION('center_axis',(0.,1.,0.));
#453=DIRECTION('ref_axis',(0.383381536146495,0.,0.923590059356397));
#454=DIRECTION('center_axis',(0.,1.,0.));
#455=DIRECTION('ref_axis',(-0.383381536146307,0.,-0.923590059356476));
#456=DIRECTION('',(0.,1.,0.));
#457=DIRECTION('center_axis',(0.,-1.,0.));
#458=DIRECTION('ref_axis',(-0.383381536146307,0.,-0.923590059356476));
#459=DIRECTION('',(0.,-1.,0.));
#460=DIRECTION('center_axis',(0.,1.,0.));
#461=DIRECTION('ref_axis',(0.168080693641338,0.,0.98577323986049));
#462=DIRECTION('',(0.,-1.,0.));
#463=DIRECTION('center_axis',(0.,1.,0.));
#464=DIRECTION('ref_axis',(0.168080693641338,0.,0.98577323986049));
#465=DIRECTION('center_axis',(-4.03717463500057E-17,0.,1.));
#466=DIRECTION('ref_axis',(1.,0.,4.03717463500057E-17));
#467=DIRECTION('',(0.,1.,0.));
#468=DIRECTION('',(1.,0.,4.03717463500057E-17));
#469=DIRECTION('center_axis',(0.,0.,-1.));
#470=DIRECTION('ref_axis',(-1.,0.,0.));
#471=DIRECTION('',(0.,1.,0.));
#472=DIRECTION('',(-1.,0.,0.));
#473=DIRECTION('',(0.,1.,0.));
#474=DIRECTION('center_axis',(0.,-1.,0.));
#475=DIRECTION('ref_axis',(0.168080693641425,0.,-0.985773239860475));
#476=DIRECTION('',(0.,-1.,0.));
#477=DIRECTION('center_axis',(0.,1.,0.));
#478=DIRECTION('ref_axis',(0.168080693641425,0.,-0.985773239860475));
#479=DIRECTION('center_axis',(0.,1.,0.));
#480=DIRECTION('ref_axis',(1.,0.,0.));
#481=DIRECTION('center_axis',(0.,-1.,0.));
#482=DIRECTION('ref_axis',(0.383381536146495,0.,0.923590059356397));
#483=DIRECTION('center_axis',(0.,1.,0.));
#484=DIRECTION('ref_axis',(-0.168080693641425,0.,-0.985773239860475));
#485=DIRECTION('',(-1.,0.,0.));
#486=DIRECTION('center_axis',(0.,-1.,0.));
#487=DIRECTION('ref_axis',(1.,0.,0.));
#488=DIRECTION('center_axis',(0.,-1.,0.));
#489=DIRECTION('ref_axis',(1.,0.,0.));
#490=DIRECTION('',(1.,0.,4.03717463500057E-17));
#491=DIRECTION('center_axis',(0.,1.,0.));
#492=DIRECTION('ref_axis',(-0.168080693641338,0.,0.98577323986049));
#493=DIRECTION('center_axis',(0.,-1.,0.));
#494=DIRECTION('ref_axis',(1.,0.,0.));
#495=DIRECTION('center_axis',(-4.03717463500057E-17,0.,1.));
#496=DIRECTION('ref_axis',(1.,0.,4.03717463500057E-17));
#497=DIRECTION('',(0.,1.,0.));
#498=DIRECTION('',(0.,1.,0.));
#499=DIRECTION('center_axis',(0.,0.,-1.));
#500=DIRECTION('ref_axis',(-1.,0.,0.));
#501=DIRECTION('',(0.,1.,0.));
#502=DIRECTION('',(0.,-1.,0.));
#503=DIRECTION('center_axis',(0.,1.,0.));
#504=DIRECTION('ref_axis',(-0.168080693641425,0.,-0.985773239860475));
#505=DIRECTION('',(0.,1.,0.));
#506=DIRECTION('center_axis',(0.,1.,0.));
#507=DIRECTION('ref_axis',(0.383381536146495,0.,0.923590059356397));
#508=DIRECTION('center_axis',(0.,-1.,0.));
#509=DIRECTION('ref_axis',(-0.168080693641338,0.,0.98577323986049));
#510=DIRECTION('center_axis',(0.,-1.,0.));
#511=DIRECTION('ref_axis',(0.,0.,1.));
#512=DIRECTION('center_axis',(0.,-1.,0.));
#513=DIRECTION('ref_axis',(0.,0.,1.));
#514=DIRECTION('',(0.,-1.,0.));
#515=DIRECTION('center_axis',(0.,1.,0.));
#516=DIRECTION('ref_axis',(0.,0.,1.));
#517=DIRECTION('center_axis',(0.,-1.,0.));
#518=DIRECTION('ref_axis',(0.,0.,1.));
#519=DIRECTION('center_axis',(0.,-1.,0.));
#520=DIRECTION('ref_axis',(0.,0.,1.));
#521=DIRECTION('',(0.,-1.,0.));
#522=DIRECTION('center_axis',(0.,1.,0.));
#523=DIRECTION('ref_axis',(0.,0.,1.));
#524=DIRECTION('center_axis',(0.,-1.,0.));
#525=DIRECTION('ref_axis',(1.,0.,0.));
#526=DIRECTION('center_axis',(0.,-1.,0.));
#527=DIRECTION('ref_axis',(1.,0.,0.));
#528=DIRECTION('center_axis',(0.,-1.,0.));
#529=DIRECTION('ref_axis',(1.,0.,0.));
#530=DIRECTION('center_axis',(0.,-1.,0.));
#531=DIRECTION('ref_axis',(1.,0.,0.));
#532=DIRECTION('center_axis',(0.,1.,0.));
#533=DIRECTION('ref_axis',(-1.,0.,0.));
#534=DIRECTION('center_axis',(0.,1.,0.));
#535=DIRECTION('ref_axis',(-1.,0.,0.));
#536=DIRECTION('center_axis',(0.,1.,0.));
#537=DIRECTION('ref_axis',(-1.,0.,0.));
#538=DIRECTION('center_axis',(0.,1.,0.));
#539=DIRECTION('ref_axis',(-1.,0.,0.));
#540=DIRECTION('center_axis',(0.,1.,0.));
#541=DIRECTION('ref_axis',(1.,0.,0.));
#542=DIRECTION('',(0.,-1.,0.));
#543=DIRECTION('',(0.,-1.,0.));
#544=DIRECTION('center_axis',(0.,1.,0.));
#545=DIRECTION('ref_axis',(1.,0.,0.));
#546=DIRECTION('',(0.,-1.,0.));
#547=CARTESIAN_POINT('',(0.,0.,0.));
#548=CARTESIAN_POINT('Origin',(-1.77635683940025E-14,13.,0.));
#549=CARTESIAN_POINT('',(-52.7839261697757,13.,-25.));
#550=CARTESIAN_POINT('',(-39.0317018256768,13.,-22.6551570752764));
#551=CARTESIAN_POINT('Origin',(-52.7839261697757,13.,16.5));
#552=CARTESIAN_POINT('',(-55.,13.,-25.));
#553=CARTESIAN_POINT('',(27.5,13.,-25.));
#554=CARTESIAN_POINT('',(-55.,13.,25.));
#555=CARTESIAN_POINT('Origin',(-55.,13.,-2.28681648396655E-15));
#556=CARTESIAN_POINT('',(-52.7839261697487,13.,25.));
#557=CARTESIAN_POINT('',(-27.5,13.,25.));
#558=CARTESIAN_POINT('',(-39.0317018256566,13.,22.6551570752788));
#559=CARTESIAN_POINT('Origin',(-52.7839261697487,13.,-16.5));
#560=CARTESIAN_POINT('',(39.0317018256567,13.,22.6551570752788));
#561=CARTESIAN_POINT('Origin',(5.48071026278289E-19,13.,133.785718769147));
#562=CARTESIAN_POINT('',(52.7839261697487,13.,25.));
#563=CARTESIAN_POINT('Origin',(52.7839261697487,13.,-16.5));
#564=CARTESIAN_POINT('',(55.,13.,25.));
#565=CARTESIAN_POINT('',(-27.5,13.,25.));
#566=CARTESIAN_POINT('',(30.,13.,9.64123311648404E-16));
#567=CARTESIAN_POINT('Origin',(55.,13.,-2.09749368621998E-15));
#568=CARTESIAN_POINT('',(55.,13.,-25.));
#569=CARTESIAN_POINT('Origin',(55.,13.,-2.09749368621998E-15));
#570=CARTESIAN_POINT('',(52.7839261697758,13.,-25.));
#571=CARTESIAN_POINT('',(27.5,13.,-25.));
#572=CARTESIAN_POINT('',(39.0317018256768,13.,-22.6551570752764));
#573=CARTESIAN_POINT('Origin',(52.7839261697757,13.,16.5));
#574=CARTESIAN_POINT('Origin',(4.09382103337894E-15,13.,-133.785718769139));
#575=CARTESIAN_POINT('Origin',(5.48071026278289E-19,0.,133.785718769147));
#576=CARTESIAN_POINT('',(-39.0317018256566,2.,22.6551570752788));
#577=CARTESIAN_POINT('',(-39.0317018256566,0.,22.6551570752789));
#578=CARTESIAN_POINT('',(39.0317018256567,2.,22.6551570752788));
#579=CARTESIAN_POINT('Origin',(5.48071026278289E-19,2.,133.785718769147));
#580=CARTESIAN_POINT('',(39.0317018256567,0.,22.6551570752789));
#581=CARTESIAN_POINT('Origin',(-52.7839261697487,0.,-16.5));
#582=CARTESIAN_POINT('',(-52.7839261697487,2.,25.));
#583=CARTESIAN_POINT('',(-52.7839261697487,0.,25.));
#584=CARTESIAN_POINT('Origin',(-52.7839261697487,2.,-16.5));
#585=CARTESIAN_POINT('Origin',(-55.,0.,25.));
#586=CARTESIAN_POINT('',(-55.,2.,25.));
#587=CARTESIAN_POINT('',(-55.,0.,25.));
#588=CARTESIAN_POINT('',(-27.5,2.,25.));
#589=CARTESIAN_POINT('Origin',(55.,0.,-25.));
#590=CARTESIAN_POINT('',(-52.7839261697757,2.,-25.));
#591=CARTESIAN_POINT('',(-52.7839261697757,0.,-25.));
#592=CARTESIAN_POINT('',(-55.,2.,-25.));
#593=CARTESIAN_POINT('',(27.5,2.,-25.));
#594=CARTESIAN_POINT('',(-55.,0.,-25.));
#595=CARTESIAN_POINT('Origin',(-52.7839261697757,0.,16.5));
#596=CARTESIAN_POINT('',(-39.0317018256768,2.,-22.6551570752764));
#597=CARTESIAN_POINT('',(-39.0317018256768,0.,-22.6551570752764));
#598=CARTESIAN_POINT('Origin',(-52.7839261697757,2.,16.5));
#599=CARTESIAN_POINT('Origin',(-1.77635683940025E-14,2.,0.));
#600=CARTESIAN_POINT('',(39.0317018256768,2.,-22.6551570752764));
#601=CARTESIAN_POINT('Origin',(4.09382103337894E-15,2.,-133.785718769139));
#602=CARTESIAN_POINT('',(52.7839261697758,2.,-25.));
#603=CARTESIAN_POINT('Origin',(52.7839261697757,2.,16.5));
#604=CARTESIAN_POINT('',(55.,2.,-25.));
#605=CARTESIAN_POINT('',(27.5,2.,-25.));
#606=CARTESIAN_POINT('',(30.,2.,9.64123311648402E-16));
#607=CARTESIAN_POINT('Origin',(55.,2.,-2.22044604925031E-15));
#608=CARTESIAN_POINT('',(55.,2.,25.));
#609=CARTESIAN_POINT('Origin',(55.,2.,-2.22044604925031E-15));
#610=CARTESIAN_POINT('',(52.7839261697487,2.,25.));
#611=CARTESIAN_POINT('',(-27.5,2.,25.));
#612=CARTESIAN_POINT('Origin',(52.7839261697487,2.,-16.5));
#613=CARTESIAN_POINT('Origin',(-55.,2.,-6.66133814775094E-15));
#614=CARTESIAN_POINT('Origin',(-55.,0.,25.));
#615=CARTESIAN_POINT('',(52.7839261697487,0.,25.));
#616=CARTESIAN_POINT('',(55.,0.,25.));
#617=CARTESIAN_POINT('Origin',(55.,0.,-25.));
#618=CARTESIAN_POINT('',(55.,0.,-25.));
#619=CARTESIAN_POINT('',(52.7839261697757,0.,-25.));
#620=CARTESIAN_POINT('Origin',(52.7839261697757,0.,16.5));
#621=CARTESIAN_POINT('',(39.0317018256768,0.,-22.6551570752765));
#622=CARTESIAN_POINT('Origin',(4.09382103337894E-15,0.,-133.785718769139));
#623=CARTESIAN_POINT('Origin',(52.7839261697487,0.,-16.5));
#624=CARTESIAN_POINT('Origin',(55.,7.5,-2.09749368621998E-15));
#625=CARTESIAN_POINT('',(55.,17.5,-12.5));
#626=CARTESIAN_POINT('Origin',(55.,17.5,-2.09749368621998E-15));
#627=CARTESIAN_POINT('',(55.,-2.5,-12.5));
#628=CARTESIAN_POINT('',(55.,7.5,-12.5));
#629=CARTESIAN_POINT('Origin',(55.,-2.5,-2.09749368621998E-15));
#630=CARTESIAN_POINT('Origin',(-55.,7.5,-2.09749368621998E-15));
#631=CARTESIAN_POINT('',(-55.,17.5,-12.5));
#632=CARTESIAN_POINT('Origin',(-55.,17.5,-2.09749368621998E-15));
#633=CARTESIAN_POINT('',(-55.,-2.5,-12.5));
#634=CARTESIAN_POINT('',(-55.,7.5,-12.5));
#635=CARTESIAN_POINT('Origin',(-55.,-2.5,-2.09749368621998E-15));
#636=CARTESIAN_POINT('Origin',(55.,-2.5,0.));
#637=CARTESIAN_POINT('',(30.,-2.5,9.64123311648402E-16));
#638=CARTESIAN_POINT('Origin',(55.,-2.5,-2.22044604925031E-15));
#639=CARTESIAN_POINT('Origin',(-55.,-2.5,-8.88178419700125E-15));
#640=CARTESIAN_POINT('',(-80.,-2.5,7.74800513901838E-16));
#641=CARTESIAN_POINT('Origin',(-55.,-2.5,-6.66133814775094E-15));
#642=CARTESIAN_POINT('Origin',(-55.,17.5,-4.44089209850063E-15));
#643=CARTESIAN_POINT('',(-80.,17.5,7.74800513901838E-16));
#644=CARTESIAN_POINT('Origin',(-55.,17.5,-2.28681648396655E-15));
#645=CARTESIAN_POINT('Origin',(55.,17.5,0.));
#646=CARTESIAN_POINT('',(30.,17.5,9.64123311648402E-16));
#647=CARTESIAN_POINT('Origin',(55.,17.5,-2.09749368621998E-15));
#648=CARTESIAN_POINT('Origin',(55.,0.,-2.09749368621998E-15));
#649=CARTESIAN_POINT('',(30.,0.,9.64123311648402E-16));
#650=CARTESIAN_POINT('',(30.,0.,9.64123311648402E-16));
#651=CARTESIAN_POINT('Origin',(-55.,0.,-2.28681648396655E-15));
#652=CARTESIAN_POINT('',(-80.,0.,7.74800513901838E-16));
#653=UNCERTAINTY_MEASURE_WITH_UNIT(LENGTH_MEASURE(0.01),#657,
'DISTANCE_ACCURACY_VALUE',
'Maximum model space distance between geometric entities at asserted c
onnectivities');
#654=UNCERTAINTY_MEASURE_WITH_UNIT(LENGTH_MEASURE(0.01),#657,
'DISTANCE_ACCURACY_VALUE',
'Maximum model space distance between geometric entities at asserted c
onnectivities');
#655=(
GEOMETRIC_REPRESENTATION_CONTEXT(3)
GLOBAL_UNCERTAINTY_ASSIGNED_CONTEXT((#653))
GLOBAL_UNIT_ASSIGNED_CONTEXT((#657,#659,#660))
REPRESENTATION_CONTEXT('','3D')
);
#656=(
GEOMETRIC_REPRESENTATION_CONTEXT(3)
GLOBAL_UNCERTAINTY_ASSIGNED_CONTEXT((#654))
GLOBAL_UNIT_ASSIGNED_CONTEXT((#657,#659,#660))
REPRESENTATION_CONTEXT('','3D')
);
#657=(
LENGTH_UNIT()
NAMED_UNIT(*)
SI_UNIT(.MILLI.,.METRE.)
);
#658=(
LENGTH_UNIT()
NAMED_UNIT(*)
SI_UNIT($,.METRE.)
);
#659=(
NAMED_UNIT(*)
PLANE_ANGLE_UNIT()
SI_UNIT($,.RADIAN.)
);
#660=(
NAMED_UNIT(*)
SI_UNIT($,.STERADIAN.)
SOLID_ANGLE_UNIT()
);
#661=SHAPE_DEFINITION_REPRESENTATION(#662,#663);
#662=PRODUCT_DEFINITION_SHAPE('',$,#665);
#663=SHAPE_REPRESENTATION('',(#381),#655);
#664=PRODUCT_DEFINITION_CONTEXT('part definition',#669,'design');
#665=PRODUCT_DEFINITION('160 center link','160 center link v1',#666,#664);
#666=PRODUCT_DEFINITION_FORMATION('',$,#671);
#667=PRODUCT_RELATED_PRODUCT_CATEGORY('160 center link v1',
'160 center link v1',(#671));
#668=APPLICATION_PROTOCOL_DEFINITION('international standard',
'automotive_design',2009,#669);
#669=APPLICATION_CONTEXT(
'Core Data for Automotive Mechanical Design Process');
#670=PRODUCT_CONTEXT('part definition',#669,'mechanical');
#671=PRODUCT('160 center link','160 center link v1',$,(#670));
#672=PRESENTATION_STYLE_ASSIGNMENT((#673));
#673=SURFACE_STYLE_USAGE(.BOTH.,#674);
#674=SURFACE_SIDE_STYLE('',(#675));
#675=SURFACE_STYLE_FILL_AREA(#676);
#676=FILL_AREA_STYLE('Steel - Satin',(#677));
#677=FILL_AREA_STYLE_COLOUR('Steel - Satin',#678);
#678=COLOUR_RGB('Steel - Satin',0.627450980392157,0.627450980392157,0.627450980392157);
ENDSEC;
END-ISO-10303-21;
