ISO-10303-21;
HEADER;
/* Generated by software containing ST-Developer
 * from STEP Tools, Inc. (www.steptools.com) 
 */

FILE_DESCRIPTION(
/* description */ ('STEP AP214'),
/* implementation_level */ '2;1');

FILE_NAME(
/* name */ 'CAM-FrontPanel v1.step',
/* time_stamp */ '2026-03-14T09:50:40+01:00',
/* author */ (''),
/* organization */ (''),
/* preprocessor_version */ 'ST-DEVELOPER v20.1',
/* originating_system */ 'Autodesk Translation Framework v14.24.0.0',
/* authorisation */ '');

FILE_SCHEMA (('AUTOMOTIVE_DESIGN { 1 0 10303 214 3 1 1 }'));
ENDSEC;

DATA;
#10=MECHANICAL_DESIGN_GEOMETRIC_PRESENTATION_REPRESENTATION('',(#27,#28),
#913);
#11=ITEM_DEFINED_TRANSFORMATION($,$,#547,#603);
#12=ITEM_DEFINED_TRANSFORMATION($,$,#566,#604);
#13=ITEM_DEFINED_TRANSFORMATION($,$,#566,#605);
#14=(
REPRESENTATION_RELATIONSHIP($,$,#928,#927)
REPRESENTATION_RELATIONSHIP_WITH_TRANSFORMATION(#11)
SHAPE_REPRESENTATION_RELATIONSHIP()
);
#15=(
REPRESENTATION_RELATIONSHIP($,$,#929,#927)
REPRESENTATION_RELATIONSHIP_WITH_TRANSFORMATION(#12)
SHAPE_REPRESENTATION_RELATIONSHIP()
);
#16=(
REPRESENTATION_RELATIONSHIP($,$,#929,#927)
REPRESENTATION_RELATIONSHIP_WITH_TRANSFORMATION(#13)
SHAPE_REPRESENTATION_RELATIONSHIP()
);
#17=CONTEXT_DEPENDENT_SHAPE_REPRESENTATION(#14,#924);
#18=CONTEXT_DEPENDENT_SHAPE_REPRESENTATION(#15,#925);
#19=CONTEXT_DEPENDENT_SHAPE_REPRESENTATION(#16,#926);
#20=NEXT_ASSEMBLY_USAGE_OCCURRENCE('Panels-Sheet-Stock-A4:1',
'Panels-Sheet-Stock-A4:1','Panels-Sheet-Stock-A4:1',#931,#932,
'Panels-Sheet-Stock-A4:1');
#21=NEXT_ASSEMBLY_USAGE_OCCURRENCE('610_FrontPanel_x1_1mm_INOX:1',
'610_FrontPanel_x1_1mm_INOX:1','610_FrontPanel_x1_1mm_INOX:1',#931,#933,
'610_FrontPanel_x1_1mm_INOX:1');
#22=NEXT_ASSEMBLY_USAGE_OCCURRENCE('610_FrontPanel_x1_1mm_INOX:2',
'610_FrontPanel_x1_1mm_INOX:2','610_FrontPanel_x1_1mm_INOX:2',#931,#933,
'610_FrontPanel_x1_1mm_INOX:2');
#23=SHAPE_REPRESENTATION_RELATIONSHIP('SRR','None',#928,#25);
#24=SHAPE_REPRESENTATION_RELATIONSHIP('SRR','None',#929,#26);
#25=ADVANCED_BREP_SHAPE_REPRESENTATION('',(#29),#911);
#26=ADVANCED_BREP_SHAPE_REPRESENTATION('',(#30),#912);
#27=STYLED_ITEM('',(#947),#29);
#28=STYLED_ITEM('',(#948),#30);
#29=MANIFOLD_SOLID_BREP('Body1',#521);
#30=MANIFOLD_SOLID_BREP('Body1',#522);
#31=FACE_BOUND('',#98,.T.);
#32=FACE_BOUND('',#99,.T.);
#33=FACE_BOUND('',#100,.T.);
#34=FACE_BOUND('',#101,.T.);
#35=FACE_BOUND('',#103,.T.);
#36=FACE_BOUND('',#104,.T.);
#37=FACE_BOUND('',#105,.T.);
#38=FACE_BOUND('',#106,.T.);
#39=FACE_BOUND('',#118,.T.);
#40=FACE_BOUND('',#119,.T.);
#41=FACE_BOUND('',#120,.T.);
#42=FACE_BOUND('',#121,.T.);
#43=FACE_BOUND('',#122,.T.);
#44=FACE_BOUND('',#123,.T.);
#45=FACE_BOUND('',#125,.T.);
#46=FACE_BOUND('',#126,.T.);
#47=FACE_BOUND('',#127,.T.);
#48=FACE_BOUND('',#128,.T.);
#49=FACE_BOUND('',#129,.T.);
#50=FACE_BOUND('',#130,.T.);
#51=PLANE('',#560);
#52=PLANE('',#561);
#53=PLANE('',#562);
#54=PLANE('',#563);
#55=PLANE('',#564);
#56=PLANE('',#565);
#57=PLANE('',#585);
#58=PLANE('',#586);
#59=PLANE('',#587);
#60=PLANE('',#588);
#61=PLANE('',#589);
#62=PLANE('',#594);
#63=FACE_OUTER_BOUND('',#89,.T.);
#64=FACE_OUTER_BOUND('',#90,.T.);
#65=FACE_OUTER_BOUND('',#91,.T.);
#66=FACE_OUTER_BOUND('',#92,.T.);
#67=FACE_OUTER_BOUND('',#93,.T.);
#68=FACE_OUTER_BOUND('',#94,.T.);
#69=FACE_OUTER_BOUND('',#95,.T.);
#70=FACE_OUTER_BOUND('',#96,.T.);
#71=FACE_OUTER_BOUND('',#97,.T.);
#72=FACE_OUTER_BOUND('',#102,.T.);
#73=FACE_OUTER_BOUND('',#107,.T.);
#74=FACE_OUTER_BOUND('',#108,.T.);
#75=FACE_OUTER_BOUND('',#109,.T.);
#76=FACE_OUTER_BOUND('',#110,.T.);
#77=FACE_OUTER_BOUND('',#111,.T.);
#78=FACE_OUTER_BOUND('',#112,.T.);
#79=FACE_OUTER_BOUND('',#113,.T.);
#80=FACE_OUTER_BOUND('',#114,.T.);
#81=FACE_OUTER_BOUND('',#115,.T.);
#82=FACE_OUTER_BOUND('',#116,.T.);
#83=FACE_OUTER_BOUND('',#117,.T.);
#84=FACE_OUTER_BOUND('',#124,.T.);
#85=FACE_OUTER_BOUND('',#131,.T.);
#86=FACE_OUTER_BOUND('',#132,.T.);
#87=FACE_OUTER_BOUND('',#133,.T.);
#88=FACE_OUTER_BOUND('',#134,.T.);
#89=EDGE_LOOP('',(#349,#350,#351,#352));
#90=EDGE_LOOP('',(#353,#354,#355,#356));
#91=EDGE_LOOP('',(#357,#358,#359,#360));
#92=EDGE_LOOP('',(#361,#362,#363,#364));
#93=EDGE_LOOP('',(#365,#366,#367,#368));
#94=EDGE_LOOP('',(#369,#370,#371,#372));
#95=EDGE_LOOP('',(#373,#374,#375,#376));
#96=EDGE_LOOP('',(#377,#378,#379,#380));
#97=EDGE_LOOP('',(#381,#382,#383,#384));
#98=EDGE_LOOP('',(#385));
#99=EDGE_LOOP('',(#386));
#100=EDGE_LOOP('',(#387));
#101=EDGE_LOOP('',(#388));
#102=EDGE_LOOP('',(#389,#390,#391,#392));
#103=EDGE_LOOP('',(#393));
#104=EDGE_LOOP('',(#394));
#105=EDGE_LOOP('',(#395));
#106=EDGE_LOOP('',(#396));
#107=EDGE_LOOP('',(#397,#398,#399,#400));
#108=EDGE_LOOP('',(#401,#402,#403,#404));
#109=EDGE_LOOP('',(#405,#406,#407,#408));
#110=EDGE_LOOP('',(#409,#410,#411,#412));
#111=EDGE_LOOP('',(#413,#414,#415,#416));
#112=EDGE_LOOP('',(#417,#418,#419,#420));
#113=EDGE_LOOP('',(#421,#422,#423,#424));
#114=EDGE_LOOP('',(#425,#426,#427,#428));
#115=EDGE_LOOP('',(#429,#430,#431,#432));
#116=EDGE_LOOP('',(#433,#434,#435,#436));
#117=EDGE_LOOP('',(#437,#438,#439,#440,#441,#442,#443,#444));
#118=EDGE_LOOP('',(#445));
#119=EDGE_LOOP('',(#446));
#120=EDGE_LOOP('',(#447));
#121=EDGE_LOOP('',(#448));
#122=EDGE_LOOP('',(#449));
#123=EDGE_LOOP('',(#450));
#124=EDGE_LOOP('',(#451,#452,#453,#454,#455,#456,#457,#458));
#125=EDGE_LOOP('',(#459));
#126=EDGE_LOOP('',(#460));
#127=EDGE_LOOP('',(#461));
#128=EDGE_LOOP('',(#462));
#129=EDGE_LOOP('',(#463));
#130=EDGE_LOOP('',(#464));
#131=EDGE_LOOP('',(#465,#466,#467,#468));
#132=EDGE_LOOP('',(#469,#470,#471,#472));
#133=EDGE_LOOP('',(#473,#474,#475,#476));
#134=EDGE_LOOP('',(#477,#478,#479,#480));
#135=LINE('',#770,#173);
#136=LINE('',#776,#174);
#137=LINE('',#782,#175);
#138=LINE('',#788,#176);
#139=LINE('',#793,#177);
#140=LINE('',#795,#178);
#141=LINE('',#797,#179);
#142=LINE('',#798,#180);
#143=LINE('',#801,#181);
#144=LINE('',#803,#182);
#145=LINE('',#804,#183);
#146=LINE('',#807,#184);
#147=LINE('',#809,#185);
#148=LINE('',#810,#186);
#149=LINE('',#812,#187);
#150=LINE('',#813,#188);
#151=LINE('',#821,#189);
#152=LINE('',#827,#190);
#153=LINE('',#833,#191);
#154=LINE('',#839,#192);
#155=LINE('',#845,#193);
#156=LINE('',#851,#194);
#157=LINE('',#856,#195);
#158=LINE('',#858,#196);
#159=LINE('',#860,#197);
#160=LINE('',#861,#198);
#161=LINE('',#865,#199);
#162=LINE('',#867,#200);
#163=LINE('',#869,#201);
#164=LINE('',#870,#202);
#165=LINE('',#874,#203);
#166=LINE('',#876,#204);
#167=LINE('',#878,#205);
#168=LINE('',#879,#206);
#169=LINE('',#883,#207);
#170=LINE('',#885,#208);
#171=LINE('',#887,#209);
#172=LINE('',#888,#210);
#173=VECTOR('',#614,2.5);
#174=VECTOR('',#621,2.5);
#175=VECTOR('',#628,2.5);
#176=VECTOR('',#635,2.5);
#177=VECTOR('',#640,1000.);
#178=VECTOR('',#641,1000.);
#179=VECTOR('',#642,1000.);
#180=VECTOR('',#643,1000.);
#181=VECTOR('',#646,1000.);
#182=VECTOR('',#647,1000.);
#183=VECTOR('',#648,1000.);
#184=VECTOR('',#651,1000.);
#185=VECTOR('',#652,1000.);
#186=VECTOR('',#653,1000.);
#187=VECTOR('',#656,1000.);
#188=VECTOR('',#657,1000.);
#189=VECTOR('',#668,2.55);
#190=VECTOR('',#675,2.55);
#191=VECTOR('',#682,2.55);
#192=VECTOR('',#689,2.55);
#193=VECTOR('',#696,2.55);
#194=VECTOR('',#703,2.55);
#195=VECTOR('',#708,1000.);
#196=VECTOR('',#709,1000.);
#197=VECTOR('',#710,1000.);
#198=VECTOR('',#711,1000.);
#199=VECTOR('',#714,1000.);
#200=VECTOR('',#715,1000.);
#201=VECTOR('',#716,1000.);
#202=VECTOR('',#717,1000.);
#203=VECTOR('',#720,1000.);
#204=VECTOR('',#721,1000.);
#205=VECTOR('',#722,1000.);
#206=VECTOR('',#723,1000.);
#207=VECTOR('',#726,1000.);
#208=VECTOR('',#727,1000.);
#209=VECTOR('',#728,1000.);
#210=VECTOR('',#729,1000.);
#211=CIRCLE('',#549,2.5);
#212=CIRCLE('',#550,2.5);
#213=CIRCLE('',#552,2.5);
#214=CIRCLE('',#553,2.5);
#215=CIRCLE('',#555,2.5);
#216=CIRCLE('',#556,2.5);
#217=CIRCLE('',#558,2.5);
#218=CIRCLE('',#559,2.5);
#219=CIRCLE('',#568,2.55);
#220=CIRCLE('',#569,2.55);
#221=CIRCLE('',#571,2.55);
#222=CIRCLE('',#572,2.55);
#223=CIRCLE('',#574,2.55);
#224=CIRCLE('',#575,2.55);
#225=CIRCLE('',#577,2.55);
#226=CIRCLE('',#578,2.55);
#227=CIRCLE('',#580,2.55);
#228=CIRCLE('',#581,2.55);
#229=CIRCLE('',#583,2.55);
#230=CIRCLE('',#584,2.55);
#231=CIRCLE('',#590,4.);
#232=CIRCLE('',#591,4.);
#233=CIRCLE('',#592,4.);
#234=CIRCLE('',#593,4.);
#235=CIRCLE('',#595,4.);
#236=CIRCLE('',#596,4.);
#237=CIRCLE('',#597,4.);
#238=CIRCLE('',#598,4.);
#239=VERTEX_POINT('',#767);
#240=VERTEX_POINT('',#769);
#241=VERTEX_POINT('',#773);
#242=VERTEX_POINT('',#775);
#243=VERTEX_POINT('',#779);
#244=VERTEX_POINT('',#781);
#245=VERTEX_POINT('',#785);
#246=VERTEX_POINT('',#787);
#247=VERTEX_POINT('',#791);
#248=VERTEX_POINT('',#792);
#249=VERTEX_POINT('',#794);
#250=VERTEX_POINT('',#796);
#251=VERTEX_POINT('',#800);
#252=VERTEX_POINT('',#802);
#253=VERTEX_POINT('',#806);
#254=VERTEX_POINT('',#808);
#255=VERTEX_POINT('',#818);
#256=VERTEX_POINT('',#820);
#257=VERTEX_POINT('',#824);
#258=VERTEX_POINT('',#826);
#259=VERTEX_POINT('',#830);
#260=VERTEX_POINT('',#832);
#261=VERTEX_POINT('',#836);
#262=VERTEX_POINT('',#838);
#263=VERTEX_POINT('',#842);
#264=VERTEX_POINT('',#844);
#265=VERTEX_POINT('',#848);
#266=VERTEX_POINT('',#850);
#267=VERTEX_POINT('',#854);
#268=VERTEX_POINT('',#855);
#269=VERTEX_POINT('',#857);
#270=VERTEX_POINT('',#859);
#271=VERTEX_POINT('',#863);
#272=VERTEX_POINT('',#864);
#273=VERTEX_POINT('',#866);
#274=VERTEX_POINT('',#868);
#275=VERTEX_POINT('',#872);
#276=VERTEX_POINT('',#873);
#277=VERTEX_POINT('',#875);
#278=VERTEX_POINT('',#877);
#279=VERTEX_POINT('',#881);
#280=VERTEX_POINT('',#882);
#281=VERTEX_POINT('',#884);
#282=VERTEX_POINT('',#886);
#283=EDGE_CURVE('',#239,#239,#211,.T.);
#284=EDGE_CURVE('',#239,#240,#135,.T.);
#285=EDGE_CURVE('',#240,#240,#212,.T.);
#286=EDGE_CURVE('',#241,#241,#213,.T.);
#287=EDGE_CURVE('',#241,#242,#136,.T.);
#288=EDGE_CURVE('',#242,#242,#214,.T.);
#289=EDGE_CURVE('',#243,#243,#215,.T.);
#290=EDGE_CURVE('',#243,#244,#137,.T.);
#291=EDGE_CURVE('',#244,#244,#216,.T.);
#292=EDGE_CURVE('',#245,#245,#217,.T.);
#293=EDGE_CURVE('',#245,#246,#138,.T.);
#294=EDGE_CURVE('',#246,#246,#218,.T.);
#295=EDGE_CURVE('',#247,#248,#139,.T.);
#296=EDGE_CURVE('',#249,#248,#140,.T.);
#297=EDGE_CURVE('',#250,#249,#141,.T.);
#298=EDGE_CURVE('',#250,#247,#142,.T.);
#299=EDGE_CURVE('',#248,#251,#143,.T.);
#300=EDGE_CURVE('',#252,#251,#144,.T.);
#301=EDGE_CURVE('',#249,#252,#145,.T.);
#302=EDGE_CURVE('',#251,#253,#146,.T.);
#303=EDGE_CURVE('',#254,#253,#147,.T.);
#304=EDGE_CURVE('',#252,#254,#148,.T.);
#305=EDGE_CURVE('',#253,#247,#149,.T.);
#306=EDGE_CURVE('',#254,#250,#150,.T.);
#307=EDGE_CURVE('',#255,#255,#219,.T.);
#308=EDGE_CURVE('',#255,#256,#151,.T.);
#309=EDGE_CURVE('',#256,#256,#220,.T.);
#310=EDGE_CURVE('',#257,#257,#221,.T.);
#311=EDGE_CURVE('',#257,#258,#152,.T.);
#312=EDGE_CURVE('',#258,#258,#222,.T.);
#313=EDGE_CURVE('',#259,#259,#223,.T.);
#314=EDGE_CURVE('',#259,#260,#153,.T.);
#315=EDGE_CURVE('',#260,#260,#224,.T.);
#316=EDGE_CURVE('',#261,#261,#225,.T.);
#317=EDGE_CURVE('',#261,#262,#154,.T.);
#318=EDGE_CURVE('',#262,#262,#226,.T.);
#319=EDGE_CURVE('',#263,#263,#227,.T.);
#320=EDGE_CURVE('',#263,#264,#155,.T.);
#321=EDGE_CURVE('',#264,#264,#228,.T.);
#322=EDGE_CURVE('',#265,#265,#229,.T.);
#323=EDGE_CURVE('',#265,#266,#156,.T.);
#324=EDGE_CURVE('',#266,#266,#230,.T.);
#325=EDGE_CURVE('',#267,#268,#157,.T.);
#326=EDGE_CURVE('',#267,#269,#158,.T.);
#327=EDGE_CURVE('',#269,#270,#159,.T.);
#328=EDGE_CURVE('',#270,#268,#160,.T.);
#329=EDGE_CURVE('',#271,#272,#161,.T.);
#330=EDGE_CURVE('',#272,#273,#162,.T.);
#331=EDGE_CURVE('',#274,#273,#163,.T.);
#332=EDGE_CURVE('',#274,#271,#164,.T.);
#333=EDGE_CURVE('',#275,#276,#165,.T.);
#334=EDGE_CURVE('',#275,#277,#166,.T.);
#335=EDGE_CURVE('',#277,#278,#167,.T.);
#336=EDGE_CURVE('',#278,#276,#168,.T.);
#337=EDGE_CURVE('',#279,#280,#169,.T.);
#338=EDGE_CURVE('',#279,#281,#170,.T.);
#339=EDGE_CURVE('',#281,#282,#171,.T.);
#340=EDGE_CURVE('',#282,#280,#172,.T.);
#341=EDGE_CURVE('',#273,#275,#231,.T.);
#342=EDGE_CURVE('',#276,#279,#232,.T.);
#343=EDGE_CURVE('',#280,#267,#233,.T.);
#344=EDGE_CURVE('',#268,#274,#234,.T.);
#345=EDGE_CURVE('',#277,#272,#235,.T.);
#346=EDGE_CURVE('',#271,#270,#236,.T.);
#347=EDGE_CURVE('',#269,#282,#237,.T.);
#348=EDGE_CURVE('',#281,#278,#238,.T.);
#349=ORIENTED_EDGE('',*,*,#283,.F.);
#350=ORIENTED_EDGE('',*,*,#284,.T.);
#351=ORIENTED_EDGE('',*,*,#285,.F.);
#352=ORIENTED_EDGE('',*,*,#284,.F.);
#353=ORIENTED_EDGE('',*,*,#286,.T.);
#354=ORIENTED_EDGE('',*,*,#287,.T.);
#355=ORIENTED_EDGE('',*,*,#288,.T.);
#356=ORIENTED_EDGE('',*,*,#287,.F.);
#357=ORIENTED_EDGE('',*,*,#289,.F.);
#358=ORIENTED_EDGE('',*,*,#290,.T.);
#359=ORIENTED_EDGE('',*,*,#291,.F.);
#360=ORIENTED_EDGE('',*,*,#290,.F.);
#361=ORIENTED_EDGE('',*,*,#292,.T.);
#362=ORIENTED_EDGE('',*,*,#293,.T.);
#363=ORIENTED_EDGE('',*,*,#294,.T.);
#364=ORIENTED_EDGE('',*,*,#293,.F.);
#365=ORIENTED_EDGE('',*,*,#295,.T.);
#366=ORIENTED_EDGE('',*,*,#296,.F.);
#367=ORIENTED_EDGE('',*,*,#297,.F.);
#368=ORIENTED_EDGE('',*,*,#298,.T.);
#369=ORIENTED_EDGE('',*,*,#299,.T.);
#370=ORIENTED_EDGE('',*,*,#300,.F.);
#371=ORIENTED_EDGE('',*,*,#301,.F.);
#372=ORIENTED_EDGE('',*,*,#296,.T.);
#373=ORIENTED_EDGE('',*,*,#302,.T.);
#374=ORIENTED_EDGE('',*,*,#303,.F.);
#375=ORIENTED_EDGE('',*,*,#304,.F.);
#376=ORIENTED_EDGE('',*,*,#300,.T.);
#377=ORIENTED_EDGE('',*,*,#305,.T.);
#378=ORIENTED_EDGE('',*,*,#298,.F.);
#379=ORIENTED_EDGE('',*,*,#306,.F.);
#380=ORIENTED_EDGE('',*,*,#303,.T.);
#381=ORIENTED_EDGE('',*,*,#297,.T.);
#382=ORIENTED_EDGE('',*,*,#301,.T.);
#383=ORIENTED_EDGE('',*,*,#304,.T.);
#384=ORIENTED_EDGE('',*,*,#306,.T.);
#385=ORIENTED_EDGE('',*,*,#285,.T.);
#386=ORIENTED_EDGE('',*,*,#288,.F.);
#387=ORIENTED_EDGE('',*,*,#291,.T.);
#388=ORIENTED_EDGE('',*,*,#294,.F.);
#389=ORIENTED_EDGE('',*,*,#295,.F.);
#390=ORIENTED_EDGE('',*,*,#305,.F.);
#391=ORIENTED_EDGE('',*,*,#302,.F.);
#392=ORIENTED_EDGE('',*,*,#299,.F.);
#393=ORIENTED_EDGE('',*,*,#283,.T.);
#394=ORIENTED_EDGE('',*,*,#286,.F.);
#395=ORIENTED_EDGE('',*,*,#289,.T.);
#396=ORIENTED_EDGE('',*,*,#292,.F.);
#397=ORIENTED_EDGE('',*,*,#307,.F.);
#398=ORIENTED_EDGE('',*,*,#308,.T.);
#399=ORIENTED_EDGE('',*,*,#309,.T.);
#400=ORIENTED_EDGE('',*,*,#308,.F.);
#401=ORIENTED_EDGE('',*,*,#310,.F.);
#402=ORIENTED_EDGE('',*,*,#311,.T.);
#403=ORIENTED_EDGE('',*,*,#312,.T.);
#404=ORIENTED_EDGE('',*,*,#311,.F.);
#405=ORIENTED_EDGE('',*,*,#313,.F.);
#406=ORIENTED_EDGE('',*,*,#314,.T.);
#407=ORIENTED_EDGE('',*,*,#315,.T.);
#408=ORIENTED_EDGE('',*,*,#314,.F.);
#409=ORIENTED_EDGE('',*,*,#316,.F.);
#410=ORIENTED_EDGE('',*,*,#317,.T.);
#411=ORIENTED_EDGE('',*,*,#318,.T.);
#412=ORIENTED_EDGE('',*,*,#317,.F.);
#413=ORIENTED_EDGE('',*,*,#319,.F.);
#414=ORIENTED_EDGE('',*,*,#320,.T.);
#415=ORIENTED_EDGE('',*,*,#321,.T.);
#416=ORIENTED_EDGE('',*,*,#320,.F.);
#417=ORIENTED_EDGE('',*,*,#322,.F.);
#418=ORIENTED_EDGE('',*,*,#323,.T.);
#419=ORIENTED_EDGE('',*,*,#324,.T.);
#420=ORIENTED_EDGE('',*,*,#323,.F.);
#421=ORIENTED_EDGE('',*,*,#325,.F.);
#422=ORIENTED_EDGE('',*,*,#326,.T.);
#423=ORIENTED_EDGE('',*,*,#327,.T.);
#424=ORIENTED_EDGE('',*,*,#328,.T.);
#425=ORIENTED_EDGE('',*,*,#329,.T.);
#426=ORIENTED_EDGE('',*,*,#330,.T.);
#427=ORIENTED_EDGE('',*,*,#331,.F.);
#428=ORIENTED_EDGE('',*,*,#332,.T.);
#429=ORIENTED_EDGE('',*,*,#333,.F.);
#430=ORIENTED_EDGE('',*,*,#334,.T.);
#431=ORIENTED_EDGE('',*,*,#335,.T.);
#432=ORIENTED_EDGE('',*,*,#336,.T.);
#433=ORIENTED_EDGE('',*,*,#337,.F.);
#434=ORIENTED_EDGE('',*,*,#338,.T.);
#435=ORIENTED_EDGE('',*,*,#339,.T.);
#436=ORIENTED_EDGE('',*,*,#340,.T.);
#437=ORIENTED_EDGE('',*,*,#331,.T.);
#438=ORIENTED_EDGE('',*,*,#341,.T.);
#439=ORIENTED_EDGE('',*,*,#333,.T.);
#440=ORIENTED_EDGE('',*,*,#342,.T.);
#441=ORIENTED_EDGE('',*,*,#337,.T.);
#442=ORIENTED_EDGE('',*,*,#343,.T.);
#443=ORIENTED_EDGE('',*,*,#325,.T.);
#444=ORIENTED_EDGE('',*,*,#344,.T.);
#445=ORIENTED_EDGE('',*,*,#309,.F.);
#446=ORIENTED_EDGE('',*,*,#312,.F.);
#447=ORIENTED_EDGE('',*,*,#315,.F.);
#448=ORIENTED_EDGE('',*,*,#318,.F.);
#449=ORIENTED_EDGE('',*,*,#321,.F.);
#450=ORIENTED_EDGE('',*,*,#324,.F.);
#451=ORIENTED_EDGE('',*,*,#335,.F.);
#452=ORIENTED_EDGE('',*,*,#345,.T.);
#453=ORIENTED_EDGE('',*,*,#329,.F.);
#454=ORIENTED_EDGE('',*,*,#346,.T.);
#455=ORIENTED_EDGE('',*,*,#327,.F.);
#456=ORIENTED_EDGE('',*,*,#347,.T.);
#457=ORIENTED_EDGE('',*,*,#339,.F.);
#458=ORIENTED_EDGE('',*,*,#348,.T.);
#459=ORIENTED_EDGE('',*,*,#307,.T.);
#460=ORIENTED_EDGE('',*,*,#310,.T.);
#461=ORIENTED_EDGE('',*,*,#313,.T.);
#462=ORIENTED_EDGE('',*,*,#316,.T.);
#463=ORIENTED_EDGE('',*,*,#319,.T.);
#464=ORIENTED_EDGE('',*,*,#322,.T.);
#465=ORIENTED_EDGE('',*,*,#341,.F.);
#466=ORIENTED_EDGE('',*,*,#330,.F.);
#467=ORIENTED_EDGE('',*,*,#345,.F.);
#468=ORIENTED_EDGE('',*,*,#334,.F.);
#469=ORIENTED_EDGE('',*,*,#342,.F.);
#470=ORIENTED_EDGE('',*,*,#336,.F.);
#471=ORIENTED_EDGE('',*,*,#348,.F.);
#472=ORIENTED_EDGE('',*,*,#338,.F.);
#473=ORIENTED_EDGE('',*,*,#343,.F.);
#474=ORIENTED_EDGE('',*,*,#340,.F.);
#475=ORIENTED_EDGE('',*,*,#347,.F.);
#476=ORIENTED_EDGE('',*,*,#326,.F.);
#477=ORIENTED_EDGE('',*,*,#344,.F.);
#478=ORIENTED_EDGE('',*,*,#328,.F.);
#479=ORIENTED_EDGE('',*,*,#346,.F.);
#480=ORIENTED_EDGE('',*,*,#332,.F.);
#481=CYLINDRICAL_SURFACE('',#548,2.5);
#482=CYLINDRICAL_SURFACE('',#551,2.5);
#483=CYLINDRICAL_SURFACE('',#554,2.5);
#484=CYLINDRICAL_SURFACE('',#557,2.5);
#485=CYLINDRICAL_SURFACE('',#567,2.55);
#486=CYLINDRICAL_SURFACE('',#570,2.55);
#487=CYLINDRICAL_SURFACE('',#573,2.55);
#488=CYLINDRICAL_SURFACE('',#576,2.55);
#489=CYLINDRICAL_SURFACE('',#579,2.55);
#490=CYLINDRICAL_SURFACE('',#582,2.55);
#491=CYLINDRICAL_SURFACE('',#599,4.);
#492=CYLINDRICAL_SURFACE('',#600,4.);
#493=CYLINDRICAL_SURFACE('',#601,4.);
#494=CYLINDRICAL_SURFACE('',#602,4.);
#495=ADVANCED_FACE('',(#63),#481,.F.);
#496=ADVANCED_FACE('',(#64),#482,.F.);
#497=ADVANCED_FACE('',(#65),#483,.F.);
#498=ADVANCED_FACE('',(#66),#484,.F.);
#499=ADVANCED_FACE('',(#67),#51,.F.);
#500=ADVANCED_FACE('',(#68),#52,.F.);
#501=ADVANCED_FACE('',(#69),#53,.F.);
#502=ADVANCED_FACE('',(#70),#54,.F.);
#503=ADVANCED_FACE('',(#71,#31,#32,#33,#34),#55,.F.);
#504=ADVANCED_FACE('',(#72,#35,#36,#37,#38),#56,.T.);
#505=ADVANCED_FACE('',(#73),#485,.F.);
#506=ADVANCED_FACE('',(#74),#486,.F.);
#507=ADVANCED_FACE('',(#75),#487,.F.);
#508=ADVANCED_FACE('',(#76),#488,.F.);
#509=ADVANCED_FACE('',(#77),#489,.F.);
#510=ADVANCED_FACE('',(#78),#490,.F.);
#511=ADVANCED_FACE('',(#79),#57,.F.);
#512=ADVANCED_FACE('',(#80),#58,.F.);
#513=ADVANCED_FACE('',(#81),#59,.F.);
#514=ADVANCED_FACE('',(#82),#60,.F.);
#515=ADVANCED_FACE('',(#83,#39,#40,#41,#42,#43,#44),#61,.F.);
#516=ADVANCED_FACE('',(#84,#45,#46,#47,#48,#49,#50),#62,.T.);
#517=ADVANCED_FACE('',(#85),#491,.T.);
#518=ADVANCED_FACE('',(#86),#492,.T.);
#519=ADVANCED_FACE('',(#87),#493,.T.);
#520=ADVANCED_FACE('',(#88),#494,.T.);
#521=CLOSED_SHELL('',(#495,#496,#497,#498,#499,#500,#501,#502,#503,#504));
#522=CLOSED_SHELL('',(#505,#506,#507,#508,#509,#510,#511,#512,#513,#514,
#515,#516,#517,#518,#519,#520));
#523=DERIVED_UNIT_ELEMENT(#527,1.);
#524=DERIVED_UNIT_ELEMENT(#915,-3.);
#525=DERIVED_UNIT_ELEMENT(#527,1.);
#526=DERIVED_UNIT_ELEMENT(#915,-3.);
#527=(
MASS_UNIT()
NAMED_UNIT(*)
SI_UNIT(.KILO.,.GRAM.)
);
#528=DERIVED_UNIT((#523,#524));
#529=DERIVED_UNIT((#525,#526));
#530=MEASURE_REPRESENTATION_ITEM('density measure',
POSITIVE_RATIO_MEASURE(7850.),#528);
#531=MEASURE_REPRESENTATION_ITEM('density measure',
POSITIVE_RATIO_MEASURE(7850.),#529);
#532=PROPERTY_DEFINITION_REPRESENTATION(#542,#536);
#533=PROPERTY_DEFINITION_REPRESENTATION(#543,#537);
#534=PROPERTY_DEFINITION_REPRESENTATION(#544,#538);
#535=PROPERTY_DEFINITION_REPRESENTATION(#545,#539);
#536=REPRESENTATION('material name',(#540),#911);
#537=REPRESENTATION('density',(#530),#911);
#538=REPRESENTATION('material name',(#541),#912);
#539=REPRESENTATION('density',(#531),#912);
#540=DESCRIPTIVE_REPRESENTATION_ITEM('Steel','Steel');
#541=DESCRIPTIVE_REPRESENTATION_ITEM('Steel','Steel');
#542=PROPERTY_DEFINITION('material property','material name',#932);
#543=PROPERTY_DEFINITION('material property','density of part',#932);
#544=PROPERTY_DEFINITION('material property','material name',#933);
#545=PROPERTY_DEFINITION('material property','density of part',#933);
#546=AXIS2_PLACEMENT_3D('',#764,#606,#607);
#547=AXIS2_PLACEMENT_3D('',#765,#608,#609);
#548=AXIS2_PLACEMENT_3D('',#766,#610,#611);
#549=AXIS2_PLACEMENT_3D('',#768,#612,#613);
#550=AXIS2_PLACEMENT_3D('',#771,#615,#616);
#551=AXIS2_PLACEMENT_3D('',#772,#617,#618);
#552=AXIS2_PLACEMENT_3D('',#774,#619,#620);
#553=AXIS2_PLACEMENT_3D('',#777,#622,#623);
#554=AXIS2_PLACEMENT_3D('',#778,#624,#625);
#555=AXIS2_PLACEMENT_3D('',#780,#626,#627);
#556=AXIS2_PLACEMENT_3D('',#783,#629,#630);
#557=AXIS2_PLACEMENT_3D('',#784,#631,#632);
#558=AXIS2_PLACEMENT_3D('',#786,#633,#634);
#559=AXIS2_PLACEMENT_3D('',#789,#636,#637);
#560=AXIS2_PLACEMENT_3D('',#790,#638,#639);
#561=AXIS2_PLACEMENT_3D('',#799,#644,#645);
#562=AXIS2_PLACEMENT_3D('',#805,#649,#650);
#563=AXIS2_PLACEMENT_3D('',#811,#654,#655);
#564=AXIS2_PLACEMENT_3D('',#814,#658,#659);
#565=AXIS2_PLACEMENT_3D('',#815,#660,#661);
#566=AXIS2_PLACEMENT_3D('',#816,#662,#663);
#567=AXIS2_PLACEMENT_3D('',#817,#664,#665);
#568=AXIS2_PLACEMENT_3D('',#819,#666,#667);
#569=AXIS2_PLACEMENT_3D('',#822,#669,#670);
#570=AXIS2_PLACEMENT_3D('',#823,#671,#672);
#571=AXIS2_PLACEMENT_3D('',#825,#673,#674);
#572=AXIS2_PLACEMENT_3D('',#828,#676,#677);
#573=AXIS2_PLACEMENT_3D('',#829,#678,#679);
#574=AXIS2_PLACEMENT_3D('',#831,#680,#681);
#575=AXIS2_PLACEMENT_3D('',#834,#683,#684);
#576=AXIS2_PLACEMENT_3D('',#835,#685,#686);
#577=AXIS2_PLACEMENT_3D('',#837,#687,#688);
#578=AXIS2_PLACEMENT_3D('',#840,#690,#691);
#579=AXIS2_PLACEMENT_3D('',#841,#692,#693);
#580=AXIS2_PLACEMENT_3D('',#843,#694,#695);
#581=AXIS2_PLACEMENT_3D('',#846,#697,#698);
#582=AXIS2_PLACEMENT_3D('',#847,#699,#700);
#583=AXIS2_PLACEMENT_3D('',#849,#701,#702);
#584=AXIS2_PLACEMENT_3D('',#852,#704,#705);
#585=AXIS2_PLACEMENT_3D('',#853,#706,#707);
#586=AXIS2_PLACEMENT_3D('',#862,#712,#713);
#587=AXIS2_PLACEMENT_3D('',#871,#718,#719);
#588=AXIS2_PLACEMENT_3D('',#880,#724,#725);
#589=AXIS2_PLACEMENT_3D('',#889,#730,#731);
#590=AXIS2_PLACEMENT_3D('',#890,#732,#733);
#591=AXIS2_PLACEMENT_3D('',#891,#734,#735);
#592=AXIS2_PLACEMENT_3D('',#892,#736,#737);
#593=AXIS2_PLACEMENT_3D('',#893,#738,#739);
#594=AXIS2_PLACEMENT_3D('',#894,#740,#741);
#595=AXIS2_PLACEMENT_3D('',#895,#742,#743);
#596=AXIS2_PLACEMENT_3D('',#896,#744,#745);
#597=AXIS2_PLACEMENT_3D('',#897,#746,#747);
#598=AXIS2_PLACEMENT_3D('',#898,#748,#749);
#599=AXIS2_PLACEMENT_3D('',#899,#750,#751);
#600=AXIS2_PLACEMENT_3D('',#900,#752,#753);
#601=AXIS2_PLACEMENT_3D('',#901,#754,#755);
#602=AXIS2_PLACEMENT_3D('',#902,#756,#757);
#603=AXIS2_PLACEMENT_3D('',#903,#758,#759);
#604=AXIS2_PLACEMENT_3D('',#904,#760,#761);
#605=AXIS2_PLACEMENT_3D('',#905,#762,#763);
#606=DIRECTION('axis',(0.,0.,1.));
#607=DIRECTION('refdir',(1.,0.,0.));
#608=DIRECTION('axis',(0.,0.,1.));
#609=DIRECTION('refdir',(1.,0.,0.));
#610=DIRECTION('center_axis',(0.,0.,1.));
#611=DIRECTION('ref_axis',(1.,0.,0.));
#612=DIRECTION('center_axis',(0.,0.,1.));
#613=DIRECTION('ref_axis',(-1.,0.,0.));
#614=DIRECTION('',(0.,0.,1.));
#615=DIRECTION('center_axis',(0.,0.,-1.));
#616=DIRECTION('ref_axis',(1.,0.,0.));
#617=DIRECTION('center_axis',(0.,0.,1.));
#618=DIRECTION('ref_axis',(1.,0.,0.));
#619=DIRECTION('center_axis',(0.,0.,-1.));
#620=DIRECTION('ref_axis',(-1.,0.,0.));
#621=DIRECTION('',(0.,0.,1.));
#622=DIRECTION('center_axis',(0.,0.,1.));
#623=DIRECTION('ref_axis',(-1.,0.,0.));
#624=DIRECTION('center_axis',(0.,0.,1.));
#625=DIRECTION('ref_axis',(1.,0.,0.));
#626=DIRECTION('center_axis',(0.,0.,1.));
#627=DIRECTION('ref_axis',(-1.,0.,0.));
#628=DIRECTION('',(0.,0.,1.));
#629=DIRECTION('center_axis',(0.,0.,-1.));
#630=DIRECTION('ref_axis',(-1.,0.,0.));
#631=DIRECTION('center_axis',(0.,0.,1.));
#632=DIRECTION('ref_axis',(1.,0.,0.));
#633=DIRECTION('center_axis',(0.,0.,-1.));
#634=DIRECTION('ref_axis',(-1.,0.,0.));
#635=DIRECTION('',(0.,0.,1.));
#636=DIRECTION('center_axis',(0.,0.,1.));
#637=DIRECTION('ref_axis',(1.,0.,0.));
#638=DIRECTION('center_axis',(-1.,0.,0.));
#639=DIRECTION('ref_axis',(0.,0.,1.));
#640=DIRECTION('',(0.,1.,0.));
#641=DIRECTION('',(0.,0.,-1.));
#642=DIRECTION('',(0.,1.,0.));
#643=DIRECTION('',(0.,0.,-1.));
#644=DIRECTION('center_axis',(9.40866970021319E-17,-1.,0.));
#645=DIRECTION('ref_axis',(1.,9.40866970021319E-17,0.));
#646=DIRECTION('',(-1.,-9.40866970021319E-17,0.));
#647=DIRECTION('',(0.,0.,-1.));
#648=DIRECTION('',(-1.,-9.40866970021319E-17,0.));
#649=DIRECTION('center_axis',(1.,1.32169407693471E-16,0.));
#650=DIRECTION('ref_axis',(-1.32169407693471E-16,1.,0.));
#651=DIRECTION('',(1.32169407693471E-16,-1.,0.));
#652=DIRECTION('',(0.,0.,-1.));
#653=DIRECTION('',(1.32169407693471E-16,-1.,0.));
#654=DIRECTION('center_axis',(-1.88173394004264E-16,1.,0.));
#655=DIRECTION('ref_axis',(-1.,-1.88173394004264E-16,0.));
#656=DIRECTION('',(1.,1.88173394004264E-16,0.));
#657=DIRECTION('',(1.,1.88173394004264E-16,0.));
#658=DIRECTION('center_axis',(0.,0.,-1.));
#659=DIRECTION('ref_axis',(-1.,0.,0.));
#660=DIRECTION('center_axis',(0.,0.,-1.));
#661=DIRECTION('ref_axis',(-1.,0.,0.));
#662=DIRECTION('axis',(0.,0.,1.));
#663=DIRECTION('refdir',(1.,0.,0.));
#664=DIRECTION('center_axis',(0.,0.,1.));
#665=DIRECTION('ref_axis',(1.,0.,0.));
#666=DIRECTION('center_axis',(0.,0.,1.));
#667=DIRECTION('ref_axis',(1.,0.,0.));
#668=DIRECTION('',(0.,0.,1.));
#669=DIRECTION('center_axis',(0.,0.,1.));
#670=DIRECTION('ref_axis',(1.,0.,0.));
#671=DIRECTION('center_axis',(0.,0.,1.));
#672=DIRECTION('ref_axis',(1.,0.,0.));
#673=DIRECTION('center_axis',(0.,0.,1.));
#674=DIRECTION('ref_axis',(1.,0.,0.));
#675=DIRECTION('',(0.,0.,1.));
#676=DIRECTION('center_axis',(0.,0.,1.));
#677=DIRECTION('ref_axis',(1.,0.,0.));
#678=DIRECTION('center_axis',(0.,0.,1.));
#679=DIRECTION('ref_axis',(1.,0.,0.));
#680=DIRECTION('center_axis',(0.,0.,1.));
#681=DIRECTION('ref_axis',(1.,0.,0.));
#682=DIRECTION('',(0.,0.,1.));
#683=DIRECTION('center_axis',(0.,0.,1.));
#684=DIRECTION('ref_axis',(1.,0.,0.));
#685=DIRECTION('center_axis',(0.,0.,1.));
#686=DIRECTION('ref_axis',(1.,0.,0.));
#687=DIRECTION('center_axis',(0.,0.,1.));
#688=DIRECTION('ref_axis',(1.,0.,0.));
#689=DIRECTION('',(0.,0.,1.));
#690=DIRECTION('center_axis',(0.,0.,1.));
#691=DIRECTION('ref_axis',(1.,0.,0.));
#692=DIRECTION('center_axis',(0.,0.,1.));
#693=DIRECTION('ref_axis',(1.,0.,0.));
#694=DIRECTION('center_axis',(0.,0.,1.));
#695=DIRECTION('ref_axis',(1.,0.,0.));
#696=DIRECTION('',(0.,0.,1.));
#697=DIRECTION('center_axis',(0.,0.,1.));
#698=DIRECTION('ref_axis',(1.,0.,0.));
#699=DIRECTION('center_axis',(0.,0.,1.));
#700=DIRECTION('ref_axis',(1.,0.,0.));
#701=DIRECTION('center_axis',(0.,0.,1.));
#702=DIRECTION('ref_axis',(1.,0.,0.));
#703=DIRECTION('',(0.,0.,1.));
#704=DIRECTION('center_axis',(0.,0.,1.));
#705=DIRECTION('ref_axis',(1.,0.,0.));
#706=DIRECTION('center_axis',(-1.,0.,0.));
#707=DIRECTION('ref_axis',(0.,0.,1.));
#708=DIRECTION('',(0.,1.,0.));
#709=DIRECTION('',(0.,0.,-1.));
#710=DIRECTION('',(0.,1.,0.));
#711=DIRECTION('',(0.,0.,1.));
#712=DIRECTION('center_axis',(0.,-1.,0.));
#713=DIRECTION('ref_axis',(0.,0.,-1.));
#714=DIRECTION('',(-1.,0.,0.));
#715=DIRECTION('',(0.,0.,1.));
#716=DIRECTION('',(-1.,0.,0.));
#717=DIRECTION('',(0.,0.,-1.));
#718=DIRECTION('center_axis',(1.,0.,0.));
#719=DIRECTION('ref_axis',(0.,0.,-1.));
#720=DIRECTION('',(0.,-1.,0.));
#721=DIRECTION('',(0.,0.,-1.));
#722=DIRECTION('',(0.,-1.,0.));
#723=DIRECTION('',(0.,0.,1.));
#724=DIRECTION('center_axis',(0.,1.,0.));
#725=DIRECTION('ref_axis',(0.,0.,1.));
#726=DIRECTION('',(1.,0.,0.));
#727=DIRECTION('',(0.,0.,-1.));
#728=DIRECTION('',(1.,0.,0.));
#729=DIRECTION('',(0.,0.,1.));
#730=DIRECTION('center_axis',(0.,0.,-1.));
#731=DIRECTION('ref_axis',(-1.,0.,0.));
#732=DIRECTION('center_axis',(0.,0.,1.));
#733=DIRECTION('ref_axis',(-1.,0.,0.));
#734=DIRECTION('center_axis',(0.,0.,1.));
#735=DIRECTION('ref_axis',(-1.,0.,0.));
#736=DIRECTION('center_axis',(0.,0.,1.));
#737=DIRECTION('ref_axis',(-1.,0.,0.));
#738=DIRECTION('center_axis',(0.,0.,1.));
#739=DIRECTION('ref_axis',(-1.,0.,0.));
#740=DIRECTION('center_axis',(0.,0.,-1.));
#741=DIRECTION('ref_axis',(-1.,0.,0.));
#742=DIRECTION('center_axis',(0.,0.,-1.));
#743=DIRECTION('ref_axis',(-1.,0.,0.));
#744=DIRECTION('center_axis',(0.,0.,-1.));
#745=DIRECTION('ref_axis',(-1.,0.,0.));
#746=DIRECTION('center_axis',(0.,0.,-1.));
#747=DIRECTION('ref_axis',(-1.,0.,0.));
#748=DIRECTION('center_axis',(0.,0.,-1.));
#749=DIRECTION('ref_axis',(-1.,0.,0.));
#750=DIRECTION('center_axis',(0.,0.,-1.));
#751=DIRECTION('ref_axis',(-1.,0.,0.));
#752=DIRECTION('center_axis',(0.,0.,-1.));
#753=DIRECTION('ref_axis',(-1.,0.,0.));
#754=DIRECTION('center_axis',(0.,0.,-1.));
#755=DIRECTION('ref_axis',(-1.,0.,0.));
#756=DIRECTION('center_axis',(0.,0.,-1.));
#757=DIRECTION('ref_axis',(-1.,0.,0.));
#758=DIRECTION('',(0.,-4.17828869290763E-34,-1.));
#759=DIRECTION('',(1.,6.16297582203915E-33,-2.57506921918893E-66));
#760=DIRECTION('',(0.,0.,1.));
#761=DIRECTION('',(-3.49148133884313E-15,1.,0.));
#762=DIRECTION('',(0.,0.,-1.));
#763=DIRECTION('',(-3.49148133884313E-15,-1.,0.));
#764=CARTESIAN_POINT('',(0.,0.,0.));
#765=CARTESIAN_POINT('',(0.,0.,0.));
#766=CARTESIAN_POINT('Origin',(-139.5,-97.,-8.));
#767=CARTESIAN_POINT('',(-142.,-97.,0.));
#768=CARTESIAN_POINT('Origin',(-139.5,-97.,0.));
#769=CARTESIAN_POINT('',(-142.,-97.,2.));
#770=CARTESIAN_POINT('',(-142.,-97.,-8.));
#771=CARTESIAN_POINT('Origin',(-139.5,-97.,2.));
#772=CARTESIAN_POINT('Origin',(139.5,-97.,-8.));
#773=CARTESIAN_POINT('',(137.,-97.,0.));
#774=CARTESIAN_POINT('Origin',(139.5,-97.,0.));
#775=CARTESIAN_POINT('',(137.,-97.,2.));
#776=CARTESIAN_POINT('',(137.,-97.,-8.));
#777=CARTESIAN_POINT('Origin',(139.5,-97.,2.));
#778=CARTESIAN_POINT('Origin',(139.5,97.,-8.));
#779=CARTESIAN_POINT('',(137.,97.,0.));
#780=CARTESIAN_POINT('Origin',(139.5,97.,0.));
#781=CARTESIAN_POINT('',(137.,97.,2.));
#782=CARTESIAN_POINT('',(137.,97.,-8.));
#783=CARTESIAN_POINT('Origin',(139.5,97.,2.));
#784=CARTESIAN_POINT('Origin',(-139.5,97.,-8.));
#785=CARTESIAN_POINT('',(-142.,97.,0.));
#786=CARTESIAN_POINT('Origin',(-139.5,97.,0.));
#787=CARTESIAN_POINT('',(-142.,97.,2.));
#788=CARTESIAN_POINT('',(-142.,97.,-8.));
#789=CARTESIAN_POINT('Origin',(-139.5,97.,2.));
#790=CARTESIAN_POINT('Origin',(147.5,105.,2.));
#791=CARTESIAN_POINT('',(147.5,-105.,0.));
#792=CARTESIAN_POINT('',(147.5,105.,0.));
#793=CARTESIAN_POINT('',(147.5,105.,0.));
#794=CARTESIAN_POINT('',(147.5,105.,2.));
#795=CARTESIAN_POINT('',(147.5,105.,2.));
#796=CARTESIAN_POINT('',(147.5,-105.,2.));
#797=CARTESIAN_POINT('',(147.5,105.,2.));
#798=CARTESIAN_POINT('',(147.5,-105.,2.));
#799=CARTESIAN_POINT('Origin',(147.5,105.,2.));
#800=CARTESIAN_POINT('',(-147.5,105.,0.));
#801=CARTESIAN_POINT('',(147.5,105.,0.));
#802=CARTESIAN_POINT('',(-147.5,105.,2.));
#803=CARTESIAN_POINT('',(-147.5,105.,2.));
#804=CARTESIAN_POINT('',(147.5,105.,2.));
#805=CARTESIAN_POINT('Origin',(-147.5,105.,2.));
#806=CARTESIAN_POINT('',(-147.5,-105.,0.));
#807=CARTESIAN_POINT('',(-147.5,105.,0.));
#808=CARTESIAN_POINT('',(-147.5,-105.,2.));
#809=CARTESIAN_POINT('',(-147.5,-105.,2.));
#810=CARTESIAN_POINT('',(-147.5,105.,2.));
#811=CARTESIAN_POINT('Origin',(147.5,-105.,2.));
#812=CARTESIAN_POINT('',(147.5,-105.,0.));
#813=CARTESIAN_POINT('',(147.5,-105.,2.));
#814=CARTESIAN_POINT('Origin',(0.,0.,2.));
#815=CARTESIAN_POINT('Origin',(0.,0.,0.));
#816=CARTESIAN_POINT('',(0.,0.,0.));
#817=CARTESIAN_POINT('Origin',(-35.0000000000004,-115.,0.));
#818=CARTESIAN_POINT('',(-37.5500000000004,-115.,0.));
#819=CARTESIAN_POINT('Origin',(-35.0000000000004,-115.,0.));
#820=CARTESIAN_POINT('',(-37.5500000000004,-115.,1.));
#821=CARTESIAN_POINT('',(-37.5500000000004,-115.,0.));
#822=CARTESIAN_POINT('Origin',(-35.0000000000004,-115.,1.));
#823=CARTESIAN_POINT('Origin',(-35.,1.36830597539016E-13,0.));
#824=CARTESIAN_POINT('',(-37.55,1.36518312605234E-13,0.));
#825=CARTESIAN_POINT('Origin',(-35.,1.36830597539016E-13,0.));
#826=CARTESIAN_POINT('',(-37.55,1.36518312605234E-13,1.));
#827=CARTESIAN_POINT('',(-37.55,1.36518312605234E-13,0.));
#828=CARTESIAN_POINT('Origin',(-35.,1.36830597539016E-13,1.));
#829=CARTESIAN_POINT('Origin',(35.,-1.16084391434077E-13,0.));
#830=CARTESIAN_POINT('',(32.45,-1.1639667636786E-13,0.));
#831=CARTESIAN_POINT('Origin',(35.,-1.16084391434077E-13,0.));
#832=CARTESIAN_POINT('',(32.45,-1.1639667636786E-13,1.));
#833=CARTESIAN_POINT('',(32.45,-1.1639667636786E-13,0.));
#834=CARTESIAN_POINT('Origin',(35.,-1.16084391434077E-13,1.));
#835=CARTESIAN_POINT('Origin',(35.0000000000004,115.,0.));
#836=CARTESIAN_POINT('',(32.4500000000004,115.,0.));
#837=CARTESIAN_POINT('Origin',(35.0000000000004,115.,0.));
#838=CARTESIAN_POINT('',(32.4500000000004,115.,1.));
#839=CARTESIAN_POINT('',(32.4500000000004,115.,0.));
#840=CARTESIAN_POINT('Origin',(35.0000000000004,115.,1.));
#841=CARTESIAN_POINT('Origin',(-34.9999999999996,115.,0.));
#842=CARTESIAN_POINT('',(-37.5499999999996,115.,0.));
#843=CARTESIAN_POINT('Origin',(-34.9999999999996,115.,0.));
#844=CARTESIAN_POINT('',(-37.5499999999996,115.,1.));
#845=CARTESIAN_POINT('',(-37.5499999999996,115.,0.));
#846=CARTESIAN_POINT('Origin',(-34.9999999999996,115.,1.));
#847=CARTESIAN_POINT('Origin',(34.9999999999996,-115.,0.));
#848=CARTESIAN_POINT('',(32.4499999999996,-115.,0.));
#849=CARTESIAN_POINT('Origin',(34.9999999999996,-115.,0.));
#850=CARTESIAN_POINT('',(32.4499999999996,-115.,1.));
#851=CARTESIAN_POINT('',(32.4499999999996,-115.,0.));
#852=CARTESIAN_POINT('Origin',(34.9999999999996,-115.,1.));
#853=CARTESIAN_POINT('Origin',(40.,-128.,1.));
#854=CARTESIAN_POINT('',(40.,-124.,1.));
#855=CARTESIAN_POINT('',(40.,124.,1.));
#856=CARTESIAN_POINT('',(40.,-128.,1.));
#857=CARTESIAN_POINT('',(40.,-124.,0.));
#858=CARTESIAN_POINT('',(40.,-124.,1.));
#859=CARTESIAN_POINT('',(40.,124.,0.));
#860=CARTESIAN_POINT('',(40.,-128.,0.));
#861=CARTESIAN_POINT('',(40.,124.,1.));
#862=CARTESIAN_POINT('Origin',(-40.,128.,1.));
#863=CARTESIAN_POINT('',(36.,128.,0.));
#864=CARTESIAN_POINT('',(-36.,128.,0.));
#865=CARTESIAN_POINT('',(-40.,128.,0.));
#866=CARTESIAN_POINT('',(-36.,128.,1.));
#867=CARTESIAN_POINT('',(-36.,128.,1.));
#868=CARTESIAN_POINT('',(36.,128.,1.));
#869=CARTESIAN_POINT('',(-40.,128.,1.));
#870=CARTESIAN_POINT('',(36.,128.,1.));
#871=CARTESIAN_POINT('Origin',(-40.,-128.,1.));
#872=CARTESIAN_POINT('',(-40.,124.,1.));
#873=CARTESIAN_POINT('',(-40.,-124.,1.));
#874=CARTESIAN_POINT('',(-40.,-128.,1.));
#875=CARTESIAN_POINT('',(-40.,124.,0.));
#876=CARTESIAN_POINT('',(-40.,124.,1.));
#877=CARTESIAN_POINT('',(-40.,-124.,0.));
#878=CARTESIAN_POINT('',(-40.,-128.,0.));
#879=CARTESIAN_POINT('',(-40.,-124.,1.));
#880=CARTESIAN_POINT('Origin',(-40.,-128.,1.));
#881=CARTESIAN_POINT('',(-36.,-128.,1.));
#882=CARTESIAN_POINT('',(36.,-128.,1.));
#883=CARTESIAN_POINT('',(-40.,-128.,1.));
#884=CARTESIAN_POINT('',(-36.,-128.,0.));
#885=CARTESIAN_POINT('',(-36.,-128.,1.));
#886=CARTESIAN_POINT('',(36.,-128.,0.));
#887=CARTESIAN_POINT('',(-40.,-128.,0.));
#888=CARTESIAN_POINT('',(36.,-128.,1.));
#889=CARTESIAN_POINT('Origin',(0.,0.,1.));
#890=CARTESIAN_POINT('Origin',(-36.,124.,1.));
#891=CARTESIAN_POINT('Origin',(-36.,-124.,1.));
#892=CARTESIAN_POINT('Origin',(36.,-124.,1.));
#893=CARTESIAN_POINT('Origin',(36.,124.,1.));
#894=CARTESIAN_POINT('Origin',(0.,0.,0.));
#895=CARTESIAN_POINT('Origin',(-36.,124.,0.));
#896=CARTESIAN_POINT('Origin',(36.,124.,0.));
#897=CARTESIAN_POINT('Origin',(36.,-124.,0.));
#898=CARTESIAN_POINT('Origin',(-36.,-124.,0.));
#899=CARTESIAN_POINT('Origin',(-36.,124.,1.));
#900=CARTESIAN_POINT('Origin',(-36.,-124.,1.));
#901=CARTESIAN_POINT('Origin',(36.,-124.,1.));
#902=CARTESIAN_POINT('Origin',(36.,124.,1.));
#903=CARTESIAN_POINT('',(-439.843446813885,-0.560076829335056,0.560076829339736));
#904=CARTESIAN_POINT('',(-439.843446813885,49.6729830598546,0.560076829339736));
#905=CARTESIAN_POINT('',(-439.843446813885,-49.6729830598546,1.56007682933974));
#906=UNCERTAINTY_MEASURE_WITH_UNIT(LENGTH_MEASURE(0.01),#914,
'DISTANCE_ACCURACY_VALUE',
'Maximum model space distance between geometric entities at asserted c
onnectivities');
#907=UNCERTAINTY_MEASURE_WITH_UNIT(LENGTH_MEASURE(0.01),#914,
'DISTANCE_ACCURACY_VALUE',
'Maximum model space distance between geometric entities at asserted c
onnectivities');
#908=UNCERTAINTY_MEASURE_WITH_UNIT(LENGTH_MEASURE(0.01),#914,
'DISTANCE_ACCURACY_VALUE',
'Maximum model space distance between geometric entities at asserted c
onnectivities');
#909=UNCERTAINTY_MEASURE_WITH_UNIT(LENGTH_MEASURE(0.01),#914,
'DISTANCE_ACCURACY_VALUE',
'Maximum model space distance between geometric entities at asserted c
onnectivities');
#910=(
GEOMETRIC_REPRESENTATION_CONTEXT(3)
GLOBAL_UNCERTAINTY_ASSIGNED_CONTEXT((#906))
GLOBAL_UNIT_ASSIGNED_CONTEXT((#914,#916,#917))
REPRESENTATION_CONTEXT('','3D')
);
#911=(
GEOMETRIC_REPRESENTATION_CONTEXT(3)
GLOBAL_UNCERTAINTY_ASSIGNED_CONTEXT((#907))
GLOBAL_UNIT_ASSIGNED_CONTEXT((#914,#916,#917))
REPRESENTATION_CONTEXT('','3D')
);
#912=(
GEOMETRIC_REPRESENTATION_CONTEXT(3)
GLOBAL_UNCERTAINTY_ASSIGNED_CONTEXT((#908))
GLOBAL_UNIT_ASSIGNED_CONTEXT((#914,#916,#917))
REPRESENTATION_CONTEXT('','3D')
);
#913=(
GEOMETRIC_REPRESENTATION_CONTEXT(3)
GLOBAL_UNCERTAINTY_ASSIGNED_CONTEXT((#909))
GLOBAL_UNIT_ASSIGNED_CONTEXT((#914,#916,#917))
REPRESENTATION_CONTEXT('','3D')
);
#914=(
LENGTH_UNIT()
NAMED_UNIT(*)
SI_UNIT(.MILLI.,.METRE.)
);
#915=(
LENGTH_UNIT()
NAMED_UNIT(*)
SI_UNIT($,.METRE.)
);
#916=(
NAMED_UNIT(*)
PLANE_ANGLE_UNIT()
SI_UNIT($,.RADIAN.)
);
#917=(
NAMED_UNIT(*)
SI_UNIT($,.STERADIAN.)
SOLID_ANGLE_UNIT()
);
#918=SHAPE_DEFINITION_REPRESENTATION(#921,#927);
#919=SHAPE_DEFINITION_REPRESENTATION(#922,#928);
#920=SHAPE_DEFINITION_REPRESENTATION(#923,#929);
#921=PRODUCT_DEFINITION_SHAPE('',$,#931);
#922=PRODUCT_DEFINITION_SHAPE('',$,#932);
#923=PRODUCT_DEFINITION_SHAPE('',$,#933);
#924=PRODUCT_DEFINITION_SHAPE($,$,#20);
#925=PRODUCT_DEFINITION_SHAPE($,$,#21);
#926=PRODUCT_DEFINITION_SHAPE($,$,#22);
#927=SHAPE_REPRESENTATION('',(#546,#603,#604,#605),#910);
#928=SHAPE_REPRESENTATION('',(#547),#911);
#929=SHAPE_REPRESENTATION('',(#566),#912);
#930=PRODUCT_DEFINITION_CONTEXT('part definition',#941,'design');
#931=PRODUCT_DEFINITION('CAM-FrontPanel','CAM-FrontPanel v1',#934,#930);
#932=PRODUCT_DEFINITION('Panels-Sheet-Stock-A4','Panels-Sheet-Stock-A4',
#935,#930);
#933=PRODUCT_DEFINITION('610_FrontPanel_x1_1mm_INOX',
'610_FrontPanel_x1_1mm_INOX',#936,#930);
#934=PRODUCT_DEFINITION_FORMATION('',$,#943);
#935=PRODUCT_DEFINITION_FORMATION('',$,#944);
#936=PRODUCT_DEFINITION_FORMATION('',$,#945);
#937=PRODUCT_RELATED_PRODUCT_CATEGORY('CAM-FrontPanel v1',
'CAM-FrontPanel v1',(#943));
#938=PRODUCT_RELATED_PRODUCT_CATEGORY('Panels-Sheet-Stock-A4',
'Panels-Sheet-Stock-A4',(#944));
#939=PRODUCT_RELATED_PRODUCT_CATEGORY('610_FrontPanel_x1_1mm_INOX',
'610_FrontPanel_x1_1mm_INOX',(#945));
#940=APPLICATION_PROTOCOL_DEFINITION('international standard',
'automotive_design',2009,#941);
#941=APPLICATION_CONTEXT(
'Core Data for Automotive Mechanical Design Process');
#942=PRODUCT_CONTEXT('part definition',#941,'mechanical');
#943=PRODUCT('CAM-FrontPanel','CAM-FrontPanel v1','STEP AP214',(#942));
#944=PRODUCT('Panels-Sheet-Stock-A4','Panels-Sheet-Stock-A4',$,(#942));
#945=PRODUCT('610_FrontPanel_x1_1mm_INOX','610_FrontPanel_x1_1mm_INOX',
$,(#942));
#946=PRESENTATION_STYLE_ASSIGNMENT((#949));
#947=PRESENTATION_STYLE_ASSIGNMENT((#950));
#948=PRESENTATION_STYLE_ASSIGNMENT((#951));
#949=SURFACE_STYLE_USAGE(.BOTH.,#952);
#950=SURFACE_STYLE_USAGE(.BOTH.,#953);
#951=SURFACE_STYLE_USAGE(.BOTH.,#954);
#952=SURFACE_SIDE_STYLE('',(#955));
#953=SURFACE_SIDE_STYLE('',(#956));
#954=SURFACE_SIDE_STYLE('',(#957));
#955=SURFACE_STYLE_FILL_AREA(#958);
#956=SURFACE_STYLE_FILL_AREA(#959);
#957=SURFACE_STYLE_FILL_AREA(#960);
#958=FILL_AREA_STYLE('Steel - Satin',(#961));
#959=FILL_AREA_STYLE('Opaque(202,209,238)',(#962));
#960=FILL_AREA_STYLE('Opaque(247,66,66)',(#963));
#961=FILL_AREA_STYLE_COLOUR('Steel - Satin',#964);
#962=FILL_AREA_STYLE_COLOUR('Opaque(202,209,238)',#965);
#963=FILL_AREA_STYLE_COLOUR('Opaque(247,66,66)',#966);
#964=COLOUR_RGB('Steel - Satin',0.627450980392157,0.627450980392157,0.627450980392157);
#965=COLOUR_RGB('Opaque(202,209,238)',0.792156862745098,0.819607843137255,
0.933333333333333);
#966=COLOUR_RGB('Opaque(247,66,66)',0.968627450980392,0.258823529411765,
0.258823529411765);
ENDSEC;
END-ISO-10303-21;
