ISO-10303-21;
HEADER;
/* Generated by software containing ST-Developer
 * from STEP Tools, Inc. (www.steptools.com) 
 */

FILE_DESCRIPTION(
/* description */ ('STEP AP203'),
/* implementation_level */ '2;1');

FILE_NAME(
/* name */ 'plastic v1.step',
/* time_stamp */ '2026-03-14T09:22:24+01:00',
/* author */ (''),
/* organization */ (''),
/* preprocessor_version */ 'ST-DEVELOPER v20.1',
/* originating_system */ 'Autodesk Translation Framework v14.24.0.0',
/* authorisation */ '');

FILE_SCHEMA (('AUTOMOTIVE_DESIGN { 1 0 10303 214 3 1 1 }'));
ENDSEC;

DATA;
#10=MECHANICAL_DESIGN_GEOMETRIC_PRESENTATION_REPRESENTATION('',(#37,#38,
#39),#1081);
#11=ITEM_DEFINED_TRANSFORMATION($,$,#697,#714);
#12=ITEM_DEFINED_TRANSFORMATION($,$,#680,#715);
#13=ITEM_DEFINED_TRANSFORMATION($,$,#653,#716);
#14=ITEM_DEFINED_TRANSFORMATION($,$,#680,#717);
#15=ITEM_DEFINED_TRANSFORMATION($,$,#697,#718);
#16=(
REPRESENTATION_RELATIONSHIP($,$,#1102,#1099)
REPRESENTATION_RELATIONSHIP_WITH_TRANSFORMATION(#11)
SHAPE_REPRESENTATION_RELATIONSHIP()
);
#17=(
REPRESENTATION_RELATIONSHIP($,$,#1101,#1099)
REPRESENTATION_RELATIONSHIP_WITH_TRANSFORMATION(#12)
SHAPE_REPRESENTATION_RELATIONSHIP()
);
#18=(
REPRESENTATION_RELATIONSHIP($,$,#1100,#1099)
REPRESENTATION_RELATIONSHIP_WITH_TRANSFORMATION(#13)
SHAPE_REPRESENTATION_RELATIONSHIP()
);
#19=(
REPRESENTATION_RELATIONSHIP($,$,#1101,#1099)
REPRESENTATION_RELATIONSHIP_WITH_TRANSFORMATION(#14)
SHAPE_REPRESENTATION_RELATIONSHIP()
);
#20=(
REPRESENTATION_RELATIONSHIP($,$,#1102,#1099)
REPRESENTATION_RELATIONSHIP_WITH_TRANSFORMATION(#15)
SHAPE_REPRESENTATION_RELATIONSHIP()
);
#21=CONTEXT_DEPENDENT_SHAPE_REPRESENTATION(#16,#1094);
#22=CONTEXT_DEPENDENT_SHAPE_REPRESENTATION(#17,#1095);
#23=CONTEXT_DEPENDENT_SHAPE_REPRESENTATION(#18,#1096);
#24=CONTEXT_DEPENDENT_SHAPE_REPRESENTATION(#19,#1097);
#25=CONTEXT_DEPENDENT_SHAPE_REPRESENTATION(#20,#1098);
#26=NEXT_ASSEMBLY_USAGE_OCCURRENCE('marco 40_Predeterminado:1',
'marco 40_Predeterminado:1','marco 40_Predeterminado:1',#1104,#1107,
'marco 40_Predeterminado:1');
#27=NEXT_ASSEMBLY_USAGE_OCCURRENCE('marco 36_Predeterminado:1',
'marco 36_Predeterminado:1','marco 36_Predeterminado:1',#1104,#1106,
'marco 36_Predeterminado:1');
#28=NEXT_ASSEMBLY_USAGE_OCCURRENCE('marco superior_Predeterminado:1',
'marco superior_Predeterminado:1','marco superior_Predeterminado:1',#1104,
#1105,'marco superior_Predeterminado:1');
#29=NEXT_ASSEMBLY_USAGE_OCCURRENCE('marco 36_Predeterminado:2',
'marco 36_Predeterminado:2','marco 36_Predeterminado:2',#1104,#1106,
'marco 36_Predeterminado:2');
#30=NEXT_ASSEMBLY_USAGE_OCCURRENCE('marco 40_Predeterminado:2',
'marco 40_Predeterminado:2','marco 40_Predeterminado:2',#1104,#1107,
'marco 40_Predeterminado:2');
#31=SHAPE_REPRESENTATION_RELATIONSHIP('SRR','None',#1100,#34);
#32=SHAPE_REPRESENTATION_RELATIONSHIP('SRR','None',#1101,#35);
#33=SHAPE_REPRESENTATION_RELATIONSHIP('SRR','None',#1102,#36);
#34=ADVANCED_BREP_SHAPE_REPRESENTATION('',(#40),#1078);
#35=ADVANCED_BREP_SHAPE_REPRESENTATION('',(#41),#1079);
#36=ADVANCED_BREP_SHAPE_REPRESENTATION('',(#42),#1080);
#37=STYLED_ITEM('',(#1123),#40);
#38=STYLED_ITEM('',(#1123),#41);
#39=STYLED_ITEM('',(#1123),#42);
#40=MANIFOLD_SOLID_BREP('Body1',#615);
#41=MANIFOLD_SOLID_BREP('Body1',#616);
#42=MANIFOLD_SOLID_BREP('Body1',#617);
#43=FACE_BOUND('',#132,.T.);
#44=FACE_BOUND('',#133,.T.);
#45=FACE_BOUND('',#134,.T.);
#46=FACE_BOUND('',#135,.T.);
#47=FACE_BOUND('',#137,.T.);
#48=FACE_BOUND('',#138,.T.);
#49=FACE_BOUND('',#139,.T.);
#50=FACE_BOUND('',#140,.T.);
#51=FACE_BOUND('',#150,.T.);
#52=FACE_BOUND('',#151,.T.);
#53=FACE_BOUND('',#153,.T.);
#54=FACE_BOUND('',#154,.T.);
#55=FACE_BOUND('',#164,.T.);
#56=FACE_BOUND('',#165,.T.);
#57=FACE_BOUND('',#167,.T.);
#58=FACE_BOUND('',#168,.T.);
#59=PLANE('',#674);
#60=PLANE('',#675);
#61=PLANE('',#676);
#62=PLANE('',#677);
#63=PLANE('',#678);
#64=PLANE('',#679);
#65=PLANE('',#691);
#66=PLANE('',#692);
#67=PLANE('',#693);
#68=PLANE('',#694);
#69=PLANE('',#695);
#70=PLANE('',#696);
#71=PLANE('',#708);
#72=PLANE('',#709);
#73=PLANE('',#710);
#74=PLANE('',#711);
#75=PLANE('',#712);
#76=PLANE('',#713);
#77=CYLINDRICAL_SURFACE('',#666,4.99999999999999);
#78=CYLINDRICAL_SURFACE('',#668,5.);
#79=CYLINDRICAL_SURFACE('',#670,5.);
#80=CYLINDRICAL_SURFACE('',#672,5.);
#81=CYLINDRICAL_SURFACE('',#687,5.);
#82=CYLINDRICAL_SURFACE('',#689,5.);
#83=CYLINDRICAL_SURFACE('',#704,5.);
#84=CYLINDRICAL_SURFACE('',#706,5.);
#85=FACE_OUTER_BOUND('',#119,.T.);
#86=FACE_OUTER_BOUND('',#120,.T.);
#87=FACE_OUTER_BOUND('',#121,.T.);
#88=FACE_OUTER_BOUND('',#122,.T.);
#89=FACE_OUTER_BOUND('',#123,.T.);
#90=FACE_OUTER_BOUND('',#124,.T.);
#91=FACE_OUTER_BOUND('',#125,.T.);
#92=FACE_OUTER_BOUND('',#126,.T.);
#93=FACE_OUTER_BOUND('',#127,.T.);
#94=FACE_OUTER_BOUND('',#128,.T.);
#95=FACE_OUTER_BOUND('',#129,.T.);
#96=FACE_OUTER_BOUND('',#130,.T.);
#97=FACE_OUTER_BOUND('',#131,.T.);
#98=FACE_OUTER_BOUND('',#136,.T.);
#99=FACE_OUTER_BOUND('',#141,.T.);
#100=FACE_OUTER_BOUND('',#142,.T.);
#101=FACE_OUTER_BOUND('',#143,.T.);
#102=FACE_OUTER_BOUND('',#144,.T.);
#103=FACE_OUTER_BOUND('',#145,.T.);
#104=FACE_OUTER_BOUND('',#146,.T.);
#105=FACE_OUTER_BOUND('',#147,.T.);
#106=FACE_OUTER_BOUND('',#148,.T.);
#107=FACE_OUTER_BOUND('',#149,.T.);
#108=FACE_OUTER_BOUND('',#152,.T.);
#109=FACE_OUTER_BOUND('',#155,.T.);
#110=FACE_OUTER_BOUND('',#156,.T.);
#111=FACE_OUTER_BOUND('',#157,.T.);
#112=FACE_OUTER_BOUND('',#158,.T.);
#113=FACE_OUTER_BOUND('',#159,.T.);
#114=FACE_OUTER_BOUND('',#160,.T.);
#115=FACE_OUTER_BOUND('',#161,.T.);
#116=FACE_OUTER_BOUND('',#162,.T.);
#117=FACE_OUTER_BOUND('',#163,.T.);
#118=FACE_OUTER_BOUND('',#166,.T.);
#119=EDGE_LOOP('',(#421,#422,#423,#424));
#120=EDGE_LOOP('',(#425,#426,#427,#428));
#121=EDGE_LOOP('',(#429,#430,#431,#432));
#122=EDGE_LOOP('',(#433,#434,#435,#436));
#123=EDGE_LOOP('',(#437,#438,#439,#440));
#124=EDGE_LOOP('',(#441,#442,#443,#444));
#125=EDGE_LOOP('',(#445,#446,#447,#448));
#126=EDGE_LOOP('',(#449,#450,#451,#452));
#127=EDGE_LOOP('',(#453,#454,#455,#456));
#128=EDGE_LOOP('',(#457,#458,#459,#460));
#129=EDGE_LOOP('',(#461,#462,#463,#464));
#130=EDGE_LOOP('',(#465,#466,#467,#468));
#131=EDGE_LOOP('',(#469,#470,#471,#472));
#132=EDGE_LOOP('',(#473));
#133=EDGE_LOOP('',(#474));
#134=EDGE_LOOP('',(#475));
#135=EDGE_LOOP('',(#476));
#136=EDGE_LOOP('',(#477,#478,#479,#480));
#137=EDGE_LOOP('',(#481));
#138=EDGE_LOOP('',(#482));
#139=EDGE_LOOP('',(#483));
#140=EDGE_LOOP('',(#484));
#141=EDGE_LOOP('',(#485,#486,#487,#488));
#142=EDGE_LOOP('',(#489,#490,#491,#492));
#143=EDGE_LOOP('',(#493,#494,#495,#496));
#144=EDGE_LOOP('',(#497,#498,#499,#500));
#145=EDGE_LOOP('',(#501,#502,#503,#504));
#146=EDGE_LOOP('',(#505,#506,#507,#508));
#147=EDGE_LOOP('',(#509,#510,#511,#512));
#148=EDGE_LOOP('',(#513,#514,#515,#516));
#149=EDGE_LOOP('',(#517,#518,#519,#520));
#150=EDGE_LOOP('',(#521));
#151=EDGE_LOOP('',(#522));
#152=EDGE_LOOP('',(#523,#524,#525,#526));
#153=EDGE_LOOP('',(#527));
#154=EDGE_LOOP('',(#528));
#155=EDGE_LOOP('',(#529,#530,#531,#532));
#156=EDGE_LOOP('',(#533,#534,#535,#536));
#157=EDGE_LOOP('',(#537,#538,#539,#540));
#158=EDGE_LOOP('',(#541,#542,#543,#544));
#159=EDGE_LOOP('',(#545,#546,#547,#548));
#160=EDGE_LOOP('',(#549,#550,#551,#552));
#161=EDGE_LOOP('',(#553,#554,#555,#556));
#162=EDGE_LOOP('',(#557,#558,#559,#560));
#163=EDGE_LOOP('',(#561,#562,#563,#564));
#164=EDGE_LOOP('',(#565));
#165=EDGE_LOOP('',(#566));
#166=EDGE_LOOP('',(#567,#568,#569,#570));
#167=EDGE_LOOP('',(#571));
#168=EDGE_LOOP('',(#572));
#169=LINE('',#911,#221);
#170=LINE('',#917,#222);
#171=LINE('',#923,#223);
#172=LINE('',#929,#224);
#173=LINE('',#934,#225);
#174=LINE('',#938,#226);
#175=LINE('',#942,#227);
#176=LINE('',#946,#228);
#177=LINE('',#950,#229);
#178=LINE('',#952,#230);
#179=LINE('',#954,#231);
#180=LINE('',#955,#232);
#181=LINE('',#958,#233);
#182=LINE('',#960,#234);
#183=LINE('',#961,#235);
#184=LINE('',#964,#236);
#185=LINE('',#966,#237);
#186=LINE('',#967,#238);
#187=LINE('',#969,#239);
#188=LINE('',#970,#240);
#189=LINE('',#978,#241);
#190=LINE('',#984,#242);
#191=LINE('',#989,#243);
#192=LINE('',#993,#244);
#193=LINE('',#997,#245);
#194=LINE('',#999,#246);
#195=LINE('',#1001,#247);
#196=LINE('',#1002,#248);
#197=LINE('',#1005,#249);
#198=LINE('',#1007,#250);
#199=LINE('',#1008,#251);
#200=LINE('',#1011,#252);
#201=LINE('',#1013,#253);
#202=LINE('',#1014,#254);
#203=LINE('',#1016,#255);
#204=LINE('',#1017,#256);
#205=LINE('',#1025,#257);
#206=LINE('',#1031,#258);
#207=LINE('',#1036,#259);
#208=LINE('',#1040,#260);
#209=LINE('',#1044,#261);
#210=LINE('',#1046,#262);
#211=LINE('',#1048,#263);
#212=LINE('',#1049,#264);
#213=LINE('',#1052,#265);
#214=LINE('',#1054,#266);
#215=LINE('',#1055,#267);
#216=LINE('',#1058,#268);
#217=LINE('',#1060,#269);
#218=LINE('',#1061,#270);
#219=LINE('',#1063,#271);
#220=LINE('',#1064,#272);
#221=VECTOR('',#727,5.00000000000001);
#222=VECTOR('',#734,4.99999999999999);
#223=VECTOR('',#741,5.);
#224=VECTOR('',#748,5.00000000000001);
#225=VECTOR('',#755,4.99999999999999);
#226=VECTOR('',#760,5.);
#227=VECTOR('',#765,5.);
#228=VECTOR('',#770,5.);
#229=VECTOR('',#773,1000.);
#230=VECTOR('',#774,1000.);
#231=VECTOR('',#775,1000.);
#232=VECTOR('',#776,1000.);
#233=VECTOR('',#779,1000.);
#234=VECTOR('',#780,1000.);
#235=VECTOR('',#781,1000.);
#236=VECTOR('',#784,1000.);
#237=VECTOR('',#785,1000.);
#238=VECTOR('',#786,1000.);
#239=VECTOR('',#789,1000.);
#240=VECTOR('',#790,1000.);
#241=VECTOR('',#801,5.);
#242=VECTOR('',#808,5.00000000000001);
#243=VECTOR('',#815,5.);
#244=VECTOR('',#820,5.);
#245=VECTOR('',#823,1000.);
#246=VECTOR('',#824,1000.);
#247=VECTOR('',#825,1000.);
#248=VECTOR('',#826,1000.);
#249=VECTOR('',#829,1000.);
#250=VECTOR('',#830,1000.);
#251=VECTOR('',#831,1000.);
#252=VECTOR('',#834,1000.);
#253=VECTOR('',#835,1000.);
#254=VECTOR('',#836,1000.);
#255=VECTOR('',#839,1000.);
#256=VECTOR('',#840,1000.);
#257=VECTOR('',#851,5.);
#258=VECTOR('',#858,5.00000000000001);
#259=VECTOR('',#865,5.);
#260=VECTOR('',#870,5.);
#261=VECTOR('',#873,1000.);
#262=VECTOR('',#874,1000.);
#263=VECTOR('',#875,1000.);
#264=VECTOR('',#876,1000.);
#265=VECTOR('',#879,1000.);
#266=VECTOR('',#880,1000.);
#267=VECTOR('',#881,1000.);
#268=VECTOR('',#884,1000.);
#269=VECTOR('',#885,1000.);
#270=VECTOR('',#886,1000.);
#271=VECTOR('',#889,1000.);
#272=VECTOR('',#890,1000.);
#273=CIRCLE('',#655,5.);
#274=CIRCLE('',#656,8.00000000000017);
#275=CIRCLE('',#658,5.);
#276=CIRCLE('',#659,8.00000000000017);
#277=CIRCLE('',#661,4.99999999999999);
#278=CIRCLE('',#662,8.00000000000001);
#279=CIRCLE('',#664,5.);
#280=CIRCLE('',#665,8.00000000000001);
#281=CIRCLE('',#667,4.99999999999999);
#282=CIRCLE('',#669,5.);
#283=CIRCLE('',#671,5.);
#284=CIRCLE('',#673,5.);
#285=CIRCLE('',#682,5.);
#286=CIRCLE('',#683,9.00000000000004);
#287=CIRCLE('',#685,5.);
#288=CIRCLE('',#686,9.00000000000004);
#289=CIRCLE('',#688,5.);
#290=CIRCLE('',#690,5.);
#291=CIRCLE('',#699,5.);
#292=CIRCLE('',#700,9.00000000000006);
#293=CIRCLE('',#702,5.);
#294=CIRCLE('',#703,9.00000000000006);
#295=CIRCLE('',#705,5.);
#296=CIRCLE('',#707,5.);
#297=VERTEX_POINT('',#908);
#298=VERTEX_POINT('',#910);
#299=VERTEX_POINT('',#914);
#300=VERTEX_POINT('',#916);
#301=VERTEX_POINT('',#920);
#302=VERTEX_POINT('',#922);
#303=VERTEX_POINT('',#926);
#304=VERTEX_POINT('',#928);
#305=VERTEX_POINT('',#932);
#306=VERTEX_POINT('',#936);
#307=VERTEX_POINT('',#940);
#308=VERTEX_POINT('',#944);
#309=VERTEX_POINT('',#948);
#310=VERTEX_POINT('',#949);
#311=VERTEX_POINT('',#951);
#312=VERTEX_POINT('',#953);
#313=VERTEX_POINT('',#957);
#314=VERTEX_POINT('',#959);
#315=VERTEX_POINT('',#963);
#316=VERTEX_POINT('',#965);
#317=VERTEX_POINT('',#975);
#318=VERTEX_POINT('',#977);
#319=VERTEX_POINT('',#981);
#320=VERTEX_POINT('',#983);
#321=VERTEX_POINT('',#987);
#322=VERTEX_POINT('',#991);
#323=VERTEX_POINT('',#995);
#324=VERTEX_POINT('',#996);
#325=VERTEX_POINT('',#998);
#326=VERTEX_POINT('',#1000);
#327=VERTEX_POINT('',#1004);
#328=VERTEX_POINT('',#1006);
#329=VERTEX_POINT('',#1010);
#330=VERTEX_POINT('',#1012);
#331=VERTEX_POINT('',#1022);
#332=VERTEX_POINT('',#1024);
#333=VERTEX_POINT('',#1028);
#334=VERTEX_POINT('',#1030);
#335=VERTEX_POINT('',#1034);
#336=VERTEX_POINT('',#1038);
#337=VERTEX_POINT('',#1042);
#338=VERTEX_POINT('',#1043);
#339=VERTEX_POINT('',#1045);
#340=VERTEX_POINT('',#1047);
#341=VERTEX_POINT('',#1051);
#342=VERTEX_POINT('',#1053);
#343=VERTEX_POINT('',#1057);
#344=VERTEX_POINT('',#1059);
#345=EDGE_CURVE('',#297,#297,#273,.T.);
#346=EDGE_CURVE('',#297,#298,#169,.T.);
#347=EDGE_CURVE('',#298,#298,#274,.T.);
#348=EDGE_CURVE('',#299,#299,#275,.T.);
#349=EDGE_CURVE('',#299,#300,#170,.T.);
#350=EDGE_CURVE('',#300,#300,#276,.T.);
#351=EDGE_CURVE('',#301,#301,#277,.T.);
#352=EDGE_CURVE('',#301,#302,#171,.T.);
#353=EDGE_CURVE('',#302,#302,#278,.T.);
#354=EDGE_CURVE('',#303,#303,#279,.T.);
#355=EDGE_CURVE('',#303,#304,#172,.T.);
#356=EDGE_CURVE('',#304,#304,#280,.T.);
#357=EDGE_CURVE('',#305,#305,#281,.T.);
#358=EDGE_CURVE('',#305,#299,#173,.T.);
#359=EDGE_CURVE('',#306,#306,#282,.T.);
#360=EDGE_CURVE('',#306,#303,#174,.T.);
#361=EDGE_CURVE('',#307,#307,#283,.T.);
#362=EDGE_CURVE('',#307,#301,#175,.T.);
#363=EDGE_CURVE('',#308,#308,#284,.T.);
#364=EDGE_CURVE('',#308,#297,#176,.T.);
#365=EDGE_CURVE('',#309,#310,#177,.T.);
#366=EDGE_CURVE('',#311,#310,#178,.T.);
#367=EDGE_CURVE('',#312,#311,#179,.T.);
#368=EDGE_CURVE('',#312,#309,#180,.T.);
#369=EDGE_CURVE('',#310,#313,#181,.T.);
#370=EDGE_CURVE('',#314,#313,#182,.T.);
#371=EDGE_CURVE('',#311,#314,#183,.T.);
#372=EDGE_CURVE('',#313,#315,#184,.T.);
#373=EDGE_CURVE('',#316,#315,#185,.T.);
#374=EDGE_CURVE('',#314,#316,#186,.T.);
#375=EDGE_CURVE('',#315,#309,#187,.T.);
#376=EDGE_CURVE('',#316,#312,#188,.T.);
#377=EDGE_CURVE('',#317,#317,#285,.T.);
#378=EDGE_CURVE('',#317,#318,#189,.T.);
#379=EDGE_CURVE('',#318,#318,#286,.T.);
#380=EDGE_CURVE('',#319,#319,#287,.T.);
#381=EDGE_CURVE('',#319,#320,#190,.T.);
#382=EDGE_CURVE('',#320,#320,#288,.T.);
#383=EDGE_CURVE('',#321,#321,#289,.T.);
#384=EDGE_CURVE('',#321,#317,#191,.T.);
#385=EDGE_CURVE('',#322,#322,#290,.T.);
#386=EDGE_CURVE('',#322,#319,#192,.T.);
#387=EDGE_CURVE('',#323,#324,#193,.T.);
#388=EDGE_CURVE('',#325,#324,#194,.T.);
#389=EDGE_CURVE('',#326,#325,#195,.T.);
#390=EDGE_CURVE('',#326,#323,#196,.T.);
#391=EDGE_CURVE('',#324,#327,#197,.T.);
#392=EDGE_CURVE('',#328,#327,#198,.T.);
#393=EDGE_CURVE('',#325,#328,#199,.T.);
#394=EDGE_CURVE('',#327,#329,#200,.T.);
#395=EDGE_CURVE('',#330,#329,#201,.T.);
#396=EDGE_CURVE('',#328,#330,#202,.T.);
#397=EDGE_CURVE('',#329,#323,#203,.T.);
#398=EDGE_CURVE('',#330,#326,#204,.T.);
#399=EDGE_CURVE('',#331,#331,#291,.T.);
#400=EDGE_CURVE('',#331,#332,#205,.T.);
#401=EDGE_CURVE('',#332,#332,#292,.T.);
#402=EDGE_CURVE('',#333,#333,#293,.T.);
#403=EDGE_CURVE('',#333,#334,#206,.T.);
#404=EDGE_CURVE('',#334,#334,#294,.T.);
#405=EDGE_CURVE('',#335,#335,#295,.T.);
#406=EDGE_CURVE('',#335,#331,#207,.T.);
#407=EDGE_CURVE('',#336,#336,#296,.T.);
#408=EDGE_CURVE('',#336,#333,#208,.T.);
#409=EDGE_CURVE('',#337,#338,#209,.T.);
#410=EDGE_CURVE('',#339,#338,#210,.T.);
#411=EDGE_CURVE('',#340,#339,#211,.T.);
#412=EDGE_CURVE('',#340,#337,#212,.T.);
#413=EDGE_CURVE('',#338,#341,#213,.T.);
#414=EDGE_CURVE('',#342,#341,#214,.T.);
#415=EDGE_CURVE('',#339,#342,#215,.T.);
#416=EDGE_CURVE('',#341,#343,#216,.T.);
#417=EDGE_CURVE('',#344,#343,#217,.T.);
#418=EDGE_CURVE('',#342,#344,#218,.T.);
#419=EDGE_CURVE('',#343,#337,#219,.T.);
#420=EDGE_CURVE('',#344,#340,#220,.T.);
#421=ORIENTED_EDGE('',*,*,#345,.F.);
#422=ORIENTED_EDGE('',*,*,#346,.T.);
#423=ORIENTED_EDGE('',*,*,#347,.F.);
#424=ORIENTED_EDGE('',*,*,#346,.F.);
#425=ORIENTED_EDGE('',*,*,#348,.F.);
#426=ORIENTED_EDGE('',*,*,#349,.T.);
#427=ORIENTED_EDGE('',*,*,#350,.F.);
#428=ORIENTED_EDGE('',*,*,#349,.F.);
#429=ORIENTED_EDGE('',*,*,#351,.F.);
#430=ORIENTED_EDGE('',*,*,#352,.T.);
#431=ORIENTED_EDGE('',*,*,#353,.F.);
#432=ORIENTED_EDGE('',*,*,#352,.F.);
#433=ORIENTED_EDGE('',*,*,#354,.F.);
#434=ORIENTED_EDGE('',*,*,#355,.T.);
#435=ORIENTED_EDGE('',*,*,#356,.F.);
#436=ORIENTED_EDGE('',*,*,#355,.F.);
#437=ORIENTED_EDGE('',*,*,#357,.F.);
#438=ORIENTED_EDGE('',*,*,#358,.T.);
#439=ORIENTED_EDGE('',*,*,#348,.T.);
#440=ORIENTED_EDGE('',*,*,#358,.F.);
#441=ORIENTED_EDGE('',*,*,#359,.F.);
#442=ORIENTED_EDGE('',*,*,#360,.T.);
#443=ORIENTED_EDGE('',*,*,#354,.T.);
#444=ORIENTED_EDGE('',*,*,#360,.F.);
#445=ORIENTED_EDGE('',*,*,#361,.F.);
#446=ORIENTED_EDGE('',*,*,#362,.T.);
#447=ORIENTED_EDGE('',*,*,#351,.T.);
#448=ORIENTED_EDGE('',*,*,#362,.F.);
#449=ORIENTED_EDGE('',*,*,#363,.F.);
#450=ORIENTED_EDGE('',*,*,#364,.T.);
#451=ORIENTED_EDGE('',*,*,#345,.T.);
#452=ORIENTED_EDGE('',*,*,#364,.F.);
#453=ORIENTED_EDGE('',*,*,#365,.T.);
#454=ORIENTED_EDGE('',*,*,#366,.F.);
#455=ORIENTED_EDGE('',*,*,#367,.F.);
#456=ORIENTED_EDGE('',*,*,#368,.T.);
#457=ORIENTED_EDGE('',*,*,#369,.T.);
#458=ORIENTED_EDGE('',*,*,#370,.F.);
#459=ORIENTED_EDGE('',*,*,#371,.F.);
#460=ORIENTED_EDGE('',*,*,#366,.T.);
#461=ORIENTED_EDGE('',*,*,#372,.T.);
#462=ORIENTED_EDGE('',*,*,#373,.F.);
#463=ORIENTED_EDGE('',*,*,#374,.F.);
#464=ORIENTED_EDGE('',*,*,#370,.T.);
#465=ORIENTED_EDGE('',*,*,#375,.T.);
#466=ORIENTED_EDGE('',*,*,#368,.F.);
#467=ORIENTED_EDGE('',*,*,#376,.F.);
#468=ORIENTED_EDGE('',*,*,#373,.T.);
#469=ORIENTED_EDGE('',*,*,#367,.T.);
#470=ORIENTED_EDGE('',*,*,#371,.T.);
#471=ORIENTED_EDGE('',*,*,#374,.T.);
#472=ORIENTED_EDGE('',*,*,#376,.T.);
#473=ORIENTED_EDGE('',*,*,#357,.T.);
#474=ORIENTED_EDGE('',*,*,#359,.T.);
#475=ORIENTED_EDGE('',*,*,#361,.T.);
#476=ORIENTED_EDGE('',*,*,#363,.T.);
#477=ORIENTED_EDGE('',*,*,#365,.F.);
#478=ORIENTED_EDGE('',*,*,#375,.F.);
#479=ORIENTED_EDGE('',*,*,#372,.F.);
#480=ORIENTED_EDGE('',*,*,#369,.F.);
#481=ORIENTED_EDGE('',*,*,#356,.T.);
#482=ORIENTED_EDGE('',*,*,#353,.T.);
#483=ORIENTED_EDGE('',*,*,#350,.T.);
#484=ORIENTED_EDGE('',*,*,#347,.T.);
#485=ORIENTED_EDGE('',*,*,#377,.F.);
#486=ORIENTED_EDGE('',*,*,#378,.T.);
#487=ORIENTED_EDGE('',*,*,#379,.F.);
#488=ORIENTED_EDGE('',*,*,#378,.F.);
#489=ORIENTED_EDGE('',*,*,#380,.F.);
#490=ORIENTED_EDGE('',*,*,#381,.T.);
#491=ORIENTED_EDGE('',*,*,#382,.F.);
#492=ORIENTED_EDGE('',*,*,#381,.F.);
#493=ORIENTED_EDGE('',*,*,#383,.F.);
#494=ORIENTED_EDGE('',*,*,#384,.T.);
#495=ORIENTED_EDGE('',*,*,#377,.T.);
#496=ORIENTED_EDGE('',*,*,#384,.F.);
#497=ORIENTED_EDGE('',*,*,#385,.F.);
#498=ORIENTED_EDGE('',*,*,#386,.T.);
#499=ORIENTED_EDGE('',*,*,#380,.T.);
#500=ORIENTED_EDGE('',*,*,#386,.F.);
#501=ORIENTED_EDGE('',*,*,#387,.T.);
#502=ORIENTED_EDGE('',*,*,#388,.F.);
#503=ORIENTED_EDGE('',*,*,#389,.F.);
#504=ORIENTED_EDGE('',*,*,#390,.T.);
#505=ORIENTED_EDGE('',*,*,#391,.T.);
#506=ORIENTED_EDGE('',*,*,#392,.F.);
#507=ORIENTED_EDGE('',*,*,#393,.F.);
#508=ORIENTED_EDGE('',*,*,#388,.T.);
#509=ORIENTED_EDGE('',*,*,#394,.T.);
#510=ORIENTED_EDGE('',*,*,#395,.F.);
#511=ORIENTED_EDGE('',*,*,#396,.F.);
#512=ORIENTED_EDGE('',*,*,#392,.T.);
#513=ORIENTED_EDGE('',*,*,#397,.T.);
#514=ORIENTED_EDGE('',*,*,#390,.F.);
#515=ORIENTED_EDGE('',*,*,#398,.F.);
#516=ORIENTED_EDGE('',*,*,#395,.T.);
#517=ORIENTED_EDGE('',*,*,#389,.T.);
#518=ORIENTED_EDGE('',*,*,#393,.T.);
#519=ORIENTED_EDGE('',*,*,#396,.T.);
#520=ORIENTED_EDGE('',*,*,#398,.T.);
#521=ORIENTED_EDGE('',*,*,#382,.T.);
#522=ORIENTED_EDGE('',*,*,#379,.T.);
#523=ORIENTED_EDGE('',*,*,#387,.F.);
#524=ORIENTED_EDGE('',*,*,#397,.F.);
#525=ORIENTED_EDGE('',*,*,#394,.F.);
#526=ORIENTED_EDGE('',*,*,#391,.F.);
#527=ORIENTED_EDGE('',*,*,#383,.T.);
#528=ORIENTED_EDGE('',*,*,#385,.T.);
#529=ORIENTED_EDGE('',*,*,#399,.F.);
#530=ORIENTED_EDGE('',*,*,#400,.T.);
#531=ORIENTED_EDGE('',*,*,#401,.F.);
#532=ORIENTED_EDGE('',*,*,#400,.F.);
#533=ORIENTED_EDGE('',*,*,#402,.F.);
#534=ORIENTED_EDGE('',*,*,#403,.T.);
#535=ORIENTED_EDGE('',*,*,#404,.F.);
#536=ORIENTED_EDGE('',*,*,#403,.F.);
#537=ORIENTED_EDGE('',*,*,#405,.F.);
#538=ORIENTED_EDGE('',*,*,#406,.T.);
#539=ORIENTED_EDGE('',*,*,#399,.T.);
#540=ORIENTED_EDGE('',*,*,#406,.F.);
#541=ORIENTED_EDGE('',*,*,#407,.F.);
#542=ORIENTED_EDGE('',*,*,#408,.T.);
#543=ORIENTED_EDGE('',*,*,#402,.T.);
#544=ORIENTED_EDGE('',*,*,#408,.F.);
#545=ORIENTED_EDGE('',*,*,#409,.T.);
#546=ORIENTED_EDGE('',*,*,#410,.F.);
#547=ORIENTED_EDGE('',*,*,#411,.F.);
#548=ORIENTED_EDGE('',*,*,#412,.T.);
#549=ORIENTED_EDGE('',*,*,#413,.T.);
#550=ORIENTED_EDGE('',*,*,#414,.F.);
#551=ORIENTED_EDGE('',*,*,#415,.F.);
#552=ORIENTED_EDGE('',*,*,#410,.T.);
#553=ORIENTED_EDGE('',*,*,#416,.T.);
#554=ORIENTED_EDGE('',*,*,#417,.F.);
#555=ORIENTED_EDGE('',*,*,#418,.F.);
#556=ORIENTED_EDGE('',*,*,#414,.T.);
#557=ORIENTED_EDGE('',*,*,#419,.T.);
#558=ORIENTED_EDGE('',*,*,#412,.F.);
#559=ORIENTED_EDGE('',*,*,#420,.F.);
#560=ORIENTED_EDGE('',*,*,#417,.T.);
#561=ORIENTED_EDGE('',*,*,#411,.T.);
#562=ORIENTED_EDGE('',*,*,#415,.T.);
#563=ORIENTED_EDGE('',*,*,#418,.T.);
#564=ORIENTED_EDGE('',*,*,#420,.T.);
#565=ORIENTED_EDGE('',*,*,#404,.T.);
#566=ORIENTED_EDGE('',*,*,#401,.T.);
#567=ORIENTED_EDGE('',*,*,#409,.F.);
#568=ORIENTED_EDGE('',*,*,#419,.F.);
#569=ORIENTED_EDGE('',*,*,#416,.F.);
#570=ORIENTED_EDGE('',*,*,#413,.F.);
#571=ORIENTED_EDGE('',*,*,#405,.T.);
#572=ORIENTED_EDGE('',*,*,#407,.T.);
#573=CONICAL_SURFACE('',#654,5.,1.0471975511966);
#574=CONICAL_SURFACE('',#657,4.99999999999999,1.0471975511966);
#575=CONICAL_SURFACE('',#660,5.,1.04719755119659);
#576=CONICAL_SURFACE('',#663,5.,1.04719755119659);
#577=CONICAL_SURFACE('',#681,5.,0.785398163397453);
#578=CONICAL_SURFACE('',#684,5.,0.785398163397453);
#579=CONICAL_SURFACE('',#698,5.,0.785398163397453);
#580=CONICAL_SURFACE('',#701,5.,0.785398163397453);
#581=ADVANCED_FACE('',(#85),#573,.F.);
#582=ADVANCED_FACE('',(#86),#574,.F.);
#583=ADVANCED_FACE('',(#87),#575,.F.);
#584=ADVANCED_FACE('',(#88),#576,.F.);
#585=ADVANCED_FACE('',(#89),#77,.F.);
#586=ADVANCED_FACE('',(#90),#78,.F.);
#587=ADVANCED_FACE('',(#91),#79,.F.);
#588=ADVANCED_FACE('',(#92),#80,.F.);
#589=ADVANCED_FACE('',(#93),#59,.F.);
#590=ADVANCED_FACE('',(#94),#60,.F.);
#591=ADVANCED_FACE('',(#95),#61,.F.);
#592=ADVANCED_FACE('',(#96),#62,.F.);
#593=ADVANCED_FACE('',(#97,#43,#44,#45,#46),#63,.T.);
#594=ADVANCED_FACE('',(#98,#47,#48,#49,#50),#64,.F.);
#595=ADVANCED_FACE('',(#99),#577,.F.);
#596=ADVANCED_FACE('',(#100),#578,.F.);
#597=ADVANCED_FACE('',(#101),#81,.F.);
#598=ADVANCED_FACE('',(#102),#82,.F.);
#599=ADVANCED_FACE('',(#103),#65,.F.);
#600=ADVANCED_FACE('',(#104),#66,.F.);
#601=ADVANCED_FACE('',(#105),#67,.F.);
#602=ADVANCED_FACE('',(#106),#68,.F.);
#603=ADVANCED_FACE('',(#107,#51,#52),#69,.T.);
#604=ADVANCED_FACE('',(#108,#53,#54),#70,.F.);
#605=ADVANCED_FACE('',(#109),#579,.F.);
#606=ADVANCED_FACE('',(#110),#580,.F.);
#607=ADVANCED_FACE('',(#111),#83,.F.);
#608=ADVANCED_FACE('',(#112),#84,.F.);
#609=ADVANCED_FACE('',(#113),#71,.F.);
#610=ADVANCED_FACE('',(#114),#72,.F.);
#611=ADVANCED_FACE('',(#115),#73,.F.);
#612=ADVANCED_FACE('',(#116),#74,.F.);
#613=ADVANCED_FACE('',(#117,#55,#56),#75,.T.);
#614=ADVANCED_FACE('',(#118,#57,#58),#76,.F.);
#615=CLOSED_SHELL('',(#581,#582,#583,#584,#585,#586,#587,#588,#589,#590,
#591,#592,#593,#594));
#616=CLOSED_SHELL('',(#595,#596,#597,#598,#599,#600,#601,#602,#603,#604));
#617=CLOSED_SHELL('',(#605,#606,#607,#608,#609,#610,#611,#612,#613,#614));
#618=DERIVED_UNIT_ELEMENT(#624,1.);
#619=DERIVED_UNIT_ELEMENT(#1083,-3.);
#620=DERIVED_UNIT_ELEMENT(#624,1.);
#621=DERIVED_UNIT_ELEMENT(#1083,-3.);
#622=DERIVED_UNIT_ELEMENT(#624,1.);
#623=DERIVED_UNIT_ELEMENT(#1083,-3.);
#624=(
MASS_UNIT()
NAMED_UNIT(*)
SI_UNIT(.KILO.,.GRAM.)
);
#625=DERIVED_UNIT((#618,#619));
#626=DERIVED_UNIT((#620,#621));
#627=DERIVED_UNIT((#622,#623));
#628=MEASURE_REPRESENTATION_ITEM('density measure',
POSITIVE_RATIO_MEASURE(7850.),#625);
#629=MEASURE_REPRESENTATION_ITEM('density measure',
POSITIVE_RATIO_MEASURE(7850.),#626);
#630=MEASURE_REPRESENTATION_ITEM('density measure',
POSITIVE_RATIO_MEASURE(7850.),#627);
#631=PROPERTY_DEFINITION_REPRESENTATION(#646,#637);
#632=PROPERTY_DEFINITION_REPRESENTATION(#647,#638);
#633=PROPERTY_DEFINITION_REPRESENTATION(#648,#639);
#634=PROPERTY_DEFINITION_REPRESENTATION(#649,#640);
#635=PROPERTY_DEFINITION_REPRESENTATION(#650,#641);
#636=PROPERTY_DEFINITION_REPRESENTATION(#651,#642);
#637=REPRESENTATION('material name',(#643),#1078);
#638=REPRESENTATION('density',(#628),#1078);
#639=REPRESENTATION('material name',(#644),#1079);
#640=REPRESENTATION('density',(#629),#1079);
#641=REPRESENTATION('material name',(#645),#1080);
#642=REPRESENTATION('density',(#630),#1080);
#643=DESCRIPTIVE_REPRESENTATION_ITEM('Steel','Steel');
#644=DESCRIPTIVE_REPRESENTATION_ITEM('Steel','Steel');
#645=DESCRIPTIVE_REPRESENTATION_ITEM('Steel','Steel');
#646=PROPERTY_DEFINITION('material property','material name',#1105);
#647=PROPERTY_DEFINITION('material property','density of part',#1105);
#648=PROPERTY_DEFINITION('material property','material name',#1106);
#649=PROPERTY_DEFINITION('material property','density of part',#1106);
#650=PROPERTY_DEFINITION('material property','material name',#1107);
#651=PROPERTY_DEFINITION('material property','density of part',#1107);
#652=AXIS2_PLACEMENT_3D('',#905,#719,#720);
#653=AXIS2_PLACEMENT_3D('',#906,#721,#722);
#654=AXIS2_PLACEMENT_3D('',#907,#723,#724);
#655=AXIS2_PLACEMENT_3D('',#909,#725,#726);
#656=AXIS2_PLACEMENT_3D('',#912,#728,#729);
#657=AXIS2_PLACEMENT_3D('',#913,#730,#731);
#658=AXIS2_PLACEMENT_3D('',#915,#732,#733);
#659=AXIS2_PLACEMENT_3D('',#918,#735,#736);
#660=AXIS2_PLACEMENT_3D('',#919,#737,#738);
#661=AXIS2_PLACEMENT_3D('',#921,#739,#740);
#662=AXIS2_PLACEMENT_3D('',#924,#742,#743);
#663=AXIS2_PLACEMENT_3D('',#925,#744,#745);
#664=AXIS2_PLACEMENT_3D('',#927,#746,#747);
#665=AXIS2_PLACEMENT_3D('',#930,#749,#750);
#666=AXIS2_PLACEMENT_3D('',#931,#751,#752);
#667=AXIS2_PLACEMENT_3D('',#933,#753,#754);
#668=AXIS2_PLACEMENT_3D('',#935,#756,#757);
#669=AXIS2_PLACEMENT_3D('',#937,#758,#759);
#670=AXIS2_PLACEMENT_3D('',#939,#761,#762);
#671=AXIS2_PLACEMENT_3D('',#941,#763,#764);
#672=AXIS2_PLACEMENT_3D('',#943,#766,#767);
#673=AXIS2_PLACEMENT_3D('',#945,#768,#769);
#674=AXIS2_PLACEMENT_3D('',#947,#771,#772);
#675=AXIS2_PLACEMENT_3D('',#956,#777,#778);
#676=AXIS2_PLACEMENT_3D('',#962,#782,#783);
#677=AXIS2_PLACEMENT_3D('',#968,#787,#788);
#678=AXIS2_PLACEMENT_3D('',#971,#791,#792);
#679=AXIS2_PLACEMENT_3D('',#972,#793,#794);
#680=AXIS2_PLACEMENT_3D('',#973,#795,#796);
#681=AXIS2_PLACEMENT_3D('',#974,#797,#798);
#682=AXIS2_PLACEMENT_3D('',#976,#799,#800);
#683=AXIS2_PLACEMENT_3D('',#979,#802,#803);
#684=AXIS2_PLACEMENT_3D('',#980,#804,#805);
#685=AXIS2_PLACEMENT_3D('',#982,#806,#807);
#686=AXIS2_PLACEMENT_3D('',#985,#809,#810);
#687=AXIS2_PLACEMENT_3D('',#986,#811,#812);
#688=AXIS2_PLACEMENT_3D('',#988,#813,#814);
#689=AXIS2_PLACEMENT_3D('',#990,#816,#817);
#690=AXIS2_PLACEMENT_3D('',#992,#818,#819);
#691=AXIS2_PLACEMENT_3D('',#994,#821,#822);
#692=AXIS2_PLACEMENT_3D('',#1003,#827,#828);
#693=AXIS2_PLACEMENT_3D('',#1009,#832,#833);
#694=AXIS2_PLACEMENT_3D('',#1015,#837,#838);
#695=AXIS2_PLACEMENT_3D('',#1018,#841,#842);
#696=AXIS2_PLACEMENT_3D('',#1019,#843,#844);
#697=AXIS2_PLACEMENT_3D('',#1020,#845,#846);
#698=AXIS2_PLACEMENT_3D('',#1021,#847,#848);
#699=AXIS2_PLACEMENT_3D('',#1023,#849,#850);
#700=AXIS2_PLACEMENT_3D('',#1026,#852,#853);
#701=AXIS2_PLACEMENT_3D('',#1027,#854,#855);
#702=AXIS2_PLACEMENT_3D('',#1029,#856,#857);
#703=AXIS2_PLACEMENT_3D('',#1032,#859,#860);
#704=AXIS2_PLACEMENT_3D('',#1033,#861,#862);
#705=AXIS2_PLACEMENT_3D('',#1035,#863,#864);
#706=AXIS2_PLACEMENT_3D('',#1037,#866,#867);
#707=AXIS2_PLACEMENT_3D('',#1039,#868,#869);
#708=AXIS2_PLACEMENT_3D('',#1041,#871,#872);
#709=AXIS2_PLACEMENT_3D('',#1050,#877,#878);
#710=AXIS2_PLACEMENT_3D('',#1056,#882,#883);
#711=AXIS2_PLACEMENT_3D('',#1062,#887,#888);
#712=AXIS2_PLACEMENT_3D('',#1065,#891,#892);
#713=AXIS2_PLACEMENT_3D('',#1066,#893,#894);
#714=AXIS2_PLACEMENT_3D('',#1067,#895,#896);
#715=AXIS2_PLACEMENT_3D('',#1068,#897,#898);
#716=AXIS2_PLACEMENT_3D('',#1069,#899,#900);
#717=AXIS2_PLACEMENT_3D('',#1070,#901,#902);
#718=AXIS2_PLACEMENT_3D('',#1071,#903,#904);
#719=DIRECTION('axis',(0.,0.,1.));
#720=DIRECTION('refdir',(1.,0.,0.));
#721=DIRECTION('axis',(0.,0.,1.));
#722=DIRECTION('refdir',(1.,0.,0.));
#723=DIRECTION('center_axis',(0.,-1.,0.));
#724=DIRECTION('ref_axis',(0.,0.,-1.));
#725=DIRECTION('center_axis',(0.,-1.,0.));
#726=DIRECTION('ref_axis',(0.,0.,1.));
#727=DIRECTION('',(-1.06057523872491E-16,-0.5,0.866025403784438));
#728=DIRECTION('center_axis',(0.,1.,0.));
#729=DIRECTION('ref_axis',(0.,0.,1.));
#730=DIRECTION('center_axis',(0.,-1.,0.));
#731=DIRECTION('ref_axis',(0.,0.,-1.));
#732=DIRECTION('center_axis',(0.,-1.,0.));
#733=DIRECTION('ref_axis',(0.,0.,1.));
#734=DIRECTION('',(-1.06057523872491E-16,-0.500000000000001,0.866025403784438));
#735=DIRECTION('center_axis',(0.,1.,0.));
#736=DIRECTION('ref_axis',(0.,0.,1.));
#737=DIRECTION('center_axis',(0.,-1.,0.));
#738=DIRECTION('ref_axis',(0.,0.,-1.));
#739=DIRECTION('center_axis',(0.,-1.,0.));
#740=DIRECTION('ref_axis',(0.,0.,1.));
#741=DIRECTION('',(-1.0605752387249E-16,-0.500000000000004,0.866025403784436));
#742=DIRECTION('center_axis',(0.,1.,0.));
#743=DIRECTION('ref_axis',(0.,0.,1.));
#744=DIRECTION('center_axis',(0.,-1.,0.));
#745=DIRECTION('ref_axis',(0.,0.,-1.));
#746=DIRECTION('center_axis',(0.,-1.,0.));
#747=DIRECTION('ref_axis',(0.,0.,1.));
#748=DIRECTION('',(-1.0605752387249E-16,-0.500000000000003,0.866025403784437));
#749=DIRECTION('center_axis',(0.,1.,0.));
#750=DIRECTION('ref_axis',(0.,0.,1.));
#751=DIRECTION('center_axis',(0.,-1.,0.));
#752=DIRECTION('ref_axis',(0.,0.,-1.));
#753=DIRECTION('center_axis',(0.,-1.,0.));
#754=DIRECTION('ref_axis',(0.,0.,-1.));
#755=DIRECTION('',(0.,-1.,0.));
#756=DIRECTION('center_axis',(0.,-1.,0.));
#757=DIRECTION('ref_axis',(0.,0.,-1.));
#758=DIRECTION('center_axis',(0.,-1.,0.));
#759=DIRECTION('ref_axis',(0.,0.,-1.));
#760=DIRECTION('',(0.,-1.,0.));
#761=DIRECTION('center_axis',(0.,-1.,0.));
#762=DIRECTION('ref_axis',(0.,0.,-1.));
#763=DIRECTION('center_axis',(0.,-1.,0.));
#764=DIRECTION('ref_axis',(0.,0.,-1.));
#765=DIRECTION('',(0.,-1.,0.));
#766=DIRECTION('center_axis',(0.,-1.,0.));
#767=DIRECTION('ref_axis',(0.,0.,-1.));
#768=DIRECTION('center_axis',(0.,-1.,0.));
#769=DIRECTION('ref_axis',(0.,0.,-1.));
#770=DIRECTION('',(0.,-1.,0.));
#771=DIRECTION('center_axis',(1.,0.,0.));
#772=DIRECTION('ref_axis',(0.,0.,-1.));
#773=DIRECTION('',(0.,0.,1.));
#774=DIRECTION('',(0.,-1.,0.));
#775=DIRECTION('',(0.,0.,1.));
#776=DIRECTION('',(0.,-1.,0.));
#777=DIRECTION('center_axis',(-1.63268091856641E-16,0.,-1.));
#778=DIRECTION('ref_axis',(-1.,0.,1.63268091856641E-16));
#779=DIRECTION('',(1.,0.,-1.63268091856641E-16));
#780=DIRECTION('',(0.,-1.,0.));
#781=DIRECTION('',(1.,0.,-1.63268091856641E-16));
#782=DIRECTION('center_axis',(-1.,0.,0.));
#783=DIRECTION('ref_axis',(0.,0.,1.));
#784=DIRECTION('',(0.,0.,-1.));
#785=DIRECTION('',(0.,-1.,0.));
#786=DIRECTION('',(0.,0.,-1.));
#787=DIRECTION('center_axis',(8.16340459283203E-17,0.,1.));
#788=DIRECTION('ref_axis',(1.,0.,-8.16340459283203E-17));
#789=DIRECTION('',(-1.,0.,8.16340459283203E-17));
#790=DIRECTION('',(-1.,0.,8.16340459283203E-17));
#791=DIRECTION('center_axis',(0.,1.,0.));
#792=DIRECTION('ref_axis',(0.,0.,1.));
#793=DIRECTION('center_axis',(0.,1.,0.));
#794=DIRECTION('ref_axis',(0.,0.,1.));
#795=DIRECTION('axis',(0.,0.,1.));
#796=DIRECTION('refdir',(1.,0.,0.));
#797=DIRECTION('center_axis',(0.,1.,0.));
#798=DIRECTION('ref_axis',(0.,0.,1.));
#799=DIRECTION('center_axis',(0.,1.,0.));
#800=DIRECTION('ref_axis',(0.,0.,1.));
#801=DIRECTION('',(-8.65956056235497E-17,0.707106781186544,-0.707106781186551));
#802=DIRECTION('center_axis',(0.,-1.,0.));
#803=DIRECTION('ref_axis',(0.,0.,1.));
#804=DIRECTION('center_axis',(0.,1.,0.));
#805=DIRECTION('ref_axis',(0.,0.,1.));
#806=DIRECTION('center_axis',(0.,1.,0.));
#807=DIRECTION('ref_axis',(0.,0.,1.));
#808=DIRECTION('',(-8.65956056235497E-17,0.707106781186544,-0.707106781186551));
#809=DIRECTION('center_axis',(0.,-1.,0.));
#810=DIRECTION('ref_axis',(0.,0.,1.));
#811=DIRECTION('center_axis',(0.,1.,0.));
#812=DIRECTION('ref_axis',(0.,0.,1.));
#813=DIRECTION('center_axis',(0.,1.,0.));
#814=DIRECTION('ref_axis',(0.,0.,1.));
#815=DIRECTION('',(0.,1.,0.));
#816=DIRECTION('center_axis',(0.,1.,0.));
#817=DIRECTION('ref_axis',(0.,0.,1.));
#818=DIRECTION('center_axis',(0.,1.,0.));
#819=DIRECTION('ref_axis',(0.,0.,1.));
#820=DIRECTION('',(0.,1.,0.));
#821=DIRECTION('center_axis',(1.,0.,0.));
#822=DIRECTION('ref_axis',(0.,0.,-1.));
#823=DIRECTION('',(0.,0.,1.));
#824=DIRECTION('',(0.,-1.,0.));
#825=DIRECTION('',(0.,0.,1.));
#826=DIRECTION('',(0.,-1.,0.));
#827=DIRECTION('center_axis',(0.,0.,-1.));
#828=DIRECTION('ref_axis',(-1.,0.,0.));
#829=DIRECTION('',(1.,0.,0.));
#830=DIRECTION('',(0.,-1.,0.));
#831=DIRECTION('',(1.,0.,0.));
#832=DIRECTION('center_axis',(-1.,0.,0.));
#833=DIRECTION('ref_axis',(0.,0.,1.));
#834=DIRECTION('',(0.,0.,-1.));
#835=DIRECTION('',(0.,-1.,0.));
#836=DIRECTION('',(0.,0.,-1.));
#837=DIRECTION('center_axis',(9.25185853854297E-16,0.,1.));
#838=DIRECTION('ref_axis',(1.,0.,-9.25185853854297E-16));
#839=DIRECTION('',(-1.,0.,9.25185853854297E-16));
#840=DIRECTION('',(-1.,0.,9.25185853854297E-16));
#841=DIRECTION('center_axis',(0.,1.,0.));
#842=DIRECTION('ref_axis',(0.,0.,1.));
#843=DIRECTION('center_axis',(0.,1.,0.));
#844=DIRECTION('ref_axis',(0.,0.,1.));
#845=DIRECTION('axis',(0.,0.,1.));
#846=DIRECTION('refdir',(1.,0.,0.));
#847=DIRECTION('center_axis',(0.,1.,0.));
#848=DIRECTION('ref_axis',(0.,0.,1.));
#849=DIRECTION('center_axis',(0.,1.,0.));
#850=DIRECTION('ref_axis',(0.,0.,1.));
#851=DIRECTION('',(-8.65956056235497E-17,0.707106781186544,-0.707106781186551));
#852=DIRECTION('center_axis',(0.,-1.,0.));
#853=DIRECTION('ref_axis',(0.,0.,1.));
#854=DIRECTION('center_axis',(0.,1.,0.));
#855=DIRECTION('ref_axis',(0.,0.,1.));
#856=DIRECTION('center_axis',(0.,1.,0.));
#857=DIRECTION('ref_axis',(0.,0.,1.));
#858=DIRECTION('',(-8.65956056235497E-17,0.707106781186544,-0.707106781186551));
#859=DIRECTION('center_axis',(0.,-1.,0.));
#860=DIRECTION('ref_axis',(0.,0.,1.));
#861=DIRECTION('center_axis',(0.,1.,0.));
#862=DIRECTION('ref_axis',(0.,0.,1.));
#863=DIRECTION('center_axis',(0.,1.,0.));
#864=DIRECTION('ref_axis',(0.,0.,1.));
#865=DIRECTION('',(0.,1.,0.));
#866=DIRECTION('center_axis',(0.,1.,0.));
#867=DIRECTION('ref_axis',(0.,0.,1.));
#868=DIRECTION('center_axis',(0.,1.,0.));
#869=DIRECTION('ref_axis',(0.,0.,1.));
#870=DIRECTION('',(0.,1.,0.));
#871=DIRECTION('center_axis',(1.,0.,0.));
#872=DIRECTION('ref_axis',(0.,0.,-1.));
#873=DIRECTION('',(0.,0.,1.));
#874=DIRECTION('',(0.,-1.,0.));
#875=DIRECTION('',(0.,0.,1.));
#876=DIRECTION('',(0.,-1.,0.));
#877=DIRECTION('center_axis',(0.,0.,-1.));
#878=DIRECTION('ref_axis',(-1.,0.,0.));
#879=DIRECTION('',(1.,0.,0.));
#880=DIRECTION('',(0.,-1.,0.));
#881=DIRECTION('',(1.,0.,0.));
#882=DIRECTION('center_axis',(-1.,0.,-8.67361737988404E-18));
#883=DIRECTION('ref_axis',(-8.67361737988404E-18,0.,1.));
#884=DIRECTION('',(8.67361737988404E-18,0.,-1.));
#885=DIRECTION('',(0.,-1.,0.));
#886=DIRECTION('',(8.67361737988404E-18,0.,-1.));
#887=DIRECTION('center_axis',(-9.25185853854297E-16,0.,1.));
#888=DIRECTION('ref_axis',(1.,0.,9.25185853854297E-16));
#889=DIRECTION('',(-1.,0.,-9.25185853854297E-16));
#890=DIRECTION('',(-1.,0.,-9.25185853854297E-16));
#891=DIRECTION('center_axis',(0.,1.,0.));
#892=DIRECTION('ref_axis',(0.,0.,1.));
#893=DIRECTION('center_axis',(0.,1.,0.));
#894=DIRECTION('ref_axis',(0.,0.,1.));
#895=DIRECTION('',(0.,0.,1.));
#896=DIRECTION('',(1.,0.,0.));
#897=DIRECTION('',(-1.,0.,-8.67361737988404E-18));
#898=DIRECTION('',(-8.67361737988404E-18,0.,1.));
#899=DIRECTION('',(0.,0.,1.));
#900=DIRECTION('',(1.,0.,0.));
#901=DIRECTION('',(1.,-1.66533453693774E-16,-9.82058150488063E-16));
#902=DIRECTION('',(-9.82058150488063E-16,-2.13246162054815E-17,-1.));
#903=DIRECTION('',(0.,0.,1.));
#904=DIRECTION('',(1.,0.,0.));
#905=CARTESIAN_POINT('',(0.,0.,0.));
#906=CARTESIAN_POINT('',(0.,0.,0.));
#907=CARTESIAN_POINT('Origin',(-125.,1.73205080756898,125.));
#908=CARTESIAN_POINT('',(-125.,1.73205080756898,130.));
#909=CARTESIAN_POINT('Origin',(-125.,1.73205080756898,125.));
#910=CARTESIAN_POINT('',(-125.,0.,133.));
#911=CARTESIAN_POINT('',(-125.,1.73205080756898,130.));
#912=CARTESIAN_POINT('Origin',(-125.,0.,125.));
#913=CARTESIAN_POINT('Origin',(125.,1.73205080756899,125.));
#914=CARTESIAN_POINT('',(125.,1.73205080756898,130.));
#915=CARTESIAN_POINT('Origin',(125.,1.73205080756899,125.));
#916=CARTESIAN_POINT('',(125.,-1.38777878078145E-15,133.));
#917=CARTESIAN_POINT('',(125.,1.73205080756899,130.));
#918=CARTESIAN_POINT('Origin',(125.,0.,125.));
#919=CARTESIAN_POINT('Origin',(125.,1.7320508075689,-125.));
#920=CARTESIAN_POINT('',(125.,1.73205080756891,-120.));
#921=CARTESIAN_POINT('Origin',(125.,1.7320508075689,-125.));
#922=CARTESIAN_POINT('',(125.,3.88578058618805E-15,-117.));
#923=CARTESIAN_POINT('',(125.,1.7320508075689,-120.));
#924=CARTESIAN_POINT('Origin',(125.,0.,-125.));
#925=CARTESIAN_POINT('Origin',(-125.,1.73205080756889,-125.));
#926=CARTESIAN_POINT('',(-125.,1.73205080756889,-120.));
#927=CARTESIAN_POINT('Origin',(-125.,1.73205080756889,-125.));
#928=CARTESIAN_POINT('',(-125.,-2.77555756156289E-15,-117.));
#929=CARTESIAN_POINT('',(-125.,1.73205080756889,-120.));
#930=CARTESIAN_POINT('Origin',(-125.,0.,-125.));
#931=CARTESIAN_POINT('Origin',(125.,30.,125.));
#932=CARTESIAN_POINT('',(125.,30.,130.));
#933=CARTESIAN_POINT('Origin',(125.,30.,125.));
#934=CARTESIAN_POINT('',(125.,30.,130.));
#935=CARTESIAN_POINT('Origin',(-125.,30.,-125.));
#936=CARTESIAN_POINT('',(-125.,30.,-120.));
#937=CARTESIAN_POINT('Origin',(-125.,30.,-125.));
#938=CARTESIAN_POINT('',(-125.,30.,-120.));
#939=CARTESIAN_POINT('Origin',(125.,30.,-125.));
#940=CARTESIAN_POINT('',(125.,30.,-120.));
#941=CARTESIAN_POINT('Origin',(125.,30.,-125.));
#942=CARTESIAN_POINT('',(125.,30.,-120.));
#943=CARTESIAN_POINT('Origin',(-125.,30.,125.));
#944=CARTESIAN_POINT('',(-125.,30.,130.));
#945=CARTESIAN_POINT('Origin',(-125.,30.,125.));
#946=CARTESIAN_POINT('',(-125.,30.,130.));
#947=CARTESIAN_POINT('Origin',(-170.,30.,170.));
#948=CARTESIAN_POINT('',(-170.,0.,-170.));
#949=CARTESIAN_POINT('',(-170.,0.,170.));
#950=CARTESIAN_POINT('',(-170.,0.,170.));
#951=CARTESIAN_POINT('',(-170.,30.,170.));
#952=CARTESIAN_POINT('',(-170.,30.,170.));
#953=CARTESIAN_POINT('',(-170.,30.,-170.));
#954=CARTESIAN_POINT('',(-170.,30.,170.));
#955=CARTESIAN_POINT('',(-170.,30.,-170.));
#956=CARTESIAN_POINT('Origin',(170.,30.,170.));
#957=CARTESIAN_POINT('',(170.,0.,170.));
#958=CARTESIAN_POINT('',(170.,0.,170.));
#959=CARTESIAN_POINT('',(170.,30.,170.));
#960=CARTESIAN_POINT('',(170.,30.,170.));
#961=CARTESIAN_POINT('',(170.,30.,170.));
#962=CARTESIAN_POINT('Origin',(170.,30.,170.));
#963=CARTESIAN_POINT('',(170.,0.,-170.));
#964=CARTESIAN_POINT('',(170.,0.,170.));
#965=CARTESIAN_POINT('',(170.,30.,-170.));
#966=CARTESIAN_POINT('',(170.,30.,-170.));
#967=CARTESIAN_POINT('',(170.,30.,170.));
#968=CARTESIAN_POINT('Origin',(170.,30.,-170.));
#969=CARTESIAN_POINT('',(170.,0.,-170.));
#970=CARTESIAN_POINT('',(170.,30.,-170.));
#971=CARTESIAN_POINT('Origin',(0.,30.,0.));
#972=CARTESIAN_POINT('Origin',(0.,0.,0.));
#973=CARTESIAN_POINT('',(0.,0.,0.));
#974=CARTESIAN_POINT('Origin',(0.,26.,-150.));
#975=CARTESIAN_POINT('',(-6.12323399573677E-16,26.,-155.));
#976=CARTESIAN_POINT('Origin',(0.,26.,-150.));
#977=CARTESIAN_POINT('',(-1.10218211923262E-15,30.,-159.));
#978=CARTESIAN_POINT('',(-6.12323399573677E-16,26.,-155.));
#979=CARTESIAN_POINT('Origin',(0.,30.,-150.));
#980=CARTESIAN_POINT('Origin',(0.,26.,150.));
#981=CARTESIAN_POINT('',(-6.12323399573677E-16,26.,145.));
#982=CARTESIAN_POINT('Origin',(0.,26.,150.));
#983=CARTESIAN_POINT('',(-1.10218211923262E-15,30.,141.));
#984=CARTESIAN_POINT('',(-6.12323399573677E-16,26.,145.));
#985=CARTESIAN_POINT('Origin',(0.,30.,150.));
#986=CARTESIAN_POINT('Origin',(0.,0.,-150.));
#987=CARTESIAN_POINT('',(-6.12323399573677E-16,0.,-155.));
#988=CARTESIAN_POINT('Origin',(0.,0.,-150.));
#989=CARTESIAN_POINT('',(-6.12323399573677E-16,0.,-155.));
#990=CARTESIAN_POINT('Origin',(0.,0.,150.));
#991=CARTESIAN_POINT('',(-6.12323399573677E-16,0.,145.));
#992=CARTESIAN_POINT('Origin',(0.,0.,150.));
#993=CARTESIAN_POINT('',(-6.12323399573677E-16,0.,145.));
#994=CARTESIAN_POINT('Origin',(-15.,30.,170.));
#995=CARTESIAN_POINT('',(-15.,0.,-170.));
#996=CARTESIAN_POINT('',(-15.,0.,170.));
#997=CARTESIAN_POINT('',(-15.,0.,170.));
#998=CARTESIAN_POINT('',(-15.,30.,170.));
#999=CARTESIAN_POINT('',(-15.,30.,170.));
#1000=CARTESIAN_POINT('',(-15.,30.,-170.));
#1001=CARTESIAN_POINT('',(-15.,30.,170.));
#1002=CARTESIAN_POINT('',(-15.,30.,-170.));
#1003=CARTESIAN_POINT('Origin',(15.,30.,170.));
#1004=CARTESIAN_POINT('',(15.,0.,170.));
#1005=CARTESIAN_POINT('',(15.,0.,170.));
#1006=CARTESIAN_POINT('',(15.,30.,170.));
#1007=CARTESIAN_POINT('',(15.,30.,170.));
#1008=CARTESIAN_POINT('',(15.,30.,170.));
#1009=CARTESIAN_POINT('Origin',(15.,30.,170.));
#1010=CARTESIAN_POINT('',(15.,0.,-170.));
#1011=CARTESIAN_POINT('',(15.,0.,170.));
#1012=CARTESIAN_POINT('',(15.,30.,-170.));
#1013=CARTESIAN_POINT('',(15.,30.,-170.));
#1014=CARTESIAN_POINT('',(15.,30.,170.));
#1015=CARTESIAN_POINT('Origin',(15.,30.,-170.));
#1016=CARTESIAN_POINT('',(15.,0.,-170.));
#1017=CARTESIAN_POINT('',(15.,30.,-170.));
#1018=CARTESIAN_POINT('Origin',(0.,30.,0.));
#1019=CARTESIAN_POINT('Origin',(0.,0.,0.));
#1020=CARTESIAN_POINT('',(0.,0.,0.));
#1021=CARTESIAN_POINT('Origin',(0.,26.,-150.));
#1022=CARTESIAN_POINT('',(-6.12323399573677E-16,26.,-155.));
#1023=CARTESIAN_POINT('Origin',(0.,26.,-150.));
#1024=CARTESIAN_POINT('',(-1.10218211923263E-15,30.,-159.));
#1025=CARTESIAN_POINT('',(-6.12323399573677E-16,26.,-155.));
#1026=CARTESIAN_POINT('Origin',(0.,30.,-150.));
#1027=CARTESIAN_POINT('Origin',(0.,26.,150.));
#1028=CARTESIAN_POINT('',(-6.12323399573677E-16,26.,145.));
#1029=CARTESIAN_POINT('Origin',(0.,26.,150.));
#1030=CARTESIAN_POINT('',(-1.10218211923263E-15,30.,141.));
#1031=CARTESIAN_POINT('',(-6.12323399573677E-16,26.,145.));
#1032=CARTESIAN_POINT('Origin',(0.,30.,150.));
#1033=CARTESIAN_POINT('Origin',(0.,0.,-150.));
#1034=CARTESIAN_POINT('',(-6.12323399573677E-16,0.,-155.));
#1035=CARTESIAN_POINT('Origin',(0.,0.,-150.));
#1036=CARTESIAN_POINT('',(-6.12323399573677E-16,0.,-155.));
#1037=CARTESIAN_POINT('Origin',(0.,0.,150.));
#1038=CARTESIAN_POINT('',(-6.12323399573677E-16,0.,145.));
#1039=CARTESIAN_POINT('Origin',(0.,0.,150.));
#1040=CARTESIAN_POINT('',(-6.12323399573677E-16,0.,145.));
#1041=CARTESIAN_POINT('Origin',(-15.,30.,200.));
#1042=CARTESIAN_POINT('',(-15.,0.,-200.));
#1043=CARTESIAN_POINT('',(-15.,0.,200.));
#1044=CARTESIAN_POINT('',(-15.,0.,200.));
#1045=CARTESIAN_POINT('',(-15.,30.,200.));
#1046=CARTESIAN_POINT('',(-15.,30.,200.));
#1047=CARTESIAN_POINT('',(-15.,30.,-200.));
#1048=CARTESIAN_POINT('',(-15.,30.,200.));
#1049=CARTESIAN_POINT('',(-15.,30.,-200.));
#1050=CARTESIAN_POINT('Origin',(15.,30.,200.));
#1051=CARTESIAN_POINT('',(15.,0.,200.));
#1052=CARTESIAN_POINT('',(15.,0.,200.));
#1053=CARTESIAN_POINT('',(15.,30.,200.));
#1054=CARTESIAN_POINT('',(15.,30.,200.));
#1055=CARTESIAN_POINT('',(15.,30.,200.));
#1056=CARTESIAN_POINT('Origin',(15.,30.,200.));
#1057=CARTESIAN_POINT('',(15.,0.,-200.));
#1058=CARTESIAN_POINT('',(15.,0.,200.));
#1059=CARTESIAN_POINT('',(15.,30.,-200.));
#1060=CARTESIAN_POINT('',(15.,30.,-200.));
#1061=CARTESIAN_POINT('',(15.,30.,200.));
#1062=CARTESIAN_POINT('Origin',(15.,30.,-200.));
#1063=CARTESIAN_POINT('',(15.,0.,-200.));
#1064=CARTESIAN_POINT('',(15.,30.,-200.));
#1065=CARTESIAN_POINT('Origin',(0.,30.,0.));
#1066=CARTESIAN_POINT('Origin',(0.,0.,0.));
#1067=CARTESIAN_POINT('',(-4.84472600933967,-15.584708311472,2.77555756156289E-14));
#1068=CARTESIAN_POINT('',(180.15527399066,-15.584708311472,185.));
#1069=CARTESIAN_POINT('',(180.15527399066,64.415291688528,0.));
#1070=CARTESIAN_POINT('',(180.15527399066,-15.584708311472,-185.));
#1071=CARTESIAN_POINT('',(365.15527399066,-15.584708311472,-3.05311331771918E-13));
#1072=UNCERTAINTY_MEASURE_WITH_UNIT(LENGTH_MEASURE(0.01),#1082,
'DISTANCE_ACCURACY_VALUE',
'Maximum model space distance between geometric entities at asserted c
onnectivities');
#1073=UNCERTAINTY_MEASURE_WITH_UNIT(LENGTH_MEASURE(0.01),#1082,
'DISTANCE_ACCURACY_VALUE',
'Maximum model space distance between geometric entities at asserted c
onnectivities');
#1074=UNCERTAINTY_MEASURE_WITH_UNIT(LENGTH_MEASURE(0.01),#1082,
'DISTANCE_ACCURACY_VALUE',
'Maximum model space distance between geometric entities at asserted c
onnectivities');
#1075=UNCERTAINTY_MEASURE_WITH_UNIT(LENGTH_MEASURE(0.01),#1082,
'DISTANCE_ACCURACY_VALUE',
'Maximum model space distance between geometric entities at asserted c
onnectivities');
#1076=UNCERTAINTY_MEASURE_WITH_UNIT(LENGTH_MEASURE(0.01),#1082,
'DISTANCE_ACCURACY_VALUE',
'Maximum model space distance between geometric entities at asserted c
onnectivities');
#1077=(
GEOMETRIC_REPRESENTATION_CONTEXT(3)
GLOBAL_UNCERTAINTY_ASSIGNED_CONTEXT((#1072))
GLOBAL_UNIT_ASSIGNED_CONTEXT((#1082,#1084,#1085))
REPRESENTATION_CONTEXT('','3D')
);
#1078=(
GEOMETRIC_REPRESENTATION_CONTEXT(3)
GLOBAL_UNCERTAINTY_ASSIGNED_CONTEXT((#1073))
GLOBAL_UNIT_ASSIGNED_CONTEXT((#1082,#1084,#1085))
REPRESENTATION_CONTEXT('','3D')
);
#1079=(
GEOMETRIC_REPRESENTATION_CONTEXT(3)
GLOBAL_UNCERTAINTY_ASSIGNED_CONTEXT((#1074))
GLOBAL_UNIT_ASSIGNED_CONTEXT((#1082,#1084,#1085))
REPRESENTATION_CONTEXT('','3D')
);
#1080=(
GEOMETRIC_REPRESENTATION_CONTEXT(3)
GLOBAL_UNCERTAINTY_ASSIGNED_CONTEXT((#1075))
GLOBAL_UNIT_ASSIGNED_CONTEXT((#1082,#1084,#1085))
REPRESENTATION_CONTEXT('','3D')
);
#1081=(
GEOMETRIC_REPRESENTATION_CONTEXT(3)
GLOBAL_UNCERTAINTY_ASSIGNED_CONTEXT((#1076))
GLOBAL_UNIT_ASSIGNED_CONTEXT((#1082,#1084,#1085))
REPRESENTATION_CONTEXT('','3D')
);
#1082=(
LENGTH_UNIT()
NAMED_UNIT(*)
SI_UNIT(.MILLI.,.METRE.)
);
#1083=(
LENGTH_UNIT()
NAMED_UNIT(*)
SI_UNIT($,.METRE.)
);
#1084=(
NAMED_UNIT(*)
PLANE_ANGLE_UNIT()
SI_UNIT($,.RADIAN.)
);
#1085=(
NAMED_UNIT(*)
SI_UNIT($,.STERADIAN.)
SOLID_ANGLE_UNIT()
);
#1086=SHAPE_DEFINITION_REPRESENTATION(#1090,#1099);
#1087=SHAPE_DEFINITION_REPRESENTATION(#1091,#1100);
#1088=SHAPE_DEFINITION_REPRESENTATION(#1092,#1101);
#1089=SHAPE_DEFINITION_REPRESENTATION(#1093,#1102);
#1090=PRODUCT_DEFINITION_SHAPE('',$,#1104);
#1091=PRODUCT_DEFINITION_SHAPE('',$,#1105);
#1092=PRODUCT_DEFINITION_SHAPE('',$,#1106);
#1093=PRODUCT_DEFINITION_SHAPE('',$,#1107);
#1094=PRODUCT_DEFINITION_SHAPE($,$,#26);
#1095=PRODUCT_DEFINITION_SHAPE($,$,#27);
#1096=PRODUCT_DEFINITION_SHAPE($,$,#28);
#1097=PRODUCT_DEFINITION_SHAPE($,$,#29);
#1098=PRODUCT_DEFINITION_SHAPE($,$,#30);
#1099=SHAPE_REPRESENTATION('',(#652,#714,#715,#716,#717,#718),#1077);
#1100=SHAPE_REPRESENTATION('',(#653),#1078);
#1101=SHAPE_REPRESENTATION('',(#680),#1079);
#1102=SHAPE_REPRESENTATION('',(#697),#1080);
#1103=PRODUCT_DEFINITION_CONTEXT('part definition',#1117,'design');
#1104=PRODUCT_DEFINITION('plastic','plastic v1',#1108,#1103);
#1105=PRODUCT_DEFINITION('marco superior_Predeterminado',
'marco superior_Predeterminado',#1109,#1103);
#1106=PRODUCT_DEFINITION('marco 36_Predeterminado',
'marco 36_Predeterminado',#1110,#1103);
#1107=PRODUCT_DEFINITION('marco 40_Predeterminado',
'marco 40_Predeterminado',#1111,#1103);
#1108=PRODUCT_DEFINITION_FORMATION('',$,#1119);
#1109=PRODUCT_DEFINITION_FORMATION('',$,#1120);
#1110=PRODUCT_DEFINITION_FORMATION('',$,#1121);
#1111=PRODUCT_DEFINITION_FORMATION('',$,#1122);
#1112=PRODUCT_RELATED_PRODUCT_CATEGORY('plastic v1','plastic v1',(#1119));
#1113=PRODUCT_RELATED_PRODUCT_CATEGORY('marco superior_Predeterminado',
'marco superior_Predeterminado',(#1120));
#1114=PRODUCT_RELATED_PRODUCT_CATEGORY('marco 36_Predeterminado',
'marco 36_Predeterminado',(#1121));
#1115=PRODUCT_RELATED_PRODUCT_CATEGORY('marco 40_Predeterminado',
'marco 40_Predeterminado',(#1122));
#1116=APPLICATION_PROTOCOL_DEFINITION('international standard',
'automotive_design',2009,#1117);
#1117=APPLICATION_CONTEXT(
'Core Data for Automotive Mechanical Design Process');
#1118=PRODUCT_CONTEXT('part definition',#1117,'mechanical');
#1119=PRODUCT('plastic','plastic v1','STEP AP203',(#1118));
#1120=PRODUCT('marco superior_Predeterminado',
'marco superior_Predeterminado',$,(#1118));
#1121=PRODUCT('marco 36_Predeterminado','marco 36_Predeterminado',$,(#1118));
#1122=PRODUCT('marco 40_Predeterminado','marco 40_Predeterminado',$,(#1118));
#1123=PRESENTATION_STYLE_ASSIGNMENT((#1124));
#1124=SURFACE_STYLE_USAGE(.BOTH.,#1125);
#1125=SURFACE_SIDE_STYLE('',(#1126));
#1126=SURFACE_STYLE_FILL_AREA(#1127);
#1127=FILL_AREA_STYLE('Steel - Satin',(#1128));
#1128=FILL_AREA_STYLE_COLOUR('Steel - Satin',#1129);
#1129=COLOUR_RGB('Steel - Satin',0.627450980392157,0.627450980392157,0.627450980392157);
ENDSEC;
END-ISO-10303-21;
