ISO-10303-21;
HEADER;
/* Generated by software containing ST-Developer
 * from STEP Tools, Inc. (www.steptools.com) 
 */

FILE_DESCRIPTION(
/* description */ (''),
/* implementation_level */ '2;1');

FILE_NAME(
/* name */ 'mount to mold v1.step',
/* time_stamp */ '2026-03-14T10:14:27+01:00',
/* author */ (''),
/* organization */ (''),
/* preprocessor_version */ 'ST-DEVELOPER v20.1',
/* originating_system */ 'Autodesk Translation Framework v14.24.0.0',
/* authorisation */ '');

FILE_SCHEMA (('AUTOMOTIVE_DESIGN { 1 0 10303 214 3 1 1 }'));
ENDSEC;

DATA;
#10=MECHANICAL_DESIGN_GEOMETRIC_PRESENTATION_REPRESENTATION('',(#13),#738);
#11=SHAPE_REPRESENTATION_RELATIONSHIP('SRR','None',#745,#12);
#12=ADVANCED_BREP_SHAPE_REPRESENTATION('',(#14),#737);
#13=STYLED_ITEM('',(#754),#14);
#14=MANIFOLD_SOLID_BREP('Body1',#434);
#15=LINE('',#625,#52);
#16=LINE('',#628,#53);
#17=LINE('',#638,#54);
#18=LINE('',#641,#55);
#19=LINE('',#647,#56);
#20=LINE('',#653,#57);
#21=LINE('',#659,#58);
#22=LINE('',#666,#59);
#23=LINE('',#669,#60);
#24=LINE('',#675,#61);
#25=LINE('',#678,#62);
#26=LINE('',#684,#63);
#27=LINE('',#687,#64);
#28=LINE('',#690,#65);
#29=LINE('',#692,#66);
#30=LINE('',#693,#67);
#31=LINE('',#696,#68);
#32=LINE('',#698,#69);
#33=LINE('',#699,#70);
#34=LINE('',#702,#71);
#35=LINE('',#704,#72);
#36=LINE('',#705,#73);
#37=LINE('',#708,#74);
#38=LINE('',#709,#75);
#39=LINE('',#711,#76);
#40=LINE('',#712,#77);
#41=LINE('',#714,#78);
#42=LINE('',#715,#79);
#43=LINE('',#718,#80);
#44=LINE('',#719,#81);
#45=LINE('',#721,#82);
#46=LINE('',#724,#83);
#47=LINE('',#725,#84);
#48=LINE('',#727,#85);
#49=LINE('',#730,#86);
#50=LINE('',#731,#87);
#51=LINE('',#733,#88);
#52=VECTOR('',#503,8.);
#53=VECTOR('',#506,5.);
#54=VECTOR('',#519,8.);
#55=VECTOR('',#522,5.);
#56=VECTOR('',#529,12.5);
#57=VECTOR('',#536,12.5);
#58=VECTOR('',#543,12.5);
#59=VECTOR('',#550,10.);
#60=VECTOR('',#553,10.);
#61=VECTOR('',#558,10.);
#62=VECTOR('',#561,10.);
#63=VECTOR('',#566,10.);
#64=VECTOR('',#569,10.);
#65=VECTOR('',#572,10.);
#66=VECTOR('',#573,10.);
#67=VECTOR('',#574,10.);
#68=VECTOR('',#577,10.);
#69=VECTOR('',#578,10.);
#70=VECTOR('',#579,10.);
#71=VECTOR('',#582,10.);
#72=VECTOR('',#583,10.);
#73=VECTOR('',#584,10.);
#74=VECTOR('',#587,10.);
#75=VECTOR('',#588,10.);
#76=VECTOR('',#589,10.);
#77=VECTOR('',#590,10.);
#78=VECTOR('',#591,10.);
#79=VECTOR('',#592,10.);
#80=VECTOR('',#595,10.);
#81=VECTOR('',#596,10.);
#82=VECTOR('',#599,10.);
#83=VECTOR('',#602,10.);
#84=VECTOR('',#603,10.);
#85=VECTOR('',#606,10.);
#86=VECTOR('',#609,10.);
#87=VECTOR('',#610,10.);
#88=VECTOR('',#613,10.);
#89=CYLINDRICAL_SURFACE('',#451,8.);
#90=CYLINDRICAL_SURFACE('',#453,5.);
#91=CYLINDRICAL_SURFACE('',#458,8.);
#92=CYLINDRICAL_SURFACE('',#460,5.);
#93=CYLINDRICAL_SURFACE('',#462,12.5);
#94=CYLINDRICAL_SURFACE('',#465,12.5);
#95=CYLINDRICAL_SURFACE('',#468,12.5);
#96=CYLINDRICAL_SURFACE('',#471,25.);
#97=CYLINDRICAL_SURFACE('',#474,25.);
#98=CYLINDRICAL_SURFACE('',#477,25.);
#99=FACE_BOUND('',#135,.T.);
#100=FACE_BOUND('',#139,.T.);
#101=FACE_BOUND('',#149,.T.);
#102=FACE_BOUND('',#151,.T.);
#103=FACE_BOUND('',#153,.T.);
#104=FACE_BOUND('',#156,.T.);
#105=FACE_BOUND('',#158,.T.);
#106=FACE_BOUND('',#160,.T.);
#107=FACE_BOUND('',#162,.T.);
#108=FACE_BOUND('',#164,.T.);
#109=FACE_BOUND('',#167,.T.);
#110=FACE_BOUND('',#168,.T.);
#111=FACE_OUTER_BOUND('',#134,.T.);
#112=FACE_OUTER_BOUND('',#136,.T.);
#113=FACE_OUTER_BOUND('',#137,.T.);
#114=FACE_OUTER_BOUND('',#138,.T.);
#115=FACE_OUTER_BOUND('',#140,.T.);
#116=FACE_OUTER_BOUND('',#141,.T.);
#117=FACE_OUTER_BOUND('',#142,.T.);
#118=FACE_OUTER_BOUND('',#143,.T.);
#119=FACE_OUTER_BOUND('',#144,.T.);
#120=FACE_OUTER_BOUND('',#145,.T.);
#121=FACE_OUTER_BOUND('',#146,.T.);
#122=FACE_OUTER_BOUND('',#147,.T.);
#123=FACE_OUTER_BOUND('',#148,.T.);
#124=FACE_OUTER_BOUND('',#150,.T.);
#125=FACE_OUTER_BOUND('',#152,.T.);
#126=FACE_OUTER_BOUND('',#154,.T.);
#127=FACE_OUTER_BOUND('',#155,.T.);
#128=FACE_OUTER_BOUND('',#157,.T.);
#129=FACE_OUTER_BOUND('',#159,.T.);
#130=FACE_OUTER_BOUND('',#161,.T.);
#131=FACE_OUTER_BOUND('',#163,.T.);
#132=FACE_OUTER_BOUND('',#165,.T.);
#133=FACE_OUTER_BOUND('',#166,.T.);
#134=EDGE_LOOP('',(#284));
#135=EDGE_LOOP('',(#285));
#136=EDGE_LOOP('',(#286,#287,#288,#289));
#137=EDGE_LOOP('',(#290,#291,#292,#293));
#138=EDGE_LOOP('',(#294));
#139=EDGE_LOOP('',(#295));
#140=EDGE_LOOP('',(#296,#297,#298,#299));
#141=EDGE_LOOP('',(#300,#301,#302,#303));
#142=EDGE_LOOP('',(#304,#305,#306,#307));
#143=EDGE_LOOP('',(#308,#309,#310,#311));
#144=EDGE_LOOP('',(#312,#313,#314,#315));
#145=EDGE_LOOP('',(#316,#317,#318,#319));
#146=EDGE_LOOP('',(#320,#321,#322,#323));
#147=EDGE_LOOP('',(#324,#325,#326,#327));
#148=EDGE_LOOP('',(#328,#329,#330,#331));
#149=EDGE_LOOP('',(#332));
#150=EDGE_LOOP('',(#333,#334,#335,#336));
#151=EDGE_LOOP('',(#337));
#152=EDGE_LOOP('',(#338,#339,#340,#341));
#153=EDGE_LOOP('',(#342));
#154=EDGE_LOOP('',(#343,#344,#345,#346,#347,#348,#349,#350,#351,#352,#353,
#354));
#155=EDGE_LOOP('',(#355,#356,#357,#358));
#156=EDGE_LOOP('',(#359));
#157=EDGE_LOOP('',(#360,#361,#362,#363));
#158=EDGE_LOOP('',(#364));
#159=EDGE_LOOP('',(#365,#366,#367,#368));
#160=EDGE_LOOP('',(#369));
#161=EDGE_LOOP('',(#370,#371,#372,#373));
#162=EDGE_LOOP('',(#374));
#163=EDGE_LOOP('',(#375,#376,#377,#378));
#164=EDGE_LOOP('',(#379));
#165=EDGE_LOOP('',(#380,#381,#382,#383,#384,#385,#386,#387,#388,#389,#390,
#391));
#166=EDGE_LOOP('',(#392,#393,#394,#395));
#167=EDGE_LOOP('',(#396));
#168=EDGE_LOOP('',(#397));
#169=CIRCLE('',#449,8.);
#170=CIRCLE('',#450,5.);
#171=CIRCLE('',#452,8.);
#172=CIRCLE('',#454,5.);
#173=CIRCLE('',#456,8.);
#174=CIRCLE('',#457,5.);
#175=CIRCLE('',#459,8.);
#176=CIRCLE('',#461,5.);
#177=CIRCLE('',#463,12.5);
#178=CIRCLE('',#464,12.5);
#179=CIRCLE('',#466,12.5);
#180=CIRCLE('',#467,12.5);
#181=CIRCLE('',#469,12.5);
#182=CIRCLE('',#470,12.5);
#183=CIRCLE('',#472,25.);
#184=CIRCLE('',#473,25.);
#185=CIRCLE('',#475,25.);
#186=CIRCLE('',#476,25.);
#187=CIRCLE('',#478,25.);
#188=CIRCLE('',#479,25.);
#189=VERTEX_POINT('',#618);
#190=VERTEX_POINT('',#620);
#191=VERTEX_POINT('',#623);
#192=VERTEX_POINT('',#627);
#193=VERTEX_POINT('',#631);
#194=VERTEX_POINT('',#633);
#195=VERTEX_POINT('',#636);
#196=VERTEX_POINT('',#640);
#197=VERTEX_POINT('',#644);
#198=VERTEX_POINT('',#646);
#199=VERTEX_POINT('',#650);
#200=VERTEX_POINT('',#652);
#201=VERTEX_POINT('',#656);
#202=VERTEX_POINT('',#658);
#203=VERTEX_POINT('',#662);
#204=VERTEX_POINT('',#663);
#205=VERTEX_POINT('',#665);
#206=VERTEX_POINT('',#667);
#207=VERTEX_POINT('',#671);
#208=VERTEX_POINT('',#672);
#209=VERTEX_POINT('',#674);
#210=VERTEX_POINT('',#676);
#211=VERTEX_POINT('',#680);
#212=VERTEX_POINT('',#681);
#213=VERTEX_POINT('',#683);
#214=VERTEX_POINT('',#685);
#215=VERTEX_POINT('',#689);
#216=VERTEX_POINT('',#691);
#217=VERTEX_POINT('',#695);
#218=VERTEX_POINT('',#697);
#219=VERTEX_POINT('',#701);
#220=VERTEX_POINT('',#703);
#221=VERTEX_POINT('',#707);
#222=VERTEX_POINT('',#710);
#223=VERTEX_POINT('',#713);
#224=VERTEX_POINT('',#717);
#225=VERTEX_POINT('',#723);
#226=VERTEX_POINT('',#729);
#227=EDGE_CURVE('',#189,#189,#169,.T.);
#228=EDGE_CURVE('',#190,#190,#170,.T.);
#229=EDGE_CURVE('',#191,#191,#171,.T.);
#230=EDGE_CURVE('',#191,#189,#15,.T.);
#231=EDGE_CURVE('',#190,#192,#16,.T.);
#232=EDGE_CURVE('',#192,#192,#172,.T.);
#233=EDGE_CURVE('',#193,#193,#173,.T.);
#234=EDGE_CURVE('',#194,#194,#174,.T.);
#235=EDGE_CURVE('',#195,#195,#175,.T.);
#236=EDGE_CURVE('',#195,#193,#17,.T.);
#237=EDGE_CURVE('',#194,#196,#18,.T.);
#238=EDGE_CURVE('',#196,#196,#176,.T.);
#239=EDGE_CURVE('',#197,#197,#177,.T.);
#240=EDGE_CURVE('',#197,#198,#19,.T.);
#241=EDGE_CURVE('',#198,#198,#178,.T.);
#242=EDGE_CURVE('',#199,#199,#179,.T.);
#243=EDGE_CURVE('',#199,#200,#20,.T.);
#244=EDGE_CURVE('',#200,#200,#180,.T.);
#245=EDGE_CURVE('',#201,#201,#181,.T.);
#246=EDGE_CURVE('',#201,#202,#21,.T.);
#247=EDGE_CURVE('',#202,#202,#182,.T.);
#248=EDGE_CURVE('',#203,#204,#183,.T.);
#249=EDGE_CURVE('',#205,#203,#22,.T.);
#250=EDGE_CURVE('',#206,#205,#184,.T.);
#251=EDGE_CURVE('',#206,#204,#23,.T.);
#252=EDGE_CURVE('',#207,#208,#185,.T.);
#253=EDGE_CURVE('',#209,#207,#24,.T.);
#254=EDGE_CURVE('',#210,#209,#186,.T.);
#255=EDGE_CURVE('',#210,#208,#25,.T.);
#256=EDGE_CURVE('',#211,#212,#187,.T.);
#257=EDGE_CURVE('',#211,#213,#26,.T.);
#258=EDGE_CURVE('',#214,#213,#188,.T.);
#259=EDGE_CURVE('',#212,#214,#27,.T.);
#260=EDGE_CURVE('',#215,#213,#28,.T.);
#261=EDGE_CURVE('',#216,#215,#29,.T.);
#262=EDGE_CURVE('',#216,#214,#30,.T.);
#263=EDGE_CURVE('',#217,#208,#31,.T.);
#264=EDGE_CURVE('',#218,#217,#32,.T.);
#265=EDGE_CURVE('',#207,#218,#33,.T.);
#266=EDGE_CURVE('',#219,#204,#34,.T.);
#267=EDGE_CURVE('',#220,#219,#35,.T.);
#268=EDGE_CURVE('',#203,#220,#36,.T.);
#269=EDGE_CURVE('',#211,#221,#37,.T.);
#270=EDGE_CURVE('',#221,#219,#38,.T.);
#271=EDGE_CURVE('',#206,#222,#39,.T.);
#272=EDGE_CURVE('',#222,#217,#40,.T.);
#273=EDGE_CURVE('',#223,#210,#41,.T.);
#274=EDGE_CURVE('',#215,#223,#42,.T.);
#275=EDGE_CURVE('',#224,#212,#43,.T.);
#276=EDGE_CURVE('',#224,#221,#44,.T.);
#277=EDGE_CURVE('',#220,#224,#45,.T.);
#278=EDGE_CURVE('',#225,#205,#46,.T.);
#279=EDGE_CURVE('',#225,#222,#47,.T.);
#280=EDGE_CURVE('',#218,#225,#48,.T.);
#281=EDGE_CURVE('',#226,#209,#49,.T.);
#282=EDGE_CURVE('',#223,#226,#50,.T.);
#283=EDGE_CURVE('',#226,#216,#51,.T.);
#284=ORIENTED_EDGE('',*,*,#227,.F.);
#285=ORIENTED_EDGE('',*,*,#228,.T.);
#286=ORIENTED_EDGE('',*,*,#229,.F.);
#287=ORIENTED_EDGE('',*,*,#230,.T.);
#288=ORIENTED_EDGE('',*,*,#227,.T.);
#289=ORIENTED_EDGE('',*,*,#230,.F.);
#290=ORIENTED_EDGE('',*,*,#228,.F.);
#291=ORIENTED_EDGE('',*,*,#231,.T.);
#292=ORIENTED_EDGE('',*,*,#232,.F.);
#293=ORIENTED_EDGE('',*,*,#231,.F.);
#294=ORIENTED_EDGE('',*,*,#233,.F.);
#295=ORIENTED_EDGE('',*,*,#234,.T.);
#296=ORIENTED_EDGE('',*,*,#235,.F.);
#297=ORIENTED_EDGE('',*,*,#236,.T.);
#298=ORIENTED_EDGE('',*,*,#233,.T.);
#299=ORIENTED_EDGE('',*,*,#236,.F.);
#300=ORIENTED_EDGE('',*,*,#234,.F.);
#301=ORIENTED_EDGE('',*,*,#237,.T.);
#302=ORIENTED_EDGE('',*,*,#238,.F.);
#303=ORIENTED_EDGE('',*,*,#237,.F.);
#304=ORIENTED_EDGE('',*,*,#239,.F.);
#305=ORIENTED_EDGE('',*,*,#240,.T.);
#306=ORIENTED_EDGE('',*,*,#241,.F.);
#307=ORIENTED_EDGE('',*,*,#240,.F.);
#308=ORIENTED_EDGE('',*,*,#242,.F.);
#309=ORIENTED_EDGE('',*,*,#243,.T.);
#310=ORIENTED_EDGE('',*,*,#244,.F.);
#311=ORIENTED_EDGE('',*,*,#243,.F.);
#312=ORIENTED_EDGE('',*,*,#245,.F.);
#313=ORIENTED_EDGE('',*,*,#246,.T.);
#314=ORIENTED_EDGE('',*,*,#247,.F.);
#315=ORIENTED_EDGE('',*,*,#246,.F.);
#316=ORIENTED_EDGE('',*,*,#248,.F.);
#317=ORIENTED_EDGE('',*,*,#249,.F.);
#318=ORIENTED_EDGE('',*,*,#250,.F.);
#319=ORIENTED_EDGE('',*,*,#251,.T.);
#320=ORIENTED_EDGE('',*,*,#252,.F.);
#321=ORIENTED_EDGE('',*,*,#253,.F.);
#322=ORIENTED_EDGE('',*,*,#254,.F.);
#323=ORIENTED_EDGE('',*,*,#255,.T.);
#324=ORIENTED_EDGE('',*,*,#256,.F.);
#325=ORIENTED_EDGE('',*,*,#257,.T.);
#326=ORIENTED_EDGE('',*,*,#258,.F.);
#327=ORIENTED_EDGE('',*,*,#259,.F.);
#328=ORIENTED_EDGE('',*,*,#258,.T.);
#329=ORIENTED_EDGE('',*,*,#260,.F.);
#330=ORIENTED_EDGE('',*,*,#261,.F.);
#331=ORIENTED_EDGE('',*,*,#262,.T.);
#332=ORIENTED_EDGE('',*,*,#239,.T.);
#333=ORIENTED_EDGE('',*,*,#252,.T.);
#334=ORIENTED_EDGE('',*,*,#263,.F.);
#335=ORIENTED_EDGE('',*,*,#264,.F.);
#336=ORIENTED_EDGE('',*,*,#265,.F.);
#337=ORIENTED_EDGE('',*,*,#245,.T.);
#338=ORIENTED_EDGE('',*,*,#248,.T.);
#339=ORIENTED_EDGE('',*,*,#266,.F.);
#340=ORIENTED_EDGE('',*,*,#267,.F.);
#341=ORIENTED_EDGE('',*,*,#268,.F.);
#342=ORIENTED_EDGE('',*,*,#242,.T.);
#343=ORIENTED_EDGE('',*,*,#257,.F.);
#344=ORIENTED_EDGE('',*,*,#269,.T.);
#345=ORIENTED_EDGE('',*,*,#270,.T.);
#346=ORIENTED_EDGE('',*,*,#266,.T.);
#347=ORIENTED_EDGE('',*,*,#251,.F.);
#348=ORIENTED_EDGE('',*,*,#271,.T.);
#349=ORIENTED_EDGE('',*,*,#272,.T.);
#350=ORIENTED_EDGE('',*,*,#263,.T.);
#351=ORIENTED_EDGE('',*,*,#255,.F.);
#352=ORIENTED_EDGE('',*,*,#273,.F.);
#353=ORIENTED_EDGE('',*,*,#274,.F.);
#354=ORIENTED_EDGE('',*,*,#260,.T.);
#355=ORIENTED_EDGE('',*,*,#256,.T.);
#356=ORIENTED_EDGE('',*,*,#275,.F.);
#357=ORIENTED_EDGE('',*,*,#276,.T.);
#358=ORIENTED_EDGE('',*,*,#269,.F.);
#359=ORIENTED_EDGE('',*,*,#241,.T.);
#360=ORIENTED_EDGE('',*,*,#277,.F.);
#361=ORIENTED_EDGE('',*,*,#267,.T.);
#362=ORIENTED_EDGE('',*,*,#270,.F.);
#363=ORIENTED_EDGE('',*,*,#276,.F.);
#364=ORIENTED_EDGE('',*,*,#229,.T.);
#365=ORIENTED_EDGE('',*,*,#250,.T.);
#366=ORIENTED_EDGE('',*,*,#278,.F.);
#367=ORIENTED_EDGE('',*,*,#279,.T.);
#368=ORIENTED_EDGE('',*,*,#271,.F.);
#369=ORIENTED_EDGE('',*,*,#244,.T.);
#370=ORIENTED_EDGE('',*,*,#280,.F.);
#371=ORIENTED_EDGE('',*,*,#264,.T.);
#372=ORIENTED_EDGE('',*,*,#272,.F.);
#373=ORIENTED_EDGE('',*,*,#279,.F.);
#374=ORIENTED_EDGE('',*,*,#235,.T.);
#375=ORIENTED_EDGE('',*,*,#254,.T.);
#376=ORIENTED_EDGE('',*,*,#281,.F.);
#377=ORIENTED_EDGE('',*,*,#282,.F.);
#378=ORIENTED_EDGE('',*,*,#273,.T.);
#379=ORIENTED_EDGE('',*,*,#247,.T.);
#380=ORIENTED_EDGE('',*,*,#259,.T.);
#381=ORIENTED_EDGE('',*,*,#262,.F.);
#382=ORIENTED_EDGE('',*,*,#283,.F.);
#383=ORIENTED_EDGE('',*,*,#281,.T.);
#384=ORIENTED_EDGE('',*,*,#253,.T.);
#385=ORIENTED_EDGE('',*,*,#265,.T.);
#386=ORIENTED_EDGE('',*,*,#280,.T.);
#387=ORIENTED_EDGE('',*,*,#278,.T.);
#388=ORIENTED_EDGE('',*,*,#249,.T.);
#389=ORIENTED_EDGE('',*,*,#268,.T.);
#390=ORIENTED_EDGE('',*,*,#277,.T.);
#391=ORIENTED_EDGE('',*,*,#275,.T.);
#392=ORIENTED_EDGE('',*,*,#274,.T.);
#393=ORIENTED_EDGE('',*,*,#282,.T.);
#394=ORIENTED_EDGE('',*,*,#283,.T.);
#395=ORIENTED_EDGE('',*,*,#261,.T.);
#396=ORIENTED_EDGE('',*,*,#232,.T.);
#397=ORIENTED_EDGE('',*,*,#238,.T.);
#398=PLANE('',#448);
#399=PLANE('',#455);
#400=PLANE('',#480);
#401=PLANE('',#481);
#402=PLANE('',#482);
#403=PLANE('',#483);
#404=PLANE('',#484);
#405=PLANE('',#485);
#406=PLANE('',#486);
#407=PLANE('',#487);
#408=PLANE('',#488);
#409=PLANE('',#489);
#410=PLANE('',#490);
#411=ADVANCED_FACE('',(#111,#99),#398,.F.);
#412=ADVANCED_FACE('',(#112),#89,.F.);
#413=ADVANCED_FACE('',(#113),#90,.F.);
#414=ADVANCED_FACE('',(#114,#100),#399,.F.);
#415=ADVANCED_FACE('',(#115),#91,.F.);
#416=ADVANCED_FACE('',(#116),#92,.F.);
#417=ADVANCED_FACE('',(#117),#93,.F.);
#418=ADVANCED_FACE('',(#118),#94,.F.);
#419=ADVANCED_FACE('',(#119),#95,.F.);
#420=ADVANCED_FACE('',(#120),#96,.T.);
#421=ADVANCED_FACE('',(#121),#97,.T.);
#422=ADVANCED_FACE('',(#122),#98,.T.);
#423=ADVANCED_FACE('',(#123,#101),#400,.T.);
#424=ADVANCED_FACE('',(#124,#102),#401,.F.);
#425=ADVANCED_FACE('',(#125,#103),#402,.F.);
#426=ADVANCED_FACE('',(#126),#403,.T.);
#427=ADVANCED_FACE('',(#127,#104),#404,.F.);
#428=ADVANCED_FACE('',(#128,#105),#405,.F.);
#429=ADVANCED_FACE('',(#129,#106),#406,.F.);
#430=ADVANCED_FACE('',(#130,#107),#407,.F.);
#431=ADVANCED_FACE('',(#131,#108),#408,.T.);
#432=ADVANCED_FACE('',(#132),#409,.T.);
#433=ADVANCED_FACE('',(#133,#109,#110),#410,.F.);
#434=CLOSED_SHELL('',(#411,#412,#413,#414,#415,#416,#417,#418,#419,#420,
#421,#422,#423,#424,#425,#426,#427,#428,#429,#430,#431,#432,#433));
#435=DERIVED_UNIT_ELEMENT(#437,1.);
#436=DERIVED_UNIT_ELEMENT(#740,-3.);
#437=(
MASS_UNIT()
NAMED_UNIT(*)
SI_UNIT(.KILO.,.GRAM.)
);
#438=DERIVED_UNIT((#435,#436));
#439=MEASURE_REPRESENTATION_ITEM('density measure',
POSITIVE_RATIO_MEASURE(7850.),#438);
#440=PROPERTY_DEFINITION_REPRESENTATION(#445,#442);
#441=PROPERTY_DEFINITION_REPRESENTATION(#446,#443);
#442=REPRESENTATION('material name',(#444),#737);
#443=REPRESENTATION('density',(#439),#737);
#444=DESCRIPTIVE_REPRESENTATION_ITEM('Steel','Steel');
#445=PROPERTY_DEFINITION('material property','material name',#747);
#446=PROPERTY_DEFINITION('material property','density of part',#747);
#447=AXIS2_PLACEMENT_3D('',#616,#491,#492);
#448=AXIS2_PLACEMENT_3D('',#617,#493,#494);
#449=AXIS2_PLACEMENT_3D('',#619,#495,#496);
#450=AXIS2_PLACEMENT_3D('',#621,#497,#498);
#451=AXIS2_PLACEMENT_3D('',#622,#499,#500);
#452=AXIS2_PLACEMENT_3D('',#624,#501,#502);
#453=AXIS2_PLACEMENT_3D('',#626,#504,#505);
#454=AXIS2_PLACEMENT_3D('',#629,#507,#508);
#455=AXIS2_PLACEMENT_3D('',#630,#509,#510);
#456=AXIS2_PLACEMENT_3D('',#632,#511,#512);
#457=AXIS2_PLACEMENT_3D('',#634,#513,#514);
#458=AXIS2_PLACEMENT_3D('',#635,#515,#516);
#459=AXIS2_PLACEMENT_3D('',#637,#517,#518);
#460=AXIS2_PLACEMENT_3D('',#639,#520,#521);
#461=AXIS2_PLACEMENT_3D('',#642,#523,#524);
#462=AXIS2_PLACEMENT_3D('',#643,#525,#526);
#463=AXIS2_PLACEMENT_3D('',#645,#527,#528);
#464=AXIS2_PLACEMENT_3D('',#648,#530,#531);
#465=AXIS2_PLACEMENT_3D('',#649,#532,#533);
#466=AXIS2_PLACEMENT_3D('',#651,#534,#535);
#467=AXIS2_PLACEMENT_3D('',#654,#537,#538);
#468=AXIS2_PLACEMENT_3D('',#655,#539,#540);
#469=AXIS2_PLACEMENT_3D('',#657,#541,#542);
#470=AXIS2_PLACEMENT_3D('',#660,#544,#545);
#471=AXIS2_PLACEMENT_3D('',#661,#546,#547);
#472=AXIS2_PLACEMENT_3D('',#664,#548,#549);
#473=AXIS2_PLACEMENT_3D('',#668,#551,#552);
#474=AXIS2_PLACEMENT_3D('',#670,#554,#555);
#475=AXIS2_PLACEMENT_3D('',#673,#556,#557);
#476=AXIS2_PLACEMENT_3D('',#677,#559,#560);
#477=AXIS2_PLACEMENT_3D('',#679,#562,#563);
#478=AXIS2_PLACEMENT_3D('',#682,#564,#565);
#479=AXIS2_PLACEMENT_3D('',#686,#567,#568);
#480=AXIS2_PLACEMENT_3D('',#688,#570,#571);
#481=AXIS2_PLACEMENT_3D('',#694,#575,#576);
#482=AXIS2_PLACEMENT_3D('',#700,#580,#581);
#483=AXIS2_PLACEMENT_3D('',#706,#585,#586);
#484=AXIS2_PLACEMENT_3D('',#716,#593,#594);
#485=AXIS2_PLACEMENT_3D('',#720,#597,#598);
#486=AXIS2_PLACEMENT_3D('',#722,#600,#601);
#487=AXIS2_PLACEMENT_3D('',#726,#604,#605);
#488=AXIS2_PLACEMENT_3D('',#728,#607,#608);
#489=AXIS2_PLACEMENT_3D('',#732,#611,#612);
#490=AXIS2_PLACEMENT_3D('',#734,#614,#615);
#491=DIRECTION('axis',(0.,0.,1.));
#492=DIRECTION('refdir',(1.,0.,0.));
#493=DIRECTION('center_axis',(0.,-1.,0.));
#494=DIRECTION('ref_axis',(0.,0.,1.));
#495=DIRECTION('center_axis',(0.,-1.,0.));
#496=DIRECTION('ref_axis',(0.,0.,1.));
#497=DIRECTION('center_axis',(0.,-1.,0.));
#498=DIRECTION('ref_axis',(0.,0.,1.));
#499=DIRECTION('center_axis',(0.,-1.,0.));
#500=DIRECTION('ref_axis',(0.,0.,1.));
#501=DIRECTION('center_axis',(0.,-1.,0.));
#502=DIRECTION('ref_axis',(0.,0.,1.));
#503=DIRECTION('',(0.,-1.,0.));
#504=DIRECTION('center_axis',(0.,-1.,0.));
#505=DIRECTION('ref_axis',(0.,0.,1.));
#506=DIRECTION('',(0.,-1.,0.));
#507=DIRECTION('center_axis',(0.,1.,0.));
#508=DIRECTION('ref_axis',(0.,0.,1.));
#509=DIRECTION('center_axis',(0.,-1.,0.));
#510=DIRECTION('ref_axis',(0.,0.,1.));
#511=DIRECTION('center_axis',(0.,-1.,0.));
#512=DIRECTION('ref_axis',(0.,0.,1.));
#513=DIRECTION('center_axis',(0.,-1.,0.));
#514=DIRECTION('ref_axis',(0.,0.,1.));
#515=DIRECTION('center_axis',(0.,-1.,0.));
#516=DIRECTION('ref_axis',(0.,0.,1.));
#517=DIRECTION('center_axis',(0.,-1.,0.));
#518=DIRECTION('ref_axis',(0.,0.,1.));
#519=DIRECTION('',(0.,-1.,0.));
#520=DIRECTION('center_axis',(0.,-1.,0.));
#521=DIRECTION('ref_axis',(0.,0.,1.));
#522=DIRECTION('',(0.,-1.,0.));
#523=DIRECTION('center_axis',(0.,1.,0.));
#524=DIRECTION('ref_axis',(0.,0.,1.));
#525=DIRECTION('center_axis',(1.,0.,0.));
#526=DIRECTION('ref_axis',(0.,-1.,0.));
#527=DIRECTION('center_axis',(1.,0.,0.));
#528=DIRECTION('ref_axis',(0.,-1.,0.));
#529=DIRECTION('',(1.,0.,0.));
#530=DIRECTION('center_axis',(-1.,0.,0.));
#531=DIRECTION('ref_axis',(0.,-1.,0.));
#532=DIRECTION('center_axis',(1.,0.,0.));
#533=DIRECTION('ref_axis',(0.,-1.,0.));
#534=DIRECTION('center_axis',(1.,0.,0.));
#535=DIRECTION('ref_axis',(0.,-1.,0.));
#536=DIRECTION('',(1.,0.,0.));
#537=DIRECTION('center_axis',(-1.,0.,0.));
#538=DIRECTION('ref_axis',(0.,-1.,0.));
#539=DIRECTION('center_axis',(1.,0.,0.));
#540=DIRECTION('ref_axis',(0.,-1.,0.));
#541=DIRECTION('center_axis',(1.,0.,0.));
#542=DIRECTION('ref_axis',(0.,-1.,0.));
#543=DIRECTION('',(1.,0.,0.));
#544=DIRECTION('center_axis',(-1.,0.,0.));
#545=DIRECTION('ref_axis',(0.,-1.,0.));
#546=DIRECTION('center_axis',(1.,0.,0.));
#547=DIRECTION('ref_axis',(0.,0.,1.));
#548=DIRECTION('center_axis',(-1.,0.,0.));
#549=DIRECTION('ref_axis',(0.,0.,1.));
#550=DIRECTION('',(-1.,0.,0.));
#551=DIRECTION('center_axis',(1.,0.,0.));
#552=DIRECTION('ref_axis',(0.,0.,1.));
#553=DIRECTION('',(-1.,0.,0.));
#554=DIRECTION('center_axis',(1.,0.,0.));
#555=DIRECTION('ref_axis',(0.,0.,1.));
#556=DIRECTION('center_axis',(-1.,0.,0.));
#557=DIRECTION('ref_axis',(0.,0.,1.));
#558=DIRECTION('',(-1.,0.,0.));
#559=DIRECTION('center_axis',(1.,0.,0.));
#560=DIRECTION('ref_axis',(0.,0.,1.));
#561=DIRECTION('',(-1.,0.,0.));
#562=DIRECTION('center_axis',(1.,0.,0.));
#563=DIRECTION('ref_axis',(0.,0.,1.));
#564=DIRECTION('center_axis',(1.,0.,0.));
#565=DIRECTION('ref_axis',(0.,0.,1.));
#566=DIRECTION('',(-1.,0.,0.));
#567=DIRECTION('center_axis',(-1.,0.,0.));
#568=DIRECTION('ref_axis',(0.,0.,1.));
#569=DIRECTION('',(-1.,0.,0.));
#570=DIRECTION('center_axis',(-1.,0.,0.));
#571=DIRECTION('ref_axis',(0.,0.,1.));
#572=DIRECTION('',(0.,1.,0.));
#573=DIRECTION('',(0.,0.,-1.));
#574=DIRECTION('',(0.,1.,0.));
#575=DIRECTION('center_axis',(1.,0.,0.));
#576=DIRECTION('ref_axis',(0.,-1.,0.));
#577=DIRECTION('',(0.,1.,0.));
#578=DIRECTION('',(0.,0.,-1.));
#579=DIRECTION('',(0.,-1.,0.));
#580=DIRECTION('center_axis',(1.,0.,0.));
#581=DIRECTION('ref_axis',(0.,-1.,0.));
#582=DIRECTION('',(0.,1.,0.));
#583=DIRECTION('',(0.,0.,-1.));
#584=DIRECTION('',(0.,-1.,0.));
#585=DIRECTION('center_axis',(0.,0.,-1.));
#586=DIRECTION('ref_axis',(-1.,0.,0.));
#587=DIRECTION('',(0.,-1.,0.));
#588=DIRECTION('',(1.,0.,0.));
#589=DIRECTION('',(0.,-1.,0.));
#590=DIRECTION('',(1.,0.,0.));
#591=DIRECTION('',(0.,1.,0.));
#592=DIRECTION('',(1.,0.,0.));
#593=DIRECTION('center_axis',(-1.,0.,0.));
#594=DIRECTION('ref_axis',(0.,1.,0.));
#595=DIRECTION('',(0.,1.,0.));
#596=DIRECTION('',(0.,0.,-1.));
#597=DIRECTION('center_axis',(0.,-1.,0.));
#598=DIRECTION('ref_axis',(-1.,0.,0.));
#599=DIRECTION('',(-1.,0.,0.));
#600=DIRECTION('center_axis',(-1.,0.,0.));
#601=DIRECTION('ref_axis',(0.,1.,0.));
#602=DIRECTION('',(0.,1.,0.));
#603=DIRECTION('',(0.,0.,-1.));
#604=DIRECTION('center_axis',(0.,-1.,0.));
#605=DIRECTION('ref_axis',(-1.,0.,0.));
#606=DIRECTION('',(-1.,0.,0.));
#607=DIRECTION('center_axis',(1.,0.,0.));
#608=DIRECTION('ref_axis',(0.,0.,-1.));
#609=DIRECTION('',(0.,1.,0.));
#610=DIRECTION('',(0.,0.,1.));
#611=DIRECTION('center_axis',(0.,0.,1.));
#612=DIRECTION('ref_axis',(1.,0.,0.));
#613=DIRECTION('',(-1.,0.,0.));
#614=DIRECTION('center_axis',(0.,1.,0.));
#615=DIRECTION('ref_axis',(1.,0.,0.));
#616=CARTESIAN_POINT('',(0.,0.,0.));
#617=CARTESIAN_POINT('Origin',(-20.,5.,0.));
#618=CARTESIAN_POINT('',(-20.,5.,-8.));
#619=CARTESIAN_POINT('Origin',(-20.,5.,0.));
#620=CARTESIAN_POINT('',(-20.,5.,-5.));
#621=CARTESIAN_POINT('Origin',(-20.,5.,0.));
#622=CARTESIAN_POINT('Origin',(-20.,10.,0.));
#623=CARTESIAN_POINT('',(-20.,15.,-8.));
#624=CARTESIAN_POINT('Origin',(-20.,15.,0.));
#625=CARTESIAN_POINT('',(-20.,10.,-8.));
#626=CARTESIAN_POINT('Origin',(-20.,-35.,0.));
#627=CARTESIAN_POINT('',(-20.,0.,-5.));
#628=CARTESIAN_POINT('',(-20.,-35.,-5.));
#629=CARTESIAN_POINT('Origin',(-20.,0.,0.));
#630=CARTESIAN_POINT('Origin',(20.,5.,0.));
#631=CARTESIAN_POINT('',(20.,5.,-8.));
#632=CARTESIAN_POINT('Origin',(20.,5.,0.));
#633=CARTESIAN_POINT('',(20.,5.,-5.));
#634=CARTESIAN_POINT('Origin',(20.,5.,0.));
#635=CARTESIAN_POINT('Origin',(20.,10.,0.));
#636=CARTESIAN_POINT('',(20.,15.,-8.));
#637=CARTESIAN_POINT('Origin',(20.,15.,0.));
#638=CARTESIAN_POINT('',(20.,10.,-8.));
#639=CARTESIAN_POINT('Origin',(20.,-35.,0.));
#640=CARTESIAN_POINT('',(20.,0.,-5.));
#641=CARTESIAN_POINT('',(20.,-35.,-5.));
#642=CARTESIAN_POINT('Origin',(20.,0.,0.));
#643=CARTESIAN_POINT('Origin',(5.,40.,0.));
#644=CARTESIAN_POINT('',(-50.,52.5,1.53080849893419E-15));
#645=CARTESIAN_POINT('Origin',(-50.,40.,0.));
#646=CARTESIAN_POINT('',(-30.,52.5,-1.53080849893419E-15));
#647=CARTESIAN_POINT('',(5.,52.5,1.53080849893419E-15));
#648=CARTESIAN_POINT('Origin',(-30.,40.,0.));
#649=CARTESIAN_POINT('Origin',(5.,40.,0.));
#650=CARTESIAN_POINT('',(-10.,52.5,1.53080849893419E-15));
#651=CARTESIAN_POINT('Origin',(-10.,40.,0.));
#652=CARTESIAN_POINT('',(10.,52.5,-1.53080849893419E-15));
#653=CARTESIAN_POINT('',(5.,52.5,1.53080849893419E-15));
#654=CARTESIAN_POINT('Origin',(10.,40.,0.));
#655=CARTESIAN_POINT('Origin',(5.,40.,0.));
#656=CARTESIAN_POINT('',(30.,52.5,1.53080849893419E-15));
#657=CARTESIAN_POINT('Origin',(30.,40.,0.));
#658=CARTESIAN_POINT('',(50.,52.5,-1.53080849893419E-15));
#659=CARTESIAN_POINT('',(5.,52.5,1.53080849893419E-15));
#660=CARTESIAN_POINT('Origin',(50.,40.,0.));
#661=CARTESIAN_POINT('Origin',(-50.,40.,0.));
#662=CARTESIAN_POINT('',(-10.,40.,25.));
#663=CARTESIAN_POINT('',(-10.,40.,-25.));
#664=CARTESIAN_POINT('Origin',(-10.,40.,0.));
#665=CARTESIAN_POINT('',(10.,40.,25.));
#666=CARTESIAN_POINT('',(-50.,40.,25.));
#667=CARTESIAN_POINT('',(10.,40.,-25.));
#668=CARTESIAN_POINT('Origin',(10.,40.,0.));
#669=CARTESIAN_POINT('',(-50.,40.,-25.));
#670=CARTESIAN_POINT('Origin',(-50.,40.,0.));
#671=CARTESIAN_POINT('',(30.,40.,25.));
#672=CARTESIAN_POINT('',(30.,40.,-25.));
#673=CARTESIAN_POINT('Origin',(30.,40.,0.));
#674=CARTESIAN_POINT('',(50.,40.,25.));
#675=CARTESIAN_POINT('',(-50.,40.,25.));
#676=CARTESIAN_POINT('',(50.,40.,-25.));
#677=CARTESIAN_POINT('Origin',(50.,40.,0.));
#678=CARTESIAN_POINT('',(-50.,40.,-25.));
#679=CARTESIAN_POINT('Origin',(-50.,40.,0.));
#680=CARTESIAN_POINT('',(-30.,40.,-25.));
#681=CARTESIAN_POINT('',(-30.,40.,25.));
#682=CARTESIAN_POINT('Origin',(-30.,40.,0.));
#683=CARTESIAN_POINT('',(-50.,40.,-25.));
#684=CARTESIAN_POINT('',(-50.,40.,-25.));
#685=CARTESIAN_POINT('',(-50.,40.,25.));
#686=CARTESIAN_POINT('Origin',(-50.,40.,0.));
#687=CARTESIAN_POINT('',(-50.,40.,25.));
#688=CARTESIAN_POINT('Origin',(-50.,0.,-25.));
#689=CARTESIAN_POINT('',(-50.,0.,-25.));
#690=CARTESIAN_POINT('',(-50.,0.,-25.));
#691=CARTESIAN_POINT('',(-50.,0.,25.));
#692=CARTESIAN_POINT('',(-50.,0.,25.));
#693=CARTESIAN_POINT('',(-50.,0.,25.));
#694=CARTESIAN_POINT('Origin',(30.,65.,25.));
#695=CARTESIAN_POINT('',(30.,15.,-25.));
#696=CARTESIAN_POINT('',(30.,32.5,-25.));
#697=CARTESIAN_POINT('',(30.,15.,25.));
#698=CARTESIAN_POINT('',(30.,15.,25.));
#699=CARTESIAN_POINT('',(30.,32.5,25.));
#700=CARTESIAN_POINT('Origin',(-10.,65.,25.));
#701=CARTESIAN_POINT('',(-10.,15.,-25.));
#702=CARTESIAN_POINT('',(-10.,32.5,-25.));
#703=CARTESIAN_POINT('',(-10.,15.,25.));
#704=CARTESIAN_POINT('',(-10.,15.,25.));
#705=CARTESIAN_POINT('',(-10.,32.5,25.));
#706=CARTESIAN_POINT('Origin',(50.,0.,-25.));
#707=CARTESIAN_POINT('',(-30.,15.,-25.));
#708=CARTESIAN_POINT('',(-30.,7.5,-25.));
#709=CARTESIAN_POINT('',(20.,15.,-25.));
#710=CARTESIAN_POINT('',(10.,15.,-25.));
#711=CARTESIAN_POINT('',(10.,7.5,-25.));
#712=CARTESIAN_POINT('',(40.,15.,-25.));
#713=CARTESIAN_POINT('',(50.,0.,-25.));
#714=CARTESIAN_POINT('',(50.,0.,-25.));
#715=CARTESIAN_POINT('',(-50.,0.,-25.));
#716=CARTESIAN_POINT('Origin',(-30.,15.,25.));
#717=CARTESIAN_POINT('',(-30.,15.,25.));
#718=CARTESIAN_POINT('',(-30.,7.5,25.));
#719=CARTESIAN_POINT('',(-30.,15.,25.));
#720=CARTESIAN_POINT('Origin',(-10.,15.,25.));
#721=CARTESIAN_POINT('',(-30.,15.,25.));
#722=CARTESIAN_POINT('Origin',(10.,15.,25.));
#723=CARTESIAN_POINT('',(10.,15.,25.));
#724=CARTESIAN_POINT('',(10.,7.5,25.));
#725=CARTESIAN_POINT('',(10.,15.,25.));
#726=CARTESIAN_POINT('Origin',(30.,15.,25.));
#727=CARTESIAN_POINT('',(-10.,15.,25.));
#728=CARTESIAN_POINT('Origin',(50.,0.,25.));
#729=CARTESIAN_POINT('',(50.,0.,25.));
#730=CARTESIAN_POINT('',(50.,0.,25.));
#731=CARTESIAN_POINT('',(50.,0.,-25.));
#732=CARTESIAN_POINT('Origin',(-50.,0.,25.));
#733=CARTESIAN_POINT('',(50.,0.,25.));
#734=CARTESIAN_POINT('Origin',(0.,0.,0.));
#735=UNCERTAINTY_MEASURE_WITH_UNIT(LENGTH_MEASURE(0.01),#739,
'DISTANCE_ACCURACY_VALUE',
'Maximum model space distance between geometric entities at asserted c
onnectivities');
#736=UNCERTAINTY_MEASURE_WITH_UNIT(LENGTH_MEASURE(0.01),#739,
'DISTANCE_ACCURACY_VALUE',
'Maximum model space distance between geometric entities at asserted c
onnectivities');
#737=(
GEOMETRIC_REPRESENTATION_CONTEXT(3)
GLOBAL_UNCERTAINTY_ASSIGNED_CONTEXT((#735))
GLOBAL_UNIT_ASSIGNED_CONTEXT((#739,#741,#742))
REPRESENTATION_CONTEXT('','3D')
);
#738=(
GEOMETRIC_REPRESENTATION_CONTEXT(3)
GLOBAL_UNCERTAINTY_ASSIGNED_CONTEXT((#736))
GLOBAL_UNIT_ASSIGNED_CONTEXT((#739,#741,#742))
REPRESENTATION_CONTEXT('','3D')
);
#739=(
LENGTH_UNIT()
NAMED_UNIT(*)
SI_UNIT(.MILLI.,.METRE.)
);
#740=(
LENGTH_UNIT()
NAMED_UNIT(*)
SI_UNIT($,.METRE.)
);
#741=(
NAMED_UNIT(*)
PLANE_ANGLE_UNIT()
SI_UNIT($,.RADIAN.)
);
#742=(
NAMED_UNIT(*)
SI_UNIT($,.STERADIAN.)
SOLID_ANGLE_UNIT()
);
#743=SHAPE_DEFINITION_REPRESENTATION(#744,#745);
#744=PRODUCT_DEFINITION_SHAPE('',$,#747);
#745=SHAPE_REPRESENTATION('',(#447),#737);
#746=PRODUCT_DEFINITION_CONTEXT('part definition',#751,'design');
#747=PRODUCT_DEFINITION('mount to mold','mount to mold v1',#748,#746);
#748=PRODUCT_DEFINITION_FORMATION('',$,#753);
#749=PRODUCT_RELATED_PRODUCT_CATEGORY('mount to mold v1',
'mount to mold v1',(#753));
#750=APPLICATION_PROTOCOL_DEFINITION('international standard',
'automotive_design',2009,#751);
#751=APPLICATION_CONTEXT(
'Core Data for Automotive Mechanical Design Process');
#752=PRODUCT_CONTEXT('part definition',#751,'mechanical');
#753=PRODUCT('mount to mold','mount to mold v1',$,(#752));
#754=PRESENTATION_STYLE_ASSIGNMENT((#755));
#755=SURFACE_STYLE_USAGE(.BOTH.,#756);
#756=SURFACE_SIDE_STYLE('',(#757));
#757=SURFACE_STYLE_FILL_AREA(#758);
#758=FILL_AREA_STYLE('Steel - Satin',(#759));
#759=FILL_AREA_STYLE_COLOUR('Steel - Satin',#760);
#760=COLOUR_RGB('Steel - Satin',0.627450980392157,0.627450980392157,0.627450980392157);
ENDSEC;
END-ISO-10303-21;
