ISO-10303-21;
HEADER;
/* Generated by software containing ST-Developer
 * from STEP Tools, Inc. (www.steptools.com) 
 */

FILE_DESCRIPTION(
/* description */ (''),
/* implementation_level */ '2;1');

FILE_NAME(
/* name */ '406_BF12Mount v1.step',
/* time_stamp */ '2026-03-14T09:18:14+01:00',
/* author */ (''),
/* organization */ (''),
/* preprocessor_version */ 'ST-DEVELOPER v20.1',
/* originating_system */ 'Autodesk Translation Framework v14.24.0.0',
/* authorisation */ '');

FILE_SCHEMA (('AUTOMOTIVE_DESIGN { 1 0 10303 214 3 1 1 }'));
ENDSEC;

DATA;
#10=MECHANICAL_DESIGN_GEOMETRIC_PRESENTATION_REPRESENTATION('',(#13),#572);
#11=SHAPE_REPRESENTATION_RELATIONSHIP('SRR','None',#579,#12);
#12=ADVANCED_BREP_SHAPE_REPRESENTATION('',(#14),#571);
#13=STYLED_ITEM('',(#588),#14);
#14=MANIFOLD_SOLID_BREP('Body1',#352);
#15=FACE_BOUND('',#64,.T.);
#16=FACE_BOUND('',#65,.T.);
#17=FACE_BOUND('',#66,.T.);
#18=FACE_BOUND('',#67,.T.);
#19=FACE_BOUND('',#68,.T.);
#20=FACE_BOUND('',#70,.T.);
#21=FACE_BOUND('',#71,.T.);
#22=FACE_BOUND('',#72,.T.);
#23=FACE_BOUND('',#73,.T.);
#24=FACE_BOUND('',#74,.T.);
#25=PLANE('',#375);
#26=PLANE('',#376);
#27=PLANE('',#377);
#28=PLANE('',#378);
#29=PLANE('',#379);
#30=PLANE('',#380);
#31=PLANE('',#381);
#32=PLANE('',#382);
#33=PLANE('',#383);
#34=PLANE('',#384);
#35=PLANE('',#385);
#36=PLANE('',#386);
#37=PLANE('',#387);
#38=PLANE('',#388);
#39=FACE_OUTER_BOUND('',#56,.T.);
#40=FACE_OUTER_BOUND('',#57,.T.);
#41=FACE_OUTER_BOUND('',#58,.T.);
#42=FACE_OUTER_BOUND('',#59,.T.);
#43=FACE_OUTER_BOUND('',#60,.T.);
#44=FACE_OUTER_BOUND('',#61,.T.);
#45=FACE_OUTER_BOUND('',#62,.T.);
#46=FACE_OUTER_BOUND('',#63,.T.);
#47=FACE_OUTER_BOUND('',#69,.T.);
#48=FACE_OUTER_BOUND('',#75,.T.);
#49=FACE_OUTER_BOUND('',#76,.T.);
#50=FACE_OUTER_BOUND('',#77,.T.);
#51=FACE_OUTER_BOUND('',#78,.T.);
#52=FACE_OUTER_BOUND('',#79,.T.);
#53=FACE_OUTER_BOUND('',#80,.T.);
#54=FACE_OUTER_BOUND('',#81,.T.);
#55=FACE_OUTER_BOUND('',#82,.T.);
#56=EDGE_LOOP('',(#242,#243,#244,#245));
#57=EDGE_LOOP('',(#246,#247,#248,#249));
#58=EDGE_LOOP('',(#250,#251,#252,#253));
#59=EDGE_LOOP('',(#254,#255,#256,#257));
#60=EDGE_LOOP('',(#258,#259,#260,#261));
#61=EDGE_LOOP('',(#262,#263,#264,#265));
#62=EDGE_LOOP('',(#266,#267,#268,#269));
#63=EDGE_LOOP('',(#270,#271,#272,#273));
#64=EDGE_LOOP('',(#274,#275,#276,#277));
#65=EDGE_LOOP('',(#278));
#66=EDGE_LOOP('',(#279,#280,#281,#282));
#67=EDGE_LOOP('',(#283));
#68=EDGE_LOOP('',(#284));
#69=EDGE_LOOP('',(#285,#286,#287,#288));
#70=EDGE_LOOP('',(#289,#290,#291,#292));
#71=EDGE_LOOP('',(#293));
#72=EDGE_LOOP('',(#294,#295,#296,#297));
#73=EDGE_LOOP('',(#298));
#74=EDGE_LOOP('',(#299));
#75=EDGE_LOOP('',(#300,#301,#302,#303));
#76=EDGE_LOOP('',(#304,#305,#306,#307));
#77=EDGE_LOOP('',(#308,#309,#310,#311));
#78=EDGE_LOOP('',(#312,#313,#314,#315));
#79=EDGE_LOOP('',(#316,#317,#318,#319));
#80=EDGE_LOOP('',(#320,#321,#322,#323));
#81=EDGE_LOOP('',(#324,#325,#326,#327));
#82=EDGE_LOOP('',(#328,#329,#330,#331));
#83=LINE('',#481,#122);
#84=LINE('',#487,#123);
#85=LINE('',#493,#124);
#86=LINE('',#498,#125);
#87=LINE('',#500,#126);
#88=LINE('',#502,#127);
#89=LINE('',#503,#128);
#90=LINE('',#506,#129);
#91=LINE('',#508,#130);
#92=LINE('',#509,#131);
#93=LINE('',#512,#132);
#94=LINE('',#514,#133);
#95=LINE('',#515,#134);
#96=LINE('',#517,#135);
#97=LINE('',#518,#136);
#98=LINE('',#522,#137);
#99=LINE('',#524,#138);
#100=LINE('',#526,#139);
#101=LINE('',#527,#140);
#102=LINE('',#530,#141);
#103=LINE('',#532,#142);
#104=LINE('',#534,#143);
#105=LINE('',#535,#144);
#106=LINE('',#539,#145);
#107=LINE('',#541,#146);
#108=LINE('',#543,#147);
#109=LINE('',#544,#148);
#110=LINE('',#547,#149);
#111=LINE('',#549,#150);
#112=LINE('',#551,#151);
#113=LINE('',#552,#152);
#114=LINE('',#554,#153);
#115=LINE('',#555,#154);
#116=LINE('',#557,#155);
#117=LINE('',#559,#156);
#118=LINE('',#562,#157);
#119=LINE('',#563,#158);
#120=LINE('',#565,#159);
#121=LINE('',#567,#160);
#122=VECTOR('',#395,5.00000000000078);
#123=VECTOR('',#402,3.30000000018993);
#124=VECTOR('',#409,3.30000000018993);
#125=VECTOR('',#414,1000.);
#126=VECTOR('',#415,1000.);
#127=VECTOR('',#416,1000.);
#128=VECTOR('',#417,1000.);
#129=VECTOR('',#420,1000.);
#130=VECTOR('',#421,1000.);
#131=VECTOR('',#422,1000.);
#132=VECTOR('',#425,1000.);
#133=VECTOR('',#426,1000.);
#134=VECTOR('',#427,1000.);
#135=VECTOR('',#430,1000.);
#136=VECTOR('',#431,1000.);
#137=VECTOR('',#434,1000.);
#138=VECTOR('',#435,1000.);
#139=VECTOR('',#436,1000.);
#140=VECTOR('',#437,1000.);
#141=VECTOR('',#438,1000.);
#142=VECTOR('',#439,1000.);
#143=VECTOR('',#440,1000.);
#144=VECTOR('',#441,1000.);
#145=VECTOR('',#444,1000.);
#146=VECTOR('',#445,1000.);
#147=VECTOR('',#446,1000.);
#148=VECTOR('',#447,1000.);
#149=VECTOR('',#448,1000.);
#150=VECTOR('',#449,1000.);
#151=VECTOR('',#450,1000.);
#152=VECTOR('',#451,1000.);
#153=VECTOR('',#454,1000.);
#154=VECTOR('',#455,1000.);
#155=VECTOR('',#458,1000.);
#156=VECTOR('',#461,1000.);
#157=VECTOR('',#466,1000.);
#158=VECTOR('',#467,1000.);
#159=VECTOR('',#470,1000.);
#160=VECTOR('',#473,1000.);
#161=CIRCLE('',#367,5.00000000000034);
#162=CIRCLE('',#368,5.00000000000034);
#163=CIRCLE('',#370,3.30000000018993);
#164=CIRCLE('',#371,3.30000000018993);
#165=CIRCLE('',#373,3.30000000018993);
#166=CIRCLE('',#374,3.30000000018993);
#167=VERTEX_POINT('',#478);
#168=VERTEX_POINT('',#480);
#169=VERTEX_POINT('',#484);
#170=VERTEX_POINT('',#486);
#171=VERTEX_POINT('',#490);
#172=VERTEX_POINT('',#492);
#173=VERTEX_POINT('',#496);
#174=VERTEX_POINT('',#497);
#175=VERTEX_POINT('',#499);
#176=VERTEX_POINT('',#501);
#177=VERTEX_POINT('',#505);
#178=VERTEX_POINT('',#507);
#179=VERTEX_POINT('',#511);
#180=VERTEX_POINT('',#513);
#181=VERTEX_POINT('',#520);
#182=VERTEX_POINT('',#521);
#183=VERTEX_POINT('',#523);
#184=VERTEX_POINT('',#525);
#185=VERTEX_POINT('',#528);
#186=VERTEX_POINT('',#529);
#187=VERTEX_POINT('',#531);
#188=VERTEX_POINT('',#533);
#189=VERTEX_POINT('',#537);
#190=VERTEX_POINT('',#538);
#191=VERTEX_POINT('',#540);
#192=VERTEX_POINT('',#542);
#193=VERTEX_POINT('',#545);
#194=VERTEX_POINT('',#546);
#195=VERTEX_POINT('',#548);
#196=VERTEX_POINT('',#550);
#197=EDGE_CURVE('',#167,#167,#161,.T.);
#198=EDGE_CURVE('',#167,#168,#83,.T.);
#199=EDGE_CURVE('',#168,#168,#162,.T.);
#200=EDGE_CURVE('',#169,#169,#163,.T.);
#201=EDGE_CURVE('',#169,#170,#84,.T.);
#202=EDGE_CURVE('',#170,#170,#164,.T.);
#203=EDGE_CURVE('',#171,#171,#165,.T.);
#204=EDGE_CURVE('',#171,#172,#85,.T.);
#205=EDGE_CURVE('',#172,#172,#166,.T.);
#206=EDGE_CURVE('',#173,#174,#86,.T.);
#207=EDGE_CURVE('',#175,#174,#87,.T.);
#208=EDGE_CURVE('',#176,#175,#88,.T.);
#209=EDGE_CURVE('',#176,#173,#89,.T.);
#210=EDGE_CURVE('',#174,#177,#90,.T.);
#211=EDGE_CURVE('',#178,#177,#91,.T.);
#212=EDGE_CURVE('',#175,#178,#92,.T.);
#213=EDGE_CURVE('',#177,#179,#93,.T.);
#214=EDGE_CURVE('',#180,#179,#94,.T.);
#215=EDGE_CURVE('',#178,#180,#95,.T.);
#216=EDGE_CURVE('',#179,#173,#96,.T.);
#217=EDGE_CURVE('',#180,#176,#97,.T.);
#218=EDGE_CURVE('',#181,#182,#98,.T.);
#219=EDGE_CURVE('',#182,#183,#99,.T.);
#220=EDGE_CURVE('',#183,#184,#100,.T.);
#221=EDGE_CURVE('',#184,#181,#101,.T.);
#222=EDGE_CURVE('',#185,#186,#102,.T.);
#223=EDGE_CURVE('',#186,#187,#103,.T.);
#224=EDGE_CURVE('',#187,#188,#104,.T.);
#225=EDGE_CURVE('',#188,#185,#105,.T.);
#226=EDGE_CURVE('',#189,#190,#106,.T.);
#227=EDGE_CURVE('',#191,#189,#107,.T.);
#228=EDGE_CURVE('',#192,#191,#108,.T.);
#229=EDGE_CURVE('',#190,#192,#109,.T.);
#230=EDGE_CURVE('',#193,#194,#110,.T.);
#231=EDGE_CURVE('',#195,#193,#111,.T.);
#232=EDGE_CURVE('',#196,#195,#112,.T.);
#233=EDGE_CURVE('',#194,#196,#113,.T.);
#234=EDGE_CURVE('',#186,#193,#114,.T.);
#235=EDGE_CURVE('',#187,#194,#115,.T.);
#236=EDGE_CURVE('',#185,#195,#116,.T.);
#237=EDGE_CURVE('',#188,#196,#117,.T.);
#238=EDGE_CURVE('',#182,#189,#118,.T.);
#239=EDGE_CURVE('',#183,#190,#119,.T.);
#240=EDGE_CURVE('',#181,#191,#120,.T.);
#241=EDGE_CURVE('',#184,#192,#121,.T.);
#242=ORIENTED_EDGE('',*,*,#197,.F.);
#243=ORIENTED_EDGE('',*,*,#198,.T.);
#244=ORIENTED_EDGE('',*,*,#199,.T.);
#245=ORIENTED_EDGE('',*,*,#198,.F.);
#246=ORIENTED_EDGE('',*,*,#200,.T.);
#247=ORIENTED_EDGE('',*,*,#201,.T.);
#248=ORIENTED_EDGE('',*,*,#202,.F.);
#249=ORIENTED_EDGE('',*,*,#201,.F.);
#250=ORIENTED_EDGE('',*,*,#203,.T.);
#251=ORIENTED_EDGE('',*,*,#204,.T.);
#252=ORIENTED_EDGE('',*,*,#205,.F.);
#253=ORIENTED_EDGE('',*,*,#204,.F.);
#254=ORIENTED_EDGE('',*,*,#206,.T.);
#255=ORIENTED_EDGE('',*,*,#207,.F.);
#256=ORIENTED_EDGE('',*,*,#208,.F.);
#257=ORIENTED_EDGE('',*,*,#209,.T.);
#258=ORIENTED_EDGE('',*,*,#210,.T.);
#259=ORIENTED_EDGE('',*,*,#211,.F.);
#260=ORIENTED_EDGE('',*,*,#212,.F.);
#261=ORIENTED_EDGE('',*,*,#207,.T.);
#262=ORIENTED_EDGE('',*,*,#213,.T.);
#263=ORIENTED_EDGE('',*,*,#214,.F.);
#264=ORIENTED_EDGE('',*,*,#215,.F.);
#265=ORIENTED_EDGE('',*,*,#211,.T.);
#266=ORIENTED_EDGE('',*,*,#216,.T.);
#267=ORIENTED_EDGE('',*,*,#209,.F.);
#268=ORIENTED_EDGE('',*,*,#217,.F.);
#269=ORIENTED_EDGE('',*,*,#214,.T.);
#270=ORIENTED_EDGE('',*,*,#208,.T.);
#271=ORIENTED_EDGE('',*,*,#212,.T.);
#272=ORIENTED_EDGE('',*,*,#215,.T.);
#273=ORIENTED_EDGE('',*,*,#217,.T.);
#274=ORIENTED_EDGE('',*,*,#218,.T.);
#275=ORIENTED_EDGE('',*,*,#219,.T.);
#276=ORIENTED_EDGE('',*,*,#220,.T.);
#277=ORIENTED_EDGE('',*,*,#221,.T.);
#278=ORIENTED_EDGE('',*,*,#197,.T.);
#279=ORIENTED_EDGE('',*,*,#222,.T.);
#280=ORIENTED_EDGE('',*,*,#223,.T.);
#281=ORIENTED_EDGE('',*,*,#224,.T.);
#282=ORIENTED_EDGE('',*,*,#225,.T.);
#283=ORIENTED_EDGE('',*,*,#202,.T.);
#284=ORIENTED_EDGE('',*,*,#205,.T.);
#285=ORIENTED_EDGE('',*,*,#206,.F.);
#286=ORIENTED_EDGE('',*,*,#216,.F.);
#287=ORIENTED_EDGE('',*,*,#213,.F.);
#288=ORIENTED_EDGE('',*,*,#210,.F.);
#289=ORIENTED_EDGE('',*,*,#226,.F.);
#290=ORIENTED_EDGE('',*,*,#227,.F.);
#291=ORIENTED_EDGE('',*,*,#228,.F.);
#292=ORIENTED_EDGE('',*,*,#229,.F.);
#293=ORIENTED_EDGE('',*,*,#199,.F.);
#294=ORIENTED_EDGE('',*,*,#230,.F.);
#295=ORIENTED_EDGE('',*,*,#231,.F.);
#296=ORIENTED_EDGE('',*,*,#232,.F.);
#297=ORIENTED_EDGE('',*,*,#233,.F.);
#298=ORIENTED_EDGE('',*,*,#200,.F.);
#299=ORIENTED_EDGE('',*,*,#203,.F.);
#300=ORIENTED_EDGE('',*,*,#234,.T.);
#301=ORIENTED_EDGE('',*,*,#230,.T.);
#302=ORIENTED_EDGE('',*,*,#235,.F.);
#303=ORIENTED_EDGE('',*,*,#223,.F.);
#304=ORIENTED_EDGE('',*,*,#236,.T.);
#305=ORIENTED_EDGE('',*,*,#231,.T.);
#306=ORIENTED_EDGE('',*,*,#234,.F.);
#307=ORIENTED_EDGE('',*,*,#222,.F.);
#308=ORIENTED_EDGE('',*,*,#237,.T.);
#309=ORIENTED_EDGE('',*,*,#232,.T.);
#310=ORIENTED_EDGE('',*,*,#236,.F.);
#311=ORIENTED_EDGE('',*,*,#225,.F.);
#312=ORIENTED_EDGE('',*,*,#235,.T.);
#313=ORIENTED_EDGE('',*,*,#233,.T.);
#314=ORIENTED_EDGE('',*,*,#237,.F.);
#315=ORIENTED_EDGE('',*,*,#224,.F.);
#316=ORIENTED_EDGE('',*,*,#238,.T.);
#317=ORIENTED_EDGE('',*,*,#226,.T.);
#318=ORIENTED_EDGE('',*,*,#239,.F.);
#319=ORIENTED_EDGE('',*,*,#219,.F.);
#320=ORIENTED_EDGE('',*,*,#240,.T.);
#321=ORIENTED_EDGE('',*,*,#227,.T.);
#322=ORIENTED_EDGE('',*,*,#238,.F.);
#323=ORIENTED_EDGE('',*,*,#218,.F.);
#324=ORIENTED_EDGE('',*,*,#241,.T.);
#325=ORIENTED_EDGE('',*,*,#228,.T.);
#326=ORIENTED_EDGE('',*,*,#240,.F.);
#327=ORIENTED_EDGE('',*,*,#221,.F.);
#328=ORIENTED_EDGE('',*,*,#239,.T.);
#329=ORIENTED_EDGE('',*,*,#229,.T.);
#330=ORIENTED_EDGE('',*,*,#241,.F.);
#331=ORIENTED_EDGE('',*,*,#220,.F.);
#332=CYLINDRICAL_SURFACE('',#366,5.00000000000078);
#333=CYLINDRICAL_SURFACE('',#369,3.30000000018993);
#334=CYLINDRICAL_SURFACE('',#372,3.30000000018993);
#335=ADVANCED_FACE('',(#39),#332,.F.);
#336=ADVANCED_FACE('',(#40),#333,.F.);
#337=ADVANCED_FACE('',(#41),#334,.F.);
#338=ADVANCED_FACE('',(#42),#25,.F.);
#339=ADVANCED_FACE('',(#43),#26,.F.);
#340=ADVANCED_FACE('',(#44),#27,.F.);
#341=ADVANCED_FACE('',(#45),#28,.F.);
#342=ADVANCED_FACE('',(#46,#15,#16,#17,#18,#19),#29,.F.);
#343=ADVANCED_FACE('',(#47,#20,#21,#22,#23,#24),#30,.T.);
#344=ADVANCED_FACE('',(#48),#31,.F.);
#345=ADVANCED_FACE('',(#49),#32,.F.);
#346=ADVANCED_FACE('',(#50),#33,.F.);
#347=ADVANCED_FACE('',(#51),#34,.F.);
#348=ADVANCED_FACE('',(#52),#35,.F.);
#349=ADVANCED_FACE('',(#53),#36,.F.);
#350=ADVANCED_FACE('',(#54),#37,.F.);
#351=ADVANCED_FACE('',(#55),#38,.F.);
#352=CLOSED_SHELL('',(#335,#336,#337,#338,#339,#340,#341,#342,#343,#344,
#345,#346,#347,#348,#349,#350,#351));
#353=DERIVED_UNIT_ELEMENT(#355,1.);
#354=DERIVED_UNIT_ELEMENT(#574,-3.);
#355=(
MASS_UNIT()
NAMED_UNIT(*)
SI_UNIT(.KILO.,.GRAM.)
);
#356=DERIVED_UNIT((#353,#354));
#357=MEASURE_REPRESENTATION_ITEM('density measure',
POSITIVE_RATIO_MEASURE(7850.),#356);
#358=PROPERTY_DEFINITION_REPRESENTATION(#363,#360);
#359=PROPERTY_DEFINITION_REPRESENTATION(#364,#361);
#360=REPRESENTATION('material name',(#362),#571);
#361=REPRESENTATION('density',(#357),#571);
#362=DESCRIPTIVE_REPRESENTATION_ITEM('Steel','Steel');
#363=PROPERTY_DEFINITION('material property','material name',#581);
#364=PROPERTY_DEFINITION('material property','density of part',#581);
#365=AXIS2_PLACEMENT_3D('',#476,#389,#390);
#366=AXIS2_PLACEMENT_3D('',#477,#391,#392);
#367=AXIS2_PLACEMENT_3D('',#479,#393,#394);
#368=AXIS2_PLACEMENT_3D('',#482,#396,#397);
#369=AXIS2_PLACEMENT_3D('',#483,#398,#399);
#370=AXIS2_PLACEMENT_3D('',#485,#400,#401);
#371=AXIS2_PLACEMENT_3D('',#488,#403,#404);
#372=AXIS2_PLACEMENT_3D('',#489,#405,#406);
#373=AXIS2_PLACEMENT_3D('',#491,#407,#408);
#374=AXIS2_PLACEMENT_3D('',#494,#410,#411);
#375=AXIS2_PLACEMENT_3D('',#495,#412,#413);
#376=AXIS2_PLACEMENT_3D('',#504,#418,#419);
#377=AXIS2_PLACEMENT_3D('',#510,#423,#424);
#378=AXIS2_PLACEMENT_3D('',#516,#428,#429);
#379=AXIS2_PLACEMENT_3D('',#519,#432,#433);
#380=AXIS2_PLACEMENT_3D('',#536,#442,#443);
#381=AXIS2_PLACEMENT_3D('',#553,#452,#453);
#382=AXIS2_PLACEMENT_3D('',#556,#456,#457);
#383=AXIS2_PLACEMENT_3D('',#558,#459,#460);
#384=AXIS2_PLACEMENT_3D('',#560,#462,#463);
#385=AXIS2_PLACEMENT_3D('',#561,#464,#465);
#386=AXIS2_PLACEMENT_3D('',#564,#468,#469);
#387=AXIS2_PLACEMENT_3D('',#566,#471,#472);
#388=AXIS2_PLACEMENT_3D('',#568,#474,#475);
#389=DIRECTION('axis',(0.,0.,1.));
#390=DIRECTION('refdir',(1.,0.,0.));
#391=DIRECTION('center_axis',(1.17373598748289E-16,-1.0509203772184E-14,
-1.));
#392=DIRECTION('ref_axis',(1.18386434692834E-32,1.,-1.0509203772184E-14));
#393=DIRECTION('center_axis',(0.,0.,-1.));
#394=DIRECTION('ref_axis',(-1.,0.,0.));
#395=DIRECTION('',(1.17373598748289E-16,-1.0509203772184E-14,-1.));
#396=DIRECTION('center_axis',(0.,0.,-1.));
#397=DIRECTION('ref_axis',(-1.,0.,0.));
#398=DIRECTION('center_axis',(0.,0.,1.));
#399=DIRECTION('ref_axis',(1.,0.,0.));
#400=DIRECTION('center_axis',(0.,0.,-1.));
#401=DIRECTION('ref_axis',(-1.,0.,0.));
#402=DIRECTION('',(0.,0.,1.));
#403=DIRECTION('center_axis',(0.,0.,-1.));
#404=DIRECTION('ref_axis',(-1.,0.,0.));
#405=DIRECTION('center_axis',(0.,0.,1.));
#406=DIRECTION('ref_axis',(1.,0.,0.));
#407=DIRECTION('center_axis',(0.,0.,-1.));
#408=DIRECTION('ref_axis',(-1.,0.,0.));
#409=DIRECTION('',(0.,0.,1.));
#410=DIRECTION('center_axis',(0.,0.,-1.));
#411=DIRECTION('ref_axis',(-1.,0.,0.));
#412=DIRECTION('center_axis',(-1.,0.,0.));
#413=DIRECTION('ref_axis',(0.,0.,1.));
#414=DIRECTION('',(0.,1.,0.));
#415=DIRECTION('',(0.,0.,-1.));
#416=DIRECTION('',(0.,1.,0.));
#417=DIRECTION('',(0.,0.,-1.));
#418=DIRECTION('center_axis',(0.,-1.,0.));
#419=DIRECTION('ref_axis',(0.,0.,-1.));
#420=DIRECTION('',(-1.,0.,0.));
#421=DIRECTION('',(0.,0.,-1.));
#422=DIRECTION('',(-1.,0.,0.));
#423=DIRECTION('center_axis',(1.,0.,0.));
#424=DIRECTION('ref_axis',(0.,0.,-1.));
#425=DIRECTION('',(0.,-1.,0.));
#426=DIRECTION('',(0.,0.,-1.));
#427=DIRECTION('',(0.,-1.,0.));
#428=DIRECTION('center_axis',(0.,1.,0.));
#429=DIRECTION('ref_axis',(0.,0.,1.));
#430=DIRECTION('',(1.,0.,0.));
#431=DIRECTION('',(1.,0.,0.));
#432=DIRECTION('center_axis',(0.,0.,-1.));
#433=DIRECTION('ref_axis',(-1.,0.,0.));
#434=DIRECTION('',(-1.23620804733762E-30,1.,0.));
#435=DIRECTION('',(1.,-3.42199651283876E-30,0.));
#436=DIRECTION('',(1.22893623529446E-30,-1.,0.));
#437=DIRECTION('',(-1.,0.,0.));
#438=DIRECTION('',(1.23620804733762E-30,-1.,0.));
#439=DIRECTION('',(-1.,0.,0.));
#440=DIRECTION('',(-1.23620804733762E-30,1.,0.));
#441=DIRECTION('',(1.,0.,0.));
#442=DIRECTION('center_axis',(0.,0.,-1.));
#443=DIRECTION('ref_axis',(-1.,0.,0.));
#444=DIRECTION('',(1.,-3.42199651283876E-30,0.));
#445=DIRECTION('',(-1.23620804733762E-30,1.,0.));
#446=DIRECTION('',(-1.,0.,0.));
#447=DIRECTION('',(1.22893623529446E-30,-1.,0.));
#448=DIRECTION('',(-1.,0.,0.));
#449=DIRECTION('',(1.23620804733762E-30,-1.,0.));
#450=DIRECTION('',(1.,0.,0.));
#451=DIRECTION('',(-1.23620804733762E-30,1.,0.));
#452=DIRECTION('center_axis',(0.,-1.,1.0509203772184E-14));
#453=DIRECTION('ref_axis',(0.,-1.0509203772184E-14,-1.));
#454=DIRECTION('',(1.1737359874829E-16,-1.0509203772184E-14,-1.));
#455=DIRECTION('',(1.1737359874829E-16,-1.0509203772184E-14,-1.));
#456=DIRECTION('center_axis',(1.,1.23620804733762E-30,1.17373598748289E-16));
#457=DIRECTION('ref_axis',(1.17373598748289E-16,0.,-1.));
#458=DIRECTION('',(1.1737359874829E-16,-1.0509203772184E-14,-1.));
#459=DIRECTION('center_axis',(0.,1.,-1.0509203772184E-14));
#460=DIRECTION('ref_axis',(0.,1.0509203772184E-14,1.));
#461=DIRECTION('',(1.1737359874829E-16,-1.0509203772184E-14,-1.));
#462=DIRECTION('center_axis',(-1.,-1.23620804733762E-30,-1.17373598748289E-16));
#463=DIRECTION('ref_axis',(-1.17373598748289E-16,0.,1.));
#464=DIRECTION('center_axis',(3.42199651283876E-30,1.,-1.0509203772184E-14));
#465=DIRECTION('ref_axis',(0.,1.0509203772184E-14,1.));
#466=DIRECTION('',(1.1737359874829E-16,-1.0509203772184E-14,-1.));
#467=DIRECTION('',(1.1737359874829E-16,-1.0509203772184E-14,-1.));
#468=DIRECTION('center_axis',(-1.,-1.23620804733762E-30,-1.17373598748289E-16));
#469=DIRECTION('ref_axis',(-1.17373598748289E-16,0.,1.));
#470=DIRECTION('',(1.1737359874829E-16,-1.0509203772184E-14,-1.));
#471=DIRECTION('center_axis',(0.,-1.,1.0509203772184E-14));
#472=DIRECTION('ref_axis',(0.,-1.0509203772184E-14,-1.));
#473=DIRECTION('',(1.1737359874829E-16,-1.0509203772184E-14,-1.));
#474=DIRECTION('center_axis',(1.,1.22893623529446E-30,1.17373598748289E-16));
#475=DIRECTION('ref_axis',(1.17373598748289E-16,0.,-1.));
#476=CARTESIAN_POINT('',(0.,0.,0.));
#477=CARTESIAN_POINT('Origin',(1860.47858218965,-9300.85178180614,19.9999999998061));
#478=CARTESIAN_POINT('',(1860.47858218965,-9305.85178180614,14.0000000000001));
#479=CARTESIAN_POINT('Origin',(1860.47858218965,-9300.85178180614,14.));
#480=CARTESIAN_POINT('',(1860.47858218965,-9305.85178180614,0.));
#481=CARTESIAN_POINT('',(1860.47858218965,-9305.85178180614,19.9999999998061));
#482=CARTESIAN_POINT('Origin',(1860.47858218965,-9300.85178180614,0.));
#483=CARTESIAN_POINT('Origin',(1883.47860082048,-9320.85180476804,-53.5000000001868));
#484=CARTESIAN_POINT('',(1880.17860082029,-9320.85180476804,0.));
#485=CARTESIAN_POINT('Origin',(1883.47860082048,-9320.85180476804,0.));
#486=CARTESIAN_POINT('',(1880.17860082029,-9320.85180476804,14.));
#487=CARTESIAN_POINT('',(1880.17860082029,-9320.85180476804,-53.5000000001868));
#488=CARTESIAN_POINT('Origin',(1883.47860082048,-9320.85180476804,14.));
#489=CARTESIAN_POINT('Origin',(1837.47860082048,-9320.85180476804,-53.5000000001868));
#490=CARTESIAN_POINT('',(1834.17860082029,-9320.85180476804,0.));
#491=CARTESIAN_POINT('Origin',(1837.47860082048,-9320.85180476804,0.));
#492=CARTESIAN_POINT('',(1834.17860082029,-9320.85180476804,14.));
#493=CARTESIAN_POINT('',(1834.17860082029,-9320.85180476804,-53.5000000001868));
#494=CARTESIAN_POINT('Origin',(1837.47860082048,-9320.85180476804,14.));
#495=CARTESIAN_POINT('Origin',(1910.47860082026,-9260.85180476804,14.));
#496=CARTESIAN_POINT('',(1910.47860082026,-9340.85180476804,0.));
#497=CARTESIAN_POINT('',(1910.47860082026,-9260.85180476804,0.));
#498=CARTESIAN_POINT('',(1910.47860082026,-9260.85180476804,0.));
#499=CARTESIAN_POINT('',(1910.47860082026,-9260.85180476804,14.));
#500=CARTESIAN_POINT('',(1910.47860082026,-9260.85180476804,14.));
#501=CARTESIAN_POINT('',(1910.47860082026,-9340.85180476804,14.));
#502=CARTESIAN_POINT('',(1910.47860082026,-9260.85180476804,14.));
#503=CARTESIAN_POINT('',(1910.47860082026,-9340.85180476804,14.));
#504=CARTESIAN_POINT('Origin',(1910.47860082026,-9260.85180476804,14.));
#505=CARTESIAN_POINT('',(1810.47860082026,-9260.85180476804,0.));
#506=CARTESIAN_POINT('',(1910.47860082026,-9260.85180476804,0.));
#507=CARTESIAN_POINT('',(1810.47860082026,-9260.85180476804,14.));
#508=CARTESIAN_POINT('',(1810.47860082026,-9260.85180476804,14.));
#509=CARTESIAN_POINT('',(1910.47860082026,-9260.85180476804,14.));
#510=CARTESIAN_POINT('Origin',(1810.47860082026,-9260.85180476804,14.));
#511=CARTESIAN_POINT('',(1810.47860082026,-9340.85180476804,0.));
#512=CARTESIAN_POINT('',(1810.47860082026,-9260.85180476804,0.));
#513=CARTESIAN_POINT('',(1810.47860082026,-9340.85180476804,14.));
#514=CARTESIAN_POINT('',(1810.47860082026,-9340.85180476804,14.));
#515=CARTESIAN_POINT('',(1810.47860082026,-9260.85180476804,14.));
#516=CARTESIAN_POINT('Origin',(1910.47860082026,-9340.85180476804,14.));
#517=CARTESIAN_POINT('',(1910.47860082026,-9340.85180476804,0.));
#518=CARTESIAN_POINT('',(1910.47860082026,-9340.85180476804,14.));
#519=CARTESIAN_POINT('Origin',(0.,0.,14.));
#520=CARTESIAN_POINT('',(1891.15115566502,-9328.85180476804,14.));
#521=CARTESIAN_POINT('',(1891.15115566502,-9272.85180476804,14.));
#522=CARTESIAN_POINT('',(1891.15115566502,2.33785627736494E-27,14.));
#523=CARTESIAN_POINT('',(1901.80608323671,-9272.85180476804,14.));
#524=CARTESIAN_POINT('',(-3.17316665399868E-26,-9272.85180476804,14.));
#525=CARTESIAN_POINT('',(1901.80608323671,-9328.85180476804,14.));
#526=CARTESIAN_POINT('',(1901.80608323671,2.33719840819302E-27,14.));
#527=CARTESIAN_POINT('',(0.,-9328.85180476804,14.));
#528=CARTESIAN_POINT('',(1829.8060459755,-9272.85180476804,14.));
#529=CARTESIAN_POINT('',(1829.8060459755,-9328.85180476804,14.));
#530=CARTESIAN_POINT('',(1829.8060459755,2.26202095910194E-27,14.));
#531=CARTESIAN_POINT('',(1819.15111840381,-9328.85180476804,14.));
#532=CARTESIAN_POINT('',(0.,-9328.85180476804,14.));
#533=CARTESIAN_POINT('',(1819.15111840381,-9272.85180476804,14.));
#534=CARTESIAN_POINT('',(1819.15111840381,2.24884925189402E-27,14.));
#535=CARTESIAN_POINT('',(0.,-9272.85180476804,14.));
#536=CARTESIAN_POINT('Origin',(0.,0.,0.));
#537=CARTESIAN_POINT('',(1891.15115566502,-9272.85180476804,0.));
#538=CARTESIAN_POINT('',(1901.80608323671,-9272.85180476804,0.));
#539=CARTESIAN_POINT('',(-3.17316665399868E-26,-9272.85180476804,0.));
#540=CARTESIAN_POINT('',(1891.15115566502,-9328.85180476804,0.));
#541=CARTESIAN_POINT('',(1891.15115566502,2.33785627736494E-27,0.));
#542=CARTESIAN_POINT('',(1901.80608323671,-9328.85180476804,0.));
#543=CARTESIAN_POINT('',(0.,-9328.85180476804,0.));
#544=CARTESIAN_POINT('',(1901.80608323671,2.33719840819302E-27,0.));
#545=CARTESIAN_POINT('',(1829.8060459755,-9328.85180476804,0.));
#546=CARTESIAN_POINT('',(1819.15111840381,-9328.85180476804,0.));
#547=CARTESIAN_POINT('',(0.,-9328.85180476804,0.));
#548=CARTESIAN_POINT('',(1829.8060459755,-9272.85180476804,0.));
#549=CARTESIAN_POINT('',(1829.8060459755,2.26202095910194E-27,0.));
#550=CARTESIAN_POINT('',(1819.15111840381,-9272.85180476804,0.));
#551=CARTESIAN_POINT('',(0.,-9272.85180476804,0.));
#552=CARTESIAN_POINT('',(1819.15111840381,2.24884925189402E-27,0.));
#553=CARTESIAN_POINT('Origin',(1829.8060459755,-9328.85180476804,19.9999999998064));
#554=CARTESIAN_POINT('',(1829.8060459755,-9328.85180476804,19.9999999998064));
#555=CARTESIAN_POINT('',(1819.15111840381,-9328.85180476804,19.9999999998064));
#556=CARTESIAN_POINT('Origin',(1829.8060459755,-9272.85180476804,19.9999999998058));
#557=CARTESIAN_POINT('',(1829.8060459755,-9272.85180476804,19.9999999998058));
#558=CARTESIAN_POINT('Origin',(1829.8060459755,-9272.85180476804,19.9999999998058));
#559=CARTESIAN_POINT('',(1819.15111840381,-9272.85180476804,19.9999999998058));
#560=CARTESIAN_POINT('Origin',(1819.15111840381,-9272.85180476804,19.9999999998058));
#561=CARTESIAN_POINT('Origin',(1891.15115566502,-9272.85180476804,19.9999999998058));
#562=CARTESIAN_POINT('',(1891.15115566502,-9272.85180476804,19.9999999998058));
#563=CARTESIAN_POINT('',(1901.80608323671,-9272.85180476804,19.9999999998058));
#564=CARTESIAN_POINT('Origin',(1891.15115566502,-9272.85180476804,19.9999999998058));
#565=CARTESIAN_POINT('',(1891.15115566502,-9328.85180476804,19.9999999998064));
#566=CARTESIAN_POINT('Origin',(1891.15115566502,-9328.85180476804,19.9999999998064));
#567=CARTESIAN_POINT('',(1901.80608323671,-9328.85180476804,19.9999999998064));
#568=CARTESIAN_POINT('Origin',(1901.80608323671,-9272.85180476804,19.9999999998058));
#569=UNCERTAINTY_MEASURE_WITH_UNIT(LENGTH_MEASURE(0.01),#573,
'DISTANCE_ACCURACY_VALUE',
'Maximum model space distance between geometric entities at asserted c
onnectivities');
#570=UNCERTAINTY_MEASURE_WITH_UNIT(LENGTH_MEASURE(0.01),#573,
'DISTANCE_ACCURACY_VALUE',
'Maximum model space distance between geometric entities at asserted c
onnectivities');
#571=(
GEOMETRIC_REPRESENTATION_CONTEXT(3)
GLOBAL_UNCERTAINTY_ASSIGNED_CONTEXT((#569))
GLOBAL_UNIT_ASSIGNED_CONTEXT((#573,#575,#576))
REPRESENTATION_CONTEXT('','3D')
);
#572=(
GEOMETRIC_REPRESENTATION_CONTEXT(3)
GLOBAL_UNCERTAINTY_ASSIGNED_CONTEXT((#570))
GLOBAL_UNIT_ASSIGNED_CONTEXT((#573,#575,#576))
REPRESENTATION_CONTEXT('','3D')
);
#573=(
LENGTH_UNIT()
NAMED_UNIT(*)
SI_UNIT(.MILLI.,.METRE.)
);
#574=(
LENGTH_UNIT()
NAMED_UNIT(*)
SI_UNIT($,.METRE.)
);
#575=(
NAMED_UNIT(*)
PLANE_ANGLE_UNIT()
SI_UNIT($,.RADIAN.)
);
#576=(
NAMED_UNIT(*)
SI_UNIT($,.STERADIAN.)
SOLID_ANGLE_UNIT()
);
#577=SHAPE_DEFINITION_REPRESENTATION(#578,#579);
#578=PRODUCT_DEFINITION_SHAPE('',$,#581);
#579=SHAPE_REPRESENTATION('',(#365),#571);
#580=PRODUCT_DEFINITION_CONTEXT('part definition',#585,'design');
#581=PRODUCT_DEFINITION('406_BF12Mount','406_BF12Mount v1',#582,#580);
#582=PRODUCT_DEFINITION_FORMATION('',$,#587);
#583=PRODUCT_RELATED_PRODUCT_CATEGORY('406_BF12Mount v1',
'406_BF12Mount v1',(#587));
#584=APPLICATION_PROTOCOL_DEFINITION('international standard',
'automotive_design',2009,#585);
#585=APPLICATION_CONTEXT(
'Core Data for Automotive Mechanical Design Process');
#586=PRODUCT_CONTEXT('part definition',#585,'mechanical');
#587=PRODUCT('406_BF12Mount','406_BF12Mount v1',$,(#586));
#588=PRESENTATION_STYLE_ASSIGNMENT((#589));
#589=SURFACE_STYLE_USAGE(.BOTH.,#590);
#590=SURFACE_SIDE_STYLE('',(#591));
#591=SURFACE_STYLE_FILL_AREA(#592);
#592=FILL_AREA_STYLE('Steel - Satin',(#593));
#593=FILL_AREA_STYLE_COLOUR('Steel - Satin',#594);
#594=COLOUR_RGB('Steel - Satin',0.627450980392157,0.627450980392157,0.627450980392157);
ENDSEC;
END-ISO-10303-21;
