ISO-10303-21;
HEADER;
/* Generated by software containing ST-Developer
 * from STEP Tools, Inc. (www.steptools.com) 
 */

FILE_DESCRIPTION(
/* description */ (''),
/* implementation_level */ '2;1');

FILE_NAME(
/* name */ '401_AxisRailMount v1.step',
/* time_stamp */ '2026-03-14T09:18:27+01:00',
/* author */ (''),
/* organization */ (''),
/* preprocessor_version */ 'ST-DEVELOPER v20.1',
/* originating_system */ 'Autodesk Translation Framework v14.24.0.0',
/* authorisation */ '');

FILE_SCHEMA (('AUTOMOTIVE_DESIGN { 1 0 10303 214 3 1 1 }'));
ENDSEC;

DATA;
#10=MECHANICAL_DESIGN_GEOMETRIC_PRESENTATION_REPRESENTATION('',(#13),#607);
#11=SHAPE_REPRESENTATION_RELATIONSHIP('SRR','None',#614,#12);
#12=ADVANCED_BREP_SHAPE_REPRESENTATION('',(#14),#606);
#13=STYLED_ITEM('',(#623),#14);
#14=MANIFOLD_SOLID_BREP('Body1',#363);
#15=FACE_BOUND('',#60,.T.);
#16=FACE_BOUND('',#61,.T.);
#17=FACE_BOUND('',#62,.T.);
#18=FACE_BOUND('',#63,.T.);
#19=FACE_BOUND('',#65,.T.);
#20=FACE_BOUND('',#66,.T.);
#21=FACE_BOUND('',#67,.T.);
#22=FACE_BOUND('',#68,.T.);
#23=PLANE('',#389);
#24=PLANE('',#390);
#25=PLANE('',#391);
#26=PLANE('',#394);
#27=PLANE('',#397);
#28=PLANE('',#398);
#29=PLANE('',#399);
#30=PLANE('',#400);
#31=PLANE('',#402);
#32=PLANE('',#403);
#33=PLANE('',#405);
#34=PLANE('',#406);
#35=FACE_OUTER_BOUND('',#53,.T.);
#36=FACE_OUTER_BOUND('',#54,.T.);
#37=FACE_OUTER_BOUND('',#55,.T.);
#38=FACE_OUTER_BOUND('',#56,.T.);
#39=FACE_OUTER_BOUND('',#57,.T.);
#40=FACE_OUTER_BOUND('',#58,.T.);
#41=FACE_OUTER_BOUND('',#59,.T.);
#42=FACE_OUTER_BOUND('',#64,.T.);
#43=FACE_OUTER_BOUND('',#69,.T.);
#44=FACE_OUTER_BOUND('',#70,.T.);
#45=FACE_OUTER_BOUND('',#71,.T.);
#46=FACE_OUTER_BOUND('',#72,.T.);
#47=FACE_OUTER_BOUND('',#73,.T.);
#48=FACE_OUTER_BOUND('',#74,.T.);
#49=FACE_OUTER_BOUND('',#75,.T.);
#50=FACE_OUTER_BOUND('',#76,.T.);
#51=FACE_OUTER_BOUND('',#77,.T.);
#52=FACE_OUTER_BOUND('',#78,.T.);
#53=EDGE_LOOP('',(#243,#244,#245,#246));
#54=EDGE_LOOP('',(#247,#248,#249,#250));
#55=EDGE_LOOP('',(#251,#252,#253,#254));
#56=EDGE_LOOP('',(#255,#256,#257,#258));
#57=EDGE_LOOP('',(#259,#260,#261,#262));
#58=EDGE_LOOP('',(#263,#264,#265,#266));
#59=EDGE_LOOP('',(#267,#268,#269,#270,#271,#272,#273,#274,#275,#276,#277,
#278));
#60=EDGE_LOOP('',(#279));
#61=EDGE_LOOP('',(#280));
#62=EDGE_LOOP('',(#281));
#63=EDGE_LOOP('',(#282));
#64=EDGE_LOOP('',(#283,#284,#285,#286,#287,#288,#289,#290,#291,#292,#293,
#294));
#65=EDGE_LOOP('',(#295));
#66=EDGE_LOOP('',(#296));
#67=EDGE_LOOP('',(#297));
#68=EDGE_LOOP('',(#298));
#69=EDGE_LOOP('',(#299,#300,#301,#302));
#70=EDGE_LOOP('',(#303,#304,#305,#306));
#71=EDGE_LOOP('',(#307,#308,#309,#310));
#72=EDGE_LOOP('',(#311,#312,#313,#314));
#73=EDGE_LOOP('',(#315,#316,#317,#318));
#74=EDGE_LOOP('',(#319,#320,#321,#322));
#75=EDGE_LOOP('',(#323,#324,#325,#326));
#76=EDGE_LOOP('',(#327,#328,#329,#330));
#77=EDGE_LOOP('',(#331,#332,#333,#334));
#78=EDGE_LOOP('',(#335,#336,#337,#338));
#79=LINE('',#510,#115);
#80=LINE('',#516,#116);
#81=LINE('',#522,#117);
#82=LINE('',#528,#118);
#83=LINE('',#533,#119);
#84=LINE('',#535,#120);
#85=LINE('',#537,#121);
#86=LINE('',#538,#122);
#87=LINE('',#542,#123);
#88=LINE('',#544,#124);
#89=LINE('',#546,#125);
#90=LINE('',#547,#126);
#91=LINE('',#552,#127);
#92=LINE('',#554,#128);
#93=LINE('',#556,#129);
#94=LINE('',#558,#130);
#95=LINE('',#560,#131);
#96=LINE('',#562,#132);
#97=LINE('',#565,#133);
#98=LINE('',#566,#134);
#99=LINE('',#569,#135);
#100=LINE('',#572,#136);
#101=LINE('',#574,#137);
#102=LINE('',#578,#138);
#103=LINE('',#580,#139);
#104=LINE('',#582,#140);
#105=LINE('',#584,#141);
#106=LINE('',#585,#142);
#107=LINE('',#587,#143);
#108=LINE('',#588,#144);
#109=LINE('',#590,#145);
#110=LINE('',#592,#146);
#111=LINE('',#595,#147);
#112=LINE('',#596,#148);
#113=LINE('',#600,#149);
#114=LINE('',#601,#150);
#115=VECTOR('',#413,3.30000000000008);
#116=VECTOR('',#420,3.30000000000008);
#117=VECTOR('',#427,3.30000000000008);
#118=VECTOR('',#434,3.30000000000008);
#119=VECTOR('',#439,1000.);
#120=VECTOR('',#440,1000.);
#121=VECTOR('',#441,1000.);
#122=VECTOR('',#442,1000.);
#123=VECTOR('',#445,1000.);
#124=VECTOR('',#446,1000.);
#125=VECTOR('',#447,1000.);
#126=VECTOR('',#448,1000.);
#127=VECTOR('',#453,1000.);
#128=VECTOR('',#454,1000.);
#129=VECTOR('',#455,1000.);
#130=VECTOR('',#456,1000.);
#131=VECTOR('',#457,1000.);
#132=VECTOR('',#458,1000.);
#133=VECTOR('',#461,1000.);
#134=VECTOR('',#462,1000.);
#135=VECTOR('',#465,1000.);
#136=VECTOR('',#468,1000.);
#137=VECTOR('',#469,1000.);
#138=VECTOR('',#472,1000.);
#139=VECTOR('',#473,1000.);
#140=VECTOR('',#474,1000.);
#141=VECTOR('',#475,1000.);
#142=VECTOR('',#476,1000.);
#143=VECTOR('',#479,1000.);
#144=VECTOR('',#480,1000.);
#145=VECTOR('',#483,1000.);
#146=VECTOR('',#486,1000.);
#147=VECTOR('',#491,1000.);
#148=VECTOR('',#492,1000.);
#149=VECTOR('',#499,1000.);
#150=VECTOR('',#500,1000.);
#151=CIRCLE('',#378,3.30000000000009);
#152=CIRCLE('',#379,3.30000000000009);
#153=CIRCLE('',#381,3.30000000000009);
#154=CIRCLE('',#382,3.30000000000009);
#155=CIRCLE('',#384,3.30000000000008);
#156=CIRCLE('',#385,3.30000000000008);
#157=CIRCLE('',#387,3.30000000000008);
#158=CIRCLE('',#388,3.30000000000008);
#159=CIRCLE('',#392,2.1500000000001);
#160=CIRCLE('',#393,2.1500000000001);
#161=CIRCLE('',#395,2.1500000000001);
#162=CIRCLE('',#396,2.1500000000001);
#163=VERTEX_POINT('',#507);
#164=VERTEX_POINT('',#509);
#165=VERTEX_POINT('',#513);
#166=VERTEX_POINT('',#515);
#167=VERTEX_POINT('',#519);
#168=VERTEX_POINT('',#521);
#169=VERTEX_POINT('',#525);
#170=VERTEX_POINT('',#527);
#171=VERTEX_POINT('',#531);
#172=VERTEX_POINT('',#532);
#173=VERTEX_POINT('',#534);
#174=VERTEX_POINT('',#536);
#175=VERTEX_POINT('',#540);
#176=VERTEX_POINT('',#541);
#177=VERTEX_POINT('',#543);
#178=VERTEX_POINT('',#545);
#179=VERTEX_POINT('',#549);
#180=VERTEX_POINT('',#550);
#181=VERTEX_POINT('',#553);
#182=VERTEX_POINT('',#555);
#183=VERTEX_POINT('',#557);
#184=VERTEX_POINT('',#559);
#185=VERTEX_POINT('',#561);
#186=VERTEX_POINT('',#563);
#187=VERTEX_POINT('',#568);
#188=VERTEX_POINT('',#570);
#189=VERTEX_POINT('',#573);
#190=VERTEX_POINT('',#575);
#191=VERTEX_POINT('',#577);
#192=VERTEX_POINT('',#579);
#193=VERTEX_POINT('',#581);
#194=VERTEX_POINT('',#583);
#195=EDGE_CURVE('',#163,#163,#151,.T.);
#196=EDGE_CURVE('',#163,#164,#79,.T.);
#197=EDGE_CURVE('',#164,#164,#152,.T.);
#198=EDGE_CURVE('',#165,#165,#153,.T.);
#199=EDGE_CURVE('',#165,#166,#80,.T.);
#200=EDGE_CURVE('',#166,#166,#154,.T.);
#201=EDGE_CURVE('',#167,#167,#155,.T.);
#202=EDGE_CURVE('',#167,#168,#81,.T.);
#203=EDGE_CURVE('',#168,#168,#156,.T.);
#204=EDGE_CURVE('',#169,#169,#157,.T.);
#205=EDGE_CURVE('',#169,#170,#82,.T.);
#206=EDGE_CURVE('',#170,#170,#158,.T.);
#207=EDGE_CURVE('',#171,#172,#83,.T.);
#208=EDGE_CURVE('',#171,#173,#84,.T.);
#209=EDGE_CURVE('',#174,#173,#85,.T.);
#210=EDGE_CURVE('',#172,#174,#86,.T.);
#211=EDGE_CURVE('',#175,#176,#87,.T.);
#212=EDGE_CURVE('',#177,#175,#88,.T.);
#213=EDGE_CURVE('',#177,#178,#89,.T.);
#214=EDGE_CURVE('',#178,#176,#90,.T.);
#215=EDGE_CURVE('',#179,#180,#159,.T.);
#216=EDGE_CURVE('',#180,#172,#91,.T.);
#217=EDGE_CURVE('',#174,#181,#92,.T.);
#218=EDGE_CURVE('',#181,#182,#93,.T.);
#219=EDGE_CURVE('',#182,#183,#94,.T.);
#220=EDGE_CURVE('',#183,#184,#95,.T.);
#221=EDGE_CURVE('',#185,#184,#96,.T.);
#222=EDGE_CURVE('',#186,#185,#160,.T.);
#223=EDGE_CURVE('',#177,#186,#97,.T.);
#224=EDGE_CURVE('',#175,#179,#98,.T.);
#225=EDGE_CURVE('',#187,#171,#99,.T.);
#226=EDGE_CURVE('',#188,#187,#161,.T.);
#227=EDGE_CURVE('',#176,#188,#100,.T.);
#228=EDGE_CURVE('',#178,#189,#101,.T.);
#229=EDGE_CURVE('',#189,#190,#162,.T.);
#230=EDGE_CURVE('',#190,#191,#102,.T.);
#231=EDGE_CURVE('',#192,#191,#103,.T.);
#232=EDGE_CURVE('',#193,#192,#104,.T.);
#233=EDGE_CURVE('',#194,#193,#105,.T.);
#234=EDGE_CURVE('',#173,#194,#106,.T.);
#235=EDGE_CURVE('',#183,#192,#107,.T.);
#236=EDGE_CURVE('',#182,#193,#108,.T.);
#237=EDGE_CURVE('',#191,#184,#109,.T.);
#238=EDGE_CURVE('',#181,#194,#110,.T.);
#239=EDGE_CURVE('',#190,#185,#111,.T.);
#240=EDGE_CURVE('',#189,#186,#112,.T.);
#241=EDGE_CURVE('',#188,#179,#113,.T.);
#242=EDGE_CURVE('',#187,#180,#114,.T.);
#243=ORIENTED_EDGE('',*,*,#195,.F.);
#244=ORIENTED_EDGE('',*,*,#196,.T.);
#245=ORIENTED_EDGE('',*,*,#197,.T.);
#246=ORIENTED_EDGE('',*,*,#196,.F.);
#247=ORIENTED_EDGE('',*,*,#198,.F.);
#248=ORIENTED_EDGE('',*,*,#199,.T.);
#249=ORIENTED_EDGE('',*,*,#200,.T.);
#250=ORIENTED_EDGE('',*,*,#199,.F.);
#251=ORIENTED_EDGE('',*,*,#201,.T.);
#252=ORIENTED_EDGE('',*,*,#202,.T.);
#253=ORIENTED_EDGE('',*,*,#203,.F.);
#254=ORIENTED_EDGE('',*,*,#202,.F.);
#255=ORIENTED_EDGE('',*,*,#204,.T.);
#256=ORIENTED_EDGE('',*,*,#205,.T.);
#257=ORIENTED_EDGE('',*,*,#206,.F.);
#258=ORIENTED_EDGE('',*,*,#205,.F.);
#259=ORIENTED_EDGE('',*,*,#207,.F.);
#260=ORIENTED_EDGE('',*,*,#208,.T.);
#261=ORIENTED_EDGE('',*,*,#209,.F.);
#262=ORIENTED_EDGE('',*,*,#210,.F.);
#263=ORIENTED_EDGE('',*,*,#211,.F.);
#264=ORIENTED_EDGE('',*,*,#212,.F.);
#265=ORIENTED_EDGE('',*,*,#213,.T.);
#266=ORIENTED_EDGE('',*,*,#214,.T.);
#267=ORIENTED_EDGE('',*,*,#215,.T.);
#268=ORIENTED_EDGE('',*,*,#216,.T.);
#269=ORIENTED_EDGE('',*,*,#210,.T.);
#270=ORIENTED_EDGE('',*,*,#217,.T.);
#271=ORIENTED_EDGE('',*,*,#218,.T.);
#272=ORIENTED_EDGE('',*,*,#219,.T.);
#273=ORIENTED_EDGE('',*,*,#220,.T.);
#274=ORIENTED_EDGE('',*,*,#221,.F.);
#275=ORIENTED_EDGE('',*,*,#222,.F.);
#276=ORIENTED_EDGE('',*,*,#223,.F.);
#277=ORIENTED_EDGE('',*,*,#212,.T.);
#278=ORIENTED_EDGE('',*,*,#224,.T.);
#279=ORIENTED_EDGE('',*,*,#195,.T.);
#280=ORIENTED_EDGE('',*,*,#198,.T.);
#281=ORIENTED_EDGE('',*,*,#201,.F.);
#282=ORIENTED_EDGE('',*,*,#204,.F.);
#283=ORIENTED_EDGE('',*,*,#225,.F.);
#284=ORIENTED_EDGE('',*,*,#226,.F.);
#285=ORIENTED_EDGE('',*,*,#227,.F.);
#286=ORIENTED_EDGE('',*,*,#214,.F.);
#287=ORIENTED_EDGE('',*,*,#228,.T.);
#288=ORIENTED_EDGE('',*,*,#229,.T.);
#289=ORIENTED_EDGE('',*,*,#230,.T.);
#290=ORIENTED_EDGE('',*,*,#231,.F.);
#291=ORIENTED_EDGE('',*,*,#232,.F.);
#292=ORIENTED_EDGE('',*,*,#233,.F.);
#293=ORIENTED_EDGE('',*,*,#234,.F.);
#294=ORIENTED_EDGE('',*,*,#208,.F.);
#295=ORIENTED_EDGE('',*,*,#206,.T.);
#296=ORIENTED_EDGE('',*,*,#203,.T.);
#297=ORIENTED_EDGE('',*,*,#200,.F.);
#298=ORIENTED_EDGE('',*,*,#197,.F.);
#299=ORIENTED_EDGE('',*,*,#232,.T.);
#300=ORIENTED_EDGE('',*,*,#235,.F.);
#301=ORIENTED_EDGE('',*,*,#219,.F.);
#302=ORIENTED_EDGE('',*,*,#236,.T.);
#303=ORIENTED_EDGE('',*,*,#231,.T.);
#304=ORIENTED_EDGE('',*,*,#237,.T.);
#305=ORIENTED_EDGE('',*,*,#220,.F.);
#306=ORIENTED_EDGE('',*,*,#235,.T.);
#307=ORIENTED_EDGE('',*,*,#234,.T.);
#308=ORIENTED_EDGE('',*,*,#238,.F.);
#309=ORIENTED_EDGE('',*,*,#217,.F.);
#310=ORIENTED_EDGE('',*,*,#209,.T.);
#311=ORIENTED_EDGE('',*,*,#233,.T.);
#312=ORIENTED_EDGE('',*,*,#236,.F.);
#313=ORIENTED_EDGE('',*,*,#218,.F.);
#314=ORIENTED_EDGE('',*,*,#238,.T.);
#315=ORIENTED_EDGE('',*,*,#222,.T.);
#316=ORIENTED_EDGE('',*,*,#239,.F.);
#317=ORIENTED_EDGE('',*,*,#229,.F.);
#318=ORIENTED_EDGE('',*,*,#240,.T.);
#319=ORIENTED_EDGE('',*,*,#223,.T.);
#320=ORIENTED_EDGE('',*,*,#240,.F.);
#321=ORIENTED_EDGE('',*,*,#228,.F.);
#322=ORIENTED_EDGE('',*,*,#213,.F.);
#323=ORIENTED_EDGE('',*,*,#221,.T.);
#324=ORIENTED_EDGE('',*,*,#237,.F.);
#325=ORIENTED_EDGE('',*,*,#230,.F.);
#326=ORIENTED_EDGE('',*,*,#239,.T.);
#327=ORIENTED_EDGE('',*,*,#241,.F.);
#328=ORIENTED_EDGE('',*,*,#226,.T.);
#329=ORIENTED_EDGE('',*,*,#242,.T.);
#330=ORIENTED_EDGE('',*,*,#215,.F.);
#331=ORIENTED_EDGE('',*,*,#242,.F.);
#332=ORIENTED_EDGE('',*,*,#225,.T.);
#333=ORIENTED_EDGE('',*,*,#207,.T.);
#334=ORIENTED_EDGE('',*,*,#216,.F.);
#335=ORIENTED_EDGE('',*,*,#211,.T.);
#336=ORIENTED_EDGE('',*,*,#227,.T.);
#337=ORIENTED_EDGE('',*,*,#241,.T.);
#338=ORIENTED_EDGE('',*,*,#224,.F.);
#339=CYLINDRICAL_SURFACE('',#377,3.30000000000008);
#340=CYLINDRICAL_SURFACE('',#380,3.30000000000008);
#341=CYLINDRICAL_SURFACE('',#383,3.30000000000008);
#342=CYLINDRICAL_SURFACE('',#386,3.30000000000008);
#343=CYLINDRICAL_SURFACE('',#401,2.1500000000001);
#344=CYLINDRICAL_SURFACE('',#404,2.1500000000001);
#345=ADVANCED_FACE('',(#35),#339,.F.);
#346=ADVANCED_FACE('',(#36),#340,.F.);
#347=ADVANCED_FACE('',(#37),#341,.F.);
#348=ADVANCED_FACE('',(#38),#342,.F.);
#349=ADVANCED_FACE('',(#39),#23,.F.);
#350=ADVANCED_FACE('',(#40),#24,.F.);
#351=ADVANCED_FACE('',(#41,#15,#16,#17,#18),#25,.T.);
#352=ADVANCED_FACE('',(#42,#19,#20,#21,#22),#26,.F.);
#353=ADVANCED_FACE('',(#43),#27,.F.);
#354=ADVANCED_FACE('',(#44),#28,.F.);
#355=ADVANCED_FACE('',(#45),#29,.F.);
#356=ADVANCED_FACE('',(#46),#30,.F.);
#357=ADVANCED_FACE('',(#47),#343,.F.);
#358=ADVANCED_FACE('',(#48),#31,.F.);
#359=ADVANCED_FACE('',(#49),#32,.F.);
#360=ADVANCED_FACE('',(#50),#344,.F.);
#361=ADVANCED_FACE('',(#51),#33,.T.);
#362=ADVANCED_FACE('',(#52),#34,.T.);
#363=CLOSED_SHELL('',(#345,#346,#347,#348,#349,#350,#351,#352,#353,#354,
#355,#356,#357,#358,#359,#360,#361,#362));
#364=DERIVED_UNIT_ELEMENT(#366,1.);
#365=DERIVED_UNIT_ELEMENT(#609,-3.);
#366=(
MASS_UNIT()
NAMED_UNIT(*)
SI_UNIT(.KILO.,.GRAM.)
);
#367=DERIVED_UNIT((#364,#365));
#368=MEASURE_REPRESENTATION_ITEM('density measure',
POSITIVE_RATIO_MEASURE(7850.),#367);
#369=PROPERTY_DEFINITION_REPRESENTATION(#374,#371);
#370=PROPERTY_DEFINITION_REPRESENTATION(#375,#372);
#371=REPRESENTATION('material name',(#373),#606);
#372=REPRESENTATION('density',(#368),#606);
#373=DESCRIPTIVE_REPRESENTATION_ITEM('Steel','Steel');
#374=PROPERTY_DEFINITION('material property','material name',#616);
#375=PROPERTY_DEFINITION('material property','density of part',#616);
#376=AXIS2_PLACEMENT_3D('',#505,#407,#408);
#377=AXIS2_PLACEMENT_3D('',#506,#409,#410);
#378=AXIS2_PLACEMENT_3D('',#508,#411,#412);
#379=AXIS2_PLACEMENT_3D('',#511,#414,#415);
#380=AXIS2_PLACEMENT_3D('',#512,#416,#417);
#381=AXIS2_PLACEMENT_3D('',#514,#418,#419);
#382=AXIS2_PLACEMENT_3D('',#517,#421,#422);
#383=AXIS2_PLACEMENT_3D('',#518,#423,#424);
#384=AXIS2_PLACEMENT_3D('',#520,#425,#426);
#385=AXIS2_PLACEMENT_3D('',#523,#428,#429);
#386=AXIS2_PLACEMENT_3D('',#524,#430,#431);
#387=AXIS2_PLACEMENT_3D('',#526,#432,#433);
#388=AXIS2_PLACEMENT_3D('',#529,#435,#436);
#389=AXIS2_PLACEMENT_3D('',#530,#437,#438);
#390=AXIS2_PLACEMENT_3D('',#539,#443,#444);
#391=AXIS2_PLACEMENT_3D('',#548,#449,#450);
#392=AXIS2_PLACEMENT_3D('',#551,#451,#452);
#393=AXIS2_PLACEMENT_3D('',#564,#459,#460);
#394=AXIS2_PLACEMENT_3D('',#567,#463,#464);
#395=AXIS2_PLACEMENT_3D('',#571,#466,#467);
#396=AXIS2_PLACEMENT_3D('',#576,#470,#471);
#397=AXIS2_PLACEMENT_3D('',#586,#477,#478);
#398=AXIS2_PLACEMENT_3D('',#589,#481,#482);
#399=AXIS2_PLACEMENT_3D('',#591,#484,#485);
#400=AXIS2_PLACEMENT_3D('',#593,#487,#488);
#401=AXIS2_PLACEMENT_3D('',#594,#489,#490);
#402=AXIS2_PLACEMENT_3D('',#597,#493,#494);
#403=AXIS2_PLACEMENT_3D('',#598,#495,#496);
#404=AXIS2_PLACEMENT_3D('',#599,#497,#498);
#405=AXIS2_PLACEMENT_3D('',#602,#501,#502);
#406=AXIS2_PLACEMENT_3D('',#603,#503,#504);
#407=DIRECTION('axis',(0.,0.,1.));
#408=DIRECTION('refdir',(1.,0.,0.));
#409=DIRECTION('center_axis',(-3.47098798297245E-29,-2.83724178303E-31,
-1.));
#410=DIRECTION('ref_axis',(-1.,9.84803213368445E-60,3.47098798297245E-29));
#411=DIRECTION('center_axis',(0.,0.,-1.));
#412=DIRECTION('ref_axis',(1.,0.,0.));
#413=DIRECTION('',(-3.47098798297245E-29,-2.83724178303E-31,-1.));
#414=DIRECTION('center_axis',(0.,0.,-1.));
#415=DIRECTION('ref_axis',(1.,0.,0.));
#416=DIRECTION('center_axis',(-3.47098798297245E-29,-2.83724178303E-31,
-1.));
#417=DIRECTION('ref_axis',(-1.,9.84803213368445E-60,3.47098798297245E-29));
#418=DIRECTION('center_axis',(0.,0.,-1.));
#419=DIRECTION('ref_axis',(1.,0.,0.));
#420=DIRECTION('',(-3.47098798297245E-29,-2.83724178303E-31,-1.));
#421=DIRECTION('center_axis',(0.,0.,-1.));
#422=DIRECTION('ref_axis',(1.,0.,0.));
#423=DIRECTION('center_axis',(3.47098798297245E-29,-2.83724178302975E-31,
-1.));
#424=DIRECTION('ref_axis',(-1.,-9.84803213368361E-60,-3.47098798297245E-29));
#425=DIRECTION('center_axis',(0.,0.,1.));
#426=DIRECTION('ref_axis',(1.,0.,0.));
#427=DIRECTION('',(3.47098798297245E-29,-2.83724178302975E-31,-1.));
#428=DIRECTION('center_axis',(0.,0.,1.));
#429=DIRECTION('ref_axis',(1.,0.,0.));
#430=DIRECTION('center_axis',(3.47098798297245E-29,-2.83724178302975E-31,
-1.));
#431=DIRECTION('ref_axis',(-1.,-9.84803213368361E-60,-3.47098798297245E-29));
#432=DIRECTION('center_axis',(0.,0.,1.));
#433=DIRECTION('ref_axis',(1.,0.,0.));
#434=DIRECTION('',(3.47098798297245E-29,-2.83724178302975E-31,-1.));
#435=DIRECTION('center_axis',(0.,0.,1.));
#436=DIRECTION('ref_axis',(1.,0.,0.));
#437=DIRECTION('center_axis',(0.,-1.,0.));
#438=DIRECTION('ref_axis',(0.,0.,-1.));
#439=DIRECTION('',(0.,0.,1.));
#440=DIRECTION('',(-1.,0.,0.));
#441=DIRECTION('',(0.,0.,-1.));
#442=DIRECTION('',(-1.,0.,0.));
#443=DIRECTION('center_axis',(0.,-1.,0.));
#444=DIRECTION('ref_axis',(0.,0.,-1.));
#445=DIRECTION('',(0.,0.,-1.));
#446=DIRECTION('',(-1.,0.,0.));
#447=DIRECTION('',(0.,0.,-1.));
#448=DIRECTION('',(-1.,0.,0.));
#449=DIRECTION('center_axis',(0.,0.,1.));
#450=DIRECTION('ref_axis',(1.,0.,0.));
#451=DIRECTION('center_axis',(0.,0.,-1.));
#452=DIRECTION('ref_axis',(1.,0.,0.));
#453=DIRECTION('',(-6.93889390390722E-16,1.,0.));
#454=DIRECTION('',(6.93889390390722E-16,-1.,0.));
#455=DIRECTION('',(1.,0.,0.));
#456=DIRECTION('',(0.,1.,0.));
#457=DIRECTION('',(-1.,0.,0.));
#458=DIRECTION('',(0.,1.,0.));
#459=DIRECTION('center_axis',(0.,0.,1.));
#460=DIRECTION('ref_axis',(1.,0.,0.));
#461=DIRECTION('',(0.,-1.,0.));
#462=DIRECTION('',(6.93889390390722E-16,-1.,0.));
#463=DIRECTION('center_axis',(0.,0.,1.));
#464=DIRECTION('ref_axis',(1.,0.,0.));
#465=DIRECTION('',(-6.93889390390722E-16,1.,0.));
#466=DIRECTION('center_axis',(0.,0.,-1.));
#467=DIRECTION('ref_axis',(1.,0.,0.));
#468=DIRECTION('',(6.93889390390722E-16,-1.,0.));
#469=DIRECTION('',(0.,-1.,0.));
#470=DIRECTION('center_axis',(0.,0.,1.));
#471=DIRECTION('ref_axis',(1.,0.,0.));
#472=DIRECTION('',(0.,1.,0.));
#473=DIRECTION('',(-1.,0.,0.));
#474=DIRECTION('',(0.,1.,0.));
#475=DIRECTION('',(1.,0.,0.));
#476=DIRECTION('',(6.93889390390722E-16,-1.,0.));
#477=DIRECTION('center_axis',(-1.,0.,0.));
#478=DIRECTION('ref_axis',(0.,0.,1.));
#479=DIRECTION('',(0.,0.,-1.));
#480=DIRECTION('',(0.,0.,-1.));
#481=DIRECTION('center_axis',(0.,-1.,0.));
#482=DIRECTION('ref_axis',(0.,0.,-1.));
#483=DIRECTION('',(0.,0.,1.));
#484=DIRECTION('center_axis',(1.,6.93889390390722E-16,0.));
#485=DIRECTION('ref_axis',(-6.93889390390722E-16,1.,0.));
#486=DIRECTION('',(0.,0.,-1.));
#487=DIRECTION('center_axis',(0.,1.,0.));
#488=DIRECTION('ref_axis',(0.,0.,1.));
#489=DIRECTION('center_axis',(0.,0.,1.));
#490=DIRECTION('ref_axis',(1.,0.,0.));
#491=DIRECTION('',(0.,0.,1.));
#492=DIRECTION('',(0.,0.,1.));
#493=DIRECTION('center_axis',(-1.,0.,0.));
#494=DIRECTION('ref_axis',(0.,0.,1.));
#495=DIRECTION('center_axis',(1.,0.,0.));
#496=DIRECTION('ref_axis',(0.,0.,-1.));
#497=DIRECTION('center_axis',(0.,0.,1.));
#498=DIRECTION('ref_axis',(1.,0.,0.));
#499=DIRECTION('',(0.,0.,1.));
#500=DIRECTION('',(0.,0.,1.));
#501=DIRECTION('center_axis',(1.,6.93889390390722E-16,0.));
#502=DIRECTION('ref_axis',(-6.93889390390722E-16,1.,0.));
#503=DIRECTION('center_axis',(-1.,-6.93889390390722E-16,0.));
#504=DIRECTION('ref_axis',(6.93889390390722E-16,-1.,0.));
#505=CARTESIAN_POINT('',(0.,0.,0.));
#506=CARTESIAN_POINT('Origin',(-124.539832465404,-1943.69608518199,29.0000000000162));
#507=CARTESIAN_POINT('',(-121.239832465404,-1943.69608518199,10.));
#508=CARTESIAN_POINT('Origin',(-124.539832465404,-1943.69608518199,10.));
#509=CARTESIAN_POINT('',(-121.239832465404,-1943.69608518199,0.));
#510=CARTESIAN_POINT('',(-121.239832465404,-1943.69608518199,29.0000000000162));
#511=CARTESIAN_POINT('Origin',(-124.539832465404,-1943.69608518199,0.));
#512=CARTESIAN_POINT('Origin',(-124.539832465404,-1956.69608518199,29.0000000000162));
#513=CARTESIAN_POINT('',(-121.239832465404,-1956.69608518199,10.));
#514=CARTESIAN_POINT('Origin',(-124.539832465404,-1956.69608518199,10.));
#515=CARTESIAN_POINT('',(-121.239832465404,-1956.69608518199,0.));
#516=CARTESIAN_POINT('',(-121.239832465404,-1956.69608518199,29.0000000000162));
#517=CARTESIAN_POINT('Origin',(-124.539832465404,-1956.69608518199,0.));
#518=CARTESIAN_POINT('Origin',(-170.539832465839,-1943.69608518199,29.0000000000162));
#519=CARTESIAN_POINT('',(-167.239832465839,-1943.69608518199,10.));
#520=CARTESIAN_POINT('Origin',(-170.539832465839,-1943.69608518199,10.));
#521=CARTESIAN_POINT('',(-167.239832465839,-1943.69608518199,0.));
#522=CARTESIAN_POINT('',(-167.239832465839,-1943.69608518199,29.0000000000162));
#523=CARTESIAN_POINT('Origin',(-170.539832465839,-1943.69608518199,0.));
#524=CARTESIAN_POINT('Origin',(-170.539832465839,-1956.69608518199,29.0000000000162));
#525=CARTESIAN_POINT('',(-167.239832465839,-1956.69608518199,10.));
#526=CARTESIAN_POINT('Origin',(-170.539832465839,-1956.69608518199,10.));
#527=CARTESIAN_POINT('',(-167.239832465839,-1956.69608518199,0.));
#528=CARTESIAN_POINT('',(-167.239832465839,-1956.69608518199,29.0000000000162));
#529=CARTESIAN_POINT('Origin',(-170.539832465839,-1956.69608518199,0.));
#530=CARTESIAN_POINT('Origin',(34.9601675343783,-1890.69608518199,10.));
#531=CARTESIAN_POINT('',(-169.689832465405,-1890.69608518199,0.));
#532=CARTESIAN_POINT('',(-169.689832465405,-1890.69608518199,10.));
#533=CARTESIAN_POINT('',(-169.689832465405,-1890.69608518199,10.));
#534=CARTESIAN_POINT('',(-330.039832465622,-1890.69608518199,0.));
#535=CARTESIAN_POINT('',(34.9601675343783,-1890.69608518199,0.));
#536=CARTESIAN_POINT('',(-330.039832465622,-1890.69608518199,10.));
#537=CARTESIAN_POINT('',(-330.039832465622,-1890.69608518199,10.));
#538=CARTESIAN_POINT('',(34.9601675343783,-1890.69608518199,10.));
#539=CARTESIAN_POINT('Origin',(34.9601675343783,-1890.69608518199,10.));
#540=CARTESIAN_POINT('',(-165.389832465404,-1890.69608518199,10.));
#541=CARTESIAN_POINT('',(-165.389832465404,-1890.69608518199,0.));
#542=CARTESIAN_POINT('',(-165.389832465404,-1890.69608518199,10.));
#543=CARTESIAN_POINT('',(-129.689832465839,-1890.69608518199,10.));
#544=CARTESIAN_POINT('',(34.9601675343783,-1890.69608518199,10.));
#545=CARTESIAN_POINT('',(-129.689832465839,-1890.69608518199,0.));
#546=CARTESIAN_POINT('',(-129.689832465839,-1890.69608518199,10.));
#547=CARTESIAN_POINT('',(34.9601675343783,-1890.69608518199,0.));
#548=CARTESIAN_POINT('Origin',(0.,0.,10.));
#549=CARTESIAN_POINT('',(-165.389832465404,-1910.69608518199,10.));
#550=CARTESIAN_POINT('',(-169.689832465405,-1910.69608518199,10.));
#551=CARTESIAN_POINT('Origin',(-167.539832465404,-1910.69608518199,10.));
#552=CARTESIAN_POINT('',(-169.689832465406,-1.17745974404924E-13,10.));
#553=CARTESIAN_POINT('',(-330.039832465622,-1970.69608518199,10.));
#554=CARTESIAN_POINT('',(-330.039832465622,-1970.69608518199,10.));
#555=CARTESIAN_POINT('',(34.9601675343783,-1970.69608518199,10.));
#556=CARTESIAN_POINT('',(34.9601675343783,-1970.69608518199,10.));
#557=CARTESIAN_POINT('',(34.9601675343783,-1890.69608518199,10.));
#558=CARTESIAN_POINT('',(34.9601675343783,-1970.69608518199,10.));
#559=CARTESIAN_POINT('',(-125.389832465839,-1890.69608518199,10.));
#560=CARTESIAN_POINT('',(34.9601675343783,-1890.69608518199,10.));
#561=CARTESIAN_POINT('',(-125.389832465839,-1910.69608518199,10.));
#562=CARTESIAN_POINT('',(-125.389832465839,0.,10.));
#563=CARTESIAN_POINT('',(-129.689832465839,-1910.69608518199,10.));
#564=CARTESIAN_POINT('Origin',(-127.539832465839,-1910.69608518199,10.));
#565=CARTESIAN_POINT('',(-129.689832465839,0.,10.));
#566=CARTESIAN_POINT('',(-165.389832465406,-1.14762250026244E-13,10.));
#567=CARTESIAN_POINT('Origin',(0.,0.,0.));
#568=CARTESIAN_POINT('',(-169.689832465405,-1910.69608518199,0.));
#569=CARTESIAN_POINT('',(-169.689832465406,-1.17745974404924E-13,0.));
#570=CARTESIAN_POINT('',(-165.389832465404,-1910.69608518199,0.));
#571=CARTESIAN_POINT('Origin',(-167.539832465404,-1910.69608518199,0.));
#572=CARTESIAN_POINT('',(-165.389832465406,-1.14762250026244E-13,0.));
#573=CARTESIAN_POINT('',(-129.689832465839,-1910.69608518199,0.));
#574=CARTESIAN_POINT('',(-129.689832465839,0.,0.));
#575=CARTESIAN_POINT('',(-125.389832465839,-1910.69608518199,0.));
#576=CARTESIAN_POINT('Origin',(-127.539832465839,-1910.69608518199,0.));
#577=CARTESIAN_POINT('',(-125.389832465839,-1890.69608518199,0.));
#578=CARTESIAN_POINT('',(-125.389832465839,0.,0.));
#579=CARTESIAN_POINT('',(34.9601675343783,-1890.69608518199,0.));
#580=CARTESIAN_POINT('',(34.9601675343783,-1890.69608518199,0.));
#581=CARTESIAN_POINT('',(34.9601675343783,-1970.69608518199,0.));
#582=CARTESIAN_POINT('',(34.9601675343783,-1970.69608518199,0.));
#583=CARTESIAN_POINT('',(-330.039832465622,-1970.69608518199,0.));
#584=CARTESIAN_POINT('',(34.9601675343783,-1970.69608518199,0.));
#585=CARTESIAN_POINT('',(-330.039832465622,-1970.69608518199,0.));
#586=CARTESIAN_POINT('Origin',(34.9601675343783,-1970.69608518199,10.));
#587=CARTESIAN_POINT('',(34.9601675343783,-1890.69608518199,10.));
#588=CARTESIAN_POINT('',(34.9601675343783,-1970.69608518199,10.));
#589=CARTESIAN_POINT('Origin',(34.9601675343783,-1890.69608518199,10.));
#590=CARTESIAN_POINT('',(-125.389832465839,-1890.69608518199,10.));
#591=CARTESIAN_POINT('Origin',(-330.039832465622,-1970.69608518199,10.));
#592=CARTESIAN_POINT('',(-330.039832465622,-1970.69608518199,10.));
#593=CARTESIAN_POINT('Origin',(34.9601675343783,-1970.69608518199,10.));
#594=CARTESIAN_POINT('Origin',(-127.539832465839,-1910.69608518199,-45.9999999999847));
#595=CARTESIAN_POINT('',(-125.389832465839,-1910.69608518199,-45.9999999999847));
#596=CARTESIAN_POINT('',(-129.689832465839,-1910.69608518199,-45.9999999999847));
#597=CARTESIAN_POINT('Origin',(-129.689832465839,-1861.49684585057,-45.9999999999847));
#598=CARTESIAN_POINT('Origin',(-125.389832465839,-1910.69608518199,-45.9999999999847));
#599=CARTESIAN_POINT('Origin',(-167.539832465404,-1910.69608518199,-45.9999999999847));
#600=CARTESIAN_POINT('',(-165.389832465404,-1910.69608518199,-45.9999999999847));
#601=CARTESIAN_POINT('',(-169.689832465405,-1910.69608518199,-45.9999999999847));
#602=CARTESIAN_POINT('Origin',(-169.689832465405,-1910.69608518199,-45.9999999999847));
#603=CARTESIAN_POINT('Origin',(-165.389832465404,-1861.49684585057,-45.9999999999847));
#604=UNCERTAINTY_MEASURE_WITH_UNIT(LENGTH_MEASURE(0.01),#608,
'DISTANCE_ACCURACY_VALUE',
'Maximum model space distance between geometric entities at asserted c
onnectivities');
#605=UNCERTAINTY_MEASURE_WITH_UNIT(LENGTH_MEASURE(0.01),#608,
'DISTANCE_ACCURACY_VALUE',
'Maximum model space distance between geometric entities at asserted c
onnectivities');
#606=(
GEOMETRIC_REPRESENTATION_CONTEXT(3)
GLOBAL_UNCERTAINTY_ASSIGNED_CONTEXT((#604))
GLOBAL_UNIT_ASSIGNED_CONTEXT((#608,#610,#611))
REPRESENTATION_CONTEXT('','3D')
);
#607=(
GEOMETRIC_REPRESENTATION_CONTEXT(3)
GLOBAL_UNCERTAINTY_ASSIGNED_CONTEXT((#605))
GLOBAL_UNIT_ASSIGNED_CONTEXT((#608,#610,#611))
REPRESENTATION_CONTEXT('','3D')
);
#608=(
LENGTH_UNIT()
NAMED_UNIT(*)
SI_UNIT(.MILLI.,.METRE.)
);
#609=(
LENGTH_UNIT()
NAMED_UNIT(*)
SI_UNIT($,.METRE.)
);
#610=(
NAMED_UNIT(*)
PLANE_ANGLE_UNIT()
SI_UNIT($,.RADIAN.)
);
#611=(
NAMED_UNIT(*)
SI_UNIT($,.STERADIAN.)
SOLID_ANGLE_UNIT()
);
#612=SHAPE_DEFINITION_REPRESENTATION(#613,#614);
#613=PRODUCT_DEFINITION_SHAPE('',$,#616);
#614=SHAPE_REPRESENTATION('',(#376),#606);
#615=PRODUCT_DEFINITION_CONTEXT('part definition',#620,'design');
#616=PRODUCT_DEFINITION('401_AxisRailMount','401_AxisRailMount v1',#617,
#615);
#617=PRODUCT_DEFINITION_FORMATION('',$,#622);
#618=PRODUCT_RELATED_PRODUCT_CATEGORY('401_AxisRailMount v1',
'401_AxisRailMount v1',(#622));
#619=APPLICATION_PROTOCOL_DEFINITION('international standard',
'automotive_design',2009,#620);
#620=APPLICATION_CONTEXT(
'Core Data for Automotive Mechanical Design Process');
#621=PRODUCT_CONTEXT('part definition',#620,'mechanical');
#622=PRODUCT('401_AxisRailMount','401_AxisRailMount v1',$,(#621));
#623=PRESENTATION_STYLE_ASSIGNMENT((#624));
#624=SURFACE_STYLE_USAGE(.BOTH.,#625);
#625=SURFACE_SIDE_STYLE('',(#626));
#626=SURFACE_STYLE_FILL_AREA(#627);
#627=FILL_AREA_STYLE('Steel - Satin',(#628));
#628=FILL_AREA_STYLE_COLOUR('Steel - Satin',#629);
#629=COLOUR_RGB('Steel - Satin',0.627450980392157,0.627450980392157,0.627450980392157);
ENDSEC;
END-ISO-10303-21;
