ISO-10303-21;
HEADER;
/* Generated by software containing ST-Developer
 * from STEP Tools, Inc. (www.steptools.com) 
 */

FILE_DESCRIPTION(
/* description */ (''),
/* implementation_level */ '2;1');

FILE_NAME(
/* name */ '511_HopperMount-Reserve v1.step',
/* time_stamp */ '2026-03-14T09:50:55+01:00',
/* author */ (''),
/* organization */ (''),
/* preprocessor_version */ 'ST-DEVELOPER v20.1',
/* originating_system */ 'Autodesk Translation Framework v14.24.0.0',
/* authorisation */ '');

FILE_SCHEMA (('AUTOMOTIVE_DESIGN { 1 0 10303 214 3 1 1 }'));
ENDSEC;

DATA;
#10=MECHANICAL_DESIGN_GEOMETRIC_PRESENTATION_REPRESENTATION('',(#13),#378);
#11=SHAPE_REPRESENTATION_RELATIONSHIP('SRR','None',#385,#12);
#12=ADVANCED_BREP_SHAPE_REPRESENTATION('',(#14),#377);
#13=STYLED_ITEM('',(#394),#14);
#14=MANIFOLD_SOLID_BREP('Body1',#222);
#15=CONICAL_SURFACE('',#256,13.,0.62182428783059);
#16=CYLINDRICAL_SURFACE('',#252,3.50000000000001);
#17=CYLINDRICAL_SURFACE('',#253,3.50000000000001);
#18=CYLINDRICAL_SURFACE('',#254,3.50000000000001);
#19=CYLINDRICAL_SURFACE('',#255,3.50000000000001);
#20=FACE_BOUND('',#52,.T.);
#21=FACE_BOUND('',#53,.T.);
#22=FACE_BOUND('',#54,.T.);
#23=FACE_BOUND('',#55,.T.);
#24=FACE_BOUND('',#56,.T.);
#25=FACE_BOUND('',#58,.T.);
#26=FACE_BOUND('',#59,.T.);
#27=FACE_BOUND('',#60,.T.);
#28=FACE_BOUND('',#61,.T.);
#29=FACE_BOUND('',#62,.T.);
#30=CIRCLE('',#237,3.50000000000001);
#31=CIRCLE('',#238,3.50000000000001);
#32=CIRCLE('',#239,3.50000000000001);
#33=CIRCLE('',#240,3.50000000000001);
#34=CIRCLE('',#241,34.5);
#35=CIRCLE('',#243,3.50000000000001);
#36=CIRCLE('',#244,3.50000000000001);
#37=CIRCLE('',#245,13.);
#38=CIRCLE('',#246,3.50000000000001);
#39=CIRCLE('',#247,3.50000000000001);
#40=FACE_OUTER_BOUND('',#51,.T.);
#41=FACE_OUTER_BOUND('',#57,.T.);
#42=FACE_OUTER_BOUND('',#63,.T.);
#43=FACE_OUTER_BOUND('',#64,.T.);
#44=FACE_OUTER_BOUND('',#65,.T.);
#45=FACE_OUTER_BOUND('',#66,.T.);
#46=FACE_OUTER_BOUND('',#67,.T.);
#47=FACE_OUTER_BOUND('',#68,.T.);
#48=FACE_OUTER_BOUND('',#69,.T.);
#49=FACE_OUTER_BOUND('',#70,.T.);
#50=FACE_OUTER_BOUND('',#71,.T.);
#51=EDGE_LOOP('',(#151,#152,#153,#154));
#52=EDGE_LOOP('',(#155));
#53=EDGE_LOOP('',(#156));
#54=EDGE_LOOP('',(#157));
#55=EDGE_LOOP('',(#158));
#56=EDGE_LOOP('',(#159));
#57=EDGE_LOOP('',(#160,#161,#162,#163));
#58=EDGE_LOOP('',(#164));
#59=EDGE_LOOP('',(#165));
#60=EDGE_LOOP('',(#166));
#61=EDGE_LOOP('',(#167));
#62=EDGE_LOOP('',(#168));
#63=EDGE_LOOP('',(#169,#170,#171,#172));
#64=EDGE_LOOP('',(#173,#174,#175,#176));
#65=EDGE_LOOP('',(#177,#178,#179,#180));
#66=EDGE_LOOP('',(#181,#182,#183,#184));
#67=EDGE_LOOP('',(#185,#186,#187,#188));
#68=EDGE_LOOP('',(#189,#190,#191,#192));
#69=EDGE_LOOP('',(#193,#194,#195,#196));
#70=EDGE_LOOP('',(#197,#198,#199,#200));
#71=EDGE_LOOP('',(#201,#202,#203,#204));
#72=LINE('',#322,#89);
#73=LINE('',#324,#90);
#74=LINE('',#326,#91);
#75=LINE('',#327,#92);
#76=LINE('',#341,#93);
#77=LINE('',#343,#94);
#78=LINE('',#345,#95);
#79=LINE('',#346,#96);
#80=LINE('',#358,#97);
#81=LINE('',#359,#98);
#82=LINE('',#361,#99);
#83=LINE('',#363,#100);
#84=LINE('',#366,#101);
#85=LINE('',#368,#102);
#86=LINE('',#370,#103);
#87=LINE('',#372,#104);
#88=LINE('',#374,#105);
#89=VECTOR('',#261,85.);
#90=VECTOR('',#262,120.);
#91=VECTOR('',#263,85.);
#92=VECTOR('',#264,120.);
#93=VECTOR('',#277,85.);
#94=VECTOR('',#278,120.);
#95=VECTOR('',#279,85.);
#96=VECTOR('',#280,120.);
#97=VECTOR('',#293,30.);
#98=VECTOR('',#294,30.);
#99=VECTOR('',#297,30.);
#100=VECTOR('',#300,30.);
#101=VECTOR('',#305,3.50000000000001);
#102=VECTOR('',#308,3.50000000000001);
#103=VECTOR('',#311,3.50000000000001);
#104=VECTOR('',#314,3.50000000000001);
#105=VECTOR('',#317,13.);
#106=VERTEX_POINT('',#320);
#107=VERTEX_POINT('',#321);
#108=VERTEX_POINT('',#323);
#109=VERTEX_POINT('',#325);
#110=VERTEX_POINT('',#328);
#111=VERTEX_POINT('',#330);
#112=VERTEX_POINT('',#332);
#113=VERTEX_POINT('',#334);
#114=VERTEX_POINT('',#336);
#115=VERTEX_POINT('',#339);
#116=VERTEX_POINT('',#340);
#117=VERTEX_POINT('',#342);
#118=VERTEX_POINT('',#344);
#119=VERTEX_POINT('',#347);
#120=VERTEX_POINT('',#349);
#121=VERTEX_POINT('',#351);
#122=VERTEX_POINT('',#353);
#123=VERTEX_POINT('',#355);
#124=EDGE_CURVE('',#106,#107,#72,.T.);
#125=EDGE_CURVE('',#107,#108,#73,.T.);
#126=EDGE_CURVE('',#108,#109,#74,.T.);
#127=EDGE_CURVE('',#109,#106,#75,.T.);
#128=EDGE_CURVE('',#110,#110,#30,.T.);
#129=EDGE_CURVE('',#111,#111,#31,.T.);
#130=EDGE_CURVE('',#112,#112,#32,.T.);
#131=EDGE_CURVE('',#113,#113,#33,.T.);
#132=EDGE_CURVE('',#114,#114,#34,.F.);
#133=EDGE_CURVE('',#115,#116,#76,.T.);
#134=EDGE_CURVE('',#117,#115,#77,.T.);
#135=EDGE_CURVE('',#118,#117,#78,.T.);
#136=EDGE_CURVE('',#116,#118,#79,.T.);
#137=EDGE_CURVE('',#119,#119,#35,.T.);
#138=EDGE_CURVE('',#120,#120,#36,.T.);
#139=EDGE_CURVE('',#121,#121,#37,.F.);
#140=EDGE_CURVE('',#122,#122,#38,.T.);
#141=EDGE_CURVE('',#123,#123,#39,.T.);
#142=EDGE_CURVE('',#107,#116,#80,.T.);
#143=EDGE_CURVE('',#106,#115,#81,.T.);
#144=EDGE_CURVE('',#108,#118,#82,.T.);
#145=EDGE_CURVE('',#109,#117,#83,.T.);
#146=EDGE_CURVE('',#110,#123,#84,.T.);
#147=EDGE_CURVE('',#111,#119,#85,.T.);
#148=EDGE_CURVE('',#112,#122,#86,.T.);
#149=EDGE_CURVE('',#113,#120,#87,.T.);
#150=EDGE_CURVE('',#121,#114,#88,.T.);
#151=ORIENTED_EDGE('',*,*,#124,.T.);
#152=ORIENTED_EDGE('',*,*,#125,.T.);
#153=ORIENTED_EDGE('',*,*,#126,.T.);
#154=ORIENTED_EDGE('',*,*,#127,.T.);
#155=ORIENTED_EDGE('',*,*,#128,.F.);
#156=ORIENTED_EDGE('',*,*,#129,.F.);
#157=ORIENTED_EDGE('',*,*,#130,.F.);
#158=ORIENTED_EDGE('',*,*,#131,.F.);
#159=ORIENTED_EDGE('',*,*,#132,.F.);
#160=ORIENTED_EDGE('',*,*,#133,.F.);
#161=ORIENTED_EDGE('',*,*,#134,.F.);
#162=ORIENTED_EDGE('',*,*,#135,.F.);
#163=ORIENTED_EDGE('',*,*,#136,.F.);
#164=ORIENTED_EDGE('',*,*,#137,.T.);
#165=ORIENTED_EDGE('',*,*,#138,.T.);
#166=ORIENTED_EDGE('',*,*,#139,.F.);
#167=ORIENTED_EDGE('',*,*,#140,.T.);
#168=ORIENTED_EDGE('',*,*,#141,.T.);
#169=ORIENTED_EDGE('',*,*,#133,.T.);
#170=ORIENTED_EDGE('',*,*,#142,.F.);
#171=ORIENTED_EDGE('',*,*,#124,.F.);
#172=ORIENTED_EDGE('',*,*,#143,.T.);
#173=ORIENTED_EDGE('',*,*,#136,.T.);
#174=ORIENTED_EDGE('',*,*,#144,.F.);
#175=ORIENTED_EDGE('',*,*,#125,.F.);
#176=ORIENTED_EDGE('',*,*,#142,.T.);
#177=ORIENTED_EDGE('',*,*,#135,.T.);
#178=ORIENTED_EDGE('',*,*,#145,.F.);
#179=ORIENTED_EDGE('',*,*,#126,.F.);
#180=ORIENTED_EDGE('',*,*,#144,.T.);
#181=ORIENTED_EDGE('',*,*,#134,.T.);
#182=ORIENTED_EDGE('',*,*,#143,.F.);
#183=ORIENTED_EDGE('',*,*,#127,.F.);
#184=ORIENTED_EDGE('',*,*,#145,.T.);
#185=ORIENTED_EDGE('',*,*,#128,.T.);
#186=ORIENTED_EDGE('',*,*,#146,.T.);
#187=ORIENTED_EDGE('',*,*,#141,.F.);
#188=ORIENTED_EDGE('',*,*,#146,.F.);
#189=ORIENTED_EDGE('',*,*,#129,.T.);
#190=ORIENTED_EDGE('',*,*,#147,.T.);
#191=ORIENTED_EDGE('',*,*,#137,.F.);
#192=ORIENTED_EDGE('',*,*,#147,.F.);
#193=ORIENTED_EDGE('',*,*,#130,.T.);
#194=ORIENTED_EDGE('',*,*,#148,.T.);
#195=ORIENTED_EDGE('',*,*,#140,.F.);
#196=ORIENTED_EDGE('',*,*,#148,.F.);
#197=ORIENTED_EDGE('',*,*,#131,.T.);
#198=ORIENTED_EDGE('',*,*,#149,.T.);
#199=ORIENTED_EDGE('',*,*,#138,.F.);
#200=ORIENTED_EDGE('',*,*,#149,.F.);
#201=ORIENTED_EDGE('',*,*,#139,.T.);
#202=ORIENTED_EDGE('',*,*,#150,.T.);
#203=ORIENTED_EDGE('',*,*,#132,.T.);
#204=ORIENTED_EDGE('',*,*,#150,.F.);
#205=PLANE('',#236);
#206=PLANE('',#242);
#207=PLANE('',#248);
#208=PLANE('',#249);
#209=PLANE('',#250);
#210=PLANE('',#251);
#211=ADVANCED_FACE('',(#40,#20,#21,#22,#23,#24),#205,.F.);
#212=ADVANCED_FACE('',(#41,#25,#26,#27,#28,#29),#206,.T.);
#213=ADVANCED_FACE('',(#42),#207,.F.);
#214=ADVANCED_FACE('',(#43),#208,.F.);
#215=ADVANCED_FACE('',(#44),#209,.F.);
#216=ADVANCED_FACE('',(#45),#210,.F.);
#217=ADVANCED_FACE('',(#46),#16,.F.);
#218=ADVANCED_FACE('',(#47),#17,.F.);
#219=ADVANCED_FACE('',(#48),#18,.F.);
#220=ADVANCED_FACE('',(#49),#19,.F.);
#221=ADVANCED_FACE('',(#50),#15,.F.);
#222=CLOSED_SHELL('',(#211,#212,#213,#214,#215,#216,#217,#218,#219,#220,
#221));
#223=DERIVED_UNIT_ELEMENT(#225,1.);
#224=DERIVED_UNIT_ELEMENT(#380,-3.);
#225=(
MASS_UNIT()
NAMED_UNIT(*)
SI_UNIT(.KILO.,.GRAM.)
);
#226=DERIVED_UNIT((#223,#224));
#227=MEASURE_REPRESENTATION_ITEM('density measure',
POSITIVE_RATIO_MEASURE(2700.),#226);
#228=PROPERTY_DEFINITION_REPRESENTATION(#233,#230);
#229=PROPERTY_DEFINITION_REPRESENTATION(#234,#231);
#230=REPRESENTATION('material name',(#232),#377);
#231=REPRESENTATION('density',(#227),#377);
#232=DESCRIPTIVE_REPRESENTATION_ITEM('6061-O (SS)','6061-O (SS)');
#233=PROPERTY_DEFINITION('material property','material name',#387);
#234=PROPERTY_DEFINITION('material property','density of part',#387);
#235=AXIS2_PLACEMENT_3D('',#318,#257,#258);
#236=AXIS2_PLACEMENT_3D('',#319,#259,#260);
#237=AXIS2_PLACEMENT_3D('',#329,#265,#266);
#238=AXIS2_PLACEMENT_3D('',#331,#267,#268);
#239=AXIS2_PLACEMENT_3D('',#333,#269,#270);
#240=AXIS2_PLACEMENT_3D('',#335,#271,#272);
#241=AXIS2_PLACEMENT_3D('',#337,#273,#274);
#242=AXIS2_PLACEMENT_3D('',#338,#275,#276);
#243=AXIS2_PLACEMENT_3D('',#348,#281,#282);
#244=AXIS2_PLACEMENT_3D('',#350,#283,#284);
#245=AXIS2_PLACEMENT_3D('',#352,#285,#286);
#246=AXIS2_PLACEMENT_3D('',#354,#287,#288);
#247=AXIS2_PLACEMENT_3D('',#356,#289,#290);
#248=AXIS2_PLACEMENT_3D('',#357,#291,#292);
#249=AXIS2_PLACEMENT_3D('',#360,#295,#296);
#250=AXIS2_PLACEMENT_3D('',#362,#298,#299);
#251=AXIS2_PLACEMENT_3D('',#364,#301,#302);
#252=AXIS2_PLACEMENT_3D('',#365,#303,#304);
#253=AXIS2_PLACEMENT_3D('',#367,#306,#307);
#254=AXIS2_PLACEMENT_3D('',#369,#309,#310);
#255=AXIS2_PLACEMENT_3D('',#371,#312,#313);
#256=AXIS2_PLACEMENT_3D('',#373,#315,#316);
#257=DIRECTION('axis',(0.,0.,1.));
#258=DIRECTION('refdir',(1.,0.,0.));
#259=DIRECTION('center_axis',(0.,0.,-1.));
#260=DIRECTION('ref_axis',(-1.,0.,0.));
#261=DIRECTION('',(0.,-1.,0.));
#262=DIRECTION('',(1.,0.,0.));
#263=DIRECTION('',(0.,1.,0.));
#264=DIRECTION('',(-1.,0.,0.));
#265=DIRECTION('center_axis',(0.,0.,1.));
#266=DIRECTION('ref_axis',(1.,0.,0.));
#267=DIRECTION('center_axis',(0.,0.,1.));
#268=DIRECTION('ref_axis',(1.,0.,0.));
#269=DIRECTION('center_axis',(0.,0.,1.));
#270=DIRECTION('ref_axis',(1.,0.,0.));
#271=DIRECTION('center_axis',(0.,0.,1.));
#272=DIRECTION('ref_axis',(1.,0.,0.));
#273=DIRECTION('center_axis',(0.,0.,-1.));
#274=DIRECTION('ref_axis',(-0.809016994374948,-0.587785252292473,0.));
#275=DIRECTION('center_axis',(0.,0.,-1.));
#276=DIRECTION('ref_axis',(-1.,0.,0.));
#277=DIRECTION('',(0.,-1.,0.));
#278=DIRECTION('',(-1.,0.,0.));
#279=DIRECTION('',(0.,1.,0.));
#280=DIRECTION('',(1.,0.,0.));
#281=DIRECTION('center_axis',(0.,0.,1.));
#282=DIRECTION('ref_axis',(1.,0.,0.));
#283=DIRECTION('center_axis',(0.,0.,1.));
#284=DIRECTION('ref_axis',(1.,0.,0.));
#285=DIRECTION('center_axis',(0.,0.,1.));
#286=DIRECTION('ref_axis',(0.809016994374947,-0.587785252292473,0.));
#287=DIRECTION('center_axis',(0.,0.,1.));
#288=DIRECTION('ref_axis',(1.,0.,0.));
#289=DIRECTION('center_axis',(0.,0.,1.));
#290=DIRECTION('ref_axis',(1.,0.,0.));
#291=DIRECTION('center_axis',(1.,0.,0.));
#292=DIRECTION('ref_axis',(0.,0.,-1.));
#293=DIRECTION('',(0.,0.,-1.));
#294=DIRECTION('',(0.,0.,-1.));
#295=DIRECTION('center_axis',(0.,1.,0.));
#296=DIRECTION('ref_axis',(0.,0.,1.));
#297=DIRECTION('',(0.,0.,-1.));
#298=DIRECTION('center_axis',(-1.,0.,0.));
#299=DIRECTION('ref_axis',(0.,0.,1.));
#300=DIRECTION('',(0.,0.,-1.));
#301=DIRECTION('center_axis',(0.,-1.,0.));
#302=DIRECTION('ref_axis',(0.,0.,-1.));
#303=DIRECTION('center_axis',(0.,0.,-1.));
#304=DIRECTION('ref_axis',(-1.,0.,0.));
#305=DIRECTION('',(0.,0.,-1.));
#306=DIRECTION('center_axis',(0.,0.,-1.));
#307=DIRECTION('ref_axis',(-1.,0.,0.));
#308=DIRECTION('',(0.,0.,-1.));
#309=DIRECTION('center_axis',(0.,0.,-1.));
#310=DIRECTION('ref_axis',(-1.,0.,0.));
#311=DIRECTION('',(0.,0.,-1.));
#312=DIRECTION('center_axis',(0.,0.,-1.));
#313=DIRECTION('ref_axis',(-1.,0.,0.));
#314=DIRECTION('',(0.,0.,-1.));
#315=DIRECTION('center_axis',(0.,0.,1.));
#316=DIRECTION('ref_axis',(1.,0.,0.));
#317=DIRECTION('',(-0.582518941428009,-7.13379957062515E-17,0.812817127573966));
#318=CARTESIAN_POINT('',(0.,0.,0.));
#319=CARTESIAN_POINT('Origin',(0.,0.,30.));
#320=CARTESIAN_POINT('',(-60.,42.5,30.));
#321=CARTESIAN_POINT('',(-60.,-42.5,30.));
#322=CARTESIAN_POINT('',(-60.,42.5,30.));
#323=CARTESIAN_POINT('',(60.,-42.5,30.));
#324=CARTESIAN_POINT('',(-60.,-42.5,30.));
#325=CARTESIAN_POINT('',(60.,42.5,30.));
#326=CARTESIAN_POINT('',(60.,-42.5,30.));
#327=CARTESIAN_POINT('',(60.,42.5,30.));
#328=CARTESIAN_POINT('',(53.5000000000001,-33.5,30.));
#329=CARTESIAN_POINT('Origin',(50.,-33.5,30.));
#330=CARTESIAN_POINT('',(-46.5,-33.5,30.));
#331=CARTESIAN_POINT('Origin',(-50.,-33.5,30.));
#332=CARTESIAN_POINT('',(-46.5,33.5,30.));
#333=CARTESIAN_POINT('Origin',(-50.,33.5,30.));
#334=CARTESIAN_POINT('',(53.5000000000001,33.5,30.));
#335=CARTESIAN_POINT('Origin',(50.,33.5,30.));
#336=CARTESIAN_POINT('',(-34.5,1.26750943711751E-14,30.));
#337=CARTESIAN_POINT('Origin',(0.,6.43821277248262E-15,30.));
#338=CARTESIAN_POINT('Origin',(0.,0.,0.));
#339=CARTESIAN_POINT('',(-60.,42.5,0.));
#340=CARTESIAN_POINT('',(-60.,-42.5,0.));
#341=CARTESIAN_POINT('',(-60.,42.5,0.));
#342=CARTESIAN_POINT('',(60.,42.5,0.));
#343=CARTESIAN_POINT('',(60.,42.5,0.));
#344=CARTESIAN_POINT('',(60.,-42.5,0.));
#345=CARTESIAN_POINT('',(60.,-42.5,0.));
#346=CARTESIAN_POINT('',(-60.,-42.5,0.));
#347=CARTESIAN_POINT('',(-46.5,-33.5,0.));
#348=CARTESIAN_POINT('Origin',(-50.,-33.5,0.));
#349=CARTESIAN_POINT('',(53.5000000000001,33.5,0.));
#350=CARTESIAN_POINT('Origin',(50.,33.5,0.));
#351=CARTESIAN_POINT('',(-13.,-1.59204083889156E-15,-4.34644688370069E-16));
#352=CARTESIAN_POINT('Origin',(-2.22044604925031E-15,-1.87141644501731E-15,
1.05133984346959E-15));
#353=CARTESIAN_POINT('',(-46.5,33.5,0.));
#354=CARTESIAN_POINT('Origin',(-50.,33.5,0.));
#355=CARTESIAN_POINT('',(53.5000000000001,-33.5,0.));
#356=CARTESIAN_POINT('Origin',(50.,-33.5,0.));
#357=CARTESIAN_POINT('Origin',(-60.,42.5,30.));
#358=CARTESIAN_POINT('',(-60.,-42.5,30.));
#359=CARTESIAN_POINT('',(-60.,42.5,30.));
#360=CARTESIAN_POINT('Origin',(60.,-42.5,30.));
#361=CARTESIAN_POINT('',(60.,-42.5,30.));
#362=CARTESIAN_POINT('Origin',(60.,42.5,30.));
#363=CARTESIAN_POINT('',(60.,42.5,30.));
#364=CARTESIAN_POINT('Origin',(60.,42.5,30.));
#365=CARTESIAN_POINT('Origin',(50.,-33.5,30.));
#366=CARTESIAN_POINT('',(53.5,-33.5,30.));
#367=CARTESIAN_POINT('Origin',(-50.,-33.5,30.));
#368=CARTESIAN_POINT('',(-46.5,-33.5,30.));
#369=CARTESIAN_POINT('Origin',(-50.,33.5,30.));
#370=CARTESIAN_POINT('',(-46.5,33.5,30.));
#371=CARTESIAN_POINT('Origin',(50.,33.5,30.));
#372=CARTESIAN_POINT('',(53.5,33.5,30.));
#373=CARTESIAN_POINT('Origin',(0.,0.,0.));
#374=CARTESIAN_POINT('',(-13.,-1.59204083889156E-15,0.));
#375=UNCERTAINTY_MEASURE_WITH_UNIT(LENGTH_MEASURE(0.01),#379,
'DISTANCE_ACCURACY_VALUE',
'Maximum model space distance between geometric entities at asserted c
onnectivities');
#376=UNCERTAINTY_MEASURE_WITH_UNIT(LENGTH_MEASURE(0.01),#379,
'DISTANCE_ACCURACY_VALUE',
'Maximum model space distance between geometric entities at asserted c
onnectivities');
#377=(
GEOMETRIC_REPRESENTATION_CONTEXT(3)
GLOBAL_UNCERTAINTY_ASSIGNED_CONTEXT((#375))
GLOBAL_UNIT_ASSIGNED_CONTEXT((#379,#381,#382))
REPRESENTATION_CONTEXT('','3D')
);
#378=(
GEOMETRIC_REPRESENTATION_CONTEXT(3)
GLOBAL_UNCERTAINTY_ASSIGNED_CONTEXT((#376))
GLOBAL_UNIT_ASSIGNED_CONTEXT((#379,#381,#382))
REPRESENTATION_CONTEXT('','3D')
);
#379=(
LENGTH_UNIT()
NAMED_UNIT(*)
SI_UNIT(.MILLI.,.METRE.)
);
#380=(
LENGTH_UNIT()
NAMED_UNIT(*)
SI_UNIT($,.METRE.)
);
#381=(
NAMED_UNIT(*)
PLANE_ANGLE_UNIT()
SI_UNIT($,.RADIAN.)
);
#382=(
NAMED_UNIT(*)
SI_UNIT($,.STERADIAN.)
SOLID_ANGLE_UNIT()
);
#383=SHAPE_DEFINITION_REPRESENTATION(#384,#385);
#384=PRODUCT_DEFINITION_SHAPE('',$,#387);
#385=SHAPE_REPRESENTATION('',(#235),#377);
#386=PRODUCT_DEFINITION_CONTEXT('part definition',#391,'design');
#387=PRODUCT_DEFINITION('511_HopperMount-Reserve',
'511_HopperMount-Reserve v1',#388,#386);
#388=PRODUCT_DEFINITION_FORMATION('',$,#393);
#389=PRODUCT_RELATED_PRODUCT_CATEGORY('511_HopperMount-Reserve v1',
'511_HopperMount-Reserve v1',(#393));
#390=APPLICATION_PROTOCOL_DEFINITION('international standard',
'automotive_design',2009,#391);
#391=APPLICATION_CONTEXT(
'Core Data for Automotive Mechanical Design Process');
#392=PRODUCT_CONTEXT('part definition',#391,'mechanical');
#393=PRODUCT('511_HopperMount-Reserve','511_HopperMount-Reserve v1',$,(#392));
#394=PRESENTATION_STYLE_ASSIGNMENT((#395));
#395=SURFACE_STYLE_USAGE(.BOTH.,#396);
#396=SURFACE_SIDE_STYLE('',(#397));
#397=SURFACE_STYLE_FILL_AREA(#398);
#398=FILL_AREA_STYLE('Steel - Satin',(#399));
#399=FILL_AREA_STYLE_COLOUR('Steel - Satin',#400);
#400=COLOUR_RGB('Steel - Satin',0.627450980392157,0.627450980392157,0.627450980392157);
ENDSEC;
END-ISO-10303-21;
