ISO-10303-21;
HEADER;
/* Generated by software containing ST-Developer
 * from STEP Tools, Inc. (www.steptools.com) 
 */

FILE_DESCRIPTION(
/* description */ (''),
/* implementation_level */ '2;1');

FILE_NAME(
/* name */ '30302-J2-SKF-Block v1.step',
/* time_stamp */ '2026-03-14T09:18:39+01:00',
/* author */ (''),
/* organization */ (''),
/* preprocessor_version */ 'ST-DEVELOPER v20.1',
/* originating_system */ 'Autodesk Translation Framework v14.24.0.0',
/* authorisation */ '');

FILE_SCHEMA (('AUTOMOTIVE_DESIGN { 1 0 10303 214 3 1 1 }'));
ENDSEC;

DATA;
#10=MECHANICAL_DESIGN_GEOMETRIC_PRESENTATION_REPRESENTATION('',(#13),#228);
#11=SHAPE_REPRESENTATION_RELATIONSHIP('SRR','None',#235,#12);
#12=ADVANCED_BREP_SHAPE_REPRESENTATION('',(#14),#227);
#13=STYLED_ITEM('',(#244),#14);
#14=MANIFOLD_SOLID_BREP('Body1',#132);
#15=FACE_BOUND('',#37,.T.);
#16=PLANE('',#149);
#17=PLANE('',#150);
#18=PLANE('',#151);
#19=PLANE('',#152);
#20=PLANE('',#153);
#21=PLANE('',#154);
#22=PLANE('',#155);
#23=FACE_OUTER_BOUND('',#31,.T.);
#24=FACE_OUTER_BOUND('',#32,.T.);
#25=FACE_OUTER_BOUND('',#33,.T.);
#26=FACE_OUTER_BOUND('',#34,.T.);
#27=FACE_OUTER_BOUND('',#35,.T.);
#28=FACE_OUTER_BOUND('',#36,.T.);
#29=FACE_OUTER_BOUND('',#38,.T.);
#30=FACE_OUTER_BOUND('',#39,.T.);
#31=EDGE_LOOP('',(#93,#94,#95,#96));
#32=EDGE_LOOP('',(#97,#98,#99,#100));
#33=EDGE_LOOP('',(#101,#102,#103,#104));
#34=EDGE_LOOP('',(#105,#106,#107,#108));
#35=EDGE_LOOP('',(#109,#110,#111,#112));
#36=EDGE_LOOP('',(#113,#114,#115,#116));
#37=EDGE_LOOP('',(#117));
#38=EDGE_LOOP('',(#118,#119,#120,#121));
#39=EDGE_LOOP('',(#122));
#40=LINE('',#196,#53);
#41=LINE('',#201,#54);
#42=LINE('',#203,#55);
#43=LINE('',#205,#56);
#44=LINE('',#206,#57);
#45=LINE('',#209,#58);
#46=LINE('',#211,#59);
#47=LINE('',#212,#60);
#48=LINE('',#215,#61);
#49=LINE('',#217,#62);
#50=LINE('',#218,#63);
#51=LINE('',#220,#64);
#52=LINE('',#221,#65);
#53=VECTOR('',#162,21.);
#54=VECTOR('',#167,100.);
#55=VECTOR('',#168,40.);
#56=VECTOR('',#169,100.);
#57=VECTOR('',#170,40.);
#58=VECTOR('',#173,60.);
#59=VECTOR('',#174,40.);
#60=VECTOR('',#175,60.);
#61=VECTOR('',#178,100.);
#62=VECTOR('',#179,40.);
#63=VECTOR('',#180,100.);
#64=VECTOR('',#183,60.);
#65=VECTOR('',#184,60.);
#66=CIRCLE('',#147,21.);
#67=CIRCLE('',#148,21.);
#68=VERTEX_POINT('',#193);
#69=VERTEX_POINT('',#195);
#70=VERTEX_POINT('',#199);
#71=VERTEX_POINT('',#200);
#72=VERTEX_POINT('',#202);
#73=VERTEX_POINT('',#204);
#74=VERTEX_POINT('',#208);
#75=VERTEX_POINT('',#210);
#76=VERTEX_POINT('',#214);
#77=VERTEX_POINT('',#216);
#78=EDGE_CURVE('',#68,#68,#66,.T.);
#79=EDGE_CURVE('',#68,#69,#40,.T.);
#80=EDGE_CURVE('',#69,#69,#67,.F.);
#81=EDGE_CURVE('',#70,#71,#41,.T.);
#82=EDGE_CURVE('',#72,#70,#42,.T.);
#83=EDGE_CURVE('',#72,#73,#43,.T.);
#84=EDGE_CURVE('',#73,#71,#44,.T.);
#85=EDGE_CURVE('',#74,#70,#45,.T.);
#86=EDGE_CURVE('',#75,#74,#46,.T.);
#87=EDGE_CURVE('',#75,#72,#47,.T.);
#88=EDGE_CURVE('',#76,#74,#48,.T.);
#89=EDGE_CURVE('',#77,#76,#49,.T.);
#90=EDGE_CURVE('',#77,#75,#50,.T.);
#91=EDGE_CURVE('',#71,#76,#51,.T.);
#92=EDGE_CURVE('',#73,#77,#52,.T.);
#93=ORIENTED_EDGE('',*,*,#78,.F.);
#94=ORIENTED_EDGE('',*,*,#79,.T.);
#95=ORIENTED_EDGE('',*,*,#80,.F.);
#96=ORIENTED_EDGE('',*,*,#79,.F.);
#97=ORIENTED_EDGE('',*,*,#81,.F.);
#98=ORIENTED_EDGE('',*,*,#82,.F.);
#99=ORIENTED_EDGE('',*,*,#83,.T.);
#100=ORIENTED_EDGE('',*,*,#84,.T.);
#101=ORIENTED_EDGE('',*,*,#85,.F.);
#102=ORIENTED_EDGE('',*,*,#86,.F.);
#103=ORIENTED_EDGE('',*,*,#87,.T.);
#104=ORIENTED_EDGE('',*,*,#82,.T.);
#105=ORIENTED_EDGE('',*,*,#88,.F.);
#106=ORIENTED_EDGE('',*,*,#89,.F.);
#107=ORIENTED_EDGE('',*,*,#90,.T.);
#108=ORIENTED_EDGE('',*,*,#86,.T.);
#109=ORIENTED_EDGE('',*,*,#91,.F.);
#110=ORIENTED_EDGE('',*,*,#84,.F.);
#111=ORIENTED_EDGE('',*,*,#92,.T.);
#112=ORIENTED_EDGE('',*,*,#89,.T.);
#113=ORIENTED_EDGE('',*,*,#83,.F.);
#114=ORIENTED_EDGE('',*,*,#87,.F.);
#115=ORIENTED_EDGE('',*,*,#90,.F.);
#116=ORIENTED_EDGE('',*,*,#92,.F.);
#117=ORIENTED_EDGE('',*,*,#78,.T.);
#118=ORIENTED_EDGE('',*,*,#81,.T.);
#119=ORIENTED_EDGE('',*,*,#91,.T.);
#120=ORIENTED_EDGE('',*,*,#88,.T.);
#121=ORIENTED_EDGE('',*,*,#85,.T.);
#122=ORIENTED_EDGE('',*,*,#80,.T.);
#123=CYLINDRICAL_SURFACE('',#146,21.);
#124=ADVANCED_FACE('',(#23),#123,.F.);
#125=ADVANCED_FACE('',(#24),#16,.T.);
#126=ADVANCED_FACE('',(#25),#17,.T.);
#127=ADVANCED_FACE('',(#26),#18,.T.);
#128=ADVANCED_FACE('',(#27),#19,.T.);
#129=ADVANCED_FACE('',(#28,#15),#20,.F.);
#130=ADVANCED_FACE('',(#29),#21,.T.);
#131=ADVANCED_FACE('',(#30),#22,.F.);
#132=CLOSED_SHELL('',(#124,#125,#126,#127,#128,#129,#130,#131));
#133=DERIVED_UNIT_ELEMENT(#135,1.);
#134=DERIVED_UNIT_ELEMENT(#230,-3.);
#135=(
MASS_UNIT()
NAMED_UNIT(*)
SI_UNIT(.KILO.,.GRAM.)
);
#136=DERIVED_UNIT((#133,#134));
#137=MEASURE_REPRESENTATION_ITEM('density measure',
POSITIVE_RATIO_MEASURE(7850.),#136);
#138=PROPERTY_DEFINITION_REPRESENTATION(#143,#140);
#139=PROPERTY_DEFINITION_REPRESENTATION(#144,#141);
#140=REPRESENTATION('material name',(#142),#227);
#141=REPRESENTATION('density',(#137),#227);
#142=DESCRIPTIVE_REPRESENTATION_ITEM('Steel','Steel');
#143=PROPERTY_DEFINITION('material property','material name',#237);
#144=PROPERTY_DEFINITION('material property','density of part',#237);
#145=AXIS2_PLACEMENT_3D('',#191,#156,#157);
#146=AXIS2_PLACEMENT_3D('',#192,#158,#159);
#147=AXIS2_PLACEMENT_3D('',#194,#160,#161);
#148=AXIS2_PLACEMENT_3D('',#197,#163,#164);
#149=AXIS2_PLACEMENT_3D('',#198,#165,#166);
#150=AXIS2_PLACEMENT_3D('',#207,#171,#172);
#151=AXIS2_PLACEMENT_3D('',#213,#176,#177);
#152=AXIS2_PLACEMENT_3D('',#219,#181,#182);
#153=AXIS2_PLACEMENT_3D('',#222,#185,#186);
#154=AXIS2_PLACEMENT_3D('',#223,#187,#188);
#155=AXIS2_PLACEMENT_3D('',#224,#189,#190);
#156=DIRECTION('axis',(0.,0.,1.));
#157=DIRECTION('refdir',(1.,0.,0.));
#158=DIRECTION('center_axis',(0.,0.,-1.));
#159=DIRECTION('ref_axis',(-1.,0.,0.));
#160=DIRECTION('center_axis',(0.,0.,-1.));
#161=DIRECTION('ref_axis',(-1.,0.,0.));
#162=DIRECTION('',(0.,0.,-1.));
#163=DIRECTION('center_axis',(0.,0.,-1.));
#164=DIRECTION('ref_axis',(-1.,0.,0.));
#165=DIRECTION('center_axis',(0.,-1.,0.));
#166=DIRECTION('ref_axis',(0.,0.,-1.));
#167=DIRECTION('',(-1.,0.,0.));
#168=DIRECTION('',(0.,0.,-1.));
#169=DIRECTION('',(-1.,0.,0.));
#170=DIRECTION('',(0.,0.,-1.));
#171=DIRECTION('center_axis',(1.,-1.15648231731787E-16,0.));
#172=DIRECTION('ref_axis',(0.,0.,-1.));
#173=DIRECTION('',(0.,-1.,0.));
#174=DIRECTION('',(0.,0.,-1.));
#175=DIRECTION('',(0.,-1.,0.));
#176=DIRECTION('center_axis',(6.93889390390723E-17,1.,0.));
#177=DIRECTION('ref_axis',(0.,0.,1.));
#178=DIRECTION('',(1.,-8.88178419700125E-17,0.));
#179=DIRECTION('',(0.,0.,-1.));
#180=DIRECTION('',(1.,-8.88178419700125E-17,0.));
#181=DIRECTION('center_axis',(-1.,1.15648231731787E-16,0.));
#182=DIRECTION('ref_axis',(0.,0.,1.));
#183=DIRECTION('',(1.48029736616688E-16,1.,0.));
#184=DIRECTION('',(1.48029736616688E-16,1.,0.));
#185=DIRECTION('center_axis',(0.,0.,-1.));
#186=DIRECTION('ref_axis',(-1.,0.,0.));
#187=DIRECTION('center_axis',(0.,0.,-1.));
#188=DIRECTION('ref_axis',(-1.,0.,0.));
#189=DIRECTION('center_axis',(0.,0.,-1.));
#190=DIRECTION('ref_axis',(-1.,0.,0.));
#191=CARTESIAN_POINT('',(0.,0.,0.));
#192=CARTESIAN_POINT('Origin',(-5.220369526,32.082611573,29.5));
#193=CARTESIAN_POINT('',(15.779630474,32.082611573,29.5));
#194=CARTESIAN_POINT('Origin',(-5.220369526,32.082611573,29.5));
#195=CARTESIAN_POINT('',(15.779630474,32.082611573,-0.500000000000003));
#196=CARTESIAN_POINT('',(15.779630474,32.082611573,29.5));
#197=CARTESIAN_POINT('Origin',(-5.220369526,32.082611573,-0.5));
#198=CARTESIAN_POINT('Origin',(44.779630474,0.0826115729999979,29.5));
#199=CARTESIAN_POINT('',(44.779630474,0.0826115729999979,-10.5));
#200=CARTESIAN_POINT('',(-55.220369526,0.0826115729999979,-10.5));
#201=CARTESIAN_POINT('',(44.779630474,0.0826115729999979,-10.5));
#202=CARTESIAN_POINT('',(44.779630474,0.0826115729999979,29.5));
#203=CARTESIAN_POINT('',(44.779630474,0.0826115729999979,29.5));
#204=CARTESIAN_POINT('',(-55.220369526,0.0826115729999979,29.5));
#205=CARTESIAN_POINT('',(44.779630474,0.0826115729999979,29.5));
#206=CARTESIAN_POINT('',(-55.220369526,0.0826115729999979,29.5));
#207=CARTESIAN_POINT('Origin',(44.779630474,60.082611573,29.5));
#208=CARTESIAN_POINT('',(44.779630474,60.082611573,-10.5));
#209=CARTESIAN_POINT('',(44.779630474,60.082611573,-10.5));
#210=CARTESIAN_POINT('',(44.779630474,60.082611573,29.5));
#211=CARTESIAN_POINT('',(44.779630474,60.082611573,29.5));
#212=CARTESIAN_POINT('',(44.779630474,60.082611573,29.5));
#213=CARTESIAN_POINT('Origin',(-55.220369526,60.082611573,29.5));
#214=CARTESIAN_POINT('',(-55.220369526,60.082611573,-10.5));
#215=CARTESIAN_POINT('',(-55.220369526,60.082611573,-10.5));
#216=CARTESIAN_POINT('',(-55.220369526,60.082611573,29.5));
#217=CARTESIAN_POINT('',(-55.220369526,60.082611573,29.5));
#218=CARTESIAN_POINT('',(-55.220369526,60.082611573,29.5));
#219=CARTESIAN_POINT('Origin',(-55.220369526,0.0826115729999979,29.5));
#220=CARTESIAN_POINT('',(-55.220369526,0.0826115729999979,-10.5));
#221=CARTESIAN_POINT('',(-55.220369526,0.0826115729999979,29.5));
#222=CARTESIAN_POINT('Origin',(0.,0.,29.5));
#223=CARTESIAN_POINT('Origin',(0.,0.,-10.5));
#224=CARTESIAN_POINT('Origin',(-5.220369526,32.082611573,-0.5));
#225=UNCERTAINTY_MEASURE_WITH_UNIT(LENGTH_MEASURE(0.01),#229,
'DISTANCE_ACCURACY_VALUE',
'Maximum model space distance between geometric entities at asserted c
onnectivities');
#226=UNCERTAINTY_MEASURE_WITH_UNIT(LENGTH_MEASURE(0.01),#229,
'DISTANCE_ACCURACY_VALUE',
'Maximum model space distance between geometric entities at asserted c
onnectivities');
#227=(
GEOMETRIC_REPRESENTATION_CONTEXT(3)
GLOBAL_UNCERTAINTY_ASSIGNED_CONTEXT((#225))
GLOBAL_UNIT_ASSIGNED_CONTEXT((#229,#231,#232))
REPRESENTATION_CONTEXT('','3D')
);
#228=(
GEOMETRIC_REPRESENTATION_CONTEXT(3)
GLOBAL_UNCERTAINTY_ASSIGNED_CONTEXT((#226))
GLOBAL_UNIT_ASSIGNED_CONTEXT((#229,#231,#232))
REPRESENTATION_CONTEXT('','3D')
);
#229=(
LENGTH_UNIT()
NAMED_UNIT(*)
SI_UNIT(.MILLI.,.METRE.)
);
#230=(
LENGTH_UNIT()
NAMED_UNIT(*)
SI_UNIT($,.METRE.)
);
#231=(
NAMED_UNIT(*)
PLANE_ANGLE_UNIT()
SI_UNIT($,.RADIAN.)
);
#232=(
NAMED_UNIT(*)
SI_UNIT($,.STERADIAN.)
SOLID_ANGLE_UNIT()
);
#233=SHAPE_DEFINITION_REPRESENTATION(#234,#235);
#234=PRODUCT_DEFINITION_SHAPE('',$,#237);
#235=SHAPE_REPRESENTATION('',(#145),#227);
#236=PRODUCT_DEFINITION_CONTEXT('part definition',#241,'design');
#237=PRODUCT_DEFINITION('30302-J2-SKF-Block','30302-J2-SKF-Block v1',#238,
#236);
#238=PRODUCT_DEFINITION_FORMATION('',$,#243);
#239=PRODUCT_RELATED_PRODUCT_CATEGORY('30302-J2-SKF-Block v1',
'30302-J2-SKF-Block v1',(#243));
#240=APPLICATION_PROTOCOL_DEFINITION('international standard',
'automotive_design',2009,#241);
#241=APPLICATION_CONTEXT(
'Core Data for Automotive Mechanical Design Process');
#242=PRODUCT_CONTEXT('part definition',#241,'mechanical');
#243=PRODUCT('30302-J2-SKF-Block','30302-J2-SKF-Block v1',$,(#242));
#244=PRESENTATION_STYLE_ASSIGNMENT((#245));
#245=SURFACE_STYLE_USAGE(.BOTH.,#246);
#246=SURFACE_SIDE_STYLE('',(#247));
#247=SURFACE_STYLE_FILL_AREA(#248);
#248=FILL_AREA_STYLE('Steel - Satin',(#249));
#249=FILL_AREA_STYLE_COLOUR('Steel - Satin',#250);
#250=COLOUR_RGB('Steel - Satin',0.627450980392157,0.627450980392157,0.627450980392157);
ENDSEC;
END-ISO-10303-21;
