ISO-10303-21;
HEADER;
/* Generated by software containing ST-Developer
 * from STEP Tools, Inc. (www.steptools.com) 
 */

FILE_DESCRIPTION(
/* description */ (''),
/* implementation_level */ '2;1');

FILE_NAME(
/* name */ '511_HopperMount-Lower-85-120-80 v1.step',
/* time_stamp */ '2026-03-14T09:50:53+01:00',
/* author */ (''),
/* organization */ (''),
/* preprocessor_version */ 'ST-DEVELOPER v20.1',
/* originating_system */ 'Autodesk Translation Framework v14.24.0.0',
/* authorisation */ '');

FILE_SCHEMA (('AUTOMOTIVE_DESIGN { 1 0 10303 214 3 1 1 }'));
ENDSEC;

DATA;
#10=MECHANICAL_DESIGN_GEOMETRIC_PRESENTATION_REPRESENTATION('',(#13),#407);
#11=SHAPE_REPRESENTATION_RELATIONSHIP('SRR','None',#414,#12);
#12=ADVANCED_BREP_SHAPE_REPRESENTATION('',(#14),#406);
#13=STYLED_ITEM('',(#423),#14);
#14=MANIFOLD_SOLID_BREP('Body1',#239);
#15=CYLINDRICAL_SURFACE('',#270,3.50000000000001);
#16=CYLINDRICAL_SURFACE('',#271,3.50000000000001);
#17=CYLINDRICAL_SURFACE('',#272,3.50000000000001);
#18=CYLINDRICAL_SURFACE('',#273,3.50000000000001);
#19=CYLINDRICAL_SURFACE('',#274,30.025);
#20=FACE_BOUND('',#51,.T.);
#21=FACE_BOUND('',#52,.T.);
#22=FACE_BOUND('',#54,.T.);
#23=FACE_BOUND('',#55,.T.);
#24=FACE_BOUND('',#56,.T.);
#25=FACE_BOUND('',#57,.T.);
#26=FACE_BOUND('',#59,.T.);
#27=FACE_BOUND('',#60,.T.);
#28=CIRCLE('',#254,3.50000000000001);
#29=CIRCLE('',#255,3.50000000000001);
#30=CIRCLE('',#257,3.50000000000001);
#31=CIRCLE('',#258,3.50000000000001);
#32=CIRCLE('',#259,3.50000000000001);
#33=CIRCLE('',#260,3.50000000000001);
#34=CIRCLE('',#262,3.50000000000001);
#35=CIRCLE('',#263,3.50000000000001);
#36=CIRCLE('',#266,30.025);
#37=CIRCLE('',#269,30.025);
#38=FACE_OUTER_BOUND('',#50,.T.);
#39=FACE_OUTER_BOUND('',#53,.T.);
#40=FACE_OUTER_BOUND('',#58,.T.);
#41=FACE_OUTER_BOUND('',#61,.T.);
#42=FACE_OUTER_BOUND('',#62,.T.);
#43=FACE_OUTER_BOUND('',#63,.T.);
#44=FACE_OUTER_BOUND('',#64,.T.);
#45=FACE_OUTER_BOUND('',#65,.T.);
#46=FACE_OUTER_BOUND('',#66,.T.);
#47=FACE_OUTER_BOUND('',#67,.T.);
#48=FACE_OUTER_BOUND('',#68,.T.);
#49=FACE_OUTER_BOUND('',#69,.T.);
#50=EDGE_LOOP('',(#160,#161,#162,#163));
#51=EDGE_LOOP('',(#164));
#52=EDGE_LOOP('',(#165));
#53=EDGE_LOOP('',(#166,#167,#168,#169));
#54=EDGE_LOOP('',(#170));
#55=EDGE_LOOP('',(#171));
#56=EDGE_LOOP('',(#172));
#57=EDGE_LOOP('',(#173));
#58=EDGE_LOOP('',(#174,#175,#176,#177));
#59=EDGE_LOOP('',(#178));
#60=EDGE_LOOP('',(#179));
#61=EDGE_LOOP('',(#180,#181,#182,#183));
#62=EDGE_LOOP('',(#184,#185,#186,#187,#188,#189));
#63=EDGE_LOOP('',(#190,#191,#192,#193));
#64=EDGE_LOOP('',(#194,#195,#196,#197,#198,#199));
#65=EDGE_LOOP('',(#200,#201,#202,#203));
#66=EDGE_LOOP('',(#204,#205,#206,#207));
#67=EDGE_LOOP('',(#208,#209,#210,#211));
#68=EDGE_LOOP('',(#212,#213,#214,#215));
#69=EDGE_LOOP('',(#216,#217,#218,#219));
#70=LINE('',#345,#90);
#71=LINE('',#347,#91);
#72=LINE('',#349,#92);
#73=LINE('',#350,#93);
#74=LINE('',#358,#94);
#75=LINE('',#360,#95);
#76=LINE('',#362,#96);
#77=LINE('',#363,#97);
#78=LINE('',#375,#98);
#79=LINE('',#377,#99);
#80=LINE('',#379,#100);
#81=LINE('',#380,#101);
#82=LINE('',#386,#102);
#83=LINE('',#387,#103);
#84=LINE('',#390,#104);
#85=LINE('',#392,#105);
#86=LINE('',#396,#106);
#87=LINE('',#398,#107);
#88=LINE('',#400,#108);
#89=LINE('',#402,#109);
#90=VECTOR('',#279,85.);
#91=VECTOR('',#280,29.975);
#92=VECTOR('',#281,85.);
#93=VECTOR('',#282,29.975);
#94=VECTOR('',#289,85.);
#95=VECTOR('',#290,120.);
#96=VECTOR('',#291,85.);
#97=VECTOR('',#292,120.);
#98=VECTOR('',#303,85.);
#99=VECTOR('',#304,29.975);
#100=VECTOR('',#305,85.);
#101=VECTOR('',#306,29.975);
#102=VECTOR('',#313,40.);
#103=VECTOR('',#314,40.);
#104=VECTOR('',#319,40.);
#105=VECTOR('',#322,40.);
#106=VECTOR('',#329,3.50000000000001);
#107=VECTOR('',#332,3.50000000000001);
#108=VECTOR('',#335,3.50000000000001);
#109=VECTOR('',#338,3.50000000000001);
#110=VERTEX_POINT('',#343);
#111=VERTEX_POINT('',#344);
#112=VERTEX_POINT('',#346);
#113=VERTEX_POINT('',#348);
#114=VERTEX_POINT('',#351);
#115=VERTEX_POINT('',#353);
#116=VERTEX_POINT('',#356);
#117=VERTEX_POINT('',#357);
#118=VERTEX_POINT('',#359);
#119=VERTEX_POINT('',#361);
#120=VERTEX_POINT('',#364);
#121=VERTEX_POINT('',#366);
#122=VERTEX_POINT('',#368);
#123=VERTEX_POINT('',#370);
#124=VERTEX_POINT('',#373);
#125=VERTEX_POINT('',#374);
#126=VERTEX_POINT('',#376);
#127=VERTEX_POINT('',#378);
#128=VERTEX_POINT('',#381);
#129=VERTEX_POINT('',#383);
#130=EDGE_CURVE('',#110,#111,#70,.T.);
#131=EDGE_CURVE('',#112,#110,#71,.T.);
#132=EDGE_CURVE('',#113,#112,#72,.T.);
#133=EDGE_CURVE('',#111,#113,#73,.T.);
#134=EDGE_CURVE('',#114,#114,#28,.T.);
#135=EDGE_CURVE('',#115,#115,#29,.T.);
#136=EDGE_CURVE('',#116,#117,#74,.T.);
#137=EDGE_CURVE('',#117,#118,#75,.T.);
#138=EDGE_CURVE('',#118,#119,#76,.T.);
#139=EDGE_CURVE('',#119,#116,#77,.T.);
#140=EDGE_CURVE('',#120,#120,#30,.T.);
#141=EDGE_CURVE('',#121,#121,#31,.T.);
#142=EDGE_CURVE('',#122,#122,#32,.T.);
#143=EDGE_CURVE('',#123,#123,#33,.T.);
#144=EDGE_CURVE('',#124,#125,#78,.F.);
#145=EDGE_CURVE('',#126,#124,#79,.T.);
#146=EDGE_CURVE('',#127,#126,#80,.T.);
#147=EDGE_CURVE('',#125,#127,#81,.T.);
#148=EDGE_CURVE('',#128,#128,#34,.T.);
#149=EDGE_CURVE('',#129,#129,#35,.T.);
#150=EDGE_CURVE('',#117,#112,#82,.T.);
#151=EDGE_CURVE('',#116,#113,#83,.T.);
#152=EDGE_CURVE('',#110,#125,#36,.T.);
#153=EDGE_CURVE('',#118,#127,#84,.T.);
#154=EDGE_CURVE('',#119,#126,#85,.T.);
#155=EDGE_CURVE('',#124,#111,#37,.T.);
#156=EDGE_CURVE('',#120,#128,#86,.T.);
#157=EDGE_CURVE('',#121,#114,#87,.T.);
#158=EDGE_CURVE('',#122,#115,#88,.T.);
#159=EDGE_CURVE('',#123,#129,#89,.T.);
#160=ORIENTED_EDGE('',*,*,#130,.F.);
#161=ORIENTED_EDGE('',*,*,#131,.F.);
#162=ORIENTED_EDGE('',*,*,#132,.F.);
#163=ORIENTED_EDGE('',*,*,#133,.F.);
#164=ORIENTED_EDGE('',*,*,#134,.T.);
#165=ORIENTED_EDGE('',*,*,#135,.T.);
#166=ORIENTED_EDGE('',*,*,#136,.T.);
#167=ORIENTED_EDGE('',*,*,#137,.T.);
#168=ORIENTED_EDGE('',*,*,#138,.T.);
#169=ORIENTED_EDGE('',*,*,#139,.T.);
#170=ORIENTED_EDGE('',*,*,#140,.F.);
#171=ORIENTED_EDGE('',*,*,#141,.F.);
#172=ORIENTED_EDGE('',*,*,#142,.F.);
#173=ORIENTED_EDGE('',*,*,#143,.F.);
#174=ORIENTED_EDGE('',*,*,#144,.F.);
#175=ORIENTED_EDGE('',*,*,#145,.F.);
#176=ORIENTED_EDGE('',*,*,#146,.F.);
#177=ORIENTED_EDGE('',*,*,#147,.F.);
#178=ORIENTED_EDGE('',*,*,#148,.T.);
#179=ORIENTED_EDGE('',*,*,#149,.T.);
#180=ORIENTED_EDGE('',*,*,#132,.T.);
#181=ORIENTED_EDGE('',*,*,#150,.F.);
#182=ORIENTED_EDGE('',*,*,#136,.F.);
#183=ORIENTED_EDGE('',*,*,#151,.T.);
#184=ORIENTED_EDGE('',*,*,#131,.T.);
#185=ORIENTED_EDGE('',*,*,#152,.T.);
#186=ORIENTED_EDGE('',*,*,#147,.T.);
#187=ORIENTED_EDGE('',*,*,#153,.F.);
#188=ORIENTED_EDGE('',*,*,#137,.F.);
#189=ORIENTED_EDGE('',*,*,#150,.T.);
#190=ORIENTED_EDGE('',*,*,#146,.T.);
#191=ORIENTED_EDGE('',*,*,#154,.F.);
#192=ORIENTED_EDGE('',*,*,#138,.F.);
#193=ORIENTED_EDGE('',*,*,#153,.T.);
#194=ORIENTED_EDGE('',*,*,#145,.T.);
#195=ORIENTED_EDGE('',*,*,#155,.T.);
#196=ORIENTED_EDGE('',*,*,#133,.T.);
#197=ORIENTED_EDGE('',*,*,#151,.F.);
#198=ORIENTED_EDGE('',*,*,#139,.F.);
#199=ORIENTED_EDGE('',*,*,#154,.T.);
#200=ORIENTED_EDGE('',*,*,#140,.T.);
#201=ORIENTED_EDGE('',*,*,#156,.T.);
#202=ORIENTED_EDGE('',*,*,#148,.F.);
#203=ORIENTED_EDGE('',*,*,#156,.F.);
#204=ORIENTED_EDGE('',*,*,#141,.T.);
#205=ORIENTED_EDGE('',*,*,#157,.T.);
#206=ORIENTED_EDGE('',*,*,#134,.F.);
#207=ORIENTED_EDGE('',*,*,#157,.F.);
#208=ORIENTED_EDGE('',*,*,#142,.T.);
#209=ORIENTED_EDGE('',*,*,#158,.T.);
#210=ORIENTED_EDGE('',*,*,#135,.F.);
#211=ORIENTED_EDGE('',*,*,#158,.F.);
#212=ORIENTED_EDGE('',*,*,#143,.T.);
#213=ORIENTED_EDGE('',*,*,#159,.T.);
#214=ORIENTED_EDGE('',*,*,#149,.F.);
#215=ORIENTED_EDGE('',*,*,#159,.F.);
#216=ORIENTED_EDGE('',*,*,#130,.T.);
#217=ORIENTED_EDGE('',*,*,#155,.F.);
#218=ORIENTED_EDGE('',*,*,#144,.T.);
#219=ORIENTED_EDGE('',*,*,#152,.F.);
#220=PLANE('',#253);
#221=PLANE('',#256);
#222=PLANE('',#261);
#223=PLANE('',#264);
#224=PLANE('',#265);
#225=PLANE('',#267);
#226=PLANE('',#268);
#227=ADVANCED_FACE('',(#38,#20,#21),#220,.T.);
#228=ADVANCED_FACE('',(#39,#22,#23,#24,#25),#221,.F.);
#229=ADVANCED_FACE('',(#40,#26,#27),#222,.T.);
#230=ADVANCED_FACE('',(#41),#223,.F.);
#231=ADVANCED_FACE('',(#42),#224,.F.);
#232=ADVANCED_FACE('',(#43),#225,.F.);
#233=ADVANCED_FACE('',(#44),#226,.F.);
#234=ADVANCED_FACE('',(#45),#15,.F.);
#235=ADVANCED_FACE('',(#46),#16,.F.);
#236=ADVANCED_FACE('',(#47),#17,.F.);
#237=ADVANCED_FACE('',(#48),#18,.F.);
#238=ADVANCED_FACE('',(#49),#19,.F.);
#239=CLOSED_SHELL('',(#227,#228,#229,#230,#231,#232,#233,#234,#235,#236,
#237,#238));
#240=DERIVED_UNIT_ELEMENT(#242,1.);
#241=DERIVED_UNIT_ELEMENT(#409,-3.);
#242=(
MASS_UNIT()
NAMED_UNIT(*)
SI_UNIT(.KILO.,.GRAM.)
);
#243=DERIVED_UNIT((#240,#241));
#244=MEASURE_REPRESENTATION_ITEM('density measure',
POSITIVE_RATIO_MEASURE(2700.),#243);
#245=PROPERTY_DEFINITION_REPRESENTATION(#250,#247);
#246=PROPERTY_DEFINITION_REPRESENTATION(#251,#248);
#247=REPRESENTATION('material name',(#249),#406);
#248=REPRESENTATION('density',(#244),#406);
#249=DESCRIPTIVE_REPRESENTATION_ITEM('6061-O (SS)','6061-O (SS)');
#250=PROPERTY_DEFINITION('material property','material name',#416);
#251=PROPERTY_DEFINITION('material property','density of part',#416);
#252=AXIS2_PLACEMENT_3D('',#341,#275,#276);
#253=AXIS2_PLACEMENT_3D('',#342,#277,#278);
#254=AXIS2_PLACEMENT_3D('',#352,#283,#284);
#255=AXIS2_PLACEMENT_3D('',#354,#285,#286);
#256=AXIS2_PLACEMENT_3D('',#355,#287,#288);
#257=AXIS2_PLACEMENT_3D('',#365,#293,#294);
#258=AXIS2_PLACEMENT_3D('',#367,#295,#296);
#259=AXIS2_PLACEMENT_3D('',#369,#297,#298);
#260=AXIS2_PLACEMENT_3D('',#371,#299,#300);
#261=AXIS2_PLACEMENT_3D('',#372,#301,#302);
#262=AXIS2_PLACEMENT_3D('',#382,#307,#308);
#263=AXIS2_PLACEMENT_3D('',#384,#309,#310);
#264=AXIS2_PLACEMENT_3D('',#385,#311,#312);
#265=AXIS2_PLACEMENT_3D('',#388,#315,#316);
#266=AXIS2_PLACEMENT_3D('',#389,#317,#318);
#267=AXIS2_PLACEMENT_3D('',#391,#320,#321);
#268=AXIS2_PLACEMENT_3D('',#393,#323,#324);
#269=AXIS2_PLACEMENT_3D('',#394,#325,#326);
#270=AXIS2_PLACEMENT_3D('',#395,#327,#328);
#271=AXIS2_PLACEMENT_3D('',#397,#330,#331);
#272=AXIS2_PLACEMENT_3D('',#399,#333,#334);
#273=AXIS2_PLACEMENT_3D('',#401,#336,#337);
#274=AXIS2_PLACEMENT_3D('',#403,#339,#340);
#275=DIRECTION('axis',(0.,0.,1.));
#276=DIRECTION('refdir',(1.,0.,0.));
#277=DIRECTION('center_axis',(0.,0.,-1.));
#278=DIRECTION('ref_axis',(-1.,0.,0.));
#279=DIRECTION('',(0.,1.,0.));
#280=DIRECTION('',(1.,0.,0.));
#281=DIRECTION('',(0.,-1.,0.));
#282=DIRECTION('',(-1.,0.,0.));
#283=DIRECTION('center_axis',(0.,0.,1.));
#284=DIRECTION('ref_axis',(1.,0.,0.));
#285=DIRECTION('center_axis',(0.,0.,1.));
#286=DIRECTION('ref_axis',(1.,0.,0.));
#287=DIRECTION('center_axis',(0.,0.,-1.));
#288=DIRECTION('ref_axis',(-1.,0.,0.));
#289=DIRECTION('',(0.,-1.,0.));
#290=DIRECTION('',(1.,0.,0.));
#291=DIRECTION('',(0.,1.,0.));
#292=DIRECTION('',(-1.,0.,0.));
#293=DIRECTION('center_axis',(0.,0.,1.));
#294=DIRECTION('ref_axis',(1.,0.,0.));
#295=DIRECTION('center_axis',(0.,0.,1.));
#296=DIRECTION('ref_axis',(1.,0.,0.));
#297=DIRECTION('center_axis',(0.,0.,1.));
#298=DIRECTION('ref_axis',(1.,0.,0.));
#299=DIRECTION('center_axis',(0.,0.,1.));
#300=DIRECTION('ref_axis',(1.,0.,0.));
#301=DIRECTION('center_axis',(0.,0.,-1.));
#302=DIRECTION('ref_axis',(-1.,0.,0.));
#303=DIRECTION('',(0.,1.,0.));
#304=DIRECTION('',(-1.,0.,0.));
#305=DIRECTION('',(0.,1.,0.));
#306=DIRECTION('',(1.,0.,0.));
#307=DIRECTION('center_axis',(0.,0.,1.));
#308=DIRECTION('ref_axis',(1.,0.,0.));
#309=DIRECTION('center_axis',(0.,0.,1.));
#310=DIRECTION('ref_axis',(1.,0.,0.));
#311=DIRECTION('center_axis',(1.,0.,0.));
#312=DIRECTION('ref_axis',(0.,0.,-1.));
#313=DIRECTION('',(0.,0.,-1.));
#314=DIRECTION('',(0.,0.,-1.));
#315=DIRECTION('center_axis',(0.,1.,0.));
#316=DIRECTION('ref_axis',(0.,0.,1.));
#317=DIRECTION('center_axis',(0.,1.,0.));
#318=DIRECTION('ref_axis',(0.,0.,1.));
#319=DIRECTION('',(0.,0.,-1.));
#320=DIRECTION('center_axis',(-1.,0.,0.));
#321=DIRECTION('ref_axis',(0.,0.,1.));
#322=DIRECTION('',(0.,0.,-1.));
#323=DIRECTION('center_axis',(0.,-1.,0.));
#324=DIRECTION('ref_axis',(0.,0.,-1.));
#325=DIRECTION('center_axis',(0.,-1.,0.));
#326=DIRECTION('ref_axis',(0.,0.,-1.));
#327=DIRECTION('center_axis',(0.,0.,-1.));
#328=DIRECTION('ref_axis',(-1.,0.,0.));
#329=DIRECTION('',(0.,0.,-1.));
#330=DIRECTION('center_axis',(0.,0.,-1.));
#331=DIRECTION('ref_axis',(-1.,0.,0.));
#332=DIRECTION('',(0.,0.,-1.));
#333=DIRECTION('center_axis',(0.,0.,-1.));
#334=DIRECTION('ref_axis',(-1.,0.,0.));
#335=DIRECTION('',(0.,0.,-1.));
#336=DIRECTION('center_axis',(0.,0.,-1.));
#337=DIRECTION('ref_axis',(-1.,0.,0.));
#338=DIRECTION('',(0.,0.,-1.));
#339=DIRECTION('center_axis',(0.,1.,0.));
#340=DIRECTION('ref_axis',(0.,0.,1.));
#341=CARTESIAN_POINT('',(0.,0.,0.));
#342=CARTESIAN_POINT('Origin',(0.,0.,0.));
#343=CARTESIAN_POINT('',(-30.025,-42.5,0.));
#344=CARTESIAN_POINT('',(-30.025,42.5,0.));
#345=CARTESIAN_POINT('',(-30.025,-42.5,0.));
#346=CARTESIAN_POINT('',(-60.,-42.5,0.));
#347=CARTESIAN_POINT('',(-60.,-42.5,0.));
#348=CARTESIAN_POINT('',(-60.,42.5,0.));
#349=CARTESIAN_POINT('',(-60.,42.5,0.));
#350=CARTESIAN_POINT('',(-30.025,42.5,0.));
#351=CARTESIAN_POINT('',(-46.5,-33.5,0.));
#352=CARTESIAN_POINT('Origin',(-50.,-33.5,0.));
#353=CARTESIAN_POINT('',(-46.5,33.5,0.));
#354=CARTESIAN_POINT('Origin',(-50.,33.5,0.));
#355=CARTESIAN_POINT('Origin',(0.,0.,40.));
#356=CARTESIAN_POINT('',(-60.,42.5,40.));
#357=CARTESIAN_POINT('',(-60.,-42.5,40.));
#358=CARTESIAN_POINT('',(-60.,42.5,40.));
#359=CARTESIAN_POINT('',(60.,-42.5,40.));
#360=CARTESIAN_POINT('',(-60.,-42.5,40.));
#361=CARTESIAN_POINT('',(60.,42.5,40.));
#362=CARTESIAN_POINT('',(60.,-42.5,40.));
#363=CARTESIAN_POINT('',(60.,42.5,40.));
#364=CARTESIAN_POINT('',(53.5000000000001,-33.5,40.));
#365=CARTESIAN_POINT('Origin',(50.,-33.5,40.));
#366=CARTESIAN_POINT('',(-46.5,-33.5,40.));
#367=CARTESIAN_POINT('Origin',(-50.,-33.5,40.));
#368=CARTESIAN_POINT('',(-46.5,33.5,40.));
#369=CARTESIAN_POINT('Origin',(-50.,33.5,40.));
#370=CARTESIAN_POINT('',(53.5000000000001,33.5,40.));
#371=CARTESIAN_POINT('Origin',(50.,33.5,40.));
#372=CARTESIAN_POINT('Origin',(0.,0.,0.));
#373=CARTESIAN_POINT('',(30.025,42.5,0.));
#374=CARTESIAN_POINT('',(30.025,-42.5,0.));
#375=CARTESIAN_POINT('',(30.025,-42.5,0.));
#376=CARTESIAN_POINT('',(60.,42.5,0.));
#377=CARTESIAN_POINT('',(60.,42.5,0.));
#378=CARTESIAN_POINT('',(60.,-42.5,0.));
#379=CARTESIAN_POINT('',(60.,-42.5,0.));
#380=CARTESIAN_POINT('',(30.025,-42.5,0.));
#381=CARTESIAN_POINT('',(53.5000000000001,-33.5,0.));
#382=CARTESIAN_POINT('Origin',(50.,-33.5,0.));
#383=CARTESIAN_POINT('',(53.5000000000001,33.5,0.));
#384=CARTESIAN_POINT('Origin',(50.,33.5,0.));
#385=CARTESIAN_POINT('Origin',(-60.,42.5,40.));
#386=CARTESIAN_POINT('',(-60.,-42.5,40.));
#387=CARTESIAN_POINT('',(-60.,42.5,40.));
#388=CARTESIAN_POINT('Origin',(60.,-42.5,40.));
#389=CARTESIAN_POINT('Origin',(0.,-42.5,0.));
#390=CARTESIAN_POINT('',(60.,-42.5,40.));
#391=CARTESIAN_POINT('Origin',(60.,42.5,40.));
#392=CARTESIAN_POINT('',(60.,42.5,40.));
#393=CARTESIAN_POINT('Origin',(60.,42.5,40.));
#394=CARTESIAN_POINT('Origin',(0.,42.5,0.));
#395=CARTESIAN_POINT('Origin',(50.,-33.5,40.));
#396=CARTESIAN_POINT('',(53.5,-33.5,40.));
#397=CARTESIAN_POINT('Origin',(-50.,-33.5,40.));
#398=CARTESIAN_POINT('',(-46.5,-33.5,40.));
#399=CARTESIAN_POINT('Origin',(-50.,33.5,40.));
#400=CARTESIAN_POINT('',(-46.5,33.5,40.));
#401=CARTESIAN_POINT('Origin',(50.,33.5,40.));
#402=CARTESIAN_POINT('',(53.5,33.5,40.));
#403=CARTESIAN_POINT('Origin',(0.,-57.5,0.));
#404=UNCERTAINTY_MEASURE_WITH_UNIT(LENGTH_MEASURE(0.01),#408,
'DISTANCE_ACCURACY_VALUE',
'Maximum model space distance between geometric entities at asserted c
onnectivities');
#405=UNCERTAINTY_MEASURE_WITH_UNIT(LENGTH_MEASURE(0.01),#408,
'DISTANCE_ACCURACY_VALUE',
'Maximum model space distance between geometric entities at asserted c
onnectivities');
#406=(
GEOMETRIC_REPRESENTATION_CONTEXT(3)
GLOBAL_UNCERTAINTY_ASSIGNED_CONTEXT((#404))
GLOBAL_UNIT_ASSIGNED_CONTEXT((#408,#410,#411))
REPRESENTATION_CONTEXT('','3D')
);
#407=(
GEOMETRIC_REPRESENTATION_CONTEXT(3)
GLOBAL_UNCERTAINTY_ASSIGNED_CONTEXT((#405))
GLOBAL_UNIT_ASSIGNED_CONTEXT((#408,#410,#411))
REPRESENTATION_CONTEXT('','3D')
);
#408=(
LENGTH_UNIT()
NAMED_UNIT(*)
SI_UNIT(.MILLI.,.METRE.)
);
#409=(
LENGTH_UNIT()
NAMED_UNIT(*)
SI_UNIT($,.METRE.)
);
#410=(
NAMED_UNIT(*)
PLANE_ANGLE_UNIT()
SI_UNIT($,.RADIAN.)
);
#411=(
NAMED_UNIT(*)
SI_UNIT($,.STERADIAN.)
SOLID_ANGLE_UNIT()
);
#412=SHAPE_DEFINITION_REPRESENTATION(#413,#414);
#413=PRODUCT_DEFINITION_SHAPE('',$,#416);
#414=SHAPE_REPRESENTATION('',(#252),#406);
#415=PRODUCT_DEFINITION_CONTEXT('part definition',#420,'design');
#416=PRODUCT_DEFINITION('511_HopperMount-Lower-85-120-80',
'511_HopperMount-Lower-85-120-80 v1',#417,#415);
#417=PRODUCT_DEFINITION_FORMATION('',$,#422);
#418=PRODUCT_RELATED_PRODUCT_CATEGORY(
'511_HopperMount-Lower-85-120-80 v1',
'511_HopperMount-Lower-85-120-80 v1',(#422));
#419=APPLICATION_PROTOCOL_DEFINITION('international standard',
'automotive_design',2009,#420);
#420=APPLICATION_CONTEXT(
'Core Data for Automotive Mechanical Design Process');
#421=PRODUCT_CONTEXT('part definition',#420,'mechanical');
#422=PRODUCT('511_HopperMount-Lower-85-120-80',
'511_HopperMount-Lower-85-120-80 v1',$,(#421));
#423=PRESENTATION_STYLE_ASSIGNMENT((#424));
#424=SURFACE_STYLE_USAGE(.BOTH.,#425);
#425=SURFACE_SIDE_STYLE('',(#426));
#426=SURFACE_STYLE_FILL_AREA(#427);
#427=FILL_AREA_STYLE('Steel - Satin',(#428));
#428=FILL_AREA_STYLE_COLOUR('Steel - Satin',#429);
#429=COLOUR_RGB('Steel - Satin',0.627450980392157,0.627450980392157,0.627450980392157);
ENDSEC;
END-ISO-10303-21;
