ISO-10303-21;
HEADER;
/* Generated by software containing ST-Developer
 * from STEP Tools, Inc. (www.steptools.com) 
 */

FILE_DESCRIPTION(
/* description */ (''),
/* implementation_level */ '2;1');

FILE_NAME(
/* name */ 'hy-vfd v2.step',
/* time_stamp */ '2026-03-14T09:52:55+01:00',
/* author */ (''),
/* organization */ (''),
/* preprocessor_version */ 'ST-DEVELOPER v20.1',
/* originating_system */ 'Autodesk Translation Framework v14.24.0.0',
/* authorisation */ '');

FILE_SCHEMA (('AUTOMOTIVE_DESIGN { 1 0 10303 214 3 1 1 }'));
ENDSEC;

DATA;
#10=MECHANICAL_DESIGN_GEOMETRIC_PRESENTATION_REPRESENTATION('',(#13),#729);
#11=SHAPE_REPRESENTATION_RELATIONSHIP('SRR','None',#736,#12);
#12=ADVANCED_BREP_SHAPE_REPRESENTATION('',(#14),#728);
#13=STYLED_ITEM('',(#745),#14);
#14=MANIFOLD_SOLID_BREP('Body1',#449);
#15=FACE_BOUND('',#56,.T.);
#16=FACE_BOUND('',#59,.T.);
#17=FACE_BOUND('',#66,.T.);
#18=CIRCLE('',#467,12.5);
#19=CIRCLE('',#468,12.5);
#20=CIRCLE('',#470,13.5);
#21=CIRCLE('',#471,13.5);
#22=CYLINDRICAL_SURFACE('',#466,12.5);
#23=CYLINDRICAL_SURFACE('',#469,13.5);
#24=FACE_OUTER_BOUND('',#47,.T.);
#25=FACE_OUTER_BOUND('',#48,.T.);
#26=FACE_OUTER_BOUND('',#49,.T.);
#27=FACE_OUTER_BOUND('',#50,.T.);
#28=FACE_OUTER_BOUND('',#51,.T.);
#29=FACE_OUTER_BOUND('',#52,.T.);
#30=FACE_OUTER_BOUND('',#53,.T.);
#31=FACE_OUTER_BOUND('',#54,.T.);
#32=FACE_OUTER_BOUND('',#55,.T.);
#33=FACE_OUTER_BOUND('',#57,.T.);
#34=FACE_OUTER_BOUND('',#58,.T.);
#35=FACE_OUTER_BOUND('',#60,.T.);
#36=FACE_OUTER_BOUND('',#61,.T.);
#37=FACE_OUTER_BOUND('',#62,.T.);
#38=FACE_OUTER_BOUND('',#63,.T.);
#39=FACE_OUTER_BOUND('',#64,.T.);
#40=FACE_OUTER_BOUND('',#65,.T.);
#41=FACE_OUTER_BOUND('',#67,.T.);
#42=FACE_OUTER_BOUND('',#68,.T.);
#43=FACE_OUTER_BOUND('',#69,.T.);
#44=FACE_OUTER_BOUND('',#70,.T.);
#45=FACE_OUTER_BOUND('',#71,.T.);
#46=FACE_OUTER_BOUND('',#72,.T.);
#47=EDGE_LOOP('',(#285,#286,#287,#288));
#48=EDGE_LOOP('',(#289,#290,#291,#292));
#49=EDGE_LOOP('',(#293,#294,#295,#296));
#50=EDGE_LOOP('',(#297,#298,#299,#300));
#51=EDGE_LOOP('',(#301,#302,#303,#304));
#52=EDGE_LOOP('',(#305,#306,#307,#308));
#53=EDGE_LOOP('',(#309,#310,#311,#312));
#54=EDGE_LOOP('',(#313,#314,#315,#316));
#55=EDGE_LOOP('',(#317,#318,#319,#320));
#56=EDGE_LOOP('',(#321,#322,#323,#324,#325,#326));
#57=EDGE_LOOP('',(#327,#328,#329,#330));
#58=EDGE_LOOP('',(#331,#332,#333,#334));
#59=EDGE_LOOP('',(#335,#336,#337,#338,#339,#340));
#60=EDGE_LOOP('',(#341,#342,#343,#344));
#61=EDGE_LOOP('',(#345,#346,#347,#348));
#62=EDGE_LOOP('',(#349,#350,#351,#352));
#63=EDGE_LOOP('',(#353,#354,#355,#356));
#64=EDGE_LOOP('',(#357,#358,#359,#360,#361,#362,#363,#364,#365,#366));
#65=EDGE_LOOP('',(#367,#368,#369,#370,#371,#372));
#66=EDGE_LOOP('',(#373,#374,#375,#376));
#67=EDGE_LOOP('',(#377,#378,#379,#380));
#68=EDGE_LOOP('',(#381,#382,#383,#384,#385,#386,#387,#388));
#69=EDGE_LOOP('',(#389,#390,#391,#392));
#70=EDGE_LOOP('',(#393,#394,#395,#396));
#71=EDGE_LOOP('',(#397,#398,#399,#400));
#72=EDGE_LOOP('',(#401,#402,#403,#404));
#73=LINE('',#606,#129);
#74=LINE('',#608,#130);
#75=LINE('',#610,#131);
#76=LINE('',#611,#132);
#77=LINE('',#614,#133);
#78=LINE('',#616,#134);
#79=LINE('',#617,#135);
#80=LINE('',#620,#136);
#81=LINE('',#622,#137);
#82=LINE('',#623,#138);
#83=LINE('',#629,#139);
#84=LINE('',#632,#140);
#85=LINE('',#636,#141);
#86=LINE('',#640,#142);
#87=LINE('',#644,#143);
#88=LINE('',#646,#144);
#89=LINE('',#647,#145);
#90=LINE('',#650,#146);
#91=LINE('',#652,#147);
#92=LINE('',#653,#148);
#93=LINE('',#656,#149);
#94=LINE('',#658,#150);
#95=LINE('',#659,#151);
#96=LINE('',#663,#152);
#97=LINE('',#665,#153);
#98=LINE('',#667,#154);
#99=LINE('',#668,#155);
#100=LINE('',#670,#156);
#101=LINE('',#672,#157);
#102=LINE('',#674,#158);
#103=LINE('',#675,#159);
#104=LINE('',#678,#160);
#105=LINE('',#679,#161);
#106=LINE('',#683,#162);
#107=LINE('',#685,#163);
#108=LINE('',#687,#164);
#109=LINE('',#688,#165);
#110=LINE('',#690,#166);
#111=LINE('',#692,#167);
#112=LINE('',#693,#168);
#113=LINE('',#695,#169);
#114=LINE('',#696,#170);
#115=LINE('',#698,#171);
#116=LINE('',#700,#172);
#117=LINE('',#704,#173);
#118=LINE('',#705,#174);
#119=LINE('',#707,#175);
#120=LINE('',#708,#176);
#121=LINE('',#711,#177);
#122=LINE('',#713,#178);
#123=LINE('',#714,#179);
#124=LINE('',#715,#180);
#125=LINE('',#717,#181);
#126=LINE('',#719,#182);
#127=LINE('',#722,#183);
#128=LINE('',#724,#184);
#129=VECTOR('',#494,10.);
#130=VECTOR('',#495,10.);
#131=VECTOR('',#496,10.);
#132=VECTOR('',#497,10.);
#133=VECTOR('',#500,10.);
#134=VECTOR('',#501,10.);
#135=VECTOR('',#502,10.);
#136=VECTOR('',#505,10.);
#137=VECTOR('',#506,10.);
#138=VECTOR('',#507,10.);
#139=VECTOR('',#512,10.);
#140=VECTOR('',#515,10.);
#141=VECTOR('',#518,10.);
#142=VECTOR('',#521,10.);
#143=VECTOR('',#526,10.);
#144=VECTOR('',#527,10.);
#145=VECTOR('',#528,10.);
#146=VECTOR('',#531,10.);
#147=VECTOR('',#532,10.);
#148=VECTOR('',#533,10.);
#149=VECTOR('',#536,10.);
#150=VECTOR('',#537,10.);
#151=VECTOR('',#538,10.);
#152=VECTOR('',#541,10.);
#153=VECTOR('',#542,10.);
#154=VECTOR('',#543,10.);
#155=VECTOR('',#544,10.);
#156=VECTOR('',#545,10.);
#157=VECTOR('',#546,10.);
#158=VECTOR('',#547,10.);
#159=VECTOR('',#548,10.);
#160=VECTOR('',#551,10.);
#161=VECTOR('',#552,10.);
#162=VECTOR('',#555,10.);
#163=VECTOR('',#556,10.);
#164=VECTOR('',#557,10.);
#165=VECTOR('',#558,10.);
#166=VECTOR('',#559,10.);
#167=VECTOR('',#560,10.);
#168=VECTOR('',#561,10.);
#169=VECTOR('',#564,10.);
#170=VECTOR('',#565,10.);
#171=VECTOR('',#568,10.);
#172=VECTOR('',#571,10.);
#173=VECTOR('',#576,10.);
#174=VECTOR('',#577,10.);
#175=VECTOR('',#578,10.);
#176=VECTOR('',#579,10.);
#177=VECTOR('',#582,10.);
#178=VECTOR('',#583,10.);
#179=VECTOR('',#584,10.);
#180=VECTOR('',#585,10.);
#181=VECTOR('',#588,10.);
#182=VECTOR('',#591,10.);
#183=VECTOR('',#596,10.);
#184=VECTOR('',#599,10.);
#185=VERTEX_POINT('',#604);
#186=VERTEX_POINT('',#605);
#187=VERTEX_POINT('',#607);
#188=VERTEX_POINT('',#609);
#189=VERTEX_POINT('',#613);
#190=VERTEX_POINT('',#615);
#191=VERTEX_POINT('',#619);
#192=VERTEX_POINT('',#621);
#193=VERTEX_POINT('',#625);
#194=VERTEX_POINT('',#626);
#195=VERTEX_POINT('',#628);
#196=VERTEX_POINT('',#630);
#197=VERTEX_POINT('',#634);
#198=VERTEX_POINT('',#635);
#199=VERTEX_POINT('',#637);
#200=VERTEX_POINT('',#639);
#201=VERTEX_POINT('',#643);
#202=VERTEX_POINT('',#645);
#203=VERTEX_POINT('',#649);
#204=VERTEX_POINT('',#651);
#205=VERTEX_POINT('',#655);
#206=VERTEX_POINT('',#657);
#207=VERTEX_POINT('',#661);
#208=VERTEX_POINT('',#662);
#209=VERTEX_POINT('',#664);
#210=VERTEX_POINT('',#666);
#211=VERTEX_POINT('',#669);
#212=VERTEX_POINT('',#671);
#213=VERTEX_POINT('',#673);
#214=VERTEX_POINT('',#677);
#215=VERTEX_POINT('',#681);
#216=VERTEX_POINT('',#682);
#217=VERTEX_POINT('',#684);
#218=VERTEX_POINT('',#686);
#219=VERTEX_POINT('',#689);
#220=VERTEX_POINT('',#691);
#221=VERTEX_POINT('',#703);
#222=VERTEX_POINT('',#706);
#223=VERTEX_POINT('',#710);
#224=VERTEX_POINT('',#712);
#225=EDGE_CURVE('',#185,#186,#73,.T.);
#226=EDGE_CURVE('',#187,#185,#74,.T.);
#227=EDGE_CURVE('',#188,#187,#75,.T.);
#228=EDGE_CURVE('',#188,#186,#76,.T.);
#229=EDGE_CURVE('',#186,#189,#77,.T.);
#230=EDGE_CURVE('',#190,#188,#78,.T.);
#231=EDGE_CURVE('',#190,#189,#79,.T.);
#232=EDGE_CURVE('',#189,#191,#80,.T.);
#233=EDGE_CURVE('',#192,#190,#81,.T.);
#234=EDGE_CURVE('',#192,#191,#82,.T.);
#235=EDGE_CURVE('',#193,#194,#18,.T.);
#236=EDGE_CURVE('',#195,#193,#83,.T.);
#237=EDGE_CURVE('',#195,#196,#19,.T.);
#238=EDGE_CURVE('',#196,#194,#84,.T.);
#239=EDGE_CURVE('',#197,#198,#85,.T.);
#240=EDGE_CURVE('',#199,#197,#20,.T.);
#241=EDGE_CURVE('',#199,#200,#86,.T.);
#242=EDGE_CURVE('',#200,#198,#21,.T.);
#243=EDGE_CURVE('',#201,#199,#87,.T.);
#244=EDGE_CURVE('',#202,#201,#88,.T.);
#245=EDGE_CURVE('',#200,#202,#89,.T.);
#246=EDGE_CURVE('',#203,#198,#90,.T.);
#247=EDGE_CURVE('',#204,#203,#91,.T.);
#248=EDGE_CURVE('',#197,#204,#92,.T.);
#249=EDGE_CURVE('',#196,#205,#93,.T.);
#250=EDGE_CURVE('',#206,#205,#94,.T.);
#251=EDGE_CURVE('',#194,#206,#95,.T.);
#252=EDGE_CURVE('',#207,#208,#96,.T.);
#253=EDGE_CURVE('',#208,#209,#97,.T.);
#254=EDGE_CURVE('',#209,#210,#98,.T.);
#255=EDGE_CURVE('',#210,#207,#99,.T.);
#256=EDGE_CURVE('',#195,#211,#100,.T.);
#257=EDGE_CURVE('',#211,#212,#101,.T.);
#258=EDGE_CURVE('',#212,#213,#102,.T.);
#259=EDGE_CURVE('',#213,#205,#103,.T.);
#260=EDGE_CURVE('',#193,#214,#104,.T.);
#261=EDGE_CURVE('',#214,#211,#105,.T.);
#262=EDGE_CURVE('',#215,#216,#106,.T.);
#263=EDGE_CURVE('',#216,#217,#107,.T.);
#264=EDGE_CURVE('',#218,#217,#108,.T.);
#265=EDGE_CURVE('',#215,#218,#109,.T.);
#266=EDGE_CURVE('',#202,#219,#110,.T.);
#267=EDGE_CURVE('',#219,#220,#111,.T.);
#268=EDGE_CURVE('',#220,#203,#112,.T.);
#269=EDGE_CURVE('',#216,#207,#113,.T.);
#270=EDGE_CURVE('',#217,#210,#114,.T.);
#271=EDGE_CURVE('',#218,#209,#115,.T.);
#272=EDGE_CURVE('',#215,#208,#116,.T.);
#273=EDGE_CURVE('',#221,#187,#117,.T.);
#274=EDGE_CURVE('',#214,#221,#118,.T.);
#275=EDGE_CURVE('',#222,#206,#119,.T.);
#276=EDGE_CURVE('',#192,#222,#120,.T.);
#277=EDGE_CURVE('',#204,#223,#121,.T.);
#278=EDGE_CURVE('',#223,#224,#122,.T.);
#279=EDGE_CURVE('',#224,#201,#123,.T.);
#280=EDGE_CURVE('',#191,#185,#124,.T.);
#281=EDGE_CURVE('',#222,#213,#125,.T.);
#282=EDGE_CURVE('',#221,#212,#126,.T.);
#283=EDGE_CURVE('',#223,#220,#127,.T.);
#284=EDGE_CURVE('',#224,#219,#128,.T.);
#285=ORIENTED_EDGE('',*,*,#225,.F.);
#286=ORIENTED_EDGE('',*,*,#226,.F.);
#287=ORIENTED_EDGE('',*,*,#227,.F.);
#288=ORIENTED_EDGE('',*,*,#228,.T.);
#289=ORIENTED_EDGE('',*,*,#229,.F.);
#290=ORIENTED_EDGE('',*,*,#228,.F.);
#291=ORIENTED_EDGE('',*,*,#230,.F.);
#292=ORIENTED_EDGE('',*,*,#231,.T.);
#293=ORIENTED_EDGE('',*,*,#232,.F.);
#294=ORIENTED_EDGE('',*,*,#231,.F.);
#295=ORIENTED_EDGE('',*,*,#233,.F.);
#296=ORIENTED_EDGE('',*,*,#234,.T.);
#297=ORIENTED_EDGE('',*,*,#235,.F.);
#298=ORIENTED_EDGE('',*,*,#236,.F.);
#299=ORIENTED_EDGE('',*,*,#237,.T.);
#300=ORIENTED_EDGE('',*,*,#238,.T.);
#301=ORIENTED_EDGE('',*,*,#239,.F.);
#302=ORIENTED_EDGE('',*,*,#240,.F.);
#303=ORIENTED_EDGE('',*,*,#241,.T.);
#304=ORIENTED_EDGE('',*,*,#242,.T.);
#305=ORIENTED_EDGE('',*,*,#241,.F.);
#306=ORIENTED_EDGE('',*,*,#243,.F.);
#307=ORIENTED_EDGE('',*,*,#244,.F.);
#308=ORIENTED_EDGE('',*,*,#245,.F.);
#309=ORIENTED_EDGE('',*,*,#239,.T.);
#310=ORIENTED_EDGE('',*,*,#246,.F.);
#311=ORIENTED_EDGE('',*,*,#247,.F.);
#312=ORIENTED_EDGE('',*,*,#248,.F.);
#313=ORIENTED_EDGE('',*,*,#249,.T.);
#314=ORIENTED_EDGE('',*,*,#250,.F.);
#315=ORIENTED_EDGE('',*,*,#251,.F.);
#316=ORIENTED_EDGE('',*,*,#238,.F.);
#317=ORIENTED_EDGE('',*,*,#252,.T.);
#318=ORIENTED_EDGE('',*,*,#253,.T.);
#319=ORIENTED_EDGE('',*,*,#254,.T.);
#320=ORIENTED_EDGE('',*,*,#255,.T.);
#321=ORIENTED_EDGE('',*,*,#256,.T.);
#322=ORIENTED_EDGE('',*,*,#257,.T.);
#323=ORIENTED_EDGE('',*,*,#258,.T.);
#324=ORIENTED_EDGE('',*,*,#259,.T.);
#325=ORIENTED_EDGE('',*,*,#249,.F.);
#326=ORIENTED_EDGE('',*,*,#237,.F.);
#327=ORIENTED_EDGE('',*,*,#260,.T.);
#328=ORIENTED_EDGE('',*,*,#261,.T.);
#329=ORIENTED_EDGE('',*,*,#256,.F.);
#330=ORIENTED_EDGE('',*,*,#236,.T.);
#331=ORIENTED_EDGE('',*,*,#262,.T.);
#332=ORIENTED_EDGE('',*,*,#263,.T.);
#333=ORIENTED_EDGE('',*,*,#264,.F.);
#334=ORIENTED_EDGE('',*,*,#265,.F.);
#335=ORIENTED_EDGE('',*,*,#245,.T.);
#336=ORIENTED_EDGE('',*,*,#266,.T.);
#337=ORIENTED_EDGE('',*,*,#267,.T.);
#338=ORIENTED_EDGE('',*,*,#268,.T.);
#339=ORIENTED_EDGE('',*,*,#246,.T.);
#340=ORIENTED_EDGE('',*,*,#242,.F.);
#341=ORIENTED_EDGE('',*,*,#263,.F.);
#342=ORIENTED_EDGE('',*,*,#269,.T.);
#343=ORIENTED_EDGE('',*,*,#255,.F.);
#344=ORIENTED_EDGE('',*,*,#270,.F.);
#345=ORIENTED_EDGE('',*,*,#264,.T.);
#346=ORIENTED_EDGE('',*,*,#270,.T.);
#347=ORIENTED_EDGE('',*,*,#254,.F.);
#348=ORIENTED_EDGE('',*,*,#271,.F.);
#349=ORIENTED_EDGE('',*,*,#265,.T.);
#350=ORIENTED_EDGE('',*,*,#271,.T.);
#351=ORIENTED_EDGE('',*,*,#253,.F.);
#352=ORIENTED_EDGE('',*,*,#272,.F.);
#353=ORIENTED_EDGE('',*,*,#262,.F.);
#354=ORIENTED_EDGE('',*,*,#272,.T.);
#355=ORIENTED_EDGE('',*,*,#252,.F.);
#356=ORIENTED_EDGE('',*,*,#269,.F.);
#357=ORIENTED_EDGE('',*,*,#227,.T.);
#358=ORIENTED_EDGE('',*,*,#273,.F.);
#359=ORIENTED_EDGE('',*,*,#274,.F.);
#360=ORIENTED_EDGE('',*,*,#260,.F.);
#361=ORIENTED_EDGE('',*,*,#235,.T.);
#362=ORIENTED_EDGE('',*,*,#251,.T.);
#363=ORIENTED_EDGE('',*,*,#275,.F.);
#364=ORIENTED_EDGE('',*,*,#276,.F.);
#365=ORIENTED_EDGE('',*,*,#233,.T.);
#366=ORIENTED_EDGE('',*,*,#230,.T.);
#367=ORIENTED_EDGE('',*,*,#248,.T.);
#368=ORIENTED_EDGE('',*,*,#277,.T.);
#369=ORIENTED_EDGE('',*,*,#278,.T.);
#370=ORIENTED_EDGE('',*,*,#279,.T.);
#371=ORIENTED_EDGE('',*,*,#243,.T.);
#372=ORIENTED_EDGE('',*,*,#240,.T.);
#373=ORIENTED_EDGE('',*,*,#232,.T.);
#374=ORIENTED_EDGE('',*,*,#280,.T.);
#375=ORIENTED_EDGE('',*,*,#225,.T.);
#376=ORIENTED_EDGE('',*,*,#229,.T.);
#377=ORIENTED_EDGE('',*,*,#275,.T.);
#378=ORIENTED_EDGE('',*,*,#250,.T.);
#379=ORIENTED_EDGE('',*,*,#259,.F.);
#380=ORIENTED_EDGE('',*,*,#281,.F.);
#381=ORIENTED_EDGE('',*,*,#273,.T.);
#382=ORIENTED_EDGE('',*,*,#226,.T.);
#383=ORIENTED_EDGE('',*,*,#280,.F.);
#384=ORIENTED_EDGE('',*,*,#234,.F.);
#385=ORIENTED_EDGE('',*,*,#276,.T.);
#386=ORIENTED_EDGE('',*,*,#281,.T.);
#387=ORIENTED_EDGE('',*,*,#258,.F.);
#388=ORIENTED_EDGE('',*,*,#282,.F.);
#389=ORIENTED_EDGE('',*,*,#274,.T.);
#390=ORIENTED_EDGE('',*,*,#282,.T.);
#391=ORIENTED_EDGE('',*,*,#257,.F.);
#392=ORIENTED_EDGE('',*,*,#261,.F.);
#393=ORIENTED_EDGE('',*,*,#247,.T.);
#394=ORIENTED_EDGE('',*,*,#268,.F.);
#395=ORIENTED_EDGE('',*,*,#283,.F.);
#396=ORIENTED_EDGE('',*,*,#277,.F.);
#397=ORIENTED_EDGE('',*,*,#283,.T.);
#398=ORIENTED_EDGE('',*,*,#267,.F.);
#399=ORIENTED_EDGE('',*,*,#284,.F.);
#400=ORIENTED_EDGE('',*,*,#278,.F.);
#401=ORIENTED_EDGE('',*,*,#284,.T.);
#402=ORIENTED_EDGE('',*,*,#266,.F.);
#403=ORIENTED_EDGE('',*,*,#244,.T.);
#404=ORIENTED_EDGE('',*,*,#279,.F.);
#405=PLANE('',#463);
#406=PLANE('',#464);
#407=PLANE('',#465);
#408=PLANE('',#472);
#409=PLANE('',#473);
#410=PLANE('',#474);
#411=PLANE('',#475);
#412=PLANE('',#476);
#413=PLANE('',#477);
#414=PLANE('',#478);
#415=PLANE('',#479);
#416=PLANE('',#480);
#417=PLANE('',#481);
#418=PLANE('',#482);
#419=PLANE('',#483);
#420=PLANE('',#484);
#421=PLANE('',#485);
#422=PLANE('',#486);
#423=PLANE('',#487);
#424=PLANE('',#488);
#425=PLANE('',#489);
#426=ADVANCED_FACE('',(#24),#405,.F.);
#427=ADVANCED_FACE('',(#25),#406,.F.);
#428=ADVANCED_FACE('',(#26),#407,.F.);
#429=ADVANCED_FACE('',(#27),#22,.F.);
#430=ADVANCED_FACE('',(#28),#23,.T.);
#431=ADVANCED_FACE('',(#29),#408,.T.);
#432=ADVANCED_FACE('',(#30),#409,.T.);
#433=ADVANCED_FACE('',(#31),#410,.T.);
#434=ADVANCED_FACE('',(#32,#15),#411,.T.);
#435=ADVANCED_FACE('',(#33),#412,.T.);
#436=ADVANCED_FACE('',(#34,#16),#413,.F.);
#437=ADVANCED_FACE('',(#35),#414,.T.);
#438=ADVANCED_FACE('',(#36),#415,.T.);
#439=ADVANCED_FACE('',(#37),#416,.T.);
#440=ADVANCED_FACE('',(#38),#417,.T.);
#441=ADVANCED_FACE('',(#39),#418,.F.);
#442=ADVANCED_FACE('',(#40,#17),#419,.T.);
#443=ADVANCED_FACE('',(#41),#420,.T.);
#444=ADVANCED_FACE('',(#42),#421,.T.);
#445=ADVANCED_FACE('',(#43),#422,.T.);
#446=ADVANCED_FACE('',(#44),#423,.T.);
#447=ADVANCED_FACE('',(#45),#424,.T.);
#448=ADVANCED_FACE('',(#46),#425,.T.);
#449=CLOSED_SHELL('',(#426,#427,#428,#429,#430,#431,#432,#433,#434,#435,
#436,#437,#438,#439,#440,#441,#442,#443,#444,#445,#446,#447,#448));
#450=DERIVED_UNIT_ELEMENT(#452,1.);
#451=DERIVED_UNIT_ELEMENT(#731,-3.);
#452=(
MASS_UNIT()
NAMED_UNIT(*)
SI_UNIT(.KILO.,.GRAM.)
);
#453=DERIVED_UNIT((#450,#451));
#454=MEASURE_REPRESENTATION_ITEM('density measure',
POSITIVE_RATIO_MEASURE(7850.),#453);
#455=PROPERTY_DEFINITION_REPRESENTATION(#460,#457);
#456=PROPERTY_DEFINITION_REPRESENTATION(#461,#458);
#457=REPRESENTATION('material name',(#459),#728);
#458=REPRESENTATION('density',(#454),#728);
#459=DESCRIPTIVE_REPRESENTATION_ITEM('Steel','Steel');
#460=PROPERTY_DEFINITION('material property','material name',#738);
#461=PROPERTY_DEFINITION('material property','density of part',#738);
#462=AXIS2_PLACEMENT_3D('',#602,#490,#491);
#463=AXIS2_PLACEMENT_3D('',#603,#492,#493);
#464=AXIS2_PLACEMENT_3D('',#612,#498,#499);
#465=AXIS2_PLACEMENT_3D('',#618,#503,#504);
#466=AXIS2_PLACEMENT_3D('',#624,#508,#509);
#467=AXIS2_PLACEMENT_3D('',#627,#510,#511);
#468=AXIS2_PLACEMENT_3D('',#631,#513,#514);
#469=AXIS2_PLACEMENT_3D('',#633,#516,#517);
#470=AXIS2_PLACEMENT_3D('',#638,#519,#520);
#471=AXIS2_PLACEMENT_3D('',#641,#522,#523);
#472=AXIS2_PLACEMENT_3D('',#642,#524,#525);
#473=AXIS2_PLACEMENT_3D('',#648,#529,#530);
#474=AXIS2_PLACEMENT_3D('',#654,#534,#535);
#475=AXIS2_PLACEMENT_3D('',#660,#539,#540);
#476=AXIS2_PLACEMENT_3D('',#676,#549,#550);
#477=AXIS2_PLACEMENT_3D('',#680,#553,#554);
#478=AXIS2_PLACEMENT_3D('',#694,#562,#563);
#479=AXIS2_PLACEMENT_3D('',#697,#566,#567);
#480=AXIS2_PLACEMENT_3D('',#699,#569,#570);
#481=AXIS2_PLACEMENT_3D('',#701,#572,#573);
#482=AXIS2_PLACEMENT_3D('',#702,#574,#575);
#483=AXIS2_PLACEMENT_3D('',#709,#580,#581);
#484=AXIS2_PLACEMENT_3D('',#716,#586,#587);
#485=AXIS2_PLACEMENT_3D('',#718,#589,#590);
#486=AXIS2_PLACEMENT_3D('',#720,#592,#593);
#487=AXIS2_PLACEMENT_3D('',#721,#594,#595);
#488=AXIS2_PLACEMENT_3D('',#723,#597,#598);
#489=AXIS2_PLACEMENT_3D('',#725,#600,#601);
#490=DIRECTION('axis',(0.,0.,1.));
#491=DIRECTION('refdir',(1.,0.,0.));
#492=DIRECTION('center_axis',(-0.999999662640341,0.,-0.000821412931346619));
#493=DIRECTION('ref_axis',(-0.000821412931346619,1.00594071715188E-19,0.999999662640341));
#494=DIRECTION('',(0.000821412931346619,-1.00594071715188E-19,-0.999999662640341));
#495=DIRECTION('',(0.,1.,0.));
#496=DIRECTION('',(-0.000821412931346619,1.00594071715188E-19,0.999999662640341));
#497=DIRECTION('',(0.,1.,0.));
#498=DIRECTION('center_axis',(0.,0.,-1.));
#499=DIRECTION('ref_axis',(-1.,1.22464679914735E-16,0.));
#500=DIRECTION('',(1.,-1.22464679914735E-16,0.));
#501=DIRECTION('',(-1.,1.22464679914735E-16,0.));
#502=DIRECTION('',(0.,1.,0.));
#503=DIRECTION('center_axis',(1.,0.,0.));
#504=DIRECTION('ref_axis',(0.,0.,-1.));
#505=DIRECTION('',(0.,0.,1.));
#506=DIRECTION('',(0.,0.,-1.));
#507=DIRECTION('',(0.,1.,0.));
#508=DIRECTION('center_axis',(0.,1.,0.));
#509=DIRECTION('ref_axis',(-1.,0.,1.4210854715202E-15));
#510=DIRECTION('center_axis',(-1.22464679914735E-16,-1.,0.));
#511=DIRECTION('ref_axis',(-1.,0.,1.4210854715202E-15));
#512=DIRECTION('',(0.,1.,0.));
#513=DIRECTION('center_axis',(-1.22464679914735E-16,-1.,0.));
#514=DIRECTION('ref_axis',(-1.,1.22464679914735E-16,1.4210854715202E-15));
#515=DIRECTION('',(0.,1.,0.));
#516=DIRECTION('center_axis',(1.22464679914735E-16,1.,0.));
#517=DIRECTION('ref_axis',(1.,-1.22464679914735E-16,0.));
#518=DIRECTION('',(-1.22464679914735E-16,-1.,0.));
#519=DIRECTION('center_axis',(1.22464679914735E-16,1.,0.));
#520=DIRECTION('ref_axis',(1.,-1.22464679914735E-16,0.));
#521=DIRECTION('',(-1.22464679914735E-16,-1.,0.));
#522=DIRECTION('center_axis',(1.22464679914735E-16,1.,0.));
#523=DIRECTION('ref_axis',(1.,-1.22464679914735E-16,0.));
#524=DIRECTION('center_axis',(0.,0.,-1.));
#525=DIRECTION('ref_axis',(1.,-1.22464679914735E-16,0.));
#526=DIRECTION('',(-1.,1.22464679914735E-16,0.));
#527=DIRECTION('',(1.22464679914735E-16,1.,0.));
#528=DIRECTION('',(1.,-1.22464679914735E-16,0.));
#529=DIRECTION('center_axis',(0.,0.,-1.));
#530=DIRECTION('ref_axis',(1.,-1.22464679914735E-16,0.));
#531=DIRECTION('',(1.,-1.22464679914735E-16,0.));
#532=DIRECTION('',(-1.22464679914735E-16,-1.,0.));
#533=DIRECTION('',(-1.,1.22464679914735E-16,0.));
#534=DIRECTION('center_axis',(0.,0.,1.));
#535=DIRECTION('ref_axis',(-1.,1.22464679914735E-16,0.));
#536=DIRECTION('',(1.,-1.22464679914735E-16,0.));
#537=DIRECTION('',(-1.22464679914735E-16,-1.,0.));
#538=DIRECTION('',(1.,-1.22464679914735E-16,0.));
#539=DIRECTION('center_axis',(-1.22464679914735E-16,-1.,0.));
#540=DIRECTION('ref_axis',(1.,-1.22464679914735E-16,0.));
#541=DIRECTION('',(0.,0.,1.));
#542=DIRECTION('',(-1.,1.22464679914735E-16,0.));
#543=DIRECTION('',(0.,0.,-1.));
#544=DIRECTION('',(1.,-1.22464679914735E-16,0.));
#545=DIRECTION('',(-1.,1.22464679914735E-16,0.));
#546=DIRECTION('',(0.,0.,1.));
#547=DIRECTION('',(1.,-1.22464679914735E-16,0.));
#548=DIRECTION('',(0.,0.,-1.));
#549=DIRECTION('center_axis',(0.,0.,1.));
#550=DIRECTION('ref_axis',(-1.,1.22464679914735E-16,0.));
#551=DIRECTION('',(-1.,1.22464679914735E-16,0.));
#552=DIRECTION('',(-1.22464679914735E-16,-1.,0.));
#553=DIRECTION('center_axis',(-1.22464679914735E-16,-1.,0.));
#554=DIRECTION('ref_axis',(1.,-1.22464679914735E-16,0.));
#555=DIRECTION('',(0.,0.,-1.));
#556=DIRECTION('',(-1.,1.22464679914735E-16,0.));
#557=DIRECTION('',(0.,0.,-1.));
#558=DIRECTION('',(-1.,1.22464679914735E-16,0.));
#559=DIRECTION('',(0.,0.,1.));
#560=DIRECTION('',(-1.,1.22464679914735E-16,0.));
#561=DIRECTION('',(0.,0.,-1.));
#562=DIRECTION('center_axis',(0.,0.,-1.));
#563=DIRECTION('ref_axis',(1.,-1.22464679914735E-16,0.));
#564=DIRECTION('',(-1.22464679914735E-16,-1.,0.));
#565=DIRECTION('',(-1.22464679914735E-16,-1.,0.));
#566=DIRECTION('center_axis',(-1.,1.22464679914735E-16,0.));
#567=DIRECTION('ref_axis',(0.,0.,-1.));
#568=DIRECTION('',(-1.22464679914735E-16,-1.,0.));
#569=DIRECTION('center_axis',(0.,0.,1.));
#570=DIRECTION('ref_axis',(-1.,1.22464679914735E-16,0.));
#571=DIRECTION('',(-1.22464679914735E-16,-1.,0.));
#572=DIRECTION('center_axis',(1.,-1.22464679914735E-16,0.));
#573=DIRECTION('ref_axis',(0.,0.,1.));
#574=DIRECTION('center_axis',(1.22464679914735E-16,1.,0.));
#575=DIRECTION('ref_axis',(-1.,1.22464679914735E-16,0.));
#576=DIRECTION('',(1.,-1.22464679914735E-16,0.));
#577=DIRECTION('',(0.,0.,1.));
#578=DIRECTION('',(0.,0.,-1.));
#579=DIRECTION('',(1.,-1.22464679914735E-16,0.));
#580=DIRECTION('center_axis',(1.22464679914735E-16,1.,0.));
#581=DIRECTION('ref_axis',(0.,0.,-1.));
#582=DIRECTION('',(0.,0.,1.));
#583=DIRECTION('',(1.,-1.22464679914735E-16,0.));
#584=DIRECTION('',(0.,0.,-1.));
#585=DIRECTION('',(-1.,1.22464679914735E-16,0.));
#586=DIRECTION('center_axis',(-1.,1.22464679914735E-16,0.));
#587=DIRECTION('ref_axis',(0.,0.,-1.));
#588=DIRECTION('',(-1.22464679914735E-16,-1.,0.));
#589=DIRECTION('center_axis',(0.,0.,-1.));
#590=DIRECTION('ref_axis',(1.,-1.22464679914735E-16,0.));
#591=DIRECTION('',(-1.22464679914735E-16,-1.,0.));
#592=DIRECTION('center_axis',(1.,-1.22464679914735E-16,0.));
#593=DIRECTION('ref_axis',(0.,0.,1.));
#594=DIRECTION('center_axis',(-1.,1.22464679914735E-16,0.));
#595=DIRECTION('ref_axis',(0.,0.,-1.));
#596=DIRECTION('',(-1.22464679914735E-16,-1.,0.));
#597=DIRECTION('center_axis',(0.,0.,1.));
#598=DIRECTION('ref_axis',(-1.,1.22464679914735E-16,0.));
#599=DIRECTION('',(-1.22464679914735E-16,-1.,0.));
#600=DIRECTION('center_axis',(1.,-1.22464679914735E-16,0.));
#601=DIRECTION('ref_axis',(0.,0.,1.));
#602=CARTESIAN_POINT('',(0.,0.,0.));
#603=CARTESIAN_POINT('Origin',(-51.,-3.99999999999999,-14.65));
#604=CARTESIAN_POINT('',(-51.0098569585015,-1.99999999999999,-2.65000000000001));
#605=CARTESIAN_POINT('',(-51.,-1.99999999999999,-14.65));
#606=CARTESIAN_POINT('',(-50.9891118966566,-1.99999999999999,-27.9053302422231));
#607=CARTESIAN_POINT('',(-51.0098569585015,-3.99999999999999,-2.65000000000001));
#608=CARTESIAN_POINT('',(-51.0098569585015,-3.99999999999999,-2.65000000000001));
#609=CARTESIAN_POINT('',(-51.,-3.99999999999999,-14.65));
#610=CARTESIAN_POINT('',(-50.9891118966566,-3.99999999999999,-27.9053302422231));
#611=CARTESIAN_POINT('',(-51.,-3.99999999999999,-14.65));
#612=CARTESIAN_POINT('Origin',(-25.,-4.,-14.65));
#613=CARTESIAN_POINT('',(-25.,-2.,-14.65));
#614=CARTESIAN_POINT('',(-31.5,-2.,-14.65));
#615=CARTESIAN_POINT('',(-25.,-4.,-14.65));
#616=CARTESIAN_POINT('',(-31.5,-4.,-14.65));
#617=CARTESIAN_POINT('',(-25.,-4.,-14.65));
#618=CARTESIAN_POINT('Origin',(-25.,-4.,-2.65000000000001));
#619=CARTESIAN_POINT('',(-25.,-2.,-2.65000000000001));
#620=CARTESIAN_POINT('',(-25.,-2.,-21.9));
#621=CARTESIAN_POINT('',(-25.,-4.,-2.65000000000001));
#622=CARTESIAN_POINT('',(-25.,-4.,-21.9));
#623=CARTESIAN_POINT('',(-25.,-4.,-2.65000000000001));
#624=CARTESIAN_POINT('Origin',(-38.,-23.7,-79.65));
#625=CARTESIAN_POINT('',(-50.5,-3.99999999999999,-79.65));
#626=CARTESIAN_POINT('',(-25.5,-4.,-79.65));
#627=CARTESIAN_POINT('Origin',(-38.,-3.99999999999999,-79.65));
#628=CARTESIAN_POINT('',(-50.5,-23.7,-79.65));
#629=CARTESIAN_POINT('',(-50.5,-23.7,-79.65));
#630=CARTESIAN_POINT('',(-25.5,-23.7,-79.65));
#631=CARTESIAN_POINT('Origin',(-38.,-23.7,-79.65));
#632=CARTESIAN_POINT('',(-25.5,-23.7,-79.65));
#633=CARTESIAN_POINT('Origin',(-38.,-4.,-79.65));
#634=CARTESIAN_POINT('',(-51.2373524543241,-1.99999999999999,-82.3));
#635=CARTESIAN_POINT('',(-51.2373524543241,-20.7,-82.3));
#636=CARTESIAN_POINT('',(-51.2373524543241,-3.99999999999999,-82.3));
#637=CARTESIAN_POINT('',(-24.7626475456759,-2.,-82.3));
#638=CARTESIAN_POINT('Origin',(-38.,-2.,-79.65));
#639=CARTESIAN_POINT('',(-24.7626475456759,-20.7,-82.3));
#640=CARTESIAN_POINT('',(-24.7626475456759,-23.7,-82.3));
#641=CARTESIAN_POINT('Origin',(-38.,-20.7,-79.65));
#642=CARTESIAN_POINT('Origin',(-68.,-3.99999999999999,-82.3));
#643=CARTESIAN_POINT('',(-8.,-2.,-82.3));
#644=CARTESIAN_POINT('',(-68.,-1.99999999999999,-82.3));
#645=CARTESIAN_POINT('',(-8.00000000000001,-20.7,-82.3));
#646=CARTESIAN_POINT('',(-8.,-4.,-82.3));
#647=CARTESIAN_POINT('',(-68.,-20.7,-82.3));
#648=CARTESIAN_POINT('Origin',(-68.,-3.99999999999999,-82.3));
#649=CARTESIAN_POINT('',(-68.,-20.7,-82.3));
#650=CARTESIAN_POINT('',(-68.,-20.7,-82.3));
#651=CARTESIAN_POINT('',(-68.,-1.99999999999999,-82.3));
#652=CARTESIAN_POINT('',(-68.,-3.99999999999999,-82.3));
#653=CARTESIAN_POINT('',(-68.,-1.99999999999999,-82.3));
#654=CARTESIAN_POINT('Origin',(-10.25,-4.,-79.65));
#655=CARTESIAN_POINT('',(-10.25,-23.7,-79.65));
#656=CARTESIAN_POINT('',(-51.5,-23.7,-79.65));
#657=CARTESIAN_POINT('',(-10.25,-4.,-79.65));
#658=CARTESIAN_POINT('',(-10.25,-4.,-79.65));
#659=CARTESIAN_POINT('',(-31.75,-4.,-79.65));
#660=CARTESIAN_POINT('Origin',(-38.,-23.7,-47.15));
#661=CARTESIAN_POINT('',(-4.,-23.7,-98.3));
#662=CARTESIAN_POINT('',(-4.,-23.7,4.));
#663=CARTESIAN_POINT('',(-4.,-23.7,-82.3));
#664=CARTESIAN_POINT('',(-72.,-23.7,4.));
#665=CARTESIAN_POINT('',(-4.,-23.7,4.));
#666=CARTESIAN_POINT('',(-72.,-23.7,-98.3));
#667=CARTESIAN_POINT('',(-72.,-23.7,4.));
#668=CARTESIAN_POINT('',(-8.00000000000001,-23.7,-98.3));
#669=CARTESIAN_POINT('',(-65.75,-23.7,-79.65));
#670=CARTESIAN_POINT('',(-10.25,-23.7,-79.65));
#671=CARTESIAN_POINT('',(-65.75,-23.7,-2.65000000000001));
#672=CARTESIAN_POINT('',(-65.75,-23.7,-79.65));
#673=CARTESIAN_POINT('',(-10.25,-23.7,-2.65000000000001));
#674=CARTESIAN_POINT('',(-10.25,-23.7,-2.65000000000001));
#675=CARTESIAN_POINT('',(-10.25,-23.7,-2.65000000000001));
#676=CARTESIAN_POINT('Origin',(-10.25,-4.,-79.65));
#677=CARTESIAN_POINT('',(-65.75,-3.99999999999999,-79.65));
#678=CARTESIAN_POINT('',(-65.75,-3.99999999999999,-79.65));
#679=CARTESIAN_POINT('',(-65.75,-3.99999999999999,-79.65));
#680=CARTESIAN_POINT('Origin',(-38.,-20.7,-47.15));
#681=CARTESIAN_POINT('',(-4.,-20.7,4.));
#682=CARTESIAN_POINT('',(-4.,-20.7,-98.3));
#683=CARTESIAN_POINT('',(-4.,-20.7,-82.3));
#684=CARTESIAN_POINT('',(-72.,-20.7,-98.3));
#685=CARTESIAN_POINT('',(-8.00000000000001,-20.7,-98.3));
#686=CARTESIAN_POINT('',(-72.,-20.7,4.));
#687=CARTESIAN_POINT('',(-72.,-20.7,4.));
#688=CARTESIAN_POINT('',(-4.,-20.7,4.));
#689=CARTESIAN_POINT('',(-8.00000000000001,-20.7,0.));
#690=CARTESIAN_POINT('',(-8.00000000000001,-20.7,-82.3));
#691=CARTESIAN_POINT('',(-68.,-20.7,0.));
#692=CARTESIAN_POINT('',(-8.00000000000001,-20.7,0.));
#693=CARTESIAN_POINT('',(-68.,-20.7,0.));
#694=CARTESIAN_POINT('Origin',(-72.,-20.7,-98.3));
#695=CARTESIAN_POINT('',(-4.,-20.7,-98.3));
#696=CARTESIAN_POINT('',(-72.,-20.7,-98.3));
#697=CARTESIAN_POINT('Origin',(-72.,-20.7,4.));
#698=CARTESIAN_POINT('',(-72.,-20.7,4.));
#699=CARTESIAN_POINT('Origin',(-4.,-20.7,4.));
#700=CARTESIAN_POINT('',(-4.,-20.7,4.));
#701=CARTESIAN_POINT('Origin',(-4.,-20.7,-98.3));
#702=CARTESIAN_POINT('Origin',(-38.,-4.,-41.15));
#703=CARTESIAN_POINT('',(-65.75,-3.99999999999999,-2.65000000000001));
#704=CARTESIAN_POINT('',(-10.25,-4.,-2.65000000000001));
#705=CARTESIAN_POINT('',(-65.75,-3.99999999999999,-2.65000000000001));
#706=CARTESIAN_POINT('',(-10.25,-4.,-2.65000000000001));
#707=CARTESIAN_POINT('',(-10.25,-4.,-79.65));
#708=CARTESIAN_POINT('',(-10.25,-4.,-2.65000000000001));
#709=CARTESIAN_POINT('Origin',(-38.,-2.,-41.15));
#710=CARTESIAN_POINT('',(-68.,-1.99999999999999,0.));
#711=CARTESIAN_POINT('',(-68.,-1.99999999999999,0.));
#712=CARTESIAN_POINT('',(-8.,-2.,0.));
#713=CARTESIAN_POINT('',(-8.,-2.,0.));
#714=CARTESIAN_POINT('',(-8.,-2.,-82.3));
#715=CARTESIAN_POINT('',(-44.5049284792508,-2.,-2.65000000000001));
#716=CARTESIAN_POINT('Origin',(-10.25,-4.,-2.65000000000001));
#717=CARTESIAN_POINT('',(-10.25,-4.,-2.65000000000001));
#718=CARTESIAN_POINT('Origin',(-65.75,-3.99999999999999,-2.65000000000001));
#719=CARTESIAN_POINT('',(-65.75,-3.99999999999999,-2.65000000000001));
#720=CARTESIAN_POINT('Origin',(-65.75,-3.99999999999999,-79.65));
#721=CARTESIAN_POINT('Origin',(-68.,-3.99999999999999,0.));
#722=CARTESIAN_POINT('',(-68.,-3.99999999999999,0.));
#723=CARTESIAN_POINT('Origin',(-8.,-4.,0.));
#724=CARTESIAN_POINT('',(-8.,-4.,0.));
#725=CARTESIAN_POINT('Origin',(-8.,-4.,-82.3));
#726=UNCERTAINTY_MEASURE_WITH_UNIT(LENGTH_MEASURE(0.01),#730,
'DISTANCE_ACCURACY_VALUE',
'Maximum model space distance between geometric entities at asserted c
onnectivities');
#727=UNCERTAINTY_MEASURE_WITH_UNIT(LENGTH_MEASURE(0.01),#730,
'DISTANCE_ACCURACY_VALUE',
'Maximum model space distance between geometric entities at asserted c
onnectivities');
#728=(
GEOMETRIC_REPRESENTATION_CONTEXT(3)
GLOBAL_UNCERTAINTY_ASSIGNED_CONTEXT((#726))
GLOBAL_UNIT_ASSIGNED_CONTEXT((#730,#732,#733))
REPRESENTATION_CONTEXT('','3D')
);
#729=(
GEOMETRIC_REPRESENTATION_CONTEXT(3)
GLOBAL_UNCERTAINTY_ASSIGNED_CONTEXT((#727))
GLOBAL_UNIT_ASSIGNED_CONTEXT((#730,#732,#733))
REPRESENTATION_CONTEXT('','3D')
);
#730=(
LENGTH_UNIT()
NAMED_UNIT(*)
SI_UNIT(.MILLI.,.METRE.)
);
#731=(
LENGTH_UNIT()
NAMED_UNIT(*)
SI_UNIT($,.METRE.)
);
#732=(
NAMED_UNIT(*)
PLANE_ANGLE_UNIT()
SI_UNIT($,.RADIAN.)
);
#733=(
NAMED_UNIT(*)
SI_UNIT($,.STERADIAN.)
SOLID_ANGLE_UNIT()
);
#734=SHAPE_DEFINITION_REPRESENTATION(#735,#736);
#735=PRODUCT_DEFINITION_SHAPE('',$,#738);
#736=SHAPE_REPRESENTATION('',(#462),#728);
#737=PRODUCT_DEFINITION_CONTEXT('part definition',#742,'design');
#738=PRODUCT_DEFINITION('hy-vfd','hy-vfd v2',#739,#737);
#739=PRODUCT_DEFINITION_FORMATION('',$,#744);
#740=PRODUCT_RELATED_PRODUCT_CATEGORY('hy-vfd v2','hy-vfd v2',(#744));
#741=APPLICATION_PROTOCOL_DEFINITION('international standard',
'automotive_design',2009,#742);
#742=APPLICATION_CONTEXT(
'Core Data for Automotive Mechanical Design Process');
#743=PRODUCT_CONTEXT('part definition',#742,'mechanical');
#744=PRODUCT('hy-vfd','hy-vfd v2',$,(#743));
#745=PRESENTATION_STYLE_ASSIGNMENT((#746));
#746=SURFACE_STYLE_USAGE(.BOTH.,#747);
#747=SURFACE_SIDE_STYLE('',(#748));
#748=SURFACE_STYLE_FILL_AREA(#749);
#749=FILL_AREA_STYLE('Steel - Satin',(#750));
#750=FILL_AREA_STYLE_COLOUR('Steel - Satin',#751);
#751=COLOUR_RGB('Steel - Satin',0.627450980392157,0.627450980392157,0.627450980392157);
ENDSEC;
END-ISO-10303-21;
