ISO-10303-21;
HEADER;
/* Generated by software containing ST-Developer
 * from STEP Tools, Inc. (www.steptools.com) 
 */

FILE_DESCRIPTION(
/* description */ (''),
/* implementation_level */ '2;1');

FILE_NAME(
/* name */ 'mount to motor plate v1.step',
/* time_stamp */ '2026-03-14T10:14:33+01:00',
/* author */ (''),
/* organization */ (''),
/* preprocessor_version */ 'ST-DEVELOPER v20.1',
/* originating_system */ 'Autodesk Translation Framework v14.24.0.0',
/* authorisation */ '');

FILE_SCHEMA (('AUTOMOTIVE_DESIGN { 1 0 10303 214 3 1 1 }'));
ENDSEC;

DATA;
#10=MECHANICAL_DESIGN_GEOMETRIC_PRESENTATION_REPRESENTATION('',(#13),#995);
#11=SHAPE_REPRESENTATION_RELATIONSHIP('SRR','None',#1002,#12);
#12=ADVANCED_BREP_SHAPE_REPRESENTATION('',(#14),#994);
#13=STYLED_ITEM('',(#1012),#14);
#14=MANIFOLD_SOLID_BREP('Body1',#587);
#15=FACE_BOUND('',#85,.T.);
#16=FACE_BOUND('',#89,.T.);
#17=FACE_BOUND('',#93,.T.);
#18=FACE_BOUND('',#101,.T.);
#19=FACE_BOUND('',#103,.T.);
#20=FACE_BOUND('',#105,.T.);
#21=FACE_BOUND('',#107,.T.);
#22=FACE_BOUND('',#110,.T.);
#23=FACE_BOUND('',#112,.T.);
#24=FACE_BOUND('',#114,.T.);
#25=FACE_BOUND('',#116,.T.);
#26=FACE_BOUND('',#118,.T.);
#27=FACE_BOUND('',#120,.T.);
#28=FACE_BOUND('',#122,.T.);
#29=FACE_BOUND('',#125,.T.);
#30=FACE_BOUND('',#126,.T.);
#31=FACE_BOUND('',#127,.T.);
#32=PLANE('',#613);
#33=PLANE('',#620);
#34=PLANE('',#627);
#35=PLANE('',#646);
#36=PLANE('',#647);
#37=PLANE('',#648);
#38=PLANE('',#649);
#39=PLANE('',#650);
#40=PLANE('',#651);
#41=PLANE('',#652);
#42=PLANE('',#653);
#43=PLANE('',#654);
#44=PLANE('',#655);
#45=PLANE('',#656);
#46=PLANE('',#657);
#47=PLANE('',#658);
#48=PLANE('',#659);
#49=FACE_OUTER_BOUND('',#80,.T.);
#50=FACE_OUTER_BOUND('',#81,.T.);
#51=FACE_OUTER_BOUND('',#82,.T.);
#52=FACE_OUTER_BOUND('',#83,.T.);
#53=FACE_OUTER_BOUND('',#84,.T.);
#54=FACE_OUTER_BOUND('',#86,.T.);
#55=FACE_OUTER_BOUND('',#87,.T.);
#56=FACE_OUTER_BOUND('',#88,.T.);
#57=FACE_OUTER_BOUND('',#90,.T.);
#58=FACE_OUTER_BOUND('',#91,.T.);
#59=FACE_OUTER_BOUND('',#92,.T.);
#60=FACE_OUTER_BOUND('',#94,.T.);
#61=FACE_OUTER_BOUND('',#95,.T.);
#62=FACE_OUTER_BOUND('',#96,.T.);
#63=FACE_OUTER_BOUND('',#97,.T.);
#64=FACE_OUTER_BOUND('',#98,.T.);
#65=FACE_OUTER_BOUND('',#99,.T.);
#66=FACE_OUTER_BOUND('',#100,.T.);
#67=FACE_OUTER_BOUND('',#102,.T.);
#68=FACE_OUTER_BOUND('',#104,.T.);
#69=FACE_OUTER_BOUND('',#106,.T.);
#70=FACE_OUTER_BOUND('',#108,.T.);
#71=FACE_OUTER_BOUND('',#109,.T.);
#72=FACE_OUTER_BOUND('',#111,.T.);
#73=FACE_OUTER_BOUND('',#113,.T.);
#74=FACE_OUTER_BOUND('',#115,.T.);
#75=FACE_OUTER_BOUND('',#117,.T.);
#76=FACE_OUTER_BOUND('',#119,.T.);
#77=FACE_OUTER_BOUND('',#121,.T.);
#78=FACE_OUTER_BOUND('',#123,.T.);
#79=FACE_OUTER_BOUND('',#124,.T.);
#80=EDGE_LOOP('',(#386,#387,#388,#389));
#81=EDGE_LOOP('',(#390,#391,#392,#393));
#82=EDGE_LOOP('',(#394,#395,#396,#397));
#83=EDGE_LOOP('',(#398,#399,#400,#401));
#84=EDGE_LOOP('',(#402));
#85=EDGE_LOOP('',(#403));
#86=EDGE_LOOP('',(#404,#405,#406,#407));
#87=EDGE_LOOP('',(#408,#409,#410,#411));
#88=EDGE_LOOP('',(#412));
#89=EDGE_LOOP('',(#413));
#90=EDGE_LOOP('',(#414,#415,#416,#417));
#91=EDGE_LOOP('',(#418,#419,#420,#421));
#92=EDGE_LOOP('',(#422));
#93=EDGE_LOOP('',(#423));
#94=EDGE_LOOP('',(#424,#425,#426,#427));
#95=EDGE_LOOP('',(#428,#429,#430,#431));
#96=EDGE_LOOP('',(#432,#433,#434,#435));
#97=EDGE_LOOP('',(#436,#437,#438,#439));
#98=EDGE_LOOP('',(#440,#441,#442,#443));
#99=EDGE_LOOP('',(#444,#445,#446,#447));
#100=EDGE_LOOP('',(#448,#449,#450,#451));
#101=EDGE_LOOP('',(#452));
#102=EDGE_LOOP('',(#453,#454,#455,#456));
#103=EDGE_LOOP('',(#457));
#104=EDGE_LOOP('',(#458,#459,#460,#461));
#105=EDGE_LOOP('',(#462));
#106=EDGE_LOOP('',(#463,#464,#465,#466));
#107=EDGE_LOOP('',(#467));
#108=EDGE_LOOP('',(#468,#469,#470,#471,#472,#473,#474,#475,#476,#477,#478,
#479,#480,#481,#482,#483));
#109=EDGE_LOOP('',(#484,#485,#486,#487));
#110=EDGE_LOOP('',(#488));
#111=EDGE_LOOP('',(#489,#490,#491,#492));
#112=EDGE_LOOP('',(#493));
#113=EDGE_LOOP('',(#494,#495,#496,#497));
#114=EDGE_LOOP('',(#498));
#115=EDGE_LOOP('',(#499,#500,#501,#502));
#116=EDGE_LOOP('',(#503));
#117=EDGE_LOOP('',(#504,#505,#506,#507));
#118=EDGE_LOOP('',(#508));
#119=EDGE_LOOP('',(#509,#510,#511,#512));
#120=EDGE_LOOP('',(#513));
#121=EDGE_LOOP('',(#514,#515,#516,#517));
#122=EDGE_LOOP('',(#518));
#123=EDGE_LOOP('',(#519,#520,#521,#522,#523,#524,#525,#526,#527,#528,#529,
#530,#531,#532,#533,#534));
#124=EDGE_LOOP('',(#535,#536,#537,#538));
#125=EDGE_LOOP('',(#539));
#126=EDGE_LOOP('',(#540));
#127=EDGE_LOOP('',(#541));
#128=LINE('',#835,#178);
#129=LINE('',#841,#179);
#130=LINE('',#847,#180);
#131=LINE('',#853,#181);
#132=LINE('',#863,#182);
#133=LINE('',#866,#183);
#134=LINE('',#876,#184);
#135=LINE('',#879,#185);
#136=LINE('',#889,#186);
#137=LINE('',#892,#187);
#138=LINE('',#899,#188);
#139=LINE('',#902,#189);
#140=LINE('',#908,#190);
#141=LINE('',#911,#191);
#142=LINE('',#917,#192);
#143=LINE('',#920,#193);
#144=LINE('',#926,#194);
#145=LINE('',#929,#195);
#146=LINE('',#932,#196);
#147=LINE('',#934,#197);
#148=LINE('',#935,#198);
#149=LINE('',#938,#199);
#150=LINE('',#940,#200);
#151=LINE('',#941,#201);
#152=LINE('',#944,#202);
#153=LINE('',#946,#203);
#154=LINE('',#947,#204);
#155=LINE('',#950,#205);
#156=LINE('',#952,#206);
#157=LINE('',#953,#207);
#158=LINE('',#956,#208);
#159=LINE('',#957,#209);
#160=LINE('',#959,#210);
#161=LINE('',#960,#211);
#162=LINE('',#962,#212);
#163=LINE('',#963,#213);
#164=LINE('',#965,#214);
#165=LINE('',#966,#215);
#166=LINE('',#969,#216);
#167=LINE('',#970,#217);
#168=LINE('',#972,#218);
#169=LINE('',#975,#219);
#170=LINE('',#976,#220);
#171=LINE('',#978,#221);
#172=LINE('',#981,#222);
#173=LINE('',#982,#223);
#174=LINE('',#984,#224);
#175=LINE('',#987,#225);
#176=LINE('',#988,#226);
#177=LINE('',#990,#227);
#178=VECTOR('',#666,12.5);
#179=VECTOR('',#673,12.5);
#180=VECTOR('',#680,12.5);
#181=VECTOR('',#687,12.5);
#182=VECTOR('',#700,8.);
#183=VECTOR('',#703,5.);
#184=VECTOR('',#716,8.);
#185=VECTOR('',#719,5.);
#186=VECTOR('',#732,8.);
#187=VECTOR('',#735,5.);
#188=VECTOR('',#742,10.);
#189=VECTOR('',#745,10.);
#190=VECTOR('',#750,10.);
#191=VECTOR('',#753,10.);
#192=VECTOR('',#758,10.);
#193=VECTOR('',#761,10.);
#194=VECTOR('',#766,10.);
#195=VECTOR('',#769,10.);
#196=VECTOR('',#772,10.);
#197=VECTOR('',#773,10.);
#198=VECTOR('',#774,10.);
#199=VECTOR('',#777,10.);
#200=VECTOR('',#778,10.);
#201=VECTOR('',#779,10.);
#202=VECTOR('',#782,10.);
#203=VECTOR('',#783,10.);
#204=VECTOR('',#784,10.);
#205=VECTOR('',#787,10.);
#206=VECTOR('',#788,10.);
#207=VECTOR('',#789,10.);
#208=VECTOR('',#792,10.);
#209=VECTOR('',#793,10.);
#210=VECTOR('',#794,10.);
#211=VECTOR('',#795,10.);
#212=VECTOR('',#796,10.);
#213=VECTOR('',#797,10.);
#214=VECTOR('',#798,10.);
#215=VECTOR('',#799,10.);
#216=VECTOR('',#802,10.);
#217=VECTOR('',#803,10.);
#218=VECTOR('',#806,10.);
#219=VECTOR('',#809,10.);
#220=VECTOR('',#810,10.);
#221=VECTOR('',#813,10.);
#222=VECTOR('',#816,10.);
#223=VECTOR('',#817,10.);
#224=VECTOR('',#820,10.);
#225=VECTOR('',#823,10.);
#226=VECTOR('',#824,10.);
#227=VECTOR('',#827,10.);
#228=CIRCLE('',#602,12.5);
#229=CIRCLE('',#603,12.5);
#230=CIRCLE('',#605,12.5);
#231=CIRCLE('',#606,12.5);
#232=CIRCLE('',#608,12.5);
#233=CIRCLE('',#609,12.5);
#234=CIRCLE('',#611,12.5);
#235=CIRCLE('',#612,12.5);
#236=CIRCLE('',#614,8.);
#237=CIRCLE('',#615,5.);
#238=CIRCLE('',#617,8.);
#239=CIRCLE('',#619,5.);
#240=CIRCLE('',#621,8.);
#241=CIRCLE('',#622,5.);
#242=CIRCLE('',#624,8.);
#243=CIRCLE('',#626,5.);
#244=CIRCLE('',#628,8.);
#245=CIRCLE('',#629,5.);
#246=CIRCLE('',#631,8.);
#247=CIRCLE('',#633,5.);
#248=CIRCLE('',#635,25.);
#249=CIRCLE('',#636,25.);
#250=CIRCLE('',#638,25.);
#251=CIRCLE('',#639,25.);
#252=CIRCLE('',#641,25.);
#253=CIRCLE('',#642,25.);
#254=CIRCLE('',#644,25.);
#255=CIRCLE('',#645,25.);
#256=VERTEX_POINT('',#832);
#257=VERTEX_POINT('',#834);
#258=VERTEX_POINT('',#838);
#259=VERTEX_POINT('',#840);
#260=VERTEX_POINT('',#844);
#261=VERTEX_POINT('',#846);
#262=VERTEX_POINT('',#850);
#263=VERTEX_POINT('',#852);
#264=VERTEX_POINT('',#856);
#265=VERTEX_POINT('',#858);
#266=VERTEX_POINT('',#861);
#267=VERTEX_POINT('',#865);
#268=VERTEX_POINT('',#869);
#269=VERTEX_POINT('',#871);
#270=VERTEX_POINT('',#874);
#271=VERTEX_POINT('',#878);
#272=VERTEX_POINT('',#882);
#273=VERTEX_POINT('',#884);
#274=VERTEX_POINT('',#887);
#275=VERTEX_POINT('',#891);
#276=VERTEX_POINT('',#895);
#277=VERTEX_POINT('',#896);
#278=VERTEX_POINT('',#898);
#279=VERTEX_POINT('',#900);
#280=VERTEX_POINT('',#904);
#281=VERTEX_POINT('',#905);
#282=VERTEX_POINT('',#907);
#283=VERTEX_POINT('',#909);
#284=VERTEX_POINT('',#913);
#285=VERTEX_POINT('',#914);
#286=VERTEX_POINT('',#916);
#287=VERTEX_POINT('',#918);
#288=VERTEX_POINT('',#922);
#289=VERTEX_POINT('',#923);
#290=VERTEX_POINT('',#925);
#291=VERTEX_POINT('',#927);
#292=VERTEX_POINT('',#931);
#293=VERTEX_POINT('',#933);
#294=VERTEX_POINT('',#937);
#295=VERTEX_POINT('',#939);
#296=VERTEX_POINT('',#943);
#297=VERTEX_POINT('',#945);
#298=VERTEX_POINT('',#949);
#299=VERTEX_POINT('',#951);
#300=VERTEX_POINT('',#955);
#301=VERTEX_POINT('',#958);
#302=VERTEX_POINT('',#961);
#303=VERTEX_POINT('',#964);
#304=VERTEX_POINT('',#968);
#305=VERTEX_POINT('',#974);
#306=VERTEX_POINT('',#980);
#307=VERTEX_POINT('',#986);
#308=EDGE_CURVE('',#256,#256,#228,.T.);
#309=EDGE_CURVE('',#256,#257,#128,.T.);
#310=EDGE_CURVE('',#257,#257,#229,.T.);
#311=EDGE_CURVE('',#258,#258,#230,.T.);
#312=EDGE_CURVE('',#258,#259,#129,.T.);
#313=EDGE_CURVE('',#259,#259,#231,.T.);
#314=EDGE_CURVE('',#260,#260,#232,.T.);
#315=EDGE_CURVE('',#260,#261,#130,.T.);
#316=EDGE_CURVE('',#261,#261,#233,.T.);
#317=EDGE_CURVE('',#262,#262,#234,.T.);
#318=EDGE_CURVE('',#262,#263,#131,.T.);
#319=EDGE_CURVE('',#263,#263,#235,.T.);
#320=EDGE_CURVE('',#264,#264,#236,.T.);
#321=EDGE_CURVE('',#265,#265,#237,.T.);
#322=EDGE_CURVE('',#266,#266,#238,.T.);
#323=EDGE_CURVE('',#266,#264,#132,.T.);
#324=EDGE_CURVE('',#265,#267,#133,.T.);
#325=EDGE_CURVE('',#267,#267,#239,.T.);
#326=EDGE_CURVE('',#268,#268,#240,.T.);
#327=EDGE_CURVE('',#269,#269,#241,.T.);
#328=EDGE_CURVE('',#270,#270,#242,.T.);
#329=EDGE_CURVE('',#270,#268,#134,.T.);
#330=EDGE_CURVE('',#269,#271,#135,.T.);
#331=EDGE_CURVE('',#271,#271,#243,.T.);
#332=EDGE_CURVE('',#272,#272,#244,.T.);
#333=EDGE_CURVE('',#273,#273,#245,.T.);
#334=EDGE_CURVE('',#274,#274,#246,.T.);
#335=EDGE_CURVE('',#274,#272,#136,.T.);
#336=EDGE_CURVE('',#273,#275,#137,.T.);
#337=EDGE_CURVE('',#275,#275,#247,.T.);
#338=EDGE_CURVE('',#276,#277,#248,.T.);
#339=EDGE_CURVE('',#278,#276,#138,.T.);
#340=EDGE_CURVE('',#279,#278,#249,.T.);
#341=EDGE_CURVE('',#279,#277,#139,.T.);
#342=EDGE_CURVE('',#280,#281,#250,.T.);
#343=EDGE_CURVE('',#280,#282,#140,.T.);
#344=EDGE_CURVE('',#283,#282,#251,.T.);
#345=EDGE_CURVE('',#281,#283,#141,.T.);
#346=EDGE_CURVE('',#284,#285,#252,.T.);
#347=EDGE_CURVE('',#286,#284,#142,.T.);
#348=EDGE_CURVE('',#287,#286,#253,.T.);
#349=EDGE_CURVE('',#287,#285,#143,.T.);
#350=EDGE_CURVE('',#288,#289,#254,.T.);
#351=EDGE_CURVE('',#288,#290,#144,.T.);
#352=EDGE_CURVE('',#291,#290,#255,.T.);
#353=EDGE_CURVE('',#289,#291,#145,.T.);
#354=EDGE_CURVE('',#292,#290,#146,.T.);
#355=EDGE_CURVE('',#293,#292,#147,.T.);
#356=EDGE_CURVE('',#293,#291,#148,.T.);
#357=EDGE_CURVE('',#294,#285,#149,.T.);
#358=EDGE_CURVE('',#295,#294,#150,.T.);
#359=EDGE_CURVE('',#284,#295,#151,.T.);
#360=EDGE_CURVE('',#296,#282,#152,.T.);
#361=EDGE_CURVE('',#297,#296,#153,.T.);
#362=EDGE_CURVE('',#283,#297,#154,.T.);
#363=EDGE_CURVE('',#298,#277,#155,.T.);
#364=EDGE_CURVE('',#299,#298,#156,.T.);
#365=EDGE_CURVE('',#276,#299,#157,.T.);
#366=EDGE_CURVE('',#288,#300,#158,.T.);
#367=EDGE_CURVE('',#300,#298,#159,.T.);
#368=EDGE_CURVE('',#279,#301,#160,.T.);
#369=EDGE_CURVE('',#301,#296,#161,.T.);
#370=EDGE_CURVE('',#280,#302,#162,.T.);
#371=EDGE_CURVE('',#302,#294,#163,.T.);
#372=EDGE_CURVE('',#303,#287,#164,.T.);
#373=EDGE_CURVE('',#292,#303,#165,.T.);
#374=EDGE_CURVE('',#304,#289,#166,.T.);
#375=EDGE_CURVE('',#304,#300,#167,.T.);
#376=EDGE_CURVE('',#299,#304,#168,.T.);
#377=EDGE_CURVE('',#305,#281,#169,.T.);
#378=EDGE_CURVE('',#305,#302,#170,.T.);
#379=EDGE_CURVE('',#295,#305,#171,.T.);
#380=EDGE_CURVE('',#306,#278,#172,.T.);
#381=EDGE_CURVE('',#306,#301,#173,.T.);
#382=EDGE_CURVE('',#297,#306,#174,.T.);
#383=EDGE_CURVE('',#307,#286,#175,.T.);
#384=EDGE_CURVE('',#303,#307,#176,.T.);
#385=EDGE_CURVE('',#307,#293,#177,.T.);
#386=ORIENTED_EDGE('',*,*,#308,.F.);
#387=ORIENTED_EDGE('',*,*,#309,.T.);
#388=ORIENTED_EDGE('',*,*,#310,.F.);
#389=ORIENTED_EDGE('',*,*,#309,.F.);
#390=ORIENTED_EDGE('',*,*,#311,.F.);
#391=ORIENTED_EDGE('',*,*,#312,.T.);
#392=ORIENTED_EDGE('',*,*,#313,.F.);
#393=ORIENTED_EDGE('',*,*,#312,.F.);
#394=ORIENTED_EDGE('',*,*,#314,.F.);
#395=ORIENTED_EDGE('',*,*,#315,.T.);
#396=ORIENTED_EDGE('',*,*,#316,.F.);
#397=ORIENTED_EDGE('',*,*,#315,.F.);
#398=ORIENTED_EDGE('',*,*,#317,.F.);
#399=ORIENTED_EDGE('',*,*,#318,.T.);
#400=ORIENTED_EDGE('',*,*,#319,.F.);
#401=ORIENTED_EDGE('',*,*,#318,.F.);
#402=ORIENTED_EDGE('',*,*,#320,.F.);
#403=ORIENTED_EDGE('',*,*,#321,.T.);
#404=ORIENTED_EDGE('',*,*,#322,.F.);
#405=ORIENTED_EDGE('',*,*,#323,.T.);
#406=ORIENTED_EDGE('',*,*,#320,.T.);
#407=ORIENTED_EDGE('',*,*,#323,.F.);
#408=ORIENTED_EDGE('',*,*,#321,.F.);
#409=ORIENTED_EDGE('',*,*,#324,.T.);
#410=ORIENTED_EDGE('',*,*,#325,.F.);
#411=ORIENTED_EDGE('',*,*,#324,.F.);
#412=ORIENTED_EDGE('',*,*,#326,.F.);
#413=ORIENTED_EDGE('',*,*,#327,.T.);
#414=ORIENTED_EDGE('',*,*,#328,.F.);
#415=ORIENTED_EDGE('',*,*,#329,.T.);
#416=ORIENTED_EDGE('',*,*,#326,.T.);
#417=ORIENTED_EDGE('',*,*,#329,.F.);
#418=ORIENTED_EDGE('',*,*,#327,.F.);
#419=ORIENTED_EDGE('',*,*,#330,.T.);
#420=ORIENTED_EDGE('',*,*,#331,.F.);
#421=ORIENTED_EDGE('',*,*,#330,.F.);
#422=ORIENTED_EDGE('',*,*,#332,.F.);
#423=ORIENTED_EDGE('',*,*,#333,.T.);
#424=ORIENTED_EDGE('',*,*,#334,.F.);
#425=ORIENTED_EDGE('',*,*,#335,.T.);
#426=ORIENTED_EDGE('',*,*,#332,.T.);
#427=ORIENTED_EDGE('',*,*,#335,.F.);
#428=ORIENTED_EDGE('',*,*,#333,.F.);
#429=ORIENTED_EDGE('',*,*,#336,.T.);
#430=ORIENTED_EDGE('',*,*,#337,.F.);
#431=ORIENTED_EDGE('',*,*,#336,.F.);
#432=ORIENTED_EDGE('',*,*,#338,.F.);
#433=ORIENTED_EDGE('',*,*,#339,.F.);
#434=ORIENTED_EDGE('',*,*,#340,.F.);
#435=ORIENTED_EDGE('',*,*,#341,.T.);
#436=ORIENTED_EDGE('',*,*,#342,.F.);
#437=ORIENTED_EDGE('',*,*,#343,.T.);
#438=ORIENTED_EDGE('',*,*,#344,.F.);
#439=ORIENTED_EDGE('',*,*,#345,.F.);
#440=ORIENTED_EDGE('',*,*,#346,.F.);
#441=ORIENTED_EDGE('',*,*,#347,.F.);
#442=ORIENTED_EDGE('',*,*,#348,.F.);
#443=ORIENTED_EDGE('',*,*,#349,.T.);
#444=ORIENTED_EDGE('',*,*,#350,.F.);
#445=ORIENTED_EDGE('',*,*,#351,.T.);
#446=ORIENTED_EDGE('',*,*,#352,.F.);
#447=ORIENTED_EDGE('',*,*,#353,.F.);
#448=ORIENTED_EDGE('',*,*,#352,.T.);
#449=ORIENTED_EDGE('',*,*,#354,.F.);
#450=ORIENTED_EDGE('',*,*,#355,.F.);
#451=ORIENTED_EDGE('',*,*,#356,.T.);
#452=ORIENTED_EDGE('',*,*,#308,.T.);
#453=ORIENTED_EDGE('',*,*,#346,.T.);
#454=ORIENTED_EDGE('',*,*,#357,.F.);
#455=ORIENTED_EDGE('',*,*,#358,.F.);
#456=ORIENTED_EDGE('',*,*,#359,.F.);
#457=ORIENTED_EDGE('',*,*,#317,.T.);
#458=ORIENTED_EDGE('',*,*,#344,.T.);
#459=ORIENTED_EDGE('',*,*,#360,.F.);
#460=ORIENTED_EDGE('',*,*,#361,.F.);
#461=ORIENTED_EDGE('',*,*,#362,.F.);
#462=ORIENTED_EDGE('',*,*,#314,.T.);
#463=ORIENTED_EDGE('',*,*,#338,.T.);
#464=ORIENTED_EDGE('',*,*,#363,.F.);
#465=ORIENTED_EDGE('',*,*,#364,.F.);
#466=ORIENTED_EDGE('',*,*,#365,.F.);
#467=ORIENTED_EDGE('',*,*,#311,.T.);
#468=ORIENTED_EDGE('',*,*,#351,.F.);
#469=ORIENTED_EDGE('',*,*,#366,.T.);
#470=ORIENTED_EDGE('',*,*,#367,.T.);
#471=ORIENTED_EDGE('',*,*,#363,.T.);
#472=ORIENTED_EDGE('',*,*,#341,.F.);
#473=ORIENTED_EDGE('',*,*,#368,.T.);
#474=ORIENTED_EDGE('',*,*,#369,.T.);
#475=ORIENTED_EDGE('',*,*,#360,.T.);
#476=ORIENTED_EDGE('',*,*,#343,.F.);
#477=ORIENTED_EDGE('',*,*,#370,.T.);
#478=ORIENTED_EDGE('',*,*,#371,.T.);
#479=ORIENTED_EDGE('',*,*,#357,.T.);
#480=ORIENTED_EDGE('',*,*,#349,.F.);
#481=ORIENTED_EDGE('',*,*,#372,.F.);
#482=ORIENTED_EDGE('',*,*,#373,.F.);
#483=ORIENTED_EDGE('',*,*,#354,.T.);
#484=ORIENTED_EDGE('',*,*,#350,.T.);
#485=ORIENTED_EDGE('',*,*,#374,.F.);
#486=ORIENTED_EDGE('',*,*,#375,.T.);
#487=ORIENTED_EDGE('',*,*,#366,.F.);
#488=ORIENTED_EDGE('',*,*,#310,.T.);
#489=ORIENTED_EDGE('',*,*,#376,.F.);
#490=ORIENTED_EDGE('',*,*,#364,.T.);
#491=ORIENTED_EDGE('',*,*,#367,.F.);
#492=ORIENTED_EDGE('',*,*,#375,.F.);
#493=ORIENTED_EDGE('',*,*,#328,.T.);
#494=ORIENTED_EDGE('',*,*,#342,.T.);
#495=ORIENTED_EDGE('',*,*,#377,.F.);
#496=ORIENTED_EDGE('',*,*,#378,.T.);
#497=ORIENTED_EDGE('',*,*,#370,.F.);
#498=ORIENTED_EDGE('',*,*,#316,.T.);
#499=ORIENTED_EDGE('',*,*,#379,.F.);
#500=ORIENTED_EDGE('',*,*,#358,.T.);
#501=ORIENTED_EDGE('',*,*,#371,.F.);
#502=ORIENTED_EDGE('',*,*,#378,.F.);
#503=ORIENTED_EDGE('',*,*,#334,.T.);
#504=ORIENTED_EDGE('',*,*,#340,.T.);
#505=ORIENTED_EDGE('',*,*,#380,.F.);
#506=ORIENTED_EDGE('',*,*,#381,.T.);
#507=ORIENTED_EDGE('',*,*,#368,.F.);
#508=ORIENTED_EDGE('',*,*,#313,.T.);
#509=ORIENTED_EDGE('',*,*,#382,.F.);
#510=ORIENTED_EDGE('',*,*,#361,.T.);
#511=ORIENTED_EDGE('',*,*,#369,.F.);
#512=ORIENTED_EDGE('',*,*,#381,.F.);
#513=ORIENTED_EDGE('',*,*,#322,.T.);
#514=ORIENTED_EDGE('',*,*,#348,.T.);
#515=ORIENTED_EDGE('',*,*,#383,.F.);
#516=ORIENTED_EDGE('',*,*,#384,.F.);
#517=ORIENTED_EDGE('',*,*,#372,.T.);
#518=ORIENTED_EDGE('',*,*,#319,.T.);
#519=ORIENTED_EDGE('',*,*,#353,.T.);
#520=ORIENTED_EDGE('',*,*,#356,.F.);
#521=ORIENTED_EDGE('',*,*,#385,.F.);
#522=ORIENTED_EDGE('',*,*,#383,.T.);
#523=ORIENTED_EDGE('',*,*,#347,.T.);
#524=ORIENTED_EDGE('',*,*,#359,.T.);
#525=ORIENTED_EDGE('',*,*,#379,.T.);
#526=ORIENTED_EDGE('',*,*,#377,.T.);
#527=ORIENTED_EDGE('',*,*,#345,.T.);
#528=ORIENTED_EDGE('',*,*,#362,.T.);
#529=ORIENTED_EDGE('',*,*,#382,.T.);
#530=ORIENTED_EDGE('',*,*,#380,.T.);
#531=ORIENTED_EDGE('',*,*,#339,.T.);
#532=ORIENTED_EDGE('',*,*,#365,.T.);
#533=ORIENTED_EDGE('',*,*,#376,.T.);
#534=ORIENTED_EDGE('',*,*,#374,.T.);
#535=ORIENTED_EDGE('',*,*,#373,.T.);
#536=ORIENTED_EDGE('',*,*,#384,.T.);
#537=ORIENTED_EDGE('',*,*,#385,.T.);
#538=ORIENTED_EDGE('',*,*,#355,.T.);
#539=ORIENTED_EDGE('',*,*,#325,.T.);
#540=ORIENTED_EDGE('',*,*,#331,.T.);
#541=ORIENTED_EDGE('',*,*,#337,.T.);
#542=CYLINDRICAL_SURFACE('',#601,12.5);
#543=CYLINDRICAL_SURFACE('',#604,12.5);
#544=CYLINDRICAL_SURFACE('',#607,12.5);
#545=CYLINDRICAL_SURFACE('',#610,12.5);
#546=CYLINDRICAL_SURFACE('',#616,8.);
#547=CYLINDRICAL_SURFACE('',#618,5.);
#548=CYLINDRICAL_SURFACE('',#623,8.);
#549=CYLINDRICAL_SURFACE('',#625,5.);
#550=CYLINDRICAL_SURFACE('',#630,8.);
#551=CYLINDRICAL_SURFACE('',#632,5.);
#552=CYLINDRICAL_SURFACE('',#634,25.);
#553=CYLINDRICAL_SURFACE('',#637,25.);
#554=CYLINDRICAL_SURFACE('',#640,25.);
#555=CYLINDRICAL_SURFACE('',#643,25.);
#556=ADVANCED_FACE('',(#49),#542,.F.);
#557=ADVANCED_FACE('',(#50),#543,.F.);
#558=ADVANCED_FACE('',(#51),#544,.F.);
#559=ADVANCED_FACE('',(#52),#545,.F.);
#560=ADVANCED_FACE('',(#53,#15),#32,.F.);
#561=ADVANCED_FACE('',(#54),#546,.F.);
#562=ADVANCED_FACE('',(#55),#547,.F.);
#563=ADVANCED_FACE('',(#56,#16),#33,.F.);
#564=ADVANCED_FACE('',(#57),#548,.F.);
#565=ADVANCED_FACE('',(#58),#549,.F.);
#566=ADVANCED_FACE('',(#59,#17),#34,.F.);
#567=ADVANCED_FACE('',(#60),#550,.F.);
#568=ADVANCED_FACE('',(#61),#551,.F.);
#569=ADVANCED_FACE('',(#62),#552,.T.);
#570=ADVANCED_FACE('',(#63),#553,.T.);
#571=ADVANCED_FACE('',(#64),#554,.T.);
#572=ADVANCED_FACE('',(#65),#555,.T.);
#573=ADVANCED_FACE('',(#66,#18),#35,.T.);
#574=ADVANCED_FACE('',(#67,#19),#36,.F.);
#575=ADVANCED_FACE('',(#68,#20),#37,.F.);
#576=ADVANCED_FACE('',(#69,#21),#38,.F.);
#577=ADVANCED_FACE('',(#70),#39,.T.);
#578=ADVANCED_FACE('',(#71,#22),#40,.F.);
#579=ADVANCED_FACE('',(#72,#23),#41,.F.);
#580=ADVANCED_FACE('',(#73,#24),#42,.F.);
#581=ADVANCED_FACE('',(#74,#25),#43,.F.);
#582=ADVANCED_FACE('',(#75,#26),#44,.F.);
#583=ADVANCED_FACE('',(#76,#27),#45,.F.);
#584=ADVANCED_FACE('',(#77,#28),#46,.T.);
#585=ADVANCED_FACE('',(#78),#47,.T.);
#586=ADVANCED_FACE('',(#79,#29,#30,#31),#48,.F.);
#587=CLOSED_SHELL('',(#556,#557,#558,#559,#560,#561,#562,#563,#564,#565,
#566,#567,#568,#569,#570,#571,#572,#573,#574,#575,#576,#577,#578,#579,#580,
#581,#582,#583,#584,#585,#586));
#588=DERIVED_UNIT_ELEMENT(#590,1.);
#589=DERIVED_UNIT_ELEMENT(#997,-3.);
#590=(
MASS_UNIT()
NAMED_UNIT(*)
SI_UNIT(.KILO.,.GRAM.)
);
#591=DERIVED_UNIT((#588,#589));
#592=MEASURE_REPRESENTATION_ITEM('density measure',
POSITIVE_RATIO_MEASURE(7850.),#591);
#593=PROPERTY_DEFINITION_REPRESENTATION(#598,#595);
#594=PROPERTY_DEFINITION_REPRESENTATION(#599,#596);
#595=REPRESENTATION('material name',(#597),#994);
#596=REPRESENTATION('density',(#592),#994);
#597=DESCRIPTIVE_REPRESENTATION_ITEM('Steel','Steel');
#598=PROPERTY_DEFINITION('material property','material name',#1004);
#599=PROPERTY_DEFINITION('material property','density of part',#1004);
#600=AXIS2_PLACEMENT_3D('',#830,#660,#661);
#601=AXIS2_PLACEMENT_3D('',#831,#662,#663);
#602=AXIS2_PLACEMENT_3D('',#833,#664,#665);
#603=AXIS2_PLACEMENT_3D('',#836,#667,#668);
#604=AXIS2_PLACEMENT_3D('',#837,#669,#670);
#605=AXIS2_PLACEMENT_3D('',#839,#671,#672);
#606=AXIS2_PLACEMENT_3D('',#842,#674,#675);
#607=AXIS2_PLACEMENT_3D('',#843,#676,#677);
#608=AXIS2_PLACEMENT_3D('',#845,#678,#679);
#609=AXIS2_PLACEMENT_3D('',#848,#681,#682);
#610=AXIS2_PLACEMENT_3D('',#849,#683,#684);
#611=AXIS2_PLACEMENT_3D('',#851,#685,#686);
#612=AXIS2_PLACEMENT_3D('',#854,#688,#689);
#613=AXIS2_PLACEMENT_3D('',#855,#690,#691);
#614=AXIS2_PLACEMENT_3D('',#857,#692,#693);
#615=AXIS2_PLACEMENT_3D('',#859,#694,#695);
#616=AXIS2_PLACEMENT_3D('',#860,#696,#697);
#617=AXIS2_PLACEMENT_3D('',#862,#698,#699);
#618=AXIS2_PLACEMENT_3D('',#864,#701,#702);
#619=AXIS2_PLACEMENT_3D('',#867,#704,#705);
#620=AXIS2_PLACEMENT_3D('',#868,#706,#707);
#621=AXIS2_PLACEMENT_3D('',#870,#708,#709);
#622=AXIS2_PLACEMENT_3D('',#872,#710,#711);
#623=AXIS2_PLACEMENT_3D('',#873,#712,#713);
#624=AXIS2_PLACEMENT_3D('',#875,#714,#715);
#625=AXIS2_PLACEMENT_3D('',#877,#717,#718);
#626=AXIS2_PLACEMENT_3D('',#880,#720,#721);
#627=AXIS2_PLACEMENT_3D('',#881,#722,#723);
#628=AXIS2_PLACEMENT_3D('',#883,#724,#725);
#629=AXIS2_PLACEMENT_3D('',#885,#726,#727);
#630=AXIS2_PLACEMENT_3D('',#886,#728,#729);
#631=AXIS2_PLACEMENT_3D('',#888,#730,#731);
#632=AXIS2_PLACEMENT_3D('',#890,#733,#734);
#633=AXIS2_PLACEMENT_3D('',#893,#736,#737);
#634=AXIS2_PLACEMENT_3D('',#894,#738,#739);
#635=AXIS2_PLACEMENT_3D('',#897,#740,#741);
#636=AXIS2_PLACEMENT_3D('',#901,#743,#744);
#637=AXIS2_PLACEMENT_3D('',#903,#746,#747);
#638=AXIS2_PLACEMENT_3D('',#906,#748,#749);
#639=AXIS2_PLACEMENT_3D('',#910,#751,#752);
#640=AXIS2_PLACEMENT_3D('',#912,#754,#755);
#641=AXIS2_PLACEMENT_3D('',#915,#756,#757);
#642=AXIS2_PLACEMENT_3D('',#919,#759,#760);
#643=AXIS2_PLACEMENT_3D('',#921,#762,#763);
#644=AXIS2_PLACEMENT_3D('',#924,#764,#765);
#645=AXIS2_PLACEMENT_3D('',#928,#767,#768);
#646=AXIS2_PLACEMENT_3D('',#930,#770,#771);
#647=AXIS2_PLACEMENT_3D('',#936,#775,#776);
#648=AXIS2_PLACEMENT_3D('',#942,#780,#781);
#649=AXIS2_PLACEMENT_3D('',#948,#785,#786);
#650=AXIS2_PLACEMENT_3D('',#954,#790,#791);
#651=AXIS2_PLACEMENT_3D('',#967,#800,#801);
#652=AXIS2_PLACEMENT_3D('',#971,#804,#805);
#653=AXIS2_PLACEMENT_3D('',#973,#807,#808);
#654=AXIS2_PLACEMENT_3D('',#977,#811,#812);
#655=AXIS2_PLACEMENT_3D('',#979,#814,#815);
#656=AXIS2_PLACEMENT_3D('',#983,#818,#819);
#657=AXIS2_PLACEMENT_3D('',#985,#821,#822);
#658=AXIS2_PLACEMENT_3D('',#989,#825,#826);
#659=AXIS2_PLACEMENT_3D('',#991,#828,#829);
#660=DIRECTION('axis',(0.,0.,1.));
#661=DIRECTION('refdir',(1.,0.,0.));
#662=DIRECTION('center_axis',(1.,0.,0.));
#663=DIRECTION('ref_axis',(0.,-1.,0.));
#664=DIRECTION('center_axis',(1.,0.,0.));
#665=DIRECTION('ref_axis',(0.,-1.,0.));
#666=DIRECTION('',(1.,0.,0.));
#667=DIRECTION('center_axis',(-1.,0.,0.));
#668=DIRECTION('ref_axis',(0.,-1.,0.));
#669=DIRECTION('center_axis',(1.,0.,0.));
#670=DIRECTION('ref_axis',(0.,-1.,0.));
#671=DIRECTION('center_axis',(1.,0.,0.));
#672=DIRECTION('ref_axis',(0.,-1.,0.));
#673=DIRECTION('',(1.,0.,0.));
#674=DIRECTION('center_axis',(-1.,0.,0.));
#675=DIRECTION('ref_axis',(0.,-1.,0.));
#676=DIRECTION('center_axis',(1.,0.,0.));
#677=DIRECTION('ref_axis',(0.,-1.,0.));
#678=DIRECTION('center_axis',(1.,0.,0.));
#679=DIRECTION('ref_axis',(0.,-1.,0.));
#680=DIRECTION('',(1.,0.,0.));
#681=DIRECTION('center_axis',(-1.,0.,0.));
#682=DIRECTION('ref_axis',(0.,-1.,0.));
#683=DIRECTION('center_axis',(1.,0.,0.));
#684=DIRECTION('ref_axis',(0.,-1.,0.));
#685=DIRECTION('center_axis',(1.,0.,0.));
#686=DIRECTION('ref_axis',(0.,-1.,0.));
#687=DIRECTION('',(1.,0.,0.));
#688=DIRECTION('center_axis',(-1.,0.,0.));
#689=DIRECTION('ref_axis',(0.,-1.,0.));
#690=DIRECTION('center_axis',(0.,-1.,0.));
#691=DIRECTION('ref_axis',(0.,0.,1.));
#692=DIRECTION('center_axis',(0.,-1.,0.));
#693=DIRECTION('ref_axis',(0.,0.,1.));
#694=DIRECTION('center_axis',(0.,-1.,0.));
#695=DIRECTION('ref_axis',(0.,0.,1.));
#696=DIRECTION('center_axis',(0.,-1.,0.));
#697=DIRECTION('ref_axis',(0.,0.,1.));
#698=DIRECTION('center_axis',(0.,-1.,0.));
#699=DIRECTION('ref_axis',(0.,0.,1.));
#700=DIRECTION('',(0.,-1.,0.));
#701=DIRECTION('center_axis',(0.,-1.,0.));
#702=DIRECTION('ref_axis',(0.,0.,1.));
#703=DIRECTION('',(0.,-1.,0.));
#704=DIRECTION('center_axis',(0.,1.,0.));
#705=DIRECTION('ref_axis',(0.,0.,1.));
#706=DIRECTION('center_axis',(0.,-1.,0.));
#707=DIRECTION('ref_axis',(0.,0.,1.));
#708=DIRECTION('center_axis',(0.,-1.,0.));
#709=DIRECTION('ref_axis',(0.,0.,1.));
#710=DIRECTION('center_axis',(0.,-1.,0.));
#711=DIRECTION('ref_axis',(0.,0.,1.));
#712=DIRECTION('center_axis',(0.,-1.,0.));
#713=DIRECTION('ref_axis',(0.,0.,1.));
#714=DIRECTION('center_axis',(0.,-1.,0.));
#715=DIRECTION('ref_axis',(0.,0.,1.));
#716=DIRECTION('',(0.,-1.,0.));
#717=DIRECTION('center_axis',(0.,-1.,0.));
#718=DIRECTION('ref_axis',(0.,0.,1.));
#719=DIRECTION('',(0.,-1.,0.));
#720=DIRECTION('center_axis',(0.,1.,0.));
#721=DIRECTION('ref_axis',(0.,0.,1.));
#722=DIRECTION('center_axis',(0.,-1.,0.));
#723=DIRECTION('ref_axis',(0.,0.,1.));
#724=DIRECTION('center_axis',(0.,-1.,0.));
#725=DIRECTION('ref_axis',(0.,0.,1.));
#726=DIRECTION('center_axis',(0.,-1.,0.));
#727=DIRECTION('ref_axis',(0.,0.,1.));
#728=DIRECTION('center_axis',(0.,-1.,0.));
#729=DIRECTION('ref_axis',(0.,0.,1.));
#730=DIRECTION('center_axis',(0.,-1.,0.));
#731=DIRECTION('ref_axis',(0.,0.,1.));
#732=DIRECTION('',(0.,-1.,0.));
#733=DIRECTION('center_axis',(0.,-1.,0.));
#734=DIRECTION('ref_axis',(0.,0.,1.));
#735=DIRECTION('',(0.,-1.,0.));
#736=DIRECTION('center_axis',(0.,1.,0.));
#737=DIRECTION('ref_axis',(0.,0.,1.));
#738=DIRECTION('center_axis',(1.,0.,0.));
#739=DIRECTION('ref_axis',(0.,0.,1.));
#740=DIRECTION('center_axis',(-1.,0.,0.));
#741=DIRECTION('ref_axis',(0.,0.,1.));
#742=DIRECTION('',(-1.,0.,0.));
#743=DIRECTION('center_axis',(1.,0.,0.));
#744=DIRECTION('ref_axis',(0.,0.,1.));
#745=DIRECTION('',(-1.,0.,0.));
#746=DIRECTION('center_axis',(1.,0.,0.));
#747=DIRECTION('ref_axis',(0.,0.,1.));
#748=DIRECTION('center_axis',(1.,0.,0.));
#749=DIRECTION('ref_axis',(0.,0.,1.));
#750=DIRECTION('',(-1.,0.,0.));
#751=DIRECTION('center_axis',(-1.,0.,0.));
#752=DIRECTION('ref_axis',(0.,0.,1.));
#753=DIRECTION('',(-1.,0.,0.));
#754=DIRECTION('center_axis',(1.,0.,0.));
#755=DIRECTION('ref_axis',(0.,0.,1.));
#756=DIRECTION('center_axis',(-1.,0.,0.));
#757=DIRECTION('ref_axis',(0.,0.,1.));
#758=DIRECTION('',(-1.,0.,0.));
#759=DIRECTION('center_axis',(1.,0.,0.));
#760=DIRECTION('ref_axis',(0.,0.,1.));
#761=DIRECTION('',(-1.,0.,0.));
#762=DIRECTION('center_axis',(1.,0.,0.));
#763=DIRECTION('ref_axis',(0.,0.,1.));
#764=DIRECTION('center_axis',(1.,0.,0.));
#765=DIRECTION('ref_axis',(0.,0.,1.));
#766=DIRECTION('',(-1.,0.,0.));
#767=DIRECTION('center_axis',(-1.,0.,0.));
#768=DIRECTION('ref_axis',(0.,0.,1.));
#769=DIRECTION('',(-1.,0.,0.));
#770=DIRECTION('center_axis',(-1.,0.,0.));
#771=DIRECTION('ref_axis',(0.,0.,1.));
#772=DIRECTION('',(0.,1.,0.));
#773=DIRECTION('',(0.,0.,-1.));
#774=DIRECTION('',(0.,1.,0.));
#775=DIRECTION('center_axis',(1.,0.,0.));
#776=DIRECTION('ref_axis',(0.,-1.,0.));
#777=DIRECTION('',(0.,1.,0.));
#778=DIRECTION('',(0.,0.,-1.));
#779=DIRECTION('',(0.,-1.,0.));
#780=DIRECTION('center_axis',(1.,0.,0.));
#781=DIRECTION('ref_axis',(0.,-1.,0.));
#782=DIRECTION('',(0.,1.,0.));
#783=DIRECTION('',(0.,0.,-1.));
#784=DIRECTION('',(0.,-1.,0.));
#785=DIRECTION('center_axis',(1.,0.,0.));
#786=DIRECTION('ref_axis',(0.,-1.,0.));
#787=DIRECTION('',(0.,1.,0.));
#788=DIRECTION('',(0.,0.,-1.));
#789=DIRECTION('',(0.,-1.,0.));
#790=DIRECTION('center_axis',(0.,0.,-1.));
#791=DIRECTION('ref_axis',(-1.,0.,0.));
#792=DIRECTION('',(0.,-1.,0.));
#793=DIRECTION('',(1.,0.,0.));
#794=DIRECTION('',(0.,-1.,0.));
#795=DIRECTION('',(1.,0.,0.));
#796=DIRECTION('',(0.,-1.,0.));
#797=DIRECTION('',(1.,0.,0.));
#798=DIRECTION('',(0.,1.,0.));
#799=DIRECTION('',(1.,0.,0.));
#800=DIRECTION('center_axis',(-1.,0.,0.));
#801=DIRECTION('ref_axis',(0.,1.,0.));
#802=DIRECTION('',(0.,1.,0.));
#803=DIRECTION('',(0.,0.,-1.));
#804=DIRECTION('center_axis',(0.,-1.,0.));
#805=DIRECTION('ref_axis',(-1.,0.,0.));
#806=DIRECTION('',(-1.,0.,0.));
#807=DIRECTION('center_axis',(-1.,0.,0.));
#808=DIRECTION('ref_axis',(0.,1.,0.));
#809=DIRECTION('',(0.,1.,0.));
#810=DIRECTION('',(0.,0.,-1.));
#811=DIRECTION('center_axis',(0.,-1.,0.));
#812=DIRECTION('ref_axis',(-1.,0.,0.));
#813=DIRECTION('',(-1.,0.,0.));
#814=DIRECTION('center_axis',(-1.,0.,0.));
#815=DIRECTION('ref_axis',(0.,1.,0.));
#816=DIRECTION('',(0.,1.,0.));
#817=DIRECTION('',(0.,0.,-1.));
#818=DIRECTION('center_axis',(0.,-1.,0.));
#819=DIRECTION('ref_axis',(-1.,0.,0.));
#820=DIRECTION('',(-1.,0.,0.));
#821=DIRECTION('center_axis',(1.,0.,0.));
#822=DIRECTION('ref_axis',(0.,0.,-1.));
#823=DIRECTION('',(0.,1.,0.));
#824=DIRECTION('',(0.,0.,1.));
#825=DIRECTION('center_axis',(0.,0.,1.));
#826=DIRECTION('ref_axis',(1.,0.,0.));
#827=DIRECTION('',(-1.,0.,0.));
#828=DIRECTION('center_axis',(0.,1.,0.));
#829=DIRECTION('ref_axis',(1.,0.,0.));
#830=CARTESIAN_POINT('',(0.,0.,0.));
#831=CARTESIAN_POINT('Origin',(-8.88178419700125E-15,40.,0.));
#832=CARTESIAN_POINT('',(-75.,52.5,1.53080849893419E-15));
#833=CARTESIAN_POINT('Origin',(-75.,40.,0.));
#834=CARTESIAN_POINT('',(-50.,52.5,-1.53080849893419E-15));
#835=CARTESIAN_POINT('',(-8.88178419700125E-15,52.5,1.53080849893419E-15));
#836=CARTESIAN_POINT('Origin',(-50.,40.,0.));
#837=CARTESIAN_POINT('Origin',(-8.88178419700125E-15,40.,0.));
#838=CARTESIAN_POINT('',(-30.,52.5,1.53080849893419E-15));
#839=CARTESIAN_POINT('Origin',(-30.,40.,0.));
#840=CARTESIAN_POINT('',(-10.,52.5,-1.53080849893419E-15));
#841=CARTESIAN_POINT('',(-8.88178419700125E-15,52.5,1.53080849893419E-15));
#842=CARTESIAN_POINT('Origin',(-10.,40.,0.));
#843=CARTESIAN_POINT('Origin',(-8.88178419700125E-15,40.,0.));
#844=CARTESIAN_POINT('',(10.,52.5,1.53080849893419E-15));
#845=CARTESIAN_POINT('Origin',(10.,40.,0.));
#846=CARTESIAN_POINT('',(30.,52.5,-1.53080849893419E-15));
#847=CARTESIAN_POINT('',(-8.88178419700125E-15,52.5,1.53080849893419E-15));
#848=CARTESIAN_POINT('Origin',(30.,40.,0.));
#849=CARTESIAN_POINT('Origin',(-8.88178419700125E-15,40.,0.));
#850=CARTESIAN_POINT('',(50.,52.5,1.53080849893419E-15));
#851=CARTESIAN_POINT('Origin',(50.,40.,0.));
#852=CARTESIAN_POINT('',(75.,52.5,1.53080849893419E-15));
#853=CARTESIAN_POINT('',(-8.88178419700125E-15,52.5,1.53080849893419E-15));
#854=CARTESIAN_POINT('Origin',(75.,40.,0.));
#855=CARTESIAN_POINT('Origin',(0.,5.,0.));
#856=CARTESIAN_POINT('',(9.79717439317883E-16,5.,-8.));
#857=CARTESIAN_POINT('Origin',(0.,5.,0.));
#858=CARTESIAN_POINT('',(6.12323399573677E-16,5.,-5.));
#859=CARTESIAN_POINT('Origin',(0.,5.,0.));
#860=CARTESIAN_POINT('Origin',(0.,10.,0.));
#861=CARTESIAN_POINT('',(9.79717439317883E-16,15.,-8.));
#862=CARTESIAN_POINT('Origin',(0.,15.,0.));
#863=CARTESIAN_POINT('',(9.79717439317883E-16,10.,-8.));
#864=CARTESIAN_POINT('Origin',(0.,0.,0.));
#865=CARTESIAN_POINT('',(-6.12323399573677E-16,0.,-5.));
#866=CARTESIAN_POINT('',(6.12323399573677E-16,0.,-5.));
#867=CARTESIAN_POINT('Origin',(0.,0.,0.));
#868=CARTESIAN_POINT('Origin',(-40.,5.,0.));
#869=CARTESIAN_POINT('',(-40.,5.,-8.));
#870=CARTESIAN_POINT('Origin',(-40.,5.,0.));
#871=CARTESIAN_POINT('',(-40.,5.,-5.));
#872=CARTESIAN_POINT('Origin',(-40.,5.,0.));
#873=CARTESIAN_POINT('Origin',(-40.,10.,0.));
#874=CARTESIAN_POINT('',(-40.,15.,-8.));
#875=CARTESIAN_POINT('Origin',(-40.,15.,0.));
#876=CARTESIAN_POINT('',(-40.,10.,-8.));
#877=CARTESIAN_POINT('Origin',(-40.,0.,0.));
#878=CARTESIAN_POINT('',(-40.,0.,-5.));
#879=CARTESIAN_POINT('',(-40.,0.,-5.));
#880=CARTESIAN_POINT('Origin',(-40.,0.,0.));
#881=CARTESIAN_POINT('Origin',(40.,5.,0.));
#882=CARTESIAN_POINT('',(40.,5.,-8.));
#883=CARTESIAN_POINT('Origin',(40.,5.,0.));
#884=CARTESIAN_POINT('',(40.,5.,-5.));
#885=CARTESIAN_POINT('Origin',(40.,5.,0.));
#886=CARTESIAN_POINT('Origin',(40.,10.,0.));
#887=CARTESIAN_POINT('',(40.,15.,-8.));
#888=CARTESIAN_POINT('Origin',(40.,15.,0.));
#889=CARTESIAN_POINT('',(40.,10.,-8.));
#890=CARTESIAN_POINT('Origin',(40.,0.,0.));
#891=CARTESIAN_POINT('',(40.,0.,-5.));
#892=CARTESIAN_POINT('',(40.,0.,-5.));
#893=CARTESIAN_POINT('Origin',(40.,0.,0.));
#894=CARTESIAN_POINT('Origin',(-75.,40.,0.));
#895=CARTESIAN_POINT('',(-30.,40.,25.));
#896=CARTESIAN_POINT('',(-30.,40.,-25.));
#897=CARTESIAN_POINT('Origin',(-30.,40.,0.));
#898=CARTESIAN_POINT('',(-10.,40.,25.));
#899=CARTESIAN_POINT('',(-75.,40.,25.));
#900=CARTESIAN_POINT('',(-10.,40.,-25.));
#901=CARTESIAN_POINT('Origin',(-10.,40.,0.));
#902=CARTESIAN_POINT('',(-75.,40.,-25.));
#903=CARTESIAN_POINT('Origin',(-75.,40.,0.));
#904=CARTESIAN_POINT('',(30.,40.,-25.));
#905=CARTESIAN_POINT('',(30.,40.,25.));
#906=CARTESIAN_POINT('Origin',(30.,40.,0.));
#907=CARTESIAN_POINT('',(9.99999999999999,40.,-25.));
#908=CARTESIAN_POINT('',(-75.,40.,-25.));
#909=CARTESIAN_POINT('',(9.99999999999999,40.,25.));
#910=CARTESIAN_POINT('Origin',(9.99999999999999,40.,0.));
#911=CARTESIAN_POINT('',(-75.,40.,25.));
#912=CARTESIAN_POINT('Origin',(-75.,40.,0.));
#913=CARTESIAN_POINT('',(50.,40.,25.));
#914=CARTESIAN_POINT('',(50.,40.,-25.));
#915=CARTESIAN_POINT('Origin',(50.,40.,0.));
#916=CARTESIAN_POINT('',(75.,40.,25.));
#917=CARTESIAN_POINT('',(-75.,40.,25.));
#918=CARTESIAN_POINT('',(75.,40.,-25.));
#919=CARTESIAN_POINT('Origin',(75.,40.,0.));
#920=CARTESIAN_POINT('',(-75.,40.,-25.));
#921=CARTESIAN_POINT('Origin',(-75.,40.,0.));
#922=CARTESIAN_POINT('',(-50.,40.,-25.));
#923=CARTESIAN_POINT('',(-50.,40.,25.));
#924=CARTESIAN_POINT('Origin',(-50.,40.,0.));
#925=CARTESIAN_POINT('',(-75.,40.,-25.));
#926=CARTESIAN_POINT('',(-75.,40.,-25.));
#927=CARTESIAN_POINT('',(-75.,40.,25.));
#928=CARTESIAN_POINT('Origin',(-75.,40.,0.));
#929=CARTESIAN_POINT('',(-75.,40.,25.));
#930=CARTESIAN_POINT('Origin',(-75.,0.,-25.));
#931=CARTESIAN_POINT('',(-75.,0.,-25.));
#932=CARTESIAN_POINT('',(-75.,0.,-25.));
#933=CARTESIAN_POINT('',(-75.,0.,25.));
#934=CARTESIAN_POINT('',(-75.,0.,25.));
#935=CARTESIAN_POINT('',(-75.,0.,25.));
#936=CARTESIAN_POINT('Origin',(50.,65.,25.));
#937=CARTESIAN_POINT('',(50.,15.,-25.));
#938=CARTESIAN_POINT('',(50.,32.5,-25.));
#939=CARTESIAN_POINT('',(50.,15.,25.));
#940=CARTESIAN_POINT('',(50.,15.,25.));
#941=CARTESIAN_POINT('',(50.,32.5,25.));
#942=CARTESIAN_POINT('Origin',(10.,65.,25.));
#943=CARTESIAN_POINT('',(10.,15.,-25.));
#944=CARTESIAN_POINT('',(10.,32.5,-25.));
#945=CARTESIAN_POINT('',(10.,15.,25.));
#946=CARTESIAN_POINT('',(10.,15.,25.));
#947=CARTESIAN_POINT('',(10.,32.5,25.));
#948=CARTESIAN_POINT('Origin',(-30.,65.,25.));
#949=CARTESIAN_POINT('',(-30.,15.,-25.));
#950=CARTESIAN_POINT('',(-30.,32.5,-25.));
#951=CARTESIAN_POINT('',(-30.,15.,25.));
#952=CARTESIAN_POINT('',(-30.,15.,25.));
#953=CARTESIAN_POINT('',(-30.,32.5,25.));
#954=CARTESIAN_POINT('Origin',(75.,0.,-25.));
#955=CARTESIAN_POINT('',(-50.,15.,-25.));
#956=CARTESIAN_POINT('',(-50.,7.5,-25.));
#957=CARTESIAN_POINT('',(22.5,15.,-25.));
#958=CARTESIAN_POINT('',(-10.,15.,-25.));
#959=CARTESIAN_POINT('',(-10.,7.5,-25.));
#960=CARTESIAN_POINT('',(42.5,15.,-25.));
#961=CARTESIAN_POINT('',(30.,15.,-25.));
#962=CARTESIAN_POINT('',(30.,7.5,-25.));
#963=CARTESIAN_POINT('',(62.5,15.,-25.));
#964=CARTESIAN_POINT('',(75.,0.,-25.));
#965=CARTESIAN_POINT('',(75.,0.,-25.));
#966=CARTESIAN_POINT('',(-75.,0.,-25.));
#967=CARTESIAN_POINT('Origin',(-50.,15.,25.));
#968=CARTESIAN_POINT('',(-50.,15.,25.));
#969=CARTESIAN_POINT('',(-50.,7.5,25.));
#970=CARTESIAN_POINT('',(-50.,15.,25.));
#971=CARTESIAN_POINT('Origin',(-30.,15.,25.));
#972=CARTESIAN_POINT('',(-52.5,15.,25.));
#973=CARTESIAN_POINT('Origin',(30.,15.,25.));
#974=CARTESIAN_POINT('',(30.,15.,25.));
#975=CARTESIAN_POINT('',(30.,7.5,25.));
#976=CARTESIAN_POINT('',(30.,15.,25.));
#977=CARTESIAN_POINT('Origin',(50.,15.,25.));
#978=CARTESIAN_POINT('',(-12.5,15.,25.));
#979=CARTESIAN_POINT('Origin',(-10.,15.,25.));
#980=CARTESIAN_POINT('',(-10.,15.,25.));
#981=CARTESIAN_POINT('',(-10.,7.5,25.));
#982=CARTESIAN_POINT('',(-10.,15.,25.));
#983=CARTESIAN_POINT('Origin',(10.,15.,25.));
#984=CARTESIAN_POINT('',(-32.5,15.,25.));
#985=CARTESIAN_POINT('Origin',(75.,0.,25.));
#986=CARTESIAN_POINT('',(75.,0.,25.));
#987=CARTESIAN_POINT('',(75.,0.,25.));
#988=CARTESIAN_POINT('',(75.,0.,-25.));
#989=CARTESIAN_POINT('Origin',(-75.,0.,25.));
#990=CARTESIAN_POINT('',(75.,0.,25.));
#991=CARTESIAN_POINT('Origin',(0.,0.,0.));
#992=UNCERTAINTY_MEASURE_WITH_UNIT(LENGTH_MEASURE(0.01),#996,
'DISTANCE_ACCURACY_VALUE',
'Maximum model space distance between geometric entities at asserted c
onnectivities');
#993=UNCERTAINTY_MEASURE_WITH_UNIT(LENGTH_MEASURE(0.01),#996,
'DISTANCE_ACCURACY_VALUE',
'Maximum model space distance between geometric entities at asserted c
onnectivities');
#994=(
GEOMETRIC_REPRESENTATION_CONTEXT(3)
GLOBAL_UNCERTAINTY_ASSIGNED_CONTEXT((#992))
GLOBAL_UNIT_ASSIGNED_CONTEXT((#996,#998,#999))
REPRESENTATION_CONTEXT('','3D')
);
#995=(
GEOMETRIC_REPRESENTATION_CONTEXT(3)
GLOBAL_UNCERTAINTY_ASSIGNED_CONTEXT((#993))
GLOBAL_UNIT_ASSIGNED_CONTEXT((#996,#998,#999))
REPRESENTATION_CONTEXT('','3D')
);
#996=(
LENGTH_UNIT()
NAMED_UNIT(*)
SI_UNIT(.MILLI.,.METRE.)
);
#997=(
LENGTH_UNIT()
NAMED_UNIT(*)
SI_UNIT($,.METRE.)
);
#998=(
NAMED_UNIT(*)
PLANE_ANGLE_UNIT()
SI_UNIT($,.RADIAN.)
);
#999=(
NAMED_UNIT(*)
SI_UNIT($,.STERADIAN.)
SOLID_ANGLE_UNIT()
);
#1000=SHAPE_DEFINITION_REPRESENTATION(#1001,#1002);
#1001=PRODUCT_DEFINITION_SHAPE('',$,#1004);
#1002=SHAPE_REPRESENTATION('',(#600),#994);
#1003=PRODUCT_DEFINITION_CONTEXT('part definition',#1008,'design');
#1004=PRODUCT_DEFINITION('mount to motor plate',
'mount to motor plate v1',#1005,#1003);
#1005=PRODUCT_DEFINITION_FORMATION('',$,#1010);
#1006=PRODUCT_RELATED_PRODUCT_CATEGORY('mount to motor plate v1',
'mount to motor plate v1',(#1010));
#1007=APPLICATION_PROTOCOL_DEFINITION('international standard',
'automotive_design',2009,#1008);
#1008=APPLICATION_CONTEXT(
'Core Data for Automotive Mechanical Design Process');
#1009=PRODUCT_CONTEXT('part definition',#1008,'mechanical');
#1010=PRODUCT('mount to motor plate','mount to motor plate v1',$,(#1009));
#1011=PRESENTATION_STYLE_ASSIGNMENT((#1013));
#1012=PRESENTATION_STYLE_ASSIGNMENT((#1014));
#1013=SURFACE_STYLE_USAGE(.BOTH.,#1015);
#1014=SURFACE_STYLE_USAGE(.BOTH.,#1016);
#1015=SURFACE_SIDE_STYLE('',(#1017));
#1016=SURFACE_SIDE_STYLE('',(#1018));
#1017=SURFACE_STYLE_FILL_AREA(#1019);
#1018=SURFACE_STYLE_FILL_AREA(#1020);
#1019=FILL_AREA_STYLE('Steel - Satin',(#1021));
#1020=FILL_AREA_STYLE('Stainless Steel - Satin',(#1022));
#1021=FILL_AREA_STYLE_COLOUR('Steel - Satin',#1023);
#1022=FILL_AREA_STYLE_COLOUR('Stainless Steel - Satin',#1024);
#1023=COLOUR_RGB('Steel - Satin',0.627450980392157,0.627450980392157,0.627450980392157);
#1024=COLOUR_RGB('Stainless Steel - Satin',0.796078431372549,0.796078431372549,
0.796078431372549);
ENDSEC;
END-ISO-10303-21;
