ISO-10303-21;
HEADER;
/* Generated by software containing ST-Developer
 * from STEP Tools, Inc. (www.steptools.com) 
 */

FILE_DESCRIPTION(
/* description */ (''),
/* implementation_level */ '2;1');

FILE_NAME(
/* name */ 'mouldB-70 v2.step',
/* time_stamp */ '2026-03-14T09:19:57+01:00',
/* author */ (''),
/* organization */ (''),
/* preprocessor_version */ 'ST-DEVELOPER v20.1',
/* originating_system */ 'Autodesk Translation Framework v14.24.0.0',
/* authorisation */ '');

FILE_SCHEMA (('AUTOMOTIVE_DESIGN { 1 0 10303 214 3 1 1 }'));
ENDSEC;

DATA;
#10=MECHANICAL_DESIGN_GEOMETRIC_PRESENTATION_REPRESENTATION('',(#13),#789);
#11=SHAPE_REPRESENTATION_RELATIONSHIP('SRR','None',#796,#12);
#12=ADVANCED_BREP_SHAPE_REPRESENTATION('',(#14),#788);
#13=STYLED_ITEM('',(#806),#14);
#14=MANIFOLD_SOLID_BREP('Body1',#475);
#15=SPHERICAL_SURFACE('',#524,32.);
#16=CYLINDRICAL_SURFACE('',#512,7.74999999999999);
#17=CYLINDRICAL_SURFACE('',#515,7.74500146861733);
#18=CYLINDRICAL_SURFACE('',#518,7.74500146861729);
#19=CYLINDRICAL_SURFACE('',#521,7.74999999999999);
#20=FACE_BOUND('',#79,.T.);
#21=FACE_BOUND('',#80,.T.);
#22=FACE_BOUND('',#81,.T.);
#23=FACE_BOUND('',#82,.T.);
#24=FACE_BOUND('',#83,.T.);
#25=CIRCLE('',#506,7.74500146861733);
#26=CIRCLE('',#507,7.74500146861729);
#27=CIRCLE('',#508,7.74999999999999);
#28=CIRCLE('',#509,7.74999999999999);
#29=CIRCLE('',#510,32.);
#30=CIRCLE('',#513,7.74999999999999);
#31=CIRCLE('',#516,7.74500146861733);
#32=CIRCLE('',#519,7.74500146861729);
#33=CIRCLE('',#522,7.74999999999999);
#34=CIRCLE('',#525,32.);
#35=FACE_OUTER_BOUND('',#62,.T.);
#36=FACE_OUTER_BOUND('',#63,.T.);
#37=FACE_OUTER_BOUND('',#64,.T.);
#38=FACE_OUTER_BOUND('',#65,.T.);
#39=FACE_OUTER_BOUND('',#66,.T.);
#40=FACE_OUTER_BOUND('',#67,.T.);
#41=FACE_OUTER_BOUND('',#68,.T.);
#42=FACE_OUTER_BOUND('',#69,.T.);
#43=FACE_OUTER_BOUND('',#70,.T.);
#44=FACE_OUTER_BOUND('',#71,.T.);
#45=FACE_OUTER_BOUND('',#72,.T.);
#46=FACE_OUTER_BOUND('',#73,.T.);
#47=FACE_OUTER_BOUND('',#74,.T.);
#48=FACE_OUTER_BOUND('',#75,.T.);
#49=FACE_OUTER_BOUND('',#76,.T.);
#50=FACE_OUTER_BOUND('',#77,.T.);
#51=FACE_OUTER_BOUND('',#78,.T.);
#52=FACE_OUTER_BOUND('',#84,.T.);
#53=FACE_OUTER_BOUND('',#85,.T.);
#54=FACE_OUTER_BOUND('',#86,.T.);
#55=FACE_OUTER_BOUND('',#87,.T.);
#56=FACE_OUTER_BOUND('',#88,.T.);
#57=FACE_OUTER_BOUND('',#89,.T.);
#58=FACE_OUTER_BOUND('',#90,.T.);
#59=FACE_OUTER_BOUND('',#91,.T.);
#60=FACE_OUTER_BOUND('',#92,.T.);
#61=FACE_OUTER_BOUND('',#93,.T.);
#62=EDGE_LOOP('',(#302,#303,#304,#305));
#63=EDGE_LOOP('',(#306,#307,#308,#309));
#64=EDGE_LOOP('',(#310,#311,#312,#313));
#65=EDGE_LOOP('',(#314,#315,#316));
#66=EDGE_LOOP('',(#317,#318,#319,#320));
#67=EDGE_LOOP('',(#321,#322,#323,#324));
#68=EDGE_LOOP('',(#325,#326,#327,#328));
#69=EDGE_LOOP('',(#329,#330,#331));
#70=EDGE_LOOP('',(#332,#333,#334,#335));
#71=EDGE_LOOP('',(#336,#337,#338,#339));
#72=EDGE_LOOP('',(#340,#341,#342,#343));
#73=EDGE_LOOP('',(#344,#345,#346));
#74=EDGE_LOOP('',(#347,#348,#349,#350));
#75=EDGE_LOOP('',(#351,#352,#353,#354));
#76=EDGE_LOOP('',(#355,#356,#357,#358));
#77=EDGE_LOOP('',(#359,#360,#361));
#78=EDGE_LOOP('',(#362,#363,#364,#365,#366,#367,#368,#369));
#79=EDGE_LOOP('',(#370,#371,#372));
#80=EDGE_LOOP('',(#373,#374,#375));
#81=EDGE_LOOP('',(#376,#377,#378));
#82=EDGE_LOOP('',(#379,#380,#381));
#83=EDGE_LOOP('',(#382));
#84=EDGE_LOOP('',(#383,#384,#385,#386));
#85=EDGE_LOOP('',(#387,#388,#389,#390));
#86=EDGE_LOOP('',(#391,#392,#393,#394));
#87=EDGE_LOOP('',(#395,#396,#397,#398));
#88=EDGE_LOOP('',(#399,#400,#401,#402));
#89=EDGE_LOOP('',(#403,#404,#405,#406));
#90=EDGE_LOOP('',(#407,#408,#409,#410));
#91=EDGE_LOOP('',(#411,#412,#413,#414));
#92=EDGE_LOOP('',(#415,#416,#417,#418,#419,#420,#421,#422));
#93=EDGE_LOOP('',(#423,#424,#425));
#94=LINE('',#658,#146);
#95=LINE('',#660,#147);
#96=LINE('',#662,#148);
#97=LINE('',#663,#149);
#98=LINE('',#666,#150);
#99=LINE('',#668,#151);
#100=LINE('',#669,#152);
#101=LINE('',#671,#153);
#102=LINE('',#672,#154);
#103=LINE('',#677,#155);
#104=LINE('',#679,#156);
#105=LINE('',#681,#157);
#106=LINE('',#682,#158);
#107=LINE('',#685,#159);
#108=LINE('',#687,#160);
#109=LINE('',#688,#161);
#110=LINE('',#690,#162);
#111=LINE('',#691,#163);
#112=LINE('',#696,#164);
#113=LINE('',#698,#165);
#114=LINE('',#700,#166);
#115=LINE('',#701,#167);
#116=LINE('',#704,#168);
#117=LINE('',#706,#169);
#118=LINE('',#707,#170);
#119=LINE('',#709,#171);
#120=LINE('',#710,#172);
#121=LINE('',#715,#173);
#122=LINE('',#717,#174);
#123=LINE('',#719,#175);
#124=LINE('',#720,#176);
#125=LINE('',#723,#177);
#126=LINE('',#725,#178);
#127=LINE('',#726,#179);
#128=LINE('',#728,#180);
#129=LINE('',#729,#181);
#130=LINE('',#734,#182);
#131=LINE('',#738,#183);
#132=LINE('',#742,#184);
#133=LINE('',#746,#185);
#134=LINE('',#753,#186);
#135=LINE('',#754,#187);
#136=LINE('',#755,#188);
#137=LINE('',#759,#189);
#138=LINE('',#762,#190);
#139=LINE('',#763,#191);
#140=LINE('',#767,#192);
#141=LINE('',#770,#193);
#142=LINE('',#771,#194);
#143=LINE('',#775,#195);
#144=LINE('',#778,#196);
#145=LINE('',#779,#197);
#146=VECTOR('',#530,10.);
#147=VECTOR('',#531,10.);
#148=VECTOR('',#532,10.);
#149=VECTOR('',#533,10.);
#150=VECTOR('',#536,10.);
#151=VECTOR('',#537,10.);
#152=VECTOR('',#538,10.);
#153=VECTOR('',#541,10.);
#154=VECTOR('',#542,10.);
#155=VECTOR('',#547,10.);
#156=VECTOR('',#548,10.);
#157=VECTOR('',#549,10.);
#158=VECTOR('',#550,10.);
#159=VECTOR('',#553,10.);
#160=VECTOR('',#554,10.);
#161=VECTOR('',#555,10.);
#162=VECTOR('',#558,10.);
#163=VECTOR('',#559,10.);
#164=VECTOR('',#564,10.);
#165=VECTOR('',#565,10.);
#166=VECTOR('',#566,10.);
#167=VECTOR('',#567,10.);
#168=VECTOR('',#570,10.);
#169=VECTOR('',#571,10.);
#170=VECTOR('',#572,10.);
#171=VECTOR('',#575,10.);
#172=VECTOR('',#576,10.);
#173=VECTOR('',#581,10.);
#174=VECTOR('',#582,10.);
#175=VECTOR('',#583,10.);
#176=VECTOR('',#584,10.);
#177=VECTOR('',#587,10.);
#178=VECTOR('',#588,10.);
#179=VECTOR('',#589,10.);
#180=VECTOR('',#592,10.);
#181=VECTOR('',#593,10.);
#182=VECTOR('',#598,10.);
#183=VECTOR('',#601,10.);
#184=VECTOR('',#604,10.);
#185=VECTOR('',#607,10.);
#186=VECTOR('',#614,10.);
#187=VECTOR('',#615,10.);
#188=VECTOR('',#616,10.);
#189=VECTOR('',#621,10.);
#190=VECTOR('',#624,10.);
#191=VECTOR('',#625,10.);
#192=VECTOR('',#630,10.);
#193=VECTOR('',#633,10.);
#194=VECTOR('',#634,10.);
#195=VECTOR('',#639,10.);
#196=VECTOR('',#642,10.);
#197=VECTOR('',#643,10.);
#198=VERTEX_POINT('',#656);
#199=VERTEX_POINT('',#657);
#200=VERTEX_POINT('',#659);
#201=VERTEX_POINT('',#661);
#202=VERTEX_POINT('',#665);
#203=VERTEX_POINT('',#667);
#204=VERTEX_POINT('',#675);
#205=VERTEX_POINT('',#676);
#206=VERTEX_POINT('',#678);
#207=VERTEX_POINT('',#680);
#208=VERTEX_POINT('',#684);
#209=VERTEX_POINT('',#686);
#210=VERTEX_POINT('',#694);
#211=VERTEX_POINT('',#695);
#212=VERTEX_POINT('',#697);
#213=VERTEX_POINT('',#699);
#214=VERTEX_POINT('',#703);
#215=VERTEX_POINT('',#705);
#216=VERTEX_POINT('',#713);
#217=VERTEX_POINT('',#714);
#218=VERTEX_POINT('',#716);
#219=VERTEX_POINT('',#718);
#220=VERTEX_POINT('',#722);
#221=VERTEX_POINT('',#724);
#222=VERTEX_POINT('',#732);
#223=VERTEX_POINT('',#733);
#224=VERTEX_POINT('',#735);
#225=VERTEX_POINT('',#737);
#226=VERTEX_POINT('',#739);
#227=VERTEX_POINT('',#741);
#228=VERTEX_POINT('',#743);
#229=VERTEX_POINT('',#745);
#230=VERTEX_POINT('',#748);
#231=VERTEX_POINT('',#751);
#232=VERTEX_POINT('',#752);
#233=VERTEX_POINT('',#757);
#234=VERTEX_POINT('',#761);
#235=VERTEX_POINT('',#765);
#236=VERTEX_POINT('',#769);
#237=VERTEX_POINT('',#773);
#238=VERTEX_POINT('',#777);
#239=VERTEX_POINT('',#784);
#240=EDGE_CURVE('',#198,#199,#94,.T.);
#241=EDGE_CURVE('',#198,#200,#95,.T.);
#242=EDGE_CURVE('',#201,#200,#96,.T.);
#243=EDGE_CURVE('',#199,#201,#97,.T.);
#244=EDGE_CURVE('',#199,#202,#98,.T.);
#245=EDGE_CURVE('',#203,#201,#99,.T.);
#246=EDGE_CURVE('',#202,#203,#100,.T.);
#247=EDGE_CURVE('',#202,#198,#101,.T.);
#248=EDGE_CURVE('',#200,#203,#102,.T.);
#249=EDGE_CURVE('',#204,#205,#103,.T.);
#250=EDGE_CURVE('',#204,#206,#104,.T.);
#251=EDGE_CURVE('',#207,#206,#105,.T.);
#252=EDGE_CURVE('',#205,#207,#106,.T.);
#253=EDGE_CURVE('',#205,#208,#107,.T.);
#254=EDGE_CURVE('',#209,#207,#108,.T.);
#255=EDGE_CURVE('',#208,#209,#109,.T.);
#256=EDGE_CURVE('',#208,#204,#110,.T.);
#257=EDGE_CURVE('',#206,#209,#111,.T.);
#258=EDGE_CURVE('',#210,#211,#112,.T.);
#259=EDGE_CURVE('',#210,#212,#113,.T.);
#260=EDGE_CURVE('',#213,#212,#114,.T.);
#261=EDGE_CURVE('',#211,#213,#115,.T.);
#262=EDGE_CURVE('',#211,#214,#116,.T.);
#263=EDGE_CURVE('',#215,#213,#117,.T.);
#264=EDGE_CURVE('',#214,#215,#118,.T.);
#265=EDGE_CURVE('',#214,#210,#119,.T.);
#266=EDGE_CURVE('',#212,#215,#120,.T.);
#267=EDGE_CURVE('',#216,#217,#121,.T.);
#268=EDGE_CURVE('',#216,#218,#122,.T.);
#269=EDGE_CURVE('',#219,#218,#123,.T.);
#270=EDGE_CURVE('',#217,#219,#124,.T.);
#271=EDGE_CURVE('',#217,#220,#125,.T.);
#272=EDGE_CURVE('',#221,#219,#126,.T.);
#273=EDGE_CURVE('',#220,#221,#127,.T.);
#274=EDGE_CURVE('',#220,#216,#128,.T.);
#275=EDGE_CURVE('',#218,#221,#129,.T.);
#276=EDGE_CURVE('',#222,#223,#130,.T.);
#277=EDGE_CURVE('',#223,#224,#25,.T.);
#278=EDGE_CURVE('',#224,#225,#131,.T.);
#279=EDGE_CURVE('',#225,#226,#26,.T.);
#280=EDGE_CURVE('',#226,#227,#132,.T.);
#281=EDGE_CURVE('',#227,#228,#27,.T.);
#282=EDGE_CURVE('',#228,#229,#133,.T.);
#283=EDGE_CURVE('',#229,#222,#28,.T.);
#284=EDGE_CURVE('',#230,#230,#29,.T.);
#285=EDGE_CURVE('',#231,#232,#134,.T.);
#286=EDGE_CURVE('',#229,#231,#135,.T.);
#287=EDGE_CURVE('',#228,#232,#136,.T.);
#288=EDGE_CURVE('',#233,#231,#30,.T.);
#289=EDGE_CURVE('',#222,#233,#137,.T.);
#290=EDGE_CURVE('',#234,#233,#138,.T.);
#291=EDGE_CURVE('',#223,#234,#139,.T.);
#292=EDGE_CURVE('',#235,#234,#31,.T.);
#293=EDGE_CURVE('',#224,#235,#140,.T.);
#294=EDGE_CURVE('',#236,#235,#141,.T.);
#295=EDGE_CURVE('',#225,#236,#142,.T.);
#296=EDGE_CURVE('',#237,#236,#32,.T.);
#297=EDGE_CURVE('',#226,#237,#143,.T.);
#298=EDGE_CURVE('',#238,#237,#144,.T.);
#299=EDGE_CURVE('',#227,#238,#145,.T.);
#300=EDGE_CURVE('',#232,#238,#33,.T.);
#301=EDGE_CURVE('',#230,#239,#34,.T.);
#302=ORIENTED_EDGE('',*,*,#240,.F.);
#303=ORIENTED_EDGE('',*,*,#241,.T.);
#304=ORIENTED_EDGE('',*,*,#242,.F.);
#305=ORIENTED_EDGE('',*,*,#243,.F.);
#306=ORIENTED_EDGE('',*,*,#244,.F.);
#307=ORIENTED_EDGE('',*,*,#243,.T.);
#308=ORIENTED_EDGE('',*,*,#245,.F.);
#309=ORIENTED_EDGE('',*,*,#246,.F.);
#310=ORIENTED_EDGE('',*,*,#247,.F.);
#311=ORIENTED_EDGE('',*,*,#246,.T.);
#312=ORIENTED_EDGE('',*,*,#248,.F.);
#313=ORIENTED_EDGE('',*,*,#241,.F.);
#314=ORIENTED_EDGE('',*,*,#248,.T.);
#315=ORIENTED_EDGE('',*,*,#245,.T.);
#316=ORIENTED_EDGE('',*,*,#242,.T.);
#317=ORIENTED_EDGE('',*,*,#249,.F.);
#318=ORIENTED_EDGE('',*,*,#250,.T.);
#319=ORIENTED_EDGE('',*,*,#251,.F.);
#320=ORIENTED_EDGE('',*,*,#252,.F.);
#321=ORIENTED_EDGE('',*,*,#253,.F.);
#322=ORIENTED_EDGE('',*,*,#252,.T.);
#323=ORIENTED_EDGE('',*,*,#254,.F.);
#324=ORIENTED_EDGE('',*,*,#255,.F.);
#325=ORIENTED_EDGE('',*,*,#256,.F.);
#326=ORIENTED_EDGE('',*,*,#255,.T.);
#327=ORIENTED_EDGE('',*,*,#257,.F.);
#328=ORIENTED_EDGE('',*,*,#250,.F.);
#329=ORIENTED_EDGE('',*,*,#257,.T.);
#330=ORIENTED_EDGE('',*,*,#254,.T.);
#331=ORIENTED_EDGE('',*,*,#251,.T.);
#332=ORIENTED_EDGE('',*,*,#258,.F.);
#333=ORIENTED_EDGE('',*,*,#259,.T.);
#334=ORIENTED_EDGE('',*,*,#260,.F.);
#335=ORIENTED_EDGE('',*,*,#261,.F.);
#336=ORIENTED_EDGE('',*,*,#262,.F.);
#337=ORIENTED_EDGE('',*,*,#261,.T.);
#338=ORIENTED_EDGE('',*,*,#263,.F.);
#339=ORIENTED_EDGE('',*,*,#264,.F.);
#340=ORIENTED_EDGE('',*,*,#265,.F.);
#341=ORIENTED_EDGE('',*,*,#264,.T.);
#342=ORIENTED_EDGE('',*,*,#266,.F.);
#343=ORIENTED_EDGE('',*,*,#259,.F.);
#344=ORIENTED_EDGE('',*,*,#266,.T.);
#345=ORIENTED_EDGE('',*,*,#263,.T.);
#346=ORIENTED_EDGE('',*,*,#260,.T.);
#347=ORIENTED_EDGE('',*,*,#267,.F.);
#348=ORIENTED_EDGE('',*,*,#268,.T.);
#349=ORIENTED_EDGE('',*,*,#269,.F.);
#350=ORIENTED_EDGE('',*,*,#270,.F.);
#351=ORIENTED_EDGE('',*,*,#271,.F.);
#352=ORIENTED_EDGE('',*,*,#270,.T.);
#353=ORIENTED_EDGE('',*,*,#272,.F.);
#354=ORIENTED_EDGE('',*,*,#273,.F.);
#355=ORIENTED_EDGE('',*,*,#274,.F.);
#356=ORIENTED_EDGE('',*,*,#273,.T.);
#357=ORIENTED_EDGE('',*,*,#275,.F.);
#358=ORIENTED_EDGE('',*,*,#268,.F.);
#359=ORIENTED_EDGE('',*,*,#275,.T.);
#360=ORIENTED_EDGE('',*,*,#272,.T.);
#361=ORIENTED_EDGE('',*,*,#269,.T.);
#362=ORIENTED_EDGE('',*,*,#276,.T.);
#363=ORIENTED_EDGE('',*,*,#277,.T.);
#364=ORIENTED_EDGE('',*,*,#278,.T.);
#365=ORIENTED_EDGE('',*,*,#279,.T.);
#366=ORIENTED_EDGE('',*,*,#280,.T.);
#367=ORIENTED_EDGE('',*,*,#281,.T.);
#368=ORIENTED_EDGE('',*,*,#282,.T.);
#369=ORIENTED_EDGE('',*,*,#283,.T.);
#370=ORIENTED_EDGE('',*,*,#240,.T.);
#371=ORIENTED_EDGE('',*,*,#244,.T.);
#372=ORIENTED_EDGE('',*,*,#247,.T.);
#373=ORIENTED_EDGE('',*,*,#249,.T.);
#374=ORIENTED_EDGE('',*,*,#253,.T.);
#375=ORIENTED_EDGE('',*,*,#256,.T.);
#376=ORIENTED_EDGE('',*,*,#258,.T.);
#377=ORIENTED_EDGE('',*,*,#262,.T.);
#378=ORIENTED_EDGE('',*,*,#265,.T.);
#379=ORIENTED_EDGE('',*,*,#267,.T.);
#380=ORIENTED_EDGE('',*,*,#271,.T.);
#381=ORIENTED_EDGE('',*,*,#274,.T.);
#382=ORIENTED_EDGE('',*,*,#284,.T.);
#383=ORIENTED_EDGE('',*,*,#285,.F.);
#384=ORIENTED_EDGE('',*,*,#286,.F.);
#385=ORIENTED_EDGE('',*,*,#282,.F.);
#386=ORIENTED_EDGE('',*,*,#287,.T.);
#387=ORIENTED_EDGE('',*,*,#288,.F.);
#388=ORIENTED_EDGE('',*,*,#289,.F.);
#389=ORIENTED_EDGE('',*,*,#283,.F.);
#390=ORIENTED_EDGE('',*,*,#286,.T.);
#391=ORIENTED_EDGE('',*,*,#290,.F.);
#392=ORIENTED_EDGE('',*,*,#291,.F.);
#393=ORIENTED_EDGE('',*,*,#276,.F.);
#394=ORIENTED_EDGE('',*,*,#289,.T.);
#395=ORIENTED_EDGE('',*,*,#292,.F.);
#396=ORIENTED_EDGE('',*,*,#293,.F.);
#397=ORIENTED_EDGE('',*,*,#277,.F.);
#398=ORIENTED_EDGE('',*,*,#291,.T.);
#399=ORIENTED_EDGE('',*,*,#294,.F.);
#400=ORIENTED_EDGE('',*,*,#295,.F.);
#401=ORIENTED_EDGE('',*,*,#278,.F.);
#402=ORIENTED_EDGE('',*,*,#293,.T.);
#403=ORIENTED_EDGE('',*,*,#296,.F.);
#404=ORIENTED_EDGE('',*,*,#297,.F.);
#405=ORIENTED_EDGE('',*,*,#279,.F.);
#406=ORIENTED_EDGE('',*,*,#295,.T.);
#407=ORIENTED_EDGE('',*,*,#298,.F.);
#408=ORIENTED_EDGE('',*,*,#299,.F.);
#409=ORIENTED_EDGE('',*,*,#280,.F.);
#410=ORIENTED_EDGE('',*,*,#297,.T.);
#411=ORIENTED_EDGE('',*,*,#300,.F.);
#412=ORIENTED_EDGE('',*,*,#287,.F.);
#413=ORIENTED_EDGE('',*,*,#281,.F.);
#414=ORIENTED_EDGE('',*,*,#299,.T.);
#415=ORIENTED_EDGE('',*,*,#292,.T.);
#416=ORIENTED_EDGE('',*,*,#290,.T.);
#417=ORIENTED_EDGE('',*,*,#288,.T.);
#418=ORIENTED_EDGE('',*,*,#285,.T.);
#419=ORIENTED_EDGE('',*,*,#300,.T.);
#420=ORIENTED_EDGE('',*,*,#298,.T.);
#421=ORIENTED_EDGE('',*,*,#296,.T.);
#422=ORIENTED_EDGE('',*,*,#294,.T.);
#423=ORIENTED_EDGE('',*,*,#284,.F.);
#424=ORIENTED_EDGE('',*,*,#301,.T.);
#425=ORIENTED_EDGE('',*,*,#301,.F.);
#426=PLANE('',#489);
#427=PLANE('',#490);
#428=PLANE('',#491);
#429=PLANE('',#492);
#430=PLANE('',#493);
#431=PLANE('',#494);
#432=PLANE('',#495);
#433=PLANE('',#496);
#434=PLANE('',#497);
#435=PLANE('',#498);
#436=PLANE('',#499);
#437=PLANE('',#500);
#438=PLANE('',#501);
#439=PLANE('',#502);
#440=PLANE('',#503);
#441=PLANE('',#504);
#442=PLANE('',#505);
#443=PLANE('',#511);
#444=PLANE('',#514);
#445=PLANE('',#517);
#446=PLANE('',#520);
#447=PLANE('',#523);
#448=ADVANCED_FACE('',(#35),#426,.T.);
#449=ADVANCED_FACE('',(#36),#427,.T.);
#450=ADVANCED_FACE('',(#37),#428,.T.);
#451=ADVANCED_FACE('',(#38),#429,.T.);
#452=ADVANCED_FACE('',(#39),#430,.T.);
#453=ADVANCED_FACE('',(#40),#431,.T.);
#454=ADVANCED_FACE('',(#41),#432,.T.);
#455=ADVANCED_FACE('',(#42),#433,.T.);
#456=ADVANCED_FACE('',(#43),#434,.T.);
#457=ADVANCED_FACE('',(#44),#435,.T.);
#458=ADVANCED_FACE('',(#45),#436,.T.);
#459=ADVANCED_FACE('',(#46),#437,.T.);
#460=ADVANCED_FACE('',(#47),#438,.T.);
#461=ADVANCED_FACE('',(#48),#439,.T.);
#462=ADVANCED_FACE('',(#49),#440,.T.);
#463=ADVANCED_FACE('',(#50),#441,.T.);
#464=ADVANCED_FACE('',(#51,#20,#21,#22,#23,#24),#442,.F.);
#465=ADVANCED_FACE('',(#52),#443,.T.);
#466=ADVANCED_FACE('',(#53),#16,.T.);
#467=ADVANCED_FACE('',(#54),#444,.T.);
#468=ADVANCED_FACE('',(#55),#17,.T.);
#469=ADVANCED_FACE('',(#56),#445,.T.);
#470=ADVANCED_FACE('',(#57),#18,.T.);
#471=ADVANCED_FACE('',(#58),#446,.T.);
#472=ADVANCED_FACE('',(#59),#19,.T.);
#473=ADVANCED_FACE('',(#60),#447,.F.);
#474=ADVANCED_FACE('',(#61),#15,.T.);
#475=CLOSED_SHELL('',(#448,#449,#450,#451,#452,#453,#454,#455,#456,#457,
#458,#459,#460,#461,#462,#463,#464,#465,#466,#467,#468,#469,#470,#471,#472,
#473,#474));
#476=DERIVED_UNIT_ELEMENT(#478,1.);
#477=DERIVED_UNIT_ELEMENT(#791,-3.);
#478=(
MASS_UNIT()
NAMED_UNIT(*)
SI_UNIT(.KILO.,.GRAM.)
);
#479=DERIVED_UNIT((#476,#477));
#480=MEASURE_REPRESENTATION_ITEM('density measure',
POSITIVE_RATIO_MEASURE(7850.),#479);
#481=PROPERTY_DEFINITION_REPRESENTATION(#486,#483);
#482=PROPERTY_DEFINITION_REPRESENTATION(#487,#484);
#483=REPRESENTATION('material name',(#485),#788);
#484=REPRESENTATION('density',(#480),#788);
#485=DESCRIPTIVE_REPRESENTATION_ITEM('Steel','Steel');
#486=PROPERTY_DEFINITION('material property','material name',#798);
#487=PROPERTY_DEFINITION('material property','density of part',#798);
#488=AXIS2_PLACEMENT_3D('',#654,#526,#527);
#489=AXIS2_PLACEMENT_3D('',#655,#528,#529);
#490=AXIS2_PLACEMENT_3D('',#664,#534,#535);
#491=AXIS2_PLACEMENT_3D('',#670,#539,#540);
#492=AXIS2_PLACEMENT_3D('',#673,#543,#544);
#493=AXIS2_PLACEMENT_3D('',#674,#545,#546);
#494=AXIS2_PLACEMENT_3D('',#683,#551,#552);
#495=AXIS2_PLACEMENT_3D('',#689,#556,#557);
#496=AXIS2_PLACEMENT_3D('',#692,#560,#561);
#497=AXIS2_PLACEMENT_3D('',#693,#562,#563);
#498=AXIS2_PLACEMENT_3D('',#702,#568,#569);
#499=AXIS2_PLACEMENT_3D('',#708,#573,#574);
#500=AXIS2_PLACEMENT_3D('',#711,#577,#578);
#501=AXIS2_PLACEMENT_3D('',#712,#579,#580);
#502=AXIS2_PLACEMENT_3D('',#721,#585,#586);
#503=AXIS2_PLACEMENT_3D('',#727,#590,#591);
#504=AXIS2_PLACEMENT_3D('',#730,#594,#595);
#505=AXIS2_PLACEMENT_3D('',#731,#596,#597);
#506=AXIS2_PLACEMENT_3D('',#736,#599,#600);
#507=AXIS2_PLACEMENT_3D('',#740,#602,#603);
#508=AXIS2_PLACEMENT_3D('',#744,#605,#606);
#509=AXIS2_PLACEMENT_3D('',#747,#608,#609);
#510=AXIS2_PLACEMENT_3D('',#749,#610,#611);
#511=AXIS2_PLACEMENT_3D('',#750,#612,#613);
#512=AXIS2_PLACEMENT_3D('',#756,#617,#618);
#513=AXIS2_PLACEMENT_3D('',#758,#619,#620);
#514=AXIS2_PLACEMENT_3D('',#760,#622,#623);
#515=AXIS2_PLACEMENT_3D('',#764,#626,#627);
#516=AXIS2_PLACEMENT_3D('',#766,#628,#629);
#517=AXIS2_PLACEMENT_3D('',#768,#631,#632);
#518=AXIS2_PLACEMENT_3D('',#772,#635,#636);
#519=AXIS2_PLACEMENT_3D('',#774,#637,#638);
#520=AXIS2_PLACEMENT_3D('',#776,#640,#641);
#521=AXIS2_PLACEMENT_3D('',#780,#644,#645);
#522=AXIS2_PLACEMENT_3D('',#781,#646,#647);
#523=AXIS2_PLACEMENT_3D('',#782,#648,#649);
#524=AXIS2_PLACEMENT_3D('',#783,#650,#651);
#525=AXIS2_PLACEMENT_3D('',#785,#652,#653);
#526=DIRECTION('axis',(0.,0.,1.));
#527=DIRECTION('refdir',(1.,0.,0.));
#528=DIRECTION('center_axis',(0.871118561189104,0.,0.491072756678505));
#529=DIRECTION('ref_axis',(-0.491072756678505,0.,0.871118561189104));
#530=DIRECTION('',(0.491072756678505,0.,-0.871118561189104));
#531=DIRECTION('',(0.,-1.,0.));
#532=DIRECTION('',(-0.491072756678505,0.,0.871118561189104));
#533=DIRECTION('',(0.,-1.,0.));
#534=DIRECTION('center_axis',(-0.0102777982045126,0.,-0.999947182037165));
#535=DIRECTION('ref_axis',(0.999947182037165,0.,-0.0102777982045126));
#536=DIRECTION('',(-0.999947182037165,0.,0.0102777982045126));
#537=DIRECTION('',(0.999947182037165,0.,-0.0102777982045126));
#538=DIRECTION('',(0.,-1.,0.));
#539=DIRECTION('center_axis',(-0.860840762984591,0.,0.508874425358661));
#540=DIRECTION('ref_axis',(-0.508874425358661,0.,-0.860840762984591));
#541=DIRECTION('',(0.508874425358661,0.,0.860840762984591));
#542=DIRECTION('',(-0.508874425358661,0.,-0.860840762984591));
#543=DIRECTION('center_axis',(0.,-1.,0.));
#544=DIRECTION('ref_axis',(0.,0.,-1.));
#545=DIRECTION('center_axis',(0.871118561189104,0.,0.491072756678505));
#546=DIRECTION('ref_axis',(-0.491072756678505,0.,0.871118561189104));
#547=DIRECTION('',(0.491072756678505,0.,-0.871118561189104));
#548=DIRECTION('',(0.,-1.,0.));
#549=DIRECTION('',(-0.491072756678505,0.,0.871118561189104));
#550=DIRECTION('',(0.,-1.,0.));
#551=DIRECTION('center_axis',(-0.0102777982045126,0.,-0.999947182037165));
#552=DIRECTION('ref_axis',(0.999947182037165,0.,-0.0102777982045126));
#553=DIRECTION('',(-0.999947182037165,0.,0.0102777982045126));
#554=DIRECTION('',(0.999947182037165,0.,-0.0102777982045126));
#555=DIRECTION('',(0.,-1.,0.));
#556=DIRECTION('center_axis',(-0.860840762984591,0.,0.508874425358661));
#557=DIRECTION('ref_axis',(-0.508874425358661,0.,-0.860840762984591));
#558=DIRECTION('',(0.508874425358661,0.,0.860840762984591));
#559=DIRECTION('',(-0.508874425358661,0.,-0.860840762984591));
#560=DIRECTION('center_axis',(0.,-1.,0.));
#561=DIRECTION('ref_axis',(0.,0.,-1.));
#562=DIRECTION('center_axis',(0.871118561189104,0.,0.491072756678504));
#563=DIRECTION('ref_axis',(-0.491072756678504,0.,0.871118561189104));
#564=DIRECTION('',(0.491072756678505,0.,-0.871118561189104));
#565=DIRECTION('',(0.,-1.,0.));
#566=DIRECTION('',(-0.491072756678505,0.,0.871118561189104));
#567=DIRECTION('',(0.,-1.,0.));
#568=DIRECTION('center_axis',(-0.0102777982045126,0.,-0.999947182037165));
#569=DIRECTION('ref_axis',(0.999947182037165,0.,-0.0102777982045126));
#570=DIRECTION('',(-0.999947182037165,0.,0.0102777982045126));
#571=DIRECTION('',(0.999947182037165,0.,-0.0102777982045126));
#572=DIRECTION('',(0.,-1.,0.));
#573=DIRECTION('center_axis',(-0.860840762984591,0.,0.508874425358661));
#574=DIRECTION('ref_axis',(-0.508874425358661,0.,-0.860840762984591));
#575=DIRECTION('',(0.508874425358661,0.,0.860840762984591));
#576=DIRECTION('',(-0.508874425358661,0.,-0.860840762984591));
#577=DIRECTION('center_axis',(0.,-1.,0.));
#578=DIRECTION('ref_axis',(0.,0.,-1.));
#579=DIRECTION('center_axis',(-0.860840762984591,0.,0.508874425358661));
#580=DIRECTION('ref_axis',(-0.508874425358661,0.,-0.860840762984591));
#581=DIRECTION('',(0.508874425358661,0.,0.860840762984591));
#582=DIRECTION('',(0.,-1.,0.));
#583=DIRECTION('',(-0.508874425358661,0.,-0.860840762984591));
#584=DIRECTION('',(0.,-1.,0.));
#585=DIRECTION('center_axis',(0.871118561189104,0.,0.491072756678504));
#586=DIRECTION('ref_axis',(-0.491072756678504,0.,0.871118561189104));
#587=DIRECTION('',(0.491072756678505,0.,-0.871118561189104));
#588=DIRECTION('',(-0.491072756678505,0.,0.871118561189104));
#589=DIRECTION('',(0.,-1.,0.));
#590=DIRECTION('center_axis',(-0.0102777982045126,0.,-0.999947182037165));
#591=DIRECTION('ref_axis',(0.999947182037165,0.,-0.0102777982045126));
#592=DIRECTION('',(-0.999947182037165,0.,0.0102777982045126));
#593=DIRECTION('',(0.999947182037165,0.,-0.0102777982045126));
#594=DIRECTION('center_axis',(0.,-1.,0.));
#595=DIRECTION('ref_axis',(0.,0.,-1.));
#596=DIRECTION('center_axis',(0.,1.,0.));
#597=DIRECTION('ref_axis',(0.,0.,1.));
#598=DIRECTION('',(1.,0.,-7.79103079782335E-17));
#599=DIRECTION('center_axis',(0.,-1.,0.));
#600=DIRECTION('ref_axis',(0.999999801218017,0.,0.000630526705104479));
#601=DIRECTION('',(3.40685846151303E-12,0.,1.));
#602=DIRECTION('center_axis',(0.,-1.,0.));
#603=DIRECTION('ref_axis',(-0.000630526705117097,0.,0.999999801218017));
#604=DIRECTION('',(-1.,0.,3.40686194727244E-12));
#605=DIRECTION('center_axis',(0.,-1.,0.));
#606=DIRECTION('ref_axis',(-1.,0.,-1.14603667058081E-15));
#607=DIRECTION('',(7.79103876929934E-17,0.,-1.));
#608=DIRECTION('center_axis',(0.,-1.,0.));
#609=DIRECTION('ref_axis',(6.25443162799639E-30,0.,-1.));
#610=DIRECTION('center_axis',(0.,1.,0.));
#611=DIRECTION('ref_axis',(0.,0.,-1.));
#612=DIRECTION('center_axis',(-1.,1.04390295156251E-14,-7.79103876929934E-17));
#613=DIRECTION('ref_axis',(-7.79103876929934E-17,0.,1.));
#614=DIRECTION('',(-7.79103876929928E-17,5.55111512312578E-17,1.));
#615=DIRECTION('',(1.04390295156251E-14,1.,8.69919126302092E-16));
#616=DIRECTION('',(1.04390295156251E-14,1.,8.69919126302092E-16));
#617=DIRECTION('center_axis',(1.04390295156251E-14,1.,8.69919126302092E-16));
#618=DIRECTION('ref_axis',(9.12542966609935E-30,8.69919126302092E-16,-1.));
#619=DIRECTION('center_axis',(-2.77555756156289E-17,1.,-5.55111512312578E-17));
#620=DIRECTION('ref_axis',(9.15111551614442E-30,-5.55111512312578E-17,-1.));
#621=DIRECTION('',(1.04390295156251E-14,1.,8.69919126302092E-16));
#622=DIRECTION('center_axis',(-7.79103079782335E-17,8.69919126302093E-16,
-1.));
#623=DIRECTION('ref_axis',(-1.,0.,7.79103079782335E-17));
#624=DIRECTION('',(-1.,-2.77555756156289E-17,7.79103079782335E-17));
#625=DIRECTION('',(1.04390295156251E-14,1.,8.69919126302092E-16));
#626=DIRECTION('center_axis',(1.04390295156251E-14,1.,8.69919126302092E-16));
#627=DIRECTION('ref_axis',(0.999999801218017,-1.04395759477745E-14,0.000630526705104479));
#628=DIRECTION('center_axis',(-2.77555756156289E-17,1.,-5.55111512312578E-17));
#629=DIRECTION('ref_axis',(0.999999801218017,2.7790571361603E-17,0.000630526705104479));
#630=DIRECTION('',(1.04390295156251E-14,1.,8.69919126302092E-16));
#631=DIRECTION('center_axis',(1.,-1.04390295156221E-14,-3.40685846151303E-12));
#632=DIRECTION('ref_axis',(-3.40685846151303E-12,0.,-1.));
#633=DIRECTION('',(-3.40685846151303E-12,-5.55111512313524E-17,-1.));
#634=DIRECTION('',(1.04390295156251E-14,1.,8.69919126302092E-16));
#635=DIRECTION('center_axis',(1.04390295156251E-14,1.,8.69919126302092E-16));
#636=DIRECTION('ref_axis',(-0.000630526705117097,-8.63336866492736E-16,
0.999999801218017));
#637=DIRECTION('center_axis',(-2.77555756156289E-17,1.,-5.55111512312578E-17));
#638=DIRECTION('ref_axis',(-0.000630526705117097,5.54936395649995E-17,0.999999801218017));
#639=DIRECTION('',(1.04390295156251E-14,1.,8.69919126302092E-16));
#640=DIRECTION('center_axis',(3.40686194727244E-12,-8.69919126337656E-16,
1.));
#641=DIRECTION('ref_axis',(1.,0.,-3.40686194727244E-12));
#642=DIRECTION('',(1.,2.77555756154398E-17,-3.40686194727244E-12));
#643=DIRECTION('',(1.04390295156251E-14,1.,8.69919126302092E-16));
#644=DIRECTION('center_axis',(1.04390295156251E-14,1.,8.69919126302092E-16));
#645=DIRECTION('ref_axis',(-1.,1.04390295156251E-14,-1.14603667058081E-15));
#646=DIRECTION('center_axis',(-2.77555756156289E-17,1.,-5.55111512312578E-17));
#647=DIRECTION('ref_axis',(-1.,-2.7755575615629E-17,-1.14603667058081E-15));
#648=DIRECTION('center_axis',(2.77555756156289E-17,-1.,5.55111512312578E-17));
#649=DIRECTION('ref_axis',(0.,-5.55111512312578E-17,-1.));
#650=DIRECTION('center_axis',(0.,1.,-1.22464679914735E-16));
#651=DIRECTION('ref_axis',(0.,0.,-1.));
#652=DIRECTION('center_axis',(1.,-7.49879891330929E-33,-1.22464679914735E-16));
#653=DIRECTION('ref_axis',(1.22464679914735E-16,0.,1.));
#654=CARTESIAN_POINT('',(0.,0.,0.));
#655=CARTESIAN_POINT('Origin',(54.8447727465279,-49.2817240429281,-52.0526761547312));
#656=CARTESIAN_POINT('',(44.638017169167,-49.2817240429281,-33.9468168659812));
#657=CARTESIAN_POINT('',(54.8447727465279,-49.2817240429281,-52.0526761547312));
#658=CARTESIAN_POINT('',(37.0981827208733,-49.2817240429281,-20.5718339395681));
#659=CARTESIAN_POINT('',(44.638017169167,-55.2817240429281,-33.9468168659812));
#660=CARTESIAN_POINT('',(44.638017169167,-49.2817240429281,-33.9468168659812));
#661=CARTESIAN_POINT('',(54.8447727465279,-55.2817240429281,-52.0526761547312));
#662=CARTESIAN_POINT('',(54.8447727465279,-55.2817240429281,-52.0526761547312));
#663=CARTESIAN_POINT('',(54.8447727465279,-49.2817240429281,-52.0526761547312));
#664=CARTESIAN_POINT('Origin',(34.0612608564436,-49.2817240429281,-51.8390561305693));
#665=CARTESIAN_POINT('',(34.0612608564436,-49.2817240429281,-51.8390561305693));
#666=CARTESIAN_POINT('',(16.7660482033407,-49.2817240429281,-51.6612900357736));
#667=CARTESIAN_POINT('',(34.0612608564436,-55.2817240429281,-51.8390561305693));
#668=CARTESIAN_POINT('',(34.0612608564436,-55.2817240429281,-51.8390561305693));
#669=CARTESIAN_POINT('',(34.0612608564436,-49.2817240429281,-51.8390561305693));
#670=CARTESIAN_POINT('Origin',(44.638017169167,-49.2817240429281,-33.9468168659812));
#671=CARTESIAN_POINT('',(46.2938077320818,-49.2817240429281,-31.1457878881196));
#672=CARTESIAN_POINT('',(44.638017169167,-55.2817240429281,-33.9468168659812));
#673=CARTESIAN_POINT('Origin',(44.4530168014857,-55.2817240429281,-42.9997465103562));
#674=CARTESIAN_POINT('Origin',(54.8447727465279,-49.2817240429281,36.8943238452689));
#675=CARTESIAN_POINT('',(44.638017169167,-49.2817240429281,55.0001831340188));
#676=CARTESIAN_POINT('',(54.8447727465279,-49.2817240429281,36.8943238452689));
#677=CARTESIAN_POINT('',(56.1231718811966,-49.2817240429281,34.6265596501009));
#678=CARTESIAN_POINT('',(44.638017169167,-55.2817240429281,55.0001831340188));
#679=CARTESIAN_POINT('',(44.638017169167,-49.2817240429281,55.0001831340188));
#680=CARTESIAN_POINT('',(54.8447727465279,-55.2817240429281,36.8943238452689));
#681=CARTESIAN_POINT('',(54.8447727465279,-55.2817240429281,36.8943238452689));
#682=CARTESIAN_POINT('',(54.8447727465279,-49.2817240429281,36.8943238452689));
#683=CARTESIAN_POINT('Origin',(34.0612608564436,-49.2817240429281,37.1079438694307));
#684=CARTESIAN_POINT('',(34.0612608564436,-49.2817240429281,37.1079438694307));
#685=CARTESIAN_POINT('',(17.2231137192445,-49.2817240429281,37.2810120889555));
#686=CARTESIAN_POINT('',(34.0612608564436,-55.2817240429281,37.1079438694307));
#687=CARTESIAN_POINT('',(34.0612608564436,-55.2817240429281,37.1079438694307));
#688=CARTESIAN_POINT('',(34.0612608564436,-49.2817240429281,37.1079438694307));
#689=CARTESIAN_POINT('Origin',(44.638017169167,-49.2817240429281,55.0001831340188));
#690=CARTESIAN_POINT('',(26.8117530558547,-49.2817240429281,24.8442663974824));
#691=CARTESIAN_POINT('',(44.638017169167,-55.2817240429281,55.0001831340188));
#692=CARTESIAN_POINT('Origin',(44.4530168014857,-55.2817240429281,45.9472534896438));
#693=CARTESIAN_POINT('Origin',(-33.6202272534721,-49.2817240429281,-52.0526761547312));
#694=CARTESIAN_POINT('',(-43.8269828308331,-49.2817240429281,-33.9468168659812));
#695=CARTESIAN_POINT('',(-33.6202272534721,-49.2817240429281,-52.0526761547312));
#696=CARTESIAN_POINT('',(-40.7000414304746,-49.2817240429281,-39.4937274949213));
#697=CARTESIAN_POINT('',(-43.8269828308331,-55.2817240429281,-33.9468168659812));
#698=CARTESIAN_POINT('',(-43.8269828308331,-49.2817240429281,-33.9468168659812));
#699=CARTESIAN_POINT('',(-33.6202272534721,-55.2817240429281,-52.0526761547312));
#700=CARTESIAN_POINT('',(-33.6202272534721,-55.2817240429281,-52.0526761547312));
#701=CARTESIAN_POINT('',(-33.6202272534721,-49.2817240429281,-52.0526761547312));
#702=CARTESIAN_POINT('Origin',(-54.4037391435565,-49.2817240429281,-51.8390561305693));
#703=CARTESIAN_POINT('',(-54.4037391435565,-49.2817240429281,-51.8390561305693));
#704=CARTESIAN_POINT('',(-27.4711242143445,-49.2817240429281,-52.1158787331375));
#705=CARTESIAN_POINT('',(-54.4037391435565,-55.2817240429281,-51.8390561305693));
#706=CARTESIAN_POINT('',(-54.4037391435565,-55.2817240429281,-51.8390561305693));
#707=CARTESIAN_POINT('',(-54.4037391435565,-49.2817240429281,-51.8390561305693));
#708=CARTESIAN_POINT('Origin',(-43.8269828308331,-49.2817240429281,-33.9468168659812));
#709=CARTESIAN_POINT('',(-30.7170456988852,-49.2817240429281,-11.7693056354024));
#710=CARTESIAN_POINT('',(-43.8269828308331,-55.2817240429281,-33.9468168659812));
#711=CARTESIAN_POINT('Origin',(-44.0119831985143,-55.2817240429281,-42.9997465103562));
#712=CARTESIAN_POINT('Origin',(-43.8269828308331,-49.2817240429281,55.0001831340188));
#713=CARTESIAN_POINT('',(-54.4037391435565,-49.2817240429281,37.1079438694307));
#714=CARTESIAN_POINT('',(-43.8269828308331,-49.2817240429281,55.0001831340188));
#715=CARTESIAN_POINT('',(-50.1991003751123,-49.2817240429281,44.2207486501995));
#716=CARTESIAN_POINT('',(-54.4037391435565,-55.2817240429281,37.1079438694307));
#717=CARTESIAN_POINT('',(-54.4037391435565,-49.2817240429281,37.1079438694307));
#718=CARTESIAN_POINT('',(-43.8269828308331,-55.2817240429281,55.0001831340188));
#719=CARTESIAN_POINT('',(-43.8269828308331,-55.2817240429281,55.0001831340188));
#720=CARTESIAN_POINT('',(-43.8269828308331,-49.2817240429281,55.0001831340188));
#721=CARTESIAN_POINT('Origin',(-33.6202272534721,-49.2817240429281,36.8943238452689));
#722=CARTESIAN_POINT('',(-33.6202272534721,-49.2817240429281,36.8943238452689));
#723=CARTESIAN_POINT('',(-21.6750522701513,-49.2817240429281,15.7046660947476));
#724=CARTESIAN_POINT('',(-33.6202272534721,-55.2817240429281,36.8943238452689));
#725=CARTESIAN_POINT('',(-33.6202272534721,-55.2817240429281,36.8943238452689));
#726=CARTESIAN_POINT('',(-33.6202272534721,-49.2817240429281,36.8943238452689));
#727=CARTESIAN_POINT('Origin',(-54.4037391435565,-49.2817240429281,37.1079438694307));
#728=CARTESIAN_POINT('',(-27.0140586984407,-49.2817240429281,36.8264233915916));
#729=CARTESIAN_POINT('',(-54.4037391435565,-55.2817240429281,37.1079438694307));
#730=CARTESIAN_POINT('Origin',(-44.0119831985143,-55.2817240429281,45.9472534896438));
#731=CARTESIAN_POINT('Origin',(7.69589263564216E-7,-49.2817240429281,4.87987227675779E-14));
#732=CARTESIAN_POINT('',(-56.9999999999999,-49.2817240429281,-64.75));
#733=CARTESIAN_POINT('',(57.0001166403034,-49.2817240429281,-64.7499999996116));
#734=CARTESIAN_POINT('',(28.500058704946,-49.2817240429281,-64.75));
#735=CARTESIAN_POINT('',(64.7499999996117,-49.2817240429281,-57.000116640304));
#736=CARTESIAN_POINT('Origin',(57.0050000705611,-49.2817240429287,-57.005000070561));
#737=CARTESIAN_POINT('',(64.7499999996117,-49.2817240429281,57.0001166402961));
#738=CARTESIAN_POINT('',(64.749999999903,-49.2817240429281,28.5000583200377));
#739=CARTESIAN_POINT('',(57.000116640304,-49.2817240429281,64.7499999996117));
#740=CARTESIAN_POINT('Origin',(57.0050000705612,-49.2817240429287,57.0050000705611));
#741=CARTESIAN_POINT('',(-56.9999999999999,-49.2817240429281,64.7500000000001));
#742=CARTESIAN_POINT('',(-28.4999996150952,-49.2817240429281,64.749999999903));
#743=CARTESIAN_POINT('',(-64.7499999999999,-49.2817240429281,57.0000000000001));
#744=CARTESIAN_POINT('Origin',(-56.9999999999999,-49.2817240429275,57.0000000000001));
#745=CARTESIAN_POINT('',(-64.7499999999999,-49.2817240429281,-57.));
#746=CARTESIAN_POINT('',(-64.7499999999999,-49.2817240429281,-28.5));
#747=CARTESIAN_POINT('Origin',(-56.9999999999999,-49.2817240429275,-57.));
#748=CARTESIAN_POINT('',(3.91886975727153E-15,-49.2817240429281,32.));
#749=CARTESIAN_POINT('Origin',(0.,-49.2817240429281,0.));
#750=CARTESIAN_POINT('Origin',(-64.7499999999999,-49.2817240429281,-57.));
#751=CARTESIAN_POINT('',(-64.7499999999998,-40.1,-57.));
#752=CARTESIAN_POINT('',(-64.7499999999998,-40.1,57.0000000000001));
#753=CARTESIAN_POINT('',(-64.7499999999998,-40.1,-28.5));
#754=CARTESIAN_POINT('',(-64.7499999999999,-49.2817240429281,-57.));
#755=CARTESIAN_POINT('',(-64.7499999999999,-49.2817240429281,57.0000000000001));
#756=CARTESIAN_POINT('Origin',(-56.9999999999999,-49.2817240429275,-57.));
#757=CARTESIAN_POINT('',(-56.9999999999998,-40.1,-64.75));
#758=CARTESIAN_POINT('Origin',(-56.9999999999998,-40.0999999999993,-57.));
#759=CARTESIAN_POINT('',(-56.9999999999999,-49.2817240429281,-64.75));
#760=CARTESIAN_POINT('Origin',(57.0001166403034,-49.2817240429281,-64.75));
#761=CARTESIAN_POINT('',(57.0001166403035,-40.1,-64.7499999996116));
#762=CARTESIAN_POINT('',(28.5000587049464,-40.1,-64.75));
#763=CARTESIAN_POINT('',(57.0001166403034,-49.2817240429281,-64.7499999996116));
#764=CARTESIAN_POINT('Origin',(57.0050000705611,-49.2817240429287,-57.005000070561));
#765=CARTESIAN_POINT('',(64.7499999996118,-40.1,-57.000116640304));
#766=CARTESIAN_POINT('Origin',(57.0050000705612,-40.1000000000005,-57.005000070561));
#767=CARTESIAN_POINT('',(64.7499999996117,-49.2817240429281,-57.000116640304));
#768=CARTESIAN_POINT('Origin',(64.7500000000001,-49.2817240429281,57.0001166402961));
#769=CARTESIAN_POINT('',(64.7499999996118,-40.1,57.0001166402962));
#770=CARTESIAN_POINT('',(64.7499999999031,-40.1,28.5000583200378));
#771=CARTESIAN_POINT('',(64.7499999996117,-49.2817240429281,57.0001166402961));
#772=CARTESIAN_POINT('Origin',(57.0050000705612,-49.2817240429287,57.0050000705611));
#773=CARTESIAN_POINT('',(57.0001166403041,-40.1,64.7499999996117));
#774=CARTESIAN_POINT('Origin',(57.0050000705613,-40.1000000000006,57.0050000705611));
#775=CARTESIAN_POINT('',(57.000116640304,-49.2817240429281,64.7499999996117));
#776=CARTESIAN_POINT('Origin',(-56.9999999999999,-49.2817240429281,64.7500000000001));
#777=CARTESIAN_POINT('',(-56.9999999999998,-40.1,64.7500000000001));
#778=CARTESIAN_POINT('',(-28.499999615095,-40.1,64.749999999903));
#779=CARTESIAN_POINT('',(-56.9999999999999,-49.2817240429281,64.7500000000001));
#780=CARTESIAN_POINT('Origin',(-56.9999999999999,-49.2817240429275,57.0000000000001));
#781=CARTESIAN_POINT('Origin',(-56.9999999999998,-40.0999999999994,57.0000000000001));
#782=CARTESIAN_POINT('Origin',(7.69589360776259E-7,-40.1,5.48608803064366E-14));
#783=CARTESIAN_POINT('Origin',(0.,-49.2817240429281,0.));
#784=CARTESIAN_POINT('',(-1.09476442525376E-46,-81.2817240429281,1.95943487863577E-15));
#785=CARTESIAN_POINT('Origin',(0.,-49.2817240429281,0.));
#786=UNCERTAINTY_MEASURE_WITH_UNIT(LENGTH_MEASURE(0.01),#790,
'DISTANCE_ACCURACY_VALUE',
'Maximum model space distance between geometric entities at asserted c
onnectivities');
#787=UNCERTAINTY_MEASURE_WITH_UNIT(LENGTH_MEASURE(0.01),#790,
'DISTANCE_ACCURACY_VALUE',
'Maximum model space distance between geometric entities at asserted c
onnectivities');
#788=(
GEOMETRIC_REPRESENTATION_CONTEXT(3)
GLOBAL_UNCERTAINTY_ASSIGNED_CONTEXT((#786))
GLOBAL_UNIT_ASSIGNED_CONTEXT((#790,#792,#793))
REPRESENTATION_CONTEXT('','3D')
);
#789=(
GEOMETRIC_REPRESENTATION_CONTEXT(3)
GLOBAL_UNCERTAINTY_ASSIGNED_CONTEXT((#787))
GLOBAL_UNIT_ASSIGNED_CONTEXT((#790,#792,#793))
REPRESENTATION_CONTEXT('','3D')
);
#790=(
LENGTH_UNIT()
NAMED_UNIT(*)
SI_UNIT(.MILLI.,.METRE.)
);
#791=(
LENGTH_UNIT()
NAMED_UNIT(*)
SI_UNIT($,.METRE.)
);
#792=(
NAMED_UNIT(*)
PLANE_ANGLE_UNIT()
SI_UNIT($,.RADIAN.)
);
#793=(
NAMED_UNIT(*)
SI_UNIT($,.STERADIAN.)
SOLID_ANGLE_UNIT()
);
#794=SHAPE_DEFINITION_REPRESENTATION(#795,#796);
#795=PRODUCT_DEFINITION_SHAPE('',$,#798);
#796=SHAPE_REPRESENTATION('',(#488),#788);
#797=PRODUCT_DEFINITION_CONTEXT('part definition',#802,'design');
#798=PRODUCT_DEFINITION('JugglingBallPixel_BigStrips','mouldB-70 v2',#799,
#797);
#799=PRODUCT_DEFINITION_FORMATION('',$,#804);
#800=PRODUCT_RELATED_PRODUCT_CATEGORY('mouldB-70 v2','mouldB-70 v2',(#804));
#801=APPLICATION_PROTOCOL_DEFINITION('international standard',
'automotive_design',2009,#802);
#802=APPLICATION_CONTEXT(
'Core Data for Automotive Mechanical Design Process');
#803=PRODUCT_CONTEXT('part definition',#802,'mechanical');
#804=PRODUCT('JugglingBallPixel_BigStrips','mouldB-70 v2',$,(#803));
#805=PRESENTATION_STYLE_ASSIGNMENT((#807));
#806=PRESENTATION_STYLE_ASSIGNMENT((#808));
#807=SURFACE_STYLE_USAGE(.BOTH.,#809);
#808=SURFACE_STYLE_USAGE(.BOTH.,#810);
#809=SURFACE_SIDE_STYLE('',(#811));
#810=SURFACE_SIDE_STYLE('',(#812));
#811=SURFACE_STYLE_FILL_AREA(#813);
#812=SURFACE_STYLE_FILL_AREA(#814);
#813=FILL_AREA_STYLE('Steel - Satin',(#815));
#814=FILL_AREA_STYLE('Opaque(232,173,35)',(#816));
#815=FILL_AREA_STYLE_COLOUR('Steel - Satin',#817);
#816=FILL_AREA_STYLE_COLOUR('Opaque(232,173,35)',#818);
#817=COLOUR_RGB('Steel - Satin',0.627450980392157,0.627450980392157,0.627450980392157);
#818=COLOUR_RGB('Opaque(232,173,35)',0.909803921568627,0.67843137254902,
0.137254901960784);
ENDSEC;
END-ISO-10303-21;
