ISO-10303-21;
HEADER;
/* Generated by software containing ST-Developer
 * from STEP Tools, Inc. (www.steptools.com) 
 */

FILE_DESCRIPTION(
/* description */ (''),
/* implementation_level */ '2;1');

FILE_NAME(
/* name */ 'init v9.step',
/* time_stamp */ '2026-03-14T09:51:44+01:00',
/* author */ (''),
/* organization */ (''),
/* preprocessor_version */ 'ST-DEVELOPER v20.1',
/* originating_system */ 'Autodesk Translation Framework v14.24.0.0',
/* authorisation */ '');

FILE_SCHEMA (('AUTOMOTIVE_DESIGN { 1 0 10303 214 3 1 1 }'));
ENDSEC;

DATA;
#10=MECHANICAL_DESIGN_GEOMETRIC_PRESENTATION_REPRESENTATION('',(#16,#17,
#18,#19,#20,#21,#22,#23),#1581);
#11=SHAPE_REPRESENTATION_RELATIONSHIP('SRR','None',#1588,#12);
#12=ADVANCED_BREP_SHAPE_REPRESENTATION('',(#24,#25,#26,#27,#28,#29,#30,
#31),#1580);
#13=CONICAL_SURFACE('',#944,30.,0.785398163397448);
#14=CONICAL_SURFACE('',#1006,22.5,0.785398163397448);
#15=CONICAL_SURFACE('',#1022,38.3122107912701,0.788519108286933);
#16=STYLED_ITEM('',(#1597),#24);
#17=STYLED_ITEM('',(#1597),#25);
#18=STYLED_ITEM('',(#1597),#26);
#19=STYLED_ITEM('',(#1597),#27);
#20=STYLED_ITEM('',(#1597),#28);
#21=STYLED_ITEM('',(#1597),#29);
#22=STYLED_ITEM('',(#1597),#30);
#23=STYLED_ITEM('',(#1597),#31);
#24=MANIFOLD_SOLID_BREP('Barrel',#903);
#25=MANIFOLD_SOLID_BREP('MountFlange',#904);
#26=MANIFOLD_SOLID_BREP('FaceDie',#905);
#27=MANIFOLD_SOLID_BREP('Body4',#906);
#28=MANIFOLD_SOLID_BREP('BarrelNut',#907);
#29=MANIFOLD_SOLID_BREP('MountFlange-Revolve',#908);
#30=MANIFOLD_SOLID_BREP('Body7',#909);
#31=MANIFOLD_SOLID_BREP('Body8',#910);
#32=FACE_BOUND('',#160,.T.);
#33=FACE_BOUND('',#162,.T.);
#34=FACE_BOUND('',#169,.T.);
#35=FACE_BOUND('',#170,.T.);
#36=FACE_BOUND('',#171,.T.);
#37=FACE_BOUND('',#172,.T.);
#38=FACE_BOUND('',#174,.T.);
#39=FACE_BOUND('',#175,.T.);
#40=FACE_BOUND('',#176,.T.);
#41=FACE_BOUND('',#177,.T.);
#42=FACE_BOUND('',#180,.T.);
#43=FACE_BOUND('',#199,.T.);
#44=FACE_BOUND('',#200,.T.);
#45=FACE_BOUND('',#201,.T.);
#46=FACE_BOUND('',#202,.T.);
#47=FACE_BOUND('',#203,.T.);
#48=FACE_BOUND('',#204,.T.);
#49=FACE_BOUND('',#205,.T.);
#50=FACE_BOUND('',#206,.T.);
#51=FACE_BOUND('',#207,.T.);
#52=FACE_BOUND('',#208,.T.);
#53=FACE_BOUND('',#209,.T.);
#54=FACE_BOUND('',#210,.T.);
#55=FACE_BOUND('',#211,.T.);
#56=FACE_BOUND('',#212,.T.);
#57=FACE_BOUND('',#213,.T.);
#58=FACE_BOUND('',#214,.T.);
#59=FACE_BOUND('',#216,.T.);
#60=FACE_BOUND('',#217,.T.);
#61=FACE_BOUND('',#218,.T.);
#62=FACE_BOUND('',#219,.T.);
#63=FACE_BOUND('',#220,.T.);
#64=FACE_BOUND('',#221,.T.);
#65=FACE_BOUND('',#222,.T.);
#66=FACE_BOUND('',#223,.T.);
#67=FACE_BOUND('',#224,.T.);
#68=FACE_BOUND('',#225,.T.);
#69=FACE_BOUND('',#226,.T.);
#70=FACE_BOUND('',#227,.T.);
#71=FACE_BOUND('',#228,.T.);
#72=FACE_BOUND('',#229,.T.);
#73=FACE_BOUND('',#230,.T.);
#74=FACE_BOUND('',#231,.T.);
#75=FACE_BOUND('',#238,.T.);
#76=FACE_BOUND('',#240,.T.);
#77=FACE_BOUND('',#242,.T.);
#78=FACE_BOUND('',#251,.T.);
#79=FACE_BOUND('',#252,.T.);
#80=FACE_BOUND('',#253,.T.);
#81=FACE_BOUND('',#254,.T.);
#82=FACE_BOUND('',#256,.T.);
#83=FACE_BOUND('',#257,.T.);
#84=FACE_BOUND('',#258,.T.);
#85=FACE_BOUND('',#259,.T.);
#86=FACE_BOUND('',#261,.T.);
#87=FACE_BOUND('',#264,.T.);
#88=PLANE('',#930);
#89=PLANE('',#931);
#90=PLANE('',#947);
#91=PLANE('',#948);
#92=PLANE('',#952);
#93=PLANE('',#1004);
#94=PLANE('',#1005);
#95=PLANE('',#1009);
#96=PLANE('',#1010);
#97=PLANE('',#1017);
#98=PLANE('',#1018);
#99=PLANE('',#1019);
#100=PLANE('',#1040);
#101=PLANE('',#1041);
#102=PLANE('',#1042);
#103=PLANE('',#1047);
#104=FACE_OUTER_BOUND('',#157,.T.);
#105=FACE_OUTER_BOUND('',#158,.T.);
#106=FACE_OUTER_BOUND('',#159,.T.);
#107=FACE_OUTER_BOUND('',#161,.T.);
#108=FACE_OUTER_BOUND('',#163,.T.);
#109=FACE_OUTER_BOUND('',#164,.T.);
#110=FACE_OUTER_BOUND('',#165,.T.);
#111=FACE_OUTER_BOUND('',#166,.T.);
#112=FACE_OUTER_BOUND('',#167,.T.);
#113=FACE_OUTER_BOUND('',#168,.T.);
#114=FACE_OUTER_BOUND('',#173,.T.);
#115=FACE_OUTER_BOUND('',#178,.T.);
#116=FACE_OUTER_BOUND('',#179,.T.);
#117=FACE_OUTER_BOUND('',#181,.T.);
#118=FACE_OUTER_BOUND('',#182,.T.);
#119=FACE_OUTER_BOUND('',#183,.T.);
#120=FACE_OUTER_BOUND('',#184,.T.);
#121=FACE_OUTER_BOUND('',#185,.T.);
#122=FACE_OUTER_BOUND('',#186,.T.);
#123=FACE_OUTER_BOUND('',#187,.T.);
#124=FACE_OUTER_BOUND('',#188,.T.);
#125=FACE_OUTER_BOUND('',#189,.T.);
#126=FACE_OUTER_BOUND('',#190,.T.);
#127=FACE_OUTER_BOUND('',#191,.T.);
#128=FACE_OUTER_BOUND('',#192,.T.);
#129=FACE_OUTER_BOUND('',#193,.T.);
#130=FACE_OUTER_BOUND('',#194,.T.);
#131=FACE_OUTER_BOUND('',#195,.T.);
#132=FACE_OUTER_BOUND('',#196,.T.);
#133=FACE_OUTER_BOUND('',#197,.T.);
#134=FACE_OUTER_BOUND('',#198,.T.);
#135=FACE_OUTER_BOUND('',#215,.T.);
#136=FACE_OUTER_BOUND('',#232,.T.);
#137=FACE_OUTER_BOUND('',#233,.T.);
#138=FACE_OUTER_BOUND('',#234,.T.);
#139=FACE_OUTER_BOUND('',#235,.T.);
#140=FACE_OUTER_BOUND('',#236,.T.);
#141=FACE_OUTER_BOUND('',#237,.T.);
#142=FACE_OUTER_BOUND('',#239,.T.);
#143=FACE_OUTER_BOUND('',#241,.T.);
#144=FACE_OUTER_BOUND('',#243,.T.);
#145=FACE_OUTER_BOUND('',#244,.T.);
#146=FACE_OUTER_BOUND('',#245,.T.);
#147=FACE_OUTER_BOUND('',#246,.T.);
#148=FACE_OUTER_BOUND('',#247,.T.);
#149=FACE_OUTER_BOUND('',#248,.T.);
#150=FACE_OUTER_BOUND('',#249,.T.);
#151=FACE_OUTER_BOUND('',#250,.T.);
#152=FACE_OUTER_BOUND('',#255,.T.);
#153=FACE_OUTER_BOUND('',#260,.T.);
#154=FACE_OUTER_BOUND('',#262,.T.);
#155=FACE_OUTER_BOUND('',#263,.T.);
#156=FACE_OUTER_BOUND('',#265,.T.);
#157=EDGE_LOOP('',(#596,#597,#598,#599));
#158=EDGE_LOOP('',(#600,#601,#602,#603));
#159=EDGE_LOOP('',(#604));
#160=EDGE_LOOP('',(#605));
#161=EDGE_LOOP('',(#606));
#162=EDGE_LOOP('',(#607));
#163=EDGE_LOOP('',(#608,#609,#610,#611));
#164=EDGE_LOOP('',(#612,#613,#614,#615));
#165=EDGE_LOOP('',(#616,#617,#618,#619));
#166=EDGE_LOOP('',(#620,#621,#622,#623));
#167=EDGE_LOOP('',(#624,#625,#626,#627));
#168=EDGE_LOOP('',(#628));
#169=EDGE_LOOP('',(#629));
#170=EDGE_LOOP('',(#630));
#171=EDGE_LOOP('',(#631));
#172=EDGE_LOOP('',(#632));
#173=EDGE_LOOP('',(#633));
#174=EDGE_LOOP('',(#634));
#175=EDGE_LOOP('',(#635));
#176=EDGE_LOOP('',(#636));
#177=EDGE_LOOP('',(#637));
#178=EDGE_LOOP('',(#638,#639,#640,#641));
#179=EDGE_LOOP('',(#642));
#180=EDGE_LOOP('',(#643));
#181=EDGE_LOOP('',(#644,#645,#646,#647));
#182=EDGE_LOOP('',(#648,#649,#650,#651));
#183=EDGE_LOOP('',(#652,#653,#654,#655));
#184=EDGE_LOOP('',(#656,#657,#658,#659));
#185=EDGE_LOOP('',(#660,#661,#662,#663));
#186=EDGE_LOOP('',(#664,#665,#666,#667));
#187=EDGE_LOOP('',(#668,#669,#670,#671));
#188=EDGE_LOOP('',(#672,#673,#674,#675));
#189=EDGE_LOOP('',(#676,#677,#678,#679));
#190=EDGE_LOOP('',(#680,#681,#682,#683));
#191=EDGE_LOOP('',(#684,#685,#686,#687));
#192=EDGE_LOOP('',(#688,#689,#690,#691));
#193=EDGE_LOOP('',(#692,#693,#694,#695));
#194=EDGE_LOOP('',(#696,#697,#698,#699));
#195=EDGE_LOOP('',(#700,#701,#702,#703));
#196=EDGE_LOOP('',(#704,#705,#706,#707));
#197=EDGE_LOOP('',(#708,#709,#710,#711));
#198=EDGE_LOOP('',(#712));
#199=EDGE_LOOP('',(#713));
#200=EDGE_LOOP('',(#714));
#201=EDGE_LOOP('',(#715));
#202=EDGE_LOOP('',(#716));
#203=EDGE_LOOP('',(#717));
#204=EDGE_LOOP('',(#718));
#205=EDGE_LOOP('',(#719));
#206=EDGE_LOOP('',(#720));
#207=EDGE_LOOP('',(#721));
#208=EDGE_LOOP('',(#722));
#209=EDGE_LOOP('',(#723));
#210=EDGE_LOOP('',(#724));
#211=EDGE_LOOP('',(#725));
#212=EDGE_LOOP('',(#726));
#213=EDGE_LOOP('',(#727));
#214=EDGE_LOOP('',(#728));
#215=EDGE_LOOP('',(#729));
#216=EDGE_LOOP('',(#730));
#217=EDGE_LOOP('',(#731));
#218=EDGE_LOOP('',(#732));
#219=EDGE_LOOP('',(#733));
#220=EDGE_LOOP('',(#734));
#221=EDGE_LOOP('',(#735));
#222=EDGE_LOOP('',(#736));
#223=EDGE_LOOP('',(#737));
#224=EDGE_LOOP('',(#738));
#225=EDGE_LOOP('',(#739));
#226=EDGE_LOOP('',(#740));
#227=EDGE_LOOP('',(#741));
#228=EDGE_LOOP('',(#742));
#229=EDGE_LOOP('',(#743));
#230=EDGE_LOOP('',(#744));
#231=EDGE_LOOP('',(#745));
#232=EDGE_LOOP('',(#746,#747,#748,#749));
#233=EDGE_LOOP('',(#750));
#234=EDGE_LOOP('',(#751));
#235=EDGE_LOOP('',(#752,#753,#754,#755));
#236=EDGE_LOOP('',(#756,#757,#758,#759));
#237=EDGE_LOOP('',(#760));
#238=EDGE_LOOP('',(#761));
#239=EDGE_LOOP('',(#762));
#240=EDGE_LOOP('',(#763));
#241=EDGE_LOOP('',(#764));
#242=EDGE_LOOP('',(#765));
#243=EDGE_LOOP('',(#766,#767,#768,#769));
#244=EDGE_LOOP('',(#770,#771,#772,#773));
#245=EDGE_LOOP('',(#774,#775,#776,#777));
#246=EDGE_LOOP('',(#778,#779,#780,#781));
#247=EDGE_LOOP('',(#782,#783,#784,#785));
#248=EDGE_LOOP('',(#786,#787,#788,#789));
#249=EDGE_LOOP('',(#790,#791,#792,#793));
#250=EDGE_LOOP('',(#794));
#251=EDGE_LOOP('',(#795));
#252=EDGE_LOOP('',(#796));
#253=EDGE_LOOP('',(#797));
#254=EDGE_LOOP('',(#798));
#255=EDGE_LOOP('',(#799));
#256=EDGE_LOOP('',(#800));
#257=EDGE_LOOP('',(#801));
#258=EDGE_LOOP('',(#802));
#259=EDGE_LOOP('',(#803));
#260=EDGE_LOOP('',(#804));
#261=EDGE_LOOP('',(#805));
#262=EDGE_LOOP('',(#806,#807,#808,#809));
#263=EDGE_LOOP('',(#810));
#264=EDGE_LOOP('',(#811));
#265=EDGE_LOOP('',(#812,#813,#814,#815));
#266=LINE('',#1346,#303);
#267=LINE('',#1352,#304);
#268=LINE('',#1360,#305);
#269=LINE('',#1366,#306);
#270=LINE('',#1372,#307);
#271=LINE('',#1378,#308);
#272=LINE('',#1384,#309);
#273=LINE('',#1392,#310);
#274=LINE('',#1401,#311);
#275=LINE('',#1407,#312);
#276=LINE('',#1413,#313);
#277=LINE('',#1419,#314);
#278=LINE('',#1425,#315);
#279=LINE('',#1431,#316);
#280=LINE('',#1437,#317);
#281=LINE('',#1443,#318);
#282=LINE('',#1449,#319);
#283=LINE('',#1455,#320);
#284=LINE('',#1461,#321);
#285=LINE('',#1467,#322);
#286=LINE('',#1473,#323);
#287=LINE('',#1479,#324);
#288=LINE('',#1485,#325);
#289=LINE('',#1491,#326);
#290=LINE('',#1496,#327);
#291=LINE('',#1503,#328);
#292=LINE('',#1511,#329);
#293=LINE('',#1517,#330);
#294=LINE('',#1529,#331);
#295=LINE('',#1531,#332);
#296=LINE('',#1536,#333);
#297=LINE('',#1542,#334);
#298=LINE('',#1548,#335);
#299=LINE('',#1554,#336);
#300=LINE('',#1560,#337);
#301=LINE('',#1571,#338);
#302=LINE('',#1577,#339);
#303=VECTOR('',#1056,15.);
#304=VECTOR('',#1063,20.);
#305=VECTOR('',#1074,8.5);
#306=VECTOR('',#1081,8.50000000000001);
#307=VECTOR('',#1088,8.50000000000001);
#308=VECTOR('',#1095,79.);
#309=VECTOR('',#1102,30.);
#310=VECTOR('',#1113,40.0000005960464);
#311=VECTOR('',#1124,1.5);
#312=VECTOR('',#1131,1.5);
#313=VECTOR('',#1138,1.5);
#314=VECTOR('',#1145,1.5);
#315=VECTOR('',#1152,1.5);
#316=VECTOR('',#1159,1.5);
#317=VECTOR('',#1166,1.5);
#318=VECTOR('',#1173,1.5);
#319=VECTOR('',#1180,1.5);
#320=VECTOR('',#1187,1.5);
#321=VECTOR('',#1194,1.5);
#322=VECTOR('',#1201,1.5);
#323=VECTOR('',#1208,1.5);
#324=VECTOR('',#1215,1.5);
#325=VECTOR('',#1222,1.5);
#326=VECTOR('',#1229,1.5);
#327=VECTOR('',#1236,50.);
#328=VECTOR('',#1245,22.5);
#329=VECTOR('',#1256,20.);
#330=VECTOR('',#1263,22.5);
#331=VECTOR('',#1280,38.3122107912701);
#332=VECTOR('',#1283,36.6244209864937);
#333=VECTOR('',#1288,8.5);
#334=VECTOR('',#1295,8.50000000000001);
#335=VECTOR('',#1302,8.50000000000001);
#336=VECTOR('',#1309,50.);
#337=VECTOR('',#1316,79.);
#338=VECTOR('',#1331,40.0000005960464);
#339=VECTOR('',#1340,50.);
#340=CIRCLE('',#925,15.);
#341=CIRCLE('',#926,15.);
#342=CIRCLE('',#928,20.);
#343=CIRCLE('',#929,20.);
#344=CIRCLE('',#933,8.5);
#345=CIRCLE('',#934,8.5);
#346=CIRCLE('',#936,8.50000000000001);
#347=CIRCLE('',#937,8.50000000000001);
#348=CIRCLE('',#939,8.50000000000001);
#349=CIRCLE('',#940,8.50000000000001);
#350=CIRCLE('',#942,79.);
#351=CIRCLE('',#943,79.);
#352=CIRCLE('',#945,40.);
#353=CIRCLE('',#946,20.);
#354=CIRCLE('',#950,40.0000005960464);
#355=CIRCLE('',#951,40.0000005960464);
#356=CIRCLE('',#953,50.);
#357=CIRCLE('',#955,1.5);
#358=CIRCLE('',#956,1.5);
#359=CIRCLE('',#958,1.5);
#360=CIRCLE('',#959,1.5);
#361=CIRCLE('',#961,1.5);
#362=CIRCLE('',#962,1.5);
#363=CIRCLE('',#964,1.5);
#364=CIRCLE('',#965,1.5);
#365=CIRCLE('',#967,1.5);
#366=CIRCLE('',#968,1.5);
#367=CIRCLE('',#970,1.5);
#368=CIRCLE('',#971,1.5);
#369=CIRCLE('',#973,1.5);
#370=CIRCLE('',#974,1.5);
#371=CIRCLE('',#976,1.5);
#372=CIRCLE('',#977,1.5);
#373=CIRCLE('',#979,1.5);
#374=CIRCLE('',#980,1.5);
#375=CIRCLE('',#982,1.5);
#376=CIRCLE('',#983,1.5);
#377=CIRCLE('',#985,1.5);
#378=CIRCLE('',#986,1.5);
#379=CIRCLE('',#988,1.5);
#380=CIRCLE('',#989,1.5);
#381=CIRCLE('',#991,1.5);
#382=CIRCLE('',#992,1.5);
#383=CIRCLE('',#994,1.5);
#384=CIRCLE('',#995,1.5);
#385=CIRCLE('',#997,1.5);
#386=CIRCLE('',#998,1.5);
#387=CIRCLE('',#1000,1.5);
#388=CIRCLE('',#1001,1.5);
#389=CIRCLE('',#1003,50.);
#390=CIRCLE('',#1007,12.5);
#391=CIRCLE('',#1008,32.5);
#392=CIRCLE('',#1012,20.);
#393=CIRCLE('',#1013,20.);
#394=CIRCLE('',#1015,22.5);
#395=CIRCLE('',#1016,22.5);
#396=CIRCLE('',#1020,40.0000005960464);
#397=CIRCLE('',#1021,36.6244209864937);
#398=CIRCLE('',#1023,36.6244209864937);
#399=CIRCLE('',#1026,8.5);
#400=CIRCLE('',#1027,8.5);
#401=CIRCLE('',#1029,8.50000000000001);
#402=CIRCLE('',#1030,8.50000000000001);
#403=CIRCLE('',#1032,8.50000000000001);
#404=CIRCLE('',#1033,8.50000000000001);
#405=CIRCLE('',#1035,50.);
#406=CIRCLE('',#1036,50.);
#407=CIRCLE('',#1038,79.);
#408=CIRCLE('',#1039,79.);
#409=CIRCLE('',#1043,50.);
#410=CIRCLE('',#1044,40.0000005960464);
#411=CIRCLE('',#1046,40.0000005960464);
#412=CIRCLE('',#1048,50.);
#413=VERTEX_POINT('',#1343);
#414=VERTEX_POINT('',#1345);
#415=VERTEX_POINT('',#1349);
#416=VERTEX_POINT('',#1351);
#417=VERTEX_POINT('',#1357);
#418=VERTEX_POINT('',#1359);
#419=VERTEX_POINT('',#1363);
#420=VERTEX_POINT('',#1365);
#421=VERTEX_POINT('',#1369);
#422=VERTEX_POINT('',#1371);
#423=VERTEX_POINT('',#1375);
#424=VERTEX_POINT('',#1377);
#425=VERTEX_POINT('',#1381);
#426=VERTEX_POINT('',#1383);
#427=VERTEX_POINT('',#1389);
#428=VERTEX_POINT('',#1391);
#429=VERTEX_POINT('',#1395);
#430=VERTEX_POINT('',#1398);
#431=VERTEX_POINT('',#1400);
#432=VERTEX_POINT('',#1404);
#433=VERTEX_POINT('',#1406);
#434=VERTEX_POINT('',#1410);
#435=VERTEX_POINT('',#1412);
#436=VERTEX_POINT('',#1416);
#437=VERTEX_POINT('',#1418);
#438=VERTEX_POINT('',#1422);
#439=VERTEX_POINT('',#1424);
#440=VERTEX_POINT('',#1428);
#441=VERTEX_POINT('',#1430);
#442=VERTEX_POINT('',#1434);
#443=VERTEX_POINT('',#1436);
#444=VERTEX_POINT('',#1440);
#445=VERTEX_POINT('',#1442);
#446=VERTEX_POINT('',#1446);
#447=VERTEX_POINT('',#1448);
#448=VERTEX_POINT('',#1452);
#449=VERTEX_POINT('',#1454);
#450=VERTEX_POINT('',#1458);
#451=VERTEX_POINT('',#1460);
#452=VERTEX_POINT('',#1464);
#453=VERTEX_POINT('',#1466);
#454=VERTEX_POINT('',#1470);
#455=VERTEX_POINT('',#1472);
#456=VERTEX_POINT('',#1476);
#457=VERTEX_POINT('',#1478);
#458=VERTEX_POINT('',#1482);
#459=VERTEX_POINT('',#1484);
#460=VERTEX_POINT('',#1488);
#461=VERTEX_POINT('',#1490);
#462=VERTEX_POINT('',#1494);
#463=VERTEX_POINT('',#1500);
#464=VERTEX_POINT('',#1502);
#465=VERTEX_POINT('',#1508);
#466=VERTEX_POINT('',#1510);
#467=VERTEX_POINT('',#1514);
#468=VERTEX_POINT('',#1516);
#469=VERTEX_POINT('',#1522);
#470=VERTEX_POINT('',#1524);
#471=VERTEX_POINT('',#1527);
#472=VERTEX_POINT('',#1533);
#473=VERTEX_POINT('',#1535);
#474=VERTEX_POINT('',#1539);
#475=VERTEX_POINT('',#1541);
#476=VERTEX_POINT('',#1545);
#477=VERTEX_POINT('',#1547);
#478=VERTEX_POINT('',#1551);
#479=VERTEX_POINT('',#1553);
#480=VERTEX_POINT('',#1557);
#481=VERTEX_POINT('',#1559);
#482=VERTEX_POINT('',#1565);
#483=VERTEX_POINT('',#1567);
#484=VERTEX_POINT('',#1570);
#485=VERTEX_POINT('',#1574);
#486=EDGE_CURVE('',#413,#413,#340,.T.);
#487=EDGE_CURVE('',#413,#414,#266,.T.);
#488=EDGE_CURVE('',#414,#414,#341,.T.);
#489=EDGE_CURVE('',#415,#415,#342,.T.);
#490=EDGE_CURVE('',#415,#416,#267,.T.);
#491=EDGE_CURVE('',#416,#416,#343,.T.);
#492=EDGE_CURVE('',#417,#417,#344,.T.);
#493=EDGE_CURVE('',#417,#418,#268,.T.);
#494=EDGE_CURVE('',#418,#418,#345,.T.);
#495=EDGE_CURVE('',#419,#419,#346,.T.);
#496=EDGE_CURVE('',#419,#420,#269,.T.);
#497=EDGE_CURVE('',#420,#420,#347,.T.);
#498=EDGE_CURVE('',#421,#421,#348,.T.);
#499=EDGE_CURVE('',#421,#422,#270,.T.);
#500=EDGE_CURVE('',#422,#422,#349,.T.);
#501=EDGE_CURVE('',#423,#423,#350,.T.);
#502=EDGE_CURVE('',#423,#424,#271,.T.);
#503=EDGE_CURVE('',#424,#424,#351,.T.);
#504=EDGE_CURVE('',#425,#425,#352,.T.);
#505=EDGE_CURVE('',#425,#426,#272,.T.);
#506=EDGE_CURVE('',#426,#426,#353,.T.);
#507=EDGE_CURVE('',#427,#427,#354,.T.);
#508=EDGE_CURVE('',#427,#428,#273,.T.);
#509=EDGE_CURVE('',#428,#428,#355,.T.);
#510=EDGE_CURVE('',#429,#429,#356,.T.);
#511=EDGE_CURVE('',#430,#430,#357,.T.);
#512=EDGE_CURVE('',#430,#431,#274,.T.);
#513=EDGE_CURVE('',#431,#431,#358,.T.);
#514=EDGE_CURVE('',#432,#432,#359,.T.);
#515=EDGE_CURVE('',#432,#433,#275,.T.);
#516=EDGE_CURVE('',#433,#433,#360,.T.);
#517=EDGE_CURVE('',#434,#434,#361,.T.);
#518=EDGE_CURVE('',#434,#435,#276,.T.);
#519=EDGE_CURVE('',#435,#435,#362,.T.);
#520=EDGE_CURVE('',#436,#436,#363,.T.);
#521=EDGE_CURVE('',#436,#437,#277,.T.);
#522=EDGE_CURVE('',#437,#437,#364,.T.);
#523=EDGE_CURVE('',#438,#438,#365,.T.);
#524=EDGE_CURVE('',#438,#439,#278,.T.);
#525=EDGE_CURVE('',#439,#439,#366,.T.);
#526=EDGE_CURVE('',#440,#440,#367,.T.);
#527=EDGE_CURVE('',#440,#441,#279,.T.);
#528=EDGE_CURVE('',#441,#441,#368,.T.);
#529=EDGE_CURVE('',#442,#442,#369,.T.);
#530=EDGE_CURVE('',#442,#443,#280,.T.);
#531=EDGE_CURVE('',#443,#443,#370,.T.);
#532=EDGE_CURVE('',#444,#444,#371,.T.);
#533=EDGE_CURVE('',#444,#445,#281,.T.);
#534=EDGE_CURVE('',#445,#445,#372,.T.);
#535=EDGE_CURVE('',#446,#446,#373,.T.);
#536=EDGE_CURVE('',#446,#447,#282,.T.);
#537=EDGE_CURVE('',#447,#447,#374,.T.);
#538=EDGE_CURVE('',#448,#448,#375,.T.);
#539=EDGE_CURVE('',#448,#449,#283,.T.);
#540=EDGE_CURVE('',#449,#449,#376,.T.);
#541=EDGE_CURVE('',#450,#450,#377,.T.);
#542=EDGE_CURVE('',#450,#451,#284,.T.);
#543=EDGE_CURVE('',#451,#451,#378,.T.);
#544=EDGE_CURVE('',#452,#452,#379,.T.);
#545=EDGE_CURVE('',#452,#453,#285,.T.);
#546=EDGE_CURVE('',#453,#453,#380,.T.);
#547=EDGE_CURVE('',#454,#454,#381,.T.);
#548=EDGE_CURVE('',#454,#455,#286,.T.);
#549=EDGE_CURVE('',#455,#455,#382,.T.);
#550=EDGE_CURVE('',#456,#456,#383,.T.);
#551=EDGE_CURVE('',#456,#457,#287,.T.);
#552=EDGE_CURVE('',#457,#457,#384,.T.);
#553=EDGE_CURVE('',#458,#458,#385,.T.);
#554=EDGE_CURVE('',#458,#459,#288,.T.);
#555=EDGE_CURVE('',#459,#459,#386,.T.);
#556=EDGE_CURVE('',#460,#460,#387,.T.);
#557=EDGE_CURVE('',#460,#461,#289,.T.);
#558=EDGE_CURVE('',#461,#461,#388,.T.);
#559=EDGE_CURVE('',#462,#462,#389,.T.);
#560=EDGE_CURVE('',#462,#429,#290,.T.);
#561=EDGE_CURVE('',#463,#463,#390,.T.);
#562=EDGE_CURVE('',#463,#464,#291,.T.);
#563=EDGE_CURVE('',#464,#464,#391,.T.);
#564=EDGE_CURVE('',#465,#465,#392,.T.);
#565=EDGE_CURVE('',#465,#466,#292,.T.);
#566=EDGE_CURVE('',#466,#466,#393,.T.);
#567=EDGE_CURVE('',#467,#467,#394,.T.);
#568=EDGE_CURVE('',#467,#468,#293,.T.);
#569=EDGE_CURVE('',#468,#468,#395,.T.);
#570=EDGE_CURVE('',#469,#469,#396,.T.);
#571=EDGE_CURVE('',#470,#470,#397,.T.);
#572=EDGE_CURVE('',#471,#471,#398,.T.);
#573=EDGE_CURVE('',#471,#469,#294,.T.);
#574=EDGE_CURVE('',#471,#470,#295,.T.);
#575=EDGE_CURVE('',#472,#472,#399,.T.);
#576=EDGE_CURVE('',#472,#473,#296,.T.);
#577=EDGE_CURVE('',#473,#473,#400,.T.);
#578=EDGE_CURVE('',#474,#474,#401,.T.);
#579=EDGE_CURVE('',#474,#475,#297,.T.);
#580=EDGE_CURVE('',#475,#475,#402,.T.);
#581=EDGE_CURVE('',#476,#476,#403,.T.);
#582=EDGE_CURVE('',#476,#477,#298,.T.);
#583=EDGE_CURVE('',#477,#477,#404,.T.);
#584=EDGE_CURVE('',#478,#478,#405,.T.);
#585=EDGE_CURVE('',#478,#479,#299,.T.);
#586=EDGE_CURVE('',#479,#479,#406,.T.);
#587=EDGE_CURVE('',#480,#480,#407,.T.);
#588=EDGE_CURVE('',#480,#481,#300,.T.);
#589=EDGE_CURVE('',#481,#481,#408,.T.);
#590=EDGE_CURVE('',#482,#482,#409,.T.);
#591=EDGE_CURVE('',#483,#483,#410,.T.);
#592=EDGE_CURVE('',#483,#484,#301,.T.);
#593=EDGE_CURVE('',#484,#484,#411,.T.);
#594=EDGE_CURVE('',#485,#485,#412,.T.);
#595=EDGE_CURVE('',#482,#485,#302,.T.);
#596=ORIENTED_EDGE('',*,*,#486,.F.);
#597=ORIENTED_EDGE('',*,*,#487,.T.);
#598=ORIENTED_EDGE('',*,*,#488,.F.);
#599=ORIENTED_EDGE('',*,*,#487,.F.);
#600=ORIENTED_EDGE('',*,*,#489,.F.);
#601=ORIENTED_EDGE('',*,*,#490,.T.);
#602=ORIENTED_EDGE('',*,*,#491,.F.);
#603=ORIENTED_EDGE('',*,*,#490,.F.);
#604=ORIENTED_EDGE('',*,*,#491,.T.);
#605=ORIENTED_EDGE('',*,*,#488,.T.);
#606=ORIENTED_EDGE('',*,*,#489,.T.);
#607=ORIENTED_EDGE('',*,*,#486,.T.);
#608=ORIENTED_EDGE('',*,*,#492,.F.);
#609=ORIENTED_EDGE('',*,*,#493,.T.);
#610=ORIENTED_EDGE('',*,*,#494,.F.);
#611=ORIENTED_EDGE('',*,*,#493,.F.);
#612=ORIENTED_EDGE('',*,*,#495,.F.);
#613=ORIENTED_EDGE('',*,*,#496,.T.);
#614=ORIENTED_EDGE('',*,*,#497,.F.);
#615=ORIENTED_EDGE('',*,*,#496,.F.);
#616=ORIENTED_EDGE('',*,*,#498,.F.);
#617=ORIENTED_EDGE('',*,*,#499,.T.);
#618=ORIENTED_EDGE('',*,*,#500,.F.);
#619=ORIENTED_EDGE('',*,*,#499,.F.);
#620=ORIENTED_EDGE('',*,*,#501,.F.);
#621=ORIENTED_EDGE('',*,*,#502,.T.);
#622=ORIENTED_EDGE('',*,*,#503,.F.);
#623=ORIENTED_EDGE('',*,*,#502,.F.);
#624=ORIENTED_EDGE('',*,*,#504,.T.);
#625=ORIENTED_EDGE('',*,*,#505,.T.);
#626=ORIENTED_EDGE('',*,*,#506,.T.);
#627=ORIENTED_EDGE('',*,*,#505,.F.);
#628=ORIENTED_EDGE('',*,*,#501,.T.);
#629=ORIENTED_EDGE('',*,*,#492,.T.);
#630=ORIENTED_EDGE('',*,*,#495,.T.);
#631=ORIENTED_EDGE('',*,*,#498,.T.);
#632=ORIENTED_EDGE('',*,*,#504,.F.);
#633=ORIENTED_EDGE('',*,*,#503,.T.);
#634=ORIENTED_EDGE('',*,*,#494,.T.);
#635=ORIENTED_EDGE('',*,*,#497,.T.);
#636=ORIENTED_EDGE('',*,*,#500,.T.);
#637=ORIENTED_EDGE('',*,*,#506,.F.);
#638=ORIENTED_EDGE('',*,*,#507,.T.);
#639=ORIENTED_EDGE('',*,*,#508,.T.);
#640=ORIENTED_EDGE('',*,*,#509,.F.);
#641=ORIENTED_EDGE('',*,*,#508,.F.);
#642=ORIENTED_EDGE('',*,*,#510,.F.);
#643=ORIENTED_EDGE('',*,*,#507,.F.);
#644=ORIENTED_EDGE('',*,*,#511,.F.);
#645=ORIENTED_EDGE('',*,*,#512,.T.);
#646=ORIENTED_EDGE('',*,*,#513,.F.);
#647=ORIENTED_EDGE('',*,*,#512,.F.);
#648=ORIENTED_EDGE('',*,*,#514,.F.);
#649=ORIENTED_EDGE('',*,*,#515,.T.);
#650=ORIENTED_EDGE('',*,*,#516,.F.);
#651=ORIENTED_EDGE('',*,*,#515,.F.);
#652=ORIENTED_EDGE('',*,*,#517,.F.);
#653=ORIENTED_EDGE('',*,*,#518,.T.);
#654=ORIENTED_EDGE('',*,*,#519,.F.);
#655=ORIENTED_EDGE('',*,*,#518,.F.);
#656=ORIENTED_EDGE('',*,*,#520,.F.);
#657=ORIENTED_EDGE('',*,*,#521,.T.);
#658=ORIENTED_EDGE('',*,*,#522,.F.);
#659=ORIENTED_EDGE('',*,*,#521,.F.);
#660=ORIENTED_EDGE('',*,*,#523,.F.);
#661=ORIENTED_EDGE('',*,*,#524,.T.);
#662=ORIENTED_EDGE('',*,*,#525,.F.);
#663=ORIENTED_EDGE('',*,*,#524,.F.);
#664=ORIENTED_EDGE('',*,*,#526,.F.);
#665=ORIENTED_EDGE('',*,*,#527,.T.);
#666=ORIENTED_EDGE('',*,*,#528,.F.);
#667=ORIENTED_EDGE('',*,*,#527,.F.);
#668=ORIENTED_EDGE('',*,*,#529,.F.);
#669=ORIENTED_EDGE('',*,*,#530,.T.);
#670=ORIENTED_EDGE('',*,*,#531,.F.);
#671=ORIENTED_EDGE('',*,*,#530,.F.);
#672=ORIENTED_EDGE('',*,*,#532,.F.);
#673=ORIENTED_EDGE('',*,*,#533,.T.);
#674=ORIENTED_EDGE('',*,*,#534,.F.);
#675=ORIENTED_EDGE('',*,*,#533,.F.);
#676=ORIENTED_EDGE('',*,*,#535,.F.);
#677=ORIENTED_EDGE('',*,*,#536,.T.);
#678=ORIENTED_EDGE('',*,*,#537,.F.);
#679=ORIENTED_EDGE('',*,*,#536,.F.);
#680=ORIENTED_EDGE('',*,*,#538,.F.);
#681=ORIENTED_EDGE('',*,*,#539,.T.);
#682=ORIENTED_EDGE('',*,*,#540,.F.);
#683=ORIENTED_EDGE('',*,*,#539,.F.);
#684=ORIENTED_EDGE('',*,*,#541,.F.);
#685=ORIENTED_EDGE('',*,*,#542,.T.);
#686=ORIENTED_EDGE('',*,*,#543,.F.);
#687=ORIENTED_EDGE('',*,*,#542,.F.);
#688=ORIENTED_EDGE('',*,*,#544,.F.);
#689=ORIENTED_EDGE('',*,*,#545,.T.);
#690=ORIENTED_EDGE('',*,*,#546,.F.);
#691=ORIENTED_EDGE('',*,*,#545,.F.);
#692=ORIENTED_EDGE('',*,*,#547,.F.);
#693=ORIENTED_EDGE('',*,*,#548,.T.);
#694=ORIENTED_EDGE('',*,*,#549,.F.);
#695=ORIENTED_EDGE('',*,*,#548,.F.);
#696=ORIENTED_EDGE('',*,*,#550,.F.);
#697=ORIENTED_EDGE('',*,*,#551,.T.);
#698=ORIENTED_EDGE('',*,*,#552,.F.);
#699=ORIENTED_EDGE('',*,*,#551,.F.);
#700=ORIENTED_EDGE('',*,*,#553,.F.);
#701=ORIENTED_EDGE('',*,*,#554,.T.);
#702=ORIENTED_EDGE('',*,*,#555,.F.);
#703=ORIENTED_EDGE('',*,*,#554,.F.);
#704=ORIENTED_EDGE('',*,*,#556,.F.);
#705=ORIENTED_EDGE('',*,*,#557,.T.);
#706=ORIENTED_EDGE('',*,*,#558,.F.);
#707=ORIENTED_EDGE('',*,*,#557,.F.);
#708=ORIENTED_EDGE('',*,*,#559,.F.);
#709=ORIENTED_EDGE('',*,*,#560,.T.);
#710=ORIENTED_EDGE('',*,*,#510,.T.);
#711=ORIENTED_EDGE('',*,*,#560,.F.);
#712=ORIENTED_EDGE('',*,*,#559,.T.);
#713=ORIENTED_EDGE('',*,*,#511,.T.);
#714=ORIENTED_EDGE('',*,*,#514,.T.);
#715=ORIENTED_EDGE('',*,*,#517,.T.);
#716=ORIENTED_EDGE('',*,*,#520,.T.);
#717=ORIENTED_EDGE('',*,*,#523,.T.);
#718=ORIENTED_EDGE('',*,*,#526,.T.);
#719=ORIENTED_EDGE('',*,*,#529,.T.);
#720=ORIENTED_EDGE('',*,*,#532,.T.);
#721=ORIENTED_EDGE('',*,*,#535,.T.);
#722=ORIENTED_EDGE('',*,*,#538,.T.);
#723=ORIENTED_EDGE('',*,*,#541,.T.);
#724=ORIENTED_EDGE('',*,*,#544,.T.);
#725=ORIENTED_EDGE('',*,*,#547,.T.);
#726=ORIENTED_EDGE('',*,*,#550,.T.);
#727=ORIENTED_EDGE('',*,*,#553,.T.);
#728=ORIENTED_EDGE('',*,*,#556,.T.);
#729=ORIENTED_EDGE('',*,*,#509,.T.);
#730=ORIENTED_EDGE('',*,*,#513,.T.);
#731=ORIENTED_EDGE('',*,*,#516,.T.);
#732=ORIENTED_EDGE('',*,*,#519,.T.);
#733=ORIENTED_EDGE('',*,*,#522,.T.);
#734=ORIENTED_EDGE('',*,*,#525,.T.);
#735=ORIENTED_EDGE('',*,*,#528,.T.);
#736=ORIENTED_EDGE('',*,*,#531,.T.);
#737=ORIENTED_EDGE('',*,*,#534,.T.);
#738=ORIENTED_EDGE('',*,*,#537,.T.);
#739=ORIENTED_EDGE('',*,*,#540,.T.);
#740=ORIENTED_EDGE('',*,*,#543,.T.);
#741=ORIENTED_EDGE('',*,*,#546,.T.);
#742=ORIENTED_EDGE('',*,*,#549,.T.);
#743=ORIENTED_EDGE('',*,*,#552,.T.);
#744=ORIENTED_EDGE('',*,*,#555,.T.);
#745=ORIENTED_EDGE('',*,*,#558,.T.);
#746=ORIENTED_EDGE('',*,*,#561,.T.);
#747=ORIENTED_EDGE('',*,*,#562,.T.);
#748=ORIENTED_EDGE('',*,*,#563,.T.);
#749=ORIENTED_EDGE('',*,*,#562,.F.);
#750=ORIENTED_EDGE('',*,*,#561,.F.);
#751=ORIENTED_EDGE('',*,*,#563,.F.);
#752=ORIENTED_EDGE('',*,*,#564,.F.);
#753=ORIENTED_EDGE('',*,*,#565,.T.);
#754=ORIENTED_EDGE('',*,*,#566,.T.);
#755=ORIENTED_EDGE('',*,*,#565,.F.);
#756=ORIENTED_EDGE('',*,*,#567,.F.);
#757=ORIENTED_EDGE('',*,*,#568,.T.);
#758=ORIENTED_EDGE('',*,*,#569,.T.);
#759=ORIENTED_EDGE('',*,*,#568,.F.);
#760=ORIENTED_EDGE('',*,*,#567,.T.);
#761=ORIENTED_EDGE('',*,*,#564,.T.);
#762=ORIENTED_EDGE('',*,*,#569,.F.);
#763=ORIENTED_EDGE('',*,*,#566,.F.);
#764=ORIENTED_EDGE('',*,*,#570,.F.);
#765=ORIENTED_EDGE('',*,*,#571,.T.);
#766=ORIENTED_EDGE('',*,*,#572,.F.);
#767=ORIENTED_EDGE('',*,*,#573,.T.);
#768=ORIENTED_EDGE('',*,*,#570,.T.);
#769=ORIENTED_EDGE('',*,*,#573,.F.);
#770=ORIENTED_EDGE('',*,*,#572,.T.);
#771=ORIENTED_EDGE('',*,*,#574,.T.);
#772=ORIENTED_EDGE('',*,*,#571,.F.);
#773=ORIENTED_EDGE('',*,*,#574,.F.);
#774=ORIENTED_EDGE('',*,*,#575,.F.);
#775=ORIENTED_EDGE('',*,*,#576,.T.);
#776=ORIENTED_EDGE('',*,*,#577,.F.);
#777=ORIENTED_EDGE('',*,*,#576,.F.);
#778=ORIENTED_EDGE('',*,*,#578,.F.);
#779=ORIENTED_EDGE('',*,*,#579,.T.);
#780=ORIENTED_EDGE('',*,*,#580,.F.);
#781=ORIENTED_EDGE('',*,*,#579,.F.);
#782=ORIENTED_EDGE('',*,*,#581,.F.);
#783=ORIENTED_EDGE('',*,*,#582,.T.);
#784=ORIENTED_EDGE('',*,*,#583,.F.);
#785=ORIENTED_EDGE('',*,*,#582,.F.);
#786=ORIENTED_EDGE('',*,*,#584,.F.);
#787=ORIENTED_EDGE('',*,*,#585,.T.);
#788=ORIENTED_EDGE('',*,*,#586,.F.);
#789=ORIENTED_EDGE('',*,*,#585,.F.);
#790=ORIENTED_EDGE('',*,*,#587,.F.);
#791=ORIENTED_EDGE('',*,*,#588,.T.);
#792=ORIENTED_EDGE('',*,*,#589,.F.);
#793=ORIENTED_EDGE('',*,*,#588,.F.);
#794=ORIENTED_EDGE('',*,*,#589,.T.);
#795=ORIENTED_EDGE('',*,*,#575,.T.);
#796=ORIENTED_EDGE('',*,*,#578,.T.);
#797=ORIENTED_EDGE('',*,*,#581,.T.);
#798=ORIENTED_EDGE('',*,*,#586,.T.);
#799=ORIENTED_EDGE('',*,*,#587,.T.);
#800=ORIENTED_EDGE('',*,*,#577,.T.);
#801=ORIENTED_EDGE('',*,*,#580,.T.);
#802=ORIENTED_EDGE('',*,*,#583,.T.);
#803=ORIENTED_EDGE('',*,*,#584,.T.);
#804=ORIENTED_EDGE('',*,*,#590,.T.);
#805=ORIENTED_EDGE('',*,*,#591,.F.);
#806=ORIENTED_EDGE('',*,*,#591,.T.);
#807=ORIENTED_EDGE('',*,*,#592,.T.);
#808=ORIENTED_EDGE('',*,*,#593,.F.);
#809=ORIENTED_EDGE('',*,*,#592,.F.);
#810=ORIENTED_EDGE('',*,*,#594,.F.);
#811=ORIENTED_EDGE('',*,*,#593,.T.);
#812=ORIENTED_EDGE('',*,*,#590,.F.);
#813=ORIENTED_EDGE('',*,*,#595,.T.);
#814=ORIENTED_EDGE('',*,*,#594,.T.);
#815=ORIENTED_EDGE('',*,*,#595,.F.);
#816=CYLINDRICAL_SURFACE('',#924,15.);
#817=CYLINDRICAL_SURFACE('',#927,20.);
#818=CYLINDRICAL_SURFACE('',#932,8.5);
#819=CYLINDRICAL_SURFACE('',#935,8.50000000000001);
#820=CYLINDRICAL_SURFACE('',#938,8.50000000000001);
#821=CYLINDRICAL_SURFACE('',#941,79.);
#822=CYLINDRICAL_SURFACE('',#949,40.0000005960464);
#823=CYLINDRICAL_SURFACE('',#954,1.5);
#824=CYLINDRICAL_SURFACE('',#957,1.5);
#825=CYLINDRICAL_SURFACE('',#960,1.5);
#826=CYLINDRICAL_SURFACE('',#963,1.5);
#827=CYLINDRICAL_SURFACE('',#966,1.5);
#828=CYLINDRICAL_SURFACE('',#969,1.5);
#829=CYLINDRICAL_SURFACE('',#972,1.5);
#830=CYLINDRICAL_SURFACE('',#975,1.5);
#831=CYLINDRICAL_SURFACE('',#978,1.5);
#832=CYLINDRICAL_SURFACE('',#981,1.5);
#833=CYLINDRICAL_SURFACE('',#984,1.5);
#834=CYLINDRICAL_SURFACE('',#987,1.5);
#835=CYLINDRICAL_SURFACE('',#990,1.5);
#836=CYLINDRICAL_SURFACE('',#993,1.5);
#837=CYLINDRICAL_SURFACE('',#996,1.5);
#838=CYLINDRICAL_SURFACE('',#999,1.5);
#839=CYLINDRICAL_SURFACE('',#1002,50.);
#840=CYLINDRICAL_SURFACE('',#1011,20.);
#841=CYLINDRICAL_SURFACE('',#1014,22.5);
#842=CYLINDRICAL_SURFACE('',#1024,36.6244209864937);
#843=CYLINDRICAL_SURFACE('',#1025,8.5);
#844=CYLINDRICAL_SURFACE('',#1028,8.50000000000001);
#845=CYLINDRICAL_SURFACE('',#1031,8.50000000000001);
#846=CYLINDRICAL_SURFACE('',#1034,50.);
#847=CYLINDRICAL_SURFACE('',#1037,79.);
#848=CYLINDRICAL_SURFACE('',#1045,40.0000005960464);
#849=CYLINDRICAL_SURFACE('',#1049,50.);
#850=ADVANCED_FACE('',(#104),#816,.F.);
#851=ADVANCED_FACE('',(#105),#817,.T.);
#852=ADVANCED_FACE('',(#106,#32),#88,.T.);
#853=ADVANCED_FACE('',(#107,#33),#89,.F.);
#854=ADVANCED_FACE('',(#108),#818,.F.);
#855=ADVANCED_FACE('',(#109),#819,.F.);
#856=ADVANCED_FACE('',(#110),#820,.F.);
#857=ADVANCED_FACE('',(#111),#821,.T.);
#858=ADVANCED_FACE('',(#112),#13,.F.);
#859=ADVANCED_FACE('',(#113,#34,#35,#36,#37),#90,.T.);
#860=ADVANCED_FACE('',(#114,#38,#39,#40,#41),#91,.F.);
#861=ADVANCED_FACE('',(#115),#822,.T.);
#862=ADVANCED_FACE('',(#116,#42),#92,.F.);
#863=ADVANCED_FACE('',(#117),#823,.F.);
#864=ADVANCED_FACE('',(#118),#824,.F.);
#865=ADVANCED_FACE('',(#119),#825,.F.);
#866=ADVANCED_FACE('',(#120),#826,.F.);
#867=ADVANCED_FACE('',(#121),#827,.F.);
#868=ADVANCED_FACE('',(#122),#828,.F.);
#869=ADVANCED_FACE('',(#123),#829,.F.);
#870=ADVANCED_FACE('',(#124),#830,.F.);
#871=ADVANCED_FACE('',(#125),#831,.F.);
#872=ADVANCED_FACE('',(#126),#832,.F.);
#873=ADVANCED_FACE('',(#127),#833,.F.);
#874=ADVANCED_FACE('',(#128),#834,.F.);
#875=ADVANCED_FACE('',(#129),#835,.F.);
#876=ADVANCED_FACE('',(#130),#836,.F.);
#877=ADVANCED_FACE('',(#131),#837,.F.);
#878=ADVANCED_FACE('',(#132),#838,.F.);
#879=ADVANCED_FACE('',(#133),#839,.T.);
#880=ADVANCED_FACE('',(#134,#43,#44,#45,#46,#47,#48,#49,#50,#51,#52,#53,
#54,#55,#56,#57,#58),#93,.T.);
#881=ADVANCED_FACE('',(#135,#59,#60,#61,#62,#63,#64,#65,#66,#67,#68,#69,
#70,#71,#72,#73,#74),#94,.F.);
#882=ADVANCED_FACE('',(#136),#14,.T.);
#883=ADVANCED_FACE('',(#137),#95,.T.);
#884=ADVANCED_FACE('',(#138),#96,.F.);
#885=ADVANCED_FACE('',(#139),#840,.F.);
#886=ADVANCED_FACE('',(#140),#841,.T.);
#887=ADVANCED_FACE('',(#141,#75),#97,.T.);
#888=ADVANCED_FACE('',(#142,#76),#98,.F.);
#889=ADVANCED_FACE('',(#143,#77),#99,.T.);
#890=ADVANCED_FACE('',(#144),#15,.T.);
#891=ADVANCED_FACE('',(#145),#842,.F.);
#892=ADVANCED_FACE('',(#146),#843,.F.);
#893=ADVANCED_FACE('',(#147),#844,.F.);
#894=ADVANCED_FACE('',(#148),#845,.F.);
#895=ADVANCED_FACE('',(#149),#846,.F.);
#896=ADVANCED_FACE('',(#150),#847,.T.);
#897=ADVANCED_FACE('',(#151,#78,#79,#80,#81),#100,.T.);
#898=ADVANCED_FACE('',(#152,#82,#83,#84,#85),#101,.F.);
#899=ADVANCED_FACE('',(#153,#86),#102,.T.);
#900=ADVANCED_FACE('',(#154),#848,.F.);
#901=ADVANCED_FACE('',(#155,#87),#103,.T.);
#902=ADVANCED_FACE('',(#156),#849,.T.);
#903=CLOSED_SHELL('',(#850,#851,#852,#853));
#904=CLOSED_SHELL('',(#854,#855,#856,#857,#858,#859,#860));
#905=CLOSED_SHELL('',(#861,#862,#863,#864,#865,#866,#867,#868,#869,#870,
#871,#872,#873,#874,#875,#876,#877,#878,#879,#880,#881));
#906=CLOSED_SHELL('',(#882,#883,#884));
#907=CLOSED_SHELL('',(#885,#886,#887,#888));
#908=CLOSED_SHELL('',(#889,#890,#891));
#909=CLOSED_SHELL('',(#892,#893,#894,#895,#896,#897,#898));
#910=CLOSED_SHELL('',(#899,#900,#901,#902));
#911=DERIVED_UNIT_ELEMENT(#913,1.);
#912=DERIVED_UNIT_ELEMENT(#1583,-3.);
#913=(
MASS_UNIT()
NAMED_UNIT(*)
SI_UNIT(.KILO.,.GRAM.)
);
#914=DERIVED_UNIT((#911,#912));
#915=MEASURE_REPRESENTATION_ITEM('density measure',
POSITIVE_RATIO_MEASURE(7850.),#914);
#916=PROPERTY_DEFINITION_REPRESENTATION(#921,#918);
#917=PROPERTY_DEFINITION_REPRESENTATION(#922,#919);
#918=REPRESENTATION('material name',(#920),#1580);
#919=REPRESENTATION('density',(#915),#1580);
#920=DESCRIPTIVE_REPRESENTATION_ITEM('Steel','Steel');
#921=PROPERTY_DEFINITION('material property','material name',#1590);
#922=PROPERTY_DEFINITION('material property','density of part',#1590);
#923=AXIS2_PLACEMENT_3D('',#1341,#1050,#1051);
#924=AXIS2_PLACEMENT_3D('',#1342,#1052,#1053);
#925=AXIS2_PLACEMENT_3D('',#1344,#1054,#1055);
#926=AXIS2_PLACEMENT_3D('',#1347,#1057,#1058);
#927=AXIS2_PLACEMENT_3D('',#1348,#1059,#1060);
#928=AXIS2_PLACEMENT_3D('',#1350,#1061,#1062);
#929=AXIS2_PLACEMENT_3D('',#1353,#1064,#1065);
#930=AXIS2_PLACEMENT_3D('',#1354,#1066,#1067);
#931=AXIS2_PLACEMENT_3D('',#1355,#1068,#1069);
#932=AXIS2_PLACEMENT_3D('',#1356,#1070,#1071);
#933=AXIS2_PLACEMENT_3D('',#1358,#1072,#1073);
#934=AXIS2_PLACEMENT_3D('',#1361,#1075,#1076);
#935=AXIS2_PLACEMENT_3D('',#1362,#1077,#1078);
#936=AXIS2_PLACEMENT_3D('',#1364,#1079,#1080);
#937=AXIS2_PLACEMENT_3D('',#1367,#1082,#1083);
#938=AXIS2_PLACEMENT_3D('',#1368,#1084,#1085);
#939=AXIS2_PLACEMENT_3D('',#1370,#1086,#1087);
#940=AXIS2_PLACEMENT_3D('',#1373,#1089,#1090);
#941=AXIS2_PLACEMENT_3D('',#1374,#1091,#1092);
#942=AXIS2_PLACEMENT_3D('',#1376,#1093,#1094);
#943=AXIS2_PLACEMENT_3D('',#1379,#1096,#1097);
#944=AXIS2_PLACEMENT_3D('',#1380,#1098,#1099);
#945=AXIS2_PLACEMENT_3D('',#1382,#1100,#1101);
#946=AXIS2_PLACEMENT_3D('',#1385,#1103,#1104);
#947=AXIS2_PLACEMENT_3D('',#1386,#1105,#1106);
#948=AXIS2_PLACEMENT_3D('',#1387,#1107,#1108);
#949=AXIS2_PLACEMENT_3D('',#1388,#1109,#1110);
#950=AXIS2_PLACEMENT_3D('',#1390,#1111,#1112);
#951=AXIS2_PLACEMENT_3D('',#1393,#1114,#1115);
#952=AXIS2_PLACEMENT_3D('',#1394,#1116,#1117);
#953=AXIS2_PLACEMENT_3D('',#1396,#1118,#1119);
#954=AXIS2_PLACEMENT_3D('',#1397,#1120,#1121);
#955=AXIS2_PLACEMENT_3D('',#1399,#1122,#1123);
#956=AXIS2_PLACEMENT_3D('',#1402,#1125,#1126);
#957=AXIS2_PLACEMENT_3D('',#1403,#1127,#1128);
#958=AXIS2_PLACEMENT_3D('',#1405,#1129,#1130);
#959=AXIS2_PLACEMENT_3D('',#1408,#1132,#1133);
#960=AXIS2_PLACEMENT_3D('',#1409,#1134,#1135);
#961=AXIS2_PLACEMENT_3D('',#1411,#1136,#1137);
#962=AXIS2_PLACEMENT_3D('',#1414,#1139,#1140);
#963=AXIS2_PLACEMENT_3D('',#1415,#1141,#1142);
#964=AXIS2_PLACEMENT_3D('',#1417,#1143,#1144);
#965=AXIS2_PLACEMENT_3D('',#1420,#1146,#1147);
#966=AXIS2_PLACEMENT_3D('',#1421,#1148,#1149);
#967=AXIS2_PLACEMENT_3D('',#1423,#1150,#1151);
#968=AXIS2_PLACEMENT_3D('',#1426,#1153,#1154);
#969=AXIS2_PLACEMENT_3D('',#1427,#1155,#1156);
#970=AXIS2_PLACEMENT_3D('',#1429,#1157,#1158);
#971=AXIS2_PLACEMENT_3D('',#1432,#1160,#1161);
#972=AXIS2_PLACEMENT_3D('',#1433,#1162,#1163);
#973=AXIS2_PLACEMENT_3D('',#1435,#1164,#1165);
#974=AXIS2_PLACEMENT_3D('',#1438,#1167,#1168);
#975=AXIS2_PLACEMENT_3D('',#1439,#1169,#1170);
#976=AXIS2_PLACEMENT_3D('',#1441,#1171,#1172);
#977=AXIS2_PLACEMENT_3D('',#1444,#1174,#1175);
#978=AXIS2_PLACEMENT_3D('',#1445,#1176,#1177);
#979=AXIS2_PLACEMENT_3D('',#1447,#1178,#1179);
#980=AXIS2_PLACEMENT_3D('',#1450,#1181,#1182);
#981=AXIS2_PLACEMENT_3D('',#1451,#1183,#1184);
#982=AXIS2_PLACEMENT_3D('',#1453,#1185,#1186);
#983=AXIS2_PLACEMENT_3D('',#1456,#1188,#1189);
#984=AXIS2_PLACEMENT_3D('',#1457,#1190,#1191);
#985=AXIS2_PLACEMENT_3D('',#1459,#1192,#1193);
#986=AXIS2_PLACEMENT_3D('',#1462,#1195,#1196);
#987=AXIS2_PLACEMENT_3D('',#1463,#1197,#1198);
#988=AXIS2_PLACEMENT_3D('',#1465,#1199,#1200);
#989=AXIS2_PLACEMENT_3D('',#1468,#1202,#1203);
#990=AXIS2_PLACEMENT_3D('',#1469,#1204,#1205);
#991=AXIS2_PLACEMENT_3D('',#1471,#1206,#1207);
#992=AXIS2_PLACEMENT_3D('',#1474,#1209,#1210);
#993=AXIS2_PLACEMENT_3D('',#1475,#1211,#1212);
#994=AXIS2_PLACEMENT_3D('',#1477,#1213,#1214);
#995=AXIS2_PLACEMENT_3D('',#1480,#1216,#1217);
#996=AXIS2_PLACEMENT_3D('',#1481,#1218,#1219);
#997=AXIS2_PLACEMENT_3D('',#1483,#1220,#1221);
#998=AXIS2_PLACEMENT_3D('',#1486,#1223,#1224);
#999=AXIS2_PLACEMENT_3D('',#1487,#1225,#1226);
#1000=AXIS2_PLACEMENT_3D('',#1489,#1227,#1228);
#1001=AXIS2_PLACEMENT_3D('',#1492,#1230,#1231);
#1002=AXIS2_PLACEMENT_3D('',#1493,#1232,#1233);
#1003=AXIS2_PLACEMENT_3D('',#1495,#1234,#1235);
#1004=AXIS2_PLACEMENT_3D('',#1497,#1237,#1238);
#1005=AXIS2_PLACEMENT_3D('',#1498,#1239,#1240);
#1006=AXIS2_PLACEMENT_3D('',#1499,#1241,#1242);
#1007=AXIS2_PLACEMENT_3D('',#1501,#1243,#1244);
#1008=AXIS2_PLACEMENT_3D('',#1504,#1246,#1247);
#1009=AXIS2_PLACEMENT_3D('',#1505,#1248,#1249);
#1010=AXIS2_PLACEMENT_3D('',#1506,#1250,#1251);
#1011=AXIS2_PLACEMENT_3D('',#1507,#1252,#1253);
#1012=AXIS2_PLACEMENT_3D('',#1509,#1254,#1255);
#1013=AXIS2_PLACEMENT_3D('',#1512,#1257,#1258);
#1014=AXIS2_PLACEMENT_3D('',#1513,#1259,#1260);
#1015=AXIS2_PLACEMENT_3D('',#1515,#1261,#1262);
#1016=AXIS2_PLACEMENT_3D('',#1518,#1264,#1265);
#1017=AXIS2_PLACEMENT_3D('',#1519,#1266,#1267);
#1018=AXIS2_PLACEMENT_3D('',#1520,#1268,#1269);
#1019=AXIS2_PLACEMENT_3D('',#1521,#1270,#1271);
#1020=AXIS2_PLACEMENT_3D('',#1523,#1272,#1273);
#1021=AXIS2_PLACEMENT_3D('',#1525,#1274,#1275);
#1022=AXIS2_PLACEMENT_3D('',#1526,#1276,#1277);
#1023=AXIS2_PLACEMENT_3D('',#1528,#1278,#1279);
#1024=AXIS2_PLACEMENT_3D('',#1530,#1281,#1282);
#1025=AXIS2_PLACEMENT_3D('',#1532,#1284,#1285);
#1026=AXIS2_PLACEMENT_3D('',#1534,#1286,#1287);
#1027=AXIS2_PLACEMENT_3D('',#1537,#1289,#1290);
#1028=AXIS2_PLACEMENT_3D('',#1538,#1291,#1292);
#1029=AXIS2_PLACEMENT_3D('',#1540,#1293,#1294);
#1030=AXIS2_PLACEMENT_3D('',#1543,#1296,#1297);
#1031=AXIS2_PLACEMENT_3D('',#1544,#1298,#1299);
#1032=AXIS2_PLACEMENT_3D('',#1546,#1300,#1301);
#1033=AXIS2_PLACEMENT_3D('',#1549,#1303,#1304);
#1034=AXIS2_PLACEMENT_3D('',#1550,#1305,#1306);
#1035=AXIS2_PLACEMENT_3D('',#1552,#1307,#1308);
#1036=AXIS2_PLACEMENT_3D('',#1555,#1310,#1311);
#1037=AXIS2_PLACEMENT_3D('',#1556,#1312,#1313);
#1038=AXIS2_PLACEMENT_3D('',#1558,#1314,#1315);
#1039=AXIS2_PLACEMENT_3D('',#1561,#1317,#1318);
#1040=AXIS2_PLACEMENT_3D('',#1562,#1319,#1320);
#1041=AXIS2_PLACEMENT_3D('',#1563,#1321,#1322);
#1042=AXIS2_PLACEMENT_3D('',#1564,#1323,#1324);
#1043=AXIS2_PLACEMENT_3D('',#1566,#1325,#1326);
#1044=AXIS2_PLACEMENT_3D('',#1568,#1327,#1328);
#1045=AXIS2_PLACEMENT_3D('',#1569,#1329,#1330);
#1046=AXIS2_PLACEMENT_3D('',#1572,#1332,#1333);
#1047=AXIS2_PLACEMENT_3D('',#1573,#1334,#1335);
#1048=AXIS2_PLACEMENT_3D('',#1575,#1336,#1337);
#1049=AXIS2_PLACEMENT_3D('',#1576,#1338,#1339);
#1050=DIRECTION('axis',(0.,0.,1.));
#1051=DIRECTION('refdir',(1.,0.,0.));
#1052=DIRECTION('center_axis',(0.,0.,-1.));
#1053=DIRECTION('ref_axis',(1.,0.,0.));
#1054=DIRECTION('center_axis',(0.,0.,1.));
#1055=DIRECTION('ref_axis',(1.,0.,0.));
#1056=DIRECTION('',(0.,0.,1.));
#1057=DIRECTION('center_axis',(0.,0.,-1.));
#1058=DIRECTION('ref_axis',(1.,0.,0.));
#1059=DIRECTION('center_axis',(0.,0.,-1.));
#1060=DIRECTION('ref_axis',(1.,0.,0.));
#1061=DIRECTION('center_axis',(0.,0.,-1.));
#1062=DIRECTION('ref_axis',(1.,0.,0.));
#1063=DIRECTION('',(0.,0.,1.));
#1064=DIRECTION('center_axis',(0.,0.,1.));
#1065=DIRECTION('ref_axis',(1.,0.,0.));
#1066=DIRECTION('center_axis',(0.,0.,1.));
#1067=DIRECTION('ref_axis',(1.,0.,0.));
#1068=DIRECTION('center_axis',(0.,0.,1.));
#1069=DIRECTION('ref_axis',(1.,0.,0.));
#1070=DIRECTION('center_axis',(0.,0.,-1.));
#1071=DIRECTION('ref_axis',(1.,0.,0.));
#1072=DIRECTION('center_axis',(0.,0.,-1.));
#1073=DIRECTION('ref_axis',(1.,0.,0.));
#1074=DIRECTION('',(0.,0.,-1.));
#1075=DIRECTION('center_axis',(0.,0.,1.));
#1076=DIRECTION('ref_axis',(1.,0.,0.));
#1077=DIRECTION('center_axis',(0.,0.,-1.));
#1078=DIRECTION('ref_axis',(1.,0.,0.));
#1079=DIRECTION('center_axis',(0.,0.,-1.));
#1080=DIRECTION('ref_axis',(1.,0.,0.));
#1081=DIRECTION('',(0.,0.,-1.));
#1082=DIRECTION('center_axis',(0.,0.,1.));
#1083=DIRECTION('ref_axis',(1.,0.,0.));
#1084=DIRECTION('center_axis',(0.,0.,-1.));
#1085=DIRECTION('ref_axis',(1.,0.,0.));
#1086=DIRECTION('center_axis',(0.,0.,-1.));
#1087=DIRECTION('ref_axis',(1.,0.,0.));
#1088=DIRECTION('',(0.,0.,-1.));
#1089=DIRECTION('center_axis',(0.,0.,1.));
#1090=DIRECTION('ref_axis',(1.,0.,0.));
#1091=DIRECTION('center_axis',(0.,0.,1.));
#1092=DIRECTION('ref_axis',(-1.,0.,0.));
#1093=DIRECTION('center_axis',(0.,0.,1.));
#1094=DIRECTION('ref_axis',(-1.,0.,0.));
#1095=DIRECTION('',(0.,0.,-1.));
#1096=DIRECTION('center_axis',(0.,0.,-1.));
#1097=DIRECTION('ref_axis',(-1.,0.,0.));
#1098=DIRECTION('center_axis',(0.,0.,1.));
#1099=DIRECTION('ref_axis',(1.,0.,0.));
#1100=DIRECTION('center_axis',(0.,0.,1.));
#1101=DIRECTION('ref_axis',(1.,0.,0.));
#1102=DIRECTION('',(0.707106781186547,8.65956056235493E-17,-0.707106781186547));
#1103=DIRECTION('center_axis',(0.,0.,-1.));
#1104=DIRECTION('ref_axis',(1.,0.,0.));
#1105=DIRECTION('center_axis',(0.,0.,1.));
#1106=DIRECTION('ref_axis',(1.,0.,0.));
#1107=DIRECTION('center_axis',(0.,0.,1.));
#1108=DIRECTION('ref_axis',(1.,0.,0.));
#1109=DIRECTION('center_axis',(0.,0.,-1.));
#1110=DIRECTION('ref_axis',(0.,1.,0.));
#1111=DIRECTION('center_axis',(0.,0.,-1.));
#1112=DIRECTION('ref_axis',(1.,0.,0.));
#1113=DIRECTION('',(0.,0.,-1.));
#1114=DIRECTION('center_axis',(0.,0.,-1.));
#1115=DIRECTION('ref_axis',(0.,1.,0.));
#1116=DIRECTION('center_axis',(0.,0.,1.));
#1117=DIRECTION('ref_axis',(1.,0.,0.));
#1118=DIRECTION('center_axis',(0.,0.,1.));
#1119=DIRECTION('ref_axis',(1.,0.,0.));
#1120=DIRECTION('center_axis',(0.,0.,-1.));
#1121=DIRECTION('ref_axis',(1.,0.,0.));
#1122=DIRECTION('center_axis',(0.,0.,-1.));
#1123=DIRECTION('ref_axis',(1.,0.,0.));
#1124=DIRECTION('',(0.,0.,-1.));
#1125=DIRECTION('center_axis',(0.,0.,1.));
#1126=DIRECTION('ref_axis',(1.,0.,0.));
#1127=DIRECTION('center_axis',(0.,0.,-1.));
#1128=DIRECTION('ref_axis',(1.,0.,0.));
#1129=DIRECTION('center_axis',(0.,0.,-1.));
#1130=DIRECTION('ref_axis',(1.,0.,0.));
#1131=DIRECTION('',(0.,0.,-1.));
#1132=DIRECTION('center_axis',(0.,0.,1.));
#1133=DIRECTION('ref_axis',(1.,0.,0.));
#1134=DIRECTION('center_axis',(0.,0.,-1.));
#1135=DIRECTION('ref_axis',(1.,0.,0.));
#1136=DIRECTION('center_axis',(0.,0.,-1.));
#1137=DIRECTION('ref_axis',(1.,0.,0.));
#1138=DIRECTION('',(0.,0.,-1.));
#1139=DIRECTION('center_axis',(0.,0.,1.));
#1140=DIRECTION('ref_axis',(1.,0.,0.));
#1141=DIRECTION('center_axis',(0.,0.,-1.));
#1142=DIRECTION('ref_axis',(1.,0.,0.));
#1143=DIRECTION('center_axis',(0.,0.,-1.));
#1144=DIRECTION('ref_axis',(1.,0.,0.));
#1145=DIRECTION('',(0.,0.,-1.));
#1146=DIRECTION('center_axis',(0.,0.,1.));
#1147=DIRECTION('ref_axis',(1.,0.,0.));
#1148=DIRECTION('center_axis',(0.,0.,-1.));
#1149=DIRECTION('ref_axis',(1.,0.,0.));
#1150=DIRECTION('center_axis',(0.,0.,-1.));
#1151=DIRECTION('ref_axis',(1.,0.,0.));
#1152=DIRECTION('',(0.,0.,-1.));
#1153=DIRECTION('center_axis',(0.,0.,1.));
#1154=DIRECTION('ref_axis',(1.,0.,0.));
#1155=DIRECTION('center_axis',(0.,0.,-1.));
#1156=DIRECTION('ref_axis',(1.,0.,0.));
#1157=DIRECTION('center_axis',(0.,0.,-1.));
#1158=DIRECTION('ref_axis',(1.,0.,0.));
#1159=DIRECTION('',(0.,0.,-1.));
#1160=DIRECTION('center_axis',(0.,0.,1.));
#1161=DIRECTION('ref_axis',(1.,0.,0.));
#1162=DIRECTION('center_axis',(0.,0.,-1.));
#1163=DIRECTION('ref_axis',(1.,0.,0.));
#1164=DIRECTION('center_axis',(0.,0.,-1.));
#1165=DIRECTION('ref_axis',(1.,0.,0.));
#1166=DIRECTION('',(0.,0.,-1.));
#1167=DIRECTION('center_axis',(0.,0.,1.));
#1168=DIRECTION('ref_axis',(1.,0.,0.));
#1169=DIRECTION('center_axis',(0.,0.,-1.));
#1170=DIRECTION('ref_axis',(1.,0.,0.));
#1171=DIRECTION('center_axis',(0.,0.,-1.));
#1172=DIRECTION('ref_axis',(1.,0.,0.));
#1173=DIRECTION('',(0.,0.,-1.));
#1174=DIRECTION('center_axis',(0.,0.,1.));
#1175=DIRECTION('ref_axis',(1.,0.,0.));
#1176=DIRECTION('center_axis',(0.,0.,-1.));
#1177=DIRECTION('ref_axis',(1.,0.,0.));
#1178=DIRECTION('center_axis',(0.,0.,-1.));
#1179=DIRECTION('ref_axis',(1.,0.,0.));
#1180=DIRECTION('',(0.,0.,-1.));
#1181=DIRECTION('center_axis',(0.,0.,1.));
#1182=DIRECTION('ref_axis',(1.,0.,0.));
#1183=DIRECTION('center_axis',(0.,0.,-1.));
#1184=DIRECTION('ref_axis',(1.,0.,0.));
#1185=DIRECTION('center_axis',(0.,0.,-1.));
#1186=DIRECTION('ref_axis',(1.,0.,0.));
#1187=DIRECTION('',(0.,0.,-1.));
#1188=DIRECTION('center_axis',(0.,0.,1.));
#1189=DIRECTION('ref_axis',(1.,0.,0.));
#1190=DIRECTION('center_axis',(0.,0.,-1.));
#1191=DIRECTION('ref_axis',(1.,0.,0.));
#1192=DIRECTION('center_axis',(0.,0.,-1.));
#1193=DIRECTION('ref_axis',(1.,0.,0.));
#1194=DIRECTION('',(0.,0.,-1.));
#1195=DIRECTION('center_axis',(0.,0.,1.));
#1196=DIRECTION('ref_axis',(1.,0.,0.));
#1197=DIRECTION('center_axis',(0.,0.,-1.));
#1198=DIRECTION('ref_axis',(1.,0.,0.));
#1199=DIRECTION('center_axis',(0.,0.,-1.));
#1200=DIRECTION('ref_axis',(1.,0.,0.));
#1201=DIRECTION('',(0.,0.,-1.));
#1202=DIRECTION('center_axis',(0.,0.,1.));
#1203=DIRECTION('ref_axis',(1.,0.,0.));
#1204=DIRECTION('center_axis',(0.,0.,-1.));
#1205=DIRECTION('ref_axis',(1.,0.,0.));
#1206=DIRECTION('center_axis',(0.,0.,-1.));
#1207=DIRECTION('ref_axis',(1.,0.,0.));
#1208=DIRECTION('',(0.,0.,-1.));
#1209=DIRECTION('center_axis',(0.,0.,1.));
#1210=DIRECTION('ref_axis',(1.,0.,0.));
#1211=DIRECTION('center_axis',(0.,0.,-1.));
#1212=DIRECTION('ref_axis',(1.,0.,0.));
#1213=DIRECTION('center_axis',(0.,0.,-1.));
#1214=DIRECTION('ref_axis',(1.,0.,0.));
#1215=DIRECTION('',(0.,0.,-1.));
#1216=DIRECTION('center_axis',(0.,0.,1.));
#1217=DIRECTION('ref_axis',(1.,0.,0.));
#1218=DIRECTION('center_axis',(0.,0.,-1.));
#1219=DIRECTION('ref_axis',(1.,0.,0.));
#1220=DIRECTION('center_axis',(0.,0.,-1.));
#1221=DIRECTION('ref_axis',(1.,0.,0.));
#1222=DIRECTION('',(0.,0.,-1.));
#1223=DIRECTION('center_axis',(0.,0.,1.));
#1224=DIRECTION('ref_axis',(1.,0.,0.));
#1225=DIRECTION('center_axis',(0.,0.,-1.));
#1226=DIRECTION('ref_axis',(1.,0.,0.));
#1227=DIRECTION('center_axis',(0.,0.,-1.));
#1228=DIRECTION('ref_axis',(1.,0.,0.));
#1229=DIRECTION('',(0.,0.,-1.));
#1230=DIRECTION('center_axis',(0.,0.,1.));
#1231=DIRECTION('ref_axis',(1.,0.,0.));
#1232=DIRECTION('center_axis',(0.,0.,1.));
#1233=DIRECTION('ref_axis',(1.,0.,0.));
#1234=DIRECTION('center_axis',(0.,0.,1.));
#1235=DIRECTION('ref_axis',(1.,0.,0.));
#1236=DIRECTION('',(0.,0.,-1.));
#1237=DIRECTION('center_axis',(0.,0.,1.));
#1238=DIRECTION('ref_axis',(1.,0.,0.));
#1239=DIRECTION('center_axis',(0.,0.,1.));
#1240=DIRECTION('ref_axis',(1.,0.,0.));
#1241=DIRECTION('center_axis',(0.,0.,1.));
#1242=DIRECTION('ref_axis',(-1.,0.,0.));
#1243=DIRECTION('center_axis',(0.,0.,1.));
#1244=DIRECTION('ref_axis',(-1.,0.,0.));
#1245=DIRECTION('',(0.707106781186548,-8.65956056235493E-17,0.707106781186548));
#1246=DIRECTION('center_axis',(0.,0.,-1.));
#1247=DIRECTION('ref_axis',(-1.,0.,0.));
#1248=DIRECTION('center_axis',(0.,0.,-1.));
#1249=DIRECTION('ref_axis',(-1.,0.,0.));
#1250=DIRECTION('center_axis',(0.,0.,-1.));
#1251=DIRECTION('ref_axis',(-1.,0.,0.));
#1252=DIRECTION('center_axis',(0.,0.,-1.));
#1253=DIRECTION('ref_axis',(-1.,0.,0.));
#1254=DIRECTION('center_axis',(0.,0.,1.));
#1255=DIRECTION('ref_axis',(-1.,0.,0.));
#1256=DIRECTION('',(0.,0.,1.));
#1257=DIRECTION('center_axis',(0.,0.,1.));
#1258=DIRECTION('ref_axis',(-1.,0.,0.));
#1259=DIRECTION('center_axis',(0.,0.,-1.));
#1260=DIRECTION('ref_axis',(-1.,0.,0.));
#1261=DIRECTION('center_axis',(0.,0.,-1.));
#1262=DIRECTION('ref_axis',(-1.,0.,0.));
#1263=DIRECTION('',(0.,0.,1.));
#1264=DIRECTION('center_axis',(0.,0.,-1.));
#1265=DIRECTION('ref_axis',(-1.,0.,0.));
#1266=DIRECTION('center_axis',(0.,0.,-1.));
#1267=DIRECTION('ref_axis',(-1.,0.,0.));
#1268=DIRECTION('center_axis',(0.,0.,-1.));
#1269=DIRECTION('ref_axis',(-1.,0.,0.));
#1270=DIRECTION('center_axis',(0.,0.,1.));
#1271=DIRECTION('ref_axis',(1.,0.,0.));
#1272=DIRECTION('center_axis',(0.,0.,-1.));
#1273=DIRECTION('ref_axis',(1.,0.,0.));
#1274=DIRECTION('center_axis',(0.,0.,-1.));
#1275=DIRECTION('ref_axis',(1.,0.,0.));
#1276=DIRECTION('center_axis',(0.,0.,1.));
#1277=DIRECTION('ref_axis',(0.,1.,0.));
#1278=DIRECTION('center_axis',(0.,0.,-1.));
#1279=DIRECTION('ref_axis',(1.,0.,0.));
#1280=DIRECTION('',(-8.68654435645199E-17,-0.70931017518683,0.704896499761794));
#1281=DIRECTION('center_axis',(0.,0.,-1.));
#1282=DIRECTION('ref_axis',(0.,1.,0.));
#1283=DIRECTION('',(0.,0.,1.));
#1284=DIRECTION('center_axis',(0.,0.,-1.));
#1285=DIRECTION('ref_axis',(1.,0.,0.));
#1286=DIRECTION('center_axis',(0.,0.,-1.));
#1287=DIRECTION('ref_axis',(1.,0.,0.));
#1288=DIRECTION('',(0.,0.,-1.));
#1289=DIRECTION('center_axis',(0.,0.,1.));
#1290=DIRECTION('ref_axis',(1.,0.,0.));
#1291=DIRECTION('center_axis',(0.,0.,-1.));
#1292=DIRECTION('ref_axis',(1.,0.,0.));
#1293=DIRECTION('center_axis',(0.,0.,-1.));
#1294=DIRECTION('ref_axis',(1.,0.,0.));
#1295=DIRECTION('',(0.,0.,-1.));
#1296=DIRECTION('center_axis',(0.,0.,1.));
#1297=DIRECTION('ref_axis',(1.,0.,0.));
#1298=DIRECTION('center_axis',(0.,0.,-1.));
#1299=DIRECTION('ref_axis',(1.,0.,0.));
#1300=DIRECTION('center_axis',(0.,0.,-1.));
#1301=DIRECTION('ref_axis',(1.,0.,0.));
#1302=DIRECTION('',(0.,0.,-1.));
#1303=DIRECTION('center_axis',(0.,0.,1.));
#1304=DIRECTION('ref_axis',(1.,0.,0.));
#1305=DIRECTION('center_axis',(0.,0.,-1.));
#1306=DIRECTION('ref_axis',(1.,0.,0.));
#1307=DIRECTION('center_axis',(0.,0.,1.));
#1308=DIRECTION('ref_axis',(1.,0.,0.));
#1309=DIRECTION('',(0.,0.,1.));
#1310=DIRECTION('center_axis',(0.,0.,-1.));
#1311=DIRECTION('ref_axis',(1.,0.,0.));
#1312=DIRECTION('center_axis',(0.,0.,-1.));
#1313=DIRECTION('ref_axis',(1.,0.,0.));
#1314=DIRECTION('center_axis',(0.,0.,-1.));
#1315=DIRECTION('ref_axis',(1.,0.,0.));
#1316=DIRECTION('',(0.,0.,1.));
#1317=DIRECTION('center_axis',(0.,0.,1.));
#1318=DIRECTION('ref_axis',(1.,0.,0.));
#1319=DIRECTION('center_axis',(0.,0.,1.));
#1320=DIRECTION('ref_axis',(1.,0.,0.));
#1321=DIRECTION('center_axis',(0.,0.,1.));
#1322=DIRECTION('ref_axis',(1.,0.,0.));
#1323=DIRECTION('center_axis',(0.,0.,-1.));
#1324=DIRECTION('ref_axis',(-1.,0.,0.));
#1325=DIRECTION('center_axis',(0.,0.,-1.));
#1326=DIRECTION('ref_axis',(1.,0.,0.));
#1327=DIRECTION('center_axis',(0.,0.,-1.));
#1328=DIRECTION('ref_axis',(1.,0.,0.));
#1329=DIRECTION('center_axis',(0.,0.,-1.));
#1330=DIRECTION('ref_axis',(0.,1.,0.));
#1331=DIRECTION('',(0.,0.,1.));
#1332=DIRECTION('center_axis',(0.,0.,-1.));
#1333=DIRECTION('ref_axis',(1.,0.,0.));
#1334=DIRECTION('center_axis',(0.,0.,1.));
#1335=DIRECTION('ref_axis',(1.,0.,0.));
#1336=DIRECTION('center_axis',(0.,0.,-1.));
#1337=DIRECTION('ref_axis',(1.,0.,0.));
#1338=DIRECTION('center_axis',(0.,0.,-1.));
#1339=DIRECTION('ref_axis',(0.,1.,0.));
#1340=DIRECTION('',(0.,0.,1.));
#1341=CARTESIAN_POINT('',(0.,0.,0.));
#1342=CARTESIAN_POINT('Origin',(0.,0.,0.));
#1343=CARTESIAN_POINT('',(-15.,-1.83697019872103E-15,-80.));
#1344=CARTESIAN_POINT('Origin',(0.,0.,-80.));
#1345=CARTESIAN_POINT('',(-15.,-1.83697019872103E-15,0.));
#1346=CARTESIAN_POINT('',(-15.,1.83697019872103E-15,0.));
#1347=CARTESIAN_POINT('Origin',(0.,0.,0.));
#1348=CARTESIAN_POINT('Origin',(0.,0.,0.));
#1349=CARTESIAN_POINT('',(-20.,-2.44929359829471E-15,-80.));
#1350=CARTESIAN_POINT('Origin',(0.,0.,-80.));
#1351=CARTESIAN_POINT('',(-20.,-2.44929359829471E-15,0.));
#1352=CARTESIAN_POINT('',(-20.,2.44929359829471E-15,0.));
#1353=CARTESIAN_POINT('Origin',(0.,0.,0.));
#1354=CARTESIAN_POINT('Origin',(0.,0.,0.));
#1355=CARTESIAN_POINT('Origin',(0.,0.,-80.));
#1356=CARTESIAN_POINT('Origin',(3.10862446895044E-14,69.,35.));
#1357=CARTESIAN_POINT('',(-8.49999999999997,69.,20.));
#1358=CARTESIAN_POINT('Origin',(3.10862446895044E-14,69.,20.));
#1359=CARTESIAN_POINT('',(-8.49999999999997,69.,0.));
#1360=CARTESIAN_POINT('',(-8.49999999999997,69.,35.));
#1361=CARTESIAN_POINT('Origin',(3.10862446895044E-14,69.,0.));
#1362=CARTESIAN_POINT('Origin',(59.7557528611263,-34.5,35.));
#1363=CARTESIAN_POINT('',(51.2557528611263,-34.5,20.));
#1364=CARTESIAN_POINT('Origin',(59.7557528611263,-34.5,20.));
#1365=CARTESIAN_POINT('',(51.2557528611263,-34.5,0.));
#1366=CARTESIAN_POINT('',(51.2557528611263,-34.5,35.));
#1367=CARTESIAN_POINT('Origin',(59.7557528611263,-34.5,0.));
#1368=CARTESIAN_POINT('Origin',(-59.7557528611263,-34.5,35.));
#1369=CARTESIAN_POINT('',(-68.2557528611263,-34.5,20.));
#1370=CARTESIAN_POINT('Origin',(-59.7557528611263,-34.5,20.));
#1371=CARTESIAN_POINT('',(-68.2557528611263,-34.5,0.));
#1372=CARTESIAN_POINT('',(-68.2557528611263,-34.5,35.));
#1373=CARTESIAN_POINT('Origin',(-59.7557528611263,-34.5,0.));
#1374=CARTESIAN_POINT('Origin',(0.,0.,0.));
#1375=CARTESIAN_POINT('',(79.,-9.67470971326409E-15,20.));
#1376=CARTESIAN_POINT('Origin',(0.,0.,20.));
#1377=CARTESIAN_POINT('',(79.,-9.67470971326409E-15,0.));
#1378=CARTESIAN_POINT('',(79.,9.67470971326409E-15,0.));
#1379=CARTESIAN_POINT('Origin',(0.,0.,0.));
#1380=CARTESIAN_POINT('Origin',(0.,0.,10.));
#1381=CARTESIAN_POINT('',(-40.,-4.89858719658941E-15,20.));
#1382=CARTESIAN_POINT('Origin',(0.,0.,20.));
#1383=CARTESIAN_POINT('',(-20.,-2.44929359829471E-15,0.));
#1384=CARTESIAN_POINT('',(-30.,-3.67394039744206E-15,10.));
#1385=CARTESIAN_POINT('Origin',(0.,0.,0.));
#1386=CARTESIAN_POINT('Origin',(0.,0.,20.));
#1387=CARTESIAN_POINT('Origin',(0.,0.,0.));
#1388=CARTESIAN_POINT('Origin',(0.,0.,21.6756332708256));
#1389=CARTESIAN_POINT('',(-4.89858726958405E-15,-40.0000005960464,23.3512665416512));
#1390=CARTESIAN_POINT('Origin',(0.,0.,23.3512665416512));
#1391=CARTESIAN_POINT('',(-4.89858726958405E-15,-40.0000005960464,20.));
#1392=CARTESIAN_POINT('',(-4.89858726958405E-15,-40.0000005960464,21.6756332708256));
#1393=CARTESIAN_POINT('Origin',(0.,0.,20.));
#1394=CARTESIAN_POINT('Origin',(0.,50.,23.3512665416512));
#1395=CARTESIAN_POINT('',(-50.,-6.12323399573677E-15,23.3512665416512));
#1396=CARTESIAN_POINT('Origin',(0.,0.,23.3512665416512));
#1397=CARTESIAN_POINT('Origin',(-7.7715611723761E-15,-35.,35.));
#1398=CARTESIAN_POINT('',(-1.50000000000001,-35.,35.));
#1399=CARTESIAN_POINT('Origin',(-7.7715611723761E-15,-35.,35.));
#1400=CARTESIAN_POINT('',(-1.50000000000001,-35.,20.));
#1401=CARTESIAN_POINT('',(-1.50000000000001,-35.,35.));
#1402=CARTESIAN_POINT('Origin',(-7.7715611723761E-15,-35.,20.));
#1403=CARTESIAN_POINT('Origin',(35.,0.,35.));
#1404=CARTESIAN_POINT('',(33.5,-1.83697019872103E-16,35.));
#1405=CARTESIAN_POINT('Origin',(35.,0.,35.));
#1406=CARTESIAN_POINT('',(33.5,-1.83697019872103E-16,20.));
#1407=CARTESIAN_POINT('',(33.5,1.83697019872103E-16,35.));
#1408=CARTESIAN_POINT('Origin',(35.,0.,20.));
#1409=CARTESIAN_POINT('Origin',(-7.7715611723761E-15,35.,35.));
#1410=CARTESIAN_POINT('',(-1.50000000000001,35.,35.));
#1411=CARTESIAN_POINT('Origin',(-7.7715611723761E-15,35.,35.));
#1412=CARTESIAN_POINT('',(-1.50000000000001,35.,20.));
#1413=CARTESIAN_POINT('',(-1.50000000000001,35.,35.));
#1414=CARTESIAN_POINT('Origin',(-7.7715611723761E-15,35.,20.));
#1415=CARTESIAN_POINT('Origin',(-35.,4.28626379701574E-15,35.));
#1416=CARTESIAN_POINT('',(-36.5,4.10256677714363E-15,35.));
#1417=CARTESIAN_POINT('Origin',(-35.,4.28626379701574E-15,35.));
#1418=CARTESIAN_POINT('',(-36.5,4.10256677714363E-15,20.));
#1419=CARTESIAN_POINT('',(-36.5,4.46996081688784E-15,35.));
#1420=CARTESIAN_POINT('Origin',(-35.,4.28626379701574E-15,20.));
#1421=CARTESIAN_POINT('Origin',(-32.335783637895,13.3939201327781,35.));
#1422=CARTESIAN_POINT('',(-33.835783637895,13.3939201327781,35.));
#1423=CARTESIAN_POINT('Origin',(-32.335783637895,13.3939201327781,35.));
#1424=CARTESIAN_POINT('',(-33.835783637895,13.3939201327781,20.));
#1425=CARTESIAN_POINT('',(-33.835783637895,13.3939201327781,35.));
#1426=CARTESIAN_POINT('Origin',(-32.335783637895,13.3939201327781,20.));
#1427=CARTESIAN_POINT('Origin',(13.3939201327781,32.335783637895,35.));
#1428=CARTESIAN_POINT('',(11.8939201327781,32.335783637895,35.));
#1429=CARTESIAN_POINT('Origin',(13.3939201327781,32.335783637895,35.));
#1430=CARTESIAN_POINT('',(11.8939201327781,32.335783637895,20.));
#1431=CARTESIAN_POINT('',(11.8939201327781,32.335783637895,35.));
#1432=CARTESIAN_POINT('Origin',(13.3939201327781,32.335783637895,20.));
#1433=CARTESIAN_POINT('Origin',(32.335783637895,-13.3939201327782,35.));
#1434=CARTESIAN_POINT('',(30.835783637895,-13.3939201327782,35.));
#1435=CARTESIAN_POINT('Origin',(32.335783637895,-13.3939201327782,35.));
#1436=CARTESIAN_POINT('',(30.835783637895,-13.3939201327782,20.));
#1437=CARTESIAN_POINT('',(30.835783637895,-13.3939201327782,35.));
#1438=CARTESIAN_POINT('Origin',(32.335783637895,-13.3939201327782,20.));
#1439=CARTESIAN_POINT('Origin',(-13.3939201327782,-32.335783637895,35.));
#1440=CARTESIAN_POINT('',(-14.8939201327782,-32.335783637895,35.));
#1441=CARTESIAN_POINT('Origin',(-13.3939201327782,-32.335783637895,35.));
#1442=CARTESIAN_POINT('',(-14.8939201327782,-32.335783637895,20.));
#1443=CARTESIAN_POINT('',(-14.8939201327782,-32.335783637895,35.));
#1444=CARTESIAN_POINT('Origin',(-13.3939201327782,-32.335783637895,20.));
#1445=CARTESIAN_POINT('Origin',(13.3939201327781,-32.335783637895,35.));
#1446=CARTESIAN_POINT('',(11.8939201327781,-32.335783637895,35.));
#1447=CARTESIAN_POINT('Origin',(13.3939201327781,-32.335783637895,35.));
#1448=CARTESIAN_POINT('',(11.8939201327781,-32.335783637895,20.));
#1449=CARTESIAN_POINT('',(11.8939201327781,-32.335783637895,35.));
#1450=CARTESIAN_POINT('Origin',(13.3939201327781,-32.335783637895,20.));
#1451=CARTESIAN_POINT('Origin',(32.335783637895,13.3939201327781,35.));
#1452=CARTESIAN_POINT('',(30.835783637895,13.3939201327781,35.));
#1453=CARTESIAN_POINT('Origin',(32.335783637895,13.3939201327781,35.));
#1454=CARTESIAN_POINT('',(30.835783637895,13.3939201327781,20.));
#1455=CARTESIAN_POINT('',(30.835783637895,13.3939201327781,35.));
#1456=CARTESIAN_POINT('Origin',(32.335783637895,13.3939201327781,20.));
#1457=CARTESIAN_POINT('Origin',(-13.3939201327781,32.335783637895,35.));
#1458=CARTESIAN_POINT('',(-14.8939201327781,32.335783637895,35.));
#1459=CARTESIAN_POINT('Origin',(-13.3939201327781,32.335783637895,35.));
#1460=CARTESIAN_POINT('',(-14.8939201327781,32.335783637895,20.));
#1461=CARTESIAN_POINT('',(-14.8939201327781,32.335783637895,35.));
#1462=CARTESIAN_POINT('Origin',(-13.3939201327781,32.335783637895,20.));
#1463=CARTESIAN_POINT('Origin',(-32.335783637895,-13.3939201327781,35.));
#1464=CARTESIAN_POINT('',(-33.835783637895,-13.3939201327781,35.));
#1465=CARTESIAN_POINT('Origin',(-32.335783637895,-13.3939201327781,35.));
#1466=CARTESIAN_POINT('',(-33.835783637895,-13.3939201327781,20.));
#1467=CARTESIAN_POINT('',(-33.835783637895,-13.3939201327781,35.));
#1468=CARTESIAN_POINT('Origin',(-32.335783637895,-13.3939201327781,20.));
#1469=CARTESIAN_POINT('Origin',(-24.7487373415292,24.7487373415292,35.));
#1470=CARTESIAN_POINT('',(-26.2487373415292,24.7487373415292,35.));
#1471=CARTESIAN_POINT('Origin',(-24.7487373415292,24.7487373415292,35.));
#1472=CARTESIAN_POINT('',(-26.2487373415292,24.7487373415292,20.));
#1473=CARTESIAN_POINT('',(-26.2487373415292,24.7487373415292,35.));
#1474=CARTESIAN_POINT('Origin',(-24.7487373415292,24.7487373415292,20.));
#1475=CARTESIAN_POINT('Origin',(24.7487373415292,24.7487373415292,35.));
#1476=CARTESIAN_POINT('',(23.2487373415292,24.7487373415292,35.));
#1477=CARTESIAN_POINT('Origin',(24.7487373415292,24.7487373415292,35.));
#1478=CARTESIAN_POINT('',(23.2487373415292,24.7487373415292,20.));
#1479=CARTESIAN_POINT('',(23.2487373415292,24.7487373415292,35.));
#1480=CARTESIAN_POINT('Origin',(24.7487373415292,24.7487373415292,20.));
#1481=CARTESIAN_POINT('Origin',(24.7487373415292,-24.7487373415292,35.));
#1482=CARTESIAN_POINT('',(23.2487373415292,-24.7487373415292,35.));
#1483=CARTESIAN_POINT('Origin',(24.7487373415292,-24.7487373415292,35.));
#1484=CARTESIAN_POINT('',(23.2487373415292,-24.7487373415292,20.));
#1485=CARTESIAN_POINT('',(23.2487373415292,-24.7487373415292,35.));
#1486=CARTESIAN_POINT('Origin',(24.7487373415292,-24.7487373415292,20.));
#1487=CARTESIAN_POINT('Origin',(-24.7487373415292,-24.7487373415292,35.));
#1488=CARTESIAN_POINT('',(-26.2487373415292,-24.7487373415292,35.));
#1489=CARTESIAN_POINT('Origin',(-24.7487373415292,-24.7487373415292,35.));
#1490=CARTESIAN_POINT('',(-26.2487373415292,-24.7487373415292,20.));
#1491=CARTESIAN_POINT('',(-26.2487373415292,-24.7487373415292,35.));
#1492=CARTESIAN_POINT('Origin',(-24.7487373415292,-24.7487373415292,20.));
#1493=CARTESIAN_POINT('Origin',(0.,0.,20.));
#1494=CARTESIAN_POINT('',(-50.,-6.12323399573677E-15,35.));
#1495=CARTESIAN_POINT('Origin',(0.,0.,35.));
#1496=CARTESIAN_POINT('',(-50.,-6.12323399573677E-15,20.));
#1497=CARTESIAN_POINT('Origin',(0.,0.,35.));
#1498=CARTESIAN_POINT('Origin',(0.,0.,20.));
#1499=CARTESIAN_POINT('Origin',(0.,0.,10.));
#1500=CARTESIAN_POINT('',(12.5,1.53080849893419E-15,0.));
#1501=CARTESIAN_POINT('Origin',(0.,0.,0.));
#1502=CARTESIAN_POINT('',(32.5,-3.9801020972289E-15,20.));
#1503=CARTESIAN_POINT('',(22.5,-2.75545529808154E-15,10.));
#1504=CARTESIAN_POINT('Origin',(0.,0.,20.));
#1505=CARTESIAN_POINT('Origin',(0.,0.,0.));
#1506=CARTESIAN_POINT('Origin',(0.,0.,20.));
#1507=CARTESIAN_POINT('Origin',(0.,0.,0.));
#1508=CARTESIAN_POINT('',(20.,-2.44929359829471E-15,-10.));
#1509=CARTESIAN_POINT('Origin',(0.,0.,-10.));
#1510=CARTESIAN_POINT('',(20.,-2.44929359829471E-15,0.));
#1511=CARTESIAN_POINT('',(20.,-2.44929359829471E-15,0.));
#1512=CARTESIAN_POINT('Origin',(0.,0.,0.));
#1513=CARTESIAN_POINT('Origin',(0.,0.,0.));
#1514=CARTESIAN_POINT('',(22.5,-2.75545529808154E-15,-10.));
#1515=CARTESIAN_POINT('Origin',(0.,0.,-10.));
#1516=CARTESIAN_POINT('',(22.5,-2.75545529808154E-15,0.));
#1517=CARTESIAN_POINT('',(22.5,-2.75545529808154E-15,0.));
#1518=CARTESIAN_POINT('Origin',(0.,0.,0.));
#1519=CARTESIAN_POINT('Origin',(0.,0.,-10.));
#1520=CARTESIAN_POINT('Origin',(0.,0.,0.));
#1521=CARTESIAN_POINT('Origin',(0.,40.0000005960464,20.0000002980232));
#1522=CARTESIAN_POINT('',(-4.89858726958405E-15,-40.0000005960464,20.0000002980232));
#1523=CARTESIAN_POINT('Origin',(0.,0.,20.0000002980232));
#1524=CARTESIAN_POINT('',(-4.48519799317347E-15,-36.6244209864937,20.0000002980232));
#1525=CARTESIAN_POINT('Origin',(0.,0.,20.0000002980232));
#1526=CARTESIAN_POINT('Origin',(0.,0.,18.3227127483174));
#1527=CARTESIAN_POINT('',(-4.48519799317347E-15,-36.6244209864937,16.6454251986116));
#1528=CARTESIAN_POINT('Origin',(0.,0.,16.6454251986116));
#1529=CARTESIAN_POINT('',(-4.69189263137876E-15,-38.3122107912701,18.3227127483174));
#1530=CARTESIAN_POINT('Origin',(0.,0.,18.3227127483174));
#1531=CARTESIAN_POINT('',(-4.48519799317347E-15,-36.6244209864937,18.3227127483174));
#1532=CARTESIAN_POINT('Origin',(3.10862446895044E-14,69.,35.));
#1533=CARTESIAN_POINT('',(-8.49999999999997,69.,35.));
#1534=CARTESIAN_POINT('Origin',(3.10862446895044E-14,69.,35.));
#1535=CARTESIAN_POINT('',(-8.49999999999997,69.,20.));
#1536=CARTESIAN_POINT('',(-8.49999999999997,69.,35.));
#1537=CARTESIAN_POINT('Origin',(3.10862446895044E-14,69.,20.));
#1538=CARTESIAN_POINT('Origin',(59.7557528611263,-34.5,35.));
#1539=CARTESIAN_POINT('',(51.2557528611263,-34.5,35.));
#1540=CARTESIAN_POINT('Origin',(59.7557528611263,-34.5,35.));
#1541=CARTESIAN_POINT('',(51.2557528611263,-34.5,20.));
#1542=CARTESIAN_POINT('',(51.2557528611263,-34.5,35.));
#1543=CARTESIAN_POINT('Origin',(59.7557528611263,-34.5,20.));
#1544=CARTESIAN_POINT('Origin',(-59.7557528611263,-34.5,35.));
#1545=CARTESIAN_POINT('',(-68.2557528611263,-34.5,35.));
#1546=CARTESIAN_POINT('Origin',(-59.7557528611263,-34.5,35.));
#1547=CARTESIAN_POINT('',(-68.2557528611263,-34.5,20.));
#1548=CARTESIAN_POINT('',(-68.2557528611263,-34.5,35.));
#1549=CARTESIAN_POINT('Origin',(-59.7557528611263,-34.5,20.));
#1550=CARTESIAN_POINT('Origin',(0.,0.,35.));
#1551=CARTESIAN_POINT('',(-50.,-6.12323399573677E-15,20.));
#1552=CARTESIAN_POINT('Origin',(0.,0.,20.));
#1553=CARTESIAN_POINT('',(-50.,-6.12323399573677E-15,35.));
#1554=CARTESIAN_POINT('',(-50.,6.12323399573677E-15,35.));
#1555=CARTESIAN_POINT('Origin',(0.,0.,35.));
#1556=CARTESIAN_POINT('Origin',(0.,0.,35.));
#1557=CARTESIAN_POINT('',(-79.,-9.67470971326409E-15,20.));
#1558=CARTESIAN_POINT('Origin',(0.,0.,20.));
#1559=CARTESIAN_POINT('',(-79.,-9.67470971326409E-15,35.));
#1560=CARTESIAN_POINT('',(-79.,9.67470971326409E-15,35.));
#1561=CARTESIAN_POINT('Origin',(0.,0.,35.));
#1562=CARTESIAN_POINT('Origin',(0.,0.,35.));
#1563=CARTESIAN_POINT('Origin',(0.,0.,20.));
#1564=CARTESIAN_POINT('Origin',(0.,40.0000005960464,20.));
#1565=CARTESIAN_POINT('',(-6.12323399573677E-15,-50.,20.));
#1566=CARTESIAN_POINT('Origin',(0.,0.,20.));
#1567=CARTESIAN_POINT('',(-4.89858726958405E-15,-40.0000005960464,20.));
#1568=CARTESIAN_POINT('Origin',(0.,0.,20.));
#1569=CARTESIAN_POINT('Origin',(0.,0.,21.6756332708256));
#1570=CARTESIAN_POINT('',(-4.89858726958405E-15,-40.0000005960464,23.3512665416512));
#1571=CARTESIAN_POINT('',(-4.89858726958405E-15,-40.0000005960464,21.6756332708256));
#1572=CARTESIAN_POINT('Origin',(0.,0.,23.3512665416512));
#1573=CARTESIAN_POINT('Origin',(0.,50.,23.3512665416512));
#1574=CARTESIAN_POINT('',(-6.12323399573677E-15,-50.,23.3512665416512));
#1575=CARTESIAN_POINT('Origin',(0.,0.,23.3512665416512));
#1576=CARTESIAN_POINT('Origin',(0.,0.,21.6756332708256));
#1577=CARTESIAN_POINT('',(-6.12323399573677E-15,-50.,21.6756332708256));
#1578=UNCERTAINTY_MEASURE_WITH_UNIT(LENGTH_MEASURE(0.01),#1582,
'DISTANCE_ACCURACY_VALUE',
'Maximum model space distance between geometric entities at asserted c
onnectivities');
#1579=UNCERTAINTY_MEASURE_WITH_UNIT(LENGTH_MEASURE(0.01),#1582,
'DISTANCE_ACCURACY_VALUE',
'Maximum model space distance between geometric entities at asserted c
onnectivities');
#1580=(
GEOMETRIC_REPRESENTATION_CONTEXT(3)
GLOBAL_UNCERTAINTY_ASSIGNED_CONTEXT((#1578))
GLOBAL_UNIT_ASSIGNED_CONTEXT((#1582,#1584,#1585))
REPRESENTATION_CONTEXT('','3D')
);
#1581=(
GEOMETRIC_REPRESENTATION_CONTEXT(3)
GLOBAL_UNCERTAINTY_ASSIGNED_CONTEXT((#1579))
GLOBAL_UNIT_ASSIGNED_CONTEXT((#1582,#1584,#1585))
REPRESENTATION_CONTEXT('','3D')
);
#1582=(
LENGTH_UNIT()
NAMED_UNIT(*)
SI_UNIT(.MILLI.,.METRE.)
);
#1583=(
LENGTH_UNIT()
NAMED_UNIT(*)
SI_UNIT($,.METRE.)
);
#1584=(
NAMED_UNIT(*)
PLANE_ANGLE_UNIT()
SI_UNIT($,.RADIAN.)
);
#1585=(
NAMED_UNIT(*)
SI_UNIT($,.STERADIAN.)
SOLID_ANGLE_UNIT()
);
#1586=SHAPE_DEFINITION_REPRESENTATION(#1587,#1588);
#1587=PRODUCT_DEFINITION_SHAPE('',$,#1590);
#1588=SHAPE_REPRESENTATION('',(#923),#1580);
#1589=PRODUCT_DEFINITION_CONTEXT('part definition',#1594,'design');
#1590=PRODUCT_DEFINITION('init','init v9',#1591,#1589);
#1591=PRODUCT_DEFINITION_FORMATION('',$,#1596);
#1592=PRODUCT_RELATED_PRODUCT_CATEGORY('init v9','init v9',(#1596));
#1593=APPLICATION_PROTOCOL_DEFINITION('international standard',
'automotive_design',2009,#1594);
#1594=APPLICATION_CONTEXT(
'Core Data for Automotive Mechanical Design Process');
#1595=PRODUCT_CONTEXT('part definition',#1594,'mechanical');
#1596=PRODUCT('init','init v9',$,(#1595));
#1597=PRESENTATION_STYLE_ASSIGNMENT((#1598));
#1598=SURFACE_STYLE_USAGE(.BOTH.,#1599);
#1599=SURFACE_SIDE_STYLE('',(#1600));
#1600=SURFACE_STYLE_FILL_AREA(#1601);
#1601=FILL_AREA_STYLE('Steel - Satin',(#1602));
#1602=FILL_AREA_STYLE_COLOUR('Steel - Satin',#1603);
#1603=COLOUR_RGB('Steel - Satin',0.627450980392157,0.627450980392157,0.627450980392157);
ENDSEC;
END-ISO-10303-21;
