ISO-10303-21;
HEADER;
/* Generated by software containing ST-Developer
 * from STEP Tools, Inc. (www.steptools.com) 
 */

FILE_DESCRIPTION(
/* description */ (''),
/* implementation_level */ '2;1');

FILE_NAME(
/* name */ 'final design SIMPLEST v2.step',
/* time_stamp */ '2026-03-14T09:21:30+01:00',
/* author */ (''),
/* organization */ (''),
/* preprocessor_version */ 'ST-DEVELOPER v20.1',
/* originating_system */ 'Autodesk Translation Framework v14.24.0.0',
/* authorisation */ '');

FILE_SCHEMA (('AUTOMOTIVE_DESIGN { 1 0 10303 214 3 1 1 }'));
ENDSEC;

DATA;
#10=MECHANICAL_DESIGN_GEOMETRIC_PRESENTATION_REPRESENTATION('',(#21,#22),
#2046);
#11=ITEM_DEFINED_TRANSFORMATION($,$,#1206,#1328);
#12=ITEM_DEFINED_TRANSFORMATION($,$,#1206,#1329);
#13=(
REPRESENTATION_RELATIONSHIP($,$,#2058,#2057)
REPRESENTATION_RELATIONSHIP_WITH_TRANSFORMATION(#11)
SHAPE_REPRESENTATION_RELATIONSHIP()
);
#14=(
REPRESENTATION_RELATIONSHIP($,$,#2058,#2057)
REPRESENTATION_RELATIONSHIP_WITH_TRANSFORMATION(#12)
SHAPE_REPRESENTATION_RELATIONSHIP()
);
#15=CONTEXT_DEPENDENT_SHAPE_REPRESENTATION(#13,#2055);
#16=CONTEXT_DEPENDENT_SHAPE_REPRESENTATION(#14,#2056);
#17=NEXT_ASSEMBLY_USAGE_OCCURRENCE('Component1:1','Component1:1',
'Component1:1',#2060,#2061,'Component1:1');
#18=NEXT_ASSEMBLY_USAGE_OCCURRENCE('Component1:3','Component1:3',
'Component1:3',#2060,#2061,'Component1:3');
#19=SHAPE_REPRESENTATION_RELATIONSHIP('SRR','None',#2058,#20);
#20=ADVANCED_BREP_SHAPE_REPRESENTATION('',(#23,#24),#2045);
#21=STYLED_ITEM('',(#2072),#23);
#22=STYLED_ITEM('',(#2072),#24);
#23=MANIFOLD_SOLID_BREP('Body1',#1191);
#24=MANIFOLD_SOLID_BREP('Body2',#1192);
#25=FACE_BOUND('',#135,.T.);
#26=FACE_BOUND('',#160,.T.);
#27=FACE_BOUND('',#162,.T.);
#28=FACE_BOUND('',#175,.T.);
#29=FACE_BOUND('',#201,.T.);
#30=PLANE('',#1210);
#31=PLANE('',#1211);
#32=PLANE('',#1221);
#33=PLANE('',#1224);
#34=PLANE('',#1227);
#35=PLANE('',#1228);
#36=PLANE('',#1233);
#37=PLANE('',#1237);
#38=PLANE('',#1241);
#39=PLANE('',#1244);
#40=PLANE('',#1247);
#41=PLANE('',#1250);
#42=PLANE('',#1256);
#43=PLANE('',#1260);
#44=PLANE('',#1261);
#45=PLANE('',#1262);
#46=PLANE('',#1263);
#47=PLANE('',#1266);
#48=PLANE('',#1269);
#49=PLANE('',#1272);
#50=PLANE('',#1275);
#51=PLANE('',#1279);
#52=PLANE('',#1280);
#53=PLANE('',#1290);
#54=PLANE('',#1293);
#55=PLANE('',#1296);
#56=PLANE('',#1300);
#57=PLANE('',#1304);
#58=PLANE('',#1308);
#59=PLANE('',#1312);
#60=PLANE('',#1313);
#61=PLANE('',#1316);
#62=PLANE('',#1319);
#63=PLANE('',#1322);
#64=PLANE('',#1325);
#65=PLANE('',#1326);
#66=PLANE('',#1327);
#67=FACE_OUTER_BOUND('',#132,.T.);
#68=FACE_OUTER_BOUND('',#133,.T.);
#69=FACE_OUTER_BOUND('',#134,.T.);
#70=FACE_OUTER_BOUND('',#136,.T.);
#71=FACE_OUTER_BOUND('',#137,.T.);
#72=FACE_OUTER_BOUND('',#138,.T.);
#73=FACE_OUTER_BOUND('',#139,.T.);
#74=FACE_OUTER_BOUND('',#140,.T.);
#75=FACE_OUTER_BOUND('',#141,.T.);
#76=FACE_OUTER_BOUND('',#142,.T.);
#77=FACE_OUTER_BOUND('',#143,.T.);
#78=FACE_OUTER_BOUND('',#144,.T.);
#79=FACE_OUTER_BOUND('',#145,.T.);
#80=FACE_OUTER_BOUND('',#146,.T.);
#81=FACE_OUTER_BOUND('',#147,.T.);
#82=FACE_OUTER_BOUND('',#148,.T.);
#83=FACE_OUTER_BOUND('',#149,.T.);
#84=FACE_OUTER_BOUND('',#150,.T.);
#85=FACE_OUTER_BOUND('',#151,.T.);
#86=FACE_OUTER_BOUND('',#152,.T.);
#87=FACE_OUTER_BOUND('',#153,.T.);
#88=FACE_OUTER_BOUND('',#154,.T.);
#89=FACE_OUTER_BOUND('',#155,.T.);
#90=FACE_OUTER_BOUND('',#156,.T.);
#91=FACE_OUTER_BOUND('',#157,.T.);
#92=FACE_OUTER_BOUND('',#158,.T.);
#93=FACE_OUTER_BOUND('',#159,.T.);
#94=FACE_OUTER_BOUND('',#161,.T.);
#95=FACE_OUTER_BOUND('',#163,.T.);
#96=FACE_OUTER_BOUND('',#164,.T.);
#97=FACE_OUTER_BOUND('',#165,.T.);
#98=FACE_OUTER_BOUND('',#166,.T.);
#99=FACE_OUTER_BOUND('',#167,.T.);
#100=FACE_OUTER_BOUND('',#168,.T.);
#101=FACE_OUTER_BOUND('',#169,.T.);
#102=FACE_OUTER_BOUND('',#170,.T.);
#103=FACE_OUTER_BOUND('',#171,.T.);
#104=FACE_OUTER_BOUND('',#172,.T.);
#105=FACE_OUTER_BOUND('',#173,.T.);
#106=FACE_OUTER_BOUND('',#174,.T.);
#107=FACE_OUTER_BOUND('',#176,.T.);
#108=FACE_OUTER_BOUND('',#177,.T.);
#109=FACE_OUTER_BOUND('',#178,.T.);
#110=FACE_OUTER_BOUND('',#179,.T.);
#111=FACE_OUTER_BOUND('',#180,.T.);
#112=FACE_OUTER_BOUND('',#181,.T.);
#113=FACE_OUTER_BOUND('',#182,.T.);
#114=FACE_OUTER_BOUND('',#183,.T.);
#115=FACE_OUTER_BOUND('',#184,.T.);
#116=FACE_OUTER_BOUND('',#185,.T.);
#117=FACE_OUTER_BOUND('',#186,.T.);
#118=FACE_OUTER_BOUND('',#187,.T.);
#119=FACE_OUTER_BOUND('',#188,.T.);
#120=FACE_OUTER_BOUND('',#189,.T.);
#121=FACE_OUTER_BOUND('',#190,.T.);
#122=FACE_OUTER_BOUND('',#191,.T.);
#123=FACE_OUTER_BOUND('',#192,.T.);
#124=FACE_OUTER_BOUND('',#193,.T.);
#125=FACE_OUTER_BOUND('',#194,.T.);
#126=FACE_OUTER_BOUND('',#195,.T.);
#127=FACE_OUTER_BOUND('',#196,.T.);
#128=FACE_OUTER_BOUND('',#197,.T.);
#129=FACE_OUTER_BOUND('',#198,.T.);
#130=FACE_OUTER_BOUND('',#199,.T.);
#131=FACE_OUTER_BOUND('',#200,.T.);
#132=EDGE_LOOP('',(#762,#763,#764,#765));
#133=EDGE_LOOP('',(#766,#767,#768,#769));
#134=EDGE_LOOP('',(#770,#771,#772,#773,#774,#775,#776,#777));
#135=EDGE_LOOP('',(#778,#779,#780,#781,#782,#783,#784,#785));
#136=EDGE_LOOP('',(#786,#787,#788,#789));
#137=EDGE_LOOP('',(#790,#791,#792,#793));
#138=EDGE_LOOP('',(#794,#795,#796,#797));
#139=EDGE_LOOP('',(#798,#799,#800,#801));
#140=EDGE_LOOP('',(#802,#803,#804,#805));
#141=EDGE_LOOP('',(#806,#807,#808,#809));
#142=EDGE_LOOP('',(#810,#811,#812,#813,#814,#815,#816,#817));
#143=EDGE_LOOP('',(#818,#819,#820,#821));
#144=EDGE_LOOP('',(#822,#823,#824,#825));
#145=EDGE_LOOP('',(#826,#827,#828,#829));
#146=EDGE_LOOP('',(#830,#831,#832,#833));
#147=EDGE_LOOP('',(#834,#835,#836,#837));
#148=EDGE_LOOP('',(#838,#839,#840,#841));
#149=EDGE_LOOP('',(#842,#843,#844,#845));
#150=EDGE_LOOP('',(#846,#847,#848,#849));
#151=EDGE_LOOP('',(#850,#851,#852,#853));
#152=EDGE_LOOP('',(#854,#855,#856,#857));
#153=EDGE_LOOP('',(#858,#859,#860,#861));
#154=EDGE_LOOP('',(#862,#863,#864,#865));
#155=EDGE_LOOP('',(#866,#867,#868,#869));
#156=EDGE_LOOP('',(#870,#871,#872,#873));
#157=EDGE_LOOP('',(#874,#875,#876,#877));
#158=EDGE_LOOP('',(#878,#879,#880,#881));
#159=EDGE_LOOP('',(#882,#883,#884,#885,#886,#887,#888,#889));
#160=EDGE_LOOP('',(#890,#891,#892,#893,#894,#895,#896,#897));
#161=EDGE_LOOP('',(#898,#899,#900,#901,#902,#903,#904,#905));
#162=EDGE_LOOP('',(#906,#907,#908,#909,#910,#911,#912,#913));
#163=EDGE_LOOP('',(#914,#915,#916,#917));
#164=EDGE_LOOP('',(#918,#919,#920,#921));
#165=EDGE_LOOP('',(#922,#923,#924,#925));
#166=EDGE_LOOP('',(#926,#927,#928,#929));
#167=EDGE_LOOP('',(#930,#931,#932,#933));
#168=EDGE_LOOP('',(#934,#935,#936,#937));
#169=EDGE_LOOP('',(#938,#939,#940,#941));
#170=EDGE_LOOP('',(#942,#943,#944,#945));
#171=EDGE_LOOP('',(#946,#947,#948,#949,#950,#951,#952,#953));
#172=EDGE_LOOP('',(#954,#955,#956,#957));
#173=EDGE_LOOP('',(#958,#959,#960,#961));
#174=EDGE_LOOP('',(#962,#963,#964,#965,#966,#967,#968,#969));
#175=EDGE_LOOP('',(#970,#971,#972,#973,#974,#975,#976,#977));
#176=EDGE_LOOP('',(#978,#979,#980,#981));
#177=EDGE_LOOP('',(#982,#983,#984,#985));
#178=EDGE_LOOP('',(#986,#987,#988,#989));
#179=EDGE_LOOP('',(#990,#991,#992,#993));
#180=EDGE_LOOP('',(#994,#995,#996,#997));
#181=EDGE_LOOP('',(#998,#999,#1000,#1001));
#182=EDGE_LOOP('',(#1002,#1003,#1004,#1005));
#183=EDGE_LOOP('',(#1006,#1007,#1008,#1009));
#184=EDGE_LOOP('',(#1010,#1011,#1012,#1013));
#185=EDGE_LOOP('',(#1014,#1015,#1016,#1017));
#186=EDGE_LOOP('',(#1018,#1019,#1020,#1021));
#187=EDGE_LOOP('',(#1022,#1023,#1024,#1025));
#188=EDGE_LOOP('',(#1026,#1027,#1028,#1029));
#189=EDGE_LOOP('',(#1030,#1031,#1032,#1033));
#190=EDGE_LOOP('',(#1034,#1035,#1036,#1037,#1038,#1039,#1040,#1041));
#191=EDGE_LOOP('',(#1042,#1043,#1044,#1045));
#192=EDGE_LOOP('',(#1046,#1047,#1048,#1049));
#193=EDGE_LOOP('',(#1050,#1051,#1052,#1053));
#194=EDGE_LOOP('',(#1054,#1055,#1056,#1057));
#195=EDGE_LOOP('',(#1058,#1059,#1060,#1061));
#196=EDGE_LOOP('',(#1062,#1063,#1064,#1065));
#197=EDGE_LOOP('',(#1066,#1067,#1068,#1069));
#198=EDGE_LOOP('',(#1070,#1071,#1072,#1073));
#199=EDGE_LOOP('',(#1074,#1075,#1076,#1077,#1078,#1079,#1080,#1081));
#200=EDGE_LOOP('',(#1082,#1083,#1084,#1085,#1086,#1087,#1088,#1089));
#201=EDGE_LOOP('',(#1090,#1091,#1092,#1093,#1094,#1095,#1096,#1097));
#202=LINE('',#1699,#314);
#203=LINE('',#1702,#315);
#204=LINE('',#1705,#316);
#205=LINE('',#1707,#317);
#206=LINE('',#1708,#318);
#207=LINE('',#1711,#319);
#208=LINE('',#1715,#320);
#209=LINE('',#1719,#321);
#210=LINE('',#1725,#322);
#211=LINE('',#1729,#323);
#212=LINE('',#1733,#324);
#213=LINE('',#1736,#325);
#214=LINE('',#1740,#326);
#215=LINE('',#1743,#327);
#216=LINE('',#1744,#328);
#217=LINE('',#1748,#329);
#218=LINE('',#1751,#330);
#219=LINE('',#1752,#331);
#220=LINE('',#1756,#332);
#221=LINE('',#1758,#333);
#222=LINE('',#1762,#334);
#223=LINE('',#1766,#335);
#224=LINE('',#1770,#336);
#225=LINE('',#1774,#337);
#226=LINE('',#1779,#338);
#227=LINE('',#1781,#339);
#228=LINE('',#1783,#340);
#229=LINE('',#1784,#341);
#230=LINE('',#1789,#342);
#231=LINE('',#1793,#343);
#232=LINE('',#1795,#344);
#233=LINE('',#1796,#345);
#234=LINE('',#1801,#346);
#235=LINE('',#1805,#347);
#236=LINE('',#1807,#348);
#237=LINE('',#1808,#349);
#238=LINE('',#1812,#350);
#239=LINE('',#1815,#351);
#240=LINE('',#1816,#352);
#241=LINE('',#1820,#353);
#242=LINE('',#1823,#354);
#243=LINE('',#1824,#355);
#244=LINE('',#1828,#356);
#245=LINE('',#1831,#357);
#246=LINE('',#1832,#358);
#247=LINE('',#1840,#359);
#248=LINE('',#1843,#360);
#249=LINE('',#1845,#361);
#250=LINE('',#1846,#362);
#251=LINE('',#1852,#363);
#252=LINE('',#1854,#364);
#253=LINE('',#1855,#365);
#254=LINE('',#1861,#366);
#255=LINE('',#1862,#367);
#256=LINE('',#1863,#368);
#257=LINE('',#1867,#369);
#258=LINE('',#1870,#370);
#259=LINE('',#1871,#371);
#260=LINE('',#1875,#372);
#261=LINE('',#1878,#373);
#262=LINE('',#1879,#374);
#263=LINE('',#1883,#375);
#264=LINE('',#1886,#376);
#265=LINE('',#1887,#377);
#266=LINE('',#1896,#378);
#267=LINE('',#1899,#379);
#268=LINE('',#1902,#380);
#269=LINE('',#1904,#381);
#270=LINE('',#1905,#382);
#271=LINE('',#1908,#383);
#272=LINE('',#1912,#384);
#273=LINE('',#1916,#385);
#274=LINE('',#1922,#386);
#275=LINE('',#1926,#387);
#276=LINE('',#1930,#388);
#277=LINE('',#1933,#389);
#278=LINE('',#1936,#390);
#279=LINE('',#1940,#391);
#280=LINE('',#1941,#392);
#281=LINE('',#1944,#393);
#282=LINE('',#1948,#394);
#283=LINE('',#1949,#395);
#284=LINE('',#1952,#396);
#285=LINE('',#1955,#397);
#286=LINE('',#1961,#398);
#287=LINE('',#1964,#399);
#288=LINE('',#1967,#400);
#289=LINE('',#1969,#401);
#290=LINE('',#1970,#402);
#291=LINE('',#1975,#403);
#292=LINE('',#1979,#404);
#293=LINE('',#1981,#405);
#294=LINE('',#1982,#406);
#295=LINE('',#1987,#407);
#296=LINE('',#1991,#408);
#297=LINE('',#1993,#409);
#298=LINE('',#1994,#410);
#299=LINE('',#1999,#411);
#300=LINE('',#2002,#412);
#301=LINE('',#2003,#413);
#302=LINE('',#2007,#414);
#303=LINE('',#2010,#415);
#304=LINE('',#2013,#416);
#305=LINE('',#2014,#417);
#306=LINE('',#2017,#418);
#307=LINE('',#2021,#419);
#308=LINE('',#2022,#420);
#309=LINE('',#2025,#421);
#310=LINE('',#2029,#422);
#311=LINE('',#2030,#423);
#312=LINE('',#2033,#424);
#313=LINE('',#2036,#425);
#314=VECTOR('',#1338,10.0067115546905);
#315=VECTOR('',#1341,10.0067115546905);
#316=VECTOR('',#1344,10.);
#317=VECTOR('',#1345,10.0067115546905);
#318=VECTOR('',#1346,10.);
#319=VECTOR('',#1349,10.);
#320=VECTOR('',#1352,10.);
#321=VECTOR('',#1355,10.);
#322=VECTOR('',#1360,10.);
#323=VECTOR('',#1363,10.);
#324=VECTOR('',#1366,10.);
#325=VECTOR('',#1369,10.);
#326=VECTOR('',#1374,10.0067115546905);
#327=VECTOR('',#1377,10.0067115546905);
#328=VECTOR('',#1378,10.);
#329=VECTOR('',#1383,10.0067115546905);
#330=VECTOR('',#1386,10.0067115546905);
#331=VECTOR('',#1387,10.);
#332=VECTOR('',#1392,10.0067115546905);
#333=VECTOR('',#1395,10.);
#334=VECTOR('',#1398,10.);
#335=VECTOR('',#1401,10.);
#336=VECTOR('',#1404,10.);
#337=VECTOR('',#1407,10.);
#338=VECTOR('',#1412,10.);
#339=VECTOR('',#1413,10.);
#340=VECTOR('',#1414,10.);
#341=VECTOR('',#1415,10.);
#342=VECTOR('',#1420,10.);
#343=VECTOR('',#1425,10.);
#344=VECTOR('',#1426,10.);
#345=VECTOR('',#1427,10.);
#346=VECTOR('',#1432,10.);
#347=VECTOR('',#1437,10.);
#348=VECTOR('',#1438,10.);
#349=VECTOR('',#1439,10.);
#350=VECTOR('',#1444,10.);
#351=VECTOR('',#1447,10.);
#352=VECTOR('',#1448,10.);
#353=VECTOR('',#1453,10.);
#354=VECTOR('',#1456,10.);
#355=VECTOR('',#1457,10.);
#356=VECTOR('',#1462,10.);
#357=VECTOR('',#1465,10.);
#358=VECTOR('',#1466,10.);
#359=VECTOR('',#1477,10.);
#360=VECTOR('',#1480,10.);
#361=VECTOR('',#1481,10.);
#362=VECTOR('',#1482,10.);
#363=VECTOR('',#1489,10.);
#364=VECTOR('',#1492,10.);
#365=VECTOR('',#1493,10.);
#366=VECTOR('',#1500,10.);
#367=VECTOR('',#1501,10.);
#368=VECTOR('',#1502,10.);
#369=VECTOR('',#1507,10.);
#370=VECTOR('',#1510,10.);
#371=VECTOR('',#1511,10.);
#372=VECTOR('',#1516,10.);
#373=VECTOR('',#1519,10.);
#374=VECTOR('',#1520,10.);
#375=VECTOR('',#1525,10.);
#376=VECTOR('',#1528,10.);
#377=VECTOR('',#1529,10.);
#378=VECTOR('',#1540,10.0030269801081);
#379=VECTOR('',#1543,10.0030269801081);
#380=VECTOR('',#1546,10.);
#381=VECTOR('',#1547,10.0030269801081);
#382=VECTOR('',#1548,10.);
#383=VECTOR('',#1551,10.);
#384=VECTOR('',#1554,10.);
#385=VECTOR('',#1557,10.);
#386=VECTOR('',#1562,10.);
#387=VECTOR('',#1565,10.);
#388=VECTOR('',#1568,10.);
#389=VECTOR('',#1571,10.);
#390=VECTOR('',#1574,10.0030269801081);
#391=VECTOR('',#1579,10.0030269801081);
#392=VECTOR('',#1580,10.);
#393=VECTOR('',#1583,10.0030269801081);
#394=VECTOR('',#1588,10.0030269801081);
#395=VECTOR('',#1589,10.);
#396=VECTOR('',#1592,10.0030269801081);
#397=VECTOR('',#1597,10.);
#398=VECTOR('',#1602,10.);
#399=VECTOR('',#1605,10.);
#400=VECTOR('',#1608,10.);
#401=VECTOR('',#1609,10.);
#402=VECTOR('',#1610,10.);
#403=VECTOR('',#1615,10.);
#404=VECTOR('',#1620,10.);
#405=VECTOR('',#1621,10.);
#406=VECTOR('',#1622,10.);
#407=VECTOR('',#1627,10.);
#408=VECTOR('',#1632,10.);
#409=VECTOR('',#1633,10.);
#410=VECTOR('',#1634,10.);
#411=VECTOR('',#1639,10.);
#412=VECTOR('',#1644,10.);
#413=VECTOR('',#1645,10.);
#414=VECTOR('',#1650,10.);
#415=VECTOR('',#1653,10.);
#416=VECTOR('',#1656,10.);
#417=VECTOR('',#1657,10.);
#418=VECTOR('',#1660,10.);
#419=VECTOR('',#1665,10.);
#420=VECTOR('',#1666,10.);
#421=VECTOR('',#1669,10.);
#422=VECTOR('',#1674,10.);
#423=VECTOR('',#1675,10.);
#424=VECTOR('',#1678,10.);
#425=VECTOR('',#1683,10.);
#426=CIRCLE('',#1208,10.4400200246647);
#427=CIRCLE('',#1209,9.99999999999999);
#428=CIRCLE('',#1212,10.);
#429=CIRCLE('',#1213,10.);
#430=CIRCLE('',#1214,10.);
#431=CIRCLE('',#1215,7.15722333784913);
#432=CIRCLE('',#1216,7.15722333784912);
#433=CIRCLE('',#1217,7.15722333784913);
#434=CIRCLE('',#1218,7.15722333784914);
#435=CIRCLE('',#1220,10.4400200246648);
#436=CIRCLE('',#1223,10.4400200246648);
#437=CIRCLE('',#1226,10.4400200246648);
#438=CIRCLE('',#1229,3.68767942111285);
#439=CIRCLE('',#1230,3.68767942111286);
#440=CIRCLE('',#1231,3.68767942111288);
#441=CIRCLE('',#1232,3.68767942111286);
#442=CIRCLE('',#1235,7.15722333784914);
#443=CIRCLE('',#1236,7.00000000000002);
#444=CIRCLE('',#1239,7.15722333784913);
#445=CIRCLE('',#1240,7.);
#446=CIRCLE('',#1243,4.49999999999999);
#447=CIRCLE('',#1246,4.5);
#448=CIRCLE('',#1249,4.50000000000002);
#449=CIRCLE('',#1252,4.5);
#450=CIRCLE('',#1254,7.15722333784913);
#451=CIRCLE('',#1255,7.);
#452=CIRCLE('',#1258,7.15722333784912);
#453=CIRCLE('',#1259,6.99999999999999);
#454=CIRCLE('',#1265,7.00000000000002);
#455=CIRCLE('',#1268,7.);
#456=CIRCLE('',#1271,6.99999999999999);
#457=CIRCLE('',#1274,7.);
#458=CIRCLE('',#1277,10.4430540070639);
#459=CIRCLE('',#1278,9.99999999999999);
#460=CIRCLE('',#1281,10.4430540070639);
#461=CIRCLE('',#1282,10.4430540070639);
#462=CIRCLE('',#1283,10.4430540070639);
#463=CIRCLE('',#1284,7.50000000000001);
#464=CIRCLE('',#1285,7.5);
#465=CIRCLE('',#1286,7.49999999999999);
#466=CIRCLE('',#1287,7.5);
#467=CIRCLE('',#1289,10.);
#468=CIRCLE('',#1292,10.);
#469=CIRCLE('',#1295,10.);
#470=CIRCLE('',#1298,7.5);
#471=CIRCLE('',#1299,7.34277666215088);
#472=CIRCLE('',#1302,7.49999999999999);
#473=CIRCLE('',#1303,7.34277666215087);
#474=CIRCLE('',#1306,7.5);
#475=CIRCLE('',#1307,7.34277666215088);
#476=CIRCLE('',#1310,7.50000000000001);
#477=CIRCLE('',#1311,7.34277666215089);
#478=CIRCLE('',#1315,6.844902758962);
#479=CIRCLE('',#1318,6.84490275896199);
#480=CIRCLE('',#1321,6.84490275896198);
#481=CIRCLE('',#1324,6.84490275896199);
#482=VERTEX_POINT('',#1695);
#483=VERTEX_POINT('',#1696);
#484=VERTEX_POINT('',#1698);
#485=VERTEX_POINT('',#1700);
#486=VERTEX_POINT('',#1704);
#487=VERTEX_POINT('',#1706);
#488=VERTEX_POINT('',#1710);
#489=VERTEX_POINT('',#1712);
#490=VERTEX_POINT('',#1714);
#491=VERTEX_POINT('',#1716);
#492=VERTEX_POINT('',#1718);
#493=VERTEX_POINT('',#1721);
#494=VERTEX_POINT('',#1722);
#495=VERTEX_POINT('',#1724);
#496=VERTEX_POINT('',#1726);
#497=VERTEX_POINT('',#1728);
#498=VERTEX_POINT('',#1730);
#499=VERTEX_POINT('',#1732);
#500=VERTEX_POINT('',#1734);
#501=VERTEX_POINT('',#1738);
#502=VERTEX_POINT('',#1742);
#503=VERTEX_POINT('',#1746);
#504=VERTEX_POINT('',#1750);
#505=VERTEX_POINT('',#1754);
#506=VERTEX_POINT('',#1760);
#507=VERTEX_POINT('',#1761);
#508=VERTEX_POINT('',#1763);
#509=VERTEX_POINT('',#1765);
#510=VERTEX_POINT('',#1767);
#511=VERTEX_POINT('',#1769);
#512=VERTEX_POINT('',#1771);
#513=VERTEX_POINT('',#1773);
#514=VERTEX_POINT('',#1777);
#515=VERTEX_POINT('',#1778);
#516=VERTEX_POINT('',#1780);
#517=VERTEX_POINT('',#1782);
#518=VERTEX_POINT('',#1786);
#519=VERTEX_POINT('',#1788);
#520=VERTEX_POINT('',#1792);
#521=VERTEX_POINT('',#1794);
#522=VERTEX_POINT('',#1798);
#523=VERTEX_POINT('',#1800);
#524=VERTEX_POINT('',#1804);
#525=VERTEX_POINT('',#1806);
#526=VERTEX_POINT('',#1810);
#527=VERTEX_POINT('',#1814);
#528=VERTEX_POINT('',#1818);
#529=VERTEX_POINT('',#1822);
#530=VERTEX_POINT('',#1826);
#531=VERTEX_POINT('',#1830);
#532=VERTEX_POINT('',#1836);
#533=VERTEX_POINT('',#1838);
#534=VERTEX_POINT('',#1842);
#535=VERTEX_POINT('',#1844);
#536=VERTEX_POINT('',#1848);
#537=VERTEX_POINT('',#1850);
#538=VERTEX_POINT('',#1859);
#539=VERTEX_POINT('',#1860);
#540=VERTEX_POINT('',#1865);
#541=VERTEX_POINT('',#1869);
#542=VERTEX_POINT('',#1873);
#543=VERTEX_POINT('',#1877);
#544=VERTEX_POINT('',#1881);
#545=VERTEX_POINT('',#1885);
#546=VERTEX_POINT('',#1892);
#547=VERTEX_POINT('',#1893);
#548=VERTEX_POINT('',#1895);
#549=VERTEX_POINT('',#1897);
#550=VERTEX_POINT('',#1901);
#551=VERTEX_POINT('',#1903);
#552=VERTEX_POINT('',#1907);
#553=VERTEX_POINT('',#1909);
#554=VERTEX_POINT('',#1911);
#555=VERTEX_POINT('',#1913);
#556=VERTEX_POINT('',#1915);
#557=VERTEX_POINT('',#1918);
#558=VERTEX_POINT('',#1919);
#559=VERTEX_POINT('',#1921);
#560=VERTEX_POINT('',#1923);
#561=VERTEX_POINT('',#1925);
#562=VERTEX_POINT('',#1927);
#563=VERTEX_POINT('',#1929);
#564=VERTEX_POINT('',#1931);
#565=VERTEX_POINT('',#1935);
#566=VERTEX_POINT('',#1939);
#567=VERTEX_POINT('',#1943);
#568=VERTEX_POINT('',#1947);
#569=VERTEX_POINT('',#1951);
#570=VERTEX_POINT('',#1957);
#571=VERTEX_POINT('',#1958);
#572=VERTEX_POINT('',#1960);
#573=VERTEX_POINT('',#1962);
#574=VERTEX_POINT('',#1966);
#575=VERTEX_POINT('',#1968);
#576=VERTEX_POINT('',#1972);
#577=VERTEX_POINT('',#1974);
#578=VERTEX_POINT('',#1978);
#579=VERTEX_POINT('',#1980);
#580=VERTEX_POINT('',#1984);
#581=VERTEX_POINT('',#1986);
#582=VERTEX_POINT('',#1990);
#583=VERTEX_POINT('',#1992);
#584=VERTEX_POINT('',#1996);
#585=VERTEX_POINT('',#1998);
#586=VERTEX_POINT('',#2006);
#587=VERTEX_POINT('',#2008);
#588=VERTEX_POINT('',#2012);
#589=VERTEX_POINT('',#2016);
#590=VERTEX_POINT('',#2020);
#591=VERTEX_POINT('',#2024);
#592=VERTEX_POINT('',#2028);
#593=VERTEX_POINT('',#2032);
#594=EDGE_CURVE('',#482,#483,#426,.T.);
#595=EDGE_CURVE('',#483,#484,#202,.T.);
#596=EDGE_CURVE('',#484,#485,#427,.T.);
#597=EDGE_CURVE('',#485,#482,#203,.T.);
#598=EDGE_CURVE('',#486,#485,#204,.T.);
#599=EDGE_CURVE('',#487,#486,#205,.T.);
#600=EDGE_CURVE('',#482,#487,#206,.F.);
#601=EDGE_CURVE('',#484,#488,#207,.T.);
#602=EDGE_CURVE('',#489,#488,#428,.T.);
#603=EDGE_CURVE('',#489,#490,#208,.T.);
#604=EDGE_CURVE('',#491,#490,#429,.T.);
#605=EDGE_CURVE('',#491,#492,#209,.T.);
#606=EDGE_CURVE('',#486,#492,#430,.T.);
#607=EDGE_CURVE('',#493,#494,#431,.F.);
#608=EDGE_CURVE('',#494,#495,#210,.F.);
#609=EDGE_CURVE('',#495,#496,#432,.F.);
#610=EDGE_CURVE('',#496,#497,#211,.F.);
#611=EDGE_CURVE('',#497,#498,#433,.F.);
#612=EDGE_CURVE('',#498,#499,#212,.F.);
#613=EDGE_CURVE('',#499,#500,#434,.F.);
#614=EDGE_CURVE('',#500,#493,#213,.F.);
#615=EDGE_CURVE('',#501,#487,#435,.T.);
#616=EDGE_CURVE('',#492,#501,#214,.T.);
#617=EDGE_CURVE('',#502,#491,#215,.T.);
#618=EDGE_CURVE('',#501,#502,#216,.F.);
#619=EDGE_CURVE('',#503,#502,#436,.T.);
#620=EDGE_CURVE('',#490,#503,#217,.T.);
#621=EDGE_CURVE('',#504,#489,#218,.T.);
#622=EDGE_CURVE('',#503,#504,#219,.F.);
#623=EDGE_CURVE('',#505,#504,#437,.T.);
#624=EDGE_CURVE('',#488,#505,#220,.T.);
#625=EDGE_CURVE('',#505,#483,#221,.F.);
#626=EDGE_CURVE('',#506,#507,#222,.F.);
#627=EDGE_CURVE('',#508,#506,#438,.F.);
#628=EDGE_CURVE('',#509,#508,#223,.F.);
#629=EDGE_CURVE('',#510,#509,#439,.F.);
#630=EDGE_CURVE('',#511,#510,#224,.F.);
#631=EDGE_CURVE('',#512,#511,#440,.F.);
#632=EDGE_CURVE('',#513,#512,#225,.F.);
#633=EDGE_CURVE('',#507,#513,#441,.F.);
#634=EDGE_CURVE('',#514,#515,#226,.T.);
#635=EDGE_CURVE('',#514,#516,#227,.T.);
#636=EDGE_CURVE('',#517,#516,#228,.T.);
#637=EDGE_CURVE('',#515,#517,#229,.T.);
#638=EDGE_CURVE('',#518,#514,#442,.T.);
#639=EDGE_CURVE('',#518,#519,#230,.T.);
#640=EDGE_CURVE('',#516,#519,#443,.T.);
#641=EDGE_CURVE('',#520,#518,#231,.T.);
#642=EDGE_CURVE('',#520,#521,#232,.T.);
#643=EDGE_CURVE('',#519,#521,#233,.T.);
#644=EDGE_CURVE('',#522,#520,#444,.T.);
#645=EDGE_CURVE('',#522,#523,#234,.T.);
#646=EDGE_CURVE('',#521,#523,#445,.T.);
#647=EDGE_CURVE('',#507,#524,#235,.T.);
#648=EDGE_CURVE('',#525,#524,#236,.T.);
#649=EDGE_CURVE('',#525,#506,#237,.T.);
#650=EDGE_CURVE('',#526,#525,#446,.T.);
#651=EDGE_CURVE('',#526,#508,#238,.T.);
#652=EDGE_CURVE('',#527,#526,#239,.T.);
#653=EDGE_CURVE('',#527,#509,#240,.T.);
#654=EDGE_CURVE('',#528,#527,#447,.T.);
#655=EDGE_CURVE('',#528,#510,#241,.T.);
#656=EDGE_CURVE('',#529,#528,#242,.T.);
#657=EDGE_CURVE('',#529,#511,#243,.T.);
#658=EDGE_CURVE('',#530,#529,#448,.T.);
#659=EDGE_CURVE('',#530,#512,#244,.T.);
#660=EDGE_CURVE('',#531,#530,#245,.T.);
#661=EDGE_CURVE('',#531,#513,#246,.T.);
#662=EDGE_CURVE('',#524,#531,#449,.T.);
#663=EDGE_CURVE('',#515,#532,#450,.T.);
#664=EDGE_CURVE('',#533,#517,#451,.T.);
#665=EDGE_CURVE('',#532,#533,#247,.T.);
#666=EDGE_CURVE('',#532,#534,#248,.T.);
#667=EDGE_CURVE('',#535,#533,#249,.T.);
#668=EDGE_CURVE('',#534,#535,#250,.T.);
#669=EDGE_CURVE('',#534,#536,#452,.T.);
#670=EDGE_CURVE('',#537,#535,#453,.T.);
#671=EDGE_CURVE('',#536,#537,#251,.T.);
#672=EDGE_CURVE('',#536,#522,#252,.T.);
#673=EDGE_CURVE('',#523,#537,#253,.T.);
#674=EDGE_CURVE('',#538,#539,#254,.T.);
#675=EDGE_CURVE('',#538,#493,#255,.T.);
#676=EDGE_CURVE('',#539,#500,#256,.T.);
#677=EDGE_CURVE('',#540,#539,#454,.T.);
#678=EDGE_CURVE('',#540,#499,#257,.T.);
#679=EDGE_CURVE('',#540,#541,#258,.T.);
#680=EDGE_CURVE('',#541,#498,#259,.T.);
#681=EDGE_CURVE('',#542,#541,#455,.T.);
#682=EDGE_CURVE('',#542,#497,#260,.T.);
#683=EDGE_CURVE('',#542,#543,#261,.T.);
#684=EDGE_CURVE('',#543,#496,#262,.T.);
#685=EDGE_CURVE('',#544,#543,#456,.T.);
#686=EDGE_CURVE('',#544,#495,#263,.T.);
#687=EDGE_CURVE('',#544,#545,#264,.T.);
#688=EDGE_CURVE('',#545,#494,#265,.T.);
#689=EDGE_CURVE('',#538,#545,#457,.T.);
#690=EDGE_CURVE('',#546,#547,#458,.T.);
#691=EDGE_CURVE('',#547,#548,#266,.T.);
#692=EDGE_CURVE('',#548,#549,#459,.T.);
#693=EDGE_CURVE('',#549,#546,#267,.T.);
#694=EDGE_CURVE('',#550,#547,#268,.T.);
#695=EDGE_CURVE('',#551,#550,#269,.T.);
#696=EDGE_CURVE('',#548,#551,#270,.F.);
#697=EDGE_CURVE('',#546,#552,#271,.T.);
#698=EDGE_CURVE('',#553,#552,#460,.T.);
#699=EDGE_CURVE('',#553,#554,#272,.T.);
#700=EDGE_CURVE('',#555,#554,#461,.T.);
#701=EDGE_CURVE('',#555,#556,#273,.T.);
#702=EDGE_CURVE('',#550,#556,#462,.T.);
#703=EDGE_CURVE('',#557,#558,#463,.T.);
#704=EDGE_CURVE('',#558,#559,#274,.T.);
#705=EDGE_CURVE('',#559,#560,#464,.T.);
#706=EDGE_CURVE('',#560,#561,#275,.T.);
#707=EDGE_CURVE('',#561,#562,#465,.T.);
#708=EDGE_CURVE('',#562,#563,#276,.T.);
#709=EDGE_CURVE('',#563,#564,#466,.T.);
#710=EDGE_CURVE('',#564,#557,#277,.T.);
#711=EDGE_CURVE('',#556,#565,#278,.T.);
#712=EDGE_CURVE('',#565,#551,#467,.T.);
#713=EDGE_CURVE('',#566,#555,#279,.T.);
#714=EDGE_CURVE('',#565,#566,#280,.F.);
#715=EDGE_CURVE('',#554,#567,#281,.T.);
#716=EDGE_CURVE('',#567,#566,#468,.T.);
#717=EDGE_CURVE('',#568,#553,#282,.T.);
#718=EDGE_CURVE('',#567,#568,#283,.F.);
#719=EDGE_CURVE('',#552,#569,#284,.T.);
#720=EDGE_CURVE('',#569,#568,#469,.T.);
#721=EDGE_CURVE('',#569,#549,#285,.F.);
#722=EDGE_CURVE('',#570,#571,#470,.T.);
#723=EDGE_CURVE('',#570,#572,#286,.T.);
#724=EDGE_CURVE('',#572,#573,#471,.T.);
#725=EDGE_CURVE('',#571,#573,#287,.T.);
#726=EDGE_CURVE('',#574,#570,#288,.T.);
#727=EDGE_CURVE('',#574,#575,#289,.T.);
#728=EDGE_CURVE('',#575,#572,#290,.T.);
#729=EDGE_CURVE('',#576,#574,#472,.T.);
#730=EDGE_CURVE('',#576,#577,#291,.T.);
#731=EDGE_CURVE('',#577,#575,#473,.T.);
#732=EDGE_CURVE('',#578,#576,#292,.T.);
#733=EDGE_CURVE('',#578,#579,#293,.T.);
#734=EDGE_CURVE('',#579,#577,#294,.T.);
#735=EDGE_CURVE('',#580,#578,#474,.T.);
#736=EDGE_CURVE('',#580,#581,#295,.T.);
#737=EDGE_CURVE('',#581,#579,#475,.T.);
#738=EDGE_CURVE('',#582,#580,#296,.T.);
#739=EDGE_CURVE('',#582,#583,#297,.T.);
#740=EDGE_CURVE('',#583,#581,#298,.T.);
#741=EDGE_CURVE('',#584,#582,#476,.T.);
#742=EDGE_CURVE('',#584,#585,#299,.T.);
#743=EDGE_CURVE('',#585,#583,#477,.T.);
#744=EDGE_CURVE('',#571,#584,#300,.T.);
#745=EDGE_CURVE('',#573,#585,#301,.T.);
#746=EDGE_CURVE('',#557,#586,#302,.T.);
#747=EDGE_CURVE('',#586,#587,#478,.F.);
#748=EDGE_CURVE('',#558,#587,#303,.T.);
#749=EDGE_CURVE('',#564,#588,#304,.T.);
#750=EDGE_CURVE('',#588,#586,#305,.F.);
#751=EDGE_CURVE('',#563,#589,#306,.T.);
#752=EDGE_CURVE('',#589,#588,#479,.F.);
#753=EDGE_CURVE('',#562,#590,#307,.T.);
#754=EDGE_CURVE('',#590,#589,#308,.F.);
#755=EDGE_CURVE('',#561,#591,#309,.T.);
#756=EDGE_CURVE('',#591,#590,#480,.F.);
#757=EDGE_CURVE('',#560,#592,#310,.T.);
#758=EDGE_CURVE('',#592,#591,#311,.F.);
#759=EDGE_CURVE('',#559,#593,#312,.T.);
#760=EDGE_CURVE('',#593,#592,#481,.F.);
#761=EDGE_CURVE('',#587,#593,#313,.F.);
#762=ORIENTED_EDGE('',*,*,#594,.T.);
#763=ORIENTED_EDGE('',*,*,#595,.T.);
#764=ORIENTED_EDGE('',*,*,#596,.T.);
#765=ORIENTED_EDGE('',*,*,#597,.T.);
#766=ORIENTED_EDGE('',*,*,#597,.F.);
#767=ORIENTED_EDGE('',*,*,#598,.F.);
#768=ORIENTED_EDGE('',*,*,#599,.F.);
#769=ORIENTED_EDGE('',*,*,#600,.F.);
#770=ORIENTED_EDGE('',*,*,#596,.F.);
#771=ORIENTED_EDGE('',*,*,#601,.T.);
#772=ORIENTED_EDGE('',*,*,#602,.F.);
#773=ORIENTED_EDGE('',*,*,#603,.T.);
#774=ORIENTED_EDGE('',*,*,#604,.F.);
#775=ORIENTED_EDGE('',*,*,#605,.T.);
#776=ORIENTED_EDGE('',*,*,#606,.F.);
#777=ORIENTED_EDGE('',*,*,#598,.T.);
#778=ORIENTED_EDGE('',*,*,#607,.T.);
#779=ORIENTED_EDGE('',*,*,#608,.T.);
#780=ORIENTED_EDGE('',*,*,#609,.T.);
#781=ORIENTED_EDGE('',*,*,#610,.T.);
#782=ORIENTED_EDGE('',*,*,#611,.T.);
#783=ORIENTED_EDGE('',*,*,#612,.T.);
#784=ORIENTED_EDGE('',*,*,#613,.T.);
#785=ORIENTED_EDGE('',*,*,#614,.T.);
#786=ORIENTED_EDGE('',*,*,#615,.T.);
#787=ORIENTED_EDGE('',*,*,#599,.T.);
#788=ORIENTED_EDGE('',*,*,#606,.T.);
#789=ORIENTED_EDGE('',*,*,#616,.T.);
#790=ORIENTED_EDGE('',*,*,#616,.F.);
#791=ORIENTED_EDGE('',*,*,#605,.F.);
#792=ORIENTED_EDGE('',*,*,#617,.F.);
#793=ORIENTED_EDGE('',*,*,#618,.F.);
#794=ORIENTED_EDGE('',*,*,#619,.T.);
#795=ORIENTED_EDGE('',*,*,#617,.T.);
#796=ORIENTED_EDGE('',*,*,#604,.T.);
#797=ORIENTED_EDGE('',*,*,#620,.T.);
#798=ORIENTED_EDGE('',*,*,#620,.F.);
#799=ORIENTED_EDGE('',*,*,#603,.F.);
#800=ORIENTED_EDGE('',*,*,#621,.F.);
#801=ORIENTED_EDGE('',*,*,#622,.F.);
#802=ORIENTED_EDGE('',*,*,#623,.T.);
#803=ORIENTED_EDGE('',*,*,#621,.T.);
#804=ORIENTED_EDGE('',*,*,#602,.T.);
#805=ORIENTED_EDGE('',*,*,#624,.T.);
#806=ORIENTED_EDGE('',*,*,#595,.F.);
#807=ORIENTED_EDGE('',*,*,#625,.F.);
#808=ORIENTED_EDGE('',*,*,#624,.F.);
#809=ORIENTED_EDGE('',*,*,#601,.F.);
#810=ORIENTED_EDGE('',*,*,#626,.F.);
#811=ORIENTED_EDGE('',*,*,#627,.F.);
#812=ORIENTED_EDGE('',*,*,#628,.F.);
#813=ORIENTED_EDGE('',*,*,#629,.F.);
#814=ORIENTED_EDGE('',*,*,#630,.F.);
#815=ORIENTED_EDGE('',*,*,#631,.F.);
#816=ORIENTED_EDGE('',*,*,#632,.F.);
#817=ORIENTED_EDGE('',*,*,#633,.F.);
#818=ORIENTED_EDGE('',*,*,#634,.F.);
#819=ORIENTED_EDGE('',*,*,#635,.T.);
#820=ORIENTED_EDGE('',*,*,#636,.F.);
#821=ORIENTED_EDGE('',*,*,#637,.F.);
#822=ORIENTED_EDGE('',*,*,#638,.F.);
#823=ORIENTED_EDGE('',*,*,#639,.T.);
#824=ORIENTED_EDGE('',*,*,#640,.F.);
#825=ORIENTED_EDGE('',*,*,#635,.F.);
#826=ORIENTED_EDGE('',*,*,#641,.F.);
#827=ORIENTED_EDGE('',*,*,#642,.T.);
#828=ORIENTED_EDGE('',*,*,#643,.F.);
#829=ORIENTED_EDGE('',*,*,#639,.F.);
#830=ORIENTED_EDGE('',*,*,#644,.F.);
#831=ORIENTED_EDGE('',*,*,#645,.T.);
#832=ORIENTED_EDGE('',*,*,#646,.F.);
#833=ORIENTED_EDGE('',*,*,#642,.F.);
#834=ORIENTED_EDGE('',*,*,#647,.T.);
#835=ORIENTED_EDGE('',*,*,#648,.F.);
#836=ORIENTED_EDGE('',*,*,#649,.T.);
#837=ORIENTED_EDGE('',*,*,#626,.T.);
#838=ORIENTED_EDGE('',*,*,#649,.F.);
#839=ORIENTED_EDGE('',*,*,#650,.F.);
#840=ORIENTED_EDGE('',*,*,#651,.T.);
#841=ORIENTED_EDGE('',*,*,#627,.T.);
#842=ORIENTED_EDGE('',*,*,#651,.F.);
#843=ORIENTED_EDGE('',*,*,#652,.F.);
#844=ORIENTED_EDGE('',*,*,#653,.T.);
#845=ORIENTED_EDGE('',*,*,#628,.T.);
#846=ORIENTED_EDGE('',*,*,#653,.F.);
#847=ORIENTED_EDGE('',*,*,#654,.F.);
#848=ORIENTED_EDGE('',*,*,#655,.T.);
#849=ORIENTED_EDGE('',*,*,#629,.T.);
#850=ORIENTED_EDGE('',*,*,#655,.F.);
#851=ORIENTED_EDGE('',*,*,#656,.F.);
#852=ORIENTED_EDGE('',*,*,#657,.T.);
#853=ORIENTED_EDGE('',*,*,#630,.T.);
#854=ORIENTED_EDGE('',*,*,#657,.F.);
#855=ORIENTED_EDGE('',*,*,#658,.F.);
#856=ORIENTED_EDGE('',*,*,#659,.T.);
#857=ORIENTED_EDGE('',*,*,#631,.T.);
#858=ORIENTED_EDGE('',*,*,#659,.F.);
#859=ORIENTED_EDGE('',*,*,#660,.F.);
#860=ORIENTED_EDGE('',*,*,#661,.T.);
#861=ORIENTED_EDGE('',*,*,#632,.T.);
#862=ORIENTED_EDGE('',*,*,#661,.F.);
#863=ORIENTED_EDGE('',*,*,#662,.F.);
#864=ORIENTED_EDGE('',*,*,#647,.F.);
#865=ORIENTED_EDGE('',*,*,#633,.T.);
#866=ORIENTED_EDGE('',*,*,#663,.F.);
#867=ORIENTED_EDGE('',*,*,#637,.T.);
#868=ORIENTED_EDGE('',*,*,#664,.F.);
#869=ORIENTED_EDGE('',*,*,#665,.F.);
#870=ORIENTED_EDGE('',*,*,#666,.F.);
#871=ORIENTED_EDGE('',*,*,#665,.T.);
#872=ORIENTED_EDGE('',*,*,#667,.F.);
#873=ORIENTED_EDGE('',*,*,#668,.F.);
#874=ORIENTED_EDGE('',*,*,#669,.F.);
#875=ORIENTED_EDGE('',*,*,#668,.T.);
#876=ORIENTED_EDGE('',*,*,#670,.F.);
#877=ORIENTED_EDGE('',*,*,#671,.F.);
#878=ORIENTED_EDGE('',*,*,#672,.F.);
#879=ORIENTED_EDGE('',*,*,#671,.T.);
#880=ORIENTED_EDGE('',*,*,#673,.F.);
#881=ORIENTED_EDGE('',*,*,#645,.F.);
#882=ORIENTED_EDGE('',*,*,#646,.T.);
#883=ORIENTED_EDGE('',*,*,#673,.T.);
#884=ORIENTED_EDGE('',*,*,#670,.T.);
#885=ORIENTED_EDGE('',*,*,#667,.T.);
#886=ORIENTED_EDGE('',*,*,#664,.T.);
#887=ORIENTED_EDGE('',*,*,#636,.T.);
#888=ORIENTED_EDGE('',*,*,#640,.T.);
#889=ORIENTED_EDGE('',*,*,#643,.T.);
#890=ORIENTED_EDGE('',*,*,#662,.T.);
#891=ORIENTED_EDGE('',*,*,#660,.T.);
#892=ORIENTED_EDGE('',*,*,#658,.T.);
#893=ORIENTED_EDGE('',*,*,#656,.T.);
#894=ORIENTED_EDGE('',*,*,#654,.T.);
#895=ORIENTED_EDGE('',*,*,#652,.T.);
#896=ORIENTED_EDGE('',*,*,#650,.T.);
#897=ORIENTED_EDGE('',*,*,#648,.T.);
#898=ORIENTED_EDGE('',*,*,#594,.F.);
#899=ORIENTED_EDGE('',*,*,#600,.T.);
#900=ORIENTED_EDGE('',*,*,#615,.F.);
#901=ORIENTED_EDGE('',*,*,#618,.T.);
#902=ORIENTED_EDGE('',*,*,#619,.F.);
#903=ORIENTED_EDGE('',*,*,#622,.T.);
#904=ORIENTED_EDGE('',*,*,#623,.F.);
#905=ORIENTED_EDGE('',*,*,#625,.T.);
#906=ORIENTED_EDGE('',*,*,#644,.T.);
#907=ORIENTED_EDGE('',*,*,#641,.T.);
#908=ORIENTED_EDGE('',*,*,#638,.T.);
#909=ORIENTED_EDGE('',*,*,#634,.T.);
#910=ORIENTED_EDGE('',*,*,#663,.T.);
#911=ORIENTED_EDGE('',*,*,#666,.T.);
#912=ORIENTED_EDGE('',*,*,#669,.T.);
#913=ORIENTED_EDGE('',*,*,#672,.T.);
#914=ORIENTED_EDGE('',*,*,#674,.F.);
#915=ORIENTED_EDGE('',*,*,#675,.T.);
#916=ORIENTED_EDGE('',*,*,#614,.F.);
#917=ORIENTED_EDGE('',*,*,#676,.F.);
#918=ORIENTED_EDGE('',*,*,#677,.T.);
#919=ORIENTED_EDGE('',*,*,#676,.T.);
#920=ORIENTED_EDGE('',*,*,#613,.F.);
#921=ORIENTED_EDGE('',*,*,#678,.F.);
#922=ORIENTED_EDGE('',*,*,#679,.F.);
#923=ORIENTED_EDGE('',*,*,#678,.T.);
#924=ORIENTED_EDGE('',*,*,#612,.F.);
#925=ORIENTED_EDGE('',*,*,#680,.F.);
#926=ORIENTED_EDGE('',*,*,#681,.T.);
#927=ORIENTED_EDGE('',*,*,#680,.T.);
#928=ORIENTED_EDGE('',*,*,#611,.F.);
#929=ORIENTED_EDGE('',*,*,#682,.F.);
#930=ORIENTED_EDGE('',*,*,#683,.F.);
#931=ORIENTED_EDGE('',*,*,#682,.T.);
#932=ORIENTED_EDGE('',*,*,#610,.F.);
#933=ORIENTED_EDGE('',*,*,#684,.F.);
#934=ORIENTED_EDGE('',*,*,#685,.T.);
#935=ORIENTED_EDGE('',*,*,#684,.T.);
#936=ORIENTED_EDGE('',*,*,#609,.F.);
#937=ORIENTED_EDGE('',*,*,#686,.F.);
#938=ORIENTED_EDGE('',*,*,#687,.F.);
#939=ORIENTED_EDGE('',*,*,#686,.T.);
#940=ORIENTED_EDGE('',*,*,#608,.F.);
#941=ORIENTED_EDGE('',*,*,#688,.F.);
#942=ORIENTED_EDGE('',*,*,#689,.T.);
#943=ORIENTED_EDGE('',*,*,#688,.T.);
#944=ORIENTED_EDGE('',*,*,#607,.F.);
#945=ORIENTED_EDGE('',*,*,#675,.F.);
#946=ORIENTED_EDGE('',*,*,#689,.F.);
#947=ORIENTED_EDGE('',*,*,#674,.T.);
#948=ORIENTED_EDGE('',*,*,#677,.F.);
#949=ORIENTED_EDGE('',*,*,#679,.T.);
#950=ORIENTED_EDGE('',*,*,#681,.F.);
#951=ORIENTED_EDGE('',*,*,#683,.T.);
#952=ORIENTED_EDGE('',*,*,#685,.F.);
#953=ORIENTED_EDGE('',*,*,#687,.T.);
#954=ORIENTED_EDGE('',*,*,#690,.T.);
#955=ORIENTED_EDGE('',*,*,#691,.T.);
#956=ORIENTED_EDGE('',*,*,#692,.T.);
#957=ORIENTED_EDGE('',*,*,#693,.T.);
#958=ORIENTED_EDGE('',*,*,#691,.F.);
#959=ORIENTED_EDGE('',*,*,#694,.F.);
#960=ORIENTED_EDGE('',*,*,#695,.F.);
#961=ORIENTED_EDGE('',*,*,#696,.F.);
#962=ORIENTED_EDGE('',*,*,#690,.F.);
#963=ORIENTED_EDGE('',*,*,#697,.T.);
#964=ORIENTED_EDGE('',*,*,#698,.F.);
#965=ORIENTED_EDGE('',*,*,#699,.T.);
#966=ORIENTED_EDGE('',*,*,#700,.F.);
#967=ORIENTED_EDGE('',*,*,#701,.T.);
#968=ORIENTED_EDGE('',*,*,#702,.F.);
#969=ORIENTED_EDGE('',*,*,#694,.T.);
#970=ORIENTED_EDGE('',*,*,#703,.T.);
#971=ORIENTED_EDGE('',*,*,#704,.T.);
#972=ORIENTED_EDGE('',*,*,#705,.T.);
#973=ORIENTED_EDGE('',*,*,#706,.T.);
#974=ORIENTED_EDGE('',*,*,#707,.T.);
#975=ORIENTED_EDGE('',*,*,#708,.T.);
#976=ORIENTED_EDGE('',*,*,#709,.T.);
#977=ORIENTED_EDGE('',*,*,#710,.T.);
#978=ORIENTED_EDGE('',*,*,#702,.T.);
#979=ORIENTED_EDGE('',*,*,#711,.T.);
#980=ORIENTED_EDGE('',*,*,#712,.T.);
#981=ORIENTED_EDGE('',*,*,#695,.T.);
#982=ORIENTED_EDGE('',*,*,#711,.F.);
#983=ORIENTED_EDGE('',*,*,#701,.F.);
#984=ORIENTED_EDGE('',*,*,#713,.F.);
#985=ORIENTED_EDGE('',*,*,#714,.F.);
#986=ORIENTED_EDGE('',*,*,#700,.T.);
#987=ORIENTED_EDGE('',*,*,#715,.T.);
#988=ORIENTED_EDGE('',*,*,#716,.T.);
#989=ORIENTED_EDGE('',*,*,#713,.T.);
#990=ORIENTED_EDGE('',*,*,#715,.F.);
#991=ORIENTED_EDGE('',*,*,#699,.F.);
#992=ORIENTED_EDGE('',*,*,#717,.F.);
#993=ORIENTED_EDGE('',*,*,#718,.F.);
#994=ORIENTED_EDGE('',*,*,#698,.T.);
#995=ORIENTED_EDGE('',*,*,#719,.T.);
#996=ORIENTED_EDGE('',*,*,#720,.T.);
#997=ORIENTED_EDGE('',*,*,#717,.T.);
#998=ORIENTED_EDGE('',*,*,#693,.F.);
#999=ORIENTED_EDGE('',*,*,#721,.F.);
#1000=ORIENTED_EDGE('',*,*,#719,.F.);
#1001=ORIENTED_EDGE('',*,*,#697,.F.);
#1002=ORIENTED_EDGE('',*,*,#722,.F.);
#1003=ORIENTED_EDGE('',*,*,#723,.T.);
#1004=ORIENTED_EDGE('',*,*,#724,.T.);
#1005=ORIENTED_EDGE('',*,*,#725,.F.);
#1006=ORIENTED_EDGE('',*,*,#726,.F.);
#1007=ORIENTED_EDGE('',*,*,#727,.T.);
#1008=ORIENTED_EDGE('',*,*,#728,.T.);
#1009=ORIENTED_EDGE('',*,*,#723,.F.);
#1010=ORIENTED_EDGE('',*,*,#729,.F.);
#1011=ORIENTED_EDGE('',*,*,#730,.T.);
#1012=ORIENTED_EDGE('',*,*,#731,.T.);
#1013=ORIENTED_EDGE('',*,*,#727,.F.);
#1014=ORIENTED_EDGE('',*,*,#732,.F.);
#1015=ORIENTED_EDGE('',*,*,#733,.T.);
#1016=ORIENTED_EDGE('',*,*,#734,.T.);
#1017=ORIENTED_EDGE('',*,*,#730,.F.);
#1018=ORIENTED_EDGE('',*,*,#735,.F.);
#1019=ORIENTED_EDGE('',*,*,#736,.T.);
#1020=ORIENTED_EDGE('',*,*,#737,.T.);
#1021=ORIENTED_EDGE('',*,*,#733,.F.);
#1022=ORIENTED_EDGE('',*,*,#738,.F.);
#1023=ORIENTED_EDGE('',*,*,#739,.T.);
#1024=ORIENTED_EDGE('',*,*,#740,.T.);
#1025=ORIENTED_EDGE('',*,*,#736,.F.);
#1026=ORIENTED_EDGE('',*,*,#741,.F.);
#1027=ORIENTED_EDGE('',*,*,#742,.T.);
#1028=ORIENTED_EDGE('',*,*,#743,.T.);
#1029=ORIENTED_EDGE('',*,*,#739,.F.);
#1030=ORIENTED_EDGE('',*,*,#744,.F.);
#1031=ORIENTED_EDGE('',*,*,#725,.T.);
#1032=ORIENTED_EDGE('',*,*,#745,.T.);
#1033=ORIENTED_EDGE('',*,*,#742,.F.);
#1034=ORIENTED_EDGE('',*,*,#745,.F.);
#1035=ORIENTED_EDGE('',*,*,#724,.F.);
#1036=ORIENTED_EDGE('',*,*,#728,.F.);
#1037=ORIENTED_EDGE('',*,*,#731,.F.);
#1038=ORIENTED_EDGE('',*,*,#734,.F.);
#1039=ORIENTED_EDGE('',*,*,#737,.F.);
#1040=ORIENTED_EDGE('',*,*,#740,.F.);
#1041=ORIENTED_EDGE('',*,*,#743,.F.);
#1042=ORIENTED_EDGE('',*,*,#703,.F.);
#1043=ORIENTED_EDGE('',*,*,#746,.T.);
#1044=ORIENTED_EDGE('',*,*,#747,.T.);
#1045=ORIENTED_EDGE('',*,*,#748,.F.);
#1046=ORIENTED_EDGE('',*,*,#710,.F.);
#1047=ORIENTED_EDGE('',*,*,#749,.T.);
#1048=ORIENTED_EDGE('',*,*,#750,.T.);
#1049=ORIENTED_EDGE('',*,*,#746,.F.);
#1050=ORIENTED_EDGE('',*,*,#709,.F.);
#1051=ORIENTED_EDGE('',*,*,#751,.T.);
#1052=ORIENTED_EDGE('',*,*,#752,.T.);
#1053=ORIENTED_EDGE('',*,*,#749,.F.);
#1054=ORIENTED_EDGE('',*,*,#708,.F.);
#1055=ORIENTED_EDGE('',*,*,#753,.T.);
#1056=ORIENTED_EDGE('',*,*,#754,.T.);
#1057=ORIENTED_EDGE('',*,*,#751,.F.);
#1058=ORIENTED_EDGE('',*,*,#707,.F.);
#1059=ORIENTED_EDGE('',*,*,#755,.T.);
#1060=ORIENTED_EDGE('',*,*,#756,.T.);
#1061=ORIENTED_EDGE('',*,*,#753,.F.);
#1062=ORIENTED_EDGE('',*,*,#706,.F.);
#1063=ORIENTED_EDGE('',*,*,#757,.T.);
#1064=ORIENTED_EDGE('',*,*,#758,.T.);
#1065=ORIENTED_EDGE('',*,*,#755,.F.);
#1066=ORIENTED_EDGE('',*,*,#705,.F.);
#1067=ORIENTED_EDGE('',*,*,#759,.T.);
#1068=ORIENTED_EDGE('',*,*,#760,.T.);
#1069=ORIENTED_EDGE('',*,*,#757,.F.);
#1070=ORIENTED_EDGE('',*,*,#704,.F.);
#1071=ORIENTED_EDGE('',*,*,#748,.T.);
#1072=ORIENTED_EDGE('',*,*,#761,.T.);
#1073=ORIENTED_EDGE('',*,*,#759,.F.);
#1074=ORIENTED_EDGE('',*,*,#761,.F.);
#1075=ORIENTED_EDGE('',*,*,#747,.F.);
#1076=ORIENTED_EDGE('',*,*,#750,.F.);
#1077=ORIENTED_EDGE('',*,*,#752,.F.);
#1078=ORIENTED_EDGE('',*,*,#754,.F.);
#1079=ORIENTED_EDGE('',*,*,#756,.F.);
#1080=ORIENTED_EDGE('',*,*,#758,.F.);
#1081=ORIENTED_EDGE('',*,*,#760,.F.);
#1082=ORIENTED_EDGE('',*,*,#692,.F.);
#1083=ORIENTED_EDGE('',*,*,#696,.T.);
#1084=ORIENTED_EDGE('',*,*,#712,.F.);
#1085=ORIENTED_EDGE('',*,*,#714,.T.);
#1086=ORIENTED_EDGE('',*,*,#716,.F.);
#1087=ORIENTED_EDGE('',*,*,#718,.T.);
#1088=ORIENTED_EDGE('',*,*,#720,.F.);
#1089=ORIENTED_EDGE('',*,*,#721,.T.);
#1090=ORIENTED_EDGE('',*,*,#722,.T.);
#1091=ORIENTED_EDGE('',*,*,#744,.T.);
#1092=ORIENTED_EDGE('',*,*,#741,.T.);
#1093=ORIENTED_EDGE('',*,*,#738,.T.);
#1094=ORIENTED_EDGE('',*,*,#735,.T.);
#1095=ORIENTED_EDGE('',*,*,#732,.T.);
#1096=ORIENTED_EDGE('',*,*,#729,.T.);
#1097=ORIENTED_EDGE('',*,*,#726,.T.);
#1098=CONICAL_SURFACE('',#1207,9.94534672379622,0.0366519142918809);
#1099=CONICAL_SURFACE('',#1219,9.94266120102068,0.0366519142918809);
#1100=CONICAL_SURFACE('',#1222,9.94534672379622,0.0366519142918809);
#1101=CONICAL_SURFACE('',#1225,9.94266120102068,0.0366519142918809);
#1102=CONICAL_SURFACE('',#1234,7.00000000000002,0.0523598775598299);
#1103=CONICAL_SURFACE('',#1238,7.,0.0523598775598299);
#1104=CONICAL_SURFACE('',#1242,4.49999999999999,0.0523598775598299);
#1105=CONICAL_SURFACE('',#1245,4.5,0.0523598775598299);
#1106=CONICAL_SURFACE('',#1248,4.50000000000002,0.0523598775598299);
#1107=CONICAL_SURFACE('',#1251,4.5,0.0523598775598299);
#1108=CONICAL_SURFACE('',#1253,7.,0.0523598775598299);
#1109=CONICAL_SURFACE('',#1257,6.99999999999999,0.0523598775598299);
#1110=CONICAL_SURFACE('',#1264,7.00000000000002,0.0523598775598299);
#1111=CONICAL_SURFACE('',#1267,7.,0.0523598775598299);
#1112=CONICAL_SURFACE('',#1270,6.99999999999999,0.0523598775598299);
#1113=CONICAL_SURFACE('',#1273,7.,0.0523598775598299);
#1114=CONICAL_SURFACE('',#1276,10.4182759207772,0.0246091424531199);
#1115=CONICAL_SURFACE('',#1288,10.4170649454818,0.0246091424531199);
#1116=CONICAL_SURFACE('',#1291,10.4182759207772,0.02460914245312);
#1117=CONICAL_SURFACE('',#1294,10.4170649454818,0.0246091424531199);
#1118=CONICAL_SURFACE('',#1297,7.5,0.0523598775598299);
#1119=CONICAL_SURFACE('',#1301,7.49999999999999,0.0523598775598299);
#1120=CONICAL_SURFACE('',#1305,7.5,0.0523598775598299);
#1121=CONICAL_SURFACE('',#1309,7.50000000000001,0.0523598775598299);
#1122=CONICAL_SURFACE('',#1314,7.50000000000001,0.0523598775598299);
#1123=CONICAL_SURFACE('',#1317,7.5,0.0523598775598299);
#1124=CONICAL_SURFACE('',#1320,7.49999999999999,0.0523598775598299);
#1125=CONICAL_SURFACE('',#1323,7.5,0.0523598775598299);
#1126=ADVANCED_FACE('',(#67),#1098,.T.);
#1127=ADVANCED_FACE('',(#68),#30,.T.);
#1128=ADVANCED_FACE('',(#69,#25),#31,.F.);
#1129=ADVANCED_FACE('',(#70),#1099,.T.);
#1130=ADVANCED_FACE('',(#71),#32,.T.);
#1131=ADVANCED_FACE('',(#72),#1100,.T.);
#1132=ADVANCED_FACE('',(#73),#33,.T.);
#1133=ADVANCED_FACE('',(#74),#1101,.T.);
#1134=ADVANCED_FACE('',(#75),#34,.T.);
#1135=ADVANCED_FACE('',(#76),#35,.T.);
#1136=ADVANCED_FACE('',(#77),#36,.T.);
#1137=ADVANCED_FACE('',(#78),#1102,.T.);
#1138=ADVANCED_FACE('',(#79),#37,.T.);
#1139=ADVANCED_FACE('',(#80),#1103,.T.);
#1140=ADVANCED_FACE('',(#81),#38,.T.);
#1141=ADVANCED_FACE('',(#82),#1104,.F.);
#1142=ADVANCED_FACE('',(#83),#39,.T.);
#1143=ADVANCED_FACE('',(#84),#1105,.F.);
#1144=ADVANCED_FACE('',(#85),#40,.T.);
#1145=ADVANCED_FACE('',(#86),#1106,.F.);
#1146=ADVANCED_FACE('',(#87),#41,.T.);
#1147=ADVANCED_FACE('',(#88),#1107,.F.);
#1148=ADVANCED_FACE('',(#89),#1108,.T.);
#1149=ADVANCED_FACE('',(#90),#42,.T.);
#1150=ADVANCED_FACE('',(#91),#1109,.T.);
#1151=ADVANCED_FACE('',(#92),#43,.T.);
#1152=ADVANCED_FACE('',(#93,#26),#44,.T.);
#1153=ADVANCED_FACE('',(#94,#27),#45,.T.);
#1154=ADVANCED_FACE('',(#95),#46,.T.);
#1155=ADVANCED_FACE('',(#96),#1110,.T.);
#1156=ADVANCED_FACE('',(#97),#47,.T.);
#1157=ADVANCED_FACE('',(#98),#1111,.T.);
#1158=ADVANCED_FACE('',(#99),#48,.T.);
#1159=ADVANCED_FACE('',(#100),#1112,.T.);
#1160=ADVANCED_FACE('',(#101),#49,.T.);
#1161=ADVANCED_FACE('',(#102),#1113,.T.);
#1162=ADVANCED_FACE('',(#103),#50,.F.);
#1163=ADVANCED_FACE('',(#104),#1114,.T.);
#1164=ADVANCED_FACE('',(#105),#51,.T.);
#1165=ADVANCED_FACE('',(#106,#28),#52,.F.);
#1166=ADVANCED_FACE('',(#107),#1115,.T.);
#1167=ADVANCED_FACE('',(#108),#53,.T.);
#1168=ADVANCED_FACE('',(#109),#1116,.T.);
#1169=ADVANCED_FACE('',(#110),#54,.T.);
#1170=ADVANCED_FACE('',(#111),#1117,.T.);
#1171=ADVANCED_FACE('',(#112),#55,.T.);
#1172=ADVANCED_FACE('',(#113),#1118,.F.);
#1173=ADVANCED_FACE('',(#114),#56,.F.);
#1174=ADVANCED_FACE('',(#115),#1119,.F.);
#1175=ADVANCED_FACE('',(#116),#57,.F.);
#1176=ADVANCED_FACE('',(#117),#1120,.F.);
#1177=ADVANCED_FACE('',(#118),#58,.F.);
#1178=ADVANCED_FACE('',(#119),#1121,.F.);
#1179=ADVANCED_FACE('',(#120),#59,.F.);
#1180=ADVANCED_FACE('',(#121),#60,.T.);
#1181=ADVANCED_FACE('',(#122),#1122,.F.);
#1182=ADVANCED_FACE('',(#123),#61,.F.);
#1183=ADVANCED_FACE('',(#124),#1123,.F.);
#1184=ADVANCED_FACE('',(#125),#62,.F.);
#1185=ADVANCED_FACE('',(#126),#1124,.F.);
#1186=ADVANCED_FACE('',(#127),#63,.F.);
#1187=ADVANCED_FACE('',(#128),#1125,.F.);
#1188=ADVANCED_FACE('',(#129),#64,.F.);
#1189=ADVANCED_FACE('',(#130),#65,.F.);
#1190=ADVANCED_FACE('',(#131,#29),#66,.T.);
#1191=CLOSED_SHELL('',(#1126,#1127,#1128,#1129,#1130,#1131,#1132,#1133,
#1134,#1135,#1136,#1137,#1138,#1139,#1140,#1141,#1142,#1143,#1144,#1145,
#1146,#1147,#1148,#1149,#1150,#1151,#1152,#1153,#1154,#1155,#1156,#1157,
#1158,#1159,#1160,#1161,#1162));
#1192=CLOSED_SHELL('',(#1163,#1164,#1165,#1166,#1167,#1168,#1169,#1170,
#1171,#1172,#1173,#1174,#1175,#1176,#1177,#1178,#1179,#1180,#1181,#1182,
#1183,#1184,#1185,#1186,#1187,#1188,#1189,#1190));
#1193=DERIVED_UNIT_ELEMENT(#1195,1.);
#1194=DERIVED_UNIT_ELEMENT(#2048,-3.);
#1195=(
MASS_UNIT()
NAMED_UNIT(*)
SI_UNIT(.KILO.,.GRAM.)
);
#1196=DERIVED_UNIT((#1193,#1194));
#1197=MEASURE_REPRESENTATION_ITEM('density measure',
POSITIVE_RATIO_MEASURE(952.),#1196);
#1198=PROPERTY_DEFINITION_REPRESENTATION(#1203,#1200);
#1199=PROPERTY_DEFINITION_REPRESENTATION(#1204,#1201);
#1200=REPRESENTATION('material name',(#1202),#2045);
#1201=REPRESENTATION('density',(#1197),#2045);
#1202=DESCRIPTIVE_REPRESENTATION_ITEM('Polyethylene, High Density',
'Polyethylene, High Density');
#1203=PROPERTY_DEFINITION('material property','material name',#2061);
#1204=PROPERTY_DEFINITION('material property','density of part',#2061);
#1205=AXIS2_PLACEMENT_3D('',#1692,#1330,#1331);
#1206=AXIS2_PLACEMENT_3D('',#1693,#1332,#1333);
#1207=AXIS2_PLACEMENT_3D('',#1694,#1334,#1335);
#1208=AXIS2_PLACEMENT_3D('',#1697,#1336,#1337);
#1209=AXIS2_PLACEMENT_3D('',#1701,#1339,#1340);
#1210=AXIS2_PLACEMENT_3D('',#1703,#1342,#1343);
#1211=AXIS2_PLACEMENT_3D('',#1709,#1347,#1348);
#1212=AXIS2_PLACEMENT_3D('',#1713,#1350,#1351);
#1213=AXIS2_PLACEMENT_3D('',#1717,#1353,#1354);
#1214=AXIS2_PLACEMENT_3D('',#1720,#1356,#1357);
#1215=AXIS2_PLACEMENT_3D('',#1723,#1358,#1359);
#1216=AXIS2_PLACEMENT_3D('',#1727,#1361,#1362);
#1217=AXIS2_PLACEMENT_3D('',#1731,#1364,#1365);
#1218=AXIS2_PLACEMENT_3D('',#1735,#1367,#1368);
#1219=AXIS2_PLACEMENT_3D('',#1737,#1370,#1371);
#1220=AXIS2_PLACEMENT_3D('',#1739,#1372,#1373);
#1221=AXIS2_PLACEMENT_3D('',#1741,#1375,#1376);
#1222=AXIS2_PLACEMENT_3D('',#1745,#1379,#1380);
#1223=AXIS2_PLACEMENT_3D('',#1747,#1381,#1382);
#1224=AXIS2_PLACEMENT_3D('',#1749,#1384,#1385);
#1225=AXIS2_PLACEMENT_3D('',#1753,#1388,#1389);
#1226=AXIS2_PLACEMENT_3D('',#1755,#1390,#1391);
#1227=AXIS2_PLACEMENT_3D('',#1757,#1393,#1394);
#1228=AXIS2_PLACEMENT_3D('',#1759,#1396,#1397);
#1229=AXIS2_PLACEMENT_3D('',#1764,#1399,#1400);
#1230=AXIS2_PLACEMENT_3D('',#1768,#1402,#1403);
#1231=AXIS2_PLACEMENT_3D('',#1772,#1405,#1406);
#1232=AXIS2_PLACEMENT_3D('',#1775,#1408,#1409);
#1233=AXIS2_PLACEMENT_3D('',#1776,#1410,#1411);
#1234=AXIS2_PLACEMENT_3D('',#1785,#1416,#1417);
#1235=AXIS2_PLACEMENT_3D('',#1787,#1418,#1419);
#1236=AXIS2_PLACEMENT_3D('',#1790,#1421,#1422);
#1237=AXIS2_PLACEMENT_3D('',#1791,#1423,#1424);
#1238=AXIS2_PLACEMENT_3D('',#1797,#1428,#1429);
#1239=AXIS2_PLACEMENT_3D('',#1799,#1430,#1431);
#1240=AXIS2_PLACEMENT_3D('',#1802,#1433,#1434);
#1241=AXIS2_PLACEMENT_3D('',#1803,#1435,#1436);
#1242=AXIS2_PLACEMENT_3D('',#1809,#1440,#1441);
#1243=AXIS2_PLACEMENT_3D('',#1811,#1442,#1443);
#1244=AXIS2_PLACEMENT_3D('',#1813,#1445,#1446);
#1245=AXIS2_PLACEMENT_3D('',#1817,#1449,#1450);
#1246=AXIS2_PLACEMENT_3D('',#1819,#1451,#1452);
#1247=AXIS2_PLACEMENT_3D('',#1821,#1454,#1455);
#1248=AXIS2_PLACEMENT_3D('',#1825,#1458,#1459);
#1249=AXIS2_PLACEMENT_3D('',#1827,#1460,#1461);
#1250=AXIS2_PLACEMENT_3D('',#1829,#1463,#1464);
#1251=AXIS2_PLACEMENT_3D('',#1833,#1467,#1468);
#1252=AXIS2_PLACEMENT_3D('',#1834,#1469,#1470);
#1253=AXIS2_PLACEMENT_3D('',#1835,#1471,#1472);
#1254=AXIS2_PLACEMENT_3D('',#1837,#1473,#1474);
#1255=AXIS2_PLACEMENT_3D('',#1839,#1475,#1476);
#1256=AXIS2_PLACEMENT_3D('',#1841,#1478,#1479);
#1257=AXIS2_PLACEMENT_3D('',#1847,#1483,#1484);
#1258=AXIS2_PLACEMENT_3D('',#1849,#1485,#1486);
#1259=AXIS2_PLACEMENT_3D('',#1851,#1487,#1488);
#1260=AXIS2_PLACEMENT_3D('',#1853,#1490,#1491);
#1261=AXIS2_PLACEMENT_3D('',#1856,#1494,#1495);
#1262=AXIS2_PLACEMENT_3D('',#1857,#1496,#1497);
#1263=AXIS2_PLACEMENT_3D('',#1858,#1498,#1499);
#1264=AXIS2_PLACEMENT_3D('',#1864,#1503,#1504);
#1265=AXIS2_PLACEMENT_3D('',#1866,#1505,#1506);
#1266=AXIS2_PLACEMENT_3D('',#1868,#1508,#1509);
#1267=AXIS2_PLACEMENT_3D('',#1872,#1512,#1513);
#1268=AXIS2_PLACEMENT_3D('',#1874,#1514,#1515);
#1269=AXIS2_PLACEMENT_3D('',#1876,#1517,#1518);
#1270=AXIS2_PLACEMENT_3D('',#1880,#1521,#1522);
#1271=AXIS2_PLACEMENT_3D('',#1882,#1523,#1524);
#1272=AXIS2_PLACEMENT_3D('',#1884,#1526,#1527);
#1273=AXIS2_PLACEMENT_3D('',#1888,#1530,#1531);
#1274=AXIS2_PLACEMENT_3D('',#1889,#1532,#1533);
#1275=AXIS2_PLACEMENT_3D('',#1890,#1534,#1535);
#1276=AXIS2_PLACEMENT_3D('',#1891,#1536,#1537);
#1277=AXIS2_PLACEMENT_3D('',#1894,#1538,#1539);
#1278=AXIS2_PLACEMENT_3D('',#1898,#1541,#1542);
#1279=AXIS2_PLACEMENT_3D('',#1900,#1544,#1545);
#1280=AXIS2_PLACEMENT_3D('',#1906,#1549,#1550);
#1281=AXIS2_PLACEMENT_3D('',#1910,#1552,#1553);
#1282=AXIS2_PLACEMENT_3D('',#1914,#1555,#1556);
#1283=AXIS2_PLACEMENT_3D('',#1917,#1558,#1559);
#1284=AXIS2_PLACEMENT_3D('',#1920,#1560,#1561);
#1285=AXIS2_PLACEMENT_3D('',#1924,#1563,#1564);
#1286=AXIS2_PLACEMENT_3D('',#1928,#1566,#1567);
#1287=AXIS2_PLACEMENT_3D('',#1932,#1569,#1570);
#1288=AXIS2_PLACEMENT_3D('',#1934,#1572,#1573);
#1289=AXIS2_PLACEMENT_3D('',#1937,#1575,#1576);
#1290=AXIS2_PLACEMENT_3D('',#1938,#1577,#1578);
#1291=AXIS2_PLACEMENT_3D('',#1942,#1581,#1582);
#1292=AXIS2_PLACEMENT_3D('',#1945,#1584,#1585);
#1293=AXIS2_PLACEMENT_3D('',#1946,#1586,#1587);
#1294=AXIS2_PLACEMENT_3D('',#1950,#1590,#1591);
#1295=AXIS2_PLACEMENT_3D('',#1953,#1593,#1594);
#1296=AXIS2_PLACEMENT_3D('',#1954,#1595,#1596);
#1297=AXIS2_PLACEMENT_3D('',#1956,#1598,#1599);
#1298=AXIS2_PLACEMENT_3D('',#1959,#1600,#1601);
#1299=AXIS2_PLACEMENT_3D('',#1963,#1603,#1604);
#1300=AXIS2_PLACEMENT_3D('',#1965,#1606,#1607);
#1301=AXIS2_PLACEMENT_3D('',#1971,#1611,#1612);
#1302=AXIS2_PLACEMENT_3D('',#1973,#1613,#1614);
#1303=AXIS2_PLACEMENT_3D('',#1976,#1616,#1617);
#1304=AXIS2_PLACEMENT_3D('',#1977,#1618,#1619);
#1305=AXIS2_PLACEMENT_3D('',#1983,#1623,#1624);
#1306=AXIS2_PLACEMENT_3D('',#1985,#1625,#1626);
#1307=AXIS2_PLACEMENT_3D('',#1988,#1628,#1629);
#1308=AXIS2_PLACEMENT_3D('',#1989,#1630,#1631);
#1309=AXIS2_PLACEMENT_3D('',#1995,#1635,#1636);
#1310=AXIS2_PLACEMENT_3D('',#1997,#1637,#1638);
#1311=AXIS2_PLACEMENT_3D('',#2000,#1640,#1641);
#1312=AXIS2_PLACEMENT_3D('',#2001,#1642,#1643);
#1313=AXIS2_PLACEMENT_3D('',#2004,#1646,#1647);
#1314=AXIS2_PLACEMENT_3D('',#2005,#1648,#1649);
#1315=AXIS2_PLACEMENT_3D('',#2009,#1651,#1652);
#1316=AXIS2_PLACEMENT_3D('',#2011,#1654,#1655);
#1317=AXIS2_PLACEMENT_3D('',#2015,#1658,#1659);
#1318=AXIS2_PLACEMENT_3D('',#2018,#1661,#1662);
#1319=AXIS2_PLACEMENT_3D('',#2019,#1663,#1664);
#1320=AXIS2_PLACEMENT_3D('',#2023,#1667,#1668);
#1321=AXIS2_PLACEMENT_3D('',#2026,#1670,#1671);
#1322=AXIS2_PLACEMENT_3D('',#2027,#1672,#1673);
#1323=AXIS2_PLACEMENT_3D('',#2031,#1676,#1677);
#1324=AXIS2_PLACEMENT_3D('',#2034,#1679,#1680);
#1325=AXIS2_PLACEMENT_3D('',#2035,#1681,#1682);
#1326=AXIS2_PLACEMENT_3D('',#2037,#1684,#1685);
#1327=AXIS2_PLACEMENT_3D('',#2038,#1686,#1687);
#1328=AXIS2_PLACEMENT_3D('',#2039,#1688,#1689);
#1329=AXIS2_PLACEMENT_3D('',#2040,#1690,#1691);
#1330=DIRECTION('axis',(0.,0.,1.));
#1331=DIRECTION('refdir',(1.,0.,0.));
#1332=DIRECTION('axis',(0.,0.,1.));
#1333=DIRECTION('refdir',(1.,0.,0.));
#1334=DIRECTION('center_axis',(-2.07887486164476E-17,1.,2.07887486164476E-17));
#1335=DIRECTION('ref_axis',(-7.62288806579892E-19,-2.08306717204439E-17,
1.));
#1336=DIRECTION('center_axis',(0.,-1.,0.));
#1337=DIRECTION('ref_axis',(-7.62288806579892E-19,-2.08306717204439E-17,
1.));
#1338=DIRECTION('',(0.0366437087065563,-0.999328393778656,-6.93423995084049E-18));
#1339=DIRECTION('center_axis',(0.,1.,0.));
#1340=DIRECTION('ref_axis',(-7.62288806579892E-19,-2.08306717204439E-17,
1.));
#1341=DIRECTION('',(-6.93423995084049E-18,0.999328393778656,0.0366437087065563));
#1342=DIRECTION('center_axis',(0.,-0.0366437087065563,0.999328393778656));
#1343=DIRECTION('ref_axis',(1.,0.,0.));
#1344=DIRECTION('',(-1.,0.,0.));
#1345=DIRECTION('',(-6.93423995084049E-18,-0.999328393778656,-0.0366437087065563));
#1346=DIRECTION('',(-1.,0.,0.));
#1347=DIRECTION('center_axis',(0.,1.,0.));
#1348=DIRECTION('ref_axis',(1.,0.,0.));
#1349=DIRECTION('',(0.,0.,-1.));
#1350=DIRECTION('center_axis',(0.,1.,0.));
#1351=DIRECTION('ref_axis',(-1.01638507543986E-18,-2.08306717204439E-17,
-1.));
#1352=DIRECTION('',(1.,0.,0.));
#1353=DIRECTION('center_axis',(0.,1.,0.));
#1354=DIRECTION('ref_axis',(7.62288806579892E-19,-2.08306717204439E-17,
-1.));
#1355=DIRECTION('',(-1.18423789293351E-16,0.,1.));
#1356=DIRECTION('center_axis',(0.,1.,0.));
#1357=DIRECTION('ref_axis',(1.,-2.08306717204439E-17,1.1893198183107E-16));
#1358=DIRECTION('center_axis',(0.,-1.,0.));
#1359=DIRECTION('ref_axis',(0.,0.,-1.));
#1360=DIRECTION('',(0.,0.,-1.));
#1361=DIRECTION('center_axis',(0.,-1.,0.));
#1362=DIRECTION('ref_axis',(-1.,0.,-6.34413156928661E-16));
#1363=DIRECTION('',(-1.,0.,0.));
#1364=DIRECTION('center_axis',(0.,-1.,0.));
#1365=DIRECTION('ref_axis',(0.,0.,1.));
#1366=DIRECTION('',(-1.1842378929335E-16,0.,1.));
#1367=DIRECTION('center_axis',(0.,-1.,0.));
#1368=DIRECTION('ref_axis',(1.,0.,-1.26882631385732E-15));
#1369=DIRECTION('',(1.,0.,0.));
#1370=DIRECTION('center_axis',(1.38591657442984E-17,1.,1.38591657442984E-17));
#1371=DIRECTION('ref_axis',(1.,-2.08306717204439E-17,1.1893198183107E-16));
#1372=DIRECTION('center_axis',(0.,-1.,0.));
#1373=DIRECTION('ref_axis',(1.,-2.08306717204439E-17,1.1893198183107E-16));
#1374=DIRECTION('',(0.0366437087065563,0.999328393778656,1.3868479901681E-17));
#1375=DIRECTION('center_axis',(0.999328393778656,-0.0366437087065563,1.18344255139706E-16));
#1376=DIRECTION('ref_axis',(1.18423789293351E-16,-2.00296714216273E-32,
-1.));
#1377=DIRECTION('',(-0.0366437087065563,-0.999328393778656,0.));
#1378=DIRECTION('',(-1.18423789293351E-16,0.,1.));
#1379=DIRECTION('center_axis',(2.07887486164476E-17,1.,-1.38591657442984E-17));
#1380=DIRECTION('ref_axis',(7.62288806579892E-19,-2.08306717204439E-17,
-1.));
#1381=DIRECTION('center_axis',(0.,-1.,0.));
#1382=DIRECTION('ref_axis',(7.62288806579892E-19,-2.08306717204439E-17,
-1.));
#1383=DIRECTION('',(6.93423995084049E-18,0.999328393778656,-0.0366437087065563));
#1384=DIRECTION('center_axis',(0.,-0.0366437087065563,-0.999328393778656));
#1385=DIRECTION('ref_axis',(-1.,0.,0.));
#1386=DIRECTION('',(1.3868479901681E-17,-0.999328393778656,0.0366437087065563));
#1387=DIRECTION('',(1.,0.,0.));
#1388=DIRECTION('center_axis',(-2.77183314885969E-17,1.,-2.77183314885969E-17));
#1389=DIRECTION('ref_axis',(-1.01638507543986E-18,-2.08306717204439E-17,
-1.));
#1390=DIRECTION('center_axis',(0.,-1.,0.));
#1391=DIRECTION('ref_axis',(-1.01638507543986E-18,-2.08306717204439E-17,
-1.));
#1392=DIRECTION('',(-0.0366437087065563,0.999328393778656,-1.3868479901681E-17));
#1393=DIRECTION('center_axis',(-0.999328393778656,-0.0366437087065563,0.));
#1394=DIRECTION('ref_axis',(0.,0.,1.));
#1395=DIRECTION('',(0.,0.,-1.));
#1396=DIRECTION('center_axis',(0.,1.,0.));
#1397=DIRECTION('ref_axis',(1.,0.,0.));
#1398=DIRECTION('',(0.,0.,1.));
#1399=DIRECTION('center_axis',(0.,1.,0.));
#1400=DIRECTION('ref_axis',(-1.,0.,0.));
#1401=DIRECTION('',(1.,0.,0.));
#1402=DIRECTION('center_axis',(0.,1.,0.));
#1403=DIRECTION('ref_axis',(0.,0.,1.));
#1404=DIRECTION('',(1.1842378929335E-16,0.,-1.));
#1405=DIRECTION('center_axis',(0.,1.,0.));
#1406=DIRECTION('ref_axis',(1.,0.,-9.86864910777914E-16));
#1407=DIRECTION('',(-1.,0.,0.));
#1408=DIRECTION('center_axis',(0.,1.,0.));
#1409=DIRECTION('ref_axis',(0.,0.,-1.));
#1410=DIRECTION('center_axis',(0.998629534754574,0.0523359562429438,1.18261493605892E-16));
#1411=DIRECTION('ref_axis',(1.1842378929335E-16,9.24446373305873E-33,-1.));
#1412=DIRECTION('',(-1.1842378929335E-16,0.,1.));
#1413=DIRECTION('',(-0.0523359562429438,0.998629534754574,-6.19782225458037E-18));
#1414=DIRECTION('',(1.1842378929335E-16,0.,-1.));
#1415=DIRECTION('',(-0.0523359562429438,0.998629534754574,-3.32026192209662E-17));
#1416=DIRECTION('center_axis',(0.,-1.,0.));
#1417=DIRECTION('ref_axis',(1.,0.,-1.26882631385732E-15));
#1418=DIRECTION('center_axis',(0.,-1.,0.));
#1419=DIRECTION('ref_axis',(1.,0.,-1.26882631385732E-15));
#1420=DIRECTION('',(-9.96078576628986E-17,0.998629534754574,0.0523359562429438));
#1421=DIRECTION('center_axis',(0.,1.,0.));
#1422=DIRECTION('ref_axis',(1.,0.,-1.26882631385732E-15));
#1423=DIRECTION('center_axis',(0.,0.0523359562429438,-0.998629534754574));
#1424=DIRECTION('ref_axis',(-1.,0.,0.));
#1425=DIRECTION('',(1.,0.,0.));
#1426=DIRECTION('',(0.,0.998629534754574,0.0523359562429438));
#1427=DIRECTION('',(-1.,0.,0.));
#1428=DIRECTION('center_axis',(0.,-1.,0.));
#1429=DIRECTION('ref_axis',(0.,0.,-1.));
#1430=DIRECTION('center_axis',(0.,-1.,0.));
#1431=DIRECTION('ref_axis',(0.,0.,-1.));
#1432=DIRECTION('',(0.0523359562429438,0.998629534754574,0.));
#1433=DIRECTION('center_axis',(0.,1.,0.));
#1434=DIRECTION('ref_axis',(0.,0.,-1.));
#1435=DIRECTION('center_axis',(0.998629534754574,0.0523359562429438,0.));
#1436=DIRECTION('ref_axis',(0.,0.,-1.));
#1437=DIRECTION('',(-0.0523359562429438,0.998629534754574,1.03297037576339E-16));
#1438=DIRECTION('',(0.,0.,-1.));
#1439=DIRECTION('',(0.0523359562429438,-0.998629534754574,0.));
#1440=DIRECTION('center_axis',(0.,1.,0.));
#1441=DIRECTION('ref_axis',(-1.,0.,0.));
#1442=DIRECTION('center_axis',(0.,-1.,0.));
#1443=DIRECTION('ref_axis',(-1.,0.,0.));
#1444=DIRECTION('',(-2.06594075152679E-16,-0.998629534754574,-0.0523359562429438));
#1445=DIRECTION('center_axis',(0.,0.0523359562429438,-0.998629534754574));
#1446=DIRECTION('ref_axis',(-1.,0.,0.));
#1447=DIRECTION('',(-1.,0.,0.));
#1448=DIRECTION('',(-1.03297037576339E-16,-0.998629534754574,-0.0523359562429438));
#1449=DIRECTION('center_axis',(0.,1.,0.));
#1450=DIRECTION('ref_axis',(0.,0.,1.));
#1451=DIRECTION('center_axis',(0.,-1.,0.));
#1452=DIRECTION('ref_axis',(0.,0.,1.));
#1453=DIRECTION('',(-0.0523359562429438,-0.998629534754574,-6.19782225458037E-18));
#1454=DIRECTION('center_axis',(-0.998629534754574,0.0523359562429438,-1.18261493605892E-16));
#1455=DIRECTION('ref_axis',(-1.1842378929335E-16,9.24446373305873E-33,1.));
#1456=DIRECTION('',(-1.1842378929335E-16,0.,1.));
#1457=DIRECTION('',(-0.0523359562429438,-0.998629534754574,5.16485187881697E-17));
#1458=DIRECTION('center_axis',(0.,1.,0.));
#1459=DIRECTION('ref_axis',(1.,0.,-9.86864910777914E-16));
#1460=DIRECTION('center_axis',(0.,-1.,0.));
#1461=DIRECTION('ref_axis',(1.,0.,-9.86864910777914E-16));
#1462=DIRECTION('',(0.,-0.998629534754574,0.0523359562429438));
#1463=DIRECTION('center_axis',(0.,0.0523359562429438,0.998629534754574));
#1464=DIRECTION('ref_axis',(1.,0.,0.));
#1465=DIRECTION('',(1.,0.,0.));
#1466=DIRECTION('',(0.,-0.998629534754574,0.0523359562429438));
#1467=DIRECTION('center_axis',(0.,1.,0.));
#1468=DIRECTION('ref_axis',(0.,0.,-1.));
#1469=DIRECTION('center_axis',(0.,-1.,0.));
#1470=DIRECTION('ref_axis',(0.,0.,-1.));
#1471=DIRECTION('center_axis',(0.,-1.,0.));
#1472=DIRECTION('ref_axis',(0.,0.,1.));
#1473=DIRECTION('center_axis',(0.,-1.,0.));
#1474=DIRECTION('ref_axis',(0.,0.,1.));
#1475=DIRECTION('center_axis',(0.,1.,0.));
#1476=DIRECTION('ref_axis',(0.,0.,1.));
#1477=DIRECTION('',(-6.64052384419325E-17,0.998629534754574,-0.0523359562429438));
#1478=DIRECTION('center_axis',(0.,0.0523359562429438,0.998629534754574));
#1479=DIRECTION('ref_axis',(1.,0.,0.));
#1480=DIRECTION('',(-1.,0.,0.));
#1481=DIRECTION('',(1.,0.,0.));
#1482=DIRECTION('',(0.,0.998629534754574,-0.0523359562429438));
#1483=DIRECTION('center_axis',(0.,-1.,0.));
#1484=DIRECTION('ref_axis',(-1.,0.,-6.34413156928661E-16));
#1485=DIRECTION('center_axis',(0.,-1.,0.));
#1486=DIRECTION('ref_axis',(-1.,0.,-6.34413156928661E-16));
#1487=DIRECTION('center_axis',(0.,1.,0.));
#1488=DIRECTION('ref_axis',(-1.,0.,-6.34413156928661E-16));
#1489=DIRECTION('',(0.0523359562429438,0.998629534754574,0.));
#1490=DIRECTION('center_axis',(-0.998629534754574,0.0523359562429438,0.));
#1491=DIRECTION('ref_axis',(0.,0.,1.));
#1492=DIRECTION('',(0.,0.,-1.));
#1493=DIRECTION('',(0.,0.,1.));
#1494=DIRECTION('center_axis',(0.,1.,0.));
#1495=DIRECTION('ref_axis',(1.,0.,0.));
#1496=DIRECTION('center_axis',(0.,1.,0.));
#1497=DIRECTION('ref_axis',(1.,0.,0.));
#1498=DIRECTION('center_axis',(0.,-0.0523359562429438,-0.998629534754574));
#1499=DIRECTION('ref_axis',(-1.,0.,0.));
#1500=DIRECTION('',(1.,0.,0.));
#1501=DIRECTION('',(0.,0.998629534754574,-0.0523359562429438));
#1502=DIRECTION('',(9.96078576628986E-17,0.998629534754574,-0.0523359562429438));
#1503=DIRECTION('center_axis',(0.,1.,0.));
#1504=DIRECTION('ref_axis',(1.,0.,-1.26882631385732E-15));
#1505=DIRECTION('center_axis',(0.,1.,0.));
#1506=DIRECTION('ref_axis',(1.,0.,-1.26882631385732E-15));
#1507=DIRECTION('',(0.0523359562429438,0.998629534754574,6.19782225458037E-18));
#1508=DIRECTION('center_axis',(0.998629534754574,-0.0523359562429438,1.18261493605892E-16));
#1509=DIRECTION('ref_axis',(1.1842378929335E-16,-9.24446373305873E-33,-1.));
#1510=DIRECTION('',(-1.1842378929335E-16,0.,1.));
#1511=DIRECTION('',(0.0523359562429438,0.998629534754574,6.19782225458037E-18));
#1512=DIRECTION('center_axis',(0.,1.,0.));
#1513=DIRECTION('ref_axis',(0.,0.,1.));
#1514=DIRECTION('center_axis',(0.,1.,0.));
#1515=DIRECTION('ref_axis',(0.,0.,1.));
#1516=DIRECTION('',(0.,0.998629534754574,0.0523359562429438));
#1517=DIRECTION('center_axis',(0.,-0.0523359562429438,0.998629534754574));
#1518=DIRECTION('ref_axis',(1.,0.,0.));
#1519=DIRECTION('',(-1.,0.,0.));
#1520=DIRECTION('',(0.,0.998629534754574,0.0523359562429438));
#1521=DIRECTION('center_axis',(0.,1.,0.));
#1522=DIRECTION('ref_axis',(-1.,0.,-6.34413156928661E-16));
#1523=DIRECTION('center_axis',(0.,1.,0.));
#1524=DIRECTION('ref_axis',(-1.,0.,-6.34413156928661E-16));
#1525=DIRECTION('',(-0.0523359562429438,0.998629534754574,0.));
#1526=DIRECTION('center_axis',(-0.998629534754574,-0.0523359562429438,0.));
#1527=DIRECTION('ref_axis',(0.,0.,1.));
#1528=DIRECTION('',(0.,0.,-1.));
#1529=DIRECTION('',(-0.0523359562429438,0.998629534754574,3.32026192209662E-17));
#1530=DIRECTION('center_axis',(0.,1.,0.));
#1531=DIRECTION('ref_axis',(0.,0.,-1.));
#1532=DIRECTION('center_axis',(0.,1.,0.));
#1533=DIRECTION('ref_axis',(0.,0.,-1.));
#1534=DIRECTION('center_axis',(0.,1.,0.));
#1535=DIRECTION('ref_axis',(1.,0.,0.));
#1536=DIRECTION('center_axis',(-8.66836720067775E-17,-1.,8.66836720067775E-17));
#1537=DIRECTION('ref_axis',(-2.13364156831191E-18,8.32919467875219E-17,
1.));
#1538=DIRECTION('center_axis',(0.,1.,0.));
#1539=DIRECTION('ref_axis',(-2.13364156831191E-18,8.32919467875219E-17,
1.));
#1540=DIRECTION('',(7.97731327263409E-17,0.999697210335358,-0.0246066586049817));
#1541=DIRECTION('center_axis',(0.,-1.,0.));
#1542=DIRECTION('ref_axis',(-2.13364156831191E-18,8.32919467875219E-17,
1.));
#1543=DIRECTION('',(-0.0246066586049817,-0.999697210335358,7.97731327263409E-17));
#1544=DIRECTION('center_axis',(0.,0.0246066586049817,0.999697210335359));
#1545=DIRECTION('ref_axis',(1.,0.,0.));
#1546=DIRECTION('',(-1.,0.,0.));
#1547=DIRECTION('',(7.97731327263409E-17,-0.999697210335358,0.0246066586049817));
#1548=DIRECTION('',(-1.,0.,0.));
#1549=DIRECTION('center_axis',(0.,1.,0.));
#1550=DIRECTION('ref_axis',(0.,0.,1.));
#1551=DIRECTION('',(0.,0.,-1.));
#1552=DIRECTION('center_axis',(0.,1.,0.));
#1553=DIRECTION('ref_axis',(-2.04829590557943E-18,7.98214490047085E-17,
-1.));
#1554=DIRECTION('',(1.,0.,0.));
#1555=DIRECTION('center_axis',(0.,1.,0.));
#1556=DIRECTION('ref_axis',(1.96295024284696E-18,7.63509512218951E-17,-1.));
#1557=DIRECTION('',(-1.1842378929335E-16,0.,1.));
#1558=DIRECTION('center_axis',(0.,1.,0.));
#1559=DIRECTION('ref_axis',(1.,8.32919467875219E-17,1.20472085198929E-16));
#1560=DIRECTION('center_axis',(0.,1.,0.));
#1561=DIRECTION('ref_axis',(1.,0.,-1.1842378929335E-15));
#1562=DIRECTION('',(-1.,0.,0.));
#1563=DIRECTION('center_axis',(0.,1.,0.));
#1564=DIRECTION('ref_axis',(0.,0.,-1.));
#1565=DIRECTION('',(0.,0.,1.));
#1566=DIRECTION('center_axis',(0.,1.,0.));
#1567=DIRECTION('ref_axis',(-1.,0.,-5.92118946466751E-16));
#1568=DIRECTION('',(1.,0.,0.));
#1569=DIRECTION('center_axis',(0.,1.,0.));
#1570=DIRECTION('ref_axis',(0.,0.,1.));
#1571=DIRECTION('',(1.1842378929335E-16,0.,-1.));
#1572=DIRECTION('center_axis',(8.32163251265064E-17,-1.,8.32163251265064E-17));
#1573=DIRECTION('ref_axis',(1.,8.32919467875219E-17,1.20472085198929E-16));
#1574=DIRECTION('',(-0.0246066586049817,0.999697210335358,-8.32415298013992E-17));
#1575=DIRECTION('center_axis',(0.,-1.,0.));
#1576=DIRECTION('ref_axis',(1.,8.32919467875219E-17,1.20472085198929E-16));
#1577=DIRECTION('center_axis',(0.999697210335359,0.0246066586049817,1.18387931793904E-16));
#1578=DIRECTION('ref_axis',(1.1842378929335E-16,-8.47409175530384E-33,-1.));
#1579=DIRECTION('',(0.0246066586049817,-0.999697210335358,-6.9367941501166E-17));
#1580=DIRECTION('',(-1.1842378929335E-16,0.,1.));
#1581=DIRECTION('center_axis',(7.97489782462353E-17,-1.,-7.62816313659642E-17));
#1582=DIRECTION('ref_axis',(1.96295024284696E-18,7.6350951221895E-17,-1.));
#1583=DIRECTION('',(-7.28363385762243E-17,0.999697210335358,0.0246066586049817));
#1584=DIRECTION('center_axis',(0.,-1.,0.));
#1585=DIRECTION('ref_axis',(1.96295024284696E-18,7.63509512218951E-17,-1.));
#1586=DIRECTION('center_axis',(0.,0.0246066586049817,-0.999697210335359));
#1587=DIRECTION('ref_axis',(-1.,0.,0.));
#1588=DIRECTION('',(-7.63047356512826E-17,-0.999697210335358,-0.0246066586049817));
#1589=DIRECTION('',(1.,0.,0.));
#1590=DIRECTION('center_axis',(-8.32163251265064E-17,-1.,-8.32163251265064E-17));
#1591=DIRECTION('ref_axis',(-2.04829590557943E-18,7.98214490047085E-17,
-1.));
#1592=DIRECTION('',(0.0246066586049817,0.999697210335358,7.63047356512826E-17));
#1593=DIRECTION('center_axis',(0.,-1.,0.));
#1594=DIRECTION('ref_axis',(-2.04829590557943E-18,7.98214490047085E-17,
-1.));
#1595=DIRECTION('center_axis',(-0.999697210335359,0.0246066586049817,0.));
#1596=DIRECTION('ref_axis',(0.,0.,1.));
#1597=DIRECTION('',(0.,0.,-1.));
#1598=DIRECTION('center_axis',(0.,1.,0.));
#1599=DIRECTION('ref_axis',(0.,0.,-1.));
#1600=DIRECTION('center_axis',(0.,-1.,0.));
#1601=DIRECTION('ref_axis',(0.,0.,-1.));
#1602=DIRECTION('',(0.0523359562429438,-0.998629534754574,-3.09891112729018E-17));
#1603=DIRECTION('center_axis',(0.,-1.,0.));
#1604=DIRECTION('ref_axis',(0.,0.,-1.));
#1605=DIRECTION('',(0.,-0.998629534754574,0.0523359562429438));
#1606=DIRECTION('center_axis',(-0.998629534754574,-0.0523359562429438,0.));
#1607=DIRECTION('ref_axis',(0.,0.,-1.));
#1608=DIRECTION('',(0.,0.,-1.));
#1609=DIRECTION('',(0.0523359562429438,-0.998629534754574,0.));
#1610=DIRECTION('',(0.,0.,-1.));
#1611=DIRECTION('center_axis',(0.,1.,0.));
#1612=DIRECTION('ref_axis',(-1.,0.,-5.92118946466751E-16));
#1613=DIRECTION('center_axis',(0.,-1.,0.));
#1614=DIRECTION('ref_axis',(-1.,0.,-5.92118946466751E-16));
#1615=DIRECTION('',(0.,-0.998629534754574,-0.0523359562429438));
#1616=DIRECTION('center_axis',(0.,-1.,0.));
#1617=DIRECTION('ref_axis',(-1.,0.,-5.92118946466751E-16));
#1618=DIRECTION('center_axis',(0.,-0.0523359562429438,0.998629534754574));
#1619=DIRECTION('ref_axis',(-1.,0.,0.));
#1620=DIRECTION('',(-1.,0.,0.));
#1621=DIRECTION('',(0.,-0.998629534754574,-0.0523359562429438));
#1622=DIRECTION('',(-1.,0.,0.));
#1623=DIRECTION('center_axis',(0.,1.,0.));
#1624=DIRECTION('ref_axis',(0.,0.,1.));
#1625=DIRECTION('center_axis',(0.,-1.,0.));
#1626=DIRECTION('ref_axis',(0.,0.,1.));
#1627=DIRECTION('',(-0.0523359562429438,-0.998629534754574,-6.19782225458037E-18));
#1628=DIRECTION('center_axis',(0.,-1.,0.));
#1629=DIRECTION('ref_axis',(0.,0.,1.));
#1630=DIRECTION('center_axis',(0.998629534754574,-0.0523359562429438,1.18261493605892E-16));
#1631=DIRECTION('ref_axis',(-1.1842378929335E-16,9.24446373305873E-33,1.));
#1632=DIRECTION('',(-1.1842378929335E-16,0.,1.));
#1633=DIRECTION('',(-0.0523359562429438,-0.998629534754574,6.19782225458035E-17));
#1634=DIRECTION('',(-1.1842378929335E-16,0.,1.));
#1635=DIRECTION('center_axis',(0.,1.,0.));
#1636=DIRECTION('ref_axis',(1.,0.,-1.1842378929335E-15));
#1637=DIRECTION('center_axis',(0.,-1.,0.));
#1638=DIRECTION('ref_axis',(1.,0.,-1.1842378929335E-15));
#1639=DIRECTION('',(-9.29673338187054E-17,-0.998629534754574,0.0523359562429438));
#1640=DIRECTION('center_axis',(0.,-1.,0.));
#1641=DIRECTION('ref_axis',(1.,0.,-1.1842378929335E-15));
#1642=DIRECTION('center_axis',(0.,-0.0523359562429438,-0.998629534754574));
#1643=DIRECTION('ref_axis',(1.,0.,0.));
#1644=DIRECTION('',(1.,0.,0.));
#1645=DIRECTION('',(1.,0.,0.));
#1646=DIRECTION('center_axis',(0.,1.,0.));
#1647=DIRECTION('ref_axis',(0.,0.,1.));
#1648=DIRECTION('center_axis',(0.,-1.,0.));
#1649=DIRECTION('ref_axis',(1.,0.,-1.1842378929335E-15));
#1650=DIRECTION('',(-0.0523359562429438,0.998629534754574,6.19782225458036E-17));
#1651=DIRECTION('center_axis',(0.,-1.,0.));
#1652=DIRECTION('ref_axis',(1.,0.,-1.1842378929335E-15));
#1653=DIRECTION('',(0.,0.998629534754574,0.0523359562429438));
#1654=DIRECTION('center_axis',(0.998629534754574,0.0523359562429438,1.18261493605892E-16));
#1655=DIRECTION('ref_axis',(1.1842378929335E-16,9.24446373305873E-33,-1.));
#1656=DIRECTION('',(-0.0523359562429438,0.998629534754574,-6.19782225458037E-18));
#1657=DIRECTION('',(-1.1842378929335E-16,0.,1.));
#1658=DIRECTION('center_axis',(0.,-1.,0.));
#1659=DIRECTION('ref_axis',(0.,0.,1.));
#1660=DIRECTION('',(0.,0.998629534754574,-0.0523359562429438));
#1661=DIRECTION('center_axis',(0.,-1.,0.));
#1662=DIRECTION('ref_axis',(0.,0.,1.));
#1663=DIRECTION('center_axis',(0.,0.0523359562429438,0.998629534754574));
#1664=DIRECTION('ref_axis',(1.,0.,0.));
#1665=DIRECTION('',(-1.23956445091608E-16,0.998629534754574,-0.0523359562429438));
#1666=DIRECTION('',(-1.,0.,0.));
#1667=DIRECTION('center_axis',(0.,-1.,0.));
#1668=DIRECTION('ref_axis',(-1.,0.,-5.92118946466751E-16));
#1669=DIRECTION('',(0.0523359562429438,0.998629534754574,0.));
#1670=DIRECTION('center_axis',(0.,-1.,0.));
#1671=DIRECTION('ref_axis',(-1.,0.,-5.92118946466751E-16));
#1672=DIRECTION('center_axis',(-0.998629534754574,0.0523359562429438,0.));
#1673=DIRECTION('ref_axis',(0.,0.,1.));
#1674=DIRECTION('',(0.0523359562429438,0.998629534754574,-3.09891112729018E-17));
#1675=DIRECTION('',(0.,0.,-1.));
#1676=DIRECTION('center_axis',(0.,-1.,0.));
#1677=DIRECTION('ref_axis',(0.,0.,-1.));
#1678=DIRECTION('',(0.,0.998629534754574,0.0523359562429438));
#1679=DIRECTION('center_axis',(0.,-1.,0.));
#1680=DIRECTION('ref_axis',(0.,0.,-1.));
#1681=DIRECTION('center_axis',(0.,0.0523359562429438,-0.998629534754574));
#1682=DIRECTION('ref_axis',(-1.,0.,0.));
#1683=DIRECTION('',(1.,0.,0.));
#1684=DIRECTION('center_axis',(0.,1.,0.));
#1685=DIRECTION('ref_axis',(0.,0.,1.));
#1686=DIRECTION('center_axis',(0.,1.,0.));
#1687=DIRECTION('ref_axis',(0.,0.,1.));
#1688=DIRECTION('',(0.,0.,1.));
#1689=DIRECTION('',(1.,0.,0.));
#1690=DIRECTION('',(0.,0.,1.));
#1691=DIRECTION('',(1.,0.,0.));
#1692=CARTESIAN_POINT('',(0.,0.,0.));
#1693=CARTESIAN_POINT('',(0.,0.,0.));
#1694=CARTESIAN_POINT('Origin',(-41.1010752921271,1.50952393599592,39.1010752921271));
#1695=CARTESIAN_POINT('',(-41.101075292127,15.,49.5410953167918));
#1696=CARTESIAN_POINT('',(-51.5410953167918,15.,39.1010752921271));
#1697=CARTESIAN_POINT('Origin',(-41.1010752921271,15.,39.1010752921271));
#1698=CARTESIAN_POINT('',(-51.101075292127,3.,39.1010752921271));
#1699=CARTESIAN_POINT('',(-51.0464220159233,1.50952393599592,39.1010752921271));
#1700=CARTESIAN_POINT('',(-41.101075292127,3.,49.101075292127));
#1701=CARTESIAN_POINT('Origin',(-41.1010752921271,3.,39.1010752921271));
#1702=CARTESIAN_POINT('',(-41.101075292127,1.50952393599592,49.0464220159233));
#1703=CARTESIAN_POINT('Origin',(-39.5,2.94137006606951,49.0989254300459));
#1704=CARTESIAN_POINT('',(41.1010752921271,3.,49.101075292127));
#1705=CARTESIAN_POINT('',(-19.75,3.,49.101075292127));
#1706=CARTESIAN_POINT('',(41.1010752921271,15.,49.5410953167918));
#1707=CARTESIAN_POINT('',(41.1010752921271,1.43628573886829,49.0437364931477));
#1708=CARTESIAN_POINT('',(-19.75,15.,49.5410953167918));
#1709=CARTESIAN_POINT('Origin',(0.,3.,-8.88178419700125E-15));
#1710=CARTESIAN_POINT('',(-51.101075292127,3.,-39.101075292127));
#1711=CARTESIAN_POINT('',(-51.101075292127,3.,-18.75));
#1712=CARTESIAN_POINT('',(-41.1010752921271,3.,-49.101075292127));
#1713=CARTESIAN_POINT('Origin',(-41.1010752921271,3.,-39.101075292127));
#1714=CARTESIAN_POINT('',(41.101075292127,3.,-49.101075292127));
#1715=CARTESIAN_POINT('',(19.75,3.,-49.101075292127));
#1716=CARTESIAN_POINT('',(51.1010752921271,3.,-39.101075292127));
#1717=CARTESIAN_POINT('Origin',(41.1010752921271,3.,-39.1010752921271));
#1718=CARTESIAN_POINT('',(51.101075292127,3.,39.101075292127));
#1719=CARTESIAN_POINT('',(51.101075292127,3.,18.75));
#1720=CARTESIAN_POINT('Origin',(41.1010752921271,3.,39.101075292127));
#1721=CARTESIAN_POINT('',(-39.5,3.,-44.6572233378491));
#1722=CARTESIAN_POINT('',(-46.6572233378491,3.,-37.5));
#1723=CARTESIAN_POINT('Origin',(-39.5,3.,-37.5));
#1724=CARTESIAN_POINT('',(-46.6572233378491,3.,37.5));
#1725=CARTESIAN_POINT('',(-46.6572233378491,3.,-18.75));
#1726=CARTESIAN_POINT('',(-39.5,3.,44.6572233378491));
#1727=CARTESIAN_POINT('Origin',(-39.5,3.,37.5));
#1728=CARTESIAN_POINT('',(39.5,3.,44.6572233378491));
#1729=CARTESIAN_POINT('',(-19.75,3.,44.6572233378491));
#1730=CARTESIAN_POINT('',(46.6572233378491,3.,37.5));
#1731=CARTESIAN_POINT('Origin',(39.5,3.,37.5));
#1732=CARTESIAN_POINT('',(46.6572233378491,3.,-37.5));
#1733=CARTESIAN_POINT('',(46.6572233378491,3.,18.75));
#1734=CARTESIAN_POINT('',(39.5,3.,-44.6572233378491));
#1735=CARTESIAN_POINT('Origin',(39.5,3.,-37.5));
#1736=CARTESIAN_POINT('',(19.75,3.,-44.6572233378491));
#1737=CARTESIAN_POINT('Origin',(41.1010752921271,1.43628573886829,39.101075292127));
#1738=CARTESIAN_POINT('',(51.5410953167918,15.,39.101075292127));
#1739=CARTESIAN_POINT('Origin',(41.1010752921271,15.,39.101075292127));
#1740=CARTESIAN_POINT('',(51.0437364931477,1.43628573886829,39.101075292127));
#1741=CARTESIAN_POINT('Origin',(51.0989254300459,2.94137006606951,37.5));
#1742=CARTESIAN_POINT('',(51.5410953167918,15.,-39.101075292127));
#1743=CARTESIAN_POINT('',(51.0464220159233,1.50952393599592,-39.101075292127));
#1744=CARTESIAN_POINT('',(51.5410953167918,15.,18.75));
#1745=CARTESIAN_POINT('Origin',(41.1010752921271,1.50952393599592,-39.1010752921271));
#1746=CARTESIAN_POINT('',(41.101075292127,15.,-49.5410953167918));
#1747=CARTESIAN_POINT('Origin',(41.1010752921271,15.,-39.1010752921271));
#1748=CARTESIAN_POINT('',(41.101075292127,1.50952393599592,-49.0464220159233));
#1749=CARTESIAN_POINT('Origin',(39.5,2.94137006606951,-49.0989254300459));
#1750=CARTESIAN_POINT('',(-41.1010752921271,15.,-49.5410953167918));
#1751=CARTESIAN_POINT('',(-41.1010752921271,1.43628573886829,-49.0437364931477));
#1752=CARTESIAN_POINT('',(19.75,15.,-49.5410953167918));
#1753=CARTESIAN_POINT('Origin',(-41.1010752921271,1.43628573886829,-39.101075292127));
#1754=CARTESIAN_POINT('',(-51.5410953167918,15.,-39.101075292127));
#1755=CARTESIAN_POINT('Origin',(-41.1010752921271,15.,-39.101075292127));
#1756=CARTESIAN_POINT('',(-51.0437364931477,1.43628573886829,-39.101075292127));
#1757=CARTESIAN_POINT('Origin',(-51.0989254300459,2.94137006606951,-37.5));
#1758=CARTESIAN_POINT('',(-51.5410953167918,15.,-18.75));
#1759=CARTESIAN_POINT('Origin',(-8.88178419700125E-15,2.5,-8.88178419700125E-15));
#1760=CARTESIAN_POINT('',(-43.1876794211129,2.5,37.5));
#1761=CARTESIAN_POINT('',(-43.1876794211129,2.5,-37.5));
#1762=CARTESIAN_POINT('',(-43.1876794211129,2.5,18.75));
#1763=CARTESIAN_POINT('',(-39.5,2.5,41.1876794211128));
#1764=CARTESIAN_POINT('Origin',(-39.5,2.5,37.5));
#1765=CARTESIAN_POINT('',(39.5,2.5,41.1876794211128));
#1766=CARTESIAN_POINT('',(19.75,2.5,41.1876794211128));
#1767=CARTESIAN_POINT('',(43.1876794211129,2.5,37.5));
#1768=CARTESIAN_POINT('Origin',(39.5,2.5,37.5));
#1769=CARTESIAN_POINT('',(43.1876794211129,2.5,-37.5));
#1770=CARTESIAN_POINT('',(43.1876794211129,2.5,-18.75));
#1771=CARTESIAN_POINT('',(39.5,2.5,-41.1876794211129));
#1772=CARTESIAN_POINT('Origin',(39.5,2.5,-37.5));
#1773=CARTESIAN_POINT('',(-39.5,2.5,-41.1876794211129));
#1774=CARTESIAN_POINT('',(-19.75,2.5,-41.1876794211129));
#1775=CARTESIAN_POINT('Origin',(-39.5,2.5,-37.5));
#1776=CARTESIAN_POINT('Origin',(47.2850393436442,3.02055697868139,37.5));
#1777=CARTESIAN_POINT('',(46.6572233378491,15.,-37.5));
#1778=CARTESIAN_POINT('',(46.6572233378491,15.,37.5));
#1779=CARTESIAN_POINT('',(46.6572233378491,15.,18.75));
#1780=CARTESIAN_POINT('',(46.5,18.,-37.5));
#1781=CARTESIAN_POINT('',(46.5,18.,-37.5));
#1782=CARTESIAN_POINT('',(46.5,18.,37.5));
#1783=CARTESIAN_POINT('',(46.5,18.,-37.5));
#1784=CARTESIAN_POINT('',(46.5,18.,37.5));
#1785=CARTESIAN_POINT('Origin',(39.5,18.,-37.5));
#1786=CARTESIAN_POINT('',(39.5,15.,-44.6572233378491));
#1787=CARTESIAN_POINT('Origin',(39.5,15.,-37.5));
#1788=CARTESIAN_POINT('',(39.5,18.,-44.5));
#1789=CARTESIAN_POINT('',(39.5,18.,-44.5));
#1790=CARTESIAN_POINT('Origin',(39.5,18.,-37.5));
#1791=CARTESIAN_POINT('Origin',(39.5,3.02055697868139,-45.2850393436442));
#1792=CARTESIAN_POINT('',(-39.5,15.,-44.6572233378491));
#1793=CARTESIAN_POINT('',(19.75,15.,-44.6572233378491));
#1794=CARTESIAN_POINT('',(-39.5,18.,-44.5));
#1795=CARTESIAN_POINT('',(-39.5,18.,-44.5));
#1796=CARTESIAN_POINT('',(-39.5,18.,-44.5));
#1797=CARTESIAN_POINT('Origin',(-39.5,18.,-37.5));
#1798=CARTESIAN_POINT('',(-46.6572233378491,15.,-37.5));
#1799=CARTESIAN_POINT('Origin',(-39.5,15.,-37.5));
#1800=CARTESIAN_POINT('',(-46.5,18.,-37.5));
#1801=CARTESIAN_POINT('',(-46.5,18.,-37.5));
#1802=CARTESIAN_POINT('Origin',(-39.5,18.,-37.5));
#1803=CARTESIAN_POINT('Origin',(-43.2149606563559,3.02055697868139,37.5));
#1804=CARTESIAN_POINT('',(-44.,18.,-37.5));
#1805=CARTESIAN_POINT('',(-44.,18.,-37.5));
#1806=CARTESIAN_POINT('',(-44.,18.,37.5));
#1807=CARTESIAN_POINT('',(-44.,18.,37.5));
#1808=CARTESIAN_POINT('',(-44.,18.,37.5));
#1809=CARTESIAN_POINT('Origin',(-39.5,18.,37.5));
#1810=CARTESIAN_POINT('',(-39.5,18.,42.));
#1811=CARTESIAN_POINT('Origin',(-39.5,18.,37.5));
#1812=CARTESIAN_POINT('',(-39.5,18.,42.));
#1813=CARTESIAN_POINT('Origin',(39.5,3.02055697868139,41.2149606563558));
#1814=CARTESIAN_POINT('',(39.5,18.,42.));
#1815=CARTESIAN_POINT('',(39.5,18.,42.));
#1816=CARTESIAN_POINT('',(39.5,18.,42.));
#1817=CARTESIAN_POINT('Origin',(39.5,18.,37.5));
#1818=CARTESIAN_POINT('',(44.,18.,37.5));
#1819=CARTESIAN_POINT('Origin',(39.5,18.,37.5));
#1820=CARTESIAN_POINT('',(44.,18.,37.5));
#1821=CARTESIAN_POINT('Origin',(43.2149606563558,3.02055697868139,-37.5));
#1822=CARTESIAN_POINT('',(44.,18.,-37.5));
#1823=CARTESIAN_POINT('',(44.,18.,-37.5));
#1824=CARTESIAN_POINT('',(44.,18.,-37.5));
#1825=CARTESIAN_POINT('Origin',(39.5,18.,-37.5));
#1826=CARTESIAN_POINT('',(39.5,18.,-42.));
#1827=CARTESIAN_POINT('Origin',(39.5,18.,-37.5));
#1828=CARTESIAN_POINT('',(39.5,18.,-42.));
#1829=CARTESIAN_POINT('Origin',(-39.5,3.02055697868139,-41.2149606563559));
#1830=CARTESIAN_POINT('',(-39.5,18.,-42.));
#1831=CARTESIAN_POINT('',(-39.5,18.,-42.));
#1832=CARTESIAN_POINT('',(-39.5,18.,-42.));
#1833=CARTESIAN_POINT('Origin',(-39.5,18.,-37.5));
#1834=CARTESIAN_POINT('Origin',(-39.5,18.,-37.5));
#1835=CARTESIAN_POINT('Origin',(39.5,18.,37.5));
#1836=CARTESIAN_POINT('',(39.5,15.,44.6572233378491));
#1837=CARTESIAN_POINT('Origin',(39.5,15.,37.5));
#1838=CARTESIAN_POINT('',(39.5,18.,44.5));
#1839=CARTESIAN_POINT('Origin',(39.5,18.,37.5));
#1840=CARTESIAN_POINT('',(39.5,18.,44.5));
#1841=CARTESIAN_POINT('Origin',(-39.5,3.02055697868139,45.2850393436442));
#1842=CARTESIAN_POINT('',(-39.5,15.,44.6572233378491));
#1843=CARTESIAN_POINT('',(-19.75,15.,44.6572233378491));
#1844=CARTESIAN_POINT('',(-39.5,18.,44.5));
#1845=CARTESIAN_POINT('',(39.5,18.,44.5));
#1846=CARTESIAN_POINT('',(-39.5,18.,44.5));
#1847=CARTESIAN_POINT('Origin',(-39.5,18.,37.5));
#1848=CARTESIAN_POINT('',(-46.6572233378491,15.,37.5));
#1849=CARTESIAN_POINT('Origin',(-39.5,15.,37.5));
#1850=CARTESIAN_POINT('',(-46.5,18.,37.5));
#1851=CARTESIAN_POINT('Origin',(-39.5,18.,37.5));
#1852=CARTESIAN_POINT('',(-46.5,18.,37.5));
#1853=CARTESIAN_POINT('Origin',(-47.2850393436442,3.02055697868139,-37.5));
#1854=CARTESIAN_POINT('',(-46.6572233378491,15.,-18.75));
#1855=CARTESIAN_POINT('',(-46.5,18.,37.5));
#1856=CARTESIAN_POINT('Origin',(-8.88178419700125E-15,18.,-8.88178419700125E-15));
#1857=CARTESIAN_POINT('Origin',(0.,15.,-8.88178419700125E-15));
#1858=CARTESIAN_POINT('Origin',(39.5,0.,-44.5));
#1859=CARTESIAN_POINT('',(-39.5,0.,-44.5));
#1860=CARTESIAN_POINT('',(39.5,0.,-44.5));
#1861=CARTESIAN_POINT('',(-39.5,0.,-44.5));
#1862=CARTESIAN_POINT('',(-39.5,0.,-44.5));
#1863=CARTESIAN_POINT('',(39.5,0.,-44.5));
#1864=CARTESIAN_POINT('Origin',(39.5,0.,-37.5));
#1865=CARTESIAN_POINT('',(46.5,0.,-37.5));
#1866=CARTESIAN_POINT('Origin',(39.5,0.,-37.5));
#1867=CARTESIAN_POINT('',(46.5,0.,-37.5));
#1868=CARTESIAN_POINT('Origin',(46.5,2.77555756156289E-16,37.5));
#1869=CARTESIAN_POINT('',(46.5,0.,37.5));
#1870=CARTESIAN_POINT('',(46.5,0.,-37.5));
#1871=CARTESIAN_POINT('',(46.5,0.,37.5));
#1872=CARTESIAN_POINT('Origin',(39.5,0.,37.5));
#1873=CARTESIAN_POINT('',(39.5,0.,44.5));
#1874=CARTESIAN_POINT('Origin',(39.5,0.,37.5));
#1875=CARTESIAN_POINT('',(39.5,0.,44.5));
#1876=CARTESIAN_POINT('Origin',(-39.5,0.,44.5));
#1877=CARTESIAN_POINT('',(-39.5,0.,44.5));
#1878=CARTESIAN_POINT('',(39.5,0.,44.5));
#1879=CARTESIAN_POINT('',(-39.5,0.,44.5));
#1880=CARTESIAN_POINT('Origin',(-39.5,0.,37.5));
#1881=CARTESIAN_POINT('',(-46.5,0.,37.5));
#1882=CARTESIAN_POINT('Origin',(-39.5,0.,37.5));
#1883=CARTESIAN_POINT('',(-46.5,0.,37.5));
#1884=CARTESIAN_POINT('Origin',(-46.5,0.,-37.5));
#1885=CARTESIAN_POINT('',(-46.5,0.,-37.5));
#1886=CARTESIAN_POINT('',(-46.5,0.,37.5));
#1887=CARTESIAN_POINT('',(-46.5,0.,-37.5));
#1888=CARTESIAN_POINT('Origin',(-39.5,0.,-37.5));
#1889=CARTESIAN_POINT('Origin',(-39.5,0.,-37.5));
#1890=CARTESIAN_POINT('Origin',(-8.88178419700125E-15,0.,-8.88178419700125E-15));
#1891=CARTESIAN_POINT('Origin',(-41.1004846101984,16.0066618201147,39.1004846101984));
#1892=CARTESIAN_POINT('',(-51.5435386172623,15.,39.1004846101984));
#1893=CARTESIAN_POINT('',(-41.1004846101984,15.,49.5435386172623));
#1894=CARTESIAN_POINT('Origin',(-41.1004846101984,15.,39.1004846101984));
#1895=CARTESIAN_POINT('',(-41.1004846101984,33.,49.1004846101984));
#1896=CARTESIAN_POINT('',(-41.1004846101984,16.0066618201147,49.5187605309756));
#1897=CARTESIAN_POINT('',(-51.1004846101984,33.,39.1004846101984));
#1898=CARTESIAN_POINT('Origin',(-41.1004846101984,33.,39.1004846101984));
#1899=CARTESIAN_POINT('',(-51.5187605309756,16.0066618201147,39.1004846101984));
#1900=CARTESIAN_POINT('Origin',(-39.5,15.0448208677315,49.5424353914263));
#1901=CARTESIAN_POINT('',(41.1004846101984,15.,49.5435386172623));
#1902=CARTESIAN_POINT('',(-19.75,15.,49.5435386172623));
#1903=CARTESIAN_POINT('',(41.1004846101984,33.,49.1004846101984));
#1904=CARTESIAN_POINT('',(41.1004846101984,16.0558602360409,49.5175495556802));
#1905=CARTESIAN_POINT('',(-19.75,33.,49.1004846101984));
#1906=CARTESIAN_POINT('Origin',(-4.44089209850063E-15,15.,-8.88178419700125E-15));
#1907=CARTESIAN_POINT('',(-51.5435386172623,15.,-39.1004846101984));
#1908=CARTESIAN_POINT('',(-51.5435386172623,15.,-18.75));
#1909=CARTESIAN_POINT('',(-41.1004846101984,15.,-49.5435386172623));
#1910=CARTESIAN_POINT('Origin',(-41.1004846101984,15.,-39.1004846101984));
#1911=CARTESIAN_POINT('',(41.1004846101984,15.,-49.5435386172623));
#1912=CARTESIAN_POINT('',(19.75,15.,-49.5435386172623));
#1913=CARTESIAN_POINT('',(51.5435386172623,15.,-39.1004846101984));
#1914=CARTESIAN_POINT('Origin',(41.1004846101984,15.,-39.1004846101984));
#1915=CARTESIAN_POINT('',(51.5435386172623,15.,39.1004846101984));
#1916=CARTESIAN_POINT('',(51.5435386172623,15.,18.75));
#1917=CARTESIAN_POINT('Origin',(41.1004846101984,15.,39.1004846101984));
#1918=CARTESIAN_POINT('',(47.,15.,-37.5));
#1919=CARTESIAN_POINT('',(39.5,15.,-45.));
#1920=CARTESIAN_POINT('Origin',(39.5,15.,-37.5));
#1921=CARTESIAN_POINT('',(-39.5,15.,-45.));
#1922=CARTESIAN_POINT('',(19.75,15.,-45.));
#1923=CARTESIAN_POINT('',(-47.,15.,-37.5));
#1924=CARTESIAN_POINT('Origin',(-39.5,15.,-37.5));
#1925=CARTESIAN_POINT('',(-47.,15.,37.5));
#1926=CARTESIAN_POINT('',(-47.,15.,-18.75));
#1927=CARTESIAN_POINT('',(-39.5,15.,45.));
#1928=CARTESIAN_POINT('Origin',(-39.5,15.,37.5));
#1929=CARTESIAN_POINT('',(39.5,15.,45.));
#1930=CARTESIAN_POINT('',(-19.75,15.,45.));
#1931=CARTESIAN_POINT('',(47.,15.,37.5));
#1932=CARTESIAN_POINT('Origin',(39.5,15.,37.5));
#1933=CARTESIAN_POINT('',(47.,15.,18.75));
#1934=CARTESIAN_POINT('Origin',(41.1004846101984,16.0558602360409,39.1004846101984));
#1935=CARTESIAN_POINT('',(51.1004846101984,33.,39.1004846101984));
#1936=CARTESIAN_POINT('',(51.5175495556802,16.0558602360409,39.1004846101984));
#1937=CARTESIAN_POINT('Origin',(41.1004846101984,33.,39.1004846101984));
#1938=CARTESIAN_POINT('Origin',(51.5424353914263,15.0448208677315,37.5));
#1939=CARTESIAN_POINT('',(51.1004846101984,33.,-39.1004846101984));
#1940=CARTESIAN_POINT('',(51.5187605309757,16.0066618201147,-39.1004846101984));
#1941=CARTESIAN_POINT('',(51.1004846101984,33.,18.75));
#1942=CARTESIAN_POINT('Origin',(41.1004846101984,16.0066618201147,-39.1004846101984));
#1943=CARTESIAN_POINT('',(41.1004846101984,33.,-49.1004846101984));
#1944=CARTESIAN_POINT('',(41.1004846101984,16.0066618201147,-49.5187605309757));
#1945=CARTESIAN_POINT('Origin',(41.1004846101984,33.,-39.1004846101984));
#1946=CARTESIAN_POINT('Origin',(39.5,15.0448208677315,-49.5424353914263));
#1947=CARTESIAN_POINT('',(-41.1004846101984,33.,-49.1004846101984));
#1948=CARTESIAN_POINT('',(-41.1004846101984,16.0558602360409,-49.5175495556802));
#1949=CARTESIAN_POINT('',(19.75,33.,-49.1004846101984));
#1950=CARTESIAN_POINT('Origin',(-41.1004846101984,16.0558602360409,-39.1004846101984));
#1951=CARTESIAN_POINT('',(-51.1004846101984,33.,-39.1004846101984));
#1952=CARTESIAN_POINT('',(-51.5175495556802,16.0558602360409,-39.1004846101984));
#1953=CARTESIAN_POINT('Origin',(-41.1004846101984,33.,-39.1004846101984));
#1954=CARTESIAN_POINT('Origin',(-51.5424353914263,15.0448208677315,-37.5));
#1955=CARTESIAN_POINT('',(-51.1004846101984,33.,-18.75));
#1956=CARTESIAN_POINT('Origin',(-39.5,33.,-37.5));
#1957=CARTESIAN_POINT('',(-47.,33.,-37.5));
#1958=CARTESIAN_POINT('',(-39.5,33.,-45.));
#1959=CARTESIAN_POINT('Origin',(-39.5,33.,-37.5));
#1960=CARTESIAN_POINT('',(-46.8427766621509,30.,-37.5));
#1961=CARTESIAN_POINT('',(-47.,33.,-37.5));
#1962=CARTESIAN_POINT('',(-39.5,30.,-44.8427766621509));
#1963=CARTESIAN_POINT('Origin',(-39.5,30.,-37.5));
#1964=CARTESIAN_POINT('',(-39.5,33.,-45.));
#1965=CARTESIAN_POINT('Origin',(-47.,33.,37.5));
#1966=CARTESIAN_POINT('',(-47.,33.,37.5));
#1967=CARTESIAN_POINT('',(-47.,33.,18.75));
#1968=CARTESIAN_POINT('',(-46.8427766621509,30.,37.5));
#1969=CARTESIAN_POINT('',(-47.,33.,37.5));
#1970=CARTESIAN_POINT('',(-46.8427766621509,30.,18.75));
#1971=CARTESIAN_POINT('Origin',(-39.5,33.,37.5));
#1972=CARTESIAN_POINT('',(-39.5,33.,45.));
#1973=CARTESIAN_POINT('Origin',(-39.5,33.,37.5));
#1974=CARTESIAN_POINT('',(-39.5,30.,44.8427766621509));
#1975=CARTESIAN_POINT('',(-39.5,33.,45.));
#1976=CARTESIAN_POINT('Origin',(-39.5,30.,37.5));
#1977=CARTESIAN_POINT('Origin',(39.5,33.,45.));
#1978=CARTESIAN_POINT('',(39.5,33.,45.));
#1979=CARTESIAN_POINT('',(19.75,33.,45.));
#1980=CARTESIAN_POINT('',(39.5,30.,44.8427766621509));
#1981=CARTESIAN_POINT('',(39.5,33.,45.));
#1982=CARTESIAN_POINT('',(19.75,30.,44.8427766621509));
#1983=CARTESIAN_POINT('Origin',(39.5,33.,37.5));
#1984=CARTESIAN_POINT('',(47.,33.,37.5));
#1985=CARTESIAN_POINT('Origin',(39.5,33.,37.5));
#1986=CARTESIAN_POINT('',(46.8427766621509,30.,37.5));
#1987=CARTESIAN_POINT('',(47.,33.,37.5));
#1988=CARTESIAN_POINT('Origin',(39.5,30.,37.5));
#1989=CARTESIAN_POINT('Origin',(47.,33.,-37.5));
#1990=CARTESIAN_POINT('',(47.,33.,-37.5));
#1991=CARTESIAN_POINT('',(47.,33.,-18.75));
#1992=CARTESIAN_POINT('',(46.8427766621509,30.,-37.5));
#1993=CARTESIAN_POINT('',(47.,33.,-37.5));
#1994=CARTESIAN_POINT('',(46.8427766621509,30.,-18.75));
#1995=CARTESIAN_POINT('Origin',(39.5,33.,-37.5));
#1996=CARTESIAN_POINT('',(39.5,33.,-45.));
#1997=CARTESIAN_POINT('Origin',(39.5,33.,-37.5));
#1998=CARTESIAN_POINT('',(39.5,30.,-44.8427766621509));
#1999=CARTESIAN_POINT('',(39.5,33.,-45.));
#2000=CARTESIAN_POINT('Origin',(39.5,30.,-37.5));
#2001=CARTESIAN_POINT('Origin',(-39.5,33.,-45.));
#2002=CARTESIAN_POINT('',(-19.75,33.,-45.));
#2003=CARTESIAN_POINT('',(-19.75,30.,-44.8427766621509));
#2004=CARTESIAN_POINT('Origin',(-4.44089209850063E-15,30.,-8.88178419700125E-15));
#2005=CARTESIAN_POINT('Origin',(39.5,15.,-37.5));
#2006=CARTESIAN_POINT('',(46.344902758962,27.5,-37.5));
#2007=CARTESIAN_POINT('',(47.,15.,-37.5));
#2008=CARTESIAN_POINT('',(39.5,27.5,-44.344902758962));
#2009=CARTESIAN_POINT('Origin',(39.5,27.5,-37.5));
#2010=CARTESIAN_POINT('',(39.5,15.,-45.));
#2011=CARTESIAN_POINT('Origin',(47.,15.,37.5));
#2012=CARTESIAN_POINT('',(46.344902758962,27.5,37.5));
#2013=CARTESIAN_POINT('',(47.,15.,37.5));
#2014=CARTESIAN_POINT('',(46.344902758962,27.5,18.75));
#2015=CARTESIAN_POINT('Origin',(39.5,15.,37.5));
#2016=CARTESIAN_POINT('',(39.5,27.5,44.344902758962));
#2017=CARTESIAN_POINT('',(39.5,15.,45.));
#2018=CARTESIAN_POINT('Origin',(39.5,27.5,37.5));
#2019=CARTESIAN_POINT('Origin',(-39.5,15.,45.));
#2020=CARTESIAN_POINT('',(-39.5,27.5,44.344902758962));
#2021=CARTESIAN_POINT('',(-39.5,15.,45.));
#2022=CARTESIAN_POINT('',(-19.75,27.5,44.344902758962));
#2023=CARTESIAN_POINT('Origin',(-39.5,15.,37.5));
#2024=CARTESIAN_POINT('',(-46.344902758962,27.5,37.5));
#2025=CARTESIAN_POINT('',(-47.,15.,37.5));
#2026=CARTESIAN_POINT('Origin',(-39.5,27.5,37.5));
#2027=CARTESIAN_POINT('Origin',(-47.,15.,-37.5));
#2028=CARTESIAN_POINT('',(-46.344902758962,27.5,-37.5));
#2029=CARTESIAN_POINT('',(-47.,15.,-37.5));
#2030=CARTESIAN_POINT('',(-46.344902758962,27.5,-18.75));
#2031=CARTESIAN_POINT('Origin',(-39.5,15.,-37.5));
#2032=CARTESIAN_POINT('',(-39.5,27.5,-44.344902758962));
#2033=CARTESIAN_POINT('',(-39.5,15.,-45.));
#2034=CARTESIAN_POINT('Origin',(-39.5,27.5,-37.5));
#2035=CARTESIAN_POINT('Origin',(39.5,15.,-45.));
#2036=CARTESIAN_POINT('',(19.75,27.5,-44.344902758962));
#2037=CARTESIAN_POINT('Origin',(-4.44089209850063E-15,27.5,-8.88178419700125E-15));
#2038=CARTESIAN_POINT('Origin',(-4.44089209850063E-15,33.,-8.88178419700125E-15));
#2039=CARTESIAN_POINT('',(0.,-15.,0.));
#2040=CARTESIAN_POINT('',(0.,15.,0.));
#2041=UNCERTAINTY_MEASURE_WITH_UNIT(LENGTH_MEASURE(0.01),#2047,
'DISTANCE_ACCURACY_VALUE',
'Maximum model space distance between geometric entities at asserted c
onnectivities');
#2042=UNCERTAINTY_MEASURE_WITH_UNIT(LENGTH_MEASURE(0.01),#2047,
'DISTANCE_ACCURACY_VALUE',
'Maximum model space distance between geometric entities at asserted c
onnectivities');
#2043=UNCERTAINTY_MEASURE_WITH_UNIT(LENGTH_MEASURE(0.01),#2047,
'DISTANCE_ACCURACY_VALUE',
'Maximum model space distance between geometric entities at asserted c
onnectivities');
#2044=(
GEOMETRIC_REPRESENTATION_CONTEXT(3)
GLOBAL_UNCERTAINTY_ASSIGNED_CONTEXT((#2041))
GLOBAL_UNIT_ASSIGNED_CONTEXT((#2047,#2049,#2050))
REPRESENTATION_CONTEXT('','3D')
);
#2045=(
GEOMETRIC_REPRESENTATION_CONTEXT(3)
GLOBAL_UNCERTAINTY_ASSIGNED_CONTEXT((#2042))
GLOBAL_UNIT_ASSIGNED_CONTEXT((#2047,#2049,#2050))
REPRESENTATION_CONTEXT('','3D')
);
#2046=(
GEOMETRIC_REPRESENTATION_CONTEXT(3)
GLOBAL_UNCERTAINTY_ASSIGNED_CONTEXT((#2043))
GLOBAL_UNIT_ASSIGNED_CONTEXT((#2047,#2049,#2050))
REPRESENTATION_CONTEXT('','3D')
);
#2047=(
LENGTH_UNIT()
NAMED_UNIT(*)
SI_UNIT(.MILLI.,.METRE.)
);
#2048=(
LENGTH_UNIT()
NAMED_UNIT(*)
SI_UNIT($,.METRE.)
);
#2049=(
NAMED_UNIT(*)
PLANE_ANGLE_UNIT()
SI_UNIT($,.RADIAN.)
);
#2050=(
NAMED_UNIT(*)
SI_UNIT($,.STERADIAN.)
SOLID_ANGLE_UNIT()
);
#2051=SHAPE_DEFINITION_REPRESENTATION(#2053,#2057);
#2052=SHAPE_DEFINITION_REPRESENTATION(#2054,#2058);
#2053=PRODUCT_DEFINITION_SHAPE('',$,#2060);
#2054=PRODUCT_DEFINITION_SHAPE('',$,#2061);
#2055=PRODUCT_DEFINITION_SHAPE($,$,#17);
#2056=PRODUCT_DEFINITION_SHAPE($,$,#18);
#2057=SHAPE_REPRESENTATION('',(#1205,#1328,#1329),#2044);
#2058=SHAPE_REPRESENTATION('',(#1206),#2045);
#2059=PRODUCT_DEFINITION_CONTEXT('part definition',#2067,'design');
#2060=PRODUCT_DEFINITION('final design SIMPLEST',
'final design SIMPLEST v2',#2062,#2059);
#2061=PRODUCT_DEFINITION('Component1','Component1',#2063,#2059);
#2062=PRODUCT_DEFINITION_FORMATION('',$,#2069);
#2063=PRODUCT_DEFINITION_FORMATION('',$,#2070);
#2064=PRODUCT_RELATED_PRODUCT_CATEGORY('final design SIMPLEST v2',
'final design SIMPLEST v2',(#2069));
#2065=PRODUCT_RELATED_PRODUCT_CATEGORY('Component1','Component1',(#2070));
#2066=APPLICATION_PROTOCOL_DEFINITION('international standard',
'automotive_design',2009,#2067);
#2067=APPLICATION_CONTEXT(
'Core Data for Automotive Mechanical Design Process');
#2068=PRODUCT_CONTEXT('part definition',#2067,'mechanical');
#2069=PRODUCT('final design SIMPLEST','final design SIMPLEST v2',$,(#2068));
#2070=PRODUCT('Component1','Component1',$,(#2068));
#2071=PRESENTATION_STYLE_ASSIGNMENT((#2073));
#2072=PRESENTATION_STYLE_ASSIGNMENT((#2074));
#2073=SURFACE_STYLE_USAGE(.BOTH.,#2075);
#2074=SURFACE_STYLE_USAGE(.BOTH.,#2076);
#2075=SURFACE_SIDE_STYLE('',(#2077));
#2076=SURFACE_SIDE_STYLE('',(#2078));
#2077=SURFACE_STYLE_FILL_AREA(#2079);
#2078=SURFACE_STYLE_FILL_AREA(#2080);
#2079=FILL_AREA_STYLE('Steel - Satin',(#2081));
#2080=FILL_AREA_STYLE('Opaque(246,246,243)',(#2082));
#2081=FILL_AREA_STYLE_COLOUR('Steel - Satin',#2083);
#2082=FILL_AREA_STYLE_COLOUR('Opaque(246,246,243)',#2084);
#2083=COLOUR_RGB('Steel - Satin',0.627450980392157,0.627450980392157,0.627450980392157);
#2084=COLOUR_RGB('Opaque(246,246,243)',0.964705882352941,0.964705882352941,
0.952941176470588);
ENDSEC;
END-ISO-10303-21;
