ISO-10303-21;
HEADER;
/* Generated by software containing ST-Developer
 * from STEP Tools, Inc. (www.steptools.com) 
 */

FILE_DESCRIPTION(
/* description */ ('STEP AP203'),
/* implementation_level */ '2;1');

FILE_NAME(
/* name */ 'Global-70 v1.step',
/* time_stamp */ '2026-03-14T09:19:46+01:00',
/* author */ (''),
/* organization */ (''),
/* preprocessor_version */ 'ST-DEVELOPER v20.1',
/* originating_system */ 'Autodesk Translation Framework v14.24.0.0',
/* authorisation */ '');

FILE_SCHEMA (('AUTOMOTIVE_DESIGN { 1 0 10303 214 3 1 1 }'));
ENDSEC;

DATA;
#10=MECHANICAL_DESIGN_GEOMETRIC_PRESENTATION_REPRESENTATION('',(#35,#36,
#37,#38,#39),#1592);
#11=ITEM_DEFINED_TRANSFORMATION($,$,#962,#1059);
#12=ITEM_DEFINED_TRANSFORMATION($,$,#984,#1060);
#13=ITEM_DEFINED_TRANSFORMATION($,$,#1006,#1061);
#14=ITEM_DEFINED_TRANSFORMATION($,$,#1052,#1062);
#15=(
REPRESENTATION_RELATIONSHIP($,$,#1612,#1611)
REPRESENTATION_RELATIONSHIP_WITH_TRANSFORMATION(#11)
SHAPE_REPRESENTATION_RELATIONSHIP()
);
#16=(
REPRESENTATION_RELATIONSHIP($,$,#1613,#1611)
REPRESENTATION_RELATIONSHIP_WITH_TRANSFORMATION(#12)
SHAPE_REPRESENTATION_RELATIONSHIP()
);
#17=(
REPRESENTATION_RELATIONSHIP($,$,#1614,#1611)
REPRESENTATION_RELATIONSHIP_WITH_TRANSFORMATION(#13)
SHAPE_REPRESENTATION_RELATIONSHIP()
);
#18=(
REPRESENTATION_RELATIONSHIP($,$,#1615,#1611)
REPRESENTATION_RELATIONSHIP_WITH_TRANSFORMATION(#14)
SHAPE_REPRESENTATION_RELATIONSHIP()
);
#19=CONTEXT_DEPENDENT_SHAPE_REPRESENTATION(#15,#1607);
#20=CONTEXT_DEPENDENT_SHAPE_REPRESENTATION(#16,#1608);
#21=CONTEXT_DEPENDENT_SHAPE_REPRESENTATION(#17,#1609);
#22=CONTEXT_DEPENDENT_SHAPE_REPRESENTATION(#18,#1610);
#23=NEXT_ASSEMBLY_USAGE_OCCURRENCE('Male-70:1','Male-70:1','Male-70:1',
#1617,#1618,'Male-70:1');
#24=NEXT_ASSEMBLY_USAGE_OCCURRENCE('Female-70:1','Female-70:1',
'Female-70:1',#1617,#1619,'Female-70:1');
#25=NEXT_ASSEMBLY_USAGE_OCCURRENCE(
'Lydia-F82-ConnectorPlate-120x120-SJ25_Lydia-V3-100F:1',
'Lydia-F82-ConnectorPlate-120x120-SJ25_Lydia-V3-100F:1',
'Lydia-F82-ConnectorPlate-120x120-SJ25_Lydia-V3-100F:1',#1617,#1620,
'Lydia-F82-ConnectorPlate-120x120-SJ25_Lydia-V3-100F:1');
#26=NEXT_ASSEMBLY_USAGE_OCCURRENCE('Stock-122-Adapter:1',
'Stock-122-Adapter:1','Stock-122-Adapter:1',#1617,#1621,
'Stock-122-Adapter:1');
#27=SHAPE_REPRESENTATION_RELATIONSHIP('SRR','None',#1612,#31);
#28=SHAPE_REPRESENTATION_RELATIONSHIP('SRR','None',#1613,#32);
#29=SHAPE_REPRESENTATION_RELATIONSHIP('SRR','None',#1614,#33);
#30=SHAPE_REPRESENTATION_RELATIONSHIP('SRR','None',#1615,#34);
#31=ADVANCED_BREP_SHAPE_REPRESENTATION('',(#40),#1588);
#32=ADVANCED_BREP_SHAPE_REPRESENTATION('',(#41),#1589);
#33=ADVANCED_BREP_SHAPE_REPRESENTATION('',(#42,#43),#1590);
#34=ADVANCED_BREP_SHAPE_REPRESENTATION('',(#44),#1591);
#35=STYLED_ITEM('',(#1640),#40);
#36=STYLED_ITEM('',(#1640),#41);
#37=STYLED_ITEM('',(#1640),#42);
#38=STYLED_ITEM('',(#1640),#43);
#39=STYLED_ITEM('',(#1640),#44);
#40=MANIFOLD_SOLID_BREP('Body1',#911);
#41=MANIFOLD_SOLID_BREP('Body1',#912);
#42=MANIFOLD_SOLID_BREP('Body1',#913);
#43=MANIFOLD_SOLID_BREP('Body2',#914);
#44=MANIFOLD_SOLID_BREP('Body1',#915);
#45=FACE_BOUND('',#172,.T.);
#46=FACE_BOUND('',#173,.T.);
#47=FACE_BOUND('',#174,.T.);
#48=FACE_BOUND('',#175,.T.);
#49=FACE_BOUND('',#177,.T.);
#50=FACE_BOUND('',#178,.T.);
#51=FACE_BOUND('',#179,.T.);
#52=FACE_BOUND('',#180,.T.);
#53=FACE_BOUND('',#181,.T.);
#54=FACE_BOUND('',#192,.T.);
#55=FACE_BOUND('',#193,.T.);
#56=FACE_BOUND('',#194,.T.);
#57=FACE_BOUND('',#195,.T.);
#58=FACE_BOUND('',#197,.T.);
#59=FACE_BOUND('',#198,.T.);
#60=FACE_BOUND('',#199,.T.);
#61=FACE_BOUND('',#200,.T.);
#62=FACE_BOUND('',#201,.T.);
#63=FACE_BOUND('',#205,.T.);
#64=FACE_BOUND('',#207,.T.);
#65=FACE_BOUND('',#223,.T.);
#66=FACE_BOUND('',#224,.T.);
#67=FACE_BOUND('',#225,.T.);
#68=FACE_BOUND('',#226,.T.);
#69=FACE_BOUND('',#227,.T.);
#70=FACE_BOUND('',#228,.T.);
#71=FACE_BOUND('',#229,.T.);
#72=FACE_BOUND('',#230,.T.);
#73=FACE_BOUND('',#231,.T.);
#74=FACE_BOUND('',#233,.T.);
#75=FACE_BOUND('',#234,.T.);
#76=FACE_BOUND('',#235,.T.);
#77=FACE_BOUND('',#236,.T.);
#78=FACE_BOUND('',#237,.T.);
#79=FACE_BOUND('',#238,.T.);
#80=FACE_BOUND('',#239,.T.);
#81=FACE_BOUND('',#240,.T.);
#82=FACE_BOUND('',#241,.T.);
#83=FACE_BOUND('',#243,.T.);
#84=PLANE('',#978);
#85=PLANE('',#979);
#86=PLANE('',#980);
#87=PLANE('',#981);
#88=PLANE('',#982);
#89=PLANE('',#983);
#90=PLANE('',#1000);
#91=PLANE('',#1001);
#92=PLANE('',#1002);
#93=PLANE('',#1003);
#94=PLANE('',#1004);
#95=PLANE('',#1005);
#96=PLANE('',#1013);
#97=PLANE('',#1014);
#98=PLANE('',#1045);
#99=PLANE('',#1046);
#100=PLANE('',#1047);
#101=PLANE('',#1048);
#102=PLANE('',#1049);
#103=PLANE('',#1050);
#104=PLANE('',#1051);
#105=PLANE('',#1053);
#106=PLANE('',#1054);
#107=PLANE('',#1055);
#108=PLANE('',#1056);
#109=PLANE('',#1057);
#110=PLANE('',#1058);
#111=SPHERICAL_SURFACE('',#975,32.);
#112=SPHERICAL_SURFACE('',#997,35.);
#113=FACE_OUTER_BOUND('',#162,.T.);
#114=FACE_OUTER_BOUND('',#163,.T.);
#115=FACE_OUTER_BOUND('',#164,.T.);
#116=FACE_OUTER_BOUND('',#165,.T.);
#117=FACE_OUTER_BOUND('',#166,.T.);
#118=FACE_OUTER_BOUND('',#167,.T.);
#119=FACE_OUTER_BOUND('',#168,.T.);
#120=FACE_OUTER_BOUND('',#169,.T.);
#121=FACE_OUTER_BOUND('',#170,.T.);
#122=FACE_OUTER_BOUND('',#171,.T.);
#123=FACE_OUTER_BOUND('',#176,.T.);
#124=FACE_OUTER_BOUND('',#182,.T.);
#125=FACE_OUTER_BOUND('',#183,.T.);
#126=FACE_OUTER_BOUND('',#184,.T.);
#127=FACE_OUTER_BOUND('',#185,.T.);
#128=FACE_OUTER_BOUND('',#186,.T.);
#129=FACE_OUTER_BOUND('',#187,.T.);
#130=FACE_OUTER_BOUND('',#188,.T.);
#131=FACE_OUTER_BOUND('',#189,.T.);
#132=FACE_OUTER_BOUND('',#190,.T.);
#133=FACE_OUTER_BOUND('',#191,.T.);
#134=FACE_OUTER_BOUND('',#196,.T.);
#135=FACE_OUTER_BOUND('',#202,.T.);
#136=FACE_OUTER_BOUND('',#203,.T.);
#137=FACE_OUTER_BOUND('',#204,.T.);
#138=FACE_OUTER_BOUND('',#206,.T.);
#139=FACE_OUTER_BOUND('',#208,.T.);
#140=FACE_OUTER_BOUND('',#209,.T.);
#141=FACE_OUTER_BOUND('',#210,.T.);
#142=FACE_OUTER_BOUND('',#211,.T.);
#143=FACE_OUTER_BOUND('',#212,.T.);
#144=FACE_OUTER_BOUND('',#213,.T.);
#145=FACE_OUTER_BOUND('',#214,.T.);
#146=FACE_OUTER_BOUND('',#215,.T.);
#147=FACE_OUTER_BOUND('',#216,.T.);
#148=FACE_OUTER_BOUND('',#217,.T.);
#149=FACE_OUTER_BOUND('',#218,.T.);
#150=FACE_OUTER_BOUND('',#219,.T.);
#151=FACE_OUTER_BOUND('',#220,.T.);
#152=FACE_OUTER_BOUND('',#221,.T.);
#153=FACE_OUTER_BOUND('',#222,.T.);
#154=FACE_OUTER_BOUND('',#232,.T.);
#155=FACE_OUTER_BOUND('',#242,.T.);
#156=FACE_OUTER_BOUND('',#244,.T.);
#157=FACE_OUTER_BOUND('',#245,.T.);
#158=FACE_OUTER_BOUND('',#246,.T.);
#159=FACE_OUTER_BOUND('',#247,.T.);
#160=FACE_OUTER_BOUND('',#248,.T.);
#161=FACE_OUTER_BOUND('',#249,.T.);
#162=EDGE_LOOP('',(#618,#619,#620,#621));
#163=EDGE_LOOP('',(#622,#623,#624,#625));
#164=EDGE_LOOP('',(#626,#627,#628,#629));
#165=EDGE_LOOP('',(#630,#631,#632,#633));
#166=EDGE_LOOP('',(#634,#635,#636));
#167=EDGE_LOOP('',(#637,#638,#639,#640));
#168=EDGE_LOOP('',(#641,#642,#643,#644));
#169=EDGE_LOOP('',(#645,#646,#647,#648));
#170=EDGE_LOOP('',(#649,#650,#651,#652));
#171=EDGE_LOOP('',(#653,#654,#655,#656));
#172=EDGE_LOOP('',(#657));
#173=EDGE_LOOP('',(#658));
#174=EDGE_LOOP('',(#659));
#175=EDGE_LOOP('',(#660));
#176=EDGE_LOOP('',(#661,#662,#663,#664));
#177=EDGE_LOOP('',(#665));
#178=EDGE_LOOP('',(#666));
#179=EDGE_LOOP('',(#667));
#180=EDGE_LOOP('',(#668));
#181=EDGE_LOOP('',(#669));
#182=EDGE_LOOP('',(#670,#671,#672,#673));
#183=EDGE_LOOP('',(#674,#675,#676,#677));
#184=EDGE_LOOP('',(#678,#679,#680,#681));
#185=EDGE_LOOP('',(#682,#683,#684,#685));
#186=EDGE_LOOP('',(#686,#687,#688));
#187=EDGE_LOOP('',(#689,#690,#691,#692));
#188=EDGE_LOOP('',(#693,#694,#695,#696));
#189=EDGE_LOOP('',(#697,#698,#699,#700));
#190=EDGE_LOOP('',(#701,#702,#703,#704));
#191=EDGE_LOOP('',(#705,#706,#707,#708));
#192=EDGE_LOOP('',(#709));
#193=EDGE_LOOP('',(#710));
#194=EDGE_LOOP('',(#711));
#195=EDGE_LOOP('',(#712));
#196=EDGE_LOOP('',(#713,#714,#715,#716));
#197=EDGE_LOOP('',(#717));
#198=EDGE_LOOP('',(#718));
#199=EDGE_LOOP('',(#719));
#200=EDGE_LOOP('',(#720));
#201=EDGE_LOOP('',(#721));
#202=EDGE_LOOP('',(#722,#723,#724,#725));
#203=EDGE_LOOP('',(#726,#727,#728,#729));
#204=EDGE_LOOP('',(#730));
#205=EDGE_LOOP('',(#731));
#206=EDGE_LOOP('',(#732));
#207=EDGE_LOOP('',(#733));
#208=EDGE_LOOP('',(#734,#735,#736,#737));
#209=EDGE_LOOP('',(#738,#739,#740,#741));
#210=EDGE_LOOP('',(#742,#743,#744,#745));
#211=EDGE_LOOP('',(#746,#747,#748,#749));
#212=EDGE_LOOP('',(#750,#751,#752,#753));
#213=EDGE_LOOP('',(#754,#755,#756,#757));
#214=EDGE_LOOP('',(#758,#759,#760,#761));
#215=EDGE_LOOP('',(#762,#763,#764,#765));
#216=EDGE_LOOP('',(#766,#767,#768,#769));
#217=EDGE_LOOP('',(#770,#771,#772,#773));
#218=EDGE_LOOP('',(#774,#775,#776,#777));
#219=EDGE_LOOP('',(#778,#779,#780,#781));
#220=EDGE_LOOP('',(#782,#783,#784,#785));
#221=EDGE_LOOP('',(#786,#787,#788,#789));
#222=EDGE_LOOP('',(#790,#791,#792,#793));
#223=EDGE_LOOP('',(#794));
#224=EDGE_LOOP('',(#795));
#225=EDGE_LOOP('',(#796));
#226=EDGE_LOOP('',(#797));
#227=EDGE_LOOP('',(#798));
#228=EDGE_LOOP('',(#799));
#229=EDGE_LOOP('',(#800));
#230=EDGE_LOOP('',(#801));
#231=EDGE_LOOP('',(#802));
#232=EDGE_LOOP('',(#803,#804,#805,#806));
#233=EDGE_LOOP('',(#807));
#234=EDGE_LOOP('',(#808));
#235=EDGE_LOOP('',(#809));
#236=EDGE_LOOP('',(#810));
#237=EDGE_LOOP('',(#811));
#238=EDGE_LOOP('',(#812));
#239=EDGE_LOOP('',(#813));
#240=EDGE_LOOP('',(#814));
#241=EDGE_LOOP('',(#815));
#242=EDGE_LOOP('',(#816));
#243=EDGE_LOOP('',(#817));
#244=EDGE_LOOP('',(#818,#819,#820,#821));
#245=EDGE_LOOP('',(#822,#823,#824,#825));
#246=EDGE_LOOP('',(#826,#827,#828,#829));
#247=EDGE_LOOP('',(#830,#831,#832,#833));
#248=EDGE_LOOP('',(#834,#835,#836,#837));
#249=EDGE_LOOP('',(#838,#839,#840,#841));
#250=LINE('',#1341,#318);
#251=LINE('',#1347,#319);
#252=LINE('',#1353,#320);
#253=LINE('',#1359,#321);
#254=LINE('',#1369,#322);
#255=LINE('',#1371,#323);
#256=LINE('',#1373,#324);
#257=LINE('',#1374,#325);
#258=LINE('',#1377,#326);
#259=LINE('',#1379,#327);
#260=LINE('',#1380,#328);
#261=LINE('',#1383,#329);
#262=LINE('',#1385,#330);
#263=LINE('',#1386,#331);
#264=LINE('',#1388,#332);
#265=LINE('',#1389,#333);
#266=LINE('',#1397,#334);
#267=LINE('',#1403,#335);
#268=LINE('',#1409,#336);
#269=LINE('',#1415,#337);
#270=LINE('',#1425,#338);
#271=LINE('',#1427,#339);
#272=LINE('',#1429,#340);
#273=LINE('',#1430,#341);
#274=LINE('',#1433,#342);
#275=LINE('',#1435,#343);
#276=LINE('',#1436,#344);
#277=LINE('',#1439,#345);
#278=LINE('',#1441,#346);
#279=LINE('',#1442,#347);
#280=LINE('',#1444,#348);
#281=LINE('',#1445,#349);
#282=LINE('',#1453,#350);
#283=LINE('',#1459,#351);
#284=LINE('',#1467,#352);
#285=LINE('',#1473,#353);
#286=LINE('',#1479,#354);
#287=LINE('',#1485,#355);
#288=LINE('',#1491,#356);
#289=LINE('',#1497,#357);
#290=LINE('',#1503,#358);
#291=LINE('',#1509,#359);
#292=LINE('',#1515,#360);
#293=LINE('',#1521,#361);
#294=LINE('',#1526,#362);
#295=LINE('',#1528,#363);
#296=LINE('',#1530,#364);
#297=LINE('',#1531,#365);
#298=LINE('',#1534,#366);
#299=LINE('',#1536,#367);
#300=LINE('',#1537,#368);
#301=LINE('',#1540,#369);
#302=LINE('',#1542,#370);
#303=LINE('',#1543,#371);
#304=LINE('',#1545,#372);
#305=LINE('',#1546,#373);
#306=LINE('',#1554,#374);
#307=LINE('',#1556,#375);
#308=LINE('',#1558,#376);
#309=LINE('',#1559,#377);
#310=LINE('',#1562,#378);
#311=LINE('',#1564,#379);
#312=LINE('',#1565,#380);
#313=LINE('',#1568,#381);
#314=LINE('',#1570,#382);
#315=LINE('',#1571,#383);
#316=LINE('',#1573,#384);
#317=LINE('',#1574,#385);
#318=VECTOR('',#1071,4.);
#319=VECTOR('',#1078,4.);
#320=VECTOR('',#1085,4.);
#321=VECTOR('',#1092,4.);
#322=VECTOR('',#1103,1000.);
#323=VECTOR('',#1104,1000.);
#324=VECTOR('',#1105,1000.);
#325=VECTOR('',#1106,1000.);
#326=VECTOR('',#1109,1000.);
#327=VECTOR('',#1110,1000.);
#328=VECTOR('',#1111,1000.);
#329=VECTOR('',#1114,1000.);
#330=VECTOR('',#1115,1000.);
#331=VECTOR('',#1116,1000.);
#332=VECTOR('',#1119,1000.);
#333=VECTOR('',#1120,1000.);
#334=VECTOR('',#1131,4.);
#335=VECTOR('',#1138,4.);
#336=VECTOR('',#1145,4.);
#337=VECTOR('',#1152,4.);
#338=VECTOR('',#1163,1000.);
#339=VECTOR('',#1164,1000.);
#340=VECTOR('',#1165,1000.);
#341=VECTOR('',#1166,1000.);
#342=VECTOR('',#1169,1000.);
#343=VECTOR('',#1170,1000.);
#344=VECTOR('',#1171,1000.);
#345=VECTOR('',#1174,1000.);
#346=VECTOR('',#1175,1000.);
#347=VECTOR('',#1176,1000.);
#348=VECTOR('',#1179,1000.);
#349=VECTOR('',#1180,1000.);
#350=VECTOR('',#1191,7.99999999999999);
#351=VECTOR('',#1198,15.);
#352=VECTOR('',#1209,2.5);
#353=VECTOR('',#1216,2.5);
#354=VECTOR('',#1223,2.5);
#355=VECTOR('',#1230,2.5);
#356=VECTOR('',#1237,2.5);
#357=VECTOR('',#1244,2.5);
#358=VECTOR('',#1251,2.5);
#359=VECTOR('',#1258,2.5);
#360=VECTOR('',#1265,30.);
#361=VECTOR('',#1272,8.);
#362=VECTOR('',#1277,1000.);
#363=VECTOR('',#1278,1000.);
#364=VECTOR('',#1279,1000.);
#365=VECTOR('',#1280,1000.);
#366=VECTOR('',#1283,1000.);
#367=VECTOR('',#1284,1000.);
#368=VECTOR('',#1285,1000.);
#369=VECTOR('',#1288,1000.);
#370=VECTOR('',#1289,1000.);
#371=VECTOR('',#1290,1000.);
#372=VECTOR('',#1293,1000.);
#373=VECTOR('',#1294,1000.);
#374=VECTOR('',#1305,1000.);
#375=VECTOR('',#1306,1000.);
#376=VECTOR('',#1307,1000.);
#377=VECTOR('',#1308,1000.);
#378=VECTOR('',#1311,1000.);
#379=VECTOR('',#1312,1000.);
#380=VECTOR('',#1313,1000.);
#381=VECTOR('',#1316,1000.);
#382=VECTOR('',#1317,1000.);
#383=VECTOR('',#1318,1000.);
#384=VECTOR('',#1321,1000.);
#385=VECTOR('',#1322,1000.);
#386=CIRCLE('',#964,4.);
#387=CIRCLE('',#965,4.);
#388=CIRCLE('',#967,4.);
#389=CIRCLE('',#968,4.);
#390=CIRCLE('',#970,4.);
#391=CIRCLE('',#971,4.);
#392=CIRCLE('',#973,4.);
#393=CIRCLE('',#974,4.);
#394=CIRCLE('',#976,32.);
#395=CIRCLE('',#977,32.);
#396=CIRCLE('',#986,4.);
#397=CIRCLE('',#987,4.);
#398=CIRCLE('',#989,4.);
#399=CIRCLE('',#990,4.);
#400=CIRCLE('',#992,4.);
#401=CIRCLE('',#993,4.);
#402=CIRCLE('',#995,4.);
#403=CIRCLE('',#996,4.);
#404=CIRCLE('',#998,35.);
#405=CIRCLE('',#999,35.);
#406=CIRCLE('',#1008,7.99999999999999);
#407=CIRCLE('',#1009,7.99999999999999);
#408=CIRCLE('',#1011,15.);
#409=CIRCLE('',#1012,15.);
#410=CIRCLE('',#1016,2.5);
#411=CIRCLE('',#1017,2.5);
#412=CIRCLE('',#1019,2.5);
#413=CIRCLE('',#1020,2.5);
#414=CIRCLE('',#1022,2.5);
#415=CIRCLE('',#1023,2.5);
#416=CIRCLE('',#1025,2.5);
#417=CIRCLE('',#1026,2.5);
#418=CIRCLE('',#1028,2.5);
#419=CIRCLE('',#1029,2.5);
#420=CIRCLE('',#1031,2.5);
#421=CIRCLE('',#1032,2.5);
#422=CIRCLE('',#1034,2.5);
#423=CIRCLE('',#1035,2.5);
#424=CIRCLE('',#1037,2.5);
#425=CIRCLE('',#1038,2.5);
#426=CIRCLE('',#1040,30.);
#427=CIRCLE('',#1041,30.);
#428=CIRCLE('',#1043,7.99999999999999);
#429=CIRCLE('',#1044,7.99999999999999);
#430=VERTEX_POINT('',#1338);
#431=VERTEX_POINT('',#1340);
#432=VERTEX_POINT('',#1344);
#433=VERTEX_POINT('',#1346);
#434=VERTEX_POINT('',#1350);
#435=VERTEX_POINT('',#1352);
#436=VERTEX_POINT('',#1356);
#437=VERTEX_POINT('',#1358);
#438=VERTEX_POINT('',#1362);
#439=VERTEX_POINT('',#1364);
#440=VERTEX_POINT('',#1367);
#441=VERTEX_POINT('',#1368);
#442=VERTEX_POINT('',#1370);
#443=VERTEX_POINT('',#1372);
#444=VERTEX_POINT('',#1376);
#445=VERTEX_POINT('',#1378);
#446=VERTEX_POINT('',#1382);
#447=VERTEX_POINT('',#1384);
#448=VERTEX_POINT('',#1394);
#449=VERTEX_POINT('',#1396);
#450=VERTEX_POINT('',#1400);
#451=VERTEX_POINT('',#1402);
#452=VERTEX_POINT('',#1406);
#453=VERTEX_POINT('',#1408);
#454=VERTEX_POINT('',#1412);
#455=VERTEX_POINT('',#1414);
#456=VERTEX_POINT('',#1418);
#457=VERTEX_POINT('',#1420);
#458=VERTEX_POINT('',#1423);
#459=VERTEX_POINT('',#1424);
#460=VERTEX_POINT('',#1426);
#461=VERTEX_POINT('',#1428);
#462=VERTEX_POINT('',#1432);
#463=VERTEX_POINT('',#1434);
#464=VERTEX_POINT('',#1438);
#465=VERTEX_POINT('',#1440);
#466=VERTEX_POINT('',#1450);
#467=VERTEX_POINT('',#1452);
#468=VERTEX_POINT('',#1456);
#469=VERTEX_POINT('',#1458);
#470=VERTEX_POINT('',#1464);
#471=VERTEX_POINT('',#1466);
#472=VERTEX_POINT('',#1470);
#473=VERTEX_POINT('',#1472);
#474=VERTEX_POINT('',#1476);
#475=VERTEX_POINT('',#1478);
#476=VERTEX_POINT('',#1482);
#477=VERTEX_POINT('',#1484);
#478=VERTEX_POINT('',#1488);
#479=VERTEX_POINT('',#1490);
#480=VERTEX_POINT('',#1494);
#481=VERTEX_POINT('',#1496);
#482=VERTEX_POINT('',#1500);
#483=VERTEX_POINT('',#1502);
#484=VERTEX_POINT('',#1506);
#485=VERTEX_POINT('',#1508);
#486=VERTEX_POINT('',#1512);
#487=VERTEX_POINT('',#1514);
#488=VERTEX_POINT('',#1518);
#489=VERTEX_POINT('',#1520);
#490=VERTEX_POINT('',#1524);
#491=VERTEX_POINT('',#1525);
#492=VERTEX_POINT('',#1527);
#493=VERTEX_POINT('',#1529);
#494=VERTEX_POINT('',#1533);
#495=VERTEX_POINT('',#1535);
#496=VERTEX_POINT('',#1539);
#497=VERTEX_POINT('',#1541);
#498=VERTEX_POINT('',#1552);
#499=VERTEX_POINT('',#1553);
#500=VERTEX_POINT('',#1555);
#501=VERTEX_POINT('',#1557);
#502=VERTEX_POINT('',#1561);
#503=VERTEX_POINT('',#1563);
#504=VERTEX_POINT('',#1567);
#505=VERTEX_POINT('',#1569);
#506=EDGE_CURVE('',#430,#430,#386,.T.);
#507=EDGE_CURVE('',#430,#431,#250,.T.);
#508=EDGE_CURVE('',#431,#431,#387,.T.);
#509=EDGE_CURVE('',#432,#432,#388,.T.);
#510=EDGE_CURVE('',#432,#433,#251,.T.);
#511=EDGE_CURVE('',#433,#433,#389,.T.);
#512=EDGE_CURVE('',#434,#434,#390,.T.);
#513=EDGE_CURVE('',#434,#435,#252,.T.);
#514=EDGE_CURVE('',#435,#435,#391,.T.);
#515=EDGE_CURVE('',#436,#436,#392,.T.);
#516=EDGE_CURVE('',#436,#437,#253,.T.);
#517=EDGE_CURVE('',#437,#437,#393,.T.);
#518=EDGE_CURVE('',#438,#438,#394,.T.);
#519=EDGE_CURVE('',#438,#439,#395,.T.);
#520=EDGE_CURVE('',#440,#441,#254,.T.);
#521=EDGE_CURVE('',#442,#441,#255,.T.);
#522=EDGE_CURVE('',#443,#442,#256,.T.);
#523=EDGE_CURVE('',#443,#440,#257,.T.);
#524=EDGE_CURVE('',#441,#444,#258,.T.);
#525=EDGE_CURVE('',#445,#444,#259,.T.);
#526=EDGE_CURVE('',#442,#445,#260,.T.);
#527=EDGE_CURVE('',#444,#446,#261,.T.);
#528=EDGE_CURVE('',#447,#446,#262,.T.);
#529=EDGE_CURVE('',#445,#447,#263,.T.);
#530=EDGE_CURVE('',#446,#440,#264,.T.);
#531=EDGE_CURVE('',#447,#443,#265,.T.);
#532=EDGE_CURVE('',#448,#448,#396,.T.);
#533=EDGE_CURVE('',#448,#449,#266,.T.);
#534=EDGE_CURVE('',#449,#449,#397,.T.);
#535=EDGE_CURVE('',#450,#450,#398,.T.);
#536=EDGE_CURVE('',#450,#451,#267,.T.);
#537=EDGE_CURVE('',#451,#451,#399,.T.);
#538=EDGE_CURVE('',#452,#452,#400,.T.);
#539=EDGE_CURVE('',#452,#453,#268,.T.);
#540=EDGE_CURVE('',#453,#453,#401,.T.);
#541=EDGE_CURVE('',#454,#454,#402,.T.);
#542=EDGE_CURVE('',#454,#455,#269,.T.);
#543=EDGE_CURVE('',#455,#455,#403,.T.);
#544=EDGE_CURVE('',#456,#456,#404,.T.);
#545=EDGE_CURVE('',#456,#457,#405,.T.);
#546=EDGE_CURVE('',#458,#459,#270,.T.);
#547=EDGE_CURVE('',#460,#459,#271,.T.);
#548=EDGE_CURVE('',#461,#460,#272,.T.);
#549=EDGE_CURVE('',#461,#458,#273,.T.);
#550=EDGE_CURVE('',#459,#462,#274,.T.);
#551=EDGE_CURVE('',#463,#462,#275,.T.);
#552=EDGE_CURVE('',#460,#463,#276,.T.);
#553=EDGE_CURVE('',#462,#464,#277,.T.);
#554=EDGE_CURVE('',#465,#464,#278,.T.);
#555=EDGE_CURVE('',#463,#465,#279,.T.);
#556=EDGE_CURVE('',#464,#458,#280,.T.);
#557=EDGE_CURVE('',#465,#461,#281,.T.);
#558=EDGE_CURVE('',#466,#466,#406,.T.);
#559=EDGE_CURVE('',#466,#467,#282,.T.);
#560=EDGE_CURVE('',#467,#467,#407,.T.);
#561=EDGE_CURVE('',#468,#468,#408,.T.);
#562=EDGE_CURVE('',#468,#469,#283,.T.);
#563=EDGE_CURVE('',#469,#469,#409,.T.);
#564=EDGE_CURVE('',#470,#470,#410,.T.);
#565=EDGE_CURVE('',#470,#471,#284,.T.);
#566=EDGE_CURVE('',#471,#471,#411,.T.);
#567=EDGE_CURVE('',#472,#472,#412,.T.);
#568=EDGE_CURVE('',#472,#473,#285,.T.);
#569=EDGE_CURVE('',#473,#473,#413,.T.);
#570=EDGE_CURVE('',#474,#474,#414,.T.);
#571=EDGE_CURVE('',#474,#475,#286,.T.);
#572=EDGE_CURVE('',#475,#475,#415,.T.);
#573=EDGE_CURVE('',#476,#476,#416,.T.);
#574=EDGE_CURVE('',#476,#477,#287,.T.);
#575=EDGE_CURVE('',#477,#477,#417,.T.);
#576=EDGE_CURVE('',#478,#478,#418,.T.);
#577=EDGE_CURVE('',#478,#479,#288,.T.);
#578=EDGE_CURVE('',#479,#479,#419,.T.);
#579=EDGE_CURVE('',#480,#480,#420,.T.);
#580=EDGE_CURVE('',#480,#481,#289,.T.);
#581=EDGE_CURVE('',#481,#481,#421,.T.);
#582=EDGE_CURVE('',#482,#482,#422,.T.);
#583=EDGE_CURVE('',#482,#483,#290,.T.);
#584=EDGE_CURVE('',#483,#483,#423,.T.);
#585=EDGE_CURVE('',#484,#484,#424,.T.);
#586=EDGE_CURVE('',#484,#485,#291,.T.);
#587=EDGE_CURVE('',#485,#485,#425,.T.);
#588=EDGE_CURVE('',#486,#486,#426,.T.);
#589=EDGE_CURVE('',#486,#487,#292,.T.);
#590=EDGE_CURVE('',#487,#487,#427,.T.);
#591=EDGE_CURVE('',#488,#488,#428,.T.);
#592=EDGE_CURVE('',#488,#489,#293,.T.);
#593=EDGE_CURVE('',#489,#489,#429,.T.);
#594=EDGE_CURVE('',#490,#491,#294,.T.);
#595=EDGE_CURVE('',#492,#490,#295,.T.);
#596=EDGE_CURVE('',#492,#493,#296,.T.);
#597=EDGE_CURVE('',#493,#491,#297,.T.);
#598=EDGE_CURVE('',#494,#490,#298,.T.);
#599=EDGE_CURVE('',#495,#494,#299,.T.);
#600=EDGE_CURVE('',#495,#492,#300,.T.);
#601=EDGE_CURVE('',#496,#494,#301,.T.);
#602=EDGE_CURVE('',#497,#496,#302,.T.);
#603=EDGE_CURVE('',#497,#495,#303,.T.);
#604=EDGE_CURVE('',#491,#496,#304,.T.);
#605=EDGE_CURVE('',#493,#497,#305,.T.);
#606=EDGE_CURVE('',#498,#499,#306,.T.);
#607=EDGE_CURVE('',#500,#499,#307,.T.);
#608=EDGE_CURVE('',#501,#500,#308,.T.);
#609=EDGE_CURVE('',#501,#498,#309,.T.);
#610=EDGE_CURVE('',#499,#502,#310,.T.);
#611=EDGE_CURVE('',#503,#502,#311,.T.);
#612=EDGE_CURVE('',#500,#503,#312,.T.);
#613=EDGE_CURVE('',#502,#504,#313,.T.);
#614=EDGE_CURVE('',#505,#504,#314,.T.);
#615=EDGE_CURVE('',#503,#505,#315,.T.);
#616=EDGE_CURVE('',#504,#498,#316,.T.);
#617=EDGE_CURVE('',#505,#501,#317,.T.);
#618=ORIENTED_EDGE('',*,*,#506,.F.);
#619=ORIENTED_EDGE('',*,*,#507,.T.);
#620=ORIENTED_EDGE('',*,*,#508,.F.);
#621=ORIENTED_EDGE('',*,*,#507,.F.);
#622=ORIENTED_EDGE('',*,*,#509,.F.);
#623=ORIENTED_EDGE('',*,*,#510,.T.);
#624=ORIENTED_EDGE('',*,*,#511,.F.);
#625=ORIENTED_EDGE('',*,*,#510,.F.);
#626=ORIENTED_EDGE('',*,*,#512,.F.);
#627=ORIENTED_EDGE('',*,*,#513,.T.);
#628=ORIENTED_EDGE('',*,*,#514,.F.);
#629=ORIENTED_EDGE('',*,*,#513,.F.);
#630=ORIENTED_EDGE('',*,*,#515,.F.);
#631=ORIENTED_EDGE('',*,*,#516,.T.);
#632=ORIENTED_EDGE('',*,*,#517,.F.);
#633=ORIENTED_EDGE('',*,*,#516,.F.);
#634=ORIENTED_EDGE('',*,*,#518,.T.);
#635=ORIENTED_EDGE('',*,*,#519,.T.);
#636=ORIENTED_EDGE('',*,*,#519,.F.);
#637=ORIENTED_EDGE('',*,*,#520,.T.);
#638=ORIENTED_EDGE('',*,*,#521,.F.);
#639=ORIENTED_EDGE('',*,*,#522,.F.);
#640=ORIENTED_EDGE('',*,*,#523,.T.);
#641=ORIENTED_EDGE('',*,*,#524,.T.);
#642=ORIENTED_EDGE('',*,*,#525,.F.);
#643=ORIENTED_EDGE('',*,*,#526,.F.);
#644=ORIENTED_EDGE('',*,*,#521,.T.);
#645=ORIENTED_EDGE('',*,*,#527,.T.);
#646=ORIENTED_EDGE('',*,*,#528,.F.);
#647=ORIENTED_EDGE('',*,*,#529,.F.);
#648=ORIENTED_EDGE('',*,*,#525,.T.);
#649=ORIENTED_EDGE('',*,*,#530,.T.);
#650=ORIENTED_EDGE('',*,*,#523,.F.);
#651=ORIENTED_EDGE('',*,*,#531,.F.);
#652=ORIENTED_EDGE('',*,*,#528,.T.);
#653=ORIENTED_EDGE('',*,*,#522,.T.);
#654=ORIENTED_EDGE('',*,*,#526,.T.);
#655=ORIENTED_EDGE('',*,*,#529,.T.);
#656=ORIENTED_EDGE('',*,*,#531,.T.);
#657=ORIENTED_EDGE('',*,*,#508,.T.);
#658=ORIENTED_EDGE('',*,*,#511,.T.);
#659=ORIENTED_EDGE('',*,*,#514,.T.);
#660=ORIENTED_EDGE('',*,*,#517,.T.);
#661=ORIENTED_EDGE('',*,*,#520,.F.);
#662=ORIENTED_EDGE('',*,*,#530,.F.);
#663=ORIENTED_EDGE('',*,*,#527,.F.);
#664=ORIENTED_EDGE('',*,*,#524,.F.);
#665=ORIENTED_EDGE('',*,*,#506,.T.);
#666=ORIENTED_EDGE('',*,*,#509,.T.);
#667=ORIENTED_EDGE('',*,*,#512,.T.);
#668=ORIENTED_EDGE('',*,*,#515,.T.);
#669=ORIENTED_EDGE('',*,*,#518,.F.);
#670=ORIENTED_EDGE('',*,*,#532,.F.);
#671=ORIENTED_EDGE('',*,*,#533,.T.);
#672=ORIENTED_EDGE('',*,*,#534,.T.);
#673=ORIENTED_EDGE('',*,*,#533,.F.);
#674=ORIENTED_EDGE('',*,*,#535,.F.);
#675=ORIENTED_EDGE('',*,*,#536,.T.);
#676=ORIENTED_EDGE('',*,*,#537,.T.);
#677=ORIENTED_EDGE('',*,*,#536,.F.);
#678=ORIENTED_EDGE('',*,*,#538,.F.);
#679=ORIENTED_EDGE('',*,*,#539,.T.);
#680=ORIENTED_EDGE('',*,*,#540,.T.);
#681=ORIENTED_EDGE('',*,*,#539,.F.);
#682=ORIENTED_EDGE('',*,*,#541,.F.);
#683=ORIENTED_EDGE('',*,*,#542,.T.);
#684=ORIENTED_EDGE('',*,*,#543,.T.);
#685=ORIENTED_EDGE('',*,*,#542,.F.);
#686=ORIENTED_EDGE('',*,*,#544,.T.);
#687=ORIENTED_EDGE('',*,*,#545,.T.);
#688=ORIENTED_EDGE('',*,*,#545,.F.);
#689=ORIENTED_EDGE('',*,*,#546,.T.);
#690=ORIENTED_EDGE('',*,*,#547,.F.);
#691=ORIENTED_EDGE('',*,*,#548,.F.);
#692=ORIENTED_EDGE('',*,*,#549,.T.);
#693=ORIENTED_EDGE('',*,*,#550,.T.);
#694=ORIENTED_EDGE('',*,*,#551,.F.);
#695=ORIENTED_EDGE('',*,*,#552,.F.);
#696=ORIENTED_EDGE('',*,*,#547,.T.);
#697=ORIENTED_EDGE('',*,*,#553,.T.);
#698=ORIENTED_EDGE('',*,*,#554,.F.);
#699=ORIENTED_EDGE('',*,*,#555,.F.);
#700=ORIENTED_EDGE('',*,*,#551,.T.);
#701=ORIENTED_EDGE('',*,*,#556,.T.);
#702=ORIENTED_EDGE('',*,*,#549,.F.);
#703=ORIENTED_EDGE('',*,*,#557,.F.);
#704=ORIENTED_EDGE('',*,*,#554,.T.);
#705=ORIENTED_EDGE('',*,*,#548,.T.);
#706=ORIENTED_EDGE('',*,*,#552,.T.);
#707=ORIENTED_EDGE('',*,*,#555,.T.);
#708=ORIENTED_EDGE('',*,*,#557,.T.);
#709=ORIENTED_EDGE('',*,*,#532,.T.);
#710=ORIENTED_EDGE('',*,*,#535,.T.);
#711=ORIENTED_EDGE('',*,*,#538,.T.);
#712=ORIENTED_EDGE('',*,*,#541,.T.);
#713=ORIENTED_EDGE('',*,*,#546,.F.);
#714=ORIENTED_EDGE('',*,*,#556,.F.);
#715=ORIENTED_EDGE('',*,*,#553,.F.);
#716=ORIENTED_EDGE('',*,*,#550,.F.);
#717=ORIENTED_EDGE('',*,*,#534,.F.);
#718=ORIENTED_EDGE('',*,*,#537,.F.);
#719=ORIENTED_EDGE('',*,*,#540,.F.);
#720=ORIENTED_EDGE('',*,*,#543,.F.);
#721=ORIENTED_EDGE('',*,*,#544,.F.);
#722=ORIENTED_EDGE('',*,*,#558,.T.);
#723=ORIENTED_EDGE('',*,*,#559,.T.);
#724=ORIENTED_EDGE('',*,*,#560,.T.);
#725=ORIENTED_EDGE('',*,*,#559,.F.);
#726=ORIENTED_EDGE('',*,*,#561,.T.);
#727=ORIENTED_EDGE('',*,*,#562,.T.);
#728=ORIENTED_EDGE('',*,*,#563,.F.);
#729=ORIENTED_EDGE('',*,*,#562,.F.);
#730=ORIENTED_EDGE('',*,*,#563,.T.);
#731=ORIENTED_EDGE('',*,*,#560,.F.);
#732=ORIENTED_EDGE('',*,*,#561,.F.);
#733=ORIENTED_EDGE('',*,*,#558,.F.);
#734=ORIENTED_EDGE('',*,*,#564,.T.);
#735=ORIENTED_EDGE('',*,*,#565,.T.);
#736=ORIENTED_EDGE('',*,*,#566,.F.);
#737=ORIENTED_EDGE('',*,*,#565,.F.);
#738=ORIENTED_EDGE('',*,*,#567,.T.);
#739=ORIENTED_EDGE('',*,*,#568,.T.);
#740=ORIENTED_EDGE('',*,*,#569,.F.);
#741=ORIENTED_EDGE('',*,*,#568,.F.);
#742=ORIENTED_EDGE('',*,*,#570,.F.);
#743=ORIENTED_EDGE('',*,*,#571,.T.);
#744=ORIENTED_EDGE('',*,*,#572,.T.);
#745=ORIENTED_EDGE('',*,*,#571,.F.);
#746=ORIENTED_EDGE('',*,*,#573,.F.);
#747=ORIENTED_EDGE('',*,*,#574,.T.);
#748=ORIENTED_EDGE('',*,*,#575,.T.);
#749=ORIENTED_EDGE('',*,*,#574,.F.);
#750=ORIENTED_EDGE('',*,*,#576,.T.);
#751=ORIENTED_EDGE('',*,*,#577,.T.);
#752=ORIENTED_EDGE('',*,*,#578,.F.);
#753=ORIENTED_EDGE('',*,*,#577,.F.);
#754=ORIENTED_EDGE('',*,*,#579,.T.);
#755=ORIENTED_EDGE('',*,*,#580,.T.);
#756=ORIENTED_EDGE('',*,*,#581,.F.);
#757=ORIENTED_EDGE('',*,*,#580,.F.);
#758=ORIENTED_EDGE('',*,*,#582,.F.);
#759=ORIENTED_EDGE('',*,*,#583,.T.);
#760=ORIENTED_EDGE('',*,*,#584,.T.);
#761=ORIENTED_EDGE('',*,*,#583,.F.);
#762=ORIENTED_EDGE('',*,*,#585,.F.);
#763=ORIENTED_EDGE('',*,*,#586,.T.);
#764=ORIENTED_EDGE('',*,*,#587,.T.);
#765=ORIENTED_EDGE('',*,*,#586,.F.);
#766=ORIENTED_EDGE('',*,*,#588,.F.);
#767=ORIENTED_EDGE('',*,*,#589,.T.);
#768=ORIENTED_EDGE('',*,*,#590,.T.);
#769=ORIENTED_EDGE('',*,*,#589,.F.);
#770=ORIENTED_EDGE('',*,*,#591,.T.);
#771=ORIENTED_EDGE('',*,*,#592,.T.);
#772=ORIENTED_EDGE('',*,*,#593,.F.);
#773=ORIENTED_EDGE('',*,*,#592,.F.);
#774=ORIENTED_EDGE('',*,*,#594,.F.);
#775=ORIENTED_EDGE('',*,*,#595,.F.);
#776=ORIENTED_EDGE('',*,*,#596,.T.);
#777=ORIENTED_EDGE('',*,*,#597,.T.);
#778=ORIENTED_EDGE('',*,*,#598,.F.);
#779=ORIENTED_EDGE('',*,*,#599,.F.);
#780=ORIENTED_EDGE('',*,*,#600,.T.);
#781=ORIENTED_EDGE('',*,*,#595,.T.);
#782=ORIENTED_EDGE('',*,*,#601,.F.);
#783=ORIENTED_EDGE('',*,*,#602,.F.);
#784=ORIENTED_EDGE('',*,*,#603,.T.);
#785=ORIENTED_EDGE('',*,*,#599,.T.);
#786=ORIENTED_EDGE('',*,*,#604,.F.);
#787=ORIENTED_EDGE('',*,*,#597,.F.);
#788=ORIENTED_EDGE('',*,*,#605,.T.);
#789=ORIENTED_EDGE('',*,*,#602,.T.);
#790=ORIENTED_EDGE('',*,*,#596,.F.);
#791=ORIENTED_EDGE('',*,*,#600,.F.);
#792=ORIENTED_EDGE('',*,*,#603,.F.);
#793=ORIENTED_EDGE('',*,*,#605,.F.);
#794=ORIENTED_EDGE('',*,*,#564,.F.);
#795=ORIENTED_EDGE('',*,*,#567,.F.);
#796=ORIENTED_EDGE('',*,*,#570,.T.);
#797=ORIENTED_EDGE('',*,*,#573,.T.);
#798=ORIENTED_EDGE('',*,*,#576,.F.);
#799=ORIENTED_EDGE('',*,*,#579,.F.);
#800=ORIENTED_EDGE('',*,*,#582,.T.);
#801=ORIENTED_EDGE('',*,*,#585,.T.);
#802=ORIENTED_EDGE('',*,*,#590,.F.);
#803=ORIENTED_EDGE('',*,*,#594,.T.);
#804=ORIENTED_EDGE('',*,*,#604,.T.);
#805=ORIENTED_EDGE('',*,*,#601,.T.);
#806=ORIENTED_EDGE('',*,*,#598,.T.);
#807=ORIENTED_EDGE('',*,*,#566,.T.);
#808=ORIENTED_EDGE('',*,*,#569,.T.);
#809=ORIENTED_EDGE('',*,*,#572,.F.);
#810=ORIENTED_EDGE('',*,*,#575,.F.);
#811=ORIENTED_EDGE('',*,*,#578,.T.);
#812=ORIENTED_EDGE('',*,*,#581,.T.);
#813=ORIENTED_EDGE('',*,*,#584,.F.);
#814=ORIENTED_EDGE('',*,*,#587,.F.);
#815=ORIENTED_EDGE('',*,*,#591,.F.);
#816=ORIENTED_EDGE('',*,*,#588,.T.);
#817=ORIENTED_EDGE('',*,*,#593,.T.);
#818=ORIENTED_EDGE('',*,*,#606,.T.);
#819=ORIENTED_EDGE('',*,*,#607,.F.);
#820=ORIENTED_EDGE('',*,*,#608,.F.);
#821=ORIENTED_EDGE('',*,*,#609,.T.);
#822=ORIENTED_EDGE('',*,*,#610,.T.);
#823=ORIENTED_EDGE('',*,*,#611,.F.);
#824=ORIENTED_EDGE('',*,*,#612,.F.);
#825=ORIENTED_EDGE('',*,*,#607,.T.);
#826=ORIENTED_EDGE('',*,*,#613,.T.);
#827=ORIENTED_EDGE('',*,*,#614,.F.);
#828=ORIENTED_EDGE('',*,*,#615,.F.);
#829=ORIENTED_EDGE('',*,*,#611,.T.);
#830=ORIENTED_EDGE('',*,*,#616,.T.);
#831=ORIENTED_EDGE('',*,*,#609,.F.);
#832=ORIENTED_EDGE('',*,*,#617,.F.);
#833=ORIENTED_EDGE('',*,*,#614,.T.);
#834=ORIENTED_EDGE('',*,*,#608,.T.);
#835=ORIENTED_EDGE('',*,*,#612,.T.);
#836=ORIENTED_EDGE('',*,*,#615,.T.);
#837=ORIENTED_EDGE('',*,*,#617,.T.);
#838=ORIENTED_EDGE('',*,*,#606,.F.);
#839=ORIENTED_EDGE('',*,*,#616,.F.);
#840=ORIENTED_EDGE('',*,*,#613,.F.);
#841=ORIENTED_EDGE('',*,*,#610,.F.);
#842=CYLINDRICAL_SURFACE('',#963,4.);
#843=CYLINDRICAL_SURFACE('',#966,4.);
#844=CYLINDRICAL_SURFACE('',#969,4.);
#845=CYLINDRICAL_SURFACE('',#972,4.);
#846=CYLINDRICAL_SURFACE('',#985,4.);
#847=CYLINDRICAL_SURFACE('',#988,4.);
#848=CYLINDRICAL_SURFACE('',#991,4.);
#849=CYLINDRICAL_SURFACE('',#994,4.);
#850=CYLINDRICAL_SURFACE('',#1007,7.99999999999999);
#851=CYLINDRICAL_SURFACE('',#1010,15.);
#852=CYLINDRICAL_SURFACE('',#1015,2.5);
#853=CYLINDRICAL_SURFACE('',#1018,2.5);
#854=CYLINDRICAL_SURFACE('',#1021,2.5);
#855=CYLINDRICAL_SURFACE('',#1024,2.5);
#856=CYLINDRICAL_SURFACE('',#1027,2.5);
#857=CYLINDRICAL_SURFACE('',#1030,2.5);
#858=CYLINDRICAL_SURFACE('',#1033,2.5);
#859=CYLINDRICAL_SURFACE('',#1036,2.5);
#860=CYLINDRICAL_SURFACE('',#1039,30.);
#861=CYLINDRICAL_SURFACE('',#1042,7.99999999999999);
#862=ADVANCED_FACE('',(#113),#842,.F.);
#863=ADVANCED_FACE('',(#114),#843,.F.);
#864=ADVANCED_FACE('',(#115),#844,.F.);
#865=ADVANCED_FACE('',(#116),#845,.F.);
#866=ADVANCED_FACE('',(#117),#111,.T.);
#867=ADVANCED_FACE('',(#118),#84,.F.);
#868=ADVANCED_FACE('',(#119),#85,.F.);
#869=ADVANCED_FACE('',(#120),#86,.F.);
#870=ADVANCED_FACE('',(#121),#87,.F.);
#871=ADVANCED_FACE('',(#122,#45,#46,#47,#48),#88,.F.);
#872=ADVANCED_FACE('',(#123,#49,#50,#51,#52,#53),#89,.T.);
#873=ADVANCED_FACE('',(#124),#846,.F.);
#874=ADVANCED_FACE('',(#125),#847,.F.);
#875=ADVANCED_FACE('',(#126),#848,.F.);
#876=ADVANCED_FACE('',(#127),#849,.F.);
#877=ADVANCED_FACE('',(#128),#112,.F.);
#878=ADVANCED_FACE('',(#129),#90,.F.);
#879=ADVANCED_FACE('',(#130),#91,.F.);
#880=ADVANCED_FACE('',(#131),#92,.F.);
#881=ADVANCED_FACE('',(#132),#93,.F.);
#882=ADVANCED_FACE('',(#133,#54,#55,#56,#57),#94,.F.);
#883=ADVANCED_FACE('',(#134,#58,#59,#60,#61,#62),#95,.T.);
#884=ADVANCED_FACE('',(#135),#850,.F.);
#885=ADVANCED_FACE('',(#136),#851,.T.);
#886=ADVANCED_FACE('',(#137,#63),#96,.T.);
#887=ADVANCED_FACE('',(#138,#64),#97,.F.);
#888=ADVANCED_FACE('',(#139),#852,.F.);
#889=ADVANCED_FACE('',(#140),#853,.F.);
#890=ADVANCED_FACE('',(#141),#854,.F.);
#891=ADVANCED_FACE('',(#142),#855,.F.);
#892=ADVANCED_FACE('',(#143),#856,.F.);
#893=ADVANCED_FACE('',(#144),#857,.F.);
#894=ADVANCED_FACE('',(#145),#858,.F.);
#895=ADVANCED_FACE('',(#146),#859,.F.);
#896=ADVANCED_FACE('',(#147),#860,.F.);
#897=ADVANCED_FACE('',(#148),#861,.F.);
#898=ADVANCED_FACE('',(#149),#98,.T.);
#899=ADVANCED_FACE('',(#150),#99,.T.);
#900=ADVANCED_FACE('',(#151),#100,.T.);
#901=ADVANCED_FACE('',(#152),#101,.T.);
#902=ADVANCED_FACE('',(#153,#65,#66,#67,#68,#69,#70,#71,#72,#73),#102,.F.);
#903=ADVANCED_FACE('',(#154,#74,#75,#76,#77,#78,#79,#80,#81,#82),#103,.T.);
#904=ADVANCED_FACE('',(#155,#83),#104,.T.);
#905=ADVANCED_FACE('',(#156),#105,.F.);
#906=ADVANCED_FACE('',(#157),#106,.F.);
#907=ADVANCED_FACE('',(#158),#107,.F.);
#908=ADVANCED_FACE('',(#159),#108,.F.);
#909=ADVANCED_FACE('',(#160),#109,.F.);
#910=ADVANCED_FACE('',(#161),#110,.T.);
#911=CLOSED_SHELL('',(#862,#863,#864,#865,#866,#867,#868,#869,#870,#871,
#872));
#912=CLOSED_SHELL('',(#873,#874,#875,#876,#877,#878,#879,#880,#881,#882,
#883));
#913=CLOSED_SHELL('',(#884,#885,#886,#887));
#914=CLOSED_SHELL('',(#888,#889,#890,#891,#892,#893,#894,#895,#896,#897,
#898,#899,#900,#901,#902,#903,#904));
#915=CLOSED_SHELL('',(#905,#906,#907,#908,#909,#910));
#916=DERIVED_UNIT_ELEMENT(#924,1.);
#917=DERIVED_UNIT_ELEMENT(#1594,-3.);
#918=DERIVED_UNIT_ELEMENT(#924,1.);
#919=DERIVED_UNIT_ELEMENT(#1594,-3.);
#920=DERIVED_UNIT_ELEMENT(#924,1.);
#921=DERIVED_UNIT_ELEMENT(#1594,-3.);
#922=DERIVED_UNIT_ELEMENT(#924,1.);
#923=DERIVED_UNIT_ELEMENT(#1594,-3.);
#924=(
MASS_UNIT()
NAMED_UNIT(*)
SI_UNIT(.KILO.,.GRAM.)
);
#925=DERIVED_UNIT((#916,#917));
#926=DERIVED_UNIT((#918,#919));
#927=DERIVED_UNIT((#920,#921));
#928=DERIVED_UNIT((#922,#923));
#929=MEASURE_REPRESENTATION_ITEM('density measure',
POSITIVE_RATIO_MEASURE(7850.),#925);
#930=MEASURE_REPRESENTATION_ITEM('density measure',
POSITIVE_RATIO_MEASURE(7850.),#926);
#931=MEASURE_REPRESENTATION_ITEM('density measure',
POSITIVE_RATIO_MEASURE(7850.),#927);
#932=MEASURE_REPRESENTATION_ITEM('density measure',
POSITIVE_RATIO_MEASURE(7850.),#928);
#933=PROPERTY_DEFINITION_REPRESENTATION(#953,#941);
#934=PROPERTY_DEFINITION_REPRESENTATION(#954,#942);
#935=PROPERTY_DEFINITION_REPRESENTATION(#955,#943);
#936=PROPERTY_DEFINITION_REPRESENTATION(#956,#944);
#937=PROPERTY_DEFINITION_REPRESENTATION(#957,#945);
#938=PROPERTY_DEFINITION_REPRESENTATION(#958,#946);
#939=PROPERTY_DEFINITION_REPRESENTATION(#959,#947);
#940=PROPERTY_DEFINITION_REPRESENTATION(#960,#948);
#941=REPRESENTATION('material name',(#949),#1588);
#942=REPRESENTATION('density',(#929),#1588);
#943=REPRESENTATION('material name',(#950),#1589);
#944=REPRESENTATION('density',(#930),#1589);
#945=REPRESENTATION('material name',(#951),#1590);
#946=REPRESENTATION('density',(#931),#1590);
#947=REPRESENTATION('material name',(#952),#1591);
#948=REPRESENTATION('density',(#932),#1591);
#949=DESCRIPTIVE_REPRESENTATION_ITEM('Steel','Steel');
#950=DESCRIPTIVE_REPRESENTATION_ITEM('Steel','Steel');
#951=DESCRIPTIVE_REPRESENTATION_ITEM('Steel','Steel');
#952=DESCRIPTIVE_REPRESENTATION_ITEM('Steel','Steel');
#953=PROPERTY_DEFINITION('material property','material name',#1618);
#954=PROPERTY_DEFINITION('material property','density of part',#1618);
#955=PROPERTY_DEFINITION('material property','material name',#1619);
#956=PROPERTY_DEFINITION('material property','density of part',#1619);
#957=PROPERTY_DEFINITION('material property','material name',#1620);
#958=PROPERTY_DEFINITION('material property','density of part',#1620);
#959=PROPERTY_DEFINITION('material property','material name',#1621);
#960=PROPERTY_DEFINITION('material property','density of part',#1621);
#961=AXIS2_PLACEMENT_3D('',#1335,#1063,#1064);
#962=AXIS2_PLACEMENT_3D('',#1336,#1065,#1066);
#963=AXIS2_PLACEMENT_3D('',#1337,#1067,#1068);
#964=AXIS2_PLACEMENT_3D('',#1339,#1069,#1070);
#965=AXIS2_PLACEMENT_3D('',#1342,#1072,#1073);
#966=AXIS2_PLACEMENT_3D('',#1343,#1074,#1075);
#967=AXIS2_PLACEMENT_3D('',#1345,#1076,#1077);
#968=AXIS2_PLACEMENT_3D('',#1348,#1079,#1080);
#969=AXIS2_PLACEMENT_3D('',#1349,#1081,#1082);
#970=AXIS2_PLACEMENT_3D('',#1351,#1083,#1084);
#971=AXIS2_PLACEMENT_3D('',#1354,#1086,#1087);
#972=AXIS2_PLACEMENT_3D('',#1355,#1088,#1089);
#973=AXIS2_PLACEMENT_3D('',#1357,#1090,#1091);
#974=AXIS2_PLACEMENT_3D('',#1360,#1093,#1094);
#975=AXIS2_PLACEMENT_3D('',#1361,#1095,#1096);
#976=AXIS2_PLACEMENT_3D('',#1363,#1097,#1098);
#977=AXIS2_PLACEMENT_3D('',#1365,#1099,#1100);
#978=AXIS2_PLACEMENT_3D('',#1366,#1101,#1102);
#979=AXIS2_PLACEMENT_3D('',#1375,#1107,#1108);
#980=AXIS2_PLACEMENT_3D('',#1381,#1112,#1113);
#981=AXIS2_PLACEMENT_3D('',#1387,#1117,#1118);
#982=AXIS2_PLACEMENT_3D('',#1390,#1121,#1122);
#983=AXIS2_PLACEMENT_3D('',#1391,#1123,#1124);
#984=AXIS2_PLACEMENT_3D('',#1392,#1125,#1126);
#985=AXIS2_PLACEMENT_3D('',#1393,#1127,#1128);
#986=AXIS2_PLACEMENT_3D('',#1395,#1129,#1130);
#987=AXIS2_PLACEMENT_3D('',#1398,#1132,#1133);
#988=AXIS2_PLACEMENT_3D('',#1399,#1134,#1135);
#989=AXIS2_PLACEMENT_3D('',#1401,#1136,#1137);
#990=AXIS2_PLACEMENT_3D('',#1404,#1139,#1140);
#991=AXIS2_PLACEMENT_3D('',#1405,#1141,#1142);
#992=AXIS2_PLACEMENT_3D('',#1407,#1143,#1144);
#993=AXIS2_PLACEMENT_3D('',#1410,#1146,#1147);
#994=AXIS2_PLACEMENT_3D('',#1411,#1148,#1149);
#995=AXIS2_PLACEMENT_3D('',#1413,#1150,#1151);
#996=AXIS2_PLACEMENT_3D('',#1416,#1153,#1154);
#997=AXIS2_PLACEMENT_3D('',#1417,#1155,#1156);
#998=AXIS2_PLACEMENT_3D('',#1419,#1157,#1158);
#999=AXIS2_PLACEMENT_3D('',#1421,#1159,#1160);
#1000=AXIS2_PLACEMENT_3D('',#1422,#1161,#1162);
#1001=AXIS2_PLACEMENT_3D('',#1431,#1167,#1168);
#1002=AXIS2_PLACEMENT_3D('',#1437,#1172,#1173);
#1003=AXIS2_PLACEMENT_3D('',#1443,#1177,#1178);
#1004=AXIS2_PLACEMENT_3D('',#1446,#1181,#1182);
#1005=AXIS2_PLACEMENT_3D('',#1447,#1183,#1184);
#1006=AXIS2_PLACEMENT_3D('',#1448,#1185,#1186);
#1007=AXIS2_PLACEMENT_3D('',#1449,#1187,#1188);
#1008=AXIS2_PLACEMENT_3D('',#1451,#1189,#1190);
#1009=AXIS2_PLACEMENT_3D('',#1454,#1192,#1193);
#1010=AXIS2_PLACEMENT_3D('',#1455,#1194,#1195);
#1011=AXIS2_PLACEMENT_3D('',#1457,#1196,#1197);
#1012=AXIS2_PLACEMENT_3D('',#1460,#1199,#1200);
#1013=AXIS2_PLACEMENT_3D('',#1461,#1201,#1202);
#1014=AXIS2_PLACEMENT_3D('',#1462,#1203,#1204);
#1015=AXIS2_PLACEMENT_3D('',#1463,#1205,#1206);
#1016=AXIS2_PLACEMENT_3D('',#1465,#1207,#1208);
#1017=AXIS2_PLACEMENT_3D('',#1468,#1210,#1211);
#1018=AXIS2_PLACEMENT_3D('',#1469,#1212,#1213);
#1019=AXIS2_PLACEMENT_3D('',#1471,#1214,#1215);
#1020=AXIS2_PLACEMENT_3D('',#1474,#1217,#1218);
#1021=AXIS2_PLACEMENT_3D('',#1475,#1219,#1220);
#1022=AXIS2_PLACEMENT_3D('',#1477,#1221,#1222);
#1023=AXIS2_PLACEMENT_3D('',#1480,#1224,#1225);
#1024=AXIS2_PLACEMENT_3D('',#1481,#1226,#1227);
#1025=AXIS2_PLACEMENT_3D('',#1483,#1228,#1229);
#1026=AXIS2_PLACEMENT_3D('',#1486,#1231,#1232);
#1027=AXIS2_PLACEMENT_3D('',#1487,#1233,#1234);
#1028=AXIS2_PLACEMENT_3D('',#1489,#1235,#1236);
#1029=AXIS2_PLACEMENT_3D('',#1492,#1238,#1239);
#1030=AXIS2_PLACEMENT_3D('',#1493,#1240,#1241);
#1031=AXIS2_PLACEMENT_3D('',#1495,#1242,#1243);
#1032=AXIS2_PLACEMENT_3D('',#1498,#1245,#1246);
#1033=AXIS2_PLACEMENT_3D('',#1499,#1247,#1248);
#1034=AXIS2_PLACEMENT_3D('',#1501,#1249,#1250);
#1035=AXIS2_PLACEMENT_3D('',#1504,#1252,#1253);
#1036=AXIS2_PLACEMENT_3D('',#1505,#1254,#1255);
#1037=AXIS2_PLACEMENT_3D('',#1507,#1256,#1257);
#1038=AXIS2_PLACEMENT_3D('',#1510,#1259,#1260);
#1039=AXIS2_PLACEMENT_3D('',#1511,#1261,#1262);
#1040=AXIS2_PLACEMENT_3D('',#1513,#1263,#1264);
#1041=AXIS2_PLACEMENT_3D('',#1516,#1266,#1267);
#1042=AXIS2_PLACEMENT_3D('',#1517,#1268,#1269);
#1043=AXIS2_PLACEMENT_3D('',#1519,#1270,#1271);
#1044=AXIS2_PLACEMENT_3D('',#1522,#1273,#1274);
#1045=AXIS2_PLACEMENT_3D('',#1523,#1275,#1276);
#1046=AXIS2_PLACEMENT_3D('',#1532,#1281,#1282);
#1047=AXIS2_PLACEMENT_3D('',#1538,#1286,#1287);
#1048=AXIS2_PLACEMENT_3D('',#1544,#1291,#1292);
#1049=AXIS2_PLACEMENT_3D('',#1547,#1295,#1296);
#1050=AXIS2_PLACEMENT_3D('',#1548,#1297,#1298);
#1051=AXIS2_PLACEMENT_3D('',#1549,#1299,#1300);
#1052=AXIS2_PLACEMENT_3D('',#1550,#1301,#1302);
#1053=AXIS2_PLACEMENT_3D('',#1551,#1303,#1304);
#1054=AXIS2_PLACEMENT_3D('',#1560,#1309,#1310);
#1055=AXIS2_PLACEMENT_3D('',#1566,#1314,#1315);
#1056=AXIS2_PLACEMENT_3D('',#1572,#1319,#1320);
#1057=AXIS2_PLACEMENT_3D('',#1575,#1323,#1324);
#1058=AXIS2_PLACEMENT_3D('',#1576,#1325,#1326);
#1059=AXIS2_PLACEMENT_3D('',#1577,#1327,#1328);
#1060=AXIS2_PLACEMENT_3D('',#1578,#1329,#1330);
#1061=AXIS2_PLACEMENT_3D('',#1579,#1331,#1332);
#1062=AXIS2_PLACEMENT_3D('',#1580,#1333,#1334);
#1063=DIRECTION('axis',(0.,0.,1.));
#1064=DIRECTION('refdir',(1.,0.,0.));
#1065=DIRECTION('axis',(0.,0.,1.));
#1066=DIRECTION('refdir',(1.,0.,0.));
#1067=DIRECTION('center_axis',(0.,1.,0.));
#1068=DIRECTION('ref_axis',(0.,0.,1.));
#1069=DIRECTION('center_axis',(0.,1.,0.));
#1070=DIRECTION('ref_axis',(0.,0.,-1.));
#1071=DIRECTION('',(0.,1.,0.));
#1072=DIRECTION('center_axis',(0.,-1.,0.));
#1073=DIRECTION('ref_axis',(0.,0.,1.));
#1074=DIRECTION('center_axis',(0.,1.,0.));
#1075=DIRECTION('ref_axis',(0.,0.,1.));
#1076=DIRECTION('center_axis',(0.,1.,0.));
#1077=DIRECTION('ref_axis',(0.,0.,-1.));
#1078=DIRECTION('',(0.,1.,0.));
#1079=DIRECTION('center_axis',(0.,-1.,0.));
#1080=DIRECTION('ref_axis',(0.,0.,-1.));
#1081=DIRECTION('center_axis',(0.,1.,0.));
#1082=DIRECTION('ref_axis',(0.,0.,1.));
#1083=DIRECTION('center_axis',(0.,1.,0.));
#1084=DIRECTION('ref_axis',(0.,0.,-1.));
#1085=DIRECTION('',(0.,1.,0.));
#1086=DIRECTION('center_axis',(0.,-1.,0.));
#1087=DIRECTION('ref_axis',(0.,0.,1.));
#1088=DIRECTION('center_axis',(0.,1.,0.));
#1089=DIRECTION('ref_axis',(0.,0.,1.));
#1090=DIRECTION('center_axis',(0.,1.,0.));
#1091=DIRECTION('ref_axis',(0.,0.,-1.));
#1092=DIRECTION('',(0.,1.,0.));
#1093=DIRECTION('center_axis',(0.,-1.,0.));
#1094=DIRECTION('ref_axis',(0.,0.,-1.));
#1095=DIRECTION('center_axis',(0.,1.,-6.12323399573677E-17));
#1096=DIRECTION('ref_axis',(0.,0.,-1.));
#1097=DIRECTION('center_axis',(0.,-1.,0.));
#1098=DIRECTION('ref_axis',(0.,0.,-1.));
#1099=DIRECTION('center_axis',(1.,0.,-1.22464679914735E-16));
#1100=DIRECTION('ref_axis',(1.22464679914735E-16,0.,1.));
#1101=DIRECTION('center_axis',(-1.,0.,0.));
#1102=DIRECTION('ref_axis',(0.,0.,1.));
#1103=DIRECTION('',(0.,0.,-1.));
#1104=DIRECTION('',(0.,-1.,0.));
#1105=DIRECTION('',(0.,0.,-1.));
#1106=DIRECTION('',(0.,-1.,0.));
#1107=DIRECTION('center_axis',(0.,0.,1.));
#1108=DIRECTION('ref_axis',(1.,0.,0.));
#1109=DIRECTION('',(-1.,0.,0.));
#1110=DIRECTION('',(0.,-1.,0.));
#1111=DIRECTION('',(-1.,0.,0.));
#1112=DIRECTION('center_axis',(1.,0.,0.));
#1113=DIRECTION('ref_axis',(0.,0.,-1.));
#1114=DIRECTION('',(0.,0.,1.));
#1115=DIRECTION('',(0.,-1.,0.));
#1116=DIRECTION('',(0.,0.,1.));
#1117=DIRECTION('center_axis',(0.,0.,-1.));
#1118=DIRECTION('ref_axis',(-1.,0.,0.));
#1119=DIRECTION('',(1.,0.,0.));
#1120=DIRECTION('',(1.,0.,0.));
#1121=DIRECTION('center_axis',(0.,-1.,0.));
#1122=DIRECTION('ref_axis',(0.,0.,-1.));
#1123=DIRECTION('center_axis',(0.,-1.,0.));
#1124=DIRECTION('ref_axis',(0.,0.,-1.));
#1125=DIRECTION('axis',(0.,0.,1.));
#1126=DIRECTION('refdir',(1.,0.,0.));
#1127=DIRECTION('center_axis',(0.,-1.,0.));
#1128=DIRECTION('ref_axis',(0.,0.,-1.));
#1129=DIRECTION('center_axis',(0.,-1.,0.));
#1130=DIRECTION('ref_axis',(0.,0.,1.));
#1131=DIRECTION('',(0.,-1.,0.));
#1132=DIRECTION('center_axis',(0.,-1.,0.));
#1133=DIRECTION('ref_axis',(0.,0.,1.));
#1134=DIRECTION('center_axis',(0.,-1.,0.));
#1135=DIRECTION('ref_axis',(0.,0.,-1.));
#1136=DIRECTION('center_axis',(0.,-1.,0.));
#1137=DIRECTION('ref_axis',(0.,0.,-1.));
#1138=DIRECTION('',(0.,-1.,0.));
#1139=DIRECTION('center_axis',(0.,-1.,0.));
#1140=DIRECTION('ref_axis',(0.,0.,-1.));
#1141=DIRECTION('center_axis',(0.,-1.,0.));
#1142=DIRECTION('ref_axis',(0.,0.,-1.));
#1143=DIRECTION('center_axis',(0.,-1.,0.));
#1144=DIRECTION('ref_axis',(0.,0.,1.));
#1145=DIRECTION('',(0.,-1.,0.));
#1146=DIRECTION('center_axis',(0.,-1.,0.));
#1147=DIRECTION('ref_axis',(0.,0.,1.));
#1148=DIRECTION('center_axis',(0.,-1.,0.));
#1149=DIRECTION('ref_axis',(0.,0.,-1.));
#1150=DIRECTION('center_axis',(0.,-1.,0.));
#1151=DIRECTION('ref_axis',(0.,0.,-1.));
#1152=DIRECTION('',(0.,-1.,0.));
#1153=DIRECTION('center_axis',(0.,-1.,0.));
#1154=DIRECTION('ref_axis',(0.,0.,-1.));
#1155=DIRECTION('center_axis',(0.,1.,-6.12323399573677E-17));
#1156=DIRECTION('ref_axis',(0.,0.,-1.));
#1157=DIRECTION('center_axis',(0.,-1.,0.));
#1158=DIRECTION('ref_axis',(0.,0.,-1.));
#1159=DIRECTION('center_axis',(-1.,0.,1.22464679914735E-16));
#1160=DIRECTION('ref_axis',(1.22464679914735E-16,0.,1.));
#1161=DIRECTION('center_axis',(-1.,0.,0.));
#1162=DIRECTION('ref_axis',(0.,0.,1.));
#1163=DIRECTION('',(0.,0.,-1.));
#1164=DIRECTION('',(0.,-1.,0.));
#1165=DIRECTION('',(0.,0.,-1.));
#1166=DIRECTION('',(0.,-1.,0.));
#1167=DIRECTION('center_axis',(0.,0.,1.));
#1168=DIRECTION('ref_axis',(1.,0.,0.));
#1169=DIRECTION('',(-1.,0.,0.));
#1170=DIRECTION('',(0.,-1.,0.));
#1171=DIRECTION('',(-1.,0.,0.));
#1172=DIRECTION('center_axis',(1.,0.,0.));
#1173=DIRECTION('ref_axis',(0.,0.,-1.));
#1174=DIRECTION('',(0.,0.,1.));
#1175=DIRECTION('',(0.,-1.,0.));
#1176=DIRECTION('',(0.,0.,1.));
#1177=DIRECTION('center_axis',(0.,0.,-1.));
#1178=DIRECTION('ref_axis',(-1.,0.,0.));
#1179=DIRECTION('',(1.,0.,0.));
#1180=DIRECTION('',(1.,0.,0.));
#1181=DIRECTION('center_axis',(0.,-1.,0.));
#1182=DIRECTION('ref_axis',(0.,0.,-1.));
#1183=DIRECTION('center_axis',(0.,-1.,0.));
#1184=DIRECTION('ref_axis',(0.,0.,-1.));
#1185=DIRECTION('axis',(0.,0.,1.));
#1186=DIRECTION('refdir',(1.,0.,0.));
#1187=DIRECTION('center_axis',(0.,1.,0.));
#1188=DIRECTION('ref_axis',(0.,0.,1.));
#1189=DIRECTION('center_axis',(0.,-1.,0.));
#1190=DIRECTION('ref_axis',(0.,0.,1.));
#1191=DIRECTION('',(0.,1.,0.));
#1192=DIRECTION('center_axis',(0.,1.,0.));
#1193=DIRECTION('ref_axis',(0.,0.,1.));
#1194=DIRECTION('center_axis',(0.,-1.,0.));
#1195=DIRECTION('ref_axis',(0.,0.,-1.));
#1196=DIRECTION('center_axis',(0.,1.,0.));
#1197=DIRECTION('ref_axis',(0.,0.,1.));
#1198=DIRECTION('',(0.,1.,0.));
#1199=DIRECTION('center_axis',(0.,1.,0.));
#1200=DIRECTION('ref_axis',(0.,0.,1.));
#1201=DIRECTION('center_axis',(0.,1.,0.));
#1202=DIRECTION('ref_axis',(0.,0.,1.));
#1203=DIRECTION('center_axis',(0.,1.,0.));
#1204=DIRECTION('ref_axis',(0.,0.,1.));
#1205=DIRECTION('center_axis',(0.,-1.,0.));
#1206=DIRECTION('ref_axis',(0.,0.,-1.));
#1207=DIRECTION('center_axis',(0.,1.,0.));
#1208=DIRECTION('ref_axis',(0.,0.,-1.));
#1209=DIRECTION('',(0.,-1.,0.));
#1210=DIRECTION('center_axis',(0.,1.,0.));
#1211=DIRECTION('ref_axis',(0.,0.,-1.));
#1212=DIRECTION('center_axis',(0.,-1.,0.));
#1213=DIRECTION('ref_axis',(0.,0.,-1.));
#1214=DIRECTION('center_axis',(0.,1.,0.));
#1215=DIRECTION('ref_axis',(0.,0.,-1.));
#1216=DIRECTION('',(0.,-1.,0.));
#1217=DIRECTION('center_axis',(0.,1.,0.));
#1218=DIRECTION('ref_axis',(0.,0.,-1.));
#1219=DIRECTION('center_axis',(0.,-1.,0.));
#1220=DIRECTION('ref_axis',(0.,0.,-1.));
#1221=DIRECTION('center_axis',(0.,-1.,0.));
#1222=DIRECTION('ref_axis',(0.,0.,1.));
#1223=DIRECTION('',(0.,-1.,0.));
#1224=DIRECTION('center_axis',(0.,-1.,0.));
#1225=DIRECTION('ref_axis',(0.,0.,1.));
#1226=DIRECTION('center_axis',(0.,-1.,0.));
#1227=DIRECTION('ref_axis',(0.,0.,-1.));
#1228=DIRECTION('center_axis',(0.,-1.,0.));
#1229=DIRECTION('ref_axis',(0.,0.,1.));
#1230=DIRECTION('',(0.,-1.,0.));
#1231=DIRECTION('center_axis',(0.,-1.,0.));
#1232=DIRECTION('ref_axis',(0.,0.,1.));
#1233=DIRECTION('center_axis',(0.,-1.,0.));
#1234=DIRECTION('ref_axis',(0.,0.,-1.));
#1235=DIRECTION('center_axis',(0.,1.,0.));
#1236=DIRECTION('ref_axis',(0.,0.,1.));
#1237=DIRECTION('',(0.,-1.,0.));
#1238=DIRECTION('center_axis',(0.,1.,0.));
#1239=DIRECTION('ref_axis',(0.,0.,1.));
#1240=DIRECTION('center_axis',(0.,-1.,0.));
#1241=DIRECTION('ref_axis',(0.,0.,-1.));
#1242=DIRECTION('center_axis',(0.,1.,0.));
#1243=DIRECTION('ref_axis',(0.,0.,1.));
#1244=DIRECTION('',(0.,-1.,0.));
#1245=DIRECTION('center_axis',(0.,1.,0.));
#1246=DIRECTION('ref_axis',(0.,0.,1.));
#1247=DIRECTION('center_axis',(0.,-1.,0.));
#1248=DIRECTION('ref_axis',(0.,0.,-1.));
#1249=DIRECTION('center_axis',(0.,-1.,0.));
#1250=DIRECTION('ref_axis',(0.,0.,-1.));
#1251=DIRECTION('',(0.,-1.,0.));
#1252=DIRECTION('center_axis',(0.,-1.,0.));
#1253=DIRECTION('ref_axis',(0.,0.,-1.));
#1254=DIRECTION('center_axis',(0.,-1.,0.));
#1255=DIRECTION('ref_axis',(0.,0.,-1.));
#1256=DIRECTION('center_axis',(0.,-1.,0.));
#1257=DIRECTION('ref_axis',(0.,0.,-1.));
#1258=DIRECTION('',(0.,-1.,0.));
#1259=DIRECTION('center_axis',(0.,-1.,0.));
#1260=DIRECTION('ref_axis',(0.,0.,-1.));
#1261=DIRECTION('center_axis',(0.,1.,0.));
#1262=DIRECTION('ref_axis',(0.,0.,1.));
#1263=DIRECTION('center_axis',(0.,1.,0.));
#1264=DIRECTION('ref_axis',(0.,0.,1.));
#1265=DIRECTION('',(0.,1.,0.));
#1266=DIRECTION('center_axis',(0.,1.,0.));
#1267=DIRECTION('ref_axis',(0.,0.,1.));
#1268=DIRECTION('center_axis',(0.,1.,0.));
#1269=DIRECTION('ref_axis',(0.,0.,1.));
#1270=DIRECTION('center_axis',(0.,-1.,0.));
#1271=DIRECTION('ref_axis',(0.,0.,-1.));
#1272=DIRECTION('',(0.,1.,0.));
#1273=DIRECTION('center_axis',(0.,-1.,0.));
#1274=DIRECTION('ref_axis',(0.,0.,1.));
#1275=DIRECTION('center_axis',(5.78241158658936E-17,0.,-1.));
#1276=DIRECTION('ref_axis',(-1.,0.,-5.78241158658936E-17));
#1277=DIRECTION('',(1.,0.,5.78241158658936E-17));
#1278=DIRECTION('',(0.,-1.,0.));
#1279=DIRECTION('',(1.,0.,5.78241158658936E-17));
#1280=DIRECTION('',(0.,-1.,0.));
#1281=DIRECTION('center_axis',(-1.,0.,-5.78241158658936E-17));
#1282=DIRECTION('ref_axis',(-5.78241158658936E-17,0.,1.));
#1283=DIRECTION('',(5.78241158658936E-17,0.,-1.));
#1284=DIRECTION('',(0.,-1.,0.));
#1285=DIRECTION('',(5.78241158658936E-17,0.,-1.));
#1286=DIRECTION('center_axis',(0.,0.,1.));
#1287=DIRECTION('ref_axis',(1.,0.,0.));
#1288=DIRECTION('',(-1.,0.,0.));
#1289=DIRECTION('',(0.,-1.,0.));
#1290=DIRECTION('',(-1.,0.,0.));
#1291=DIRECTION('center_axis',(1.,0.,0.));
#1292=DIRECTION('ref_axis',(0.,0.,-1.));
#1293=DIRECTION('',(0.,0.,1.));
#1294=DIRECTION('',(0.,0.,1.));
#1295=DIRECTION('center_axis',(0.,-1.,0.));
#1296=DIRECTION('ref_axis',(0.,0.,-1.));
#1297=DIRECTION('center_axis',(0.,-1.,0.));
#1298=DIRECTION('ref_axis',(0.,0.,-1.));
#1299=DIRECTION('center_axis',(0.,1.,0.));
#1300=DIRECTION('ref_axis',(0.,0.,1.));
#1301=DIRECTION('axis',(0.,0.,1.));
#1302=DIRECTION('refdir',(1.,0.,0.));
#1303=DIRECTION('center_axis',(-1.,0.,0.));
#1304=DIRECTION('ref_axis',(0.,0.,1.));
#1305=DIRECTION('',(0.,0.,-1.));
#1306=DIRECTION('',(0.,-1.,0.));
#1307=DIRECTION('',(0.,0.,-1.));
#1308=DIRECTION('',(0.,-1.,0.));
#1309=DIRECTION('center_axis',(0.,0.,1.));
#1310=DIRECTION('ref_axis',(1.,0.,0.));
#1311=DIRECTION('',(-1.,0.,0.));
#1312=DIRECTION('',(0.,-1.,0.));
#1313=DIRECTION('',(-1.,0.,0.));
#1314=DIRECTION('center_axis',(1.,0.,0.));
#1315=DIRECTION('ref_axis',(0.,0.,-1.));
#1316=DIRECTION('',(0.,0.,1.));
#1317=DIRECTION('',(0.,-1.,0.));
#1318=DIRECTION('',(0.,0.,1.));
#1319=DIRECTION('center_axis',(0.,0.,-1.));
#1320=DIRECTION('ref_axis',(-1.,0.,0.));
#1321=DIRECTION('',(1.,0.,0.));
#1322=DIRECTION('',(1.,0.,0.));
#1323=DIRECTION('center_axis',(0.,-1.,0.));
#1324=DIRECTION('ref_axis',(0.,0.,-1.));
#1325=DIRECTION('center_axis',(0.,-1.,0.));
#1326=DIRECTION('ref_axis',(0.,0.,-1.));
#1327=DIRECTION('',(0.,0.,1.));
#1328=DIRECTION('',(1.,0.,0.));
#1329=DIRECTION('',(0.,-5.55111512312578E-17,-1.));
#1330=DIRECTION('',(1.,0.,0.));
#1331=DIRECTION('',(0.,5.55111512312578E-17,1.));
#1332=DIRECTION('',(-1.,-6.16297582203915E-33,3.42113882891801E-49));
#1333=DIRECTION('',(0.,-5.55111512312578E-17,-1.));
#1334=DIRECTION('',(1.,0.,0.));
#1335=CARTESIAN_POINT('',(0.,0.,0.));
#1336=CARTESIAN_POINT('',(0.,0.,0.));
#1337=CARTESIAN_POINT('Origin',(40.9999999999999,-32.,40.9999999999999));
#1338=CARTESIAN_POINT('',(40.9999999999999,0.,37.));
#1339=CARTESIAN_POINT('Origin',(40.9999999999999,0.,40.9999999999999));
#1340=CARTESIAN_POINT('',(40.9999999999999,15.,37.));
#1341=CARTESIAN_POINT('',(40.9999999999999,-32.,37.));
#1342=CARTESIAN_POINT('Origin',(40.9999999999999,15.,40.9999999999999));
#1343=CARTESIAN_POINT('Origin',(-40.9999999999999,-32.,40.9999999999999));
#1344=CARTESIAN_POINT('',(-40.9999999999999,0.,36.9999999999999));
#1345=CARTESIAN_POINT('Origin',(-40.9999999999999,0.,40.9999999999999));
#1346=CARTESIAN_POINT('',(-40.9999999999999,15.,36.9999999999999));
#1347=CARTESIAN_POINT('',(-40.9999999999999,-32.,36.9999999999999));
#1348=CARTESIAN_POINT('Origin',(-40.9999999999999,15.,40.9999999999999));
#1349=CARTESIAN_POINT('Origin',(-40.9999999999999,-32.,-41.));
#1350=CARTESIAN_POINT('',(-40.9999999999999,0.,-45.));
#1351=CARTESIAN_POINT('Origin',(-40.9999999999999,0.,-41.));
#1352=CARTESIAN_POINT('',(-40.9999999999999,15.,-45.));
#1353=CARTESIAN_POINT('',(-40.9999999999999,-32.,-45.));
#1354=CARTESIAN_POINT('Origin',(-40.9999999999999,15.,-41.));
#1355=CARTESIAN_POINT('Origin',(41.,-32.,-40.9999999999999));
#1356=CARTESIAN_POINT('',(41.,0.,-44.9999999999999));
#1357=CARTESIAN_POINT('Origin',(41.,0.,-40.9999999999999));
#1358=CARTESIAN_POINT('',(41.,15.,-44.9999999999999));
#1359=CARTESIAN_POINT('',(41.,-32.,-44.9999999999999));
#1360=CARTESIAN_POINT('Origin',(41.,15.,-40.9999999999999));
#1361=CARTESIAN_POINT('Origin',(0.,0.,0.));
#1362=CARTESIAN_POINT('',(3.91886975727153E-15,0.,32.));
#1363=CARTESIAN_POINT('Origin',(0.,0.,0.));
#1364=CARTESIAN_POINT('',(2.39961565225897E-31,-32.,1.95943487863577E-15));
#1365=CARTESIAN_POINT('Origin',(0.,0.,0.));
#1366=CARTESIAN_POINT('Origin',(60.,15.,60.));
#1367=CARTESIAN_POINT('',(60.,0.,60.));
#1368=CARTESIAN_POINT('',(60.,0.,-60.));
#1369=CARTESIAN_POINT('',(60.,0.,60.));
#1370=CARTESIAN_POINT('',(60.,15.,-60.));
#1371=CARTESIAN_POINT('',(60.,15.,-60.));
#1372=CARTESIAN_POINT('',(60.,15.,60.));
#1373=CARTESIAN_POINT('',(60.,15.,60.));
#1374=CARTESIAN_POINT('',(60.,15.,60.));
#1375=CARTESIAN_POINT('Origin',(-60.,15.,-60.));
#1376=CARTESIAN_POINT('',(-60.,0.,-60.));
#1377=CARTESIAN_POINT('',(-60.,0.,-60.));
#1378=CARTESIAN_POINT('',(-60.,15.,-60.));
#1379=CARTESIAN_POINT('',(-60.,15.,-60.));
#1380=CARTESIAN_POINT('',(-60.,15.,-60.));
#1381=CARTESIAN_POINT('Origin',(-60.,15.,60.));
#1382=CARTESIAN_POINT('',(-60.,0.,60.));
#1383=CARTESIAN_POINT('',(-60.,0.,60.));
#1384=CARTESIAN_POINT('',(-60.,15.,60.));
#1385=CARTESIAN_POINT('',(-60.,15.,60.));
#1386=CARTESIAN_POINT('',(-60.,15.,60.));
#1387=CARTESIAN_POINT('Origin',(-60.,15.,60.));
#1388=CARTESIAN_POINT('',(-60.,0.,60.));
#1389=CARTESIAN_POINT('',(-60.,15.,60.));
#1390=CARTESIAN_POINT('Origin',(0.,15.,0.));
#1391=CARTESIAN_POINT('Origin',(0.,0.,0.));
#1392=CARTESIAN_POINT('',(0.,0.,0.));
#1393=CARTESIAN_POINT('Origin',(-41.,40.,-41.));
#1394=CARTESIAN_POINT('',(-41.,40.,-37.));
#1395=CARTESIAN_POINT('Origin',(-41.,40.,-41.));
#1396=CARTESIAN_POINT('',(-41.,4.44089209850063E-15,-37.));
#1397=CARTESIAN_POINT('',(-41.,40.,-37.));
#1398=CARTESIAN_POINT('Origin',(-41.,0.,-41.));
#1399=CARTESIAN_POINT('Origin',(41.,40.,-41.));
#1400=CARTESIAN_POINT('',(41.,40.,-37.));
#1401=CARTESIAN_POINT('Origin',(41.,40.,-41.));
#1402=CARTESIAN_POINT('',(41.,4.44089209850063E-15,-37.));
#1403=CARTESIAN_POINT('',(41.,40.,-37.));
#1404=CARTESIAN_POINT('Origin',(41.,0.,-41.));
#1405=CARTESIAN_POINT('Origin',(41.,40.,41.));
#1406=CARTESIAN_POINT('',(41.,40.,45.));
#1407=CARTESIAN_POINT('Origin',(41.,40.,41.));
#1408=CARTESIAN_POINT('',(41.,4.44089209850063E-15,45.));
#1409=CARTESIAN_POINT('',(41.,40.,45.));
#1410=CARTESIAN_POINT('Origin',(41.,0.,41.));
#1411=CARTESIAN_POINT('Origin',(-41.,40.,41.));
#1412=CARTESIAN_POINT('',(-41.,40.,45.));
#1413=CARTESIAN_POINT('Origin',(-41.,40.,41.));
#1414=CARTESIAN_POINT('',(-41.,4.44089209850063E-15,45.));
#1415=CARTESIAN_POINT('',(-41.,40.,45.));
#1416=CARTESIAN_POINT('Origin',(-41.,0.,41.));
#1417=CARTESIAN_POINT('Origin',(0.,0.,0.));
#1418=CARTESIAN_POINT('',(4.28626379701574E-15,0.,35.));
#1419=CARTESIAN_POINT('Origin',(0.,0.,0.));
#1420=CARTESIAN_POINT('',(2.62457961965825E-31,35.,2.14313189850787E-15));
#1421=CARTESIAN_POINT('Origin',(0.,0.,0.));
#1422=CARTESIAN_POINT('Origin',(60.,40.,60.));
#1423=CARTESIAN_POINT('',(60.,0.,60.));
#1424=CARTESIAN_POINT('',(60.,0.,-60.));
#1425=CARTESIAN_POINT('',(60.,0.,60.));
#1426=CARTESIAN_POINT('',(60.,40.,-60.));
#1427=CARTESIAN_POINT('',(60.,40.,-60.));
#1428=CARTESIAN_POINT('',(60.,40.,60.));
#1429=CARTESIAN_POINT('',(60.,40.,60.));
#1430=CARTESIAN_POINT('',(60.,40.,60.));
#1431=CARTESIAN_POINT('Origin',(-60.,40.,-60.));
#1432=CARTESIAN_POINT('',(-60.,0.,-60.));
#1433=CARTESIAN_POINT('',(-60.,0.,-60.));
#1434=CARTESIAN_POINT('',(-60.,40.,-60.));
#1435=CARTESIAN_POINT('',(-60.,40.,-60.));
#1436=CARTESIAN_POINT('',(-60.,40.,-60.));
#1437=CARTESIAN_POINT('Origin',(-60.,40.,60.));
#1438=CARTESIAN_POINT('',(-60.,0.,60.));
#1439=CARTESIAN_POINT('',(-60.,0.,60.));
#1440=CARTESIAN_POINT('',(-60.,40.,60.));
#1441=CARTESIAN_POINT('',(-60.,40.,60.));
#1442=CARTESIAN_POINT('',(-60.,40.,60.));
#1443=CARTESIAN_POINT('Origin',(-60.,40.,60.));
#1444=CARTESIAN_POINT('',(-60.,0.,60.));
#1445=CARTESIAN_POINT('',(-60.,40.,60.));
#1446=CARTESIAN_POINT('Origin',(0.,40.,0.));
#1447=CARTESIAN_POINT('Origin',(0.,0.,0.));
#1448=CARTESIAN_POINT('',(0.,0.,0.));
#1449=CARTESIAN_POINT('Origin',(0.,-31.,-1.38777878078145E-14));
#1450=CARTESIAN_POINT('',(-9.79717439317882E-16,-20.,-8.00000000000001));
#1451=CARTESIAN_POINT('Origin',(0.,-20.,-1.38777878078145E-14));
#1452=CARTESIAN_POINT('',(-9.79717439317882E-16,-0.999999999999996,-8.00000000000001));
#1453=CARTESIAN_POINT('',(-9.79717439317882E-16,-31.,-8.00000000000001));
#1454=CARTESIAN_POINT('Origin',(0.,-0.999999999999998,-1.38777878078145E-14));
#1455=CARTESIAN_POINT('Origin',(0.,-0.999999999999998,-1.38777878078145E-14));
#1456=CARTESIAN_POINT('',(-1.83697019872103E-15,-20.,15.));
#1457=CARTESIAN_POINT('Origin',(0.,-20.,-1.38777878078145E-14));
#1458=CARTESIAN_POINT('',(-1.83697019872103E-15,-0.999999999999998,15.));
#1459=CARTESIAN_POINT('',(-1.83697019872103E-15,-0.999999999999998,15.));
#1460=CARTESIAN_POINT('Origin',(0.,-0.999999999999998,-1.38777878078145E-14));
#1461=CARTESIAN_POINT('Origin',(0.,-0.999999999999998,-1.38777878078145E-14));
#1462=CARTESIAN_POINT('Origin',(0.,-20.,-1.38777878078145E-14));
#1463=CARTESIAN_POINT('Origin',(50.,-20.,50.));
#1464=CARTESIAN_POINT('',(50.,-20.,52.5));
#1465=CARTESIAN_POINT('Origin',(50.,-20.,50.));
#1466=CARTESIAN_POINT('',(50.,-30.,52.5));
#1467=CARTESIAN_POINT('',(50.,-20.,52.5));
#1468=CARTESIAN_POINT('Origin',(50.,-30.,50.));
#1469=CARTESIAN_POINT('Origin',(41.,-20.,41.));
#1470=CARTESIAN_POINT('',(41.,-20.,43.5));
#1471=CARTESIAN_POINT('Origin',(41.,-20.,41.));
#1472=CARTESIAN_POINT('',(41.,-30.,43.5));
#1473=CARTESIAN_POINT('',(41.,-20.,43.5));
#1474=CARTESIAN_POINT('Origin',(41.,-30.,41.));
#1475=CARTESIAN_POINT('Origin',(50.,-20.,-50.));
#1476=CARTESIAN_POINT('',(50.,-20.,-47.5));
#1477=CARTESIAN_POINT('Origin',(50.,-20.,-50.));
#1478=CARTESIAN_POINT('',(50.,-30.,-47.5));
#1479=CARTESIAN_POINT('',(50.,-20.,-47.5));
#1480=CARTESIAN_POINT('Origin',(50.,-30.,-50.));
#1481=CARTESIAN_POINT('Origin',(41.,-20.,-41.));
#1482=CARTESIAN_POINT('',(41.,-20.,-38.5));
#1483=CARTESIAN_POINT('Origin',(41.,-20.,-41.));
#1484=CARTESIAN_POINT('',(41.,-30.,-38.5));
#1485=CARTESIAN_POINT('',(41.,-20.,-38.5));
#1486=CARTESIAN_POINT('Origin',(41.,-30.,-41.));
#1487=CARTESIAN_POINT('Origin',(-50.,-20.,-50.));
#1488=CARTESIAN_POINT('',(-50.,-20.,-47.5));
#1489=CARTESIAN_POINT('Origin',(-50.,-20.,-50.));
#1490=CARTESIAN_POINT('',(-50.,-30.,-47.5));
#1491=CARTESIAN_POINT('',(-50.,-20.,-47.5));
#1492=CARTESIAN_POINT('Origin',(-50.,-30.,-50.));
#1493=CARTESIAN_POINT('Origin',(-41.,-20.,-41.));
#1494=CARTESIAN_POINT('',(-41.,-20.,-38.5));
#1495=CARTESIAN_POINT('Origin',(-41.,-20.,-41.));
#1496=CARTESIAN_POINT('',(-41.,-30.,-38.5));
#1497=CARTESIAN_POINT('',(-41.,-20.,-38.5));
#1498=CARTESIAN_POINT('Origin',(-41.,-30.,-41.));
#1499=CARTESIAN_POINT('Origin',(-50.,-20.,50.));
#1500=CARTESIAN_POINT('',(-50.,-20.,52.5));
#1501=CARTESIAN_POINT('Origin',(-50.,-20.,50.));
#1502=CARTESIAN_POINT('',(-50.,-30.,52.5));
#1503=CARTESIAN_POINT('',(-50.,-20.,52.5));
#1504=CARTESIAN_POINT('Origin',(-50.,-30.,50.));
#1505=CARTESIAN_POINT('Origin',(-41.,-20.,41.));
#1506=CARTESIAN_POINT('',(-41.,-20.,43.5));
#1507=CARTESIAN_POINT('Origin',(-41.,-20.,41.));
#1508=CARTESIAN_POINT('',(-41.,-30.,43.5));
#1509=CARTESIAN_POINT('',(-41.,-20.,43.5));
#1510=CARTESIAN_POINT('Origin',(-41.,-30.,41.));
#1511=CARTESIAN_POINT('Origin',(0.,-21.,-1.38777878078145E-14));
#1512=CARTESIAN_POINT('',(-3.67394039744206E-15,-21.,-30.));
#1513=CARTESIAN_POINT('Origin',(0.,-21.,-1.38777878078145E-14));
#1514=CARTESIAN_POINT('',(-3.67394039744206E-15,-20.,-30.));
#1515=CARTESIAN_POINT('',(-3.67394039744206E-15,-21.,-30.));
#1516=CARTESIAN_POINT('Origin',(0.,-20.,-1.38777878078145E-14));
#1517=CARTESIAN_POINT('Origin',(0.,-31.,-1.38777878078145E-14));
#1518=CARTESIAN_POINT('',(-9.79717439317882E-16,-30.,-8.00000000000001));
#1519=CARTESIAN_POINT('Origin',(0.,-30.,-1.38777878078145E-14));
#1520=CARTESIAN_POINT('',(-9.79717439317882E-16,-21.,-8.00000000000001));
#1521=CARTESIAN_POINT('',(-9.79717439317882E-16,-31.,-8.00000000000001));
#1522=CARTESIAN_POINT('Origin',(0.,-21.,-1.38777878078145E-14));
#1523=CARTESIAN_POINT('Origin',(-60.,-20.,-60.));
#1524=CARTESIAN_POINT('',(-60.,-30.,-60.));
#1525=CARTESIAN_POINT('',(60.,-30.,-60.));
#1526=CARTESIAN_POINT('',(-60.,-30.,-60.));
#1527=CARTESIAN_POINT('',(-60.,-20.,-60.));
#1528=CARTESIAN_POINT('',(-60.,-20.,-60.));
#1529=CARTESIAN_POINT('',(60.,-20.,-60.));
#1530=CARTESIAN_POINT('',(-60.,-20.,-60.));
#1531=CARTESIAN_POINT('',(60.,-20.,-60.));
#1532=CARTESIAN_POINT('Origin',(-60.,-20.,60.));
#1533=CARTESIAN_POINT('',(-60.,-30.,60.));
#1534=CARTESIAN_POINT('',(-60.,-30.,60.));
#1535=CARTESIAN_POINT('',(-60.,-20.,60.));
#1536=CARTESIAN_POINT('',(-60.,-20.,60.));
#1537=CARTESIAN_POINT('',(-60.,-20.,60.));
#1538=CARTESIAN_POINT('Origin',(60.,-20.,60.));
#1539=CARTESIAN_POINT('',(60.,-30.,60.));
#1540=CARTESIAN_POINT('',(60.,-30.,60.));
#1541=CARTESIAN_POINT('',(60.,-20.,60.));
#1542=CARTESIAN_POINT('',(60.,-20.,60.));
#1543=CARTESIAN_POINT('',(60.,-20.,60.));
#1544=CARTESIAN_POINT('Origin',(60.,-20.,-60.));
#1545=CARTESIAN_POINT('',(60.,-30.,-60.));
#1546=CARTESIAN_POINT('',(60.,-20.,-60.));
#1547=CARTESIAN_POINT('Origin',(0.,-20.,0.));
#1548=CARTESIAN_POINT('Origin',(0.,-30.,0.));
#1549=CARTESIAN_POINT('Origin',(0.,-21.,-1.38777878078145E-14));
#1550=CARTESIAN_POINT('',(0.,0.,0.));
#1551=CARTESIAN_POINT('Origin',(61.,30.,61.));
#1552=CARTESIAN_POINT('',(61.,0.,61.));
#1553=CARTESIAN_POINT('',(61.,0.,-61.));
#1554=CARTESIAN_POINT('',(61.,0.,61.));
#1555=CARTESIAN_POINT('',(61.,30.,-61.));
#1556=CARTESIAN_POINT('',(61.,30.,-61.));
#1557=CARTESIAN_POINT('',(61.,30.,61.));
#1558=CARTESIAN_POINT('',(61.,30.,61.));
#1559=CARTESIAN_POINT('',(61.,30.,61.));
#1560=CARTESIAN_POINT('Origin',(-61.,30.,-61.));
#1561=CARTESIAN_POINT('',(-61.,0.,-61.));
#1562=CARTESIAN_POINT('',(-61.,0.,-61.));
#1563=CARTESIAN_POINT('',(-61.,30.,-61.));
#1564=CARTESIAN_POINT('',(-61.,30.,-61.));
#1565=CARTESIAN_POINT('',(-61.,30.,-61.));
#1566=CARTESIAN_POINT('Origin',(-61.,30.,61.));
#1567=CARTESIAN_POINT('',(-61.,0.,61.));
#1568=CARTESIAN_POINT('',(-61.,0.,61.));
#1569=CARTESIAN_POINT('',(-61.,30.,61.));
#1570=CARTESIAN_POINT('',(-61.,30.,61.));
#1571=CARTESIAN_POINT('',(-61.,30.,61.));
#1572=CARTESIAN_POINT('Origin',(-61.,30.,61.));
#1573=CARTESIAN_POINT('',(-61.,0.,61.));
#1574=CARTESIAN_POINT('',(-61.,30.,61.));
#1575=CARTESIAN_POINT('Origin',(0.,30.,0.));
#1576=CARTESIAN_POINT('Origin',(0.,0.,0.));
#1577=CARTESIAN_POINT('',(0.,-15.,0.));
#1578=CARTESIAN_POINT('',(0.,-15.,0.));
#1579=CARTESIAN_POINT('',(0.,-85.,0.));
#1580=CARTESIAN_POINT('',(0.,-55.,-3.46944695195361E-15));
#1581=UNCERTAINTY_MEASURE_WITH_UNIT(LENGTH_MEASURE(0.01),#1593,
'DISTANCE_ACCURACY_VALUE',
'Maximum model space distance between geometric entities at asserted c
onnectivities');
#1582=UNCERTAINTY_MEASURE_WITH_UNIT(LENGTH_MEASURE(0.01),#1593,
'DISTANCE_ACCURACY_VALUE',
'Maximum model space distance between geometric entities at asserted c
onnectivities');
#1583=UNCERTAINTY_MEASURE_WITH_UNIT(LENGTH_MEASURE(0.01),#1593,
'DISTANCE_ACCURACY_VALUE',
'Maximum model space distance between geometric entities at asserted c
onnectivities');
#1584=UNCERTAINTY_MEASURE_WITH_UNIT(LENGTH_MEASURE(0.01),#1593,
'DISTANCE_ACCURACY_VALUE',
'Maximum model space distance between geometric entities at asserted c
onnectivities');
#1585=UNCERTAINTY_MEASURE_WITH_UNIT(LENGTH_MEASURE(0.01),#1593,
'DISTANCE_ACCURACY_VALUE',
'Maximum model space distance between geometric entities at asserted c
onnectivities');
#1586=UNCERTAINTY_MEASURE_WITH_UNIT(LENGTH_MEASURE(0.01),#1593,
'DISTANCE_ACCURACY_VALUE',
'Maximum model space distance between geometric entities at asserted c
onnectivities');
#1587=(
GEOMETRIC_REPRESENTATION_CONTEXT(3)
GLOBAL_UNCERTAINTY_ASSIGNED_CONTEXT((#1581))
GLOBAL_UNIT_ASSIGNED_CONTEXT((#1593,#1595,#1596))
REPRESENTATION_CONTEXT('','3D')
);
#1588=(
GEOMETRIC_REPRESENTATION_CONTEXT(3)
GLOBAL_UNCERTAINTY_ASSIGNED_CONTEXT((#1582))
GLOBAL_UNIT_ASSIGNED_CONTEXT((#1593,#1595,#1596))
REPRESENTATION_CONTEXT('','3D')
);
#1589=(
GEOMETRIC_REPRESENTATION_CONTEXT(3)
GLOBAL_UNCERTAINTY_ASSIGNED_CONTEXT((#1583))
GLOBAL_UNIT_ASSIGNED_CONTEXT((#1593,#1595,#1596))
REPRESENTATION_CONTEXT('','3D')
);
#1590=(
GEOMETRIC_REPRESENTATION_CONTEXT(3)
GLOBAL_UNCERTAINTY_ASSIGNED_CONTEXT((#1584))
GLOBAL_UNIT_ASSIGNED_CONTEXT((#1593,#1595,#1596))
REPRESENTATION_CONTEXT('','3D')
);
#1591=(
GEOMETRIC_REPRESENTATION_CONTEXT(3)
GLOBAL_UNCERTAINTY_ASSIGNED_CONTEXT((#1585))
GLOBAL_UNIT_ASSIGNED_CONTEXT((#1593,#1595,#1596))
REPRESENTATION_CONTEXT('','3D')
);
#1592=(
GEOMETRIC_REPRESENTATION_CONTEXT(3)
GLOBAL_UNCERTAINTY_ASSIGNED_CONTEXT((#1586))
GLOBAL_UNIT_ASSIGNED_CONTEXT((#1593,#1595,#1596))
REPRESENTATION_CONTEXT('','3D')
);
#1593=(
LENGTH_UNIT()
NAMED_UNIT(*)
SI_UNIT(.MILLI.,.METRE.)
);
#1594=(
LENGTH_UNIT()
NAMED_UNIT(*)
SI_UNIT($,.METRE.)
);
#1595=(
NAMED_UNIT(*)
PLANE_ANGLE_UNIT()
SI_UNIT($,.RADIAN.)
);
#1596=(
NAMED_UNIT(*)
SI_UNIT($,.STERADIAN.)
SOLID_ANGLE_UNIT()
);
#1597=SHAPE_DEFINITION_REPRESENTATION(#1602,#1611);
#1598=SHAPE_DEFINITION_REPRESENTATION(#1603,#1612);
#1599=SHAPE_DEFINITION_REPRESENTATION(#1604,#1613);
#1600=SHAPE_DEFINITION_REPRESENTATION(#1605,#1614);
#1601=SHAPE_DEFINITION_REPRESENTATION(#1606,#1615);
#1602=PRODUCT_DEFINITION_SHAPE('',$,#1617);
#1603=PRODUCT_DEFINITION_SHAPE('',$,#1618);
#1604=PRODUCT_DEFINITION_SHAPE('',$,#1619);
#1605=PRODUCT_DEFINITION_SHAPE('',$,#1620);
#1606=PRODUCT_DEFINITION_SHAPE('',$,#1621);
#1607=PRODUCT_DEFINITION_SHAPE($,$,#23);
#1608=PRODUCT_DEFINITION_SHAPE($,$,#24);
#1609=PRODUCT_DEFINITION_SHAPE($,$,#25);
#1610=PRODUCT_DEFINITION_SHAPE($,$,#26);
#1611=SHAPE_REPRESENTATION('',(#961,#1059,#1060,#1061,#1062),#1587);
#1612=SHAPE_REPRESENTATION('',(#962),#1588);
#1613=SHAPE_REPRESENTATION('',(#984),#1589);
#1614=SHAPE_REPRESENTATION('',(#1006),#1590);
#1615=SHAPE_REPRESENTATION('',(#1052),#1591);
#1616=PRODUCT_DEFINITION_CONTEXT('part definition',#1633,'design');
#1617=PRODUCT_DEFINITION('Global-70','Global-70 v1',#1622,#1616);
#1618=PRODUCT_DEFINITION('Male-70','Male-70',#1623,#1616);
#1619=PRODUCT_DEFINITION('Female-70','Female-70',#1624,#1616);
#1620=PRODUCT_DEFINITION(
'Lydia-F82-ConnectorPlate-120x120-SJ25_Lydia-V3-100F',
'Lydia-F82-ConnectorPlate-120x120-SJ25_Lydia-V3-100F',#1625,#1616);
#1621=PRODUCT_DEFINITION('Stock-122-Adapter','Stock-122-Adapter',#1626,
#1616);
#1622=PRODUCT_DEFINITION_FORMATION('',$,#1635);
#1623=PRODUCT_DEFINITION_FORMATION('',$,#1636);
#1624=PRODUCT_DEFINITION_FORMATION('',$,#1637);
#1625=PRODUCT_DEFINITION_FORMATION('',$,#1638);
#1626=PRODUCT_DEFINITION_FORMATION('',$,#1639);
#1627=PRODUCT_RELATED_PRODUCT_CATEGORY('Global-70 v1','Global-70 v1',(#1635));
#1628=PRODUCT_RELATED_PRODUCT_CATEGORY('Male-70','Male-70',(#1636));
#1629=PRODUCT_RELATED_PRODUCT_CATEGORY('Female-70','Female-70',(#1637));
#1630=PRODUCT_RELATED_PRODUCT_CATEGORY(
'Lydia-F82-ConnectorPlate-120x120-SJ25_Lydia-V3-100F',
'Lydia-F82-ConnectorPlate-120x120-SJ25_Lydia-V3-100F',(#1638));
#1631=PRODUCT_RELATED_PRODUCT_CATEGORY('Stock-122-Adapter',
'Stock-122-Adapter',(#1639));
#1632=APPLICATION_PROTOCOL_DEFINITION('international standard',
'automotive_design',2009,#1633);
#1633=APPLICATION_CONTEXT(
'Core Data for Automotive Mechanical Design Process');
#1634=PRODUCT_CONTEXT('part definition',#1633,'mechanical');
#1635=PRODUCT('Global-70','Global-70 v1','STEP AP203',(#1634));
#1636=PRODUCT('Male-70','Male-70',$,(#1634));
#1637=PRODUCT('Female-70','Female-70',$,(#1634));
#1638=PRODUCT('Lydia-F82-ConnectorPlate-120x120-SJ25_Lydia-V3-100F',
'Lydia-F82-ConnectorPlate-120x120-SJ25_Lydia-V3-100F',$,(#1634));
#1639=PRODUCT('Stock-122-Adapter','Stock-122-Adapter',$,(#1634));
#1640=PRESENTATION_STYLE_ASSIGNMENT((#1641));
#1641=SURFACE_STYLE_USAGE(.BOTH.,#1642);
#1642=SURFACE_SIDE_STYLE('',(#1643));
#1643=SURFACE_STYLE_FILL_AREA(#1644);
#1644=FILL_AREA_STYLE('Steel - Satin',(#1645));
#1645=FILL_AREA_STYLE_COLOUR('Steel - Satin',#1646);
#1646=COLOUR_RGB('Steel - Satin',0.627450980392157,0.627450980392157,0.627450980392157);
ENDSEC;
END-ISO-10303-21;
