ISO-10303-21;
HEADER;
/* Generated by software containing ST-Developer
 * from STEP Tools, Inc. (www.steptools.com) 
 */

FILE_DESCRIPTION(
/* description */ (''),
/* implementation_level */ '2;1');

FILE_NAME(
/* name */ '15_BEARING-HOUSING_x4_12mm_INOX v1.step',
/* time_stamp */ '2026-03-14T09:52:33+01:00',
/* author */ (''),
/* organization */ (''),
/* preprocessor_version */ 'ST-DEVELOPER v20.1',
/* originating_system */ 'Autodesk Translation Framework v14.24.0.0',
/* authorisation */ '');

FILE_SCHEMA (('AUTOMOTIVE_DESIGN { 1 0 10303 214 3 1 1 }'));
ENDSEC;

DATA;
#10=MECHANICAL_DESIGN_GEOMETRIC_PRESENTATION_REPRESENTATION('',(#13),#701);
#11=SHAPE_REPRESENTATION_RELATIONSHIP('SRR','None',#708,#12);
#12=ADVANCED_BREP_SHAPE_REPRESENTATION('',(#14),#700);
#13=STYLED_ITEM('',(#717),#14);
#14=MANIFOLD_SOLID_BREP('Body1',#393);
#15=CYLINDRICAL_SURFACE('',#441,40.);
#16=CYLINDRICAL_SURFACE('',#442,40.);
#17=CYLINDRICAL_SURFACE('',#443,54.);
#18=CYLINDRICAL_SURFACE('',#445,54.);
#19=CYLINDRICAL_SURFACE('',#447,6.75);
#20=CYLINDRICAL_SURFACE('',#448,6.75);
#21=CYLINDRICAL_SURFACE('',#449,6.75);
#22=CYLINDRICAL_SURFACE('',#450,6.75);
#23=CYLINDRICAL_SURFACE('',#451,60.);
#24=CYLINDRICAL_SURFACE('',#452,60.);
#25=CYLINDRICAL_SURFACE('',#453,60.);
#26=CYLINDRICAL_SURFACE('',#454,60.);
#27=CYLINDRICAL_SURFACE('',#455,16.);
#28=CYLINDRICAL_SURFACE('',#456,16.);
#29=CYLINDRICAL_SURFACE('',#457,16.);
#30=CYLINDRICAL_SURFACE('',#458,16.);
#31=FACE_BOUND('',#64,.T.);
#32=FACE_BOUND('',#65,.T.);
#33=FACE_BOUND('',#66,.T.);
#34=FACE_BOUND('',#67,.T.);
#35=FACE_BOUND('',#68,.T.);
#36=FACE_BOUND('',#69,.T.);
#37=FACE_BOUND('',#71,.T.);
#38=FACE_BOUND('',#72,.T.);
#39=FACE_BOUND('',#73,.T.);
#40=FACE_BOUND('',#74,.T.);
#41=FACE_BOUND('',#75,.T.);
#42=FACE_BOUND('',#76,.T.);
#43=FACE_OUTER_BOUND('',#63,.T.);
#44=FACE_OUTER_BOUND('',#70,.T.);
#45=FACE_OUTER_BOUND('',#77,.T.);
#46=FACE_OUTER_BOUND('',#78,.T.);
#47=FACE_OUTER_BOUND('',#79,.T.);
#48=FACE_OUTER_BOUND('',#80,.T.);
#49=FACE_OUTER_BOUND('',#81,.T.);
#50=FACE_OUTER_BOUND('',#82,.T.);
#51=FACE_OUTER_BOUND('',#83,.T.);
#52=FACE_OUTER_BOUND('',#84,.T.);
#53=FACE_OUTER_BOUND('',#85,.T.);
#54=FACE_OUTER_BOUND('',#86,.T.);
#55=FACE_OUTER_BOUND('',#87,.T.);
#56=FACE_OUTER_BOUND('',#88,.T.);
#57=FACE_OUTER_BOUND('',#89,.T.);
#58=FACE_OUTER_BOUND('',#90,.T.);
#59=FACE_OUTER_BOUND('',#91,.T.);
#60=FACE_OUTER_BOUND('',#92,.T.);
#61=FACE_OUTER_BOUND('',#93,.T.);
#62=FACE_OUTER_BOUND('',#94,.T.);
#63=EDGE_LOOP('',(#261,#262,#263,#264,#265,#266,#267,#268,#269,#270,#271,
#272));
#64=EDGE_LOOP('',(#273));
#65=EDGE_LOOP('',(#274));
#66=EDGE_LOOP('',(#275));
#67=EDGE_LOOP('',(#276));
#68=EDGE_LOOP('',(#277));
#69=EDGE_LOOP('',(#278));
#70=EDGE_LOOP('',(#279,#280,#281,#282,#283,#284,#285,#286,#287,#288,#289,
#290));
#71=EDGE_LOOP('',(#291));
#72=EDGE_LOOP('',(#292));
#73=EDGE_LOOP('',(#293));
#74=EDGE_LOOP('',(#294));
#75=EDGE_LOOP('',(#295));
#76=EDGE_LOOP('',(#296));
#77=EDGE_LOOP('',(#297,#298,#299,#300));
#78=EDGE_LOOP('',(#301,#302,#303,#304));
#79=EDGE_LOOP('',(#305,#306,#307,#308));
#80=EDGE_LOOP('',(#309,#310,#311,#312));
#81=EDGE_LOOP('',(#313,#314,#315,#316));
#82=EDGE_LOOP('',(#317,#318,#319,#320));
#83=EDGE_LOOP('',(#321,#322,#323,#324));
#84=EDGE_LOOP('',(#325,#326,#327,#328));
#85=EDGE_LOOP('',(#329,#330,#331,#332));
#86=EDGE_LOOP('',(#333,#334,#335,#336));
#87=EDGE_LOOP('',(#337,#338,#339,#340));
#88=EDGE_LOOP('',(#341,#342,#343,#344));
#89=EDGE_LOOP('',(#345,#346,#347,#348));
#90=EDGE_LOOP('',(#349,#350,#351,#352));
#91=EDGE_LOOP('',(#353,#354,#355,#356));
#92=EDGE_LOOP('',(#357,#358,#359,#360));
#93=EDGE_LOOP('',(#361,#362,#363,#364));
#94=EDGE_LOOP('',(#365,#366,#367,#368));
#95=LINE('',#601,#117);
#96=LINE('',#612,#118);
#97=LINE('',#628,#119);
#98=LINE('',#640,#120);
#99=LINE('',#663,#121);
#100=LINE('',#665,#122);
#101=LINE('',#667,#123);
#102=LINE('',#668,#124);
#103=LINE('',#670,#125);
#104=LINE('',#671,#126);
#105=LINE('',#673,#127);
#106=LINE('',#674,#128);
#107=LINE('',#676,#129);
#108=LINE('',#677,#130);
#109=LINE('',#679,#131);
#110=LINE('',#681,#132);
#111=LINE('',#683,#133);
#112=LINE('',#685,#134);
#113=LINE('',#687,#135);
#114=LINE('',#689,#136);
#115=LINE('',#691,#137);
#116=LINE('',#693,#138);
#117=VECTOR('',#473,48.3456437205434);
#118=VECTOR('',#484,48.3456437205434);
#119=VECTOR('',#499,48.3456437205434);
#120=VECTOR('',#510,48.3456437205434);
#121=VECTOR('',#535,40.);
#122=VECTOR('',#538,40.);
#123=VECTOR('',#541,12.);
#124=VECTOR('',#542,12.);
#125=VECTOR('',#545,12.);
#126=VECTOR('',#546,12.);
#127=VECTOR('',#549,12.);
#128=VECTOR('',#550,12.);
#129=VECTOR('',#553,12.);
#130=VECTOR('',#554,12.);
#131=VECTOR('',#557,6.75);
#132=VECTOR('',#560,6.75);
#133=VECTOR('',#563,6.75);
#134=VECTOR('',#566,6.75);
#135=VECTOR('',#569,12.);
#136=VECTOR('',#572,12.);
#137=VECTOR('',#575,12.);
#138=VECTOR('',#578,12.);
#139=CIRCLE('',#408,60.);
#140=CIRCLE('',#409,16.);
#141=CIRCLE('',#410,54.);
#142=CIRCLE('',#411,16.);
#143=CIRCLE('',#412,60.);
#144=CIRCLE('',#413,60.);
#145=CIRCLE('',#414,16.);
#146=CIRCLE('',#415,54.);
#147=CIRCLE('',#416,16.);
#148=CIRCLE('',#417,60.);
#149=CIRCLE('',#418,6.75);
#150=CIRCLE('',#419,6.75);
#151=CIRCLE('',#420,6.75);
#152=CIRCLE('',#421,6.75);
#153=CIRCLE('',#422,40.);
#154=CIRCLE('',#423,40.);
#155=CIRCLE('',#425,60.);
#156=CIRCLE('',#426,16.);
#157=CIRCLE('',#427,54.);
#158=CIRCLE('',#428,16.);
#159=CIRCLE('',#429,60.);
#160=CIRCLE('',#430,60.);
#161=CIRCLE('',#431,16.);
#162=CIRCLE('',#432,54.);
#163=CIRCLE('',#433,16.);
#164=CIRCLE('',#434,60.);
#165=CIRCLE('',#435,6.75);
#166=CIRCLE('',#436,6.75);
#167=CIRCLE('',#437,6.75);
#168=CIRCLE('',#438,6.75);
#169=CIRCLE('',#439,40.);
#170=CIRCLE('',#440,40.);
#171=VERTEX_POINT('',#589);
#172=VERTEX_POINT('',#590);
#173=VERTEX_POINT('',#592);
#174=VERTEX_POINT('',#594);
#175=VERTEX_POINT('',#596);
#176=VERTEX_POINT('',#598);
#177=VERTEX_POINT('',#600);
#178=VERTEX_POINT('',#602);
#179=VERTEX_POINT('',#604);
#180=VERTEX_POINT('',#606);
#181=VERTEX_POINT('',#608);
#182=VERTEX_POINT('',#610);
#183=VERTEX_POINT('',#613);
#184=VERTEX_POINT('',#615);
#185=VERTEX_POINT('',#617);
#186=VERTEX_POINT('',#619);
#187=VERTEX_POINT('',#621);
#188=VERTEX_POINT('',#623);
#189=VERTEX_POINT('',#626);
#190=VERTEX_POINT('',#627);
#191=VERTEX_POINT('',#629);
#192=VERTEX_POINT('',#631);
#193=VERTEX_POINT('',#633);
#194=VERTEX_POINT('',#635);
#195=VERTEX_POINT('',#637);
#196=VERTEX_POINT('',#639);
#197=VERTEX_POINT('',#641);
#198=VERTEX_POINT('',#643);
#199=VERTEX_POINT('',#645);
#200=VERTEX_POINT('',#647);
#201=VERTEX_POINT('',#650);
#202=VERTEX_POINT('',#652);
#203=VERTEX_POINT('',#654);
#204=VERTEX_POINT('',#656);
#205=VERTEX_POINT('',#658);
#206=VERTEX_POINT('',#660);
#207=EDGE_CURVE('',#171,#172,#139,.F.);
#208=EDGE_CURVE('',#172,#173,#140,.T.);
#209=EDGE_CURVE('',#173,#174,#141,.T.);
#210=EDGE_CURVE('',#174,#175,#142,.T.);
#211=EDGE_CURVE('',#175,#176,#143,.F.);
#212=EDGE_CURVE('',#176,#177,#95,.T.);
#213=EDGE_CURVE('',#177,#178,#144,.F.);
#214=EDGE_CURVE('',#178,#179,#145,.T.);
#215=EDGE_CURVE('',#179,#180,#146,.T.);
#216=EDGE_CURVE('',#180,#181,#147,.T.);
#217=EDGE_CURVE('',#181,#182,#148,.F.);
#218=EDGE_CURVE('',#182,#171,#96,.T.);
#219=EDGE_CURVE('',#183,#183,#149,.T.);
#220=EDGE_CURVE('',#184,#184,#150,.T.);
#221=EDGE_CURVE('',#185,#185,#151,.T.);
#222=EDGE_CURVE('',#186,#186,#152,.T.);
#223=EDGE_CURVE('',#187,#187,#153,.T.);
#224=EDGE_CURVE('',#188,#188,#154,.T.);
#225=EDGE_CURVE('',#189,#190,#97,.T.);
#226=EDGE_CURVE('',#189,#191,#155,.T.);
#227=EDGE_CURVE('',#191,#192,#156,.F.);
#228=EDGE_CURVE('',#193,#192,#157,.T.);
#229=EDGE_CURVE('',#193,#194,#158,.F.);
#230=EDGE_CURVE('',#194,#195,#159,.T.);
#231=EDGE_CURVE('',#196,#195,#98,.T.);
#232=EDGE_CURVE('',#196,#197,#160,.T.);
#233=EDGE_CURVE('',#197,#198,#161,.F.);
#234=EDGE_CURVE('',#199,#198,#162,.T.);
#235=EDGE_CURVE('',#199,#200,#163,.F.);
#236=EDGE_CURVE('',#200,#190,#164,.T.);
#237=EDGE_CURVE('',#201,#201,#165,.T.);
#238=EDGE_CURVE('',#202,#202,#166,.T.);
#239=EDGE_CURVE('',#203,#203,#167,.T.);
#240=EDGE_CURVE('',#204,#204,#168,.T.);
#241=EDGE_CURVE('',#205,#205,#169,.T.);
#242=EDGE_CURVE('',#206,#206,#170,.T.);
#243=EDGE_CURVE('',#187,#205,#99,.T.);
#244=EDGE_CURVE('',#188,#206,#100,.T.);
#245=EDGE_CURVE('',#179,#199,#101,.F.);
#246=EDGE_CURVE('',#198,#180,#102,.T.);
#247=EDGE_CURVE('',#176,#189,#103,.T.);
#248=EDGE_CURVE('',#190,#177,#104,.F.);
#249=EDGE_CURVE('',#173,#193,#105,.F.);
#250=EDGE_CURVE('',#192,#174,#106,.T.);
#251=EDGE_CURVE('',#195,#171,#107,.F.);
#252=EDGE_CURVE('',#182,#196,#108,.T.);
#253=EDGE_CURVE('',#204,#186,#109,.T.);
#254=EDGE_CURVE('',#203,#185,#110,.T.);
#255=EDGE_CURVE('',#202,#184,#111,.T.);
#256=EDGE_CURVE('',#201,#183,#112,.T.);
#257=EDGE_CURVE('',#175,#191,#113,.F.);
#258=EDGE_CURVE('',#200,#178,#114,.T.);
#259=EDGE_CURVE('',#194,#172,#115,.T.);
#260=EDGE_CURVE('',#181,#197,#116,.F.);
#261=ORIENTED_EDGE('',*,*,#207,.T.);
#262=ORIENTED_EDGE('',*,*,#208,.T.);
#263=ORIENTED_EDGE('',*,*,#209,.T.);
#264=ORIENTED_EDGE('',*,*,#210,.T.);
#265=ORIENTED_EDGE('',*,*,#211,.T.);
#266=ORIENTED_EDGE('',*,*,#212,.T.);
#267=ORIENTED_EDGE('',*,*,#213,.T.);
#268=ORIENTED_EDGE('',*,*,#214,.T.);
#269=ORIENTED_EDGE('',*,*,#215,.T.);
#270=ORIENTED_EDGE('',*,*,#216,.T.);
#271=ORIENTED_EDGE('',*,*,#217,.T.);
#272=ORIENTED_EDGE('',*,*,#218,.T.);
#273=ORIENTED_EDGE('',*,*,#219,.F.);
#274=ORIENTED_EDGE('',*,*,#220,.F.);
#275=ORIENTED_EDGE('',*,*,#221,.F.);
#276=ORIENTED_EDGE('',*,*,#222,.F.);
#277=ORIENTED_EDGE('',*,*,#223,.F.);
#278=ORIENTED_EDGE('',*,*,#224,.F.);
#279=ORIENTED_EDGE('',*,*,#225,.F.);
#280=ORIENTED_EDGE('',*,*,#226,.T.);
#281=ORIENTED_EDGE('',*,*,#227,.T.);
#282=ORIENTED_EDGE('',*,*,#228,.F.);
#283=ORIENTED_EDGE('',*,*,#229,.T.);
#284=ORIENTED_EDGE('',*,*,#230,.T.);
#285=ORIENTED_EDGE('',*,*,#231,.F.);
#286=ORIENTED_EDGE('',*,*,#232,.T.);
#287=ORIENTED_EDGE('',*,*,#233,.T.);
#288=ORIENTED_EDGE('',*,*,#234,.F.);
#289=ORIENTED_EDGE('',*,*,#235,.T.);
#290=ORIENTED_EDGE('',*,*,#236,.T.);
#291=ORIENTED_EDGE('',*,*,#237,.T.);
#292=ORIENTED_EDGE('',*,*,#238,.T.);
#293=ORIENTED_EDGE('',*,*,#239,.T.);
#294=ORIENTED_EDGE('',*,*,#240,.T.);
#295=ORIENTED_EDGE('',*,*,#241,.T.);
#296=ORIENTED_EDGE('',*,*,#242,.T.);
#297=ORIENTED_EDGE('',*,*,#223,.T.);
#298=ORIENTED_EDGE('',*,*,#243,.T.);
#299=ORIENTED_EDGE('',*,*,#241,.F.);
#300=ORIENTED_EDGE('',*,*,#243,.F.);
#301=ORIENTED_EDGE('',*,*,#224,.T.);
#302=ORIENTED_EDGE('',*,*,#244,.T.);
#303=ORIENTED_EDGE('',*,*,#242,.F.);
#304=ORIENTED_EDGE('',*,*,#244,.F.);
#305=ORIENTED_EDGE('',*,*,#215,.F.);
#306=ORIENTED_EDGE('',*,*,#245,.T.);
#307=ORIENTED_EDGE('',*,*,#234,.T.);
#308=ORIENTED_EDGE('',*,*,#246,.T.);
#309=ORIENTED_EDGE('',*,*,#212,.F.);
#310=ORIENTED_EDGE('',*,*,#247,.T.);
#311=ORIENTED_EDGE('',*,*,#225,.T.);
#312=ORIENTED_EDGE('',*,*,#248,.T.);
#313=ORIENTED_EDGE('',*,*,#209,.F.);
#314=ORIENTED_EDGE('',*,*,#249,.T.);
#315=ORIENTED_EDGE('',*,*,#228,.T.);
#316=ORIENTED_EDGE('',*,*,#250,.T.);
#317=ORIENTED_EDGE('',*,*,#231,.T.);
#318=ORIENTED_EDGE('',*,*,#251,.T.);
#319=ORIENTED_EDGE('',*,*,#218,.F.);
#320=ORIENTED_EDGE('',*,*,#252,.T.);
#321=ORIENTED_EDGE('',*,*,#240,.F.);
#322=ORIENTED_EDGE('',*,*,#253,.T.);
#323=ORIENTED_EDGE('',*,*,#222,.T.);
#324=ORIENTED_EDGE('',*,*,#253,.F.);
#325=ORIENTED_EDGE('',*,*,#239,.F.);
#326=ORIENTED_EDGE('',*,*,#254,.T.);
#327=ORIENTED_EDGE('',*,*,#221,.T.);
#328=ORIENTED_EDGE('',*,*,#254,.F.);
#329=ORIENTED_EDGE('',*,*,#238,.F.);
#330=ORIENTED_EDGE('',*,*,#255,.T.);
#331=ORIENTED_EDGE('',*,*,#220,.T.);
#332=ORIENTED_EDGE('',*,*,#255,.F.);
#333=ORIENTED_EDGE('',*,*,#237,.F.);
#334=ORIENTED_EDGE('',*,*,#256,.T.);
#335=ORIENTED_EDGE('',*,*,#219,.T.);
#336=ORIENTED_EDGE('',*,*,#256,.F.);
#337=ORIENTED_EDGE('',*,*,#211,.F.);
#338=ORIENTED_EDGE('',*,*,#257,.T.);
#339=ORIENTED_EDGE('',*,*,#226,.F.);
#340=ORIENTED_EDGE('',*,*,#247,.F.);
#341=ORIENTED_EDGE('',*,*,#236,.F.);
#342=ORIENTED_EDGE('',*,*,#258,.T.);
#343=ORIENTED_EDGE('',*,*,#213,.F.);
#344=ORIENTED_EDGE('',*,*,#248,.F.);
#345=ORIENTED_EDGE('',*,*,#230,.F.);
#346=ORIENTED_EDGE('',*,*,#259,.T.);
#347=ORIENTED_EDGE('',*,*,#207,.F.);
#348=ORIENTED_EDGE('',*,*,#251,.F.);
#349=ORIENTED_EDGE('',*,*,#217,.F.);
#350=ORIENTED_EDGE('',*,*,#260,.T.);
#351=ORIENTED_EDGE('',*,*,#232,.F.);
#352=ORIENTED_EDGE('',*,*,#252,.F.);
#353=ORIENTED_EDGE('',*,*,#229,.F.);
#354=ORIENTED_EDGE('',*,*,#249,.F.);
#355=ORIENTED_EDGE('',*,*,#208,.F.);
#356=ORIENTED_EDGE('',*,*,#259,.F.);
#357=ORIENTED_EDGE('',*,*,#227,.F.);
#358=ORIENTED_EDGE('',*,*,#257,.F.);
#359=ORIENTED_EDGE('',*,*,#210,.F.);
#360=ORIENTED_EDGE('',*,*,#250,.F.);
#361=ORIENTED_EDGE('',*,*,#235,.F.);
#362=ORIENTED_EDGE('',*,*,#245,.F.);
#363=ORIENTED_EDGE('',*,*,#214,.F.);
#364=ORIENTED_EDGE('',*,*,#258,.F.);
#365=ORIENTED_EDGE('',*,*,#233,.F.);
#366=ORIENTED_EDGE('',*,*,#260,.F.);
#367=ORIENTED_EDGE('',*,*,#216,.F.);
#368=ORIENTED_EDGE('',*,*,#246,.F.);
#369=PLANE('',#407);
#370=PLANE('',#424);
#371=PLANE('',#444);
#372=PLANE('',#446);
#373=ADVANCED_FACE('',(#43,#31,#32,#33,#34,#35,#36),#369,.F.);
#374=ADVANCED_FACE('',(#44,#37,#38,#39,#40,#41,#42),#370,.T.);
#375=ADVANCED_FACE('',(#45),#15,.F.);
#376=ADVANCED_FACE('',(#46),#16,.F.);
#377=ADVANCED_FACE('',(#47),#17,.T.);
#378=ADVANCED_FACE('',(#48),#371,.T.);
#379=ADVANCED_FACE('',(#49),#18,.T.);
#380=ADVANCED_FACE('',(#50),#372,.T.);
#381=ADVANCED_FACE('',(#51),#19,.F.);
#382=ADVANCED_FACE('',(#52),#20,.F.);
#383=ADVANCED_FACE('',(#53),#21,.F.);
#384=ADVANCED_FACE('',(#54),#22,.F.);
#385=ADVANCED_FACE('',(#55),#23,.T.);
#386=ADVANCED_FACE('',(#56),#24,.T.);
#387=ADVANCED_FACE('',(#57),#25,.T.);
#388=ADVANCED_FACE('',(#58),#26,.T.);
#389=ADVANCED_FACE('',(#59),#27,.F.);
#390=ADVANCED_FACE('',(#60),#28,.F.);
#391=ADVANCED_FACE('',(#61),#29,.F.);
#392=ADVANCED_FACE('',(#62),#30,.F.);
#393=CLOSED_SHELL('',(#373,#374,#375,#376,#377,#378,#379,#380,#381,#382,
#383,#384,#385,#386,#387,#388,#389,#390,#391,#392));
#394=DERIVED_UNIT_ELEMENT(#396,1.);
#395=DERIVED_UNIT_ELEMENT(#703,-3.);
#396=(
MASS_UNIT()
NAMED_UNIT(*)
SI_UNIT(.KILO.,.GRAM.)
);
#397=DERIVED_UNIT((#394,#395));
#398=MEASURE_REPRESENTATION_ITEM('density measure',
POSITIVE_RATIO_MEASURE(7800.),#397);
#399=PROPERTY_DEFINITION_REPRESENTATION(#404,#401);
#400=PROPERTY_DEFINITION_REPRESENTATION(#405,#402);
#401=REPRESENTATION('material name',(#403),#700);
#402=REPRESENTATION('density',(#398),#700);
#403=DESCRIPTIVE_REPRESENTATION_ITEM(
'SOLIDWORKS Materials|Stainless Steel (ferritic)',
'SOLIDWORKS Materials|Stainless Steel (ferritic)');
#404=PROPERTY_DEFINITION('material property','material name',#710);
#405=PROPERTY_DEFINITION('material property','density of part',#710);
#406=AXIS2_PLACEMENT_3D('',#587,#459,#460);
#407=AXIS2_PLACEMENT_3D('',#588,#461,#462);
#408=AXIS2_PLACEMENT_3D('',#591,#463,#464);
#409=AXIS2_PLACEMENT_3D('',#593,#465,#466);
#410=AXIS2_PLACEMENT_3D('',#595,#467,#468);
#411=AXIS2_PLACEMENT_3D('',#597,#469,#470);
#412=AXIS2_PLACEMENT_3D('',#599,#471,#472);
#413=AXIS2_PLACEMENT_3D('',#603,#474,#475);
#414=AXIS2_PLACEMENT_3D('',#605,#476,#477);
#415=AXIS2_PLACEMENT_3D('',#607,#478,#479);
#416=AXIS2_PLACEMENT_3D('',#609,#480,#481);
#417=AXIS2_PLACEMENT_3D('',#611,#482,#483);
#418=AXIS2_PLACEMENT_3D('',#614,#485,#486);
#419=AXIS2_PLACEMENT_3D('',#616,#487,#488);
#420=AXIS2_PLACEMENT_3D('',#618,#489,#490);
#421=AXIS2_PLACEMENT_3D('',#620,#491,#492);
#422=AXIS2_PLACEMENT_3D('',#622,#493,#494);
#423=AXIS2_PLACEMENT_3D('',#624,#495,#496);
#424=AXIS2_PLACEMENT_3D('',#625,#497,#498);
#425=AXIS2_PLACEMENT_3D('',#630,#500,#501);
#426=AXIS2_PLACEMENT_3D('',#632,#502,#503);
#427=AXIS2_PLACEMENT_3D('',#634,#504,#505);
#428=AXIS2_PLACEMENT_3D('',#636,#506,#507);
#429=AXIS2_PLACEMENT_3D('',#638,#508,#509);
#430=AXIS2_PLACEMENT_3D('',#642,#511,#512);
#431=AXIS2_PLACEMENT_3D('',#644,#513,#514);
#432=AXIS2_PLACEMENT_3D('',#646,#515,#516);
#433=AXIS2_PLACEMENT_3D('',#648,#517,#518);
#434=AXIS2_PLACEMENT_3D('',#649,#519,#520);
#435=AXIS2_PLACEMENT_3D('',#651,#521,#522);
#436=AXIS2_PLACEMENT_3D('',#653,#523,#524);
#437=AXIS2_PLACEMENT_3D('',#655,#525,#526);
#438=AXIS2_PLACEMENT_3D('',#657,#527,#528);
#439=AXIS2_PLACEMENT_3D('',#659,#529,#530);
#440=AXIS2_PLACEMENT_3D('',#661,#531,#532);
#441=AXIS2_PLACEMENT_3D('',#662,#533,#534);
#442=AXIS2_PLACEMENT_3D('',#664,#536,#537);
#443=AXIS2_PLACEMENT_3D('',#666,#539,#540);
#444=AXIS2_PLACEMENT_3D('',#669,#543,#544);
#445=AXIS2_PLACEMENT_3D('',#672,#547,#548);
#446=AXIS2_PLACEMENT_3D('',#675,#551,#552);
#447=AXIS2_PLACEMENT_3D('',#678,#555,#556);
#448=AXIS2_PLACEMENT_3D('',#680,#558,#559);
#449=AXIS2_PLACEMENT_3D('',#682,#561,#562);
#450=AXIS2_PLACEMENT_3D('',#684,#564,#565);
#451=AXIS2_PLACEMENT_3D('',#686,#567,#568);
#452=AXIS2_PLACEMENT_3D('',#688,#570,#571);
#453=AXIS2_PLACEMENT_3D('',#690,#573,#574);
#454=AXIS2_PLACEMENT_3D('',#692,#576,#577);
#455=AXIS2_PLACEMENT_3D('',#694,#579,#580);
#456=AXIS2_PLACEMENT_3D('',#695,#581,#582);
#457=AXIS2_PLACEMENT_3D('',#696,#583,#584);
#458=AXIS2_PLACEMENT_3D('',#697,#585,#586);
#459=DIRECTION('axis',(0.,0.,1.));
#460=DIRECTION('refdir',(1.,0.,0.));
#461=DIRECTION('center_axis',(0.,0.,-1.));
#462=DIRECTION('ref_axis',(-1.,0.,0.));
#463=DIRECTION('center_axis',(0.,0.,-1.));
#464=DIRECTION('ref_axis',(-1.,0.,0.));
#465=DIRECTION('center_axis',(0.,0.,-1.));
#466=DIRECTION('ref_axis',(-1.,0.,0.));
#467=DIRECTION('center_axis',(0.,0.,1.));
#468=DIRECTION('ref_axis',(-1.,0.,0.));
#469=DIRECTION('center_axis',(0.,0.,-1.));
#470=DIRECTION('ref_axis',(-1.,0.,0.));
#471=DIRECTION('center_axis',(0.,0.,-1.));
#472=DIRECTION('ref_axis',(-1.,0.,0.));
#473=DIRECTION('',(1.,0.,0.));
#474=DIRECTION('center_axis',(0.,0.,-1.));
#475=DIRECTION('ref_axis',(-1.,0.,0.));
#476=DIRECTION('center_axis',(0.,0.,-1.));
#477=DIRECTION('ref_axis',(-1.,0.,0.));
#478=DIRECTION('center_axis',(0.,0.,1.));
#479=DIRECTION('ref_axis',(1.,0.,0.));
#480=DIRECTION('center_axis',(0.,0.,-1.));
#481=DIRECTION('ref_axis',(-1.,0.,0.));
#482=DIRECTION('center_axis',(0.,0.,-1.));
#483=DIRECTION('ref_axis',(-1.,0.,0.));
#484=DIRECTION('',(-1.,0.,0.));
#485=DIRECTION('center_axis',(0.,0.,1.));
#486=DIRECTION('ref_axis',(-1.,0.,0.));
#487=DIRECTION('center_axis',(0.,0.,1.));
#488=DIRECTION('ref_axis',(1.,0.,0.));
#489=DIRECTION('center_axis',(0.,0.,1.));
#490=DIRECTION('ref_axis',(-1.,0.,0.));
#491=DIRECTION('center_axis',(0.,0.,1.));
#492=DIRECTION('ref_axis',(1.,0.,0.));
#493=DIRECTION('center_axis',(0.,0.,1.));
#494=DIRECTION('ref_axis',(-1.,0.,0.));
#495=DIRECTION('center_axis',(0.,0.,1.));
#496=DIRECTION('ref_axis',(1.,0.,0.));
#497=DIRECTION('center_axis',(0.,0.,-1.));
#498=DIRECTION('ref_axis',(-1.,0.,0.));
#499=DIRECTION('',(1.,0.,0.));
#500=DIRECTION('center_axis',(0.,0.,-1.));
#501=DIRECTION('ref_axis',(-1.,0.,0.));
#502=DIRECTION('center_axis',(0.,0.,-1.));
#503=DIRECTION('ref_axis',(-1.,0.,0.));
#504=DIRECTION('center_axis',(0.,0.,1.));
#505=DIRECTION('ref_axis',(-1.,0.,0.));
#506=DIRECTION('center_axis',(0.,0.,-1.));
#507=DIRECTION('ref_axis',(-1.,0.,0.));
#508=DIRECTION('center_axis',(0.,0.,-1.));
#509=DIRECTION('ref_axis',(-1.,0.,0.));
#510=DIRECTION('',(-1.,0.,0.));
#511=DIRECTION('center_axis',(0.,0.,-1.));
#512=DIRECTION('ref_axis',(-1.,0.,0.));
#513=DIRECTION('center_axis',(0.,0.,-1.));
#514=DIRECTION('ref_axis',(-1.,0.,0.));
#515=DIRECTION('center_axis',(0.,0.,1.));
#516=DIRECTION('ref_axis',(1.,0.,0.));
#517=DIRECTION('center_axis',(0.,0.,-1.));
#518=DIRECTION('ref_axis',(-1.,0.,0.));
#519=DIRECTION('center_axis',(0.,0.,-1.));
#520=DIRECTION('ref_axis',(-1.,0.,0.));
#521=DIRECTION('center_axis',(0.,0.,1.));
#522=DIRECTION('ref_axis',(-1.,0.,0.));
#523=DIRECTION('center_axis',(0.,0.,1.));
#524=DIRECTION('ref_axis',(1.,0.,0.));
#525=DIRECTION('center_axis',(0.,0.,1.));
#526=DIRECTION('ref_axis',(-1.,0.,0.));
#527=DIRECTION('center_axis',(0.,0.,1.));
#528=DIRECTION('ref_axis',(1.,0.,0.));
#529=DIRECTION('center_axis',(0.,0.,1.));
#530=DIRECTION('ref_axis',(-1.,0.,0.));
#531=DIRECTION('center_axis',(0.,0.,1.));
#532=DIRECTION('ref_axis',(1.,0.,0.));
#533=DIRECTION('center_axis',(0.,0.,-1.));
#534=DIRECTION('ref_axis',(-1.,0.,0.));
#535=DIRECTION('',(0.,0.,-1.));
#536=DIRECTION('center_axis',(0.,0.,-1.));
#537=DIRECTION('ref_axis',(-1.,0.,0.));
#538=DIRECTION('',(0.,0.,-1.));
#539=DIRECTION('center_axis',(0.,0.,1.));
#540=DIRECTION('ref_axis',(1.,0.,0.));
#541=DIRECTION('',(0.,0.,1.));
#542=DIRECTION('',(0.,0.,1.));
#543=DIRECTION('center_axis',(0.,-1.,0.));
#544=DIRECTION('ref_axis',(0.,0.,-1.));
#545=DIRECTION('',(0.,0.,-1.));
#546=DIRECTION('',(0.,0.,-1.));
#547=DIRECTION('center_axis',(0.,0.,1.));
#548=DIRECTION('ref_axis',(-1.,1.22464679914735E-16,0.));
#549=DIRECTION('',(0.,0.,1.));
#550=DIRECTION('',(0.,0.,1.));
#551=DIRECTION('center_axis',(0.,1.,0.));
#552=DIRECTION('ref_axis',(0.,0.,1.));
#553=DIRECTION('',(0.,0.,-1.));
#554=DIRECTION('',(0.,0.,-1.));
#555=DIRECTION('center_axis',(0.,0.,1.));
#556=DIRECTION('ref_axis',(1.,0.,0.));
#557=DIRECTION('',(0.,0.,1.));
#558=DIRECTION('center_axis',(0.,0.,1.));
#559=DIRECTION('ref_axis',(1.,0.,0.));
#560=DIRECTION('',(0.,0.,1.));
#561=DIRECTION('center_axis',(0.,0.,1.));
#562=DIRECTION('ref_axis',(1.,0.,0.));
#563=DIRECTION('',(0.,0.,1.));
#564=DIRECTION('center_axis',(0.,0.,1.));
#565=DIRECTION('ref_axis',(1.,0.,0.));
#566=DIRECTION('',(0.,0.,1.));
#567=DIRECTION('center_axis',(0.,0.,1.));
#568=DIRECTION('ref_axis',(1.,0.,0.));
#569=DIRECTION('',(0.,0.,1.));
#570=DIRECTION('center_axis',(0.,0.,1.));
#571=DIRECTION('ref_axis',(1.,0.,0.));
#572=DIRECTION('',(0.,0.,1.));
#573=DIRECTION('center_axis',(0.,0.,1.));
#574=DIRECTION('ref_axis',(1.,0.,0.));
#575=DIRECTION('',(0.,0.,1.));
#576=DIRECTION('center_axis',(0.,0.,1.));
#577=DIRECTION('ref_axis',(1.,0.,0.));
#578=DIRECTION('',(0.,0.,1.));
#579=DIRECTION('center_axis',(0.,0.,-1.));
#580=DIRECTION('ref_axis',(-1.,0.,0.));
#581=DIRECTION('center_axis',(0.,0.,-1.));
#582=DIRECTION('ref_axis',(-1.,0.,0.));
#583=DIRECTION('center_axis',(0.,0.,-1.));
#584=DIRECTION('ref_axis',(-1.,0.,0.));
#585=DIRECTION('center_axis',(0.,0.,-1.));
#586=DIRECTION('ref_axis',(-1.,0.,0.));
#587=CARTESIAN_POINT('',(0.,0.,0.));
#588=CARTESIAN_POINT('Origin',(0.,0.,6.));
#589=CARTESIAN_POINT('',(-24.1728218602717,90.,6.));
#590=CARTESIAN_POINT('',(-83.568119967305,38.4969737422588,6.));
#591=CARTESIAN_POINT('Origin',(-24.1728218602717,30.,6.));
#592=CARTESIAN_POINT('',(-86.3995824425107,31.4456143424358,6.));
#593=CARTESIAN_POINT('Origin',(-99.4068661291806,40.7628334068612,6.));
#594=CARTESIAN_POINT('',(-86.3995824425107,-31.4456143424357,6.));
#595=CARTESIAN_POINT('Origin',(-42.5,1.04083408558608E-14,6.));
#596=CARTESIAN_POINT('',(-83.568119967305,-38.4969737422588,6.));
#597=CARTESIAN_POINT('Origin',(-99.4068661291806,-40.7628334068611,6.));
#598=CARTESIAN_POINT('',(-24.1728218602717,-90.,6.));
#599=CARTESIAN_POINT('Origin',(-24.1728218602717,-30.,6.));
#600=CARTESIAN_POINT('',(24.1728218602717,-90.,6.));
#601=CARTESIAN_POINT('',(-24.1728218602717,-90.,6.));
#602=CARTESIAN_POINT('',(83.5681199673051,-38.4969737422587,6.));
#603=CARTESIAN_POINT('Origin',(24.1728218602717,-30.,6.));
#604=CARTESIAN_POINT('',(86.3995824425108,-31.4456143424357,6.));
#605=CARTESIAN_POINT('Origin',(99.4068661291807,-40.7628334068611,6.));
#606=CARTESIAN_POINT('',(86.3995824425108,31.4456143424357,6.));
#607=CARTESIAN_POINT('Origin',(42.5,1.04083408558608E-14,6.));
#608=CARTESIAN_POINT('',(83.5681199673051,38.4969737422587,6.));
#609=CARTESIAN_POINT('Origin',(99.4068661291807,40.7628334068611,6.));
#610=CARTESIAN_POINT('',(24.1728218602717,90.,6.));
#611=CARTESIAN_POINT('Origin',(24.1728218602717,30.,6.));
#612=CARTESIAN_POINT('',(24.1728218602717,90.,6.));
#613=CARTESIAN_POINT('',(35.75,-70.,6.));
#614=CARTESIAN_POINT('Origin',(42.5,-70.,6.));
#615=CARTESIAN_POINT('',(-49.25,-70.,6.));
#616=CARTESIAN_POINT('Origin',(-42.5,-70.,6.));
#617=CARTESIAN_POINT('',(-49.25,70.,6.));
#618=CARTESIAN_POINT('Origin',(-42.5,70.,6.));
#619=CARTESIAN_POINT('',(35.75,70.,6.));
#620=CARTESIAN_POINT('Origin',(42.5,70.,6.));
#621=CARTESIAN_POINT('',(-2.49999999999997,-4.83735485663205E-15,6.));
#622=CARTESIAN_POINT('Origin',(-42.5,6.12323399573691E-17,6.));
#623=CARTESIAN_POINT('',(82.5,1.04083408558608E-14,6.));
#624=CARTESIAN_POINT('Origin',(42.5,1.04083408558608E-14,6.));
#625=CARTESIAN_POINT('Origin',(0.,0.,-6.));
#626=CARTESIAN_POINT('',(-24.1728218602717,-90.,-6.));
#627=CARTESIAN_POINT('',(24.1728218602717,-90.,-6.));
#628=CARTESIAN_POINT('',(-24.1728218602717,-90.,-6.));
#629=CARTESIAN_POINT('',(-83.568119967305,-38.4969737422588,-6.));
#630=CARTESIAN_POINT('Origin',(-24.1728218602717,-30.,-6.));
#631=CARTESIAN_POINT('',(-86.3995824425107,-31.4456143424357,-6.));
#632=CARTESIAN_POINT('Origin',(-99.4068661291806,-40.7628334068611,-6.));
#633=CARTESIAN_POINT('',(-86.3995824425107,31.4456143424358,-6.));
#634=CARTESIAN_POINT('Origin',(-42.5,1.04083408558608E-14,-6.));
#635=CARTESIAN_POINT('',(-83.568119967305,38.4969737422588,-6.));
#636=CARTESIAN_POINT('Origin',(-99.4068661291806,40.7628334068612,-6.));
#637=CARTESIAN_POINT('',(-24.1728218602717,90.,-6.));
#638=CARTESIAN_POINT('Origin',(-24.1728218602717,30.,-6.));
#639=CARTESIAN_POINT('',(24.1728218602717,90.,-6.));
#640=CARTESIAN_POINT('',(24.1728218602717,90.,-6.));
#641=CARTESIAN_POINT('',(83.5681199673051,38.4969737422587,-6.));
#642=CARTESIAN_POINT('Origin',(24.1728218602717,30.,-6.));
#643=CARTESIAN_POINT('',(86.3995824425108,31.4456143424357,-6.));
#644=CARTESIAN_POINT('Origin',(99.4068661291807,40.7628334068611,-6.));
#645=CARTESIAN_POINT('',(86.3995824425108,-31.4456143424357,-6.));
#646=CARTESIAN_POINT('Origin',(42.5,1.04083408558608E-14,-6.));
#647=CARTESIAN_POINT('',(83.5681199673051,-38.4969737422587,-6.));
#648=CARTESIAN_POINT('Origin',(99.4068661291807,-40.7628334068611,-6.));
#649=CARTESIAN_POINT('Origin',(24.1728218602717,-30.,-6.));
#650=CARTESIAN_POINT('',(35.75,-70.,-6.));
#651=CARTESIAN_POINT('Origin',(42.5,-70.,-6.));
#652=CARTESIAN_POINT('',(-49.25,-70.,-6.));
#653=CARTESIAN_POINT('Origin',(-42.5,-70.,-6.));
#654=CARTESIAN_POINT('',(-49.25,70.,-6.));
#655=CARTESIAN_POINT('Origin',(-42.5,70.,-6.));
#656=CARTESIAN_POINT('',(35.75,70.,-6.));
#657=CARTESIAN_POINT('Origin',(42.5,70.,-6.));
#658=CARTESIAN_POINT('',(-2.49999999999997,-4.83735485663205E-15,-6.));
#659=CARTESIAN_POINT('Origin',(-42.5,6.12323399573691E-17,-6.));
#660=CARTESIAN_POINT('',(82.5,1.04083408558608E-14,-6.));
#661=CARTESIAN_POINT('Origin',(42.5,1.04083408558608E-14,-6.));
#662=CARTESIAN_POINT('Origin',(-42.5,6.12323399573691E-17,6.));
#663=CARTESIAN_POINT('',(-2.49999999999997,-4.83735485663205E-15,6.));
#664=CARTESIAN_POINT('Origin',(42.5,1.04083408558608E-14,6.));
#665=CARTESIAN_POINT('',(82.5,5.50975365927143E-15,6.));
#666=CARTESIAN_POINT('Origin',(42.5,1.04083408558608E-14,-6.));
#667=CARTESIAN_POINT('',(86.3995824425108,-31.4456143424357,-6.));
#668=CARTESIAN_POINT('',(86.3995824425108,31.4456143424357,-6.));
#669=CARTESIAN_POINT('Origin',(-84.,-90.,-6.));
#670=CARTESIAN_POINT('',(-24.1728218602717,-90.,6.));
#671=CARTESIAN_POINT('',(24.1728218602717,-90.,6.));
#672=CARTESIAN_POINT('Origin',(-42.5,1.04083408558608E-14,-6.));
#673=CARTESIAN_POINT('',(-86.3995824425107,31.4456143424358,-6.));
#674=CARTESIAN_POINT('',(-86.3995824425107,-31.4456143424357,-6.));
#675=CARTESIAN_POINT('Origin',(-84.,90.,-6.));
#676=CARTESIAN_POINT('',(-24.1728218602717,90.,6.));
#677=CARTESIAN_POINT('',(24.1728218602717,90.,6.));
#678=CARTESIAN_POINT('Origin',(42.5,70.,-6.));
#679=CARTESIAN_POINT('',(35.75,70.,-6.));
#680=CARTESIAN_POINT('Origin',(-42.5,70.,-6.));
#681=CARTESIAN_POINT('',(-49.25,70.,-6.));
#682=CARTESIAN_POINT('Origin',(-42.5,-70.,-6.));
#683=CARTESIAN_POINT('',(-49.25,-70.,-6.));
#684=CARTESIAN_POINT('Origin',(42.5,-70.,-6.));
#685=CARTESIAN_POINT('',(35.75,-70.,-6.));
#686=CARTESIAN_POINT('Origin',(-24.1728218602717,-30.,-6.));
#687=CARTESIAN_POINT('',(-83.5681199673051,-38.4969737422588,-6.));
#688=CARTESIAN_POINT('Origin',(24.1728218602717,-30.,-6.));
#689=CARTESIAN_POINT('',(83.5681199673051,-38.4969737422587,-6.));
#690=CARTESIAN_POINT('Origin',(-24.1728218602717,30.,-6.));
#691=CARTESIAN_POINT('',(-83.5681199673051,38.4969737422588,-6.));
#692=CARTESIAN_POINT('Origin',(24.1728218602717,30.,-6.));
#693=CARTESIAN_POINT('',(83.5681199673051,38.4969737422587,-6.));
#694=CARTESIAN_POINT('Origin',(-99.4068661291806,40.7628334068612,-6.));
#695=CARTESIAN_POINT('Origin',(-99.4068661291806,-40.7628334068611,-6.));
#696=CARTESIAN_POINT('Origin',(99.4068661291807,-40.7628334068611,-6.));
#697=CARTESIAN_POINT('Origin',(99.4068661291807,40.7628334068611,-6.));
#698=UNCERTAINTY_MEASURE_WITH_UNIT(LENGTH_MEASURE(0.01),#702,
'DISTANCE_ACCURACY_VALUE',
'Maximum model space distance between geometric entities at asserted c
onnectivities');
#699=UNCERTAINTY_MEASURE_WITH_UNIT(LENGTH_MEASURE(0.01),#702,
'DISTANCE_ACCURACY_VALUE',
'Maximum model space distance between geometric entities at asserted c
onnectivities');
#700=(
GEOMETRIC_REPRESENTATION_CONTEXT(3)
GLOBAL_UNCERTAINTY_ASSIGNED_CONTEXT((#698))
GLOBAL_UNIT_ASSIGNED_CONTEXT((#702,#704,#705))
REPRESENTATION_CONTEXT('','3D')
);
#701=(
GEOMETRIC_REPRESENTATION_CONTEXT(3)
GLOBAL_UNCERTAINTY_ASSIGNED_CONTEXT((#699))
GLOBAL_UNIT_ASSIGNED_CONTEXT((#702,#704,#705))
REPRESENTATION_CONTEXT('','3D')
);
#702=(
LENGTH_UNIT()
NAMED_UNIT(*)
SI_UNIT(.MILLI.,.METRE.)
);
#703=(
LENGTH_UNIT()
NAMED_UNIT(*)
SI_UNIT($,.METRE.)
);
#704=(
NAMED_UNIT(*)
PLANE_ANGLE_UNIT()
SI_UNIT($,.RADIAN.)
);
#705=(
NAMED_UNIT(*)
SI_UNIT($,.STERADIAN.)
SOLID_ANGLE_UNIT()
);
#706=SHAPE_DEFINITION_REPRESENTATION(#707,#708);
#707=PRODUCT_DEFINITION_SHAPE('',$,#710);
#708=SHAPE_REPRESENTATION('',(#406),#700);
#709=PRODUCT_DEFINITION_CONTEXT('part definition',#714,'design');
#710=PRODUCT_DEFINITION('15_BEARING-HOUSING_x4_12mm_INOX',
'15_BEARING-HOUSING_x4_12mm_INOX v1',#711,#709);
#711=PRODUCT_DEFINITION_FORMATION('',$,#716);
#712=PRODUCT_RELATED_PRODUCT_CATEGORY(
'15_BEARING-HOUSING_x4_12mm_INOX v1',
'15_BEARING-HOUSING_x4_12mm_INOX v1',(#716));
#713=APPLICATION_PROTOCOL_DEFINITION('international standard',
'automotive_design',2009,#714);
#714=APPLICATION_CONTEXT(
'Core Data for Automotive Mechanical Design Process');
#715=PRODUCT_CONTEXT('part definition',#714,'mechanical');
#716=PRODUCT('15_BEARING-HOUSING_x4_12mm_INOX',
'15_BEARING-HOUSING_x4_12mm_INOX v1',$,(#715));
#717=PRESENTATION_STYLE_ASSIGNMENT((#718));
#718=SURFACE_STYLE_USAGE(.BOTH.,#719);
#719=SURFACE_SIDE_STYLE('',(#720));
#720=SURFACE_STYLE_FILL_AREA(#721);
#721=FILL_AREA_STYLE('Steel - Satin',(#722));
#722=FILL_AREA_STYLE_COLOUR('Steel - Satin',#723);
#723=COLOUR_RGB('Steel - Satin',0.627450980392157,0.627450980392157,0.627450980392157);
ENDSEC;
END-ISO-10303-21;
