ISO-10303-21;
HEADER;
/* Generated by software containing ST-Developer
 * from STEP Tools, Inc. (www.steptools.com) 
 */

FILE_DESCRIPTION(
/* description */ (''),
/* implementation_level */ '2;1');

FILE_NAME(
/* name */ 'die_insert_plate v1.step',
/* time_stamp */ '2026-03-14T09:51:40+01:00',
/* author */ (''),
/* organization */ (''),
/* preprocessor_version */ 'ST-DEVELOPER v20.1',
/* originating_system */ 'Autodesk Translation Framework v14.24.0.0',
/* authorisation */ '');

FILE_SCHEMA (('AUTOMOTIVE_DESIGN { 1 0 10303 214 3 1 1 }'));
ENDSEC;

DATA;
#10=MECHANICAL_DESIGN_GEOMETRIC_PRESENTATION_REPRESENTATION('',(#13),#1187);
#11=SHAPE_REPRESENTATION_RELATIONSHIP('SRR','None',#1194,#12);
#12=ADVANCED_BREP_SHAPE_REPRESENTATION('',(#14),#1186);
#13=STYLED_ITEM('',(#1204),#14);
#14=MANIFOLD_SOLID_BREP('Body1',#679);
#15=FACE_BOUND('',#138,.T.);
#16=FACE_BOUND('',#139,.T.);
#17=FACE_BOUND('',#140,.T.);
#18=FACE_BOUND('',#141,.T.);
#19=FACE_BOUND('',#142,.T.);
#20=FACE_BOUND('',#143,.T.);
#21=FACE_BOUND('',#144,.T.);
#22=FACE_BOUND('',#145,.T.);
#23=FACE_BOUND('',#146,.T.);
#24=FACE_BOUND('',#147,.T.);
#25=FACE_BOUND('',#148,.T.);
#26=FACE_BOUND('',#149,.T.);
#27=FACE_BOUND('',#150,.T.);
#28=FACE_BOUND('',#151,.T.);
#29=FACE_BOUND('',#152,.T.);
#30=FACE_BOUND('',#153,.T.);
#31=FACE_BOUND('',#154,.T.);
#32=FACE_BOUND('',#155,.T.);
#33=FACE_BOUND('',#156,.T.);
#34=FACE_BOUND('',#158,.T.);
#35=FACE_BOUND('',#159,.T.);
#36=FACE_BOUND('',#160,.T.);
#37=FACE_BOUND('',#161,.T.);
#38=FACE_BOUND('',#162,.T.);
#39=FACE_BOUND('',#163,.T.);
#40=FACE_BOUND('',#164,.T.);
#41=FACE_BOUND('',#165,.T.);
#42=FACE_BOUND('',#166,.T.);
#43=FACE_BOUND('',#167,.T.);
#44=FACE_BOUND('',#168,.T.);
#45=FACE_BOUND('',#170,.T.);
#46=FACE_BOUND('',#171,.T.);
#47=FACE_BOUND('',#172,.T.);
#48=FACE_BOUND('',#173,.T.);
#49=FACE_BOUND('',#174,.T.);
#50=FACE_BOUND('',#175,.T.);
#51=FACE_BOUND('',#176,.T.);
#52=FACE_BOUND('',#177,.T.);
#53=FACE_BOUND('',#178,.T.);
#54=FACE_BOUND('',#180,.T.);
#55=FACE_BOUND('',#182,.T.);
#56=FACE_BOUND('',#184,.T.);
#57=FACE_BOUND('',#186,.T.);
#58=FACE_BOUND('',#188,.T.);
#59=FACE_BOUND('',#190,.T.);
#60=FACE_BOUND('',#192,.T.);
#61=PLANE('',#777);
#62=PLANE('',#778);
#63=PLANE('',#779);
#64=PLANE('',#780);
#65=PLANE('',#781);
#66=PLANE('',#782);
#67=PLANE('',#783);
#68=PLANE('',#784);
#69=PLANE('',#785);
#70=PLANE('',#786);
#71=FACE_OUTER_BOUND('',#109,.T.);
#72=FACE_OUTER_BOUND('',#110,.T.);
#73=FACE_OUTER_BOUND('',#111,.T.);
#74=FACE_OUTER_BOUND('',#112,.T.);
#75=FACE_OUTER_BOUND('',#113,.T.);
#76=FACE_OUTER_BOUND('',#114,.T.);
#77=FACE_OUTER_BOUND('',#115,.T.);
#78=FACE_OUTER_BOUND('',#116,.T.);
#79=FACE_OUTER_BOUND('',#117,.T.);
#80=FACE_OUTER_BOUND('',#118,.T.);
#81=FACE_OUTER_BOUND('',#119,.T.);
#82=FACE_OUTER_BOUND('',#120,.T.);
#83=FACE_OUTER_BOUND('',#121,.T.);
#84=FACE_OUTER_BOUND('',#122,.T.);
#85=FACE_OUTER_BOUND('',#123,.T.);
#86=FACE_OUTER_BOUND('',#124,.T.);
#87=FACE_OUTER_BOUND('',#125,.T.);
#88=FACE_OUTER_BOUND('',#126,.T.);
#89=FACE_OUTER_BOUND('',#127,.T.);
#90=FACE_OUTER_BOUND('',#128,.T.);
#91=FACE_OUTER_BOUND('',#129,.T.);
#92=FACE_OUTER_BOUND('',#130,.T.);
#93=FACE_OUTER_BOUND('',#131,.T.);
#94=FACE_OUTER_BOUND('',#132,.T.);
#95=FACE_OUTER_BOUND('',#133,.T.);
#96=FACE_OUTER_BOUND('',#134,.T.);
#97=FACE_OUTER_BOUND('',#135,.T.);
#98=FACE_OUTER_BOUND('',#136,.T.);
#99=FACE_OUTER_BOUND('',#137,.T.);
#100=FACE_OUTER_BOUND('',#157,.T.);
#101=FACE_OUTER_BOUND('',#169,.T.);
#102=FACE_OUTER_BOUND('',#179,.T.);
#103=FACE_OUTER_BOUND('',#181,.T.);
#104=FACE_OUTER_BOUND('',#183,.T.);
#105=FACE_OUTER_BOUND('',#185,.T.);
#106=FACE_OUTER_BOUND('',#187,.T.);
#107=FACE_OUTER_BOUND('',#189,.T.);
#108=FACE_OUTER_BOUND('',#191,.T.);
#109=EDGE_LOOP('',(#445,#446,#447,#448));
#110=EDGE_LOOP('',(#449,#450,#451,#452));
#111=EDGE_LOOP('',(#453,#454,#455,#456));
#112=EDGE_LOOP('',(#457,#458,#459,#460));
#113=EDGE_LOOP('',(#461,#462,#463,#464));
#114=EDGE_LOOP('',(#465,#466,#467,#468));
#115=EDGE_LOOP('',(#469,#470,#471,#472));
#116=EDGE_LOOP('',(#473,#474,#475,#476));
#117=EDGE_LOOP('',(#477,#478,#479,#480));
#118=EDGE_LOOP('',(#481,#482,#483,#484));
#119=EDGE_LOOP('',(#485,#486,#487,#488));
#120=EDGE_LOOP('',(#489,#490,#491,#492));
#121=EDGE_LOOP('',(#493,#494,#495,#496));
#122=EDGE_LOOP('',(#497,#498,#499,#500));
#123=EDGE_LOOP('',(#501,#502,#503,#504));
#124=EDGE_LOOP('',(#505,#506,#507,#508));
#125=EDGE_LOOP('',(#509,#510,#511,#512));
#126=EDGE_LOOP('',(#513,#514,#515,#516));
#127=EDGE_LOOP('',(#517,#518,#519,#520));
#128=EDGE_LOOP('',(#521,#522,#523,#524));
#129=EDGE_LOOP('',(#525,#526,#527,#528));
#130=EDGE_LOOP('',(#529,#530,#531,#532));
#131=EDGE_LOOP('',(#533,#534,#535,#536));
#132=EDGE_LOOP('',(#537,#538,#539,#540));
#133=EDGE_LOOP('',(#541,#542,#543,#544));
#134=EDGE_LOOP('',(#545,#546,#547,#548));
#135=EDGE_LOOP('',(#549,#550,#551,#552));
#136=EDGE_LOOP('',(#553,#554,#555,#556));
#137=EDGE_LOOP('',(#557));
#138=EDGE_LOOP('',(#558));
#139=EDGE_LOOP('',(#559));
#140=EDGE_LOOP('',(#560));
#141=EDGE_LOOP('',(#561));
#142=EDGE_LOOP('',(#562));
#143=EDGE_LOOP('',(#563));
#144=EDGE_LOOP('',(#564));
#145=EDGE_LOOP('',(#565));
#146=EDGE_LOOP('',(#566));
#147=EDGE_LOOP('',(#567));
#148=EDGE_LOOP('',(#568));
#149=EDGE_LOOP('',(#569));
#150=EDGE_LOOP('',(#570));
#151=EDGE_LOOP('',(#571));
#152=EDGE_LOOP('',(#572));
#153=EDGE_LOOP('',(#573));
#154=EDGE_LOOP('',(#574));
#155=EDGE_LOOP('',(#575));
#156=EDGE_LOOP('',(#576));
#157=EDGE_LOOP('',(#577));
#158=EDGE_LOOP('',(#578));
#159=EDGE_LOOP('',(#579));
#160=EDGE_LOOP('',(#580));
#161=EDGE_LOOP('',(#581));
#162=EDGE_LOOP('',(#582));
#163=EDGE_LOOP('',(#583));
#164=EDGE_LOOP('',(#584));
#165=EDGE_LOOP('',(#585));
#166=EDGE_LOOP('',(#586));
#167=EDGE_LOOP('',(#587));
#168=EDGE_LOOP('',(#588));
#169=EDGE_LOOP('',(#589));
#170=EDGE_LOOP('',(#590));
#171=EDGE_LOOP('',(#591));
#172=EDGE_LOOP('',(#592));
#173=EDGE_LOOP('',(#593));
#174=EDGE_LOOP('',(#594));
#175=EDGE_LOOP('',(#595));
#176=EDGE_LOOP('',(#596));
#177=EDGE_LOOP('',(#597));
#178=EDGE_LOOP('',(#598));
#179=EDGE_LOOP('',(#599));
#180=EDGE_LOOP('',(#600));
#181=EDGE_LOOP('',(#601));
#182=EDGE_LOOP('',(#602));
#183=EDGE_LOOP('',(#603));
#184=EDGE_LOOP('',(#604));
#185=EDGE_LOOP('',(#605));
#186=EDGE_LOOP('',(#606));
#187=EDGE_LOOP('',(#607));
#188=EDGE_LOOP('',(#608));
#189=EDGE_LOOP('',(#609));
#190=EDGE_LOOP('',(#610));
#191=EDGE_LOOP('',(#611));
#192=EDGE_LOOP('',(#612));
#193=LINE('',#1010,#221);
#194=LINE('',#1016,#222);
#195=LINE('',#1022,#223);
#196=LINE('',#1028,#224);
#197=LINE('',#1034,#225);
#198=LINE('',#1040,#226);
#199=LINE('',#1046,#227);
#200=LINE('',#1052,#228);
#201=LINE('',#1058,#229);
#202=LINE('',#1064,#230);
#203=LINE('',#1070,#231);
#204=LINE('',#1076,#232);
#205=LINE('',#1082,#233);
#206=LINE('',#1088,#234);
#207=LINE('',#1094,#235);
#208=LINE('',#1100,#236);
#209=LINE('',#1106,#237);
#210=LINE('',#1112,#238);
#211=LINE('',#1118,#239);
#212=LINE('',#1124,#240);
#213=LINE('',#1130,#241);
#214=LINE('',#1136,#242);
#215=LINE('',#1142,#243);
#216=LINE('',#1148,#244);
#217=LINE('',#1154,#245);
#218=LINE('',#1160,#246);
#219=LINE('',#1166,#247);
#220=LINE('',#1172,#248);
#221=VECTOR('',#793,7.5000000000066);
#222=VECTOR('',#800,7.5000000000104);
#223=VECTOR('',#807,7.50000000000876);
#224=VECTOR('',#814,7.50000000000441);
#225=VECTOR('',#821,7.5);
#226=VECTOR('',#828,7.49999999999934);
#227=VECTOR('',#835,7.50000000000203);
#228=VECTOR('',#842,2.5);
#229=VECTOR('',#849,2.50000000000002);
#230=VECTOR('',#856,2.50000000000001);
#231=VECTOR('',#863,2.50000000000001);
#232=VECTOR('',#870,2.5);
#233=VECTOR('',#877,2.5);
#234=VECTOR('',#884,2.50000000000003);
#235=VECTOR('',#891,2.50000000000001);
#236=VECTOR('',#898,48.);
#237=VECTOR('',#905,40.);
#238=VECTOR('',#912,79.);
#239=VECTOR('',#919,8.5);
#240=VECTOR('',#926,8.5);
#241=VECTOR('',#933,8.5);
#242=VECTOR('',#940,4.);
#243=VECTOR('',#947,4.);
#244=VECTOR('',#954,4.);
#245=VECTOR('',#961,3.99999999999998);
#246=VECTOR('',#968,3.99999999999999);
#247=VECTOR('',#975,4.);
#248=VECTOR('',#982,4.);
#249=CIRCLE('',#694,7.5000000000066);
#250=CIRCLE('',#695,7.5000000000066);
#251=CIRCLE('',#697,7.5000000000104);
#252=CIRCLE('',#698,7.5000000000104);
#253=CIRCLE('',#700,7.50000000000876);
#254=CIRCLE('',#701,7.50000000000876);
#255=CIRCLE('',#703,7.50000000000441);
#256=CIRCLE('',#704,7.50000000000441);
#257=CIRCLE('',#706,7.5);
#258=CIRCLE('',#707,7.5);
#259=CIRCLE('',#709,7.49999999999934);
#260=CIRCLE('',#710,7.49999999999934);
#261=CIRCLE('',#712,7.50000000000203);
#262=CIRCLE('',#713,7.50000000000203);
#263=CIRCLE('',#715,2.5);
#264=CIRCLE('',#716,2.5);
#265=CIRCLE('',#718,2.50000000000002);
#266=CIRCLE('',#719,2.50000000000002);
#267=CIRCLE('',#721,2.50000000000001);
#268=CIRCLE('',#722,2.50000000000001);
#269=CIRCLE('',#724,2.50000000000001);
#270=CIRCLE('',#725,2.50000000000001);
#271=CIRCLE('',#727,2.5);
#272=CIRCLE('',#728,2.5);
#273=CIRCLE('',#730,2.5);
#274=CIRCLE('',#731,2.5);
#275=CIRCLE('',#733,2.50000000000003);
#276=CIRCLE('',#734,2.50000000000003);
#277=CIRCLE('',#736,2.50000000000001);
#278=CIRCLE('',#737,2.50000000000001);
#279=CIRCLE('',#739,48.);
#280=CIRCLE('',#740,48.);
#281=CIRCLE('',#742,40.);
#282=CIRCLE('',#743,40.);
#283=CIRCLE('',#745,79.);
#284=CIRCLE('',#746,79.);
#285=CIRCLE('',#748,8.5);
#286=CIRCLE('',#749,8.5);
#287=CIRCLE('',#751,8.5);
#288=CIRCLE('',#752,8.5);
#289=CIRCLE('',#754,8.5);
#290=CIRCLE('',#755,8.5);
#291=CIRCLE('',#757,4.);
#292=CIRCLE('',#758,4.);
#293=CIRCLE('',#760,4.);
#294=CIRCLE('',#761,4.);
#295=CIRCLE('',#763,4.);
#296=CIRCLE('',#764,4.);
#297=CIRCLE('',#766,3.99999999999998);
#298=CIRCLE('',#767,3.99999999999998);
#299=CIRCLE('',#769,3.99999999999999);
#300=CIRCLE('',#770,3.99999999999999);
#301=CIRCLE('',#772,4.);
#302=CIRCLE('',#773,4.);
#303=CIRCLE('',#775,4.);
#304=CIRCLE('',#776,4.);
#305=VERTEX_POINT('',#1007);
#306=VERTEX_POINT('',#1009);
#307=VERTEX_POINT('',#1013);
#308=VERTEX_POINT('',#1015);
#309=VERTEX_POINT('',#1019);
#310=VERTEX_POINT('',#1021);
#311=VERTEX_POINT('',#1025);
#312=VERTEX_POINT('',#1027);
#313=VERTEX_POINT('',#1031);
#314=VERTEX_POINT('',#1033);
#315=VERTEX_POINT('',#1037);
#316=VERTEX_POINT('',#1039);
#317=VERTEX_POINT('',#1043);
#318=VERTEX_POINT('',#1045);
#319=VERTEX_POINT('',#1049);
#320=VERTEX_POINT('',#1051);
#321=VERTEX_POINT('',#1055);
#322=VERTEX_POINT('',#1057);
#323=VERTEX_POINT('',#1061);
#324=VERTEX_POINT('',#1063);
#325=VERTEX_POINT('',#1067);
#326=VERTEX_POINT('',#1069);
#327=VERTEX_POINT('',#1073);
#328=VERTEX_POINT('',#1075);
#329=VERTEX_POINT('',#1079);
#330=VERTEX_POINT('',#1081);
#331=VERTEX_POINT('',#1085);
#332=VERTEX_POINT('',#1087);
#333=VERTEX_POINT('',#1091);
#334=VERTEX_POINT('',#1093);
#335=VERTEX_POINT('',#1097);
#336=VERTEX_POINT('',#1099);
#337=VERTEX_POINT('',#1103);
#338=VERTEX_POINT('',#1105);
#339=VERTEX_POINT('',#1109);
#340=VERTEX_POINT('',#1111);
#341=VERTEX_POINT('',#1115);
#342=VERTEX_POINT('',#1117);
#343=VERTEX_POINT('',#1121);
#344=VERTEX_POINT('',#1123);
#345=VERTEX_POINT('',#1127);
#346=VERTEX_POINT('',#1129);
#347=VERTEX_POINT('',#1133);
#348=VERTEX_POINT('',#1135);
#349=VERTEX_POINT('',#1139);
#350=VERTEX_POINT('',#1141);
#351=VERTEX_POINT('',#1145);
#352=VERTEX_POINT('',#1147);
#353=VERTEX_POINT('',#1151);
#354=VERTEX_POINT('',#1153);
#355=VERTEX_POINT('',#1157);
#356=VERTEX_POINT('',#1159);
#357=VERTEX_POINT('',#1163);
#358=VERTEX_POINT('',#1165);
#359=VERTEX_POINT('',#1169);
#360=VERTEX_POINT('',#1171);
#361=EDGE_CURVE('',#305,#305,#249,.T.);
#362=EDGE_CURVE('',#305,#306,#193,.T.);
#363=EDGE_CURVE('',#306,#306,#250,.T.);
#364=EDGE_CURVE('',#307,#307,#251,.T.);
#365=EDGE_CURVE('',#307,#308,#194,.T.);
#366=EDGE_CURVE('',#308,#308,#252,.T.);
#367=EDGE_CURVE('',#309,#309,#253,.T.);
#368=EDGE_CURVE('',#309,#310,#195,.T.);
#369=EDGE_CURVE('',#310,#310,#254,.T.);
#370=EDGE_CURVE('',#311,#311,#255,.T.);
#371=EDGE_CURVE('',#311,#312,#196,.T.);
#372=EDGE_CURVE('',#312,#312,#256,.T.);
#373=EDGE_CURVE('',#313,#313,#257,.T.);
#374=EDGE_CURVE('',#313,#314,#197,.T.);
#375=EDGE_CURVE('',#314,#314,#258,.T.);
#376=EDGE_CURVE('',#315,#315,#259,.T.);
#377=EDGE_CURVE('',#315,#316,#198,.T.);
#378=EDGE_CURVE('',#316,#316,#260,.T.);
#379=EDGE_CURVE('',#317,#317,#261,.T.);
#380=EDGE_CURVE('',#317,#318,#199,.T.);
#381=EDGE_CURVE('',#318,#318,#262,.T.);
#382=EDGE_CURVE('',#319,#319,#263,.T.);
#383=EDGE_CURVE('',#319,#320,#200,.T.);
#384=EDGE_CURVE('',#320,#320,#264,.T.);
#385=EDGE_CURVE('',#321,#321,#265,.T.);
#386=EDGE_CURVE('',#321,#322,#201,.T.);
#387=EDGE_CURVE('',#322,#322,#266,.T.);
#388=EDGE_CURVE('',#323,#323,#267,.T.);
#389=EDGE_CURVE('',#323,#324,#202,.T.);
#390=EDGE_CURVE('',#324,#324,#268,.T.);
#391=EDGE_CURVE('',#325,#325,#269,.T.);
#392=EDGE_CURVE('',#325,#326,#203,.T.);
#393=EDGE_CURVE('',#326,#326,#270,.T.);
#394=EDGE_CURVE('',#327,#327,#271,.T.);
#395=EDGE_CURVE('',#327,#328,#204,.T.);
#396=EDGE_CURVE('',#328,#328,#272,.T.);
#397=EDGE_CURVE('',#329,#329,#273,.T.);
#398=EDGE_CURVE('',#329,#330,#205,.T.);
#399=EDGE_CURVE('',#330,#330,#274,.T.);
#400=EDGE_CURVE('',#331,#331,#275,.T.);
#401=EDGE_CURVE('',#331,#332,#206,.T.);
#402=EDGE_CURVE('',#332,#332,#276,.T.);
#403=EDGE_CURVE('',#333,#333,#277,.T.);
#404=EDGE_CURVE('',#333,#334,#207,.T.);
#405=EDGE_CURVE('',#334,#334,#278,.T.);
#406=EDGE_CURVE('',#335,#335,#279,.T.);
#407=EDGE_CURVE('',#335,#336,#208,.T.);
#408=EDGE_CURVE('',#336,#336,#280,.T.);
#409=EDGE_CURVE('',#337,#337,#281,.T.);
#410=EDGE_CURVE('',#337,#338,#209,.T.);
#411=EDGE_CURVE('',#338,#338,#282,.T.);
#412=EDGE_CURVE('',#339,#339,#283,.T.);
#413=EDGE_CURVE('',#339,#340,#210,.T.);
#414=EDGE_CURVE('',#340,#340,#284,.T.);
#415=EDGE_CURVE('',#341,#341,#285,.T.);
#416=EDGE_CURVE('',#341,#342,#211,.T.);
#417=EDGE_CURVE('',#342,#342,#286,.T.);
#418=EDGE_CURVE('',#343,#343,#287,.T.);
#419=EDGE_CURVE('',#343,#344,#212,.T.);
#420=EDGE_CURVE('',#344,#344,#288,.T.);
#421=EDGE_CURVE('',#345,#345,#289,.T.);
#422=EDGE_CURVE('',#345,#346,#213,.T.);
#423=EDGE_CURVE('',#346,#346,#290,.T.);
#424=EDGE_CURVE('',#347,#347,#291,.T.);
#425=EDGE_CURVE('',#347,#348,#214,.T.);
#426=EDGE_CURVE('',#348,#348,#292,.T.);
#427=EDGE_CURVE('',#349,#349,#293,.T.);
#428=EDGE_CURVE('',#349,#350,#215,.T.);
#429=EDGE_CURVE('',#350,#350,#294,.T.);
#430=EDGE_CURVE('',#351,#351,#295,.T.);
#431=EDGE_CURVE('',#351,#352,#216,.T.);
#432=EDGE_CURVE('',#352,#352,#296,.T.);
#433=EDGE_CURVE('',#353,#353,#297,.T.);
#434=EDGE_CURVE('',#353,#354,#217,.T.);
#435=EDGE_CURVE('',#354,#354,#298,.T.);
#436=EDGE_CURVE('',#355,#355,#299,.T.);
#437=EDGE_CURVE('',#355,#356,#218,.T.);
#438=EDGE_CURVE('',#356,#356,#300,.T.);
#439=EDGE_CURVE('',#357,#357,#301,.T.);
#440=EDGE_CURVE('',#357,#358,#219,.T.);
#441=EDGE_CURVE('',#358,#358,#302,.T.);
#442=EDGE_CURVE('',#359,#359,#303,.T.);
#443=EDGE_CURVE('',#359,#360,#220,.T.);
#444=EDGE_CURVE('',#360,#360,#304,.T.);
#445=ORIENTED_EDGE('',*,*,#361,.F.);
#446=ORIENTED_EDGE('',*,*,#362,.T.);
#447=ORIENTED_EDGE('',*,*,#363,.T.);
#448=ORIENTED_EDGE('',*,*,#362,.F.);
#449=ORIENTED_EDGE('',*,*,#364,.F.);
#450=ORIENTED_EDGE('',*,*,#365,.T.);
#451=ORIENTED_EDGE('',*,*,#366,.T.);
#452=ORIENTED_EDGE('',*,*,#365,.F.);
#453=ORIENTED_EDGE('',*,*,#367,.F.);
#454=ORIENTED_EDGE('',*,*,#368,.T.);
#455=ORIENTED_EDGE('',*,*,#369,.T.);
#456=ORIENTED_EDGE('',*,*,#368,.F.);
#457=ORIENTED_EDGE('',*,*,#370,.F.);
#458=ORIENTED_EDGE('',*,*,#371,.T.);
#459=ORIENTED_EDGE('',*,*,#372,.T.);
#460=ORIENTED_EDGE('',*,*,#371,.F.);
#461=ORIENTED_EDGE('',*,*,#373,.F.);
#462=ORIENTED_EDGE('',*,*,#374,.T.);
#463=ORIENTED_EDGE('',*,*,#375,.T.);
#464=ORIENTED_EDGE('',*,*,#374,.F.);
#465=ORIENTED_EDGE('',*,*,#376,.F.);
#466=ORIENTED_EDGE('',*,*,#377,.T.);
#467=ORIENTED_EDGE('',*,*,#378,.T.);
#468=ORIENTED_EDGE('',*,*,#377,.F.);
#469=ORIENTED_EDGE('',*,*,#379,.F.);
#470=ORIENTED_EDGE('',*,*,#380,.T.);
#471=ORIENTED_EDGE('',*,*,#381,.T.);
#472=ORIENTED_EDGE('',*,*,#380,.F.);
#473=ORIENTED_EDGE('',*,*,#382,.T.);
#474=ORIENTED_EDGE('',*,*,#383,.T.);
#475=ORIENTED_EDGE('',*,*,#384,.T.);
#476=ORIENTED_EDGE('',*,*,#383,.F.);
#477=ORIENTED_EDGE('',*,*,#385,.T.);
#478=ORIENTED_EDGE('',*,*,#386,.T.);
#479=ORIENTED_EDGE('',*,*,#387,.T.);
#480=ORIENTED_EDGE('',*,*,#386,.F.);
#481=ORIENTED_EDGE('',*,*,#388,.T.);
#482=ORIENTED_EDGE('',*,*,#389,.T.);
#483=ORIENTED_EDGE('',*,*,#390,.T.);
#484=ORIENTED_EDGE('',*,*,#389,.F.);
#485=ORIENTED_EDGE('',*,*,#391,.T.);
#486=ORIENTED_EDGE('',*,*,#392,.T.);
#487=ORIENTED_EDGE('',*,*,#393,.T.);
#488=ORIENTED_EDGE('',*,*,#392,.F.);
#489=ORIENTED_EDGE('',*,*,#394,.T.);
#490=ORIENTED_EDGE('',*,*,#395,.T.);
#491=ORIENTED_EDGE('',*,*,#396,.T.);
#492=ORIENTED_EDGE('',*,*,#395,.F.);
#493=ORIENTED_EDGE('',*,*,#397,.T.);
#494=ORIENTED_EDGE('',*,*,#398,.T.);
#495=ORIENTED_EDGE('',*,*,#399,.T.);
#496=ORIENTED_EDGE('',*,*,#398,.F.);
#497=ORIENTED_EDGE('',*,*,#400,.T.);
#498=ORIENTED_EDGE('',*,*,#401,.T.);
#499=ORIENTED_EDGE('',*,*,#402,.T.);
#500=ORIENTED_EDGE('',*,*,#401,.F.);
#501=ORIENTED_EDGE('',*,*,#403,.T.);
#502=ORIENTED_EDGE('',*,*,#404,.T.);
#503=ORIENTED_EDGE('',*,*,#405,.T.);
#504=ORIENTED_EDGE('',*,*,#404,.F.);
#505=ORIENTED_EDGE('',*,*,#406,.F.);
#506=ORIENTED_EDGE('',*,*,#407,.T.);
#507=ORIENTED_EDGE('',*,*,#408,.T.);
#508=ORIENTED_EDGE('',*,*,#407,.F.);
#509=ORIENTED_EDGE('',*,*,#409,.T.);
#510=ORIENTED_EDGE('',*,*,#410,.T.);
#511=ORIENTED_EDGE('',*,*,#411,.T.);
#512=ORIENTED_EDGE('',*,*,#410,.F.);
#513=ORIENTED_EDGE('',*,*,#412,.F.);
#514=ORIENTED_EDGE('',*,*,#413,.T.);
#515=ORIENTED_EDGE('',*,*,#414,.F.);
#516=ORIENTED_EDGE('',*,*,#413,.F.);
#517=ORIENTED_EDGE('',*,*,#415,.F.);
#518=ORIENTED_EDGE('',*,*,#416,.T.);
#519=ORIENTED_EDGE('',*,*,#417,.F.);
#520=ORIENTED_EDGE('',*,*,#416,.F.);
#521=ORIENTED_EDGE('',*,*,#418,.F.);
#522=ORIENTED_EDGE('',*,*,#419,.T.);
#523=ORIENTED_EDGE('',*,*,#420,.F.);
#524=ORIENTED_EDGE('',*,*,#419,.F.);
#525=ORIENTED_EDGE('',*,*,#421,.F.);
#526=ORIENTED_EDGE('',*,*,#422,.T.);
#527=ORIENTED_EDGE('',*,*,#423,.F.);
#528=ORIENTED_EDGE('',*,*,#422,.F.);
#529=ORIENTED_EDGE('',*,*,#424,.F.);
#530=ORIENTED_EDGE('',*,*,#425,.T.);
#531=ORIENTED_EDGE('',*,*,#426,.T.);
#532=ORIENTED_EDGE('',*,*,#425,.F.);
#533=ORIENTED_EDGE('',*,*,#427,.F.);
#534=ORIENTED_EDGE('',*,*,#428,.T.);
#535=ORIENTED_EDGE('',*,*,#429,.T.);
#536=ORIENTED_EDGE('',*,*,#428,.F.);
#537=ORIENTED_EDGE('',*,*,#430,.F.);
#538=ORIENTED_EDGE('',*,*,#431,.T.);
#539=ORIENTED_EDGE('',*,*,#432,.T.);
#540=ORIENTED_EDGE('',*,*,#431,.F.);
#541=ORIENTED_EDGE('',*,*,#433,.F.);
#542=ORIENTED_EDGE('',*,*,#434,.T.);
#543=ORIENTED_EDGE('',*,*,#435,.T.);
#544=ORIENTED_EDGE('',*,*,#434,.F.);
#545=ORIENTED_EDGE('',*,*,#436,.F.);
#546=ORIENTED_EDGE('',*,*,#437,.T.);
#547=ORIENTED_EDGE('',*,*,#438,.T.);
#548=ORIENTED_EDGE('',*,*,#437,.F.);
#549=ORIENTED_EDGE('',*,*,#439,.F.);
#550=ORIENTED_EDGE('',*,*,#440,.T.);
#551=ORIENTED_EDGE('',*,*,#441,.T.);
#552=ORIENTED_EDGE('',*,*,#440,.F.);
#553=ORIENTED_EDGE('',*,*,#442,.F.);
#554=ORIENTED_EDGE('',*,*,#443,.T.);
#555=ORIENTED_EDGE('',*,*,#444,.T.);
#556=ORIENTED_EDGE('',*,*,#443,.F.);
#557=ORIENTED_EDGE('',*,*,#414,.T.);
#558=ORIENTED_EDGE('',*,*,#421,.T.);
#559=ORIENTED_EDGE('',*,*,#418,.T.);
#560=ORIENTED_EDGE('',*,*,#415,.T.);
#561=ORIENTED_EDGE('',*,*,#411,.F.);
#562=ORIENTED_EDGE('',*,*,#426,.F.);
#563=ORIENTED_EDGE('',*,*,#429,.F.);
#564=ORIENTED_EDGE('',*,*,#432,.F.);
#565=ORIENTED_EDGE('',*,*,#435,.F.);
#566=ORIENTED_EDGE('',*,*,#438,.F.);
#567=ORIENTED_EDGE('',*,*,#441,.F.);
#568=ORIENTED_EDGE('',*,*,#444,.F.);
#569=ORIENTED_EDGE('',*,*,#382,.F.);
#570=ORIENTED_EDGE('',*,*,#385,.F.);
#571=ORIENTED_EDGE('',*,*,#388,.F.);
#572=ORIENTED_EDGE('',*,*,#391,.F.);
#573=ORIENTED_EDGE('',*,*,#394,.F.);
#574=ORIENTED_EDGE('',*,*,#397,.F.);
#575=ORIENTED_EDGE('',*,*,#400,.F.);
#576=ORIENTED_EDGE('',*,*,#403,.F.);
#577=ORIENTED_EDGE('',*,*,#412,.T.);
#578=ORIENTED_EDGE('',*,*,#423,.T.);
#579=ORIENTED_EDGE('',*,*,#420,.T.);
#580=ORIENTED_EDGE('',*,*,#417,.T.);
#581=ORIENTED_EDGE('',*,*,#408,.F.);
#582=ORIENTED_EDGE('',*,*,#372,.F.);
#583=ORIENTED_EDGE('',*,*,#369,.F.);
#584=ORIENTED_EDGE('',*,*,#366,.F.);
#585=ORIENTED_EDGE('',*,*,#363,.F.);
#586=ORIENTED_EDGE('',*,*,#381,.F.);
#587=ORIENTED_EDGE('',*,*,#378,.F.);
#588=ORIENTED_EDGE('',*,*,#375,.F.);
#589=ORIENTED_EDGE('',*,*,#406,.T.);
#590=ORIENTED_EDGE('',*,*,#409,.F.);
#591=ORIENTED_EDGE('',*,*,#384,.F.);
#592=ORIENTED_EDGE('',*,*,#387,.F.);
#593=ORIENTED_EDGE('',*,*,#390,.F.);
#594=ORIENTED_EDGE('',*,*,#393,.F.);
#595=ORIENTED_EDGE('',*,*,#396,.F.);
#596=ORIENTED_EDGE('',*,*,#399,.F.);
#597=ORIENTED_EDGE('',*,*,#402,.F.);
#598=ORIENTED_EDGE('',*,*,#405,.F.);
#599=ORIENTED_EDGE('',*,*,#379,.T.);
#600=ORIENTED_EDGE('',*,*,#424,.T.);
#601=ORIENTED_EDGE('',*,*,#376,.T.);
#602=ORIENTED_EDGE('',*,*,#427,.T.);
#603=ORIENTED_EDGE('',*,*,#373,.T.);
#604=ORIENTED_EDGE('',*,*,#430,.T.);
#605=ORIENTED_EDGE('',*,*,#370,.T.);
#606=ORIENTED_EDGE('',*,*,#433,.T.);
#607=ORIENTED_EDGE('',*,*,#367,.T.);
#608=ORIENTED_EDGE('',*,*,#436,.T.);
#609=ORIENTED_EDGE('',*,*,#364,.T.);
#610=ORIENTED_EDGE('',*,*,#439,.T.);
#611=ORIENTED_EDGE('',*,*,#361,.T.);
#612=ORIENTED_EDGE('',*,*,#442,.T.);
#613=CYLINDRICAL_SURFACE('',#693,7.5000000000066);
#614=CYLINDRICAL_SURFACE('',#696,7.5000000000104);
#615=CYLINDRICAL_SURFACE('',#699,7.50000000000876);
#616=CYLINDRICAL_SURFACE('',#702,7.50000000000441);
#617=CYLINDRICAL_SURFACE('',#705,7.5);
#618=CYLINDRICAL_SURFACE('',#708,7.49999999999934);
#619=CYLINDRICAL_SURFACE('',#711,7.50000000000203);
#620=CYLINDRICAL_SURFACE('',#714,2.5);
#621=CYLINDRICAL_SURFACE('',#717,2.50000000000002);
#622=CYLINDRICAL_SURFACE('',#720,2.50000000000001);
#623=CYLINDRICAL_SURFACE('',#723,2.50000000000001);
#624=CYLINDRICAL_SURFACE('',#726,2.5);
#625=CYLINDRICAL_SURFACE('',#729,2.5);
#626=CYLINDRICAL_SURFACE('',#732,2.50000000000003);
#627=CYLINDRICAL_SURFACE('',#735,2.50000000000001);
#628=CYLINDRICAL_SURFACE('',#738,48.);
#629=CYLINDRICAL_SURFACE('',#741,40.);
#630=CYLINDRICAL_SURFACE('',#744,79.);
#631=CYLINDRICAL_SURFACE('',#747,8.5);
#632=CYLINDRICAL_SURFACE('',#750,8.5);
#633=CYLINDRICAL_SURFACE('',#753,8.5);
#634=CYLINDRICAL_SURFACE('',#756,4.);
#635=CYLINDRICAL_SURFACE('',#759,4.);
#636=CYLINDRICAL_SURFACE('',#762,4.);
#637=CYLINDRICAL_SURFACE('',#765,3.99999999999998);
#638=CYLINDRICAL_SURFACE('',#768,3.99999999999999);
#639=CYLINDRICAL_SURFACE('',#771,4.);
#640=CYLINDRICAL_SURFACE('',#774,4.);
#641=ADVANCED_FACE('',(#71),#613,.F.);
#642=ADVANCED_FACE('',(#72),#614,.F.);
#643=ADVANCED_FACE('',(#73),#615,.F.);
#644=ADVANCED_FACE('',(#74),#616,.F.);
#645=ADVANCED_FACE('',(#75),#617,.F.);
#646=ADVANCED_FACE('',(#76),#618,.F.);
#647=ADVANCED_FACE('',(#77),#619,.F.);
#648=ADVANCED_FACE('',(#78),#620,.F.);
#649=ADVANCED_FACE('',(#79),#621,.F.);
#650=ADVANCED_FACE('',(#80),#622,.F.);
#651=ADVANCED_FACE('',(#81),#623,.F.);
#652=ADVANCED_FACE('',(#82),#624,.F.);
#653=ADVANCED_FACE('',(#83),#625,.F.);
#654=ADVANCED_FACE('',(#84),#626,.F.);
#655=ADVANCED_FACE('',(#85),#627,.F.);
#656=ADVANCED_FACE('',(#86),#628,.F.);
#657=ADVANCED_FACE('',(#87),#629,.F.);
#658=ADVANCED_FACE('',(#88),#630,.T.);
#659=ADVANCED_FACE('',(#89),#631,.F.);
#660=ADVANCED_FACE('',(#90),#632,.F.);
#661=ADVANCED_FACE('',(#91),#633,.F.);
#662=ADVANCED_FACE('',(#92),#634,.F.);
#663=ADVANCED_FACE('',(#93),#635,.F.);
#664=ADVANCED_FACE('',(#94),#636,.F.);
#665=ADVANCED_FACE('',(#95),#637,.F.);
#666=ADVANCED_FACE('',(#96),#638,.F.);
#667=ADVANCED_FACE('',(#97),#639,.F.);
#668=ADVANCED_FACE('',(#98),#640,.F.);
#669=ADVANCED_FACE('',(#99,#15,#16,#17,#18,#19,#20,#21,#22,#23,#24,#25,
#26,#27,#28,#29,#30,#31,#32,#33),#61,.T.);
#670=ADVANCED_FACE('',(#100,#34,#35,#36,#37,#38,#39,#40,#41,#42,#43,#44),
#62,.F.);
#671=ADVANCED_FACE('',(#101,#45,#46,#47,#48,#49,#50,#51,#52,#53),#63,.T.);
#672=ADVANCED_FACE('',(#102,#54),#64,.T.);
#673=ADVANCED_FACE('',(#103,#55),#65,.T.);
#674=ADVANCED_FACE('',(#104,#56),#66,.T.);
#675=ADVANCED_FACE('',(#105,#57),#67,.T.);
#676=ADVANCED_FACE('',(#106,#58),#68,.T.);
#677=ADVANCED_FACE('',(#107,#59),#69,.T.);
#678=ADVANCED_FACE('',(#108,#60),#70,.T.);
#679=CLOSED_SHELL('',(#641,#642,#643,#644,#645,#646,#647,#648,#649,#650,
#651,#652,#653,#654,#655,#656,#657,#658,#659,#660,#661,#662,#663,#664,#665,
#666,#667,#668,#669,#670,#671,#672,#673,#674,#675,#676,#677,#678));
#680=DERIVED_UNIT_ELEMENT(#682,1.);
#681=DERIVED_UNIT_ELEMENT(#1189,-3.);
#682=(
MASS_UNIT()
NAMED_UNIT(*)
SI_UNIT(.KILO.,.GRAM.)
);
#683=DERIVED_UNIT((#680,#681));
#684=MEASURE_REPRESENTATION_ITEM('density measure',
POSITIVE_RATIO_MEASURE(7850.),#683);
#685=PROPERTY_DEFINITION_REPRESENTATION(#690,#687);
#686=PROPERTY_DEFINITION_REPRESENTATION(#691,#688);
#687=REPRESENTATION('material name',(#689),#1186);
#688=REPRESENTATION('density',(#684),#1186);
#689=DESCRIPTIVE_REPRESENTATION_ITEM('Steel','Steel');
#690=PROPERTY_DEFINITION('material property','material name',#1196);
#691=PROPERTY_DEFINITION('material property','density of part',#1196);
#692=AXIS2_PLACEMENT_3D('',#1005,#787,#788);
#693=AXIS2_PLACEMENT_3D('',#1006,#789,#790);
#694=AXIS2_PLACEMENT_3D('',#1008,#791,#792);
#695=AXIS2_PLACEMENT_3D('',#1011,#794,#795);
#696=AXIS2_PLACEMENT_3D('',#1012,#796,#797);
#697=AXIS2_PLACEMENT_3D('',#1014,#798,#799);
#698=AXIS2_PLACEMENT_3D('',#1017,#801,#802);
#699=AXIS2_PLACEMENT_3D('',#1018,#803,#804);
#700=AXIS2_PLACEMENT_3D('',#1020,#805,#806);
#701=AXIS2_PLACEMENT_3D('',#1023,#808,#809);
#702=AXIS2_PLACEMENT_3D('',#1024,#810,#811);
#703=AXIS2_PLACEMENT_3D('',#1026,#812,#813);
#704=AXIS2_PLACEMENT_3D('',#1029,#815,#816);
#705=AXIS2_PLACEMENT_3D('',#1030,#817,#818);
#706=AXIS2_PLACEMENT_3D('',#1032,#819,#820);
#707=AXIS2_PLACEMENT_3D('',#1035,#822,#823);
#708=AXIS2_PLACEMENT_3D('',#1036,#824,#825);
#709=AXIS2_PLACEMENT_3D('',#1038,#826,#827);
#710=AXIS2_PLACEMENT_3D('',#1041,#829,#830);
#711=AXIS2_PLACEMENT_3D('',#1042,#831,#832);
#712=AXIS2_PLACEMENT_3D('',#1044,#833,#834);
#713=AXIS2_PLACEMENT_3D('',#1047,#836,#837);
#714=AXIS2_PLACEMENT_3D('',#1048,#838,#839);
#715=AXIS2_PLACEMENT_3D('',#1050,#840,#841);
#716=AXIS2_PLACEMENT_3D('',#1053,#843,#844);
#717=AXIS2_PLACEMENT_3D('',#1054,#845,#846);
#718=AXIS2_PLACEMENT_3D('',#1056,#847,#848);
#719=AXIS2_PLACEMENT_3D('',#1059,#850,#851);
#720=AXIS2_PLACEMENT_3D('',#1060,#852,#853);
#721=AXIS2_PLACEMENT_3D('',#1062,#854,#855);
#722=AXIS2_PLACEMENT_3D('',#1065,#857,#858);
#723=AXIS2_PLACEMENT_3D('',#1066,#859,#860);
#724=AXIS2_PLACEMENT_3D('',#1068,#861,#862);
#725=AXIS2_PLACEMENT_3D('',#1071,#864,#865);
#726=AXIS2_PLACEMENT_3D('',#1072,#866,#867);
#727=AXIS2_PLACEMENT_3D('',#1074,#868,#869);
#728=AXIS2_PLACEMENT_3D('',#1077,#871,#872);
#729=AXIS2_PLACEMENT_3D('',#1078,#873,#874);
#730=AXIS2_PLACEMENT_3D('',#1080,#875,#876);
#731=AXIS2_PLACEMENT_3D('',#1083,#878,#879);
#732=AXIS2_PLACEMENT_3D('',#1084,#880,#881);
#733=AXIS2_PLACEMENT_3D('',#1086,#882,#883);
#734=AXIS2_PLACEMENT_3D('',#1089,#885,#886);
#735=AXIS2_PLACEMENT_3D('',#1090,#887,#888);
#736=AXIS2_PLACEMENT_3D('',#1092,#889,#890);
#737=AXIS2_PLACEMENT_3D('',#1095,#892,#893);
#738=AXIS2_PLACEMENT_3D('',#1096,#894,#895);
#739=AXIS2_PLACEMENT_3D('',#1098,#896,#897);
#740=AXIS2_PLACEMENT_3D('',#1101,#899,#900);
#741=AXIS2_PLACEMENT_3D('',#1102,#901,#902);
#742=AXIS2_PLACEMENT_3D('',#1104,#903,#904);
#743=AXIS2_PLACEMENT_3D('',#1107,#906,#907);
#744=AXIS2_PLACEMENT_3D('',#1108,#908,#909);
#745=AXIS2_PLACEMENT_3D('',#1110,#910,#911);
#746=AXIS2_PLACEMENT_3D('',#1113,#913,#914);
#747=AXIS2_PLACEMENT_3D('',#1114,#915,#916);
#748=AXIS2_PLACEMENT_3D('',#1116,#917,#918);
#749=AXIS2_PLACEMENT_3D('',#1119,#920,#921);
#750=AXIS2_PLACEMENT_3D('',#1120,#922,#923);
#751=AXIS2_PLACEMENT_3D('',#1122,#924,#925);
#752=AXIS2_PLACEMENT_3D('',#1125,#927,#928);
#753=AXIS2_PLACEMENT_3D('',#1126,#929,#930);
#754=AXIS2_PLACEMENT_3D('',#1128,#931,#932);
#755=AXIS2_PLACEMENT_3D('',#1131,#934,#935);
#756=AXIS2_PLACEMENT_3D('',#1132,#936,#937);
#757=AXIS2_PLACEMENT_3D('',#1134,#938,#939);
#758=AXIS2_PLACEMENT_3D('',#1137,#941,#942);
#759=AXIS2_PLACEMENT_3D('',#1138,#943,#944);
#760=AXIS2_PLACEMENT_3D('',#1140,#945,#946);
#761=AXIS2_PLACEMENT_3D('',#1143,#948,#949);
#762=AXIS2_PLACEMENT_3D('',#1144,#950,#951);
#763=AXIS2_PLACEMENT_3D('',#1146,#952,#953);
#764=AXIS2_PLACEMENT_3D('',#1149,#955,#956);
#765=AXIS2_PLACEMENT_3D('',#1150,#957,#958);
#766=AXIS2_PLACEMENT_3D('',#1152,#959,#960);
#767=AXIS2_PLACEMENT_3D('',#1155,#962,#963);
#768=AXIS2_PLACEMENT_3D('',#1156,#964,#965);
#769=AXIS2_PLACEMENT_3D('',#1158,#966,#967);
#770=AXIS2_PLACEMENT_3D('',#1161,#969,#970);
#771=AXIS2_PLACEMENT_3D('',#1162,#971,#972);
#772=AXIS2_PLACEMENT_3D('',#1164,#973,#974);
#773=AXIS2_PLACEMENT_3D('',#1167,#976,#977);
#774=AXIS2_PLACEMENT_3D('',#1168,#978,#979);
#775=AXIS2_PLACEMENT_3D('',#1170,#980,#981);
#776=AXIS2_PLACEMENT_3D('',#1173,#983,#984);
#777=AXIS2_PLACEMENT_3D('',#1174,#985,#986);
#778=AXIS2_PLACEMENT_3D('',#1175,#987,#988);
#779=AXIS2_PLACEMENT_3D('',#1176,#989,#990);
#780=AXIS2_PLACEMENT_3D('',#1177,#991,#992);
#781=AXIS2_PLACEMENT_3D('',#1178,#993,#994);
#782=AXIS2_PLACEMENT_3D('',#1179,#995,#996);
#783=AXIS2_PLACEMENT_3D('',#1180,#997,#998);
#784=AXIS2_PLACEMENT_3D('',#1181,#999,#1000);
#785=AXIS2_PLACEMENT_3D('',#1182,#1001,#1002);
#786=AXIS2_PLACEMENT_3D('',#1183,#1003,#1004);
#787=DIRECTION('axis',(0.,0.,1.));
#788=DIRECTION('refdir',(1.,0.,0.));
#789=DIRECTION('center_axis',(0.,0.,-1.));
#790=DIRECTION('ref_axis',(-1.,0.,0.));
#791=DIRECTION('center_axis',(0.,0.,-1.));
#792=DIRECTION('ref_axis',(-1.,0.,0.));
#793=DIRECTION('',(0.,0.,-1.));
#794=DIRECTION('center_axis',(0.,0.,-1.));
#795=DIRECTION('ref_axis',(-1.,0.,0.));
#796=DIRECTION('center_axis',(0.,0.,-1.));
#797=DIRECTION('ref_axis',(-1.,0.,0.));
#798=DIRECTION('center_axis',(0.,0.,-1.));
#799=DIRECTION('ref_axis',(-1.,0.,0.));
#800=DIRECTION('',(0.,0.,-1.));
#801=DIRECTION('center_axis',(0.,0.,-1.));
#802=DIRECTION('ref_axis',(-1.,0.,0.));
#803=DIRECTION('center_axis',(0.,0.,-1.));
#804=DIRECTION('ref_axis',(-1.,0.,0.));
#805=DIRECTION('center_axis',(0.,0.,-1.));
#806=DIRECTION('ref_axis',(-1.,0.,0.));
#807=DIRECTION('',(0.,0.,-1.));
#808=DIRECTION('center_axis',(0.,0.,-1.));
#809=DIRECTION('ref_axis',(-1.,0.,0.));
#810=DIRECTION('center_axis',(0.,0.,-1.));
#811=DIRECTION('ref_axis',(-1.,0.,0.));
#812=DIRECTION('center_axis',(0.,0.,-1.));
#813=DIRECTION('ref_axis',(-1.,0.,0.));
#814=DIRECTION('',(0.,0.,-1.));
#815=DIRECTION('center_axis',(0.,0.,-1.));
#816=DIRECTION('ref_axis',(-1.,0.,0.));
#817=DIRECTION('center_axis',(0.,0.,-1.));
#818=DIRECTION('ref_axis',(-1.,0.,0.));
#819=DIRECTION('center_axis',(0.,0.,-1.));
#820=DIRECTION('ref_axis',(-1.,0.,0.));
#821=DIRECTION('',(0.,0.,-1.));
#822=DIRECTION('center_axis',(0.,0.,-1.));
#823=DIRECTION('ref_axis',(-1.,0.,0.));
#824=DIRECTION('center_axis',(0.,0.,-1.));
#825=DIRECTION('ref_axis',(-1.,0.,0.));
#826=DIRECTION('center_axis',(0.,0.,-1.));
#827=DIRECTION('ref_axis',(-1.,0.,0.));
#828=DIRECTION('',(0.,0.,-1.));
#829=DIRECTION('center_axis',(0.,0.,-1.));
#830=DIRECTION('ref_axis',(-1.,0.,0.));
#831=DIRECTION('center_axis',(0.,0.,-1.));
#832=DIRECTION('ref_axis',(-1.,0.,0.));
#833=DIRECTION('center_axis',(0.,0.,-1.));
#834=DIRECTION('ref_axis',(-1.,0.,0.));
#835=DIRECTION('',(0.,0.,-1.));
#836=DIRECTION('center_axis',(0.,0.,-1.));
#837=DIRECTION('ref_axis',(-1.,0.,0.));
#838=DIRECTION('center_axis',(0.,0.,-1.));
#839=DIRECTION('ref_axis',(-1.,0.,0.));
#840=DIRECTION('center_axis',(0.,0.,1.));
#841=DIRECTION('ref_axis',(1.,0.,0.));
#842=DIRECTION('',(0.,0.,-1.));
#843=DIRECTION('center_axis',(0.,0.,-1.));
#844=DIRECTION('ref_axis',(-1.,0.,0.));
#845=DIRECTION('center_axis',(0.,0.,-1.));
#846=DIRECTION('ref_axis',(-1.,0.,0.));
#847=DIRECTION('center_axis',(0.,0.,1.));
#848=DIRECTION('ref_axis',(1.,0.,0.));
#849=DIRECTION('',(0.,0.,-1.));
#850=DIRECTION('center_axis',(0.,0.,-1.));
#851=DIRECTION('ref_axis',(-1.,0.,0.));
#852=DIRECTION('center_axis',(0.,0.,-1.));
#853=DIRECTION('ref_axis',(-1.,0.,0.));
#854=DIRECTION('center_axis',(0.,0.,1.));
#855=DIRECTION('ref_axis',(1.,0.,0.));
#856=DIRECTION('',(0.,0.,-1.));
#857=DIRECTION('center_axis',(0.,0.,-1.));
#858=DIRECTION('ref_axis',(-1.,0.,0.));
#859=DIRECTION('center_axis',(0.,0.,-1.));
#860=DIRECTION('ref_axis',(-1.,0.,0.));
#861=DIRECTION('center_axis',(0.,0.,1.));
#862=DIRECTION('ref_axis',(1.,0.,0.));
#863=DIRECTION('',(0.,0.,-1.));
#864=DIRECTION('center_axis',(0.,0.,-1.));
#865=DIRECTION('ref_axis',(-1.,0.,0.));
#866=DIRECTION('center_axis',(0.,0.,-1.));
#867=DIRECTION('ref_axis',(-1.,0.,0.));
#868=DIRECTION('center_axis',(0.,0.,1.));
#869=DIRECTION('ref_axis',(1.,0.,0.));
#870=DIRECTION('',(0.,0.,-1.));
#871=DIRECTION('center_axis',(0.,0.,-1.));
#872=DIRECTION('ref_axis',(-1.,0.,0.));
#873=DIRECTION('center_axis',(0.,0.,-1.));
#874=DIRECTION('ref_axis',(-1.,0.,0.));
#875=DIRECTION('center_axis',(0.,0.,1.));
#876=DIRECTION('ref_axis',(1.,0.,0.));
#877=DIRECTION('',(0.,0.,-1.));
#878=DIRECTION('center_axis',(0.,0.,-1.));
#879=DIRECTION('ref_axis',(-1.,0.,0.));
#880=DIRECTION('center_axis',(0.,0.,-1.));
#881=DIRECTION('ref_axis',(-1.,0.,0.));
#882=DIRECTION('center_axis',(0.,0.,1.));
#883=DIRECTION('ref_axis',(1.,0.,0.));
#884=DIRECTION('',(0.,0.,-1.));
#885=DIRECTION('center_axis',(0.,0.,-1.));
#886=DIRECTION('ref_axis',(-1.,0.,0.));
#887=DIRECTION('center_axis',(0.,0.,-1.));
#888=DIRECTION('ref_axis',(-1.,0.,0.));
#889=DIRECTION('center_axis',(0.,0.,1.));
#890=DIRECTION('ref_axis',(1.,0.,0.));
#891=DIRECTION('',(0.,0.,-1.));
#892=DIRECTION('center_axis',(0.,0.,-1.));
#893=DIRECTION('ref_axis',(-1.,0.,0.));
#894=DIRECTION('center_axis',(0.,0.,-1.));
#895=DIRECTION('ref_axis',(-1.,0.,0.));
#896=DIRECTION('center_axis',(0.,0.,-1.));
#897=DIRECTION('ref_axis',(-1.,0.,0.));
#898=DIRECTION('',(0.,0.,-1.));
#899=DIRECTION('center_axis',(0.,0.,-1.));
#900=DIRECTION('ref_axis',(-1.,0.,0.));
#901=DIRECTION('center_axis',(0.,0.,1.));
#902=DIRECTION('ref_axis',(1.,0.,0.));
#903=DIRECTION('center_axis',(0.,0.,-1.));
#904=DIRECTION('ref_axis',(-1.,0.,0.));
#905=DIRECTION('',(0.,0.,1.));
#906=DIRECTION('center_axis',(0.,0.,1.));
#907=DIRECTION('ref_axis',(1.,0.,0.));
#908=DIRECTION('center_axis',(0.,0.,-1.));
#909=DIRECTION('ref_axis',(1.,0.,0.));
#910=DIRECTION('center_axis',(0.,0.,-1.));
#911=DIRECTION('ref_axis',(1.,0.,0.));
#912=DIRECTION('',(0.,0.,1.));
#913=DIRECTION('center_axis',(0.,0.,1.));
#914=DIRECTION('ref_axis',(1.,0.,0.));
#915=DIRECTION('center_axis',(0.,0.,-1.));
#916=DIRECTION('ref_axis',(1.,0.,0.));
#917=DIRECTION('center_axis',(0.,0.,-1.));
#918=DIRECTION('ref_axis',(1.,0.,0.));
#919=DIRECTION('',(0.,0.,-1.));
#920=DIRECTION('center_axis',(0.,0.,1.));
#921=DIRECTION('ref_axis',(1.,0.,0.));
#922=DIRECTION('center_axis',(0.,0.,-1.));
#923=DIRECTION('ref_axis',(1.,0.,0.));
#924=DIRECTION('center_axis',(0.,0.,-1.));
#925=DIRECTION('ref_axis',(1.,0.,0.));
#926=DIRECTION('',(0.,0.,-1.));
#927=DIRECTION('center_axis',(0.,0.,1.));
#928=DIRECTION('ref_axis',(1.,0.,0.));
#929=DIRECTION('center_axis',(0.,0.,-1.));
#930=DIRECTION('ref_axis',(1.,0.,0.));
#931=DIRECTION('center_axis',(0.,0.,-1.));
#932=DIRECTION('ref_axis',(1.,0.,0.));
#933=DIRECTION('',(0.,0.,-1.));
#934=DIRECTION('center_axis',(0.,0.,1.));
#935=DIRECTION('ref_axis',(1.,0.,0.));
#936=DIRECTION('center_axis',(0.,0.,1.));
#937=DIRECTION('ref_axis',(1.,0.,0.));
#938=DIRECTION('center_axis',(0.,0.,1.));
#939=DIRECTION('ref_axis',(-1.,0.,0.));
#940=DIRECTION('',(0.,0.,1.));
#941=DIRECTION('center_axis',(0.,0.,1.));
#942=DIRECTION('ref_axis',(1.,0.,0.));
#943=DIRECTION('center_axis',(0.,0.,1.));
#944=DIRECTION('ref_axis',(1.,0.,0.));
#945=DIRECTION('center_axis',(0.,0.,1.));
#946=DIRECTION('ref_axis',(-1.,0.,0.));
#947=DIRECTION('',(0.,0.,1.));
#948=DIRECTION('center_axis',(0.,0.,1.));
#949=DIRECTION('ref_axis',(1.,0.,0.));
#950=DIRECTION('center_axis',(0.,0.,1.));
#951=DIRECTION('ref_axis',(1.,0.,0.));
#952=DIRECTION('center_axis',(0.,0.,1.));
#953=DIRECTION('ref_axis',(-1.,0.,0.));
#954=DIRECTION('',(0.,0.,1.));
#955=DIRECTION('center_axis',(0.,0.,1.));
#956=DIRECTION('ref_axis',(1.,0.,0.));
#957=DIRECTION('center_axis',(0.,0.,1.));
#958=DIRECTION('ref_axis',(1.,0.,0.));
#959=DIRECTION('center_axis',(0.,0.,1.));
#960=DIRECTION('ref_axis',(-1.,0.,0.));
#961=DIRECTION('',(0.,0.,1.));
#962=DIRECTION('center_axis',(0.,0.,1.));
#963=DIRECTION('ref_axis',(1.,0.,0.));
#964=DIRECTION('center_axis',(0.,0.,1.));
#965=DIRECTION('ref_axis',(1.,0.,0.));
#966=DIRECTION('center_axis',(0.,0.,1.));
#967=DIRECTION('ref_axis',(-1.,0.,0.));
#968=DIRECTION('',(0.,0.,1.));
#969=DIRECTION('center_axis',(0.,0.,1.));
#970=DIRECTION('ref_axis',(1.,0.,0.));
#971=DIRECTION('center_axis',(0.,0.,1.));
#972=DIRECTION('ref_axis',(1.,0.,0.));
#973=DIRECTION('center_axis',(0.,0.,1.));
#974=DIRECTION('ref_axis',(-1.,0.,0.));
#975=DIRECTION('',(0.,0.,1.));
#976=DIRECTION('center_axis',(0.,0.,1.));
#977=DIRECTION('ref_axis',(1.,0.,0.));
#978=DIRECTION('center_axis',(0.,0.,1.));
#979=DIRECTION('ref_axis',(1.,0.,0.));
#980=DIRECTION('center_axis',(0.,0.,1.));
#981=DIRECTION('ref_axis',(-1.,0.,0.));
#982=DIRECTION('',(0.,0.,1.));
#983=DIRECTION('center_axis',(0.,0.,1.));
#984=DIRECTION('ref_axis',(1.,0.,0.));
#985=DIRECTION('center_axis',(0.,0.,1.));
#986=DIRECTION('ref_axis',(1.,0.,0.));
#987=DIRECTION('center_axis',(0.,0.,1.));
#988=DIRECTION('ref_axis',(1.,0.,0.));
#989=DIRECTION('center_axis',(0.,0.,-1.));
#990=DIRECTION('ref_axis',(-1.,0.,0.));
#991=DIRECTION('center_axis',(0.,0.,-1.));
#992=DIRECTION('ref_axis',(-1.,0.,0.));
#993=DIRECTION('center_axis',(0.,0.,-1.));
#994=DIRECTION('ref_axis',(-1.,0.,0.));
#995=DIRECTION('center_axis',(0.,0.,-1.));
#996=DIRECTION('ref_axis',(-1.,0.,0.));
#997=DIRECTION('center_axis',(0.,0.,-1.));
#998=DIRECTION('ref_axis',(-1.,0.,0.));
#999=DIRECTION('center_axis',(0.,0.,-1.));
#1000=DIRECTION('ref_axis',(-1.,0.,0.));
#1001=DIRECTION('center_axis',(0.,0.,-1.));
#1002=DIRECTION('ref_axis',(-1.,0.,0.));
#1003=DIRECTION('center_axis',(0.,0.,-1.));
#1004=DIRECTION('ref_axis',(-1.,0.,0.));
#1005=CARTESIAN_POINT('',(0.,0.,0.));
#1006=CARTESIAN_POINT('Origin',(-34.5000000000111,-59.7557528611246,27.));
#1007=CARTESIAN_POINT('',(-27.0000000000045,-59.7557528611246,27.));
#1008=CARTESIAN_POINT('Origin',(-34.5000000000111,-59.7557528611246,27.));
#1009=CARTESIAN_POINT('',(-27.0000000000045,-59.7557528611246,20.));
#1010=CARTESIAN_POINT('',(-27.0000000000045,-59.7557528611246,27.));
#1011=CARTESIAN_POINT('Origin',(-34.5000000000111,-59.7557528611246,20.));
#1012=CARTESIAN_POINT('Origin',(17.8585141120622,-66.6488820139488,27.));
#1013=CARTESIAN_POINT('',(25.3585141120726,-66.6488820139488,27.));
#1014=CARTESIAN_POINT('Origin',(17.8585141120622,-66.6488820139488,27.));
#1015=CARTESIAN_POINT('',(25.3585141120726,-66.6488820139488,20.));
#1016=CARTESIAN_POINT('',(25.3585141120726,-66.6488820139488,27.));
#1017=CARTESIAN_POINT('Origin',(17.8585141120622,-66.6488820139488,20.));
#1018=CARTESIAN_POINT('Origin',(66.6488820139416,17.8585141120663,27.));
#1019=CARTESIAN_POINT('',(74.1488820139503,17.8585141120663,27.));
#1020=CARTESIAN_POINT('Origin',(66.6488820139416,17.8585141120663,27.));
#1021=CARTESIAN_POINT('',(74.1488820139503,17.8585141120663,20.));
#1022=CARTESIAN_POINT('',(74.1488820139503,17.8585141120663,27.));
#1023=CARTESIAN_POINT('Origin',(66.6488820139416,17.8585141120663,20.));
#1024=CARTESIAN_POINT('Origin',(34.4999999999997,59.7557528611215,27.));
#1025=CARTESIAN_POINT('',(42.0000000000041,59.7557528611215,27.));
#1026=CARTESIAN_POINT('Origin',(34.4999999999997,59.7557528611215,27.));
#1027=CARTESIAN_POINT('',(42.0000000000041,59.7557528611215,20.));
#1028=CARTESIAN_POINT('',(42.0000000000041,59.7557528611215,27.));
#1029=CARTESIAN_POINT('Origin',(34.4999999999997,59.7557528611215,20.));
#1030=CARTESIAN_POINT('Origin',(-17.8585141120736,66.6488820139457,27.));
#1031=CARTESIAN_POINT('',(-10.3585141120736,66.6488820139457,27.));
#1032=CARTESIAN_POINT('Origin',(-17.8585141120736,66.6488820139457,27.));
#1033=CARTESIAN_POINT('',(-10.3585141120736,66.6488820139457,20.));
#1034=CARTESIAN_POINT('',(-10.3585141120736,66.6488820139457,27.));
#1035=CARTESIAN_POINT('Origin',(-17.8585141120736,66.6488820139457,20.));
#1036=CARTESIAN_POINT('Origin',(-59.7557528611288,34.5000000000038,27.));
#1037=CARTESIAN_POINT('',(-52.2557528611294,34.5000000000038,27.));
#1038=CARTESIAN_POINT('Origin',(-59.7557528611288,34.5000000000038,27.));
#1039=CARTESIAN_POINT('',(-52.2557528611294,34.5000000000038,20.));
#1040=CARTESIAN_POINT('',(-52.2557528611294,34.5000000000038,27.));
#1041=CARTESIAN_POINT('Origin',(-59.7557528611288,34.5000000000038,20.));
#1042=CARTESIAN_POINT('Origin',(-66.648882013953,-17.8585141120694,27.));
#1043=CARTESIAN_POINT('',(-59.1488820139509,-17.8585141120694,27.));
#1044=CARTESIAN_POINT('Origin',(-66.648882013953,-17.8585141120694,27.));
#1045=CARTESIAN_POINT('',(-59.1488820139509,-17.8585141120694,20.));
#1046=CARTESIAN_POINT('',(-59.1488820139509,-17.8585141120694,27.));
#1047=CARTESIAN_POINT('Origin',(-66.648882013953,-17.8585141120694,20.));
#1048=CARTESIAN_POINT('Origin',(-42.5007363567188,-11.3880379845114,114.15));
#1049=CARTESIAN_POINT('',(-40.0007363567188,-11.3880379845114,35.));
#1050=CARTESIAN_POINT('Origin',(-42.5007363567188,-11.3880379845114,35.));
#1051=CARTESIAN_POINT('',(-40.0007363567188,-11.3880379845114,27.5));
#1052=CARTESIAN_POINT('',(-40.0007363567188,-11.3880379845114,114.15));
#1053=CARTESIAN_POINT('Origin',(-42.5007363567188,-11.3880379845114,27.5));
#1054=CARTESIAN_POINT('Origin',(-38.1051177665155,21.9999999999996,114.15));
#1055=CARTESIAN_POINT('',(-35.6051177665155,21.9999999999996,35.));
#1056=CARTESIAN_POINT('Origin',(-38.1051177665155,21.9999999999996,35.));
#1057=CARTESIAN_POINT('',(-35.6051177665155,21.9999999999996,27.5));
#1058=CARTESIAN_POINT('',(-35.6051177665155,21.9999999999996,114.15));
#1059=CARTESIAN_POINT('Origin',(-38.1051177665155,21.9999999999996,27.5));
#1060=CARTESIAN_POINT('Origin',(-11.3880379845113,42.5007363567189,114.15));
#1061=CARTESIAN_POINT('',(-8.88803798451127,42.5007363567189,35.));
#1062=CARTESIAN_POINT('Origin',(-11.3880379845113,42.5007363567189,35.));
#1063=CARTESIAN_POINT('',(-8.88803798451127,42.5007363567189,27.5));
#1064=CARTESIAN_POINT('',(-8.88803798451127,42.5007363567189,114.15));
#1065=CARTESIAN_POINT('Origin',(-11.3880379845113,42.5007363567189,27.5));
#1066=CARTESIAN_POINT('Origin',(21.9999999999997,38.1051177665155,114.15));
#1067=CARTESIAN_POINT('',(24.4999999999997,38.1051177665155,35.));
#1068=CARTESIAN_POINT('Origin',(21.9999999999997,38.1051177665155,35.));
#1069=CARTESIAN_POINT('',(24.4999999999997,38.1051177665155,27.5));
#1070=CARTESIAN_POINT('',(24.4999999999997,38.1051177665155,114.15));
#1071=CARTESIAN_POINT('Origin',(21.9999999999997,38.1051177665155,27.5));
#1072=CARTESIAN_POINT('Origin',(42.5007363567189,11.3880379845112,114.15));
#1073=CARTESIAN_POINT('',(45.0007363567189,11.3880379845112,35.));
#1074=CARTESIAN_POINT('Origin',(42.5007363567189,11.3880379845112,35.));
#1075=CARTESIAN_POINT('',(45.0007363567189,11.3880379845112,27.5));
#1076=CARTESIAN_POINT('',(45.0007363567189,11.3880379845112,114.15));
#1077=CARTESIAN_POINT('Origin',(42.5007363567189,11.3880379845112,27.5));
#1078=CARTESIAN_POINT('Origin',(38.1051177665154,-21.9999999999998,114.15));
#1079=CARTESIAN_POINT('',(40.6051177665154,-21.9999999999998,35.));
#1080=CARTESIAN_POINT('Origin',(38.1051177665154,-21.9999999999998,35.));
#1081=CARTESIAN_POINT('',(40.6051177665154,-21.9999999999998,27.5));
#1082=CARTESIAN_POINT('',(40.6051177665154,-21.9999999999998,114.15));
#1083=CARTESIAN_POINT('Origin',(38.1051177665154,-21.9999999999998,27.5));
#1084=CARTESIAN_POINT('Origin',(11.388037984511,-42.500736356719,114.15));
#1085=CARTESIAN_POINT('',(13.888037984511,-42.500736356719,35.));
#1086=CARTESIAN_POINT('Origin',(11.388037984511,-42.500736356719,35.));
#1087=CARTESIAN_POINT('',(13.888037984511,-42.500736356719,27.5));
#1088=CARTESIAN_POINT('',(13.888037984511,-42.500736356719,114.15));
#1089=CARTESIAN_POINT('Origin',(11.388037984511,-42.500736356719,27.5));
#1090=CARTESIAN_POINT('Origin',(-22.,-38.1051177665153,114.15));
#1091=CARTESIAN_POINT('',(-19.5,-38.1051177665153,35.));
#1092=CARTESIAN_POINT('Origin',(-22.,-38.1051177665153,35.));
#1093=CARTESIAN_POINT('',(-19.5,-38.1051177665153,27.5));
#1094=CARTESIAN_POINT('',(-19.5,-38.1051177665153,114.15));
#1095=CARTESIAN_POINT('Origin',(-22.,-38.1051177665153,27.5));
#1096=CARTESIAN_POINT('Origin',(0.,0.,31.65));
#1097=CARTESIAN_POINT('',(48.,-5.8783046359073E-15,27.5));
#1098=CARTESIAN_POINT('Origin',(0.,0.,27.5));
#1099=CARTESIAN_POINT('',(48.,-5.8783046359073E-15,20.));
#1100=CARTESIAN_POINT('',(48.,-5.8783046359073E-15,31.65));
#1101=CARTESIAN_POINT('Origin',(0.,0.,20.));
#1102=CARTESIAN_POINT('Origin',(0.,0.,31.65));
#1103=CARTESIAN_POINT('',(-40.,-4.89858719658941E-15,27.5));
#1104=CARTESIAN_POINT('Origin',(0.,0.,27.5));
#1105=CARTESIAN_POINT('',(-40.,-4.89858719658941E-15,35.));
#1106=CARTESIAN_POINT('',(-40.,-4.89858719658941E-15,31.65));
#1107=CARTESIAN_POINT('Origin',(0.,0.,35.));
#1108=CARTESIAN_POINT('Origin',(0.,0.,35.));
#1109=CARTESIAN_POINT('',(-79.,9.67470971326409E-15,20.));
#1110=CARTESIAN_POINT('Origin',(0.,0.,20.));
#1111=CARTESIAN_POINT('',(-79.,9.67470971326409E-15,35.));
#1112=CARTESIAN_POINT('',(-79.,9.67470971326409E-15,35.));
#1113=CARTESIAN_POINT('Origin',(0.,0.,35.));
#1114=CARTESIAN_POINT('Origin',(-59.7557528611263,-34.5,35.));
#1115=CARTESIAN_POINT('',(-68.2557528611263,-34.5,35.));
#1116=CARTESIAN_POINT('Origin',(-59.7557528611263,-34.5,35.));
#1117=CARTESIAN_POINT('',(-68.2557528611263,-34.5,20.));
#1118=CARTESIAN_POINT('',(-68.2557528611263,-34.5,35.));
#1119=CARTESIAN_POINT('Origin',(-59.7557528611263,-34.5,20.));
#1120=CARTESIAN_POINT('Origin',(59.7557528611263,-34.5,35.));
#1121=CARTESIAN_POINT('',(51.2557528611263,-34.5,35.));
#1122=CARTESIAN_POINT('Origin',(59.7557528611263,-34.5,35.));
#1123=CARTESIAN_POINT('',(51.2557528611263,-34.5,20.));
#1124=CARTESIAN_POINT('',(51.2557528611263,-34.5,35.));
#1125=CARTESIAN_POINT('Origin',(59.7557528611263,-34.5,20.));
#1126=CARTESIAN_POINT('Origin',(3.10862446895044E-14,69.,35.));
#1127=CARTESIAN_POINT('',(-8.49999999999997,69.,35.));
#1128=CARTESIAN_POINT('Origin',(3.10862446895044E-14,69.,35.));
#1129=CARTESIAN_POINT('',(-8.49999999999997,69.,20.));
#1130=CARTESIAN_POINT('',(-8.49999999999997,69.,35.));
#1131=CARTESIAN_POINT('Origin',(3.10862446895044E-14,69.,20.));
#1132=CARTESIAN_POINT('Origin',(-66.6488820139457,-17.8585141120738,-9.86923052972088));
#1133=CARTESIAN_POINT('',(-70.6488820139457,-17.8585141120738,27.));
#1134=CARTESIAN_POINT('Origin',(-66.6488820139457,-17.8585141120738,27.));
#1135=CARTESIAN_POINT('',(-70.6488820139457,-17.8585141120738,35.));
#1136=CARTESIAN_POINT('',(-70.6488820139457,-17.8585141120738,-9.86923052972088));
#1137=CARTESIAN_POINT('Origin',(-66.6488820139457,-17.8585141120738,35.));
#1138=CARTESIAN_POINT('Origin',(-59.7557528611261,34.5000000000001,-9.86923052972088));
#1139=CARTESIAN_POINT('',(-63.7557528611261,34.5000000000001,27.));
#1140=CARTESIAN_POINT('Origin',(-59.7557528611261,34.5000000000001,27.));
#1141=CARTESIAN_POINT('',(-63.7557528611261,34.5000000000001,35.));
#1142=CARTESIAN_POINT('',(-63.7557528611261,34.5000000000001,-9.86923052972088));
#1143=CARTESIAN_POINT('Origin',(-59.7557528611261,34.5000000000001,35.));
#1144=CARTESIAN_POINT('Origin',(-17.8585141120736,66.6488820139457,-9.86923052972088));
#1145=CARTESIAN_POINT('',(-21.8585141120736,66.6488820139457,27.));
#1146=CARTESIAN_POINT('Origin',(-17.8585141120736,66.6488820139457,27.));
#1147=CARTESIAN_POINT('',(-21.8585141120736,66.6488820139457,35.));
#1148=CARTESIAN_POINT('',(-21.8585141120736,66.6488820139457,-9.86923052972088));
#1149=CARTESIAN_POINT('Origin',(-17.8585141120736,66.6488820139457,35.));
#1150=CARTESIAN_POINT('Origin',(34.5000000000004,59.7557528611259,-9.86923052972088));
#1151=CARTESIAN_POINT('',(30.5000000000005,59.7557528611259,27.));
#1152=CARTESIAN_POINT('Origin',(34.5000000000004,59.7557528611259,27.));
#1153=CARTESIAN_POINT('',(30.5000000000005,59.7557528611259,35.));
#1154=CARTESIAN_POINT('',(30.5000000000005,59.7557528611259,-9.86923052972088));
#1155=CARTESIAN_POINT('Origin',(34.5000000000004,59.7557528611259,35.));
#1156=CARTESIAN_POINT('Origin',(66.6488820139459,17.8585141120733,-9.86923052972088));
#1157=CARTESIAN_POINT('',(62.6488820139459,17.8585141120733,27.));
#1158=CARTESIAN_POINT('Origin',(66.6488820139459,17.8585141120733,27.));
#1159=CARTESIAN_POINT('',(62.6488820139459,17.8585141120733,35.));
#1160=CARTESIAN_POINT('',(62.6488820139459,17.8585141120733,-9.86923052972088));
#1161=CARTESIAN_POINT('Origin',(66.6488820139459,17.8585141120733,35.));
#1162=CARTESIAN_POINT('Origin',(17.8585141120732,-66.6488820139459,-9.86923052972088));
#1163=CARTESIAN_POINT('',(13.8585141120732,-66.6488820139459,27.));
#1164=CARTESIAN_POINT('Origin',(17.8585141120732,-66.6488820139459,27.));
#1165=CARTESIAN_POINT('',(13.8585141120732,-66.6488820139459,35.));
#1166=CARTESIAN_POINT('',(13.8585141120732,-66.6488820139459,-9.86923052972088));
#1167=CARTESIAN_POINT('Origin',(17.8585141120732,-66.6488820139459,35.));
#1168=CARTESIAN_POINT('Origin',(-34.5,-59.7557528611263,-9.86923052972088));
#1169=CARTESIAN_POINT('',(-38.5,-59.7557528611263,27.));
#1170=CARTESIAN_POINT('Origin',(-34.5,-59.7557528611263,27.));
#1171=CARTESIAN_POINT('',(-38.5,-59.7557528611263,35.));
#1172=CARTESIAN_POINT('',(-38.5,-59.7557528611263,-9.86923052972088));
#1173=CARTESIAN_POINT('Origin',(-34.5,-59.7557528611263,35.));
#1174=CARTESIAN_POINT('Origin',(0.,0.,35.));
#1175=CARTESIAN_POINT('Origin',(0.,0.,20.));
#1176=CARTESIAN_POINT('Origin',(0.,0.,27.5));
#1177=CARTESIAN_POINT('Origin',(-66.648882013953,-17.8585141120694,27.));
#1178=CARTESIAN_POINT('Origin',(-59.7557528611288,34.5000000000038,27.));
#1179=CARTESIAN_POINT('Origin',(-17.8585141120736,66.6488820139457,27.));
#1180=CARTESIAN_POINT('Origin',(34.4999999999997,59.7557528611215,27.));
#1181=CARTESIAN_POINT('Origin',(66.6488820139416,17.8585141120663,27.));
#1182=CARTESIAN_POINT('Origin',(17.8585141120622,-66.6488820139488,27.));
#1183=CARTESIAN_POINT('Origin',(-34.5000000000111,-59.7557528611246,27.));
#1184=UNCERTAINTY_MEASURE_WITH_UNIT(LENGTH_MEASURE(0.01),#1188,
'DISTANCE_ACCURACY_VALUE',
'Maximum model space distance between geometric entities at asserted c
onnectivities');
#1185=UNCERTAINTY_MEASURE_WITH_UNIT(LENGTH_MEASURE(0.01),#1188,
'DISTANCE_ACCURACY_VALUE',
'Maximum model space distance between geometric entities at asserted c
onnectivities');
#1186=(
GEOMETRIC_REPRESENTATION_CONTEXT(3)
GLOBAL_UNCERTAINTY_ASSIGNED_CONTEXT((#1184))
GLOBAL_UNIT_ASSIGNED_CONTEXT((#1188,#1190,#1191))
REPRESENTATION_CONTEXT('','3D')
);
#1187=(
GEOMETRIC_REPRESENTATION_CONTEXT(3)
GLOBAL_UNCERTAINTY_ASSIGNED_CONTEXT((#1185))
GLOBAL_UNIT_ASSIGNED_CONTEXT((#1188,#1190,#1191))
REPRESENTATION_CONTEXT('','3D')
);
#1188=(
LENGTH_UNIT()
NAMED_UNIT(*)
SI_UNIT(.MILLI.,.METRE.)
);
#1189=(
LENGTH_UNIT()
NAMED_UNIT(*)
SI_UNIT($,.METRE.)
);
#1190=(
NAMED_UNIT(*)
PLANE_ANGLE_UNIT()
SI_UNIT($,.RADIAN.)
);
#1191=(
NAMED_UNIT(*)
SI_UNIT($,.STERADIAN.)
SOLID_ANGLE_UNIT()
);
#1192=SHAPE_DEFINITION_REPRESENTATION(#1193,#1194);
#1193=PRODUCT_DEFINITION_SHAPE('',$,#1196);
#1194=SHAPE_REPRESENTATION('',(#692),#1186);
#1195=PRODUCT_DEFINITION_CONTEXT('part definition',#1200,'design');
#1196=PRODUCT_DEFINITION('die_insert_plate','die_insert_plate v1',#1197,
#1195);
#1197=PRODUCT_DEFINITION_FORMATION('',$,#1202);
#1198=PRODUCT_RELATED_PRODUCT_CATEGORY('die_insert_plate v1',
'die_insert_plate v1',(#1202));
#1199=APPLICATION_PROTOCOL_DEFINITION('international standard',
'automotive_design',2009,#1200);
#1200=APPLICATION_CONTEXT(
'Core Data for Automotive Mechanical Design Process');
#1201=PRODUCT_CONTEXT('part definition',#1200,'mechanical');
#1202=PRODUCT('die_insert_plate','die_insert_plate v1',$,(#1201));
#1203=PRESENTATION_STYLE_ASSIGNMENT((#1205));
#1204=PRESENTATION_STYLE_ASSIGNMENT((#1206));
#1205=SURFACE_STYLE_USAGE(.BOTH.,#1207);
#1206=SURFACE_STYLE_USAGE(.BOTH.,#1208);
#1207=SURFACE_SIDE_STYLE('',(#1209));
#1208=SURFACE_SIDE_STYLE('',(#1210));
#1209=SURFACE_STYLE_FILL_AREA(#1211);
#1210=SURFACE_STYLE_FILL_AREA(#1212);
#1211=FILL_AREA_STYLE('Steel - Satin',(#1213));
#1212=FILL_AREA_STYLE('Opaque(198,193,188)',(#1214));
#1213=FILL_AREA_STYLE_COLOUR('Steel - Satin',#1215);
#1214=FILL_AREA_STYLE_COLOUR('Opaque(198,193,188)',#1216);
#1215=COLOUR_RGB('Steel - Satin',0.627450980392157,0.627450980392157,0.627450980392157);
#1216=COLOUR_RGB('Opaque(198,193,188)',0.776470588235294,0.756862745098039,
0.737254901960784);
ENDSEC;
END-ISO-10303-21;
