ISO-10303-21;
HEADER;
/* Generated by software containing ST-Developer
 * from STEP Tools, Inc. (www.steptools.com) 
 */

FILE_DESCRIPTION(
/* description */ (''),
/* implementation_level */ '2;1');

FILE_NAME(
/* name */ '405_FlangeRect_x1_10mm_FERRO v1.step',
/* time_stamp */ '2026-03-14T09:49:00+01:00',
/* author */ (''),
/* organization */ (''),
/* preprocessor_version */ 'ST-DEVELOPER v20.1',
/* originating_system */ 'Autodesk Translation Framework v14.24.0.0',
/* authorisation */ '');

FILE_SCHEMA (('AUTOMOTIVE_DESIGN { 1 0 10303 214 3 1 1 }'));
ENDSEC;

DATA;
#10=MECHANICAL_DESIGN_GEOMETRIC_PRESENTATION_REPRESENTATION('',(#13),#708);
#11=SHAPE_REPRESENTATION_RELATIONSHIP('SRR','None',#715,#12);
#12=ADVANCED_BREP_SHAPE_REPRESENTATION('',(#14),#707);
#13=STYLED_ITEM('',(#724),#14);
#14=MANIFOLD_SOLID_BREP('Body1',#416);
#15=FACE_BOUND('',#78,.T.);
#16=FACE_BOUND('',#79,.T.);
#17=FACE_BOUND('',#80,.T.);
#18=FACE_BOUND('',#82,.T.);
#19=FACE_BOUND('',#83,.T.);
#20=FACE_BOUND('',#84,.T.);
#21=CIRCLE('',#437,5.1);
#22=CIRCLE('',#438,5.1);
#23=CIRCLE('',#440,5.1);
#24=CIRCLE('',#441,5.1);
#25=CIRCLE('',#443,5.25);
#26=CIRCLE('',#444,5.25);
#27=CIRCLE('',#445,10.);
#28=CIRCLE('',#446,10.);
#29=CIRCLE('',#447,10.);
#30=CIRCLE('',#448,10.);
#31=CIRCLE('',#449,9.99999999999998);
#32=CIRCLE('',#451,5.25);
#33=CIRCLE('',#452,10.);
#34=CIRCLE('',#453,10.);
#35=CIRCLE('',#454,10.);
#36=CIRCLE('',#455,10.);
#37=CIRCLE('',#456,5.25);
#38=CIRCLE('',#457,9.99999999999998);
#39=CYLINDRICAL_SURFACE('',#436,5.1);
#40=CYLINDRICAL_SURFACE('',#439,5.1);
#41=CYLINDRICAL_SURFACE('',#458,10.);
#42=CYLINDRICAL_SURFACE('',#459,10.);
#43=CYLINDRICAL_SURFACE('',#460,10.);
#44=CYLINDRICAL_SURFACE('',#461,10.);
#45=CYLINDRICAL_SURFACE('',#462,9.99999999999998);
#46=CYLINDRICAL_SURFACE('',#463,5.25);
#47=CYLINDRICAL_SURFACE('',#466,5.25);
#48=FACE_OUTER_BOUND('',#69,.T.);
#49=FACE_OUTER_BOUND('',#70,.T.);
#50=FACE_OUTER_BOUND('',#71,.T.);
#51=FACE_OUTER_BOUND('',#72,.T.);
#52=FACE_OUTER_BOUND('',#73,.T.);
#53=FACE_OUTER_BOUND('',#74,.T.);
#54=FACE_OUTER_BOUND('',#75,.T.);
#55=FACE_OUTER_BOUND('',#76,.T.);
#56=FACE_OUTER_BOUND('',#77,.T.);
#57=FACE_OUTER_BOUND('',#81,.T.);
#58=FACE_OUTER_BOUND('',#85,.T.);
#59=FACE_OUTER_BOUND('',#86,.T.);
#60=FACE_OUTER_BOUND('',#87,.T.);
#61=FACE_OUTER_BOUND('',#88,.T.);
#62=FACE_OUTER_BOUND('',#89,.T.);
#63=FACE_OUTER_BOUND('',#90,.T.);
#64=FACE_OUTER_BOUND('',#91,.T.);
#65=FACE_OUTER_BOUND('',#92,.T.);
#66=FACE_OUTER_BOUND('',#93,.T.);
#67=FACE_OUTER_BOUND('',#94,.T.);
#68=FACE_OUTER_BOUND('',#95,.T.);
#69=EDGE_LOOP('',(#269,#270,#271,#272));
#70=EDGE_LOOP('',(#273,#274,#275,#276));
#71=EDGE_LOOP('',(#277,#278,#279,#280));
#72=EDGE_LOOP('',(#281,#282,#283,#284));
#73=EDGE_LOOP('',(#285,#286,#287,#288));
#74=EDGE_LOOP('',(#289,#290,#291,#292));
#75=EDGE_LOOP('',(#293,#294,#295,#296));
#76=EDGE_LOOP('',(#297,#298,#299,#300));
#77=EDGE_LOOP('',(#301,#302,#303,#304,#305,#306,#307,#308,#309,#310,#311,
#312,#313,#314,#315,#316));
#78=EDGE_LOOP('',(#317));
#79=EDGE_LOOP('',(#318));
#80=EDGE_LOOP('',(#319));
#81=EDGE_LOOP('',(#320,#321,#322,#323,#324,#325,#326,#327,#328,#329,#330,
#331,#332,#333,#334,#335));
#82=EDGE_LOOP('',(#336));
#83=EDGE_LOOP('',(#337));
#84=EDGE_LOOP('',(#338));
#85=EDGE_LOOP('',(#339,#340,#341,#342));
#86=EDGE_LOOP('',(#343,#344,#345,#346));
#87=EDGE_LOOP('',(#347,#348,#349,#350));
#88=EDGE_LOOP('',(#351,#352,#353,#354));
#89=EDGE_LOOP('',(#355,#356,#357,#358));
#90=EDGE_LOOP('',(#359,#360,#361,#362));
#91=EDGE_LOOP('',(#363,#364,#365,#366));
#92=EDGE_LOOP('',(#367,#368,#369,#370));
#93=EDGE_LOOP('',(#371,#372,#373,#374));
#94=EDGE_LOOP('',(#375,#376,#377,#378));
#95=EDGE_LOOP('',(#379,#380,#381,#382));
#96=LINE('',#592,#135);
#97=LINE('',#594,#136);
#98=LINE('',#596,#137);
#99=LINE('',#597,#138);
#100=LINE('',#601,#139);
#101=LINE('',#603,#140);
#102=LINE('',#605,#141);
#103=LINE('',#606,#142);
#104=LINE('',#610,#143);
#105=LINE('',#612,#144);
#106=LINE('',#614,#145);
#107=LINE('',#615,#146);
#108=LINE('',#619,#147);
#109=LINE('',#621,#148);
#110=LINE('',#623,#149);
#111=LINE('',#624,#150);
#112=LINE('',#628,#151);
#113=LINE('',#630,#152);
#114=LINE('',#632,#153);
#115=LINE('',#633,#154);
#116=LINE('',#637,#155);
#117=LINE('',#639,#156);
#118=LINE('',#641,#157);
#119=LINE('',#642,#158);
#120=LINE('',#647,#159);
#121=LINE('',#653,#160);
#122=LINE('',#657,#161);
#123=LINE('',#660,#162);
#124=LINE('',#662,#163);
#125=LINE('',#665,#164);
#126=LINE('',#676,#165);
#127=LINE('',#682,#166);
#128=LINE('',#685,#167);
#129=LINE('',#686,#168);
#130=LINE('',#694,#169);
#131=LINE('',#696,#170);
#132=LINE('',#697,#171);
#133=LINE('',#701,#172);
#134=LINE('',#702,#173);
#135=VECTOR('',#473,9.75000000000002);
#136=VECTOR('',#474,10.);
#137=VECTOR('',#475,9.75000000000002);
#138=VECTOR('',#476,10.);
#139=VECTOR('',#479,99.5);
#140=VECTOR('',#480,10.);
#141=VECTOR('',#481,99.5);
#142=VECTOR('',#482,10.);
#143=VECTOR('',#485,9.75000000000004);
#144=VECTOR('',#486,10.);
#145=VECTOR('',#487,9.75000000000004);
#146=VECTOR('',#488,10.);
#147=VECTOR('',#491,69.9999999999999);
#148=VECTOR('',#492,10.);
#149=VECTOR('',#493,69.9999999999999);
#150=VECTOR('',#494,10.);
#151=VECTOR('',#497,140.);
#152=VECTOR('',#498,10.);
#153=VECTOR('',#499,140.);
#154=VECTOR('',#500,10.);
#155=VECTOR('',#503,69.9999999999999);
#156=VECTOR('',#504,10.);
#157=VECTOR('',#505,69.9999999999999);
#158=VECTOR('',#506,10.);
#159=VECTOR('',#511,5.1);
#160=VECTOR('',#518,5.1);
#161=VECTOR('',#523,17.);
#162=VECTOR('',#526,17.);
#163=VECTOR('',#527,17.);
#164=VECTOR('',#530,17.);
#165=VECTOR('',#545,17.);
#166=VECTOR('',#554,17.);
#167=VECTOR('',#557,17.);
#168=VECTOR('',#558,17.);
#169=VECTOR('',#571,9.99999999999998);
#170=VECTOR('',#574,10.);
#171=VECTOR('',#575,10.);
#172=VECTOR('',#582,10.);
#173=VECTOR('',#583,10.);
#174=VERTEX_POINT('',#590);
#175=VERTEX_POINT('',#591);
#176=VERTEX_POINT('',#593);
#177=VERTEX_POINT('',#595);
#178=VERTEX_POINT('',#599);
#179=VERTEX_POINT('',#600);
#180=VERTEX_POINT('',#602);
#181=VERTEX_POINT('',#604);
#182=VERTEX_POINT('',#608);
#183=VERTEX_POINT('',#609);
#184=VERTEX_POINT('',#611);
#185=VERTEX_POINT('',#613);
#186=VERTEX_POINT('',#617);
#187=VERTEX_POINT('',#618);
#188=VERTEX_POINT('',#620);
#189=VERTEX_POINT('',#622);
#190=VERTEX_POINT('',#626);
#191=VERTEX_POINT('',#627);
#192=VERTEX_POINT('',#629);
#193=VERTEX_POINT('',#631);
#194=VERTEX_POINT('',#635);
#195=VERTEX_POINT('',#636);
#196=VERTEX_POINT('',#638);
#197=VERTEX_POINT('',#640);
#198=VERTEX_POINT('',#644);
#199=VERTEX_POINT('',#646);
#200=VERTEX_POINT('',#650);
#201=VERTEX_POINT('',#652);
#202=VERTEX_POINT('',#656);
#203=VERTEX_POINT('',#658);
#204=VERTEX_POINT('',#661);
#205=VERTEX_POINT('',#663);
#206=VERTEX_POINT('',#670);
#207=VERTEX_POINT('',#673);
#208=VERTEX_POINT('',#674);
#209=VERTEX_POINT('',#681);
#210=VERTEX_POINT('',#683);
#211=VERTEX_POINT('',#687);
#212=EDGE_CURVE('',#174,#175,#96,.T.);
#213=EDGE_CURVE('',#176,#175,#97,.T.);
#214=EDGE_CURVE('',#177,#176,#98,.T.);
#215=EDGE_CURVE('',#177,#174,#99,.T.);
#216=EDGE_CURVE('',#178,#179,#100,.T.);
#217=EDGE_CURVE('',#178,#180,#101,.T.);
#218=EDGE_CURVE('',#180,#181,#102,.T.);
#219=EDGE_CURVE('',#179,#181,#103,.T.);
#220=EDGE_CURVE('',#182,#183,#104,.T.);
#221=EDGE_CURVE('',#182,#184,#105,.T.);
#222=EDGE_CURVE('',#184,#185,#106,.T.);
#223=EDGE_CURVE('',#185,#183,#107,.F.);
#224=EDGE_CURVE('',#186,#187,#108,.T.);
#225=EDGE_CURVE('',#187,#188,#109,.F.);
#226=EDGE_CURVE('',#189,#188,#110,.T.);
#227=EDGE_CURVE('',#189,#186,#111,.T.);
#228=EDGE_CURVE('',#190,#191,#112,.T.);
#229=EDGE_CURVE('',#190,#192,#113,.F.);
#230=EDGE_CURVE('',#192,#193,#114,.T.);
#231=EDGE_CURVE('',#193,#191,#115,.T.);
#232=EDGE_CURVE('',#194,#195,#116,.T.);
#233=EDGE_CURVE('',#195,#196,#117,.T.);
#234=EDGE_CURVE('',#197,#196,#118,.T.);
#235=EDGE_CURVE('',#197,#194,#119,.F.);
#236=EDGE_CURVE('',#198,#198,#21,.T.);
#237=EDGE_CURVE('',#198,#199,#120,.T.);
#238=EDGE_CURVE('',#199,#199,#22,.T.);
#239=EDGE_CURVE('',#200,#200,#23,.F.);
#240=EDGE_CURVE('',#200,#201,#121,.T.);
#241=EDGE_CURVE('',#201,#201,#24,.F.);
#242=EDGE_CURVE('',#176,#202,#122,.T.);
#243=EDGE_CURVE('',#202,#203,#25,.T.);
#244=EDGE_CURVE('',#203,#178,#123,.T.);
#245=EDGE_CURVE('',#179,#204,#124,.T.);
#246=EDGE_CURVE('',#204,#205,#26,.T.);
#247=EDGE_CURVE('',#205,#182,#125,.T.);
#248=EDGE_CURVE('',#183,#189,#27,.T.);
#249=EDGE_CURVE('',#188,#193,#28,.T.);
#250=EDGE_CURVE('',#192,#195,#29,.T.);
#251=EDGE_CURVE('',#194,#177,#30,.T.);
#252=EDGE_CURVE('',#206,#206,#31,.T.);
#253=EDGE_CURVE('',#207,#208,#32,.T.);
#254=EDGE_CURVE('',#175,#207,#126,.T.);
#255=EDGE_CURVE('',#174,#197,#33,.F.);
#256=EDGE_CURVE('',#196,#190,#34,.F.);
#257=EDGE_CURVE('',#191,#187,#35,.F.);
#258=EDGE_CURVE('',#186,#185,#36,.F.);
#259=EDGE_CURVE('',#209,#184,#127,.T.);
#260=EDGE_CURVE('',#210,#209,#37,.T.);
#261=EDGE_CURVE('',#181,#210,#128,.T.);
#262=EDGE_CURVE('',#208,#180,#129,.T.);
#263=EDGE_CURVE('',#211,#211,#38,.F.);
#264=EDGE_CURVE('',#211,#206,#130,.T.);
#265=EDGE_CURVE('',#205,#209,#131,.T.);
#266=EDGE_CURVE('',#204,#210,#132,.T.);
#267=EDGE_CURVE('',#203,#208,#133,.T.);
#268=EDGE_CURVE('',#202,#207,#134,.T.);
#269=ORIENTED_EDGE('',*,*,#212,.T.);
#270=ORIENTED_EDGE('',*,*,#213,.F.);
#271=ORIENTED_EDGE('',*,*,#214,.F.);
#272=ORIENTED_EDGE('',*,*,#215,.T.);
#273=ORIENTED_EDGE('',*,*,#216,.F.);
#274=ORIENTED_EDGE('',*,*,#217,.T.);
#275=ORIENTED_EDGE('',*,*,#218,.T.);
#276=ORIENTED_EDGE('',*,*,#219,.F.);
#277=ORIENTED_EDGE('',*,*,#220,.F.);
#278=ORIENTED_EDGE('',*,*,#221,.T.);
#279=ORIENTED_EDGE('',*,*,#222,.T.);
#280=ORIENTED_EDGE('',*,*,#223,.T.);
#281=ORIENTED_EDGE('',*,*,#224,.T.);
#282=ORIENTED_EDGE('',*,*,#225,.T.);
#283=ORIENTED_EDGE('',*,*,#226,.F.);
#284=ORIENTED_EDGE('',*,*,#227,.T.);
#285=ORIENTED_EDGE('',*,*,#228,.F.);
#286=ORIENTED_EDGE('',*,*,#229,.T.);
#287=ORIENTED_EDGE('',*,*,#230,.T.);
#288=ORIENTED_EDGE('',*,*,#231,.T.);
#289=ORIENTED_EDGE('',*,*,#232,.T.);
#290=ORIENTED_EDGE('',*,*,#233,.T.);
#291=ORIENTED_EDGE('',*,*,#234,.F.);
#292=ORIENTED_EDGE('',*,*,#235,.T.);
#293=ORIENTED_EDGE('',*,*,#236,.T.);
#294=ORIENTED_EDGE('',*,*,#237,.T.);
#295=ORIENTED_EDGE('',*,*,#238,.F.);
#296=ORIENTED_EDGE('',*,*,#237,.F.);
#297=ORIENTED_EDGE('',*,*,#239,.F.);
#298=ORIENTED_EDGE('',*,*,#240,.T.);
#299=ORIENTED_EDGE('',*,*,#241,.T.);
#300=ORIENTED_EDGE('',*,*,#240,.F.);
#301=ORIENTED_EDGE('',*,*,#242,.T.);
#302=ORIENTED_EDGE('',*,*,#243,.T.);
#303=ORIENTED_EDGE('',*,*,#244,.T.);
#304=ORIENTED_EDGE('',*,*,#216,.T.);
#305=ORIENTED_EDGE('',*,*,#245,.T.);
#306=ORIENTED_EDGE('',*,*,#246,.T.);
#307=ORIENTED_EDGE('',*,*,#247,.T.);
#308=ORIENTED_EDGE('',*,*,#220,.T.);
#309=ORIENTED_EDGE('',*,*,#248,.T.);
#310=ORIENTED_EDGE('',*,*,#226,.T.);
#311=ORIENTED_EDGE('',*,*,#249,.T.);
#312=ORIENTED_EDGE('',*,*,#230,.F.);
#313=ORIENTED_EDGE('',*,*,#250,.T.);
#314=ORIENTED_EDGE('',*,*,#232,.F.);
#315=ORIENTED_EDGE('',*,*,#251,.T.);
#316=ORIENTED_EDGE('',*,*,#214,.T.);
#317=ORIENTED_EDGE('',*,*,#252,.T.);
#318=ORIENTED_EDGE('',*,*,#236,.F.);
#319=ORIENTED_EDGE('',*,*,#239,.T.);
#320=ORIENTED_EDGE('',*,*,#253,.F.);
#321=ORIENTED_EDGE('',*,*,#254,.F.);
#322=ORIENTED_EDGE('',*,*,#212,.F.);
#323=ORIENTED_EDGE('',*,*,#255,.T.);
#324=ORIENTED_EDGE('',*,*,#234,.T.);
#325=ORIENTED_EDGE('',*,*,#256,.T.);
#326=ORIENTED_EDGE('',*,*,#228,.T.);
#327=ORIENTED_EDGE('',*,*,#257,.T.);
#328=ORIENTED_EDGE('',*,*,#224,.F.);
#329=ORIENTED_EDGE('',*,*,#258,.T.);
#330=ORIENTED_EDGE('',*,*,#222,.F.);
#331=ORIENTED_EDGE('',*,*,#259,.F.);
#332=ORIENTED_EDGE('',*,*,#260,.F.);
#333=ORIENTED_EDGE('',*,*,#261,.F.);
#334=ORIENTED_EDGE('',*,*,#218,.F.);
#335=ORIENTED_EDGE('',*,*,#262,.F.);
#336=ORIENTED_EDGE('',*,*,#241,.F.);
#337=ORIENTED_EDGE('',*,*,#263,.F.);
#338=ORIENTED_EDGE('',*,*,#238,.T.);
#339=ORIENTED_EDGE('',*,*,#250,.F.);
#340=ORIENTED_EDGE('',*,*,#229,.F.);
#341=ORIENTED_EDGE('',*,*,#256,.F.);
#342=ORIENTED_EDGE('',*,*,#233,.F.);
#343=ORIENTED_EDGE('',*,*,#249,.F.);
#344=ORIENTED_EDGE('',*,*,#225,.F.);
#345=ORIENTED_EDGE('',*,*,#257,.F.);
#346=ORIENTED_EDGE('',*,*,#231,.F.);
#347=ORIENTED_EDGE('',*,*,#251,.F.);
#348=ORIENTED_EDGE('',*,*,#235,.F.);
#349=ORIENTED_EDGE('',*,*,#255,.F.);
#350=ORIENTED_EDGE('',*,*,#215,.F.);
#351=ORIENTED_EDGE('',*,*,#248,.F.);
#352=ORIENTED_EDGE('',*,*,#223,.F.);
#353=ORIENTED_EDGE('',*,*,#258,.F.);
#354=ORIENTED_EDGE('',*,*,#227,.F.);
#355=ORIENTED_EDGE('',*,*,#263,.T.);
#356=ORIENTED_EDGE('',*,*,#264,.T.);
#357=ORIENTED_EDGE('',*,*,#252,.F.);
#358=ORIENTED_EDGE('',*,*,#264,.F.);
#359=ORIENTED_EDGE('',*,*,#260,.T.);
#360=ORIENTED_EDGE('',*,*,#265,.F.);
#361=ORIENTED_EDGE('',*,*,#246,.F.);
#362=ORIENTED_EDGE('',*,*,#266,.T.);
#363=ORIENTED_EDGE('',*,*,#261,.T.);
#364=ORIENTED_EDGE('',*,*,#266,.F.);
#365=ORIENTED_EDGE('',*,*,#245,.F.);
#366=ORIENTED_EDGE('',*,*,#219,.T.);
#367=ORIENTED_EDGE('',*,*,#259,.T.);
#368=ORIENTED_EDGE('',*,*,#221,.F.);
#369=ORIENTED_EDGE('',*,*,#247,.F.);
#370=ORIENTED_EDGE('',*,*,#265,.T.);
#371=ORIENTED_EDGE('',*,*,#253,.T.);
#372=ORIENTED_EDGE('',*,*,#267,.F.);
#373=ORIENTED_EDGE('',*,*,#243,.F.);
#374=ORIENTED_EDGE('',*,*,#268,.T.);
#375=ORIENTED_EDGE('',*,*,#254,.T.);
#376=ORIENTED_EDGE('',*,*,#268,.F.);
#377=ORIENTED_EDGE('',*,*,#242,.F.);
#378=ORIENTED_EDGE('',*,*,#213,.T.);
#379=ORIENTED_EDGE('',*,*,#262,.T.);
#380=ORIENTED_EDGE('',*,*,#217,.F.);
#381=ORIENTED_EDGE('',*,*,#244,.F.);
#382=ORIENTED_EDGE('',*,*,#267,.T.);
#383=PLANE('',#430);
#384=PLANE('',#431);
#385=PLANE('',#432);
#386=PLANE('',#433);
#387=PLANE('',#434);
#388=PLANE('',#435);
#389=PLANE('',#442);
#390=PLANE('',#450);
#391=PLANE('',#464);
#392=PLANE('',#465);
#393=PLANE('',#467);
#394=PLANE('',#468);
#395=ADVANCED_FACE('',(#48),#383,.F.);
#396=ADVANCED_FACE('',(#49),#384,.F.);
#397=ADVANCED_FACE('',(#50),#385,.F.);
#398=ADVANCED_FACE('',(#51),#386,.F.);
#399=ADVANCED_FACE('',(#52),#387,.T.);
#400=ADVANCED_FACE('',(#53),#388,.T.);
#401=ADVANCED_FACE('',(#54),#39,.F.);
#402=ADVANCED_FACE('',(#55),#40,.F.);
#403=ADVANCED_FACE('',(#56,#15,#16,#17),#389,.T.);
#404=ADVANCED_FACE('',(#57,#18,#19,#20),#390,.F.);
#405=ADVANCED_FACE('',(#58),#41,.T.);
#406=ADVANCED_FACE('',(#59),#42,.T.);
#407=ADVANCED_FACE('',(#60),#43,.T.);
#408=ADVANCED_FACE('',(#61),#44,.T.);
#409=ADVANCED_FACE('',(#62),#45,.F.);
#410=ADVANCED_FACE('',(#63),#46,.F.);
#411=ADVANCED_FACE('',(#64),#391,.F.);
#412=ADVANCED_FACE('',(#65),#392,.F.);
#413=ADVANCED_FACE('',(#66),#47,.F.);
#414=ADVANCED_FACE('',(#67),#393,.F.);
#415=ADVANCED_FACE('',(#68),#394,.F.);
#416=CLOSED_SHELL('',(#395,#396,#397,#398,#399,#400,#401,#402,#403,#404,
#405,#406,#407,#408,#409,#410,#411,#412,#413,#414,#415));
#417=DERIVED_UNIT_ELEMENT(#419,1.);
#418=DERIVED_UNIT_ELEMENT(#710,-3.);
#419=(
MASS_UNIT()
NAMED_UNIT(*)
SI_UNIT(.KILO.,.GRAM.)
);
#420=DERIVED_UNIT((#417,#418));
#421=MEASURE_REPRESENTATION_ITEM('density measure',
POSITIVE_RATIO_MEASURE(7850.),#420);
#422=PROPERTY_DEFINITION_REPRESENTATION(#427,#424);
#423=PROPERTY_DEFINITION_REPRESENTATION(#428,#425);
#424=REPRESENTATION('material name',(#426),#707);
#425=REPRESENTATION('density',(#421),#707);
#426=DESCRIPTIVE_REPRESENTATION_ITEM('Steel','Steel');
#427=PROPERTY_DEFINITION('material property','material name',#717);
#428=PROPERTY_DEFINITION('material property','density of part',#717);
#429=AXIS2_PLACEMENT_3D('',#588,#469,#470);
#430=AXIS2_PLACEMENT_3D('',#589,#471,#472);
#431=AXIS2_PLACEMENT_3D('',#598,#477,#478);
#432=AXIS2_PLACEMENT_3D('',#607,#483,#484);
#433=AXIS2_PLACEMENT_3D('',#616,#489,#490);
#434=AXIS2_PLACEMENT_3D('',#625,#495,#496);
#435=AXIS2_PLACEMENT_3D('',#634,#501,#502);
#436=AXIS2_PLACEMENT_3D('',#643,#507,#508);
#437=AXIS2_PLACEMENT_3D('',#645,#509,#510);
#438=AXIS2_PLACEMENT_3D('',#648,#512,#513);
#439=AXIS2_PLACEMENT_3D('',#649,#514,#515);
#440=AXIS2_PLACEMENT_3D('',#651,#516,#517);
#441=AXIS2_PLACEMENT_3D('',#654,#519,#520);
#442=AXIS2_PLACEMENT_3D('',#655,#521,#522);
#443=AXIS2_PLACEMENT_3D('',#659,#524,#525);
#444=AXIS2_PLACEMENT_3D('',#664,#528,#529);
#445=AXIS2_PLACEMENT_3D('',#666,#531,#532);
#446=AXIS2_PLACEMENT_3D('',#667,#533,#534);
#447=AXIS2_PLACEMENT_3D('',#668,#535,#536);
#448=AXIS2_PLACEMENT_3D('',#669,#537,#538);
#449=AXIS2_PLACEMENT_3D('',#671,#539,#540);
#450=AXIS2_PLACEMENT_3D('',#672,#541,#542);
#451=AXIS2_PLACEMENT_3D('',#675,#543,#544);
#452=AXIS2_PLACEMENT_3D('',#677,#546,#547);
#453=AXIS2_PLACEMENT_3D('',#678,#548,#549);
#454=AXIS2_PLACEMENT_3D('',#679,#550,#551);
#455=AXIS2_PLACEMENT_3D('',#680,#552,#553);
#456=AXIS2_PLACEMENT_3D('',#684,#555,#556);
#457=AXIS2_PLACEMENT_3D('',#688,#559,#560);
#458=AXIS2_PLACEMENT_3D('',#689,#561,#562);
#459=AXIS2_PLACEMENT_3D('',#690,#563,#564);
#460=AXIS2_PLACEMENT_3D('',#691,#565,#566);
#461=AXIS2_PLACEMENT_3D('',#692,#567,#568);
#462=AXIS2_PLACEMENT_3D('',#693,#569,#570);
#463=AXIS2_PLACEMENT_3D('',#695,#572,#573);
#464=AXIS2_PLACEMENT_3D('',#698,#576,#577);
#465=AXIS2_PLACEMENT_3D('',#699,#578,#579);
#466=AXIS2_PLACEMENT_3D('',#700,#580,#581);
#467=AXIS2_PLACEMENT_3D('',#703,#584,#585);
#468=AXIS2_PLACEMENT_3D('',#704,#586,#587);
#469=DIRECTION('axis',(0.,0.,1.));
#470=DIRECTION('refdir',(1.,0.,0.));
#471=DIRECTION('center_axis',(0.,-1.,0.));
#472=DIRECTION('ref_axis',(0.,0.,-1.));
#473=DIRECTION('',(-1.,0.,0.));
#474=DIRECTION('',(0.,0.,-1.));
#475=DIRECTION('',(-1.,0.,0.));
#476=DIRECTION('',(0.,0.,-1.));
#477=DIRECTION('center_axis',(0.,-1.,0.));
#478=DIRECTION('ref_axis',(0.,0.,-1.));
#479=DIRECTION('',(-1.,0.,0.));
#480=DIRECTION('',(0.,0.,-1.));
#481=DIRECTION('',(-1.,0.,0.));
#482=DIRECTION('',(0.,0.,-1.));
#483=DIRECTION('center_axis',(0.,-1.,0.));
#484=DIRECTION('ref_axis',(0.,0.,-1.));
#485=DIRECTION('',(-1.,0.,0.));
#486=DIRECTION('',(0.,0.,-1.));
#487=DIRECTION('',(-1.,0.,0.));
#488=DIRECTION('',(0.,0.,-1.));
#489=DIRECTION('center_axis',(1.,0.,0.));
#490=DIRECTION('ref_axis',(0.,0.,-1.));
#491=DIRECTION('',(0.,-1.,0.));
#492=DIRECTION('',(0.,0.,-1.));
#493=DIRECTION('',(0.,-1.,0.));
#494=DIRECTION('',(0.,0.,-1.));
#495=DIRECTION('center_axis',(0.,-1.,0.));
#496=DIRECTION('ref_axis',(0.,0.,-1.));
#497=DIRECTION('',(-1.,0.,0.));
#498=DIRECTION('',(0.,0.,-1.));
#499=DIRECTION('',(-1.,0.,0.));
#500=DIRECTION('',(0.,0.,-1.));
#501=DIRECTION('center_axis',(1.,-1.5419764230905E-16,0.));
#502=DIRECTION('ref_axis',(0.,0.,-1.));
#503=DIRECTION('',(0.,-1.,0.));
#504=DIRECTION('',(0.,0.,-1.));
#505=DIRECTION('',(0.,-1.,0.));
#506=DIRECTION('',(0.,0.,-1.));
#507=DIRECTION('center_axis',(0.,0.,-1.));
#508=DIRECTION('ref_axis',(-1.,0.,0.));
#509=DIRECTION('center_axis',(0.,0.,1.));
#510=DIRECTION('ref_axis',(1.,0.,0.));
#511=DIRECTION('',(0.,0.,-1.));
#512=DIRECTION('center_axis',(0.,0.,1.));
#513=DIRECTION('ref_axis',(1.,0.,0.));
#514=DIRECTION('center_axis',(0.,0.,-1.));
#515=DIRECTION('ref_axis',(-1.,0.,0.));
#516=DIRECTION('center_axis',(0.,0.,1.));
#517=DIRECTION('ref_axis',(1.,0.,0.));
#518=DIRECTION('',(0.,0.,-1.));
#519=DIRECTION('center_axis',(0.,0.,1.));
#520=DIRECTION('ref_axis',(1.,0.,0.));
#521=DIRECTION('center_axis',(0.,0.,1.));
#522=DIRECTION('ref_axis',(1.,0.,0.));
#523=DIRECTION('',(0.,-1.,0.));
#524=DIRECTION('center_axis',(0.,0.,-1.));
#525=DIRECTION('ref_axis',(-1.,0.,0.));
#526=DIRECTION('',(0.,1.,0.));
#527=DIRECTION('',(0.,-1.,0.));
#528=DIRECTION('center_axis',(0.,0.,-1.));
#529=DIRECTION('ref_axis',(1.,0.,0.));
#530=DIRECTION('',(0.,1.,0.));
#531=DIRECTION('center_axis',(0.,0.,1.));
#532=DIRECTION('ref_axis',(1.,0.,0.));
#533=DIRECTION('center_axis',(0.,0.,1.));
#534=DIRECTION('ref_axis',(1.,0.,0.));
#535=DIRECTION('center_axis',(0.,0.,1.));
#536=DIRECTION('ref_axis',(1.,0.,0.));
#537=DIRECTION('center_axis',(0.,0.,1.));
#538=DIRECTION('ref_axis',(1.,0.,0.));
#539=DIRECTION('center_axis',(-2.2517418651465E-18,-9.92249584407201E-27,
-1.));
#540=DIRECTION('ref_axis',(-1.,0.,2.2517418651465E-18));
#541=DIRECTION('center_axis',(0.,0.,1.));
#542=DIRECTION('ref_axis',(1.,0.,0.));
#543=DIRECTION('center_axis',(0.,0.,-1.));
#544=DIRECTION('ref_axis',(-1.,0.,0.));
#545=DIRECTION('',(0.,-1.,0.));
#546=DIRECTION('center_axis',(0.,0.,1.));
#547=DIRECTION('ref_axis',(1.,0.,0.));
#548=DIRECTION('center_axis',(0.,0.,1.));
#549=DIRECTION('ref_axis',(1.,0.,0.));
#550=DIRECTION('center_axis',(0.,0.,1.));
#551=DIRECTION('ref_axis',(1.,0.,0.));
#552=DIRECTION('center_axis',(0.,0.,1.));
#553=DIRECTION('ref_axis',(1.,0.,0.));
#554=DIRECTION('',(0.,1.,0.));
#555=DIRECTION('center_axis',(0.,0.,-1.));
#556=DIRECTION('ref_axis',(1.,0.,0.));
#557=DIRECTION('',(0.,-1.,0.));
#558=DIRECTION('',(0.,1.,0.));
#559=DIRECTION('center_axis',(0.,0.,1.));
#560=DIRECTION('ref_axis',(1.,0.,0.));
#561=DIRECTION('center_axis',(0.,0.,-1.));
#562=DIRECTION('ref_axis',(-1.,0.,0.));
#563=DIRECTION('center_axis',(0.,0.,1.));
#564=DIRECTION('ref_axis',(1.,0.,0.));
#565=DIRECTION('center_axis',(0.,0.,1.));
#566=DIRECTION('ref_axis',(1.,0.,0.));
#567=DIRECTION('center_axis',(0.,0.,-1.));
#568=DIRECTION('ref_axis',(-1.,0.,0.));
#569=DIRECTION('center_axis',(2.25174186514651E-18,9.92249584407201E-27,
1.));
#570=DIRECTION('ref_axis',(1.,0.,-2.25174186514651E-18));
#571=DIRECTION('',(2.25174186514651E-18,9.92249584407201E-27,1.));
#572=DIRECTION('center_axis',(0.,0.,-1.));
#573=DIRECTION('ref_axis',(-1.,0.,0.));
#574=DIRECTION('',(0.,0.,-1.));
#575=DIRECTION('',(0.,0.,-1.));
#576=DIRECTION('center_axis',(1.,0.,0.));
#577=DIRECTION('ref_axis',(0.,0.,-1.));
#578=DIRECTION('center_axis',(-1.,0.,0.));
#579=DIRECTION('ref_axis',(0.,0.,1.));
#580=DIRECTION('center_axis',(0.,0.,-1.));
#581=DIRECTION('ref_axis',(-1.,0.,0.));
#582=DIRECTION('',(0.,0.,-1.));
#583=DIRECTION('',(0.,0.,-1.));
#584=DIRECTION('center_axis',(1.,0.,0.));
#585=DIRECTION('ref_axis',(0.,0.,-1.));
#586=DIRECTION('center_axis',(-1.,0.,0.));
#587=DIRECTION('ref_axis',(0.,0.,1.));
#588=CARTESIAN_POINT('',(0.,0.,0.));
#589=CARTESIAN_POINT('Origin',(0.,45.,10.));
#590=CARTESIAN_POINT('',(70.,45.,0.));
#591=CARTESIAN_POINT('',(60.25,45.,0.));
#592=CARTESIAN_POINT('',(70.,45.,0.));
#593=CARTESIAN_POINT('',(60.25,45.,10.));
#594=CARTESIAN_POINT('',(60.25,45.,10.));
#595=CARTESIAN_POINT('',(70.,45.,10.));
#596=CARTESIAN_POINT('',(70.,45.,10.));
#597=CARTESIAN_POINT('',(70.,45.,10.));
#598=CARTESIAN_POINT('Origin',(0.,45.,10.));
#599=CARTESIAN_POINT('',(49.75,45.,10.));
#600=CARTESIAN_POINT('',(-49.75,45.,10.));
#601=CARTESIAN_POINT('',(49.75,45.,10.));
#602=CARTESIAN_POINT('',(49.75,45.,0.));
#603=CARTESIAN_POINT('',(49.75,45.,10.));
#604=CARTESIAN_POINT('',(-49.75,45.,0.));
#605=CARTESIAN_POINT('',(49.75,45.,0.));
#606=CARTESIAN_POINT('',(-49.75,45.,10.));
#607=CARTESIAN_POINT('Origin',(0.,45.,10.));
#608=CARTESIAN_POINT('',(-60.25,45.,10.));
#609=CARTESIAN_POINT('',(-70.,45.,10.));
#610=CARTESIAN_POINT('',(-60.25,45.,10.));
#611=CARTESIAN_POINT('',(-60.25,45.,0.));
#612=CARTESIAN_POINT('',(-60.25,45.,10.));
#613=CARTESIAN_POINT('',(-70.,45.,0.));
#614=CARTESIAN_POINT('',(-60.25,45.,0.));
#615=CARTESIAN_POINT('',(-70.,45.,10.));
#616=CARTESIAN_POINT('Origin',(-80.,0.,10.));
#617=CARTESIAN_POINT('',(-80.,35.,0.));
#618=CARTESIAN_POINT('',(-80.,-35.,0.));
#619=CARTESIAN_POINT('',(-80.,35.,0.));
#620=CARTESIAN_POINT('',(-80.,-35.,10.));
#621=CARTESIAN_POINT('',(-80.,-35.,10.));
#622=CARTESIAN_POINT('',(-80.,35.,10.));
#623=CARTESIAN_POINT('',(-80.,35.,10.));
#624=CARTESIAN_POINT('',(-80.,35.,10.));
#625=CARTESIAN_POINT('Origin',(0.,-45.,10.));
#626=CARTESIAN_POINT('',(70.,-45.,0.));
#627=CARTESIAN_POINT('',(-70.,-45.,0.));
#628=CARTESIAN_POINT('',(70.,-45.,0.));
#629=CARTESIAN_POINT('',(70.,-45.,10.));
#630=CARTESIAN_POINT('',(70.,-45.,10.));
#631=CARTESIAN_POINT('',(-70.,-45.,10.));
#632=CARTESIAN_POINT('',(70.,-45.,10.));
#633=CARTESIAN_POINT('',(-70.,-45.,10.));
#634=CARTESIAN_POINT('Origin',(80.,-1.2335811384724E-14,10.));
#635=CARTESIAN_POINT('',(80.,35.,10.));
#636=CARTESIAN_POINT('',(80.,-35.,10.));
#637=CARTESIAN_POINT('',(80.,35.,10.));
#638=CARTESIAN_POINT('',(80.,-35.,0.));
#639=CARTESIAN_POINT('',(80.,-35.,10.));
#640=CARTESIAN_POINT('',(80.,35.,0.));
#641=CARTESIAN_POINT('',(80.,35.,0.));
#642=CARTESIAN_POINT('',(80.,35.,10.));
#643=CARTESIAN_POINT('Origin',(-55.,-28.,10.));
#644=CARTESIAN_POINT('',(-49.9,-28.,10.));
#645=CARTESIAN_POINT('Origin',(-55.,-28.,10.));
#646=CARTESIAN_POINT('',(-49.9,-28.,0.));
#647=CARTESIAN_POINT('',(-49.9,-28.,10.));
#648=CARTESIAN_POINT('Origin',(-55.,-28.,0.));
#649=CARTESIAN_POINT('Origin',(55.,-28.,10.));
#650=CARTESIAN_POINT('',(60.1,-28.,10.));
#651=CARTESIAN_POINT('Origin',(55.,-28.,10.));
#652=CARTESIAN_POINT('',(60.1,-28.,0.));
#653=CARTESIAN_POINT('',(60.1,-28.,10.));
#654=CARTESIAN_POINT('Origin',(55.,-28.,0.));
#655=CARTESIAN_POINT('Origin',(0.,0.,10.));
#656=CARTESIAN_POINT('',(60.25,28.,10.));
#657=CARTESIAN_POINT('',(60.25,45.,10.));
#658=CARTESIAN_POINT('',(49.75,28.,10.));
#659=CARTESIAN_POINT('Origin',(55.,28.,10.));
#660=CARTESIAN_POINT('',(49.75,28.,10.));
#661=CARTESIAN_POINT('',(-49.75,28.,10.));
#662=CARTESIAN_POINT('',(-49.75,45.,10.));
#663=CARTESIAN_POINT('',(-60.25,28.,10.));
#664=CARTESIAN_POINT('Origin',(-55.,28.,10.));
#665=CARTESIAN_POINT('',(-60.25,28.,10.));
#666=CARTESIAN_POINT('Origin',(-70.,35.,10.));
#667=CARTESIAN_POINT('Origin',(-70.,-35.,10.));
#668=CARTESIAN_POINT('Origin',(70.,-35.,10.));
#669=CARTESIAN_POINT('Origin',(70.,35.,10.));
#670=CARTESIAN_POINT('',(-9.99999999999887,-8.32667268468867E-14,10.0000000000005));
#671=CARTESIAN_POINT('Origin',(1.11022302462516E-12,-8.32667268468867E-14,
10.0000000000005));
#672=CARTESIAN_POINT('Origin',(0.,0.,0.));
#673=CARTESIAN_POINT('',(60.25,28.,0.));
#674=CARTESIAN_POINT('',(49.75,28.,0.));
#675=CARTESIAN_POINT('Origin',(55.,28.,0.));
#676=CARTESIAN_POINT('',(60.25,45.,0.));
#677=CARTESIAN_POINT('Origin',(70.,35.,0.));
#678=CARTESIAN_POINT('Origin',(70.,-35.,0.));
#679=CARTESIAN_POINT('Origin',(-70.,-35.,0.));
#680=CARTESIAN_POINT('Origin',(-70.,35.,0.));
#681=CARTESIAN_POINT('',(-60.25,28.,0.));
#682=CARTESIAN_POINT('',(-60.25,28.,0.));
#683=CARTESIAN_POINT('',(-49.75,28.,0.));
#684=CARTESIAN_POINT('Origin',(-55.,28.,0.));
#685=CARTESIAN_POINT('',(-49.75,45.,0.));
#686=CARTESIAN_POINT('',(49.75,28.,0.));
#687=CARTESIAN_POINT('',(-9.99999999999887,-8.44913736461333E-14,0.));
#688=CARTESIAN_POINT('Origin',(1.1102005072065E-12,-8.3266726846986E-14,
0.));
#689=CARTESIAN_POINT('Origin',(70.,-35.,10.));
#690=CARTESIAN_POINT('Origin',(-70.,-35.,10.));
#691=CARTESIAN_POINT('Origin',(70.,35.,10.));
#692=CARTESIAN_POINT('Origin',(-70.,35.,10.));
#693=CARTESIAN_POINT('Origin',(1.10999785043864E-12,-8.3266726847879E-14,
-89.9999999999995));
#694=CARTESIAN_POINT('',(-9.99999999999887,-8.44913736470263E-14,-89.9999999999995));
#695=CARTESIAN_POINT('Origin',(-55.,28.,10.));
#696=CARTESIAN_POINT('',(-60.25,28.,10.));
#697=CARTESIAN_POINT('',(-49.75,28.,10.));
#698=CARTESIAN_POINT('Origin',(-49.75,28.,10.));
#699=CARTESIAN_POINT('Origin',(-60.25,28.,10.));
#700=CARTESIAN_POINT('Origin',(55.,28.,10.));
#701=CARTESIAN_POINT('',(49.75,28.,10.));
#702=CARTESIAN_POINT('',(60.25,28.,10.));
#703=CARTESIAN_POINT('Origin',(60.25,28.,10.));
#704=CARTESIAN_POINT('Origin',(49.75,28.,10.));
#705=UNCERTAINTY_MEASURE_WITH_UNIT(LENGTH_MEASURE(0.01),#709,
'DISTANCE_ACCURACY_VALUE',
'Maximum model space distance between geometric entities at asserted c
onnectivities');
#706=UNCERTAINTY_MEASURE_WITH_UNIT(LENGTH_MEASURE(0.01),#709,
'DISTANCE_ACCURACY_VALUE',
'Maximum model space distance between geometric entities at asserted c
onnectivities');
#707=(
GEOMETRIC_REPRESENTATION_CONTEXT(3)
GLOBAL_UNCERTAINTY_ASSIGNED_CONTEXT((#705))
GLOBAL_UNIT_ASSIGNED_CONTEXT((#709,#711,#712))
REPRESENTATION_CONTEXT('','3D')
);
#708=(
GEOMETRIC_REPRESENTATION_CONTEXT(3)
GLOBAL_UNCERTAINTY_ASSIGNED_CONTEXT((#706))
GLOBAL_UNIT_ASSIGNED_CONTEXT((#709,#711,#712))
REPRESENTATION_CONTEXT('','3D')
);
#709=(
LENGTH_UNIT()
NAMED_UNIT(*)
SI_UNIT(.MILLI.,.METRE.)
);
#710=(
LENGTH_UNIT()
NAMED_UNIT(*)
SI_UNIT($,.METRE.)
);
#711=(
NAMED_UNIT(*)
PLANE_ANGLE_UNIT()
SI_UNIT($,.RADIAN.)
);
#712=(
NAMED_UNIT(*)
SI_UNIT($,.STERADIAN.)
SOLID_ANGLE_UNIT()
);
#713=SHAPE_DEFINITION_REPRESENTATION(#714,#715);
#714=PRODUCT_DEFINITION_SHAPE('',$,#717);
#715=SHAPE_REPRESENTATION('',(#429),#707);
#716=PRODUCT_DEFINITION_CONTEXT('part definition',#721,'design');
#717=PRODUCT_DEFINITION('405_FlangeRect_x1_10mm_FERRO',
'405_FlangeRect_x1_10mm_FERRO v1',#718,#716);
#718=PRODUCT_DEFINITION_FORMATION('',$,#723);
#719=PRODUCT_RELATED_PRODUCT_CATEGORY('405_FlangeRect_x1_10mm_FERRO v1',
'405_FlangeRect_x1_10mm_FERRO v1',(#723));
#720=APPLICATION_PROTOCOL_DEFINITION('international standard',
'automotive_design',2009,#721);
#721=APPLICATION_CONTEXT(
'Core Data for Automotive Mechanical Design Process');
#722=PRODUCT_CONTEXT('part definition',#721,'mechanical');
#723=PRODUCT('405_FlangeRect_x1_10mm_FERRO',
'405_FlangeRect_x1_10mm_FERRO v1',$,(#722));
#724=PRESENTATION_STYLE_ASSIGNMENT((#725));
#725=SURFACE_STYLE_USAGE(.BOTH.,#726);
#726=SURFACE_SIDE_STYLE('',(#727));
#727=SURFACE_STYLE_FILL_AREA(#728);
#728=FILL_AREA_STYLE('Steel - Satin',(#729));
#729=FILL_AREA_STYLE_COLOUR('Steel - Satin',#730);
#730=COLOUR_RGB('Steel - Satin',0.627450980392157,0.627450980392157,0.627450980392157);
ENDSEC;
END-ISO-10303-21;
