ISO-10303-21;
HEADER;
/* Generated by software containing ST-Developer
 * from STEP Tools, Inc. (www.steptools.com) 
 */

FILE_DESCRIPTION(
/* description */ (''),
/* implementation_level */ '2;1');

FILE_NAME(
/* name */ '403_MountPlate_x2_4mm_INOX-rc-1 v1.step',
/* time_stamp */ '2026-03-14T09:50:35+01:00',
/* author */ (''),
/* organization */ (''),
/* preprocessor_version */ 'ST-DEVELOPER v20.1',
/* originating_system */ 'Autodesk Translation Framework v14.24.0.0',
/* authorisation */ '');

FILE_SCHEMA (('AUTOMOTIVE_DESIGN { 1 0 10303 214 3 1 1 }'));
ENDSEC;

DATA;
#10=MECHANICAL_DESIGN_GEOMETRIC_PRESENTATION_REPRESENTATION('',(#13),#1397);
#11=SHAPE_REPRESENTATION_RELATIONSHIP('SRR','None',#1404,#12);
#12=ADVANCED_BREP_SHAPE_REPRESENTATION('',(#14),#1396);
#13=STYLED_ITEM('',(#1414),#14);
#14=MANIFOLD_SOLID_BREP('Body1',#809);
#15=CYLINDRICAL_SURFACE('',#884,4.09999999999996);
#16=CYLINDRICAL_SURFACE('',#885,4.09999999999996);
#17=CYLINDRICAL_SURFACE('',#886,4.09999999999996);
#18=CYLINDRICAL_SURFACE('',#887,4.09999999999996);
#19=CYLINDRICAL_SURFACE('',#888,3.40000000000012);
#20=CYLINDRICAL_SURFACE('',#889,3.40000000000003);
#21=CYLINDRICAL_SURFACE('',#890,16.);
#22=CYLINDRICAL_SURFACE('',#891,16.);
#23=CYLINDRICAL_SURFACE('',#892,16.);
#24=CYLINDRICAL_SURFACE('',#893,16.);
#25=CYLINDRICAL_SURFACE('',#899,4.);
#26=CYLINDRICAL_SURFACE('',#900,4.);
#27=CYLINDRICAL_SURFACE('',#901,4.);
#28=CYLINDRICAL_SURFACE('',#902,4.);
#29=CYLINDRICAL_SURFACE('',#903,4.);
#30=CYLINDRICAL_SURFACE('',#904,4.);
#31=CYLINDRICAL_SURFACE('',#905,4.);
#32=CYLINDRICAL_SURFACE('',#906,4.);
#33=CYLINDRICAL_SURFACE('',#907,4.);
#34=CYLINDRICAL_SURFACE('',#908,4.);
#35=CYLINDRICAL_SURFACE('',#909,4.);
#36=CYLINDRICAL_SURFACE('',#910,4.);
#37=CYLINDRICAL_SURFACE('',#911,3.09999999999999);
#38=CYLINDRICAL_SURFACE('',#912,3.09999999999999);
#39=CYLINDRICAL_SURFACE('',#913,3.09999999999999);
#40=CYLINDRICAL_SURFACE('',#914,3.09999999999999);
#41=FACE_BOUND('',#156,.T.);
#42=FACE_BOUND('',#157,.T.);
#43=FACE_BOUND('',#158,.T.);
#44=FACE_BOUND('',#159,.T.);
#45=FACE_BOUND('',#160,.T.);
#46=FACE_BOUND('',#161,.T.);
#47=FACE_BOUND('',#162,.T.);
#48=FACE_BOUND('',#163,.T.);
#49=FACE_BOUND('',#164,.T.);
#50=FACE_BOUND('',#165,.T.);
#51=FACE_BOUND('',#167,.T.);
#52=FACE_BOUND('',#168,.T.);
#53=FACE_BOUND('',#169,.T.);
#54=FACE_BOUND('',#170,.T.);
#55=FACE_BOUND('',#171,.T.);
#56=FACE_BOUND('',#172,.T.);
#57=FACE_BOUND('',#173,.T.);
#58=FACE_BOUND('',#174,.T.);
#59=FACE_BOUND('',#175,.T.);
#60=FACE_BOUND('',#176,.T.);
#61=CIRCLE('',#826,4.);
#62=CIRCLE('',#827,4.);
#63=CIRCLE('',#828,4.);
#64=CIRCLE('',#829,4.);
#65=CIRCLE('',#830,16.);
#66=CIRCLE('',#831,16.);
#67=CIRCLE('',#832,4.);
#68=CIRCLE('',#833,4.);
#69=CIRCLE('',#834,4.);
#70=CIRCLE('',#835,4.);
#71=CIRCLE('',#836,16.);
#72=CIRCLE('',#837,4.);
#73=CIRCLE('',#838,4.);
#74=CIRCLE('',#839,4.);
#75=CIRCLE('',#840,4.);
#76=CIRCLE('',#841,16.);
#77=CIRCLE('',#842,3.09999999999999);
#78=CIRCLE('',#843,3.09999999999999);
#79=CIRCLE('',#844,3.09999999999999);
#80=CIRCLE('',#845,3.09999999999999);
#81=CIRCLE('',#846,4.09999999999996);
#82=CIRCLE('',#847,4.09999999999996);
#83=CIRCLE('',#848,4.09999999999996);
#84=CIRCLE('',#849,4.09999999999996);
#85=CIRCLE('',#850,3.40000000000012);
#86=CIRCLE('',#851,3.40000000000003);
#87=CIRCLE('',#853,4.);
#88=CIRCLE('',#854,4.);
#89=CIRCLE('',#855,16.);
#90=CIRCLE('',#856,4.);
#91=CIRCLE('',#857,4.);
#92=CIRCLE('',#858,4.);
#93=CIRCLE('',#859,4.);
#94=CIRCLE('',#860,16.);
#95=CIRCLE('',#861,4.);
#96=CIRCLE('',#862,4.);
#97=CIRCLE('',#863,4.);
#98=CIRCLE('',#864,4.);
#99=CIRCLE('',#865,16.);
#100=CIRCLE('',#866,16.);
#101=CIRCLE('',#867,4.);
#102=CIRCLE('',#868,4.);
#103=CIRCLE('',#869,3.09999999999999);
#104=CIRCLE('',#870,3.09999999999999);
#105=CIRCLE('',#871,3.09999999999999);
#106=CIRCLE('',#872,3.09999999999999);
#107=CIRCLE('',#873,3.40000000000003);
#108=CIRCLE('',#874,3.40000000000012);
#109=CIRCLE('',#875,4.09999999999996);
#110=CIRCLE('',#876,4.09999999999996);
#111=CIRCLE('',#877,4.09999999999996);
#112=CIRCLE('',#878,4.09999999999996);
#113=FACE_OUTER_BOUND('',#153,.T.);
#114=FACE_OUTER_BOUND('',#154,.T.);
#115=FACE_OUTER_BOUND('',#155,.T.);
#116=FACE_OUTER_BOUND('',#166,.T.);
#117=FACE_OUTER_BOUND('',#177,.T.);
#118=FACE_OUTER_BOUND('',#178,.T.);
#119=FACE_OUTER_BOUND('',#179,.T.);
#120=FACE_OUTER_BOUND('',#180,.T.);
#121=FACE_OUTER_BOUND('',#181,.T.);
#122=FACE_OUTER_BOUND('',#182,.T.);
#123=FACE_OUTER_BOUND('',#183,.T.);
#124=FACE_OUTER_BOUND('',#184,.T.);
#125=FACE_OUTER_BOUND('',#185,.T.);
#126=FACE_OUTER_BOUND('',#186,.T.);
#127=FACE_OUTER_BOUND('',#187,.T.);
#128=FACE_OUTER_BOUND('',#188,.T.);
#129=FACE_OUTER_BOUND('',#189,.T.);
#130=FACE_OUTER_BOUND('',#190,.T.);
#131=FACE_OUTER_BOUND('',#191,.T.);
#132=FACE_OUTER_BOUND('',#192,.T.);
#133=FACE_OUTER_BOUND('',#193,.T.);
#134=FACE_OUTER_BOUND('',#194,.T.);
#135=FACE_OUTER_BOUND('',#195,.T.);
#136=FACE_OUTER_BOUND('',#196,.T.);
#137=FACE_OUTER_BOUND('',#197,.T.);
#138=FACE_OUTER_BOUND('',#198,.T.);
#139=FACE_OUTER_BOUND('',#199,.T.);
#140=FACE_OUTER_BOUND('',#200,.T.);
#141=FACE_OUTER_BOUND('',#201,.T.);
#142=FACE_OUTER_BOUND('',#202,.T.);
#143=FACE_OUTER_BOUND('',#203,.T.);
#144=FACE_OUTER_BOUND('',#204,.T.);
#145=FACE_OUTER_BOUND('',#205,.T.);
#146=FACE_OUTER_BOUND('',#206,.T.);
#147=FACE_OUTER_BOUND('',#207,.T.);
#148=FACE_OUTER_BOUND('',#208,.T.);
#149=FACE_OUTER_BOUND('',#209,.T.);
#150=FACE_OUTER_BOUND('',#210,.T.);
#151=FACE_OUTER_BOUND('',#211,.T.);
#152=FACE_OUTER_BOUND('',#212,.T.);
#153=EDGE_LOOP('',(#527,#528,#529,#530));
#154=EDGE_LOOP('',(#531,#532,#533,#534));
#155=EDGE_LOOP('',(#535,#536,#537,#538,#539,#540,#541,#542,#543,#544,#545,
#546,#547,#548,#549,#550,#551,#552,#553,#554,#555,#556,#557,#558,#559,#560,
#561,#562));
#156=EDGE_LOOP('',(#563));
#157=EDGE_LOOP('',(#564));
#158=EDGE_LOOP('',(#565));
#159=EDGE_LOOP('',(#566));
#160=EDGE_LOOP('',(#567));
#161=EDGE_LOOP('',(#568));
#162=EDGE_LOOP('',(#569));
#163=EDGE_LOOP('',(#570));
#164=EDGE_LOOP('',(#571));
#165=EDGE_LOOP('',(#572));
#166=EDGE_LOOP('',(#573,#574,#575,#576,#577,#578,#579,#580,#581,#582,#583,
#584,#585,#586,#587,#588,#589,#590,#591,#592,#593,#594,#595,#596,#597,#598,
#599,#600));
#167=EDGE_LOOP('',(#601));
#168=EDGE_LOOP('',(#602));
#169=EDGE_LOOP('',(#603));
#170=EDGE_LOOP('',(#604));
#171=EDGE_LOOP('',(#605));
#172=EDGE_LOOP('',(#606));
#173=EDGE_LOOP('',(#607));
#174=EDGE_LOOP('',(#608));
#175=EDGE_LOOP('',(#609));
#176=EDGE_LOOP('',(#610));
#177=EDGE_LOOP('',(#611,#612,#613,#614));
#178=EDGE_LOOP('',(#615,#616,#617,#618));
#179=EDGE_LOOP('',(#619,#620,#621,#622));
#180=EDGE_LOOP('',(#623,#624,#625,#626));
#181=EDGE_LOOP('',(#627,#628,#629,#630));
#182=EDGE_LOOP('',(#631,#632,#633,#634));
#183=EDGE_LOOP('',(#635,#636,#637,#638));
#184=EDGE_LOOP('',(#639,#640,#641,#642));
#185=EDGE_LOOP('',(#643,#644,#645,#646));
#186=EDGE_LOOP('',(#647,#648,#649,#650));
#187=EDGE_LOOP('',(#651,#652,#653,#654));
#188=EDGE_LOOP('',(#655,#656,#657,#658));
#189=EDGE_LOOP('',(#659,#660,#661,#662));
#190=EDGE_LOOP('',(#663,#664,#665,#666));
#191=EDGE_LOOP('',(#667,#668,#669,#670));
#192=EDGE_LOOP('',(#671,#672,#673,#674));
#193=EDGE_LOOP('',(#675,#676,#677,#678));
#194=EDGE_LOOP('',(#679,#680,#681,#682));
#195=EDGE_LOOP('',(#683,#684,#685,#686));
#196=EDGE_LOOP('',(#687,#688,#689,#690));
#197=EDGE_LOOP('',(#691,#692,#693,#694));
#198=EDGE_LOOP('',(#695,#696,#697,#698));
#199=EDGE_LOOP('',(#699,#700,#701,#702));
#200=EDGE_LOOP('',(#703,#704,#705,#706));
#201=EDGE_LOOP('',(#707,#708,#709,#710));
#202=EDGE_LOOP('',(#711,#712,#713,#714));
#203=EDGE_LOOP('',(#715,#716,#717,#718));
#204=EDGE_LOOP('',(#719,#720,#721,#722));
#205=EDGE_LOOP('',(#723,#724,#725,#726));
#206=EDGE_LOOP('',(#727,#728,#729,#730));
#207=EDGE_LOOP('',(#731,#732,#733,#734));
#208=EDGE_LOOP('',(#735,#736,#737,#738));
#209=EDGE_LOOP('',(#739,#740,#741,#742));
#210=EDGE_LOOP('',(#743,#744,#745,#746));
#211=EDGE_LOOP('',(#747,#748,#749,#750));
#212=EDGE_LOOP('',(#751,#752,#753,#754));
#213=LINE('',#1167,#275);
#214=LINE('',#1169,#276);
#215=LINE('',#1171,#277);
#216=LINE('',#1172,#278);
#217=LINE('',#1176,#279);
#218=LINE('',#1178,#280);
#219=LINE('',#1180,#281);
#220=LINE('',#1181,#282);
#221=LINE('',#1185,#283);
#222=LINE('',#1191,#284);
#223=LINE('',#1197,#285);
#224=LINE('',#1201,#286);
#225=LINE('',#1208,#287);
#226=LINE('',#1215,#288);
#227=LINE('',#1219,#289);
#228=LINE('',#1223,#290);
#229=LINE('',#1227,#291);
#230=LINE('',#1231,#292);
#231=LINE('',#1256,#293);
#232=LINE('',#1262,#294);
#233=LINE('',#1266,#295);
#234=LINE('',#1270,#296);
#235=LINE('',#1274,#297);
#236=LINE('',#1278,#298);
#237=LINE('',#1282,#299);
#238=LINE('',#1289,#300);
#239=LINE('',#1296,#301);
#240=LINE('',#1300,#302);
#241=LINE('',#1325,#303);
#242=LINE('',#1326,#304);
#243=LINE('',#1328,#305);
#244=LINE('',#1329,#306);
#245=LINE('',#1331,#307);
#246=LINE('',#1332,#308);
#247=LINE('',#1334,#309);
#248=LINE('',#1335,#310);
#249=LINE('',#1337,#311);
#250=LINE('',#1338,#312);
#251=LINE('',#1340,#313);
#252=LINE('',#1342,#314);
#253=LINE('',#1344,#315);
#254=LINE('',#1346,#316);
#255=LINE('',#1348,#317);
#256=LINE('',#1350,#318);
#257=LINE('',#1356,#319);
#258=LINE('',#1357,#320);
#259=LINE('',#1359,#321);
#260=LINE('',#1360,#322);
#261=LINE('',#1362,#323);
#262=LINE('',#1363,#324);
#263=LINE('',#1365,#325);
#264=LINE('',#1366,#326);
#265=LINE('',#1368,#327);
#266=LINE('',#1369,#328);
#267=LINE('',#1371,#329);
#268=LINE('',#1374,#330);
#269=LINE('',#1377,#331);
#270=LINE('',#1380,#332);
#271=LINE('',#1387,#333);
#272=LINE('',#1389,#334);
#273=LINE('',#1391,#335);
#274=LINE('',#1393,#336);
#275=VECTOR('',#919,8.00000000000001);
#276=VECTOR('',#920,4.);
#277=VECTOR('',#921,8.00000000000001);
#278=VECTOR('',#922,4.);
#279=VECTOR('',#925,8.00000000000001);
#280=VECTOR('',#926,4.);
#281=VECTOR('',#927,8.00000000000001);
#282=VECTOR('',#928,4.);
#283=VECTOR('',#931,8.00000000000001);
#284=VECTOR('',#936,356.);
#285=VECTOR('',#941,8.00000000000001);
#286=VECTOR('',#944,288.);
#287=VECTOR('',#951,356.);
#288=VECTOR('',#958,52.3542050670716);
#289=VECTOR('',#961,4.18536989130162);
#290=VECTOR('',#964,166.058874503046);
#291=VECTOR('',#967,4.18536989130227);
#292=VECTOR('',#970,52.3542050670709);
#293=VECTOR('',#995,356.);
#294=VECTOR('',#1000,8.00000000000001);
#295=VECTOR('',#1003,52.3542050670709);
#296=VECTOR('',#1006,4.18536989130227);
#297=VECTOR('',#1009,166.058874503046);
#298=VECTOR('',#1012,4.18536989130162);
#299=VECTOR('',#1015,52.3542050670716);
#300=VECTOR('',#1022,356.);
#301=VECTOR('',#1029,288.);
#302=VECTOR('',#1032,8.00000000000001);
#303=VECTOR('',#1059,4.);
#304=VECTOR('',#1060,4.);
#305=VECTOR('',#1063,4.);
#306=VECTOR('',#1064,4.);
#307=VECTOR('',#1067,4.);
#308=VECTOR('',#1068,4.);
#309=VECTOR('',#1071,4.);
#310=VECTOR('',#1072,4.);
#311=VECTOR('',#1075,4.);
#312=VECTOR('',#1076,4.);
#313=VECTOR('',#1079,4.09999999999996);
#314=VECTOR('',#1082,4.09999999999996);
#315=VECTOR('',#1085,4.09999999999996);
#316=VECTOR('',#1088,4.09999999999996);
#317=VECTOR('',#1091,3.40000000000012);
#318=VECTOR('',#1094,3.40000000000003);
#319=VECTOR('',#1105,4.);
#320=VECTOR('',#1106,4.);
#321=VECTOR('',#1109,4.);
#322=VECTOR('',#1110,4.);
#323=VECTOR('',#1113,4.);
#324=VECTOR('',#1114,4.);
#325=VECTOR('',#1117,4.);
#326=VECTOR('',#1118,4.);
#327=VECTOR('',#1121,4.);
#328=VECTOR('',#1122,4.);
#329=VECTOR('',#1125,4.);
#330=VECTOR('',#1130,4.);
#331=VECTOR('',#1135,4.);
#332=VECTOR('',#1140,4.);
#333=VECTOR('',#1153,3.09999999999999);
#334=VECTOR('',#1156,3.09999999999999);
#335=VECTOR('',#1159,3.09999999999999);
#336=VECTOR('',#1162,3.09999999999999);
#337=VERTEX_POINT('',#1165);
#338=VERTEX_POINT('',#1166);
#339=VERTEX_POINT('',#1168);
#340=VERTEX_POINT('',#1170);
#341=VERTEX_POINT('',#1174);
#342=VERTEX_POINT('',#1175);
#343=VERTEX_POINT('',#1177);
#344=VERTEX_POINT('',#1179);
#345=VERTEX_POINT('',#1183);
#346=VERTEX_POINT('',#1184);
#347=VERTEX_POINT('',#1186);
#348=VERTEX_POINT('',#1188);
#349=VERTEX_POINT('',#1190);
#350=VERTEX_POINT('',#1192);
#351=VERTEX_POINT('',#1194);
#352=VERTEX_POINT('',#1196);
#353=VERTEX_POINT('',#1198);
#354=VERTEX_POINT('',#1200);
#355=VERTEX_POINT('',#1203);
#356=VERTEX_POINT('',#1205);
#357=VERTEX_POINT('',#1207);
#358=VERTEX_POINT('',#1209);
#359=VERTEX_POINT('',#1212);
#360=VERTEX_POINT('',#1214);
#361=VERTEX_POINT('',#1216);
#362=VERTEX_POINT('',#1218);
#363=VERTEX_POINT('',#1220);
#364=VERTEX_POINT('',#1222);
#365=VERTEX_POINT('',#1224);
#366=VERTEX_POINT('',#1226);
#367=VERTEX_POINT('',#1228);
#368=VERTEX_POINT('',#1230);
#369=VERTEX_POINT('',#1233);
#370=VERTEX_POINT('',#1235);
#371=VERTEX_POINT('',#1237);
#372=VERTEX_POINT('',#1239);
#373=VERTEX_POINT('',#1241);
#374=VERTEX_POINT('',#1243);
#375=VERTEX_POINT('',#1245);
#376=VERTEX_POINT('',#1247);
#377=VERTEX_POINT('',#1249);
#378=VERTEX_POINT('',#1251);
#379=VERTEX_POINT('',#1254);
#380=VERTEX_POINT('',#1255);
#381=VERTEX_POINT('',#1257);
#382=VERTEX_POINT('',#1259);
#383=VERTEX_POINT('',#1261);
#384=VERTEX_POINT('',#1263);
#385=VERTEX_POINT('',#1265);
#386=VERTEX_POINT('',#1267);
#387=VERTEX_POINT('',#1269);
#388=VERTEX_POINT('',#1271);
#389=VERTEX_POINT('',#1273);
#390=VERTEX_POINT('',#1275);
#391=VERTEX_POINT('',#1277);
#392=VERTEX_POINT('',#1279);
#393=VERTEX_POINT('',#1281);
#394=VERTEX_POINT('',#1284);
#395=VERTEX_POINT('',#1286);
#396=VERTEX_POINT('',#1288);
#397=VERTEX_POINT('',#1290);
#398=VERTEX_POINT('',#1293);
#399=VERTEX_POINT('',#1295);
#400=VERTEX_POINT('',#1297);
#401=VERTEX_POINT('',#1299);
#402=VERTEX_POINT('',#1301);
#403=VERTEX_POINT('',#1304);
#404=VERTEX_POINT('',#1306);
#405=VERTEX_POINT('',#1308);
#406=VERTEX_POINT('',#1310);
#407=VERTEX_POINT('',#1312);
#408=VERTEX_POINT('',#1314);
#409=VERTEX_POINT('',#1316);
#410=VERTEX_POINT('',#1318);
#411=VERTEX_POINT('',#1320);
#412=VERTEX_POINT('',#1322);
#413=EDGE_CURVE('',#337,#338,#213,.T.);
#414=EDGE_CURVE('',#337,#339,#214,.T.);
#415=EDGE_CURVE('',#339,#340,#215,.T.);
#416=EDGE_CURVE('',#340,#338,#216,.T.);
#417=EDGE_CURVE('',#341,#342,#217,.T.);
#418=EDGE_CURVE('',#342,#343,#218,.T.);
#419=EDGE_CURVE('',#344,#343,#219,.T.);
#420=EDGE_CURVE('',#344,#341,#220,.F.);
#421=EDGE_CURVE('',#345,#346,#221,.T.);
#422=EDGE_CURVE('',#345,#347,#61,.F.);
#423=EDGE_CURVE('',#347,#348,#62,.T.);
#424=EDGE_CURVE('',#348,#349,#222,.T.);
#425=EDGE_CURVE('',#349,#350,#63,.T.);
#426=EDGE_CURVE('',#350,#351,#64,.F.);
#427=EDGE_CURVE('',#352,#351,#223,.T.);
#428=EDGE_CURVE('',#352,#353,#65,.F.);
#429=EDGE_CURVE('',#354,#353,#224,.T.);
#430=EDGE_CURVE('',#354,#340,#66,.F.);
#431=EDGE_CURVE('',#339,#355,#67,.F.);
#432=EDGE_CURVE('',#355,#356,#68,.T.);
#433=EDGE_CURVE('',#357,#356,#225,.T.);
#434=EDGE_CURVE('',#357,#358,#69,.T.);
#435=EDGE_CURVE('',#358,#342,#70,.F.);
#436=EDGE_CURVE('',#341,#359,#71,.F.);
#437=EDGE_CURVE('',#360,#359,#226,.T.);
#438=EDGE_CURVE('',#360,#361,#72,.F.);
#439=EDGE_CURVE('',#361,#362,#227,.T.);
#440=EDGE_CURVE('',#362,#363,#73,.T.);
#441=EDGE_CURVE('',#363,#364,#228,.T.);
#442=EDGE_CURVE('',#364,#365,#74,.T.);
#443=EDGE_CURVE('',#365,#366,#229,.T.);
#444=EDGE_CURVE('',#366,#367,#75,.F.);
#445=EDGE_CURVE('',#368,#367,#230,.T.);
#446=EDGE_CURVE('',#368,#346,#76,.F.);
#447=EDGE_CURVE('',#369,#369,#77,.T.);
#448=EDGE_CURVE('',#370,#370,#78,.T.);
#449=EDGE_CURVE('',#371,#371,#79,.T.);
#450=EDGE_CURVE('',#372,#372,#80,.T.);
#451=EDGE_CURVE('',#373,#373,#81,.T.);
#452=EDGE_CURVE('',#374,#374,#82,.T.);
#453=EDGE_CURVE('',#375,#375,#83,.T.);
#454=EDGE_CURVE('',#376,#376,#84,.T.);
#455=EDGE_CURVE('',#377,#377,#85,.T.);
#456=EDGE_CURVE('',#378,#378,#86,.T.);
#457=EDGE_CURVE('',#379,#380,#231,.T.);
#458=EDGE_CURVE('',#379,#381,#87,.F.);
#459=EDGE_CURVE('',#381,#382,#88,.T.);
#460=EDGE_CURVE('',#382,#383,#232,.T.);
#461=EDGE_CURVE('',#383,#384,#89,.T.);
#462=EDGE_CURVE('',#384,#385,#233,.T.);
#463=EDGE_CURVE('',#385,#386,#90,.T.);
#464=EDGE_CURVE('',#387,#386,#234,.T.);
#465=EDGE_CURVE('',#387,#388,#91,.F.);
#466=EDGE_CURVE('',#389,#388,#235,.T.);
#467=EDGE_CURVE('',#389,#390,#92,.F.);
#468=EDGE_CURVE('',#391,#390,#236,.T.);
#469=EDGE_CURVE('',#391,#392,#93,.T.);
#470=EDGE_CURVE('',#392,#393,#237,.T.);
#471=EDGE_CURVE('',#393,#344,#94,.T.);
#472=EDGE_CURVE('',#343,#394,#95,.T.);
#473=EDGE_CURVE('',#394,#395,#96,.F.);
#474=EDGE_CURVE('',#395,#396,#238,.T.);
#475=EDGE_CURVE('',#396,#397,#97,.F.);
#476=EDGE_CURVE('',#397,#337,#98,.T.);
#477=EDGE_CURVE('',#338,#398,#99,.T.);
#478=EDGE_CURVE('',#398,#399,#239,.T.);
#479=EDGE_CURVE('',#399,#400,#100,.T.);
#480=EDGE_CURVE('',#400,#401,#240,.T.);
#481=EDGE_CURVE('',#401,#402,#101,.T.);
#482=EDGE_CURVE('',#402,#380,#102,.F.);
#483=EDGE_CURVE('',#403,#403,#103,.T.);
#484=EDGE_CURVE('',#404,#404,#104,.T.);
#485=EDGE_CURVE('',#405,#405,#105,.T.);
#486=EDGE_CURVE('',#406,#406,#106,.T.);
#487=EDGE_CURVE('',#407,#407,#107,.T.);
#488=EDGE_CURVE('',#408,#408,#108,.T.);
#489=EDGE_CURVE('',#409,#409,#109,.T.);
#490=EDGE_CURVE('',#410,#410,#110,.T.);
#491=EDGE_CURVE('',#411,#411,#111,.T.);
#492=EDGE_CURVE('',#412,#412,#112,.T.);
#493=EDGE_CURVE('',#392,#360,#241,.F.);
#494=EDGE_CURVE('',#359,#393,#242,.T.);
#495=EDGE_CURVE('',#351,#401,#243,.F.);
#496=EDGE_CURVE('',#400,#352,#244,.F.);
#497=EDGE_CURVE('',#398,#354,#245,.F.);
#498=EDGE_CURVE('',#353,#399,#246,.T.);
#499=EDGE_CURVE('',#367,#385,#247,.F.);
#500=EDGE_CURVE('',#384,#368,#248,.F.);
#501=EDGE_CURVE('',#382,#345,#249,.F.);
#502=EDGE_CURVE('',#346,#383,#250,.T.);
#503=EDGE_CURVE('',#373,#412,#251,.T.);
#504=EDGE_CURVE('',#374,#411,#252,.T.);
#505=EDGE_CURVE('',#375,#410,#253,.T.);
#506=EDGE_CURVE('',#376,#409,#254,.T.);
#507=EDGE_CURVE('',#377,#408,#255,.T.);
#508=EDGE_CURVE('',#378,#407,#256,.T.);
#509=EDGE_CURVE('',#380,#349,#257,.F.);
#510=EDGE_CURVE('',#348,#379,#258,.T.);
#511=EDGE_CURVE('',#388,#364,#259,.F.);
#512=EDGE_CURVE('',#363,#389,#260,.T.);
#513=EDGE_CURVE('',#361,#391,#261,.T.);
#514=EDGE_CURVE('',#390,#362,#262,.F.);
#515=EDGE_CURVE('',#386,#366,#263,.T.);
#516=EDGE_CURVE('',#365,#387,#264,.T.);
#517=EDGE_CURVE('',#356,#396,#265,.T.);
#518=EDGE_CURVE('',#395,#357,#266,.F.);
#519=EDGE_CURVE('',#381,#347,#267,.F.);
#520=EDGE_CURVE('',#358,#394,#268,.T.);
#521=EDGE_CURVE('',#397,#355,#269,.F.);
#522=EDGE_CURVE('',#350,#402,#270,.T.);
#523=EDGE_CURVE('',#406,#372,#271,.T.);
#524=EDGE_CURVE('',#405,#371,#272,.T.);
#525=EDGE_CURVE('',#404,#370,#273,.T.);
#526=EDGE_CURVE('',#403,#369,#274,.T.);
#527=ORIENTED_EDGE('',*,*,#413,.F.);
#528=ORIENTED_EDGE('',*,*,#414,.T.);
#529=ORIENTED_EDGE('',*,*,#415,.T.);
#530=ORIENTED_EDGE('',*,*,#416,.T.);
#531=ORIENTED_EDGE('',*,*,#417,.T.);
#532=ORIENTED_EDGE('',*,*,#418,.T.);
#533=ORIENTED_EDGE('',*,*,#419,.F.);
#534=ORIENTED_EDGE('',*,*,#420,.T.);
#535=ORIENTED_EDGE('',*,*,#421,.F.);
#536=ORIENTED_EDGE('',*,*,#422,.T.);
#537=ORIENTED_EDGE('',*,*,#423,.T.);
#538=ORIENTED_EDGE('',*,*,#424,.T.);
#539=ORIENTED_EDGE('',*,*,#425,.T.);
#540=ORIENTED_EDGE('',*,*,#426,.T.);
#541=ORIENTED_EDGE('',*,*,#427,.F.);
#542=ORIENTED_EDGE('',*,*,#428,.T.);
#543=ORIENTED_EDGE('',*,*,#429,.F.);
#544=ORIENTED_EDGE('',*,*,#430,.T.);
#545=ORIENTED_EDGE('',*,*,#415,.F.);
#546=ORIENTED_EDGE('',*,*,#431,.T.);
#547=ORIENTED_EDGE('',*,*,#432,.T.);
#548=ORIENTED_EDGE('',*,*,#433,.F.);
#549=ORIENTED_EDGE('',*,*,#434,.T.);
#550=ORIENTED_EDGE('',*,*,#435,.T.);
#551=ORIENTED_EDGE('',*,*,#417,.F.);
#552=ORIENTED_EDGE('',*,*,#436,.T.);
#553=ORIENTED_EDGE('',*,*,#437,.F.);
#554=ORIENTED_EDGE('',*,*,#438,.T.);
#555=ORIENTED_EDGE('',*,*,#439,.T.);
#556=ORIENTED_EDGE('',*,*,#440,.T.);
#557=ORIENTED_EDGE('',*,*,#441,.T.);
#558=ORIENTED_EDGE('',*,*,#442,.T.);
#559=ORIENTED_EDGE('',*,*,#443,.T.);
#560=ORIENTED_EDGE('',*,*,#444,.T.);
#561=ORIENTED_EDGE('',*,*,#445,.F.);
#562=ORIENTED_EDGE('',*,*,#446,.T.);
#563=ORIENTED_EDGE('',*,*,#447,.F.);
#564=ORIENTED_EDGE('',*,*,#448,.F.);
#565=ORIENTED_EDGE('',*,*,#449,.F.);
#566=ORIENTED_EDGE('',*,*,#450,.F.);
#567=ORIENTED_EDGE('',*,*,#451,.T.);
#568=ORIENTED_EDGE('',*,*,#452,.T.);
#569=ORIENTED_EDGE('',*,*,#453,.T.);
#570=ORIENTED_EDGE('',*,*,#454,.T.);
#571=ORIENTED_EDGE('',*,*,#455,.T.);
#572=ORIENTED_EDGE('',*,*,#456,.T.);
#573=ORIENTED_EDGE('',*,*,#457,.F.);
#574=ORIENTED_EDGE('',*,*,#458,.T.);
#575=ORIENTED_EDGE('',*,*,#459,.T.);
#576=ORIENTED_EDGE('',*,*,#460,.T.);
#577=ORIENTED_EDGE('',*,*,#461,.T.);
#578=ORIENTED_EDGE('',*,*,#462,.T.);
#579=ORIENTED_EDGE('',*,*,#463,.T.);
#580=ORIENTED_EDGE('',*,*,#464,.F.);
#581=ORIENTED_EDGE('',*,*,#465,.T.);
#582=ORIENTED_EDGE('',*,*,#466,.F.);
#583=ORIENTED_EDGE('',*,*,#467,.T.);
#584=ORIENTED_EDGE('',*,*,#468,.F.);
#585=ORIENTED_EDGE('',*,*,#469,.T.);
#586=ORIENTED_EDGE('',*,*,#470,.T.);
#587=ORIENTED_EDGE('',*,*,#471,.T.);
#588=ORIENTED_EDGE('',*,*,#419,.T.);
#589=ORIENTED_EDGE('',*,*,#472,.T.);
#590=ORIENTED_EDGE('',*,*,#473,.T.);
#591=ORIENTED_EDGE('',*,*,#474,.T.);
#592=ORIENTED_EDGE('',*,*,#475,.T.);
#593=ORIENTED_EDGE('',*,*,#476,.T.);
#594=ORIENTED_EDGE('',*,*,#413,.T.);
#595=ORIENTED_EDGE('',*,*,#477,.T.);
#596=ORIENTED_EDGE('',*,*,#478,.T.);
#597=ORIENTED_EDGE('',*,*,#479,.T.);
#598=ORIENTED_EDGE('',*,*,#480,.T.);
#599=ORIENTED_EDGE('',*,*,#481,.T.);
#600=ORIENTED_EDGE('',*,*,#482,.T.);
#601=ORIENTED_EDGE('',*,*,#483,.F.);
#602=ORIENTED_EDGE('',*,*,#484,.F.);
#603=ORIENTED_EDGE('',*,*,#485,.F.);
#604=ORIENTED_EDGE('',*,*,#486,.F.);
#605=ORIENTED_EDGE('',*,*,#487,.F.);
#606=ORIENTED_EDGE('',*,*,#488,.F.);
#607=ORIENTED_EDGE('',*,*,#489,.F.);
#608=ORIENTED_EDGE('',*,*,#490,.F.);
#609=ORIENTED_EDGE('',*,*,#491,.F.);
#610=ORIENTED_EDGE('',*,*,#492,.F.);
#611=ORIENTED_EDGE('',*,*,#470,.F.);
#612=ORIENTED_EDGE('',*,*,#493,.T.);
#613=ORIENTED_EDGE('',*,*,#437,.T.);
#614=ORIENTED_EDGE('',*,*,#494,.T.);
#615=ORIENTED_EDGE('',*,*,#427,.T.);
#616=ORIENTED_EDGE('',*,*,#495,.T.);
#617=ORIENTED_EDGE('',*,*,#480,.F.);
#618=ORIENTED_EDGE('',*,*,#496,.T.);
#619=ORIENTED_EDGE('',*,*,#478,.F.);
#620=ORIENTED_EDGE('',*,*,#497,.T.);
#621=ORIENTED_EDGE('',*,*,#429,.T.);
#622=ORIENTED_EDGE('',*,*,#498,.T.);
#623=ORIENTED_EDGE('',*,*,#445,.T.);
#624=ORIENTED_EDGE('',*,*,#499,.T.);
#625=ORIENTED_EDGE('',*,*,#462,.F.);
#626=ORIENTED_EDGE('',*,*,#500,.T.);
#627=ORIENTED_EDGE('',*,*,#460,.F.);
#628=ORIENTED_EDGE('',*,*,#501,.T.);
#629=ORIENTED_EDGE('',*,*,#421,.T.);
#630=ORIENTED_EDGE('',*,*,#502,.T.);
#631=ORIENTED_EDGE('',*,*,#451,.F.);
#632=ORIENTED_EDGE('',*,*,#503,.T.);
#633=ORIENTED_EDGE('',*,*,#492,.T.);
#634=ORIENTED_EDGE('',*,*,#503,.F.);
#635=ORIENTED_EDGE('',*,*,#452,.F.);
#636=ORIENTED_EDGE('',*,*,#504,.T.);
#637=ORIENTED_EDGE('',*,*,#491,.T.);
#638=ORIENTED_EDGE('',*,*,#504,.F.);
#639=ORIENTED_EDGE('',*,*,#453,.F.);
#640=ORIENTED_EDGE('',*,*,#505,.T.);
#641=ORIENTED_EDGE('',*,*,#490,.T.);
#642=ORIENTED_EDGE('',*,*,#505,.F.);
#643=ORIENTED_EDGE('',*,*,#454,.F.);
#644=ORIENTED_EDGE('',*,*,#506,.T.);
#645=ORIENTED_EDGE('',*,*,#489,.T.);
#646=ORIENTED_EDGE('',*,*,#506,.F.);
#647=ORIENTED_EDGE('',*,*,#455,.F.);
#648=ORIENTED_EDGE('',*,*,#507,.T.);
#649=ORIENTED_EDGE('',*,*,#488,.T.);
#650=ORIENTED_EDGE('',*,*,#507,.F.);
#651=ORIENTED_EDGE('',*,*,#456,.F.);
#652=ORIENTED_EDGE('',*,*,#508,.T.);
#653=ORIENTED_EDGE('',*,*,#487,.T.);
#654=ORIENTED_EDGE('',*,*,#508,.F.);
#655=ORIENTED_EDGE('',*,*,#436,.F.);
#656=ORIENTED_EDGE('',*,*,#420,.F.);
#657=ORIENTED_EDGE('',*,*,#471,.F.);
#658=ORIENTED_EDGE('',*,*,#494,.F.);
#659=ORIENTED_EDGE('',*,*,#446,.F.);
#660=ORIENTED_EDGE('',*,*,#500,.F.);
#661=ORIENTED_EDGE('',*,*,#461,.F.);
#662=ORIENTED_EDGE('',*,*,#502,.F.);
#663=ORIENTED_EDGE('',*,*,#430,.F.);
#664=ORIENTED_EDGE('',*,*,#497,.F.);
#665=ORIENTED_EDGE('',*,*,#477,.F.);
#666=ORIENTED_EDGE('',*,*,#416,.F.);
#667=ORIENTED_EDGE('',*,*,#428,.F.);
#668=ORIENTED_EDGE('',*,*,#496,.F.);
#669=ORIENTED_EDGE('',*,*,#479,.F.);
#670=ORIENTED_EDGE('',*,*,#498,.F.);
#671=ORIENTED_EDGE('',*,*,#457,.T.);
#672=ORIENTED_EDGE('',*,*,#509,.T.);
#673=ORIENTED_EDGE('',*,*,#424,.F.);
#674=ORIENTED_EDGE('',*,*,#510,.T.);
#675=ORIENTED_EDGE('',*,*,#466,.T.);
#676=ORIENTED_EDGE('',*,*,#511,.T.);
#677=ORIENTED_EDGE('',*,*,#441,.F.);
#678=ORIENTED_EDGE('',*,*,#512,.T.);
#679=ORIENTED_EDGE('',*,*,#439,.F.);
#680=ORIENTED_EDGE('',*,*,#513,.T.);
#681=ORIENTED_EDGE('',*,*,#468,.T.);
#682=ORIENTED_EDGE('',*,*,#514,.T.);
#683=ORIENTED_EDGE('',*,*,#464,.T.);
#684=ORIENTED_EDGE('',*,*,#515,.T.);
#685=ORIENTED_EDGE('',*,*,#443,.F.);
#686=ORIENTED_EDGE('',*,*,#516,.T.);
#687=ORIENTED_EDGE('',*,*,#433,.T.);
#688=ORIENTED_EDGE('',*,*,#517,.T.);
#689=ORIENTED_EDGE('',*,*,#474,.F.);
#690=ORIENTED_EDGE('',*,*,#518,.T.);
#691=ORIENTED_EDGE('',*,*,#510,.F.);
#692=ORIENTED_EDGE('',*,*,#423,.F.);
#693=ORIENTED_EDGE('',*,*,#519,.F.);
#694=ORIENTED_EDGE('',*,*,#458,.F.);
#695=ORIENTED_EDGE('',*,*,#422,.F.);
#696=ORIENTED_EDGE('',*,*,#501,.F.);
#697=ORIENTED_EDGE('',*,*,#459,.F.);
#698=ORIENTED_EDGE('',*,*,#519,.T.);
#699=ORIENTED_EDGE('',*,*,#520,.F.);
#700=ORIENTED_EDGE('',*,*,#434,.F.);
#701=ORIENTED_EDGE('',*,*,#518,.F.);
#702=ORIENTED_EDGE('',*,*,#473,.F.);
#703=ORIENTED_EDGE('',*,*,#435,.F.);
#704=ORIENTED_EDGE('',*,*,#520,.T.);
#705=ORIENTED_EDGE('',*,*,#472,.F.);
#706=ORIENTED_EDGE('',*,*,#418,.F.);
#707=ORIENTED_EDGE('',*,*,#521,.F.);
#708=ORIENTED_EDGE('',*,*,#475,.F.);
#709=ORIENTED_EDGE('',*,*,#517,.F.);
#710=ORIENTED_EDGE('',*,*,#432,.F.);
#711=ORIENTED_EDGE('',*,*,#476,.F.);
#712=ORIENTED_EDGE('',*,*,#521,.T.);
#713=ORIENTED_EDGE('',*,*,#431,.F.);
#714=ORIENTED_EDGE('',*,*,#414,.F.);
#715=ORIENTED_EDGE('',*,*,#509,.F.);
#716=ORIENTED_EDGE('',*,*,#482,.F.);
#717=ORIENTED_EDGE('',*,*,#522,.F.);
#718=ORIENTED_EDGE('',*,*,#425,.F.);
#719=ORIENTED_EDGE('',*,*,#481,.F.);
#720=ORIENTED_EDGE('',*,*,#495,.F.);
#721=ORIENTED_EDGE('',*,*,#426,.F.);
#722=ORIENTED_EDGE('',*,*,#522,.T.);
#723=ORIENTED_EDGE('',*,*,#463,.F.);
#724=ORIENTED_EDGE('',*,*,#499,.F.);
#725=ORIENTED_EDGE('',*,*,#444,.F.);
#726=ORIENTED_EDGE('',*,*,#515,.F.);
#727=ORIENTED_EDGE('',*,*,#442,.F.);
#728=ORIENTED_EDGE('',*,*,#511,.F.);
#729=ORIENTED_EDGE('',*,*,#465,.F.);
#730=ORIENTED_EDGE('',*,*,#516,.F.);
#731=ORIENTED_EDGE('',*,*,#438,.F.);
#732=ORIENTED_EDGE('',*,*,#493,.F.);
#733=ORIENTED_EDGE('',*,*,#469,.F.);
#734=ORIENTED_EDGE('',*,*,#513,.F.);
#735=ORIENTED_EDGE('',*,*,#440,.F.);
#736=ORIENTED_EDGE('',*,*,#514,.F.);
#737=ORIENTED_EDGE('',*,*,#467,.F.);
#738=ORIENTED_EDGE('',*,*,#512,.F.);
#739=ORIENTED_EDGE('',*,*,#486,.T.);
#740=ORIENTED_EDGE('',*,*,#523,.T.);
#741=ORIENTED_EDGE('',*,*,#450,.T.);
#742=ORIENTED_EDGE('',*,*,#523,.F.);
#743=ORIENTED_EDGE('',*,*,#485,.T.);
#744=ORIENTED_EDGE('',*,*,#524,.T.);
#745=ORIENTED_EDGE('',*,*,#449,.T.);
#746=ORIENTED_EDGE('',*,*,#524,.F.);
#747=ORIENTED_EDGE('',*,*,#484,.T.);
#748=ORIENTED_EDGE('',*,*,#525,.T.);
#749=ORIENTED_EDGE('',*,*,#448,.T.);
#750=ORIENTED_EDGE('',*,*,#525,.F.);
#751=ORIENTED_EDGE('',*,*,#483,.T.);
#752=ORIENTED_EDGE('',*,*,#526,.T.);
#753=ORIENTED_EDGE('',*,*,#447,.T.);
#754=ORIENTED_EDGE('',*,*,#526,.F.);
#755=PLANE('',#823);
#756=PLANE('',#824);
#757=PLANE('',#825);
#758=PLANE('',#852);
#759=PLANE('',#879);
#760=PLANE('',#880);
#761=PLANE('',#881);
#762=PLANE('',#882);
#763=PLANE('',#883);
#764=PLANE('',#894);
#765=PLANE('',#895);
#766=PLANE('',#896);
#767=PLANE('',#897);
#768=PLANE('',#898);
#769=ADVANCED_FACE('',(#113),#755,.T.);
#770=ADVANCED_FACE('',(#114),#756,.T.);
#771=ADVANCED_FACE('',(#115,#41,#42,#43,#44,#45,#46,#47,#48,#49,#50),#757,
 .F.);
#772=ADVANCED_FACE('',(#116,#51,#52,#53,#54,#55,#56,#57,#58,#59,#60),#758,
 .T.);
#773=ADVANCED_FACE('',(#117),#759,.T.);
#774=ADVANCED_FACE('',(#118),#760,.T.);
#775=ADVANCED_FACE('',(#119),#761,.T.);
#776=ADVANCED_FACE('',(#120),#762,.T.);
#777=ADVANCED_FACE('',(#121),#763,.T.);
#778=ADVANCED_FACE('',(#122),#15,.F.);
#779=ADVANCED_FACE('',(#123),#16,.F.);
#780=ADVANCED_FACE('',(#124),#17,.F.);
#781=ADVANCED_FACE('',(#125),#18,.F.);
#782=ADVANCED_FACE('',(#126),#19,.F.);
#783=ADVANCED_FACE('',(#127),#20,.F.);
#784=ADVANCED_FACE('',(#128),#21,.T.);
#785=ADVANCED_FACE('',(#129),#22,.T.);
#786=ADVANCED_FACE('',(#130),#23,.T.);
#787=ADVANCED_FACE('',(#131),#24,.T.);
#788=ADVANCED_FACE('',(#132),#764,.F.);
#789=ADVANCED_FACE('',(#133),#765,.F.);
#790=ADVANCED_FACE('',(#134),#766,.F.);
#791=ADVANCED_FACE('',(#135),#767,.F.);
#792=ADVANCED_FACE('',(#136),#768,.T.);
#793=ADVANCED_FACE('',(#137),#25,.F.);
#794=ADVANCED_FACE('',(#138),#26,.T.);
#795=ADVANCED_FACE('',(#139),#27,.F.);
#796=ADVANCED_FACE('',(#140),#28,.T.);
#797=ADVANCED_FACE('',(#141),#29,.F.);
#798=ADVANCED_FACE('',(#142),#30,.T.);
#799=ADVANCED_FACE('',(#143),#31,.F.);
#800=ADVANCED_FACE('',(#144),#32,.T.);
#801=ADVANCED_FACE('',(#145),#33,.T.);
#802=ADVANCED_FACE('',(#146),#34,.F.);
#803=ADVANCED_FACE('',(#147),#35,.T.);
#804=ADVANCED_FACE('',(#148),#36,.F.);
#805=ADVANCED_FACE('',(#149),#37,.F.);
#806=ADVANCED_FACE('',(#150),#38,.F.);
#807=ADVANCED_FACE('',(#151),#39,.F.);
#808=ADVANCED_FACE('',(#152),#40,.F.);
#809=CLOSED_SHELL('',(#769,#770,#771,#772,#773,#774,#775,#776,#777,#778,
#779,#780,#781,#782,#783,#784,#785,#786,#787,#788,#789,#790,#791,#792,#793,
#794,#795,#796,#797,#798,#799,#800,#801,#802,#803,#804,#805,#806,#807,#808));
#810=DERIVED_UNIT_ELEMENT(#812,1.);
#811=DERIVED_UNIT_ELEMENT(#1399,-3.);
#812=(
MASS_UNIT()
NAMED_UNIT(*)
SI_UNIT(.KILO.,.GRAM.)
);
#813=DERIVED_UNIT((#810,#811));
#814=MEASURE_REPRESENTATION_ITEM('density measure',
POSITIVE_RATIO_MEASURE(7850.),#813);
#815=PROPERTY_DEFINITION_REPRESENTATION(#820,#817);
#816=PROPERTY_DEFINITION_REPRESENTATION(#821,#818);
#817=REPRESENTATION('material name',(#819),#1396);
#818=REPRESENTATION('density',(#814),#1396);
#819=DESCRIPTIVE_REPRESENTATION_ITEM('Steel','Steel');
#820=PROPERTY_DEFINITION('material property','material name',#1406);
#821=PROPERTY_DEFINITION('material property','density of part',#1406);
#822=AXIS2_PLACEMENT_3D('',#1163,#915,#916);
#823=AXIS2_PLACEMENT_3D('',#1164,#917,#918);
#824=AXIS2_PLACEMENT_3D('',#1173,#923,#924);
#825=AXIS2_PLACEMENT_3D('',#1182,#929,#930);
#826=AXIS2_PLACEMENT_3D('',#1187,#932,#933);
#827=AXIS2_PLACEMENT_3D('',#1189,#934,#935);
#828=AXIS2_PLACEMENT_3D('',#1193,#937,#938);
#829=AXIS2_PLACEMENT_3D('',#1195,#939,#940);
#830=AXIS2_PLACEMENT_3D('',#1199,#942,#943);
#831=AXIS2_PLACEMENT_3D('',#1202,#945,#946);
#832=AXIS2_PLACEMENT_3D('',#1204,#947,#948);
#833=AXIS2_PLACEMENT_3D('',#1206,#949,#950);
#834=AXIS2_PLACEMENT_3D('',#1210,#952,#953);
#835=AXIS2_PLACEMENT_3D('',#1211,#954,#955);
#836=AXIS2_PLACEMENT_3D('',#1213,#956,#957);
#837=AXIS2_PLACEMENT_3D('',#1217,#959,#960);
#838=AXIS2_PLACEMENT_3D('',#1221,#962,#963);
#839=AXIS2_PLACEMENT_3D('',#1225,#965,#966);
#840=AXIS2_PLACEMENT_3D('',#1229,#968,#969);
#841=AXIS2_PLACEMENT_3D('',#1232,#971,#972);
#842=AXIS2_PLACEMENT_3D('',#1234,#973,#974);
#843=AXIS2_PLACEMENT_3D('',#1236,#975,#976);
#844=AXIS2_PLACEMENT_3D('',#1238,#977,#978);
#845=AXIS2_PLACEMENT_3D('',#1240,#979,#980);
#846=AXIS2_PLACEMENT_3D('',#1242,#981,#982);
#847=AXIS2_PLACEMENT_3D('',#1244,#983,#984);
#848=AXIS2_PLACEMENT_3D('',#1246,#985,#986);
#849=AXIS2_PLACEMENT_3D('',#1248,#987,#988);
#850=AXIS2_PLACEMENT_3D('',#1250,#989,#990);
#851=AXIS2_PLACEMENT_3D('',#1252,#991,#992);
#852=AXIS2_PLACEMENT_3D('',#1253,#993,#994);
#853=AXIS2_PLACEMENT_3D('',#1258,#996,#997);
#854=AXIS2_PLACEMENT_3D('',#1260,#998,#999);
#855=AXIS2_PLACEMENT_3D('',#1264,#1001,#1002);
#856=AXIS2_PLACEMENT_3D('',#1268,#1004,#1005);
#857=AXIS2_PLACEMENT_3D('',#1272,#1007,#1008);
#858=AXIS2_PLACEMENT_3D('',#1276,#1010,#1011);
#859=AXIS2_PLACEMENT_3D('',#1280,#1013,#1014);
#860=AXIS2_PLACEMENT_3D('',#1283,#1016,#1017);
#861=AXIS2_PLACEMENT_3D('',#1285,#1018,#1019);
#862=AXIS2_PLACEMENT_3D('',#1287,#1020,#1021);
#863=AXIS2_PLACEMENT_3D('',#1291,#1023,#1024);
#864=AXIS2_PLACEMENT_3D('',#1292,#1025,#1026);
#865=AXIS2_PLACEMENT_3D('',#1294,#1027,#1028);
#866=AXIS2_PLACEMENT_3D('',#1298,#1030,#1031);
#867=AXIS2_PLACEMENT_3D('',#1302,#1033,#1034);
#868=AXIS2_PLACEMENT_3D('',#1303,#1035,#1036);
#869=AXIS2_PLACEMENT_3D('',#1305,#1037,#1038);
#870=AXIS2_PLACEMENT_3D('',#1307,#1039,#1040);
#871=AXIS2_PLACEMENT_3D('',#1309,#1041,#1042);
#872=AXIS2_PLACEMENT_3D('',#1311,#1043,#1044);
#873=AXIS2_PLACEMENT_3D('',#1313,#1045,#1046);
#874=AXIS2_PLACEMENT_3D('',#1315,#1047,#1048);
#875=AXIS2_PLACEMENT_3D('',#1317,#1049,#1050);
#876=AXIS2_PLACEMENT_3D('',#1319,#1051,#1052);
#877=AXIS2_PLACEMENT_3D('',#1321,#1053,#1054);
#878=AXIS2_PLACEMENT_3D('',#1323,#1055,#1056);
#879=AXIS2_PLACEMENT_3D('',#1324,#1057,#1058);
#880=AXIS2_PLACEMENT_3D('',#1327,#1061,#1062);
#881=AXIS2_PLACEMENT_3D('',#1330,#1065,#1066);
#882=AXIS2_PLACEMENT_3D('',#1333,#1069,#1070);
#883=AXIS2_PLACEMENT_3D('',#1336,#1073,#1074);
#884=AXIS2_PLACEMENT_3D('',#1339,#1077,#1078);
#885=AXIS2_PLACEMENT_3D('',#1341,#1080,#1081);
#886=AXIS2_PLACEMENT_3D('',#1343,#1083,#1084);
#887=AXIS2_PLACEMENT_3D('',#1345,#1086,#1087);
#888=AXIS2_PLACEMENT_3D('',#1347,#1089,#1090);
#889=AXIS2_PLACEMENT_3D('',#1349,#1092,#1093);
#890=AXIS2_PLACEMENT_3D('',#1351,#1095,#1096);
#891=AXIS2_PLACEMENT_3D('',#1352,#1097,#1098);
#892=AXIS2_PLACEMENT_3D('',#1353,#1099,#1100);
#893=AXIS2_PLACEMENT_3D('',#1354,#1101,#1102);
#894=AXIS2_PLACEMENT_3D('',#1355,#1103,#1104);
#895=AXIS2_PLACEMENT_3D('',#1358,#1107,#1108);
#896=AXIS2_PLACEMENT_3D('',#1361,#1111,#1112);
#897=AXIS2_PLACEMENT_3D('',#1364,#1115,#1116);
#898=AXIS2_PLACEMENT_3D('',#1367,#1119,#1120);
#899=AXIS2_PLACEMENT_3D('',#1370,#1123,#1124);
#900=AXIS2_PLACEMENT_3D('',#1372,#1126,#1127);
#901=AXIS2_PLACEMENT_3D('',#1373,#1128,#1129);
#902=AXIS2_PLACEMENT_3D('',#1375,#1131,#1132);
#903=AXIS2_PLACEMENT_3D('',#1376,#1133,#1134);
#904=AXIS2_PLACEMENT_3D('',#1378,#1136,#1137);
#905=AXIS2_PLACEMENT_3D('',#1379,#1138,#1139);
#906=AXIS2_PLACEMENT_3D('',#1381,#1141,#1142);
#907=AXIS2_PLACEMENT_3D('',#1382,#1143,#1144);
#908=AXIS2_PLACEMENT_3D('',#1383,#1145,#1146);
#909=AXIS2_PLACEMENT_3D('',#1384,#1147,#1148);
#910=AXIS2_PLACEMENT_3D('',#1385,#1149,#1150);
#911=AXIS2_PLACEMENT_3D('',#1386,#1151,#1152);
#912=AXIS2_PLACEMENT_3D('',#1388,#1154,#1155);
#913=AXIS2_PLACEMENT_3D('',#1390,#1157,#1158);
#914=AXIS2_PLACEMENT_3D('',#1392,#1160,#1161);
#915=DIRECTION('axis',(0.,0.,1.));
#916=DIRECTION('refdir',(1.,0.,0.));
#917=DIRECTION('center_axis',(1.,0.,-1.32169407693471E-16));
#918=DIRECTION('ref_axis',(-1.32169407693471E-16,0.,-1.));
#919=DIRECTION('',(0.,0.,-1.));
#920=DIRECTION('',(0.,-1.,0.));
#921=DIRECTION('',(0.,0.,-1.));
#922=DIRECTION('',(0.,1.,0.));
#923=DIRECTION('center_axis',(1.,0.,-1.32169407693471E-16));
#924=DIRECTION('ref_axis',(-1.32169407693471E-16,0.,-1.));
#925=DIRECTION('',(0.,0.,-1.));
#926=DIRECTION('',(0.,1.,0.));
#927=DIRECTION('',(0.,0.,-1.));
#928=DIRECTION('',(0.,1.,0.));
#929=DIRECTION('center_axis',(0.,1.,0.));
#930=DIRECTION('ref_axis',(0.,0.,1.));
#931=DIRECTION('',(0.,0.,1.));
#932=DIRECTION('center_axis',(0.,1.,0.));
#933=DIRECTION('ref_axis',(0.,0.,1.));
#934=DIRECTION('center_axis',(0.,1.,0.));
#935=DIRECTION('ref_axis',(0.,0.,1.));
#936=DIRECTION('',(-1.49692992084291E-16,0.,-1.));
#937=DIRECTION('center_axis',(0.,1.,0.));
#938=DIRECTION('ref_axis',(0.,0.,1.));
#939=DIRECTION('center_axis',(0.,1.,0.));
#940=DIRECTION('ref_axis',(0.,0.,1.));
#941=DIRECTION('',(0.,0.,1.));
#942=DIRECTION('center_axis',(0.,1.,0.));
#943=DIRECTION('ref_axis',(0.,0.,1.));
#944=DIRECTION('',(-1.,0.,0.));
#945=DIRECTION('center_axis',(0.,1.,0.));
#946=DIRECTION('ref_axis',(0.,0.,1.));
#947=DIRECTION('center_axis',(0.,1.,0.));
#948=DIRECTION('ref_axis',(0.,0.,1.));
#949=DIRECTION('center_axis',(0.,1.,0.));
#950=DIRECTION('ref_axis',(0.,0.,1.));
#951=DIRECTION('',(1.49692992084291E-16,0.,-1.));
#952=DIRECTION('center_axis',(0.,1.,0.));
#953=DIRECTION('ref_axis',(0.,0.,1.));
#954=DIRECTION('center_axis',(0.,1.,0.));
#955=DIRECTION('ref_axis',(0.,0.,1.));
#956=DIRECTION('center_axis',(0.,1.,0.));
#957=DIRECTION('ref_axis',(0.,0.,1.));
#958=DIRECTION('',(1.,0.,0.));
#959=DIRECTION('center_axis',(0.,1.,0.));
#960=DIRECTION('ref_axis',(0.,0.,1.));
#961=DIRECTION('',(-0.707106781186552,0.,-0.707106781186543));
#962=DIRECTION('center_axis',(0.,1.,0.));
#963=DIRECTION('ref_axis',(0.,0.,1.));
#964=DIRECTION('',(-1.,0.,-2.78125923487211E-15));
#965=DIRECTION('center_axis',(0.,1.,0.));
#966=DIRECTION('ref_axis',(0.,0.,1.));
#967=DIRECTION('',(-0.707106781186552,0.,0.707106781186543));
#968=DIRECTION('center_axis',(0.,1.,0.));
#969=DIRECTION('ref_axis',(0.,0.,1.));
#970=DIRECTION('',(1.,0.,0.));
#971=DIRECTION('center_axis',(0.,1.,0.));
#972=DIRECTION('ref_axis',(0.,0.,1.));
#973=DIRECTION('center_axis',(0.,-1.,0.));
#974=DIRECTION('ref_axis',(0.,0.,1.));
#975=DIRECTION('center_axis',(0.,-1.,0.));
#976=DIRECTION('ref_axis',(0.,0.,-1.));
#977=DIRECTION('center_axis',(0.,-1.,0.));
#978=DIRECTION('ref_axis',(0.,0.,1.));
#979=DIRECTION('center_axis',(0.,-1.,0.));
#980=DIRECTION('ref_axis',(0.,0.,-1.));
#981=DIRECTION('center_axis',(0.,1.,0.));
#982=DIRECTION('ref_axis',(0.,0.,1.));
#983=DIRECTION('center_axis',(0.,1.,0.));
#984=DIRECTION('ref_axis',(0.,0.,-1.));
#985=DIRECTION('center_axis',(0.,1.,0.));
#986=DIRECTION('ref_axis',(0.,0.,1.));
#987=DIRECTION('center_axis',(0.,1.,0.));
#988=DIRECTION('ref_axis',(0.,0.,-1.));
#989=DIRECTION('center_axis',(0.,1.,0.));
#990=DIRECTION('ref_axis',(0.,0.,1.));
#991=DIRECTION('center_axis',(0.,1.,0.));
#992=DIRECTION('ref_axis',(0.,0.,-1.));
#993=DIRECTION('center_axis',(0.,1.,0.));
#994=DIRECTION('ref_axis',(0.,0.,1.));
#995=DIRECTION('',(-1.49692992084291E-16,0.,-1.));
#996=DIRECTION('center_axis',(0.,1.,0.));
#997=DIRECTION('ref_axis',(0.,0.,1.));
#998=DIRECTION('center_axis',(0.,1.,0.));
#999=DIRECTION('ref_axis',(0.,0.,1.));
#1000=DIRECTION('',(0.,0.,1.));
#1001=DIRECTION('center_axis',(0.,1.,0.));
#1002=DIRECTION('ref_axis',(0.,0.,1.));
#1003=DIRECTION('',(1.,0.,0.));
#1004=DIRECTION('center_axis',(0.,1.,0.));
#1005=DIRECTION('ref_axis',(0.,0.,1.));
#1006=DIRECTION('',(-0.707106781186552,0.,0.707106781186543));
#1007=DIRECTION('center_axis',(0.,1.,0.));
#1008=DIRECTION('ref_axis',(0.,0.,1.));
#1009=DIRECTION('',(-1.,0.,-2.78125923487211E-15));
#1010=DIRECTION('center_axis',(0.,1.,0.));
#1011=DIRECTION('ref_axis',(0.,0.,1.));
#1012=DIRECTION('',(-0.707106781186552,0.,-0.707106781186543));
#1013=DIRECTION('center_axis',(0.,1.,0.));
#1014=DIRECTION('ref_axis',(0.,0.,1.));
#1015=DIRECTION('',(1.,0.,0.));
#1016=DIRECTION('center_axis',(0.,1.,0.));
#1017=DIRECTION('ref_axis',(0.,0.,1.));
#1018=DIRECTION('center_axis',(0.,1.,0.));
#1019=DIRECTION('ref_axis',(0.,0.,1.));
#1020=DIRECTION('center_axis',(0.,1.,0.));
#1021=DIRECTION('ref_axis',(0.,0.,1.));
#1022=DIRECTION('',(1.49692992084291E-16,0.,-1.));
#1023=DIRECTION('center_axis',(0.,1.,0.));
#1024=DIRECTION('ref_axis',(0.,0.,1.));
#1025=DIRECTION('center_axis',(0.,1.,0.));
#1026=DIRECTION('ref_axis',(0.,0.,1.));
#1027=DIRECTION('center_axis',(0.,1.,0.));
#1028=DIRECTION('ref_axis',(0.,0.,1.));
#1029=DIRECTION('',(-1.,0.,0.));
#1030=DIRECTION('center_axis',(0.,1.,0.));
#1031=DIRECTION('ref_axis',(0.,0.,1.));
#1032=DIRECTION('',(0.,0.,1.));
#1033=DIRECTION('center_axis',(0.,1.,0.));
#1034=DIRECTION('ref_axis',(0.,0.,1.));
#1035=DIRECTION('center_axis',(0.,1.,0.));
#1036=DIRECTION('ref_axis',(0.,0.,1.));
#1037=DIRECTION('center_axis',(0.,1.,0.));
#1038=DIRECTION('ref_axis',(0.,0.,1.));
#1039=DIRECTION('center_axis',(0.,1.,0.));
#1040=DIRECTION('ref_axis',(0.,0.,1.));
#1041=DIRECTION('center_axis',(0.,1.,0.));
#1042=DIRECTION('ref_axis',(0.,0.,1.));
#1043=DIRECTION('center_axis',(0.,1.,0.));
#1044=DIRECTION('ref_axis',(0.,0.,1.));
#1045=DIRECTION('center_axis',(0.,1.,0.));
#1046=DIRECTION('ref_axis',(0.,0.,-1.));
#1047=DIRECTION('center_axis',(0.,1.,0.));
#1048=DIRECTION('ref_axis',(0.,0.,1.));
#1049=DIRECTION('center_axis',(0.,1.,0.));
#1050=DIRECTION('ref_axis',(0.,0.,-1.));
#1051=DIRECTION('center_axis',(0.,1.,0.));
#1052=DIRECTION('ref_axis',(0.,0.,1.));
#1053=DIRECTION('center_axis',(0.,1.,0.));
#1054=DIRECTION('ref_axis',(0.,0.,-1.));
#1055=DIRECTION('center_axis',(0.,1.,0.));
#1056=DIRECTION('ref_axis',(0.,0.,1.));
#1057=DIRECTION('center_axis',(0.,0.,1.));
#1058=DIRECTION('ref_axis',(1.,0.,0.));
#1059=DIRECTION('',(0.,1.,0.));
#1060=DIRECTION('',(0.,1.,0.));
#1061=DIRECTION('center_axis',(-1.,0.,3.96508223080413E-16));
#1062=DIRECTION('ref_axis',(3.96508223080413E-16,0.,1.));
#1063=DIRECTION('',(0.,-1.,0.));
#1064=DIRECTION('',(0.,1.,0.));
#1065=DIRECTION('center_axis',(0.,0.,-1.));
#1066=DIRECTION('ref_axis',(-1.,0.,0.));
#1067=DIRECTION('',(0.,1.,0.));
#1068=DIRECTION('',(0.,1.,0.));
#1069=DIRECTION('center_axis',(0.,0.,1.));
#1070=DIRECTION('ref_axis',(1.,0.,0.));
#1071=DIRECTION('',(0.,-1.,0.));
#1072=DIRECTION('',(0.,1.,0.));
#1073=DIRECTION('center_axis',(-1.,0.,3.96508223080413E-16));
#1074=DIRECTION('ref_axis',(3.96508223080413E-16,0.,1.));
#1075=DIRECTION('',(0.,1.,0.));
#1076=DIRECTION('',(0.,1.,0.));
#1077=DIRECTION('center_axis',(0.,1.,0.));
#1078=DIRECTION('ref_axis',(0.,0.,1.));
#1079=DIRECTION('',(0.,1.,0.));
#1080=DIRECTION('center_axis',(0.,1.,0.));
#1081=DIRECTION('ref_axis',(0.,0.,1.));
#1082=DIRECTION('',(0.,1.,0.));
#1083=DIRECTION('center_axis',(0.,1.,0.));
#1084=DIRECTION('ref_axis',(0.,0.,1.));
#1085=DIRECTION('',(0.,1.,0.));
#1086=DIRECTION('center_axis',(0.,1.,0.));
#1087=DIRECTION('ref_axis',(0.,0.,1.));
#1088=DIRECTION('',(0.,1.,0.));
#1089=DIRECTION('center_axis',(0.,1.,0.));
#1090=DIRECTION('ref_axis',(0.,0.,1.));
#1091=DIRECTION('',(0.,1.,0.));
#1092=DIRECTION('center_axis',(0.,1.,0.));
#1093=DIRECTION('ref_axis',(0.,0.,1.));
#1094=DIRECTION('',(0.,1.,0.));
#1095=DIRECTION('center_axis',(0.,1.,0.));
#1096=DIRECTION('ref_axis',(0.,0.,1.));
#1097=DIRECTION('center_axis',(0.,1.,0.));
#1098=DIRECTION('ref_axis',(0.,0.,1.));
#1099=DIRECTION('center_axis',(0.,1.,0.));
#1100=DIRECTION('ref_axis',(0.,0.,1.));
#1101=DIRECTION('center_axis',(0.,1.,0.));
#1102=DIRECTION('ref_axis',(0.,0.,1.));
#1103=DIRECTION('center_axis',(1.,0.,-1.52503162723236E-16));
#1104=DIRECTION('ref_axis',(-1.52503162723236E-16,0.,-1.));
#1105=DIRECTION('',(0.,1.,0.));
#1106=DIRECTION('',(0.,1.,0.));
#1107=DIRECTION('center_axis',(2.62196632996227E-15,0.,-1.));
#1108=DIRECTION('ref_axis',(-1.,0.,-2.62196632996227E-15));
#1109=DIRECTION('',(0.,1.,0.));
#1110=DIRECTION('',(0.,1.,0.));
#1111=DIRECTION('center_axis',(0.707106781186545,0.,-0.707106781186551));
#1112=DIRECTION('ref_axis',(-0.707106781186551,0.,-0.707106781186545));
#1113=DIRECTION('',(0.,1.,0.));
#1114=DIRECTION('',(0.,1.,0.));
#1115=DIRECTION('center_axis',(-0.707106781186543,0.,-0.707106781186552));
#1116=DIRECTION('ref_axis',(-0.707106781186552,0.,0.707106781186543));
#1117=DIRECTION('',(0.,-1.,0.));
#1118=DIRECTION('',(0.,1.,0.));
#1119=DIRECTION('center_axis',(1.,0.,1.52503162723236E-16));
#1120=DIRECTION('ref_axis',(1.52503162723236E-16,0.,-1.));
#1121=DIRECTION('',(0.,1.,0.));
#1122=DIRECTION('',(0.,1.,0.));
#1123=DIRECTION('center_axis',(0.,-1.,0.));
#1124=DIRECTION('ref_axis',(0.,0.,-1.));
#1125=DIRECTION('',(0.,1.,0.));
#1126=DIRECTION('center_axis',(0.,-1.,0.));
#1127=DIRECTION('ref_axis',(0.,0.,-1.));
#1128=DIRECTION('center_axis',(0.,-1.,0.));
#1129=DIRECTION('ref_axis',(0.,0.,-1.));
#1130=DIRECTION('',(0.,1.,0.));
#1131=DIRECTION('center_axis',(0.,1.,0.));
#1132=DIRECTION('ref_axis',(0.,0.,1.));
#1133=DIRECTION('center_axis',(0.,-1.,0.));
#1134=DIRECTION('ref_axis',(0.,0.,-1.));
#1135=DIRECTION('',(0.,1.,0.));
#1136=DIRECTION('center_axis',(0.,-1.,0.));
#1137=DIRECTION('ref_axis',(0.,0.,-1.));
#1138=DIRECTION('center_axis',(0.,-1.,0.));
#1139=DIRECTION('ref_axis',(0.,0.,-1.));
#1140=DIRECTION('',(0.,1.,0.));
#1141=DIRECTION('center_axis',(0.,1.,0.));
#1142=DIRECTION('ref_axis',(0.,0.,1.));
#1143=DIRECTION('center_axis',(0.,1.,0.));
#1144=DIRECTION('ref_axis',(0.,0.,1.));
#1145=DIRECTION('center_axis',(0.,-1.,0.));
#1146=DIRECTION('ref_axis',(0.,0.,-1.));
#1147=DIRECTION('center_axis',(0.,-1.,0.));
#1148=DIRECTION('ref_axis',(0.,0.,-1.));
#1149=DIRECTION('center_axis',(0.,-1.,0.));
#1150=DIRECTION('ref_axis',(0.,0.,-1.));
#1151=DIRECTION('center_axis',(0.,-1.,0.));
#1152=DIRECTION('ref_axis',(0.,0.,-1.));
#1153=DIRECTION('',(0.,-1.,0.));
#1154=DIRECTION('center_axis',(0.,-1.,0.));
#1155=DIRECTION('ref_axis',(0.,0.,-1.));
#1156=DIRECTION('',(0.,-1.,0.));
#1157=DIRECTION('center_axis',(0.,-1.,0.));
#1158=DIRECTION('ref_axis',(0.,0.,-1.));
#1159=DIRECTION('',(0.,-1.,0.));
#1160=DIRECTION('center_axis',(0.,-1.,0.));
#1161=DIRECTION('ref_axis',(0.,0.,-1.));
#1162=DIRECTION('',(0.,-1.,0.));
#1163=CARTESIAN_POINT('',(0.,0.,0.));
#1164=CARTESIAN_POINT('Origin',(160.,-4.,210.));
#1165=CARTESIAN_POINT('',(160.,0.,-186.));
#1166=CARTESIAN_POINT('',(160.,0.,-194.));
#1167=CARTESIAN_POINT('',(160.,0.,-186.));
#1168=CARTESIAN_POINT('',(160.,-4.,-186.));
#1169=CARTESIAN_POINT('',(160.,0.,-186.));
#1170=CARTESIAN_POINT('',(160.,-4.,-194.));
#1171=CARTESIAN_POINT('',(160.,-4.,-186.));
#1172=CARTESIAN_POINT('',(160.,-4.,-194.));
#1173=CARTESIAN_POINT('Origin',(160.,-4.,210.));
#1174=CARTESIAN_POINT('',(160.,-4.,194.));
#1175=CARTESIAN_POINT('',(160.,-4.,186.));
#1176=CARTESIAN_POINT('',(160.,-4.,194.));
#1177=CARTESIAN_POINT('',(160.,0.,186.));
#1178=CARTESIAN_POINT('',(160.,-4.,186.));
#1179=CARTESIAN_POINT('',(160.,0.,194.));
#1180=CARTESIAN_POINT('',(160.,0.,194.));
#1181=CARTESIAN_POINT('',(160.,-4.,194.));
#1182=CARTESIAN_POINT('Origin',(0.,-4.,0.));
#1183=CARTESIAN_POINT('',(-160.,-4.,186.));
#1184=CARTESIAN_POINT('',(-160.,-4.,194.));
#1185=CARTESIAN_POINT('',(-160.,-4.,186.));
#1186=CARTESIAN_POINT('',(-156.,-4.,182.));
#1187=CARTESIAN_POINT('Origin',(-156.,-4.,186.));
#1188=CARTESIAN_POINT('',(-152.,-4.,178.));
#1189=CARTESIAN_POINT('Origin',(-156.,-4.,178.));
#1190=CARTESIAN_POINT('',(-152.,-4.,-178.));
#1191=CARTESIAN_POINT('',(-152.,-4.,178.));
#1192=CARTESIAN_POINT('',(-156.,-4.,-182.));
#1193=CARTESIAN_POINT('Origin',(-156.,-4.,-178.));
#1194=CARTESIAN_POINT('',(-160.,-4.,-186.));
#1195=CARTESIAN_POINT('Origin',(-156.,-4.,-186.));
#1196=CARTESIAN_POINT('',(-160.,-4.,-194.));
#1197=CARTESIAN_POINT('',(-160.,-4.,-194.));
#1198=CARTESIAN_POINT('',(-144.,-4.,-210.));
#1199=CARTESIAN_POINT('Origin',(-144.,-4.,-194.));
#1200=CARTESIAN_POINT('',(144.,-4.,-210.));
#1201=CARTESIAN_POINT('',(144.,-4.,-210.));
#1202=CARTESIAN_POINT('Origin',(144.,-4.,-194.));
#1203=CARTESIAN_POINT('',(156.,-4.,-182.));
#1204=CARTESIAN_POINT('Origin',(156.,-4.,-186.));
#1205=CARTESIAN_POINT('',(152.,-4.,-178.));
#1206=CARTESIAN_POINT('Origin',(156.,-4.,-178.));
#1207=CARTESIAN_POINT('',(152.,-4.,178.));
#1208=CARTESIAN_POINT('',(152.,-4.,178.));
#1209=CARTESIAN_POINT('',(156.,-4.,182.));
#1210=CARTESIAN_POINT('Origin',(156.,-4.,178.));
#1211=CARTESIAN_POINT('Origin',(156.,-4.,186.));
#1212=CARTESIAN_POINT('',(144.,-4.,210.));
#1213=CARTESIAN_POINT('Origin',(144.,-4.,194.));
#1214=CARTESIAN_POINT('',(91.6457949329284,-4.,210.));
#1215=CARTESIAN_POINT('',(91.6457949329284,-4.,210.));
#1216=CARTESIAN_POINT('',(88.8173678081823,-4.,208.828427124746));
#1217=CARTESIAN_POINT('Origin',(91.6457949329284,-4.,206.));
#1218=CARTESIAN_POINT('',(85.8578643762689,-4.,205.868923692833));
#1219=CARTESIAN_POINT('',(88.8173678081823,-4.,208.828427124746));
#1220=CARTESIAN_POINT('',(83.0294372515227,-4.,204.697350817579));
#1221=CARTESIAN_POINT('Origin',(83.0294372515227,-4.,208.697350817579));
#1222=CARTESIAN_POINT('',(-83.0294372515229,-4.,204.697350817579));
#1223=CARTESIAN_POINT('',(83.0294372515227,-4.,204.697350817579));
#1224=CARTESIAN_POINT('',(-85.8578643762691,-4.,205.868923692832));
#1225=CARTESIAN_POINT('Origin',(-83.0294372515229,-4.,208.697350817579));
#1226=CARTESIAN_POINT('',(-88.8173678081829,-4.,208.828427124746));
#1227=CARTESIAN_POINT('',(-85.8578643762691,-4.,205.868923692832));
#1228=CARTESIAN_POINT('',(-91.6457949329291,-4.,210.));
#1229=CARTESIAN_POINT('Origin',(-91.6457949329291,-4.,206.));
#1230=CARTESIAN_POINT('',(-144.,-4.,210.));
#1231=CARTESIAN_POINT('',(-144.,-4.,210.));
#1232=CARTESIAN_POINT('Origin',(-144.,-4.,194.));
#1233=CARTESIAN_POINT('',(-148.,-4.,-194.9));
#1234=CARTESIAN_POINT('Origin',(-148.,-4.,-198.));
#1235=CARTESIAN_POINT('',(148.,-4.,-194.9));
#1236=CARTESIAN_POINT('Origin',(148.,-4.,-198.));
#1237=CARTESIAN_POINT('',(148.,-4.,201.1));
#1238=CARTESIAN_POINT('Origin',(148.,-4.,198.));
#1239=CARTESIAN_POINT('',(-148.,-4.,201.1));
#1240=CARTESIAN_POINT('Origin',(-148.,-4.,198.));
#1241=CARTESIAN_POINT('',(130.,-4.,-176.6));
#1242=CARTESIAN_POINT('Origin',(130.,-4.,-172.5));
#1243=CARTESIAN_POINT('',(-130.,-4.,-176.6));
#1244=CARTESIAN_POINT('Origin',(-130.,-4.,-172.5));
#1245=CARTESIAN_POINT('',(-130.,-4.,168.4));
#1246=CARTESIAN_POINT('Origin',(-130.,-4.,172.5));
#1247=CARTESIAN_POINT('',(130.,-4.,168.4));
#1248=CARTESIAN_POINT('Origin',(130.,-4.,172.5));
#1249=CARTESIAN_POINT('',(-130.,-4.,-3.4000000000001));
#1250=CARTESIAN_POINT('Origin',(-130.,-4.,1.95943487863576E-14));
#1251=CARTESIAN_POINT('',(130.,-4.,-3.40000000000001));
#1252=CARTESIAN_POINT('Origin',(130.,-4.,1.95943487863576E-14));
#1253=CARTESIAN_POINT('Origin',(0.,0.,0.));
#1254=CARTESIAN_POINT('',(-152.,0.,178.));
#1255=CARTESIAN_POINT('',(-152.,0.,-178.));
#1256=CARTESIAN_POINT('',(-152.,0.,178.));
#1257=CARTESIAN_POINT('',(-156.,0.,182.));
#1258=CARTESIAN_POINT('Origin',(-156.,0.,178.));
#1259=CARTESIAN_POINT('',(-160.,0.,186.));
#1260=CARTESIAN_POINT('Origin',(-156.,0.,186.));
#1261=CARTESIAN_POINT('',(-160.,0.,194.));
#1262=CARTESIAN_POINT('',(-160.,0.,186.));
#1263=CARTESIAN_POINT('',(-144.,0.,210.));
#1264=CARTESIAN_POINT('Origin',(-144.,0.,194.));
#1265=CARTESIAN_POINT('',(-91.6457949329291,0.,210.));
#1266=CARTESIAN_POINT('',(-144.,0.,210.));
#1267=CARTESIAN_POINT('',(-88.8173678081829,0.,208.828427124746));
#1268=CARTESIAN_POINT('Origin',(-91.6457949329291,0.,206.));
#1269=CARTESIAN_POINT('',(-85.8578643762691,0.,205.868923692832));
#1270=CARTESIAN_POINT('',(-85.8578643762691,0.,205.868923692832));
#1271=CARTESIAN_POINT('',(-83.0294372515229,0.,204.697350817579));
#1272=CARTESIAN_POINT('Origin',(-83.0294372515229,0.,208.697350817579));
#1273=CARTESIAN_POINT('',(83.0294372515227,0.,204.697350817579));
#1274=CARTESIAN_POINT('',(83.0294372515227,0.,204.697350817579));
#1275=CARTESIAN_POINT('',(85.8578643762689,0.,205.868923692833));
#1276=CARTESIAN_POINT('Origin',(83.0294372515227,0.,208.697350817579));
#1277=CARTESIAN_POINT('',(88.8173678081823,0.,208.828427124746));
#1278=CARTESIAN_POINT('',(88.8173678081823,0.,208.828427124746));
#1279=CARTESIAN_POINT('',(91.6457949329284,0.,210.));
#1280=CARTESIAN_POINT('Origin',(91.6457949329284,0.,206.));
#1281=CARTESIAN_POINT('',(144.,0.,210.));
#1282=CARTESIAN_POINT('',(91.6457949329284,0.,210.));
#1283=CARTESIAN_POINT('Origin',(144.,0.,194.));
#1284=CARTESIAN_POINT('',(156.,0.,182.));
#1285=CARTESIAN_POINT('Origin',(156.,0.,186.));
#1286=CARTESIAN_POINT('',(152.,0.,178.));
#1287=CARTESIAN_POINT('Origin',(156.,0.,178.));
#1288=CARTESIAN_POINT('',(152.,0.,-178.));
#1289=CARTESIAN_POINT('',(152.,0.,178.));
#1290=CARTESIAN_POINT('',(156.,0.,-182.));
#1291=CARTESIAN_POINT('Origin',(156.,0.,-178.));
#1292=CARTESIAN_POINT('Origin',(156.,0.,-186.));
#1293=CARTESIAN_POINT('',(144.,0.,-210.));
#1294=CARTESIAN_POINT('Origin',(144.,0.,-194.));
#1295=CARTESIAN_POINT('',(-144.,0.,-210.));
#1296=CARTESIAN_POINT('',(144.,0.,-210.));
#1297=CARTESIAN_POINT('',(-160.,0.,-194.));
#1298=CARTESIAN_POINT('Origin',(-144.,0.,-194.));
#1299=CARTESIAN_POINT('',(-160.,0.,-186.));
#1300=CARTESIAN_POINT('',(-160.,0.,-194.));
#1301=CARTESIAN_POINT('',(-156.,0.,-182.));
#1302=CARTESIAN_POINT('Origin',(-156.,0.,-186.));
#1303=CARTESIAN_POINT('Origin',(-156.,0.,-178.));
#1304=CARTESIAN_POINT('',(-148.,0.,-194.9));
#1305=CARTESIAN_POINT('Origin',(-148.,0.,-198.));
#1306=CARTESIAN_POINT('',(148.,0.,-194.9));
#1307=CARTESIAN_POINT('Origin',(148.,0.,-198.));
#1308=CARTESIAN_POINT('',(148.,0.,201.1));
#1309=CARTESIAN_POINT('Origin',(148.,0.,198.));
#1310=CARTESIAN_POINT('',(-148.,0.,201.1));
#1311=CARTESIAN_POINT('Origin',(-148.,0.,198.));
#1312=CARTESIAN_POINT('',(130.,0.,-3.40000000000001));
#1313=CARTESIAN_POINT('Origin',(130.,0.,1.95943487863576E-14));
#1314=CARTESIAN_POINT('',(-130.,0.,-3.4000000000001));
#1315=CARTESIAN_POINT('Origin',(-130.,0.,1.95943487863576E-14));
#1316=CARTESIAN_POINT('',(130.,0.,168.4));
#1317=CARTESIAN_POINT('Origin',(130.,0.,172.5));
#1318=CARTESIAN_POINT('',(-130.,0.,168.4));
#1319=CARTESIAN_POINT('Origin',(-130.,0.,172.5));
#1320=CARTESIAN_POINT('',(-130.,0.,-176.6));
#1321=CARTESIAN_POINT('Origin',(-130.,0.,-172.5));
#1322=CARTESIAN_POINT('',(130.,0.,-176.6));
#1323=CARTESIAN_POINT('Origin',(130.,0.,-172.5));
#1324=CARTESIAN_POINT('Origin',(-160.,-4.,210.));
#1325=CARTESIAN_POINT('',(91.6457949329284,-4.,210.));
#1326=CARTESIAN_POINT('',(144.,-4.,210.));
#1327=CARTESIAN_POINT('Origin',(-160.,-4.,-210.));
#1328=CARTESIAN_POINT('',(-160.,0.,-186.));
#1329=CARTESIAN_POINT('',(-160.,-4.,-194.));
#1330=CARTESIAN_POINT('Origin',(160.,-4.,-210.));
#1331=CARTESIAN_POINT('',(144.,-4.,-210.));
#1332=CARTESIAN_POINT('',(-144.,-4.,-210.));
#1333=CARTESIAN_POINT('Origin',(-160.,-4.,210.));
#1334=CARTESIAN_POINT('',(-91.6457949329291,0.,210.));
#1335=CARTESIAN_POINT('',(-144.,-4.,210.));
#1336=CARTESIAN_POINT('Origin',(-160.,-4.,-210.));
#1337=CARTESIAN_POINT('',(-160.,-4.,186.));
#1338=CARTESIAN_POINT('',(-160.,-4.,194.));
#1339=CARTESIAN_POINT('Origin',(130.,-4.,-172.5));
#1340=CARTESIAN_POINT('',(130.,-4.,-176.6));
#1341=CARTESIAN_POINT('Origin',(-130.,-4.,-172.5));
#1342=CARTESIAN_POINT('',(-130.,-4.,-176.6));
#1343=CARTESIAN_POINT('Origin',(-130.,-4.,172.5));
#1344=CARTESIAN_POINT('',(-130.,-4.,168.4));
#1345=CARTESIAN_POINT('Origin',(130.,-4.,172.5));
#1346=CARTESIAN_POINT('',(130.,-4.,168.4));
#1347=CARTESIAN_POINT('Origin',(-130.,-4.,1.95943487863576E-14));
#1348=CARTESIAN_POINT('',(-130.,-4.,-3.4000000000001));
#1349=CARTESIAN_POINT('Origin',(130.,-4.,1.95943487863576E-14));
#1350=CARTESIAN_POINT('',(130.,-4.,-3.40000000000001));
#1351=CARTESIAN_POINT('Origin',(144.,-4.,194.));
#1352=CARTESIAN_POINT('Origin',(-144.,-4.,194.));
#1353=CARTESIAN_POINT('Origin',(144.,-4.,-194.));
#1354=CARTESIAN_POINT('Origin',(-144.,-4.,-194.));
#1355=CARTESIAN_POINT('Origin',(-152.,-10.,-182.));
#1356=CARTESIAN_POINT('',(-152.,-4.,-178.));
#1357=CARTESIAN_POINT('',(-152.,-4.,178.));
#1358=CARTESIAN_POINT('Origin',(-84.6862915010153,-10.,204.697350817579));
#1359=CARTESIAN_POINT('',(-83.0294372515229,-4.,204.697350817579));
#1360=CARTESIAN_POINT('',(83.0294372515227,-4.,204.697350817579));
#1361=CARTESIAN_POINT('Origin',(84.686291501015,-10.,204.697350817579));
#1362=CARTESIAN_POINT('',(88.8173678081822,-4.,208.828427124746));
#1363=CARTESIAN_POINT('',(85.8578643762689,-4.,205.868923692833));
#1364=CARTESIAN_POINT('Origin',(-84.6862915010153,-10.,204.697350817579));
#1365=CARTESIAN_POINT('',(-88.8173678081829,0.,208.828427124746));
#1366=CARTESIAN_POINT('',(-85.8578643762691,-4.,205.868923692832));
#1367=CARTESIAN_POINT('Origin',(152.,-10.,-182.));
#1368=CARTESIAN_POINT('',(152.,-4.,-178.));
#1369=CARTESIAN_POINT('',(152.,-4.,178.));
#1370=CARTESIAN_POINT('Origin',(-156.,-10.,178.));
#1371=CARTESIAN_POINT('',(-156.,-4.,182.));
#1372=CARTESIAN_POINT('Origin',(-156.,-10.,186.));
#1373=CARTESIAN_POINT('Origin',(156.,-10.,178.));
#1374=CARTESIAN_POINT('',(156.,-4.,182.));
#1375=CARTESIAN_POINT('Origin',(156.,-4.,186.));
#1376=CARTESIAN_POINT('Origin',(156.,-10.,-178.));
#1377=CARTESIAN_POINT('',(156.,-4.,-182.));
#1378=CARTESIAN_POINT('Origin',(156.,-4.,-186.));
#1379=CARTESIAN_POINT('Origin',(-156.,-10.,-178.));
#1380=CARTESIAN_POINT('',(-156.,-4.,-182.));
#1381=CARTESIAN_POINT('Origin',(-156.,-10.,-186.));
#1382=CARTESIAN_POINT('Origin',(-91.6457949329291,-10.,206.));
#1383=CARTESIAN_POINT('Origin',(-83.0294372515229,-10.,208.697350817579));
#1384=CARTESIAN_POINT('Origin',(91.6457949329284,-10.,206.));
#1385=CARTESIAN_POINT('Origin',(83.0294372515227,-10.,208.697350817579));
#1386=CARTESIAN_POINT('Origin',(-148.,6.,198.));
#1387=CARTESIAN_POINT('',(-148.,6.,201.1));
#1388=CARTESIAN_POINT('Origin',(148.,6.,198.));
#1389=CARTESIAN_POINT('',(148.,6.,201.1));
#1390=CARTESIAN_POINT('Origin',(148.,6.,-198.));
#1391=CARTESIAN_POINT('',(148.,6.,-194.9));
#1392=CARTESIAN_POINT('Origin',(-148.,6.,-198.));
#1393=CARTESIAN_POINT('',(-148.,6.,-194.9));
#1394=UNCERTAINTY_MEASURE_WITH_UNIT(LENGTH_MEASURE(0.01),#1398,
'DISTANCE_ACCURACY_VALUE',
'Maximum model space distance between geometric entities at asserted c
onnectivities');
#1395=UNCERTAINTY_MEASURE_WITH_UNIT(LENGTH_MEASURE(0.01),#1398,
'DISTANCE_ACCURACY_VALUE',
'Maximum model space distance between geometric entities at asserted c
onnectivities');
#1396=(
GEOMETRIC_REPRESENTATION_CONTEXT(3)
GLOBAL_UNCERTAINTY_ASSIGNED_CONTEXT((#1394))
GLOBAL_UNIT_ASSIGNED_CONTEXT((#1398,#1400,#1401))
REPRESENTATION_CONTEXT('','3D')
);
#1397=(
GEOMETRIC_REPRESENTATION_CONTEXT(3)
GLOBAL_UNCERTAINTY_ASSIGNED_CONTEXT((#1395))
GLOBAL_UNIT_ASSIGNED_CONTEXT((#1398,#1400,#1401))
REPRESENTATION_CONTEXT('','3D')
);
#1398=(
LENGTH_UNIT()
NAMED_UNIT(*)
SI_UNIT(.MILLI.,.METRE.)
);
#1399=(
LENGTH_UNIT()
NAMED_UNIT(*)
SI_UNIT($,.METRE.)
);
#1400=(
NAMED_UNIT(*)
PLANE_ANGLE_UNIT()
SI_UNIT($,.RADIAN.)
);
#1401=(
NAMED_UNIT(*)
SI_UNIT($,.STERADIAN.)
SOLID_ANGLE_UNIT()
);
#1402=SHAPE_DEFINITION_REPRESENTATION(#1403,#1404);
#1403=PRODUCT_DEFINITION_SHAPE('',$,#1406);
#1404=SHAPE_REPRESENTATION('',(#822),#1396);
#1405=PRODUCT_DEFINITION_CONTEXT('part definition',#1410,'design');
#1406=PRODUCT_DEFINITION('403_MountPlate_x2_4mm_INOX-rc-1',
'403_MountPlate_x2_4mm_INOX-rc-1 v1',#1407,#1405);
#1407=PRODUCT_DEFINITION_FORMATION('',$,#1412);
#1408=PRODUCT_RELATED_PRODUCT_CATEGORY(
'403_MountPlate_x2_4mm_INOX-rc-1 v1',
'403_MountPlate_x2_4mm_INOX-rc-1 v1',(#1412));
#1409=APPLICATION_PROTOCOL_DEFINITION('international standard',
'automotive_design',2009,#1410);
#1410=APPLICATION_CONTEXT(
'Core Data for Automotive Mechanical Design Process');
#1411=PRODUCT_CONTEXT('part definition',#1410,'mechanical');
#1412=PRODUCT('403_MountPlate_x2_4mm_INOX-rc-1',
'403_MountPlate_x2_4mm_INOX-rc-1 v1',$,(#1411));
#1413=PRESENTATION_STYLE_ASSIGNMENT((#1415));
#1414=PRESENTATION_STYLE_ASSIGNMENT((#1416));
#1415=SURFACE_STYLE_USAGE(.BOTH.,#1417);
#1416=SURFACE_STYLE_USAGE(.BOTH.,#1418);
#1417=SURFACE_SIDE_STYLE('',(#1419));
#1418=SURFACE_SIDE_STYLE('',(#1420));
#1419=SURFACE_STYLE_FILL_AREA(#1421);
#1420=SURFACE_STYLE_FILL_AREA(#1422);
#1421=FILL_AREA_STYLE('Steel - Satin',(#1423));
#1422=FILL_AREA_STYLE('Opaque(255,242,232)',(#1424));
#1423=FILL_AREA_STYLE_COLOUR('Steel - Satin',#1425);
#1424=FILL_AREA_STYLE_COLOUR('Opaque(255,242,232)',#1426);
#1425=COLOUR_RGB('Steel - Satin',0.627450980392157,0.627450980392157,0.627450980392157);
#1426=COLOUR_RGB('Opaque(255,242,232)',1.,0.949019607843137,0.909803921568627);
ENDSEC;
END-ISO-10303-21;
