ISO-10303-21;
HEADER;
/* Generated by software containing ST-Developer
 * from STEP Tools, Inc. (www.steptools.com) 
 */

FILE_DESCRIPTION(
/* description */ (''),
/* implementation_level */ '2;1');

FILE_NAME(
/* name */ 'Coupling-Housing-500-80 v2.step',
/* time_stamp */ '2026-03-14T09:51:34+01:00',
/* author */ (''),
/* organization */ (''),
/* preprocessor_version */ 'ST-DEVELOPER v20.1',
/* originating_system */ 'Autodesk Translation Framework v14.24.0.0',
/* authorisation */ '');

FILE_SCHEMA (('AUTOMOTIVE_DESIGN { 1 0 10303 214 3 1 1 }'));
ENDSEC;

DATA;
#10=MECHANICAL_DESIGN_GEOMETRIC_PRESENTATION_REPRESENTATION('',(#39,#40),
#929);
#11=ITEM_DEFINED_TRANSFORMATION($,$,#566,#611);
#12=ITEM_DEFINED_TRANSFORMATION($,$,#566,#612);
#13=ITEM_DEFINED_TRANSFORMATION($,$,#566,#613);
#14=ITEM_DEFINED_TRANSFORMATION($,$,#566,#614);
#15=ITEM_DEFINED_TRANSFORMATION($,$,#604,#615);
#16=ITEM_DEFINED_TRANSFORMATION($,$,#565,#616);
#17=(
REPRESENTATION_RELATIONSHIP($,$,#950,#949)
REPRESENTATION_RELATIONSHIP_WITH_TRANSFORMATION(#11)
SHAPE_REPRESENTATION_RELATIONSHIP()
);
#18=(
REPRESENTATION_RELATIONSHIP($,$,#950,#949)
REPRESENTATION_RELATIONSHIP_WITH_TRANSFORMATION(#12)
SHAPE_REPRESENTATION_RELATIONSHIP()
);
#19=(
REPRESENTATION_RELATIONSHIP($,$,#950,#949)
REPRESENTATION_RELATIONSHIP_WITH_TRANSFORMATION(#13)
SHAPE_REPRESENTATION_RELATIONSHIP()
);
#20=(
REPRESENTATION_RELATIONSHIP($,$,#950,#949)
REPRESENTATION_RELATIONSHIP_WITH_TRANSFORMATION(#14)
SHAPE_REPRESENTATION_RELATIONSHIP()
);
#21=(
REPRESENTATION_RELATIONSHIP($,$,#951,#949)
REPRESENTATION_RELATIONSHIP_WITH_TRANSFORMATION(#15)
SHAPE_REPRESENTATION_RELATIONSHIP()
);
#22=(
REPRESENTATION_RELATIONSHIP($,$,#949,#948)
REPRESENTATION_RELATIONSHIP_WITH_TRANSFORMATION(#16)
SHAPE_REPRESENTATION_RELATIONSHIP()
);
#23=CONTEXT_DEPENDENT_SHAPE_REPRESENTATION(#17,#942);
#24=CONTEXT_DEPENDENT_SHAPE_REPRESENTATION(#18,#943);
#25=CONTEXT_DEPENDENT_SHAPE_REPRESENTATION(#19,#944);
#26=CONTEXT_DEPENDENT_SHAPE_REPRESENTATION(#20,#945);
#27=CONTEXT_DEPENDENT_SHAPE_REPRESENTATION(#21,#946);
#28=CONTEXT_DEPENDENT_SHAPE_REPRESENTATION(#22,#947);
#29=NEXT_ASSEMBLY_USAGE_OCCURRENCE('CouplingHousing-60w-40l-N23:1',
'CouplingHousing-60w-40l-N23:1','CouplingHousing-60w-40l-N23:1',#954,#955,
'CouplingHousing-60w-40l-N23:1');
#30=NEXT_ASSEMBLY_USAGE_OCCURRENCE('CouplingHousing-60w-40l-N23:2',
'CouplingHousing-60w-40l-N23:2','CouplingHousing-60w-40l-N23:2',#954,#955,
'CouplingHousing-60w-40l-N23:2');
#31=NEXT_ASSEMBLY_USAGE_OCCURRENCE('CouplingHousing-60w-40l-N23:3',
'CouplingHousing-60w-40l-N23:3','CouplingHousing-60w-40l-N23:3',#954,#955,
'CouplingHousing-60w-40l-N23:3');
#32=NEXT_ASSEMBLY_USAGE_OCCURRENCE('CouplingHousing-60w-40l-N23:4',
'CouplingHousing-60w-40l-N23:4','CouplingHousing-60w-40l-N23:4',#954,#955,
'CouplingHousing-60w-40l-N23:4');
#33=NEXT_ASSEMBLY_USAGE_OCCURRENCE('Stock^Nema-23-PX57-Coupling:1',
'Stock^Nema-23-PX57-Coupling:1','Stock^Nema-23-PX57-Coupling:1',#954,#956,
'Stock^Nema-23-PX57-Coupling:1');
#34=NEXT_ASSEMBLY_USAGE_OCCURRENCE('Nema-23-PX57-Coupling v1:1',
'Nema-23-PX57-Coupling v1:1','Nema-23-PX57-Coupling v1:1',#953,#954,
'Nema-23-PX57-Coupling v1:1');
#35=SHAPE_REPRESENTATION_RELATIONSHIP('SRR','None',#950,#37);
#36=SHAPE_REPRESENTATION_RELATIONSHIP('SRR','None',#951,#38);
#37=ADVANCED_BREP_SHAPE_REPRESENTATION('',(#41),#927);
#38=ADVANCED_BREP_SHAPE_REPRESENTATION('',(#42),#928);
#39=STYLED_ITEM('',(#973),#41);
#40=STYLED_ITEM('',(#973),#42);
#41=MANIFOLD_SOLID_BREP('Body1',#539);
#42=MANIFOLD_SOLID_BREP('Body1',#540);
#43=PLANE('',#589);
#44=PLANE('',#590);
#45=PLANE('',#591);
#46=PLANE('',#592);
#47=PLANE('',#593);
#48=PLANE('',#594);
#49=PLANE('',#595);
#50=PLANE('',#596);
#51=PLANE('',#597);
#52=PLANE('',#598);
#53=PLANE('',#599);
#54=PLANE('',#600);
#55=PLANE('',#601);
#56=PLANE('',#602);
#57=PLANE('',#603);
#58=PLANE('',#605);
#59=PLANE('',#606);
#60=PLANE('',#607);
#61=PLANE('',#608);
#62=PLANE('',#609);
#63=PLANE('',#610);
#64=FACE_BOUND('',#111,.T.);
#65=FACE_BOUND('',#112,.T.);
#66=FACE_BOUND('',#115,.T.);
#67=FACE_BOUND('',#118,.T.);
#68=FACE_BOUND('',#121,.T.);
#69=FACE_BOUND('',#122,.T.);
#70=FACE_BOUND('',#123,.T.);
#71=FACE_BOUND('',#124,.T.);
#72=FACE_BOUND('',#125,.T.);
#73=FACE_BOUND('',#127,.T.);
#74=FACE_BOUND('',#128,.T.);
#75=FACE_BOUND('',#129,.T.);
#76=FACE_BOUND('',#130,.T.);
#77=FACE_BOUND('',#131,.T.);
#78=FACE_BOUND('',#133,.T.);
#79=FACE_OUTER_BOUND('',#106,.T.);
#80=FACE_OUTER_BOUND('',#107,.T.);
#81=FACE_OUTER_BOUND('',#108,.T.);
#82=FACE_OUTER_BOUND('',#109,.T.);
#83=FACE_OUTER_BOUND('',#110,.T.);
#84=FACE_OUTER_BOUND('',#113,.T.);
#85=FACE_OUTER_BOUND('',#114,.T.);
#86=FACE_OUTER_BOUND('',#116,.T.);
#87=FACE_OUTER_BOUND('',#117,.T.);
#88=FACE_OUTER_BOUND('',#119,.T.);
#89=FACE_OUTER_BOUND('',#120,.T.);
#90=FACE_OUTER_BOUND('',#126,.T.);
#91=FACE_OUTER_BOUND('',#132,.T.);
#92=FACE_OUTER_BOUND('',#134,.T.);
#93=FACE_OUTER_BOUND('',#135,.T.);
#94=FACE_OUTER_BOUND('',#136,.T.);
#95=FACE_OUTER_BOUND('',#137,.T.);
#96=FACE_OUTER_BOUND('',#138,.T.);
#97=FACE_OUTER_BOUND('',#139,.T.);
#98=FACE_OUTER_BOUND('',#140,.T.);
#99=FACE_OUTER_BOUND('',#141,.T.);
#100=FACE_OUTER_BOUND('',#142,.T.);
#101=FACE_OUTER_BOUND('',#143,.T.);
#102=FACE_OUTER_BOUND('',#144,.T.);
#103=FACE_OUTER_BOUND('',#145,.T.);
#104=FACE_OUTER_BOUND('',#146,.T.);
#105=FACE_OUTER_BOUND('',#147,.T.);
#106=EDGE_LOOP('',(#374,#375,#376,#377));
#107=EDGE_LOOP('',(#378,#379,#380,#381));
#108=EDGE_LOOP('',(#382,#383,#384,#385));
#109=EDGE_LOOP('',(#386,#387,#388,#389));
#110=EDGE_LOOP('',(#390,#391,#392,#393));
#111=EDGE_LOOP('',(#394,#395,#396,#397));
#112=EDGE_LOOP('',(#398,#399,#400,#401));
#113=EDGE_LOOP('',(#402,#403,#404,#405));
#114=EDGE_LOOP('',(#406,#407,#408,#409));
#115=EDGE_LOOP('',(#410,#411,#412,#413));
#116=EDGE_LOOP('',(#414,#415,#416,#417));
#117=EDGE_LOOP('',(#418,#419,#420,#421));
#118=EDGE_LOOP('',(#422,#423,#424,#425));
#119=EDGE_LOOP('',(#426,#427,#428,#429));
#120=EDGE_LOOP('',(#430,#431,#432,#433));
#121=EDGE_LOOP('',(#434));
#122=EDGE_LOOP('',(#435));
#123=EDGE_LOOP('',(#436));
#124=EDGE_LOOP('',(#437));
#125=EDGE_LOOP('',(#438));
#126=EDGE_LOOP('',(#439,#440,#441,#442));
#127=EDGE_LOOP('',(#443));
#128=EDGE_LOOP('',(#444));
#129=EDGE_LOOP('',(#445));
#130=EDGE_LOOP('',(#446));
#131=EDGE_LOOP('',(#447));
#132=EDGE_LOOP('',(#448));
#133=EDGE_LOOP('',(#449));
#134=EDGE_LOOP('',(#450,#451,#452,#453));
#135=EDGE_LOOP('',(#454,#455,#456,#457));
#136=EDGE_LOOP('',(#458,#459,#460,#461));
#137=EDGE_LOOP('',(#462,#463,#464,#465));
#138=EDGE_LOOP('',(#466,#467,#468,#469));
#139=EDGE_LOOP('',(#470,#471,#472,#473));
#140=EDGE_LOOP('',(#474,#475,#476,#477));
#141=EDGE_LOOP('',(#478,#479,#480,#481));
#142=EDGE_LOOP('',(#482,#483,#484,#485));
#143=EDGE_LOOP('',(#486,#487,#488,#489));
#144=EDGE_LOOP('',(#490,#491,#492,#493));
#145=EDGE_LOOP('',(#494,#495,#496,#497));
#146=EDGE_LOOP('',(#498,#499,#500,#501));
#147=EDGE_LOOP('',(#502,#503,#504,#505));
#148=LINE('',#780,#198);
#149=LINE('',#786,#199);
#150=LINE('',#792,#200);
#151=LINE('',#798,#201);
#152=LINE('',#804,#202);
#153=LINE('',#808,#203);
#154=LINE('',#812,#204);
#155=LINE('',#816,#205);
#156=LINE('',#820,#206);
#157=LINE('',#826,#207);
#158=LINE('',#831,#208);
#159=LINE('',#833,#209);
#160=LINE('',#835,#210);
#161=LINE('',#836,#211);
#162=LINE('',#839,#212);
#163=LINE('',#841,#213);
#164=LINE('',#843,#214);
#165=LINE('',#844,#215);
#166=LINE('',#847,#216);
#167=LINE('',#849,#217);
#168=LINE('',#850,#218);
#169=LINE('',#853,#219);
#170=LINE('',#855,#220);
#171=LINE('',#856,#221);
#172=LINE('',#859,#222);
#173=LINE('',#861,#223);
#174=LINE('',#863,#224);
#175=LINE('',#864,#225);
#176=LINE('',#866,#226);
#177=LINE('',#867,#227);
#178=LINE('',#872,#228);
#179=LINE('',#873,#229);
#180=LINE('',#875,#230);
#181=LINE('',#877,#231);
#182=LINE('',#880,#232);
#183=LINE('',#881,#233);
#184=LINE('',#883,#234);
#185=LINE('',#885,#235);
#186=LINE('',#891,#236);
#187=LINE('',#893,#237);
#188=LINE('',#895,#238);
#189=LINE('',#896,#239);
#190=LINE('',#899,#240);
#191=LINE('',#901,#241);
#192=LINE('',#902,#242);
#193=LINE('',#905,#243);
#194=LINE('',#907,#244);
#195=LINE('',#908,#245);
#196=LINE('',#910,#246);
#197=LINE('',#911,#247);
#198=VECTOR('',#627,2.74999999999997);
#199=VECTOR('',#634,2.74999999999997);
#200=VECTOR('',#641,2.74999999999997);
#201=VECTOR('',#648,2.75000000000003);
#202=VECTOR('',#655,20.);
#203=VECTOR('',#658,1000.);
#204=VECTOR('',#661,1000.);
#205=VECTOR('',#664,1000.);
#206=VECTOR('',#667,1000.);
#207=VECTOR('',#674,21.1);
#208=VECTOR('',#679,1000.);
#209=VECTOR('',#680,1000.);
#210=VECTOR('',#681,1000.);
#211=VECTOR('',#682,1000.);
#212=VECTOR('',#683,1000.);
#213=VECTOR('',#684,1000.);
#214=VECTOR('',#685,1000.);
#215=VECTOR('',#686,1000.);
#216=VECTOR('',#689,1000.);
#217=VECTOR('',#690,1000.);
#218=VECTOR('',#691,1000.);
#219=VECTOR('',#694,1000.);
#220=VECTOR('',#695,1000.);
#221=VECTOR('',#696,1000.);
#222=VECTOR('',#697,1000.);
#223=VECTOR('',#698,1000.);
#224=VECTOR('',#699,1000.);
#225=VECTOR('',#700,1000.);
#226=VECTOR('',#703,1000.);
#227=VECTOR('',#704,1000.);
#228=VECTOR('',#713,1000.);
#229=VECTOR('',#714,1000.);
#230=VECTOR('',#717,1000.);
#231=VECTOR('',#720,1000.);
#232=VECTOR('',#725,1000.);
#233=VECTOR('',#726,1000.);
#234=VECTOR('',#729,1000.);
#235=VECTOR('',#732,1000.);
#236=VECTOR('',#739,1000.);
#237=VECTOR('',#740,1000.);
#238=VECTOR('',#741,1000.);
#239=VECTOR('',#742,1000.);
#240=VECTOR('',#745,1000.);
#241=VECTOR('',#746,1000.);
#242=VECTOR('',#747,1000.);
#243=VECTOR('',#750,1000.);
#244=VECTOR('',#751,1000.);
#245=VECTOR('',#752,1000.);
#246=VECTOR('',#755,1000.);
#247=VECTOR('',#756,1000.);
#248=CIRCLE('',#568,2.74999999999997);
#249=CIRCLE('',#569,2.74999999999997);
#250=CIRCLE('',#571,2.74999999999997);
#251=CIRCLE('',#572,2.74999999999997);
#252=CIRCLE('',#574,2.74999999999997);
#253=CIRCLE('',#575,2.74999999999997);
#254=CIRCLE('',#577,2.75000000000003);
#255=CIRCLE('',#578,2.75000000000003);
#256=CIRCLE('',#580,20.);
#257=CIRCLE('',#581,20.);
#258=CIRCLE('',#582,20.);
#259=CIRCLE('',#583,20.);
#260=CIRCLE('',#584,20.);
#261=CIRCLE('',#585,20.);
#262=CIRCLE('',#587,21.1);
#263=CIRCLE('',#588,21.1);
#264=VERTEX_POINT('',#777);
#265=VERTEX_POINT('',#779);
#266=VERTEX_POINT('',#783);
#267=VERTEX_POINT('',#785);
#268=VERTEX_POINT('',#789);
#269=VERTEX_POINT('',#791);
#270=VERTEX_POINT('',#795);
#271=VERTEX_POINT('',#797);
#272=VERTEX_POINT('',#801);
#273=VERTEX_POINT('',#803);
#274=VERTEX_POINT('',#806);
#275=VERTEX_POINT('',#807);
#276=VERTEX_POINT('',#809);
#277=VERTEX_POINT('',#811);
#278=VERTEX_POINT('',#814);
#279=VERTEX_POINT('',#815);
#280=VERTEX_POINT('',#817);
#281=VERTEX_POINT('',#819);
#282=VERTEX_POINT('',#823);
#283=VERTEX_POINT('',#825);
#284=VERTEX_POINT('',#829);
#285=VERTEX_POINT('',#830);
#286=VERTEX_POINT('',#832);
#287=VERTEX_POINT('',#834);
#288=VERTEX_POINT('',#837);
#289=VERTEX_POINT('',#838);
#290=VERTEX_POINT('',#840);
#291=VERTEX_POINT('',#842);
#292=VERTEX_POINT('',#846);
#293=VERTEX_POINT('',#848);
#294=VERTEX_POINT('',#852);
#295=VERTEX_POINT('',#854);
#296=VERTEX_POINT('',#857);
#297=VERTEX_POINT('',#858);
#298=VERTEX_POINT('',#860);
#299=VERTEX_POINT('',#862);
#300=VERTEX_POINT('',#889);
#301=VERTEX_POINT('',#890);
#302=VERTEX_POINT('',#892);
#303=VERTEX_POINT('',#894);
#304=VERTEX_POINT('',#898);
#305=VERTEX_POINT('',#900);
#306=VERTEX_POINT('',#904);
#307=VERTEX_POINT('',#906);
#308=EDGE_CURVE('',#264,#264,#248,.T.);
#309=EDGE_CURVE('',#264,#265,#148,.T.);
#310=EDGE_CURVE('',#265,#265,#249,.T.);
#311=EDGE_CURVE('',#266,#266,#250,.T.);
#312=EDGE_CURVE('',#266,#267,#149,.T.);
#313=EDGE_CURVE('',#267,#267,#251,.T.);
#314=EDGE_CURVE('',#268,#268,#252,.T.);
#315=EDGE_CURVE('',#268,#269,#150,.T.);
#316=EDGE_CURVE('',#269,#269,#253,.T.);
#317=EDGE_CURVE('',#270,#270,#254,.T.);
#318=EDGE_CURVE('',#270,#271,#151,.T.);
#319=EDGE_CURVE('',#271,#271,#255,.T.);
#320=EDGE_CURVE('',#272,#272,#256,.T.);
#321=EDGE_CURVE('',#272,#273,#152,.T.);
#322=EDGE_CURVE('',#273,#273,#257,.T.);
#323=EDGE_CURVE('',#274,#275,#153,.T.);
#324=EDGE_CURVE('',#275,#276,#258,.T.);
#325=EDGE_CURVE('',#276,#277,#154,.T.);
#326=EDGE_CURVE('',#277,#274,#259,.T.);
#327=EDGE_CURVE('',#278,#279,#155,.T.);
#328=EDGE_CURVE('',#279,#280,#260,.T.);
#329=EDGE_CURVE('',#280,#281,#156,.T.);
#330=EDGE_CURVE('',#281,#278,#261,.T.);
#331=EDGE_CURVE('',#282,#282,#262,.T.);
#332=EDGE_CURVE('',#282,#283,#157,.T.);
#333=EDGE_CURVE('',#283,#283,#263,.T.);
#334=EDGE_CURVE('',#284,#285,#158,.T.);
#335=EDGE_CURVE('',#286,#284,#159,.T.);
#336=EDGE_CURVE('',#286,#287,#160,.T.);
#337=EDGE_CURVE('',#287,#285,#161,.T.);
#338=EDGE_CURVE('',#288,#289,#162,.T.);
#339=EDGE_CURVE('',#290,#288,#163,.T.);
#340=EDGE_CURVE('',#291,#290,#164,.T.);
#341=EDGE_CURVE('',#289,#291,#165,.T.);
#342=EDGE_CURVE('',#292,#284,#166,.T.);
#343=EDGE_CURVE('',#293,#292,#167,.T.);
#344=EDGE_CURVE('',#293,#286,#168,.T.);
#345=EDGE_CURVE('',#294,#292,#169,.T.);
#346=EDGE_CURVE('',#295,#294,#170,.T.);
#347=EDGE_CURVE('',#295,#293,#171,.T.);
#348=EDGE_CURVE('',#296,#297,#172,.T.);
#349=EDGE_CURVE('',#298,#296,#173,.T.);
#350=EDGE_CURVE('',#299,#298,#174,.T.);
#351=EDGE_CURVE('',#297,#299,#175,.T.);
#352=EDGE_CURVE('',#285,#294,#176,.T.);
#353=EDGE_CURVE('',#287,#295,#177,.T.);
#354=EDGE_CURVE('',#275,#296,#178,.T.);
#355=EDGE_CURVE('',#276,#297,#179,.T.);
#356=EDGE_CURVE('',#274,#298,#180,.T.);
#357=EDGE_CURVE('',#277,#299,#181,.T.);
#358=EDGE_CURVE('',#279,#288,#182,.T.);
#359=EDGE_CURVE('',#280,#289,#183,.T.);
#360=EDGE_CURVE('',#278,#290,#184,.T.);
#361=EDGE_CURVE('',#281,#291,#185,.T.);
#362=EDGE_CURVE('',#300,#301,#186,.T.);
#363=EDGE_CURVE('',#302,#300,#187,.T.);
#364=EDGE_CURVE('',#302,#303,#188,.T.);
#365=EDGE_CURVE('',#303,#301,#189,.T.);
#366=EDGE_CURVE('',#304,#300,#190,.T.);
#367=EDGE_CURVE('',#305,#304,#191,.T.);
#368=EDGE_CURVE('',#305,#302,#192,.T.);
#369=EDGE_CURVE('',#306,#304,#193,.T.);
#370=EDGE_CURVE('',#307,#306,#194,.T.);
#371=EDGE_CURVE('',#307,#305,#195,.T.);
#372=EDGE_CURVE('',#301,#306,#196,.T.);
#373=EDGE_CURVE('',#303,#307,#197,.T.);
#374=ORIENTED_EDGE('',*,*,#308,.T.);
#375=ORIENTED_EDGE('',*,*,#309,.T.);
#376=ORIENTED_EDGE('',*,*,#310,.F.);
#377=ORIENTED_EDGE('',*,*,#309,.F.);
#378=ORIENTED_EDGE('',*,*,#311,.T.);
#379=ORIENTED_EDGE('',*,*,#312,.T.);
#380=ORIENTED_EDGE('',*,*,#313,.F.);
#381=ORIENTED_EDGE('',*,*,#312,.F.);
#382=ORIENTED_EDGE('',*,*,#314,.T.);
#383=ORIENTED_EDGE('',*,*,#315,.T.);
#384=ORIENTED_EDGE('',*,*,#316,.F.);
#385=ORIENTED_EDGE('',*,*,#315,.F.);
#386=ORIENTED_EDGE('',*,*,#317,.T.);
#387=ORIENTED_EDGE('',*,*,#318,.T.);
#388=ORIENTED_EDGE('',*,*,#319,.F.);
#389=ORIENTED_EDGE('',*,*,#318,.F.);
#390=ORIENTED_EDGE('',*,*,#320,.T.);
#391=ORIENTED_EDGE('',*,*,#321,.T.);
#392=ORIENTED_EDGE('',*,*,#322,.T.);
#393=ORIENTED_EDGE('',*,*,#321,.F.);
#394=ORIENTED_EDGE('',*,*,#323,.T.);
#395=ORIENTED_EDGE('',*,*,#324,.T.);
#396=ORIENTED_EDGE('',*,*,#325,.T.);
#397=ORIENTED_EDGE('',*,*,#326,.T.);
#398=ORIENTED_EDGE('',*,*,#327,.T.);
#399=ORIENTED_EDGE('',*,*,#328,.T.);
#400=ORIENTED_EDGE('',*,*,#329,.T.);
#401=ORIENTED_EDGE('',*,*,#330,.T.);
#402=ORIENTED_EDGE('',*,*,#331,.F.);
#403=ORIENTED_EDGE('',*,*,#332,.T.);
#404=ORIENTED_EDGE('',*,*,#333,.T.);
#405=ORIENTED_EDGE('',*,*,#332,.F.);
#406=ORIENTED_EDGE('',*,*,#334,.F.);
#407=ORIENTED_EDGE('',*,*,#335,.F.);
#408=ORIENTED_EDGE('',*,*,#336,.T.);
#409=ORIENTED_EDGE('',*,*,#337,.T.);
#410=ORIENTED_EDGE('',*,*,#338,.F.);
#411=ORIENTED_EDGE('',*,*,#339,.F.);
#412=ORIENTED_EDGE('',*,*,#340,.F.);
#413=ORIENTED_EDGE('',*,*,#341,.F.);
#414=ORIENTED_EDGE('',*,*,#342,.F.);
#415=ORIENTED_EDGE('',*,*,#343,.F.);
#416=ORIENTED_EDGE('',*,*,#344,.T.);
#417=ORIENTED_EDGE('',*,*,#335,.T.);
#418=ORIENTED_EDGE('',*,*,#345,.F.);
#419=ORIENTED_EDGE('',*,*,#346,.F.);
#420=ORIENTED_EDGE('',*,*,#347,.T.);
#421=ORIENTED_EDGE('',*,*,#343,.T.);
#422=ORIENTED_EDGE('',*,*,#348,.F.);
#423=ORIENTED_EDGE('',*,*,#349,.F.);
#424=ORIENTED_EDGE('',*,*,#350,.F.);
#425=ORIENTED_EDGE('',*,*,#351,.F.);
#426=ORIENTED_EDGE('',*,*,#352,.F.);
#427=ORIENTED_EDGE('',*,*,#337,.F.);
#428=ORIENTED_EDGE('',*,*,#353,.T.);
#429=ORIENTED_EDGE('',*,*,#346,.T.);
#430=ORIENTED_EDGE('',*,*,#336,.F.);
#431=ORIENTED_EDGE('',*,*,#344,.F.);
#432=ORIENTED_EDGE('',*,*,#347,.F.);
#433=ORIENTED_EDGE('',*,*,#353,.F.);
#434=ORIENTED_EDGE('',*,*,#308,.F.);
#435=ORIENTED_EDGE('',*,*,#311,.F.);
#436=ORIENTED_EDGE('',*,*,#314,.F.);
#437=ORIENTED_EDGE('',*,*,#317,.F.);
#438=ORIENTED_EDGE('',*,*,#333,.F.);
#439=ORIENTED_EDGE('',*,*,#334,.T.);
#440=ORIENTED_EDGE('',*,*,#352,.T.);
#441=ORIENTED_EDGE('',*,*,#345,.T.);
#442=ORIENTED_EDGE('',*,*,#342,.T.);
#443=ORIENTED_EDGE('',*,*,#310,.T.);
#444=ORIENTED_EDGE('',*,*,#313,.T.);
#445=ORIENTED_EDGE('',*,*,#316,.T.);
#446=ORIENTED_EDGE('',*,*,#319,.T.);
#447=ORIENTED_EDGE('',*,*,#322,.F.);
#448=ORIENTED_EDGE('',*,*,#331,.T.);
#449=ORIENTED_EDGE('',*,*,#320,.F.);
#450=ORIENTED_EDGE('',*,*,#354,.T.);
#451=ORIENTED_EDGE('',*,*,#348,.T.);
#452=ORIENTED_EDGE('',*,*,#355,.F.);
#453=ORIENTED_EDGE('',*,*,#324,.F.);
#454=ORIENTED_EDGE('',*,*,#356,.T.);
#455=ORIENTED_EDGE('',*,*,#349,.T.);
#456=ORIENTED_EDGE('',*,*,#354,.F.);
#457=ORIENTED_EDGE('',*,*,#323,.F.);
#458=ORIENTED_EDGE('',*,*,#357,.T.);
#459=ORIENTED_EDGE('',*,*,#350,.T.);
#460=ORIENTED_EDGE('',*,*,#356,.F.);
#461=ORIENTED_EDGE('',*,*,#326,.F.);
#462=ORIENTED_EDGE('',*,*,#355,.T.);
#463=ORIENTED_EDGE('',*,*,#351,.T.);
#464=ORIENTED_EDGE('',*,*,#357,.F.);
#465=ORIENTED_EDGE('',*,*,#325,.F.);
#466=ORIENTED_EDGE('',*,*,#358,.T.);
#467=ORIENTED_EDGE('',*,*,#338,.T.);
#468=ORIENTED_EDGE('',*,*,#359,.F.);
#469=ORIENTED_EDGE('',*,*,#328,.F.);
#470=ORIENTED_EDGE('',*,*,#360,.T.);
#471=ORIENTED_EDGE('',*,*,#339,.T.);
#472=ORIENTED_EDGE('',*,*,#358,.F.);
#473=ORIENTED_EDGE('',*,*,#327,.F.);
#474=ORIENTED_EDGE('',*,*,#361,.T.);
#475=ORIENTED_EDGE('',*,*,#340,.T.);
#476=ORIENTED_EDGE('',*,*,#360,.F.);
#477=ORIENTED_EDGE('',*,*,#330,.F.);
#478=ORIENTED_EDGE('',*,*,#359,.T.);
#479=ORIENTED_EDGE('',*,*,#341,.T.);
#480=ORIENTED_EDGE('',*,*,#361,.F.);
#481=ORIENTED_EDGE('',*,*,#329,.F.);
#482=ORIENTED_EDGE('',*,*,#362,.F.);
#483=ORIENTED_EDGE('',*,*,#363,.F.);
#484=ORIENTED_EDGE('',*,*,#364,.T.);
#485=ORIENTED_EDGE('',*,*,#365,.T.);
#486=ORIENTED_EDGE('',*,*,#366,.F.);
#487=ORIENTED_EDGE('',*,*,#367,.F.);
#488=ORIENTED_EDGE('',*,*,#368,.T.);
#489=ORIENTED_EDGE('',*,*,#363,.T.);
#490=ORIENTED_EDGE('',*,*,#369,.F.);
#491=ORIENTED_EDGE('',*,*,#370,.F.);
#492=ORIENTED_EDGE('',*,*,#371,.T.);
#493=ORIENTED_EDGE('',*,*,#367,.T.);
#494=ORIENTED_EDGE('',*,*,#372,.F.);
#495=ORIENTED_EDGE('',*,*,#365,.F.);
#496=ORIENTED_EDGE('',*,*,#373,.T.);
#497=ORIENTED_EDGE('',*,*,#370,.T.);
#498=ORIENTED_EDGE('',*,*,#364,.F.);
#499=ORIENTED_EDGE('',*,*,#368,.F.);
#500=ORIENTED_EDGE('',*,*,#371,.F.);
#501=ORIENTED_EDGE('',*,*,#373,.F.);
#502=ORIENTED_EDGE('',*,*,#362,.T.);
#503=ORIENTED_EDGE('',*,*,#372,.T.);
#504=ORIENTED_EDGE('',*,*,#369,.T.);
#505=ORIENTED_EDGE('',*,*,#366,.T.);
#506=CYLINDRICAL_SURFACE('',#567,2.74999999999997);
#507=CYLINDRICAL_SURFACE('',#570,2.74999999999997);
#508=CYLINDRICAL_SURFACE('',#573,2.74999999999997);
#509=CYLINDRICAL_SURFACE('',#576,2.75000000000003);
#510=CYLINDRICAL_SURFACE('',#579,20.);
#511=CYLINDRICAL_SURFACE('',#586,21.1);
#512=ADVANCED_FACE('',(#79),#506,.F.);
#513=ADVANCED_FACE('',(#80),#507,.F.);
#514=ADVANCED_FACE('',(#81),#508,.F.);
#515=ADVANCED_FACE('',(#82),#509,.F.);
#516=ADVANCED_FACE('',(#83,#64,#65),#510,.F.);
#517=ADVANCED_FACE('',(#84),#511,.F.);
#518=ADVANCED_FACE('',(#85,#66),#43,.T.);
#519=ADVANCED_FACE('',(#86),#44,.T.);
#520=ADVANCED_FACE('',(#87,#67),#45,.T.);
#521=ADVANCED_FACE('',(#88),#46,.T.);
#522=ADVANCED_FACE('',(#89,#68,#69,#70,#71,#72),#47,.F.);
#523=ADVANCED_FACE('',(#90,#73,#74,#75,#76,#77),#48,.T.);
#524=ADVANCED_FACE('',(#91,#78),#49,.T.);
#525=ADVANCED_FACE('',(#92),#50,.F.);
#526=ADVANCED_FACE('',(#93),#51,.F.);
#527=ADVANCED_FACE('',(#94),#52,.F.);
#528=ADVANCED_FACE('',(#95),#53,.F.);
#529=ADVANCED_FACE('',(#96),#54,.F.);
#530=ADVANCED_FACE('',(#97),#55,.F.);
#531=ADVANCED_FACE('',(#98),#56,.F.);
#532=ADVANCED_FACE('',(#99),#57,.F.);
#533=ADVANCED_FACE('',(#100),#58,.T.);
#534=ADVANCED_FACE('',(#101),#59,.T.);
#535=ADVANCED_FACE('',(#102),#60,.T.);
#536=ADVANCED_FACE('',(#103),#61,.T.);
#537=ADVANCED_FACE('',(#104),#62,.F.);
#538=ADVANCED_FACE('',(#105),#63,.T.);
#539=CLOSED_SHELL('',(#512,#513,#514,#515,#516,#517,#518,#519,#520,#521,
#522,#523,#524,#525,#526,#527,#528,#529,#530,#531,#532));
#540=CLOSED_SHELL('',(#533,#534,#535,#536,#537,#538));
#541=DERIVED_UNIT_ELEMENT(#545,1.);
#542=DERIVED_UNIT_ELEMENT(#931,-3.);
#543=DERIVED_UNIT_ELEMENT(#545,1.);
#544=DERIVED_UNIT_ELEMENT(#931,-3.);
#545=(
MASS_UNIT()
NAMED_UNIT(*)
SI_UNIT(.KILO.,.GRAM.)
);
#546=DERIVED_UNIT((#541,#542));
#547=DERIVED_UNIT((#543,#544));
#548=MEASURE_REPRESENTATION_ITEM('density measure',
POSITIVE_RATIO_MEASURE(7850.),#546);
#549=MEASURE_REPRESENTATION_ITEM('density measure',
POSITIVE_RATIO_MEASURE(7850.),#547);
#550=PROPERTY_DEFINITION_REPRESENTATION(#560,#554);
#551=PROPERTY_DEFINITION_REPRESENTATION(#561,#555);
#552=PROPERTY_DEFINITION_REPRESENTATION(#562,#556);
#553=PROPERTY_DEFINITION_REPRESENTATION(#563,#557);
#554=REPRESENTATION('material name',(#558),#927);
#555=REPRESENTATION('density',(#548),#927);
#556=REPRESENTATION('material name',(#559),#928);
#557=REPRESENTATION('density',(#549),#928);
#558=DESCRIPTIVE_REPRESENTATION_ITEM('Steel','Steel');
#559=DESCRIPTIVE_REPRESENTATION_ITEM('Steel','Steel');
#560=PROPERTY_DEFINITION('material property','material name',#955);
#561=PROPERTY_DEFINITION('material property','density of part',#955);
#562=PROPERTY_DEFINITION('material property','material name',#956);
#563=PROPERTY_DEFINITION('material property','density of part',#956);
#564=AXIS2_PLACEMENT_3D('',#773,#617,#618);
#565=AXIS2_PLACEMENT_3D('',#774,#619,#620);
#566=AXIS2_PLACEMENT_3D('',#775,#621,#622);
#567=AXIS2_PLACEMENT_3D('',#776,#623,#624);
#568=AXIS2_PLACEMENT_3D('',#778,#625,#626);
#569=AXIS2_PLACEMENT_3D('',#781,#628,#629);
#570=AXIS2_PLACEMENT_3D('',#782,#630,#631);
#571=AXIS2_PLACEMENT_3D('',#784,#632,#633);
#572=AXIS2_PLACEMENT_3D('',#787,#635,#636);
#573=AXIS2_PLACEMENT_3D('',#788,#637,#638);
#574=AXIS2_PLACEMENT_3D('',#790,#639,#640);
#575=AXIS2_PLACEMENT_3D('',#793,#642,#643);
#576=AXIS2_PLACEMENT_3D('',#794,#644,#645);
#577=AXIS2_PLACEMENT_3D('',#796,#646,#647);
#578=AXIS2_PLACEMENT_3D('',#799,#649,#650);
#579=AXIS2_PLACEMENT_3D('',#800,#651,#652);
#580=AXIS2_PLACEMENT_3D('',#802,#653,#654);
#581=AXIS2_PLACEMENT_3D('',#805,#656,#657);
#582=AXIS2_PLACEMENT_3D('',#810,#659,#660);
#583=AXIS2_PLACEMENT_3D('',#813,#662,#663);
#584=AXIS2_PLACEMENT_3D('',#818,#665,#666);
#585=AXIS2_PLACEMENT_3D('',#821,#668,#669);
#586=AXIS2_PLACEMENT_3D('',#822,#670,#671);
#587=AXIS2_PLACEMENT_3D('',#824,#672,#673);
#588=AXIS2_PLACEMENT_3D('',#827,#675,#676);
#589=AXIS2_PLACEMENT_3D('',#828,#677,#678);
#590=AXIS2_PLACEMENT_3D('',#845,#687,#688);
#591=AXIS2_PLACEMENT_3D('',#851,#692,#693);
#592=AXIS2_PLACEMENT_3D('',#865,#701,#702);
#593=AXIS2_PLACEMENT_3D('',#868,#705,#706);
#594=AXIS2_PLACEMENT_3D('',#869,#707,#708);
#595=AXIS2_PLACEMENT_3D('',#870,#709,#710);
#596=AXIS2_PLACEMENT_3D('',#871,#711,#712);
#597=AXIS2_PLACEMENT_3D('',#874,#715,#716);
#598=AXIS2_PLACEMENT_3D('',#876,#718,#719);
#599=AXIS2_PLACEMENT_3D('',#878,#721,#722);
#600=AXIS2_PLACEMENT_3D('',#879,#723,#724);
#601=AXIS2_PLACEMENT_3D('',#882,#727,#728);
#602=AXIS2_PLACEMENT_3D('',#884,#730,#731);
#603=AXIS2_PLACEMENT_3D('',#886,#733,#734);
#604=AXIS2_PLACEMENT_3D('',#887,#735,#736);
#605=AXIS2_PLACEMENT_3D('',#888,#737,#738);
#606=AXIS2_PLACEMENT_3D('',#897,#743,#744);
#607=AXIS2_PLACEMENT_3D('',#903,#748,#749);
#608=AXIS2_PLACEMENT_3D('',#909,#753,#754);
#609=AXIS2_PLACEMENT_3D('',#912,#757,#758);
#610=AXIS2_PLACEMENT_3D('',#913,#759,#760);
#611=AXIS2_PLACEMENT_3D('',#914,#761,#762);
#612=AXIS2_PLACEMENT_3D('',#915,#763,#764);
#613=AXIS2_PLACEMENT_3D('',#916,#765,#766);
#614=AXIS2_PLACEMENT_3D('',#917,#767,#768);
#615=AXIS2_PLACEMENT_3D('',#918,#769,#770);
#616=AXIS2_PLACEMENT_3D('',#919,#771,#772);
#617=DIRECTION('axis',(0.,0.,1.));
#618=DIRECTION('refdir',(1.,0.,0.));
#619=DIRECTION('axis',(0.,0.,1.));
#620=DIRECTION('refdir',(1.,0.,0.));
#621=DIRECTION('axis',(0.,0.,1.));
#622=DIRECTION('refdir',(1.,0.,0.));
#623=DIRECTION('center_axis',(0.,0.,-1.));
#624=DIRECTION('ref_axis',(-1.,0.,0.));
#625=DIRECTION('center_axis',(0.,0.,1.));
#626=DIRECTION('ref_axis',(-1.,0.,0.));
#627=DIRECTION('',(0.,0.,-1.));
#628=DIRECTION('center_axis',(0.,0.,1.));
#629=DIRECTION('ref_axis',(1.,0.,0.));
#630=DIRECTION('center_axis',(0.,0.,-1.));
#631=DIRECTION('ref_axis',(-1.,0.,0.));
#632=DIRECTION('center_axis',(0.,0.,1.));
#633=DIRECTION('ref_axis',(-1.,0.,0.));
#634=DIRECTION('',(0.,0.,-1.));
#635=DIRECTION('center_axis',(0.,0.,1.));
#636=DIRECTION('ref_axis',(1.,0.,0.));
#637=DIRECTION('center_axis',(0.,0.,-1.));
#638=DIRECTION('ref_axis',(-1.,0.,0.));
#639=DIRECTION('center_axis',(0.,0.,1.));
#640=DIRECTION('ref_axis',(-1.,0.,0.));
#641=DIRECTION('',(0.,0.,-1.));
#642=DIRECTION('center_axis',(0.,0.,1.));
#643=DIRECTION('ref_axis',(1.,0.,0.));
#644=DIRECTION('center_axis',(0.,0.,-1.));
#645=DIRECTION('ref_axis',(-1.,0.,0.));
#646=DIRECTION('center_axis',(0.,0.,1.));
#647=DIRECTION('ref_axis',(-1.,0.,0.));
#648=DIRECTION('',(0.,0.,-1.));
#649=DIRECTION('center_axis',(0.,0.,1.));
#650=DIRECTION('ref_axis',(1.,0.,0.));
#651=DIRECTION('center_axis',(0.,0.,-1.));
#652=DIRECTION('ref_axis',(-1.,0.,0.));
#653=DIRECTION('center_axis',(0.,0.,1.));
#654=DIRECTION('ref_axis',(1.,0.,0.));
#655=DIRECTION('',(0.,0.,-1.));
#656=DIRECTION('center_axis',(0.,0.,-1.));
#657=DIRECTION('ref_axis',(-1.,0.,0.));
#658=DIRECTION('',(0.,0.,-1.));
#659=DIRECTION('center_axis',(0.,1.15648231731787E-16,1.));
#660=DIRECTION('ref_axis',(2.77555756156289E-15,1.,-1.15648231731787E-16));
#661=DIRECTION('',(0.,0.,1.));
#662=DIRECTION('center_axis',(0.,0.,-1.));
#663=DIRECTION('ref_axis',(1.,-2.77555756156289E-15,0.));
#664=DIRECTION('',(0.,0.,-1.));
#665=DIRECTION('center_axis',(0.,-1.15648231731787E-16,1.));
#666=DIRECTION('ref_axis',(-2.77555756156289E-15,1.,1.15648231731787E-16));
#667=DIRECTION('',(0.,0.,1.));
#668=DIRECTION('center_axis',(0.,0.,-1.));
#669=DIRECTION('ref_axis',(1.,0.,0.));
#670=DIRECTION('center_axis',(0.,0.,1.));
#671=DIRECTION('ref_axis',(1.,0.,0.));
#672=DIRECTION('center_axis',(0.,0.,1.));
#673=DIRECTION('ref_axis',(1.,0.,0.));
#674=DIRECTION('',(0.,0.,1.));
#675=DIRECTION('center_axis',(0.,0.,1.));
#676=DIRECTION('ref_axis',(1.,0.,0.));
#677=DIRECTION('center_axis',(-1.,0.,0.));
#678=DIRECTION('ref_axis',(0.,0.,1.));
#679=DIRECTION('',(0.,1.,0.));
#680=DIRECTION('',(0.,0.,-1.));
#681=DIRECTION('',(0.,1.,0.));
#682=DIRECTION('',(0.,0.,-1.));
#683=DIRECTION('',(0.,-1.,-1.15648231731787E-16));
#684=DIRECTION('',(0.,0.,-1.));
#685=DIRECTION('',(0.,1.,0.));
#686=DIRECTION('',(0.,0.,1.));
#687=DIRECTION('center_axis',(-4.82705662880502E-16,-1.,0.));
#688=DIRECTION('ref_axis',(1.,-4.82705662880502E-16,0.));
#689=DIRECTION('',(-1.,4.82705662880503E-16,0.));
#690=DIRECTION('',(0.,0.,-1.));
#691=DIRECTION('',(-1.,4.82705662880503E-16,0.));
#692=DIRECTION('center_axis',(1.,0.,0.));
#693=DIRECTION('ref_axis',(0.,0.,-1.));
#694=DIRECTION('',(0.,-1.,0.));
#695=DIRECTION('',(0.,0.,-1.));
#696=DIRECTION('',(0.,-1.,0.));
#697=DIRECTION('',(0.,1.,-1.15648231731787E-16));
#698=DIRECTION('',(0.,0.,-1.));
#699=DIRECTION('',(0.,-1.,0.));
#700=DIRECTION('',(0.,0.,1.));
#701=DIRECTION('center_axis',(0.,1.,0.));
#702=DIRECTION('ref_axis',(0.,0.,1.));
#703=DIRECTION('',(1.,0.,0.));
#704=DIRECTION('',(1.,0.,0.));
#705=DIRECTION('center_axis',(0.,0.,-1.));
#706=DIRECTION('ref_axis',(-1.,0.,0.));
#707=DIRECTION('center_axis',(0.,0.,-1.));
#708=DIRECTION('ref_axis',(-1.,0.,0.));
#709=DIRECTION('center_axis',(0.,0.,1.));
#710=DIRECTION('ref_axis',(1.,0.,0.));
#711=DIRECTION('center_axis',(0.,-1.15648231731787E-16,-1.));
#712=DIRECTION('ref_axis',(0.,1.,-1.15648231731787E-16));
#713=DIRECTION('',(1.,0.,0.));
#714=DIRECTION('',(1.,0.,0.));
#715=DIRECTION('center_axis',(0.,-1.,0.));
#716=DIRECTION('ref_axis',(0.,0.,-1.));
#717=DIRECTION('',(1.,0.,0.));
#718=DIRECTION('center_axis',(0.,0.,1.));
#719=DIRECTION('ref_axis',(1.,0.,0.));
#720=DIRECTION('',(1.,0.,0.));
#721=DIRECTION('center_axis',(0.,1.,0.));
#722=DIRECTION('ref_axis',(0.,0.,1.));
#723=DIRECTION('center_axis',(0.,1.15648231731787E-16,-1.));
#724=DIRECTION('ref_axis',(0.,1.,1.15648231731787E-16));
#725=DIRECTION('',(-1.,0.,0.));
#726=DIRECTION('',(-1.,0.,0.));
#727=DIRECTION('center_axis',(0.,1.,0.));
#728=DIRECTION('ref_axis',(0.,0.,1.));
#729=DIRECTION('',(-1.,0.,0.));
#730=DIRECTION('center_axis',(0.,0.,1.));
#731=DIRECTION('ref_axis',(1.,0.,0.));
#732=DIRECTION('',(-1.,0.,0.));
#733=DIRECTION('center_axis',(0.,-1.,0.));
#734=DIRECTION('ref_axis',(0.,0.,-1.));
#735=DIRECTION('axis',(0.,0.,1.));
#736=DIRECTION('refdir',(1.,0.,0.));
#737=DIRECTION('center_axis',(1.,1.80392882254961E-16,0.));
#738=DIRECTION('ref_axis',(-1.80392882254961E-16,1.,0.));
#739=DIRECTION('',(-1.80392882254961E-16,1.,0.));
#740=DIRECTION('',(0.,0.,1.));
#741=DIRECTION('',(-1.80392882254961E-16,1.,0.));
#742=DIRECTION('',(0.,0.,1.));
#743=DIRECTION('center_axis',(0.,-1.,0.));
#744=DIRECTION('ref_axis',(0.,0.,-1.));
#745=DIRECTION('',(1.,0.,0.));
#746=DIRECTION('',(0.,0.,1.));
#747=DIRECTION('',(1.,0.,0.));
#748=DIRECTION('center_axis',(-1.,-1.80392882254961E-16,0.));
#749=DIRECTION('ref_axis',(1.80392882254961E-16,-1.,0.));
#750=DIRECTION('',(1.80392882254961E-16,-1.,0.));
#751=DIRECTION('',(0.,0.,1.));
#752=DIRECTION('',(1.80392882254961E-16,-1.,0.));
#753=DIRECTION('center_axis',(0.,1.,0.));
#754=DIRECTION('ref_axis',(0.,0.,1.));
#755=DIRECTION('',(-1.,0.,0.));
#756=DIRECTION('',(-1.,0.,0.));
#757=DIRECTION('center_axis',(0.,0.,1.));
#758=DIRECTION('ref_axis',(1.,0.,0.));
#759=DIRECTION('center_axis',(0.,0.,1.));
#760=DIRECTION('ref_axis',(1.,0.,0.));
#761=DIRECTION('',(0.,1.,0.));
#762=DIRECTION('',(-1.,0.,1.21430643318376E-16));
#763=DIRECTION('',(0.,1.,0.));
#764=DIRECTION('',(-1.,0.,1.21430643318376E-16));
#765=DIRECTION('',(0.,1.,0.));
#766=DIRECTION('',(-1.,0.,1.21430643318376E-16));
#767=DIRECTION('',(0.,1.,0.));
#768=DIRECTION('',(-1.,0.,1.21430643318376E-16));
#769=DIRECTION('',(0.,-1.,4.6513887471585E-17));
#770=DIRECTION('',(1.,-4.30800250092512E-34,-9.26175543499101E-18));
#771=DIRECTION('',(2.22044604925031E-16,-1.,-3.05311331771918E-16));
#772=DIRECTION('',(-6.77927340424307E-32,-1.80411241501588E-16,1.));
#773=CARTESIAN_POINT('',(0.,0.,0.));
#774=CARTESIAN_POINT('',(0.,0.,0.));
#775=CARTESIAN_POINT('',(0.,0.,0.));
#776=CARTESIAN_POINT('Origin',(-342.104600328338,171.080789289515,200.));
#777=CARTESIAN_POINT('',(-339.354600328338,171.080789289515,60.));
#778=CARTESIAN_POINT('Origin',(-342.104600328338,171.080789289515,60.));
#779=CARTESIAN_POINT('',(-339.354600328338,171.080789289515,0.));
#780=CARTESIAN_POINT('',(-339.354600328338,171.080789289515,200.));
#781=CARTESIAN_POINT('Origin',(-342.104600328338,171.080789289515,0.));
#782=CARTESIAN_POINT('Origin',(-295.104600328338,218.080789289515,200.));
#783=CARTESIAN_POINT('',(-292.354600328338,218.080789289515,60.));
#784=CARTESIAN_POINT('Origin',(-295.104600328338,218.080789289515,60.));
#785=CARTESIAN_POINT('',(-292.354600328338,218.080789289515,0.));
#786=CARTESIAN_POINT('',(-292.354600328338,218.080789289515,200.));
#787=CARTESIAN_POINT('Origin',(-295.104600328338,218.080789289515,0.));
#788=CARTESIAN_POINT('Origin',(-342.104600328338,218.080789289515,200.));
#789=CARTESIAN_POINT('',(-339.354600328338,218.080789289515,60.));
#790=CARTESIAN_POINT('Origin',(-342.104600328338,218.080789289515,60.));
#791=CARTESIAN_POINT('',(-339.354600328338,218.080789289515,0.));
#792=CARTESIAN_POINT('',(-339.354600328338,218.080789289515,200.));
#793=CARTESIAN_POINT('Origin',(-342.104600328338,218.080789289515,0.));
#794=CARTESIAN_POINT('Origin',(-295.104600328338,171.080789289516,200.));
#795=CARTESIAN_POINT('',(-292.354600328338,171.080789289516,60.));
#796=CARTESIAN_POINT('Origin',(-295.104600328338,171.080789289516,60.));
#797=CARTESIAN_POINT('',(-292.354600328338,171.080789289516,0.));
#798=CARTESIAN_POINT('',(-292.354600328338,171.080789289516,200.));
#799=CARTESIAN_POINT('Origin',(-295.104600328338,171.080789289516,0.));
#800=CARTESIAN_POINT('Origin',(-318.604600328338,194.580789289516,100.));
#801=CARTESIAN_POINT('',(-298.604600328338,194.580789289516,56.));
#802=CARTESIAN_POINT('Origin',(-318.604600328338,194.580789289516,56.));
#803=CARTESIAN_POINT('',(-298.604600328338,194.580789289516,0.));
#804=CARTESIAN_POINT('',(-298.604600328338,194.580789289516,100.));
#805=CARTESIAN_POINT('Origin',(-318.604600328338,194.580789289516,0.));
#806=CARTESIAN_POINT('',(-298.870429456472,197.830789289516,48.594651422564));
#807=CARTESIAN_POINT('',(-298.870429456472,197.830789289516,11.405348577436));
#808=CARTESIAN_POINT('',(-298.870429456472,197.830789289516,100.));
#809=CARTESIAN_POINT('',(-310.423066242361,212.830789289516,11.405348577436));
#810=CARTESIAN_POINT('Origin',(-318.604600328338,194.580789289516,11.405348577436));
#811=CARTESIAN_POINT('',(-310.423066242361,212.830789289516,48.594651422564));
#812=CARTESIAN_POINT('',(-310.423066242361,212.830789289516,100.));
#813=CARTESIAN_POINT('Origin',(-318.604600328338,194.580789289516,48.594651422564));
#814=CARTESIAN_POINT('',(-338.338771200204,191.330789289516,48.594651422564));
#815=CARTESIAN_POINT('',(-338.338771200204,191.330789289516,11.405348577436));
#816=CARTESIAN_POINT('',(-338.338771200204,191.330789289516,100.));
#817=CARTESIAN_POINT('',(-326.786134414314,176.330789289516,11.405348577436));
#818=CARTESIAN_POINT('Origin',(-318.604600328338,194.580789289516,11.405348577436));
#819=CARTESIAN_POINT('',(-326.786134414314,176.330789289516,48.594651422564));
#820=CARTESIAN_POINT('',(-326.786134414314,176.330789289516,100.));
#821=CARTESIAN_POINT('Origin',(-318.604600328338,194.580789289516,48.594651422564));
#822=CARTESIAN_POINT('Origin',(-318.604600328338,194.580789289516,56.));
#823=CARTESIAN_POINT('',(-339.704600328338,194.580789289516,56.));
#824=CARTESIAN_POINT('Origin',(-318.604600328338,194.580789289516,56.));
#825=CARTESIAN_POINT('',(-339.704600328338,194.580789289516,60.));
#826=CARTESIAN_POINT('',(-339.704600328338,194.580789289516,56.));
#827=CARTESIAN_POINT('Origin',(-318.604600328338,194.580789289516,60.));
#828=CARTESIAN_POINT('Origin',(-347.354600328338,165.830789289516,60.));
#829=CARTESIAN_POINT('',(-347.354600328338,165.830789289516,0.));
#830=CARTESIAN_POINT('',(-347.354600328338,223.330789289516,0.));
#831=CARTESIAN_POINT('',(-347.354600328338,165.830789289516,0.));
#832=CARTESIAN_POINT('',(-347.354600328338,165.830789289516,60.));
#833=CARTESIAN_POINT('',(-347.354600328338,165.830789289516,60.));
#834=CARTESIAN_POINT('',(-347.354600328338,223.330789289516,60.));
#835=CARTESIAN_POINT('',(-347.354600328338,165.830789289516,60.));
#836=CARTESIAN_POINT('',(-347.354600328338,223.330789289516,60.));
#837=CARTESIAN_POINT('',(-347.354600328338,191.330789289516,11.405348577436));
#838=CARTESIAN_POINT('',(-347.354600328338,176.330789289516,11.405348577436));
#839=CARTESIAN_POINT('',(-347.354600328338,191.330789289516,11.405348577436));
#840=CARTESIAN_POINT('',(-347.354600328338,191.330789289516,48.594651422564));
#841=CARTESIAN_POINT('',(-347.354600328338,191.330789289516,48.594651422564));
#842=CARTESIAN_POINT('',(-347.354600328338,176.330789289516,48.594651422564));
#843=CARTESIAN_POINT('',(-347.354600328338,191.330789289516,48.594651422564));
#844=CARTESIAN_POINT('',(-347.354600328338,176.330789289516,48.594651422564));
#845=CARTESIAN_POINT('Origin',(-289.854600328338,165.830789289516,60.));
#846=CARTESIAN_POINT('',(-289.854600328338,165.830789289516,0.));
#847=CARTESIAN_POINT('',(-289.854600328338,165.830789289516,0.));
#848=CARTESIAN_POINT('',(-289.854600328338,165.830789289516,60.));
#849=CARTESIAN_POINT('',(-289.854600328338,165.830789289516,60.));
#850=CARTESIAN_POINT('',(-289.854600328338,165.830789289516,60.));
#851=CARTESIAN_POINT('Origin',(-289.854600328338,223.330789289516,60.));
#852=CARTESIAN_POINT('',(-289.854600328338,223.330789289516,0.));
#853=CARTESIAN_POINT('',(-289.854600328338,223.330789289516,0.));
#854=CARTESIAN_POINT('',(-289.854600328338,223.330789289516,60.));
#855=CARTESIAN_POINT('',(-289.854600328338,223.330789289516,60.));
#856=CARTESIAN_POINT('',(-289.854600328338,223.330789289516,60.));
#857=CARTESIAN_POINT('',(-289.854600328338,197.830789289516,11.405348577436));
#858=CARTESIAN_POINT('',(-289.854600328338,212.830789289516,11.405348577436));
#859=CARTESIAN_POINT('',(-289.854600328338,197.830789289516,11.405348577436));
#860=CARTESIAN_POINT('',(-289.854600328338,197.830789289516,48.594651422564));
#861=CARTESIAN_POINT('',(-289.854600328338,197.830789289516,48.594651422564));
#862=CARTESIAN_POINT('',(-289.854600328338,212.830789289516,48.594651422564));
#863=CARTESIAN_POINT('',(-289.854600328338,197.830789289516,48.594651422564));
#864=CARTESIAN_POINT('',(-289.854600328338,212.830789289516,48.594651422564));
#865=CARTESIAN_POINT('Origin',(-347.354600328338,223.330789289516,60.));
#866=CARTESIAN_POINT('',(-347.354600328338,223.330789289516,0.));
#867=CARTESIAN_POINT('',(-347.354600328338,223.330789289516,60.));
#868=CARTESIAN_POINT('Origin',(0.,0.,60.));
#869=CARTESIAN_POINT('Origin',(0.,0.,0.));
#870=CARTESIAN_POINT('Origin',(-318.604600328338,194.580789289516,56.));
#871=CARTESIAN_POINT('Origin',(-314.854600328338,197.830789289516,11.405348577436));
#872=CARTESIAN_POINT('',(-314.854600328338,197.830789289516,11.405348577436));
#873=CARTESIAN_POINT('',(-314.854600328338,212.830789289516,11.405348577436));
#874=CARTESIAN_POINT('Origin',(-314.854600328338,197.830789289516,48.594651422564));
#875=CARTESIAN_POINT('',(-314.854600328338,197.830789289516,48.594651422564));
#876=CARTESIAN_POINT('Origin',(-314.854600328338,197.830789289516,48.594651422564));
#877=CARTESIAN_POINT('',(-314.854600328338,212.830789289516,48.594651422564));
#878=CARTESIAN_POINT('Origin',(-314.854600328338,212.830789289516,48.594651422564));
#879=CARTESIAN_POINT('Origin',(-322.354600328338,191.330789289516,11.405348577436));
#880=CARTESIAN_POINT('',(-322.354600328338,191.330789289516,11.405348577436));
#881=CARTESIAN_POINT('',(-322.354600328338,176.330789289516,11.405348577436));
#882=CARTESIAN_POINT('Origin',(-322.354600328338,191.330789289516,48.594651422564));
#883=CARTESIAN_POINT('',(-322.354600328338,191.330789289516,48.594651422564));
#884=CARTESIAN_POINT('Origin',(-322.354600328338,191.330789289516,48.594651422564));
#885=CARTESIAN_POINT('',(-322.354600328338,176.330789289516,48.594651422564));
#886=CARTESIAN_POINT('Origin',(-322.354600328338,176.330789289516,48.594651422564));
#887=CARTESIAN_POINT('',(0.,0.,0.));
#888=CARTESIAN_POINT('Origin',(358.604600328338,388.44260062418,-80.));
#889=CARTESIAN_POINT('',(358.604600328338,80.7189779548524,0.));
#890=CARTESIAN_POINT('',(358.604600328338,388.44260062418,0.));
#891=CARTESIAN_POINT('',(358.604600328338,388.44260062418,0.));
#892=CARTESIAN_POINT('',(358.604600328338,80.7189779548524,-80.));
#893=CARTESIAN_POINT('',(358.604600328338,80.7189779548524,-80.));
#894=CARTESIAN_POINT('',(358.604600328338,388.44260062418,-80.));
#895=CARTESIAN_POINT('',(358.604600328338,388.44260062418,-80.));
#896=CARTESIAN_POINT('',(358.604600328338,388.44260062418,-80.));
#897=CARTESIAN_POINT('Origin',(278.604600328338,80.7189779548524,-80.));
#898=CARTESIAN_POINT('',(278.604600328338,80.7189779548524,0.));
#899=CARTESIAN_POINT('',(278.604600328338,80.7189779548524,0.));
#900=CARTESIAN_POINT('',(278.604600328338,80.7189779548524,-80.));
#901=CARTESIAN_POINT('',(278.604600328338,80.7189779548524,-80.));
#902=CARTESIAN_POINT('',(278.604600328338,80.7189779548524,-80.));
#903=CARTESIAN_POINT('Origin',(278.604600328338,388.44260062418,-80.));
#904=CARTESIAN_POINT('',(278.604600328338,388.44260062418,0.));
#905=CARTESIAN_POINT('',(278.604600328338,388.44260062418,0.));
#906=CARTESIAN_POINT('',(278.604600328338,388.44260062418,-80.));
#907=CARTESIAN_POINT('',(278.604600328338,388.44260062418,-80.));
#908=CARTESIAN_POINT('',(278.604600328338,388.44260062418,-80.));
#909=CARTESIAN_POINT('Origin',(278.604600328338,388.44260062418,-80.));
#910=CARTESIAN_POINT('',(278.604600328338,388.44260062418,0.));
#911=CARTESIAN_POINT('',(278.604600328338,388.44260062418,-80.));
#912=CARTESIAN_POINT('Origin',(0.,0.,-80.));
#913=CARTESIAN_POINT('Origin',(0.,0.,0.));
#914=CARTESIAN_POINT('',(-236.488876983322,211.164289521851,-22.6133893955408));
#915=CARTESIAN_POINT('',(-236.488876983322,211.164289521851,-102.613389395541));
#916=CARTESIAN_POINT('',(-236.488876983322,211.164289521851,-182.613389395541));
#917=CARTESIAN_POINT('',(-236.488876983322,211.164289521851,-262.613389395541));
#918=CARTESIAN_POINT('',(-236.488876983322,209.16428952185,-182.613389395541));
#919=CARTESIAN_POINT('',(0.,0.,0.));
#920=UNCERTAINTY_MEASURE_WITH_UNIT(LENGTH_MEASURE(0.01),#930,
'DISTANCE_ACCURACY_VALUE',
'Maximum model space distance between geometric entities at asserted c
onnectivities');
#921=UNCERTAINTY_MEASURE_WITH_UNIT(LENGTH_MEASURE(0.01),#930,
'DISTANCE_ACCURACY_VALUE',
'Maximum model space distance between geometric entities at asserted c
onnectivities');
#922=UNCERTAINTY_MEASURE_WITH_UNIT(LENGTH_MEASURE(0.01),#930,
'DISTANCE_ACCURACY_VALUE',
'Maximum model space distance between geometric entities at asserted c
onnectivities');
#923=UNCERTAINTY_MEASURE_WITH_UNIT(LENGTH_MEASURE(0.01),#930,
'DISTANCE_ACCURACY_VALUE',
'Maximum model space distance between geometric entities at asserted c
onnectivities');
#924=UNCERTAINTY_MEASURE_WITH_UNIT(LENGTH_MEASURE(0.01),#930,
'DISTANCE_ACCURACY_VALUE',
'Maximum model space distance between geometric entities at asserted c
onnectivities');
#925=(
GEOMETRIC_REPRESENTATION_CONTEXT(3)
GLOBAL_UNCERTAINTY_ASSIGNED_CONTEXT((#920))
GLOBAL_UNIT_ASSIGNED_CONTEXT((#930,#932,#933))
REPRESENTATION_CONTEXT('','3D')
);
#926=(
GEOMETRIC_REPRESENTATION_CONTEXT(3)
GLOBAL_UNCERTAINTY_ASSIGNED_CONTEXT((#921))
GLOBAL_UNIT_ASSIGNED_CONTEXT((#930,#932,#933))
REPRESENTATION_CONTEXT('','3D')
);
#927=(
GEOMETRIC_REPRESENTATION_CONTEXT(3)
GLOBAL_UNCERTAINTY_ASSIGNED_CONTEXT((#922))
GLOBAL_UNIT_ASSIGNED_CONTEXT((#930,#932,#933))
REPRESENTATION_CONTEXT('','3D')
);
#928=(
GEOMETRIC_REPRESENTATION_CONTEXT(3)
GLOBAL_UNCERTAINTY_ASSIGNED_CONTEXT((#923))
GLOBAL_UNIT_ASSIGNED_CONTEXT((#930,#932,#933))
REPRESENTATION_CONTEXT('','3D')
);
#929=(
GEOMETRIC_REPRESENTATION_CONTEXT(3)
GLOBAL_UNCERTAINTY_ASSIGNED_CONTEXT((#924))
GLOBAL_UNIT_ASSIGNED_CONTEXT((#930,#932,#933))
REPRESENTATION_CONTEXT('','3D')
);
#930=(
LENGTH_UNIT()
NAMED_UNIT(*)
SI_UNIT(.MILLI.,.METRE.)
);
#931=(
LENGTH_UNIT()
NAMED_UNIT(*)
SI_UNIT($,.METRE.)
);
#932=(
NAMED_UNIT(*)
PLANE_ANGLE_UNIT()
SI_UNIT($,.RADIAN.)
);
#933=(
NAMED_UNIT(*)
SI_UNIT($,.STERADIAN.)
SOLID_ANGLE_UNIT()
);
#934=SHAPE_DEFINITION_REPRESENTATION(#938,#948);
#935=SHAPE_DEFINITION_REPRESENTATION(#939,#949);
#936=SHAPE_DEFINITION_REPRESENTATION(#940,#950);
#937=SHAPE_DEFINITION_REPRESENTATION(#941,#951);
#938=PRODUCT_DEFINITION_SHAPE('',$,#953);
#939=PRODUCT_DEFINITION_SHAPE('',$,#954);
#940=PRODUCT_DEFINITION_SHAPE('',$,#955);
#941=PRODUCT_DEFINITION_SHAPE('',$,#956);
#942=PRODUCT_DEFINITION_SHAPE($,$,#29);
#943=PRODUCT_DEFINITION_SHAPE($,$,#30);
#944=PRODUCT_DEFINITION_SHAPE($,$,#31);
#945=PRODUCT_DEFINITION_SHAPE($,$,#32);
#946=PRODUCT_DEFINITION_SHAPE($,$,#33);
#947=PRODUCT_DEFINITION_SHAPE($,$,#34);
#948=SHAPE_REPRESENTATION('',(#564,#616),#925);
#949=SHAPE_REPRESENTATION('',(#565,#611,#612,#613,#614,#615),#926);
#950=SHAPE_REPRESENTATION('',(#566),#927);
#951=SHAPE_REPRESENTATION('',(#604),#928);
#952=PRODUCT_DEFINITION_CONTEXT('part definition',#966,'design');
#953=PRODUCT_DEFINITION('Coupling-Housing-500-80',
'Coupling-Housing-500-80 v2',#957,#952);
#954=PRODUCT_DEFINITION('Nema-23-PX57-Coupling',
'Nema-23-PX57-Coupling v1',#958,#952);
#955=PRODUCT_DEFINITION('CouplingHousing-60w-40l-N23',
'CouplingHousing-60w-40l-N23',#959,#952);
#956=PRODUCT_DEFINITION('Stock^Nema-23-PX57-Coupling',
'Stock^Nema-23-PX57-Coupling',#960,#952);
#957=PRODUCT_DEFINITION_FORMATION('',$,#968);
#958=PRODUCT_DEFINITION_FORMATION('',$,#969);
#959=PRODUCT_DEFINITION_FORMATION('',$,#970);
#960=PRODUCT_DEFINITION_FORMATION('',$,#971);
#961=PRODUCT_RELATED_PRODUCT_CATEGORY('Coupling-Housing-500-80 v2',
'Coupling-Housing-500-80 v2',(#968));
#962=PRODUCT_RELATED_PRODUCT_CATEGORY('Nema-23-PX57-Coupling v1',
'Nema-23-PX57-Coupling v1',(#969));
#963=PRODUCT_RELATED_PRODUCT_CATEGORY('CouplingHousing-60w-40l-N23',
'CouplingHousing-60w-40l-N23',(#970));
#964=PRODUCT_RELATED_PRODUCT_CATEGORY('Stock^Nema-23-PX57-Coupling',
'Stock^Nema-23-PX57-Coupling',(#971));
#965=APPLICATION_PROTOCOL_DEFINITION('international standard',
'automotive_design',2009,#966);
#966=APPLICATION_CONTEXT(
'Core Data for Automotive Mechanical Design Process');
#967=PRODUCT_CONTEXT('part definition',#966,'mechanical');
#968=PRODUCT('Coupling-Housing-500-80','Coupling-Housing-500-80 v2',$,(#967));
#969=PRODUCT('Nema-23-PX57-Coupling','Nema-23-PX57-Coupling v1',$,(#967));
#970=PRODUCT('CouplingHousing-60w-40l-N23',
'CouplingHousing-60w-40l-N23',$,(#967));
#971=PRODUCT('Stock^Nema-23-PX57-Coupling',
'Stock^Nema-23-PX57-Coupling',$,(#967));
#972=PRESENTATION_STYLE_ASSIGNMENT((#974));
#973=PRESENTATION_STYLE_ASSIGNMENT((#975));
#974=SURFACE_STYLE_USAGE(.BOTH.,#976);
#975=SURFACE_STYLE_USAGE(.BOTH.,#977);
#976=SURFACE_SIDE_STYLE('',(#978));
#977=SURFACE_SIDE_STYLE('',(#979));
#978=SURFACE_STYLE_FILL_AREA(#980);
#979=SURFACE_STYLE_FILL_AREA(#981);
#980=FILL_AREA_STYLE('Steel - Satin',(#982));
#981=FILL_AREA_STYLE('Opaque(202,209,238)',(#983));
#982=FILL_AREA_STYLE_COLOUR('Steel - Satin',#984);
#983=FILL_AREA_STYLE_COLOUR('Opaque(202,209,238)',#985);
#984=COLOUR_RGB('Steel - Satin',0.627450980392157,0.627450980392157,0.627450980392157);
#985=COLOUR_RGB('Opaque(202,209,238)',0.792156862745098,0.819607843137255,
0.933333333333333);
ENDSEC;
END-ISO-10303-21;
