ISO-10303-21;
HEADER;
/* Generated by software containing ST-Developer
 * from STEP Tools, Inc. (www.steptools.com) 
 */

FILE_DESCRIPTION(
/* description */ (''),
/* implementation_level */ '2;1');

FILE_NAME(
/* name */ '405_BK12Mount v1.step',
/* time_stamp */ '2026-03-14T09:18:24+01:00',
/* author */ (''),
/* organization */ (''),
/* preprocessor_version */ 'ST-DEVELOPER v20.1',
/* originating_system */ 'Autodesk Translation Framework v14.24.0.0',
/* authorisation */ '');

FILE_SCHEMA (('AUTOMOTIVE_DESIGN { 1 0 10303 214 3 1 1 }'));
ENDSEC;

DATA;
#10=MECHANICAL_DESIGN_GEOMETRIC_PRESENTATION_REPRESENTATION('',(#13),#1264);
#11=SHAPE_REPRESENTATION_RELATIONSHIP('SRR','None',#1271,#12);
#12=ADVANCED_BREP_SHAPE_REPRESENTATION('',(#14),#1263);
#13=STYLED_ITEM('',(#1280),#14);
#14=MANIFOLD_SOLID_BREP('Body1',#756);
#15=FACE_BOUND('',#105,.T.);
#16=FACE_BOUND('',#106,.T.);
#17=FACE_BOUND('',#107,.T.);
#18=FACE_BOUND('',#108,.T.);
#19=FACE_BOUND('',#109,.T.);
#20=FACE_BOUND('',#110,.T.);
#21=FACE_BOUND('',#111,.T.);
#22=FACE_BOUND('',#113,.T.);
#23=FACE_BOUND('',#114,.T.);
#24=FACE_BOUND('',#115,.T.);
#25=FACE_BOUND('',#116,.T.);
#26=FACE_BOUND('',#117,.T.);
#27=FACE_BOUND('',#118,.T.);
#28=FACE_BOUND('',#119,.T.);
#29=PLANE('',#791);
#30=PLANE('',#792);
#31=PLANE('',#793);
#32=PLANE('',#794);
#33=PLANE('',#795);
#34=PLANE('',#796);
#35=PLANE('',#797);
#36=PLANE('',#798);
#37=PLANE('',#799);
#38=PLANE('',#800);
#39=PLANE('',#809);
#40=PLANE('',#816);
#41=PLANE('',#818);
#42=PLANE('',#819);
#43=PLANE('',#821);
#44=PLANE('',#822);
#45=PLANE('',#823);
#46=PLANE('',#824);
#47=PLANE('',#828);
#48=PLANE('',#829);
#49=PLANE('',#830);
#50=PLANE('',#832);
#51=FACE_OUTER_BOUND('',#88,.T.);
#52=FACE_OUTER_BOUND('',#89,.T.);
#53=FACE_OUTER_BOUND('',#90,.T.);
#54=FACE_OUTER_BOUND('',#91,.T.);
#55=FACE_OUTER_BOUND('',#92,.T.);
#56=FACE_OUTER_BOUND('',#93,.T.);
#57=FACE_OUTER_BOUND('',#94,.T.);
#58=FACE_OUTER_BOUND('',#95,.T.);
#59=FACE_OUTER_BOUND('',#96,.T.);
#60=FACE_OUTER_BOUND('',#97,.T.);
#61=FACE_OUTER_BOUND('',#98,.T.);
#62=FACE_OUTER_BOUND('',#99,.T.);
#63=FACE_OUTER_BOUND('',#100,.T.);
#64=FACE_OUTER_BOUND('',#101,.T.);
#65=FACE_OUTER_BOUND('',#102,.T.);
#66=FACE_OUTER_BOUND('',#103,.T.);
#67=FACE_OUTER_BOUND('',#104,.T.);
#68=FACE_OUTER_BOUND('',#112,.T.);
#69=FACE_OUTER_BOUND('',#120,.T.);
#70=FACE_OUTER_BOUND('',#121,.T.);
#71=FACE_OUTER_BOUND('',#122,.T.);
#72=FACE_OUTER_BOUND('',#123,.T.);
#73=FACE_OUTER_BOUND('',#124,.T.);
#74=FACE_OUTER_BOUND('',#125,.T.);
#75=FACE_OUTER_BOUND('',#126,.T.);
#76=FACE_OUTER_BOUND('',#127,.T.);
#77=FACE_OUTER_BOUND('',#128,.T.);
#78=FACE_OUTER_BOUND('',#129,.T.);
#79=FACE_OUTER_BOUND('',#130,.T.);
#80=FACE_OUTER_BOUND('',#131,.T.);
#81=FACE_OUTER_BOUND('',#132,.T.);
#82=FACE_OUTER_BOUND('',#133,.T.);
#83=FACE_OUTER_BOUND('',#134,.T.);
#84=FACE_OUTER_BOUND('',#135,.T.);
#85=FACE_OUTER_BOUND('',#136,.T.);
#86=FACE_OUTER_BOUND('',#137,.T.);
#87=FACE_OUTER_BOUND('',#138,.T.);
#88=EDGE_LOOP('',(#494,#495,#496,#497));
#89=EDGE_LOOP('',(#498,#499,#500,#501));
#90=EDGE_LOOP('',(#502,#503,#504,#505));
#91=EDGE_LOOP('',(#506,#507,#508,#509));
#92=EDGE_LOOP('',(#510,#511,#512,#513));
#93=EDGE_LOOP('',(#514,#515,#516,#517));
#94=EDGE_LOOP('',(#518,#519,#520,#521));
#95=EDGE_LOOP('',(#522,#523,#524,#525));
#96=EDGE_LOOP('',(#526,#527,#528,#529));
#97=EDGE_LOOP('',(#530,#531,#532,#533));
#98=EDGE_LOOP('',(#534,#535,#536,#537));
#99=EDGE_LOOP('',(#538,#539,#540,#541));
#100=EDGE_LOOP('',(#542,#543,#544,#545));
#101=EDGE_LOOP('',(#546,#547,#548,#549,#550,#551));
#102=EDGE_LOOP('',(#552,#553,#554,#555,#556,#557));
#103=EDGE_LOOP('',(#558,#559,#560,#561));
#104=EDGE_LOOP('',(#562,#563,#564,#565,#566,#567,#568,#569,#570,#571,#572,
#573));
#105=EDGE_LOOP('',(#574));
#106=EDGE_LOOP('',(#575));
#107=EDGE_LOOP('',(#576));
#108=EDGE_LOOP('',(#577));
#109=EDGE_LOOP('',(#578,#579,#580,#581,#582,#583,#584,#585));
#110=EDGE_LOOP('',(#586,#587,#588,#589,#590,#591,#592,#593));
#111=EDGE_LOOP('',(#594));
#112=EDGE_LOOP('',(#595,#596,#597,#598));
#113=EDGE_LOOP('',(#599));
#114=EDGE_LOOP('',(#600));
#115=EDGE_LOOP('',(#601));
#116=EDGE_LOOP('',(#602));
#117=EDGE_LOOP('',(#603));
#118=EDGE_LOOP('',(#604,#605,#606,#607,#608,#609,#610,#611));
#119=EDGE_LOOP('',(#612,#613,#614,#615,#616,#617,#618,#619));
#120=EDGE_LOOP('',(#620,#621,#622,#623));
#121=EDGE_LOOP('',(#624,#625,#626,#627));
#122=EDGE_LOOP('',(#628,#629,#630,#631));
#123=EDGE_LOOP('',(#632,#633,#634,#635));
#124=EDGE_LOOP('',(#636,#637,#638,#639));
#125=EDGE_LOOP('',(#640,#641,#642,#643));
#126=EDGE_LOOP('',(#644,#645,#646,#647));
#127=EDGE_LOOP('',(#648,#649,#650,#651));
#128=EDGE_LOOP('',(#652,#653,#654,#655,#656,#657,#658,#659,#660,#661,#662,
#663));
#129=EDGE_LOOP('',(#664,#665,#666,#667));
#130=EDGE_LOOP('',(#668,#669,#670,#671));
#131=EDGE_LOOP('',(#672,#673,#674,#675));
#132=EDGE_LOOP('',(#676,#677,#678,#679));
#133=EDGE_LOOP('',(#680,#681,#682,#683));
#134=EDGE_LOOP('',(#684,#685,#686,#687));
#135=EDGE_LOOP('',(#688,#689,#690,#691));
#136=EDGE_LOOP('',(#692,#693,#694,#695));
#137=EDGE_LOOP('',(#696,#697,#698,#699));
#138=EDGE_LOOP('',(#700,#701,#702,#703));
#139=LINE('',#1053,#214);
#140=LINE('',#1059,#215);
#141=LINE('',#1065,#216);
#142=LINE('',#1071,#217);
#143=LINE('',#1078,#218);
#144=LINE('',#1081,#219);
#145=LINE('',#1087,#220);
#146=LINE('',#1090,#221);
#147=LINE('',#1095,#222);
#148=LINE('',#1100,#223);
#149=LINE('',#1102,#224);
#150=LINE('',#1104,#225);
#151=LINE('',#1105,#226);
#152=LINE('',#1108,#227);
#153=LINE('',#1110,#228);
#154=LINE('',#1111,#229);
#155=LINE('',#1114,#230);
#156=LINE('',#1116,#231);
#157=LINE('',#1117,#232);
#158=LINE('',#1121,#233);
#159=LINE('',#1123,#234);
#160=LINE('',#1125,#235);
#161=LINE('',#1126,#236);
#162=LINE('',#1130,#237);
#163=LINE('',#1132,#238);
#164=LINE('',#1134,#239);
#165=LINE('',#1135,#240);
#166=LINE('',#1139,#241);
#167=LINE('',#1141,#242);
#168=LINE('',#1143,#243);
#169=LINE('',#1144,#244);
#170=LINE('',#1148,#245);
#171=LINE('',#1150,#246);
#172=LINE('',#1151,#247);
#173=LINE('',#1153,#248);
#174=LINE('',#1154,#249);
#175=LINE('',#1158,#250);
#176=LINE('',#1160,#251);
#177=LINE('',#1162,#252);
#178=LINE('',#1164,#253);
#179=LINE('',#1166,#254);
#180=LINE('',#1167,#255);
#181=LINE('',#1169,#256);
#182=LINE('',#1170,#257);
#183=LINE('',#1175,#258);
#184=LINE('',#1177,#259);
#185=LINE('',#1181,#260);
#186=LINE('',#1182,#261);
#187=LINE('',#1183,#262);
#188=LINE('',#1186,#263);
#189=LINE('',#1190,#264);
#190=LINE('',#1194,#265);
#191=LINE('',#1198,#266);
#192=LINE('',#1201,#267);
#193=LINE('',#1206,#268);
#194=LINE('',#1209,#269);
#195=LINE('',#1213,#270);
#196=LINE('',#1216,#271);
#197=LINE('',#1219,#272);
#198=LINE('',#1220,#273);
#199=LINE('',#1222,#274);
#200=LINE('',#1225,#275);
#201=LINE('',#1226,#276);
#202=LINE('',#1228,#277);
#203=LINE('',#1232,#278);
#204=LINE('',#1233,#279);
#205=LINE('',#1235,#280);
#206=LINE('',#1238,#281);
#207=LINE('',#1241,#282);
#208=LINE('',#1243,#283);
#209=LINE('',#1246,#284);
#210=LINE('',#1248,#285);
#211=LINE('',#1249,#286);
#212=LINE('',#1253,#287);
#213=LINE('',#1255,#288);
#214=VECTOR('',#843,3.30000000000052);
#215=VECTOR('',#850,3.30000000000052);
#216=VECTOR('',#857,3.30000000000052);
#217=VECTOR('',#864,3.30000000000052);
#218=VECTOR('',#871,1000.);
#219=VECTOR('',#874,1000.);
#220=VECTOR('',#879,1000.);
#221=VECTOR('',#882,1000.);
#222=VECTOR('',#887,4.99999999999901);
#223=VECTOR('',#892,1000.);
#224=VECTOR('',#893,1000.);
#225=VECTOR('',#894,1000.);
#226=VECTOR('',#895,1000.);
#227=VECTOR('',#898,1000.);
#228=VECTOR('',#899,1000.);
#229=VECTOR('',#900,1000.);
#230=VECTOR('',#903,1000.);
#231=VECTOR('',#904,1000.);
#232=VECTOR('',#905,1000.);
#233=VECTOR('',#908,1000.);
#234=VECTOR('',#909,1000.);
#235=VECTOR('',#910,1000.);
#236=VECTOR('',#911,1000.);
#237=VECTOR('',#914,1000.);
#238=VECTOR('',#915,1000.);
#239=VECTOR('',#916,1000.);
#240=VECTOR('',#917,1000.);
#241=VECTOR('',#920,1000.);
#242=VECTOR('',#921,1000.);
#243=VECTOR('',#922,1000.);
#244=VECTOR('',#923,1000.);
#245=VECTOR('',#926,1000.);
#246=VECTOR('',#927,1000.);
#247=VECTOR('',#928,1000.);
#248=VECTOR('',#929,1000.);
#249=VECTOR('',#930,1000.);
#250=VECTOR('',#933,1000.);
#251=VECTOR('',#934,1000.);
#252=VECTOR('',#935,1000.);
#253=VECTOR('',#936,1000.);
#254=VECTOR('',#937,1000.);
#255=VECTOR('',#938,1000.);
#256=VECTOR('',#941,1000.);
#257=VECTOR('',#942,1000.);
#258=VECTOR('',#947,1000.);
#259=VECTOR('',#948,1000.);
#260=VECTOR('',#951,1000.);
#261=VECTOR('',#952,1000.);
#262=VECTOR('',#953,1000.);
#263=VECTOR('',#956,1000.);
#264=VECTOR('',#959,1000.);
#265=VECTOR('',#962,1000.);
#266=VECTOR('',#967,1000.);
#267=VECTOR('',#972,1000.);
#268=VECTOR('',#977,1000.);
#269=VECTOR('',#980,1000.);
#270=VECTOR('',#983,1000.);
#271=VECTOR('',#986,1000.);
#272=VECTOR('',#991,1000.);
#273=VECTOR('',#992,1000.);
#274=VECTOR('',#995,1000.);
#275=VECTOR('',#1000,1000.);
#276=VECTOR('',#1001,1000.);
#277=VECTOR('',#1004,1000.);
#278=VECTOR('',#1009,1000.);
#279=VECTOR('',#1010,1000.);
#280=VECTOR('',#1013,1000.);
#281=VECTOR('',#1016,1000.);
#282=VECTOR('',#1019,1000.);
#283=VECTOR('',#1020,1000.);
#284=VECTOR('',#1023,1000.);
#285=VECTOR('',#1026,1000.);
#286=VECTOR('',#1027,1000.);
#287=VECTOR('',#1034,1000.);
#288=VECTOR('',#1037,1000.);
#289=CIRCLE('',#771,3.30000000000052);
#290=CIRCLE('',#772,3.30000000000052);
#291=CIRCLE('',#774,3.30000000000052);
#292=CIRCLE('',#775,3.30000000000052);
#293=CIRCLE('',#777,3.30000000000052);
#294=CIRCLE('',#778,3.30000000000052);
#295=CIRCLE('',#780,3.30000000000052);
#296=CIRCLE('',#781,3.30000000000052);
#297=CIRCLE('',#783,4.39999999999996);
#298=CIRCLE('',#784,4.39999999999996);
#299=CIRCLE('',#786,4.39999999999996);
#300=CIRCLE('',#787,4.39999999999996);
#301=CIRCLE('',#789,4.99999999999856);
#302=CIRCLE('',#790,4.99999999999856);
#303=CIRCLE('',#801,2.1500000000001);
#304=CIRCLE('',#802,2.1500000000001);
#305=CIRCLE('',#803,4.4000000000004);
#306=CIRCLE('',#804,4.39999999999996);
#307=CIRCLE('',#805,4.4000000000004);
#308=CIRCLE('',#806,4.4000000000004);
#309=CIRCLE('',#807,4.4000000000004);
#310=CIRCLE('',#808,4.39999999999996);
#311=CIRCLE('',#810,4.4000000000004);
#312=CIRCLE('',#811,4.4000000000004);
#313=CIRCLE('',#812,4.39999999999996);
#314=CIRCLE('',#813,4.4000000000004);
#315=CIRCLE('',#814,4.39999999999996);
#316=CIRCLE('',#815,4.4000000000004);
#317=CIRCLE('',#825,2.1500000000001);
#318=CIRCLE('',#826,2.1500000000001);
#319=VERTEX_POINT('',#1050);
#320=VERTEX_POINT('',#1052);
#321=VERTEX_POINT('',#1056);
#322=VERTEX_POINT('',#1058);
#323=VERTEX_POINT('',#1062);
#324=VERTEX_POINT('',#1064);
#325=VERTEX_POINT('',#1068);
#326=VERTEX_POINT('',#1070);
#327=VERTEX_POINT('',#1074);
#328=VERTEX_POINT('',#1075);
#329=VERTEX_POINT('',#1077);
#330=VERTEX_POINT('',#1079);
#331=VERTEX_POINT('',#1083);
#332=VERTEX_POINT('',#1084);
#333=VERTEX_POINT('',#1086);
#334=VERTEX_POINT('',#1088);
#335=VERTEX_POINT('',#1092);
#336=VERTEX_POINT('',#1094);
#337=VERTEX_POINT('',#1098);
#338=VERTEX_POINT('',#1099);
#339=VERTEX_POINT('',#1101);
#340=VERTEX_POINT('',#1103);
#341=VERTEX_POINT('',#1107);
#342=VERTEX_POINT('',#1109);
#343=VERTEX_POINT('',#1113);
#344=VERTEX_POINT('',#1115);
#345=VERTEX_POINT('',#1119);
#346=VERTEX_POINT('',#1120);
#347=VERTEX_POINT('',#1122);
#348=VERTEX_POINT('',#1124);
#349=VERTEX_POINT('',#1128);
#350=VERTEX_POINT('',#1129);
#351=VERTEX_POINT('',#1131);
#352=VERTEX_POINT('',#1133);
#353=VERTEX_POINT('',#1137);
#354=VERTEX_POINT('',#1138);
#355=VERTEX_POINT('',#1140);
#356=VERTEX_POINT('',#1142);
#357=VERTEX_POINT('',#1146);
#358=VERTEX_POINT('',#1147);
#359=VERTEX_POINT('',#1149);
#360=VERTEX_POINT('',#1152);
#361=VERTEX_POINT('',#1156);
#362=VERTEX_POINT('',#1157);
#363=VERTEX_POINT('',#1159);
#364=VERTEX_POINT('',#1161);
#365=VERTEX_POINT('',#1163);
#366=VERTEX_POINT('',#1165);
#367=VERTEX_POINT('',#1172);
#368=VERTEX_POINT('',#1173);
#369=VERTEX_POINT('',#1176);
#370=VERTEX_POINT('',#1178);
#371=VERTEX_POINT('',#1180);
#372=VERTEX_POINT('',#1185);
#373=VERTEX_POINT('',#1187);
#374=VERTEX_POINT('',#1189);
#375=VERTEX_POINT('',#1192);
#376=VERTEX_POINT('',#1193);
#377=VERTEX_POINT('',#1197);
#378=VERTEX_POINT('',#1203);
#379=VERTEX_POINT('',#1205);
#380=VERTEX_POINT('',#1207);
#381=VERTEX_POINT('',#1210);
#382=VERTEX_POINT('',#1212);
#383=VERTEX_POINT('',#1214);
#384=VERTEX_POINT('',#1231);
#385=VERTEX_POINT('',#1237);
#386=VERTEX_POINT('',#1239);
#387=VERTEX_POINT('',#1242);
#388=VERTEX_POINT('',#1244);
#389=EDGE_CURVE('',#319,#319,#289,.T.);
#390=EDGE_CURVE('',#319,#320,#139,.T.);
#391=EDGE_CURVE('',#320,#320,#290,.T.);
#392=EDGE_CURVE('',#321,#321,#291,.T.);
#393=EDGE_CURVE('',#321,#322,#140,.T.);
#394=EDGE_CURVE('',#322,#322,#292,.T.);
#395=EDGE_CURVE('',#323,#323,#293,.T.);
#396=EDGE_CURVE('',#323,#324,#141,.T.);
#397=EDGE_CURVE('',#324,#324,#294,.T.);
#398=EDGE_CURVE('',#325,#325,#295,.T.);
#399=EDGE_CURVE('',#325,#326,#142,.T.);
#400=EDGE_CURVE('',#326,#326,#296,.T.);
#401=EDGE_CURVE('',#327,#328,#297,.T.);
#402=EDGE_CURVE('',#327,#329,#143,.T.);
#403=EDGE_CURVE('',#329,#330,#298,.T.);
#404=EDGE_CURVE('',#328,#330,#144,.T.);
#405=EDGE_CURVE('',#331,#332,#299,.T.);
#406=EDGE_CURVE('',#331,#333,#145,.T.);
#407=EDGE_CURVE('',#333,#334,#300,.T.);
#408=EDGE_CURVE('',#332,#334,#146,.T.);
#409=EDGE_CURVE('',#335,#335,#301,.T.);
#410=EDGE_CURVE('',#335,#336,#147,.T.);
#411=EDGE_CURVE('',#336,#336,#302,.T.);
#412=EDGE_CURVE('',#337,#338,#148,.T.);
#413=EDGE_CURVE('',#337,#339,#149,.T.);
#414=EDGE_CURVE('',#339,#340,#150,.T.);
#415=EDGE_CURVE('',#340,#338,#151,.T.);
#416=EDGE_CURVE('',#341,#331,#152,.T.);
#417=EDGE_CURVE('',#341,#342,#153,.T.);
#418=EDGE_CURVE('',#342,#333,#154,.T.);
#419=EDGE_CURVE('',#343,#327,#155,.T.);
#420=EDGE_CURVE('',#343,#344,#156,.T.);
#421=EDGE_CURVE('',#344,#329,#157,.T.);
#422=EDGE_CURVE('',#345,#346,#158,.T.);
#423=EDGE_CURVE('',#346,#347,#159,.T.);
#424=EDGE_CURVE('',#348,#347,#160,.T.);
#425=EDGE_CURVE('',#348,#345,#161,.T.);
#426=EDGE_CURVE('',#349,#350,#162,.T.);
#427=EDGE_CURVE('',#351,#349,#163,.T.);
#428=EDGE_CURVE('',#352,#351,#164,.T.);
#429=EDGE_CURVE('',#352,#350,#165,.T.);
#430=EDGE_CURVE('',#353,#354,#166,.T.);
#431=EDGE_CURVE('',#353,#355,#167,.T.);
#432=EDGE_CURVE('',#355,#356,#168,.T.);
#433=EDGE_CURVE('',#354,#356,#169,.T.);
#434=EDGE_CURVE('',#357,#358,#170,.T.);
#435=EDGE_CURVE('',#359,#358,#171,.T.);
#436=EDGE_CURVE('',#356,#359,#172,.T.);
#437=EDGE_CURVE('',#360,#355,#173,.T.);
#438=EDGE_CURVE('',#360,#357,#174,.T.);
#439=EDGE_CURVE('',#361,#362,#175,.T.);
#440=EDGE_CURVE('',#363,#361,#176,.T.);
#441=EDGE_CURVE('',#363,#364,#177,.T.);
#442=EDGE_CURVE('',#364,#365,#178,.T.);
#443=EDGE_CURVE('',#366,#365,#179,.T.);
#444=EDGE_CURVE('',#362,#366,#180,.T.);
#445=EDGE_CURVE('',#365,#357,#181,.T.);
#446=EDGE_CURVE('',#366,#360,#182,.T.);
#447=EDGE_CURVE('',#367,#368,#303,.T.);
#448=EDGE_CURVE('',#368,#350,#183,.T.);
#449=EDGE_CURVE('',#352,#369,#184,.T.);
#450=EDGE_CURVE('',#369,#370,#304,.T.);
#451=EDGE_CURVE('',#370,#371,#185,.T.);
#452=EDGE_CURVE('',#362,#371,#186,.T.);
#453=EDGE_CURVE('',#353,#367,#187,.T.);
#454=EDGE_CURVE('',#347,#343,#305,.T.);
#455=EDGE_CURVE('',#328,#372,#188,.T.);
#456=EDGE_CURVE('',#372,#373,#306,.T.);
#457=EDGE_CURVE('',#373,#374,#189,.T.);
#458=EDGE_CURVE('',#374,#348,#307,.T.);
#459=EDGE_CURVE('',#375,#376,#190,.T.);
#460=EDGE_CURVE('',#376,#337,#308,.T.);
#461=EDGE_CURVE('',#338,#341,#309,.T.);
#462=EDGE_CURVE('',#332,#377,#191,.T.);
#463=EDGE_CURVE('',#377,#375,#310,.T.);
#464=EDGE_CURVE('',#358,#364,#192,.T.);
#465=EDGE_CURVE('',#346,#344,#311,.T.);
#466=EDGE_CURVE('',#378,#345,#312,.T.);
#467=EDGE_CURVE('',#379,#378,#193,.T.);
#468=EDGE_CURVE('',#380,#379,#313,.T.);
#469=EDGE_CURVE('',#330,#380,#194,.T.);
#470=EDGE_CURVE('',#381,#339,#314,.T.);
#471=EDGE_CURVE('',#382,#381,#195,.T.);
#472=EDGE_CURVE('',#383,#382,#315,.T.);
#473=EDGE_CURVE('',#334,#383,#196,.T.);
#474=EDGE_CURVE('',#340,#342,#316,.T.);
#475=EDGE_CURVE('',#381,#376,#197,.T.);
#476=EDGE_CURVE('',#375,#382,#198,.T.);
#477=EDGE_CURVE('',#377,#383,#199,.T.);
#478=EDGE_CURVE('',#378,#374,#200,.T.);
#479=EDGE_CURVE('',#373,#379,#201,.T.);
#480=EDGE_CURVE('',#372,#380,#202,.T.);
#481=EDGE_CURVE('',#384,#371,#203,.T.);
#482=EDGE_CURVE('',#361,#384,#204,.T.);
#483=EDGE_CURVE('',#359,#363,#205,.T.);
#484=EDGE_CURVE('',#349,#385,#206,.T.);
#485=EDGE_CURVE('',#385,#386,#317,.T.);
#486=EDGE_CURVE('',#386,#354,#207,.T.);
#487=EDGE_CURVE('',#384,#387,#208,.T.);
#488=EDGE_CURVE('',#387,#388,#318,.T.);
#489=EDGE_CURVE('',#388,#351,#209,.T.);
#490=EDGE_CURVE('',#369,#388,#210,.T.);
#491=EDGE_CURVE('',#370,#387,#211,.T.);
#492=EDGE_CURVE('',#368,#385,#212,.T.);
#493=EDGE_CURVE('',#367,#386,#213,.T.);
#494=ORIENTED_EDGE('',*,*,#389,.T.);
#495=ORIENTED_EDGE('',*,*,#390,.T.);
#496=ORIENTED_EDGE('',*,*,#391,.F.);
#497=ORIENTED_EDGE('',*,*,#390,.F.);
#498=ORIENTED_EDGE('',*,*,#392,.T.);
#499=ORIENTED_EDGE('',*,*,#393,.T.);
#500=ORIENTED_EDGE('',*,*,#394,.F.);
#501=ORIENTED_EDGE('',*,*,#393,.F.);
#502=ORIENTED_EDGE('',*,*,#395,.T.);
#503=ORIENTED_EDGE('',*,*,#396,.T.);
#504=ORIENTED_EDGE('',*,*,#397,.F.);
#505=ORIENTED_EDGE('',*,*,#396,.F.);
#506=ORIENTED_EDGE('',*,*,#398,.T.);
#507=ORIENTED_EDGE('',*,*,#399,.T.);
#508=ORIENTED_EDGE('',*,*,#400,.F.);
#509=ORIENTED_EDGE('',*,*,#399,.F.);
#510=ORIENTED_EDGE('',*,*,#401,.F.);
#511=ORIENTED_EDGE('',*,*,#402,.T.);
#512=ORIENTED_EDGE('',*,*,#403,.T.);
#513=ORIENTED_EDGE('',*,*,#404,.F.);
#514=ORIENTED_EDGE('',*,*,#405,.F.);
#515=ORIENTED_EDGE('',*,*,#406,.T.);
#516=ORIENTED_EDGE('',*,*,#407,.T.);
#517=ORIENTED_EDGE('',*,*,#408,.F.);
#518=ORIENTED_EDGE('',*,*,#409,.F.);
#519=ORIENTED_EDGE('',*,*,#410,.T.);
#520=ORIENTED_EDGE('',*,*,#411,.T.);
#521=ORIENTED_EDGE('',*,*,#410,.F.);
#522=ORIENTED_EDGE('',*,*,#412,.F.);
#523=ORIENTED_EDGE('',*,*,#413,.T.);
#524=ORIENTED_EDGE('',*,*,#414,.T.);
#525=ORIENTED_EDGE('',*,*,#415,.T.);
#526=ORIENTED_EDGE('',*,*,#416,.F.);
#527=ORIENTED_EDGE('',*,*,#417,.T.);
#528=ORIENTED_EDGE('',*,*,#418,.T.);
#529=ORIENTED_EDGE('',*,*,#406,.F.);
#530=ORIENTED_EDGE('',*,*,#419,.F.);
#531=ORIENTED_EDGE('',*,*,#420,.T.);
#532=ORIENTED_EDGE('',*,*,#421,.T.);
#533=ORIENTED_EDGE('',*,*,#402,.F.);
#534=ORIENTED_EDGE('',*,*,#422,.T.);
#535=ORIENTED_EDGE('',*,*,#423,.T.);
#536=ORIENTED_EDGE('',*,*,#424,.F.);
#537=ORIENTED_EDGE('',*,*,#425,.T.);
#538=ORIENTED_EDGE('',*,*,#426,.F.);
#539=ORIENTED_EDGE('',*,*,#427,.F.);
#540=ORIENTED_EDGE('',*,*,#428,.F.);
#541=ORIENTED_EDGE('',*,*,#429,.T.);
#542=ORIENTED_EDGE('',*,*,#430,.F.);
#543=ORIENTED_EDGE('',*,*,#431,.T.);
#544=ORIENTED_EDGE('',*,*,#432,.T.);
#545=ORIENTED_EDGE('',*,*,#433,.F.);
#546=ORIENTED_EDGE('',*,*,#434,.T.);
#547=ORIENTED_EDGE('',*,*,#435,.F.);
#548=ORIENTED_EDGE('',*,*,#436,.F.);
#549=ORIENTED_EDGE('',*,*,#432,.F.);
#550=ORIENTED_EDGE('',*,*,#437,.F.);
#551=ORIENTED_EDGE('',*,*,#438,.T.);
#552=ORIENTED_EDGE('',*,*,#439,.F.);
#553=ORIENTED_EDGE('',*,*,#440,.F.);
#554=ORIENTED_EDGE('',*,*,#441,.T.);
#555=ORIENTED_EDGE('',*,*,#442,.T.);
#556=ORIENTED_EDGE('',*,*,#443,.F.);
#557=ORIENTED_EDGE('',*,*,#444,.F.);
#558=ORIENTED_EDGE('',*,*,#445,.T.);
#559=ORIENTED_EDGE('',*,*,#438,.F.);
#560=ORIENTED_EDGE('',*,*,#446,.F.);
#561=ORIENTED_EDGE('',*,*,#443,.T.);
#562=ORIENTED_EDGE('',*,*,#447,.T.);
#563=ORIENTED_EDGE('',*,*,#448,.T.);
#564=ORIENTED_EDGE('',*,*,#429,.F.);
#565=ORIENTED_EDGE('',*,*,#449,.T.);
#566=ORIENTED_EDGE('',*,*,#450,.T.);
#567=ORIENTED_EDGE('',*,*,#451,.T.);
#568=ORIENTED_EDGE('',*,*,#452,.F.);
#569=ORIENTED_EDGE('',*,*,#444,.T.);
#570=ORIENTED_EDGE('',*,*,#446,.T.);
#571=ORIENTED_EDGE('',*,*,#437,.T.);
#572=ORIENTED_EDGE('',*,*,#431,.F.);
#573=ORIENTED_EDGE('',*,*,#453,.T.);
#574=ORIENTED_EDGE('',*,*,#391,.T.);
#575=ORIENTED_EDGE('',*,*,#394,.T.);
#576=ORIENTED_EDGE('',*,*,#397,.T.);
#577=ORIENTED_EDGE('',*,*,#400,.T.);
#578=ORIENTED_EDGE('',*,*,#424,.T.);
#579=ORIENTED_EDGE('',*,*,#454,.T.);
#580=ORIENTED_EDGE('',*,*,#419,.T.);
#581=ORIENTED_EDGE('',*,*,#401,.T.);
#582=ORIENTED_EDGE('',*,*,#455,.T.);
#583=ORIENTED_EDGE('',*,*,#456,.T.);
#584=ORIENTED_EDGE('',*,*,#457,.T.);
#585=ORIENTED_EDGE('',*,*,#458,.T.);
#586=ORIENTED_EDGE('',*,*,#459,.T.);
#587=ORIENTED_EDGE('',*,*,#460,.T.);
#588=ORIENTED_EDGE('',*,*,#412,.T.);
#589=ORIENTED_EDGE('',*,*,#461,.T.);
#590=ORIENTED_EDGE('',*,*,#416,.T.);
#591=ORIENTED_EDGE('',*,*,#405,.T.);
#592=ORIENTED_EDGE('',*,*,#462,.T.);
#593=ORIENTED_EDGE('',*,*,#463,.T.);
#594=ORIENTED_EDGE('',*,*,#409,.T.);
#595=ORIENTED_EDGE('',*,*,#464,.F.);
#596=ORIENTED_EDGE('',*,*,#434,.F.);
#597=ORIENTED_EDGE('',*,*,#445,.F.);
#598=ORIENTED_EDGE('',*,*,#442,.F.);
#599=ORIENTED_EDGE('',*,*,#411,.F.);
#600=ORIENTED_EDGE('',*,*,#389,.F.);
#601=ORIENTED_EDGE('',*,*,#392,.F.);
#602=ORIENTED_EDGE('',*,*,#395,.F.);
#603=ORIENTED_EDGE('',*,*,#398,.F.);
#604=ORIENTED_EDGE('',*,*,#465,.F.);
#605=ORIENTED_EDGE('',*,*,#422,.F.);
#606=ORIENTED_EDGE('',*,*,#466,.F.);
#607=ORIENTED_EDGE('',*,*,#467,.F.);
#608=ORIENTED_EDGE('',*,*,#468,.F.);
#609=ORIENTED_EDGE('',*,*,#469,.F.);
#610=ORIENTED_EDGE('',*,*,#403,.F.);
#611=ORIENTED_EDGE('',*,*,#421,.F.);
#612=ORIENTED_EDGE('',*,*,#470,.F.);
#613=ORIENTED_EDGE('',*,*,#471,.F.);
#614=ORIENTED_EDGE('',*,*,#472,.F.);
#615=ORIENTED_EDGE('',*,*,#473,.F.);
#616=ORIENTED_EDGE('',*,*,#407,.F.);
#617=ORIENTED_EDGE('',*,*,#418,.F.);
#618=ORIENTED_EDGE('',*,*,#474,.F.);
#619=ORIENTED_EDGE('',*,*,#414,.F.);
#620=ORIENTED_EDGE('',*,*,#471,.T.);
#621=ORIENTED_EDGE('',*,*,#475,.T.);
#622=ORIENTED_EDGE('',*,*,#459,.F.);
#623=ORIENTED_EDGE('',*,*,#476,.T.);
#624=ORIENTED_EDGE('',*,*,#477,.T.);
#625=ORIENTED_EDGE('',*,*,#472,.T.);
#626=ORIENTED_EDGE('',*,*,#476,.F.);
#627=ORIENTED_EDGE('',*,*,#463,.F.);
#628=ORIENTED_EDGE('',*,*,#408,.T.);
#629=ORIENTED_EDGE('',*,*,#473,.T.);
#630=ORIENTED_EDGE('',*,*,#477,.F.);
#631=ORIENTED_EDGE('',*,*,#462,.F.);
#632=ORIENTED_EDGE('',*,*,#467,.T.);
#633=ORIENTED_EDGE('',*,*,#478,.T.);
#634=ORIENTED_EDGE('',*,*,#457,.F.);
#635=ORIENTED_EDGE('',*,*,#479,.T.);
#636=ORIENTED_EDGE('',*,*,#480,.T.);
#637=ORIENTED_EDGE('',*,*,#468,.T.);
#638=ORIENTED_EDGE('',*,*,#479,.F.);
#639=ORIENTED_EDGE('',*,*,#456,.F.);
#640=ORIENTED_EDGE('',*,*,#404,.T.);
#641=ORIENTED_EDGE('',*,*,#469,.T.);
#642=ORIENTED_EDGE('',*,*,#480,.F.);
#643=ORIENTED_EDGE('',*,*,#455,.F.);
#644=ORIENTED_EDGE('',*,*,#481,.F.);
#645=ORIENTED_EDGE('',*,*,#482,.F.);
#646=ORIENTED_EDGE('',*,*,#439,.T.);
#647=ORIENTED_EDGE('',*,*,#452,.T.);
#648=ORIENTED_EDGE('',*,*,#464,.T.);
#649=ORIENTED_EDGE('',*,*,#441,.F.);
#650=ORIENTED_EDGE('',*,*,#483,.F.);
#651=ORIENTED_EDGE('',*,*,#435,.T.);
#652=ORIENTED_EDGE('',*,*,#427,.T.);
#653=ORIENTED_EDGE('',*,*,#484,.T.);
#654=ORIENTED_EDGE('',*,*,#485,.T.);
#655=ORIENTED_EDGE('',*,*,#486,.T.);
#656=ORIENTED_EDGE('',*,*,#433,.T.);
#657=ORIENTED_EDGE('',*,*,#436,.T.);
#658=ORIENTED_EDGE('',*,*,#483,.T.);
#659=ORIENTED_EDGE('',*,*,#440,.T.);
#660=ORIENTED_EDGE('',*,*,#482,.T.);
#661=ORIENTED_EDGE('',*,*,#487,.T.);
#662=ORIENTED_EDGE('',*,*,#488,.T.);
#663=ORIENTED_EDGE('',*,*,#489,.T.);
#664=ORIENTED_EDGE('',*,*,#490,.T.);
#665=ORIENTED_EDGE('',*,*,#488,.F.);
#666=ORIENTED_EDGE('',*,*,#491,.F.);
#667=ORIENTED_EDGE('',*,*,#450,.F.);
#668=ORIENTED_EDGE('',*,*,#428,.T.);
#669=ORIENTED_EDGE('',*,*,#489,.F.);
#670=ORIENTED_EDGE('',*,*,#490,.F.);
#671=ORIENTED_EDGE('',*,*,#449,.F.);
#672=ORIENTED_EDGE('',*,*,#491,.T.);
#673=ORIENTED_EDGE('',*,*,#487,.F.);
#674=ORIENTED_EDGE('',*,*,#481,.T.);
#675=ORIENTED_EDGE('',*,*,#451,.F.);
#676=ORIENTED_EDGE('',*,*,#492,.T.);
#677=ORIENTED_EDGE('',*,*,#484,.F.);
#678=ORIENTED_EDGE('',*,*,#426,.T.);
#679=ORIENTED_EDGE('',*,*,#448,.F.);
#680=ORIENTED_EDGE('',*,*,#493,.T.);
#681=ORIENTED_EDGE('',*,*,#485,.F.);
#682=ORIENTED_EDGE('',*,*,#492,.F.);
#683=ORIENTED_EDGE('',*,*,#447,.F.);
#684=ORIENTED_EDGE('',*,*,#430,.T.);
#685=ORIENTED_EDGE('',*,*,#486,.F.);
#686=ORIENTED_EDGE('',*,*,#493,.F.);
#687=ORIENTED_EDGE('',*,*,#453,.F.);
#688=ORIENTED_EDGE('',*,*,#458,.F.);
#689=ORIENTED_EDGE('',*,*,#478,.F.);
#690=ORIENTED_EDGE('',*,*,#466,.T.);
#691=ORIENTED_EDGE('',*,*,#425,.F.);
#692=ORIENTED_EDGE('',*,*,#454,.F.);
#693=ORIENTED_EDGE('',*,*,#423,.F.);
#694=ORIENTED_EDGE('',*,*,#465,.T.);
#695=ORIENTED_EDGE('',*,*,#420,.F.);
#696=ORIENTED_EDGE('',*,*,#461,.F.);
#697=ORIENTED_EDGE('',*,*,#415,.F.);
#698=ORIENTED_EDGE('',*,*,#474,.T.);
#699=ORIENTED_EDGE('',*,*,#417,.F.);
#700=ORIENTED_EDGE('',*,*,#460,.F.);
#701=ORIENTED_EDGE('',*,*,#475,.F.);
#702=ORIENTED_EDGE('',*,*,#470,.T.);
#703=ORIENTED_EDGE('',*,*,#413,.F.);
#704=CYLINDRICAL_SURFACE('',#770,3.30000000000052);
#705=CYLINDRICAL_SURFACE('',#773,3.30000000000052);
#706=CYLINDRICAL_SURFACE('',#776,3.30000000000052);
#707=CYLINDRICAL_SURFACE('',#779,3.30000000000052);
#708=CYLINDRICAL_SURFACE('',#782,4.4000000000004);
#709=CYLINDRICAL_SURFACE('',#785,4.4000000000004);
#710=CYLINDRICAL_SURFACE('',#788,4.99999999999901);
#711=CYLINDRICAL_SURFACE('',#817,4.4000000000004);
#712=CYLINDRICAL_SURFACE('',#820,4.4000000000004);
#713=CYLINDRICAL_SURFACE('',#827,2.15000000000032);
#714=CYLINDRICAL_SURFACE('',#831,2.15000000000032);
#715=CYLINDRICAL_SURFACE('',#833,4.4000000000004);
#716=CYLINDRICAL_SURFACE('',#834,4.4000000000004);
#717=CYLINDRICAL_SURFACE('',#835,4.4000000000004);
#718=CYLINDRICAL_SURFACE('',#836,4.4000000000004);
#719=ADVANCED_FACE('',(#51),#704,.F.);
#720=ADVANCED_FACE('',(#52),#705,.F.);
#721=ADVANCED_FACE('',(#53),#706,.F.);
#722=ADVANCED_FACE('',(#54),#707,.F.);
#723=ADVANCED_FACE('',(#55),#708,.F.);
#724=ADVANCED_FACE('',(#56),#709,.F.);
#725=ADVANCED_FACE('',(#57),#710,.F.);
#726=ADVANCED_FACE('',(#58),#29,.F.);
#727=ADVANCED_FACE('',(#59),#30,.F.);
#728=ADVANCED_FACE('',(#60),#31,.F.);
#729=ADVANCED_FACE('',(#61),#32,.F.);
#730=ADVANCED_FACE('',(#62),#33,.T.);
#731=ADVANCED_FACE('',(#63),#34,.T.);
#732=ADVANCED_FACE('',(#64),#35,.F.);
#733=ADVANCED_FACE('',(#65),#36,.F.);
#734=ADVANCED_FACE('',(#66),#37,.F.);
#735=ADVANCED_FACE('',(#67,#15,#16,#17,#18,#19,#20,#21),#38,.F.);
#736=ADVANCED_FACE('',(#68,#22,#23,#24,#25,#26,#27,#28),#39,.T.);
#737=ADVANCED_FACE('',(#69),#40,.F.);
#738=ADVANCED_FACE('',(#70),#711,.F.);
#739=ADVANCED_FACE('',(#71),#41,.F.);
#740=ADVANCED_FACE('',(#72),#42,.F.);
#741=ADVANCED_FACE('',(#73),#712,.F.);
#742=ADVANCED_FACE('',(#74),#43,.F.);
#743=ADVANCED_FACE('',(#75),#44,.T.);
#744=ADVANCED_FACE('',(#76),#45,.F.);
#745=ADVANCED_FACE('',(#77),#46,.F.);
#746=ADVANCED_FACE('',(#78),#713,.F.);
#747=ADVANCED_FACE('',(#79),#47,.F.);
#748=ADVANCED_FACE('',(#80),#48,.F.);
#749=ADVANCED_FACE('',(#81),#49,.F.);
#750=ADVANCED_FACE('',(#82),#714,.F.);
#751=ADVANCED_FACE('',(#83),#50,.F.);
#752=ADVANCED_FACE('',(#84),#715,.F.);
#753=ADVANCED_FACE('',(#85),#716,.F.);
#754=ADVANCED_FACE('',(#86),#717,.F.);
#755=ADVANCED_FACE('',(#87),#718,.F.);
#756=CLOSED_SHELL('',(#719,#720,#721,#722,#723,#724,#725,#726,#727,#728,
#729,#730,#731,#732,#733,#734,#735,#736,#737,#738,#739,#740,#741,#742,#743,
#744,#745,#746,#747,#748,#749,#750,#751,#752,#753,#754,#755));
#757=DERIVED_UNIT_ELEMENT(#759,1.);
#758=DERIVED_UNIT_ELEMENT(#1266,-3.);
#759=(
MASS_UNIT()
NAMED_UNIT(*)
SI_UNIT(.KILO.,.GRAM.)
);
#760=DERIVED_UNIT((#757,#758));
#761=MEASURE_REPRESENTATION_ITEM('density measure',
POSITIVE_RATIO_MEASURE(7850.),#760);
#762=PROPERTY_DEFINITION_REPRESENTATION(#767,#764);
#763=PROPERTY_DEFINITION_REPRESENTATION(#768,#765);
#764=REPRESENTATION('material name',(#766),#1263);
#765=REPRESENTATION('density',(#761),#1263);
#766=DESCRIPTIVE_REPRESENTATION_ITEM('Steel','Steel');
#767=PROPERTY_DEFINITION('material property','material name',#1273);
#768=PROPERTY_DEFINITION('material property','density of part',#1273);
#769=AXIS2_PLACEMENT_3D('',#1048,#837,#838);
#770=AXIS2_PLACEMENT_3D('',#1049,#839,#840);
#771=AXIS2_PLACEMENT_3D('',#1051,#841,#842);
#772=AXIS2_PLACEMENT_3D('',#1054,#844,#845);
#773=AXIS2_PLACEMENT_3D('',#1055,#846,#847);
#774=AXIS2_PLACEMENT_3D('',#1057,#848,#849);
#775=AXIS2_PLACEMENT_3D('',#1060,#851,#852);
#776=AXIS2_PLACEMENT_3D('',#1061,#853,#854);
#777=AXIS2_PLACEMENT_3D('',#1063,#855,#856);
#778=AXIS2_PLACEMENT_3D('',#1066,#858,#859);
#779=AXIS2_PLACEMENT_3D('',#1067,#860,#861);
#780=AXIS2_PLACEMENT_3D('',#1069,#862,#863);
#781=AXIS2_PLACEMENT_3D('',#1072,#865,#866);
#782=AXIS2_PLACEMENT_3D('',#1073,#867,#868);
#783=AXIS2_PLACEMENT_3D('',#1076,#869,#870);
#784=AXIS2_PLACEMENT_3D('',#1080,#872,#873);
#785=AXIS2_PLACEMENT_3D('',#1082,#875,#876);
#786=AXIS2_PLACEMENT_3D('',#1085,#877,#878);
#787=AXIS2_PLACEMENT_3D('',#1089,#880,#881);
#788=AXIS2_PLACEMENT_3D('',#1091,#883,#884);
#789=AXIS2_PLACEMENT_3D('',#1093,#885,#886);
#790=AXIS2_PLACEMENT_3D('',#1096,#888,#889);
#791=AXIS2_PLACEMENT_3D('',#1097,#890,#891);
#792=AXIS2_PLACEMENT_3D('',#1106,#896,#897);
#793=AXIS2_PLACEMENT_3D('',#1112,#901,#902);
#794=AXIS2_PLACEMENT_3D('',#1118,#906,#907);
#795=AXIS2_PLACEMENT_3D('',#1127,#912,#913);
#796=AXIS2_PLACEMENT_3D('',#1136,#918,#919);
#797=AXIS2_PLACEMENT_3D('',#1145,#924,#925);
#798=AXIS2_PLACEMENT_3D('',#1155,#931,#932);
#799=AXIS2_PLACEMENT_3D('',#1168,#939,#940);
#800=AXIS2_PLACEMENT_3D('',#1171,#943,#944);
#801=AXIS2_PLACEMENT_3D('',#1174,#945,#946);
#802=AXIS2_PLACEMENT_3D('',#1179,#949,#950);
#803=AXIS2_PLACEMENT_3D('',#1184,#954,#955);
#804=AXIS2_PLACEMENT_3D('',#1188,#957,#958);
#805=AXIS2_PLACEMENT_3D('',#1191,#960,#961);
#806=AXIS2_PLACEMENT_3D('',#1195,#963,#964);
#807=AXIS2_PLACEMENT_3D('',#1196,#965,#966);
#808=AXIS2_PLACEMENT_3D('',#1199,#968,#969);
#809=AXIS2_PLACEMENT_3D('',#1200,#970,#971);
#810=AXIS2_PLACEMENT_3D('',#1202,#973,#974);
#811=AXIS2_PLACEMENT_3D('',#1204,#975,#976);
#812=AXIS2_PLACEMENT_3D('',#1208,#978,#979);
#813=AXIS2_PLACEMENT_3D('',#1211,#981,#982);
#814=AXIS2_PLACEMENT_3D('',#1215,#984,#985);
#815=AXIS2_PLACEMENT_3D('',#1217,#987,#988);
#816=AXIS2_PLACEMENT_3D('',#1218,#989,#990);
#817=AXIS2_PLACEMENT_3D('',#1221,#993,#994);
#818=AXIS2_PLACEMENT_3D('',#1223,#996,#997);
#819=AXIS2_PLACEMENT_3D('',#1224,#998,#999);
#820=AXIS2_PLACEMENT_3D('',#1227,#1002,#1003);
#821=AXIS2_PLACEMENT_3D('',#1229,#1005,#1006);
#822=AXIS2_PLACEMENT_3D('',#1230,#1007,#1008);
#823=AXIS2_PLACEMENT_3D('',#1234,#1011,#1012);
#824=AXIS2_PLACEMENT_3D('',#1236,#1014,#1015);
#825=AXIS2_PLACEMENT_3D('',#1240,#1017,#1018);
#826=AXIS2_PLACEMENT_3D('',#1245,#1021,#1022);
#827=AXIS2_PLACEMENT_3D('',#1247,#1024,#1025);
#828=AXIS2_PLACEMENT_3D('',#1250,#1028,#1029);
#829=AXIS2_PLACEMENT_3D('',#1251,#1030,#1031);
#830=AXIS2_PLACEMENT_3D('',#1252,#1032,#1033);
#831=AXIS2_PLACEMENT_3D('',#1254,#1035,#1036);
#832=AXIS2_PLACEMENT_3D('',#1256,#1038,#1039);
#833=AXIS2_PLACEMENT_3D('',#1257,#1040,#1041);
#834=AXIS2_PLACEMENT_3D('',#1258,#1042,#1043);
#835=AXIS2_PLACEMENT_3D('',#1259,#1044,#1045);
#836=AXIS2_PLACEMENT_3D('',#1260,#1046,#1047);
#837=DIRECTION('axis',(0.,0.,1.));
#838=DIRECTION('refdir',(1.,0.,0.));
#839=DIRECTION('center_axis',(0.,0.,1.));
#840=DIRECTION('ref_axis',(1.,0.,0.));
#841=DIRECTION('center_axis',(0.,0.,-1.));
#842=DIRECTION('ref_axis',(-1.,0.,0.));
#843=DIRECTION('',(0.,0.,1.));
#844=DIRECTION('center_axis',(0.,0.,-1.));
#845=DIRECTION('ref_axis',(-1.,0.,0.));
#846=DIRECTION('center_axis',(0.,0.,1.));
#847=DIRECTION('ref_axis',(1.,0.,0.));
#848=DIRECTION('center_axis',(0.,0.,-1.));
#849=DIRECTION('ref_axis',(-1.,0.,0.));
#850=DIRECTION('',(0.,0.,1.));
#851=DIRECTION('center_axis',(0.,0.,-1.));
#852=DIRECTION('ref_axis',(-1.,0.,0.));
#853=DIRECTION('center_axis',(0.,0.,1.));
#854=DIRECTION('ref_axis',(1.,0.,0.));
#855=DIRECTION('center_axis',(0.,0.,-1.));
#856=DIRECTION('ref_axis',(-1.,0.,0.));
#857=DIRECTION('',(0.,0.,1.));
#858=DIRECTION('center_axis',(0.,0.,-1.));
#859=DIRECTION('ref_axis',(-1.,0.,0.));
#860=DIRECTION('center_axis',(0.,0.,1.));
#861=DIRECTION('ref_axis',(1.,0.,0.));
#862=DIRECTION('center_axis',(0.,0.,-1.));
#863=DIRECTION('ref_axis',(-1.,0.,0.));
#864=DIRECTION('',(0.,0.,1.));
#865=DIRECTION('center_axis',(0.,0.,-1.));
#866=DIRECTION('ref_axis',(-1.,0.,0.));
#867=DIRECTION('center_axis',(1.17373598748289E-16,-1.0509203772184E-14,
-1.));
#868=DIRECTION('ref_axis',(-6.22016246066213E-32,1.,-1.0509203772184E-14));
#869=DIRECTION('center_axis',(0.,0.,-1.));
#870=DIRECTION('ref_axis',(-1.,0.,0.));
#871=DIRECTION('',(1.1737359874829E-16,-1.0509203772184E-14,-1.));
#872=DIRECTION('center_axis',(0.,0.,-1.));
#873=DIRECTION('ref_axis',(-1.,0.,0.));
#874=DIRECTION('',(1.1737359874829E-16,-1.0509203772184E-14,-1.));
#875=DIRECTION('center_axis',(1.17373598748289E-16,-1.0509203772184E-14,
-1.));
#876=DIRECTION('ref_axis',(-6.22016246066213E-32,1.,-1.0509203772184E-14));
#877=DIRECTION('center_axis',(0.,0.,-1.));
#878=DIRECTION('ref_axis',(-1.,0.,0.));
#879=DIRECTION('',(1.1737359874829E-16,-1.0509203772184E-14,-1.));
#880=DIRECTION('center_axis',(0.,0.,-1.));
#881=DIRECTION('ref_axis',(-1.,0.,0.));
#882=DIRECTION('',(1.1737359874829E-16,-1.0509203772184E-14,-1.));
#883=DIRECTION('center_axis',(1.17373598748289E-16,-1.0509203772184E-14,
-1.));
#884=DIRECTION('ref_axis',(-6.96056514145827E-32,1.,-1.0509203772184E-14));
#885=DIRECTION('center_axis',(0.,0.,-1.));
#886=DIRECTION('ref_axis',(-1.,0.,0.));
#887=DIRECTION('',(1.1737359874829E-16,-1.0509203772184E-14,-1.));
#888=DIRECTION('center_axis',(0.,0.,-1.));
#889=DIRECTION('ref_axis',(-1.,0.,0.));
#890=DIRECTION('center_axis',(-1.,-1.2307137893494E-30,-1.17373598748289E-16));
#891=DIRECTION('ref_axis',(-1.17373598748289E-16,0.,1.));
#892=DIRECTION('',(-1.2307137893494E-30,1.,0.));
#893=DIRECTION('',(1.1737359874829E-16,-1.0509203772184E-14,-1.));
#894=DIRECTION('',(-1.2307137893494E-30,1.,0.));
#895=DIRECTION('',(-1.1737359874829E-16,1.0509203772184E-14,1.));
#896=DIRECTION('center_axis',(-1.,-1.2307137893494E-30,-1.17373598748289E-16));
#897=DIRECTION('ref_axis',(-1.17373598748289E-16,0.,1.));
#898=DIRECTION('',(-1.2307137893494E-30,1.,0.));
#899=DIRECTION('',(1.1737359874829E-16,-1.0509203772184E-14,-1.));
#900=DIRECTION('',(-1.2307137893494E-30,1.,0.));
#901=DIRECTION('center_axis',(-1.,-1.2307137893494E-30,-1.17373598748289E-16));
#902=DIRECTION('ref_axis',(-1.17373598748289E-16,0.,1.));
#903=DIRECTION('',(-1.2307137893494E-30,1.,0.));
#904=DIRECTION('',(1.1737359874829E-16,-1.0509203772184E-14,-1.));
#905=DIRECTION('',(-1.2307137893494E-30,1.,0.));
#906=DIRECTION('center_axis',(-1.,-1.2307137893494E-30,-1.17373598748289E-16));
#907=DIRECTION('ref_axis',(-1.17373598748289E-16,0.,1.));
#908=DIRECTION('',(-1.2307137893494E-30,1.,0.));
#909=DIRECTION('',(-1.1737359874829E-16,1.0509203772184E-14,1.));
#910=DIRECTION('',(-1.2307137893494E-30,1.,0.));
#911=DIRECTION('',(1.1737359874829E-16,-1.0509203772184E-14,-1.));
#912=DIRECTION('center_axis',(0.,1.,0.));
#913=DIRECTION('ref_axis',(0.,0.,1.));
#914=DIRECTION('',(6.93889390390653E-18,0.,1.));
#915=DIRECTION('',(1.,0.,0.));
#916=DIRECTION('',(-6.93889390390653E-18,0.,-1.));
#917=DIRECTION('',(1.,0.,0.));
#918=DIRECTION('center_axis',(0.,1.,0.));
#919=DIRECTION('ref_axis',(0.,0.,1.));
#920=DIRECTION('',(-6.93889390390653E-18,0.,-1.));
#921=DIRECTION('',(1.,0.,0.));
#922=DIRECTION('',(0.,0.,-1.));
#923=DIRECTION('',(1.,0.,0.));
#924=DIRECTION('center_axis',(-1.,0.,0.));
#925=DIRECTION('ref_axis',(0.,0.,1.));
#926=DIRECTION('',(0.,1.,0.));
#927=DIRECTION('',(0.,0.,1.));
#928=DIRECTION('',(0.,-1.,0.));
#929=DIRECTION('',(0.,1.,0.));
#930=DIRECTION('',(0.,0.,-1.));
#931=DIRECTION('center_axis',(1.,0.,0.));
#932=DIRECTION('ref_axis',(0.,0.,-1.));
#933=DIRECTION('',(0.,0.,1.));
#934=DIRECTION('',(0.,1.,0.));
#935=DIRECTION('',(0.,0.,1.));
#936=DIRECTION('',(0.,-1.,0.));
#937=DIRECTION('',(0.,0.,-1.));
#938=DIRECTION('',(0.,-1.,0.));
#939=DIRECTION('center_axis',(0.,1.,0.));
#940=DIRECTION('ref_axis',(0.,0.,1.));
#941=DIRECTION('',(1.,0.,0.));
#942=DIRECTION('',(1.,0.,0.));
#943=DIRECTION('center_axis',(0.,0.,-1.));
#944=DIRECTION('ref_axis',(-1.,0.,0.));
#945=DIRECTION('center_axis',(0.,0.,-1.));
#946=DIRECTION('ref_axis',(-1.,0.,0.));
#947=DIRECTION('',(-5.32481066966495E-15,1.,0.));
#948=DIRECTION('',(5.32481066966518E-15,-1.,0.));
#949=DIRECTION('center_axis',(0.,0.,-1.));
#950=DIRECTION('ref_axis',(-1.,0.,0.));
#951=DIRECTION('',(-5.32481066966518E-15,1.,0.));
#952=DIRECTION('',(1.,0.,0.));
#953=DIRECTION('',(5.32481066966495E-15,-1.,0.));
#954=DIRECTION('center_axis',(1.17373598748289E-16,-1.0509203772184E-14,
-1.));
#955=DIRECTION('ref_axis',(-1.592645705923E-32,1.,-1.0509203772184E-14));
#956=DIRECTION('',(1.2307137893494E-30,-1.,0.));
#957=DIRECTION('center_axis',(0.,0.,-1.));
#958=DIRECTION('ref_axis',(-1.,0.,0.));
#959=DIRECTION('',(-1.2307137893494E-30,1.,0.));
#960=DIRECTION('center_axis',(1.17373598748289E-16,-1.0509203772184E-14,
-1.));
#961=DIRECTION('ref_axis',(-1.592645705923E-32,1.,-1.0509203772184E-14));
#962=DIRECTION('',(-1.2307137893494E-30,1.,0.));
#963=DIRECTION('center_axis',(1.17373598748289E-16,-1.0509203772184E-14,
-1.));
#964=DIRECTION('ref_axis',(-1.592645705923E-32,1.,-1.0509203772184E-14));
#965=DIRECTION('center_axis',(1.17373598748289E-16,-1.0509203772184E-14,
-1.));
#966=DIRECTION('ref_axis',(-1.592645705923E-32,1.,-1.0509203772184E-14));
#967=DIRECTION('',(1.23976315544756E-30,-1.,0.));
#968=DIRECTION('center_axis',(0.,0.,-1.));
#969=DIRECTION('ref_axis',(-1.,0.,0.));
#970=DIRECTION('center_axis',(0.,0.,-1.));
#971=DIRECTION('ref_axis',(-1.,0.,0.));
#972=DIRECTION('',(-1.,0.,0.));
#973=DIRECTION('center_axis',(1.17373598748289E-16,-1.0509203772184E-14,
-1.));
#974=DIRECTION('ref_axis',(2.43650770484478E-43,1.,-1.0509203772184E-14));
#975=DIRECTION('center_axis',(1.17373598748289E-16,-1.0509203772184E-14,
-1.));
#976=DIRECTION('ref_axis',(2.43650770484478E-43,1.,-1.0509203772184E-14));
#977=DIRECTION('',(-1.2307137893494E-30,1.,0.));
#978=DIRECTION('center_axis',(0.,0.,-1.));
#979=DIRECTION('ref_axis',(-1.,0.,0.));
#980=DIRECTION('',(1.2307137893494E-30,-1.,0.));
#981=DIRECTION('center_axis',(1.17373598748289E-16,-1.0509203772184E-14,
-1.));
#982=DIRECTION('ref_axis',(2.43650770484478E-43,1.,-1.0509203772184E-14));
#983=DIRECTION('',(-1.2307137893494E-30,1.,0.));
#984=DIRECTION('center_axis',(0.,0.,-1.));
#985=DIRECTION('ref_axis',(-1.,0.,0.));
#986=DIRECTION('',(1.23976315544756E-30,-1.,0.));
#987=DIRECTION('center_axis',(1.17373598748289E-16,-1.0509203772184E-14,
-1.));
#988=DIRECTION('ref_axis',(2.43650770484478E-43,1.,-1.0509203772184E-14));
#989=DIRECTION('center_axis',(-1.,-1.2307137893494E-30,-1.17373598748289E-16));
#990=DIRECTION('ref_axis',(-1.17373598748289E-16,0.,1.));
#991=DIRECTION('',(-1.1737359874829E-16,1.0509203772184E-14,1.));
#992=DIRECTION('',(1.1737359874829E-16,-1.0509203772184E-14,-1.));
#993=DIRECTION('center_axis',(1.17373598748289E-16,-1.0509203772184E-14,
-1.));
#994=DIRECTION('ref_axis',(1.22464679914735E-16,-1.,1.0509203772184E-14));
#995=DIRECTION('',(1.1737359874829E-16,-1.0509203772184E-14,-1.));
#996=DIRECTION('center_axis',(1.,1.23976315544756E-30,1.17373598748289E-16));
#997=DIRECTION('ref_axis',(1.17373598748289E-16,0.,-1.));
#998=DIRECTION('center_axis',(-1.,-1.2307137893494E-30,-1.17373598748289E-16));
#999=DIRECTION('ref_axis',(-1.17373598748289E-16,0.,1.));
#1000=DIRECTION('',(-1.1737359874829E-16,1.0509203772184E-14,1.));
#1001=DIRECTION('',(1.1737359874829E-16,-1.0509203772184E-14,-1.));
#1002=DIRECTION('center_axis',(1.17373598748289E-16,-1.0509203772184E-14,
-1.));
#1003=DIRECTION('ref_axis',(1.22464679914735E-16,-1.,1.0509203772184E-14));
#1004=DIRECTION('',(1.1737359874829E-16,-1.0509203772184E-14,-1.));
#1005=DIRECTION('center_axis',(1.,1.2307137893494E-30,1.17373598748289E-16));
#1006=DIRECTION('ref_axis',(1.17373598748289E-16,0.,-1.));
#1007=DIRECTION('center_axis',(0.,1.,0.));
#1008=DIRECTION('ref_axis',(0.,0.,1.));
#1009=DIRECTION('',(6.93889390390653E-18,0.,1.));
#1010=DIRECTION('',(1.,0.,0.));
#1011=DIRECTION('center_axis',(0.,1.,0.));
#1012=DIRECTION('ref_axis',(0.,0.,1.));
#1013=DIRECTION('',(-1.,0.,0.));
#1014=DIRECTION('center_axis',(0.,0.,1.));
#1015=DIRECTION('ref_axis',(1.,0.,0.));
#1016=DIRECTION('',(5.32481066966495E-15,-1.,0.));
#1017=DIRECTION('center_axis',(0.,0.,1.));
#1018=DIRECTION('ref_axis',(1.,0.,0.));
#1019=DIRECTION('',(-5.32481066966495E-15,1.,0.));
#1020=DIRECTION('',(5.32481066966518E-15,-1.,0.));
#1021=DIRECTION('center_axis',(0.,0.,1.));
#1022=DIRECTION('ref_axis',(1.,0.,0.));
#1023=DIRECTION('',(-5.32481066966518E-15,1.,0.));
#1024=DIRECTION('center_axis',(-6.93889390390853E-18,3.76054720564615E-16,
-1.));
#1025=DIRECTION('ref_axis',(1.22464679914735E-16,-1.,-3.76054720564615E-16));
#1026=DIRECTION('',(-6.93889390390853E-18,3.76054720564615E-16,-1.));
#1027=DIRECTION('',(-6.93889390390853E-18,3.76054720564615E-16,-1.));
#1028=DIRECTION('center_axis',(1.,5.32481066966518E-15,-6.93889390390653E-18));
#1029=DIRECTION('ref_axis',(-5.32481066966518E-15,1.,0.));
#1030=DIRECTION('center_axis',(-1.,-5.32481066966518E-15,6.93889390390653E-18));
#1031=DIRECTION('ref_axis',(5.32481066966518E-15,-1.,0.));
#1032=DIRECTION('center_axis',(-1.,-5.32481066966495E-15,6.93889390390653E-18));
#1033=DIRECTION('ref_axis',(5.32481066966495E-15,-1.,0.));
#1034=DIRECTION('',(-6.93889390390853E-18,3.76054720564615E-16,-1.));
#1035=DIRECTION('center_axis',(-6.93889390390853E-18,3.76054720564615E-16,
-1.));
#1036=DIRECTION('ref_axis',(1.22464679914735E-16,-1.,-3.76054720564615E-16));
#1037=DIRECTION('',(-6.93889390390853E-18,3.76054720564615E-16,-1.));
#1038=DIRECTION('center_axis',(1.,5.32481066966495E-15,-6.93889390390653E-18));
#1039=DIRECTION('ref_axis',(-5.32481066966495E-15,1.,0.));
#1040=DIRECTION('center_axis',(1.17373598748289E-16,-1.0509203772184E-14,
-1.));
#1041=DIRECTION('ref_axis',(-6.22016246066213E-32,1.,-1.0509203772184E-14));
#1042=DIRECTION('center_axis',(1.17373598748289E-16,-1.0509203772184E-14,
-1.));
#1043=DIRECTION('ref_axis',(-6.22016246066213E-32,1.,-1.0509203772184E-14));
#1044=DIRECTION('center_axis',(1.17373598748289E-16,-1.0509203772184E-14,
-1.));
#1045=DIRECTION('ref_axis',(-6.22016246066213E-32,1.,-1.0509203772184E-14));
#1046=DIRECTION('center_axis',(1.17373598748289E-16,-1.0509203772184E-14,
-1.));
#1047=DIRECTION('ref_axis',(-6.22016246066213E-32,1.,-1.0509203772184E-14));
#1048=CARTESIAN_POINT('',(0.,0.,0.));
#1049=CARTESIAN_POINT('Origin',(1883.47860082048,-9304.85180476805,-22.9999999999932));
#1050=CARTESIAN_POINT('',(1880.17860082048,-9304.85180476805,0.));
#1051=CARTESIAN_POINT('Origin',(1883.47860082048,-9304.85180476805,0.));
#1052=CARTESIAN_POINT('',(1880.17860082048,-9304.85180476805,10.));
#1053=CARTESIAN_POINT('',(1880.17860082048,-9304.85180476805,-22.9999999999932));
#1054=CARTESIAN_POINT('Origin',(1883.47860082048,-9304.85180476805,10.));
#1055=CARTESIAN_POINT('Origin',(1837.47860082048,-9291.85180476805,-22.9999999999932));
#1056=CARTESIAN_POINT('',(1834.17860082048,-9291.85180476805,0.));
#1057=CARTESIAN_POINT('Origin',(1837.47860082048,-9291.85180476805,0.));
#1058=CARTESIAN_POINT('',(1834.17860082048,-9291.85180476805,10.));
#1059=CARTESIAN_POINT('',(1834.17860082048,-9291.85180476805,-22.9999999999932));
#1060=CARTESIAN_POINT('Origin',(1837.47860082048,-9291.85180476805,10.));
#1061=CARTESIAN_POINT('Origin',(1837.47860082048,-9304.85180476805,-22.9999999999932));
#1062=CARTESIAN_POINT('',(1834.17860082048,-9304.85180476805,0.));
#1063=CARTESIAN_POINT('Origin',(1837.47860082048,-9304.85180476805,0.));
#1064=CARTESIAN_POINT('',(1834.17860082048,-9304.85180476805,10.));
#1065=CARTESIAN_POINT('',(1834.17860082048,-9304.85180476805,-22.9999999999932));
#1066=CARTESIAN_POINT('Origin',(1837.47860082048,-9304.85180476805,10.));
#1067=CARTESIAN_POINT('Origin',(1883.47860082048,-9291.85180476805,-22.9999999999932));
#1068=CARTESIAN_POINT('',(1880.17860082048,-9291.85180476805,0.));
#1069=CARTESIAN_POINT('Origin',(1883.47860082048,-9291.85180476805,0.));
#1070=CARTESIAN_POINT('',(1880.17860082048,-9291.85180476805,10.));
#1071=CARTESIAN_POINT('',(1880.17860082048,-9291.85180476805,-22.9999999999932));
#1072=CARTESIAN_POINT('Origin',(1883.47860082048,-9291.85180476805,10.));
#1073=CARTESIAN_POINT('Origin',(1824.47860082026,-9280.85180476804,51.9999999999865));
#1074=CARTESIAN_POINT('',(1820.07860082026,-9280.85180476804,10.));
#1075=CARTESIAN_POINT('',(1828.87860082026,-9280.85180476804,10.));
#1076=CARTESIAN_POINT('Origin',(1824.47860082026,-9280.85180476804,10.));
#1077=CARTESIAN_POINT('',(1820.07860082026,-9280.85180476804,0.));
#1078=CARTESIAN_POINT('',(1820.07860082026,-9280.85180476804,51.9999999999865));
#1079=CARTESIAN_POINT('',(1828.87860082026,-9280.85180476804,0.));
#1080=CARTESIAN_POINT('Origin',(1824.47860082026,-9280.85180476804,0.));
#1081=CARTESIAN_POINT('',(1828.87860082026,-9280.85180476804,51.9999999999865));
#1082=CARTESIAN_POINT('Origin',(1896.47860082026,-9280.85180476804,51.9999999999865));
#1083=CARTESIAN_POINT('',(1892.07860082026,-9280.85180476804,10.));
#1084=CARTESIAN_POINT('',(1900.87860082026,-9280.85180476804,10.));
#1085=CARTESIAN_POINT('Origin',(1896.47860082026,-9280.85180476804,10.));
#1086=CARTESIAN_POINT('',(1892.07860082026,-9280.85180476804,0.));
#1087=CARTESIAN_POINT('',(1892.07860082026,-9280.85180476804,51.9999999999865));
#1088=CARTESIAN_POINT('',(1900.87860082026,-9280.85180476804,0.));
#1089=CARTESIAN_POINT('Origin',(1896.47860082026,-9280.85180476804,0.));
#1090=CARTESIAN_POINT('',(1900.87860082026,-9280.85180476804,51.9999999999865));
#1091=CARTESIAN_POINT('Origin',(1860.4785787297,-9300.8517992494,51.9999999999867));
#1092=CARTESIAN_POINT('',(1860.4785787297,-9305.8517992494,10.0000000000001));
#1093=CARTESIAN_POINT('Origin',(1860.4785787297,-9300.8517992494,10.));
#1094=CARTESIAN_POINT('',(1860.4785787297,-9305.8517992494,0.));
#1095=CARTESIAN_POINT('',(1860.4785787297,-9305.8517992494,51.9999999999868));
#1096=CARTESIAN_POINT('Origin',(1860.4785787297,-9300.8517992494,0.));
#1097=CARTESIAN_POINT('Origin',(1892.07860082026,-9280.85180476804,51.9999999999865));
#1098=CARTESIAN_POINT('',(1892.07860082026,-9316.83786215557,10.));
#1099=CARTESIAN_POINT('',(1892.07860082026,-9284.86574738052,10.));
#1100=CARTESIAN_POINT('',(1892.07860082026,2.32860722456241E-27,10.));
#1101=CARTESIAN_POINT('',(1892.07860082026,-9316.83786215557,-2.5822062082193E-16));
#1102=CARTESIAN_POINT('',(1892.07860082026,-9316.83786215557,51.9999999999994));
#1103=CARTESIAN_POINT('',(1892.07860082026,-9284.86574738052,-2.5822062082193E-16));
#1104=CARTESIAN_POINT('',(1892.07860082026,2.32860722456241E-27,0.));
#1105=CARTESIAN_POINT('',(1892.07860082026,-9284.86574738052,51.9999999999991));
#1106=CARTESIAN_POINT('Origin',(1892.07860082026,-9280.85180476804,51.9999999999865));
#1107=CARTESIAN_POINT('',(1892.07860082026,-9284.83786215557,10.));
#1108=CARTESIAN_POINT('',(1892.07860082026,2.32860722456241E-27,10.));
#1109=CARTESIAN_POINT('',(1892.07860082026,-9284.83786215557,-2.5822062082193E-16));
#1110=CARTESIAN_POINT('',(1892.07860082026,-9284.83786215557,51.9999999999991));
#1111=CARTESIAN_POINT('',(1892.07860082026,2.32860722456241E-27,0.));
#1112=CARTESIAN_POINT('Origin',(1820.07860082026,-9325.85180476804,51.999999999987));
#1113=CARTESIAN_POINT('',(1820.07860082026,-9284.83786215565,10.));
#1114=CARTESIAN_POINT('',(1820.07860082026,2.23999583172925E-27,10.));
#1115=CARTESIAN_POINT('',(1820.07860082026,-9284.83786215565,-2.58220620821943E-16));
#1116=CARTESIAN_POINT('',(1820.07860082026,-9284.83786215565,51.9999999999991));
#1117=CARTESIAN_POINT('',(1820.07860082026,2.23999583172925E-27,0.));
#1118=CARTESIAN_POINT('Origin',(1820.07860082026,-9325.85180476804,51.999999999987));
#1119=CARTESIAN_POINT('',(1820.07860082026,-9316.83786215565,-2.58220620821943E-16));
#1120=CARTESIAN_POINT('',(1820.07860082026,-9284.86574738045,-2.58220620821943E-16));
#1121=CARTESIAN_POINT('',(1820.07860082026,2.23999583172925E-27,0.));
#1122=CARTESIAN_POINT('',(1820.07860082026,-9284.86574738045,10.));
#1123=CARTESIAN_POINT('',(1820.07860082026,-9284.86574738045,51.9999999999991));
#1124=CARTESIAN_POINT('',(1820.07860082026,-9316.83786215565,10.));
#1125=CARTESIAN_POINT('',(1820.07860082026,2.23999583172925E-27,10.));
#1126=CARTESIAN_POINT('',(1820.07860082026,-9316.83786215565,51.9999999999994));
#1127=CARTESIAN_POINT('Origin',(0.,-9230.85180476804,0.));
#1128=CARTESIAN_POINT('',(1878.32860082048,-9230.85180476804,-5.));
#1129=CARTESIAN_POINT('',(1878.32860082048,-9230.85180476804,10.));
#1130=CARTESIAN_POINT('',(1878.32860082048,-9230.85180476804,-1.30335228777665E-14));
#1131=CARTESIAN_POINT('',(1842.62860082048,-9230.85180476804,-5.));
#1132=CARTESIAN_POINT('',(1810.47860082026,-9230.85180476804,-5.));
#1133=CARTESIAN_POINT('',(1842.62860082048,-9230.85180476804,10.));
#1134=CARTESIAN_POINT('',(1842.62860082048,-9230.85180476804,-1.2785804365397E-14));
#1135=CARTESIAN_POINT('',(1910.47860082026,-9230.85180476804,10.));
#1136=CARTESIAN_POINT('Origin',(0.,-9230.85180476804,0.));
#1137=CARTESIAN_POINT('',(1882.62860082048,-9230.85180476804,10.));
#1138=CARTESIAN_POINT('',(1882.62860082048,-9230.85180476804,-5.));
#1139=CARTESIAN_POINT('',(1882.62860082048,-9230.85180476804,-1.30633601215533E-14));
#1140=CARTESIAN_POINT('',(1910.47860082026,-9230.85180476804,10.));
#1141=CARTESIAN_POINT('',(1910.47860082026,-9230.85180476804,10.));
#1142=CARTESIAN_POINT('',(1910.47860082026,-9230.85180476804,-5.));
#1143=CARTESIAN_POINT('',(1910.47860082026,-9230.85180476804,10.));
#1144=CARTESIAN_POINT('',(1810.47860082026,-9230.85180476804,-5.));
#1145=CARTESIAN_POINT('Origin',(1910.47860082026,-9260.85180476804,10.));
#1146=CARTESIAN_POINT('',(1910.47860082026,-9340.85180476804,0.));
#1147=CARTESIAN_POINT('',(1910.47860082026,-9270.85180476804,0.));
#1148=CARTESIAN_POINT('',(1910.47860082026,-9260.85180476804,0.));
#1149=CARTESIAN_POINT('',(1910.47860082026,-9270.85180476804,-5.));
#1150=CARTESIAN_POINT('',(1910.47860082026,-9270.85180476804,-5.));
#1151=CARTESIAN_POINT('',(1910.47860082026,-9230.85180476804,-5.));
#1152=CARTESIAN_POINT('',(1910.47860082026,-9340.85180476804,10.));
#1153=CARTESIAN_POINT('',(1910.47860082026,-9260.85180476804,10.));
#1154=CARTESIAN_POINT('',(1910.47860082026,-9340.85180476804,10.));
#1155=CARTESIAN_POINT('Origin',(1810.47860082026,-9260.85180476804,10.));
#1156=CARTESIAN_POINT('',(1810.47860082026,-9230.85180476804,-5.));
#1157=CARTESIAN_POINT('',(1810.47860082026,-9230.85180476804,10.));
#1158=CARTESIAN_POINT('',(1810.47860082026,-9230.85180476804,10.));
#1159=CARTESIAN_POINT('',(1810.47860082026,-9270.85180476804,-5.));
#1160=CARTESIAN_POINT('',(1810.47860082026,-9230.85180476804,-5.));
#1161=CARTESIAN_POINT('',(1810.47860082026,-9270.85180476804,0.));
#1162=CARTESIAN_POINT('',(1810.47860082026,-9270.85180476804,-5.));
#1163=CARTESIAN_POINT('',(1810.47860082026,-9340.85180476804,0.));
#1164=CARTESIAN_POINT('',(1810.47860082026,-9260.85180476804,0.));
#1165=CARTESIAN_POINT('',(1810.47860082026,-9340.85180476804,10.));
#1166=CARTESIAN_POINT('',(1810.47860082026,-9340.85180476804,10.));
#1167=CARTESIAN_POINT('',(1810.47860082026,-9260.85180476804,10.));
#1168=CARTESIAN_POINT('Origin',(1910.47860082026,-9340.85180476804,10.));
#1169=CARTESIAN_POINT('',(1910.47860082026,-9340.85180476804,0.));
#1170=CARTESIAN_POINT('',(1910.47860082026,-9340.85180476804,10.));
#1171=CARTESIAN_POINT('Origin',(0.,0.,10.));
#1172=CARTESIAN_POINT('',(1882.62860082048,-9266.85180476805,10.));
#1173=CARTESIAN_POINT('',(1878.32860082048,-9266.85180476805,10.));
#1174=CARTESIAN_POINT('Origin',(1880.47860082048,-9266.85180476805,10.));
#1175=CARTESIAN_POINT('',(1878.32860082043,1.00017441747855E-11,10.));
#1176=CARTESIAN_POINT('',(1842.62860082048,-9266.85180476805,10.));
#1177=CARTESIAN_POINT('',(1842.62860082043,9.81164843387883E-12,10.));
#1178=CARTESIAN_POINT('',(1838.32860082048,-9266.85180476805,10.));
#1179=CARTESIAN_POINT('Origin',(1840.47860082048,-9266.85180476805,10.));
#1180=CARTESIAN_POINT('',(1838.32860082048,-9230.85180476804,10.));
#1181=CARTESIAN_POINT('',(1838.32860082043,9.78875174799927E-12,10.));
#1182=CARTESIAN_POINT('',(1910.47860082026,-9230.85180476804,10.));
#1183=CARTESIAN_POINT('',(1882.62860082043,1.0024640860665E-11,10.));
#1184=CARTESIAN_POINT('Origin',(1824.4785787297,-9284.85180476805,10.));
#1185=CARTESIAN_POINT('',(1828.87860082026,-9325.85180476804,10.));
#1186=CARTESIAN_POINT('',(1828.87860082026,2.25082611307553E-27,10.));
#1187=CARTESIAN_POINT('',(1820.07860082026,-9325.85180476804,10.));
#1188=CARTESIAN_POINT('Origin',(1824.47860082026,-9325.85180476804,10.));
#1189=CARTESIAN_POINT('',(1820.07860082026,-9316.86574738045,10.));
#1190=CARTESIAN_POINT('',(1820.07860082026,2.23999583172925E-27,10.));
#1191=CARTESIAN_POINT('Origin',(1824.4785787297,-9316.85180476805,10.));
#1192=CARTESIAN_POINT('',(1892.07860082026,-9325.85180476804,10.));
#1193=CARTESIAN_POINT('',(1892.07860082026,-9316.86574738052,10.));
#1194=CARTESIAN_POINT('',(1892.07860082026,2.32860722456241E-27,10.));
#1195=CARTESIAN_POINT('Origin',(1896.4785787297,-9316.85180476805,10.));
#1196=CARTESIAN_POINT('Origin',(1896.4785787297,-9284.85180476805,10.));
#1197=CARTESIAN_POINT('',(1900.87860082026,-9325.85180476804,10.));
#1198=CARTESIAN_POINT('',(1900.87860082026,2.35663925227566E-27,10.));
#1199=CARTESIAN_POINT('Origin',(1896.47860082026,-9325.85180476804,10.));
#1200=CARTESIAN_POINT('Origin',(0.,0.,0.));
#1201=CARTESIAN_POINT('',(1810.47860082026,-9270.85180476804,0.));
#1202=CARTESIAN_POINT('Origin',(1824.4785787297,-9284.85180476805,0.));
#1203=CARTESIAN_POINT('',(1820.07860082026,-9316.86574738045,-2.58220620821943E-16));
#1204=CARTESIAN_POINT('Origin',(1824.4785787297,-9316.85180476805,0.));
#1205=CARTESIAN_POINT('',(1820.07860082026,-9325.85180476804,0.));
#1206=CARTESIAN_POINT('',(1820.07860082026,2.23999583172925E-27,0.));
#1207=CARTESIAN_POINT('',(1828.87860082026,-9325.85180476804,0.));
#1208=CARTESIAN_POINT('Origin',(1824.47860082026,-9325.85180476804,0.));
#1209=CARTESIAN_POINT('',(1828.87860082026,2.25082611307553E-27,0.));
#1210=CARTESIAN_POINT('',(1892.07860082026,-9316.86574738052,-2.5822062082193E-16));
#1211=CARTESIAN_POINT('Origin',(1896.4785787297,-9316.85180476805,0.));
#1212=CARTESIAN_POINT('',(1892.07860082026,-9325.85180476804,0.));
#1213=CARTESIAN_POINT('',(1892.07860082026,2.32860722456241E-27,0.));
#1214=CARTESIAN_POINT('',(1900.87860082026,-9325.85180476804,0.));
#1215=CARTESIAN_POINT('Origin',(1896.47860082026,-9325.85180476804,0.));
#1216=CARTESIAN_POINT('',(1900.87860082026,2.35663925227566E-27,0.));
#1217=CARTESIAN_POINT('Origin',(1896.4785787297,-9284.85180476805,0.));
#1218=CARTESIAN_POINT('Origin',(1892.07860082026,-9280.85180476804,51.9999999999865));
#1219=CARTESIAN_POINT('',(1892.07860082026,-9316.86574738052,51.9999999999994));
#1220=CARTESIAN_POINT('',(1892.07860082026,-9325.85180476804,51.999999999987));
#1221=CARTESIAN_POINT('Origin',(1896.47860082026,-9325.85180476804,51.999999999987));
#1222=CARTESIAN_POINT('',(1900.87860082026,-9325.85180476804,51.999999999987));
#1223=CARTESIAN_POINT('Origin',(1900.87860082026,-9325.85180476804,51.999999999987));
#1224=CARTESIAN_POINT('Origin',(1820.07860082026,-9325.85180476804,51.999999999987));
#1225=CARTESIAN_POINT('',(1820.07860082026,-9316.86574738045,51.9999999999994));
#1226=CARTESIAN_POINT('',(1820.07860082026,-9325.85180476804,51.999999999987));
#1227=CARTESIAN_POINT('Origin',(1824.47860082026,-9325.85180476804,51.999999999987));
#1228=CARTESIAN_POINT('',(1828.87860082026,-9325.85180476804,51.999999999987));
#1229=CARTESIAN_POINT('Origin',(1828.87860082026,-9280.85180476804,51.9999999999865));
#1230=CARTESIAN_POINT('Origin',(0.,-9230.85180476804,0.));
#1231=CARTESIAN_POINT('',(1838.32860082048,-9230.85180476804,-5.));
#1232=CARTESIAN_POINT('',(1838.32860082048,-9230.85180476804,-1.27559671216102E-14));
#1233=CARTESIAN_POINT('',(1810.47860082026,-9230.85180476804,-5.));
#1234=CARTESIAN_POINT('Origin',(1810.47860082026,-9270.85180476804,-5.));
#1235=CARTESIAN_POINT('',(1810.47860082026,-9270.85180476804,-5.));
#1236=CARTESIAN_POINT('Origin',(0.,0.,-5.));
#1237=CARTESIAN_POINT('',(1878.32860082048,-9266.85180476805,-5.));
#1238=CARTESIAN_POINT('',(1878.32860082043,1.00017441747855E-11,-5.));
#1239=CARTESIAN_POINT('',(1882.62860082048,-9266.85180476805,-5.));
#1240=CARTESIAN_POINT('Origin',(1880.47860082048,-9266.85180476805,-5.));
#1241=CARTESIAN_POINT('',(1882.62860082043,1.0024640860665E-11,-5.));
#1242=CARTESIAN_POINT('',(1838.32860082048,-9266.85180476805,-5.));
#1243=CARTESIAN_POINT('',(1838.32860082043,9.78875174799927E-12,-5.));
#1244=CARTESIAN_POINT('',(1842.62860082048,-9266.85180476805,-5.));
#1245=CARTESIAN_POINT('Origin',(1840.47860082048,-9266.85180476805,-5.));
#1246=CARTESIAN_POINT('',(1842.62860082043,9.81164843387883E-12,-5.));
#1247=CARTESIAN_POINT('Origin',(1840.47860082048,-9266.85180476805,12.0000000000069));
#1248=CARTESIAN_POINT('',(1842.62860082048,-9266.85180476805,12.0000000000069));
#1249=CARTESIAN_POINT('',(1838.32860082048,-9266.85180476805,12.0000000000069));
#1250=CARTESIAN_POINT('Origin',(1842.62860082048,-9225.15180476805,12.0000000000069));
#1251=CARTESIAN_POINT('Origin',(1838.32860082048,-9266.85180476805,12.0000000000069));
#1252=CARTESIAN_POINT('Origin',(1878.32860082048,-9266.85180476805,12.0000000000069));
#1253=CARTESIAN_POINT('',(1878.32860082048,-9266.85180476805,12.0000000000069));
#1254=CARTESIAN_POINT('Origin',(1880.47860082048,-9266.85180476805,12.0000000000069));
#1255=CARTESIAN_POINT('',(1882.62860082048,-9266.85180476805,12.0000000000069));
#1256=CARTESIAN_POINT('Origin',(1882.62860082048,-9225.15180476805,12.0000000000069));
#1257=CARTESIAN_POINT('Origin',(1824.4785787297,-9316.85180476805,51.9999999999994));
#1258=CARTESIAN_POINT('Origin',(1824.4785787297,-9284.85180476805,51.9999999999991));
#1259=CARTESIAN_POINT('Origin',(1896.4785787297,-9284.85180476805,51.9999999999991));
#1260=CARTESIAN_POINT('Origin',(1896.4785787297,-9316.85180476805,51.9999999999994));
#1261=UNCERTAINTY_MEASURE_WITH_UNIT(LENGTH_MEASURE(0.01),#1265,
'DISTANCE_ACCURACY_VALUE',
'Maximum model space distance between geometric entities at asserted c
onnectivities');
#1262=UNCERTAINTY_MEASURE_WITH_UNIT(LENGTH_MEASURE(0.01),#1265,
'DISTANCE_ACCURACY_VALUE',
'Maximum model space distance between geometric entities at asserted c
onnectivities');
#1263=(
GEOMETRIC_REPRESENTATION_CONTEXT(3)
GLOBAL_UNCERTAINTY_ASSIGNED_CONTEXT((#1261))
GLOBAL_UNIT_ASSIGNED_CONTEXT((#1265,#1267,#1268))
REPRESENTATION_CONTEXT('','3D')
);
#1264=(
GEOMETRIC_REPRESENTATION_CONTEXT(3)
GLOBAL_UNCERTAINTY_ASSIGNED_CONTEXT((#1262))
GLOBAL_UNIT_ASSIGNED_CONTEXT((#1265,#1267,#1268))
REPRESENTATION_CONTEXT('','3D')
);
#1265=(
LENGTH_UNIT()
NAMED_UNIT(*)
SI_UNIT(.MILLI.,.METRE.)
);
#1266=(
LENGTH_UNIT()
NAMED_UNIT(*)
SI_UNIT($,.METRE.)
);
#1267=(
NAMED_UNIT(*)
PLANE_ANGLE_UNIT()
SI_UNIT($,.RADIAN.)
);
#1268=(
NAMED_UNIT(*)
SI_UNIT($,.STERADIAN.)
SOLID_ANGLE_UNIT()
);
#1269=SHAPE_DEFINITION_REPRESENTATION(#1270,#1271);
#1270=PRODUCT_DEFINITION_SHAPE('',$,#1273);
#1271=SHAPE_REPRESENTATION('',(#769),#1263);
#1272=PRODUCT_DEFINITION_CONTEXT('part definition',#1277,'design');
#1273=PRODUCT_DEFINITION('405_BK12Mount','405_BK12Mount v1',#1274,#1272);
#1274=PRODUCT_DEFINITION_FORMATION('',$,#1279);
#1275=PRODUCT_RELATED_PRODUCT_CATEGORY('405_BK12Mount v1',
'405_BK12Mount v1',(#1279));
#1276=APPLICATION_PROTOCOL_DEFINITION('international standard',
'automotive_design',2009,#1277);
#1277=APPLICATION_CONTEXT(
'Core Data for Automotive Mechanical Design Process');
#1278=PRODUCT_CONTEXT('part definition',#1277,'mechanical');
#1279=PRODUCT('405_BK12Mount','405_BK12Mount v1',$,(#1278));
#1280=PRESENTATION_STYLE_ASSIGNMENT((#1281));
#1281=SURFACE_STYLE_USAGE(.BOTH.,#1282);
#1282=SURFACE_SIDE_STYLE('',(#1283));
#1283=SURFACE_STYLE_FILL_AREA(#1284);
#1284=FILL_AREA_STYLE('Steel - Satin',(#1285));
#1285=FILL_AREA_STYLE_COLOUR('Steel - Satin',#1286);
#1286=COLOUR_RGB('Steel - Satin',0.627450980392157,0.627450980392157,0.627450980392157);
ENDSEC;
END-ISO-10303-21;
