ISO-10303-21;
HEADER;
/* Generated by software containing ST-Developer
 * from STEP Tools, Inc. (www.steptools.com) 
 */

FILE_DESCRIPTION(
/* description */ (''),
/* implementation_level */ '2;1');

FILE_NAME(
/* name */ 'moldA-70 v1.step',
/* time_stamp */ '2026-03-14T09:20:00+01:00',
/* author */ (''),
/* organization */ (''),
/* preprocessor_version */ 'ST-DEVELOPER v20.1',
/* originating_system */ 'Autodesk Translation Framework v14.24.0.0',
/* authorisation */ '');

FILE_SCHEMA (('AUTOMOTIVE_DESIGN { 1 0 10303 214 3 1 1 }'));
ENDSEC;

DATA;
#10=MECHANICAL_DESIGN_GEOMETRIC_PRESENTATION_REPRESENTATION('',(#13),#834);
#11=SHAPE_REPRESENTATION_RELATIONSHIP('SRR','None',#841,#12);
#12=ADVANCED_BREP_SHAPE_REPRESENTATION('',(#14),#833);
#13=STYLED_ITEM('',(#851),#14);
#14=MANIFOLD_SOLID_BREP('Body1',#500);
#15=FACE_BOUND('',#95,.T.);
#16=FACE_BOUND('',#97,.T.);
#17=FACE_BOUND('',#98,.T.);
#18=FACE_BOUND('',#99,.T.);
#19=FACE_BOUND('',#100,.T.);
#20=FACE_BOUND('',#101,.T.);
#21=CYLINDRICAL_SURFACE('',#538,7.74999999999999);
#22=CYLINDRICAL_SURFACE('',#542,7.74999999999999);
#23=CYLINDRICAL_SURFACE('',#546,7.74500146861733);
#24=CYLINDRICAL_SURFACE('',#550,7.74500146861729);
#25=SPHERICAL_SURFACE('',#534,35.);
#26=CIRCLE('',#531,2.64094429979445);
#27=CIRCLE('',#532,2.64094429979445);
#28=CIRCLE('',#533,5.94226497308104);
#29=CIRCLE('',#535,35.);
#30=CIRCLE('',#536,35.);
#31=CIRCLE('',#539,7.74999999999999);
#32=CIRCLE('',#540,7.74999999999999);
#33=CIRCLE('',#543,7.74999999999999);
#34=CIRCLE('',#544,7.74999999999999);
#35=CIRCLE('',#547,7.74500146861733);
#36=CIRCLE('',#548,7.74500146861733);
#37=CIRCLE('',#551,7.74500146861729);
#38=CIRCLE('',#552,7.74500146861729);
#39=CONICAL_SURFACE('',#530,6.00000000000001,0.523598775598299);
#40=FACE_OUTER_BOUND('',#68,.T.);
#41=FACE_OUTER_BOUND('',#69,.T.);
#42=FACE_OUTER_BOUND('',#70,.T.);
#43=FACE_OUTER_BOUND('',#71,.T.);
#44=FACE_OUTER_BOUND('',#72,.T.);
#45=FACE_OUTER_BOUND('',#73,.T.);
#46=FACE_OUTER_BOUND('',#74,.T.);
#47=FACE_OUTER_BOUND('',#75,.T.);
#48=FACE_OUTER_BOUND('',#76,.T.);
#49=FACE_OUTER_BOUND('',#77,.T.);
#50=FACE_OUTER_BOUND('',#78,.T.);
#51=FACE_OUTER_BOUND('',#79,.T.);
#52=FACE_OUTER_BOUND('',#80,.T.);
#53=FACE_OUTER_BOUND('',#81,.T.);
#54=FACE_OUTER_BOUND('',#82,.T.);
#55=FACE_OUTER_BOUND('',#83,.T.);
#56=FACE_OUTER_BOUND('',#84,.T.);
#57=FACE_OUTER_BOUND('',#85,.T.);
#58=FACE_OUTER_BOUND('',#86,.T.);
#59=FACE_OUTER_BOUND('',#87,.T.);
#60=FACE_OUTER_BOUND('',#88,.T.);
#61=FACE_OUTER_BOUND('',#89,.T.);
#62=FACE_OUTER_BOUND('',#90,.T.);
#63=FACE_OUTER_BOUND('',#91,.T.);
#64=FACE_OUTER_BOUND('',#92,.T.);
#65=FACE_OUTER_BOUND('',#93,.T.);
#66=FACE_OUTER_BOUND('',#94,.T.);
#67=FACE_OUTER_BOUND('',#96,.T.);
#68=EDGE_LOOP('',(#318,#319,#320,#321));
#69=EDGE_LOOP('',(#322,#323,#324,#325));
#70=EDGE_LOOP('',(#326,#327,#328,#329));
#71=EDGE_LOOP('',(#330,#331,#332));
#72=EDGE_LOOP('',(#333,#334,#335,#336));
#73=EDGE_LOOP('',(#337,#338,#339,#340));
#74=EDGE_LOOP('',(#341,#342,#343,#344));
#75=EDGE_LOOP('',(#345,#346,#347));
#76=EDGE_LOOP('',(#348,#349,#350,#351));
#77=EDGE_LOOP('',(#352,#353,#354,#355));
#78=EDGE_LOOP('',(#356,#357,#358,#359));
#79=EDGE_LOOP('',(#360,#361,#362));
#80=EDGE_LOOP('',(#363,#364,#365,#366));
#81=EDGE_LOOP('',(#367,#368,#369,#370));
#82=EDGE_LOOP('',(#371,#372,#373,#374));
#83=EDGE_LOOP('',(#375,#376,#377));
#84=EDGE_LOOP('',(#378,#379,#380,#381,#382));
#85=EDGE_LOOP('',(#383,#384,#385,#386,#387));
#86=EDGE_LOOP('',(#388,#389,#390,#391));
#87=EDGE_LOOP('',(#392,#393,#394,#395));
#88=EDGE_LOOP('',(#396,#397,#398,#399));
#89=EDGE_LOOP('',(#400,#401,#402,#403));
#90=EDGE_LOOP('',(#404,#405,#406,#407));
#91=EDGE_LOOP('',(#408,#409,#410,#411));
#92=EDGE_LOOP('',(#412,#413,#414,#415));
#93=EDGE_LOOP('',(#416,#417,#418,#419));
#94=EDGE_LOOP('',(#420,#421,#422,#423,#424,#425,#426,#427));
#95=EDGE_LOOP('',(#428));
#96=EDGE_LOOP('',(#429,#430,#431,#432,#433,#434,#435,#436));
#97=EDGE_LOOP('',(#437,#438,#439));
#98=EDGE_LOOP('',(#440,#441,#442));
#99=EDGE_LOOP('',(#443,#444,#445));
#100=EDGE_LOOP('',(#446,#447,#448));
#101=EDGE_LOOP('',(#449));
#102=LINE('',#696,#155);
#103=LINE('',#698,#156);
#104=LINE('',#700,#157);
#105=LINE('',#701,#158);
#106=LINE('',#704,#159);
#107=LINE('',#706,#160);
#108=LINE('',#707,#161);
#109=LINE('',#709,#162);
#110=LINE('',#710,#163);
#111=LINE('',#715,#164);
#112=LINE('',#717,#165);
#113=LINE('',#719,#166);
#114=LINE('',#720,#167);
#115=LINE('',#723,#168);
#116=LINE('',#725,#169);
#117=LINE('',#726,#170);
#118=LINE('',#728,#171);
#119=LINE('',#729,#172);
#120=LINE('',#734,#173);
#121=LINE('',#736,#174);
#122=LINE('',#738,#175);
#123=LINE('',#739,#176);
#124=LINE('',#742,#177);
#125=LINE('',#744,#178);
#126=LINE('',#745,#179);
#127=LINE('',#747,#180);
#128=LINE('',#748,#181);
#129=LINE('',#753,#182);
#130=LINE('',#755,#183);
#131=LINE('',#757,#184);
#132=LINE('',#758,#185);
#133=LINE('',#761,#186);
#134=LINE('',#763,#187);
#135=LINE('',#764,#188);
#136=LINE('',#766,#189);
#137=LINE('',#767,#190);
#138=LINE('',#775,#191);
#139=LINE('',#784,#192);
#140=LINE('',#786,#193);
#141=LINE('',#788,#194);
#142=LINE('',#789,#195);
#143=LINE('',#794,#196);
#144=LINE('',#798,#197);
#145=LINE('',#800,#198);
#146=LINE('',#801,#199);
#147=LINE('',#806,#200);
#148=LINE('',#810,#201);
#149=LINE('',#812,#202);
#150=LINE('',#813,#203);
#151=LINE('',#818,#204);
#152=LINE('',#822,#205);
#153=LINE('',#824,#206);
#154=LINE('',#825,#207);
#155=VECTOR('',#559,10.);
#156=VECTOR('',#560,10.);
#157=VECTOR('',#561,10.);
#158=VECTOR('',#562,10.);
#159=VECTOR('',#565,10.);
#160=VECTOR('',#566,10.);
#161=VECTOR('',#567,10.);
#162=VECTOR('',#570,10.);
#163=VECTOR('',#571,10.);
#164=VECTOR('',#576,10.);
#165=VECTOR('',#577,10.);
#166=VECTOR('',#578,10.);
#167=VECTOR('',#579,10.);
#168=VECTOR('',#582,10.);
#169=VECTOR('',#583,10.);
#170=VECTOR('',#584,10.);
#171=VECTOR('',#587,10.);
#172=VECTOR('',#588,10.);
#173=VECTOR('',#593,10.);
#174=VECTOR('',#594,10.);
#175=VECTOR('',#595,10.);
#176=VECTOR('',#596,10.);
#177=VECTOR('',#599,10.);
#178=VECTOR('',#600,10.);
#179=VECTOR('',#601,10.);
#180=VECTOR('',#604,10.);
#181=VECTOR('',#605,10.);
#182=VECTOR('',#610,10.);
#183=VECTOR('',#611,10.);
#184=VECTOR('',#612,10.);
#185=VECTOR('',#613,10.);
#186=VECTOR('',#616,10.);
#187=VECTOR('',#617,10.);
#188=VECTOR('',#618,10.);
#189=VECTOR('',#621,10.);
#190=VECTOR('',#622,10.);
#191=VECTOR('',#631,6.00000000000001);
#192=VECTOR('',#642,10.);
#193=VECTOR('',#643,10.);
#194=VECTOR('',#644,10.);
#195=VECTOR('',#645,10.);
#196=VECTOR('',#650,10.);
#197=VECTOR('',#655,10.);
#198=VECTOR('',#656,10.);
#199=VECTOR('',#657,10.);
#200=VECTOR('',#662,10.);
#201=VECTOR('',#667,10.);
#202=VECTOR('',#668,10.);
#203=VECTOR('',#669,10.);
#204=VECTOR('',#674,10.);
#205=VECTOR('',#679,10.);
#206=VECTOR('',#680,10.);
#207=VECTOR('',#681,10.);
#208=VERTEX_POINT('',#694);
#209=VERTEX_POINT('',#695);
#210=VERTEX_POINT('',#697);
#211=VERTEX_POINT('',#699);
#212=VERTEX_POINT('',#703);
#213=VERTEX_POINT('',#705);
#214=VERTEX_POINT('',#713);
#215=VERTEX_POINT('',#714);
#216=VERTEX_POINT('',#716);
#217=VERTEX_POINT('',#718);
#218=VERTEX_POINT('',#722);
#219=VERTEX_POINT('',#724);
#220=VERTEX_POINT('',#732);
#221=VERTEX_POINT('',#733);
#222=VERTEX_POINT('',#735);
#223=VERTEX_POINT('',#737);
#224=VERTEX_POINT('',#741);
#225=VERTEX_POINT('',#743);
#226=VERTEX_POINT('',#751);
#227=VERTEX_POINT('',#752);
#228=VERTEX_POINT('',#754);
#229=VERTEX_POINT('',#756);
#230=VERTEX_POINT('',#760);
#231=VERTEX_POINT('',#762);
#232=VERTEX_POINT('',#770);
#233=VERTEX_POINT('',#771);
#234=VERTEX_POINT('',#774);
#235=VERTEX_POINT('',#778);
#236=VERTEX_POINT('',#782);
#237=VERTEX_POINT('',#783);
#238=VERTEX_POINT('',#785);
#239=VERTEX_POINT('',#787);
#240=VERTEX_POINT('',#791);
#241=VERTEX_POINT('',#793);
#242=VERTEX_POINT('',#797);
#243=VERTEX_POINT('',#799);
#244=VERTEX_POINT('',#803);
#245=VERTEX_POINT('',#805);
#246=VERTEX_POINT('',#809);
#247=VERTEX_POINT('',#811);
#248=VERTEX_POINT('',#815);
#249=VERTEX_POINT('',#817);
#250=VERTEX_POINT('',#821);
#251=VERTEX_POINT('',#823);
#252=EDGE_CURVE('',#208,#209,#102,.T.);
#253=EDGE_CURVE('',#208,#210,#103,.T.);
#254=EDGE_CURVE('',#210,#211,#104,.T.);
#255=EDGE_CURVE('',#209,#211,#105,.T.);
#256=EDGE_CURVE('',#212,#208,#106,.T.);
#257=EDGE_CURVE('',#212,#213,#107,.T.);
#258=EDGE_CURVE('',#213,#210,#108,.T.);
#259=EDGE_CURVE('',#209,#212,#109,.T.);
#260=EDGE_CURVE('',#211,#213,#110,.T.);
#261=EDGE_CURVE('',#214,#215,#111,.T.);
#262=EDGE_CURVE('',#214,#216,#112,.T.);
#263=EDGE_CURVE('',#216,#217,#113,.T.);
#264=EDGE_CURVE('',#215,#217,#114,.T.);
#265=EDGE_CURVE('',#218,#214,#115,.T.);
#266=EDGE_CURVE('',#218,#219,#116,.T.);
#267=EDGE_CURVE('',#219,#216,#117,.T.);
#268=EDGE_CURVE('',#215,#218,#118,.T.);
#269=EDGE_CURVE('',#217,#219,#119,.T.);
#270=EDGE_CURVE('',#220,#221,#120,.T.);
#271=EDGE_CURVE('',#220,#222,#121,.T.);
#272=EDGE_CURVE('',#222,#223,#122,.T.);
#273=EDGE_CURVE('',#221,#223,#123,.T.);
#274=EDGE_CURVE('',#224,#220,#124,.T.);
#275=EDGE_CURVE('',#224,#225,#125,.T.);
#276=EDGE_CURVE('',#225,#222,#126,.T.);
#277=EDGE_CURVE('',#221,#224,#127,.T.);
#278=EDGE_CURVE('',#223,#225,#128,.T.);
#279=EDGE_CURVE('',#226,#227,#129,.T.);
#280=EDGE_CURVE('',#226,#228,#130,.T.);
#281=EDGE_CURVE('',#228,#229,#131,.T.);
#282=EDGE_CURVE('',#227,#229,#132,.T.);
#283=EDGE_CURVE('',#230,#226,#133,.T.);
#284=EDGE_CURVE('',#230,#231,#134,.T.);
#285=EDGE_CURVE('',#231,#228,#135,.T.);
#286=EDGE_CURVE('',#227,#230,#136,.T.);
#287=EDGE_CURVE('',#229,#231,#137,.T.);
#288=EDGE_CURVE('',#232,#233,#26,.T.);
#289=EDGE_CURVE('',#233,#232,#27,.T.);
#290=EDGE_CURVE('',#233,#234,#138,.T.);
#291=EDGE_CURVE('',#234,#234,#28,.T.);
#292=EDGE_CURVE('',#232,#235,#29,.T.);
#293=EDGE_CURVE('',#235,#235,#30,.T.);
#294=EDGE_CURVE('',#236,#237,#139,.T.);
#295=EDGE_CURVE('',#238,#237,#140,.T.);
#296=EDGE_CURVE('',#238,#239,#141,.T.);
#297=EDGE_CURVE('',#239,#236,#142,.T.);
#298=EDGE_CURVE('',#237,#240,#31,.T.);
#299=EDGE_CURVE('',#241,#240,#143,.T.);
#300=EDGE_CURVE('',#241,#238,#32,.T.);
#301=EDGE_CURVE('',#240,#242,#144,.T.);
#302=EDGE_CURVE('',#243,#242,#145,.T.);
#303=EDGE_CURVE('',#243,#241,#146,.T.);
#304=EDGE_CURVE('',#242,#244,#33,.T.);
#305=EDGE_CURVE('',#245,#244,#147,.T.);
#306=EDGE_CURVE('',#245,#243,#34,.T.);
#307=EDGE_CURVE('',#244,#246,#148,.T.);
#308=EDGE_CURVE('',#247,#246,#149,.T.);
#309=EDGE_CURVE('',#245,#247,#150,.T.);
#310=EDGE_CURVE('',#246,#248,#35,.T.);
#311=EDGE_CURVE('',#249,#248,#151,.T.);
#312=EDGE_CURVE('',#249,#247,#36,.T.);
#313=EDGE_CURVE('',#248,#250,#152,.T.);
#314=EDGE_CURVE('',#251,#250,#153,.T.);
#315=EDGE_CURVE('',#249,#251,#154,.T.);
#316=EDGE_CURVE('',#250,#236,#37,.T.);
#317=EDGE_CURVE('',#239,#251,#38,.T.);
#318=ORIENTED_EDGE('',*,*,#252,.F.);
#319=ORIENTED_EDGE('',*,*,#253,.T.);
#320=ORIENTED_EDGE('',*,*,#254,.T.);
#321=ORIENTED_EDGE('',*,*,#255,.F.);
#322=ORIENTED_EDGE('',*,*,#256,.F.);
#323=ORIENTED_EDGE('',*,*,#257,.T.);
#324=ORIENTED_EDGE('',*,*,#258,.T.);
#325=ORIENTED_EDGE('',*,*,#253,.F.);
#326=ORIENTED_EDGE('',*,*,#259,.F.);
#327=ORIENTED_EDGE('',*,*,#255,.T.);
#328=ORIENTED_EDGE('',*,*,#260,.T.);
#329=ORIENTED_EDGE('',*,*,#257,.F.);
#330=ORIENTED_EDGE('',*,*,#260,.F.);
#331=ORIENTED_EDGE('',*,*,#254,.F.);
#332=ORIENTED_EDGE('',*,*,#258,.F.);
#333=ORIENTED_EDGE('',*,*,#261,.F.);
#334=ORIENTED_EDGE('',*,*,#262,.T.);
#335=ORIENTED_EDGE('',*,*,#263,.T.);
#336=ORIENTED_EDGE('',*,*,#264,.F.);
#337=ORIENTED_EDGE('',*,*,#265,.F.);
#338=ORIENTED_EDGE('',*,*,#266,.T.);
#339=ORIENTED_EDGE('',*,*,#267,.T.);
#340=ORIENTED_EDGE('',*,*,#262,.F.);
#341=ORIENTED_EDGE('',*,*,#268,.F.);
#342=ORIENTED_EDGE('',*,*,#264,.T.);
#343=ORIENTED_EDGE('',*,*,#269,.T.);
#344=ORIENTED_EDGE('',*,*,#266,.F.);
#345=ORIENTED_EDGE('',*,*,#269,.F.);
#346=ORIENTED_EDGE('',*,*,#263,.F.);
#347=ORIENTED_EDGE('',*,*,#267,.F.);
#348=ORIENTED_EDGE('',*,*,#270,.F.);
#349=ORIENTED_EDGE('',*,*,#271,.T.);
#350=ORIENTED_EDGE('',*,*,#272,.T.);
#351=ORIENTED_EDGE('',*,*,#273,.F.);
#352=ORIENTED_EDGE('',*,*,#274,.F.);
#353=ORIENTED_EDGE('',*,*,#275,.T.);
#354=ORIENTED_EDGE('',*,*,#276,.T.);
#355=ORIENTED_EDGE('',*,*,#271,.F.);
#356=ORIENTED_EDGE('',*,*,#277,.F.);
#357=ORIENTED_EDGE('',*,*,#273,.T.);
#358=ORIENTED_EDGE('',*,*,#278,.T.);
#359=ORIENTED_EDGE('',*,*,#275,.F.);
#360=ORIENTED_EDGE('',*,*,#278,.F.);
#361=ORIENTED_EDGE('',*,*,#272,.F.);
#362=ORIENTED_EDGE('',*,*,#276,.F.);
#363=ORIENTED_EDGE('',*,*,#279,.F.);
#364=ORIENTED_EDGE('',*,*,#280,.T.);
#365=ORIENTED_EDGE('',*,*,#281,.T.);
#366=ORIENTED_EDGE('',*,*,#282,.F.);
#367=ORIENTED_EDGE('',*,*,#283,.F.);
#368=ORIENTED_EDGE('',*,*,#284,.T.);
#369=ORIENTED_EDGE('',*,*,#285,.T.);
#370=ORIENTED_EDGE('',*,*,#280,.F.);
#371=ORIENTED_EDGE('',*,*,#286,.F.);
#372=ORIENTED_EDGE('',*,*,#282,.T.);
#373=ORIENTED_EDGE('',*,*,#287,.T.);
#374=ORIENTED_EDGE('',*,*,#284,.F.);
#375=ORIENTED_EDGE('',*,*,#287,.F.);
#376=ORIENTED_EDGE('',*,*,#281,.F.);
#377=ORIENTED_EDGE('',*,*,#285,.F.);
#378=ORIENTED_EDGE('',*,*,#288,.F.);
#379=ORIENTED_EDGE('',*,*,#289,.F.);
#380=ORIENTED_EDGE('',*,*,#290,.T.);
#381=ORIENTED_EDGE('',*,*,#291,.F.);
#382=ORIENTED_EDGE('',*,*,#290,.F.);
#383=ORIENTED_EDGE('',*,*,#288,.T.);
#384=ORIENTED_EDGE('',*,*,#289,.T.);
#385=ORIENTED_EDGE('',*,*,#292,.T.);
#386=ORIENTED_EDGE('',*,*,#293,.F.);
#387=ORIENTED_EDGE('',*,*,#292,.F.);
#388=ORIENTED_EDGE('',*,*,#294,.T.);
#389=ORIENTED_EDGE('',*,*,#295,.F.);
#390=ORIENTED_EDGE('',*,*,#296,.T.);
#391=ORIENTED_EDGE('',*,*,#297,.T.);
#392=ORIENTED_EDGE('',*,*,#298,.T.);
#393=ORIENTED_EDGE('',*,*,#299,.F.);
#394=ORIENTED_EDGE('',*,*,#300,.T.);
#395=ORIENTED_EDGE('',*,*,#295,.T.);
#396=ORIENTED_EDGE('',*,*,#301,.T.);
#397=ORIENTED_EDGE('',*,*,#302,.F.);
#398=ORIENTED_EDGE('',*,*,#303,.T.);
#399=ORIENTED_EDGE('',*,*,#299,.T.);
#400=ORIENTED_EDGE('',*,*,#304,.T.);
#401=ORIENTED_EDGE('',*,*,#305,.F.);
#402=ORIENTED_EDGE('',*,*,#306,.T.);
#403=ORIENTED_EDGE('',*,*,#302,.T.);
#404=ORIENTED_EDGE('',*,*,#307,.T.);
#405=ORIENTED_EDGE('',*,*,#308,.F.);
#406=ORIENTED_EDGE('',*,*,#309,.F.);
#407=ORIENTED_EDGE('',*,*,#305,.T.);
#408=ORIENTED_EDGE('',*,*,#310,.T.);
#409=ORIENTED_EDGE('',*,*,#311,.F.);
#410=ORIENTED_EDGE('',*,*,#312,.T.);
#411=ORIENTED_EDGE('',*,*,#308,.T.);
#412=ORIENTED_EDGE('',*,*,#313,.T.);
#413=ORIENTED_EDGE('',*,*,#314,.F.);
#414=ORIENTED_EDGE('',*,*,#315,.F.);
#415=ORIENTED_EDGE('',*,*,#311,.T.);
#416=ORIENTED_EDGE('',*,*,#316,.T.);
#417=ORIENTED_EDGE('',*,*,#297,.F.);
#418=ORIENTED_EDGE('',*,*,#317,.T.);
#419=ORIENTED_EDGE('',*,*,#314,.T.);
#420=ORIENTED_EDGE('',*,*,#306,.F.);
#421=ORIENTED_EDGE('',*,*,#309,.T.);
#422=ORIENTED_EDGE('',*,*,#312,.F.);
#423=ORIENTED_EDGE('',*,*,#315,.T.);
#424=ORIENTED_EDGE('',*,*,#317,.F.);
#425=ORIENTED_EDGE('',*,*,#296,.F.);
#426=ORIENTED_EDGE('',*,*,#300,.F.);
#427=ORIENTED_EDGE('',*,*,#303,.F.);
#428=ORIENTED_EDGE('',*,*,#291,.T.);
#429=ORIENTED_EDGE('',*,*,#307,.F.);
#430=ORIENTED_EDGE('',*,*,#304,.F.);
#431=ORIENTED_EDGE('',*,*,#301,.F.);
#432=ORIENTED_EDGE('',*,*,#298,.F.);
#433=ORIENTED_EDGE('',*,*,#294,.F.);
#434=ORIENTED_EDGE('',*,*,#316,.F.);
#435=ORIENTED_EDGE('',*,*,#313,.F.);
#436=ORIENTED_EDGE('',*,*,#310,.F.);
#437=ORIENTED_EDGE('',*,*,#252,.T.);
#438=ORIENTED_EDGE('',*,*,#259,.T.);
#439=ORIENTED_EDGE('',*,*,#256,.T.);
#440=ORIENTED_EDGE('',*,*,#261,.T.);
#441=ORIENTED_EDGE('',*,*,#268,.T.);
#442=ORIENTED_EDGE('',*,*,#265,.T.);
#443=ORIENTED_EDGE('',*,*,#270,.T.);
#444=ORIENTED_EDGE('',*,*,#277,.T.);
#445=ORIENTED_EDGE('',*,*,#274,.T.);
#446=ORIENTED_EDGE('',*,*,#279,.T.);
#447=ORIENTED_EDGE('',*,*,#286,.T.);
#448=ORIENTED_EDGE('',*,*,#283,.T.);
#449=ORIENTED_EDGE('',*,*,#293,.T.);
#450=PLANE('',#514);
#451=PLANE('',#515);
#452=PLANE('',#516);
#453=PLANE('',#517);
#454=PLANE('',#518);
#455=PLANE('',#519);
#456=PLANE('',#520);
#457=PLANE('',#521);
#458=PLANE('',#522);
#459=PLANE('',#523);
#460=PLANE('',#524);
#461=PLANE('',#525);
#462=PLANE('',#526);
#463=PLANE('',#527);
#464=PLANE('',#528);
#465=PLANE('',#529);
#466=PLANE('',#537);
#467=PLANE('',#541);
#468=PLANE('',#545);
#469=PLANE('',#549);
#470=PLANE('',#553);
#471=PLANE('',#554);
#472=ADVANCED_FACE('',(#40),#450,.F.);
#473=ADVANCED_FACE('',(#41),#451,.F.);
#474=ADVANCED_FACE('',(#42),#452,.F.);
#475=ADVANCED_FACE('',(#43),#453,.F.);
#476=ADVANCED_FACE('',(#44),#454,.F.);
#477=ADVANCED_FACE('',(#45),#455,.F.);
#478=ADVANCED_FACE('',(#46),#456,.F.);
#479=ADVANCED_FACE('',(#47),#457,.F.);
#480=ADVANCED_FACE('',(#48),#458,.F.);
#481=ADVANCED_FACE('',(#49),#459,.F.);
#482=ADVANCED_FACE('',(#50),#460,.F.);
#483=ADVANCED_FACE('',(#51),#461,.F.);
#484=ADVANCED_FACE('',(#52),#462,.F.);
#485=ADVANCED_FACE('',(#53),#463,.F.);
#486=ADVANCED_FACE('',(#54),#464,.F.);
#487=ADVANCED_FACE('',(#55),#465,.F.);
#488=ADVANCED_FACE('',(#56),#39,.F.);
#489=ADVANCED_FACE('',(#57),#25,.F.);
#490=ADVANCED_FACE('',(#58),#466,.T.);
#491=ADVANCED_FACE('',(#59),#21,.T.);
#492=ADVANCED_FACE('',(#60),#467,.T.);
#493=ADVANCED_FACE('',(#61),#22,.T.);
#494=ADVANCED_FACE('',(#62),#468,.T.);
#495=ADVANCED_FACE('',(#63),#23,.T.);
#496=ADVANCED_FACE('',(#64),#469,.T.);
#497=ADVANCED_FACE('',(#65),#24,.T.);
#498=ADVANCED_FACE('',(#66,#15),#470,.F.);
#499=ADVANCED_FACE('',(#67,#16,#17,#18,#19,#20),#471,.T.);
#500=CLOSED_SHELL('',(#472,#473,#474,#475,#476,#477,#478,#479,#480,#481,
#482,#483,#484,#485,#486,#487,#488,#489,#490,#491,#492,#493,#494,#495,#496,
#497,#498,#499));
#501=DERIVED_UNIT_ELEMENT(#503,1.);
#502=DERIVED_UNIT_ELEMENT(#836,-3.);
#503=(
MASS_UNIT()
NAMED_UNIT(*)
SI_UNIT(.KILO.,.GRAM.)
);
#504=DERIVED_UNIT((#501,#502));
#505=MEASURE_REPRESENTATION_ITEM('density measure',
POSITIVE_RATIO_MEASURE(7850.),#504);
#506=PROPERTY_DEFINITION_REPRESENTATION(#511,#508);
#507=PROPERTY_DEFINITION_REPRESENTATION(#512,#509);
#508=REPRESENTATION('material name',(#510),#833);
#509=REPRESENTATION('density',(#505),#833);
#510=DESCRIPTIVE_REPRESENTATION_ITEM('Steel','Steel');
#511=PROPERTY_DEFINITION('material property','material name',#843);
#512=PROPERTY_DEFINITION('material property','density of part',#843);
#513=AXIS2_PLACEMENT_3D('',#692,#555,#556);
#514=AXIS2_PLACEMENT_3D('',#693,#557,#558);
#515=AXIS2_PLACEMENT_3D('',#702,#563,#564);
#516=AXIS2_PLACEMENT_3D('',#708,#568,#569);
#517=AXIS2_PLACEMENT_3D('',#711,#572,#573);
#518=AXIS2_PLACEMENT_3D('',#712,#574,#575);
#519=AXIS2_PLACEMENT_3D('',#721,#580,#581);
#520=AXIS2_PLACEMENT_3D('',#727,#585,#586);
#521=AXIS2_PLACEMENT_3D('',#730,#589,#590);
#522=AXIS2_PLACEMENT_3D('',#731,#591,#592);
#523=AXIS2_PLACEMENT_3D('',#740,#597,#598);
#524=AXIS2_PLACEMENT_3D('',#746,#602,#603);
#525=AXIS2_PLACEMENT_3D('',#749,#606,#607);
#526=AXIS2_PLACEMENT_3D('',#750,#608,#609);
#527=AXIS2_PLACEMENT_3D('',#759,#614,#615);
#528=AXIS2_PLACEMENT_3D('',#765,#619,#620);
#529=AXIS2_PLACEMENT_3D('',#768,#623,#624);
#530=AXIS2_PLACEMENT_3D('',#769,#625,#626);
#531=AXIS2_PLACEMENT_3D('',#772,#627,#628);
#532=AXIS2_PLACEMENT_3D('',#773,#629,#630);
#533=AXIS2_PLACEMENT_3D('',#776,#632,#633);
#534=AXIS2_PLACEMENT_3D('',#777,#634,#635);
#535=AXIS2_PLACEMENT_3D('',#779,#636,#637);
#536=AXIS2_PLACEMENT_3D('',#780,#638,#639);
#537=AXIS2_PLACEMENT_3D('',#781,#640,#641);
#538=AXIS2_PLACEMENT_3D('',#790,#646,#647);
#539=AXIS2_PLACEMENT_3D('',#792,#648,#649);
#540=AXIS2_PLACEMENT_3D('',#795,#651,#652);
#541=AXIS2_PLACEMENT_3D('',#796,#653,#654);
#542=AXIS2_PLACEMENT_3D('',#802,#658,#659);
#543=AXIS2_PLACEMENT_3D('',#804,#660,#661);
#544=AXIS2_PLACEMENT_3D('',#807,#663,#664);
#545=AXIS2_PLACEMENT_3D('',#808,#665,#666);
#546=AXIS2_PLACEMENT_3D('',#814,#670,#671);
#547=AXIS2_PLACEMENT_3D('',#816,#672,#673);
#548=AXIS2_PLACEMENT_3D('',#819,#675,#676);
#549=AXIS2_PLACEMENT_3D('',#820,#677,#678);
#550=AXIS2_PLACEMENT_3D('',#826,#682,#683);
#551=AXIS2_PLACEMENT_3D('',#827,#684,#685);
#552=AXIS2_PLACEMENT_3D('',#828,#686,#687);
#553=AXIS2_PLACEMENT_3D('',#829,#688,#689);
#554=AXIS2_PLACEMENT_3D('',#830,#690,#691);
#555=DIRECTION('axis',(0.,0.,1.));
#556=DIRECTION('refdir',(1.,0.,0.));
#557=DIRECTION('center_axis',(0.871118561189104,0.,0.491072756678505));
#558=DIRECTION('ref_axis',(-0.491072756678505,0.,0.871118561189104));
#559=DIRECTION('',(-0.491072756678505,0.,0.871118561189104));
#560=DIRECTION('',(0.,-1.,0.));
#561=DIRECTION('',(-0.491072756678505,0.,0.871118561189104));
#562=DIRECTION('',(0.,-1.,0.));
#563=DIRECTION('center_axis',(-0.0102777982045128,0.,-0.999947182037165));
#564=DIRECTION('ref_axis',(0.999947182037165,0.,-0.0102777982045128));
#565=DIRECTION('',(0.999947182037165,0.,-0.0102777982045128));
#566=DIRECTION('',(0.,-1.,0.));
#567=DIRECTION('',(0.999947182037165,0.,-0.0102777982045128));
#568=DIRECTION('center_axis',(-0.860840762984591,0.,0.508874425358661));
#569=DIRECTION('ref_axis',(-0.508874425358661,0.,-0.860840762984591));
#570=DIRECTION('',(-0.508874425358661,0.,-0.860840762984591));
#571=DIRECTION('',(-0.508874425358661,0.,-0.860840762984591));
#572=DIRECTION('center_axis',(0.,-1.,0.));
#573=DIRECTION('ref_axis',(0.,0.,-1.));
#574=DIRECTION('center_axis',(0.871118561189104,0.,0.491072756678505));
#575=DIRECTION('ref_axis',(-0.491072756678505,0.,0.871118561189104));
#576=DIRECTION('',(-0.491072756678505,0.,0.871118561189104));
#577=DIRECTION('',(0.,-1.,0.));
#578=DIRECTION('',(-0.491072756678505,0.,0.871118561189104));
#579=DIRECTION('',(0.,-1.,0.));
#580=DIRECTION('center_axis',(-0.0102777982045132,0.,-0.999947182037165));
#581=DIRECTION('ref_axis',(0.999947182037165,0.,-0.0102777982045132));
#582=DIRECTION('',(0.999947182037165,0.,-0.0102777982045132));
#583=DIRECTION('',(0.,-1.,0.));
#584=DIRECTION('',(0.999947182037165,0.,-0.0102777982045132));
#585=DIRECTION('center_axis',(-0.860840762984591,0.,0.508874425358661));
#586=DIRECTION('ref_axis',(-0.508874425358661,0.,-0.860840762984591));
#587=DIRECTION('',(-0.508874425358661,0.,-0.860840762984591));
#588=DIRECTION('',(-0.508874425358661,0.,-0.860840762984591));
#589=DIRECTION('center_axis',(0.,-1.,0.));
#590=DIRECTION('ref_axis',(0.,0.,-1.));
#591=DIRECTION('center_axis',(-0.0102777982045128,0.,-0.999947182037165));
#592=DIRECTION('ref_axis',(0.999947182037165,0.,-0.0102777982045128));
#593=DIRECTION('',(0.999947182037165,0.,-0.0102777982045128));
#594=DIRECTION('',(0.,-1.,0.));
#595=DIRECTION('',(0.999947182037165,0.,-0.0102777982045128));
#596=DIRECTION('',(0.,-1.,0.));
#597=DIRECTION('center_axis',(-0.860840762984591,0.,0.508874425358661));
#598=DIRECTION('ref_axis',(-0.508874425358661,0.,-0.860840762984591));
#599=DIRECTION('',(-0.508874425358661,0.,-0.860840762984591));
#600=DIRECTION('',(0.,-1.,0.));
#601=DIRECTION('',(-0.508874425358661,0.,-0.860840762984591));
#602=DIRECTION('center_axis',(0.871118561189104,0.,0.491072756678504));
#603=DIRECTION('ref_axis',(-0.491072756678504,0.,0.871118561189104));
#604=DIRECTION('',(-0.491072756678504,0.,0.871118561189104));
#605=DIRECTION('',(-0.491072756678504,0.,0.871118561189104));
#606=DIRECTION('center_axis',(0.,-1.,0.));
#607=DIRECTION('ref_axis',(0.,0.,-1.));
#608=DIRECTION('center_axis',(-0.0102777982045132,0.,-0.999947182037165));
#609=DIRECTION('ref_axis',(0.999947182037165,0.,-0.0102777982045132));
#610=DIRECTION('',(0.999947182037165,0.,-0.0102777982045132));
#611=DIRECTION('',(0.,-1.,0.));
#612=DIRECTION('',(0.999947182037165,0.,-0.0102777982045132));
#613=DIRECTION('',(0.,-1.,0.));
#614=DIRECTION('center_axis',(-0.860840762984591,0.,0.508874425358661));
#615=DIRECTION('ref_axis',(-0.508874425358661,0.,-0.860840762984591));
#616=DIRECTION('',(-0.508874425358661,0.,-0.860840762984591));
#617=DIRECTION('',(0.,-1.,0.));
#618=DIRECTION('',(-0.508874425358661,0.,-0.860840762984591));
#619=DIRECTION('center_axis',(0.871118561189104,0.,0.491072756678504));
#620=DIRECTION('ref_axis',(-0.491072756678504,0.,0.871118561189104));
#621=DIRECTION('',(-0.491072756678504,0.,0.871118561189104));
#622=DIRECTION('',(-0.491072756678504,0.,0.871118561189104));
#623=DIRECTION('center_axis',(0.,-1.,0.));
#624=DIRECTION('ref_axis',(0.,0.,-1.));
#625=DIRECTION('center_axis',(-1.04117657788144E-14,-1.,6.20246464349967E-17));
#626=DIRECTION('ref_axis',(-1.,1.04117657788144E-14,3.8563640269809E-33));
#627=DIRECTION('center_axis',(-1.04117657788144E-14,-1.,6.20246464349967E-17));
#628=DIRECTION('ref_axis',(-1.,1.04117657788144E-14,1.88596556820476E-31));
#629=DIRECTION('center_axis',(-1.04117657788144E-14,-1.,6.20246464349967E-17));
#630=DIRECTION('ref_axis',(-1.,1.04117657788144E-14,1.88596556820476E-31));
#631=DIRECTION('',(0.499999999999991,-0.866025403784444,1.14947259430823E-16));
#632=DIRECTION('center_axis',(1.04734898904655E-14,1.,6.53128396278663E-16));
#633=DIRECTION('ref_axis',(-1.,1.04734898904655E-14,-2.94531259899962E-34));
#634=DIRECTION('center_axis',(0.,1.,-1.22464679914735E-16));
#635=DIRECTION('ref_axis',(0.,0.,-1.));
#636=DIRECTION('center_axis',(-1.,7.49879891330929E-33,1.22464679914735E-16));
#637=DIRECTION('ref_axis',(1.22464679914735E-16,0.,1.));
#638=DIRECTION('center_axis',(0.,-1.,0.));
#639=DIRECTION('ref_axis',(0.,0.,-1.));
#640=DIRECTION('center_axis',(3.40686194727244E-12,-5.94893748374776E-16,
1.));
#641=DIRECTION('ref_axis',(1.,-1.04370072952519E-14,-3.40686194727244E-12));
#642=DIRECTION('',(-1.,0.,3.40686194727244E-12));
#643=DIRECTION('',(1.05097895539885E-14,1.,5.94893748338971E-16));
#644=DIRECTION('',(1.,-1.04370072952519E-14,-3.40686194727244E-12));
#645=DIRECTION('',(1.05097895539885E-14,1.,5.94893748338971E-16));
#646=DIRECTION('center_axis',(1.05097895539885E-14,1.,5.94893748338971E-16));
#647=DIRECTION('ref_axis',(-1.,1.05097895539885E-14,-1.14603667058081E-15));
#648=DIRECTION('center_axis',(0.,-1.,0.));
#649=DIRECTION('ref_axis',(-1.,0.,-1.14603667058081E-15));
#650=DIRECTION('',(1.05097895539885E-14,1.,5.94893748338971E-16));
#651=DIRECTION('center_axis',(1.05940344292863E-14,1.,-6.20246464349963E-17));
#652=DIRECTION('ref_axis',(-1.,1.05940344292863E-14,-1.14603667058081E-15));
#653=DIRECTION('center_axis',(-1.,1.05097895539885E-14,-7.79103876929934E-17));
#654=DIRECTION('ref_axis',(-7.79103876929939E-17,-4.47289164542218E-17,
1.));
#655=DIRECTION('',(7.79103876929934E-17,0.,-1.));
#656=DIRECTION('',(1.05097895539885E-14,1.,5.94893748338971E-16));
#657=DIRECTION('',(-7.79103876929939E-17,-4.47289164542218E-17,1.));
#658=DIRECTION('center_axis',(1.05097895539885E-14,1.,5.94893748338971E-16));
#659=DIRECTION('ref_axis',(6.25443162799639E-30,5.94893748338971E-16,-1.));
#660=DIRECTION('center_axis',(0.,-1.,0.));
#661=DIRECTION('ref_axis',(6.25443162799639E-30,0.,-1.));
#662=DIRECTION('',(1.05097895539885E-14,1.,5.94893748338971E-16));
#663=DIRECTION('center_axis',(1.04739408136469E-14,1.,-6.20246464349967E-17));
#664=DIRECTION('ref_axis',(-6.4964245522194E-31,-6.20246464349967E-17,-1.));
#665=DIRECTION('center_axis',(-7.79103079782335E-17,5.94893748338971E-16,
-1.));
#666=DIRECTION('ref_axis',(-1.,1.03884207739073E-14,7.79103079782397E-17));
#667=DIRECTION('',(1.,0.,-7.79103079782335E-17));
#668=DIRECTION('',(1.05097895539885E-14,1.,5.94893748338971E-16));
#669=DIRECTION('',(1.,-1.03884207739073E-14,-7.79103079782397E-17));
#670=DIRECTION('center_axis',(1.05097895539885E-14,1.,5.94893748338971E-16));
#671=DIRECTION('ref_axis',(0.999999801218017,-1.05101625612267E-14,0.000630526705104479));
#672=DIRECTION('center_axis',(0.,-1.,0.));
#673=DIRECTION('ref_axis',(0.999999801218017,0.,0.000630526705104479));
#674=DIRECTION('',(1.05097895539885E-14,1.,5.94893748338971E-16));
#675=DIRECTION('center_axis',(1.04739418996219E-14,1.,-6.202464575026E-17));
#676=DIRECTION('ref_axis',(0.999999801218017,-1.04739007093954E-14,0.000630526705104479));
#677=DIRECTION('center_axis',(1.,-1.05097895539865E-14,-3.40685846151303E-12));
#678=DIRECTION('ref_axis',(-3.40685846151303E-12,4.64130910915779E-17,-1.));
#679=DIRECTION('',(3.40685846151303E-12,0.,1.));
#680=DIRECTION('',(1.05097895539885E-14,1.,5.94893748338971E-16));
#681=DIRECTION('',(3.40685846151303E-12,-4.64130910915779E-17,1.));
#682=DIRECTION('center_axis',(1.05097895539885E-14,1.,5.94893748338971E-16));
#683=DIRECTION('ref_axis',(-0.000630526705117097,-5.88266927105862E-16,
0.999999801218017));
#684=DIRECTION('center_axis',(0.,-1.,0.));
#685=DIRECTION('ref_axis',(-0.000630526705117097,0.,0.999999801218017));
#686=DIRECTION('center_axis',(1.04734898904655E-14,1.,6.53128396278662E-16));
#687=DIRECTION('ref_axis',(-0.000630526705117097,-6.46524451376792E-16,
0.999999801218017));
#688=DIRECTION('center_axis',(1.04734898904655E-14,1.,6.53128396278663E-16));
#689=DIRECTION('ref_axis',(-1.,1.04734898904655E-14,2.79478253016996E-35));
#690=DIRECTION('center_axis',(0.,1.,0.));
#691=DIRECTION('ref_axis',(0.,0.,1.));
#692=CARTESIAN_POINT('',(0.,0.,0.));
#693=CARTESIAN_POINT('Origin',(55.2751931280202,-49.2817240429281,36.6398866325895));
#694=CARTESIAN_POINT('',(55.2751931280202,-49.2817240429281,36.6398866325895));
#695=CARTESIAN_POINT('',(44.6431560682692,-49.2817240429281,55.5001567250373));
#696=CARTESIAN_POINT('',(56.4472718920913,-49.2817240429281,34.560725138346));
#697=CARTESIAN_POINT('',(55.2751931280202,-55.6817240429281,36.6398866325895));
#698=CARTESIAN_POINT('',(55.2751931280202,-49.2817240429281,36.6398866325895));
#699=CARTESIAN_POINT('',(44.6431560682692,-55.6817240429281,55.5001567250373));
#700=CARTESIAN_POINT('',(55.2751931280202,-55.6817240429281,36.6398866325895));
#701=CARTESIAN_POINT('',(44.6431560682692,-49.2817240429281,55.5001567250373));
#702=CARTESIAN_POINT('Origin',(33.625701575849,-49.2817240429281,36.8624074910915));
#703=CARTESIAN_POINT('',(33.625701575849,-49.2817240429281,36.8624074910915));
#704=CARTESIAN_POINT('',(17.0040493541716,-49.2817240429281,37.0332505020313));
#705=CARTESIAN_POINT('',(33.625701575849,-55.6817240429281,36.8624074910915));
#706=CARTESIAN_POINT('',(33.625701575849,-49.2817240429281,36.8624074910915));
#707=CARTESIAN_POINT('',(33.625701575849,-55.6817240429281,36.8624074910915));
#708=CARTESIAN_POINT('Origin',(44.6431560682692,-49.2817240429281,55.5001567250373));
#709=CARTESIAN_POINT('',(26.7067174100328,-49.2817240429281,25.1578624961615));
#710=CARTESIAN_POINT('',(44.6431560682692,-55.6817240429281,55.5001567250373));
#711=CARTESIAN_POINT('Origin',(44.4504473519346,-55.6817240429281,46.0700216788134));
#712=CARTESIAN_POINT('Origin',(55.2751931280202,-49.2817240429281,-52.3071133674105));
#713=CARTESIAN_POINT('',(55.2751931280202,-49.2817240429281,-52.3071133674105));
#714=CARTESIAN_POINT('',(44.6431560682692,-49.2817240429281,-33.4468432749627));
#715=CARTESIAN_POINT('',(37.422282731768,-49.2817240429281,-20.6376684513229));
#716=CARTESIAN_POINT('',(55.2751931280202,-55.6817240429281,-52.3071133674105));
#717=CARTESIAN_POINT('',(55.2751931280202,-49.2817240429281,-52.3071133674105));
#718=CARTESIAN_POINT('',(44.6431560682692,-55.6817240429281,-33.4468432749627));
#719=CARTESIAN_POINT('',(55.2751931280202,-55.6817240429281,-52.3071133674105));
#720=CARTESIAN_POINT('',(44.6431560682692,-49.2817240429281,-33.4468432749627));
#721=CARTESIAN_POINT('Origin',(33.625701575849,-49.2817240429281,-52.0845925089085));
#722=CARTESIAN_POINT('',(33.625701575849,-49.2817240429281,-52.0845925089085));
#723=CARTESIAN_POINT('',(16.5469838382678,-49.2817240429281,-51.9090516226978));
#724=CARTESIAN_POINT('',(33.625701575849,-55.6817240429281,-52.0845925089085));
#725=CARTESIAN_POINT('',(33.625701575849,-49.2817240429281,-52.0845925089085));
#726=CARTESIAN_POINT('',(33.625701575849,-55.6817240429281,-52.0845925089085));
#727=CARTESIAN_POINT('Origin',(44.6431560682692,-49.2817240429281,-33.4468432749627));
#728=CARTESIAN_POINT('',(46.1887720862599,-49.2817240429281,-30.8321917894405));
#729=CARTESIAN_POINT('',(44.6431560682692,-55.6817240429281,-33.4468432749627));
#730=CARTESIAN_POINT('Origin',(44.4504473519346,-55.6817240429281,-42.8769783211866));
#731=CARTESIAN_POINT('Origin',(-54.839298424151,-49.2817240429281,36.8624074910915));
#732=CARTESIAN_POINT('',(-54.839298424151,-49.2817240429281,36.8624074910915));
#733=CARTESIAN_POINT('',(-33.1898068719798,-49.2817240429281,36.6398866325895));
#734=CARTESIAN_POINT('',(-27.2331230635135,-49.2817240429281,36.5786618046673));
#735=CARTESIAN_POINT('',(-54.839298424151,-55.6817240429281,36.8624074910915));
#736=CARTESIAN_POINT('',(-54.839298424151,-49.2817240429281,36.8624074910915));
#737=CARTESIAN_POINT('',(-33.1898068719798,-55.6817240429281,36.6398866325895));
#738=CARTESIAN_POINT('',(-54.839298424151,-55.6817240429281,36.8624074910915));
#739=CARTESIAN_POINT('',(-33.1898068719798,-49.2817240429281,36.6398866325895));
#740=CARTESIAN_POINT('Origin',(-43.8218439317308,-49.2817240429281,55.5001567250373));
#741=CARTESIAN_POINT('',(-43.8218439317308,-49.2817240429281,55.5001567250373));
#742=CARTESIAN_POINT('',(-50.3041360209342,-49.2817240429281,44.5343447488787));
#743=CARTESIAN_POINT('',(-43.8218439317308,-55.6817240429281,55.5001567250373));
#744=CARTESIAN_POINT('',(-43.8218439317308,-49.2817240429281,55.5001567250373));
#745=CARTESIAN_POINT('',(-43.8218439317308,-55.6817240429281,55.5001567250373));
#746=CARTESIAN_POINT('Origin',(-33.1898068719798,-49.2817240429281,36.6398866325895));
#747=CARTESIAN_POINT('',(-21.3509522592565,-49.2817240429281,15.6388315829928));
#748=CARTESIAN_POINT('',(-33.1898068719798,-55.6817240429281,36.6398866325895));
#749=CARTESIAN_POINT('Origin',(-44.0145526480654,-55.6817240429281,46.0700216788134));
#750=CARTESIAN_POINT('Origin',(-54.839298424151,-49.2817240429281,-52.0845925089085));
#751=CARTESIAN_POINT('',(-54.839298424151,-49.2817240429281,-52.0845925089085));
#752=CARTESIAN_POINT('',(-33.1898068719798,-49.2817240429281,-52.3071133674105));
#753=CARTESIAN_POINT('',(-27.6901885794173,-49.2817240429281,-52.3636403200618));
#754=CARTESIAN_POINT('',(-54.839298424151,-55.6817240429281,-52.0845925089085));
#755=CARTESIAN_POINT('',(-54.839298424151,-49.2817240429281,-52.0845925089085));
#756=CARTESIAN_POINT('',(-33.1898068719798,-55.6817240429281,-52.3071133674105));
#757=CARTESIAN_POINT('',(-54.839298424151,-55.6817240429281,-52.0845925089085));
#758=CARTESIAN_POINT('',(-33.1898068719798,-49.2817240429281,-52.3071133674105));
#759=CARTESIAN_POINT('Origin',(-43.8218439317308,-49.2817240429281,-33.4468432749627));
#760=CARTESIAN_POINT('',(-43.8218439317308,-49.2817240429281,-33.4468432749627));
#761=CARTESIAN_POINT('',(-30.8220813447071,-49.2817240429281,-11.4557095367233));
#762=CARTESIAN_POINT('',(-43.8218439317308,-55.6817240429281,-33.4468432749627));
#763=CARTESIAN_POINT('',(-43.8218439317308,-49.2817240429281,-33.4468432749627));
#764=CARTESIAN_POINT('',(-43.8218439317308,-55.6817240429281,-33.4468432749627));
#765=CARTESIAN_POINT('Origin',(-33.1898068719798,-49.2817240429281,-52.3071133674105));
#766=CARTESIAN_POINT('',(-40.3759414195798,-49.2817240429281,-39.5595620066761));
#767=CARTESIAN_POINT('',(-33.1898068719798,-55.6817240429281,-52.3071133674105));
#768=CARTESIAN_POINT('Origin',(-44.0145526480654,-55.6817240429281,-42.8769783211866));
#769=CARTESIAN_POINT('Origin',(-3.5527136788005E-12,-90.0000000000005,-1.77635683940025E-14));
#770=CARTESIAN_POINT('',(3.23422398346972E-16,-84.1819448617906,2.64094429979443));
#771=CARTESIAN_POINT('',(2.64094429979095,-84.1819448617906,-1.78010088085423E-14));
#772=CARTESIAN_POINT('Origin',(-3.49213745141323E-12,-84.1819448617906,
-1.81244312068893E-14));
#773=CARTESIAN_POINT('Origin',(-3.49213745141323E-12,-84.1819448617906,
-1.81244312068893E-14));
#774=CARTESIAN_POINT('',(5.94226497307748,-89.9000000000006,-1.84974884365429E-14));
#775=CARTESIAN_POINT('',(5.99999999999646,-90.0000000000006,-1.70287803145141E-14));
#776=CARTESIAN_POINT('Origin',(-3.55167250222262E-12,-89.9000000000005,
-1.7769770858646E-14));
#777=CARTESIAN_POINT('Origin',(0.,-49.2817240429281,0.));
#778=CARTESIAN_POINT('',(0.,-49.2817240429281,35.));
#779=CARTESIAN_POINT('Origin',(0.,-49.2817240429281,0.));
#780=CARTESIAN_POINT('Origin',(0.,-49.2817240429281,0.));
#781=CARTESIAN_POINT('Origin',(-57.0000000000003,-89.9999999999999,64.75));
#782=CARTESIAN_POINT('',(57.000116640304,-49.2817240429281,64.7499999996117));
#783=CARTESIAN_POINT('',(-56.9999999999999,-49.2817240429281,64.7500000000001));
#784=CARTESIAN_POINT('',(-28.4999996150952,-49.2817240429281,64.749999999903));
#785=CARTESIAN_POINT('',(-57.0000000000003,-89.8999999999999,64.75));
#786=CARTESIAN_POINT('',(-57.0000000000003,-89.9999999999999,64.75));
#787=CARTESIAN_POINT('',(57.0001166403036,-89.9000000000011,64.7499999996116));
#788=CARTESIAN_POINT('',(-57.0000000000003,-89.8999999999999,64.75));
#789=CARTESIAN_POINT('',(57.0001166403036,-90.0000000000011,64.7499999996116));
#790=CARTESIAN_POINT('Origin',(-57.0000000000004,-89.9999999999999,57.));
#791=CARTESIAN_POINT('',(-64.7499999999999,-49.2817240429281,57.0000000000001));
#792=CARTESIAN_POINT('Origin',(-56.9999999999999,-49.2817240429275,57.0000000000001));
#793=CARTESIAN_POINT('',(-64.7500000000004,-89.8999999999999,57.));
#794=CARTESIAN_POINT('',(-64.7500000000004,-89.9999999999999,57.));
#795=CARTESIAN_POINT('Origin',(-57.0000000000004,-89.8999999999999,57.));
#796=CARTESIAN_POINT('Origin',(-64.7500000000003,-89.9999999999998,-57.));
#797=CARTESIAN_POINT('',(-64.7499999999999,-49.2817240429281,-57.));
#798=CARTESIAN_POINT('',(-64.7499999999999,-49.2817240429281,-28.5));
#799=CARTESIAN_POINT('',(-64.7500000000003,-89.8999999999999,-57.));
#800=CARTESIAN_POINT('',(-64.7500000000003,-89.9999999999998,-57.));
#801=CARTESIAN_POINT('',(-64.7500000000003,-89.8999999999999,-57.));
#802=CARTESIAN_POINT('Origin',(-57.0000000000003,-89.9999999999999,-57.));
#803=CARTESIAN_POINT('',(-56.9999999999999,-49.2817240429281,-64.75));
#804=CARTESIAN_POINT('Origin',(-56.9999999999999,-49.2817240429275,-57.));
#805=CARTESIAN_POINT('',(-57.0000000000003,-89.8999999999999,-64.75));
#806=CARTESIAN_POINT('',(-57.0000000000003,-89.9999999999999,-64.75));
#807=CARTESIAN_POINT('Origin',(-57.0000000000003,-89.8999999999999,-57.));
#808=CARTESIAN_POINT('Origin',(57.0001166403027,-90.0000000000011,-64.75));
#809=CARTESIAN_POINT('',(57.0001166403034,-49.2817240429281,-64.7499999996116));
#810=CARTESIAN_POINT('',(28.500058704946,-49.2817240429281,-64.75));
#811=CARTESIAN_POINT('',(57.0001166403029,-89.9000000000011,-64.7499999996116));
#812=CARTESIAN_POINT('',(57.0001166403029,-90.0000000000011,-64.7499999996116));
#813=CARTESIAN_POINT('',(-57.0000000000003,-89.8999999999999,-64.75));
#814=CARTESIAN_POINT('Origin',(57.0050000705607,-90.0000000000011,-57.005000070561));
#815=CARTESIAN_POINT('',(64.7499999996117,-49.2817240429281,-57.000116640304));
#816=CARTESIAN_POINT('Origin',(57.0050000705611,-49.2817240429287,-57.005000070561));
#817=CARTESIAN_POINT('',(64.7499999996113,-89.9000000000012,-57.000116640304));
#818=CARTESIAN_POINT('',(64.7499999996113,-90.0000000000012,-57.000116640304));
#819=CARTESIAN_POINT('Origin',(57.0050000705607,-89.9000000000011,-57.005000070561));
#820=CARTESIAN_POINT('Origin',(64.7499999999997,-90.0000000000012,57.0001166402959));
#821=CARTESIAN_POINT('',(64.7499999996117,-49.2817240429281,57.0001166402961));
#822=CARTESIAN_POINT('',(64.749999999903,-49.2817240429281,28.5000583200377));
#823=CARTESIAN_POINT('',(64.7499999996113,-89.9000000000012,57.0001166402961));
#824=CARTESIAN_POINT('',(64.7499999996113,-90.0000000000012,57.0001166402961));
#825=CARTESIAN_POINT('',(64.7499999996113,-89.9000000000012,-57.000116640304));
#826=CARTESIAN_POINT('Origin',(57.0050000705607,-90.0000000000011,57.0050000705611));
#827=CARTESIAN_POINT('Origin',(57.0050000705612,-49.2817240429287,57.0050000705611));
#828=CARTESIAN_POINT('Origin',(57.0050000705607,-89.9000000000011,57.0050000705611));
#829=CARTESIAN_POINT('Origin',(7.69588837101765E-7,-89.9000000000005,2.66453525910038E-14));
#830=CARTESIAN_POINT('Origin',(7.69589263564216E-7,-49.2817240429281,4.87987227675779E-14));
#831=UNCERTAINTY_MEASURE_WITH_UNIT(LENGTH_MEASURE(0.01),#835,
'DISTANCE_ACCURACY_VALUE',
'Maximum model space distance between geometric entities at asserted c
onnectivities');
#832=UNCERTAINTY_MEASURE_WITH_UNIT(LENGTH_MEASURE(0.01),#835,
'DISTANCE_ACCURACY_VALUE',
'Maximum model space distance between geometric entities at asserted c
onnectivities');
#833=(
GEOMETRIC_REPRESENTATION_CONTEXT(3)
GLOBAL_UNCERTAINTY_ASSIGNED_CONTEXT((#831))
GLOBAL_UNIT_ASSIGNED_CONTEXT((#835,#837,#838))
REPRESENTATION_CONTEXT('','3D')
);
#834=(
GEOMETRIC_REPRESENTATION_CONTEXT(3)
GLOBAL_UNCERTAINTY_ASSIGNED_CONTEXT((#832))
GLOBAL_UNIT_ASSIGNED_CONTEXT((#835,#837,#838))
REPRESENTATION_CONTEXT('','3D')
);
#835=(
LENGTH_UNIT()
NAMED_UNIT(*)
SI_UNIT(.MILLI.,.METRE.)
);
#836=(
LENGTH_UNIT()
NAMED_UNIT(*)
SI_UNIT($,.METRE.)
);
#837=(
NAMED_UNIT(*)
PLANE_ANGLE_UNIT()
SI_UNIT($,.RADIAN.)
);
#838=(
NAMED_UNIT(*)
SI_UNIT($,.STERADIAN.)
SOLID_ANGLE_UNIT()
);
#839=SHAPE_DEFINITION_REPRESENTATION(#840,#841);
#840=PRODUCT_DEFINITION_SHAPE('',$,#843);
#841=SHAPE_REPRESENTATION('',(#513),#833);
#842=PRODUCT_DEFINITION_CONTEXT('part definition',#847,'design');
#843=PRODUCT_DEFINITION('JugglingBallPixel_BigStrips','moldA-70 v1',#844,
#842);
#844=PRODUCT_DEFINITION_FORMATION('',$,#849);
#845=PRODUCT_RELATED_PRODUCT_CATEGORY('moldA-70 v1','moldA-70 v1',(#849));
#846=APPLICATION_PROTOCOL_DEFINITION('international standard',
'automotive_design',2009,#847);
#847=APPLICATION_CONTEXT(
'Core Data for Automotive Mechanical Design Process');
#848=PRODUCT_CONTEXT('part definition',#847,'mechanical');
#849=PRODUCT('JugglingBallPixel_BigStrips','moldA-70 v1',$,(#848));
#850=PRESENTATION_STYLE_ASSIGNMENT((#852));
#851=PRESENTATION_STYLE_ASSIGNMENT((#853));
#852=SURFACE_STYLE_USAGE(.BOTH.,#854);
#853=SURFACE_STYLE_USAGE(.BOTH.,#855);
#854=SURFACE_SIDE_STYLE('',(#856));
#855=SURFACE_SIDE_STYLE('',(#857));
#856=SURFACE_STYLE_FILL_AREA(#858);
#857=SURFACE_STYLE_FILL_AREA(#859);
#858=FILL_AREA_STYLE('Steel - Satin',(#860));
#859=FILL_AREA_STYLE('Opaque(105,255,185)',(#861));
#860=FILL_AREA_STYLE_COLOUR('Steel - Satin',#862);
#861=FILL_AREA_STYLE_COLOUR('Opaque(105,255,185)',#863);
#862=COLOUR_RGB('Steel - Satin',0.627450980392157,0.627450980392157,0.627450980392157);
#863=COLOUR_RGB('Opaque(105,255,185)',0.411764705882353,1.,0.725490196078431);
ENDSEC;
END-ISO-10303-21;
