ISO-10303-21;
HEADER;
/* Generated by software containing ST-Developer
 * from STEP Tools, Inc. (www.steptools.com) 
 */

FILE_DESCRIPTION(
/* description */ (''),
/* implementation_level */ '2;1');

FILE_NAME(
/* name */ 'ScrewBracket-SFU2005-XL v1.step',
/* time_stamp */ '2026-03-14T09:17:58+01:00',
/* author */ (''),
/* organization */ (''),
/* preprocessor_version */ 'ST-DEVELOPER v20.1',
/* originating_system */ 'Autodesk Translation Framework v14.24.0.0',
/* authorisation */ '');

FILE_SCHEMA (('AUTOMOTIVE_DESIGN { 1 0 10303 214 3 1 1 }'));
ENDSEC;

DATA;
#10=MECHANICAL_DESIGN_GEOMETRIC_PRESENTATION_REPRESENTATION('',(#13),#492);
#11=SHAPE_REPRESENTATION_RELATIONSHIP('SRR','None',#499,#12);
#12=ADVANCED_BREP_SHAPE_REPRESENTATION('',(#14),#491);
#13=STYLED_ITEM('',(#508),#14);
#14=MANIFOLD_SOLID_BREP('Body1',#280);
#15=CYLINDRICAL_SURFACE('',#308,18.);
#16=CYLINDRICAL_SURFACE('',#309,1.98564993276156);
#17=CYLINDRICAL_SURFACE('',#312,2.25087407625591);
#18=CYLINDRICAL_SURFACE('',#315,1.98564993276156);
#19=CYLINDRICAL_SURFACE('',#318,1.98564993276155);
#20=CYLINDRICAL_SURFACE('',#321,1.98564993276155);
#21=CYLINDRICAL_SURFACE('',#324,2.25087407625591);
#22=FACE_BOUND('',#68,.T.);
#23=FACE_BOUND('',#70,.T.);
#24=FACE_BOUND('',#71,.T.);
#25=FACE_BOUND('',#72,.T.);
#26=FACE_BOUND('',#73,.T.);
#27=FACE_BOUND('',#74,.T.);
#28=FACE_BOUND('',#75,.T.);
#29=FACE_BOUND('',#76,.T.);
#30=CIRCLE('',#299,18.);
#31=CIRCLE('',#301,2.25087407625591);
#32=CIRCLE('',#302,1.98564993276155);
#33=CIRCLE('',#303,1.98564993276155);
#34=CIRCLE('',#304,1.98564993276156);
#35=CIRCLE('',#305,2.25087407625591);
#36=CIRCLE('',#306,1.98564993276156);
#37=CIRCLE('',#307,18.);
#38=CIRCLE('',#310,1.98564993276156);
#39=CIRCLE('',#313,2.25087407625591);
#40=CIRCLE('',#316,1.98564993276156);
#41=CIRCLE('',#319,1.98564993276155);
#42=CIRCLE('',#322,1.98564993276155);
#43=CIRCLE('',#325,2.25087407625591);
#44=FACE_OUTER_BOUND('',#63,.T.);
#45=FACE_OUTER_BOUND('',#64,.T.);
#46=FACE_OUTER_BOUND('',#65,.T.);
#47=FACE_OUTER_BOUND('',#66,.T.);
#48=FACE_OUTER_BOUND('',#67,.T.);
#49=FACE_OUTER_BOUND('',#69,.T.);
#50=FACE_OUTER_BOUND('',#77,.T.);
#51=FACE_OUTER_BOUND('',#78,.T.);
#52=FACE_OUTER_BOUND('',#79,.T.);
#53=FACE_OUTER_BOUND('',#80,.T.);
#54=FACE_OUTER_BOUND('',#81,.T.);
#55=FACE_OUTER_BOUND('',#82,.T.);
#56=FACE_OUTER_BOUND('',#83,.T.);
#57=FACE_OUTER_BOUND('',#84,.T.);
#58=FACE_OUTER_BOUND('',#85,.T.);
#59=FACE_OUTER_BOUND('',#86,.T.);
#60=FACE_OUTER_BOUND('',#87,.T.);
#61=FACE_OUTER_BOUND('',#88,.T.);
#62=FACE_OUTER_BOUND('',#89,.T.);
#63=EDGE_LOOP('',(#183,#184,#185,#186));
#64=EDGE_LOOP('',(#187,#188,#189,#190));
#65=EDGE_LOOP('',(#191,#192,#193,#194));
#66=EDGE_LOOP('',(#195,#196,#197,#198));
#67=EDGE_LOOP('',(#199,#200,#201,#202));
#68=EDGE_LOOP('',(#203));
#69=EDGE_LOOP('',(#204,#205,#206,#207));
#70=EDGE_LOOP('',(#208));
#71=EDGE_LOOP('',(#209));
#72=EDGE_LOOP('',(#210));
#73=EDGE_LOOP('',(#211));
#74=EDGE_LOOP('',(#212));
#75=EDGE_LOOP('',(#213));
#76=EDGE_LOOP('',(#214));
#77=EDGE_LOOP('',(#215,#216,#217,#218));
#78=EDGE_LOOP('',(#219,#220,#221,#222));
#79=EDGE_LOOP('',(#223));
#80=EDGE_LOOP('',(#224,#225,#226,#227));
#81=EDGE_LOOP('',(#228));
#82=EDGE_LOOP('',(#229,#230,#231,#232));
#83=EDGE_LOOP('',(#233));
#84=EDGE_LOOP('',(#234,#235,#236,#237));
#85=EDGE_LOOP('',(#238));
#86=EDGE_LOOP('',(#239,#240,#241,#242));
#87=EDGE_LOOP('',(#243));
#88=EDGE_LOOP('',(#244,#245,#246,#247));
#89=EDGE_LOOP('',(#248));
#90=LINE('',#418,#109);
#91=LINE('',#420,#110);
#92=LINE('',#422,#111);
#93=LINE('',#423,#112);
#94=LINE('',#426,#113);
#95=LINE('',#428,#114);
#96=LINE('',#429,#115);
#97=LINE('',#432,#116);
#98=LINE('',#434,#117);
#99=LINE('',#435,#118);
#100=LINE('',#437,#119);
#101=LINE('',#438,#120);
#102=LINE('',#458,#121);
#103=LINE('',#462,#122);
#104=LINE('',#467,#123);
#105=LINE('',#472,#124);
#106=LINE('',#477,#125);
#107=LINE('',#482,#126);
#108=LINE('',#487,#127);
#109=VECTOR('',#331,100.);
#110=VECTOR('',#332,40.);
#111=VECTOR('',#333,100.);
#112=VECTOR('',#334,40.);
#113=VECTOR('',#337,44.);
#114=VECTOR('',#338,40.);
#115=VECTOR('',#339,44.);
#116=VECTOR('',#342,100.);
#117=VECTOR('',#343,40.);
#118=VECTOR('',#344,100.);
#119=VECTOR('',#347,44.);
#120=VECTOR('',#348,44.);
#121=VECTOR('',#371,18.);
#122=VECTOR('',#376,1.98564993276156);
#123=VECTOR('',#383,2.25087407625591);
#124=VECTOR('',#390,1.98564993276156);
#125=VECTOR('',#397,1.98564993276155);
#126=VECTOR('',#404,1.98564993276155);
#127=VECTOR('',#411,2.25087407625591);
#128=VERTEX_POINT('',#416);
#129=VERTEX_POINT('',#417);
#130=VERTEX_POINT('',#419);
#131=VERTEX_POINT('',#421);
#132=VERTEX_POINT('',#425);
#133=VERTEX_POINT('',#427);
#134=VERTEX_POINT('',#431);
#135=VERTEX_POINT('',#433);
#136=VERTEX_POINT('',#440);
#137=VERTEX_POINT('',#443);
#138=VERTEX_POINT('',#445);
#139=VERTEX_POINT('',#447);
#140=VERTEX_POINT('',#449);
#141=VERTEX_POINT('',#451);
#142=VERTEX_POINT('',#453);
#143=VERTEX_POINT('',#455);
#144=VERTEX_POINT('',#460);
#145=VERTEX_POINT('',#465);
#146=VERTEX_POINT('',#470);
#147=VERTEX_POINT('',#475);
#148=VERTEX_POINT('',#480);
#149=VERTEX_POINT('',#485);
#150=EDGE_CURVE('',#128,#129,#90,.T.);
#151=EDGE_CURVE('',#130,#128,#91,.T.);
#152=EDGE_CURVE('',#130,#131,#92,.T.);
#153=EDGE_CURVE('',#131,#129,#93,.T.);
#154=EDGE_CURVE('',#132,#128,#94,.T.);
#155=EDGE_CURVE('',#133,#132,#95,.T.);
#156=EDGE_CURVE('',#133,#130,#96,.T.);
#157=EDGE_CURVE('',#134,#132,#97,.T.);
#158=EDGE_CURVE('',#135,#134,#98,.T.);
#159=EDGE_CURVE('',#135,#133,#99,.T.);
#160=EDGE_CURVE('',#129,#134,#100,.T.);
#161=EDGE_CURVE('',#131,#135,#101,.T.);
#162=EDGE_CURVE('',#136,#136,#30,.T.);
#163=EDGE_CURVE('',#137,#137,#31,.T.);
#164=EDGE_CURVE('',#138,#138,#32,.T.);
#165=EDGE_CURVE('',#139,#139,#33,.T.);
#166=EDGE_CURVE('',#140,#140,#34,.T.);
#167=EDGE_CURVE('',#141,#141,#35,.T.);
#168=EDGE_CURVE('',#142,#142,#36,.T.);
#169=EDGE_CURVE('',#143,#143,#37,.T.);
#170=EDGE_CURVE('',#136,#143,#102,.T.);
#171=EDGE_CURVE('',#144,#144,#38,.T.);
#172=EDGE_CURVE('',#144,#142,#103,.T.);
#173=EDGE_CURVE('',#145,#145,#39,.T.);
#174=EDGE_CURVE('',#145,#141,#104,.T.);
#175=EDGE_CURVE('',#146,#146,#40,.T.);
#176=EDGE_CURVE('',#146,#140,#105,.T.);
#177=EDGE_CURVE('',#147,#147,#41,.T.);
#178=EDGE_CURVE('',#147,#139,#106,.T.);
#179=EDGE_CURVE('',#148,#148,#42,.T.);
#180=EDGE_CURVE('',#148,#138,#107,.T.);
#181=EDGE_CURVE('',#149,#149,#43,.T.);
#182=EDGE_CURVE('',#149,#137,#108,.T.);
#183=ORIENTED_EDGE('',*,*,#150,.F.);
#184=ORIENTED_EDGE('',*,*,#151,.F.);
#185=ORIENTED_EDGE('',*,*,#152,.T.);
#186=ORIENTED_EDGE('',*,*,#153,.T.);
#187=ORIENTED_EDGE('',*,*,#154,.F.);
#188=ORIENTED_EDGE('',*,*,#155,.F.);
#189=ORIENTED_EDGE('',*,*,#156,.T.);
#190=ORIENTED_EDGE('',*,*,#151,.T.);
#191=ORIENTED_EDGE('',*,*,#157,.F.);
#192=ORIENTED_EDGE('',*,*,#158,.F.);
#193=ORIENTED_EDGE('',*,*,#159,.T.);
#194=ORIENTED_EDGE('',*,*,#155,.T.);
#195=ORIENTED_EDGE('',*,*,#160,.F.);
#196=ORIENTED_EDGE('',*,*,#153,.F.);
#197=ORIENTED_EDGE('',*,*,#161,.T.);
#198=ORIENTED_EDGE('',*,*,#158,.T.);
#199=ORIENTED_EDGE('',*,*,#152,.F.);
#200=ORIENTED_EDGE('',*,*,#156,.F.);
#201=ORIENTED_EDGE('',*,*,#159,.F.);
#202=ORIENTED_EDGE('',*,*,#161,.F.);
#203=ORIENTED_EDGE('',*,*,#162,.T.);
#204=ORIENTED_EDGE('',*,*,#150,.T.);
#205=ORIENTED_EDGE('',*,*,#160,.T.);
#206=ORIENTED_EDGE('',*,*,#157,.T.);
#207=ORIENTED_EDGE('',*,*,#154,.T.);
#208=ORIENTED_EDGE('',*,*,#163,.F.);
#209=ORIENTED_EDGE('',*,*,#164,.F.);
#210=ORIENTED_EDGE('',*,*,#165,.F.);
#211=ORIENTED_EDGE('',*,*,#166,.F.);
#212=ORIENTED_EDGE('',*,*,#167,.F.);
#213=ORIENTED_EDGE('',*,*,#168,.F.);
#214=ORIENTED_EDGE('',*,*,#169,.F.);
#215=ORIENTED_EDGE('',*,*,#162,.F.);
#216=ORIENTED_EDGE('',*,*,#170,.T.);
#217=ORIENTED_EDGE('',*,*,#169,.T.);
#218=ORIENTED_EDGE('',*,*,#170,.F.);
#219=ORIENTED_EDGE('',*,*,#171,.F.);
#220=ORIENTED_EDGE('',*,*,#172,.T.);
#221=ORIENTED_EDGE('',*,*,#168,.T.);
#222=ORIENTED_EDGE('',*,*,#172,.F.);
#223=ORIENTED_EDGE('',*,*,#171,.T.);
#224=ORIENTED_EDGE('',*,*,#173,.F.);
#225=ORIENTED_EDGE('',*,*,#174,.T.);
#226=ORIENTED_EDGE('',*,*,#167,.T.);
#227=ORIENTED_EDGE('',*,*,#174,.F.);
#228=ORIENTED_EDGE('',*,*,#173,.T.);
#229=ORIENTED_EDGE('',*,*,#175,.F.);
#230=ORIENTED_EDGE('',*,*,#176,.T.);
#231=ORIENTED_EDGE('',*,*,#166,.T.);
#232=ORIENTED_EDGE('',*,*,#176,.F.);
#233=ORIENTED_EDGE('',*,*,#175,.T.);
#234=ORIENTED_EDGE('',*,*,#177,.F.);
#235=ORIENTED_EDGE('',*,*,#178,.T.);
#236=ORIENTED_EDGE('',*,*,#165,.T.);
#237=ORIENTED_EDGE('',*,*,#178,.F.);
#238=ORIENTED_EDGE('',*,*,#177,.T.);
#239=ORIENTED_EDGE('',*,*,#179,.F.);
#240=ORIENTED_EDGE('',*,*,#180,.T.);
#241=ORIENTED_EDGE('',*,*,#164,.T.);
#242=ORIENTED_EDGE('',*,*,#180,.F.);
#243=ORIENTED_EDGE('',*,*,#179,.T.);
#244=ORIENTED_EDGE('',*,*,#181,.F.);
#245=ORIENTED_EDGE('',*,*,#182,.T.);
#246=ORIENTED_EDGE('',*,*,#163,.T.);
#247=ORIENTED_EDGE('',*,*,#182,.F.);
#248=ORIENTED_EDGE('',*,*,#181,.T.);
#249=PLANE('',#294);
#250=PLANE('',#295);
#251=PLANE('',#296);
#252=PLANE('',#297);
#253=PLANE('',#298);
#254=PLANE('',#300);
#255=PLANE('',#311);
#256=PLANE('',#314);
#257=PLANE('',#317);
#258=PLANE('',#320);
#259=PLANE('',#323);
#260=PLANE('',#326);
#261=ADVANCED_FACE('',(#44),#249,.T.);
#262=ADVANCED_FACE('',(#45),#250,.T.);
#263=ADVANCED_FACE('',(#46),#251,.T.);
#264=ADVANCED_FACE('',(#47),#252,.T.);
#265=ADVANCED_FACE('',(#48,#22),#253,.F.);
#266=ADVANCED_FACE('',(#49,#23,#24,#25,#26,#27,#28,#29),#254,.T.);
#267=ADVANCED_FACE('',(#50),#15,.F.);
#268=ADVANCED_FACE('',(#51),#16,.F.);
#269=ADVANCED_FACE('',(#52),#255,.T.);
#270=ADVANCED_FACE('',(#53),#17,.F.);
#271=ADVANCED_FACE('',(#54),#256,.T.);
#272=ADVANCED_FACE('',(#55),#18,.F.);
#273=ADVANCED_FACE('',(#56),#257,.F.);
#274=ADVANCED_FACE('',(#57),#19,.F.);
#275=ADVANCED_FACE('',(#58),#258,.T.);
#276=ADVANCED_FACE('',(#59),#20,.F.);
#277=ADVANCED_FACE('',(#60),#259,.F.);
#278=ADVANCED_FACE('',(#61),#21,.F.);
#279=ADVANCED_FACE('',(#62),#260,.F.);
#280=CLOSED_SHELL('',(#261,#262,#263,#264,#265,#266,#267,#268,#269,#270,
#271,#272,#273,#274,#275,#276,#277,#278,#279));
#281=DERIVED_UNIT_ELEMENT(#283,1.);
#282=DERIVED_UNIT_ELEMENT(#494,-3.);
#283=(
MASS_UNIT()
NAMED_UNIT(*)
SI_UNIT(.KILO.,.GRAM.)
);
#284=DERIVED_UNIT((#281,#282));
#285=MEASURE_REPRESENTATION_ITEM('density measure',
POSITIVE_RATIO_MEASURE(7850.),#284);
#286=PROPERTY_DEFINITION_REPRESENTATION(#291,#288);
#287=PROPERTY_DEFINITION_REPRESENTATION(#292,#289);
#288=REPRESENTATION('material name',(#290),#491);
#289=REPRESENTATION('density',(#285),#491);
#290=DESCRIPTIVE_REPRESENTATION_ITEM('Steel','Steel');
#291=PROPERTY_DEFINITION('material property','material name',#501);
#292=PROPERTY_DEFINITION('material property','density of part',#501);
#293=AXIS2_PLACEMENT_3D('',#414,#327,#328);
#294=AXIS2_PLACEMENT_3D('',#415,#329,#330);
#295=AXIS2_PLACEMENT_3D('',#424,#335,#336);
#296=AXIS2_PLACEMENT_3D('',#430,#340,#341);
#297=AXIS2_PLACEMENT_3D('',#436,#345,#346);
#298=AXIS2_PLACEMENT_3D('',#439,#349,#350);
#299=AXIS2_PLACEMENT_3D('',#441,#351,#352);
#300=AXIS2_PLACEMENT_3D('',#442,#353,#354);
#301=AXIS2_PLACEMENT_3D('',#444,#355,#356);
#302=AXIS2_PLACEMENT_3D('',#446,#357,#358);
#303=AXIS2_PLACEMENT_3D('',#448,#359,#360);
#304=AXIS2_PLACEMENT_3D('',#450,#361,#362);
#305=AXIS2_PLACEMENT_3D('',#452,#363,#364);
#306=AXIS2_PLACEMENT_3D('',#454,#365,#366);
#307=AXIS2_PLACEMENT_3D('',#456,#367,#368);
#308=AXIS2_PLACEMENT_3D('',#457,#369,#370);
#309=AXIS2_PLACEMENT_3D('',#459,#372,#373);
#310=AXIS2_PLACEMENT_3D('',#461,#374,#375);
#311=AXIS2_PLACEMENT_3D('',#463,#377,#378);
#312=AXIS2_PLACEMENT_3D('',#464,#379,#380);
#313=AXIS2_PLACEMENT_3D('',#466,#381,#382);
#314=AXIS2_PLACEMENT_3D('',#468,#384,#385);
#315=AXIS2_PLACEMENT_3D('',#469,#386,#387);
#316=AXIS2_PLACEMENT_3D('',#471,#388,#389);
#317=AXIS2_PLACEMENT_3D('',#473,#391,#392);
#318=AXIS2_PLACEMENT_3D('',#474,#393,#394);
#319=AXIS2_PLACEMENT_3D('',#476,#395,#396);
#320=AXIS2_PLACEMENT_3D('',#478,#398,#399);
#321=AXIS2_PLACEMENT_3D('',#479,#400,#401);
#322=AXIS2_PLACEMENT_3D('',#481,#402,#403);
#323=AXIS2_PLACEMENT_3D('',#483,#405,#406);
#324=AXIS2_PLACEMENT_3D('',#484,#407,#408);
#325=AXIS2_PLACEMENT_3D('',#486,#409,#410);
#326=AXIS2_PLACEMENT_3D('',#488,#412,#413);
#327=DIRECTION('axis',(0.,0.,1.));
#328=DIRECTION('refdir',(1.,0.,0.));
#329=DIRECTION('center_axis',(0.,1.,0.));
#330=DIRECTION('ref_axis',(0.,0.,1.));
#331=DIRECTION('',(1.,0.,0.));
#332=DIRECTION('',(0.,0.,-1.));
#333=DIRECTION('',(1.,0.,0.));
#334=DIRECTION('',(0.,0.,-1.));
#335=DIRECTION('center_axis',(-1.,0.,0.));
#336=DIRECTION('ref_axis',(0.,0.,1.));
#337=DIRECTION('',(0.,1.,0.));
#338=DIRECTION('',(0.,0.,-1.));
#339=DIRECTION('',(0.,1.,0.));
#340=DIRECTION('center_axis',(0.,-1.,0.));
#341=DIRECTION('ref_axis',(0.,0.,-1.));
#342=DIRECTION('',(-1.,0.,0.));
#343=DIRECTION('',(0.,0.,-1.));
#344=DIRECTION('',(-1.,0.,0.));
#345=DIRECTION('center_axis',(1.,0.,0.));
#346=DIRECTION('ref_axis',(0.,0.,-1.));
#347=DIRECTION('',(0.,-1.,0.));
#348=DIRECTION('',(0.,-1.,0.));
#349=DIRECTION('center_axis',(0.,0.,-1.));
#350=DIRECTION('ref_axis',(-1.,0.,0.));
#351=DIRECTION('center_axis',(0.,0.,-1.));
#352=DIRECTION('ref_axis',(-1.,0.,0.));
#353=DIRECTION('center_axis',(0.,0.,-1.));
#354=DIRECTION('ref_axis',(-1.,0.,0.));
#355=DIRECTION('center_axis',(0.,0.,-1.));
#356=DIRECTION('ref_axis',(1.,0.,0.));
#357=DIRECTION('center_axis',(0.,0.,-1.));
#358=DIRECTION('ref_axis',(1.,0.,0.));
#359=DIRECTION('center_axis',(0.,0.,-1.));
#360=DIRECTION('ref_axis',(-1.,0.,0.));
#361=DIRECTION('center_axis',(0.,0.,-1.));
#362=DIRECTION('ref_axis',(1.,0.,0.));
#363=DIRECTION('center_axis',(0.,0.,-1.));
#364=DIRECTION('ref_axis',(-1.,0.,0.));
#365=DIRECTION('center_axis',(0.,0.,-1.));
#366=DIRECTION('ref_axis',(-1.,0.,0.));
#367=DIRECTION('center_axis',(0.,0.,-1.));
#368=DIRECTION('ref_axis',(-1.,0.,0.));
#369=DIRECTION('center_axis',(0.,0.,-1.));
#370=DIRECTION('ref_axis',(-1.,0.,0.));
#371=DIRECTION('',(0.,0.,-1.));
#372=DIRECTION('center_axis',(0.,0.,-1.));
#373=DIRECTION('ref_axis',(-1.,0.,0.));
#374=DIRECTION('center_axis',(0.,0.,-1.));
#375=DIRECTION('ref_axis',(-1.,0.,0.));
#376=DIRECTION('',(0.,0.,-1.));
#377=DIRECTION('center_axis',(0.,0.,-1.));
#378=DIRECTION('ref_axis',(-1.,0.,0.));
#379=DIRECTION('center_axis',(0.,0.,-1.));
#380=DIRECTION('ref_axis',(-1.,0.,0.));
#381=DIRECTION('center_axis',(0.,0.,-1.));
#382=DIRECTION('ref_axis',(-1.,0.,0.));
#383=DIRECTION('',(0.,0.,-1.));
#384=DIRECTION('center_axis',(0.,0.,-1.));
#385=DIRECTION('ref_axis',(-1.,0.,0.));
#386=DIRECTION('center_axis',(0.,0.,-1.));
#387=DIRECTION('ref_axis',(-1.,0.,0.));
#388=DIRECTION('center_axis',(0.,0.,-1.));
#389=DIRECTION('ref_axis',(1.,0.,0.));
#390=DIRECTION('',(0.,0.,-1.));
#391=DIRECTION('center_axis',(0.,0.,1.));
#392=DIRECTION('ref_axis',(1.,0.,0.));
#393=DIRECTION('center_axis',(0.,0.,-1.));
#394=DIRECTION('ref_axis',(-1.,0.,0.));
#395=DIRECTION('center_axis',(0.,0.,-1.));
#396=DIRECTION('ref_axis',(-1.,0.,0.));
#397=DIRECTION('',(0.,0.,-1.));
#398=DIRECTION('center_axis',(0.,0.,-1.));
#399=DIRECTION('ref_axis',(-1.,0.,0.));
#400=DIRECTION('center_axis',(0.,0.,-1.));
#401=DIRECTION('ref_axis',(-1.,0.,0.));
#402=DIRECTION('center_axis',(0.,0.,-1.));
#403=DIRECTION('ref_axis',(1.,0.,0.));
#404=DIRECTION('',(0.,0.,-1.));
#405=DIRECTION('center_axis',(0.,0.,1.));
#406=DIRECTION('ref_axis',(1.,0.,0.));
#407=DIRECTION('center_axis',(0.,0.,-1.));
#408=DIRECTION('ref_axis',(-1.,0.,0.));
#409=DIRECTION('center_axis',(0.,0.,-1.));
#410=DIRECTION('ref_axis',(1.,0.,0.));
#411=DIRECTION('',(0.,0.,-1.));
#412=DIRECTION('center_axis',(0.,0.,1.));
#413=DIRECTION('ref_axis',(1.,0.,0.));
#414=CARTESIAN_POINT('',(0.,0.,0.));
#415=CARTESIAN_POINT('Origin',(-69.,22.,20.));
#416=CARTESIAN_POINT('',(-69.,22.,-20.));
#417=CARTESIAN_POINT('',(31.,22.,-20.));
#418=CARTESIAN_POINT('',(-69.,22.,-20.));
#419=CARTESIAN_POINT('',(-69.,22.,20.));
#420=CARTESIAN_POINT('',(-69.,22.,20.));
#421=CARTESIAN_POINT('',(31.,22.,20.));
#422=CARTESIAN_POINT('',(-69.,22.,20.));
#423=CARTESIAN_POINT('',(31.,22.,20.));
#424=CARTESIAN_POINT('Origin',(-69.,-22.,20.));
#425=CARTESIAN_POINT('',(-69.,-22.,-20.));
#426=CARTESIAN_POINT('',(-69.,-22.,-20.));
#427=CARTESIAN_POINT('',(-69.,-22.,20.));
#428=CARTESIAN_POINT('',(-69.,-22.,20.));
#429=CARTESIAN_POINT('',(-69.,-22.,20.));
#430=CARTESIAN_POINT('Origin',(31.,-22.,20.));
#431=CARTESIAN_POINT('',(31.,-22.,-20.));
#432=CARTESIAN_POINT('',(31.,-22.,-20.));
#433=CARTESIAN_POINT('',(31.,-22.,20.));
#434=CARTESIAN_POINT('',(31.,-22.,20.));
#435=CARTESIAN_POINT('',(31.,-22.,20.));
#436=CARTESIAN_POINT('Origin',(31.,22.,20.));
#437=CARTESIAN_POINT('',(31.,22.,-20.));
#438=CARTESIAN_POINT('',(31.,22.,20.));
#439=CARTESIAN_POINT('Origin',(0.,0.,20.));
#440=CARTESIAN_POINT('',(-0.999999999999999,-2.20436423846524E-15,20.));
#441=CARTESIAN_POINT('Origin',(-19.,0.,20.));
#442=CARTESIAN_POINT('Origin',(0.,0.,-20.));
#443=CARTESIAN_POINT('',(-40.2491259237441,4.10256677714363E-15,-20.));
#444=CARTESIAN_POINT('Origin',(-42.5,4.10256677714363E-15,-20.));
#445=CARTESIAN_POINT('',(-33.6313594251223,16.6170093578839,-20.));
#446=CARTESIAN_POINT('Origin',(-35.6170093578838,16.6170093578839,-20.));
#447=CARTESIAN_POINT('',(-33.6313594251223,-16.6170093578839,-20.));
#448=CARTESIAN_POINT('Origin',(-35.6170093578838,-16.6170093578839,-20.));
#449=CARTESIAN_POINT('',(-0.39734070935461,-16.6170093578839,-20.));
#450=CARTESIAN_POINT('Origin',(-2.38299064211617,-16.6170093578839,-20.));
#451=CARTESIAN_POINT('',(6.75087407625591,-1.92892575212598E-15,-20.));
#452=CARTESIAN_POINT('Origin',(4.5,-1.65327317884893E-15,-20.));
#453=CARTESIAN_POINT('',(-0.397340709354606,16.6170093578839,-20.));
#454=CARTESIAN_POINT('Origin',(-2.38299064211616,16.6170093578839,-20.));
#455=CARTESIAN_POINT('',(-0.999999999999999,-2.20436423846524E-15,-20.));
#456=CARTESIAN_POINT('Origin',(-19.,0.,-20.));
#457=CARTESIAN_POINT('Origin',(-19.,0.,20.));
#458=CARTESIAN_POINT('',(-0.999999999999999,-2.20436423846524E-15,20.));
#459=CARTESIAN_POINT('Origin',(-2.38299064211616,16.6170093578839,10.));
#460=CARTESIAN_POINT('',(-0.397340709354606,16.6170093578839,10.));
#461=CARTESIAN_POINT('Origin',(-2.38299064211616,16.6170093578839,10.));
#462=CARTESIAN_POINT('',(-0.397340709354606,16.6170093578839,10.));
#463=CARTESIAN_POINT('Origin',(-2.38299064211616,16.6170093578839,10.));
#464=CARTESIAN_POINT('Origin',(4.5,-1.65327317884893E-15,10.));
#465=CARTESIAN_POINT('',(6.75087407625591,-1.92892575212598E-15,10.));
#466=CARTESIAN_POINT('Origin',(4.5,-1.65327317884893E-15,10.));
#467=CARTESIAN_POINT('',(6.75087407625591,-1.92892575212598E-15,10.));
#468=CARTESIAN_POINT('Origin',(4.5,-1.65327317884893E-15,10.));
#469=CARTESIAN_POINT('Origin',(-2.38299064211617,-16.6170093578839,10.));
#470=CARTESIAN_POINT('',(-0.39734070935461,-16.6170093578839,10.));
#471=CARTESIAN_POINT('Origin',(-2.38299064211617,-16.6170093578839,10.));
#472=CARTESIAN_POINT('',(-0.39734070935461,-16.6170093578839,10.));
#473=CARTESIAN_POINT('Origin',(-2.38299064211617,-16.6170093578839,10.));
#474=CARTESIAN_POINT('Origin',(-35.6170093578838,-16.6170093578839,10.));
#475=CARTESIAN_POINT('',(-33.6313594251223,-16.6170093578839,10.));
#476=CARTESIAN_POINT('Origin',(-35.6170093578838,-16.6170093578839,10.));
#477=CARTESIAN_POINT('',(-33.6313594251223,-16.6170093578839,10.));
#478=CARTESIAN_POINT('Origin',(-35.6170093578838,-16.6170093578839,10.));
#479=CARTESIAN_POINT('Origin',(-35.6170093578838,16.6170093578839,10.));
#480=CARTESIAN_POINT('',(-33.6313594251223,16.6170093578839,10.));
#481=CARTESIAN_POINT('Origin',(-35.6170093578838,16.6170093578839,10.));
#482=CARTESIAN_POINT('',(-33.6313594251223,16.6170093578839,10.));
#483=CARTESIAN_POINT('Origin',(-35.6170093578838,16.6170093578839,10.));
#484=CARTESIAN_POINT('Origin',(-42.5,4.10256677714363E-15,10.));
#485=CARTESIAN_POINT('',(-40.2491259237441,4.10256677714363E-15,10.));
#486=CARTESIAN_POINT('Origin',(-42.5,4.10256677714363E-15,10.));
#487=CARTESIAN_POINT('',(-40.2491259237441,3.82691420386658E-15,10.));
#488=CARTESIAN_POINT('Origin',(-42.5,4.10256677714363E-15,10.));
#489=UNCERTAINTY_MEASURE_WITH_UNIT(LENGTH_MEASURE(0.01),#493,
'DISTANCE_ACCURACY_VALUE',
'Maximum model space distance between geometric entities at asserted c
onnectivities');
#490=UNCERTAINTY_MEASURE_WITH_UNIT(LENGTH_MEASURE(0.01),#493,
'DISTANCE_ACCURACY_VALUE',
'Maximum model space distance between geometric entities at asserted c
onnectivities');
#491=(
GEOMETRIC_REPRESENTATION_CONTEXT(3)
GLOBAL_UNCERTAINTY_ASSIGNED_CONTEXT((#489))
GLOBAL_UNIT_ASSIGNED_CONTEXT((#493,#495,#496))
REPRESENTATION_CONTEXT('','3D')
);
#492=(
GEOMETRIC_REPRESENTATION_CONTEXT(3)
GLOBAL_UNCERTAINTY_ASSIGNED_CONTEXT((#490))
GLOBAL_UNIT_ASSIGNED_CONTEXT((#493,#495,#496))
REPRESENTATION_CONTEXT('','3D')
);
#493=(
LENGTH_UNIT()
NAMED_UNIT(*)
SI_UNIT(.MILLI.,.METRE.)
);
#494=(
LENGTH_UNIT()
NAMED_UNIT(*)
SI_UNIT($,.METRE.)
);
#495=(
NAMED_UNIT(*)
PLANE_ANGLE_UNIT()
SI_UNIT($,.RADIAN.)
);
#496=(
NAMED_UNIT(*)
SI_UNIT($,.STERADIAN.)
SOLID_ANGLE_UNIT()
);
#497=SHAPE_DEFINITION_REPRESENTATION(#498,#499);
#498=PRODUCT_DEFINITION_SHAPE('',$,#501);
#499=SHAPE_REPRESENTATION('',(#293),#491);
#500=PRODUCT_DEFINITION_CONTEXT('part definition',#505,'design');
#501=PRODUCT_DEFINITION('ScrewBracket-SFU2005-XL',
'ScrewBracket-SFU2005-XL v1',#502,#500);
#502=PRODUCT_DEFINITION_FORMATION('',$,#507);
#503=PRODUCT_RELATED_PRODUCT_CATEGORY('ScrewBracket-SFU2005-XL v1',
'ScrewBracket-SFU2005-XL v1',(#507));
#504=APPLICATION_PROTOCOL_DEFINITION('international standard',
'automotive_design',2009,#505);
#505=APPLICATION_CONTEXT(
'Core Data for Automotive Mechanical Design Process');
#506=PRODUCT_CONTEXT('part definition',#505,'mechanical');
#507=PRODUCT('ScrewBracket-SFU2005-XL','ScrewBracket-SFU2005-XL v1',$,(#506));
#508=PRESENTATION_STYLE_ASSIGNMENT((#509));
#509=SURFACE_STYLE_USAGE(.BOTH.,#510);
#510=SURFACE_SIDE_STYLE('',(#511));
#511=SURFACE_STYLE_FILL_AREA(#512);
#512=FILL_AREA_STYLE('Steel - Satin',(#513));
#513=FILL_AREA_STYLE_COLOUR('Steel - Satin',#514);
#514=COLOUR_RGB('Steel - Satin',0.627450980392157,0.627450980392157,0.627450980392157);
ENDSEC;
END-ISO-10303-21;
