ISO-10303-21;
HEADER;
/* Generated by software containing ST-Developer
 * from STEP Tools, Inc. (www.steptools.com) 
 */

FILE_DESCRIPTION(
/* description */ ('STEP AP214'),
/* implementation_level */ '2;1');

FILE_NAME(
/* name */ 'CAM-SidePanel v1.step',
/* time_stamp */ '2026-03-14T09:50:42+01:00',
/* author */ (''),
/* organization */ (''),
/* preprocessor_version */ 'ST-DEVELOPER v20.1',
/* originating_system */ 'Autodesk Translation Framework v14.24.0.0',
/* authorisation */ '');

FILE_SCHEMA (('AUTOMOTIVE_DESIGN { 1 0 10303 214 3 1 1 }'));
ENDSEC;

DATA;
#10=MECHANICAL_DESIGN_GEOMETRIC_PRESENTATION_REPRESENTATION('',(#35,#36),
#851);
#11=ITEM_DEFINED_TRANSFORMATION($,$,#509,#559);
#12=ITEM_DEFINED_TRANSFORMATION($,$,#528,#560);
#13=ITEM_DEFINED_TRANSFORMATION($,$,#528,#561);
#14=ITEM_DEFINED_TRANSFORMATION($,$,#528,#562);
#15=ITEM_DEFINED_TRANSFORMATION($,$,#528,#563);
#16=(
REPRESENTATION_RELATIONSHIP($,$,#868,#867)
REPRESENTATION_RELATIONSHIP_WITH_TRANSFORMATION(#11)
SHAPE_REPRESENTATION_RELATIONSHIP()
);
#17=(
REPRESENTATION_RELATIONSHIP($,$,#869,#867)
REPRESENTATION_RELATIONSHIP_WITH_TRANSFORMATION(#12)
SHAPE_REPRESENTATION_RELATIONSHIP()
);
#18=(
REPRESENTATION_RELATIONSHIP($,$,#869,#867)
REPRESENTATION_RELATIONSHIP_WITH_TRANSFORMATION(#13)
SHAPE_REPRESENTATION_RELATIONSHIP()
);
#19=(
REPRESENTATION_RELATIONSHIP($,$,#869,#867)
REPRESENTATION_RELATIONSHIP_WITH_TRANSFORMATION(#14)
SHAPE_REPRESENTATION_RELATIONSHIP()
);
#20=(
REPRESENTATION_RELATIONSHIP($,$,#869,#867)
REPRESENTATION_RELATIONSHIP_WITH_TRANSFORMATION(#15)
SHAPE_REPRESENTATION_RELATIONSHIP()
);
#21=CONTEXT_DEPENDENT_SHAPE_REPRESENTATION(#16,#862);
#22=CONTEXT_DEPENDENT_SHAPE_REPRESENTATION(#17,#863);
#23=CONTEXT_DEPENDENT_SHAPE_REPRESENTATION(#18,#864);
#24=CONTEXT_DEPENDENT_SHAPE_REPRESENTATION(#19,#865);
#25=CONTEXT_DEPENDENT_SHAPE_REPRESENTATION(#20,#866);
#26=NEXT_ASSEMBLY_USAGE_OCCURRENCE('Panels-Sheet-Stock-A4:1',
'Panels-Sheet-Stock-A4:1','Panels-Sheet-Stock-A4:1',#871,#872,
'Panels-Sheet-Stock-A4:1');
#27=NEXT_ASSEMBLY_USAGE_OCCURRENCE('611_BackPanel_x2_1mm_INOX:1',
'611_BackPanel_x2_1mm_INOX:1','611_BackPanel_x2_1mm_INOX:1',#871,#873,
'611_BackPanel_x2_1mm_INOX:1');
#28=NEXT_ASSEMBLY_USAGE_OCCURRENCE('611_BackPanel_x2_1mm_INOX:2',
'611_BackPanel_x2_1mm_INOX:2','611_BackPanel_x2_1mm_INOX:2',#871,#873,
'611_BackPanel_x2_1mm_INOX:2');
#29=NEXT_ASSEMBLY_USAGE_OCCURRENCE('611_BackPanel_x2_1mm_INOX:3',
'611_BackPanel_x2_1mm_INOX:3','611_BackPanel_x2_1mm_INOX:3',#871,#873,
'611_BackPanel_x2_1mm_INOX:3');
#30=NEXT_ASSEMBLY_USAGE_OCCURRENCE('611_BackPanel_x2_1mm_INOX:4',
'611_BackPanel_x2_1mm_INOX:4','611_BackPanel_x2_1mm_INOX:4',#871,#873,
'611_BackPanel_x2_1mm_INOX:4');
#31=SHAPE_REPRESENTATION_RELATIONSHIP('SRR','None',#868,#33);
#32=SHAPE_REPRESENTATION_RELATIONSHIP('SRR','None',#869,#34);
#33=ADVANCED_BREP_SHAPE_REPRESENTATION('',(#37),#849);
#34=ADVANCED_BREP_SHAPE_REPRESENTATION('',(#38),#850);
#35=STYLED_ITEM('',(#887),#37);
#36=STYLED_ITEM('',(#888),#38);
#37=MANIFOLD_SOLID_BREP('Body1',#483);
#38=MANIFOLD_SOLID_BREP('Body1',#484);
#39=FACE_BOUND('',#100,.T.);
#40=FACE_BOUND('',#101,.T.);
#41=FACE_BOUND('',#102,.T.);
#42=FACE_BOUND('',#103,.T.);
#43=FACE_BOUND('',#105,.T.);
#44=FACE_BOUND('',#106,.T.);
#45=FACE_BOUND('',#107,.T.);
#46=FACE_BOUND('',#108,.T.);
#47=FACE_BOUND('',#118,.T.);
#48=FACE_BOUND('',#119,.T.);
#49=FACE_BOUND('',#120,.T.);
#50=FACE_BOUND('',#121,.T.);
#51=FACE_BOUND('',#123,.T.);
#52=FACE_BOUND('',#124,.T.);
#53=FACE_BOUND('',#125,.T.);
#54=FACE_BOUND('',#126,.T.);
#55=PLANE('',#522);
#56=PLANE('',#523);
#57=PLANE('',#524);
#58=PLANE('',#525);
#59=PLANE('',#526);
#60=PLANE('',#527);
#61=PLANE('',#541);
#62=PLANE('',#542);
#63=PLANE('',#543);
#64=PLANE('',#544);
#65=PLANE('',#545);
#66=PLANE('',#550);
#67=FACE_OUTER_BOUND('',#91,.T.);
#68=FACE_OUTER_BOUND('',#92,.T.);
#69=FACE_OUTER_BOUND('',#93,.T.);
#70=FACE_OUTER_BOUND('',#94,.T.);
#71=FACE_OUTER_BOUND('',#95,.T.);
#72=FACE_OUTER_BOUND('',#96,.T.);
#73=FACE_OUTER_BOUND('',#97,.T.);
#74=FACE_OUTER_BOUND('',#98,.T.);
#75=FACE_OUTER_BOUND('',#99,.T.);
#76=FACE_OUTER_BOUND('',#104,.T.);
#77=FACE_OUTER_BOUND('',#109,.T.);
#78=FACE_OUTER_BOUND('',#110,.T.);
#79=FACE_OUTER_BOUND('',#111,.T.);
#80=FACE_OUTER_BOUND('',#112,.T.);
#81=FACE_OUTER_BOUND('',#113,.T.);
#82=FACE_OUTER_BOUND('',#114,.T.);
#83=FACE_OUTER_BOUND('',#115,.T.);
#84=FACE_OUTER_BOUND('',#116,.T.);
#85=FACE_OUTER_BOUND('',#117,.T.);
#86=FACE_OUTER_BOUND('',#122,.T.);
#87=FACE_OUTER_BOUND('',#127,.T.);
#88=FACE_OUTER_BOUND('',#128,.T.);
#89=FACE_OUTER_BOUND('',#129,.T.);
#90=FACE_OUTER_BOUND('',#130,.T.);
#91=EDGE_LOOP('',(#327,#328,#329,#330));
#92=EDGE_LOOP('',(#331,#332,#333,#334));
#93=EDGE_LOOP('',(#335,#336,#337,#338));
#94=EDGE_LOOP('',(#339,#340,#341,#342));
#95=EDGE_LOOP('',(#343,#344,#345,#346));
#96=EDGE_LOOP('',(#347,#348,#349,#350));
#97=EDGE_LOOP('',(#351,#352,#353,#354));
#98=EDGE_LOOP('',(#355,#356,#357,#358));
#99=EDGE_LOOP('',(#359,#360,#361,#362));
#100=EDGE_LOOP('',(#363));
#101=EDGE_LOOP('',(#364));
#102=EDGE_LOOP('',(#365));
#103=EDGE_LOOP('',(#366));
#104=EDGE_LOOP('',(#367,#368,#369,#370));
#105=EDGE_LOOP('',(#371));
#106=EDGE_LOOP('',(#372));
#107=EDGE_LOOP('',(#373));
#108=EDGE_LOOP('',(#374));
#109=EDGE_LOOP('',(#375,#376,#377,#378));
#110=EDGE_LOOP('',(#379,#380,#381,#382));
#111=EDGE_LOOP('',(#383,#384,#385,#386));
#112=EDGE_LOOP('',(#387,#388,#389,#390));
#113=EDGE_LOOP('',(#391,#392,#393,#394));
#114=EDGE_LOOP('',(#395,#396,#397,#398));
#115=EDGE_LOOP('',(#399,#400,#401,#402));
#116=EDGE_LOOP('',(#403,#404,#405,#406));
#117=EDGE_LOOP('',(#407,#408,#409,#410,#411,#412,#413,#414));
#118=EDGE_LOOP('',(#415));
#119=EDGE_LOOP('',(#416));
#120=EDGE_LOOP('',(#417));
#121=EDGE_LOOP('',(#418));
#122=EDGE_LOOP('',(#419,#420,#421,#422,#423,#424,#425,#426));
#123=EDGE_LOOP('',(#427));
#124=EDGE_LOOP('',(#428));
#125=EDGE_LOOP('',(#429));
#126=EDGE_LOOP('',(#430));
#127=EDGE_LOOP('',(#431,#432,#433,#434));
#128=EDGE_LOOP('',(#435,#436,#437,#438));
#129=EDGE_LOOP('',(#439,#440,#441,#442));
#130=EDGE_LOOP('',(#443,#444,#445,#446));
#131=LINE('',#718,#167);
#132=LINE('',#724,#168);
#133=LINE('',#730,#169);
#134=LINE('',#736,#170);
#135=LINE('',#741,#171);
#136=LINE('',#743,#172);
#137=LINE('',#745,#173);
#138=LINE('',#746,#174);
#139=LINE('',#749,#175);
#140=LINE('',#751,#176);
#141=LINE('',#752,#177);
#142=LINE('',#755,#178);
#143=LINE('',#757,#179);
#144=LINE('',#758,#180);
#145=LINE('',#760,#181);
#146=LINE('',#761,#182);
#147=LINE('',#769,#183);
#148=LINE('',#775,#184);
#149=LINE('',#781,#185);
#150=LINE('',#787,#186);
#151=LINE('',#792,#187);
#152=LINE('',#794,#188);
#153=LINE('',#796,#189);
#154=LINE('',#797,#190);
#155=LINE('',#801,#191);
#156=LINE('',#803,#192);
#157=LINE('',#805,#193);
#158=LINE('',#806,#194);
#159=LINE('',#810,#195);
#160=LINE('',#812,#196);
#161=LINE('',#814,#197);
#162=LINE('',#815,#198);
#163=LINE('',#819,#199);
#164=LINE('',#821,#200);
#165=LINE('',#823,#201);
#166=LINE('',#824,#202);
#167=VECTOR('',#572,2.5);
#168=VECTOR('',#579,2.5);
#169=VECTOR('',#586,2.5);
#170=VECTOR('',#593,2.5);
#171=VECTOR('',#598,1000.);
#172=VECTOR('',#599,1000.);
#173=VECTOR('',#600,1000.);
#174=VECTOR('',#601,1000.);
#175=VECTOR('',#604,1000.);
#176=VECTOR('',#605,1000.);
#177=VECTOR('',#606,1000.);
#178=VECTOR('',#609,1000.);
#179=VECTOR('',#610,1000.);
#180=VECTOR('',#611,1000.);
#181=VECTOR('',#614,1000.);
#182=VECTOR('',#615,1000.);
#183=VECTOR('',#626,2.55);
#184=VECTOR('',#633,2.55);
#185=VECTOR('',#640,2.55);
#186=VECTOR('',#647,2.55);
#187=VECTOR('',#652,1000.);
#188=VECTOR('',#653,1000.);
#189=VECTOR('',#654,1000.);
#190=VECTOR('',#655,1000.);
#191=VECTOR('',#658,1000.);
#192=VECTOR('',#659,1000.);
#193=VECTOR('',#660,1000.);
#194=VECTOR('',#661,1000.);
#195=VECTOR('',#664,1000.);
#196=VECTOR('',#665,1000.);
#197=VECTOR('',#666,1000.);
#198=VECTOR('',#667,1000.);
#199=VECTOR('',#670,1000.);
#200=VECTOR('',#671,1000.);
#201=VECTOR('',#672,1000.);
#202=VECTOR('',#673,1000.);
#203=CIRCLE('',#511,2.5);
#204=CIRCLE('',#512,2.5);
#205=CIRCLE('',#514,2.5);
#206=CIRCLE('',#515,2.5);
#207=CIRCLE('',#517,2.5);
#208=CIRCLE('',#518,2.5);
#209=CIRCLE('',#520,2.5);
#210=CIRCLE('',#521,2.5);
#211=CIRCLE('',#530,2.55);
#212=CIRCLE('',#531,2.55);
#213=CIRCLE('',#533,2.55);
#214=CIRCLE('',#534,2.55);
#215=CIRCLE('',#536,2.55);
#216=CIRCLE('',#537,2.55);
#217=CIRCLE('',#539,2.55);
#218=CIRCLE('',#540,2.55);
#219=CIRCLE('',#546,4.);
#220=CIRCLE('',#547,4.);
#221=CIRCLE('',#548,4.);
#222=CIRCLE('',#549,4.);
#223=CIRCLE('',#551,4.);
#224=CIRCLE('',#552,4.);
#225=CIRCLE('',#553,4.);
#226=CIRCLE('',#554,4.);
#227=VERTEX_POINT('',#715);
#228=VERTEX_POINT('',#717);
#229=VERTEX_POINT('',#721);
#230=VERTEX_POINT('',#723);
#231=VERTEX_POINT('',#727);
#232=VERTEX_POINT('',#729);
#233=VERTEX_POINT('',#733);
#234=VERTEX_POINT('',#735);
#235=VERTEX_POINT('',#739);
#236=VERTEX_POINT('',#740);
#237=VERTEX_POINT('',#742);
#238=VERTEX_POINT('',#744);
#239=VERTEX_POINT('',#748);
#240=VERTEX_POINT('',#750);
#241=VERTEX_POINT('',#754);
#242=VERTEX_POINT('',#756);
#243=VERTEX_POINT('',#766);
#244=VERTEX_POINT('',#768);
#245=VERTEX_POINT('',#772);
#246=VERTEX_POINT('',#774);
#247=VERTEX_POINT('',#778);
#248=VERTEX_POINT('',#780);
#249=VERTEX_POINT('',#784);
#250=VERTEX_POINT('',#786);
#251=VERTEX_POINT('',#790);
#252=VERTEX_POINT('',#791);
#253=VERTEX_POINT('',#793);
#254=VERTEX_POINT('',#795);
#255=VERTEX_POINT('',#799);
#256=VERTEX_POINT('',#800);
#257=VERTEX_POINT('',#802);
#258=VERTEX_POINT('',#804);
#259=VERTEX_POINT('',#808);
#260=VERTEX_POINT('',#809);
#261=VERTEX_POINT('',#811);
#262=VERTEX_POINT('',#813);
#263=VERTEX_POINT('',#817);
#264=VERTEX_POINT('',#818);
#265=VERTEX_POINT('',#820);
#266=VERTEX_POINT('',#822);
#267=EDGE_CURVE('',#227,#227,#203,.T.);
#268=EDGE_CURVE('',#227,#228,#131,.T.);
#269=EDGE_CURVE('',#228,#228,#204,.T.);
#270=EDGE_CURVE('',#229,#229,#205,.T.);
#271=EDGE_CURVE('',#229,#230,#132,.T.);
#272=EDGE_CURVE('',#230,#230,#206,.T.);
#273=EDGE_CURVE('',#231,#231,#207,.T.);
#274=EDGE_CURVE('',#231,#232,#133,.T.);
#275=EDGE_CURVE('',#232,#232,#208,.T.);
#276=EDGE_CURVE('',#233,#233,#209,.T.);
#277=EDGE_CURVE('',#233,#234,#134,.T.);
#278=EDGE_CURVE('',#234,#234,#210,.T.);
#279=EDGE_CURVE('',#235,#236,#135,.T.);
#280=EDGE_CURVE('',#237,#236,#136,.T.);
#281=EDGE_CURVE('',#238,#237,#137,.T.);
#282=EDGE_CURVE('',#238,#235,#138,.T.);
#283=EDGE_CURVE('',#236,#239,#139,.T.);
#284=EDGE_CURVE('',#240,#239,#140,.T.);
#285=EDGE_CURVE('',#237,#240,#141,.T.);
#286=EDGE_CURVE('',#239,#241,#142,.T.);
#287=EDGE_CURVE('',#242,#241,#143,.T.);
#288=EDGE_CURVE('',#240,#242,#144,.T.);
#289=EDGE_CURVE('',#241,#235,#145,.T.);
#290=EDGE_CURVE('',#242,#238,#146,.T.);
#291=EDGE_CURVE('',#243,#243,#211,.T.);
#292=EDGE_CURVE('',#243,#244,#147,.T.);
#293=EDGE_CURVE('',#244,#244,#212,.T.);
#294=EDGE_CURVE('',#245,#245,#213,.T.);
#295=EDGE_CURVE('',#245,#246,#148,.T.);
#296=EDGE_CURVE('',#246,#246,#214,.T.);
#297=EDGE_CURVE('',#247,#247,#215,.T.);
#298=EDGE_CURVE('',#247,#248,#149,.T.);
#299=EDGE_CURVE('',#248,#248,#216,.T.);
#300=EDGE_CURVE('',#249,#249,#217,.T.);
#301=EDGE_CURVE('',#249,#250,#150,.T.);
#302=EDGE_CURVE('',#250,#250,#218,.T.);
#303=EDGE_CURVE('',#251,#252,#151,.T.);
#304=EDGE_CURVE('',#251,#253,#152,.T.);
#305=EDGE_CURVE('',#253,#254,#153,.T.);
#306=EDGE_CURVE('',#254,#252,#154,.T.);
#307=EDGE_CURVE('',#255,#256,#155,.T.);
#308=EDGE_CURVE('',#256,#257,#156,.T.);
#309=EDGE_CURVE('',#258,#257,#157,.T.);
#310=EDGE_CURVE('',#258,#255,#158,.T.);
#311=EDGE_CURVE('',#259,#260,#159,.T.);
#312=EDGE_CURVE('',#259,#261,#160,.T.);
#313=EDGE_CURVE('',#261,#262,#161,.T.);
#314=EDGE_CURVE('',#262,#260,#162,.T.);
#315=EDGE_CURVE('',#263,#264,#163,.T.);
#316=EDGE_CURVE('',#263,#265,#164,.T.);
#317=EDGE_CURVE('',#265,#266,#165,.T.);
#318=EDGE_CURVE('',#266,#264,#166,.T.);
#319=EDGE_CURVE('',#257,#259,#219,.T.);
#320=EDGE_CURVE('',#260,#263,#220,.T.);
#321=EDGE_CURVE('',#264,#251,#221,.T.);
#322=EDGE_CURVE('',#252,#258,#222,.T.);
#323=EDGE_CURVE('',#261,#256,#223,.T.);
#324=EDGE_CURVE('',#255,#254,#224,.T.);
#325=EDGE_CURVE('',#253,#266,#225,.T.);
#326=EDGE_CURVE('',#265,#262,#226,.T.);
#327=ORIENTED_EDGE('',*,*,#267,.F.);
#328=ORIENTED_EDGE('',*,*,#268,.T.);
#329=ORIENTED_EDGE('',*,*,#269,.F.);
#330=ORIENTED_EDGE('',*,*,#268,.F.);
#331=ORIENTED_EDGE('',*,*,#270,.T.);
#332=ORIENTED_EDGE('',*,*,#271,.T.);
#333=ORIENTED_EDGE('',*,*,#272,.T.);
#334=ORIENTED_EDGE('',*,*,#271,.F.);
#335=ORIENTED_EDGE('',*,*,#273,.F.);
#336=ORIENTED_EDGE('',*,*,#274,.T.);
#337=ORIENTED_EDGE('',*,*,#275,.F.);
#338=ORIENTED_EDGE('',*,*,#274,.F.);
#339=ORIENTED_EDGE('',*,*,#276,.T.);
#340=ORIENTED_EDGE('',*,*,#277,.T.);
#341=ORIENTED_EDGE('',*,*,#278,.T.);
#342=ORIENTED_EDGE('',*,*,#277,.F.);
#343=ORIENTED_EDGE('',*,*,#279,.T.);
#344=ORIENTED_EDGE('',*,*,#280,.F.);
#345=ORIENTED_EDGE('',*,*,#281,.F.);
#346=ORIENTED_EDGE('',*,*,#282,.T.);
#347=ORIENTED_EDGE('',*,*,#283,.T.);
#348=ORIENTED_EDGE('',*,*,#284,.F.);
#349=ORIENTED_EDGE('',*,*,#285,.F.);
#350=ORIENTED_EDGE('',*,*,#280,.T.);
#351=ORIENTED_EDGE('',*,*,#286,.T.);
#352=ORIENTED_EDGE('',*,*,#287,.F.);
#353=ORIENTED_EDGE('',*,*,#288,.F.);
#354=ORIENTED_EDGE('',*,*,#284,.T.);
#355=ORIENTED_EDGE('',*,*,#289,.T.);
#356=ORIENTED_EDGE('',*,*,#282,.F.);
#357=ORIENTED_EDGE('',*,*,#290,.F.);
#358=ORIENTED_EDGE('',*,*,#287,.T.);
#359=ORIENTED_EDGE('',*,*,#281,.T.);
#360=ORIENTED_EDGE('',*,*,#285,.T.);
#361=ORIENTED_EDGE('',*,*,#288,.T.);
#362=ORIENTED_EDGE('',*,*,#290,.T.);
#363=ORIENTED_EDGE('',*,*,#269,.T.);
#364=ORIENTED_EDGE('',*,*,#272,.F.);
#365=ORIENTED_EDGE('',*,*,#275,.T.);
#366=ORIENTED_EDGE('',*,*,#278,.F.);
#367=ORIENTED_EDGE('',*,*,#279,.F.);
#368=ORIENTED_EDGE('',*,*,#289,.F.);
#369=ORIENTED_EDGE('',*,*,#286,.F.);
#370=ORIENTED_EDGE('',*,*,#283,.F.);
#371=ORIENTED_EDGE('',*,*,#267,.T.);
#372=ORIENTED_EDGE('',*,*,#270,.F.);
#373=ORIENTED_EDGE('',*,*,#273,.T.);
#374=ORIENTED_EDGE('',*,*,#276,.F.);
#375=ORIENTED_EDGE('',*,*,#291,.F.);
#376=ORIENTED_EDGE('',*,*,#292,.T.);
#377=ORIENTED_EDGE('',*,*,#293,.T.);
#378=ORIENTED_EDGE('',*,*,#292,.F.);
#379=ORIENTED_EDGE('',*,*,#294,.F.);
#380=ORIENTED_EDGE('',*,*,#295,.T.);
#381=ORIENTED_EDGE('',*,*,#296,.T.);
#382=ORIENTED_EDGE('',*,*,#295,.F.);
#383=ORIENTED_EDGE('',*,*,#297,.F.);
#384=ORIENTED_EDGE('',*,*,#298,.T.);
#385=ORIENTED_EDGE('',*,*,#299,.T.);
#386=ORIENTED_EDGE('',*,*,#298,.F.);
#387=ORIENTED_EDGE('',*,*,#300,.F.);
#388=ORIENTED_EDGE('',*,*,#301,.T.);
#389=ORIENTED_EDGE('',*,*,#302,.T.);
#390=ORIENTED_EDGE('',*,*,#301,.F.);
#391=ORIENTED_EDGE('',*,*,#303,.F.);
#392=ORIENTED_EDGE('',*,*,#304,.T.);
#393=ORIENTED_EDGE('',*,*,#305,.T.);
#394=ORIENTED_EDGE('',*,*,#306,.T.);
#395=ORIENTED_EDGE('',*,*,#307,.T.);
#396=ORIENTED_EDGE('',*,*,#308,.T.);
#397=ORIENTED_EDGE('',*,*,#309,.F.);
#398=ORIENTED_EDGE('',*,*,#310,.T.);
#399=ORIENTED_EDGE('',*,*,#311,.F.);
#400=ORIENTED_EDGE('',*,*,#312,.T.);
#401=ORIENTED_EDGE('',*,*,#313,.T.);
#402=ORIENTED_EDGE('',*,*,#314,.T.);
#403=ORIENTED_EDGE('',*,*,#315,.F.);
#404=ORIENTED_EDGE('',*,*,#316,.T.);
#405=ORIENTED_EDGE('',*,*,#317,.T.);
#406=ORIENTED_EDGE('',*,*,#318,.T.);
#407=ORIENTED_EDGE('',*,*,#309,.T.);
#408=ORIENTED_EDGE('',*,*,#319,.T.);
#409=ORIENTED_EDGE('',*,*,#311,.T.);
#410=ORIENTED_EDGE('',*,*,#320,.T.);
#411=ORIENTED_EDGE('',*,*,#315,.T.);
#412=ORIENTED_EDGE('',*,*,#321,.T.);
#413=ORIENTED_EDGE('',*,*,#303,.T.);
#414=ORIENTED_EDGE('',*,*,#322,.T.);
#415=ORIENTED_EDGE('',*,*,#291,.T.);
#416=ORIENTED_EDGE('',*,*,#294,.T.);
#417=ORIENTED_EDGE('',*,*,#297,.T.);
#418=ORIENTED_EDGE('',*,*,#300,.T.);
#419=ORIENTED_EDGE('',*,*,#313,.F.);
#420=ORIENTED_EDGE('',*,*,#323,.T.);
#421=ORIENTED_EDGE('',*,*,#307,.F.);
#422=ORIENTED_EDGE('',*,*,#324,.T.);
#423=ORIENTED_EDGE('',*,*,#305,.F.);
#424=ORIENTED_EDGE('',*,*,#325,.T.);
#425=ORIENTED_EDGE('',*,*,#317,.F.);
#426=ORIENTED_EDGE('',*,*,#326,.T.);
#427=ORIENTED_EDGE('',*,*,#293,.F.);
#428=ORIENTED_EDGE('',*,*,#296,.F.);
#429=ORIENTED_EDGE('',*,*,#299,.F.);
#430=ORIENTED_EDGE('',*,*,#302,.F.);
#431=ORIENTED_EDGE('',*,*,#319,.F.);
#432=ORIENTED_EDGE('',*,*,#308,.F.);
#433=ORIENTED_EDGE('',*,*,#323,.F.);
#434=ORIENTED_EDGE('',*,*,#312,.F.);
#435=ORIENTED_EDGE('',*,*,#320,.F.);
#436=ORIENTED_EDGE('',*,*,#314,.F.);
#437=ORIENTED_EDGE('',*,*,#326,.F.);
#438=ORIENTED_EDGE('',*,*,#316,.F.);
#439=ORIENTED_EDGE('',*,*,#321,.F.);
#440=ORIENTED_EDGE('',*,*,#318,.F.);
#441=ORIENTED_EDGE('',*,*,#325,.F.);
#442=ORIENTED_EDGE('',*,*,#304,.F.);
#443=ORIENTED_EDGE('',*,*,#322,.F.);
#444=ORIENTED_EDGE('',*,*,#306,.F.);
#445=ORIENTED_EDGE('',*,*,#324,.F.);
#446=ORIENTED_EDGE('',*,*,#310,.F.);
#447=CYLINDRICAL_SURFACE('',#510,2.5);
#448=CYLINDRICAL_SURFACE('',#513,2.5);
#449=CYLINDRICAL_SURFACE('',#516,2.5);
#450=CYLINDRICAL_SURFACE('',#519,2.5);
#451=CYLINDRICAL_SURFACE('',#529,2.55);
#452=CYLINDRICAL_SURFACE('',#532,2.55);
#453=CYLINDRICAL_SURFACE('',#535,2.55);
#454=CYLINDRICAL_SURFACE('',#538,2.55);
#455=CYLINDRICAL_SURFACE('',#555,4.);
#456=CYLINDRICAL_SURFACE('',#556,4.);
#457=CYLINDRICAL_SURFACE('',#557,4.);
#458=CYLINDRICAL_SURFACE('',#558,4.);
#459=ADVANCED_FACE('',(#67),#447,.F.);
#460=ADVANCED_FACE('',(#68),#448,.F.);
#461=ADVANCED_FACE('',(#69),#449,.F.);
#462=ADVANCED_FACE('',(#70),#450,.F.);
#463=ADVANCED_FACE('',(#71),#55,.F.);
#464=ADVANCED_FACE('',(#72),#56,.F.);
#465=ADVANCED_FACE('',(#73),#57,.F.);
#466=ADVANCED_FACE('',(#74),#58,.F.);
#467=ADVANCED_FACE('',(#75,#39,#40,#41,#42),#59,.F.);
#468=ADVANCED_FACE('',(#76,#43,#44,#45,#46),#60,.T.);
#469=ADVANCED_FACE('',(#77),#451,.F.);
#470=ADVANCED_FACE('',(#78),#452,.F.);
#471=ADVANCED_FACE('',(#79),#453,.F.);
#472=ADVANCED_FACE('',(#80),#454,.F.);
#473=ADVANCED_FACE('',(#81),#61,.F.);
#474=ADVANCED_FACE('',(#82),#62,.F.);
#475=ADVANCED_FACE('',(#83),#63,.F.);
#476=ADVANCED_FACE('',(#84),#64,.F.);
#477=ADVANCED_FACE('',(#85,#47,#48,#49,#50),#65,.F.);
#478=ADVANCED_FACE('',(#86,#51,#52,#53,#54),#66,.T.);
#479=ADVANCED_FACE('',(#87),#455,.T.);
#480=ADVANCED_FACE('',(#88),#456,.T.);
#481=ADVANCED_FACE('',(#89),#457,.T.);
#482=ADVANCED_FACE('',(#90),#458,.T.);
#483=CLOSED_SHELL('',(#459,#460,#461,#462,#463,#464,#465,#466,#467,#468));
#484=CLOSED_SHELL('',(#469,#470,#471,#472,#473,#474,#475,#476,#477,#478,
#479,#480,#481,#482));
#485=DERIVED_UNIT_ELEMENT(#489,1.);
#486=DERIVED_UNIT_ELEMENT(#853,-3.);
#487=DERIVED_UNIT_ELEMENT(#489,1.);
#488=DERIVED_UNIT_ELEMENT(#853,-3.);
#489=(
MASS_UNIT()
NAMED_UNIT(*)
SI_UNIT(.KILO.,.GRAM.)
);
#490=DERIVED_UNIT((#485,#486));
#491=DERIVED_UNIT((#487,#488));
#492=MEASURE_REPRESENTATION_ITEM('density measure',
POSITIVE_RATIO_MEASURE(7850.),#490);
#493=MEASURE_REPRESENTATION_ITEM('density measure',
POSITIVE_RATIO_MEASURE(7850.),#491);
#494=PROPERTY_DEFINITION_REPRESENTATION(#504,#498);
#495=PROPERTY_DEFINITION_REPRESENTATION(#505,#499);
#496=PROPERTY_DEFINITION_REPRESENTATION(#506,#500);
#497=PROPERTY_DEFINITION_REPRESENTATION(#507,#501);
#498=REPRESENTATION('material name',(#502),#849);
#499=REPRESENTATION('density',(#492),#849);
#500=REPRESENTATION('material name',(#503),#850);
#501=REPRESENTATION('density',(#493),#850);
#502=DESCRIPTIVE_REPRESENTATION_ITEM('Steel','Steel');
#503=DESCRIPTIVE_REPRESENTATION_ITEM('Steel','Steel');
#504=PROPERTY_DEFINITION('material property','material name',#872);
#505=PROPERTY_DEFINITION('material property','density of part',#872);
#506=PROPERTY_DEFINITION('material property','material name',#873);
#507=PROPERTY_DEFINITION('material property','density of part',#873);
#508=AXIS2_PLACEMENT_3D('',#712,#564,#565);
#509=AXIS2_PLACEMENT_3D('',#713,#566,#567);
#510=AXIS2_PLACEMENT_3D('',#714,#568,#569);
#511=AXIS2_PLACEMENT_3D('',#716,#570,#571);
#512=AXIS2_PLACEMENT_3D('',#719,#573,#574);
#513=AXIS2_PLACEMENT_3D('',#720,#575,#576);
#514=AXIS2_PLACEMENT_3D('',#722,#577,#578);
#515=AXIS2_PLACEMENT_3D('',#725,#580,#581);
#516=AXIS2_PLACEMENT_3D('',#726,#582,#583);
#517=AXIS2_PLACEMENT_3D('',#728,#584,#585);
#518=AXIS2_PLACEMENT_3D('',#731,#587,#588);
#519=AXIS2_PLACEMENT_3D('',#732,#589,#590);
#520=AXIS2_PLACEMENT_3D('',#734,#591,#592);
#521=AXIS2_PLACEMENT_3D('',#737,#594,#595);
#522=AXIS2_PLACEMENT_3D('',#738,#596,#597);
#523=AXIS2_PLACEMENT_3D('',#747,#602,#603);
#524=AXIS2_PLACEMENT_3D('',#753,#607,#608);
#525=AXIS2_PLACEMENT_3D('',#759,#612,#613);
#526=AXIS2_PLACEMENT_3D('',#762,#616,#617);
#527=AXIS2_PLACEMENT_3D('',#763,#618,#619);
#528=AXIS2_PLACEMENT_3D('',#764,#620,#621);
#529=AXIS2_PLACEMENT_3D('',#765,#622,#623);
#530=AXIS2_PLACEMENT_3D('',#767,#624,#625);
#531=AXIS2_PLACEMENT_3D('',#770,#627,#628);
#532=AXIS2_PLACEMENT_3D('',#771,#629,#630);
#533=AXIS2_PLACEMENT_3D('',#773,#631,#632);
#534=AXIS2_PLACEMENT_3D('',#776,#634,#635);
#535=AXIS2_PLACEMENT_3D('',#777,#636,#637);
#536=AXIS2_PLACEMENT_3D('',#779,#638,#639);
#537=AXIS2_PLACEMENT_3D('',#782,#641,#642);
#538=AXIS2_PLACEMENT_3D('',#783,#643,#644);
#539=AXIS2_PLACEMENT_3D('',#785,#645,#646);
#540=AXIS2_PLACEMENT_3D('',#788,#648,#649);
#541=AXIS2_PLACEMENT_3D('',#789,#650,#651);
#542=AXIS2_PLACEMENT_3D('',#798,#656,#657);
#543=AXIS2_PLACEMENT_3D('',#807,#662,#663);
#544=AXIS2_PLACEMENT_3D('',#816,#668,#669);
#545=AXIS2_PLACEMENT_3D('',#825,#674,#675);
#546=AXIS2_PLACEMENT_3D('',#826,#676,#677);
#547=AXIS2_PLACEMENT_3D('',#827,#678,#679);
#548=AXIS2_PLACEMENT_3D('',#828,#680,#681);
#549=AXIS2_PLACEMENT_3D('',#829,#682,#683);
#550=AXIS2_PLACEMENT_3D('',#830,#684,#685);
#551=AXIS2_PLACEMENT_3D('',#831,#686,#687);
#552=AXIS2_PLACEMENT_3D('',#832,#688,#689);
#553=AXIS2_PLACEMENT_3D('',#833,#690,#691);
#554=AXIS2_PLACEMENT_3D('',#834,#692,#693);
#555=AXIS2_PLACEMENT_3D('',#835,#694,#695);
#556=AXIS2_PLACEMENT_3D('',#836,#696,#697);
#557=AXIS2_PLACEMENT_3D('',#837,#698,#699);
#558=AXIS2_PLACEMENT_3D('',#838,#700,#701);
#559=AXIS2_PLACEMENT_3D('',#839,#702,#703);
#560=AXIS2_PLACEMENT_3D('',#840,#704,#705);
#561=AXIS2_PLACEMENT_3D('',#841,#706,#707);
#562=AXIS2_PLACEMENT_3D('',#842,#708,#709);
#563=AXIS2_PLACEMENT_3D('',#843,#710,#711);
#564=DIRECTION('axis',(0.,0.,1.));
#565=DIRECTION('refdir',(1.,0.,0.));
#566=DIRECTION('axis',(0.,0.,1.));
#567=DIRECTION('refdir',(1.,0.,0.));
#568=DIRECTION('center_axis',(0.,0.,1.));
#569=DIRECTION('ref_axis',(1.,0.,0.));
#570=DIRECTION('center_axis',(0.,0.,1.));
#571=DIRECTION('ref_axis',(-1.,0.,0.));
#572=DIRECTION('',(0.,0.,1.));
#573=DIRECTION('center_axis',(0.,0.,-1.));
#574=DIRECTION('ref_axis',(1.,0.,0.));
#575=DIRECTION('center_axis',(0.,0.,1.));
#576=DIRECTION('ref_axis',(1.,0.,0.));
#577=DIRECTION('center_axis',(0.,0.,-1.));
#578=DIRECTION('ref_axis',(-1.,0.,0.));
#579=DIRECTION('',(0.,0.,1.));
#580=DIRECTION('center_axis',(0.,0.,1.));
#581=DIRECTION('ref_axis',(-1.,0.,0.));
#582=DIRECTION('center_axis',(0.,0.,1.));
#583=DIRECTION('ref_axis',(1.,0.,0.));
#584=DIRECTION('center_axis',(0.,0.,1.));
#585=DIRECTION('ref_axis',(-1.,0.,0.));
#586=DIRECTION('',(0.,0.,1.));
#587=DIRECTION('center_axis',(0.,0.,-1.));
#588=DIRECTION('ref_axis',(-1.,0.,0.));
#589=DIRECTION('center_axis',(0.,0.,1.));
#590=DIRECTION('ref_axis',(1.,0.,0.));
#591=DIRECTION('center_axis',(0.,0.,-1.));
#592=DIRECTION('ref_axis',(-1.,0.,0.));
#593=DIRECTION('',(0.,0.,1.));
#594=DIRECTION('center_axis',(0.,0.,1.));
#595=DIRECTION('ref_axis',(1.,0.,0.));
#596=DIRECTION('center_axis',(-1.,0.,0.));
#597=DIRECTION('ref_axis',(0.,0.,1.));
#598=DIRECTION('',(0.,1.,0.));
#599=DIRECTION('',(0.,0.,-1.));
#600=DIRECTION('',(0.,1.,0.));
#601=DIRECTION('',(0.,0.,-1.));
#602=DIRECTION('center_axis',(9.40866970021319E-17,-1.,0.));
#603=DIRECTION('ref_axis',(1.,9.40866970021319E-17,0.));
#604=DIRECTION('',(-1.,-9.40866970021319E-17,0.));
#605=DIRECTION('',(0.,0.,-1.));
#606=DIRECTION('',(-1.,-9.40866970021319E-17,0.));
#607=DIRECTION('center_axis',(1.,1.32169407693471E-16,0.));
#608=DIRECTION('ref_axis',(-1.32169407693471E-16,1.,0.));
#609=DIRECTION('',(1.32169407693471E-16,-1.,0.));
#610=DIRECTION('',(0.,0.,-1.));
#611=DIRECTION('',(1.32169407693471E-16,-1.,0.));
#612=DIRECTION('center_axis',(-1.88173394004264E-16,1.,0.));
#613=DIRECTION('ref_axis',(-1.,-1.88173394004264E-16,0.));
#614=DIRECTION('',(1.,1.88173394004264E-16,0.));
#615=DIRECTION('',(1.,1.88173394004264E-16,0.));
#616=DIRECTION('center_axis',(0.,0.,-1.));
#617=DIRECTION('ref_axis',(-1.,0.,0.));
#618=DIRECTION('center_axis',(0.,0.,-1.));
#619=DIRECTION('ref_axis',(-1.,0.,0.));
#620=DIRECTION('axis',(0.,0.,1.));
#621=DIRECTION('refdir',(1.,0.,0.));
#622=DIRECTION('center_axis',(0.,0.,-1.));
#623=DIRECTION('ref_axis',(-1.,0.,0.));
#624=DIRECTION('center_axis',(0.,0.,-1.));
#625=DIRECTION('ref_axis',(-1.,0.,0.));
#626=DIRECTION('',(0.,0.,-1.));
#627=DIRECTION('center_axis',(0.,0.,-1.));
#628=DIRECTION('ref_axis',(-1.,0.,0.));
#629=DIRECTION('center_axis',(0.,0.,-1.));
#630=DIRECTION('ref_axis',(-1.,0.,0.));
#631=DIRECTION('center_axis',(0.,0.,-1.));
#632=DIRECTION('ref_axis',(-1.,0.,0.));
#633=DIRECTION('',(0.,0.,-1.));
#634=DIRECTION('center_axis',(0.,0.,-1.));
#635=DIRECTION('ref_axis',(-1.,0.,0.));
#636=DIRECTION('center_axis',(0.,0.,-1.));
#637=DIRECTION('ref_axis',(-1.,0.,0.));
#638=DIRECTION('center_axis',(0.,0.,-1.));
#639=DIRECTION('ref_axis',(-1.,0.,0.));
#640=DIRECTION('',(0.,0.,-1.));
#641=DIRECTION('center_axis',(0.,0.,-1.));
#642=DIRECTION('ref_axis',(-1.,0.,0.));
#643=DIRECTION('center_axis',(0.,0.,-1.));
#644=DIRECTION('ref_axis',(-1.,0.,0.));
#645=DIRECTION('center_axis',(0.,0.,-1.));
#646=DIRECTION('ref_axis',(-1.,0.,0.));
#647=DIRECTION('',(0.,0.,-1.));
#648=DIRECTION('center_axis',(0.,0.,-1.));
#649=DIRECTION('ref_axis',(-1.,0.,0.));
#650=DIRECTION('center_axis',(-1.,0.,0.));
#651=DIRECTION('ref_axis',(0.,0.,1.));
#652=DIRECTION('',(0.,1.,0.));
#653=DIRECTION('',(0.,0.,-1.));
#654=DIRECTION('',(0.,1.,0.));
#655=DIRECTION('',(0.,0.,1.));
#656=DIRECTION('center_axis',(0.,-1.,0.));
#657=DIRECTION('ref_axis',(0.,0.,-1.));
#658=DIRECTION('',(-1.,0.,0.));
#659=DIRECTION('',(0.,0.,1.));
#660=DIRECTION('',(-1.,0.,0.));
#661=DIRECTION('',(0.,0.,-1.));
#662=DIRECTION('center_axis',(1.,0.,0.));
#663=DIRECTION('ref_axis',(0.,0.,-1.));
#664=DIRECTION('',(0.,-1.,0.));
#665=DIRECTION('',(0.,0.,-1.));
#666=DIRECTION('',(0.,-1.,0.));
#667=DIRECTION('',(0.,0.,1.));
#668=DIRECTION('center_axis',(0.,1.,0.));
#669=DIRECTION('ref_axis',(0.,0.,1.));
#670=DIRECTION('',(1.,0.,0.));
#671=DIRECTION('',(0.,0.,-1.));
#672=DIRECTION('',(1.,0.,0.));
#673=DIRECTION('',(0.,0.,1.));
#674=DIRECTION('center_axis',(0.,0.,-1.));
#675=DIRECTION('ref_axis',(-1.,0.,0.));
#676=DIRECTION('center_axis',(0.,0.,1.));
#677=DIRECTION('ref_axis',(-1.,0.,0.));
#678=DIRECTION('center_axis',(0.,0.,1.));
#679=DIRECTION('ref_axis',(-1.,0.,0.));
#680=DIRECTION('center_axis',(0.,0.,1.));
#681=DIRECTION('ref_axis',(-1.,0.,0.));
#682=DIRECTION('center_axis',(0.,0.,1.));
#683=DIRECTION('ref_axis',(-1.,0.,0.));
#684=DIRECTION('center_axis',(0.,0.,-1.));
#685=DIRECTION('ref_axis',(-1.,0.,0.));
#686=DIRECTION('center_axis',(0.,0.,-1.));
#687=DIRECTION('ref_axis',(-1.,0.,0.));
#688=DIRECTION('center_axis',(0.,0.,-1.));
#689=DIRECTION('ref_axis',(-1.,0.,0.));
#690=DIRECTION('center_axis',(0.,0.,-1.));
#691=DIRECTION('ref_axis',(-1.,0.,0.));
#692=DIRECTION('center_axis',(0.,0.,-1.));
#693=DIRECTION('ref_axis',(-1.,0.,0.));
#694=DIRECTION('center_axis',(0.,0.,-1.));
#695=DIRECTION('ref_axis',(-1.,0.,0.));
#696=DIRECTION('center_axis',(0.,0.,-1.));
#697=DIRECTION('ref_axis',(-1.,0.,0.));
#698=DIRECTION('center_axis',(0.,0.,-1.));
#699=DIRECTION('ref_axis',(-1.,0.,0.));
#700=DIRECTION('center_axis',(0.,0.,-1.));
#701=DIRECTION('ref_axis',(-1.,0.,0.));
#702=DIRECTION('',(0.,-4.17828869290763E-34,-1.));
#703=DIRECTION('',(1.,6.16297582203915E-33,-2.57506921918893E-66));
#704=DIRECTION('',(0.,0.,1.));
#705=DIRECTION('',(-3.49148133884313E-15,1.,0.));
#706=DIRECTION('',(0.,0.,-1.));
#707=DIRECTION('',(-3.49148133884313E-15,-1.,0.));
#708=DIRECTION('',(0.,0.,-1.));
#709=DIRECTION('',(3.49148133884313E-15,1.,0.));
#710=DIRECTION('',(0.,0.,1.));
#711=DIRECTION('',(3.49148133884313E-15,-1.,0.));
#712=CARTESIAN_POINT('',(0.,0.,0.));
#713=CARTESIAN_POINT('',(0.,0.,0.));
#714=CARTESIAN_POINT('Origin',(-139.5,-97.,-8.));
#715=CARTESIAN_POINT('',(-142.,-97.,0.));
#716=CARTESIAN_POINT('Origin',(-139.5,-97.,0.));
#717=CARTESIAN_POINT('',(-142.,-97.,2.));
#718=CARTESIAN_POINT('',(-142.,-97.,-8.));
#719=CARTESIAN_POINT('Origin',(-139.5,-97.,2.));
#720=CARTESIAN_POINT('Origin',(139.5,-97.,-8.));
#721=CARTESIAN_POINT('',(137.,-97.,0.));
#722=CARTESIAN_POINT('Origin',(139.5,-97.,0.));
#723=CARTESIAN_POINT('',(137.,-97.,2.));
#724=CARTESIAN_POINT('',(137.,-97.,-8.));
#725=CARTESIAN_POINT('Origin',(139.5,-97.,2.));
#726=CARTESIAN_POINT('Origin',(139.5,97.,-8.));
#727=CARTESIAN_POINT('',(137.,97.,0.));
#728=CARTESIAN_POINT('Origin',(139.5,97.,0.));
#729=CARTESIAN_POINT('',(137.,97.,2.));
#730=CARTESIAN_POINT('',(137.,97.,-8.));
#731=CARTESIAN_POINT('Origin',(139.5,97.,2.));
#732=CARTESIAN_POINT('Origin',(-139.5,97.,-8.));
#733=CARTESIAN_POINT('',(-142.,97.,0.));
#734=CARTESIAN_POINT('Origin',(-139.5,97.,0.));
#735=CARTESIAN_POINT('',(-142.,97.,2.));
#736=CARTESIAN_POINT('',(-142.,97.,-8.));
#737=CARTESIAN_POINT('Origin',(-139.5,97.,2.));
#738=CARTESIAN_POINT('Origin',(147.5,105.,2.));
#739=CARTESIAN_POINT('',(147.5,-105.,0.));
#740=CARTESIAN_POINT('',(147.5,105.,0.));
#741=CARTESIAN_POINT('',(147.5,105.,0.));
#742=CARTESIAN_POINT('',(147.5,105.,2.));
#743=CARTESIAN_POINT('',(147.5,105.,2.));
#744=CARTESIAN_POINT('',(147.5,-105.,2.));
#745=CARTESIAN_POINT('',(147.5,105.,2.));
#746=CARTESIAN_POINT('',(147.5,-105.,2.));
#747=CARTESIAN_POINT('Origin',(147.5,105.,2.));
#748=CARTESIAN_POINT('',(-147.5,105.,0.));
#749=CARTESIAN_POINT('',(147.5,105.,0.));
#750=CARTESIAN_POINT('',(-147.5,105.,2.));
#751=CARTESIAN_POINT('',(-147.5,105.,2.));
#752=CARTESIAN_POINT('',(147.5,105.,2.));
#753=CARTESIAN_POINT('Origin',(-147.5,105.,2.));
#754=CARTESIAN_POINT('',(-147.5,-105.,0.));
#755=CARTESIAN_POINT('',(-147.5,105.,0.));
#756=CARTESIAN_POINT('',(-147.5,-105.,2.));
#757=CARTESIAN_POINT('',(-147.5,-105.,2.));
#758=CARTESIAN_POINT('',(-147.5,105.,2.));
#759=CARTESIAN_POINT('Origin',(147.5,-105.,2.));
#760=CARTESIAN_POINT('',(147.5,-105.,0.));
#761=CARTESIAN_POINT('',(147.5,-105.,2.));
#762=CARTESIAN_POINT('Origin',(0.,0.,2.));
#763=CARTESIAN_POINT('Origin',(0.,0.,0.));
#764=CARTESIAN_POINT('',(0.,0.,0.));
#765=CARTESIAN_POINT('Origin',(-33.,-54.7499999999999,1.));
#766=CARTESIAN_POINT('',(-30.45,-54.7499999999999,1.));
#767=CARTESIAN_POINT('Origin',(-33.,-54.7499999999999,1.));
#768=CARTESIAN_POINT('',(-30.45,-54.7499999999999,0.));
#769=CARTESIAN_POINT('',(-30.45,-54.7499999999999,1.));
#770=CARTESIAN_POINT('Origin',(-33.,-54.7499999999999,0.));
#771=CARTESIAN_POINT('Origin',(-32.9999999999996,54.7500000000001,1.));
#772=CARTESIAN_POINT('',(-30.4499999999996,54.7500000000001,1.));
#773=CARTESIAN_POINT('Origin',(-32.9999999999996,54.7500000000001,1.));
#774=CARTESIAN_POINT('',(-30.4499999999996,54.7500000000001,0.));
#775=CARTESIAN_POINT('',(-30.4499999999996,54.7500000000001,1.));
#776=CARTESIAN_POINT('Origin',(-32.9999999999996,54.7500000000001,0.));
#777=CARTESIAN_POINT('Origin',(33.0000000000004,54.7499999999998,1.));
#778=CARTESIAN_POINT('',(35.5500000000004,54.7499999999998,1.));
#779=CARTESIAN_POINT('Origin',(33.0000000000004,54.7499999999998,1.));
#780=CARTESIAN_POINT('',(35.5500000000004,54.7499999999998,0.));
#781=CARTESIAN_POINT('',(35.5500000000004,54.7499999999998,1.));
#782=CARTESIAN_POINT('Origin',(33.0000000000004,54.7499999999998,0.));
#783=CARTESIAN_POINT('Origin',(33.,-54.7500000000001,1.));
#784=CARTESIAN_POINT('',(35.55,-54.7500000000001,1.));
#785=CARTESIAN_POINT('Origin',(33.,-54.7500000000001,1.));
#786=CARTESIAN_POINT('',(35.55,-54.7500000000001,0.));
#787=CARTESIAN_POINT('',(35.55,-54.7500000000001,1.));
#788=CARTESIAN_POINT('Origin',(33.,-54.7500000000001,0.));
#789=CARTESIAN_POINT('Origin',(40.,-64.,1.));
#790=CARTESIAN_POINT('',(40.,-60.,1.));
#791=CARTESIAN_POINT('',(40.,60.,1.));
#792=CARTESIAN_POINT('',(40.,-64.,1.));
#793=CARTESIAN_POINT('',(40.,-60.,0.));
#794=CARTESIAN_POINT('',(40.,-60.,1.));
#795=CARTESIAN_POINT('',(40.,60.,0.));
#796=CARTESIAN_POINT('',(40.,-64.,0.));
#797=CARTESIAN_POINT('',(40.,60.,1.));
#798=CARTESIAN_POINT('Origin',(-40.,64.,1.));
#799=CARTESIAN_POINT('',(36.,64.,0.));
#800=CARTESIAN_POINT('',(-36.,64.,0.));
#801=CARTESIAN_POINT('',(-40.,64.,0.));
#802=CARTESIAN_POINT('',(-36.,64.,1.));
#803=CARTESIAN_POINT('',(-36.,64.,1.));
#804=CARTESIAN_POINT('',(36.,64.,1.));
#805=CARTESIAN_POINT('',(-40.,64.,1.));
#806=CARTESIAN_POINT('',(36.,64.,1.));
#807=CARTESIAN_POINT('Origin',(-40.,-64.,1.));
#808=CARTESIAN_POINT('',(-40.,60.,1.));
#809=CARTESIAN_POINT('',(-40.,-60.,1.));
#810=CARTESIAN_POINT('',(-40.,-64.,1.));
#811=CARTESIAN_POINT('',(-40.,60.,0.));
#812=CARTESIAN_POINT('',(-40.,60.,1.));
#813=CARTESIAN_POINT('',(-40.,-60.,0.));
#814=CARTESIAN_POINT('',(-40.,-64.,0.));
#815=CARTESIAN_POINT('',(-40.,-60.,1.));
#816=CARTESIAN_POINT('Origin',(-40.,-64.,1.));
#817=CARTESIAN_POINT('',(-36.,-64.,1.));
#818=CARTESIAN_POINT('',(36.,-64.,1.));
#819=CARTESIAN_POINT('',(-40.,-64.,1.));
#820=CARTESIAN_POINT('',(-36.,-64.,0.));
#821=CARTESIAN_POINT('',(-36.,-64.,1.));
#822=CARTESIAN_POINT('',(36.,-64.,0.));
#823=CARTESIAN_POINT('',(-40.,-64.,0.));
#824=CARTESIAN_POINT('',(36.,-64.,1.));
#825=CARTESIAN_POINT('Origin',(0.,0.,1.));
#826=CARTESIAN_POINT('Origin',(-36.,60.,1.));
#827=CARTESIAN_POINT('Origin',(-36.,-60.,1.));
#828=CARTESIAN_POINT('Origin',(36.,-60.,1.));
#829=CARTESIAN_POINT('Origin',(36.,60.,1.));
#830=CARTESIAN_POINT('Origin',(0.,0.,0.));
#831=CARTESIAN_POINT('Origin',(-36.,60.,0.));
#832=CARTESIAN_POINT('Origin',(36.,60.,0.));
#833=CARTESIAN_POINT('Origin',(36.,-60.,0.));
#834=CARTESIAN_POINT('Origin',(-36.,-60.,0.));
#835=CARTESIAN_POINT('Origin',(-36.,60.,1.));
#836=CARTESIAN_POINT('Origin',(-36.,-60.,1.));
#837=CARTESIAN_POINT('Origin',(36.,-60.,1.));
#838=CARTESIAN_POINT('Origin',(36.,60.,1.));
#839=CARTESIAN_POINT('',(0.,1.43566735119574E-34,25.1005573767945));
#840=CARTESIAN_POINT('',(-68.4999999999997,49.9999999999998,25.1005573767948));
#841=CARTESIAN_POINT('',(-68.4999999999997,-49.9999999999998,26.1005573767948));
#842=CARTESIAN_POINT('',(68.4999999999997,49.9999999999998,26.1005573767948));
#843=CARTESIAN_POINT('',(68.4999999999997,-49.9999999999998,25.1005573767948));
#844=UNCERTAINTY_MEASURE_WITH_UNIT(LENGTH_MEASURE(0.01),#852,
'DISTANCE_ACCURACY_VALUE',
'Maximum model space distance between geometric entities at asserted c
onnectivities');
#845=UNCERTAINTY_MEASURE_WITH_UNIT(LENGTH_MEASURE(0.01),#852,
'DISTANCE_ACCURACY_VALUE',
'Maximum model space distance between geometric entities at asserted c
onnectivities');
#846=UNCERTAINTY_MEASURE_WITH_UNIT(LENGTH_MEASURE(0.01),#852,
'DISTANCE_ACCURACY_VALUE',
'Maximum model space distance between geometric entities at asserted c
onnectivities');
#847=UNCERTAINTY_MEASURE_WITH_UNIT(LENGTH_MEASURE(0.01),#852,
'DISTANCE_ACCURACY_VALUE',
'Maximum model space distance between geometric entities at asserted c
onnectivities');
#848=(
GEOMETRIC_REPRESENTATION_CONTEXT(3)
GLOBAL_UNCERTAINTY_ASSIGNED_CONTEXT((#844))
GLOBAL_UNIT_ASSIGNED_CONTEXT((#852,#854,#855))
REPRESENTATION_CONTEXT('','3D')
);
#849=(
GEOMETRIC_REPRESENTATION_CONTEXT(3)
GLOBAL_UNCERTAINTY_ASSIGNED_CONTEXT((#845))
GLOBAL_UNIT_ASSIGNED_CONTEXT((#852,#854,#855))
REPRESENTATION_CONTEXT('','3D')
);
#850=(
GEOMETRIC_REPRESENTATION_CONTEXT(3)
GLOBAL_UNCERTAINTY_ASSIGNED_CONTEXT((#846))
GLOBAL_UNIT_ASSIGNED_CONTEXT((#852,#854,#855))
REPRESENTATION_CONTEXT('','3D')
);
#851=(
GEOMETRIC_REPRESENTATION_CONTEXT(3)
GLOBAL_UNCERTAINTY_ASSIGNED_CONTEXT((#847))
GLOBAL_UNIT_ASSIGNED_CONTEXT((#852,#854,#855))
REPRESENTATION_CONTEXT('','3D')
);
#852=(
LENGTH_UNIT()
NAMED_UNIT(*)
SI_UNIT(.MILLI.,.METRE.)
);
#853=(
LENGTH_UNIT()
NAMED_UNIT(*)
SI_UNIT($,.METRE.)
);
#854=(
NAMED_UNIT(*)
PLANE_ANGLE_UNIT()
SI_UNIT($,.RADIAN.)
);
#855=(
NAMED_UNIT(*)
SI_UNIT($,.STERADIAN.)
SOLID_ANGLE_UNIT()
);
#856=SHAPE_DEFINITION_REPRESENTATION(#859,#867);
#857=SHAPE_DEFINITION_REPRESENTATION(#860,#868);
#858=SHAPE_DEFINITION_REPRESENTATION(#861,#869);
#859=PRODUCT_DEFINITION_SHAPE('',$,#871);
#860=PRODUCT_DEFINITION_SHAPE('',$,#872);
#861=PRODUCT_DEFINITION_SHAPE('',$,#873);
#862=PRODUCT_DEFINITION_SHAPE($,$,#26);
#863=PRODUCT_DEFINITION_SHAPE($,$,#27);
#864=PRODUCT_DEFINITION_SHAPE($,$,#28);
#865=PRODUCT_DEFINITION_SHAPE($,$,#29);
#866=PRODUCT_DEFINITION_SHAPE($,$,#30);
#867=SHAPE_REPRESENTATION('',(#508,#559,#560,#561,#562,#563),#848);
#868=SHAPE_REPRESENTATION('',(#509),#849);
#869=SHAPE_REPRESENTATION('',(#528),#850);
#870=PRODUCT_DEFINITION_CONTEXT('part definition',#881,'design');
#871=PRODUCT_DEFINITION('CAM-SidePanel','CAM-SidePanel v1',#874,#870);
#872=PRODUCT_DEFINITION('Panels-Sheet-Stock-A4','Panels-Sheet-Stock-A4',
#875,#870);
#873=PRODUCT_DEFINITION('611_BackPanel_x2_1mm_INOX',
'611_BackPanel_x2_1mm_INOX',#876,#870);
#874=PRODUCT_DEFINITION_FORMATION('',$,#883);
#875=PRODUCT_DEFINITION_FORMATION('',$,#884);
#876=PRODUCT_DEFINITION_FORMATION('',$,#885);
#877=PRODUCT_RELATED_PRODUCT_CATEGORY('CAM-SidePanel v1',
'CAM-SidePanel v1',(#883));
#878=PRODUCT_RELATED_PRODUCT_CATEGORY('Panels-Sheet-Stock-A4',
'Panels-Sheet-Stock-A4',(#884));
#879=PRODUCT_RELATED_PRODUCT_CATEGORY('611_BackPanel_x2_1mm_INOX',
'611_BackPanel_x2_1mm_INOX',(#885));
#880=APPLICATION_PROTOCOL_DEFINITION('international standard',
'automotive_design',2009,#881);
#881=APPLICATION_CONTEXT(
'Core Data for Automotive Mechanical Design Process');
#882=PRODUCT_CONTEXT('part definition',#881,'mechanical');
#883=PRODUCT('CAM-SidePanel','CAM-SidePanel v1','STEP AP214',(#882));
#884=PRODUCT('Panels-Sheet-Stock-A4','Panels-Sheet-Stock-A4',$,(#882));
#885=PRODUCT('611_BackPanel_x2_1mm_INOX','611_BackPanel_x2_1mm_INOX',$,
(#882));
#886=PRESENTATION_STYLE_ASSIGNMENT((#889));
#887=PRESENTATION_STYLE_ASSIGNMENT((#890));
#888=PRESENTATION_STYLE_ASSIGNMENT((#891));
#889=SURFACE_STYLE_USAGE(.BOTH.,#892);
#890=SURFACE_STYLE_USAGE(.BOTH.,#893);
#891=SURFACE_STYLE_USAGE(.BOTH.,#894);
#892=SURFACE_SIDE_STYLE('',(#895));
#893=SURFACE_SIDE_STYLE('',(#896));
#894=SURFACE_SIDE_STYLE('',(#897));
#895=SURFACE_STYLE_FILL_AREA(#898);
#896=SURFACE_STYLE_FILL_AREA(#899);
#897=SURFACE_STYLE_FILL_AREA(#900);
#898=FILL_AREA_STYLE('Steel - Satin',(#901));
#899=FILL_AREA_STYLE('Opaque(202,209,238)',(#902));
#900=FILL_AREA_STYLE('Opaque(247,66,66)',(#903));
#901=FILL_AREA_STYLE_COLOUR('Steel - Satin',#904);
#902=FILL_AREA_STYLE_COLOUR('Opaque(202,209,238)',#905);
#903=FILL_AREA_STYLE_COLOUR('Opaque(247,66,66)',#906);
#904=COLOUR_RGB('Steel - Satin',0.627450980392157,0.627450980392157,0.627450980392157);
#905=COLOUR_RGB('Opaque(202,209,238)',0.792156862745098,0.819607843137255,
0.933333333333333);
#906=COLOUR_RGB('Opaque(247,66,66)',0.968627450980392,0.258823529411765,
0.258823529411765);
ENDSEC;
END-ISO-10303-21;
