ISO-10303-21;
HEADER;
/* Generated by software containing ST-Developer
 * from STEP Tools, Inc. (www.steptools.com) 
 */

FILE_DESCRIPTION(
/* description */ (''),
/* implementation_level */ '2;1');

FILE_NAME(
/* name */ 'compression mold steel v3.step',
/* time_stamp */ '2026-03-14T09:20:43+01:00',
/* author */ (''),
/* organization */ (''),
/* preprocessor_version */ 'ST-DEVELOPER v20.1',
/* originating_system */ 'Autodesk Translation Framework v14.24.0.0',
/* authorisation */ '');

FILE_SCHEMA (('AUTOMOTIVE_DESIGN { 1 0 10303 214 3 1 1 }'));
ENDSEC;

DATA;
#10=MECHANICAL_DESIGN_GEOMETRIC_PRESENTATION_REPRESENTATION('',(#23,#24,
#25,#26,#27,#28,#29),#949);
#11=ITEM_DEFINED_TRANSFORMATION($,$,#504,#574);
#12=(
REPRESENTATION_RELATIONSHIP($,$,#960,#959)
REPRESENTATION_RELATIONSHIP_WITH_TRANSFORMATION(#11)
SHAPE_REPRESENTATION_RELATIONSHIP()
);
#13=CONTEXT_DEPENDENT_SHAPE_REPRESENTATION(#12,#958);
#14=NEXT_ASSEMBLY_USAGE_OCCURRENCE(
'compression mold steel - v2 - export f360:1',
'compression mold steel - v2 - export f360:1',
'compression mold steel - v2 - export f360:1',#962,#963,
'compression mold steel - v2 - export f360:1');
#15=SHAPE_REPRESENTATION_RELATIONSHIP('SRR','None',#960,#16);
#16=ADVANCED_BREP_SHAPE_REPRESENTATION('',(#30,#31,#32,#33,#34,#35,#36),
#948);
#17=B_SPLINE_CURVE_WITH_KNOTS('',3,(#820,#821,#822,#823,#824,#825,#826,
#827,#828,#829),.UNSPECIFIED.,.F.,.F.,(4,2,2,2,4),(2.26246215173152,2.37558485844677,
2.48870756516202,2.60183107361992,2.71495458207782),.UNSPECIFIED.);
#18=B_SPLINE_CURVE_WITH_KNOTS('',3,(#831,#832,#833,#834,#835,#836,#837,
#838,#839,#840),.UNSPECIFIED.,.F.,.F.,(4,2,2,2,4),(0.904984860692607,1.01810836915051,
1.13123187760841,1.24435458432366,1.35747729103891),.UNSPECIFIED.);
#19=B_SPLINE_CURVE_WITH_KNOTS('',3,(#845,#846,#847,#848,#849,#850,#851,
#852,#853,#854),.UNSPECIFIED.,.F.,.F.,(4,2,2,2,4),(1.35747729103891,1.47059999775416,
1.58372270446941,1.69684621292731,1.80996972138521),.UNSPECIFIED.);
#20=B_SPLINE_CURVE_WITH_KNOTS('',3,(#855,#856,#857,#858,#859,#860,#861,
#862,#863,#864),.UNSPECIFIED.,.F.,.F.,(4,2,2,2,4),(1.80996972138521,1.92309322984311,
2.03621673830102,2.14933944501627,2.26246215173152),.UNSPECIFIED.);
#21=B_SPLINE_CURVE_WITH_KNOTS('',3,(#888,#889,#890,#891,#892,#893,#894,
#895,#896,#897,#898,#899,#900,#901,#902,#903,#904,#905,#906),
 .UNSPECIFIED.,.F.,.F.,(4,2,2,2,3,2,2,2,4),(-0.389909121775217,-0.292818530306816,
-0.195727938838414,-0.0978639694192072,0.,0.0978639694192074,0.195727938838415,
0.292818530306816,0.389909121775217),.UNSPECIFIED.);
#22=B_SPLINE_CURVE_WITH_KNOTS('',3,(#907,#908,#909,#910,#911,#912,#913,
#914,#915,#916,#917,#918,#919,#920,#921,#922,#923,#924),.UNSPECIFIED.,.F.,
 .F.,(4,2,2,2,2,2,2,2,4),(0.389909121775217,0.486999713243619,0.58409030471202,
0.681954274131227,0.779818243550435,0.877682212969642,0.975546182388849,
1.07263677385725,1.16972736532565),.UNSPECIFIED.);
#23=STYLED_ITEM('',(#973),#30);
#24=STYLED_ITEM('',(#973),#31);
#25=STYLED_ITEM('',(#973),#32);
#26=STYLED_ITEM('',(#973),#33);
#27=STYLED_ITEM('',(#973),#34);
#28=STYLED_ITEM('',(#973),#35);
#29=STYLED_ITEM('',(#973),#36);
#30=MANIFOLD_SOLID_BREP('top cilindre injector h6',#484);
#31=MANIFOLD_SOLID_BREP('top screw M8',#485);
#32=MANIFOLD_SOLID_BREP('exchangeable bottom plate',#486);
#33=MANIFOLD_SOLID_BREP('exchangeable tube H7',#487);
#34=MANIFOLD_SOLID_BREP('bottom M8 compression',#488);
#35=MANIFOLD_SOLID_BREP('bottom injector cilindre h6',#489);
#36=MANIFOLD_SOLID_BREP('bottom M8 screw injector',#490);
#37=FACE_BOUND('',#143,.T.);
#38=FACE_BOUND('',#145,.T.);
#39=FACE_BOUND('',#151,.T.);
#40=FACE_BOUND('',#160,.T.);
#41=FACE_BOUND('',#162,.T.);
#42=FACE_BOUND('',#166,.T.);
#43=FACE_BOUND('',#171,.T.);
#44=FACE_BOUND('',#173,.T.);
#45=FACE_BOUND('',#176,.T.);
#46=FACE_BOUND('',#185,.T.);
#47=CYLINDRICAL_SURFACE('',#509,25.);
#48=CYLINDRICAL_SURFACE('',#517,4.);
#49=CYLINDRICAL_SURFACE('',#518,8.);
#50=CYLINDRICAL_SURFACE('',#526,4.);
#51=CYLINDRICAL_SURFACE('',#527,50.);
#52=CYLINDRICAL_SURFACE('',#532,40.);
#53=CYLINDRICAL_SURFACE('',#535,25.);
#54=CYLINDRICAL_SURFACE('',#540,8.);
#55=CYLINDRICAL_SURFACE('',#548,4.);
#56=CYLINDRICAL_SURFACE('',#549,25.);
#57=CYLINDRICAL_SURFACE('',#556,3.);
#58=CYLINDRICAL_SURFACE('',#563,2.5);
#59=CYLINDRICAL_SURFACE('',#564,4.);
#60=CYLINDRICAL_SURFACE('',#565,4.);
#61=CYLINDRICAL_SURFACE('',#569,8.);
#62=LINE('',#746,#81);
#63=LINE('',#751,#82);
#64=LINE('',#761,#83);
#65=LINE('',#766,#84);
#66=LINE('',#776,#85);
#67=LINE('',#781,#86);
#68=LINE('',#789,#87);
#69=LINE('',#795,#88);
#70=LINE('',#803,#89);
#71=LINE('',#813,#90);
#72=LINE('',#818,#91);
#73=LINE('',#842,#92);
#74=LINE('',#874,#93);
#75=LINE('',#880,#94);
#76=LINE('',#886,#95);
#77=LINE('',#926,#96);
#78=LINE('',#927,#97);
#79=LINE('',#932,#98);
#80=LINE('',#939,#99);
#81=VECTOR('',#587,18.25);
#82=VECTOR('',#592,25.);
#83=VECTOR('',#607,4.);
#84=VECTOR('',#612,8.);
#85=VECTOR('',#627,4.);
#86=VECTOR('',#632,50.);
#87=VECTOR('',#643,40.);
#88=VECTOR('',#650,25.);
#89=VECTOR('',#661,8.);
#90=VECTOR('',#676,4.);
#91=VECTOR('',#681,25.);
#92=VECTOR('',#682,25.);
#93=VECTOR('',#697,3.);
#94=VECTOR('',#704,18.25);
#95=VECTOR('',#711,2.5);
#96=VECTOR('',#714,4.);
#97=VECTOR('',#715,4.);
#98=VECTOR('',#720,4.);
#99=VECTOR('',#729,8.);
#100=CONICAL_SURFACE('',#507,18.25,0.785398163397449);
#101=CONICAL_SURFACE('',#560,18.25,0.785398163397448);
#102=FACE_OUTER_BOUND('',#139,.T.);
#103=FACE_OUTER_BOUND('',#140,.T.);
#104=FACE_OUTER_BOUND('',#141,.T.);
#105=FACE_OUTER_BOUND('',#142,.T.);
#106=FACE_OUTER_BOUND('',#144,.T.);
#107=FACE_OUTER_BOUND('',#146,.T.);
#108=FACE_OUTER_BOUND('',#147,.T.);
#109=FACE_OUTER_BOUND('',#148,.T.);
#110=FACE_OUTER_BOUND('',#149,.T.);
#111=FACE_OUTER_BOUND('',#150,.T.);
#112=FACE_OUTER_BOUND('',#152,.T.);
#113=FACE_OUTER_BOUND('',#153,.T.);
#114=FACE_OUTER_BOUND('',#154,.T.);
#115=FACE_OUTER_BOUND('',#155,.T.);
#116=FACE_OUTER_BOUND('',#156,.T.);
#117=FACE_OUTER_BOUND('',#157,.T.);
#118=FACE_OUTER_BOUND('',#158,.T.);
#119=FACE_OUTER_BOUND('',#159,.T.);
#120=FACE_OUTER_BOUND('',#161,.T.);
#121=FACE_OUTER_BOUND('',#163,.T.);
#122=FACE_OUTER_BOUND('',#164,.T.);
#123=FACE_OUTER_BOUND('',#165,.T.);
#124=FACE_OUTER_BOUND('',#167,.T.);
#125=FACE_OUTER_BOUND('',#168,.T.);
#126=FACE_OUTER_BOUND('',#169,.T.);
#127=FACE_OUTER_BOUND('',#170,.T.);
#128=FACE_OUTER_BOUND('',#172,.T.);
#129=FACE_OUTER_BOUND('',#174,.T.);
#130=FACE_OUTER_BOUND('',#175,.T.);
#131=FACE_OUTER_BOUND('',#177,.T.);
#132=FACE_OUTER_BOUND('',#178,.T.);
#133=FACE_OUTER_BOUND('',#179,.T.);
#134=FACE_OUTER_BOUND('',#180,.T.);
#135=FACE_OUTER_BOUND('',#181,.T.);
#136=FACE_OUTER_BOUND('',#182,.T.);
#137=FACE_OUTER_BOUND('',#183,.T.);
#138=FACE_OUTER_BOUND('',#184,.T.);
#139=EDGE_LOOP('',(#313));
#140=EDGE_LOOP('',(#314,#315,#316,#317));
#141=EDGE_LOOP('',(#318,#319,#320,#321));
#142=EDGE_LOOP('',(#322));
#143=EDGE_LOOP('',(#323));
#144=EDGE_LOOP('',(#324));
#145=EDGE_LOOP('',(#325));
#146=EDGE_LOOP('',(#326));
#147=EDGE_LOOP('',(#327,#328,#329,#330));
#148=EDGE_LOOP('',(#331,#332,#333,#334));
#149=EDGE_LOOP('',(#335));
#150=EDGE_LOOP('',(#336));
#151=EDGE_LOOP('',(#337));
#152=EDGE_LOOP('',(#338));
#153=EDGE_LOOP('',(#339,#340,#341,#342));
#154=EDGE_LOOP('',(#343,#344,#345,#346));
#155=EDGE_LOOP('',(#347));
#156=EDGE_LOOP('',(#348));
#157=EDGE_LOOP('',(#349,#350,#351,#352));
#158=EDGE_LOOP('',(#353,#354,#355,#356));
#159=EDGE_LOOP('',(#357));
#160=EDGE_LOOP('',(#358));
#161=EDGE_LOOP('',(#359));
#162=EDGE_LOOP('',(#360));
#163=EDGE_LOOP('',(#361,#362,#363,#364));
#164=EDGE_LOOP('',(#365));
#165=EDGE_LOOP('',(#366));
#166=EDGE_LOOP('',(#367));
#167=EDGE_LOOP('',(#368));
#168=EDGE_LOOP('',(#369,#370,#371,#372));
#169=EDGE_LOOP('',(#373,#374,#375,#376,#377,#378,#379,#380,#381,#382));
#170=EDGE_LOOP('',(#383));
#171=EDGE_LOOP('',(#384));
#172=EDGE_LOOP('',(#385));
#173=EDGE_LOOP('',(#386));
#174=EDGE_LOOP('',(#387,#388,#389,#390,#391,#392,#393));
#175=EDGE_LOOP('',(#394));
#176=EDGE_LOOP('',(#395));
#177=EDGE_LOOP('',(#396,#397,#398,#399,#400));
#178=EDGE_LOOP('',(#401,#402,#403,#404,#405));
#179=EDGE_LOOP('',(#406,#407,#408,#409,#410,#411,#412,#413,#414));
#180=EDGE_LOOP('',(#415,#416,#417,#418));
#181=EDGE_LOOP('',(#419));
#182=EDGE_LOOP('',(#420,#421,#422,#423));
#183=EDGE_LOOP('',(#424));
#184=EDGE_LOOP('',(#425));
#185=EDGE_LOOP('',(#426));
#186=CIRCLE('',#506,4.);
#187=CIRCLE('',#508,20.);
#188=CIRCLE('',#510,25.);
#189=CIRCLE('',#511,25.);
#190=CIRCLE('',#514,4.);
#191=CIRCLE('',#516,4.);
#192=CIRCLE('',#519,8.);
#193=CIRCLE('',#520,8.);
#194=CIRCLE('',#523,4.);
#195=CIRCLE('',#525,4.);
#196=CIRCLE('',#528,50.);
#197=CIRCLE('',#529,50.);
#198=CIRCLE('',#533,40.);
#199=CIRCLE('',#534,40.);
#200=CIRCLE('',#536,25.);
#201=CIRCLE('',#537,25.);
#202=CIRCLE('',#541,8.);
#203=CIRCLE('',#542,8.);
#204=CIRCLE('',#545,4.);
#205=CIRCLE('',#547,4.);
#206=CIRCLE('',#550,25.);
#207=CIRCLE('',#551,25.);
#208=CIRCLE('',#553,20.);
#209=CIRCLE('',#555,4.);
#210=CIRCLE('',#557,3.);
#211=CIRCLE('',#559,2.5);
#212=CIRCLE('',#561,4.);
#213=CIRCLE('',#562,4.);
#214=CIRCLE('',#566,4.);
#215=CIRCLE('',#567,4.);
#216=CIRCLE('',#570,8.);
#217=CIRCLE('',#571,8.);
#218=VERTEX_POINT('',#741);
#219=VERTEX_POINT('',#744);
#220=VERTEX_POINT('',#748);
#221=VERTEX_POINT('',#750);
#222=VERTEX_POINT('',#755);
#223=VERTEX_POINT('',#758);
#224=VERTEX_POINT('',#763);
#225=VERTEX_POINT('',#765);
#226=VERTEX_POINT('',#770);
#227=VERTEX_POINT('',#773);
#228=VERTEX_POINT('',#778);
#229=VERTEX_POINT('',#780);
#230=VERTEX_POINT('',#786);
#231=VERTEX_POINT('',#788);
#232=VERTEX_POINT('',#792);
#233=VERTEX_POINT('',#794);
#234=VERTEX_POINT('',#800);
#235=VERTEX_POINT('',#802);
#236=VERTEX_POINT('',#807);
#237=VERTEX_POINT('',#810);
#238=VERTEX_POINT('',#815);
#239=VERTEX_POINT('',#817);
#240=VERTEX_POINT('',#819);
#241=VERTEX_POINT('',#830);
#242=VERTEX_POINT('',#841);
#243=VERTEX_POINT('',#844);
#244=VERTEX_POINT('',#866);
#245=VERTEX_POINT('',#869);
#246=VERTEX_POINT('',#872);
#247=VERTEX_POINT('',#876);
#248=VERTEX_POINT('',#879);
#249=VERTEX_POINT('',#881);
#250=VERTEX_POINT('',#885);
#251=VERTEX_POINT('',#887);
#252=VERTEX_POINT('',#929);
#253=VERTEX_POINT('',#931);
#254=VERTEX_POINT('',#936);
#255=VERTEX_POINT('',#938);
#256=EDGE_CURVE('',#218,#218,#186,.T.);
#257=EDGE_CURVE('',#219,#219,#187,.T.);
#258=EDGE_CURVE('',#219,#218,#62,.T.);
#259=EDGE_CURVE('',#220,#220,#188,.T.);
#260=EDGE_CURVE('',#220,#221,#63,.T.);
#261=EDGE_CURVE('',#221,#221,#189,.T.);
#262=EDGE_CURVE('',#222,#222,#190,.T.);
#263=EDGE_CURVE('',#223,#223,#191,.T.);
#264=EDGE_CURVE('',#223,#222,#64,.T.);
#265=EDGE_CURVE('',#224,#224,#192,.T.);
#266=EDGE_CURVE('',#224,#225,#65,.T.);
#267=EDGE_CURVE('',#225,#225,#193,.T.);
#268=EDGE_CURVE('',#226,#226,#194,.T.);
#269=EDGE_CURVE('',#227,#227,#195,.T.);
#270=EDGE_CURVE('',#226,#227,#66,.T.);
#271=EDGE_CURVE('',#228,#228,#196,.T.);
#272=EDGE_CURVE('',#228,#229,#67,.T.);
#273=EDGE_CURVE('',#229,#229,#197,.T.);
#274=EDGE_CURVE('',#230,#230,#198,.T.);
#275=EDGE_CURVE('',#230,#231,#68,.T.);
#276=EDGE_CURVE('',#231,#231,#199,.T.);
#277=EDGE_CURVE('',#232,#232,#200,.T.);
#278=EDGE_CURVE('',#232,#233,#69,.T.);
#279=EDGE_CURVE('',#233,#233,#201,.T.);
#280=EDGE_CURVE('',#234,#234,#202,.T.);
#281=EDGE_CURVE('',#234,#235,#70,.T.);
#282=EDGE_CURVE('',#235,#235,#203,.T.);
#283=EDGE_CURVE('',#236,#236,#204,.T.);
#284=EDGE_CURVE('',#237,#237,#205,.T.);
#285=EDGE_CURVE('',#236,#237,#71,.T.);
#286=EDGE_CURVE('',#238,#238,#206,.T.);
#287=EDGE_CURVE('',#238,#239,#72,.T.);
#288=EDGE_CURVE('',#239,#240,#17,.T.);
#289=EDGE_CURVE('',#240,#241,#18,.T.);
#290=EDGE_CURVE('',#241,#242,#73,.T.);
#291=EDGE_CURVE('',#242,#242,#207,.T.);
#292=EDGE_CURVE('',#241,#243,#19,.T.);
#293=EDGE_CURVE('',#243,#239,#20,.T.);
#294=EDGE_CURVE('',#244,#244,#208,.T.);
#295=EDGE_CURVE('',#245,#245,#209,.T.);
#296=EDGE_CURVE('',#246,#246,#210,.T.);
#297=EDGE_CURVE('',#246,#243,#74,.T.);
#298=EDGE_CURVE('',#247,#247,#211,.T.);
#299=EDGE_CURVE('',#244,#248,#75,.T.);
#300=EDGE_CURVE('',#249,#248,#212,.T.);
#301=EDGE_CURVE('',#248,#249,#213,.T.);
#302=EDGE_CURVE('',#247,#250,#76,.T.);
#303=EDGE_CURVE('',#251,#250,#21,.T.);
#304=EDGE_CURVE('',#250,#251,#22,.T.);
#305=EDGE_CURVE('',#249,#250,#77,.T.);
#306=EDGE_CURVE('',#251,#245,#78,.T.);
#307=EDGE_CURVE('',#252,#252,#214,.T.);
#308=EDGE_CURVE('',#252,#253,#79,.T.);
#309=EDGE_CURVE('',#253,#253,#215,.T.);
#310=EDGE_CURVE('',#254,#254,#216,.T.);
#311=EDGE_CURVE('',#254,#255,#80,.T.);
#312=EDGE_CURVE('',#255,#255,#217,.T.);
#313=ORIENTED_EDGE('',*,*,#256,.F.);
#314=ORIENTED_EDGE('',*,*,#257,.F.);
#315=ORIENTED_EDGE('',*,*,#258,.T.);
#316=ORIENTED_EDGE('',*,*,#256,.T.);
#317=ORIENTED_EDGE('',*,*,#258,.F.);
#318=ORIENTED_EDGE('',*,*,#259,.T.);
#319=ORIENTED_EDGE('',*,*,#260,.T.);
#320=ORIENTED_EDGE('',*,*,#261,.F.);
#321=ORIENTED_EDGE('',*,*,#260,.F.);
#322=ORIENTED_EDGE('',*,*,#259,.F.);
#323=ORIENTED_EDGE('',*,*,#257,.T.);
#324=ORIENTED_EDGE('',*,*,#261,.T.);
#325=ORIENTED_EDGE('',*,*,#262,.T.);
#326=ORIENTED_EDGE('',*,*,#263,.F.);
#327=ORIENTED_EDGE('',*,*,#263,.T.);
#328=ORIENTED_EDGE('',*,*,#264,.T.);
#329=ORIENTED_EDGE('',*,*,#262,.F.);
#330=ORIENTED_EDGE('',*,*,#264,.F.);
#331=ORIENTED_EDGE('',*,*,#265,.T.);
#332=ORIENTED_EDGE('',*,*,#266,.T.);
#333=ORIENTED_EDGE('',*,*,#267,.F.);
#334=ORIENTED_EDGE('',*,*,#266,.F.);
#335=ORIENTED_EDGE('',*,*,#265,.F.);
#336=ORIENTED_EDGE('',*,*,#267,.T.);
#337=ORIENTED_EDGE('',*,*,#268,.T.);
#338=ORIENTED_EDGE('',*,*,#269,.T.);
#339=ORIENTED_EDGE('',*,*,#268,.F.);
#340=ORIENTED_EDGE('',*,*,#270,.T.);
#341=ORIENTED_EDGE('',*,*,#269,.F.);
#342=ORIENTED_EDGE('',*,*,#270,.F.);
#343=ORIENTED_EDGE('',*,*,#271,.T.);
#344=ORIENTED_EDGE('',*,*,#272,.T.);
#345=ORIENTED_EDGE('',*,*,#273,.F.);
#346=ORIENTED_EDGE('',*,*,#272,.F.);
#347=ORIENTED_EDGE('',*,*,#271,.F.);
#348=ORIENTED_EDGE('',*,*,#273,.T.);
#349=ORIENTED_EDGE('',*,*,#274,.T.);
#350=ORIENTED_EDGE('',*,*,#275,.T.);
#351=ORIENTED_EDGE('',*,*,#276,.F.);
#352=ORIENTED_EDGE('',*,*,#275,.F.);
#353=ORIENTED_EDGE('',*,*,#277,.F.);
#354=ORIENTED_EDGE('',*,*,#278,.T.);
#355=ORIENTED_EDGE('',*,*,#279,.T.);
#356=ORIENTED_EDGE('',*,*,#278,.F.);
#357=ORIENTED_EDGE('',*,*,#274,.F.);
#358=ORIENTED_EDGE('',*,*,#279,.F.);
#359=ORIENTED_EDGE('',*,*,#276,.T.);
#360=ORIENTED_EDGE('',*,*,#277,.T.);
#361=ORIENTED_EDGE('',*,*,#280,.T.);
#362=ORIENTED_EDGE('',*,*,#281,.T.);
#363=ORIENTED_EDGE('',*,*,#282,.F.);
#364=ORIENTED_EDGE('',*,*,#281,.F.);
#365=ORIENTED_EDGE('',*,*,#280,.F.);
#366=ORIENTED_EDGE('',*,*,#282,.T.);
#367=ORIENTED_EDGE('',*,*,#283,.T.);
#368=ORIENTED_EDGE('',*,*,#284,.T.);
#369=ORIENTED_EDGE('',*,*,#283,.F.);
#370=ORIENTED_EDGE('',*,*,#285,.T.);
#371=ORIENTED_EDGE('',*,*,#284,.F.);
#372=ORIENTED_EDGE('',*,*,#285,.F.);
#373=ORIENTED_EDGE('',*,*,#286,.T.);
#374=ORIENTED_EDGE('',*,*,#287,.T.);
#375=ORIENTED_EDGE('',*,*,#288,.T.);
#376=ORIENTED_EDGE('',*,*,#289,.T.);
#377=ORIENTED_EDGE('',*,*,#290,.T.);
#378=ORIENTED_EDGE('',*,*,#291,.F.);
#379=ORIENTED_EDGE('',*,*,#290,.F.);
#380=ORIENTED_EDGE('',*,*,#292,.T.);
#381=ORIENTED_EDGE('',*,*,#293,.T.);
#382=ORIENTED_EDGE('',*,*,#287,.F.);
#383=ORIENTED_EDGE('',*,*,#286,.F.);
#384=ORIENTED_EDGE('',*,*,#294,.F.);
#385=ORIENTED_EDGE('',*,*,#291,.T.);
#386=ORIENTED_EDGE('',*,*,#295,.T.);
#387=ORIENTED_EDGE('',*,*,#296,.T.);
#388=ORIENTED_EDGE('',*,*,#297,.T.);
#389=ORIENTED_EDGE('',*,*,#292,.F.);
#390=ORIENTED_EDGE('',*,*,#289,.F.);
#391=ORIENTED_EDGE('',*,*,#288,.F.);
#392=ORIENTED_EDGE('',*,*,#293,.F.);
#393=ORIENTED_EDGE('',*,*,#297,.F.);
#394=ORIENTED_EDGE('',*,*,#296,.F.);
#395=ORIENTED_EDGE('',*,*,#298,.F.);
#396=ORIENTED_EDGE('',*,*,#294,.T.);
#397=ORIENTED_EDGE('',*,*,#299,.T.);
#398=ORIENTED_EDGE('',*,*,#300,.F.);
#399=ORIENTED_EDGE('',*,*,#301,.F.);
#400=ORIENTED_EDGE('',*,*,#299,.F.);
#401=ORIENTED_EDGE('',*,*,#298,.T.);
#402=ORIENTED_EDGE('',*,*,#302,.T.);
#403=ORIENTED_EDGE('',*,*,#303,.F.);
#404=ORIENTED_EDGE('',*,*,#304,.F.);
#405=ORIENTED_EDGE('',*,*,#302,.F.);
#406=ORIENTED_EDGE('',*,*,#301,.T.);
#407=ORIENTED_EDGE('',*,*,#305,.T.);
#408=ORIENTED_EDGE('',*,*,#304,.T.);
#409=ORIENTED_EDGE('',*,*,#306,.T.);
#410=ORIENTED_EDGE('',*,*,#295,.F.);
#411=ORIENTED_EDGE('',*,*,#306,.F.);
#412=ORIENTED_EDGE('',*,*,#303,.T.);
#413=ORIENTED_EDGE('',*,*,#305,.F.);
#414=ORIENTED_EDGE('',*,*,#300,.T.);
#415=ORIENTED_EDGE('',*,*,#307,.T.);
#416=ORIENTED_EDGE('',*,*,#308,.T.);
#417=ORIENTED_EDGE('',*,*,#309,.F.);
#418=ORIENTED_EDGE('',*,*,#308,.F.);
#419=ORIENTED_EDGE('',*,*,#309,.T.);
#420=ORIENTED_EDGE('',*,*,#310,.T.);
#421=ORIENTED_EDGE('',*,*,#311,.T.);
#422=ORIENTED_EDGE('',*,*,#312,.F.);
#423=ORIENTED_EDGE('',*,*,#311,.F.);
#424=ORIENTED_EDGE('',*,*,#310,.F.);
#425=ORIENTED_EDGE('',*,*,#312,.T.);
#426=ORIENTED_EDGE('',*,*,#307,.F.);
#427=PLANE('',#505);
#428=PLANE('',#512);
#429=PLANE('',#513);
#430=PLANE('',#515);
#431=PLANE('',#521);
#432=PLANE('',#522);
#433=PLANE('',#524);
#434=PLANE('',#530);
#435=PLANE('',#531);
#436=PLANE('',#538);
#437=PLANE('',#539);
#438=PLANE('',#543);
#439=PLANE('',#544);
#440=PLANE('',#546);
#441=PLANE('',#552);
#442=PLANE('',#554);
#443=PLANE('',#558);
#444=PLANE('',#568);
#445=PLANE('',#572);
#446=PLANE('',#573);
#447=ADVANCED_FACE('',(#102),#427,.T.);
#448=ADVANCED_FACE('',(#103),#100,.T.);
#449=ADVANCED_FACE('',(#104),#47,.T.);
#450=ADVANCED_FACE('',(#105,#37),#428,.T.);
#451=ADVANCED_FACE('',(#106,#38),#429,.T.);
#452=ADVANCED_FACE('',(#107),#430,.T.);
#453=ADVANCED_FACE('',(#108),#48,.F.);
#454=ADVANCED_FACE('',(#109),#49,.T.);
#455=ADVANCED_FACE('',(#110),#431,.T.);
#456=ADVANCED_FACE('',(#111,#39),#432,.T.);
#457=ADVANCED_FACE('',(#112),#433,.T.);
#458=ADVANCED_FACE('',(#113),#50,.T.);
#459=ADVANCED_FACE('',(#114),#51,.T.);
#460=ADVANCED_FACE('',(#115),#434,.T.);
#461=ADVANCED_FACE('',(#116),#435,.T.);
#462=ADVANCED_FACE('',(#117),#52,.T.);
#463=ADVANCED_FACE('',(#118),#53,.F.);
#464=ADVANCED_FACE('',(#119,#40),#436,.T.);
#465=ADVANCED_FACE('',(#120,#41),#437,.T.);
#466=ADVANCED_FACE('',(#121),#54,.T.);
#467=ADVANCED_FACE('',(#122),#438,.T.);
#468=ADVANCED_FACE('',(#123,#42),#439,.T.);
#469=ADVANCED_FACE('',(#124),#440,.T.);
#470=ADVANCED_FACE('',(#125),#55,.T.);
#471=ADVANCED_FACE('',(#126),#56,.T.);
#472=ADVANCED_FACE('',(#127,#43),#441,.T.);
#473=ADVANCED_FACE('',(#128,#44),#442,.T.);
#474=ADVANCED_FACE('',(#129),#57,.F.);
#475=ADVANCED_FACE('',(#130,#45),#443,.T.);
#476=ADVANCED_FACE('',(#131),#101,.F.);
#477=ADVANCED_FACE('',(#132),#58,.F.);
#478=ADVANCED_FACE('',(#133),#59,.F.);
#479=ADVANCED_FACE('',(#134),#60,.T.);
#480=ADVANCED_FACE('',(#135),#444,.T.);
#481=ADVANCED_FACE('',(#136),#61,.T.);
#482=ADVANCED_FACE('',(#137),#445,.T.);
#483=ADVANCED_FACE('',(#138,#46),#446,.T.);
#484=CLOSED_SHELL('',(#447,#448,#449,#450,#451,#452,#453));
#485=CLOSED_SHELL('',(#454,#455,#456,#457,#458));
#486=CLOSED_SHELL('',(#459,#460,#461));
#487=CLOSED_SHELL('',(#462,#463,#464,#465));
#488=CLOSED_SHELL('',(#466,#467,#468,#469,#470));
#489=CLOSED_SHELL('',(#471,#472,#473,#474,#475,#476,#477,#478));
#490=CLOSED_SHELL('',(#479,#480,#481,#482,#483));
#491=DERIVED_UNIT_ELEMENT(#493,1.);
#492=DERIVED_UNIT_ELEMENT(#951,-3.);
#493=(
MASS_UNIT()
NAMED_UNIT(*)
SI_UNIT(.KILO.,.GRAM.)
);
#494=DERIVED_UNIT((#491,#492));
#495=MEASURE_REPRESENTATION_ITEM('density measure',
POSITIVE_RATIO_MEASURE(7850.),#494);
#496=PROPERTY_DEFINITION_REPRESENTATION(#501,#498);
#497=PROPERTY_DEFINITION_REPRESENTATION(#502,#499);
#498=REPRESENTATION('material name',(#500),#948);
#499=REPRESENTATION('density',(#495),#948);
#500=DESCRIPTIVE_REPRESENTATION_ITEM('Steel','Steel');
#501=PROPERTY_DEFINITION('material property','material name',#963);
#502=PROPERTY_DEFINITION('material property','density of part',#963);
#503=AXIS2_PLACEMENT_3D('',#738,#575,#576);
#504=AXIS2_PLACEMENT_3D('',#739,#577,#578);
#505=AXIS2_PLACEMENT_3D('',#740,#579,#580);
#506=AXIS2_PLACEMENT_3D('',#742,#581,#582);
#507=AXIS2_PLACEMENT_3D('',#743,#583,#584);
#508=AXIS2_PLACEMENT_3D('',#745,#585,#586);
#509=AXIS2_PLACEMENT_3D('',#747,#588,#589);
#510=AXIS2_PLACEMENT_3D('',#749,#590,#591);
#511=AXIS2_PLACEMENT_3D('',#752,#593,#594);
#512=AXIS2_PLACEMENT_3D('',#753,#595,#596);
#513=AXIS2_PLACEMENT_3D('',#754,#597,#598);
#514=AXIS2_PLACEMENT_3D('',#756,#599,#600);
#515=AXIS2_PLACEMENT_3D('',#757,#601,#602);
#516=AXIS2_PLACEMENT_3D('',#759,#603,#604);
#517=AXIS2_PLACEMENT_3D('',#760,#605,#606);
#518=AXIS2_PLACEMENT_3D('',#762,#608,#609);
#519=AXIS2_PLACEMENT_3D('',#764,#610,#611);
#520=AXIS2_PLACEMENT_3D('',#767,#613,#614);
#521=AXIS2_PLACEMENT_3D('',#768,#615,#616);
#522=AXIS2_PLACEMENT_3D('',#769,#617,#618);
#523=AXIS2_PLACEMENT_3D('',#771,#619,#620);
#524=AXIS2_PLACEMENT_3D('',#772,#621,#622);
#525=AXIS2_PLACEMENT_3D('',#774,#623,#624);
#526=AXIS2_PLACEMENT_3D('',#775,#625,#626);
#527=AXIS2_PLACEMENT_3D('',#777,#628,#629);
#528=AXIS2_PLACEMENT_3D('',#779,#630,#631);
#529=AXIS2_PLACEMENT_3D('',#782,#633,#634);
#530=AXIS2_PLACEMENT_3D('',#783,#635,#636);
#531=AXIS2_PLACEMENT_3D('',#784,#637,#638);
#532=AXIS2_PLACEMENT_3D('',#785,#639,#640);
#533=AXIS2_PLACEMENT_3D('',#787,#641,#642);
#534=AXIS2_PLACEMENT_3D('',#790,#644,#645);
#535=AXIS2_PLACEMENT_3D('',#791,#646,#647);
#536=AXIS2_PLACEMENT_3D('',#793,#648,#649);
#537=AXIS2_PLACEMENT_3D('',#796,#651,#652);
#538=AXIS2_PLACEMENT_3D('',#797,#653,#654);
#539=AXIS2_PLACEMENT_3D('',#798,#655,#656);
#540=AXIS2_PLACEMENT_3D('',#799,#657,#658);
#541=AXIS2_PLACEMENT_3D('',#801,#659,#660);
#542=AXIS2_PLACEMENT_3D('',#804,#662,#663);
#543=AXIS2_PLACEMENT_3D('',#805,#664,#665);
#544=AXIS2_PLACEMENT_3D('',#806,#666,#667);
#545=AXIS2_PLACEMENT_3D('',#808,#668,#669);
#546=AXIS2_PLACEMENT_3D('',#809,#670,#671);
#547=AXIS2_PLACEMENT_3D('',#811,#672,#673);
#548=AXIS2_PLACEMENT_3D('',#812,#674,#675);
#549=AXIS2_PLACEMENT_3D('',#814,#677,#678);
#550=AXIS2_PLACEMENT_3D('',#816,#679,#680);
#551=AXIS2_PLACEMENT_3D('',#843,#683,#684);
#552=AXIS2_PLACEMENT_3D('',#865,#685,#686);
#553=AXIS2_PLACEMENT_3D('',#867,#687,#688);
#554=AXIS2_PLACEMENT_3D('',#868,#689,#690);
#555=AXIS2_PLACEMENT_3D('',#870,#691,#692);
#556=AXIS2_PLACEMENT_3D('',#871,#693,#694);
#557=AXIS2_PLACEMENT_3D('',#873,#695,#696);
#558=AXIS2_PLACEMENT_3D('',#875,#698,#699);
#559=AXIS2_PLACEMENT_3D('',#877,#700,#701);
#560=AXIS2_PLACEMENT_3D('',#878,#702,#703);
#561=AXIS2_PLACEMENT_3D('',#882,#705,#706);
#562=AXIS2_PLACEMENT_3D('',#883,#707,#708);
#563=AXIS2_PLACEMENT_3D('',#884,#709,#710);
#564=AXIS2_PLACEMENT_3D('',#925,#712,#713);
#565=AXIS2_PLACEMENT_3D('',#928,#716,#717);
#566=AXIS2_PLACEMENT_3D('',#930,#718,#719);
#567=AXIS2_PLACEMENT_3D('',#933,#721,#722);
#568=AXIS2_PLACEMENT_3D('',#934,#723,#724);
#569=AXIS2_PLACEMENT_3D('',#935,#725,#726);
#570=AXIS2_PLACEMENT_3D('',#937,#727,#728);
#571=AXIS2_PLACEMENT_3D('',#940,#730,#731);
#572=AXIS2_PLACEMENT_3D('',#941,#732,#733);
#573=AXIS2_PLACEMENT_3D('',#942,#734,#735);
#574=AXIS2_PLACEMENT_3D('',#943,#736,#737);
#575=DIRECTION('axis',(0.,0.,1.));
#576=DIRECTION('refdir',(1.,0.,0.));
#577=DIRECTION('axis',(0.,0.,1.));
#578=DIRECTION('refdir',(1.,0.,0.));
#579=DIRECTION('center_axis',(0.,0.,-1.));
#580=DIRECTION('ref_axis',(-1.,0.,0.));
#581=DIRECTION('center_axis',(-1.71139329554964E-17,-1.13924957320324E-16,
1.));
#582=DIRECTION('ref_axis',(-0.813826036051075,0.581108581114919,6.93889390390723E-17));
#583=DIRECTION('center_axis',(0.,0.,1.));
#584=DIRECTION('ref_axis',(-0.813826036051075,-0.581108581114919,0.));
#585=DIRECTION('center_axis',(0.,0.,1.));
#586=DIRECTION('ref_axis',(-1.,0.,0.));
#587=DIRECTION('',(-0.575461908797883,-0.410905818312052,-0.707106781186547));
#588=DIRECTION('center_axis',(0.,0.,-1.));
#589=DIRECTION('ref_axis',(-1.,-2.51214793389404E-16,0.));
#590=DIRECTION('center_axis',(-4.33259054053078E-17,1.38806340383178E-17,
1.));
#591=DIRECTION('ref_axis',(0.813826036051075,-0.581108581114919,0.));
#592=DIRECTION('',(0.,0.,1.));
#593=DIRECTION('center_axis',(-5.21853916706746E-16,-1.05554649065358E-15,
1.));
#594=DIRECTION('ref_axis',(0.813826036051075,-0.581108581114919,0.));
#595=DIRECTION('center_axis',(0.,0.,-1.));
#596=DIRECTION('ref_axis',(-1.,0.,0.));
#597=DIRECTION('center_axis',(0.,0.,1.));
#598=DIRECTION('ref_axis',(1.,0.,0.));
#599=DIRECTION('center_axis',(-2.16629527026539E-15,-6.94031701915891E-16,
-1.));
#600=DIRECTION('ref_axis',(-0.813826036051075,-0.581108581114919,0.));
#601=DIRECTION('center_axis',(0.,0.,1.));
#602=DIRECTION('ref_axis',(1.,0.,0.));
#603=DIRECTION('center_axis',(-2.16629527026539E-15,-6.94031701915891E-16,
-1.));
#604=DIRECTION('ref_axis',(-0.813826036051075,-0.581108581114919,2.22044604925031E-15));
#605=DIRECTION('center_axis',(0.,0.,-1.));
#606=DIRECTION('ref_axis',(-1.,0.,0.));
#607=DIRECTION('',(0.,0.,1.));
#608=DIRECTION('center_axis',(0.,0.,1.));
#609=DIRECTION('ref_axis',(1.,1.96261557335472E-16,0.));
#610=DIRECTION('center_axis',(-5.35501780556807E-16,-3.99261448520832E-15,
-1.));
#611=DIRECTION('ref_axis',(-0.813826036051075,-0.581108581114919,2.22044604925031E-15));
#612=DIRECTION('',(0.,0.,-1.));
#613=DIRECTION('center_axis',(-5.35501780556807E-16,-3.99261448520832E-15,
-1.));
#614=DIRECTION('ref_axis',(-0.813826036051075,-0.581108581114919,2.22044604925031E-15));
#615=DIRECTION('center_axis',(0.,0.,1.));
#616=DIRECTION('ref_axis',(1.,0.,0.));
#617=DIRECTION('center_axis',(0.,0.,-1.));
#618=DIRECTION('ref_axis',(-1.,0.,0.));
#619=DIRECTION('center_axis',(1.07100356111362E-15,-7.98522897041664E-15,
1.));
#620=DIRECTION('ref_axis',(-0.813826036051075,0.581108581114919,4.44089209850063E-15));
#621=DIRECTION('center_axis',(0.,0.,-1.));
#622=DIRECTION('ref_axis',(-1.,0.,0.));
#623=DIRECTION('center_axis',(-2.16629527026539E-15,-6.94031701915891E-16,
-1.));
#624=DIRECTION('ref_axis',(-0.813826036051075,-0.581108581114919,2.22044604925031E-15));
#625=DIRECTION('center_axis',(0.,0.,1.));
#626=DIRECTION('ref_axis',(1.,1.96261557335472E-16,0.));
#627=DIRECTION('',(0.,0.,-1.));
#628=DIRECTION('center_axis',(0.,0.,1.));
#629=DIRECTION('ref_axis',(-1.,-6.2803698347351E-17,0.));
#630=DIRECTION('center_axis',(-1.73303621621231E-16,-5.55225361532711E-17,
-1.));
#631=DIRECTION('ref_axis',(0.813826036051075,0.581108581114919,-1.77635683940025E-16));
#632=DIRECTION('',(0.,0.,-1.));
#633=DIRECTION('center_axis',(-1.2949195325516E-16,-3.47170426893301E-16,
-1.));
#634=DIRECTION('ref_axis',(0.813826036051075,0.581108581114919,-3.5527136788005E-16));
#635=DIRECTION('center_axis',(0.,0.,1.));
#636=DIRECTION('ref_axis',(1.,0.,0.));
#637=DIRECTION('center_axis',(0.,0.,-1.));
#638=DIRECTION('ref_axis',(-1.,0.,0.));
#639=DIRECTION('center_axis',(0.,0.,-1.));
#640=DIRECTION('ref_axis',(-1.,1.57009245868378E-16,0.));
#641=DIRECTION('center_axis',(5.41573817566347E-17,-1.73507925478972E-17,
1.));
#642=DIRECTION('ref_axis',(0.813826036051075,-0.581108581114919,0.));
#643=DIRECTION('',(0.,0.,1.));
#644=DIRECTION('center_axis',(-5.35501780556807E-17,3.99261448520832E-16,
1.));
#645=DIRECTION('ref_axis',(0.813826036051075,-0.581108581114919,2.22044604925031E-16));
#646=DIRECTION('center_axis',(0.,0.,1.));
#647=DIRECTION('ref_axis',(-1.,2.51214793389404E-16,0.));
#648=DIRECTION('center_axis',(1.73303621621231E-16,5.55225361532713E-17,
-1.));
#649=DIRECTION('ref_axis',(0.813826036051074,0.58110858111492,0.));
#650=DIRECTION('',(0.,0.,-1.));
#651=DIRECTION('center_axis',(-2.17115289987302E-16,2.36125354586759E-16,
-1.));
#652=DIRECTION('ref_axis',(0.813826036051074,0.58110858111492,0.));
#653=DIRECTION('center_axis',(0.,0.,-1.));
#654=DIRECTION('ref_axis',(-1.,0.,0.));
#655=DIRECTION('center_axis',(0.,0.,1.));
#656=DIRECTION('ref_axis',(1.,0.,0.));
#657=DIRECTION('center_axis',(0.,0.,-1.));
#658=DIRECTION('ref_axis',(1.,4.9065389333868E-17,0.));
#659=DIRECTION('center_axis',(-2.67750890278404E-16,1.99630724260416E-15,
1.));
#660=DIRECTION('ref_axis',(-0.813826036051075,0.581108581114919,-1.11022302462516E-15));
#661=DIRECTION('',(0.,0.,1.));
#662=DIRECTION('center_axis',(-2.67750890278404E-16,1.99630724260416E-15,
1.));
#663=DIRECTION('ref_axis',(-0.813826036051075,0.581108581114919,-1.11022302462516E-15));
#664=DIRECTION('center_axis',(0.,0.,-1.));
#665=DIRECTION('ref_axis',(-1.,0.,0.));
#666=DIRECTION('center_axis',(0.,0.,1.));
#667=DIRECTION('ref_axis',(1.,0.,0.));
#668=DIRECTION('center_axis',(5.35501780556807E-16,3.99261448520832E-15,
-1.));
#669=DIRECTION('ref_axis',(-0.813826036051075,-0.581108581114919,-2.22044604925031E-15));
#670=DIRECTION('center_axis',(0.,0.,1.));
#671=DIRECTION('ref_axis',(1.,0.,0.));
#672=DIRECTION('center_axis',(0.,0.,1.));
#673=DIRECTION('ref_axis',(-0.813826036051075,0.581108581114919,0.));
#674=DIRECTION('center_axis',(0.,0.,-1.));
#675=DIRECTION('ref_axis',(1.,4.9065389333868E-17,0.));
#676=DIRECTION('',(0.,0.,1.));
#677=DIRECTION('center_axis',(0.,0.,1.));
#678=DIRECTION('ref_axis',(-1.,-6.2803698347351E-17,0.));
#679=DIRECTION('center_axis',(0.,0.,-1.));
#680=DIRECTION('ref_axis',(0.813826036051075,0.581108581114919,0.));
#681=DIRECTION('',(0.,0.,-1.));
#682=DIRECTION('',(0.,0.,-1.));
#683=DIRECTION('center_axis',(-1.73303621621231E-16,-5.55225361532712E-17,
-1.));
#684=DIRECTION('ref_axis',(0.813826036051075,0.581108581114919,0.));
#685=DIRECTION('center_axis',(0.,0.,1.));
#686=DIRECTION('ref_axis',(1.,0.,0.));
#687=DIRECTION('center_axis',(0.,0.,1.));
#688=DIRECTION('ref_axis',(-1.,0.,0.));
#689=DIRECTION('center_axis',(0.,0.,-1.));
#690=DIRECTION('ref_axis',(-1.,0.,0.));
#691=DIRECTION('center_axis',(0.,0.,1.));
#692=DIRECTION('ref_axis',(-0.813826036051075,0.581108581114919,0.));
#693=DIRECTION('center_axis',(-1.,0.,0.));
#694=DIRECTION('ref_axis',(0.,1.,0.));
#695=DIRECTION('center_axis',(-1.,7.22098423421796E-16,2.31343900638631E-16));
#696=DIRECTION('ref_axis',(7.40148683083438E-16,0.813826036051075,0.581108581114919));
#697=DIRECTION('',(1.,0.,0.));
#698=DIRECTION('center_axis',(1.,0.,0.));
#699=DIRECTION('ref_axis',(0.,0.,-1.));
#700=DIRECTION('center_axis',(1.,1.73585213446651E-15,6.474597662758E-16));
#701=DIRECTION('ref_axis',(1.77635683940025E-15,-0.581108581114915,-0.813826036051078));
#702=DIRECTION('center_axis',(0.,0.,1.));
#703=DIRECTION('ref_axis',(-0.813826036051075,-0.581108581114919,0.));
#704=DIRECTION('',(-0.575461908797883,-0.410905818312052,-0.707106781186547));
#705=DIRECTION('center_axis',(-2.03849186213573E-16,-4.12322847911554E-16,
1.));
#706=DIRECTION('ref_axis',(-0.813826036051075,0.581108581114919,0.));
#707=DIRECTION('center_axis',(-2.03849186213573E-16,-4.12322847911554E-16,
1.));
#708=DIRECTION('ref_axis',(-0.813826036051075,0.581108581114919,0.));
#709=DIRECTION('center_axis',(1.,0.,0.));
#710=DIRECTION('ref_axis',(0.,-1.25607396694702E-15,-1.));
#711=DIRECTION('',(-1.,0.,0.));
#712=DIRECTION('center_axis',(0.,0.,1.));
#713=DIRECTION('ref_axis',(-1.,-3.43457725337076E-16,0.));
#714=DIRECTION('',(0.,0.,-1.));
#715=DIRECTION('',(0.,0.,-1.));
#716=DIRECTION('center_axis',(0.,0.,-1.));
#717=DIRECTION('ref_axis',(1.,4.9065389333868E-17,0.));
#718=DIRECTION('center_axis',(-5.35501780556808E-16,3.99261448520832E-15,
1.));
#719=DIRECTION('ref_axis',(-0.813826036051075,0.581108581114919,-2.22044604925031E-15));
#720=DIRECTION('',(0.,0.,1.));
#721=DIRECTION('center_axis',(-2.67750890278404E-16,1.99630724260416E-15,
1.));
#722=DIRECTION('ref_axis',(-0.813826036051075,0.581108581114919,-1.11022302462516E-15));
#723=DIRECTION('center_axis',(0.,0.,1.));
#724=DIRECTION('ref_axis',(1.,0.,0.));
#725=DIRECTION('center_axis',(0.,0.,-1.));
#726=DIRECTION('ref_axis',(1.,4.9065389333868E-17,0.));
#727=DIRECTION('center_axis',(-2.67750890278404E-16,1.99630724260416E-15,
1.));
#728=DIRECTION('ref_axis',(-0.813826036051075,0.581108581114919,-1.11022302462516E-15));
#729=DIRECTION('',(0.,0.,1.));
#730=DIRECTION('center_axis',(-2.67750890278404E-16,1.99630724260416E-15,
1.));
#731=DIRECTION('ref_axis',(-0.813826036051075,0.581108581114919,-1.11022302462516E-15));
#732=DIRECTION('center_axis',(0.,0.,-1.));
#733=DIRECTION('ref_axis',(-1.,0.,0.));
#734=DIRECTION('center_axis',(0.,0.,1.));
#735=DIRECTION('ref_axis',(1.,0.,0.));
#736=DIRECTION('',(0.,0.,1.));
#737=DIRECTION('',(1.,0.,0.));
#738=CARTESIAN_POINT('',(0.,0.,0.));
#739=CARTESIAN_POINT('',(0.,0.,0.));
#740=CARTESIAN_POINT('Origin',(-5.10269499646346E-16,-6.12323399573677E-15,
1.99999999999999));
#741=CARTESIAN_POINT('',(3.2553041442043,2.32443432445967,2.));
#742=CARTESIAN_POINT('Origin',(-5.55111512312578E-16,-5.55108644718275E-15,
1.99999999999999));
#743=CARTESIAN_POINT('Origin',(2.22044604925031E-15,-6.66133814775094E-15,
16.25));
#744=CARTESIAN_POINT('',(16.2765207210215,11.6221716222984,18.));
#745=CARTESIAN_POINT('Origin',(1.53080849893419E-15,-6.12323399573677E-15,
18.));
#746=CARTESIAN_POINT('',(14.8523251579321,10.6052316053473,16.25));
#747=CARTESIAN_POINT('Origin',(-4.44089209850063E-15,-2.60141436226615E-15,
18.));
#748=CARTESIAN_POINT('',(25.,0.,18.));
#749=CARTESIAN_POINT('Origin',(4.44089209850063E-15,-1.28177103283024E-15,
18.));
#750=CARTESIAN_POINT('',(25.,0.,88.));
#751=CARTESIAN_POINT('',(25.,6.17338474600562E-16,18.));
#752=CARTESIAN_POINT('Origin',(4.44089209850063E-15,-1.28177103283024E-15,
88.));
#753=CARTESIAN_POINT('Origin',(0.,-6.12323399573677E-15,18.));
#754=CARTESIAN_POINT('Origin',(0.,-6.12323399573677E-15,88.));
#755=CARTESIAN_POINT('',(4.,-6.61309271539571E-15,88.));
#756=CARTESIAN_POINT('Origin',(-1.66533453693773E-15,-4.81011746753747E-15,
88.));
#757=CARTESIAN_POINT('Origin',(-5.1026949964473E-16,-6.12323399573677E-15,
78.));
#758=CARTESIAN_POINT('',(4.,-6.61309271539571E-15,78.));
#759=CARTESIAN_POINT('Origin',(-1.66533453693773E-15,-4.81011746753747E-15,
78.));
#760=CARTESIAN_POINT('Origin',(-1.11022302462516E-15,-6.12323399573677E-15,
90.5));
#761=CARTESIAN_POINT('',(4.,-6.61309271539571E-15,90.5));
#762=CARTESIAN_POINT('Origin',(0.,-7.12120758180956E-15,103.));
#763=CARTESIAN_POINT('',(-8.,-6.12323399573677E-15,103.));
#764=CARTESIAN_POINT('Origin',(-1.11022302462516E-15,-4.69074323770116E-15,
103.));
#765=CARTESIAN_POINT('',(-8.,-6.12323399573677E-15,95.));
#766=CARTESIAN_POINT('',(-8.,-9.67101747981121E-15,103.));
#767=CARTESIAN_POINT('Origin',(-1.11022302462516E-15,-4.69074323770116E-15,
95.));
#768=CARTESIAN_POINT('Origin',(-5.1026949964473E-16,-6.12323399573677E-15,
103.));
#769=CARTESIAN_POINT('Origin',(-5.1026949964473E-16,-6.12323399573677E-15,
95.));
#770=CARTESIAN_POINT('',(-4.,-6.12323399573677E-15,95.));
#771=CARTESIAN_POINT('Origin',(-1.11022302462516E-15,-5.16824015704637E-15,
95.));
#772=CARTESIAN_POINT('Origin',(-5.1026949964473E-16,-6.12323399573677E-15,
78.));
#773=CARTESIAN_POINT('',(-4.,-6.12323399573677E-15,78.));
#774=CARTESIAN_POINT('Origin',(-1.66533453693773E-15,-4.81011746753747E-15,
78.));
#775=CARTESIAN_POINT('Origin',(-1.66533453693773E-15,-6.33616135246767E-15,
103.));
#776=CARTESIAN_POINT('',(-4.,-7.6110663014685E-15,103.));
#777=CARTESIAN_POINT('Origin',(-8.88178419700125E-15,3.14018491736755E-15,
-50.));
#778=CARTESIAN_POINT('',(50.,0.,-50.));
#779=CARTESIAN_POINT('Origin',(-1.77635683940025E-14,1.28177103283024E-14,
-50.));
#780=CARTESIAN_POINT('',(50.,0.,-65.));
#781=CARTESIAN_POINT('',(50.,1.24036038304719E-14,-50.));
#782=CARTESIAN_POINT('Origin',(-1.77635683940025E-14,1.28177103283024E-14,
-65.));
#783=CARTESIAN_POINT('Origin',(0.,0.,-50.));
#784=CARTESIAN_POINT('Origin',(0.,0.,-65.));
#785=CARTESIAN_POINT('Origin',(0.,-1.83947773623447E-15,-25.));
#786=CARTESIAN_POINT('',(40.,0.,-25.));
#787=CARTESIAN_POINT('Origin',(0.,-2.34699285796553E-15,-25.));
#788=CARTESIAN_POINT('',(40.,0.,65.));
#789=CARTESIAN_POINT('',(40.,-1.3018434767559E-14,-25.));
#790=CARTESIAN_POINT('Origin',(0.,-2.34699285796553E-15,65.));
#791=CARTESIAN_POINT('Origin',(-4.44089209850063E-15,-6.2803698347351E-15,
-25.));
#792=CARTESIAN_POINT('',(25.,-6.12323399573677E-15,65.));
#793=CARTESIAN_POINT('Origin',(1.33226762955019E-14,-8.68677606139725E-15,
65.));
#794=CARTESIAN_POINT('',(25.,-6.12323399573677E-15,-25.));
#795=CARTESIAN_POINT('',(25.,-9.49912267160181E-15,-25.));
#796=CARTESIAN_POINT('Origin',(1.33226762955019E-14,-8.68677606139725E-15,
-25.));
#797=CARTESIAN_POINT('Origin',(0.,0.,-25.));
#798=CARTESIAN_POINT('Origin',(0.,0.,65.));
#799=CARTESIAN_POINT('Origin',(1.11022302462516E-15,7.17699909954213E-16,
-65.));
#800=CARTESIAN_POINT('',(-8.,-1.95943487863577E-15,-65.));
#801=CARTESIAN_POINT('Origin',(0.,1.86054047612584E-15,-65.));
#802=CARTESIAN_POINT('',(-8.,-1.95943487863577E-15,-57.));
#803=CARTESIAN_POINT('',(-8.,1.30489423460115E-15,-65.));
#804=CARTESIAN_POINT('Origin',(0.,1.86054047612584E-15,-57.));
#805=CARTESIAN_POINT('Origin',(0.,0.,-65.));
#806=CARTESIAN_POINT('Origin',(0.,0.,-57.));
#807=CARTESIAN_POINT('',(-4.,-1.37803713935907E-15,-57.));
#808=CARTESIAN_POINT('Origin',(-1.11022302462516E-15,3.3339908888142E-16,
-57.));
#809=CARTESIAN_POINT('Origin',(0.,0.,-40.));
#810=CARTESIAN_POINT('',(-4.,-9.79717439317883E-16,-40.));
#811=CARTESIAN_POINT('Origin',(0.,9.30270238062919E-16,-40.));
#812=CARTESIAN_POINT('Origin',(5.55111512312578E-16,3.58849954977106E-16,
-65.));
#813=CARTESIAN_POINT('',(-4.,6.52447117300576E-16,-65.));
#814=CARTESIAN_POINT('Origin',(4.44089209850063E-15,1.57009245868378E-15,
10.));
#815=CARTESIAN_POINT('',(25.,0.,10.));
#816=CARTESIAN_POINT('Origin',(-4.44089209850063E-15,-1.28177103283024E-15,
10.));
#817=CARTESIAN_POINT('',(25.,4.41929079936034E-15,-27.));
#818=CARTESIAN_POINT('',(25.,6.20180191523593E-15,10.));
#819=CARTESIAN_POINT('',(24.8193472919817,3.,-30.));
#820=CARTESIAN_POINT('Ctrl Pts',(25.,1.94289029309402E-15,-27.));
#821=CARTESIAN_POINT('Ctrl Pts',(25.,0.377075689050839,-27.));
#822=CARTESIAN_POINT('Ctrl Pts',(24.9905968296516,0.779038458225472,-27.0754330012252));
#823=CARTESIAN_POINT('Ctrl Pts',(24.9566082106596,1.51807030304675,-27.3817075076019));
#824=CARTESIAN_POINT('Ctrl Pts',(24.932502789966,1.85516967569194,-27.6125289885727));
#825=CARTESIAN_POINT('Ctrl Pts',(24.8871718777207,2.387472897736,-28.1448322106167));
#826=CARTESIAN_POINT('Ctrl Pts',(24.8629902634342,2.61829290165149,-28.4819307619223));
#827=CARTESIAN_POINT('Ctrl Pts',(24.8288270873924,2.92456632189829,-29.2209598310382));
#828=CARTESIAN_POINT('Ctrl Pts',(24.8193472919817,3.,-29.6229216384737));
#829=CARTESIAN_POINT('Ctrl Pts',(24.8193472919817,3.,-30.));
#830=CARTESIAN_POINT('',(25.,4.80092996407524E-15,-33.));
#831=CARTESIAN_POINT('Ctrl Pts',(24.8193472919817,3.,-30.));
#832=CARTESIAN_POINT('Ctrl Pts',(24.8193472919817,3.,-30.3770783615263));
#833=CARTESIAN_POINT('Ctrl Pts',(24.8288270873924,2.92456632189829,-30.7790401689618));
#834=CARTESIAN_POINT('Ctrl Pts',(24.8629902634342,2.6182929016515,-31.5180692380777));
#835=CARTESIAN_POINT('Ctrl Pts',(24.8871718777207,2.387472897736,-31.8551677893833));
#836=CARTESIAN_POINT('Ctrl Pts',(24.932502789966,1.85516967569195,-32.3874710114273));
#837=CARTESIAN_POINT('Ctrl Pts',(24.9566082106596,1.51807030304675,-32.6182924923981));
#838=CARTESIAN_POINT('Ctrl Pts',(24.9905968296516,0.779038458225474,-32.9245669987748));
#839=CARTESIAN_POINT('Ctrl Pts',(25.,0.377075689050842,-33.));
#840=CARTESIAN_POINT('Ctrl Pts',(25.,3.53883589099269E-15,-33.));
#841=CARTESIAN_POINT('',(25.,0.,-50.));
#842=CARTESIAN_POINT('',(25.,6.20180191523593E-15,10.));
#843=CARTESIAN_POINT('Origin',(-4.44089209850063E-15,-1.28177103283024E-15,
-50.));
#844=CARTESIAN_POINT('',(24.8193472919817,-3.,-30.));
#845=CARTESIAN_POINT('Ctrl Pts',(25.,3.40005801291454E-15,-33.));
#846=CARTESIAN_POINT('Ctrl Pts',(25.,-0.377075689050835,-33.));
#847=CARTESIAN_POINT('Ctrl Pts',(24.9905968296516,-0.779038458225465,-32.9245669987748));
#848=CARTESIAN_POINT('Ctrl Pts',(24.9566082106596,-1.51807030304674,-32.6182924923982));
#849=CARTESIAN_POINT('Ctrl Pts',(24.932502789966,-1.85516967569194,-32.3874710114273));
#850=CARTESIAN_POINT('Ctrl Pts',(24.8871718777207,-2.387472897736,-31.8551677893833));
#851=CARTESIAN_POINT('Ctrl Pts',(24.8629902634342,-2.61829290165149,-31.5180692380777));
#852=CARTESIAN_POINT('Ctrl Pts',(24.8288270873924,-2.92456632189829,-30.7790401689618));
#853=CARTESIAN_POINT('Ctrl Pts',(24.8193472919817,-3.,-30.3770783615263));
#854=CARTESIAN_POINT('Ctrl Pts',(24.8193472919817,-3.,-30.));
#855=CARTESIAN_POINT('Ctrl Pts',(24.8193472919817,-3.,-30.));
#856=CARTESIAN_POINT('Ctrl Pts',(24.8193472919817,-3.,-29.6229216384737));
#857=CARTESIAN_POINT('Ctrl Pts',(24.8288270873924,-2.92456632189829,-29.2209598310382));
#858=CARTESIAN_POINT('Ctrl Pts',(24.8629902634342,-2.61829290165149,-28.4819307619223));
#859=CARTESIAN_POINT('Ctrl Pts',(24.8871718777207,-2.387472897736,-28.1448322106167));
#860=CARTESIAN_POINT('Ctrl Pts',(24.932502789966,-1.85516967569194,-27.6125289885727));
#861=CARTESIAN_POINT('Ctrl Pts',(24.9566082106596,-1.51807030304674,-27.3817075076019));
#862=CARTESIAN_POINT('Ctrl Pts',(24.9905968296516,-0.779038458225469,-27.0754330012252));
#863=CARTESIAN_POINT('Ctrl Pts',(25.,-0.377075689050836,-27.));
#864=CARTESIAN_POINT('Ctrl Pts',(25.,2.70616862252382E-15,-27.));
#865=CARTESIAN_POINT('Origin',(5.1026949964473E-16,0.,10.));
#866=CARTESIAN_POINT('',(16.2765207210215,11.6221716222984,10.));
#867=CARTESIAN_POINT('Origin',(2.04107799857892E-15,0.,10.));
#868=CARTESIAN_POINT('Origin',(5.1026949964473E-16,0.,-50.));
#869=CARTESIAN_POINT('',(4.,2.25780308303767E-15,-50.));
#870=CARTESIAN_POINT('Origin',(0.,9.30270238062919E-16,-50.));
#871=CARTESIAN_POINT('Origin',(19.,2.22044604925031E-15,-30.));
#872=CARTESIAN_POINT('',(13.,-3.,-30.));
#873=CARTESIAN_POINT('Origin',(13.,2.22044604925031E-15,-30.));
#874=CARTESIAN_POINT('',(19.,-3.,-30.));
#875=CARTESIAN_POINT('Origin',(13.,0.,-30.));
#876=CARTESIAN_POINT('',(13.,5.97420813494826E-15,-27.5));
#877=CARTESIAN_POINT('Origin',(13.,-7.08987425843754E-15,-30.));
#878=CARTESIAN_POINT('Origin',(2.22044604925031E-15,-2.22044604925031E-15,
8.25));
#879=CARTESIAN_POINT('',(3.2553041442043,2.32443432445967,-6.));
#880=CARTESIAN_POINT('',(14.8523251579321,10.6052316053473,8.25));
#881=CARTESIAN_POINT('',(4.,2.25780308303767E-15,-6.00000000000001));
#882=CARTESIAN_POINT('Origin',(0.,9.30270238062919E-16,-6.00000000000001));
#883=CARTESIAN_POINT('Origin',(0.,9.30270238062919E-16,-6.00000000000001));
#884=CARTESIAN_POINT('Origin',(36.,3.14018491736755E-15,-30.));
#885=CARTESIAN_POINT('',(4.,4.92999436056816E-15,-27.5));
#886=CARTESIAN_POINT('',(36.,5.97420813494826E-15,-27.5));
#887=CARTESIAN_POINT('',(4.,2.44929359829471E-16,-32.5));
#888=CARTESIAN_POINT('Ctrl Pts',(4.,3.81639164714898E-15,-32.5));
#889=CARTESIAN_POINT('Ctrl Pts',(4.,0.323635304894675,-32.5));
#890=CARTESIAN_POINT('Ctrl Pts',(3.95736214419407,0.66282512083319,-32.4334158365123));
#891=CARTESIAN_POINT('Ctrl Pts',(3.80399909362634,1.27657471830754,-32.1751336385332));
#892=CARTESIAN_POINT('Ctrl Pts',(3.69464322230397,1.55166011221464,-31.9838737937181));
#893=CARTESIAN_POINT('Ctrl Pts',(3.48085874934373,1.9855951990894,-31.5499387068433));
#894=CARTESIAN_POINT('Ctrl Pts',(3.36023547413215,2.17567721721808,-31.2752936821908));
#895=CARTESIAN_POINT('Ctrl Pts',(3.17895958575667,2.43289392455925,-30.6640546700171));
#896=CARTESIAN_POINT('Ctrl Pts',(3.1224989991992,2.5,-30.3262132313974));
#897=CARTESIAN_POINT('Ctrl Pts',(3.1224989991992,2.5,-30.));
#898=CARTESIAN_POINT('Ctrl Pts',(3.1224989991992,2.5,-29.6737867686026));
#899=CARTESIAN_POINT('Ctrl Pts',(3.17895958575667,2.43289392455925,-29.3359453299829));
#900=CARTESIAN_POINT('Ctrl Pts',(3.36023547413215,2.17567721721808,-28.7247063178092));
#901=CARTESIAN_POINT('Ctrl Pts',(3.48085874934373,1.9855951990894,-28.4500612931567));
#902=CARTESIAN_POINT('Ctrl Pts',(3.69464322230397,1.55166011221464,-28.0161262062819));
#903=CARTESIAN_POINT('Ctrl Pts',(3.80399909362633,1.27657471830754,-27.8248663614668));
#904=CARTESIAN_POINT('Ctrl Pts',(3.95736214419407,0.662825120833194,-27.5665841634878));
#905=CARTESIAN_POINT('Ctrl Pts',(4.,0.323635304894676,-27.5));
#906=CARTESIAN_POINT('Ctrl Pts',(4.,4.33680868994202E-15,-27.5));
#907=CARTESIAN_POINT('Ctrl Pts',(4.,3.88578058618805E-15,-27.5));
#908=CARTESIAN_POINT('Ctrl Pts',(4.,-0.323635304894667,-27.5));
#909=CARTESIAN_POINT('Ctrl Pts',(3.95736214419407,-0.662825120833185,-27.5665841634878));
#910=CARTESIAN_POINT('Ctrl Pts',(3.80399909362634,-1.27657471830753,-27.8248663614668));
#911=CARTESIAN_POINT('Ctrl Pts',(3.69464322230397,-1.55166011221463,-28.0161262062819));
#912=CARTESIAN_POINT('Ctrl Pts',(3.48085874934374,-1.98559519908939,-28.4500612931567));
#913=CARTESIAN_POINT('Ctrl Pts',(3.36023547413216,-2.17567721721807,-28.7247063178092));
#914=CARTESIAN_POINT('Ctrl Pts',(3.17895958575667,-2.43289392455924,-29.3359453299829));
#915=CARTESIAN_POINT('Ctrl Pts',(3.1224989991992,-2.5,-29.6737867686026));
#916=CARTESIAN_POINT('Ctrl Pts',(3.1224989991992,-2.5,-30.3262132313974));
#917=CARTESIAN_POINT('Ctrl Pts',(3.17895958575667,-2.43289392455924,-30.6640546700171));
#918=CARTESIAN_POINT('Ctrl Pts',(3.36023547413216,-2.17567721721808,-31.2752936821908));
#919=CARTESIAN_POINT('Ctrl Pts',(3.48085874934374,-1.98559519908939,-31.5499387068433));
#920=CARTESIAN_POINT('Ctrl Pts',(3.69464322230397,-1.55166011221463,-31.9838737937181));
#921=CARTESIAN_POINT('Ctrl Pts',(3.80399909362633,-1.27657471830753,-32.1751336385332));
#922=CARTESIAN_POINT('Ctrl Pts',(3.95736214419407,-0.662825120833186,-32.4334158365122));
#923=CARTESIAN_POINT('Ctrl Pts',(4.,-0.323635304894668,-32.5));
#924=CARTESIAN_POINT('Ctrl Pts',(4.,3.7470027081099E-15,-32.5));
#925=CARTESIAN_POINT('Origin',(5.55111512312578E-16,3.94113462030421E-16,
-35.5));
#926=CARTESIAN_POINT('',(4.,2.25780308303767E-15,-35.5));
#927=CARTESIAN_POINT('',(4.,2.25780308303767E-15,-35.5));
#928=CARTESIAN_POINT('Origin',(5.55111512312578E-16,3.58849954977106E-16,
-65.));
#929=CARTESIAN_POINT('',(-4.,-1.37803713935907E-15,-57.));
#930=CARTESIAN_POINT('Origin',(0.,9.30270238062919E-16,-57.));
#931=CARTESIAN_POINT('',(-4.,-9.79717439317883E-16,-32.5));
#932=CARTESIAN_POINT('',(-4.,6.52447117300576E-16,-65.));
#933=CARTESIAN_POINT('Origin',(0.,9.30270238062919E-16,-32.5));
#934=CARTESIAN_POINT('Origin',(0.,0.,-32.5));
#935=CARTESIAN_POINT('Origin',(1.11022302462516E-15,7.17699909954213E-16,
-65.));
#936=CARTESIAN_POINT('',(-8.,-1.95943487863577E-15,-65.));
#937=CARTESIAN_POINT('Origin',(0.,1.86054047612584E-15,-65.));
#938=CARTESIAN_POINT('',(-8.,-1.95943487863577E-15,-57.));
#939=CARTESIAN_POINT('',(-8.,1.30489423460115E-15,-65.));
#940=CARTESIAN_POINT('Origin',(0.,1.86054047612584E-15,-57.));
#941=CARTESIAN_POINT('Origin',(0.,0.,-65.));
#942=CARTESIAN_POINT('Origin',(0.,0.,-57.));
#943=CARTESIAN_POINT('',(0.,0.,0.));
#944=UNCERTAINTY_MEASURE_WITH_UNIT(LENGTH_MEASURE(0.01),#950,
'DISTANCE_ACCURACY_VALUE',
'Maximum model space distance between geometric entities at asserted c
onnectivities');
#945=UNCERTAINTY_MEASURE_WITH_UNIT(LENGTH_MEASURE(0.01),#950,
'DISTANCE_ACCURACY_VALUE',
'Maximum model space distance between geometric entities at asserted c
onnectivities');
#946=UNCERTAINTY_MEASURE_WITH_UNIT(LENGTH_MEASURE(0.01),#950,
'DISTANCE_ACCURACY_VALUE',
'Maximum model space distance between geometric entities at asserted c
onnectivities');
#947=(
GEOMETRIC_REPRESENTATION_CONTEXT(3)
GLOBAL_UNCERTAINTY_ASSIGNED_CONTEXT((#944))
GLOBAL_UNIT_ASSIGNED_CONTEXT((#950,#952,#953))
REPRESENTATION_CONTEXT('','3D')
);
#948=(
GEOMETRIC_REPRESENTATION_CONTEXT(3)
GLOBAL_UNCERTAINTY_ASSIGNED_CONTEXT((#945))
GLOBAL_UNIT_ASSIGNED_CONTEXT((#950,#952,#953))
REPRESENTATION_CONTEXT('','3D')
);
#949=(
GEOMETRIC_REPRESENTATION_CONTEXT(3)
GLOBAL_UNCERTAINTY_ASSIGNED_CONTEXT((#946))
GLOBAL_UNIT_ASSIGNED_CONTEXT((#950,#952,#953))
REPRESENTATION_CONTEXT('','3D')
);
#950=(
LENGTH_UNIT()
NAMED_UNIT(*)
SI_UNIT(.MILLI.,.METRE.)
);
#951=(
LENGTH_UNIT()
NAMED_UNIT(*)
SI_UNIT($,.METRE.)
);
#952=(
NAMED_UNIT(*)
PLANE_ANGLE_UNIT()
SI_UNIT($,.RADIAN.)
);
#953=(
NAMED_UNIT(*)
SI_UNIT($,.STERADIAN.)
SOLID_ANGLE_UNIT()
);
#954=SHAPE_DEFINITION_REPRESENTATION(#956,#959);
#955=SHAPE_DEFINITION_REPRESENTATION(#957,#960);
#956=PRODUCT_DEFINITION_SHAPE('',$,#962);
#957=PRODUCT_DEFINITION_SHAPE('',$,#963);
#958=PRODUCT_DEFINITION_SHAPE($,$,#14);
#959=SHAPE_REPRESENTATION('',(#503,#574),#947);
#960=SHAPE_REPRESENTATION('',(#504),#948);
#961=PRODUCT_DEFINITION_CONTEXT('part definition',#969,'design');
#962=PRODUCT_DEFINITION('compression mold steel',
'compression mold steel v3',#964,#961);
#963=PRODUCT_DEFINITION('compression mold steel - v2 - export f360',
'compression mold steel - v2 - export f360',#965,#961);
#964=PRODUCT_DEFINITION_FORMATION('',$,#971);
#965=PRODUCT_DEFINITION_FORMATION('',$,#972);
#966=PRODUCT_RELATED_PRODUCT_CATEGORY('compression mold steel v3',
'compression mold steel v3',(#971));
#967=PRODUCT_RELATED_PRODUCT_CATEGORY(
'compression mold steel - v2 - export f360',
'compression mold steel - v2 - export f360',(#972));
#968=APPLICATION_PROTOCOL_DEFINITION('international standard',
'automotive_design',2009,#969);
#969=APPLICATION_CONTEXT(
'Core Data for Automotive Mechanical Design Process');
#970=PRODUCT_CONTEXT('part definition',#969,'mechanical');
#971=PRODUCT('compression mold steel','compression mold steel v3',$,(#970));
#972=PRODUCT('compression mold steel - v2 - export f360',
'compression mold steel - v2 - export f360',$,(#970));
#973=PRESENTATION_STYLE_ASSIGNMENT((#974));
#974=SURFACE_STYLE_USAGE(.BOTH.,#975);
#975=SURFACE_SIDE_STYLE('',(#976));
#976=SURFACE_STYLE_FILL_AREA(#977);
#977=FILL_AREA_STYLE('Steel - Satin',(#978));
#978=FILL_AREA_STYLE_COLOUR('Steel - Satin',#979);
#979=COLOUR_RGB('Steel - Satin',0.627450980392157,0.627450980392157,0.627450980392157);
ENDSEC;
END-ISO-10303-21;
