ISO-10303-21;
HEADER;
/* Generated by software containing ST-Developer
 * from STEP Tools, Inc. (www.steptools.com) 
 */

FILE_DESCRIPTION(
/* description */ (''),
/* implementation_level */ '2;1');

FILE_NAME(
/* name */ 'BarrelFlange-100-55-40 v1.step',
/* time_stamp */ '2026-03-14T09:51:04+01:00',
/* author */ (''),
/* organization */ (''),
/* preprocessor_version */ 'ST-DEVELOPER v20.1',
/* originating_system */ 'Autodesk Translation Framework v14.24.0.0',
/* authorisation */ '');

FILE_SCHEMA (('AUTOMOTIVE_DESIGN { 1 0 10303 214 3 1 1 }'));
ENDSEC;

DATA;
#10=MECHANICAL_DESIGN_GEOMETRIC_PRESENTATION_REPRESENTATION('',(#13),#932);
#11=SHAPE_REPRESENTATION_RELATIONSHIP('SRR','None',#939,#12);
#12=ADVANCED_BREP_SHAPE_REPRESENTATION('',(#14),#931);
#13=STYLED_ITEM('',(#949),#14);
#14=MANIFOLD_SOLID_BREP('Body1',#524);
#15=FACE_BOUND('',#93,.T.);
#16=FACE_BOUND('',#94,.T.);
#17=FACE_BOUND('',#95,.T.);
#18=FACE_BOUND('',#96,.T.);
#19=FACE_BOUND('',#97,.T.);
#20=FACE_BOUND('',#98,.T.);
#21=FACE_BOUND('',#99,.T.);
#22=FACE_BOUND('',#100,.T.);
#23=FACE_BOUND('',#101,.T.);
#24=FACE_BOUND('',#112,.T.);
#25=FACE_BOUND('',#115,.T.);
#26=FACE_BOUND('',#118,.T.);
#27=FACE_BOUND('',#121,.T.);
#28=FACE_BOUND('',#124,.T.);
#29=FACE_BOUND('',#127,.T.);
#30=FACE_BOUND('',#130,.T.);
#31=FACE_BOUND('',#133,.T.);
#32=FACE_BOUND('',#136,.T.);
#33=FACE_BOUND('',#139,.T.);
#34=FACE_BOUND('',#140,.T.);
#35=FACE_BOUND('',#141,.T.);
#36=FACE_BOUND('',#142,.T.);
#37=FACE_BOUND('',#143,.T.);
#38=FACE_BOUND('',#144,.T.);
#39=FACE_BOUND('',#145,.T.);
#40=FACE_BOUND('',#146,.T.);
#41=FACE_BOUND('',#147,.T.);
#42=FACE_BOUND('',#149,.T.);
#43=FACE_BOUND('',#153,.T.);
#44=PLANE('',#541);
#45=PLANE('',#578);
#46=PLANE('',#582);
#47=PLANE('',#585);
#48=PLANE('',#588);
#49=PLANE('',#591);
#50=PLANE('',#594);
#51=PLANE('',#597);
#52=PLANE('',#600);
#53=PLANE('',#603);
#54=PLANE('',#606);
#55=PLANE('',#608);
#56=PLANE('',#613);
#57=FACE_OUTER_BOUND('',#91,.T.);
#58=FACE_OUTER_BOUND('',#92,.T.);
#59=FACE_OUTER_BOUND('',#102,.T.);
#60=FACE_OUTER_BOUND('',#103,.T.);
#61=FACE_OUTER_BOUND('',#104,.T.);
#62=FACE_OUTER_BOUND('',#105,.T.);
#63=FACE_OUTER_BOUND('',#106,.T.);
#64=FACE_OUTER_BOUND('',#107,.T.);
#65=FACE_OUTER_BOUND('',#108,.T.);
#66=FACE_OUTER_BOUND('',#109,.T.);
#67=FACE_OUTER_BOUND('',#110,.T.);
#68=FACE_OUTER_BOUND('',#111,.T.);
#69=FACE_OUTER_BOUND('',#113,.T.);
#70=FACE_OUTER_BOUND('',#114,.T.);
#71=FACE_OUTER_BOUND('',#116,.T.);
#72=FACE_OUTER_BOUND('',#117,.T.);
#73=FACE_OUTER_BOUND('',#119,.T.);
#74=FACE_OUTER_BOUND('',#120,.T.);
#75=FACE_OUTER_BOUND('',#122,.T.);
#76=FACE_OUTER_BOUND('',#123,.T.);
#77=FACE_OUTER_BOUND('',#125,.T.);
#78=FACE_OUTER_BOUND('',#126,.T.);
#79=FACE_OUTER_BOUND('',#128,.T.);
#80=FACE_OUTER_BOUND('',#129,.T.);
#81=FACE_OUTER_BOUND('',#131,.T.);
#82=FACE_OUTER_BOUND('',#132,.T.);
#83=FACE_OUTER_BOUND('',#134,.T.);
#84=FACE_OUTER_BOUND('',#135,.T.);
#85=FACE_OUTER_BOUND('',#137,.T.);
#86=FACE_OUTER_BOUND('',#138,.T.);
#87=FACE_OUTER_BOUND('',#148,.T.);
#88=FACE_OUTER_BOUND('',#150,.T.);
#89=FACE_OUTER_BOUND('',#151,.T.);
#90=FACE_OUTER_BOUND('',#152,.T.);
#91=EDGE_LOOP('',(#343,#344,#345,#346));
#92=EDGE_LOOP('',(#347));
#93=EDGE_LOOP('',(#348));
#94=EDGE_LOOP('',(#349));
#95=EDGE_LOOP('',(#350));
#96=EDGE_LOOP('',(#351));
#97=EDGE_LOOP('',(#352));
#98=EDGE_LOOP('',(#353));
#99=EDGE_LOOP('',(#354));
#100=EDGE_LOOP('',(#355));
#101=EDGE_LOOP('',(#356));
#102=EDGE_LOOP('',(#357,#358,#359,#360));
#103=EDGE_LOOP('',(#361,#362,#363,#364));
#104=EDGE_LOOP('',(#365,#366,#367,#368));
#105=EDGE_LOOP('',(#369,#370,#371,#372));
#106=EDGE_LOOP('',(#373,#374,#375,#376));
#107=EDGE_LOOP('',(#377,#378,#379,#380));
#108=EDGE_LOOP('',(#381,#382,#383,#384));
#109=EDGE_LOOP('',(#385,#386,#387,#388));
#110=EDGE_LOOP('',(#389,#390,#391,#392));
#111=EDGE_LOOP('',(#393));
#112=EDGE_LOOP('',(#394));
#113=EDGE_LOOP('',(#395,#396,#397,#398));
#114=EDGE_LOOP('',(#399));
#115=EDGE_LOOP('',(#400));
#116=EDGE_LOOP('',(#401,#402,#403,#404));
#117=EDGE_LOOP('',(#405));
#118=EDGE_LOOP('',(#406));
#119=EDGE_LOOP('',(#407,#408,#409,#410));
#120=EDGE_LOOP('',(#411));
#121=EDGE_LOOP('',(#412));
#122=EDGE_LOOP('',(#413,#414,#415,#416));
#123=EDGE_LOOP('',(#417));
#124=EDGE_LOOP('',(#418));
#125=EDGE_LOOP('',(#419,#420,#421,#422));
#126=EDGE_LOOP('',(#423));
#127=EDGE_LOOP('',(#424));
#128=EDGE_LOOP('',(#425,#426,#427,#428));
#129=EDGE_LOOP('',(#429));
#130=EDGE_LOOP('',(#430));
#131=EDGE_LOOP('',(#431,#432,#433,#434));
#132=EDGE_LOOP('',(#435));
#133=EDGE_LOOP('',(#436));
#134=EDGE_LOOP('',(#437,#438,#439,#440));
#135=EDGE_LOOP('',(#441));
#136=EDGE_LOOP('',(#442));
#137=EDGE_LOOP('',(#443,#444,#445,#446));
#138=EDGE_LOOP('',(#447));
#139=EDGE_LOOP('',(#448));
#140=EDGE_LOOP('',(#449));
#141=EDGE_LOOP('',(#450));
#142=EDGE_LOOP('',(#451));
#143=EDGE_LOOP('',(#452));
#144=EDGE_LOOP('',(#453));
#145=EDGE_LOOP('',(#454));
#146=EDGE_LOOP('',(#455));
#147=EDGE_LOOP('',(#456));
#148=EDGE_LOOP('',(#457));
#149=EDGE_LOOP('',(#458));
#150=EDGE_LOOP('',(#459,#460,#461,#462));
#151=EDGE_LOOP('',(#463,#464,#465,#466));
#152=EDGE_LOOP('',(#467));
#153=EDGE_LOOP('',(#468));
#154=LINE('',#794,#175);
#155=LINE('',#821,#176);
#156=LINE('',#827,#177);
#157=LINE('',#833,#178);
#158=LINE('',#839,#179);
#159=LINE('',#845,#180);
#160=LINE('',#851,#181);
#161=LINE('',#857,#182);
#162=LINE('',#863,#183);
#163=LINE('',#868,#184);
#164=LINE('',#875,#185);
#165=LINE('',#880,#186);
#166=LINE('',#885,#187);
#167=LINE('',#890,#188);
#168=LINE('',#895,#189);
#169=LINE('',#900,#190);
#170=LINE('',#905,#191);
#171=LINE('',#910,#192);
#172=LINE('',#915,#193);
#173=LINE('',#923,#194);
#174=LINE('',#927,#195);
#175=VECTOR('',#620,18.925);
#176=VECTOR('',#649,4.);
#177=VECTOR('',#656,4.);
#178=VECTOR('',#663,4.);
#179=VECTOR('',#670,4.);
#180=VECTOR('',#677,4.);
#181=VECTOR('',#684,4.);
#182=VECTOR('',#691,4.);
#183=VECTOR('',#698,4.);
#184=VECTOR('',#705,50.);
#185=VECTOR('',#714,7.);
#186=VECTOR('',#721,7.);
#187=VECTOR('',#728,7.);
#188=VECTOR('',#735,7.);
#189=VECTOR('',#742,7.);
#190=VECTOR('',#749,7.);
#191=VECTOR('',#756,7.);
#192=VECTOR('',#763,7.);
#193=VECTOR('',#770,47.5);
#194=VECTOR('',#781,25.);
#195=VECTOR('',#786,20.);
#196=CIRCLE('',#539,18.925);
#197=CIRCLE('',#540,18.925);
#198=CIRCLE('',#542,50.);
#199=CIRCLE('',#543,7.);
#200=CIRCLE('',#544,7.);
#201=CIRCLE('',#545,7.);
#202=CIRCLE('',#546,7.);
#203=CIRCLE('',#547,7.);
#204=CIRCLE('',#548,7.);
#205=CIRCLE('',#549,7.);
#206=CIRCLE('',#550,7.);
#207=CIRCLE('',#551,25.);
#208=CIRCLE('',#553,4.);
#209=CIRCLE('',#554,4.);
#210=CIRCLE('',#556,4.);
#211=CIRCLE('',#557,4.);
#212=CIRCLE('',#559,4.);
#213=CIRCLE('',#560,4.);
#214=CIRCLE('',#562,4.);
#215=CIRCLE('',#563,4.);
#216=CIRCLE('',#565,4.);
#217=CIRCLE('',#566,4.);
#218=CIRCLE('',#568,4.);
#219=CIRCLE('',#569,4.);
#220=CIRCLE('',#571,4.);
#221=CIRCLE('',#572,4.);
#222=CIRCLE('',#574,4.);
#223=CIRCLE('',#575,4.);
#224=CIRCLE('',#577,50.);
#225=CIRCLE('',#579,47.5);
#226=CIRCLE('',#581,7.);
#227=CIRCLE('',#584,7.);
#228=CIRCLE('',#587,7.);
#229=CIRCLE('',#590,7.);
#230=CIRCLE('',#593,7.);
#231=CIRCLE('',#596,7.);
#232=CIRCLE('',#599,7.);
#233=CIRCLE('',#602,7.);
#234=CIRCLE('',#605,47.5);
#235=CIRCLE('',#607,20.);
#236=CIRCLE('',#609,25.);
#237=CIRCLE('',#612,20.);
#238=VERTEX_POINT('',#791);
#239=VERTEX_POINT('',#793);
#240=VERTEX_POINT('',#797);
#241=VERTEX_POINT('',#799);
#242=VERTEX_POINT('',#801);
#243=VERTEX_POINT('',#803);
#244=VERTEX_POINT('',#805);
#245=VERTEX_POINT('',#807);
#246=VERTEX_POINT('',#809);
#247=VERTEX_POINT('',#811);
#248=VERTEX_POINT('',#813);
#249=VERTEX_POINT('',#815);
#250=VERTEX_POINT('',#818);
#251=VERTEX_POINT('',#820);
#252=VERTEX_POINT('',#824);
#253=VERTEX_POINT('',#826);
#254=VERTEX_POINT('',#830);
#255=VERTEX_POINT('',#832);
#256=VERTEX_POINT('',#836);
#257=VERTEX_POINT('',#838);
#258=VERTEX_POINT('',#842);
#259=VERTEX_POINT('',#844);
#260=VERTEX_POINT('',#848);
#261=VERTEX_POINT('',#850);
#262=VERTEX_POINT('',#854);
#263=VERTEX_POINT('',#856);
#264=VERTEX_POINT('',#860);
#265=VERTEX_POINT('',#862);
#266=VERTEX_POINT('',#866);
#267=VERTEX_POINT('',#870);
#268=VERTEX_POINT('',#873);
#269=VERTEX_POINT('',#878);
#270=VERTEX_POINT('',#883);
#271=VERTEX_POINT('',#888);
#272=VERTEX_POINT('',#893);
#273=VERTEX_POINT('',#898);
#274=VERTEX_POINT('',#903);
#275=VERTEX_POINT('',#908);
#276=VERTEX_POINT('',#913);
#277=VERTEX_POINT('',#917);
#278=VERTEX_POINT('',#920);
#279=VERTEX_POINT('',#925);
#280=EDGE_CURVE('',#238,#238,#196,.T.);
#281=EDGE_CURVE('',#238,#239,#154,.T.);
#282=EDGE_CURVE('',#239,#239,#197,.T.);
#283=EDGE_CURVE('',#240,#240,#198,.T.);
#284=EDGE_CURVE('',#241,#241,#199,.T.);
#285=EDGE_CURVE('',#242,#242,#200,.T.);
#286=EDGE_CURVE('',#243,#243,#201,.T.);
#287=EDGE_CURVE('',#244,#244,#202,.T.);
#288=EDGE_CURVE('',#245,#245,#203,.T.);
#289=EDGE_CURVE('',#246,#246,#204,.T.);
#290=EDGE_CURVE('',#247,#247,#205,.T.);
#291=EDGE_CURVE('',#248,#248,#206,.T.);
#292=EDGE_CURVE('',#249,#249,#207,.T.);
#293=EDGE_CURVE('',#250,#250,#208,.T.);
#294=EDGE_CURVE('',#250,#251,#155,.T.);
#295=EDGE_CURVE('',#251,#251,#209,.T.);
#296=EDGE_CURVE('',#252,#252,#210,.T.);
#297=EDGE_CURVE('',#252,#253,#156,.T.);
#298=EDGE_CURVE('',#253,#253,#211,.T.);
#299=EDGE_CURVE('',#254,#254,#212,.T.);
#300=EDGE_CURVE('',#254,#255,#157,.T.);
#301=EDGE_CURVE('',#255,#255,#213,.T.);
#302=EDGE_CURVE('',#256,#256,#214,.T.);
#303=EDGE_CURVE('',#256,#257,#158,.T.);
#304=EDGE_CURVE('',#257,#257,#215,.T.);
#305=EDGE_CURVE('',#258,#258,#216,.T.);
#306=EDGE_CURVE('',#258,#259,#159,.T.);
#307=EDGE_CURVE('',#259,#259,#217,.T.);
#308=EDGE_CURVE('',#260,#260,#218,.T.);
#309=EDGE_CURVE('',#260,#261,#160,.T.);
#310=EDGE_CURVE('',#261,#261,#219,.T.);
#311=EDGE_CURVE('',#262,#262,#220,.T.);
#312=EDGE_CURVE('',#262,#263,#161,.T.);
#313=EDGE_CURVE('',#263,#263,#221,.T.);
#314=EDGE_CURVE('',#264,#264,#222,.T.);
#315=EDGE_CURVE('',#264,#265,#162,.T.);
#316=EDGE_CURVE('',#265,#265,#223,.T.);
#317=EDGE_CURVE('',#266,#266,#224,.T.);
#318=EDGE_CURVE('',#266,#240,#163,.T.);
#319=EDGE_CURVE('',#267,#267,#225,.T.);
#320=EDGE_CURVE('',#268,#268,#226,.T.);
#321=EDGE_CURVE('',#268,#241,#164,.T.);
#322=EDGE_CURVE('',#269,#269,#227,.T.);
#323=EDGE_CURVE('',#269,#244,#165,.T.);
#324=EDGE_CURVE('',#270,#270,#228,.T.);
#325=EDGE_CURVE('',#270,#243,#166,.T.);
#326=EDGE_CURVE('',#271,#271,#229,.T.);
#327=EDGE_CURVE('',#271,#242,#167,.T.);
#328=EDGE_CURVE('',#272,#272,#230,.T.);
#329=EDGE_CURVE('',#272,#248,#168,.T.);
#330=EDGE_CURVE('',#273,#273,#231,.T.);
#331=EDGE_CURVE('',#273,#247,#169,.T.);
#332=EDGE_CURVE('',#274,#274,#232,.T.);
#333=EDGE_CURVE('',#274,#245,#170,.T.);
#334=EDGE_CURVE('',#275,#275,#233,.T.);
#335=EDGE_CURVE('',#275,#246,#171,.T.);
#336=EDGE_CURVE('',#276,#276,#234,.T.);
#337=EDGE_CURVE('',#276,#267,#172,.T.);
#338=EDGE_CURVE('',#277,#277,#235,.T.);
#339=EDGE_CURVE('',#278,#278,#236,.T.);
#340=EDGE_CURVE('',#249,#278,#173,.T.);
#341=EDGE_CURVE('',#279,#279,#237,.T.);
#342=EDGE_CURVE('',#279,#277,#174,.T.);
#343=ORIENTED_EDGE('',*,*,#280,.T.);
#344=ORIENTED_EDGE('',*,*,#281,.T.);
#345=ORIENTED_EDGE('',*,*,#282,.T.);
#346=ORIENTED_EDGE('',*,*,#281,.F.);
#347=ORIENTED_EDGE('',*,*,#283,.T.);
#348=ORIENTED_EDGE('',*,*,#284,.F.);
#349=ORIENTED_EDGE('',*,*,#285,.F.);
#350=ORIENTED_EDGE('',*,*,#286,.F.);
#351=ORIENTED_EDGE('',*,*,#287,.F.);
#352=ORIENTED_EDGE('',*,*,#288,.F.);
#353=ORIENTED_EDGE('',*,*,#289,.F.);
#354=ORIENTED_EDGE('',*,*,#290,.F.);
#355=ORIENTED_EDGE('',*,*,#291,.F.);
#356=ORIENTED_EDGE('',*,*,#292,.F.);
#357=ORIENTED_EDGE('',*,*,#293,.T.);
#358=ORIENTED_EDGE('',*,*,#294,.T.);
#359=ORIENTED_EDGE('',*,*,#295,.T.);
#360=ORIENTED_EDGE('',*,*,#294,.F.);
#361=ORIENTED_EDGE('',*,*,#296,.T.);
#362=ORIENTED_EDGE('',*,*,#297,.T.);
#363=ORIENTED_EDGE('',*,*,#298,.T.);
#364=ORIENTED_EDGE('',*,*,#297,.F.);
#365=ORIENTED_EDGE('',*,*,#299,.T.);
#366=ORIENTED_EDGE('',*,*,#300,.T.);
#367=ORIENTED_EDGE('',*,*,#301,.T.);
#368=ORIENTED_EDGE('',*,*,#300,.F.);
#369=ORIENTED_EDGE('',*,*,#302,.T.);
#370=ORIENTED_EDGE('',*,*,#303,.T.);
#371=ORIENTED_EDGE('',*,*,#304,.T.);
#372=ORIENTED_EDGE('',*,*,#303,.F.);
#373=ORIENTED_EDGE('',*,*,#305,.T.);
#374=ORIENTED_EDGE('',*,*,#306,.T.);
#375=ORIENTED_EDGE('',*,*,#307,.T.);
#376=ORIENTED_EDGE('',*,*,#306,.F.);
#377=ORIENTED_EDGE('',*,*,#308,.T.);
#378=ORIENTED_EDGE('',*,*,#309,.T.);
#379=ORIENTED_EDGE('',*,*,#310,.T.);
#380=ORIENTED_EDGE('',*,*,#309,.F.);
#381=ORIENTED_EDGE('',*,*,#311,.T.);
#382=ORIENTED_EDGE('',*,*,#312,.T.);
#383=ORIENTED_EDGE('',*,*,#313,.T.);
#384=ORIENTED_EDGE('',*,*,#312,.F.);
#385=ORIENTED_EDGE('',*,*,#314,.T.);
#386=ORIENTED_EDGE('',*,*,#315,.T.);
#387=ORIENTED_EDGE('',*,*,#316,.T.);
#388=ORIENTED_EDGE('',*,*,#315,.F.);
#389=ORIENTED_EDGE('',*,*,#317,.T.);
#390=ORIENTED_EDGE('',*,*,#318,.T.);
#391=ORIENTED_EDGE('',*,*,#283,.F.);
#392=ORIENTED_EDGE('',*,*,#318,.F.);
#393=ORIENTED_EDGE('',*,*,#317,.F.);
#394=ORIENTED_EDGE('',*,*,#319,.F.);
#395=ORIENTED_EDGE('',*,*,#320,.F.);
#396=ORIENTED_EDGE('',*,*,#321,.T.);
#397=ORIENTED_EDGE('',*,*,#284,.T.);
#398=ORIENTED_EDGE('',*,*,#321,.F.);
#399=ORIENTED_EDGE('',*,*,#320,.T.);
#400=ORIENTED_EDGE('',*,*,#314,.F.);
#401=ORIENTED_EDGE('',*,*,#322,.F.);
#402=ORIENTED_EDGE('',*,*,#323,.T.);
#403=ORIENTED_EDGE('',*,*,#287,.T.);
#404=ORIENTED_EDGE('',*,*,#323,.F.);
#405=ORIENTED_EDGE('',*,*,#322,.T.);
#406=ORIENTED_EDGE('',*,*,#311,.F.);
#407=ORIENTED_EDGE('',*,*,#324,.F.);
#408=ORIENTED_EDGE('',*,*,#325,.T.);
#409=ORIENTED_EDGE('',*,*,#286,.T.);
#410=ORIENTED_EDGE('',*,*,#325,.F.);
#411=ORIENTED_EDGE('',*,*,#324,.T.);
#412=ORIENTED_EDGE('',*,*,#308,.F.);
#413=ORIENTED_EDGE('',*,*,#326,.F.);
#414=ORIENTED_EDGE('',*,*,#327,.T.);
#415=ORIENTED_EDGE('',*,*,#285,.T.);
#416=ORIENTED_EDGE('',*,*,#327,.F.);
#417=ORIENTED_EDGE('',*,*,#326,.T.);
#418=ORIENTED_EDGE('',*,*,#305,.F.);
#419=ORIENTED_EDGE('',*,*,#328,.F.);
#420=ORIENTED_EDGE('',*,*,#329,.T.);
#421=ORIENTED_EDGE('',*,*,#291,.T.);
#422=ORIENTED_EDGE('',*,*,#329,.F.);
#423=ORIENTED_EDGE('',*,*,#328,.T.);
#424=ORIENTED_EDGE('',*,*,#302,.F.);
#425=ORIENTED_EDGE('',*,*,#330,.F.);
#426=ORIENTED_EDGE('',*,*,#331,.T.);
#427=ORIENTED_EDGE('',*,*,#290,.T.);
#428=ORIENTED_EDGE('',*,*,#331,.F.);
#429=ORIENTED_EDGE('',*,*,#330,.T.);
#430=ORIENTED_EDGE('',*,*,#299,.F.);
#431=ORIENTED_EDGE('',*,*,#332,.F.);
#432=ORIENTED_EDGE('',*,*,#333,.T.);
#433=ORIENTED_EDGE('',*,*,#288,.T.);
#434=ORIENTED_EDGE('',*,*,#333,.F.);
#435=ORIENTED_EDGE('',*,*,#332,.T.);
#436=ORIENTED_EDGE('',*,*,#296,.F.);
#437=ORIENTED_EDGE('',*,*,#334,.F.);
#438=ORIENTED_EDGE('',*,*,#335,.T.);
#439=ORIENTED_EDGE('',*,*,#289,.T.);
#440=ORIENTED_EDGE('',*,*,#335,.F.);
#441=ORIENTED_EDGE('',*,*,#334,.T.);
#442=ORIENTED_EDGE('',*,*,#293,.F.);
#443=ORIENTED_EDGE('',*,*,#336,.F.);
#444=ORIENTED_EDGE('',*,*,#337,.T.);
#445=ORIENTED_EDGE('',*,*,#319,.T.);
#446=ORIENTED_EDGE('',*,*,#337,.F.);
#447=ORIENTED_EDGE('',*,*,#336,.T.);
#448=ORIENTED_EDGE('',*,*,#338,.F.);
#449=ORIENTED_EDGE('',*,*,#295,.F.);
#450=ORIENTED_EDGE('',*,*,#298,.F.);
#451=ORIENTED_EDGE('',*,*,#301,.F.);
#452=ORIENTED_EDGE('',*,*,#304,.F.);
#453=ORIENTED_EDGE('',*,*,#307,.F.);
#454=ORIENTED_EDGE('',*,*,#310,.F.);
#455=ORIENTED_EDGE('',*,*,#313,.F.);
#456=ORIENTED_EDGE('',*,*,#316,.F.);
#457=ORIENTED_EDGE('',*,*,#339,.T.);
#458=ORIENTED_EDGE('',*,*,#280,.F.);
#459=ORIENTED_EDGE('',*,*,#292,.T.);
#460=ORIENTED_EDGE('',*,*,#340,.T.);
#461=ORIENTED_EDGE('',*,*,#339,.F.);
#462=ORIENTED_EDGE('',*,*,#340,.F.);
#463=ORIENTED_EDGE('',*,*,#341,.F.);
#464=ORIENTED_EDGE('',*,*,#342,.T.);
#465=ORIENTED_EDGE('',*,*,#338,.T.);
#466=ORIENTED_EDGE('',*,*,#342,.F.);
#467=ORIENTED_EDGE('',*,*,#341,.T.);
#468=ORIENTED_EDGE('',*,*,#282,.F.);
#469=CYLINDRICAL_SURFACE('',#538,18.925);
#470=CYLINDRICAL_SURFACE('',#552,4.);
#471=CYLINDRICAL_SURFACE('',#555,4.);
#472=CYLINDRICAL_SURFACE('',#558,4.);
#473=CYLINDRICAL_SURFACE('',#561,4.);
#474=CYLINDRICAL_SURFACE('',#564,4.);
#475=CYLINDRICAL_SURFACE('',#567,4.);
#476=CYLINDRICAL_SURFACE('',#570,4.);
#477=CYLINDRICAL_SURFACE('',#573,4.);
#478=CYLINDRICAL_SURFACE('',#576,50.);
#479=CYLINDRICAL_SURFACE('',#580,7.);
#480=CYLINDRICAL_SURFACE('',#583,7.);
#481=CYLINDRICAL_SURFACE('',#586,7.);
#482=CYLINDRICAL_SURFACE('',#589,7.);
#483=CYLINDRICAL_SURFACE('',#592,7.);
#484=CYLINDRICAL_SURFACE('',#595,7.);
#485=CYLINDRICAL_SURFACE('',#598,7.);
#486=CYLINDRICAL_SURFACE('',#601,7.);
#487=CYLINDRICAL_SURFACE('',#604,47.5);
#488=CYLINDRICAL_SURFACE('',#610,25.);
#489=CYLINDRICAL_SURFACE('',#611,20.);
#490=ADVANCED_FACE('',(#57),#469,.F.);
#491=ADVANCED_FACE('',(#58,#15,#16,#17,#18,#19,#20,#21,#22,#23),#44,.T.);
#492=ADVANCED_FACE('',(#59),#470,.F.);
#493=ADVANCED_FACE('',(#60),#471,.F.);
#494=ADVANCED_FACE('',(#61),#472,.F.);
#495=ADVANCED_FACE('',(#62),#473,.F.);
#496=ADVANCED_FACE('',(#63),#474,.F.);
#497=ADVANCED_FACE('',(#64),#475,.F.);
#498=ADVANCED_FACE('',(#65),#476,.F.);
#499=ADVANCED_FACE('',(#66),#477,.F.);
#500=ADVANCED_FACE('',(#67),#478,.T.);
#501=ADVANCED_FACE('',(#68,#24),#45,.F.);
#502=ADVANCED_FACE('',(#69),#479,.F.);
#503=ADVANCED_FACE('',(#70,#25),#46,.T.);
#504=ADVANCED_FACE('',(#71),#480,.F.);
#505=ADVANCED_FACE('',(#72,#26),#47,.T.);
#506=ADVANCED_FACE('',(#73),#481,.F.);
#507=ADVANCED_FACE('',(#74,#27),#48,.T.);
#508=ADVANCED_FACE('',(#75),#482,.F.);
#509=ADVANCED_FACE('',(#76,#28),#49,.T.);
#510=ADVANCED_FACE('',(#77),#483,.F.);
#511=ADVANCED_FACE('',(#78,#29),#50,.T.);
#512=ADVANCED_FACE('',(#79),#484,.F.);
#513=ADVANCED_FACE('',(#80,#30),#51,.T.);
#514=ADVANCED_FACE('',(#81),#485,.F.);
#515=ADVANCED_FACE('',(#82,#31),#52,.T.);
#516=ADVANCED_FACE('',(#83),#486,.F.);
#517=ADVANCED_FACE('',(#84,#32),#53,.T.);
#518=ADVANCED_FACE('',(#85),#487,.F.);
#519=ADVANCED_FACE('',(#86,#33,#34,#35,#36,#37,#38,#39,#40,#41),#54,.T.);
#520=ADVANCED_FACE('',(#87,#42),#55,.T.);
#521=ADVANCED_FACE('',(#88),#488,.T.);
#522=ADVANCED_FACE('',(#89),#489,.F.);
#523=ADVANCED_FACE('',(#90,#43),#56,.T.);
#524=CLOSED_SHELL('',(#490,#491,#492,#493,#494,#495,#496,#497,#498,#499,
#500,#501,#502,#503,#504,#505,#506,#507,#508,#509,#510,#511,#512,#513,#514,
#515,#516,#517,#518,#519,#520,#521,#522,#523));
#525=DERIVED_UNIT_ELEMENT(#527,1.);
#526=DERIVED_UNIT_ELEMENT(#934,-3.);
#527=(
MASS_UNIT()
NAMED_UNIT(*)
SI_UNIT(.KILO.,.GRAM.)
);
#528=DERIVED_UNIT((#525,#526));
#529=MEASURE_REPRESENTATION_ITEM('density measure',
POSITIVE_RATIO_MEASURE(7850.),#528);
#530=PROPERTY_DEFINITION_REPRESENTATION(#535,#532);
#531=PROPERTY_DEFINITION_REPRESENTATION(#536,#533);
#532=REPRESENTATION('material name',(#534),#931);
#533=REPRESENTATION('density',(#529),#931);
#534=DESCRIPTIVE_REPRESENTATION_ITEM('Steel','Steel');
#535=PROPERTY_DEFINITION('material property','material name',#941);
#536=PROPERTY_DEFINITION('material property','density of part',#941);
#537=AXIS2_PLACEMENT_3D('',#789,#614,#615);
#538=AXIS2_PLACEMENT_3D('',#790,#616,#617);
#539=AXIS2_PLACEMENT_3D('',#792,#618,#619);
#540=AXIS2_PLACEMENT_3D('',#795,#621,#622);
#541=AXIS2_PLACEMENT_3D('',#796,#623,#624);
#542=AXIS2_PLACEMENT_3D('',#798,#625,#626);
#543=AXIS2_PLACEMENT_3D('',#800,#627,#628);
#544=AXIS2_PLACEMENT_3D('',#802,#629,#630);
#545=AXIS2_PLACEMENT_3D('',#804,#631,#632);
#546=AXIS2_PLACEMENT_3D('',#806,#633,#634);
#547=AXIS2_PLACEMENT_3D('',#808,#635,#636);
#548=AXIS2_PLACEMENT_3D('',#810,#637,#638);
#549=AXIS2_PLACEMENT_3D('',#812,#639,#640);
#550=AXIS2_PLACEMENT_3D('',#814,#641,#642);
#551=AXIS2_PLACEMENT_3D('',#816,#643,#644);
#552=AXIS2_PLACEMENT_3D('',#817,#645,#646);
#553=AXIS2_PLACEMENT_3D('',#819,#647,#648);
#554=AXIS2_PLACEMENT_3D('',#822,#650,#651);
#555=AXIS2_PLACEMENT_3D('',#823,#652,#653);
#556=AXIS2_PLACEMENT_3D('',#825,#654,#655);
#557=AXIS2_PLACEMENT_3D('',#828,#657,#658);
#558=AXIS2_PLACEMENT_3D('',#829,#659,#660);
#559=AXIS2_PLACEMENT_3D('',#831,#661,#662);
#560=AXIS2_PLACEMENT_3D('',#834,#664,#665);
#561=AXIS2_PLACEMENT_3D('',#835,#666,#667);
#562=AXIS2_PLACEMENT_3D('',#837,#668,#669);
#563=AXIS2_PLACEMENT_3D('',#840,#671,#672);
#564=AXIS2_PLACEMENT_3D('',#841,#673,#674);
#565=AXIS2_PLACEMENT_3D('',#843,#675,#676);
#566=AXIS2_PLACEMENT_3D('',#846,#678,#679);
#567=AXIS2_PLACEMENT_3D('',#847,#680,#681);
#568=AXIS2_PLACEMENT_3D('',#849,#682,#683);
#569=AXIS2_PLACEMENT_3D('',#852,#685,#686);
#570=AXIS2_PLACEMENT_3D('',#853,#687,#688);
#571=AXIS2_PLACEMENT_3D('',#855,#689,#690);
#572=AXIS2_PLACEMENT_3D('',#858,#692,#693);
#573=AXIS2_PLACEMENT_3D('',#859,#694,#695);
#574=AXIS2_PLACEMENT_3D('',#861,#696,#697);
#575=AXIS2_PLACEMENT_3D('',#864,#699,#700);
#576=AXIS2_PLACEMENT_3D('',#865,#701,#702);
#577=AXIS2_PLACEMENT_3D('',#867,#703,#704);
#578=AXIS2_PLACEMENT_3D('',#869,#706,#707);
#579=AXIS2_PLACEMENT_3D('',#871,#708,#709);
#580=AXIS2_PLACEMENT_3D('',#872,#710,#711);
#581=AXIS2_PLACEMENT_3D('',#874,#712,#713);
#582=AXIS2_PLACEMENT_3D('',#876,#715,#716);
#583=AXIS2_PLACEMENT_3D('',#877,#717,#718);
#584=AXIS2_PLACEMENT_3D('',#879,#719,#720);
#585=AXIS2_PLACEMENT_3D('',#881,#722,#723);
#586=AXIS2_PLACEMENT_3D('',#882,#724,#725);
#587=AXIS2_PLACEMENT_3D('',#884,#726,#727);
#588=AXIS2_PLACEMENT_3D('',#886,#729,#730);
#589=AXIS2_PLACEMENT_3D('',#887,#731,#732);
#590=AXIS2_PLACEMENT_3D('',#889,#733,#734);
#591=AXIS2_PLACEMENT_3D('',#891,#736,#737);
#592=AXIS2_PLACEMENT_3D('',#892,#738,#739);
#593=AXIS2_PLACEMENT_3D('',#894,#740,#741);
#594=AXIS2_PLACEMENT_3D('',#896,#743,#744);
#595=AXIS2_PLACEMENT_3D('',#897,#745,#746);
#596=AXIS2_PLACEMENT_3D('',#899,#747,#748);
#597=AXIS2_PLACEMENT_3D('',#901,#750,#751);
#598=AXIS2_PLACEMENT_3D('',#902,#752,#753);
#599=AXIS2_PLACEMENT_3D('',#904,#754,#755);
#600=AXIS2_PLACEMENT_3D('',#906,#757,#758);
#601=AXIS2_PLACEMENT_3D('',#907,#759,#760);
#602=AXIS2_PLACEMENT_3D('',#909,#761,#762);
#603=AXIS2_PLACEMENT_3D('',#911,#764,#765);
#604=AXIS2_PLACEMENT_3D('',#912,#766,#767);
#605=AXIS2_PLACEMENT_3D('',#914,#768,#769);
#606=AXIS2_PLACEMENT_3D('',#916,#771,#772);
#607=AXIS2_PLACEMENT_3D('',#918,#773,#774);
#608=AXIS2_PLACEMENT_3D('',#919,#775,#776);
#609=AXIS2_PLACEMENT_3D('',#921,#777,#778);
#610=AXIS2_PLACEMENT_3D('',#922,#779,#780);
#611=AXIS2_PLACEMENT_3D('',#924,#782,#783);
#612=AXIS2_PLACEMENT_3D('',#926,#784,#785);
#613=AXIS2_PLACEMENT_3D('',#928,#787,#788);
#614=DIRECTION('axis',(0.,0.,1.));
#615=DIRECTION('refdir',(1.,0.,0.));
#616=DIRECTION('center_axis',(0.,0.,-1.));
#617=DIRECTION('ref_axis',(-1.,0.,0.));
#618=DIRECTION('center_axis',(0.,0.,1.));
#619=DIRECTION('ref_axis',(1.,0.,0.));
#620=DIRECTION('',(0.,0.,-1.));
#621=DIRECTION('center_axis',(0.,0.,-1.));
#622=DIRECTION('ref_axis',(-1.,0.,0.));
#623=DIRECTION('center_axis',(0.,0.,1.));
#624=DIRECTION('ref_axis',(1.,0.,0.));
#625=DIRECTION('center_axis',(0.,0.,1.));
#626=DIRECTION('ref_axis',(1.,0.,0.));
#627=DIRECTION('center_axis',(0.,0.,1.));
#628=DIRECTION('ref_axis',(1.,0.,0.));
#629=DIRECTION('center_axis',(0.,0.,1.));
#630=DIRECTION('ref_axis',(0.707106781186546,-0.707106781186549,0.));
#631=DIRECTION('center_axis',(0.,0.,1.));
#632=DIRECTION('ref_axis',(0.707106781186556,0.707106781186539,0.));
#633=DIRECTION('center_axis',(0.,0.,1.));
#634=DIRECTION('ref_axis',(1.04744440165294E-14,1.,0.));
#635=DIRECTION('center_axis',(0.,0.,1.));
#636=DIRECTION('ref_axis',(-0.707106781186541,0.707106781186554,0.));
#637=DIRECTION('center_axis',(0.,0.,1.));
#638=DIRECTION('ref_axis',(-1.,0.,0.));
#639=DIRECTION('center_axis',(0.,0.,1.));
#640=DIRECTION('ref_axis',(-0.707106781186551,-0.707106781186544,0.));
#641=DIRECTION('center_axis',(0.,0.,1.));
#642=DIRECTION('ref_axis',(-3.49148133884313E-15,-1.,0.));
#643=DIRECTION('center_axis',(0.,0.,1.));
#644=DIRECTION('ref_axis',(1.,0.,0.));
#645=DIRECTION('center_axis',(0.,0.,-1.));
#646=DIRECTION('ref_axis',(-1.,0.,0.));
#647=DIRECTION('center_axis',(0.,0.,1.));
#648=DIRECTION('ref_axis',(1.,0.,0.));
#649=DIRECTION('',(0.,0.,-1.));
#650=DIRECTION('center_axis',(0.,0.,-1.));
#651=DIRECTION('ref_axis',(-1.,0.,0.));
#652=DIRECTION('center_axis',(0.,0.,-1.));
#653=DIRECTION('ref_axis',(-1.,0.,0.));
#654=DIRECTION('center_axis',(0.,0.,1.));
#655=DIRECTION('ref_axis',(1.,0.,0.));
#656=DIRECTION('',(0.,0.,-1.));
#657=DIRECTION('center_axis',(0.,0.,-1.));
#658=DIRECTION('ref_axis',(-1.,0.,0.));
#659=DIRECTION('center_axis',(0.,0.,-1.));
#660=DIRECTION('ref_axis',(-1.,0.,0.));
#661=DIRECTION('center_axis',(0.,0.,1.));
#662=DIRECTION('ref_axis',(1.,0.,0.));
#663=DIRECTION('',(0.,0.,-1.));
#664=DIRECTION('center_axis',(0.,0.,-1.));
#665=DIRECTION('ref_axis',(-1.,0.,0.));
#666=DIRECTION('center_axis',(0.,0.,-1.));
#667=DIRECTION('ref_axis',(-1.,0.,0.));
#668=DIRECTION('center_axis',(0.,0.,1.));
#669=DIRECTION('ref_axis',(1.,0.,0.));
#670=DIRECTION('',(0.,0.,-1.));
#671=DIRECTION('center_axis',(0.,0.,-1.));
#672=DIRECTION('ref_axis',(-1.,0.,0.));
#673=DIRECTION('center_axis',(0.,0.,-1.));
#674=DIRECTION('ref_axis',(-1.,0.,0.));
#675=DIRECTION('center_axis',(0.,0.,1.));
#676=DIRECTION('ref_axis',(1.,0.,0.));
#677=DIRECTION('',(0.,0.,-1.));
#678=DIRECTION('center_axis',(0.,0.,-1.));
#679=DIRECTION('ref_axis',(-1.,0.,0.));
#680=DIRECTION('center_axis',(0.,0.,-1.));
#681=DIRECTION('ref_axis',(-1.,0.,0.));
#682=DIRECTION('center_axis',(0.,0.,1.));
#683=DIRECTION('ref_axis',(1.,0.,0.));
#684=DIRECTION('',(0.,0.,-1.));
#685=DIRECTION('center_axis',(0.,0.,-1.));
#686=DIRECTION('ref_axis',(-1.,0.,0.));
#687=DIRECTION('center_axis',(0.,0.,-1.));
#688=DIRECTION('ref_axis',(-1.,0.,0.));
#689=DIRECTION('center_axis',(0.,0.,1.));
#690=DIRECTION('ref_axis',(1.,0.,0.));
#691=DIRECTION('',(0.,0.,-1.));
#692=DIRECTION('center_axis',(0.,0.,-1.));
#693=DIRECTION('ref_axis',(-1.,0.,0.));
#694=DIRECTION('center_axis',(0.,0.,-1.));
#695=DIRECTION('ref_axis',(-1.,0.,0.));
#696=DIRECTION('center_axis',(0.,0.,1.));
#697=DIRECTION('ref_axis',(1.,0.,0.));
#698=DIRECTION('',(0.,0.,-1.));
#699=DIRECTION('center_axis',(0.,0.,-1.));
#700=DIRECTION('ref_axis',(-1.,0.,0.));
#701=DIRECTION('center_axis',(0.,0.,-1.));
#702=DIRECTION('ref_axis',(-1.,0.,0.));
#703=DIRECTION('center_axis',(0.,0.,1.));
#704=DIRECTION('ref_axis',(1.,0.,0.));
#705=DIRECTION('',(0.,0.,1.));
#706=DIRECTION('center_axis',(0.,0.,1.));
#707=DIRECTION('ref_axis',(1.,0.,0.));
#708=DIRECTION('center_axis',(0.,0.,-1.));
#709=DIRECTION('ref_axis',(-1.,0.,0.));
#710=DIRECTION('center_axis',(0.,0.,1.));
#711=DIRECTION('ref_axis',(1.,0.,0.));
#712=DIRECTION('center_axis',(0.,0.,1.));
#713=DIRECTION('ref_axis',(1.,0.,0.));
#714=DIRECTION('',(0.,0.,1.));
#715=DIRECTION('center_axis',(0.,0.,1.));
#716=DIRECTION('ref_axis',(1.,0.,0.));
#717=DIRECTION('center_axis',(0.,0.,1.));
#718=DIRECTION('ref_axis',(1.,0.,0.));
#719=DIRECTION('center_axis',(0.,0.,1.));
#720=DIRECTION('ref_axis',(1.04744440165294E-14,1.,0.));
#721=DIRECTION('',(0.,0.,1.));
#722=DIRECTION('center_axis',(0.,0.,1.));
#723=DIRECTION('ref_axis',(1.,0.,0.));
#724=DIRECTION('center_axis',(0.,0.,1.));
#725=DIRECTION('ref_axis',(1.,0.,0.));
#726=DIRECTION('center_axis',(0.,0.,1.));
#727=DIRECTION('ref_axis',(0.707106781186556,0.707106781186539,0.));
#728=DIRECTION('',(0.,0.,1.));
#729=DIRECTION('center_axis',(0.,0.,1.));
#730=DIRECTION('ref_axis',(1.,0.,0.));
#731=DIRECTION('center_axis',(0.,0.,1.));
#732=DIRECTION('ref_axis',(1.,0.,0.));
#733=DIRECTION('center_axis',(0.,0.,1.));
#734=DIRECTION('ref_axis',(0.707106781186546,-0.707106781186549,0.));
#735=DIRECTION('',(0.,0.,1.));
#736=DIRECTION('center_axis',(0.,0.,1.));
#737=DIRECTION('ref_axis',(1.,0.,0.));
#738=DIRECTION('center_axis',(0.,0.,1.));
#739=DIRECTION('ref_axis',(1.,0.,0.));
#740=DIRECTION('center_axis',(0.,0.,1.));
#741=DIRECTION('ref_axis',(-3.49148133884313E-15,-1.,0.));
#742=DIRECTION('',(0.,0.,1.));
#743=DIRECTION('center_axis',(0.,0.,1.));
#744=DIRECTION('ref_axis',(1.,0.,0.));
#745=DIRECTION('center_axis',(0.,0.,1.));
#746=DIRECTION('ref_axis',(1.,0.,0.));
#747=DIRECTION('center_axis',(0.,0.,1.));
#748=DIRECTION('ref_axis',(-0.707106781186551,-0.707106781186544,0.));
#749=DIRECTION('',(0.,0.,1.));
#750=DIRECTION('center_axis',(0.,0.,1.));
#751=DIRECTION('ref_axis',(1.,0.,0.));
#752=DIRECTION('center_axis',(0.,0.,1.));
#753=DIRECTION('ref_axis',(1.,0.,0.));
#754=DIRECTION('center_axis',(0.,0.,1.));
#755=DIRECTION('ref_axis',(-0.707106781186541,0.707106781186554,0.));
#756=DIRECTION('',(0.,0.,1.));
#757=DIRECTION('center_axis',(0.,0.,1.));
#758=DIRECTION('ref_axis',(1.,0.,0.));
#759=DIRECTION('center_axis',(0.,0.,1.));
#760=DIRECTION('ref_axis',(1.,0.,0.));
#761=DIRECTION('center_axis',(0.,0.,1.));
#762=DIRECTION('ref_axis',(-1.,0.,0.));
#763=DIRECTION('',(0.,0.,1.));
#764=DIRECTION('center_axis',(0.,0.,1.));
#765=DIRECTION('ref_axis',(1.,0.,0.));
#766=DIRECTION('center_axis',(0.,0.,-1.));
#767=DIRECTION('ref_axis',(-1.,0.,0.));
#768=DIRECTION('center_axis',(0.,0.,-1.));
#769=DIRECTION('ref_axis',(-1.,0.,0.));
#770=DIRECTION('',(0.,0.,-1.));
#771=DIRECTION('center_axis',(0.,0.,-1.));
#772=DIRECTION('ref_axis',(-1.,0.,0.));
#773=DIRECTION('center_axis',(0.,0.,-1.));
#774=DIRECTION('ref_axis',(-1.,0.,0.));
#775=DIRECTION('center_axis',(0.,0.,1.));
#776=DIRECTION('ref_axis',(1.,0.,0.));
#777=DIRECTION('center_axis',(0.,0.,1.));
#778=DIRECTION('ref_axis',(1.,0.,0.));
#779=DIRECTION('center_axis',(0.,0.,-1.));
#780=DIRECTION('ref_axis',(-1.,0.,0.));
#781=DIRECTION('',(0.,0.,1.));
#782=DIRECTION('center_axis',(0.,0.,-1.));
#783=DIRECTION('ref_axis',(-1.,0.,0.));
#784=DIRECTION('center_axis',(0.,0.,-1.));
#785=DIRECTION('ref_axis',(-1.,0.,0.));
#786=DIRECTION('',(0.,0.,-1.));
#787=DIRECTION('center_axis',(0.,0.,-1.));
#788=DIRECTION('ref_axis',(-1.,0.,0.));
#789=CARTESIAN_POINT('',(0.,0.,0.));
#790=CARTESIAN_POINT('Origin',(0.,0.,30.));
#791=CARTESIAN_POINT('',(18.925,0.,55.));
#792=CARTESIAN_POINT('Origin',(0.,0.,55.));
#793=CARTESIAN_POINT('',(18.925,-2.31764406738637E-15,29.));
#794=CARTESIAN_POINT('',(18.925,-2.31764406738637E-15,30.));
#795=CARTESIAN_POINT('Origin',(0.,0.,29.));
#796=CARTESIAN_POINT('Origin',(0.,0.,30.));
#797=CARTESIAN_POINT('',(50.,0.,30.));
#798=CARTESIAN_POINT('Origin',(0.,0.,30.));
#799=CARTESIAN_POINT('',(-7.,-40.,30.));
#800=CARTESIAN_POINT('Origin',(0.,-40.,30.));
#801=CARTESIAN_POINT('',(-35.284271247462,-28.2842712474619,30.));
#802=CARTESIAN_POINT('Origin',(-28.284271247462,-28.2842712474619,30.));
#803=CARTESIAN_POINT('',(21.2842712474616,-28.2842712474622,30.));
#804=CARTESIAN_POINT('Origin',(28.2842712474616,-28.2842712474622,30.));
#805=CARTESIAN_POINT('',(33.,-4.19835013420579E-13,30.));
#806=CARTESIAN_POINT('Origin',(40.,-4.18977760661176E-13,30.));
#807=CARTESIAN_POINT('',(21.2842712474621,28.2842712474617,30.));
#808=CARTESIAN_POINT('Origin',(28.2842712474621,28.2842712474617,30.));
#809=CARTESIAN_POINT('',(-7.,40.,30.));
#810=CARTESIAN_POINT('Origin',(0.,40.,30.));
#811=CARTESIAN_POINT('',(-35.2842712474617,28.2842712474621,30.));
#812=CARTESIAN_POINT('Origin',(-28.2842712474618,28.2842712474621,30.));
#813=CARTESIAN_POINT('',(-47.,1.38802000794322E-13,30.));
#814=CARTESIAN_POINT('Origin',(-40.,1.39659253553725E-13,30.));
#815=CARTESIAN_POINT('',(25.,0.,30.));
#816=CARTESIAN_POINT('Origin',(0.,0.,30.));
#817=CARTESIAN_POINT('Origin',(0.,40.,30.));
#818=CARTESIAN_POINT('',(4.,40.,21.));
#819=CARTESIAN_POINT('Origin',(0.,40.,21.));
#820=CARTESIAN_POINT('',(4.,40.,3.));
#821=CARTESIAN_POINT('',(4.,40.,30.));
#822=CARTESIAN_POINT('Origin',(0.,40.,3.));
#823=CARTESIAN_POINT('Origin',(28.284271247462,28.2842712474619,30.));
#824=CARTESIAN_POINT('',(32.284271247462,28.2842712474619,21.));
#825=CARTESIAN_POINT('Origin',(28.284271247462,28.2842712474619,21.));
#826=CARTESIAN_POINT('',(32.284271247462,28.2842712474619,3.));
#827=CARTESIAN_POINT('',(32.284271247462,28.2842712474619,30.));
#828=CARTESIAN_POINT('Origin',(28.284271247462,28.2842712474619,3.));
#829=CARTESIAN_POINT('Origin',(-28.2842712474616,28.2842712474622,30.));
#830=CARTESIAN_POINT('',(-24.2842712474616,28.2842712474622,21.));
#831=CARTESIAN_POINT('Origin',(-28.2842712474616,28.2842712474622,21.));
#832=CARTESIAN_POINT('',(-24.2842712474616,28.2842712474622,3.));
#833=CARTESIAN_POINT('',(-24.2842712474616,28.2842712474622,30.));
#834=CARTESIAN_POINT('Origin',(-28.2842712474616,28.2842712474622,3.));
#835=CARTESIAN_POINT('Origin',(-40.,4.18977760661176E-13,30.));
#836=CARTESIAN_POINT('',(-36.,4.18977760661176E-13,21.));
#837=CARTESIAN_POINT('Origin',(-40.,4.18977760661176E-13,21.));
#838=CARTESIAN_POINT('',(-36.,4.18487901941517E-13,3.));
#839=CARTESIAN_POINT('',(-36.,4.18487901941517E-13,30.));
#840=CARTESIAN_POINT('Origin',(-40.,4.18977760661176E-13,3.));
#841=CARTESIAN_POINT('Origin',(-28.2842712474621,-28.2842712474617,30.));
#842=CARTESIAN_POINT('',(-24.2842712474621,-28.2842712474617,21.));
#843=CARTESIAN_POINT('Origin',(-28.2842712474621,-28.2842712474617,21.));
#844=CARTESIAN_POINT('',(-24.2842712474621,-28.2842712474617,3.));
#845=CARTESIAN_POINT('',(-24.2842712474621,-28.2842712474617,30.));
#846=CARTESIAN_POINT('Origin',(-28.2842712474621,-28.2842712474617,3.));
#847=CARTESIAN_POINT('Origin',(28.2842712474618,-28.2842712474621,30.));
#848=CARTESIAN_POINT('',(32.2842712474618,-28.2842712474621,21.));
#849=CARTESIAN_POINT('Origin',(28.2842712474618,-28.2842712474621,21.));
#850=CARTESIAN_POINT('',(32.2842712474618,-28.2842712474621,3.));
#851=CARTESIAN_POINT('',(32.2842712474618,-28.2842712474621,30.));
#852=CARTESIAN_POINT('Origin',(28.2842712474618,-28.2842712474621,3.));
#853=CARTESIAN_POINT('Origin',(40.,-1.39659253553725E-13,30.));
#854=CARTESIAN_POINT('',(44.,-1.39659253553725E-13,21.));
#855=CARTESIAN_POINT('Origin',(40.,-1.39659253553725E-13,21.));
#856=CARTESIAN_POINT('',(44.,-1.40149112273384E-13,3.));
#857=CARTESIAN_POINT('',(44.,-1.40149112273384E-13,30.));
#858=CARTESIAN_POINT('Origin',(40.,-1.39659253553725E-13,3.));
#859=CARTESIAN_POINT('Origin',(0.,-40.,30.));
#860=CARTESIAN_POINT('',(4.,-40.,21.));
#861=CARTESIAN_POINT('Origin',(0.,-40.,21.));
#862=CARTESIAN_POINT('',(4.,-40.,3.));
#863=CARTESIAN_POINT('',(4.,-40.,30.));
#864=CARTESIAN_POINT('Origin',(0.,-40.,3.));
#865=CARTESIAN_POINT('Origin',(0.,0.,30.));
#866=CARTESIAN_POINT('',(50.,0.,0.));
#867=CARTESIAN_POINT('Origin',(0.,0.,0.));
#868=CARTESIAN_POINT('',(50.,-6.12323399573677E-15,30.));
#869=CARTESIAN_POINT('Origin',(0.,0.,0.));
#870=CARTESIAN_POINT('',(47.5,-5.81707229594993E-15,0.));
#871=CARTESIAN_POINT('Origin',(0.,0.,0.));
#872=CARTESIAN_POINT('Origin',(0.,-40.,21.));
#873=CARTESIAN_POINT('',(-7.,-40.,21.));
#874=CARTESIAN_POINT('Origin',(0.,-40.,21.));
#875=CARTESIAN_POINT('',(-7.,-40.,21.));
#876=CARTESIAN_POINT('Origin',(0.,-40.,21.));
#877=CARTESIAN_POINT('Origin',(40.,-4.18977760661176E-13,21.));
#878=CARTESIAN_POINT('',(33.,-4.19835013420579E-13,21.));
#879=CARTESIAN_POINT('Origin',(40.,-4.18977760661176E-13,21.));
#880=CARTESIAN_POINT('',(33.,-4.19835013420579E-13,21.));
#881=CARTESIAN_POINT('Origin',(40.,-4.18977760661176E-13,21.));
#882=CARTESIAN_POINT('Origin',(28.2842712474616,-28.2842712474622,21.));
#883=CARTESIAN_POINT('',(21.2842712474616,-28.2842712474622,21.));
#884=CARTESIAN_POINT('Origin',(28.2842712474616,-28.2842712474622,21.));
#885=CARTESIAN_POINT('',(21.2842712474616,-28.2842712474622,21.));
#886=CARTESIAN_POINT('Origin',(28.2842712474616,-28.2842712474622,21.));
#887=CARTESIAN_POINT('Origin',(-28.284271247462,-28.2842712474619,21.));
#888=CARTESIAN_POINT('',(-35.284271247462,-28.2842712474619,21.));
#889=CARTESIAN_POINT('Origin',(-28.284271247462,-28.2842712474619,21.));
#890=CARTESIAN_POINT('',(-35.284271247462,-28.2842712474619,21.));
#891=CARTESIAN_POINT('Origin',(-28.284271247462,-28.2842712474619,21.));
#892=CARTESIAN_POINT('Origin',(-40.,1.39659253553725E-13,21.));
#893=CARTESIAN_POINT('',(-47.,1.38802000794322E-13,21.));
#894=CARTESIAN_POINT('Origin',(-40.,1.39659253553725E-13,21.));
#895=CARTESIAN_POINT('',(-47.,1.38802000794322E-13,21.));
#896=CARTESIAN_POINT('Origin',(-40.,1.39659253553725E-13,21.));
#897=CARTESIAN_POINT('Origin',(-28.2842712474618,28.2842712474621,21.));
#898=CARTESIAN_POINT('',(-35.2842712474617,28.2842712474621,21.));
#899=CARTESIAN_POINT('Origin',(-28.2842712474618,28.2842712474621,21.));
#900=CARTESIAN_POINT('',(-35.2842712474617,28.2842712474621,21.));
#901=CARTESIAN_POINT('Origin',(-28.2842712474618,28.2842712474621,21.));
#902=CARTESIAN_POINT('Origin',(28.2842712474621,28.2842712474617,21.));
#903=CARTESIAN_POINT('',(21.2842712474621,28.2842712474617,21.));
#904=CARTESIAN_POINT('Origin',(28.2842712474621,28.2842712474617,21.));
#905=CARTESIAN_POINT('',(21.2842712474621,28.2842712474617,21.));
#906=CARTESIAN_POINT('Origin',(28.2842712474621,28.2842712474617,21.));
#907=CARTESIAN_POINT('Origin',(0.,40.,21.));
#908=CARTESIAN_POINT('',(-7.,40.,21.));
#909=CARTESIAN_POINT('Origin',(0.,40.,21.));
#910=CARTESIAN_POINT('',(-7.,40.,21.));
#911=CARTESIAN_POINT('Origin',(0.,40.,21.));
#912=CARTESIAN_POINT('Origin',(0.,0.,3.));
#913=CARTESIAN_POINT('',(47.5,-5.81707229594993E-15,3.));
#914=CARTESIAN_POINT('Origin',(0.,0.,3.));
#915=CARTESIAN_POINT('',(47.5,-5.81707229594993E-15,3.));
#916=CARTESIAN_POINT('Origin',(0.,0.,3.));
#917=CARTESIAN_POINT('',(20.,-2.44929359829471E-15,3.));
#918=CARTESIAN_POINT('Origin',(0.,0.,3.));
#919=CARTESIAN_POINT('Origin',(0.,0.,55.));
#920=CARTESIAN_POINT('',(25.,0.,55.));
#921=CARTESIAN_POINT('Origin',(0.,0.,55.));
#922=CARTESIAN_POINT('Origin',(0.,0.,55.));
#923=CARTESIAN_POINT('',(25.,-3.06161699786838E-15,55.));
#924=CARTESIAN_POINT('Origin',(0.,0.,29.));
#925=CARTESIAN_POINT('',(20.,-2.44929359829471E-15,29.));
#926=CARTESIAN_POINT('Origin',(0.,0.,29.));
#927=CARTESIAN_POINT('',(20.,-2.44929359829471E-15,29.));
#928=CARTESIAN_POINT('Origin',(0.,0.,29.));
#929=UNCERTAINTY_MEASURE_WITH_UNIT(LENGTH_MEASURE(0.01),#933,
'DISTANCE_ACCURACY_VALUE',
'Maximum model space distance between geometric entities at asserted c
onnectivities');
#930=UNCERTAINTY_MEASURE_WITH_UNIT(LENGTH_MEASURE(0.01),#933,
'DISTANCE_ACCURACY_VALUE',
'Maximum model space distance between geometric entities at asserted c
onnectivities');
#931=(
GEOMETRIC_REPRESENTATION_CONTEXT(3)
GLOBAL_UNCERTAINTY_ASSIGNED_CONTEXT((#929))
GLOBAL_UNIT_ASSIGNED_CONTEXT((#933,#935,#936))
REPRESENTATION_CONTEXT('','3D')
);
#932=(
GEOMETRIC_REPRESENTATION_CONTEXT(3)
GLOBAL_UNCERTAINTY_ASSIGNED_CONTEXT((#930))
GLOBAL_UNIT_ASSIGNED_CONTEXT((#933,#935,#936))
REPRESENTATION_CONTEXT('','3D')
);
#933=(
LENGTH_UNIT()
NAMED_UNIT(*)
SI_UNIT(.MILLI.,.METRE.)
);
#934=(
LENGTH_UNIT()
NAMED_UNIT(*)
SI_UNIT($,.METRE.)
);
#935=(
NAMED_UNIT(*)
PLANE_ANGLE_UNIT()
SI_UNIT($,.RADIAN.)
);
#936=(
NAMED_UNIT(*)
SI_UNIT($,.STERADIAN.)
SOLID_ANGLE_UNIT()
);
#937=SHAPE_DEFINITION_REPRESENTATION(#938,#939);
#938=PRODUCT_DEFINITION_SHAPE('',$,#941);
#939=SHAPE_REPRESENTATION('',(#537),#931);
#940=PRODUCT_DEFINITION_CONTEXT('part definition',#945,'design');
#941=PRODUCT_DEFINITION('BarrelFlange-100-55-40',
'BarrelFlange-100-55-40 v1',#942,#940);
#942=PRODUCT_DEFINITION_FORMATION('',$,#947);
#943=PRODUCT_RELATED_PRODUCT_CATEGORY('BarrelFlange-100-55-40 v1',
'BarrelFlange-100-55-40 v1',(#947));
#944=APPLICATION_PROTOCOL_DEFINITION('international standard',
'automotive_design',2009,#945);
#945=APPLICATION_CONTEXT(
'Core Data for Automotive Mechanical Design Process');
#946=PRODUCT_CONTEXT('part definition',#945,'mechanical');
#947=PRODUCT('BarrelFlange-100-55-40','BarrelFlange-100-55-40 v1',$,(#946));
#948=PRESENTATION_STYLE_ASSIGNMENT((#950));
#949=PRESENTATION_STYLE_ASSIGNMENT((#951));
#950=SURFACE_STYLE_USAGE(.BOTH.,#952);
#951=SURFACE_STYLE_USAGE(.BOTH.,#953);
#952=SURFACE_SIDE_STYLE('',(#954));
#953=SURFACE_SIDE_STYLE('',(#955));
#954=SURFACE_STYLE_FILL_AREA(#956);
#955=SURFACE_STYLE_FILL_AREA(#957);
#956=FILL_AREA_STYLE('Steel - Satin',(#958));
#957=FILL_AREA_STYLE('Opaque(165,158,150)',(#959));
#958=FILL_AREA_STYLE_COLOUR('Steel - Satin',#960);
#959=FILL_AREA_STYLE_COLOUR('Opaque(165,158,150)',#961);
#960=COLOUR_RGB('Steel - Satin',0.627450980392157,0.627450980392157,0.627450980392157);
#961=COLOUR_RGB('Opaque(165,158,150)',0.647058823529412,0.619607843137255,
0.588235294117647);
ENDSEC;
END-ISO-10303-21;
