ISO-10303-21;
HEADER;
/* Generated by software containing ST-Developer
 * from STEP Tools, Inc. (www.steptools.com) 
 */

FILE_DESCRIPTION(
/* description */ (''),
/* implementation_level */ '2;1');

FILE_NAME(
/* name */ 'shat from morot to coupler v1.step',
/* time_stamp */ '2026-03-14T10:15:05+01:00',
/* author */ (''),
/* organization */ (''),
/* preprocessor_version */ 'ST-DEVELOPER v20.1',
/* originating_system */ 'Autodesk Translation Framework v14.24.0.0',
/* authorisation */ '');

FILE_SCHEMA (('AUTOMOTIVE_DESIGN { 1 0 10303 214 3 1 1 }'));
ENDSEC;

DATA;
#10=MECHANICAL_DESIGN_GEOMETRIC_PRESENTATION_REPRESENTATION('',(#13),#495);
#11=SHAPE_REPRESENTATION_RELATIONSHIP('SRR','None',#502,#12);
#12=ADVANCED_BREP_SHAPE_REPRESENTATION('',(#14),#494);
#13=STYLED_ITEM('',(#511),#14);
#14=MANIFOLD_SOLID_BREP('Body1',#267);
#15=FACE_BOUND('',#55,.T.);
#16=PLANE('',#283);
#17=PLANE('',#286);
#18=PLANE('',#289);
#19=PLANE('',#291);
#20=PLANE('',#293);
#21=PLANE('',#298);
#22=PLANE('',#299);
#23=PLANE('',#300);
#24=PLANE('',#305);
#25=FACE_OUTER_BOUND('',#40,.T.);
#26=FACE_OUTER_BOUND('',#41,.T.);
#27=FACE_OUTER_BOUND('',#42,.T.);
#28=FACE_OUTER_BOUND('',#43,.T.);
#29=FACE_OUTER_BOUND('',#44,.T.);
#30=FACE_OUTER_BOUND('',#45,.T.);
#31=FACE_OUTER_BOUND('',#46,.T.);
#32=FACE_OUTER_BOUND('',#47,.T.);
#33=FACE_OUTER_BOUND('',#48,.T.);
#34=FACE_OUTER_BOUND('',#49,.T.);
#35=FACE_OUTER_BOUND('',#50,.T.);
#36=FACE_OUTER_BOUND('',#51,.T.);
#37=FACE_OUTER_BOUND('',#52,.T.);
#38=FACE_OUTER_BOUND('',#53,.T.);
#39=FACE_OUTER_BOUND('',#54,.T.);
#40=EDGE_LOOP('',(#174,#175,#176,#177));
#41=EDGE_LOOP('',(#178,#179,#180,#181,#182));
#42=EDGE_LOOP('',(#183,#184,#185,#186));
#43=EDGE_LOOP('',(#187,#188,#189,#190));
#44=EDGE_LOOP('',(#191,#192,#193,#194));
#45=EDGE_LOOP('',(#195,#196,#197,#198,#199));
#46=EDGE_LOOP('',(#200,#201,#202,#203));
#47=EDGE_LOOP('',(#204,#205,#206,#207));
#48=EDGE_LOOP('',(#208,#209,#210,#211));
#49=EDGE_LOOP('',(#212,#213,#214,#215,#216,#217,#218,#219,#220));
#50=EDGE_LOOP('',(#221,#222,#223,#224,#225));
#51=EDGE_LOOP('',(#226,#227,#228,#229));
#52=EDGE_LOOP('',(#230,#231,#232,#233,#234));
#53=EDGE_LOOP('',(#235,#236,#237,#238,#239,#240,#241,#242,#243));
#54=EDGE_LOOP('',(#244));
#55=EDGE_LOOP('',(#245));
#56=B_SPLINE_CURVE_WITH_KNOTS('',3,(#388,#389,#390,#391,#392,#393,#394,
#395,#396,#397),.UNSPECIFIED.,.F.,.F.,(4,2,2,2,4),(0.,0.151608515666072,
0.303217031332144,0.454788697637149,0.606360363942154),.UNSPECIFIED.);
#57=B_SPLINE_CURVE_WITH_KNOTS('',3,(#409,#410,#411,#412,#413,#414,#415,
#416,#417,#418),.UNSPECIFIED.,.F.,.F.,(4,2,2,2,4),(-0.606360352021225,-0.45478868869609,
-0.303217025370955,-0.151608512685478,0.),.UNSPECIFIED.);
#58=B_SPLINE_CURVE_WITH_KNOTS('',3,(#431,#432,#433,#434,#435,#436,#437,
#438,#439,#440),.UNSPECIFIED.,.F.,.F.,(4,2,2,2,4),(-0.378112819338159,-0.283589080932104,
-0.189065342526049,-0.0945326712630246,0.),.UNSPECIFIED.);
#59=B_SPLINE_CURVE_WITH_KNOTS('',3,(#457,#458,#459,#460,#461,#462,#463,
#464,#465,#466),.UNSPECIFIED.,.F.,.F.,(4,2,2,2,4),(0.,0.0945326703352132,
0.189065340670426,0.283589078173941,0.378112815677455),.UNSPECIFIED.);
#60=LINE('',#386,#82);
#61=LINE('',#398,#83);
#62=LINE('',#403,#84);
#63=LINE('',#405,#85);
#64=LINE('',#406,#86);
#65=LINE('',#419,#87);
#66=LINE('',#422,#88);
#67=LINE('',#423,#89);
#68=LINE('',#429,#90);
#69=LINE('',#441,#91);
#70=LINE('',#444,#92);
#71=LINE('',#446,#93);
#72=LINE('',#448,#94);
#73=LINE('',#452,#95);
#74=LINE('',#453,#96);
#75=LINE('',#456,#97);
#76=LINE('',#469,#98);
#77=LINE('',#470,#99);
#78=LINE('',#475,#100);
#79=LINE('',#481,#101);
#80=LINE('',#482,#102);
#81=LINE('',#490,#103);
#82=VECTOR('',#312,10.);
#83=VECTOR('',#313,10.);
#84=VECTOR('',#318,10.);
#85=VECTOR('',#319,10.);
#86=VECTOR('',#320,10.);
#87=VECTOR('',#323,10.);
#88=VECTOR('',#326,10.);
#89=VECTOR('',#327,10.);
#90=VECTOR('',#332,10.);
#91=VECTOR('',#333,10.);
#92=VECTOR('',#336,10.);
#93=VECTOR('',#337,10.);
#94=VECTOR('',#338,10.);
#95=VECTOR('',#343,10.);
#96=VECTOR('',#344,10.);
#97=VECTOR('',#347,10.);
#98=VECTOR('',#350,10.);
#99=VECTOR('',#351,10.);
#100=VECTOR('',#356,11.);
#101=VECTOR('',#365,10.);
#102=VECTOR('',#366,10.);
#103=VECTOR('',#377,14.);
#104=CIRCLE('',#282,4.);
#105=CIRCLE('',#284,4.);
#106=CIRCLE('',#288,2.5);
#107=CIRCLE('',#290,2.5);
#108=CIRCLE('',#295,11.);
#109=CIRCLE('',#296,11.);
#110=CIRCLE('',#297,11.);
#111=CIRCLE('',#301,14.);
#112=CIRCLE('',#302,14.);
#113=CIRCLE('',#304,14.);
#114=VERTEX_POINT('',#382);
#115=VERTEX_POINT('',#383);
#116=VERTEX_POINT('',#385);
#117=VERTEX_POINT('',#387);
#118=VERTEX_POINT('',#400);
#119=VERTEX_POINT('',#402);
#120=VERTEX_POINT('',#404);
#121=VERTEX_POINT('',#408);
#122=VERTEX_POINT('',#421);
#123=VERTEX_POINT('',#425);
#124=VERTEX_POINT('',#426);
#125=VERTEX_POINT('',#428);
#126=VERTEX_POINT('',#430);
#127=VERTEX_POINT('',#443);
#128=VERTEX_POINT('',#445);
#129=VERTEX_POINT('',#447);
#130=VERTEX_POINT('',#451);
#131=VERTEX_POINT('',#455);
#132=VERTEX_POINT('',#468);
#133=VERTEX_POINT('',#472);
#134=VERTEX_POINT('',#474);
#135=VERTEX_POINT('',#480);
#136=VERTEX_POINT('',#484);
#137=VERTEX_POINT('',#488);
#138=EDGE_CURVE('',#114,#115,#104,.T.);
#139=EDGE_CURVE('',#114,#116,#60,.T.);
#140=EDGE_CURVE('',#116,#117,#56,.T.);
#141=EDGE_CURVE('',#115,#117,#61,.T.);
#142=EDGE_CURVE('',#115,#118,#105,.T.);
#143=EDGE_CURVE('',#118,#119,#62,.T.);
#144=EDGE_CURVE('',#120,#119,#63,.T.);
#145=EDGE_CURVE('',#114,#120,#64,.T.);
#146=EDGE_CURVE('',#117,#121,#57,.T.);
#147=EDGE_CURVE('',#121,#118,#65,.T.);
#148=EDGE_CURVE('',#122,#121,#66,.T.);
#149=EDGE_CURVE('',#119,#122,#67,.T.);
#150=EDGE_CURVE('',#123,#124,#106,.T.);
#151=EDGE_CURVE('',#125,#123,#68,.T.);
#152=EDGE_CURVE('',#125,#126,#58,.T.);
#153=EDGE_CURVE('',#126,#124,#69,.T.);
#154=EDGE_CURVE('',#127,#124,#70,.T.);
#155=EDGE_CURVE('',#128,#127,#71,.T.);
#156=EDGE_CURVE('',#128,#129,#72,.T.);
#157=EDGE_CURVE('',#129,#123,#107,.T.);
#158=EDGE_CURVE('',#130,#126,#73,.T.);
#159=EDGE_CURVE('',#127,#130,#74,.T.);
#160=EDGE_CURVE('',#129,#131,#75,.T.);
#161=EDGE_CURVE('',#131,#125,#59,.T.);
#162=EDGE_CURVE('',#132,#128,#76,.T.);
#163=EDGE_CURVE('',#131,#132,#77,.T.);
#164=EDGE_CURVE('',#133,#132,#108,.T.);
#165=EDGE_CURVE('',#133,#134,#78,.T.);
#166=EDGE_CURVE('',#134,#134,#109,.T.);
#167=EDGE_CURVE('',#130,#133,#110,.T.);
#168=EDGE_CURVE('',#135,#120,#79,.T.);
#169=EDGE_CURVE('',#116,#135,#80,.T.);
#170=EDGE_CURVE('',#136,#122,#111,.T.);
#171=EDGE_CURVE('',#135,#136,#112,.T.);
#172=EDGE_CURVE('',#137,#137,#113,.T.);
#173=EDGE_CURVE('',#137,#136,#81,.T.);
#174=ORIENTED_EDGE('',*,*,#138,.F.);
#175=ORIENTED_EDGE('',*,*,#139,.T.);
#176=ORIENTED_EDGE('',*,*,#140,.T.);
#177=ORIENTED_EDGE('',*,*,#141,.F.);
#178=ORIENTED_EDGE('',*,*,#138,.T.);
#179=ORIENTED_EDGE('',*,*,#142,.T.);
#180=ORIENTED_EDGE('',*,*,#143,.T.);
#181=ORIENTED_EDGE('',*,*,#144,.F.);
#182=ORIENTED_EDGE('',*,*,#145,.F.);
#183=ORIENTED_EDGE('',*,*,#142,.F.);
#184=ORIENTED_EDGE('',*,*,#141,.T.);
#185=ORIENTED_EDGE('',*,*,#146,.T.);
#186=ORIENTED_EDGE('',*,*,#147,.T.);
#187=ORIENTED_EDGE('',*,*,#147,.F.);
#188=ORIENTED_EDGE('',*,*,#148,.F.);
#189=ORIENTED_EDGE('',*,*,#149,.F.);
#190=ORIENTED_EDGE('',*,*,#143,.F.);
#191=ORIENTED_EDGE('',*,*,#150,.F.);
#192=ORIENTED_EDGE('',*,*,#151,.F.);
#193=ORIENTED_EDGE('',*,*,#152,.T.);
#194=ORIENTED_EDGE('',*,*,#153,.T.);
#195=ORIENTED_EDGE('',*,*,#150,.T.);
#196=ORIENTED_EDGE('',*,*,#154,.F.);
#197=ORIENTED_EDGE('',*,*,#155,.F.);
#198=ORIENTED_EDGE('',*,*,#156,.T.);
#199=ORIENTED_EDGE('',*,*,#157,.T.);
#200=ORIENTED_EDGE('',*,*,#153,.F.);
#201=ORIENTED_EDGE('',*,*,#158,.F.);
#202=ORIENTED_EDGE('',*,*,#159,.F.);
#203=ORIENTED_EDGE('',*,*,#154,.T.);
#204=ORIENTED_EDGE('',*,*,#157,.F.);
#205=ORIENTED_EDGE('',*,*,#160,.T.);
#206=ORIENTED_EDGE('',*,*,#161,.T.);
#207=ORIENTED_EDGE('',*,*,#151,.T.);
#208=ORIENTED_EDGE('',*,*,#160,.F.);
#209=ORIENTED_EDGE('',*,*,#156,.F.);
#210=ORIENTED_EDGE('',*,*,#162,.F.);
#211=ORIENTED_EDGE('',*,*,#163,.F.);
#212=ORIENTED_EDGE('',*,*,#158,.T.);
#213=ORIENTED_EDGE('',*,*,#152,.F.);
#214=ORIENTED_EDGE('',*,*,#161,.F.);
#215=ORIENTED_EDGE('',*,*,#163,.T.);
#216=ORIENTED_EDGE('',*,*,#164,.F.);
#217=ORIENTED_EDGE('',*,*,#165,.T.);
#218=ORIENTED_EDGE('',*,*,#166,.F.);
#219=ORIENTED_EDGE('',*,*,#165,.F.);
#220=ORIENTED_EDGE('',*,*,#167,.F.);
#221=ORIENTED_EDGE('',*,*,#159,.T.);
#222=ORIENTED_EDGE('',*,*,#167,.T.);
#223=ORIENTED_EDGE('',*,*,#164,.T.);
#224=ORIENTED_EDGE('',*,*,#162,.T.);
#225=ORIENTED_EDGE('',*,*,#155,.T.);
#226=ORIENTED_EDGE('',*,*,#139,.F.);
#227=ORIENTED_EDGE('',*,*,#145,.T.);
#228=ORIENTED_EDGE('',*,*,#168,.F.);
#229=ORIENTED_EDGE('',*,*,#169,.F.);
#230=ORIENTED_EDGE('',*,*,#168,.T.);
#231=ORIENTED_EDGE('',*,*,#144,.T.);
#232=ORIENTED_EDGE('',*,*,#149,.T.);
#233=ORIENTED_EDGE('',*,*,#170,.F.);
#234=ORIENTED_EDGE('',*,*,#171,.F.);
#235=ORIENTED_EDGE('',*,*,#172,.F.);
#236=ORIENTED_EDGE('',*,*,#173,.T.);
#237=ORIENTED_EDGE('',*,*,#170,.T.);
#238=ORIENTED_EDGE('',*,*,#148,.T.);
#239=ORIENTED_EDGE('',*,*,#146,.F.);
#240=ORIENTED_EDGE('',*,*,#140,.F.);
#241=ORIENTED_EDGE('',*,*,#169,.T.);
#242=ORIENTED_EDGE('',*,*,#171,.T.);
#243=ORIENTED_EDGE('',*,*,#173,.F.);
#244=ORIENTED_EDGE('',*,*,#172,.T.);
#245=ORIENTED_EDGE('',*,*,#166,.T.);
#246=CYLINDRICAL_SURFACE('',#281,4.);
#247=CYLINDRICAL_SURFACE('',#285,4.);
#248=CYLINDRICAL_SURFACE('',#287,2.5);
#249=CYLINDRICAL_SURFACE('',#292,2.5);
#250=CYLINDRICAL_SURFACE('',#294,11.);
#251=CYLINDRICAL_SURFACE('',#303,14.);
#252=ADVANCED_FACE('',(#25),#246,.F.);
#253=ADVANCED_FACE('',(#26),#16,.F.);
#254=ADVANCED_FACE('',(#27),#247,.F.);
#255=ADVANCED_FACE('',(#28),#17,.F.);
#256=ADVANCED_FACE('',(#29),#248,.F.);
#257=ADVANCED_FACE('',(#30),#18,.F.);
#258=ADVANCED_FACE('',(#31),#19,.F.);
#259=ADVANCED_FACE('',(#32),#249,.F.);
#260=ADVANCED_FACE('',(#33),#20,.F.);
#261=ADVANCED_FACE('',(#34),#250,.T.);
#262=ADVANCED_FACE('',(#35),#21,.T.);
#263=ADVANCED_FACE('',(#36),#22,.F.);
#264=ADVANCED_FACE('',(#37),#23,.F.);
#265=ADVANCED_FACE('',(#38),#251,.T.);
#266=ADVANCED_FACE('',(#39,#15),#24,.T.);
#267=CLOSED_SHELL('',(#252,#253,#254,#255,#256,#257,#258,#259,#260,#261,
#262,#263,#264,#265,#266));
#268=DERIVED_UNIT_ELEMENT(#270,1.);
#269=DERIVED_UNIT_ELEMENT(#497,-3.);
#270=(
MASS_UNIT()
NAMED_UNIT(*)
SI_UNIT(.KILO.,.GRAM.)
);
#271=DERIVED_UNIT((#268,#269));
#272=MEASURE_REPRESENTATION_ITEM('density measure',
POSITIVE_RATIO_MEASURE(7850.),#271);
#273=PROPERTY_DEFINITION_REPRESENTATION(#278,#275);
#274=PROPERTY_DEFINITION_REPRESENTATION(#279,#276);
#275=REPRESENTATION('material name',(#277),#494);
#276=REPRESENTATION('density',(#272),#494);
#277=DESCRIPTIVE_REPRESENTATION_ITEM('Steel','Steel');
#278=PROPERTY_DEFINITION('material property','material name',#504);
#279=PROPERTY_DEFINITION('material property','density of part',#504);
#280=AXIS2_PLACEMENT_3D('',#380,#306,#307);
#281=AXIS2_PLACEMENT_3D('',#381,#308,#309);
#282=AXIS2_PLACEMENT_3D('',#384,#310,#311);
#283=AXIS2_PLACEMENT_3D('',#399,#314,#315);
#284=AXIS2_PLACEMENT_3D('',#401,#316,#317);
#285=AXIS2_PLACEMENT_3D('',#407,#321,#322);
#286=AXIS2_PLACEMENT_3D('',#420,#324,#325);
#287=AXIS2_PLACEMENT_3D('',#424,#328,#329);
#288=AXIS2_PLACEMENT_3D('',#427,#330,#331);
#289=AXIS2_PLACEMENT_3D('',#442,#334,#335);
#290=AXIS2_PLACEMENT_3D('',#449,#339,#340);
#291=AXIS2_PLACEMENT_3D('',#450,#341,#342);
#292=AXIS2_PLACEMENT_3D('',#454,#345,#346);
#293=AXIS2_PLACEMENT_3D('',#467,#348,#349);
#294=AXIS2_PLACEMENT_3D('',#471,#352,#353);
#295=AXIS2_PLACEMENT_3D('',#473,#354,#355);
#296=AXIS2_PLACEMENT_3D('',#476,#357,#358);
#297=AXIS2_PLACEMENT_3D('',#477,#359,#360);
#298=AXIS2_PLACEMENT_3D('',#478,#361,#362);
#299=AXIS2_PLACEMENT_3D('',#479,#363,#364);
#300=AXIS2_PLACEMENT_3D('',#483,#367,#368);
#301=AXIS2_PLACEMENT_3D('',#485,#369,#370);
#302=AXIS2_PLACEMENT_3D('',#486,#371,#372);
#303=AXIS2_PLACEMENT_3D('',#487,#373,#374);
#304=AXIS2_PLACEMENT_3D('',#489,#375,#376);
#305=AXIS2_PLACEMENT_3D('',#491,#378,#379);
#306=DIRECTION('axis',(0.,0.,1.));
#307=DIRECTION('refdir',(1.,0.,0.));
#308=DIRECTION('center_axis',(0.,1.,0.));
#309=DIRECTION('ref_axis',(-0.707106781186549,0.,0.707106781186546));
#310=DIRECTION('center_axis',(0.,1.,0.));
#311=DIRECTION('ref_axis',(-0.707106781186549,0.,0.707106781186546));
#312=DIRECTION('',(0.,1.,0.));
#313=DIRECTION('',(0.,1.,0.));
#314=DIRECTION('center_axis',(0.,-1.,0.));
#315=DIRECTION('ref_axis',(-1.,0.,0.));
#316=DIRECTION('center_axis',(0.,1.,0.));
#317=DIRECTION('ref_axis',(0.707106781186549,0.,0.707106781186546));
#318=DIRECTION('',(0.,0.,-1.));
#319=DIRECTION('',(1.,0.,0.));
#320=DIRECTION('',(0.,0.,-1.));
#321=DIRECTION('center_axis',(0.,-1.,0.));
#322=DIRECTION('ref_axis',(0.707106781186549,0.,0.707106781186546));
#323=DIRECTION('',(0.,-1.,0.));
#324=DIRECTION('center_axis',(1.,0.,0.));
#325=DIRECTION('ref_axis',(0.,-1.,0.));
#326=DIRECTION('',(0.,0.,1.));
#327=DIRECTION('',(0.,1.,0.));
#328=DIRECTION('center_axis',(0.,1.,0.));
#329=DIRECTION('ref_axis',(-0.707106781186547,0.,-0.707106781186547));
#330=DIRECTION('center_axis',(0.,1.,0.));
#331=DIRECTION('ref_axis',(-0.707106781186547,0.,-0.707106781186547));
#332=DIRECTION('',(0.,-1.,0.));
#333=DIRECTION('',(0.,-1.,0.));
#334=DIRECTION('center_axis',(0.,-1.,0.));
#335=DIRECTION('ref_axis',(-1.,0.,0.));
#336=DIRECTION('',(0.,0.,-1.));
#337=DIRECTION('',(-1.,0.,0.));
#338=DIRECTION('',(0.,0.,-1.));
#339=DIRECTION('center_axis',(0.,1.,0.));
#340=DIRECTION('ref_axis',(0.707106781186547,0.,-0.707106781186547));
#341=DIRECTION('center_axis',(-1.,0.,0.));
#342=DIRECTION('ref_axis',(0.,1.,0.));
#343=DIRECTION('',(0.,0.,-1.));
#344=DIRECTION('',(0.,1.,0.));
#345=DIRECTION('center_axis',(0.,-1.,0.));
#346=DIRECTION('ref_axis',(0.707106781186547,0.,-0.707106781186547));
#347=DIRECTION('',(0.,1.,0.));
#348=DIRECTION('center_axis',(1.,0.,0.));
#349=DIRECTION('ref_axis',(0.,-1.,0.));
#350=DIRECTION('',(0.,-1.,0.));
#351=DIRECTION('',(0.,0.,1.));
#352=DIRECTION('center_axis',(0.,0.,1.));
#353=DIRECTION('ref_axis',(1.,0.,0.));
#354=DIRECTION('center_axis',(0.,0.,1.));
#355=DIRECTION('ref_axis',(1.,0.,0.));
#356=DIRECTION('',(0.,0.,-1.));
#357=DIRECTION('center_axis',(0.,0.,-1.));
#358=DIRECTION('ref_axis',(1.,0.,0.));
#359=DIRECTION('center_axis',(0.,0.,1.));
#360=DIRECTION('ref_axis',(1.,0.,0.));
#361=DIRECTION('center_axis',(0.,0.,1.));
#362=DIRECTION('ref_axis',(1.,0.,0.));
#363=DIRECTION('center_axis',(-1.,0.,0.));
#364=DIRECTION('ref_axis',(0.,1.,0.));
#365=DIRECTION('',(0.,-1.,0.));
#366=DIRECTION('',(0.,0.,-1.));
#367=DIRECTION('center_axis',(0.,0.,1.));
#368=DIRECTION('ref_axis',(1.,0.,0.));
#369=DIRECTION('center_axis',(0.,0.,1.));
#370=DIRECTION('ref_axis',(1.,0.,0.));
#371=DIRECTION('center_axis',(0.,0.,1.));
#372=DIRECTION('ref_axis',(1.,0.,0.));
#373=DIRECTION('center_axis',(0.,0.,1.));
#374=DIRECTION('ref_axis',(1.,0.,0.));
#375=DIRECTION('center_axis',(0.,0.,1.));
#376=DIRECTION('ref_axis',(1.,0.,0.));
#377=DIRECTION('',(0.,0.,-1.));
#378=DIRECTION('center_axis',(0.,0.,1.));
#379=DIRECTION('ref_axis',(1.,0.,0.));
#380=CARTESIAN_POINT('',(0.,0.,0.));
#381=CARTESIAN_POINT('Origin',(-5.9604644553346E-8,11.0000001117587,111.));
#382=CARTESIAN_POINT('',(-4.00000005960464,10.0000001490116,111.));
#383=CARTESIAN_POINT('',(5.9604644553346E-8,10.0000001490116,115.));
#384=CARTESIAN_POINT('Origin',(-5.9604644553346E-8,10.0000001490116,111.));
#385=CARTESIAN_POINT('',(-4.00000005960464,13.4164078472281,111.));
#386=CARTESIAN_POINT('',(-4.00000005960464,11.0000001117587,111.));
#387=CARTESIAN_POINT('',(5.9604644553346E-8,14.,115.));
#388=CARTESIAN_POINT('Ctrl Pts',(-4.00000005960464,13.4164078472281,111.));
#389=CARTESIAN_POINT('Ctrl Pts',(-4.00000005960464,13.4164078472281,111.505361708952));
#390=CARTESIAN_POINT('Ctrl Pts',(-3.8984243707865,13.4479459291807,112.042342123501));
#391=CARTESIAN_POINT('Ctrl Pts',(-3.48936978769307,13.5598399384529,113.02694105557));
#392=CARTESIAN_POINT('Ctrl Pts',(-3.18202994349727,13.6383665071909,113.474824365514));
#393=CARTESIAN_POINT('Ctrl Pts',(-2.47491037116675,13.7842341405235,114.181943938016));
#394=CARTESIAN_POINT('Ctrl Pts',(-2.02699186966709,13.8613373644151,114.489350480563));
#395=CARTESIAN_POINT('Ctrl Pts',(-1.0422659891353,13.9699338281873,114.89845412757));
#396=CARTESIAN_POINT('Ctrl Pts',(-0.505238937355094,13.999999997849,115.));
#397=CARTESIAN_POINT('Ctrl Pts',(-5.9604644553346E-8,14.,115.));
#398=CARTESIAN_POINT('',(5.9604644553346E-8,12.7082039608669,115.));
#399=CARTESIAN_POINT('Origin',(4.00000005960464,10.0000001490116,120.));
#400=CARTESIAN_POINT('',(4.00000005960464,10.0000001490116,111.));
#401=CARTESIAN_POINT('Origin',(5.9604644553346E-8,10.0000001490116,111.));
#402=CARTESIAN_POINT('',(4.00000005960464,10.0000001490116,0.));
#403=CARTESIAN_POINT('',(4.00000005960464,10.0000001490116,120.));
#404=CARTESIAN_POINT('',(-4.00000005960464,10.0000001490116,0.));
#405=CARTESIAN_POINT('',(2.00000002980232,10.0000001490116,0.));
#406=CARTESIAN_POINT('',(-4.00000005960464,10.0000001490116,120.));
#407=CARTESIAN_POINT('Origin',(5.9604644553346E-8,12.7082039608669,111.));
#408=CARTESIAN_POINT('',(4.00000005960464,13.4164078472281,111.));
#409=CARTESIAN_POINT('Ctrl Pts',(5.96046438941511E-8,14.,115.));
#410=CARTESIAN_POINT('Ctrl Pts',(0.505238937355093,13.999999997849,115.));
#411=CARTESIAN_POINT('Ctrl Pts',(1.0422659891353,13.9699338281873,114.89845412757));
#412=CARTESIAN_POINT('Ctrl Pts',(2.02699186966709,13.8613373644151,114.489350480563));
#413=CARTESIAN_POINT('Ctrl Pts',(2.47491037116675,13.7842341405235,114.181943938016));
#414=CARTESIAN_POINT('Ctrl Pts',(3.18202994349727,13.6383665071909,113.474824365514));
#415=CARTESIAN_POINT('Ctrl Pts',(3.48936978769307,13.5598399384529,113.02694105557));
#416=CARTESIAN_POINT('Ctrl Pts',(3.8984243707865,13.4479459291807,112.042342123501));
#417=CARTESIAN_POINT('Ctrl Pts',(4.00000005960464,13.4164078472281,111.505361708952));
#418=CARTESIAN_POINT('Ctrl Pts',(4.00000005960464,13.4164078472281,111.));
#419=CARTESIAN_POINT('',(4.00000005960464,12.7082039608669,111.));
#420=CARTESIAN_POINT('Origin',(4.00000005960464,13.4164078472281,120.));
#421=CARTESIAN_POINT('',(4.00000005960464,13.4164078472281,0.));
#422=CARTESIAN_POINT('',(4.00000005960464,13.4164078472281,0.));
#423=CARTESIAN_POINT('',(4.00000005960464,6.70820392361403,0.));
#424=CARTESIAN_POINT('Origin',(0.,8.75000008940697,127.5));
#425=CARTESIAN_POINT('',(3.72529029846191E-8,8.00000011920929,125.));
#426=CARTESIAN_POINT('',(-2.5,8.00000011920929,127.5));
#427=CARTESIAN_POINT('Origin',(0.,8.00000011920929,127.5));
#428=CARTESIAN_POINT('',(3.72529029846191E-8,11.,125.));
#429=CARTESIAN_POINT('',(3.72529029846191E-8,10.1060713468624,125.));
#430=CARTESIAN_POINT('',(-2.5,10.7121426428143,127.5));
#431=CARTESIAN_POINT('Ctrl Pts',(7.28583859910259E-16,11.,125.));
#432=CARTESIAN_POINT('Ctrl Pts',(-0.315079124915922,11.0000000010671,124.999999995305));
#433=CARTESIAN_POINT('Ctrl Pts',(-0.650417094321275,10.985100511421,125.063193421961));
#434=CARTESIAN_POINT('Ctrl Pts',(-1.26605051099158,10.9312667039225,125.318673630864));
#435=CARTESIAN_POINT('Ctrl Pts',(-1.54643448152987,10.8930632600009,125.510900575597));
#436=CARTESIAN_POINT('Ctrl Pts',(-1.98912034117301,10.8209840848888,125.95358643524));
#437=CARTESIAN_POINT('Ctrl Pts',(-2.18133093862546,10.782340342055,126.2339616119));
#438=CARTESIAN_POINT('Ctrl Pts',(-2.43679925399006,10.7274916778389,126.849564145108));
#439=CARTESIAN_POINT('Ctrl Pts',(-2.5,10.7121426428143,127.184891098894));
#440=CARTESIAN_POINT('Ctrl Pts',(-2.5,10.7121426428143,127.5));
#441=CARTESIAN_POINT('',(-2.5,8.75000008940697,127.5));
#442=CARTESIAN_POINT('Origin',(2.5000000372529,8.00000011920929,160.));
#443=CARTESIAN_POINT('',(-2.5,8.00000011920929,160.));
#444=CARTESIAN_POINT('',(-2.5,8.00000011920929,160.));
#445=CARTESIAN_POINT('',(2.5000000372529,8.00000011920929,160.));
#446=CARTESIAN_POINT('',(1.25000001862645,8.00000011920929,160.));
#447=CARTESIAN_POINT('',(2.5000000372529,8.00000011920929,127.5));
#448=CARTESIAN_POINT('',(2.5000000372529,8.00000011920929,160.));
#449=CARTESIAN_POINT('Origin',(3.72529029846191E-8,8.00000011920929,127.5));
#450=CARTESIAN_POINT('Origin',(-2.5,8.00000011920929,160.));
#451=CARTESIAN_POINT('',(-2.5,10.7121426428143,160.));
#452=CARTESIAN_POINT('',(-2.5,10.7121426428143,120.));
#453=CARTESIAN_POINT('',(-2.5,4.00000005960464,160.));
#454=CARTESIAN_POINT('Origin',(3.72529029846191E-8,10.1060713468624,127.5));
#455=CARTESIAN_POINT('',(2.5000000372529,10.7121426341202,127.5));
#456=CARTESIAN_POINT('',(2.5000000372529,10.1060713468624,127.5));
#457=CARTESIAN_POINT('Ctrl Pts',(2.5000000372529,10.7121426341202,127.5));
#458=CARTESIAN_POINT('Ctrl Pts',(2.5000000372529,10.7121426341202,127.184891098883));
#459=CARTESIAN_POINT('Ctrl Pts',(2.43679929123795,10.7274916693789,126.849564145105));
#460=CARTESIAN_POINT('Ctrl Pts',(2.18133097590442,10.7823403345143,126.233961611953));
#461=CARTESIAN_POINT('Ctrl Pts',(1.98912037848961,10.8209840780304,125.953586435338));
#462=CARTESIAN_POINT('Ctrl Pts',(1.54643451892992,10.8930632546937,125.51090057571));
#463=CARTESIAN_POINT('Ctrl Pts',(1.26605054840878,10.9312666995918,125.318673630956));
#464=CARTESIAN_POINT('Ctrl Pts',(0.6504171317144,10.98510050921,125.063193421995));
#465=CARTESIAN_POINT('Ctrl Pts',(0.315079162264617,10.9999999989329,125.));
#466=CARTESIAN_POINT('Ctrl Pts',(3.72529029499247E-8,11.,125.));
#467=CARTESIAN_POINT('Origin',(2.5000000372529,10.7121426341202,160.));
#468=CARTESIAN_POINT('',(2.5000000372529,10.7121426341202,160.));
#469=CARTESIAN_POINT('',(2.5000000372529,5.3560713170601,160.));
#470=CARTESIAN_POINT('',(2.5000000372529,10.7121426341202,120.));
#471=CARTESIAN_POINT('Origin',(0.,0.,120.));
#472=CARTESIAN_POINT('',(-11.,-1.34711147906209E-15,160.));
#473=CARTESIAN_POINT('Origin',(0.,0.,160.));
#474=CARTESIAN_POINT('',(-11.,-1.34711147906209E-15,120.));
#475=CARTESIAN_POINT('',(-11.,-1.34711147906209E-15,120.));
#476=CARTESIAN_POINT('Origin',(0.,0.,120.));
#477=CARTESIAN_POINT('Origin',(0.,0.,160.));
#478=CARTESIAN_POINT('Origin',(0.,0.,160.));
#479=CARTESIAN_POINT('Origin',(-4.00000005960464,10.0000001490116,120.));
#480=CARTESIAN_POINT('',(-4.00000005960464,13.4164078472281,0.));
#481=CARTESIAN_POINT('',(-4.00000005960464,5.00000007450581,0.));
#482=CARTESIAN_POINT('',(-4.00000005960464,13.4164078472281,0.));
#483=CARTESIAN_POINT('Origin',(0.,0.,0.));
#484=CARTESIAN_POINT('',(-14.,-1.71450551880629E-15,0.));
#485=CARTESIAN_POINT('Origin',(0.,0.,0.));
#486=CARTESIAN_POINT('Origin',(0.,0.,0.));
#487=CARTESIAN_POINT('Origin',(0.,0.,0.));
#488=CARTESIAN_POINT('',(-14.,-1.71450551880629E-15,120.));
#489=CARTESIAN_POINT('Origin',(0.,0.,120.));
#490=CARTESIAN_POINT('',(-14.,-1.71450551880629E-15,0.));
#491=CARTESIAN_POINT('Origin',(0.,0.,120.));
#492=UNCERTAINTY_MEASURE_WITH_UNIT(LENGTH_MEASURE(0.01),#496,
'DISTANCE_ACCURACY_VALUE',
'Maximum model space distance between geometric entities at asserted c
onnectivities');
#493=UNCERTAINTY_MEASURE_WITH_UNIT(LENGTH_MEASURE(0.01),#496,
'DISTANCE_ACCURACY_VALUE',
'Maximum model space distance between geometric entities at asserted c
onnectivities');
#494=(
GEOMETRIC_REPRESENTATION_CONTEXT(3)
GLOBAL_UNCERTAINTY_ASSIGNED_CONTEXT((#492))
GLOBAL_UNIT_ASSIGNED_CONTEXT((#496,#498,#499))
REPRESENTATION_CONTEXT('','3D')
);
#495=(
GEOMETRIC_REPRESENTATION_CONTEXT(3)
GLOBAL_UNCERTAINTY_ASSIGNED_CONTEXT((#493))
GLOBAL_UNIT_ASSIGNED_CONTEXT((#496,#498,#499))
REPRESENTATION_CONTEXT('','3D')
);
#496=(
LENGTH_UNIT()
NAMED_UNIT(*)
SI_UNIT(.MILLI.,.METRE.)
);
#497=(
LENGTH_UNIT()
NAMED_UNIT(*)
SI_UNIT($,.METRE.)
);
#498=(
NAMED_UNIT(*)
PLANE_ANGLE_UNIT()
SI_UNIT($,.RADIAN.)
);
#499=(
NAMED_UNIT(*)
SI_UNIT($,.STERADIAN.)
SOLID_ANGLE_UNIT()
);
#500=SHAPE_DEFINITION_REPRESENTATION(#501,#502);
#501=PRODUCT_DEFINITION_SHAPE('',$,#504);
#502=SHAPE_REPRESENTATION('',(#280),#494);
#503=PRODUCT_DEFINITION_CONTEXT('part definition',#508,'design');
#504=PRODUCT_DEFINITION('shat from morot to coupler',
'shat from morot to coupler v1',#505,#503);
#505=PRODUCT_DEFINITION_FORMATION('',$,#510);
#506=PRODUCT_RELATED_PRODUCT_CATEGORY('shat from morot to coupler v1',
'shat from morot to coupler v1',(#510));
#507=APPLICATION_PROTOCOL_DEFINITION('international standard',
'automotive_design',2009,#508);
#508=APPLICATION_CONTEXT(
'Core Data for Automotive Mechanical Design Process');
#509=PRODUCT_CONTEXT('part definition',#508,'mechanical');
#510=PRODUCT('shat from morot to coupler',
'shat from morot to coupler v1',$,(#509));
#511=PRESENTATION_STYLE_ASSIGNMENT((#512));
#512=SURFACE_STYLE_USAGE(.BOTH.,#513);
#513=SURFACE_SIDE_STYLE('',(#514));
#514=SURFACE_STYLE_FILL_AREA(#515);
#515=FILL_AREA_STYLE('Steel - Satin',(#516));
#516=FILL_AREA_STYLE_COLOUR('Steel - Satin',#517);
#517=COLOUR_RGB('Steel - Satin',0.627450980392157,0.627450980392157,0.627450980392157);
ENDSEC;
END-ISO-10303-21;
