ISO-10303-21;
HEADER;
/* Generated by software containing ST-Developer
 * from STEP Tools, Inc. (www.steptools.com) 
 */

FILE_DESCRIPTION(
/* description */ (''),
/* implementation_level */ '2;1');

FILE_NAME(
/* name */ 'feet v1.step',
/* time_stamp */ '2026-03-14T10:15:23+01:00',
/* author */ (''),
/* organization */ (''),
/* preprocessor_version */ 'ST-DEVELOPER v20.1',
/* originating_system */ 'Autodesk Translation Framework v14.24.0.0',
/* authorisation */ '');

FILE_SCHEMA (('AUTOMOTIVE_DESIGN { 1 0 10303 214 3 1 1 }'));
ENDSEC;

DATA;
#10=MECHANICAL_DESIGN_GEOMETRIC_PRESENTATION_REPRESENTATION('',(#14,#15),
#1051);
#11=SHAPE_REPRESENTATION_RELATIONSHIP('SRR','None',#1058,#12);
#12=ADVANCED_BREP_SHAPE_REPRESENTATION('',(#13),#1050);
#13=MANIFOLD_SOLID_BREP('Body1',#607);
#14=STYLED_ITEM('',(#1068),#606);
#15=STYLED_ITEM('',(#1067),#13);
#16=CYLINDRICAL_SURFACE('',#663,35.1540102457087);
#17=CYLINDRICAL_SURFACE('',#665,16.);
#18=CYLINDRICAL_SURFACE('',#670,16.);
#19=CYLINDRICAL_SURFACE('',#672,35.1540102457087);
#20=CYLINDRICAL_SURFACE('',#674,4.25);
#21=CYLINDRICAL_SURFACE('',#675,4.25);
#22=CYLINDRICAL_SURFACE('',#676,4.25);
#23=CYLINDRICAL_SURFACE('',#677,15.);
#24=CYLINDRICAL_SURFACE('',#679,15.);
#25=FACE_BOUND('',#114,.T.);
#26=FACE_BOUND('',#115,.T.);
#27=FACE_BOUND('',#117,.T.);
#28=FACE_BOUND('',#118,.T.);
#29=FACE_BOUND('',#119,.T.);
#30=FACE_BOUND('',#134,.T.);
#31=FACE_BOUND('',#135,.T.);
#32=FACE_BOUND('',#136,.T.);
#33=FACE_BOUND('',#147,.T.);
#34=FACE_BOUND('',#148,.T.);
#35=CIRCLE('',#623,16.);
#36=CIRCLE('',#624,18.);
#37=CIRCLE('',#627,16.);
#38=CIRCLE('',#628,18.);
#39=CIRCLE('',#632,35.1540102457087);
#40=CIRCLE('',#633,33.1540102457087);
#41=CIRCLE('',#635,35.1540102457087);
#42=CIRCLE('',#636,33.1540102457087);
#43=CIRCLE('',#639,15.);
#44=CIRCLE('',#640,15.);
#45=CIRCLE('',#642,4.25);
#46=CIRCLE('',#643,4.25);
#47=CIRCLE('',#644,4.25);
#48=CIRCLE('',#648,16.);
#49=CIRCLE('',#649,18.);
#50=CIRCLE('',#652,16.);
#51=CIRCLE('',#653,18.);
#52=CIRCLE('',#656,33.1540102457087);
#53=CIRCLE('',#657,35.1540102457087);
#54=CIRCLE('',#659,35.1540102457087);
#55=CIRCLE('',#660,33.1540102457087);
#56=CIRCLE('',#667,4.25);
#57=CIRCLE('',#668,4.25);
#58=CIRCLE('',#669,4.25);
#59=CIRCLE('',#678,15.);
#60=CIRCLE('',#680,15.);
#61=CONICAL_SURFACE('',#622,17.,0.785398163397447);
#62=CONICAL_SURFACE('',#626,17.,0.785398163397448);
#63=CONICAL_SURFACE('',#631,34.1540102457087,0.785398163397449);
#64=CONICAL_SURFACE('',#634,34.1540102457087,0.78539816339745);
#65=CONICAL_SURFACE('',#647,17.,0.785398163397448);
#66=CONICAL_SURFACE('',#651,17.,0.785398163397447);
#67=CONICAL_SURFACE('',#655,34.1540102457087,0.78539816339745);
#68=CONICAL_SURFACE('',#658,34.1540102457087,0.785398163397449);
#69=FACE_OUTER_BOUND('',#104,.T.);
#70=FACE_OUTER_BOUND('',#105,.T.);
#71=FACE_OUTER_BOUND('',#106,.T.);
#72=FACE_OUTER_BOUND('',#107,.T.);
#73=FACE_OUTER_BOUND('',#108,.T.);
#74=FACE_OUTER_BOUND('',#109,.T.);
#75=FACE_OUTER_BOUND('',#110,.T.);
#76=FACE_OUTER_BOUND('',#111,.T.);
#77=FACE_OUTER_BOUND('',#112,.T.);
#78=FACE_OUTER_BOUND('',#113,.T.);
#79=FACE_OUTER_BOUND('',#116,.T.);
#80=FACE_OUTER_BOUND('',#120,.T.);
#81=FACE_OUTER_BOUND('',#121,.T.);
#82=FACE_OUTER_BOUND('',#122,.T.);
#83=FACE_OUTER_BOUND('',#123,.T.);
#84=FACE_OUTER_BOUND('',#124,.T.);
#85=FACE_OUTER_BOUND('',#125,.T.);
#86=FACE_OUTER_BOUND('',#126,.T.);
#87=FACE_OUTER_BOUND('',#127,.T.);
#88=FACE_OUTER_BOUND('',#128,.T.);
#89=FACE_OUTER_BOUND('',#129,.T.);
#90=FACE_OUTER_BOUND('',#130,.T.);
#91=FACE_OUTER_BOUND('',#131,.T.);
#92=FACE_OUTER_BOUND('',#132,.T.);
#93=FACE_OUTER_BOUND('',#133,.T.);
#94=FACE_OUTER_BOUND('',#137,.T.);
#95=FACE_OUTER_BOUND('',#138,.T.);
#96=FACE_OUTER_BOUND('',#139,.T.);
#97=FACE_OUTER_BOUND('',#140,.T.);
#98=FACE_OUTER_BOUND('',#141,.T.);
#99=FACE_OUTER_BOUND('',#142,.T.);
#100=FACE_OUTER_BOUND('',#143,.T.);
#101=FACE_OUTER_BOUND('',#144,.T.);
#102=FACE_OUTER_BOUND('',#145,.T.);
#103=FACE_OUTER_BOUND('',#146,.T.);
#104=EDGE_LOOP('',(#388,#389,#390,#391));
#105=EDGE_LOOP('',(#392,#393,#394,#395));
#106=EDGE_LOOP('',(#396,#397,#398,#399));
#107=EDGE_LOOP('',(#400,#401,#402,#403));
#108=EDGE_LOOP('',(#404,#405,#406,#407));
#109=EDGE_LOOP('',(#408,#409,#410,#411));
#110=EDGE_LOOP('',(#412,#413,#414,#415));
#111=EDGE_LOOP('',(#416,#417,#418,#419));
#112=EDGE_LOOP('',(#420,#421,#422,#423));
#113=EDGE_LOOP('',(#424,#425,#426,#427,#428,#429,#430,#431,#432,#433));
#114=EDGE_LOOP('',(#434));
#115=EDGE_LOOP('',(#435));
#116=EDGE_LOOP('',(#436,#437,#438,#439,#440,#441,#442,#443));
#117=EDGE_LOOP('',(#444));
#118=EDGE_LOOP('',(#445));
#119=EDGE_LOOP('',(#446));
#120=EDGE_LOOP('',(#447,#448,#449,#450));
#121=EDGE_LOOP('',(#451,#452,#453,#454));
#122=EDGE_LOOP('',(#455,#456,#457,#458));
#123=EDGE_LOOP('',(#459,#460,#461,#462));
#124=EDGE_LOOP('',(#463,#464,#465,#466));
#125=EDGE_LOOP('',(#467,#468,#469,#470));
#126=EDGE_LOOP('',(#471,#472,#473,#474));
#127=EDGE_LOOP('',(#475,#476,#477,#478));
#128=EDGE_LOOP('',(#479,#480,#481,#482));
#129=EDGE_LOOP('',(#483,#484,#485,#486));
#130=EDGE_LOOP('',(#487,#488,#489,#490));
#131=EDGE_LOOP('',(#491,#492,#493,#494));
#132=EDGE_LOOP('',(#495,#496,#497,#498));
#133=EDGE_LOOP('',(#499,#500,#501,#502));
#134=EDGE_LOOP('',(#503));
#135=EDGE_LOOP('',(#504));
#136=EDGE_LOOP('',(#505));
#137=EDGE_LOOP('',(#506,#507,#508,#509));
#138=EDGE_LOOP('',(#510,#511,#512,#513));
#139=EDGE_LOOP('',(#514,#515,#516,#517));
#140=EDGE_LOOP('',(#518,#519,#520,#521));
#141=EDGE_LOOP('',(#522,#523,#524,#525));
#142=EDGE_LOOP('',(#526,#527,#528,#529));
#143=EDGE_LOOP('',(#530,#531,#532,#533));
#144=EDGE_LOOP('',(#534,#535,#536,#537));
#145=EDGE_LOOP('',(#538,#539,#540,#541));
#146=EDGE_LOOP('',(#542,#543,#544,#545,#546,#547,#548,#549,#550,#551));
#147=EDGE_LOOP('',(#552));
#148=EDGE_LOOP('',(#553));
#149=B_SPLINE_CURVE_WITH_KNOTS('',3,(#864,#865,#866,#867),.UNSPECIFIED.,
 .F.,.F.,(4,4),(0.,0.2829267194685),.UNSPECIFIED.);
#150=B_SPLINE_CURVE_WITH_KNOTS('',3,(#891,#892,#893,#894),.UNSPECIFIED.,
 .F.,.F.,(4,4),(0.,0.282926060149993),.UNSPECIFIED.);
#151=B_SPLINE_CURVE_WITH_KNOTS('',3,(#903,#904,#905,#906),.UNSPECIFIED.,
 .F.,.F.,(4,4),(0.,0.282926719585025),.UNSPECIFIED.);
#152=B_SPLINE_CURVE_WITH_KNOTS('',3,(#915,#916,#917,#918),.UNSPECIFIED.,
 .F.,.F.,(4,4),(0.,0.282926719480839),.UNSPECIFIED.);
#153=B_SPLINE_CURVE_WITH_KNOTS('',3,(#952,#953,#954,#955),.UNSPECIFIED.,
 .F.,.F.,(4,4),(0.,0.282926719476725),.UNSPECIFIED.);
#154=B_SPLINE_CURVE_WITH_KNOTS('',3,(#964,#965,#966,#967),.UNSPECIFIED.,
 .F.,.F.,(4,4),(0.,0.282926719435875),.UNSPECIFIED.);
#155=B_SPLINE_CURVE_WITH_KNOTS('',3,(#991,#992,#993,#994),.UNSPECIFIED.,
 .F.,.F.,(4,4),(0.,0.282926060087357),.UNSPECIFIED.);
#156=B_SPLINE_CURVE_WITH_KNOTS('',3,(#1003,#1004,#1005,#1006),
 .UNSPECIFIED.,.F.,.F.,(4,4),(0.,0.282926719306996),.UNSPECIFIED.);
#157=LINE('',#859,#206);
#158=LINE('',#861,#207);
#159=LINE('',#863,#208);
#160=LINE('',#872,#209);
#161=LINE('',#877,#210);
#162=LINE('',#878,#211);
#163=LINE('',#879,#212);
#164=LINE('',#884,#213);
#165=LINE('',#888,#214);
#166=LINE('',#890,#215);
#167=LINE('',#898,#216);
#168=LINE('',#900,#217);
#169=LINE('',#902,#218);
#170=LINE('',#921,#219);
#171=LINE('',#923,#220);
#172=LINE('',#924,#221);
#173=LINE('',#926,#222);
#174=LINE('',#933,#223);
#175=LINE('',#935,#224);
#176=LINE('',#937,#225);
#177=LINE('',#939,#226);
#178=LINE('',#940,#227);
#179=LINE('',#949,#228);
#180=LINE('',#951,#229);
#181=LINE('',#959,#230);
#182=LINE('',#961,#231);
#183=LINE('',#963,#232);
#184=LINE('',#972,#233);
#185=LINE('',#977,#234);
#186=LINE('',#978,#235);
#187=LINE('',#979,#236);
#188=LINE('',#984,#237);
#189=LINE('',#988,#238);
#190=LINE('',#990,#239);
#191=LINE('',#1008,#240);
#192=LINE('',#1009,#241);
#193=LINE('',#1011,#242);
#194=LINE('',#1013,#243);
#195=LINE('',#1015,#244);
#196=LINE('',#1017,#245);
#197=LINE('',#1019,#246);
#198=LINE('',#1027,#247);
#199=LINE('',#1029,#248);
#200=LINE('',#1031,#249);
#201=LINE('',#1034,#250);
#202=LINE('',#1036,#251);
#203=LINE('',#1038,#252);
#204=LINE('',#1042,#253);
#205=LINE('',#1046,#254);
#206=VECTOR('',#686,10.);
#207=VECTOR('',#687,10.);
#208=VECTOR('',#688,10.);
#209=VECTOR('',#693,10.);
#210=VECTOR('',#698,10.);
#211=VECTOR('',#699,10.);
#212=VECTOR('',#700,10.);
#213=VECTOR('',#705,10.);
#214=VECTOR('',#710,10.);
#215=VECTOR('',#711,10.);
#216=VECTOR('',#714,10.);
#217=VECTOR('',#715,10.);
#218=VECTOR('',#716,10.);
#219=VECTOR('',#731,10.);
#220=VECTOR('',#732,10.);
#221=VECTOR('',#733,10.);
#222=VECTOR('',#736,10.);
#223=VECTOR('',#743,10.);
#224=VECTOR('',#744,10.);
#225=VECTOR('',#745,10.);
#226=VECTOR('',#746,10.);
#227=VECTOR('',#747,10.);
#228=VECTOR('',#756,10.);
#229=VECTOR('',#757,10.);
#230=VECTOR('',#760,10.);
#231=VECTOR('',#761,10.);
#232=VECTOR('',#762,10.);
#233=VECTOR('',#767,10.);
#234=VECTOR('',#772,10.);
#235=VECTOR('',#773,10.);
#236=VECTOR('',#774,10.);
#237=VECTOR('',#779,10.);
#238=VECTOR('',#784,10.);
#239=VECTOR('',#785,10.);
#240=VECTOR('',#800,10.);
#241=VECTOR('',#801,10.);
#242=VECTOR('',#804,10.);
#243=VECTOR('',#807,10.);
#244=VECTOR('',#810,10.);
#245=VECTOR('',#813,10.);
#246=VECTOR('',#816,10.);
#247=VECTOR('',#825,10.);
#248=VECTOR('',#828,10.);
#249=VECTOR('',#831,10.);
#250=VECTOR('',#836,4.25);
#251=VECTOR('',#839,4.25);
#252=VECTOR('',#842,4.25);
#253=VECTOR('',#847,15.);
#254=VECTOR('',#852,15.);
#255=VERTEX_POINT('',#857);
#256=VERTEX_POINT('',#858);
#257=VERTEX_POINT('',#860);
#258=VERTEX_POINT('',#862);
#259=VERTEX_POINT('',#869);
#260=VERTEX_POINT('',#871);
#261=VERTEX_POINT('',#875);
#262=VERTEX_POINT('',#876);
#263=VERTEX_POINT('',#881);
#264=VERTEX_POINT('',#883);
#265=VERTEX_POINT('',#887);
#266=VERTEX_POINT('',#889);
#267=VERTEX_POINT('',#896);
#268=VERTEX_POINT('',#897);
#269=VERTEX_POINT('',#899);
#270=VERTEX_POINT('',#901);
#271=VERTEX_POINT('',#911);
#272=VERTEX_POINT('',#913);
#273=VERTEX_POINT('',#920);
#274=VERTEX_POINT('',#922);
#275=VERTEX_POINT('',#927);
#276=VERTEX_POINT('',#929);
#277=VERTEX_POINT('',#932);
#278=VERTEX_POINT('',#934);
#279=VERTEX_POINT('',#936);
#280=VERTEX_POINT('',#938);
#281=VERTEX_POINT('',#941);
#282=VERTEX_POINT('',#943);
#283=VERTEX_POINT('',#945);
#284=VERTEX_POINT('',#948);
#285=VERTEX_POINT('',#950);
#286=VERTEX_POINT('',#957);
#287=VERTEX_POINT('',#958);
#288=VERTEX_POINT('',#960);
#289=VERTEX_POINT('',#962);
#290=VERTEX_POINT('',#969);
#291=VERTEX_POINT('',#971);
#292=VERTEX_POINT('',#975);
#293=VERTEX_POINT('',#976);
#294=VERTEX_POINT('',#981);
#295=VERTEX_POINT('',#983);
#296=VERTEX_POINT('',#987);
#297=VERTEX_POINT('',#989);
#298=VERTEX_POINT('',#999);
#299=VERTEX_POINT('',#1001);
#300=VERTEX_POINT('',#1020);
#301=VERTEX_POINT('',#1022);
#302=VERTEX_POINT('',#1024);
#303=VERTEX_POINT('',#1040);
#304=VERTEX_POINT('',#1044);
#305=EDGE_CURVE('',#255,#256,#157,.T.);
#306=EDGE_CURVE('',#256,#257,#158,.T.);
#307=EDGE_CURVE('',#257,#258,#159,.T.);
#308=EDGE_CURVE('',#258,#255,#149,.T.);
#309=EDGE_CURVE('',#256,#259,#35,.T.);
#310=EDGE_CURVE('',#259,#260,#160,.T.);
#311=EDGE_CURVE('',#260,#257,#36,.T.);
#312=EDGE_CURVE('',#261,#262,#161,.T.);
#313=EDGE_CURVE('',#262,#260,#162,.T.);
#314=EDGE_CURVE('',#259,#261,#163,.T.);
#315=EDGE_CURVE('',#261,#263,#37,.T.);
#316=EDGE_CURVE('',#263,#264,#164,.T.);
#317=EDGE_CURVE('',#264,#262,#38,.T.);
#318=EDGE_CURVE('',#265,#264,#165,.T.);
#319=EDGE_CURVE('',#263,#266,#166,.T.);
#320=EDGE_CURVE('',#266,#265,#150,.T.);
#321=EDGE_CURVE('',#267,#268,#167,.T.);
#322=EDGE_CURVE('',#268,#269,#168,.T.);
#323=EDGE_CURVE('',#269,#270,#169,.T.);
#324=EDGE_CURVE('',#270,#267,#151,.T.);
#325=EDGE_CURVE('',#266,#267,#39,.T.);
#326=EDGE_CURVE('',#270,#265,#40,.T.);
#327=EDGE_CURVE('',#271,#255,#41,.T.);
#328=EDGE_CURVE('',#258,#272,#42,.T.);
#329=EDGE_CURVE('',#272,#271,#152,.T.);
#330=EDGE_CURVE('',#272,#273,#170,.T.);
#331=EDGE_CURVE('',#273,#274,#171,.T.);
#332=EDGE_CURVE('',#274,#271,#172,.T.);
#333=EDGE_CURVE('',#269,#273,#173,.T.);
#334=EDGE_CURVE('',#275,#275,#43,.T.);
#335=EDGE_CURVE('',#276,#276,#44,.T.);
#336=EDGE_CURVE('',#268,#277,#174,.T.);
#337=EDGE_CURVE('',#278,#277,#175,.T.);
#338=EDGE_CURVE('',#279,#278,#176,.T.);
#339=EDGE_CURVE('',#280,#279,#177,.T.);
#340=EDGE_CURVE('',#274,#280,#178,.T.);
#341=EDGE_CURVE('',#281,#281,#45,.T.);
#342=EDGE_CURVE('',#282,#282,#46,.T.);
#343=EDGE_CURVE('',#283,#283,#47,.T.);
#344=EDGE_CURVE('',#284,#280,#179,.T.);
#345=EDGE_CURVE('',#279,#285,#180,.T.);
#346=EDGE_CURVE('',#285,#284,#153,.T.);
#347=EDGE_CURVE('',#286,#287,#181,.T.);
#348=EDGE_CURVE('',#287,#288,#182,.T.);
#349=EDGE_CURVE('',#288,#289,#183,.T.);
#350=EDGE_CURVE('',#289,#286,#154,.T.);
#351=EDGE_CURVE('',#287,#290,#48,.T.);
#352=EDGE_CURVE('',#290,#291,#184,.T.);
#353=EDGE_CURVE('',#291,#288,#49,.T.);
#354=EDGE_CURVE('',#292,#293,#185,.T.);
#355=EDGE_CURVE('',#293,#291,#186,.T.);
#356=EDGE_CURVE('',#290,#292,#187,.T.);
#357=EDGE_CURVE('',#292,#294,#50,.T.);
#358=EDGE_CURVE('',#294,#295,#188,.T.);
#359=EDGE_CURVE('',#295,#293,#51,.T.);
#360=EDGE_CURVE('',#296,#295,#189,.T.);
#361=EDGE_CURVE('',#294,#297,#190,.T.);
#362=EDGE_CURVE('',#297,#296,#155,.T.);
#363=EDGE_CURVE('',#285,#296,#52,.T.);
#364=EDGE_CURVE('',#297,#284,#53,.T.);
#365=EDGE_CURVE('',#298,#286,#54,.T.);
#366=EDGE_CURVE('',#289,#299,#55,.T.);
#367=EDGE_CURVE('',#299,#298,#156,.T.);
#368=EDGE_CURVE('',#299,#278,#191,.T.);
#369=EDGE_CURVE('',#277,#298,#192,.T.);
#370=EDGE_CURVE('',#284,#271,#193,.T.);
#371=EDGE_CURVE('',#297,#255,#194,.T.);
#372=EDGE_CURVE('',#256,#294,#195,.T.);
#373=EDGE_CURVE('',#292,#259,#196,.T.);
#374=EDGE_CURVE('',#261,#290,#197,.T.);
#375=EDGE_CURVE('',#300,#300,#56,.T.);
#376=EDGE_CURVE('',#301,#301,#57,.T.);
#377=EDGE_CURVE('',#302,#302,#58,.T.);
#378=EDGE_CURVE('',#287,#263,#198,.T.);
#379=EDGE_CURVE('',#286,#266,#199,.T.);
#380=EDGE_CURVE('',#267,#298,#200,.T.);
#381=EDGE_CURVE('',#300,#283,#201,.T.);
#382=EDGE_CURVE('',#301,#282,#202,.T.);
#383=EDGE_CURVE('',#302,#281,#203,.T.);
#384=EDGE_CURVE('',#303,#303,#59,.T.);
#385=EDGE_CURVE('',#303,#275,#204,.T.);
#386=EDGE_CURVE('',#304,#304,#60,.T.);
#387=EDGE_CURVE('',#304,#276,#205,.T.);
#388=ORIENTED_EDGE('',*,*,#305,.T.);
#389=ORIENTED_EDGE('',*,*,#306,.T.);
#390=ORIENTED_EDGE('',*,*,#307,.T.);
#391=ORIENTED_EDGE('',*,*,#308,.T.);
#392=ORIENTED_EDGE('',*,*,#306,.F.);
#393=ORIENTED_EDGE('',*,*,#309,.T.);
#394=ORIENTED_EDGE('',*,*,#310,.T.);
#395=ORIENTED_EDGE('',*,*,#311,.T.);
#396=ORIENTED_EDGE('',*,*,#312,.T.);
#397=ORIENTED_EDGE('',*,*,#313,.T.);
#398=ORIENTED_EDGE('',*,*,#310,.F.);
#399=ORIENTED_EDGE('',*,*,#314,.T.);
#400=ORIENTED_EDGE('',*,*,#312,.F.);
#401=ORIENTED_EDGE('',*,*,#315,.T.);
#402=ORIENTED_EDGE('',*,*,#316,.T.);
#403=ORIENTED_EDGE('',*,*,#317,.T.);
#404=ORIENTED_EDGE('',*,*,#318,.T.);
#405=ORIENTED_EDGE('',*,*,#316,.F.);
#406=ORIENTED_EDGE('',*,*,#319,.T.);
#407=ORIENTED_EDGE('',*,*,#320,.T.);
#408=ORIENTED_EDGE('',*,*,#321,.T.);
#409=ORIENTED_EDGE('',*,*,#322,.T.);
#410=ORIENTED_EDGE('',*,*,#323,.T.);
#411=ORIENTED_EDGE('',*,*,#324,.T.);
#412=ORIENTED_EDGE('',*,*,#325,.T.);
#413=ORIENTED_EDGE('',*,*,#324,.F.);
#414=ORIENTED_EDGE('',*,*,#326,.T.);
#415=ORIENTED_EDGE('',*,*,#320,.F.);
#416=ORIENTED_EDGE('',*,*,#327,.T.);
#417=ORIENTED_EDGE('',*,*,#308,.F.);
#418=ORIENTED_EDGE('',*,*,#328,.T.);
#419=ORIENTED_EDGE('',*,*,#329,.T.);
#420=ORIENTED_EDGE('',*,*,#330,.T.);
#421=ORIENTED_EDGE('',*,*,#331,.T.);
#422=ORIENTED_EDGE('',*,*,#332,.T.);
#423=ORIENTED_EDGE('',*,*,#329,.F.);
#424=ORIENTED_EDGE('',*,*,#330,.F.);
#425=ORIENTED_EDGE('',*,*,#328,.F.);
#426=ORIENTED_EDGE('',*,*,#307,.F.);
#427=ORIENTED_EDGE('',*,*,#311,.F.);
#428=ORIENTED_EDGE('',*,*,#313,.F.);
#429=ORIENTED_EDGE('',*,*,#317,.F.);
#430=ORIENTED_EDGE('',*,*,#318,.F.);
#431=ORIENTED_EDGE('',*,*,#326,.F.);
#432=ORIENTED_EDGE('',*,*,#323,.F.);
#433=ORIENTED_EDGE('',*,*,#333,.T.);
#434=ORIENTED_EDGE('',*,*,#334,.T.);
#435=ORIENTED_EDGE('',*,*,#335,.T.);
#436=ORIENTED_EDGE('',*,*,#331,.F.);
#437=ORIENTED_EDGE('',*,*,#333,.F.);
#438=ORIENTED_EDGE('',*,*,#322,.F.);
#439=ORIENTED_EDGE('',*,*,#336,.T.);
#440=ORIENTED_EDGE('',*,*,#337,.F.);
#441=ORIENTED_EDGE('',*,*,#338,.F.);
#442=ORIENTED_EDGE('',*,*,#339,.F.);
#443=ORIENTED_EDGE('',*,*,#340,.F.);
#444=ORIENTED_EDGE('',*,*,#341,.T.);
#445=ORIENTED_EDGE('',*,*,#342,.T.);
#446=ORIENTED_EDGE('',*,*,#343,.T.);
#447=ORIENTED_EDGE('',*,*,#344,.T.);
#448=ORIENTED_EDGE('',*,*,#339,.T.);
#449=ORIENTED_EDGE('',*,*,#345,.T.);
#450=ORIENTED_EDGE('',*,*,#346,.T.);
#451=ORIENTED_EDGE('',*,*,#347,.T.);
#452=ORIENTED_EDGE('',*,*,#348,.T.);
#453=ORIENTED_EDGE('',*,*,#349,.T.);
#454=ORIENTED_EDGE('',*,*,#350,.T.);
#455=ORIENTED_EDGE('',*,*,#348,.F.);
#456=ORIENTED_EDGE('',*,*,#351,.T.);
#457=ORIENTED_EDGE('',*,*,#352,.T.);
#458=ORIENTED_EDGE('',*,*,#353,.T.);
#459=ORIENTED_EDGE('',*,*,#354,.T.);
#460=ORIENTED_EDGE('',*,*,#355,.T.);
#461=ORIENTED_EDGE('',*,*,#352,.F.);
#462=ORIENTED_EDGE('',*,*,#356,.T.);
#463=ORIENTED_EDGE('',*,*,#354,.F.);
#464=ORIENTED_EDGE('',*,*,#357,.T.);
#465=ORIENTED_EDGE('',*,*,#358,.T.);
#466=ORIENTED_EDGE('',*,*,#359,.T.);
#467=ORIENTED_EDGE('',*,*,#360,.T.);
#468=ORIENTED_EDGE('',*,*,#358,.F.);
#469=ORIENTED_EDGE('',*,*,#361,.T.);
#470=ORIENTED_EDGE('',*,*,#362,.T.);
#471=ORIENTED_EDGE('',*,*,#363,.T.);
#472=ORIENTED_EDGE('',*,*,#362,.F.);
#473=ORIENTED_EDGE('',*,*,#364,.T.);
#474=ORIENTED_EDGE('',*,*,#346,.F.);
#475=ORIENTED_EDGE('',*,*,#365,.T.);
#476=ORIENTED_EDGE('',*,*,#350,.F.);
#477=ORIENTED_EDGE('',*,*,#366,.T.);
#478=ORIENTED_EDGE('',*,*,#367,.T.);
#479=ORIENTED_EDGE('',*,*,#368,.T.);
#480=ORIENTED_EDGE('',*,*,#337,.T.);
#481=ORIENTED_EDGE('',*,*,#369,.T.);
#482=ORIENTED_EDGE('',*,*,#367,.F.);
#483=ORIENTED_EDGE('',*,*,#332,.F.);
#484=ORIENTED_EDGE('',*,*,#340,.T.);
#485=ORIENTED_EDGE('',*,*,#344,.F.);
#486=ORIENTED_EDGE('',*,*,#370,.T.);
#487=ORIENTED_EDGE('',*,*,#327,.F.);
#488=ORIENTED_EDGE('',*,*,#370,.F.);
#489=ORIENTED_EDGE('',*,*,#364,.F.);
#490=ORIENTED_EDGE('',*,*,#371,.T.);
#491=ORIENTED_EDGE('',*,*,#305,.F.);
#492=ORIENTED_EDGE('',*,*,#371,.F.);
#493=ORIENTED_EDGE('',*,*,#361,.F.);
#494=ORIENTED_EDGE('',*,*,#372,.F.);
#495=ORIENTED_EDGE('',*,*,#309,.F.);
#496=ORIENTED_EDGE('',*,*,#372,.T.);
#497=ORIENTED_EDGE('',*,*,#357,.F.);
#498=ORIENTED_EDGE('',*,*,#373,.T.);
#499=ORIENTED_EDGE('',*,*,#314,.F.);
#500=ORIENTED_EDGE('',*,*,#373,.F.);
#501=ORIENTED_EDGE('',*,*,#356,.F.);
#502=ORIENTED_EDGE('',*,*,#374,.F.);
#503=ORIENTED_EDGE('',*,*,#375,.T.);
#504=ORIENTED_EDGE('',*,*,#376,.T.);
#505=ORIENTED_EDGE('',*,*,#377,.T.);
#506=ORIENTED_EDGE('',*,*,#315,.F.);
#507=ORIENTED_EDGE('',*,*,#374,.T.);
#508=ORIENTED_EDGE('',*,*,#351,.F.);
#509=ORIENTED_EDGE('',*,*,#378,.T.);
#510=ORIENTED_EDGE('',*,*,#319,.F.);
#511=ORIENTED_EDGE('',*,*,#378,.F.);
#512=ORIENTED_EDGE('',*,*,#347,.F.);
#513=ORIENTED_EDGE('',*,*,#379,.T.);
#514=ORIENTED_EDGE('',*,*,#325,.F.);
#515=ORIENTED_EDGE('',*,*,#379,.F.);
#516=ORIENTED_EDGE('',*,*,#365,.F.);
#517=ORIENTED_EDGE('',*,*,#380,.F.);
#518=ORIENTED_EDGE('',*,*,#321,.F.);
#519=ORIENTED_EDGE('',*,*,#380,.T.);
#520=ORIENTED_EDGE('',*,*,#369,.F.);
#521=ORIENTED_EDGE('',*,*,#336,.F.);
#522=ORIENTED_EDGE('',*,*,#375,.F.);
#523=ORIENTED_EDGE('',*,*,#381,.T.);
#524=ORIENTED_EDGE('',*,*,#343,.F.);
#525=ORIENTED_EDGE('',*,*,#381,.F.);
#526=ORIENTED_EDGE('',*,*,#376,.F.);
#527=ORIENTED_EDGE('',*,*,#382,.T.);
#528=ORIENTED_EDGE('',*,*,#342,.F.);
#529=ORIENTED_EDGE('',*,*,#382,.F.);
#530=ORIENTED_EDGE('',*,*,#377,.F.);
#531=ORIENTED_EDGE('',*,*,#383,.T.);
#532=ORIENTED_EDGE('',*,*,#341,.F.);
#533=ORIENTED_EDGE('',*,*,#383,.F.);
#534=ORIENTED_EDGE('',*,*,#384,.F.);
#535=ORIENTED_EDGE('',*,*,#385,.T.);
#536=ORIENTED_EDGE('',*,*,#334,.F.);
#537=ORIENTED_EDGE('',*,*,#385,.F.);
#538=ORIENTED_EDGE('',*,*,#386,.F.);
#539=ORIENTED_EDGE('',*,*,#387,.T.);
#540=ORIENTED_EDGE('',*,*,#335,.F.);
#541=ORIENTED_EDGE('',*,*,#387,.F.);
#542=ORIENTED_EDGE('',*,*,#345,.F.);
#543=ORIENTED_EDGE('',*,*,#338,.T.);
#544=ORIENTED_EDGE('',*,*,#368,.F.);
#545=ORIENTED_EDGE('',*,*,#366,.F.);
#546=ORIENTED_EDGE('',*,*,#349,.F.);
#547=ORIENTED_EDGE('',*,*,#353,.F.);
#548=ORIENTED_EDGE('',*,*,#355,.F.);
#549=ORIENTED_EDGE('',*,*,#359,.F.);
#550=ORIENTED_EDGE('',*,*,#360,.F.);
#551=ORIENTED_EDGE('',*,*,#363,.F.);
#552=ORIENTED_EDGE('',*,*,#384,.T.);
#553=ORIENTED_EDGE('',*,*,#386,.T.);
#554=PLANE('',#621);
#555=PLANE('',#625);
#556=PLANE('',#629);
#557=PLANE('',#630);
#558=PLANE('',#637);
#559=PLANE('',#638);
#560=PLANE('',#641);
#561=PLANE('',#645);
#562=PLANE('',#646);
#563=PLANE('',#650);
#564=PLANE('',#654);
#565=PLANE('',#661);
#566=PLANE('',#662);
#567=PLANE('',#664);
#568=PLANE('',#666);
#569=PLANE('',#671);
#570=PLANE('',#673);
#571=PLANE('',#681);
#572=ADVANCED_FACE('',(#69),#554,.T.);
#573=ADVANCED_FACE('',(#70),#61,.F.);
#574=ADVANCED_FACE('',(#71),#555,.T.);
#575=ADVANCED_FACE('',(#72),#62,.F.);
#576=ADVANCED_FACE('',(#73),#556,.T.);
#577=ADVANCED_FACE('',(#74),#557,.T.);
#578=ADVANCED_FACE('',(#75),#63,.T.);
#579=ADVANCED_FACE('',(#76),#64,.T.);
#580=ADVANCED_FACE('',(#77),#558,.T.);
#581=ADVANCED_FACE('',(#78,#25,#26),#559,.F.);
#582=ADVANCED_FACE('',(#79,#27,#28,#29),#560,.T.);
#583=ADVANCED_FACE('',(#80),#561,.T.);
#584=ADVANCED_FACE('',(#81),#562,.T.);
#585=ADVANCED_FACE('',(#82),#65,.F.);
#586=ADVANCED_FACE('',(#83),#563,.T.);
#587=ADVANCED_FACE('',(#84),#66,.F.);
#588=ADVANCED_FACE('',(#85),#564,.T.);
#589=ADVANCED_FACE('',(#86),#67,.T.);
#590=ADVANCED_FACE('',(#87),#68,.T.);
#591=ADVANCED_FACE('',(#88),#565,.T.);
#592=ADVANCED_FACE('',(#89),#566,.T.);
#593=ADVANCED_FACE('',(#90),#16,.T.);
#594=ADVANCED_FACE('',(#91),#567,.F.);
#595=ADVANCED_FACE('',(#92),#17,.F.);
#596=ADVANCED_FACE('',(#93,#30,#31,#32),#568,.F.);
#597=ADVANCED_FACE('',(#94),#18,.F.);
#598=ADVANCED_FACE('',(#95),#569,.F.);
#599=ADVANCED_FACE('',(#96),#19,.T.);
#600=ADVANCED_FACE('',(#97),#570,.T.);
#601=ADVANCED_FACE('',(#98),#20,.F.);
#602=ADVANCED_FACE('',(#99),#21,.F.);
#603=ADVANCED_FACE('',(#100),#22,.F.);
#604=ADVANCED_FACE('',(#101),#23,.F.);
#605=ADVANCED_FACE('',(#102),#24,.F.);
#606=ADVANCED_FACE('',(#103,#33,#34),#571,.T.);
#607=CLOSED_SHELL('',(#572,#573,#574,#575,#576,#577,#578,#579,#580,#581,
#582,#583,#584,#585,#586,#587,#588,#589,#590,#591,#592,#593,#594,#595,#596,
#597,#598,#599,#600,#601,#602,#603,#604,#605,#606));
#608=DERIVED_UNIT_ELEMENT(#610,1.);
#609=DERIVED_UNIT_ELEMENT(#1053,-3.);
#610=(
MASS_UNIT()
NAMED_UNIT(*)
SI_UNIT(.KILO.,.GRAM.)
);
#611=DERIVED_UNIT((#608,#609));
#612=MEASURE_REPRESENTATION_ITEM('density measure',
POSITIVE_RATIO_MEASURE(7850.),#611);
#613=PROPERTY_DEFINITION_REPRESENTATION(#618,#615);
#614=PROPERTY_DEFINITION_REPRESENTATION(#619,#616);
#615=REPRESENTATION('material name',(#617),#1050);
#616=REPRESENTATION('density',(#612),#1050);
#617=DESCRIPTIVE_REPRESENTATION_ITEM('Steel','Steel');
#618=PROPERTY_DEFINITION('material property','material name',#1060);
#619=PROPERTY_DEFINITION('material property','density of part',#1060);
#620=AXIS2_PLACEMENT_3D('',#855,#682,#683);
#621=AXIS2_PLACEMENT_3D('',#856,#684,#685);
#622=AXIS2_PLACEMENT_3D('',#868,#689,#690);
#623=AXIS2_PLACEMENT_3D('',#870,#691,#692);
#624=AXIS2_PLACEMENT_3D('',#873,#694,#695);
#625=AXIS2_PLACEMENT_3D('',#874,#696,#697);
#626=AXIS2_PLACEMENT_3D('',#880,#701,#702);
#627=AXIS2_PLACEMENT_3D('',#882,#703,#704);
#628=AXIS2_PLACEMENT_3D('',#885,#706,#707);
#629=AXIS2_PLACEMENT_3D('',#886,#708,#709);
#630=AXIS2_PLACEMENT_3D('',#895,#712,#713);
#631=AXIS2_PLACEMENT_3D('',#907,#717,#718);
#632=AXIS2_PLACEMENT_3D('',#908,#719,#720);
#633=AXIS2_PLACEMENT_3D('',#909,#721,#722);
#634=AXIS2_PLACEMENT_3D('',#910,#723,#724);
#635=AXIS2_PLACEMENT_3D('',#912,#725,#726);
#636=AXIS2_PLACEMENT_3D('',#914,#727,#728);
#637=AXIS2_PLACEMENT_3D('',#919,#729,#730);
#638=AXIS2_PLACEMENT_3D('',#925,#734,#735);
#639=AXIS2_PLACEMENT_3D('',#928,#737,#738);
#640=AXIS2_PLACEMENT_3D('',#930,#739,#740);
#641=AXIS2_PLACEMENT_3D('',#931,#741,#742);
#642=AXIS2_PLACEMENT_3D('',#942,#748,#749);
#643=AXIS2_PLACEMENT_3D('',#944,#750,#751);
#644=AXIS2_PLACEMENT_3D('',#946,#752,#753);
#645=AXIS2_PLACEMENT_3D('',#947,#754,#755);
#646=AXIS2_PLACEMENT_3D('',#956,#758,#759);
#647=AXIS2_PLACEMENT_3D('',#968,#763,#764);
#648=AXIS2_PLACEMENT_3D('',#970,#765,#766);
#649=AXIS2_PLACEMENT_3D('',#973,#768,#769);
#650=AXIS2_PLACEMENT_3D('',#974,#770,#771);
#651=AXIS2_PLACEMENT_3D('',#980,#775,#776);
#652=AXIS2_PLACEMENT_3D('',#982,#777,#778);
#653=AXIS2_PLACEMENT_3D('',#985,#780,#781);
#654=AXIS2_PLACEMENT_3D('',#986,#782,#783);
#655=AXIS2_PLACEMENT_3D('',#995,#786,#787);
#656=AXIS2_PLACEMENT_3D('',#996,#788,#789);
#657=AXIS2_PLACEMENT_3D('',#997,#790,#791);
#658=AXIS2_PLACEMENT_3D('',#998,#792,#793);
#659=AXIS2_PLACEMENT_3D('',#1000,#794,#795);
#660=AXIS2_PLACEMENT_3D('',#1002,#796,#797);
#661=AXIS2_PLACEMENT_3D('',#1007,#798,#799);
#662=AXIS2_PLACEMENT_3D('',#1010,#802,#803);
#663=AXIS2_PLACEMENT_3D('',#1012,#805,#806);
#664=AXIS2_PLACEMENT_3D('',#1014,#808,#809);
#665=AXIS2_PLACEMENT_3D('',#1016,#811,#812);
#666=AXIS2_PLACEMENT_3D('',#1018,#814,#815);
#667=AXIS2_PLACEMENT_3D('',#1021,#817,#818);
#668=AXIS2_PLACEMENT_3D('',#1023,#819,#820);
#669=AXIS2_PLACEMENT_3D('',#1025,#821,#822);
#670=AXIS2_PLACEMENT_3D('',#1026,#823,#824);
#671=AXIS2_PLACEMENT_3D('',#1028,#826,#827);
#672=AXIS2_PLACEMENT_3D('',#1030,#829,#830);
#673=AXIS2_PLACEMENT_3D('',#1032,#832,#833);
#674=AXIS2_PLACEMENT_3D('',#1033,#834,#835);
#675=AXIS2_PLACEMENT_3D('',#1035,#837,#838);
#676=AXIS2_PLACEMENT_3D('',#1037,#840,#841);
#677=AXIS2_PLACEMENT_3D('',#1039,#843,#844);
#678=AXIS2_PLACEMENT_3D('',#1041,#845,#846);
#679=AXIS2_PLACEMENT_3D('',#1043,#848,#849);
#680=AXIS2_PLACEMENT_3D('',#1045,#850,#851);
#681=AXIS2_PLACEMENT_3D('',#1047,#853,#854);
#682=DIRECTION('axis',(0.,0.,1.));
#683=DIRECTION('refdir',(1.,0.,0.));
#684=DIRECTION('center_axis',(0.707106781186549,0.,-0.707106781186546));
#685=DIRECTION('ref_axis',(-0.707106781186546,0.,-0.707106781186549));
#686=DIRECTION('',(0.,-1.,0.));
#687=DIRECTION('',(-0.707106781186546,0.,-0.707106781186549));
#688=DIRECTION('',(0.,1.,0.));
#689=DIRECTION('center_axis',(0.,0.,-1.));
#690=DIRECTION('ref_axis',(-0.707106781186548,-0.707106781186548,0.));
#691=DIRECTION('center_axis',(0.,0.,1.));
#692=DIRECTION('ref_axis',(-0.707106781186547,-0.707106781186548,0.));
#693=DIRECTION('',(0.,-0.707106781186547,-0.707106781186548));
#694=DIRECTION('center_axis',(0.,0.,-1.));
#695=DIRECTION('ref_axis',(-0.707106781186547,-0.707106781186548,0.));
#696=DIRECTION('center_axis',(8.72273588157653E-17,0.707106781186548,-0.707106781186547));
#697=DIRECTION('ref_axis',(-1.,0.,-1.2335811384724E-16));
#698=DIRECTION('',(0.,-0.707106781186547,-0.707106781186547));
#699=DIRECTION('',(-1.,1.2335811384724E-16,0.));
#700=DIRECTION('',(1.,-1.2335811384724E-16,0.));
#701=DIRECTION('center_axis',(0.,0.,-1.));
#702=DIRECTION('ref_axis',(0.707106781186548,-0.707106781186547,0.));
#703=DIRECTION('center_axis',(0.,0.,1.));
#704=DIRECTION('ref_axis',(0.707106781186548,-0.707106781186547,0.));
#705=DIRECTION('',(0.707106781186549,9.81307786677357E-16,-0.707106781186546));
#706=DIRECTION('center_axis',(0.,0.,-1.));
#707=DIRECTION('ref_axis',(0.707106781186548,-0.707106781186547,0.));
#708=DIRECTION('center_axis',(-0.707106781186552,-4.56754169798919E-16,
-0.707106781186543));
#709=DIRECTION('ref_axis',(-0.707106781186543,0.,0.707106781186552));
#710=DIRECTION('',(6.45947941600091E-16,-1.,0.));
#711=DIRECTION('',(-6.45947941600091E-16,1.,0.));
#712=DIRECTION('center_axis',(0.707106781186552,-5.02429586778811E-16,-0.707106781186543));
#713=DIRECTION('ref_axis',(-0.707106781186543,0.,-0.707106781186552));
#714=DIRECTION('',(-7.105427357601E-16,-1.,0.));
#715=DIRECTION('',(-0.707106781186543,0.,-0.707106781186552));
#716=DIRECTION('',(7.105427357601E-16,1.,0.));
#717=DIRECTION('center_axis',(0.,0.,1.));
#718=DIRECTION('ref_axis',(0.995618985013878,0.09350313727322,0.));
#719=DIRECTION('center_axis',(0.,0.,-1.));
#720=DIRECTION('ref_axis',(0.995618985013878,0.09350313727322,0.));
#721=DIRECTION('center_axis',(0.,0.,1.));
#722=DIRECTION('ref_axis',(0.995618985013878,0.09350313727322,0.));
#723=DIRECTION('center_axis',(0.,0.,1.));
#724=DIRECTION('ref_axis',(0.995618985013878,0.0935031372732206,0.));
#725=DIRECTION('center_axis',(0.,0.,-1.));
#726=DIRECTION('ref_axis',(0.995618985013878,0.0935031372732206,0.));
#727=DIRECTION('center_axis',(0.,0.,1.));
#728=DIRECTION('ref_axis',(0.995618985013878,0.0935031372732207,0.));
#729=DIRECTION('center_axis',(-0.707106781186549,0.,-0.707106781186546));
#730=DIRECTION('ref_axis',(-0.707106781186546,0.,0.707106781186549));
#731=DIRECTION('',(0.,-1.,0.));
#732=DIRECTION('',(-0.707106781186546,0.,0.707106781186549));
#733=DIRECTION('',(0.,1.,0.));
#734=DIRECTION('center_axis',(0.,0.,1.));
#735=DIRECTION('ref_axis',(1.,0.,0.));
#736=DIRECTION('',(-1.,0.,0.));
#737=DIRECTION('center_axis',(0.,0.,1.));
#738=DIRECTION('ref_axis',(1.,0.,0.));
#739=DIRECTION('center_axis',(0.,0.,1.));
#740=DIRECTION('ref_axis',(1.,0.,0.));
#741=DIRECTION('center_axis',(0.,-1.,0.));
#742=DIRECTION('ref_axis',(1.,0.,0.));
#743=DIRECTION('',(0.,0.,1.));
#744=DIRECTION('',(0.707106781186543,0.,-0.707106781186552));
#745=DIRECTION('',(1.,0.,0.));
#746=DIRECTION('',(0.707106781186546,0.,0.707106781186549));
#747=DIRECTION('',(0.,0.,1.));
#748=DIRECTION('center_axis',(0.,1.,0.));
#749=DIRECTION('ref_axis',(0.,0.,1.));
#750=DIRECTION('center_axis',(0.,1.,0.));
#751=DIRECTION('ref_axis',(0.,0.,1.));
#752=DIRECTION('center_axis',(0.,1.,0.));
#753=DIRECTION('ref_axis',(0.,0.,1.));
#754=DIRECTION('center_axis',(-0.707106781186549,0.,0.707106781186546));
#755=DIRECTION('ref_axis',(0.707106781186546,0.,0.707106781186549));
#756=DIRECTION('',(0.,-1.,0.));
#757=DIRECTION('',(0.,1.,0.));
#758=DIRECTION('center_axis',(-0.707106781186552,-4.56754169798919E-16,
0.707106781186543));
#759=DIRECTION('ref_axis',(0.707106781186543,0.,0.707106781186552));
#760=DIRECTION('',(6.45947941600091E-16,-1.,0.));
#761=DIRECTION('',(0.707106781186546,1.37383090134831E-15,0.707106781186549));
#762=DIRECTION('',(-6.45947941600091E-16,1.,0.));
#763=DIRECTION('center_axis',(0.,0.,1.));
#764=DIRECTION('ref_axis',(0.707106781186548,-0.707106781186547,0.));
#765=DIRECTION('center_axis',(0.,0.,-1.));
#766=DIRECTION('ref_axis',(0.707106781186548,-0.707106781186547,0.));
#767=DIRECTION('',(0.,-0.707106781186548,0.707106781186547));
#768=DIRECTION('center_axis',(0.,0.,1.));
#769=DIRECTION('ref_axis',(0.707106781186548,-0.707106781186547,0.));
#770=DIRECTION('center_axis',(8.72273588157654E-17,0.707106781186548,0.707106781186547));
#771=DIRECTION('ref_axis',(1.,0.,-1.2335811384724E-16));
#772=DIRECTION('',(-3.14018491736755E-15,-0.707106781186547,0.707106781186548));
#773=DIRECTION('',(1.,-1.2335811384724E-16,0.));
#774=DIRECTION('',(-1.,1.2335811384724E-16,0.));
#775=DIRECTION('center_axis',(0.,0.,1.));
#776=DIRECTION('ref_axis',(-0.707106781186548,-0.707106781186548,0.));
#777=DIRECTION('center_axis',(0.,0.,-1.));
#778=DIRECTION('ref_axis',(-0.707106781186547,-0.707106781186548,0.));
#779=DIRECTION('',(-0.707106781186549,0.,0.707106781186546));
#780=DIRECTION('center_axis',(0.,0.,1.));
#781=DIRECTION('ref_axis',(-0.707106781186547,-0.707106781186548,0.));
#782=DIRECTION('center_axis',(0.707106781186549,0.,0.707106781186546));
#783=DIRECTION('ref_axis',(0.707106781186546,0.,-0.707106781186549));
#784=DIRECTION('',(0.,-1.,0.));
#785=DIRECTION('',(0.,1.,0.));
#786=DIRECTION('center_axis',(0.,0.,-1.));
#787=DIRECTION('ref_axis',(0.995618985013878,0.0935031372732206,0.));
#788=DIRECTION('center_axis',(0.,0.,-1.));
#789=DIRECTION('ref_axis',(0.995618985013878,0.0935031372732207,0.));
#790=DIRECTION('center_axis',(0.,0.,1.));
#791=DIRECTION('ref_axis',(0.995618985013878,0.0935031372732206,0.));
#792=DIRECTION('center_axis',(0.,0.,-1.));
#793=DIRECTION('ref_axis',(0.995618985013878,0.09350313727322,0.));
#794=DIRECTION('center_axis',(0.,0.,1.));
#795=DIRECTION('ref_axis',(0.995618985013878,0.09350313727322,0.));
#796=DIRECTION('center_axis',(0.,0.,-1.));
#797=DIRECTION('ref_axis',(0.995618985013878,0.09350313727322,0.));
#798=DIRECTION('center_axis',(0.707106781186552,-5.02429586778811E-16,0.707106781186543));
#799=DIRECTION('ref_axis',(0.707106781186543,0.,-0.707106781186552));
#800=DIRECTION('',(-7.105427357601E-16,-1.,0.));
#801=DIRECTION('',(7.105427357601E-16,1.,0.));
#802=DIRECTION('center_axis',(-1.,0.,0.));
#803=DIRECTION('ref_axis',(0.,-1.,0.));
#804=DIRECTION('',(0.,0.,-1.));
#805=DIRECTION('center_axis',(0.,0.,-1.));
#806=DIRECTION('ref_axis',(0.995618985013878,0.0935031372732206,0.));
#807=DIRECTION('',(0.,0.,-1.));
#808=DIRECTION('center_axis',(-1.,0.,0.));
#809=DIRECTION('ref_axis',(0.,1.,0.));
#810=DIRECTION('',(0.,0.,1.));
#811=DIRECTION('center_axis',(0.,0.,-1.));
#812=DIRECTION('ref_axis',(-0.707106781186547,-0.707106781186548,0.));
#813=DIRECTION('',(0.,0.,-1.));
#814=DIRECTION('center_axis',(-1.2335811384724E-16,-1.,0.));
#815=DIRECTION('ref_axis',(-1.,1.2335811384724E-16,0.));
#816=DIRECTION('',(0.,0.,1.));
#817=DIRECTION('center_axis',(-1.2335811384724E-16,-1.,0.));
#818=DIRECTION('ref_axis',(0.,0.,1.));
#819=DIRECTION('center_axis',(-1.2335811384724E-16,-1.,0.));
#820=DIRECTION('ref_axis',(0.,0.,1.));
#821=DIRECTION('center_axis',(-1.2335811384724E-16,-1.,0.));
#822=DIRECTION('ref_axis',(0.,0.,1.));
#823=DIRECTION('center_axis',(0.,0.,-1.));
#824=DIRECTION('ref_axis',(0.707106781186548,-0.707106781186547,0.));
#825=DIRECTION('',(0.,0.,-1.));
#826=DIRECTION('center_axis',(1.,6.45947941600091E-16,0.));
#827=DIRECTION('ref_axis',(6.45947941600091E-16,-1.,0.));
#828=DIRECTION('',(0.,0.,-1.));
#829=DIRECTION('center_axis',(0.,0.,-1.));
#830=DIRECTION('ref_axis',(0.995618985013878,0.09350313727322,0.));
#831=DIRECTION('',(0.,0.,1.));
#832=DIRECTION('center_axis',(1.,-7.105427357601E-16,0.));
#833=DIRECTION('ref_axis',(7.105427357601E-16,1.,0.));
#834=DIRECTION('center_axis',(-1.2335811384724E-16,-1.,0.));
#835=DIRECTION('ref_axis',(0.,0.,1.));
#836=DIRECTION('',(-1.2335811384724E-16,-1.,0.));
#837=DIRECTION('center_axis',(-1.2335811384724E-16,-1.,0.));
#838=DIRECTION('ref_axis',(0.,0.,1.));
#839=DIRECTION('',(-1.2335811384724E-16,-1.,0.));
#840=DIRECTION('center_axis',(-1.2335811384724E-16,-1.,0.));
#841=DIRECTION('ref_axis',(0.,0.,1.));
#842=DIRECTION('',(-1.2335811384724E-16,-1.,0.));
#843=DIRECTION('center_axis',(0.,0.,-1.));
#844=DIRECTION('ref_axis',(1.,0.,0.));
#845=DIRECTION('center_axis',(0.,0.,-1.));
#846=DIRECTION('ref_axis',(1.,0.,0.));
#847=DIRECTION('',(0.,0.,-1.));
#848=DIRECTION('center_axis',(0.,0.,-1.));
#849=DIRECTION('ref_axis',(1.,0.,0.));
#850=DIRECTION('center_axis',(0.,0.,-1.));
#851=DIRECTION('ref_axis',(1.,0.,0.));
#852=DIRECTION('',(0.,0.,-1.));
#853=DIRECTION('center_axis',(0.,0.,1.));
#854=DIRECTION('ref_axis',(1.,0.,0.));
#855=CARTESIAN_POINT('',(0.,0.,0.));
#856=CARTESIAN_POINT('Origin',(-91.,-9.6835,1.));
#857=CARTESIAN_POINT('',(-90.,35.633,2.));
#858=CARTESIAN_POINT('',(-90.,-3.36700000000001,2.));
#859=CARTESIAN_POINT('',(-90.,-9.6835,2.));
#860=CARTESIAN_POINT('',(-92.,-3.36700000000001,0.));
#861=CARTESIAN_POINT('',(-90.,-3.36700000000001,2.));
#862=CARTESIAN_POINT('',(-92.,35.5379163468931,0.));
#863=CARTESIAN_POINT('',(-92.,-9.6835,0.));
#864=CARTESIAN_POINT('Ctrl Pts',(-92.,35.5379163468931,0.));
#865=CARTESIAN_POINT('Ctrl Pts',(-91.3335231130263,35.5700738123436,0.666476886973708));
#866=CARTESIAN_POINT('Ctrl Pts',(-90.6664974260339,35.6017717942218,1.33350257396614));
#867=CARTESIAN_POINT('Ctrl Pts',(-90.,35.633,2.));
#868=CARTESIAN_POINT('Origin',(-74.,-3.36700000000001,1.));
#869=CARTESIAN_POINT('',(-74.,-19.367,2.));
#870=CARTESIAN_POINT('Origin',(-74.,-3.36700000000001,2.));
#871=CARTESIAN_POINT('',(-74.,-21.367,0.));
#872=CARTESIAN_POINT('',(-74.,-19.367,2.));
#873=CARTESIAN_POINT('Origin',(-74.,-3.36700000000001,0.));
#874=CARTESIAN_POINT('Origin',(45.,-20.367,1.));
#875=CARTESIAN_POINT('',(74.,-19.367,2.));
#876=CARTESIAN_POINT('',(74.,-21.367,0.));
#877=CARTESIAN_POINT('',(74.,-19.367,2.));
#878=CARTESIAN_POINT('',(45.,-21.367,0.));
#879=CARTESIAN_POINT('',(45.,-19.367,2.));
#880=CARTESIAN_POINT('Origin',(74.,-3.36700000000003,1.));
#881=CARTESIAN_POINT('',(90.,-3.36700000000002,2.));
#882=CARTESIAN_POINT('Origin',(74.,-3.36700000000003,2.));
#883=CARTESIAN_POINT('',(92.,-3.36700000000001,0.));
#884=CARTESIAN_POINT('',(90.,-3.36700000000002,2.));
#885=CARTESIAN_POINT('Origin',(74.,-3.36700000000003,0.));
#886=CARTESIAN_POINT('Origin',(91.,17.8165,1.));
#887=CARTESIAN_POINT('',(92.,35.5379163468928,0.));
#888=CARTESIAN_POINT('',(92.,17.8165,0.));
#889=CARTESIAN_POINT('',(90.,35.633,2.));
#890=CARTESIAN_POINT('',(90.,17.8165,2.));
#891=CARTESIAN_POINT('Ctrl Pts',(90.,35.633,2.));
#892=CARTESIAN_POINT('Ctrl Pts',(90.6664974261712,35.6017717942153,1.33350257382879));
#893=CARTESIAN_POINT('Ctrl Pts',(91.3335231130903,35.5700738123403,0.666476886909763));
#894=CARTESIAN_POINT('Ctrl Pts',(92.,35.5379163468928,7.73789796782322E-15));
#895=CARTESIAN_POINT('Origin',(159.,-33.7500000000001,1.));
#896=CARTESIAN_POINT('',(160.,35.6330000000007,2.));
#897=CARTESIAN_POINT('',(160.,-67.5,2.));
#898=CARTESIAN_POINT('',(160.,-33.7500000000001,2.));
#899=CARTESIAN_POINT('',(158.,-67.5,0.));
#900=CARTESIAN_POINT('',(79.0000000000009,-67.5,-78.9999999999999));
#901=CARTESIAN_POINT('',(158.,35.537916346894,0.));
#902=CARTESIAN_POINT('',(158.,-33.7500000000001,0.));
#903=CARTESIAN_POINT('Ctrl Pts',(158.,35.537916346894,-1.14321144006958E-14));
#904=CARTESIAN_POINT('Ctrl Pts',(158.666476887248,35.5700738123578,0.666476887248191));
#905=CARTESIAN_POINT('Ctrl Pts',(159.333502574556,35.6017717942501,1.33350257455636));
#906=CARTESIAN_POINT('Ctrl Pts',(160.,35.6330000000007,2.00000000000001));
#907=CARTESIAN_POINT('Origin',(125.,32.3459897542913,1.));
#908=CARTESIAN_POINT('Origin',(125.,32.3459897542913,2.));
#909=CARTESIAN_POINT('Origin',(125.,32.3459897542913,0.));
#910=CARTESIAN_POINT('Origin',(-125.,32.3459897542913,1.));
#911=CARTESIAN_POINT('',(-160.,35.633,2.));
#912=CARTESIAN_POINT('Origin',(-125.,32.3459897542913,2.));
#913=CARTESIAN_POINT('',(-158.,35.5379163468932,0.));
#914=CARTESIAN_POINT('Origin',(-125.,32.3459897542913,0.));
#915=CARTESIAN_POINT('Ctrl Pts',(-158.,35.5379163468932,6.10622663543836E-15));
#916=CARTESIAN_POINT('Ctrl Pts',(-158.666476887003,35.5700738123451,0.66647688700278));
#917=CARTESIAN_POINT('Ctrl Pts',(-159.333502574028,35.6017717942248,1.33350257402792));
#918=CARTESIAN_POINT('Ctrl Pts',(-160.,35.633,2.));
#919=CARTESIAN_POINT('Origin',(-159.,33.75,1.));
#920=CARTESIAN_POINT('',(-158.,-67.5,0.));
#921=CARTESIAN_POINT('',(-158.,33.75,0.));
#922=CARTESIAN_POINT('',(-160.,-67.5,2.));
#923=CARTESIAN_POINT('',(-159.,-67.5,0.999999999999998));
#924=CARTESIAN_POINT('',(-160.,33.75,2.));
#925=CARTESIAN_POINT('Origin',(-3.5527136788005E-14,0.,0.));
#926=CARTESIAN_POINT('',(160.,-67.5,0.));
#927=CARTESIAN_POINT('',(-140.,35.633,0.));
#928=CARTESIAN_POINT('Origin',(-125.,35.633,0.));
#929=CARTESIAN_POINT('',(110.,35.633,0.));
#930=CARTESIAN_POINT('Origin',(125.,35.633,0.));
#931=CARTESIAN_POINT('Origin',(-160.,-67.5,0.));
#932=CARTESIAN_POINT('',(160.,-67.5,18.));
#933=CARTESIAN_POINT('',(160.,-67.5,0.));
#934=CARTESIAN_POINT('',(158.,-67.5,20.));
#935=CARTESIAN_POINT('',(84.0000000000009,-67.5,93.9999999999999));
#936=CARTESIAN_POINT('',(-158.,-67.5,20.));
#937=CARTESIAN_POINT('',(160.,-67.5,20.));
#938=CARTESIAN_POINT('',(-160.,-67.5,18.));
#939=CARTESIAN_POINT('',(-164.,-67.5,14.));
#940=CARTESIAN_POINT('',(-160.,-67.5,0.));
#941=CARTESIAN_POINT('',(65.,-67.5,5.75));
#942=CARTESIAN_POINT('Origin',(65.,-67.5,10.));
#943=CARTESIAN_POINT('',(-65.,-67.5,5.75));
#944=CARTESIAN_POINT('Origin',(-65.,-67.5,10.));
#945=CARTESIAN_POINT('',(-8.8471475743263E-15,-67.5,5.75));
#946=CARTESIAN_POINT('Origin',(-8.32667268468867E-15,-67.5,10.));
#947=CARTESIAN_POINT('Origin',(-159.,33.75,19.));
#948=CARTESIAN_POINT('',(-160.,35.633,18.));
#949=CARTESIAN_POINT('',(-160.,33.75,18.));
#950=CARTESIAN_POINT('',(-158.,35.5379163468932,20.));
#951=CARTESIAN_POINT('',(-158.,33.75,20.));
#952=CARTESIAN_POINT('Ctrl Pts',(-158.,35.5379163468932,20.));
#953=CARTESIAN_POINT('Ctrl Pts',(-158.666476886993,35.5700738123446,19.3335231130069));
#954=CARTESIAN_POINT('Ctrl Pts',(-159.333502574008,35.6017717942238,18.6664974259925));
#955=CARTESIAN_POINT('Ctrl Pts',(-160.,35.633,18.));
#956=CARTESIAN_POINT('Origin',(91.,17.8165,19.));
#957=CARTESIAN_POINT('',(90.,35.633,18.));
#958=CARTESIAN_POINT('',(90.,-3.36700000000002,18.));
#959=CARTESIAN_POINT('',(90.,17.8165,18.));
#960=CARTESIAN_POINT('',(92.,-3.36700000000001,20.));
#961=CARTESIAN_POINT('',(90.,-3.36700000000002,18.));
#962=CARTESIAN_POINT('',(92.,35.5379163468928,20.));
#963=CARTESIAN_POINT('',(92.,17.8165,20.));
#964=CARTESIAN_POINT('Ctrl Pts',(92.,35.5379163468928,20.));
#965=CARTESIAN_POINT('Ctrl Pts',(91.3335231131031,35.5700738123396,19.3335231131031));
#966=CARTESIAN_POINT('Ctrl Pts',(90.6664974261989,35.601771794214,18.6664974261989));
#967=CARTESIAN_POINT('Ctrl Pts',(90.,35.633,18.));
#968=CARTESIAN_POINT('Origin',(74.,-3.36700000000003,19.));
#969=CARTESIAN_POINT('',(74.,-19.367,18.));
#970=CARTESIAN_POINT('Origin',(74.,-3.36700000000003,18.));
#971=CARTESIAN_POINT('',(74.,-21.367,20.));
#972=CARTESIAN_POINT('',(74.,-19.367,18.));
#973=CARTESIAN_POINT('Origin',(74.,-3.36700000000003,20.));
#974=CARTESIAN_POINT('Origin',(45.,-20.367,19.));
#975=CARTESIAN_POINT('',(-74.,-19.367,18.));
#976=CARTESIAN_POINT('',(-74.,-21.367,20.));
#977=CARTESIAN_POINT('',(-74.,-19.367,18.));
#978=CARTESIAN_POINT('',(45.,-21.367,20.));
#979=CARTESIAN_POINT('',(45.,-19.367,18.));
#980=CARTESIAN_POINT('Origin',(-74.,-3.36700000000001,19.));
#981=CARTESIAN_POINT('',(-90.,-3.36700000000001,18.));
#982=CARTESIAN_POINT('Origin',(-74.,-3.36700000000001,18.));
#983=CARTESIAN_POINT('',(-92.,-3.36700000000001,20.));
#984=CARTESIAN_POINT('',(-90.,-3.36700000000001,18.));
#985=CARTESIAN_POINT('Origin',(-74.,-3.36700000000001,20.));
#986=CARTESIAN_POINT('Origin',(-91.,-9.6835,19.));
#987=CARTESIAN_POINT('',(-92.,35.5379163468931,20.));
#988=CARTESIAN_POINT('',(-92.,-9.6835,20.));
#989=CARTESIAN_POINT('',(-90.,35.633,18.));
#990=CARTESIAN_POINT('',(-90.,-9.6835,18.));
#991=CARTESIAN_POINT('Ctrl Pts',(-90.,35.633,18.));
#992=CARTESIAN_POINT('Ctrl Pts',(-90.6664974260237,35.6017717942223,18.6664974260236));
#993=CARTESIAN_POINT('Ctrl Pts',(-91.3335231130215,35.5700738123438,19.3335231130215));
#994=CARTESIAN_POINT('Ctrl Pts',(-92.,35.5379163468931,20.));
#995=CARTESIAN_POINT('Origin',(-125.,32.3459897542913,19.));
#996=CARTESIAN_POINT('Origin',(-125.,32.3459897542913,20.));
#997=CARTESIAN_POINT('Origin',(-125.,32.3459897542913,18.));
#998=CARTESIAN_POINT('Origin',(125.,32.3459897542913,19.));
#999=CARTESIAN_POINT('',(160.,35.6330000000007,18.));
#1000=CARTESIAN_POINT('Origin',(125.,32.3459897542913,18.));
#1001=CARTESIAN_POINT('',(158.,35.5379163468931,20.));
#1002=CARTESIAN_POINT('Origin',(125.,32.3459897542913,20.));
#1003=CARTESIAN_POINT('Ctrl Pts',(158.,35.5379163468931,20.));
#1004=CARTESIAN_POINT('Ctrl Pts',(158.666476886593,35.5700738123253,19.3335231134067));
#1005=CARTESIAN_POINT('Ctrl Pts',(159.333502573146,35.6017717941841,18.6664974268538));
#1006=CARTESIAN_POINT('Ctrl Pts',(160.,35.6330000000007,18.));
#1007=CARTESIAN_POINT('Origin',(159.,-33.7500000000001,19.));
#1008=CARTESIAN_POINT('',(158.,-33.7500000000001,20.));
#1009=CARTESIAN_POINT('',(160.,-33.7500000000001,18.));
#1010=CARTESIAN_POINT('Origin',(-160.,67.5,0.));
#1011=CARTESIAN_POINT('',(-160.,35.633,20.));
#1012=CARTESIAN_POINT('Origin',(-125.,32.3459897542913,20.));
#1013=CARTESIAN_POINT('',(-90.,35.633,20.));
#1014=CARTESIAN_POINT('Origin',(-90.,-19.367,20.));
#1015=CARTESIAN_POINT('',(-90.,-3.36700000000001,20.));
#1016=CARTESIAN_POINT('Origin',(-74.,-3.36700000000001,20.));
#1017=CARTESIAN_POINT('',(-74.,-19.367,20.));
#1018=CARTESIAN_POINT('Origin',(90.,-19.367,20.));
#1019=CARTESIAN_POINT('',(74.,-19.367,20.));
#1020=CARTESIAN_POINT('',(-1.86860170124186E-15,-19.367,5.75));
#1021=CARTESIAN_POINT('Origin',(-2.38907659087949E-15,-19.367,10.));
#1022=CARTESIAN_POINT('',(-65.,-19.367,5.75));
#1023=CARTESIAN_POINT('Origin',(-65.,-19.367,10.));
#1024=CARTESIAN_POINT('',(65.,-19.367,5.75));
#1025=CARTESIAN_POINT('Origin',(65.,-19.367,10.));
#1026=CARTESIAN_POINT('Origin',(74.,-3.36700000000003,20.));
#1027=CARTESIAN_POINT('',(90.,-3.36700000000002,20.));
#1028=CARTESIAN_POINT('Origin',(90.,35.633,20.));
#1029=CARTESIAN_POINT('',(90.,35.633,20.));
#1030=CARTESIAN_POINT('Origin',(125.,32.3459897542913,20.));
#1031=CARTESIAN_POINT('',(160.,35.6330000000007,20.));
#1032=CARTESIAN_POINT('Origin',(160.,-67.5,0.));
#1033=CARTESIAN_POINT('Origin',(-5.65475444247454E-15,-45.84015,10.));
#1034=CARTESIAN_POINT('',(-5.13427955283692E-15,-45.84015,5.75));
#1035=CARTESIAN_POINT('Origin',(-65.,-45.84015,10.));
#1036=CARTESIAN_POINT('',(-65.,-45.84015,5.75));
#1037=CARTESIAN_POINT('Origin',(65.,-45.84015,10.));
#1038=CARTESIAN_POINT('',(65.,-45.84015,5.75));
#1039=CARTESIAN_POINT('Origin',(-125.,35.633,-5.));
#1040=CARTESIAN_POINT('',(-140.,35.633,20.));
#1041=CARTESIAN_POINT('Origin',(-125.,35.633,20.));
#1042=CARTESIAN_POINT('',(-140.,35.633,-5.));
#1043=CARTESIAN_POINT('Origin',(125.,35.633,-5.));
#1044=CARTESIAN_POINT('',(110.,35.633,20.));
#1045=CARTESIAN_POINT('Origin',(125.,35.633,20.));
#1046=CARTESIAN_POINT('',(110.,35.633,-5.));
#1047=CARTESIAN_POINT('Origin',(-3.5527136788005E-14,0.,20.));
#1048=UNCERTAINTY_MEASURE_WITH_UNIT(LENGTH_MEASURE(0.01),#1052,
'DISTANCE_ACCURACY_VALUE',
'Maximum model space distance between geometric entities at asserted c
onnectivities');
#1049=UNCERTAINTY_MEASURE_WITH_UNIT(LENGTH_MEASURE(0.01),#1052,
'DISTANCE_ACCURACY_VALUE',
'Maximum model space distance between geometric entities at asserted c
onnectivities');
#1050=(
GEOMETRIC_REPRESENTATION_CONTEXT(3)
GLOBAL_UNCERTAINTY_ASSIGNED_CONTEXT((#1048))
GLOBAL_UNIT_ASSIGNED_CONTEXT((#1052,#1054,#1055))
REPRESENTATION_CONTEXT('','3D')
);
#1051=(
GEOMETRIC_REPRESENTATION_CONTEXT(3)
GLOBAL_UNCERTAINTY_ASSIGNED_CONTEXT((#1049))
GLOBAL_UNIT_ASSIGNED_CONTEXT((#1052,#1054,#1055))
REPRESENTATION_CONTEXT('','3D')
);
#1052=(
LENGTH_UNIT()
NAMED_UNIT(*)
SI_UNIT(.MILLI.,.METRE.)
);
#1053=(
LENGTH_UNIT()
NAMED_UNIT(*)
SI_UNIT($,.METRE.)
);
#1054=(
NAMED_UNIT(*)
PLANE_ANGLE_UNIT()
SI_UNIT($,.RADIAN.)
);
#1055=(
NAMED_UNIT(*)
SI_UNIT($,.STERADIAN.)
SOLID_ANGLE_UNIT()
);
#1056=SHAPE_DEFINITION_REPRESENTATION(#1057,#1058);
#1057=PRODUCT_DEFINITION_SHAPE('',$,#1060);
#1058=SHAPE_REPRESENTATION('',(#620),#1050);
#1059=PRODUCT_DEFINITION_CONTEXT('part definition',#1064,'design');
#1060=PRODUCT_DEFINITION('feet','feet v1',#1061,#1059);
#1061=PRODUCT_DEFINITION_FORMATION('',$,#1066);
#1062=PRODUCT_RELATED_PRODUCT_CATEGORY('feet v1','feet v1',(#1066));
#1063=APPLICATION_PROTOCOL_DEFINITION('international standard',
'automotive_design',2009,#1064);
#1064=APPLICATION_CONTEXT(
'Core Data for Automotive Mechanical Design Process');
#1065=PRODUCT_CONTEXT('part definition',#1064,'mechanical');
#1066=PRODUCT('feet','feet v1',$,(#1065));
#1067=PRESENTATION_STYLE_ASSIGNMENT((#1069));
#1068=PRESENTATION_STYLE_ASSIGNMENT((#1070));
#1069=SURFACE_STYLE_USAGE(.BOTH.,#1071);
#1070=SURFACE_STYLE_USAGE(.BOTH.,#1072);
#1071=SURFACE_SIDE_STYLE('',(#1073));
#1072=SURFACE_SIDE_STYLE('',(#1074));
#1073=SURFACE_STYLE_FILL_AREA(#1075);
#1074=SURFACE_STYLE_FILL_AREA(#1076);
#1075=FILL_AREA_STYLE('Steel - Satin',(#1077));
#1076=FILL_AREA_STYLE('Aluminum - Satin',(#1078));
#1077=FILL_AREA_STYLE_COLOUR('Steel - Satin',#1079);
#1078=FILL_AREA_STYLE_COLOUR('Aluminum - Satin',#1080);
#1079=COLOUR_RGB('Steel - Satin',0.627450980392157,0.627450980392157,0.627450980392157);
#1080=COLOUR_RGB('Aluminum - Satin',0.96078431372549,0.96078431372549,0.964705882352941);
ENDSEC;
END-ISO-10303-21;
