ISO-10303-21;
HEADER;
/* Generated by software containing ST-Developer
 * from STEP Tools, Inc. (www.steptools.com) 
 */

FILE_DESCRIPTION(
/* description */ (''),
/* implementation_level */ '2;1');

FILE_NAME(
/* name */ '512_HopperStepperMount-85-115-40d-30h v1.step',
/* time_stamp */ '2026-03-14T10:16:40+01:00',
/* author */ (''),
/* organization */ (''),
/* preprocessor_version */ 'ST-DEVELOPER v20.1',
/* originating_system */ 'Autodesk Translation Framework v14.24.0.0',
/* authorisation */ '');

FILE_SCHEMA (('AUTOMOTIVE_DESIGN { 1 0 10303 214 3 1 1 }'));
ENDSEC;

DATA;
#10=MECHANICAL_DESIGN_GEOMETRIC_PRESENTATION_REPRESENTATION('',(#13),#1123);
#11=SHAPE_REPRESENTATION_RELATIONSHIP('SRR','None',#1130,#12);
#12=ADVANCED_BREP_SHAPE_REPRESENTATION('',(#14),#1122);
#13=STYLED_ITEM('',(#1140),#14);
#14=MANIFOLD_SOLID_BREP('Body1',#649);
#15=FACE_BOUND('',#212,.T.);
#16=FACE_BOUND('',#214,.T.);
#17=FACE_BOUND('',#215,.T.);
#18=PLANE('',#684);
#19=PLANE('',#693);
#20=PLANE('',#702);
#21=PLANE('',#703);
#22=PLANE('',#704);
#23=PLANE('',#706);
#24=PLANE('',#707);
#25=PLANE('',#708);
#26=PLANE('',#709);
#27=PLANE('',#711);
#28=PLANE('',#712);
#29=PLANE('',#714);
#30=PLANE('',#715);
#31=PLANE('',#716);
#32=PLANE('',#725);
#33=PLANE('',#729);
#34=PLANE('',#730);
#35=PLANE('',#731);
#36=LINE('',#940,#94);
#37=LINE('',#946,#95);
#38=LINE('',#953,#96);
#39=LINE('',#956,#97);
#40=LINE('',#962,#98);
#41=LINE('',#965,#99);
#42=LINE('',#971,#100);
#43=LINE('',#974,#101);
#44=LINE('',#980,#102);
#45=LINE('',#983,#103);
#46=LINE('',#987,#104);
#47=LINE('',#991,#105);
#48=LINE('',#995,#106);
#49=LINE('',#999,#107);
#50=LINE('',#1002,#108);
#51=LINE('',#1004,#109);
#52=LINE('',#1008,#110);
#53=LINE('',#1011,#111);
#54=LINE('',#1012,#112);
#55=LINE('',#1013,#113);
#56=LINE('',#1015,#114);
#57=LINE('',#1019,#115);
#58=LINE('',#1024,#116);
#59=LINE('',#1026,#117);
#60=LINE('',#1028,#118);
#61=LINE('',#1030,#119);
#62=LINE('',#1032,#120);
#63=LINE('',#1034,#121);
#64=LINE('',#1038,#122);
#65=LINE('',#1041,#123);
#66=LINE('',#1042,#124);
#67=LINE('',#1043,#125);
#68=LINE('',#1045,#126);
#69=LINE('',#1049,#127);
#70=LINE('',#1052,#128);
#71=LINE('',#1054,#129);
#72=LINE('',#1058,#130);
#73=LINE('',#1062,#131);
#74=LINE('',#1066,#132);
#75=LINE('',#1070,#133);
#76=LINE('',#1072,#134);
#77=LINE('',#1073,#135);
#78=LINE('',#1075,#136);
#79=LINE('',#1076,#137);
#80=LINE('',#1080,#138);
#81=LINE('',#1081,#139);
#82=LINE('',#1083,#140);
#83=LINE('',#1084,#141);
#84=LINE('',#1086,#142);
#85=LINE('',#1088,#143);
#86=LINE('',#1090,#144);
#87=LINE('',#1091,#145);
#88=LINE('',#1093,#146);
#89=LINE('',#1095,#147);
#90=LINE('',#1097,#148);
#91=LINE('',#1099,#149);
#92=LINE('',#1101,#150);
#93=LINE('',#1103,#151);
#94=VECTOR('',#744,2.5);
#95=VECTOR('',#751,2.50000000000001);
#96=VECTOR('',#758,1000.);
#97=VECTOR('',#761,1000.);
#98=VECTOR('',#766,1000.);
#99=VECTOR('',#769,1000.);
#100=VECTOR('',#774,1000.);
#101=VECTOR('',#777,1000.);
#102=VECTOR('',#782,1000.);
#103=VECTOR('',#785,1000.);
#104=VECTOR('',#788,1000.);
#105=VECTOR('',#791,1000.);
#106=VECTOR('',#794,1000.);
#107=VECTOR('',#797,1000.);
#108=VECTOR('',#800,1000.);
#109=VECTOR('',#801,1000.);
#110=VECTOR('',#804,1000.);
#111=VECTOR('',#807,1000.);
#112=VECTOR('',#808,1000.);
#113=VECTOR('',#809,1000.);
#114=VECTOR('',#810,1000.);
#115=VECTOR('',#813,1000.);
#116=VECTOR('',#818,1000.);
#117=VECTOR('',#819,1000.);
#118=VECTOR('',#820,1000.);
#119=VECTOR('',#821,1000.);
#120=VECTOR('',#822,1000.);
#121=VECTOR('',#823,1000.);
#122=VECTOR('',#826,1000.);
#123=VECTOR('',#829,1000.);
#124=VECTOR('',#830,1000.);
#125=VECTOR('',#831,1000.);
#126=VECTOR('',#832,1000.);
#127=VECTOR('',#835,1000.);
#128=VECTOR('',#838,1000.);
#129=VECTOR('',#839,1000.);
#130=VECTOR('',#842,1000.);
#131=VECTOR('',#845,1000.);
#132=VECTOR('',#848,1000.);
#133=VECTOR('',#851,1000.);
#134=VECTOR('',#852,1000.);
#135=VECTOR('',#853,1000.);
#136=VECTOR('',#856,1000.);
#137=VECTOR('',#857,1000.);
#138=VECTOR('',#864,1000.);
#139=VECTOR('',#865,1000.);
#140=VECTOR('',#868,1000.);
#141=VECTOR('',#869,1000.);
#142=VECTOR('',#872,1000.);
#143=VECTOR('',#875,1000.);
#144=VECTOR('',#878,1000.);
#145=VECTOR('',#879,1000.);
#146=VECTOR('',#882,1000.);
#147=VECTOR('',#885,1000.);
#148=VECTOR('',#888,1000.);
#149=VECTOR('',#891,1000.);
#150=VECTOR('',#894,1000.);
#151=VECTOR('',#897,1000.);
#152=CYLINDRICAL_SURFACE('',#666,2.5);
#153=CYLINDRICAL_SURFACE('',#669,2.50000000000001);
#154=CYLINDRICAL_SURFACE('',#672,1.);
#155=CYLINDRICAL_SURFACE('',#675,1.);
#156=CYLINDRICAL_SURFACE('',#678,4.05000000000003);
#157=CYLINDRICAL_SURFACE('',#681,4.05000000000003);
#158=CYLINDRICAL_SURFACE('',#710,4.05000000000003);
#159=CYLINDRICAL_SURFACE('',#713,4.05000000000003);
#160=CYLINDRICAL_SURFACE('',#717,1.);
#161=CYLINDRICAL_SURFACE('',#718,1.);
#162=CYLINDRICAL_SURFACE('',#719,1.);
#163=CYLINDRICAL_SURFACE('',#720,1.);
#164=CYLINDRICAL_SURFACE('',#721,1.);
#165=CYLINDRICAL_SURFACE('',#722,1.);
#166=CYLINDRICAL_SURFACE('',#723,21.025);
#167=CYLINDRICAL_SURFACE('',#727,15.);
#168=FACE_OUTER_BOUND('',#203,.T.);
#169=FACE_OUTER_BOUND('',#204,.T.);
#170=FACE_OUTER_BOUND('',#205,.T.);
#171=FACE_OUTER_BOUND('',#206,.T.);
#172=FACE_OUTER_BOUND('',#207,.T.);
#173=FACE_OUTER_BOUND('',#208,.T.);
#174=FACE_OUTER_BOUND('',#209,.T.);
#175=FACE_OUTER_BOUND('',#210,.T.);
#176=FACE_OUTER_BOUND('',#211,.T.);
#177=FACE_OUTER_BOUND('',#213,.T.);
#178=FACE_OUTER_BOUND('',#216,.T.);
#179=FACE_OUTER_BOUND('',#217,.T.);
#180=FACE_OUTER_BOUND('',#218,.T.);
#181=FACE_OUTER_BOUND('',#219,.T.);
#182=FACE_OUTER_BOUND('',#220,.T.);
#183=FACE_OUTER_BOUND('',#221,.T.);
#184=FACE_OUTER_BOUND('',#222,.T.);
#185=FACE_OUTER_BOUND('',#223,.T.);
#186=FACE_OUTER_BOUND('',#224,.T.);
#187=FACE_OUTER_BOUND('',#225,.T.);
#188=FACE_OUTER_BOUND('',#226,.T.);
#189=FACE_OUTER_BOUND('',#227,.T.);
#190=FACE_OUTER_BOUND('',#228,.T.);
#191=FACE_OUTER_BOUND('',#229,.T.);
#192=FACE_OUTER_BOUND('',#230,.T.);
#193=FACE_OUTER_BOUND('',#231,.T.);
#194=FACE_OUTER_BOUND('',#232,.T.);
#195=FACE_OUTER_BOUND('',#233,.T.);
#196=FACE_OUTER_BOUND('',#234,.T.);
#197=FACE_OUTER_BOUND('',#235,.T.);
#198=FACE_OUTER_BOUND('',#236,.T.);
#199=FACE_OUTER_BOUND('',#237,.T.);
#200=FACE_OUTER_BOUND('',#238,.T.);
#201=FACE_OUTER_BOUND('',#239,.T.);
#202=FACE_OUTER_BOUND('',#240,.T.);
#203=EDGE_LOOP('',(#429,#430,#431));
#204=EDGE_LOOP('',(#432,#433,#434,#435));
#205=EDGE_LOOP('',(#436,#437,#438,#439));
#206=EDGE_LOOP('',(#440,#441,#442,#443));
#207=EDGE_LOOP('',(#444,#445,#446,#447));
#208=EDGE_LOOP('',(#448,#449,#450,#451));
#209=EDGE_LOOP('',(#452,#453,#454,#455));
#210=EDGE_LOOP('',(#456,#457,#458,#459,#460,#461,#462,#463,#464,#465,#466,
#467,#468,#469,#470,#471,#472,#473,#474,#475,#476,#477,#478,#479));
#211=EDGE_LOOP('',(#480,#481,#482,#483,#484,#485,#486,#487,#488,#489,#490,
#491,#492,#493,#494,#495,#496,#497,#498,#499,#500,#501,#502,#503,#504,#505,
#506,#507,#508,#509,#510,#511));
#212=EDGE_LOOP('',(#512));
#213=EDGE_LOOP('',(#513,#514,#515,#516));
#214=EDGE_LOOP('',(#517));
#215=EDGE_LOOP('',(#518));
#216=EDGE_LOOP('',(#519,#520,#521,#522));
#217=EDGE_LOOP('',(#523,#524,#525,#526,#527,#528));
#218=EDGE_LOOP('',(#529,#530,#531,#532));
#219=EDGE_LOOP('',(#533,#534,#535,#536));
#220=EDGE_LOOP('',(#537,#538,#539,#540));
#221=EDGE_LOOP('',(#541,#542,#543,#544));
#222=EDGE_LOOP('',(#545,#546,#547,#548));
#223=EDGE_LOOP('',(#549,#550,#551,#552));
#224=EDGE_LOOP('',(#553,#554,#555,#556));
#225=EDGE_LOOP('',(#557,#558,#559,#560));
#226=EDGE_LOOP('',(#561,#562,#563,#564));
#227=EDGE_LOOP('',(#565,#566,#567,#568));
#228=EDGE_LOOP('',(#569,#570,#571,#572));
#229=EDGE_LOOP('',(#573,#574,#575,#576));
#230=EDGE_LOOP('',(#577,#578,#579,#580));
#231=EDGE_LOOP('',(#581,#582,#583,#584));
#232=EDGE_LOOP('',(#585,#586,#587,#588));
#233=EDGE_LOOP('',(#589,#590,#591,#592));
#234=EDGE_LOOP('',(#593,#594,#595,#596));
#235=EDGE_LOOP('',(#597,#598,#599,#600));
#236=EDGE_LOOP('',(#601,#602,#603,#604));
#237=EDGE_LOOP('',(#605,#606,#607,#608));
#238=EDGE_LOOP('',(#609,#610));
#239=EDGE_LOOP('',(#611));
#240=EDGE_LOOP('',(#612));
#241=CIRCLE('',#664,28.);
#242=CIRCLE('',#665,28.);
#243=CIRCLE('',#667,2.5);
#244=CIRCLE('',#668,2.5);
#245=CIRCLE('',#670,2.50000000000001);
#246=CIRCLE('',#671,2.50000000000001);
#247=CIRCLE('',#673,1.);
#248=CIRCLE('',#674,1.);
#249=CIRCLE('',#676,1.);
#250=CIRCLE('',#677,1.);
#251=CIRCLE('',#679,4.05000000000003);
#252=CIRCLE('',#680,4.05000000000003);
#253=CIRCLE('',#682,4.05000000000003);
#254=CIRCLE('',#683,4.05000000000003);
#255=CIRCLE('',#685,1.);
#256=CIRCLE('',#686,4.05000000000003);
#257=CIRCLE('',#687,1.);
#258=CIRCLE('',#688,1.);
#259=CIRCLE('',#689,1.);
#260=CIRCLE('',#690,1.);
#261=CIRCLE('',#691,4.05000000000003);
#262=CIRCLE('',#692,1.);
#263=CIRCLE('',#694,1.);
#264=CIRCLE('',#695,4.05000000000003);
#265=CIRCLE('',#696,1.);
#266=CIRCLE('',#697,1.);
#267=CIRCLE('',#698,1.);
#268=CIRCLE('',#699,1.);
#269=CIRCLE('',#700,4.05000000000003);
#270=CIRCLE('',#701,1.);
#271=CIRCLE('',#705,21.025);
#272=CIRCLE('',#724,21.025);
#273=CIRCLE('',#726,15.);
#274=CIRCLE('',#728,15.);
#275=VERTEX_POINT('',#932);
#276=VERTEX_POINT('',#934);
#277=VERTEX_POINT('',#937);
#278=VERTEX_POINT('',#939);
#279=VERTEX_POINT('',#943);
#280=VERTEX_POINT('',#945);
#281=VERTEX_POINT('',#949);
#282=VERTEX_POINT('',#950);
#283=VERTEX_POINT('',#952);
#284=VERTEX_POINT('',#954);
#285=VERTEX_POINT('',#958);
#286=VERTEX_POINT('',#959);
#287=VERTEX_POINT('',#961);
#288=VERTEX_POINT('',#963);
#289=VERTEX_POINT('',#967);
#290=VERTEX_POINT('',#968);
#291=VERTEX_POINT('',#970);
#292=VERTEX_POINT('',#972);
#293=VERTEX_POINT('',#976);
#294=VERTEX_POINT('',#977);
#295=VERTEX_POINT('',#979);
#296=VERTEX_POINT('',#981);
#297=VERTEX_POINT('',#985);
#298=VERTEX_POINT('',#986);
#299=VERTEX_POINT('',#988);
#300=VERTEX_POINT('',#990);
#301=VERTEX_POINT('',#992);
#302=VERTEX_POINT('',#994);
#303=VERTEX_POINT('',#996);
#304=VERTEX_POINT('',#998);
#305=VERTEX_POINT('',#1000);
#306=VERTEX_POINT('',#1003);
#307=VERTEX_POINT('',#1005);
#308=VERTEX_POINT('',#1007);
#309=VERTEX_POINT('',#1009);
#310=VERTEX_POINT('',#1014);
#311=VERTEX_POINT('',#1016);
#312=VERTEX_POINT('',#1018);
#313=VERTEX_POINT('',#1022);
#314=VERTEX_POINT('',#1023);
#315=VERTEX_POINT('',#1025);
#316=VERTEX_POINT('',#1027);
#317=VERTEX_POINT('',#1029);
#318=VERTEX_POINT('',#1031);
#319=VERTEX_POINT('',#1033);
#320=VERTEX_POINT('',#1035);
#321=VERTEX_POINT('',#1037);
#322=VERTEX_POINT('',#1039);
#323=VERTEX_POINT('',#1044);
#324=VERTEX_POINT('',#1046);
#325=VERTEX_POINT('',#1048);
#326=VERTEX_POINT('',#1050);
#327=VERTEX_POINT('',#1053);
#328=VERTEX_POINT('',#1055);
#329=VERTEX_POINT('',#1057);
#330=VERTEX_POINT('',#1059);
#331=VERTEX_POINT('',#1061);
#332=VERTEX_POINT('',#1063);
#333=VERTEX_POINT('',#1065);
#334=VERTEX_POINT('',#1067);
#335=VERTEX_POINT('',#1069);
#336=VERTEX_POINT('',#1071);
#337=EDGE_CURVE('',#275,#275,#241,.T.);
#338=EDGE_CURVE('',#275,#276,#242,.T.);
#339=EDGE_CURVE('',#277,#277,#243,.T.);
#340=EDGE_CURVE('',#277,#278,#36,.T.);
#341=EDGE_CURVE('',#278,#278,#244,.T.);
#342=EDGE_CURVE('',#279,#279,#245,.T.);
#343=EDGE_CURVE('',#279,#280,#37,.T.);
#344=EDGE_CURVE('',#280,#280,#246,.T.);
#345=EDGE_CURVE('',#281,#282,#247,.T.);
#346=EDGE_CURVE('',#283,#281,#38,.T.);
#347=EDGE_CURVE('',#284,#283,#248,.T.);
#348=EDGE_CURVE('',#282,#284,#39,.T.);
#349=EDGE_CURVE('',#285,#286,#249,.T.);
#350=EDGE_CURVE('',#287,#285,#40,.T.);
#351=EDGE_CURVE('',#288,#287,#250,.T.);
#352=EDGE_CURVE('',#286,#288,#41,.T.);
#353=EDGE_CURVE('',#289,#290,#251,.T.);
#354=EDGE_CURVE('',#289,#291,#42,.T.);
#355=EDGE_CURVE('',#292,#291,#252,.T.);
#356=EDGE_CURVE('',#290,#292,#43,.T.);
#357=EDGE_CURVE('',#293,#294,#253,.T.);
#358=EDGE_CURVE('',#294,#295,#44,.T.);
#359=EDGE_CURVE('',#295,#296,#254,.T.);
#360=EDGE_CURVE('',#293,#296,#45,.T.);
#361=EDGE_CURVE('',#297,#298,#46,.T.);
#362=EDGE_CURVE('',#298,#299,#255,.T.);
#363=EDGE_CURVE('',#299,#300,#47,.T.);
#364=EDGE_CURVE('',#300,#301,#256,.T.);
#365=EDGE_CURVE('',#301,#302,#48,.T.);
#366=EDGE_CURVE('',#302,#303,#257,.T.);
#367=EDGE_CURVE('',#303,#304,#49,.T.);
#368=EDGE_CURVE('',#304,#305,#258,.T.);
#369=EDGE_CURVE('',#296,#305,#50,.T.);
#370=EDGE_CURVE('',#306,#295,#51,.T.);
#371=EDGE_CURVE('',#306,#307,#259,.T.);
#372=EDGE_CURVE('',#307,#308,#52,.T.);
#373=EDGE_CURVE('',#308,#309,#260,.T.);
#374=EDGE_CURVE('',#309,#292,#53,.T.);
#375=EDGE_CURVE('',#291,#281,#54,.T.);
#376=EDGE_CURVE('',#282,#288,#55,.T.);
#377=EDGE_CURVE('',#310,#287,#56,.T.);
#378=EDGE_CURVE('',#311,#310,#261,.T.);
#379=EDGE_CURVE('',#312,#311,#57,.T.);
#380=EDGE_CURVE('',#312,#297,#262,.T.);
#381=EDGE_CURVE('',#313,#314,#58,.T.);
#382=EDGE_CURVE('',#313,#315,#59,.T.);
#383=EDGE_CURVE('',#316,#315,#60,.T.);
#384=EDGE_CURVE('',#316,#317,#61,.T.);
#385=EDGE_CURVE('',#318,#317,#62,.T.);
#386=EDGE_CURVE('',#319,#318,#63,.T.);
#387=EDGE_CURVE('',#319,#320,#263,.T.);
#388=EDGE_CURVE('',#321,#320,#64,.T.);
#389=EDGE_CURVE('',#322,#321,#264,.T.);
#390=EDGE_CURVE('',#285,#322,#65,.T.);
#391=EDGE_CURVE('',#284,#286,#66,.T.);
#392=EDGE_CURVE('',#283,#289,#67,.T.);
#393=EDGE_CURVE('',#290,#323,#68,.T.);
#394=EDGE_CURVE('',#323,#324,#265,.T.);
#395=EDGE_CURVE('',#325,#324,#69,.T.);
#396=EDGE_CURVE('',#325,#326,#266,.T.);
#397=EDGE_CURVE('',#294,#326,#70,.T.);
#398=EDGE_CURVE('',#327,#293,#71,.T.);
#399=EDGE_CURVE('',#327,#328,#267,.T.);
#400=EDGE_CURVE('',#329,#328,#72,.T.);
#401=EDGE_CURVE('',#329,#330,#268,.T.);
#402=EDGE_CURVE('',#330,#331,#73,.T.);
#403=EDGE_CURVE('',#331,#332,#269,.T.);
#404=EDGE_CURVE('',#332,#333,#74,.T.);
#405=EDGE_CURVE('',#333,#334,#270,.T.);
#406=EDGE_CURVE('',#335,#334,#75,.T.);
#407=EDGE_CURVE('',#336,#335,#76,.T.);
#408=EDGE_CURVE('',#336,#314,#77,.T.);
#409=EDGE_CURVE('',#324,#308,#78,.T.);
#410=EDGE_CURVE('',#307,#325,#79,.T.);
#411=EDGE_CURVE('',#335,#318,#271,.T.);
#412=EDGE_CURVE('',#334,#298,#80,.T.);
#413=EDGE_CURVE('',#297,#319,#81,.T.);
#414=EDGE_CURVE('',#303,#329,#82,.T.);
#415=EDGE_CURVE('',#328,#304,#83,.T.);
#416=EDGE_CURVE('',#305,#327,#84,.T.);
#417=EDGE_CURVE('',#326,#306,#85,.T.);
#418=EDGE_CURVE('',#299,#333,#86,.T.);
#419=EDGE_CURVE('',#332,#300,#87,.T.);
#420=EDGE_CURVE('',#331,#301,#88,.T.);
#421=EDGE_CURVE('',#330,#302,#89,.T.);
#422=EDGE_CURVE('',#322,#310,#90,.T.);
#423=EDGE_CURVE('',#321,#311,#91,.T.);
#424=EDGE_CURVE('',#320,#312,#92,.T.);
#425=EDGE_CURVE('',#309,#323,#93,.T.);
#426=EDGE_CURVE('',#336,#317,#272,.T.);
#427=EDGE_CURVE('',#314,#316,#273,.T.);
#428=EDGE_CURVE('',#313,#315,#274,.T.);
#429=ORIENTED_EDGE('',*,*,#337,.F.);
#430=ORIENTED_EDGE('',*,*,#338,.T.);
#431=ORIENTED_EDGE('',*,*,#338,.F.);
#432=ORIENTED_EDGE('',*,*,#339,.F.);
#433=ORIENTED_EDGE('',*,*,#340,.T.);
#434=ORIENTED_EDGE('',*,*,#341,.T.);
#435=ORIENTED_EDGE('',*,*,#340,.F.);
#436=ORIENTED_EDGE('',*,*,#342,.F.);
#437=ORIENTED_EDGE('',*,*,#343,.T.);
#438=ORIENTED_EDGE('',*,*,#344,.T.);
#439=ORIENTED_EDGE('',*,*,#343,.F.);
#440=ORIENTED_EDGE('',*,*,#345,.F.);
#441=ORIENTED_EDGE('',*,*,#346,.F.);
#442=ORIENTED_EDGE('',*,*,#347,.F.);
#443=ORIENTED_EDGE('',*,*,#348,.F.);
#444=ORIENTED_EDGE('',*,*,#349,.F.);
#445=ORIENTED_EDGE('',*,*,#350,.F.);
#446=ORIENTED_EDGE('',*,*,#351,.F.);
#447=ORIENTED_EDGE('',*,*,#352,.F.);
#448=ORIENTED_EDGE('',*,*,#353,.F.);
#449=ORIENTED_EDGE('',*,*,#354,.T.);
#450=ORIENTED_EDGE('',*,*,#355,.F.);
#451=ORIENTED_EDGE('',*,*,#356,.F.);
#452=ORIENTED_EDGE('',*,*,#357,.T.);
#453=ORIENTED_EDGE('',*,*,#358,.T.);
#454=ORIENTED_EDGE('',*,*,#359,.T.);
#455=ORIENTED_EDGE('',*,*,#360,.F.);
#456=ORIENTED_EDGE('',*,*,#361,.T.);
#457=ORIENTED_EDGE('',*,*,#362,.T.);
#458=ORIENTED_EDGE('',*,*,#363,.T.);
#459=ORIENTED_EDGE('',*,*,#364,.T.);
#460=ORIENTED_EDGE('',*,*,#365,.T.);
#461=ORIENTED_EDGE('',*,*,#366,.T.);
#462=ORIENTED_EDGE('',*,*,#367,.T.);
#463=ORIENTED_EDGE('',*,*,#368,.T.);
#464=ORIENTED_EDGE('',*,*,#369,.F.);
#465=ORIENTED_EDGE('',*,*,#359,.F.);
#466=ORIENTED_EDGE('',*,*,#370,.F.);
#467=ORIENTED_EDGE('',*,*,#371,.T.);
#468=ORIENTED_EDGE('',*,*,#372,.T.);
#469=ORIENTED_EDGE('',*,*,#373,.T.);
#470=ORIENTED_EDGE('',*,*,#374,.T.);
#471=ORIENTED_EDGE('',*,*,#355,.T.);
#472=ORIENTED_EDGE('',*,*,#375,.T.);
#473=ORIENTED_EDGE('',*,*,#345,.T.);
#474=ORIENTED_EDGE('',*,*,#376,.T.);
#475=ORIENTED_EDGE('',*,*,#351,.T.);
#476=ORIENTED_EDGE('',*,*,#377,.F.);
#477=ORIENTED_EDGE('',*,*,#378,.F.);
#478=ORIENTED_EDGE('',*,*,#379,.F.);
#479=ORIENTED_EDGE('',*,*,#380,.T.);
#480=ORIENTED_EDGE('',*,*,#381,.F.);
#481=ORIENTED_EDGE('',*,*,#382,.T.);
#482=ORIENTED_EDGE('',*,*,#383,.F.);
#483=ORIENTED_EDGE('',*,*,#384,.T.);
#484=ORIENTED_EDGE('',*,*,#385,.F.);
#485=ORIENTED_EDGE('',*,*,#386,.F.);
#486=ORIENTED_EDGE('',*,*,#387,.T.);
#487=ORIENTED_EDGE('',*,*,#388,.F.);
#488=ORIENTED_EDGE('',*,*,#389,.F.);
#489=ORIENTED_EDGE('',*,*,#390,.F.);
#490=ORIENTED_EDGE('',*,*,#349,.T.);
#491=ORIENTED_EDGE('',*,*,#391,.F.);
#492=ORIENTED_EDGE('',*,*,#347,.T.);
#493=ORIENTED_EDGE('',*,*,#392,.T.);
#494=ORIENTED_EDGE('',*,*,#353,.T.);
#495=ORIENTED_EDGE('',*,*,#393,.T.);
#496=ORIENTED_EDGE('',*,*,#394,.T.);
#497=ORIENTED_EDGE('',*,*,#395,.F.);
#498=ORIENTED_EDGE('',*,*,#396,.T.);
#499=ORIENTED_EDGE('',*,*,#397,.F.);
#500=ORIENTED_EDGE('',*,*,#357,.F.);
#501=ORIENTED_EDGE('',*,*,#398,.F.);
#502=ORIENTED_EDGE('',*,*,#399,.T.);
#503=ORIENTED_EDGE('',*,*,#400,.F.);
#504=ORIENTED_EDGE('',*,*,#401,.T.);
#505=ORIENTED_EDGE('',*,*,#402,.T.);
#506=ORIENTED_EDGE('',*,*,#403,.T.);
#507=ORIENTED_EDGE('',*,*,#404,.T.);
#508=ORIENTED_EDGE('',*,*,#405,.T.);
#509=ORIENTED_EDGE('',*,*,#406,.F.);
#510=ORIENTED_EDGE('',*,*,#407,.F.);
#511=ORIENTED_EDGE('',*,*,#408,.T.);
#512=ORIENTED_EDGE('',*,*,#337,.T.);
#513=ORIENTED_EDGE('',*,*,#395,.T.);
#514=ORIENTED_EDGE('',*,*,#409,.T.);
#515=ORIENTED_EDGE('',*,*,#372,.F.);
#516=ORIENTED_EDGE('',*,*,#410,.T.);
#517=ORIENTED_EDGE('',*,*,#341,.F.);
#518=ORIENTED_EDGE('',*,*,#344,.F.);
#519=ORIENTED_EDGE('',*,*,#391,.T.);
#520=ORIENTED_EDGE('',*,*,#352,.T.);
#521=ORIENTED_EDGE('',*,*,#376,.F.);
#522=ORIENTED_EDGE('',*,*,#348,.T.);
#523=ORIENTED_EDGE('',*,*,#386,.T.);
#524=ORIENTED_EDGE('',*,*,#411,.F.);
#525=ORIENTED_EDGE('',*,*,#406,.T.);
#526=ORIENTED_EDGE('',*,*,#412,.T.);
#527=ORIENTED_EDGE('',*,*,#361,.F.);
#528=ORIENTED_EDGE('',*,*,#413,.T.);
#529=ORIENTED_EDGE('',*,*,#367,.F.);
#530=ORIENTED_EDGE('',*,*,#414,.T.);
#531=ORIENTED_EDGE('',*,*,#400,.T.);
#532=ORIENTED_EDGE('',*,*,#415,.T.);
#533=ORIENTED_EDGE('',*,*,#369,.T.);
#534=ORIENTED_EDGE('',*,*,#416,.T.);
#535=ORIENTED_EDGE('',*,*,#398,.T.);
#536=ORIENTED_EDGE('',*,*,#360,.T.);
#537=ORIENTED_EDGE('',*,*,#397,.T.);
#538=ORIENTED_EDGE('',*,*,#417,.T.);
#539=ORIENTED_EDGE('',*,*,#370,.T.);
#540=ORIENTED_EDGE('',*,*,#358,.F.);
#541=ORIENTED_EDGE('',*,*,#363,.F.);
#542=ORIENTED_EDGE('',*,*,#418,.T.);
#543=ORIENTED_EDGE('',*,*,#404,.F.);
#544=ORIENTED_EDGE('',*,*,#419,.T.);
#545=ORIENTED_EDGE('',*,*,#420,.T.);
#546=ORIENTED_EDGE('',*,*,#364,.F.);
#547=ORIENTED_EDGE('',*,*,#419,.F.);
#548=ORIENTED_EDGE('',*,*,#403,.F.);
#549=ORIENTED_EDGE('',*,*,#402,.F.);
#550=ORIENTED_EDGE('',*,*,#421,.T.);
#551=ORIENTED_EDGE('',*,*,#365,.F.);
#552=ORIENTED_EDGE('',*,*,#420,.F.);
#553=ORIENTED_EDGE('',*,*,#377,.T.);
#554=ORIENTED_EDGE('',*,*,#350,.T.);
#555=ORIENTED_EDGE('',*,*,#390,.T.);
#556=ORIENTED_EDGE('',*,*,#422,.T.);
#557=ORIENTED_EDGE('',*,*,#389,.T.);
#558=ORIENTED_EDGE('',*,*,#423,.T.);
#559=ORIENTED_EDGE('',*,*,#378,.T.);
#560=ORIENTED_EDGE('',*,*,#422,.F.);
#561=ORIENTED_EDGE('',*,*,#388,.T.);
#562=ORIENTED_EDGE('',*,*,#424,.T.);
#563=ORIENTED_EDGE('',*,*,#379,.T.);
#564=ORIENTED_EDGE('',*,*,#423,.F.);
#565=ORIENTED_EDGE('',*,*,#374,.F.);
#566=ORIENTED_EDGE('',*,*,#425,.T.);
#567=ORIENTED_EDGE('',*,*,#393,.F.);
#568=ORIENTED_EDGE('',*,*,#356,.T.);
#569=ORIENTED_EDGE('',*,*,#392,.F.);
#570=ORIENTED_EDGE('',*,*,#346,.T.);
#571=ORIENTED_EDGE('',*,*,#375,.F.);
#572=ORIENTED_EDGE('',*,*,#354,.F.);
#573=ORIENTED_EDGE('',*,*,#405,.F.);
#574=ORIENTED_EDGE('',*,*,#418,.F.);
#575=ORIENTED_EDGE('',*,*,#362,.F.);
#576=ORIENTED_EDGE('',*,*,#412,.F.);
#577=ORIENTED_EDGE('',*,*,#401,.F.);
#578=ORIENTED_EDGE('',*,*,#414,.F.);
#579=ORIENTED_EDGE('',*,*,#366,.F.);
#580=ORIENTED_EDGE('',*,*,#421,.F.);
#581=ORIENTED_EDGE('',*,*,#387,.F.);
#582=ORIENTED_EDGE('',*,*,#413,.F.);
#583=ORIENTED_EDGE('',*,*,#380,.F.);
#584=ORIENTED_EDGE('',*,*,#424,.F.);
#585=ORIENTED_EDGE('',*,*,#394,.F.);
#586=ORIENTED_EDGE('',*,*,#425,.F.);
#587=ORIENTED_EDGE('',*,*,#373,.F.);
#588=ORIENTED_EDGE('',*,*,#409,.F.);
#589=ORIENTED_EDGE('',*,*,#396,.F.);
#590=ORIENTED_EDGE('',*,*,#410,.F.);
#591=ORIENTED_EDGE('',*,*,#371,.F.);
#592=ORIENTED_EDGE('',*,*,#417,.F.);
#593=ORIENTED_EDGE('',*,*,#399,.F.);
#594=ORIENTED_EDGE('',*,*,#416,.F.);
#595=ORIENTED_EDGE('',*,*,#368,.F.);
#596=ORIENTED_EDGE('',*,*,#415,.F.);
#597=ORIENTED_EDGE('',*,*,#407,.T.);
#598=ORIENTED_EDGE('',*,*,#411,.T.);
#599=ORIENTED_EDGE('',*,*,#385,.T.);
#600=ORIENTED_EDGE('',*,*,#426,.F.);
#601=ORIENTED_EDGE('',*,*,#427,.F.);
#602=ORIENTED_EDGE('',*,*,#408,.F.);
#603=ORIENTED_EDGE('',*,*,#426,.T.);
#604=ORIENTED_EDGE('',*,*,#384,.F.);
#605=ORIENTED_EDGE('',*,*,#381,.T.);
#606=ORIENTED_EDGE('',*,*,#427,.T.);
#607=ORIENTED_EDGE('',*,*,#383,.T.);
#608=ORIENTED_EDGE('',*,*,#428,.F.);
#609=ORIENTED_EDGE('',*,*,#428,.T.);
#610=ORIENTED_EDGE('',*,*,#382,.F.);
#611=ORIENTED_EDGE('',*,*,#342,.T.);
#612=ORIENTED_EDGE('',*,*,#339,.T.);
#613=SPHERICAL_SURFACE('',#663,28.);
#614=ADVANCED_FACE('',(#168),#613,.F.);
#615=ADVANCED_FACE('',(#169),#152,.F.);
#616=ADVANCED_FACE('',(#170),#153,.F.);
#617=ADVANCED_FACE('',(#171),#154,.T.);
#618=ADVANCED_FACE('',(#172),#155,.T.);
#619=ADVANCED_FACE('',(#173),#156,.F.);
#620=ADVANCED_FACE('',(#174),#157,.F.);
#621=ADVANCED_FACE('',(#175),#18,.F.);
#622=ADVANCED_FACE('',(#176,#15),#19,.T.);
#623=ADVANCED_FACE('',(#177,#16,#17),#20,.F.);
#624=ADVANCED_FACE('',(#178),#21,.F.);
#625=ADVANCED_FACE('',(#179),#22,.F.);
#626=ADVANCED_FACE('',(#180),#23,.F.);
#627=ADVANCED_FACE('',(#181),#24,.F.);
#628=ADVANCED_FACE('',(#182),#25,.F.);
#629=ADVANCED_FACE('',(#183),#26,.T.);
#630=ADVANCED_FACE('',(#184),#158,.F.);
#631=ADVANCED_FACE('',(#185),#27,.T.);
#632=ADVANCED_FACE('',(#186),#28,.F.);
#633=ADVANCED_FACE('',(#187),#159,.F.);
#634=ADVANCED_FACE('',(#188),#29,.F.);
#635=ADVANCED_FACE('',(#189),#30,.T.);
#636=ADVANCED_FACE('',(#190),#31,.T.);
#637=ADVANCED_FACE('',(#191),#160,.T.);
#638=ADVANCED_FACE('',(#192),#161,.T.);
#639=ADVANCED_FACE('',(#193),#162,.T.);
#640=ADVANCED_FACE('',(#194),#163,.T.);
#641=ADVANCED_FACE('',(#195),#164,.T.);
#642=ADVANCED_FACE('',(#196),#165,.T.);
#643=ADVANCED_FACE('',(#197),#166,.F.);
#644=ADVANCED_FACE('',(#198),#32,.T.);
#645=ADVANCED_FACE('',(#199),#167,.F.);
#646=ADVANCED_FACE('',(#200),#33,.T.);
#647=ADVANCED_FACE('',(#201),#34,.F.);
#648=ADVANCED_FACE('',(#202),#35,.T.);
#649=CLOSED_SHELL('',(#614,#615,#616,#617,#618,#619,#620,#621,#622,#623,
#624,#625,#626,#627,#628,#629,#630,#631,#632,#633,#634,#635,#636,#637,#638,
#639,#640,#641,#642,#643,#644,#645,#646,#647,#648));
#650=DERIVED_UNIT_ELEMENT(#652,1.);
#651=DERIVED_UNIT_ELEMENT(#1125,-3.);
#652=(
MASS_UNIT()
NAMED_UNIT(*)
SI_UNIT(.KILO.,.GRAM.)
);
#653=DERIVED_UNIT((#650,#651));
#654=MEASURE_REPRESENTATION_ITEM('density measure',
POSITIVE_RATIO_MEASURE(7850.),#653);
#655=PROPERTY_DEFINITION_REPRESENTATION(#660,#657);
#656=PROPERTY_DEFINITION_REPRESENTATION(#661,#658);
#657=REPRESENTATION('material name',(#659),#1122);
#658=REPRESENTATION('density',(#654),#1122);
#659=DESCRIPTIVE_REPRESENTATION_ITEM('Steel','Steel');
#660=PROPERTY_DEFINITION('material property','material name',#1132);
#661=PROPERTY_DEFINITION('material property','density of part',#1132);
#662=AXIS2_PLACEMENT_3D('',#930,#732,#733);
#663=AXIS2_PLACEMENT_3D('',#931,#734,#735);
#664=AXIS2_PLACEMENT_3D('',#933,#736,#737);
#665=AXIS2_PLACEMENT_3D('',#935,#738,#739);
#666=AXIS2_PLACEMENT_3D('',#936,#740,#741);
#667=AXIS2_PLACEMENT_3D('',#938,#742,#743);
#668=AXIS2_PLACEMENT_3D('',#941,#745,#746);
#669=AXIS2_PLACEMENT_3D('',#942,#747,#748);
#670=AXIS2_PLACEMENT_3D('',#944,#749,#750);
#671=AXIS2_PLACEMENT_3D('',#947,#752,#753);
#672=AXIS2_PLACEMENT_3D('',#948,#754,#755);
#673=AXIS2_PLACEMENT_3D('',#951,#756,#757);
#674=AXIS2_PLACEMENT_3D('',#955,#759,#760);
#675=AXIS2_PLACEMENT_3D('',#957,#762,#763);
#676=AXIS2_PLACEMENT_3D('',#960,#764,#765);
#677=AXIS2_PLACEMENT_3D('',#964,#767,#768);
#678=AXIS2_PLACEMENT_3D('',#966,#770,#771);
#679=AXIS2_PLACEMENT_3D('',#969,#772,#773);
#680=AXIS2_PLACEMENT_3D('',#973,#775,#776);
#681=AXIS2_PLACEMENT_3D('',#975,#778,#779);
#682=AXIS2_PLACEMENT_3D('',#978,#780,#781);
#683=AXIS2_PLACEMENT_3D('',#982,#783,#784);
#684=AXIS2_PLACEMENT_3D('',#984,#786,#787);
#685=AXIS2_PLACEMENT_3D('',#989,#789,#790);
#686=AXIS2_PLACEMENT_3D('',#993,#792,#793);
#687=AXIS2_PLACEMENT_3D('',#997,#795,#796);
#688=AXIS2_PLACEMENT_3D('',#1001,#798,#799);
#689=AXIS2_PLACEMENT_3D('',#1006,#802,#803);
#690=AXIS2_PLACEMENT_3D('',#1010,#805,#806);
#691=AXIS2_PLACEMENT_3D('',#1017,#811,#812);
#692=AXIS2_PLACEMENT_3D('',#1020,#814,#815);
#693=AXIS2_PLACEMENT_3D('',#1021,#816,#817);
#694=AXIS2_PLACEMENT_3D('',#1036,#824,#825);
#695=AXIS2_PLACEMENT_3D('',#1040,#827,#828);
#696=AXIS2_PLACEMENT_3D('',#1047,#833,#834);
#697=AXIS2_PLACEMENT_3D('',#1051,#836,#837);
#698=AXIS2_PLACEMENT_3D('',#1056,#840,#841);
#699=AXIS2_PLACEMENT_3D('',#1060,#843,#844);
#700=AXIS2_PLACEMENT_3D('',#1064,#846,#847);
#701=AXIS2_PLACEMENT_3D('',#1068,#849,#850);
#702=AXIS2_PLACEMENT_3D('',#1074,#854,#855);
#703=AXIS2_PLACEMENT_3D('',#1077,#858,#859);
#704=AXIS2_PLACEMENT_3D('',#1078,#860,#861);
#705=AXIS2_PLACEMENT_3D('',#1079,#862,#863);
#706=AXIS2_PLACEMENT_3D('',#1082,#866,#867);
#707=AXIS2_PLACEMENT_3D('',#1085,#870,#871);
#708=AXIS2_PLACEMENT_3D('',#1087,#873,#874);
#709=AXIS2_PLACEMENT_3D('',#1089,#876,#877);
#710=AXIS2_PLACEMENT_3D('',#1092,#880,#881);
#711=AXIS2_PLACEMENT_3D('',#1094,#883,#884);
#712=AXIS2_PLACEMENT_3D('',#1096,#886,#887);
#713=AXIS2_PLACEMENT_3D('',#1098,#889,#890);
#714=AXIS2_PLACEMENT_3D('',#1100,#892,#893);
#715=AXIS2_PLACEMENT_3D('',#1102,#895,#896);
#716=AXIS2_PLACEMENT_3D('',#1104,#898,#899);
#717=AXIS2_PLACEMENT_3D('',#1105,#900,#901);
#718=AXIS2_PLACEMENT_3D('',#1106,#902,#903);
#719=AXIS2_PLACEMENT_3D('',#1107,#904,#905);
#720=AXIS2_PLACEMENT_3D('',#1108,#906,#907);
#721=AXIS2_PLACEMENT_3D('',#1109,#908,#909);
#722=AXIS2_PLACEMENT_3D('',#1110,#910,#911);
#723=AXIS2_PLACEMENT_3D('',#1111,#912,#913);
#724=AXIS2_PLACEMENT_3D('',#1112,#914,#915);
#725=AXIS2_PLACEMENT_3D('',#1113,#916,#917);
#726=AXIS2_PLACEMENT_3D('',#1114,#918,#919);
#727=AXIS2_PLACEMENT_3D('',#1115,#920,#921);
#728=AXIS2_PLACEMENT_3D('',#1116,#922,#923);
#729=AXIS2_PLACEMENT_3D('',#1117,#924,#925);
#730=AXIS2_PLACEMENT_3D('',#1118,#926,#927);
#731=AXIS2_PLACEMENT_3D('',#1119,#928,#929);
#732=DIRECTION('axis',(0.,0.,1.));
#733=DIRECTION('refdir',(1.,0.,0.));
#734=DIRECTION('center_axis',(6.12323399573677E-17,0.,1.));
#735=DIRECTION('ref_axis',(1.,0.,0.));
#736=DIRECTION('center_axis',(0.,0.,1.));
#737=DIRECTION('ref_axis',(-1.,0.,0.));
#738=DIRECTION('center_axis',(-1.22464679914735E-16,1.,0.));
#739=DIRECTION('ref_axis',(-1.,-1.22464679914735E-16,0.));
#740=DIRECTION('center_axis',(-1.,0.,0.));
#741=DIRECTION('ref_axis',(0.,0.,1.));
#742=DIRECTION('center_axis',(-1.,0.,0.));
#743=DIRECTION('ref_axis',(0.,0.,1.));
#744=DIRECTION('',(-1.,0.,0.));
#745=DIRECTION('center_axis',(-1.,0.,0.));
#746=DIRECTION('ref_axis',(0.,0.,1.));
#747=DIRECTION('center_axis',(-1.,0.,0.));
#748=DIRECTION('ref_axis',(0.,0.,1.));
#749=DIRECTION('center_axis',(-1.,0.,0.));
#750=DIRECTION('ref_axis',(0.,0.,-1.));
#751=DIRECTION('',(-1.,0.,0.));
#752=DIRECTION('center_axis',(-1.,0.,0.));
#753=DIRECTION('ref_axis',(0.,0.,-1.));
#754=DIRECTION('center_axis',(0.,0.,-1.));
#755=DIRECTION('ref_axis',(-1.,0.,0.));
#756=DIRECTION('center_axis',(0.,0.,1.));
#757=DIRECTION('ref_axis',(-1.,0.,0.));
#758=DIRECTION('',(0.,0.,1.));
#759=DIRECTION('center_axis',(0.,0.,-1.));
#760=DIRECTION('ref_axis',(-1.,0.,0.));
#761=DIRECTION('',(0.,0.,-1.));
#762=DIRECTION('center_axis',(0.,0.,1.));
#763=DIRECTION('ref_axis',(1.,0.,0.));
#764=DIRECTION('center_axis',(0.,0.,-1.));
#765=DIRECTION('ref_axis',(-1.,0.,0.));
#766=DIRECTION('',(0.,0.,-1.));
#767=DIRECTION('center_axis',(0.,0.,1.));
#768=DIRECTION('ref_axis',(-1.,0.,0.));
#769=DIRECTION('',(0.,0.,1.));
#770=DIRECTION('center_axis',(0.,0.,1.));
#771=DIRECTION('ref_axis',(1.,0.,0.));
#772=DIRECTION('center_axis',(0.,0.,1.));
#773=DIRECTION('ref_axis',(-1.,0.,0.));
#774=DIRECTION('',(0.,0.,1.));
#775=DIRECTION('center_axis',(0.,0.,-1.));
#776=DIRECTION('ref_axis',(1.,0.,0.));
#777=DIRECTION('',(0.,0.,1.));
#778=DIRECTION('center_axis',(0.,0.,1.));
#779=DIRECTION('ref_axis',(1.,0.,0.));
#780=DIRECTION('center_axis',(0.,0.,-1.));
#781=DIRECTION('ref_axis',(-1.,0.,0.));
#782=DIRECTION('',(0.,0.,1.));
#783=DIRECTION('center_axis',(0.,0.,1.));
#784=DIRECTION('ref_axis',(1.,0.,0.));
#785=DIRECTION('',(0.,0.,1.));
#786=DIRECTION('center_axis',(0.,0.,-1.));
#787=DIRECTION('ref_axis',(-1.,0.,0.));
#788=DIRECTION('',(0.,1.,0.));
#789=DIRECTION('center_axis',(0.,0.,1.));
#790=DIRECTION('ref_axis',(-1.,0.,0.));
#791=DIRECTION('',(-0.866342872454369,-0.499449724544436,0.));
#792=DIRECTION('center_axis',(0.,0.,-1.));
#793=DIRECTION('ref_axis',(-1.,0.,0.));
#794=DIRECTION('',(0.791430870245801,0.611258683064685,0.));
#795=DIRECTION('center_axis',(0.,0.,1.));
#796=DIRECTION('ref_axis',(-1.,0.,0.));
#797=DIRECTION('',(-1.,0.,0.));
#798=DIRECTION('center_axis',(0.,0.,1.));
#799=DIRECTION('ref_axis',(-1.,0.,0.));
#800=DIRECTION('',(-0.791430870245801,0.611258683064685,0.));
#801=DIRECTION('',(0.866342872454369,-0.499449724544436,0.));
#802=DIRECTION('center_axis',(0.,0.,1.));
#803=DIRECTION('ref_axis',(-1.,0.,0.));
#804=DIRECTION('',(0.,-1.,0.));
#805=DIRECTION('center_axis',(0.,0.,1.));
#806=DIRECTION('ref_axis',(-1.,0.,0.));
#807=DIRECTION('',(0.866342872454369,0.499449724544436,0.));
#808=DIRECTION('',(-0.791430870245801,-0.611258683064685,0.));
#809=DIRECTION('',(1.,0.,0.));
#810=DIRECTION('',(0.791430870245801,-0.611258683064685,0.));
#811=DIRECTION('center_axis',(0.,0.,1.));
#812=DIRECTION('ref_axis',(-1.,0.,0.));
#813=DIRECTION('',(-0.866342872454369,0.499449724544436,0.));
#814=DIRECTION('center_axis',(0.,0.,1.));
#815=DIRECTION('ref_axis',(-1.,0.,0.));
#816=DIRECTION('center_axis',(0.,0.,-1.));
#817=DIRECTION('ref_axis',(-1.,0.,0.));
#818=DIRECTION('',(1.,0.,0.));
#819=DIRECTION('',(0.,-1.,0.));
#820=DIRECTION('',(-1.,0.,0.));
#821=DIRECTION('',(0.,-1.,0.));
#822=DIRECTION('',(-1.,0.,0.));
#823=DIRECTION('',(0.,1.,0.));
#824=DIRECTION('center_axis',(0.,0.,-1.));
#825=DIRECTION('ref_axis',(-1.,0.,0.));
#826=DIRECTION('',(0.866342872454369,-0.499449724544436,0.));
#827=DIRECTION('center_axis',(0.,0.,-1.));
#828=DIRECTION('ref_axis',(-1.,0.,0.));
#829=DIRECTION('',(-0.791430870245801,0.611258683064685,0.));
#830=DIRECTION('',(1.,0.,0.));
#831=DIRECTION('',(0.791430870245801,0.611258683064685,0.));
#832=DIRECTION('',(-0.866342872454369,-0.499449724544436,0.));
#833=DIRECTION('center_axis',(0.,0.,-1.));
#834=DIRECTION('ref_axis',(-1.,0.,0.));
#835=DIRECTION('',(0.,-1.,0.));
#836=DIRECTION('center_axis',(0.,0.,-1.));
#837=DIRECTION('ref_axis',(-1.,0.,0.));
#838=DIRECTION('',(-0.866342872454369,0.499449724544436,0.));
#839=DIRECTION('',(0.791430870245801,-0.611258683064685,0.));
#840=DIRECTION('center_axis',(0.,0.,-1.));
#841=DIRECTION('ref_axis',(-1.,0.,0.));
#842=DIRECTION('',(-1.,0.,0.));
#843=DIRECTION('center_axis',(0.,0.,-1.));
#844=DIRECTION('ref_axis',(-1.,0.,0.));
#845=DIRECTION('',(-0.791430870245801,-0.611258683064685,0.));
#846=DIRECTION('center_axis',(0.,0.,1.));
#847=DIRECTION('ref_axis',(-1.,3.42661427353441E-15,0.));
#848=DIRECTION('',(0.866342872454369,0.499449724544436,0.));
#849=DIRECTION('center_axis',(0.,0.,-1.));
#850=DIRECTION('ref_axis',(-1.,0.,0.));
#851=DIRECTION('',(0.,1.,0.));
#852=DIRECTION('',(1.,0.,0.));
#853=DIRECTION('',(0.,-1.,0.));
#854=DIRECTION('center_axis',(1.,0.,0.));
#855=DIRECTION('ref_axis',(0.,0.,-1.));
#856=DIRECTION('',(0.,0.,1.));
#857=DIRECTION('',(0.,0.,-1.));
#858=DIRECTION('center_axis',(0.,1.,0.));
#859=DIRECTION('ref_axis',(0.,0.,1.));
#860=DIRECTION('center_axis',(-1.,0.,0.));
#861=DIRECTION('ref_axis',(0.,0.,1.));
#862=DIRECTION('center_axis',(1.,0.,0.));
#863=DIRECTION('ref_axis',(0.,0.,-1.));
#864=DIRECTION('',(0.,0.,1.));
#865=DIRECTION('',(0.,0.,-1.));
#866=DIRECTION('center_axis',(0.,-1.,0.));
#867=DIRECTION('ref_axis',(0.,0.,-1.));
#868=DIRECTION('',(0.,0.,-1.));
#869=DIRECTION('',(0.,0.,1.));
#870=DIRECTION('center_axis',(0.611258683064686,0.791430870245801,0.));
#871=DIRECTION('ref_axis',(-0.791430870245801,0.611258683064686,0.));
#872=DIRECTION('',(0.,0.,-1.));
#873=DIRECTION('center_axis',(-0.499449724544436,-0.866342872454369,0.));
#874=DIRECTION('ref_axis',(0.866342872454369,-0.499449724544436,0.));
#875=DIRECTION('',(0.,0.,1.));
#876=DIRECTION('center_axis',(-0.499449724544436,0.866342872454369,0.));
#877=DIRECTION('ref_axis',(-0.866342872454369,-0.499449724544436,0.));
#878=DIRECTION('',(0.,0.,-1.));
#879=DIRECTION('',(0.,0.,1.));
#880=DIRECTION('center_axis',(0.,0.,1.));
#881=DIRECTION('ref_axis',(-0.830769977970961,-0.556615885240557,0.));
#882=DIRECTION('',(0.,0.,1.));
#883=DIRECTION('center_axis',(0.611258683064686,-0.791430870245801,0.));
#884=DIRECTION('ref_axis',(0.791430870245801,0.611258683064686,0.));
#885=DIRECTION('',(0.,0.,1.));
#886=DIRECTION('center_axis',(-0.611258683064686,-0.791430870245801,0.));
#887=DIRECTION('ref_axis',(0.791430870245801,-0.611258683064686,0.));
#888=DIRECTION('',(0.,0.,1.));
#889=DIRECTION('center_axis',(0.,0.,1.));
#890=DIRECTION('ref_axis',(-0.830769977970961,0.556615885240557,0.));
#891=DIRECTION('',(0.,0.,1.));
#892=DIRECTION('center_axis',(0.499449724544436,0.866342872454369,0.));
#893=DIRECTION('ref_axis',(-0.866342872454369,0.499449724544436,0.));
#894=DIRECTION('',(0.,0.,1.));
#895=DIRECTION('center_axis',(0.499449724544436,-0.866342872454369,0.));
#896=DIRECTION('ref_axis',(0.866342872454369,0.499449724544436,0.));
#897=DIRECTION('',(0.,0.,-1.));
#898=DIRECTION('center_axis',(-0.611258683064686,0.791430870245801,0.));
#899=DIRECTION('ref_axis',(-0.791430870245801,-0.611258683064686,0.));
#900=DIRECTION('center_axis',(0.,0.,-1.));
#901=DIRECTION('ref_axis',(-1.,0.,0.));
#902=DIRECTION('center_axis',(0.,0.,-1.));
#903=DIRECTION('ref_axis',(0.946422440098977,0.322931207654351,0.));
#904=DIRECTION('center_axis',(0.,0.,1.));
#905=DIRECTION('ref_axis',(1.,0.,0.));
#906=DIRECTION('center_axis',(0.,0.,-1.));
#907=DIRECTION('ref_axis',(-1.,0.,0.));
#908=DIRECTION('center_axis',(0.,0.,1.));
#909=DIRECTION('ref_axis',(1.,0.,0.));
#910=DIRECTION('center_axis',(0.,0.,1.));
#911=DIRECTION('ref_axis',(-0.946422440098977,0.322931207654351,0.));
#912=DIRECTION('center_axis',(1.,0.,0.));
#913=DIRECTION('ref_axis',(0.,1.22464679914735E-16,1.));
#914=DIRECTION('center_axis',(1.,0.,0.));
#915=DIRECTION('ref_axis',(0.,0.,-1.));
#916=DIRECTION('center_axis',(1.,0.,0.));
#917=DIRECTION('ref_axis',(0.,0.,-1.));
#918=DIRECTION('center_axis',(1.,0.,0.));
#919=DIRECTION('ref_axis',(0.,0.,-1.));
#920=DIRECTION('center_axis',(1.,0.,0.));
#921=DIRECTION('ref_axis',(0.,1.22464679914735E-16,1.));
#922=DIRECTION('center_axis',(1.,0.,0.));
#923=DIRECTION('ref_axis',(0.,0.,-1.));
#924=DIRECTION('center_axis',(1.,0.,0.));
#925=DIRECTION('ref_axis',(0.,0.,-1.));
#926=DIRECTION('center_axis',(1.,0.,0.));
#927=DIRECTION('ref_axis',(0.,0.,-1.));
#928=DIRECTION('center_axis',(-1.,0.,0.));
#929=DIRECTION('ref_axis',(0.,0.,1.));
#930=CARTESIAN_POINT('',(0.,0.,0.));
#931=CARTESIAN_POINT('Origin',(0.,0.,0.));
#932=CARTESIAN_POINT('',(-28.,-3.42901103761259E-15,0.));
#933=CARTESIAN_POINT('Origin',(0.,0.,0.));
#934=CARTESIAN_POINT('',(-1.71450551880629E-15,-2.0996636957266E-31,28.));
#935=CARTESIAN_POINT('Origin',(0.,0.,0.));
#936=CARTESIAN_POINT('Origin',(-40.,23.5,23.5));
#937=CARTESIAN_POINT('',(-40.,23.5,21.));
#938=CARTESIAN_POINT('Origin',(-40.,23.5,23.5));
#939=CARTESIAN_POINT('',(-60.,23.5,21.));
#940=CARTESIAN_POINT('',(-40.,23.5,21.));
#941=CARTESIAN_POINT('Origin',(-60.,23.5,23.5));
#942=CARTESIAN_POINT('Origin',(-40.,-23.5,23.5));
#943=CARTESIAN_POINT('',(-40.,-23.5,21.));
#944=CARTESIAN_POINT('Origin',(-40.,-23.5,23.5));
#945=CARTESIAN_POINT('',(-60.,-23.5,21.));
#946=CARTESIAN_POINT('',(-40.,-23.5,21.));
#947=CARTESIAN_POINT('Origin',(-60.,-23.5,23.5));
#948=CARTESIAN_POINT('Origin',(-52.0964069672459,-41.5,-40.));
#949=CARTESIAN_POINT('',(-52.7076656503106,-40.7085691297542,30.));
#950=CARTESIAN_POINT('',(-52.0964069672459,-42.5,30.));
#951=CARTESIAN_POINT('Origin',(-52.0964069672459,-41.5,30.));
#952=CARTESIAN_POINT('',(-52.7076656503107,-40.7085691297541,0.));
#953=CARTESIAN_POINT('',(-52.7076656503106,-40.7085691297542,30.));
#954=CARTESIAN_POINT('',(-52.0964069672459,-42.5,0.));
#955=CARTESIAN_POINT('Origin',(-52.0964069672459,-41.5,0.));
#956=CARTESIAN_POINT('',(-52.0964069672459,-42.5,0.));
#957=CARTESIAN_POINT('Origin',(52.0964069672459,-41.5,30.));
#958=CARTESIAN_POINT('',(52.7076656503107,-40.7085691297541,0.));
#959=CARTESIAN_POINT('',(52.0964069672459,-42.5,0.));
#960=CARTESIAN_POINT('Origin',(52.0964069672459,-41.5,0.));
#961=CARTESIAN_POINT('',(52.7076656503106,-40.7085691297542,30.));
#962=CARTESIAN_POINT('',(52.7076656503106,-40.7085691297542,-40.));
#963=CARTESIAN_POINT('',(52.0964069672459,-42.5,30.));
#964=CARTESIAN_POINT('Origin',(52.0964069672459,-41.5,30.));
#965=CARTESIAN_POINT('',(52.0964069672459,-42.5,30.));
#966=CARTESIAN_POINT('Origin',(-50.,-33.5,-40.));
#967=CARTESIAN_POINT('',(-47.524402333588,-36.7052950244955,0.));
#968=CARTESIAN_POINT('',(-52.022771384405,-29.9913113665598,0.));
#969=CARTESIAN_POINT('Origin',(-50.,-33.5,0.));
#970=CARTESIAN_POINT('',(-47.524402333588,-36.7052950244955,30.));
#971=CARTESIAN_POINT('',(-47.524402333588,-36.7052950244955,-40.));
#972=CARTESIAN_POINT('',(-52.022771384405,-29.9913113665598,30.));
#973=CARTESIAN_POINT('Origin',(-50.,-33.5,30.));
#974=CARTESIAN_POINT('',(-52.022771384405,-29.9913113665598,-40.));
#975=CARTESIAN_POINT('Origin',(-50.,33.5,-40.));
#976=CARTESIAN_POINT('',(-47.524402333588,36.7052950244955,0.));
#977=CARTESIAN_POINT('',(-52.022771384405,29.9913113665598,0.));
#978=CARTESIAN_POINT('Origin',(-50.,33.5,0.));
#979=CARTESIAN_POINT('',(-52.022771384405,29.9913113665598,30.));
#980=CARTESIAN_POINT('',(-52.022771384405,29.9913113665598,-40.));
#981=CARTESIAN_POINT('',(-47.524402333588,36.7052950244955,30.));
#982=CARTESIAN_POINT('Origin',(-50.,33.5,30.));
#983=CARTESIAN_POINT('',(-47.524402333588,36.7052950244955,-40.));
#984=CARTESIAN_POINT('Origin',(0.,0.,30.));
#985=CARTESIAN_POINT('',(60.,-32.859430894228,30.));
#986=CARTESIAN_POINT('',(60.,32.859430894228,30.));
#987=CARTESIAN_POINT('',(60.,42.5,30.));
#988=CARTESIAN_POINT('',(58.5005502754556,33.7257737666823,30.));
#989=CARTESIAN_POINT('Origin',(59.,32.859430894228,30.));
#990=CARTESIAN_POINT('',(52.022771384405,29.9913113665598,30.));
#991=CARTESIAN_POINT('',(52.022771384405,29.9913113665598,30.));
#992=CARTESIAN_POINT('',(47.524402333588,36.7052950244955,30.));
#993=CARTESIAN_POINT('Origin',(50.,33.5,30.));
#994=CARTESIAN_POINT('',(52.7076656503106,40.7085691297542,30.));
#995=CARTESIAN_POINT('',(47.524402333588,36.7052950244955,30.));
#996=CARTESIAN_POINT('',(52.0964069672459,42.5,30.));
#997=CARTESIAN_POINT('Origin',(52.0964069672459,41.5,30.));
#998=CARTESIAN_POINT('',(-52.0964069672459,42.5,30.));
#999=CARTESIAN_POINT('',(60.,42.5,30.));
#1000=CARTESIAN_POINT('',(-52.7076656503106,40.7085691297542,30.));
#1001=CARTESIAN_POINT('Origin',(-52.0964069672459,41.5,30.));
#1002=CARTESIAN_POINT('',(-47.524402333588,36.7052950244955,30.));
#1003=CARTESIAN_POINT('',(-58.5005502754555,33.7257737666823,30.));
#1004=CARTESIAN_POINT('',(-52.022771384405,29.9913113665598,30.));
#1005=CARTESIAN_POINT('',(-60.,32.8594308942279,30.));
#1006=CARTESIAN_POINT('Origin',(-59.,32.8594308942279,30.));
#1007=CARTESIAN_POINT('',(-60.,-32.8594308942279,30.));
#1008=CARTESIAN_POINT('',(-60.,42.5,30.));
#1009=CARTESIAN_POINT('',(-58.5005502754555,-33.7257737666823,30.));
#1010=CARTESIAN_POINT('Origin',(-59.,-32.8594308942279,30.));
#1011=CARTESIAN_POINT('',(-52.022771384405,-29.9913113665598,30.));
#1012=CARTESIAN_POINT('',(-47.524402333588,-36.7052950244955,30.));
#1013=CARTESIAN_POINT('',(60.,-42.5,30.));
#1014=CARTESIAN_POINT('',(47.524402333588,-36.7052950244955,30.));
#1015=CARTESIAN_POINT('',(47.524402333588,-36.7052950244955,30.));
#1016=CARTESIAN_POINT('',(52.022771384405,-29.9913113665598,30.));
#1017=CARTESIAN_POINT('Origin',(50.,-33.5,30.));
#1018=CARTESIAN_POINT('',(58.5005502754556,-33.7257737666823,30.));
#1019=CARTESIAN_POINT('',(52.022771384405,-29.9913113665598,30.));
#1020=CARTESIAN_POINT('Origin',(59.,-32.859430894228,30.));
#1021=CARTESIAN_POINT('Origin',(0.,0.,0.));
#1022=CARTESIAN_POINT('',(49.,15.,0.));
#1023=CARTESIAN_POINT('',(58.,15.,0.));
#1024=CARTESIAN_POINT('',(49.,15.,0.));
#1025=CARTESIAN_POINT('',(49.,-15.,0.));
#1026=CARTESIAN_POINT('',(49.,0.,0.));
#1027=CARTESIAN_POINT('',(58.,-15.,0.));
#1028=CARTESIAN_POINT('',(49.,-15.,0.));
#1029=CARTESIAN_POINT('',(58.,-21.025,0.));
#1030=CARTESIAN_POINT('',(58.,0.,0.));
#1031=CARTESIAN_POINT('',(60.,-21.025,0.));
#1032=CARTESIAN_POINT('',(58.,-21.025,0.));
#1033=CARTESIAN_POINT('',(60.,-32.859430894228,0.));
#1034=CARTESIAN_POINT('',(60.,42.5,0.));
#1035=CARTESIAN_POINT('',(58.5005502754554,-33.7257737666827,0.));
#1036=CARTESIAN_POINT('Origin',(59.,-32.859430894228,0.));
#1037=CARTESIAN_POINT('',(52.022771384405,-29.9913113665598,0.));
#1038=CARTESIAN_POINT('',(0.,0.,0.));
#1039=CARTESIAN_POINT('',(47.524402333588,-36.7052950244955,0.));
#1040=CARTESIAN_POINT('Origin',(50.,-33.5,0.));
#1041=CARTESIAN_POINT('',(0.,0.,0.));
#1042=CARTESIAN_POINT('',(60.,-42.5,0.));
#1043=CARTESIAN_POINT('',(0.,0.,0.));
#1044=CARTESIAN_POINT('',(-58.5005502754553,-33.7257737666827,0.));
#1045=CARTESIAN_POINT('',(0.,0.,0.));
#1046=CARTESIAN_POINT('',(-60.,-32.8594308942279,0.));
#1047=CARTESIAN_POINT('Origin',(-59.,-32.8594308942279,0.));
#1048=CARTESIAN_POINT('',(-60.,32.8594308942279,0.));
#1049=CARTESIAN_POINT('',(-60.,42.5,0.));
#1050=CARTESIAN_POINT('',(-58.5005502754553,33.7257737666827,0.));
#1051=CARTESIAN_POINT('Origin',(-59.,32.8594308942279,0.));
#1052=CARTESIAN_POINT('',(0.,0.,0.));
#1053=CARTESIAN_POINT('',(-52.7076656503107,40.7085691297541,0.));
#1054=CARTESIAN_POINT('',(0.,0.,0.));
#1055=CARTESIAN_POINT('',(-52.0964069672459,42.5,0.));
#1056=CARTESIAN_POINT('Origin',(-52.0964069672459,41.5,0.));
#1057=CARTESIAN_POINT('',(52.0964069672459,42.5,0.));
#1058=CARTESIAN_POINT('',(60.,42.5,0.));
#1059=CARTESIAN_POINT('',(52.7076656503107,40.7085691297541,0.));
#1060=CARTESIAN_POINT('Origin',(52.0964069672459,41.5,0.));
#1061=CARTESIAN_POINT('',(47.524402333588,36.7052950244955,0.));
#1062=CARTESIAN_POINT('',(0.,0.,0.));
#1063=CARTESIAN_POINT('',(52.022771384405,29.9913113665598,0.));
#1064=CARTESIAN_POINT('Origin',(50.,33.5,0.));
#1065=CARTESIAN_POINT('',(58.5005502754554,33.7257737666827,0.));
#1066=CARTESIAN_POINT('',(0.,0.,0.));
#1067=CARTESIAN_POINT('',(60.,32.859430894228,0.));
#1068=CARTESIAN_POINT('Origin',(59.,32.859430894228,0.));
#1069=CARTESIAN_POINT('',(60.,21.025,0.));
#1070=CARTESIAN_POINT('',(60.,42.5,0.));
#1071=CARTESIAN_POINT('',(58.,21.025,0.));
#1072=CARTESIAN_POINT('',(58.,21.025,0.));
#1073=CARTESIAN_POINT('',(58.,0.,0.));
#1074=CARTESIAN_POINT('Origin',(-60.,42.5,30.));
#1075=CARTESIAN_POINT('',(-60.,-32.8594308942279,30.));
#1076=CARTESIAN_POINT('',(-60.,32.8594308942279,30.));
#1077=CARTESIAN_POINT('Origin',(60.,-42.5,30.));
#1078=CARTESIAN_POINT('Origin',(60.,42.5,30.));
#1079=CARTESIAN_POINT('Origin',(60.,0.,0.));
#1080=CARTESIAN_POINT('',(60.,32.859430894228,30.));
#1081=CARTESIAN_POINT('',(60.,-32.859430894228,30.));
#1082=CARTESIAN_POINT('Origin',(60.,42.5,30.));
#1083=CARTESIAN_POINT('',(52.0964069672459,42.5,0.));
#1084=CARTESIAN_POINT('',(-52.0964069672459,42.5,30.));
#1085=CARTESIAN_POINT('Origin',(-47.524402333588,36.7052950244955,-40.));
#1086=CARTESIAN_POINT('',(-52.7076656503106,40.7085691297542,-40.));
#1087=CARTESIAN_POINT('Origin',(-52.022771384405,29.9913113665598,-40.));
#1088=CARTESIAN_POINT('',(-58.5005502754555,33.7257737666823,-40.));
#1089=CARTESIAN_POINT('Origin',(52.022771384405,29.9913113665598,-40.));
#1090=CARTESIAN_POINT('',(58.5005502754556,33.7257737666823,0.));
#1091=CARTESIAN_POINT('',(52.022771384405,29.9913113665598,-40.));
#1092=CARTESIAN_POINT('Origin',(50.,33.5,-40.));
#1093=CARTESIAN_POINT('',(47.524402333588,36.7052950244955,-40.));
#1094=CARTESIAN_POINT('Origin',(47.524402333588,36.7052950244955,-40.));
#1095=CARTESIAN_POINT('',(52.7076656503106,40.7085691297542,30.));
#1096=CARTESIAN_POINT('Origin',(47.524402333588,-36.7052950244955,-40.));
#1097=CARTESIAN_POINT('',(47.524402333588,-36.7052950244955,-40.));
#1098=CARTESIAN_POINT('Origin',(50.,-33.5,-40.));
#1099=CARTESIAN_POINT('',(52.022771384405,-29.9913113665598,-40.));
#1100=CARTESIAN_POINT('Origin',(52.022771384405,-29.9913113665598,-40.));
#1101=CARTESIAN_POINT('',(58.5005502754556,-33.7257737666823,-40.));
#1102=CARTESIAN_POINT('Origin',(-52.022771384405,-29.9913113665598,-40.));
#1103=CARTESIAN_POINT('',(-58.5005502754555,-33.7257737666823,0.));
#1104=CARTESIAN_POINT('Origin',(-47.524402333588,-36.7052950244955,-40.));
#1105=CARTESIAN_POINT('Origin',(59.,32.859430894228,30.));
#1106=CARTESIAN_POINT('Origin',(52.0964069672459,41.5,-40.));
#1107=CARTESIAN_POINT('Origin',(59.,-32.859430894228,-40.));
#1108=CARTESIAN_POINT('Origin',(-59.,-32.8594308942279,30.));
#1109=CARTESIAN_POINT('Origin',(-59.,32.8594308942279,-40.));
#1110=CARTESIAN_POINT('Origin',(-52.0964069672459,41.5,30.));
#1111=CARTESIAN_POINT('Origin',(58.,0.,0.));
#1112=CARTESIAN_POINT('Origin',(58.,0.,0.));
#1113=CARTESIAN_POINT('Origin',(58.,0.,0.));
#1114=CARTESIAN_POINT('Origin',(58.,0.,0.));
#1115=CARTESIAN_POINT('Origin',(49.,0.,0.));
#1116=CARTESIAN_POINT('Origin',(49.,0.,0.));
#1117=CARTESIAN_POINT('Origin',(49.,0.,0.));
#1118=CARTESIAN_POINT('Origin',(-40.,-23.5,23.5));
#1119=CARTESIAN_POINT('Origin',(-40.,23.5,23.5));
#1120=UNCERTAINTY_MEASURE_WITH_UNIT(LENGTH_MEASURE(0.01),#1124,
'DISTANCE_ACCURACY_VALUE',
'Maximum model space distance between geometric entities at asserted c
onnectivities');
#1121=UNCERTAINTY_MEASURE_WITH_UNIT(LENGTH_MEASURE(0.01),#1124,
'DISTANCE_ACCURACY_VALUE',
'Maximum model space distance between geometric entities at asserted c
onnectivities');
#1122=(
GEOMETRIC_REPRESENTATION_CONTEXT(3)
GLOBAL_UNCERTAINTY_ASSIGNED_CONTEXT((#1120))
GLOBAL_UNIT_ASSIGNED_CONTEXT((#1124,#1126,#1127))
REPRESENTATION_CONTEXT('','3D')
);
#1123=(
GEOMETRIC_REPRESENTATION_CONTEXT(3)
GLOBAL_UNCERTAINTY_ASSIGNED_CONTEXT((#1121))
GLOBAL_UNIT_ASSIGNED_CONTEXT((#1124,#1126,#1127))
REPRESENTATION_CONTEXT('','3D')
);
#1124=(
LENGTH_UNIT()
NAMED_UNIT(*)
SI_UNIT(.MILLI.,.METRE.)
);
#1125=(
LENGTH_UNIT()
NAMED_UNIT(*)
SI_UNIT($,.METRE.)
);
#1126=(
NAMED_UNIT(*)
PLANE_ANGLE_UNIT()
SI_UNIT($,.RADIAN.)
);
#1127=(
NAMED_UNIT(*)
SI_UNIT($,.STERADIAN.)
SOLID_ANGLE_UNIT()
);
#1128=SHAPE_DEFINITION_REPRESENTATION(#1129,#1130);
#1129=PRODUCT_DEFINITION_SHAPE('',$,#1132);
#1130=SHAPE_REPRESENTATION('',(#662),#1122);
#1131=PRODUCT_DEFINITION_CONTEXT('part definition',#1136,'design');
#1132=PRODUCT_DEFINITION('512_HopperStepperMount-85-115-40d-30h',
'512_HopperStepperMount-85-115-40d-30h v1',#1133,#1131);
#1133=PRODUCT_DEFINITION_FORMATION('',$,#1138);
#1134=PRODUCT_RELATED_PRODUCT_CATEGORY(
'512_HopperStepperMount-85-115-40d-30h v1',
'512_HopperStepperMount-85-115-40d-30h v1',(#1138));
#1135=APPLICATION_PROTOCOL_DEFINITION('international standard',
'automotive_design',2009,#1136);
#1136=APPLICATION_CONTEXT(
'Core Data for Automotive Mechanical Design Process');
#1137=PRODUCT_CONTEXT('part definition',#1136,'mechanical');
#1138=PRODUCT('512_HopperStepperMount-85-115-40d-30h',
'512_HopperStepperMount-85-115-40d-30h v1',$,(#1137));
#1139=PRESENTATION_STYLE_ASSIGNMENT((#1141));
#1140=PRESENTATION_STYLE_ASSIGNMENT((#1142));
#1141=SURFACE_STYLE_USAGE(.BOTH.,#1143);
#1142=SURFACE_STYLE_USAGE(.BOTH.,#1144);
#1143=SURFACE_SIDE_STYLE('',(#1145));
#1144=SURFACE_SIDE_STYLE('',(#1146));
#1145=SURFACE_STYLE_FILL_AREA(#1147);
#1146=SURFACE_STYLE_FILL_AREA(#1148);
#1147=FILL_AREA_STYLE('Steel - Satin',(#1149));
#1148=FILL_AREA_STYLE('Opaque(229,234,237)',(#1150));
#1149=FILL_AREA_STYLE_COLOUR('Steel - Satin',#1151);
#1150=FILL_AREA_STYLE_COLOUR('Opaque(229,234,237)',#1152);
#1151=COLOUR_RGB('Steel - Satin',0.627450980392157,0.627450980392157,0.627450980392157);
#1152=COLOUR_RGB('Opaque(229,234,237)',0.898039215686275,0.917647058823529,
0.929411764705882);
ENDSEC;
END-ISO-10303-21;
