ISO-10303-21;
HEADER;
/* Generated by software containing ST-Developer
 * from STEP Tools, Inc. (www.steptools.com) 
 */

FILE_DESCRIPTION(
/* description */ ('STEP AP214'),
/* implementation_level */ '2;1');

FILE_NAME(
/* name */ 'CAM-TopPanel v1.step',
/* time_stamp */ '2026-03-14T09:50:36+01:00',
/* author */ (''),
/* organization */ (''),
/* preprocessor_version */ 'ST-DEVELOPER v20.1',
/* originating_system */ 'Autodesk Translation Framework v14.24.0.0',
/* authorisation */ '');

FILE_SCHEMA (('AUTOMOTIVE_DESIGN { 1 0 10303 214 3 1 1 }'));
ENDSEC;

DATA;
#10=MECHANICAL_DESIGN_GEOMETRIC_PRESENTATION_REPRESENTATION('',(#31,#32),
#843);
#11=ITEM_DEFINED_TRANSFORMATION($,$,#524,#555);
#12=ITEM_DEFINED_TRANSFORMATION($,$,#505,#556);
#13=ITEM_DEFINED_TRANSFORMATION($,$,#524,#557);
#14=ITEM_DEFINED_TRANSFORMATION($,$,#524,#558);
#15=(
REPRESENTATION_RELATIONSHIP($,$,#860,#858)
REPRESENTATION_RELATIONSHIP_WITH_TRANSFORMATION(#11)
SHAPE_REPRESENTATION_RELATIONSHIP()
);
#16=(
REPRESENTATION_RELATIONSHIP($,$,#859,#858)
REPRESENTATION_RELATIONSHIP_WITH_TRANSFORMATION(#12)
SHAPE_REPRESENTATION_RELATIONSHIP()
);
#17=(
REPRESENTATION_RELATIONSHIP($,$,#860,#858)
REPRESENTATION_RELATIONSHIP_WITH_TRANSFORMATION(#13)
SHAPE_REPRESENTATION_RELATIONSHIP()
);
#18=(
REPRESENTATION_RELATIONSHIP($,$,#860,#858)
REPRESENTATION_RELATIONSHIP_WITH_TRANSFORMATION(#14)
SHAPE_REPRESENTATION_RELATIONSHIP()
);
#19=CONTEXT_DEPENDENT_SHAPE_REPRESENTATION(#15,#854);
#20=CONTEXT_DEPENDENT_SHAPE_REPRESENTATION(#16,#855);
#21=CONTEXT_DEPENDENT_SHAPE_REPRESENTATION(#17,#856);
#22=CONTEXT_DEPENDENT_SHAPE_REPRESENTATION(#18,#857);
#23=NEXT_ASSEMBLY_USAGE_OCCURRENCE('612_SidePanel_x2_1mm_INOX:1',
'612_SidePanel_x2_1mm_INOX:1','612_SidePanel_x2_1mm_INOX:1',#862,#864,
'612_SidePanel_x2_1mm_INOX:1');
#24=NEXT_ASSEMBLY_USAGE_OCCURRENCE('Panels-Sheet-Stock-A4:1',
'Panels-Sheet-Stock-A4:1','Panels-Sheet-Stock-A4:1',#862,#863,
'Panels-Sheet-Stock-A4:1');
#25=NEXT_ASSEMBLY_USAGE_OCCURRENCE('612_SidePanel_x2_1mm_INOX:2',
'612_SidePanel_x2_1mm_INOX:2','612_SidePanel_x2_1mm_INOX:2',#862,#864,
'612_SidePanel_x2_1mm_INOX:2');
#26=NEXT_ASSEMBLY_USAGE_OCCURRENCE('612_SidePanel_x2_1mm_INOX:3',
'612_SidePanel_x2_1mm_INOX:3','612_SidePanel_x2_1mm_INOX:3',#862,#864,
'612_SidePanel_x2_1mm_INOX:3');
#27=SHAPE_REPRESENTATION_RELATIONSHIP('SRR','None',#859,#29);
#28=SHAPE_REPRESENTATION_RELATIONSHIP('SRR','None',#860,#30);
#29=ADVANCED_BREP_SHAPE_REPRESENTATION('',(#33),#841);
#30=ADVANCED_BREP_SHAPE_REPRESENTATION('',(#34),#842);
#31=STYLED_ITEM('',(#878),#33);
#32=STYLED_ITEM('',(#879),#34);
#33=MANIFOLD_SOLID_BREP('Body1',#479);
#34=MANIFOLD_SOLID_BREP('Body1',#480);
#35=FACE_BOUND('',#96,.T.);
#36=FACE_BOUND('',#97,.T.);
#37=FACE_BOUND('',#98,.T.);
#38=FACE_BOUND('',#99,.T.);
#39=FACE_BOUND('',#101,.T.);
#40=FACE_BOUND('',#102,.T.);
#41=FACE_BOUND('',#103,.T.);
#42=FACE_BOUND('',#104,.T.);
#43=FACE_BOUND('',#114,.T.);
#44=FACE_BOUND('',#115,.T.);
#45=FACE_BOUND('',#116,.T.);
#46=FACE_BOUND('',#117,.T.);
#47=FACE_BOUND('',#119,.T.);
#48=FACE_BOUND('',#120,.T.);
#49=FACE_BOUND('',#121,.T.);
#50=FACE_BOUND('',#122,.T.);
#51=PLANE('',#518);
#52=PLANE('',#519);
#53=PLANE('',#520);
#54=PLANE('',#521);
#55=PLANE('',#522);
#56=PLANE('',#523);
#57=PLANE('',#537);
#58=PLANE('',#538);
#59=PLANE('',#539);
#60=PLANE('',#540);
#61=PLANE('',#541);
#62=PLANE('',#546);
#63=FACE_OUTER_BOUND('',#87,.T.);
#64=FACE_OUTER_BOUND('',#88,.T.);
#65=FACE_OUTER_BOUND('',#89,.T.);
#66=FACE_OUTER_BOUND('',#90,.T.);
#67=FACE_OUTER_BOUND('',#91,.T.);
#68=FACE_OUTER_BOUND('',#92,.T.);
#69=FACE_OUTER_BOUND('',#93,.T.);
#70=FACE_OUTER_BOUND('',#94,.T.);
#71=FACE_OUTER_BOUND('',#95,.T.);
#72=FACE_OUTER_BOUND('',#100,.T.);
#73=FACE_OUTER_BOUND('',#105,.T.);
#74=FACE_OUTER_BOUND('',#106,.T.);
#75=FACE_OUTER_BOUND('',#107,.T.);
#76=FACE_OUTER_BOUND('',#108,.T.);
#77=FACE_OUTER_BOUND('',#109,.T.);
#78=FACE_OUTER_BOUND('',#110,.T.);
#79=FACE_OUTER_BOUND('',#111,.T.);
#80=FACE_OUTER_BOUND('',#112,.T.);
#81=FACE_OUTER_BOUND('',#113,.T.);
#82=FACE_OUTER_BOUND('',#118,.T.);
#83=FACE_OUTER_BOUND('',#123,.T.);
#84=FACE_OUTER_BOUND('',#124,.T.);
#85=FACE_OUTER_BOUND('',#125,.T.);
#86=FACE_OUTER_BOUND('',#126,.T.);
#87=EDGE_LOOP('',(#323,#324,#325,#326));
#88=EDGE_LOOP('',(#327,#328,#329,#330));
#89=EDGE_LOOP('',(#331,#332,#333,#334));
#90=EDGE_LOOP('',(#335,#336,#337,#338));
#91=EDGE_LOOP('',(#339,#340,#341,#342));
#92=EDGE_LOOP('',(#343,#344,#345,#346));
#93=EDGE_LOOP('',(#347,#348,#349,#350));
#94=EDGE_LOOP('',(#351,#352,#353,#354));
#95=EDGE_LOOP('',(#355,#356,#357,#358));
#96=EDGE_LOOP('',(#359));
#97=EDGE_LOOP('',(#360));
#98=EDGE_LOOP('',(#361));
#99=EDGE_LOOP('',(#362));
#100=EDGE_LOOP('',(#363,#364,#365,#366));
#101=EDGE_LOOP('',(#367));
#102=EDGE_LOOP('',(#368));
#103=EDGE_LOOP('',(#369));
#104=EDGE_LOOP('',(#370));
#105=EDGE_LOOP('',(#371,#372,#373,#374));
#106=EDGE_LOOP('',(#375,#376,#377,#378));
#107=EDGE_LOOP('',(#379,#380,#381,#382));
#108=EDGE_LOOP('',(#383,#384,#385,#386));
#109=EDGE_LOOP('',(#387,#388,#389,#390));
#110=EDGE_LOOP('',(#391,#392,#393,#394));
#111=EDGE_LOOP('',(#395,#396,#397,#398));
#112=EDGE_LOOP('',(#399,#400,#401,#402));
#113=EDGE_LOOP('',(#403,#404,#405,#406,#407,#408,#409,#410));
#114=EDGE_LOOP('',(#411));
#115=EDGE_LOOP('',(#412));
#116=EDGE_LOOP('',(#413));
#117=EDGE_LOOP('',(#414));
#118=EDGE_LOOP('',(#415,#416,#417,#418,#419,#420,#421,#422));
#119=EDGE_LOOP('',(#423));
#120=EDGE_LOOP('',(#424));
#121=EDGE_LOOP('',(#425));
#122=EDGE_LOOP('',(#426));
#123=EDGE_LOOP('',(#427,#428,#429,#430));
#124=EDGE_LOOP('',(#431,#432,#433,#434));
#125=EDGE_LOOP('',(#435,#436,#437,#438));
#126=EDGE_LOOP('',(#439,#440,#441,#442));
#127=LINE('',#711,#163);
#128=LINE('',#717,#164);
#129=LINE('',#723,#165);
#130=LINE('',#729,#166);
#131=LINE('',#734,#167);
#132=LINE('',#736,#168);
#133=LINE('',#738,#169);
#134=LINE('',#739,#170);
#135=LINE('',#742,#171);
#136=LINE('',#744,#172);
#137=LINE('',#745,#173);
#138=LINE('',#748,#174);
#139=LINE('',#750,#175);
#140=LINE('',#751,#176);
#141=LINE('',#753,#177);
#142=LINE('',#754,#178);
#143=LINE('',#762,#179);
#144=LINE('',#768,#180);
#145=LINE('',#774,#181);
#146=LINE('',#780,#182);
#147=LINE('',#785,#183);
#148=LINE('',#787,#184);
#149=LINE('',#789,#185);
#150=LINE('',#790,#186);
#151=LINE('',#794,#187);
#152=LINE('',#796,#188);
#153=LINE('',#798,#189);
#154=LINE('',#799,#190);
#155=LINE('',#803,#191);
#156=LINE('',#805,#192);
#157=LINE('',#807,#193);
#158=LINE('',#808,#194);
#159=LINE('',#812,#195);
#160=LINE('',#814,#196);
#161=LINE('',#816,#197);
#162=LINE('',#817,#198);
#163=VECTOR('',#567,2.5);
#164=VECTOR('',#574,2.5);
#165=VECTOR('',#581,2.5);
#166=VECTOR('',#588,2.5);
#167=VECTOR('',#593,1000.);
#168=VECTOR('',#594,1000.);
#169=VECTOR('',#595,1000.);
#170=VECTOR('',#596,1000.);
#171=VECTOR('',#599,1000.);
#172=VECTOR('',#600,1000.);
#173=VECTOR('',#601,1000.);
#174=VECTOR('',#604,1000.);
#175=VECTOR('',#605,1000.);
#176=VECTOR('',#606,1000.);
#177=VECTOR('',#609,1000.);
#178=VECTOR('',#610,1000.);
#179=VECTOR('',#621,2.55);
#180=VECTOR('',#628,2.55);
#181=VECTOR('',#635,2.55);
#182=VECTOR('',#642,2.55);
#183=VECTOR('',#647,1000.);
#184=VECTOR('',#648,1000.);
#185=VECTOR('',#649,1000.);
#186=VECTOR('',#650,1000.);
#187=VECTOR('',#653,1000.);
#188=VECTOR('',#654,1000.);
#189=VECTOR('',#655,1000.);
#190=VECTOR('',#656,1000.);
#191=VECTOR('',#659,1000.);
#192=VECTOR('',#660,1000.);
#193=VECTOR('',#661,1000.);
#194=VECTOR('',#662,1000.);
#195=VECTOR('',#665,1000.);
#196=VECTOR('',#666,1000.);
#197=VECTOR('',#667,1000.);
#198=VECTOR('',#668,1000.);
#199=CIRCLE('',#507,2.5);
#200=CIRCLE('',#508,2.5);
#201=CIRCLE('',#510,2.5);
#202=CIRCLE('',#511,2.5);
#203=CIRCLE('',#513,2.5);
#204=CIRCLE('',#514,2.5);
#205=CIRCLE('',#516,2.5);
#206=CIRCLE('',#517,2.5);
#207=CIRCLE('',#526,2.55);
#208=CIRCLE('',#527,2.55);
#209=CIRCLE('',#529,2.55);
#210=CIRCLE('',#530,2.55);
#211=CIRCLE('',#532,2.55);
#212=CIRCLE('',#533,2.55);
#213=CIRCLE('',#535,2.55);
#214=CIRCLE('',#536,2.55);
#215=CIRCLE('',#542,4.);
#216=CIRCLE('',#543,4.);
#217=CIRCLE('',#544,4.);
#218=CIRCLE('',#545,4.);
#219=CIRCLE('',#547,4.);
#220=CIRCLE('',#548,4.);
#221=CIRCLE('',#549,4.);
#222=CIRCLE('',#550,4.);
#223=VERTEX_POINT('',#708);
#224=VERTEX_POINT('',#710);
#225=VERTEX_POINT('',#714);
#226=VERTEX_POINT('',#716);
#227=VERTEX_POINT('',#720);
#228=VERTEX_POINT('',#722);
#229=VERTEX_POINT('',#726);
#230=VERTEX_POINT('',#728);
#231=VERTEX_POINT('',#732);
#232=VERTEX_POINT('',#733);
#233=VERTEX_POINT('',#735);
#234=VERTEX_POINT('',#737);
#235=VERTEX_POINT('',#741);
#236=VERTEX_POINT('',#743);
#237=VERTEX_POINT('',#747);
#238=VERTEX_POINT('',#749);
#239=VERTEX_POINT('',#759);
#240=VERTEX_POINT('',#761);
#241=VERTEX_POINT('',#765);
#242=VERTEX_POINT('',#767);
#243=VERTEX_POINT('',#771);
#244=VERTEX_POINT('',#773);
#245=VERTEX_POINT('',#777);
#246=VERTEX_POINT('',#779);
#247=VERTEX_POINT('',#783);
#248=VERTEX_POINT('',#784);
#249=VERTEX_POINT('',#786);
#250=VERTEX_POINT('',#788);
#251=VERTEX_POINT('',#792);
#252=VERTEX_POINT('',#793);
#253=VERTEX_POINT('',#795);
#254=VERTEX_POINT('',#797);
#255=VERTEX_POINT('',#801);
#256=VERTEX_POINT('',#802);
#257=VERTEX_POINT('',#804);
#258=VERTEX_POINT('',#806);
#259=VERTEX_POINT('',#810);
#260=VERTEX_POINT('',#811);
#261=VERTEX_POINT('',#813);
#262=VERTEX_POINT('',#815);
#263=EDGE_CURVE('',#223,#223,#199,.T.);
#264=EDGE_CURVE('',#223,#224,#127,.T.);
#265=EDGE_CURVE('',#224,#224,#200,.T.);
#266=EDGE_CURVE('',#225,#225,#201,.T.);
#267=EDGE_CURVE('',#225,#226,#128,.T.);
#268=EDGE_CURVE('',#226,#226,#202,.T.);
#269=EDGE_CURVE('',#227,#227,#203,.T.);
#270=EDGE_CURVE('',#227,#228,#129,.T.);
#271=EDGE_CURVE('',#228,#228,#204,.T.);
#272=EDGE_CURVE('',#229,#229,#205,.T.);
#273=EDGE_CURVE('',#229,#230,#130,.T.);
#274=EDGE_CURVE('',#230,#230,#206,.T.);
#275=EDGE_CURVE('',#231,#232,#131,.T.);
#276=EDGE_CURVE('',#233,#232,#132,.T.);
#277=EDGE_CURVE('',#234,#233,#133,.T.);
#278=EDGE_CURVE('',#234,#231,#134,.T.);
#279=EDGE_CURVE('',#232,#235,#135,.T.);
#280=EDGE_CURVE('',#236,#235,#136,.T.);
#281=EDGE_CURVE('',#233,#236,#137,.T.);
#282=EDGE_CURVE('',#235,#237,#138,.T.);
#283=EDGE_CURVE('',#238,#237,#139,.T.);
#284=EDGE_CURVE('',#236,#238,#140,.T.);
#285=EDGE_CURVE('',#237,#231,#141,.T.);
#286=EDGE_CURVE('',#238,#234,#142,.T.);
#287=EDGE_CURVE('',#239,#239,#207,.T.);
#288=EDGE_CURVE('',#239,#240,#143,.T.);
#289=EDGE_CURVE('',#240,#240,#208,.T.);
#290=EDGE_CURVE('',#241,#241,#209,.T.);
#291=EDGE_CURVE('',#241,#242,#144,.T.);
#292=EDGE_CURVE('',#242,#242,#210,.T.);
#293=EDGE_CURVE('',#243,#243,#211,.T.);
#294=EDGE_CURVE('',#243,#244,#145,.T.);
#295=EDGE_CURVE('',#244,#244,#212,.T.);
#296=EDGE_CURVE('',#245,#245,#213,.T.);
#297=EDGE_CURVE('',#245,#246,#146,.T.);
#298=EDGE_CURVE('',#246,#246,#214,.T.);
#299=EDGE_CURVE('',#247,#248,#147,.T.);
#300=EDGE_CURVE('',#247,#249,#148,.T.);
#301=EDGE_CURVE('',#249,#250,#149,.T.);
#302=EDGE_CURVE('',#250,#248,#150,.T.);
#303=EDGE_CURVE('',#251,#252,#151,.T.);
#304=EDGE_CURVE('',#252,#253,#152,.T.);
#305=EDGE_CURVE('',#254,#253,#153,.T.);
#306=EDGE_CURVE('',#254,#251,#154,.T.);
#307=EDGE_CURVE('',#255,#256,#155,.T.);
#308=EDGE_CURVE('',#255,#257,#156,.T.);
#309=EDGE_CURVE('',#257,#258,#157,.T.);
#310=EDGE_CURVE('',#258,#256,#158,.T.);
#311=EDGE_CURVE('',#259,#260,#159,.T.);
#312=EDGE_CURVE('',#259,#261,#160,.T.);
#313=EDGE_CURVE('',#261,#262,#161,.T.);
#314=EDGE_CURVE('',#262,#260,#162,.T.);
#315=EDGE_CURVE('',#253,#255,#215,.T.);
#316=EDGE_CURVE('',#256,#259,#216,.T.);
#317=EDGE_CURVE('',#260,#247,#217,.T.);
#318=EDGE_CURVE('',#248,#254,#218,.T.);
#319=EDGE_CURVE('',#257,#252,#219,.T.);
#320=EDGE_CURVE('',#251,#250,#220,.T.);
#321=EDGE_CURVE('',#249,#262,#221,.T.);
#322=EDGE_CURVE('',#261,#258,#222,.T.);
#323=ORIENTED_EDGE('',*,*,#263,.F.);
#324=ORIENTED_EDGE('',*,*,#264,.T.);
#325=ORIENTED_EDGE('',*,*,#265,.F.);
#326=ORIENTED_EDGE('',*,*,#264,.F.);
#327=ORIENTED_EDGE('',*,*,#266,.T.);
#328=ORIENTED_EDGE('',*,*,#267,.T.);
#329=ORIENTED_EDGE('',*,*,#268,.T.);
#330=ORIENTED_EDGE('',*,*,#267,.F.);
#331=ORIENTED_EDGE('',*,*,#269,.F.);
#332=ORIENTED_EDGE('',*,*,#270,.T.);
#333=ORIENTED_EDGE('',*,*,#271,.F.);
#334=ORIENTED_EDGE('',*,*,#270,.F.);
#335=ORIENTED_EDGE('',*,*,#272,.T.);
#336=ORIENTED_EDGE('',*,*,#273,.T.);
#337=ORIENTED_EDGE('',*,*,#274,.T.);
#338=ORIENTED_EDGE('',*,*,#273,.F.);
#339=ORIENTED_EDGE('',*,*,#275,.T.);
#340=ORIENTED_EDGE('',*,*,#276,.F.);
#341=ORIENTED_EDGE('',*,*,#277,.F.);
#342=ORIENTED_EDGE('',*,*,#278,.T.);
#343=ORIENTED_EDGE('',*,*,#279,.T.);
#344=ORIENTED_EDGE('',*,*,#280,.F.);
#345=ORIENTED_EDGE('',*,*,#281,.F.);
#346=ORIENTED_EDGE('',*,*,#276,.T.);
#347=ORIENTED_EDGE('',*,*,#282,.T.);
#348=ORIENTED_EDGE('',*,*,#283,.F.);
#349=ORIENTED_EDGE('',*,*,#284,.F.);
#350=ORIENTED_EDGE('',*,*,#280,.T.);
#351=ORIENTED_EDGE('',*,*,#285,.T.);
#352=ORIENTED_EDGE('',*,*,#278,.F.);
#353=ORIENTED_EDGE('',*,*,#286,.F.);
#354=ORIENTED_EDGE('',*,*,#283,.T.);
#355=ORIENTED_EDGE('',*,*,#277,.T.);
#356=ORIENTED_EDGE('',*,*,#281,.T.);
#357=ORIENTED_EDGE('',*,*,#284,.T.);
#358=ORIENTED_EDGE('',*,*,#286,.T.);
#359=ORIENTED_EDGE('',*,*,#265,.T.);
#360=ORIENTED_EDGE('',*,*,#268,.F.);
#361=ORIENTED_EDGE('',*,*,#271,.T.);
#362=ORIENTED_EDGE('',*,*,#274,.F.);
#363=ORIENTED_EDGE('',*,*,#275,.F.);
#364=ORIENTED_EDGE('',*,*,#285,.F.);
#365=ORIENTED_EDGE('',*,*,#282,.F.);
#366=ORIENTED_EDGE('',*,*,#279,.F.);
#367=ORIENTED_EDGE('',*,*,#263,.T.);
#368=ORIENTED_EDGE('',*,*,#266,.F.);
#369=ORIENTED_EDGE('',*,*,#269,.T.);
#370=ORIENTED_EDGE('',*,*,#272,.F.);
#371=ORIENTED_EDGE('',*,*,#287,.F.);
#372=ORIENTED_EDGE('',*,*,#288,.T.);
#373=ORIENTED_EDGE('',*,*,#289,.T.);
#374=ORIENTED_EDGE('',*,*,#288,.F.);
#375=ORIENTED_EDGE('',*,*,#290,.F.);
#376=ORIENTED_EDGE('',*,*,#291,.T.);
#377=ORIENTED_EDGE('',*,*,#292,.T.);
#378=ORIENTED_EDGE('',*,*,#291,.F.);
#379=ORIENTED_EDGE('',*,*,#293,.F.);
#380=ORIENTED_EDGE('',*,*,#294,.T.);
#381=ORIENTED_EDGE('',*,*,#295,.T.);
#382=ORIENTED_EDGE('',*,*,#294,.F.);
#383=ORIENTED_EDGE('',*,*,#296,.F.);
#384=ORIENTED_EDGE('',*,*,#297,.T.);
#385=ORIENTED_EDGE('',*,*,#298,.T.);
#386=ORIENTED_EDGE('',*,*,#297,.F.);
#387=ORIENTED_EDGE('',*,*,#299,.F.);
#388=ORIENTED_EDGE('',*,*,#300,.T.);
#389=ORIENTED_EDGE('',*,*,#301,.T.);
#390=ORIENTED_EDGE('',*,*,#302,.T.);
#391=ORIENTED_EDGE('',*,*,#303,.T.);
#392=ORIENTED_EDGE('',*,*,#304,.T.);
#393=ORIENTED_EDGE('',*,*,#305,.F.);
#394=ORIENTED_EDGE('',*,*,#306,.T.);
#395=ORIENTED_EDGE('',*,*,#307,.F.);
#396=ORIENTED_EDGE('',*,*,#308,.T.);
#397=ORIENTED_EDGE('',*,*,#309,.T.);
#398=ORIENTED_EDGE('',*,*,#310,.T.);
#399=ORIENTED_EDGE('',*,*,#311,.F.);
#400=ORIENTED_EDGE('',*,*,#312,.T.);
#401=ORIENTED_EDGE('',*,*,#313,.T.);
#402=ORIENTED_EDGE('',*,*,#314,.T.);
#403=ORIENTED_EDGE('',*,*,#305,.T.);
#404=ORIENTED_EDGE('',*,*,#315,.T.);
#405=ORIENTED_EDGE('',*,*,#307,.T.);
#406=ORIENTED_EDGE('',*,*,#316,.T.);
#407=ORIENTED_EDGE('',*,*,#311,.T.);
#408=ORIENTED_EDGE('',*,*,#317,.T.);
#409=ORIENTED_EDGE('',*,*,#299,.T.);
#410=ORIENTED_EDGE('',*,*,#318,.T.);
#411=ORIENTED_EDGE('',*,*,#287,.T.);
#412=ORIENTED_EDGE('',*,*,#290,.T.);
#413=ORIENTED_EDGE('',*,*,#293,.T.);
#414=ORIENTED_EDGE('',*,*,#296,.T.);
#415=ORIENTED_EDGE('',*,*,#309,.F.);
#416=ORIENTED_EDGE('',*,*,#319,.T.);
#417=ORIENTED_EDGE('',*,*,#303,.F.);
#418=ORIENTED_EDGE('',*,*,#320,.T.);
#419=ORIENTED_EDGE('',*,*,#301,.F.);
#420=ORIENTED_EDGE('',*,*,#321,.T.);
#421=ORIENTED_EDGE('',*,*,#313,.F.);
#422=ORIENTED_EDGE('',*,*,#322,.T.);
#423=ORIENTED_EDGE('',*,*,#289,.F.);
#424=ORIENTED_EDGE('',*,*,#292,.F.);
#425=ORIENTED_EDGE('',*,*,#295,.F.);
#426=ORIENTED_EDGE('',*,*,#298,.F.);
#427=ORIENTED_EDGE('',*,*,#315,.F.);
#428=ORIENTED_EDGE('',*,*,#304,.F.);
#429=ORIENTED_EDGE('',*,*,#319,.F.);
#430=ORIENTED_EDGE('',*,*,#308,.F.);
#431=ORIENTED_EDGE('',*,*,#316,.F.);
#432=ORIENTED_EDGE('',*,*,#310,.F.);
#433=ORIENTED_EDGE('',*,*,#322,.F.);
#434=ORIENTED_EDGE('',*,*,#312,.F.);
#435=ORIENTED_EDGE('',*,*,#317,.F.);
#436=ORIENTED_EDGE('',*,*,#314,.F.);
#437=ORIENTED_EDGE('',*,*,#321,.F.);
#438=ORIENTED_EDGE('',*,*,#300,.F.);
#439=ORIENTED_EDGE('',*,*,#318,.F.);
#440=ORIENTED_EDGE('',*,*,#302,.F.);
#441=ORIENTED_EDGE('',*,*,#320,.F.);
#442=ORIENTED_EDGE('',*,*,#306,.F.);
#443=CYLINDRICAL_SURFACE('',#506,2.5);
#444=CYLINDRICAL_SURFACE('',#509,2.5);
#445=CYLINDRICAL_SURFACE('',#512,2.5);
#446=CYLINDRICAL_SURFACE('',#515,2.5);
#447=CYLINDRICAL_SURFACE('',#525,2.55);
#448=CYLINDRICAL_SURFACE('',#528,2.55);
#449=CYLINDRICAL_SURFACE('',#531,2.55);
#450=CYLINDRICAL_SURFACE('',#534,2.55);
#451=CYLINDRICAL_SURFACE('',#551,4.);
#452=CYLINDRICAL_SURFACE('',#552,4.);
#453=CYLINDRICAL_SURFACE('',#553,4.);
#454=CYLINDRICAL_SURFACE('',#554,4.);
#455=ADVANCED_FACE('',(#63),#443,.F.);
#456=ADVANCED_FACE('',(#64),#444,.F.);
#457=ADVANCED_FACE('',(#65),#445,.F.);
#458=ADVANCED_FACE('',(#66),#446,.F.);
#459=ADVANCED_FACE('',(#67),#51,.F.);
#460=ADVANCED_FACE('',(#68),#52,.F.);
#461=ADVANCED_FACE('',(#69),#53,.F.);
#462=ADVANCED_FACE('',(#70),#54,.F.);
#463=ADVANCED_FACE('',(#71,#35,#36,#37,#38),#55,.F.);
#464=ADVANCED_FACE('',(#72,#39,#40,#41,#42),#56,.T.);
#465=ADVANCED_FACE('',(#73),#447,.F.);
#466=ADVANCED_FACE('',(#74),#448,.F.);
#467=ADVANCED_FACE('',(#75),#449,.F.);
#468=ADVANCED_FACE('',(#76),#450,.F.);
#469=ADVANCED_FACE('',(#77),#57,.F.);
#470=ADVANCED_FACE('',(#78),#58,.F.);
#471=ADVANCED_FACE('',(#79),#59,.F.);
#472=ADVANCED_FACE('',(#80),#60,.F.);
#473=ADVANCED_FACE('',(#81,#43,#44,#45,#46),#61,.F.);
#474=ADVANCED_FACE('',(#82,#47,#48,#49,#50),#62,.T.);
#475=ADVANCED_FACE('',(#83),#451,.T.);
#476=ADVANCED_FACE('',(#84),#452,.T.);
#477=ADVANCED_FACE('',(#85),#453,.T.);
#478=ADVANCED_FACE('',(#86),#454,.T.);
#479=CLOSED_SHELL('',(#455,#456,#457,#458,#459,#460,#461,#462,#463,#464));
#480=CLOSED_SHELL('',(#465,#466,#467,#468,#469,#470,#471,#472,#473,#474,
#475,#476,#477,#478));
#481=DERIVED_UNIT_ELEMENT(#485,1.);
#482=DERIVED_UNIT_ELEMENT(#845,-3.);
#483=DERIVED_UNIT_ELEMENT(#485,1.);
#484=DERIVED_UNIT_ELEMENT(#845,-3.);
#485=(
MASS_UNIT()
NAMED_UNIT(*)
SI_UNIT(.KILO.,.GRAM.)
);
#486=DERIVED_UNIT((#481,#482));
#487=DERIVED_UNIT((#483,#484));
#488=MEASURE_REPRESENTATION_ITEM('density measure',
POSITIVE_RATIO_MEASURE(7850.),#486);
#489=MEASURE_REPRESENTATION_ITEM('density measure',
POSITIVE_RATIO_MEASURE(7850.),#487);
#490=PROPERTY_DEFINITION_REPRESENTATION(#500,#494);
#491=PROPERTY_DEFINITION_REPRESENTATION(#501,#495);
#492=PROPERTY_DEFINITION_REPRESENTATION(#502,#496);
#493=PROPERTY_DEFINITION_REPRESENTATION(#503,#497);
#494=REPRESENTATION('material name',(#498),#841);
#495=REPRESENTATION('density',(#488),#841);
#496=REPRESENTATION('material name',(#499),#842);
#497=REPRESENTATION('density',(#489),#842);
#498=DESCRIPTIVE_REPRESENTATION_ITEM('Steel','Steel');
#499=DESCRIPTIVE_REPRESENTATION_ITEM('Steel','Steel');
#500=PROPERTY_DEFINITION('material property','material name',#863);
#501=PROPERTY_DEFINITION('material property','density of part',#863);
#502=PROPERTY_DEFINITION('material property','material name',#864);
#503=PROPERTY_DEFINITION('material property','density of part',#864);
#504=AXIS2_PLACEMENT_3D('',#705,#559,#560);
#505=AXIS2_PLACEMENT_3D('',#706,#561,#562);
#506=AXIS2_PLACEMENT_3D('',#707,#563,#564);
#507=AXIS2_PLACEMENT_3D('',#709,#565,#566);
#508=AXIS2_PLACEMENT_3D('',#712,#568,#569);
#509=AXIS2_PLACEMENT_3D('',#713,#570,#571);
#510=AXIS2_PLACEMENT_3D('',#715,#572,#573);
#511=AXIS2_PLACEMENT_3D('',#718,#575,#576);
#512=AXIS2_PLACEMENT_3D('',#719,#577,#578);
#513=AXIS2_PLACEMENT_3D('',#721,#579,#580);
#514=AXIS2_PLACEMENT_3D('',#724,#582,#583);
#515=AXIS2_PLACEMENT_3D('',#725,#584,#585);
#516=AXIS2_PLACEMENT_3D('',#727,#586,#587);
#517=AXIS2_PLACEMENT_3D('',#730,#589,#590);
#518=AXIS2_PLACEMENT_3D('',#731,#591,#592);
#519=AXIS2_PLACEMENT_3D('',#740,#597,#598);
#520=AXIS2_PLACEMENT_3D('',#746,#602,#603);
#521=AXIS2_PLACEMENT_3D('',#752,#607,#608);
#522=AXIS2_PLACEMENT_3D('',#755,#611,#612);
#523=AXIS2_PLACEMENT_3D('',#756,#613,#614);
#524=AXIS2_PLACEMENT_3D('',#757,#615,#616);
#525=AXIS2_PLACEMENT_3D('',#758,#617,#618);
#526=AXIS2_PLACEMENT_3D('',#760,#619,#620);
#527=AXIS2_PLACEMENT_3D('',#763,#622,#623);
#528=AXIS2_PLACEMENT_3D('',#764,#624,#625);
#529=AXIS2_PLACEMENT_3D('',#766,#626,#627);
#530=AXIS2_PLACEMENT_3D('',#769,#629,#630);
#531=AXIS2_PLACEMENT_3D('',#770,#631,#632);
#532=AXIS2_PLACEMENT_3D('',#772,#633,#634);
#533=AXIS2_PLACEMENT_3D('',#775,#636,#637);
#534=AXIS2_PLACEMENT_3D('',#776,#638,#639);
#535=AXIS2_PLACEMENT_3D('',#778,#640,#641);
#536=AXIS2_PLACEMENT_3D('',#781,#643,#644);
#537=AXIS2_PLACEMENT_3D('',#782,#645,#646);
#538=AXIS2_PLACEMENT_3D('',#791,#651,#652);
#539=AXIS2_PLACEMENT_3D('',#800,#657,#658);
#540=AXIS2_PLACEMENT_3D('',#809,#663,#664);
#541=AXIS2_PLACEMENT_3D('',#818,#669,#670);
#542=AXIS2_PLACEMENT_3D('',#819,#671,#672);
#543=AXIS2_PLACEMENT_3D('',#820,#673,#674);
#544=AXIS2_PLACEMENT_3D('',#821,#675,#676);
#545=AXIS2_PLACEMENT_3D('',#822,#677,#678);
#546=AXIS2_PLACEMENT_3D('',#823,#679,#680);
#547=AXIS2_PLACEMENT_3D('',#824,#681,#682);
#548=AXIS2_PLACEMENT_3D('',#825,#683,#684);
#549=AXIS2_PLACEMENT_3D('',#826,#685,#686);
#550=AXIS2_PLACEMENT_3D('',#827,#687,#688);
#551=AXIS2_PLACEMENT_3D('',#828,#689,#690);
#552=AXIS2_PLACEMENT_3D('',#829,#691,#692);
#553=AXIS2_PLACEMENT_3D('',#830,#693,#694);
#554=AXIS2_PLACEMENT_3D('',#831,#695,#696);
#555=AXIS2_PLACEMENT_3D('',#832,#697,#698);
#556=AXIS2_PLACEMENT_3D('',#833,#699,#700);
#557=AXIS2_PLACEMENT_3D('',#834,#701,#702);
#558=AXIS2_PLACEMENT_3D('',#835,#703,#704);
#559=DIRECTION('axis',(0.,0.,1.));
#560=DIRECTION('refdir',(1.,0.,0.));
#561=DIRECTION('axis',(0.,0.,1.));
#562=DIRECTION('refdir',(1.,0.,0.));
#563=DIRECTION('center_axis',(0.,0.,1.));
#564=DIRECTION('ref_axis',(1.,0.,0.));
#565=DIRECTION('center_axis',(0.,0.,1.));
#566=DIRECTION('ref_axis',(-1.,0.,0.));
#567=DIRECTION('',(0.,0.,1.));
#568=DIRECTION('center_axis',(0.,0.,-1.));
#569=DIRECTION('ref_axis',(1.,0.,0.));
#570=DIRECTION('center_axis',(0.,0.,1.));
#571=DIRECTION('ref_axis',(1.,0.,0.));
#572=DIRECTION('center_axis',(0.,0.,-1.));
#573=DIRECTION('ref_axis',(-1.,0.,0.));
#574=DIRECTION('',(0.,0.,1.));
#575=DIRECTION('center_axis',(0.,0.,1.));
#576=DIRECTION('ref_axis',(-1.,0.,0.));
#577=DIRECTION('center_axis',(0.,0.,1.));
#578=DIRECTION('ref_axis',(1.,0.,0.));
#579=DIRECTION('center_axis',(0.,0.,1.));
#580=DIRECTION('ref_axis',(-1.,0.,0.));
#581=DIRECTION('',(0.,0.,1.));
#582=DIRECTION('center_axis',(0.,0.,-1.));
#583=DIRECTION('ref_axis',(-1.,0.,0.));
#584=DIRECTION('center_axis',(0.,0.,1.));
#585=DIRECTION('ref_axis',(1.,0.,0.));
#586=DIRECTION('center_axis',(0.,0.,-1.));
#587=DIRECTION('ref_axis',(-1.,0.,0.));
#588=DIRECTION('',(0.,0.,1.));
#589=DIRECTION('center_axis',(0.,0.,1.));
#590=DIRECTION('ref_axis',(1.,0.,0.));
#591=DIRECTION('center_axis',(-1.,0.,0.));
#592=DIRECTION('ref_axis',(0.,0.,1.));
#593=DIRECTION('',(0.,1.,0.));
#594=DIRECTION('',(0.,0.,-1.));
#595=DIRECTION('',(0.,1.,0.));
#596=DIRECTION('',(0.,0.,-1.));
#597=DIRECTION('center_axis',(9.40866970021319E-17,-1.,0.));
#598=DIRECTION('ref_axis',(1.,9.40866970021319E-17,0.));
#599=DIRECTION('',(-1.,-9.40866970021319E-17,0.));
#600=DIRECTION('',(0.,0.,-1.));
#601=DIRECTION('',(-1.,-9.40866970021319E-17,0.));
#602=DIRECTION('center_axis',(1.,1.32169407693471E-16,0.));
#603=DIRECTION('ref_axis',(-1.32169407693471E-16,1.,0.));
#604=DIRECTION('',(1.32169407693471E-16,-1.,0.));
#605=DIRECTION('',(0.,0.,-1.));
#606=DIRECTION('',(1.32169407693471E-16,-1.,0.));
#607=DIRECTION('center_axis',(-1.88173394004264E-16,1.,0.));
#608=DIRECTION('ref_axis',(-1.,-1.88173394004264E-16,0.));
#609=DIRECTION('',(1.,1.88173394004264E-16,0.));
#610=DIRECTION('',(1.,1.88173394004264E-16,0.));
#611=DIRECTION('center_axis',(0.,0.,-1.));
#612=DIRECTION('ref_axis',(-1.,0.,0.));
#613=DIRECTION('center_axis',(0.,0.,-1.));
#614=DIRECTION('ref_axis',(-1.,0.,0.));
#615=DIRECTION('axis',(0.,0.,1.));
#616=DIRECTION('refdir',(1.,0.,0.));
#617=DIRECTION('center_axis',(0.,0.,-1.));
#618=DIRECTION('ref_axis',(-1.,0.,0.));
#619=DIRECTION('center_axis',(0.,0.,-1.));
#620=DIRECTION('ref_axis',(-1.,0.,0.));
#621=DIRECTION('',(0.,0.,-1.));
#622=DIRECTION('center_axis',(0.,0.,-1.));
#623=DIRECTION('ref_axis',(-1.,0.,0.));
#624=DIRECTION('center_axis',(0.,0.,-1.));
#625=DIRECTION('ref_axis',(-1.,0.,0.));
#626=DIRECTION('center_axis',(0.,0.,-1.));
#627=DIRECTION('ref_axis',(-1.,0.,0.));
#628=DIRECTION('',(0.,0.,-1.));
#629=DIRECTION('center_axis',(0.,0.,-1.));
#630=DIRECTION('ref_axis',(-1.,0.,0.));
#631=DIRECTION('center_axis',(0.,0.,-1.));
#632=DIRECTION('ref_axis',(-1.,0.,0.));
#633=DIRECTION('center_axis',(0.,0.,-1.));
#634=DIRECTION('ref_axis',(-1.,0.,0.));
#635=DIRECTION('',(0.,0.,-1.));
#636=DIRECTION('center_axis',(0.,0.,-1.));
#637=DIRECTION('ref_axis',(-1.,0.,0.));
#638=DIRECTION('center_axis',(0.,0.,-1.));
#639=DIRECTION('ref_axis',(-1.,0.,0.));
#640=DIRECTION('center_axis',(0.,0.,-1.));
#641=DIRECTION('ref_axis',(-1.,0.,0.));
#642=DIRECTION('',(0.,0.,-1.));
#643=DIRECTION('center_axis',(0.,0.,-1.));
#644=DIRECTION('ref_axis',(-1.,0.,0.));
#645=DIRECTION('center_axis',(-1.,0.,0.));
#646=DIRECTION('ref_axis',(0.,0.,1.));
#647=DIRECTION('',(0.,1.,0.));
#648=DIRECTION('',(0.,0.,-1.));
#649=DIRECTION('',(0.,1.,0.));
#650=DIRECTION('',(0.,0.,1.));
#651=DIRECTION('center_axis',(0.,-1.,0.));
#652=DIRECTION('ref_axis',(0.,0.,-1.));
#653=DIRECTION('',(-1.,0.,0.));
#654=DIRECTION('',(0.,0.,1.));
#655=DIRECTION('',(-1.,0.,0.));
#656=DIRECTION('',(0.,0.,-1.));
#657=DIRECTION('center_axis',(1.,0.,0.));
#658=DIRECTION('ref_axis',(0.,0.,-1.));
#659=DIRECTION('',(0.,-1.,0.));
#660=DIRECTION('',(0.,0.,-1.));
#661=DIRECTION('',(0.,-1.,0.));
#662=DIRECTION('',(0.,0.,1.));
#663=DIRECTION('center_axis',(0.,1.,0.));
#664=DIRECTION('ref_axis',(0.,0.,1.));
#665=DIRECTION('',(1.,0.,0.));
#666=DIRECTION('',(0.,0.,-1.));
#667=DIRECTION('',(1.,0.,0.));
#668=DIRECTION('',(0.,0.,1.));
#669=DIRECTION('center_axis',(0.,0.,-1.));
#670=DIRECTION('ref_axis',(-1.,0.,0.));
#671=DIRECTION('center_axis',(0.,0.,1.));
#672=DIRECTION('ref_axis',(-1.,0.,0.));
#673=DIRECTION('center_axis',(0.,0.,1.));
#674=DIRECTION('ref_axis',(-1.,0.,0.));
#675=DIRECTION('center_axis',(0.,0.,1.));
#676=DIRECTION('ref_axis',(-1.,0.,0.));
#677=DIRECTION('center_axis',(0.,0.,1.));
#678=DIRECTION('ref_axis',(-1.,0.,0.));
#679=DIRECTION('center_axis',(0.,0.,-1.));
#680=DIRECTION('ref_axis',(-1.,0.,0.));
#681=DIRECTION('center_axis',(0.,0.,-1.));
#682=DIRECTION('ref_axis',(-1.,0.,0.));
#683=DIRECTION('center_axis',(0.,0.,-1.));
#684=DIRECTION('ref_axis',(-1.,0.,0.));
#685=DIRECTION('center_axis',(0.,0.,-1.));
#686=DIRECTION('ref_axis',(-1.,0.,0.));
#687=DIRECTION('center_axis',(0.,0.,-1.));
#688=DIRECTION('ref_axis',(-1.,0.,0.));
#689=DIRECTION('center_axis',(0.,0.,-1.));
#690=DIRECTION('ref_axis',(-1.,0.,0.));
#691=DIRECTION('center_axis',(0.,0.,-1.));
#692=DIRECTION('ref_axis',(-1.,0.,0.));
#693=DIRECTION('center_axis',(0.,0.,-1.));
#694=DIRECTION('ref_axis',(-1.,0.,0.));
#695=DIRECTION('center_axis',(0.,0.,-1.));
#696=DIRECTION('ref_axis',(-1.,0.,0.));
#697=DIRECTION('',(1.62504094373605E-48,2.77333911991762E-32,1.));
#698=DIRECTION('',(-1.,1.21430643318377E-16,-1.74264259098011E-48));
#699=DIRECTION('',(0.,-4.17828869290763E-34,-1.));
#700=DIRECTION('',(1.,6.16297582203915E-33,-2.57506921918893E-66));
#701=DIRECTION('',(1.62504094373605E-48,2.77333911991762E-32,1.));
#702=DIRECTION('',(-1.,1.21430643318377E-16,-1.74264259098011E-48));
#703=DIRECTION('',(1.62504094373605E-48,2.77333911991762E-32,1.));
#704=DIRECTION('',(-1.,1.21430643318377E-16,-1.74264259098011E-48));
#705=CARTESIAN_POINT('',(0.,0.,0.));
#706=CARTESIAN_POINT('',(0.,0.,0.));
#707=CARTESIAN_POINT('Origin',(-139.5,-97.,-8.));
#708=CARTESIAN_POINT('',(-142.,-97.,0.));
#709=CARTESIAN_POINT('Origin',(-139.5,-97.,0.));
#710=CARTESIAN_POINT('',(-142.,-97.,2.));
#711=CARTESIAN_POINT('',(-142.,-97.,-8.));
#712=CARTESIAN_POINT('Origin',(-139.5,-97.,2.));
#713=CARTESIAN_POINT('Origin',(139.5,-97.,-8.));
#714=CARTESIAN_POINT('',(137.,-97.,0.));
#715=CARTESIAN_POINT('Origin',(139.5,-97.,0.));
#716=CARTESIAN_POINT('',(137.,-97.,2.));
#717=CARTESIAN_POINT('',(137.,-97.,-8.));
#718=CARTESIAN_POINT('Origin',(139.5,-97.,2.));
#719=CARTESIAN_POINT('Origin',(139.5,97.,-8.));
#720=CARTESIAN_POINT('',(137.,97.,0.));
#721=CARTESIAN_POINT('Origin',(139.5,97.,0.));
#722=CARTESIAN_POINT('',(137.,97.,2.));
#723=CARTESIAN_POINT('',(137.,97.,-8.));
#724=CARTESIAN_POINT('Origin',(139.5,97.,2.));
#725=CARTESIAN_POINT('Origin',(-139.5,97.,-8.));
#726=CARTESIAN_POINT('',(-142.,97.,0.));
#727=CARTESIAN_POINT('Origin',(-139.5,97.,0.));
#728=CARTESIAN_POINT('',(-142.,97.,2.));
#729=CARTESIAN_POINT('',(-142.,97.,-8.));
#730=CARTESIAN_POINT('Origin',(-139.5,97.,2.));
#731=CARTESIAN_POINT('Origin',(147.5,105.,2.));
#732=CARTESIAN_POINT('',(147.5,-105.,0.));
#733=CARTESIAN_POINT('',(147.5,105.,0.));
#734=CARTESIAN_POINT('',(147.5,105.,0.));
#735=CARTESIAN_POINT('',(147.5,105.,2.));
#736=CARTESIAN_POINT('',(147.5,105.,2.));
#737=CARTESIAN_POINT('',(147.5,-105.,2.));
#738=CARTESIAN_POINT('',(147.5,105.,2.));
#739=CARTESIAN_POINT('',(147.5,-105.,2.));
#740=CARTESIAN_POINT('Origin',(147.5,105.,2.));
#741=CARTESIAN_POINT('',(-147.5,105.,0.));
#742=CARTESIAN_POINT('',(147.5,105.,0.));
#743=CARTESIAN_POINT('',(-147.5,105.,2.));
#744=CARTESIAN_POINT('',(-147.5,105.,2.));
#745=CARTESIAN_POINT('',(147.5,105.,2.));
#746=CARTESIAN_POINT('Origin',(-147.5,105.,2.));
#747=CARTESIAN_POINT('',(-147.5,-105.,0.));
#748=CARTESIAN_POINT('',(-147.5,105.,0.));
#749=CARTESIAN_POINT('',(-147.5,-105.,2.));
#750=CARTESIAN_POINT('',(-147.5,-105.,2.));
#751=CARTESIAN_POINT('',(-147.5,105.,2.));
#752=CARTESIAN_POINT('Origin',(147.5,-105.,2.));
#753=CARTESIAN_POINT('',(147.5,-105.,0.));
#754=CARTESIAN_POINT('',(147.5,-105.,2.));
#755=CARTESIAN_POINT('Origin',(0.,0.,2.));
#756=CARTESIAN_POINT('Origin',(0.,0.,0.));
#757=CARTESIAN_POINT('',(0.,0.,0.));
#758=CARTESIAN_POINT('Origin',(-33.,-74.25,1.));
#759=CARTESIAN_POINT('',(-30.45,-74.25,1.));
#760=CARTESIAN_POINT('Origin',(-33.,-74.25,1.));
#761=CARTESIAN_POINT('',(-30.45,-74.25,0.));
#762=CARTESIAN_POINT('',(-30.45,-74.25,1.));
#763=CARTESIAN_POINT('Origin',(-33.,-74.25,0.));
#764=CARTESIAN_POINT('Origin',(-33.,74.25,1.));
#765=CARTESIAN_POINT('',(-30.45,74.25,1.));
#766=CARTESIAN_POINT('Origin',(-33.,74.25,1.));
#767=CARTESIAN_POINT('',(-30.45,74.25,0.));
#768=CARTESIAN_POINT('',(-30.45,74.25,1.));
#769=CARTESIAN_POINT('Origin',(-33.,74.25,0.));
#770=CARTESIAN_POINT('Origin',(33.,74.25,1.));
#771=CARTESIAN_POINT('',(35.55,74.25,1.));
#772=CARTESIAN_POINT('Origin',(33.,74.25,1.));
#773=CARTESIAN_POINT('',(35.55,74.25,0.));
#774=CARTESIAN_POINT('',(35.55,74.25,1.));
#775=CARTESIAN_POINT('Origin',(33.,74.25,0.));
#776=CARTESIAN_POINT('Origin',(33.,-74.25,1.));
#777=CARTESIAN_POINT('',(35.55,-74.25,1.));
#778=CARTESIAN_POINT('Origin',(33.,-74.25,1.));
#779=CARTESIAN_POINT('',(35.55,-74.25,0.));
#780=CARTESIAN_POINT('',(35.55,-74.25,1.));
#781=CARTESIAN_POINT('Origin',(33.,-74.25,0.));
#782=CARTESIAN_POINT('Origin',(40.,-81.,1.));
#783=CARTESIAN_POINT('',(40.,-77.,1.));
#784=CARTESIAN_POINT('',(40.,77.,1.));
#785=CARTESIAN_POINT('',(40.,-81.,1.));
#786=CARTESIAN_POINT('',(40.,-77.,0.));
#787=CARTESIAN_POINT('',(40.,-77.,1.));
#788=CARTESIAN_POINT('',(40.,77.,0.));
#789=CARTESIAN_POINT('',(40.,-81.,0.));
#790=CARTESIAN_POINT('',(40.,77.,1.));
#791=CARTESIAN_POINT('Origin',(-40.,81.,1.));
#792=CARTESIAN_POINT('',(36.,81.,0.));
#793=CARTESIAN_POINT('',(-36.,81.,0.));
#794=CARTESIAN_POINT('',(-40.,81.,0.));
#795=CARTESIAN_POINT('',(-36.,81.,1.));
#796=CARTESIAN_POINT('',(-36.,81.,1.));
#797=CARTESIAN_POINT('',(36.,81.,1.));
#798=CARTESIAN_POINT('',(-40.,81.,1.));
#799=CARTESIAN_POINT('',(36.,81.,1.));
#800=CARTESIAN_POINT('Origin',(-40.,-81.,1.));
#801=CARTESIAN_POINT('',(-40.,77.,1.));
#802=CARTESIAN_POINT('',(-40.,-77.,1.));
#803=CARTESIAN_POINT('',(-40.,-81.,1.));
#804=CARTESIAN_POINT('',(-40.,77.,0.));
#805=CARTESIAN_POINT('',(-40.,77.,1.));
#806=CARTESIAN_POINT('',(-40.,-77.,0.));
#807=CARTESIAN_POINT('',(-40.,-81.,0.));
#808=CARTESIAN_POINT('',(-40.,-77.,1.));
#809=CARTESIAN_POINT('Origin',(-40.,-81.,1.));
#810=CARTESIAN_POINT('',(-36.,-81.,1.));
#811=CARTESIAN_POINT('',(36.,-81.,1.));
#812=CARTESIAN_POINT('',(-40.,-81.,1.));
#813=CARTESIAN_POINT('',(-36.,-81.,0.));
#814=CARTESIAN_POINT('',(-36.,-81.,1.));
#815=CARTESIAN_POINT('',(36.,-81.,0.));
#816=CARTESIAN_POINT('',(-40.,-81.,0.));
#817=CARTESIAN_POINT('',(36.,-81.,1.));
#818=CARTESIAN_POINT('Origin',(0.,0.,1.));
#819=CARTESIAN_POINT('Origin',(-36.,77.,1.));
#820=CARTESIAN_POINT('Origin',(-36.,-77.,1.));
#821=CARTESIAN_POINT('Origin',(36.,-77.,1.));
#822=CARTESIAN_POINT('Origin',(36.,77.,1.));
#823=CARTESIAN_POINT('Origin',(0.,0.,0.));
#824=CARTESIAN_POINT('Origin',(-36.,77.,0.));
#825=CARTESIAN_POINT('Origin',(36.,77.,0.));
#826=CARTESIAN_POINT('Origin',(36.,-77.,0.));
#827=CARTESIAN_POINT('Origin',(-36.,-77.,0.));
#828=CARTESIAN_POINT('Origin',(-36.,77.,1.));
#829=CARTESIAN_POINT('Origin',(-36.,-77.,1.));
#830=CARTESIAN_POINT('Origin',(36.,-77.,1.));
#831=CARTESIAN_POINT('Origin',(36.,77.,1.));
#832=CARTESIAN_POINT('',(-92.6205603109189,0.,25.1005574353039));
#833=CARTESIAN_POINT('',(0.,0.,25.1005574353039));
#834=CARTESIAN_POINT('',(-2.62056031091887,-1.69356054603837E-14,25.1005574353039));
#835=CARTESIAN_POINT('',(87.3794396890811,-3.38712109207675E-14,25.1005574353039));
#836=UNCERTAINTY_MEASURE_WITH_UNIT(LENGTH_MEASURE(0.01),#844,
'DISTANCE_ACCURACY_VALUE',
'Maximum model space distance between geometric entities at asserted c
onnectivities');
#837=UNCERTAINTY_MEASURE_WITH_UNIT(LENGTH_MEASURE(0.01),#844,
'DISTANCE_ACCURACY_VALUE',
'Maximum model space distance between geometric entities at asserted c
onnectivities');
#838=UNCERTAINTY_MEASURE_WITH_UNIT(LENGTH_MEASURE(0.01),#844,
'DISTANCE_ACCURACY_VALUE',
'Maximum model space distance between geometric entities at asserted c
onnectivities');
#839=UNCERTAINTY_MEASURE_WITH_UNIT(LENGTH_MEASURE(0.01),#844,
'DISTANCE_ACCURACY_VALUE',
'Maximum model space distance between geometric entities at asserted c
onnectivities');
#840=(
GEOMETRIC_REPRESENTATION_CONTEXT(3)
GLOBAL_UNCERTAINTY_ASSIGNED_CONTEXT((#836))
GLOBAL_UNIT_ASSIGNED_CONTEXT((#844,#846,#847))
REPRESENTATION_CONTEXT('','3D')
);
#841=(
GEOMETRIC_REPRESENTATION_CONTEXT(3)
GLOBAL_UNCERTAINTY_ASSIGNED_CONTEXT((#837))
GLOBAL_UNIT_ASSIGNED_CONTEXT((#844,#846,#847))
REPRESENTATION_CONTEXT('','3D')
);
#842=(
GEOMETRIC_REPRESENTATION_CONTEXT(3)
GLOBAL_UNCERTAINTY_ASSIGNED_CONTEXT((#838))
GLOBAL_UNIT_ASSIGNED_CONTEXT((#844,#846,#847))
REPRESENTATION_CONTEXT('','3D')
);
#843=(
GEOMETRIC_REPRESENTATION_CONTEXT(3)
GLOBAL_UNCERTAINTY_ASSIGNED_CONTEXT((#839))
GLOBAL_UNIT_ASSIGNED_CONTEXT((#844,#846,#847))
REPRESENTATION_CONTEXT('','3D')
);
#844=(
LENGTH_UNIT()
NAMED_UNIT(*)
SI_UNIT(.MILLI.,.METRE.)
);
#845=(
LENGTH_UNIT()
NAMED_UNIT(*)
SI_UNIT($,.METRE.)
);
#846=(
NAMED_UNIT(*)
PLANE_ANGLE_UNIT()
SI_UNIT($,.RADIAN.)
);
#847=(
NAMED_UNIT(*)
SI_UNIT($,.STERADIAN.)
SOLID_ANGLE_UNIT()
);
#848=SHAPE_DEFINITION_REPRESENTATION(#851,#858);
#849=SHAPE_DEFINITION_REPRESENTATION(#852,#859);
#850=SHAPE_DEFINITION_REPRESENTATION(#853,#860);
#851=PRODUCT_DEFINITION_SHAPE('',$,#862);
#852=PRODUCT_DEFINITION_SHAPE('',$,#863);
#853=PRODUCT_DEFINITION_SHAPE('',$,#864);
#854=PRODUCT_DEFINITION_SHAPE($,$,#23);
#855=PRODUCT_DEFINITION_SHAPE($,$,#24);
#856=PRODUCT_DEFINITION_SHAPE($,$,#25);
#857=PRODUCT_DEFINITION_SHAPE($,$,#26);
#858=SHAPE_REPRESENTATION('',(#504,#555,#556,#557,#558),#840);
#859=SHAPE_REPRESENTATION('',(#505),#841);
#860=SHAPE_REPRESENTATION('',(#524),#842);
#861=PRODUCT_DEFINITION_CONTEXT('part definition',#872,'design');
#862=PRODUCT_DEFINITION('CAM-TopPanel','CAM-TopPanel v1',#865,#861);
#863=PRODUCT_DEFINITION('Panels-Sheet-Stock-A4','Panels-Sheet-Stock-A4',
#866,#861);
#864=PRODUCT_DEFINITION('612_SidePanel_x2_1mm_INOX',
'612_SidePanel_x2_1mm_INOX',#867,#861);
#865=PRODUCT_DEFINITION_FORMATION('',$,#874);
#866=PRODUCT_DEFINITION_FORMATION('',$,#875);
#867=PRODUCT_DEFINITION_FORMATION('',$,#876);
#868=PRODUCT_RELATED_PRODUCT_CATEGORY('CAM-TopPanel v1',
'CAM-TopPanel v1',(#874));
#869=PRODUCT_RELATED_PRODUCT_CATEGORY('Panels-Sheet-Stock-A4',
'Panels-Sheet-Stock-A4',(#875));
#870=PRODUCT_RELATED_PRODUCT_CATEGORY('612_SidePanel_x2_1mm_INOX',
'612_SidePanel_x2_1mm_INOX',(#876));
#871=APPLICATION_PROTOCOL_DEFINITION('international standard',
'automotive_design',2009,#872);
#872=APPLICATION_CONTEXT(
'Core Data for Automotive Mechanical Design Process');
#873=PRODUCT_CONTEXT('part definition',#872,'mechanical');
#874=PRODUCT('CAM-TopPanel','CAM-TopPanel v1','STEP AP214',(#873));
#875=PRODUCT('Panels-Sheet-Stock-A4','Panels-Sheet-Stock-A4',$,(#873));
#876=PRODUCT('612_SidePanel_x2_1mm_INOX','612_SidePanel_x2_1mm_INOX',$,
(#873));
#877=PRESENTATION_STYLE_ASSIGNMENT((#880));
#878=PRESENTATION_STYLE_ASSIGNMENT((#881));
#879=PRESENTATION_STYLE_ASSIGNMENT((#882));
#880=SURFACE_STYLE_USAGE(.BOTH.,#883);
#881=SURFACE_STYLE_USAGE(.BOTH.,#884);
#882=SURFACE_STYLE_USAGE(.BOTH.,#885);
#883=SURFACE_SIDE_STYLE('',(#886));
#884=SURFACE_SIDE_STYLE('',(#887));
#885=SURFACE_SIDE_STYLE('',(#888));
#886=SURFACE_STYLE_FILL_AREA(#889);
#887=SURFACE_STYLE_FILL_AREA(#890);
#888=SURFACE_STYLE_FILL_AREA(#891);
#889=FILL_AREA_STYLE('Steel - Satin',(#892));
#890=FILL_AREA_STYLE('Opaque(202,209,238)',(#893));
#891=FILL_AREA_STYLE('Opaque(247,66,66)',(#894));
#892=FILL_AREA_STYLE_COLOUR('Steel - Satin',#895);
#893=FILL_AREA_STYLE_COLOUR('Opaque(202,209,238)',#896);
#894=FILL_AREA_STYLE_COLOUR('Opaque(247,66,66)',#897);
#895=COLOUR_RGB('Steel - Satin',0.627450980392157,0.627450980392157,0.627450980392157);
#896=COLOUR_RGB('Opaque(202,209,238)',0.792156862745098,0.819607843137255,
0.933333333333333);
#897=COLOUR_RGB('Opaque(247,66,66)',0.968627450980392,0.258823529411765,
0.258823529411765);
ENDSEC;
END-ISO-10303-21;
