ISO-10303-21;
HEADER;
/* Generated by software containing ST-Developer
 * from STEP Tools, Inc. (www.steptools.com) 
 */

FILE_DESCRIPTION(
/* description */ ('STEP AP203'),
/* implementation_level */ '2;1');

FILE_NAME(
/* name */ 'textile v2.step',
/* time_stamp */ '2026-03-14T09:22:33+01:00',
/* author */ (''),
/* organization */ (''),
/* preprocessor_version */ 'ST-DEVELOPER v20.1',
/* originating_system */ 'Autodesk Translation Framework v14.24.0.0',
/* authorisation */ '');

FILE_SCHEMA (('AUTOMOTIVE_DESIGN { 1 0 10303 214 3 1 1 }'));
ENDSEC;

DATA;
#10=MECHANICAL_DESIGN_GEOMETRIC_PRESENTATION_REPRESENTATION('',(#25),#502);
#11=ITEM_DEFINED_TRANSFORMATION($,$,#335,#336);
#12=ITEM_DEFINED_TRANSFORMATION($,$,#320,#337);
#13=ITEM_DEFINED_TRANSFORMATION($,$,#335,#338);
#14=(
REPRESENTATION_RELATIONSHIP($,$,#518,#516)
REPRESENTATION_RELATIONSHIP_WITH_TRANSFORMATION(#11)
SHAPE_REPRESENTATION_RELATIONSHIP()
);
#15=(
REPRESENTATION_RELATIONSHIP($,$,#517,#516)
REPRESENTATION_RELATIONSHIP_WITH_TRANSFORMATION(#12)
SHAPE_REPRESENTATION_RELATIONSHIP()
);
#16=(
REPRESENTATION_RELATIONSHIP($,$,#518,#516)
REPRESENTATION_RELATIONSHIP_WITH_TRANSFORMATION(#13)
SHAPE_REPRESENTATION_RELATIONSHIP()
);
#17=CONTEXT_DEPENDENT_SHAPE_REPRESENTATION(#14,#513);
#18=CONTEXT_DEPENDENT_SHAPE_REPRESENTATION(#15,#514);
#19=CONTEXT_DEPENDENT_SHAPE_REPRESENTATION(#16,#515);
#20=NEXT_ASSEMBLY_USAGE_OCCURRENCE('SHEETPLATE_Predeterminado:1',
'SHEETPLATE_Predeterminado:1','SHEETPLATE_Predeterminado:1',#520,#522,
'SHEETPLATE_Predeterminado:1');
#21=NEXT_ASSEMBLY_USAGE_OCCURRENCE('MARCO_Predeterminado:1',
'MARCO_Predeterminado:1','MARCO_Predeterminado:1',#520,#521,
'MARCO_Predeterminado:1');
#22=NEXT_ASSEMBLY_USAGE_OCCURRENCE('SHEETPLATE_Predeterminado:2',
'SHEETPLATE_Predeterminado:2','SHEETPLATE_Predeterminado:2',#520,#522,
'SHEETPLATE_Predeterminado:2');
#23=SHAPE_REPRESENTATION_RELATIONSHIP('SRR','None',#517,#24);
#24=ADVANCED_BREP_SHAPE_REPRESENTATION('',(#26),#500);
#25=STYLED_ITEM('',(#535),#26);
#26=MANIFOLD_SOLID_BREP('Body1',#295);
#27=FACE_BOUND('',#50,.T.);
#28=FACE_BOUND('',#51,.T.);
#29=FACE_BOUND('',#53,.T.);
#30=FACE_BOUND('',#54,.T.);
#31=FACE_OUTER_BOUND('',#45,.T.);
#32=FACE_OUTER_BOUND('',#46,.T.);
#33=FACE_OUTER_BOUND('',#47,.T.);
#34=FACE_OUTER_BOUND('',#48,.T.);
#35=FACE_OUTER_BOUND('',#49,.T.);
#36=FACE_OUTER_BOUND('',#52,.T.);
#37=FACE_OUTER_BOUND('',#55,.T.);
#38=FACE_OUTER_BOUND('',#56,.T.);
#39=FACE_OUTER_BOUND('',#57,.T.);
#40=FACE_OUTER_BOUND('',#58,.T.);
#41=FACE_OUTER_BOUND('',#59,.T.);
#42=FACE_OUTER_BOUND('',#60,.T.);
#43=FACE_OUTER_BOUND('',#61,.T.);
#44=FACE_OUTER_BOUND('',#62,.T.);
#45=EDGE_LOOP('',(#195,#196,#197,#198));
#46=EDGE_LOOP('',(#199,#200,#201,#202));
#47=EDGE_LOOP('',(#203,#204,#205,#206));
#48=EDGE_LOOP('',(#207,#208,#209,#210));
#49=EDGE_LOOP('',(#211,#212,#213,#214));
#50=EDGE_LOOP('',(#215,#216,#217,#218));
#51=EDGE_LOOP('',(#219,#220,#221,#222));
#52=EDGE_LOOP('',(#223,#224,#225,#226));
#53=EDGE_LOOP('',(#227,#228,#229,#230));
#54=EDGE_LOOP('',(#231,#232,#233,#234));
#55=EDGE_LOOP('',(#235,#236,#237,#238));
#56=EDGE_LOOP('',(#239,#240,#241,#242));
#57=EDGE_LOOP('',(#243,#244,#245,#246));
#58=EDGE_LOOP('',(#247,#248,#249,#250));
#59=EDGE_LOOP('',(#251,#252,#253,#254));
#60=EDGE_LOOP('',(#255,#256,#257,#258));
#61=EDGE_LOOP('',(#259,#260,#261,#262));
#62=EDGE_LOOP('',(#263,#264,#265,#266));
#63=LINE('',#420,#99);
#64=LINE('',#422,#100);
#65=LINE('',#424,#101);
#66=LINE('',#425,#102);
#67=LINE('',#428,#103);
#68=LINE('',#430,#104);
#69=LINE('',#431,#105);
#70=LINE('',#434,#106);
#71=LINE('',#436,#107);
#72=LINE('',#437,#108);
#73=LINE('',#439,#109);
#74=LINE('',#440,#110);
#75=LINE('',#444,#111);
#76=LINE('',#446,#112);
#77=LINE('',#448,#113);
#78=LINE('',#449,#114);
#79=LINE('',#452,#115);
#80=LINE('',#454,#116);
#81=LINE('',#456,#117);
#82=LINE('',#457,#118);
#83=LINE('',#461,#119);
#84=LINE('',#463,#120);
#85=LINE('',#465,#121);
#86=LINE('',#466,#122);
#87=LINE('',#469,#123);
#88=LINE('',#471,#124);
#89=LINE('',#473,#125);
#90=LINE('',#474,#126);
#91=LINE('',#476,#127);
#92=LINE('',#477,#128);
#93=LINE('',#479,#129);
#94=LINE('',#481,#130);
#95=LINE('',#484,#131);
#96=LINE('',#485,#132);
#97=LINE('',#487,#133);
#98=LINE('',#489,#134);
#99=VECTOR('',#345,1000.);
#100=VECTOR('',#346,1000.);
#101=VECTOR('',#347,1000.);
#102=VECTOR('',#348,1000.);
#103=VECTOR('',#351,1000.);
#104=VECTOR('',#352,1000.);
#105=VECTOR('',#353,1000.);
#106=VECTOR('',#356,1000.);
#107=VECTOR('',#357,1000.);
#108=VECTOR('',#358,1000.);
#109=VECTOR('',#361,1000.);
#110=VECTOR('',#362,1000.);
#111=VECTOR('',#365,1000.);
#112=VECTOR('',#366,1000.);
#113=VECTOR('',#367,1000.);
#114=VECTOR('',#368,1000.);
#115=VECTOR('',#369,1000.);
#116=VECTOR('',#370,1000.);
#117=VECTOR('',#371,1000.);
#118=VECTOR('',#372,1000.);
#119=VECTOR('',#375,1000.);
#120=VECTOR('',#376,1000.);
#121=VECTOR('',#377,1000.);
#122=VECTOR('',#378,1000.);
#123=VECTOR('',#379,1000.);
#124=VECTOR('',#380,1000.);
#125=VECTOR('',#381,1000.);
#126=VECTOR('',#382,1000.);
#127=VECTOR('',#385,1000.);
#128=VECTOR('',#386,1000.);
#129=VECTOR('',#389,1000.);
#130=VECTOR('',#392,1000.);
#131=VECTOR('',#397,1000.);
#132=VECTOR('',#398,1000.);
#133=VECTOR('',#401,1000.);
#134=VECTOR('',#404,1000.);
#135=VERTEX_POINT('',#418);
#136=VERTEX_POINT('',#419);
#137=VERTEX_POINT('',#421);
#138=VERTEX_POINT('',#423);
#139=VERTEX_POINT('',#427);
#140=VERTEX_POINT('',#429);
#141=VERTEX_POINT('',#433);
#142=VERTEX_POINT('',#435);
#143=VERTEX_POINT('',#442);
#144=VERTEX_POINT('',#443);
#145=VERTEX_POINT('',#445);
#146=VERTEX_POINT('',#447);
#147=VERTEX_POINT('',#450);
#148=VERTEX_POINT('',#451);
#149=VERTEX_POINT('',#453);
#150=VERTEX_POINT('',#455);
#151=VERTEX_POINT('',#459);
#152=VERTEX_POINT('',#460);
#153=VERTEX_POINT('',#462);
#154=VERTEX_POINT('',#464);
#155=VERTEX_POINT('',#467);
#156=VERTEX_POINT('',#468);
#157=VERTEX_POINT('',#470);
#158=VERTEX_POINT('',#472);
#159=EDGE_CURVE('',#135,#136,#63,.T.);
#160=EDGE_CURVE('',#137,#136,#64,.T.);
#161=EDGE_CURVE('',#138,#137,#65,.T.);
#162=EDGE_CURVE('',#138,#135,#66,.T.);
#163=EDGE_CURVE('',#136,#139,#67,.T.);
#164=EDGE_CURVE('',#140,#139,#68,.T.);
#165=EDGE_CURVE('',#137,#140,#69,.T.);
#166=EDGE_CURVE('',#139,#141,#70,.T.);
#167=EDGE_CURVE('',#142,#141,#71,.T.);
#168=EDGE_CURVE('',#140,#142,#72,.T.);
#169=EDGE_CURVE('',#141,#135,#73,.T.);
#170=EDGE_CURVE('',#142,#138,#74,.T.);
#171=EDGE_CURVE('',#143,#144,#75,.T.);
#172=EDGE_CURVE('',#145,#143,#76,.T.);
#173=EDGE_CURVE('',#146,#145,#77,.T.);
#174=EDGE_CURVE('',#144,#146,#78,.T.);
#175=EDGE_CURVE('',#147,#148,#79,.T.);
#176=EDGE_CURVE('',#149,#147,#80,.T.);
#177=EDGE_CURVE('',#150,#149,#81,.T.);
#178=EDGE_CURVE('',#148,#150,#82,.T.);
#179=EDGE_CURVE('',#151,#152,#83,.T.);
#180=EDGE_CURVE('',#152,#153,#84,.T.);
#181=EDGE_CURVE('',#153,#154,#85,.T.);
#182=EDGE_CURVE('',#154,#151,#86,.T.);
#183=EDGE_CURVE('',#155,#156,#87,.T.);
#184=EDGE_CURVE('',#156,#157,#88,.T.);
#185=EDGE_CURVE('',#157,#158,#89,.T.);
#186=EDGE_CURVE('',#158,#155,#90,.T.);
#187=EDGE_CURVE('',#157,#148,#91,.T.);
#188=EDGE_CURVE('',#156,#147,#92,.T.);
#189=EDGE_CURVE('',#155,#149,#93,.T.);
#190=EDGE_CURVE('',#158,#150,#94,.T.);
#191=EDGE_CURVE('',#153,#144,#95,.T.);
#192=EDGE_CURVE('',#152,#143,#96,.T.);
#193=EDGE_CURVE('',#151,#145,#97,.T.);
#194=EDGE_CURVE('',#154,#146,#98,.T.);
#195=ORIENTED_EDGE('',*,*,#159,.T.);
#196=ORIENTED_EDGE('',*,*,#160,.F.);
#197=ORIENTED_EDGE('',*,*,#161,.F.);
#198=ORIENTED_EDGE('',*,*,#162,.T.);
#199=ORIENTED_EDGE('',*,*,#163,.T.);
#200=ORIENTED_EDGE('',*,*,#164,.F.);
#201=ORIENTED_EDGE('',*,*,#165,.F.);
#202=ORIENTED_EDGE('',*,*,#160,.T.);
#203=ORIENTED_EDGE('',*,*,#166,.T.);
#204=ORIENTED_EDGE('',*,*,#167,.F.);
#205=ORIENTED_EDGE('',*,*,#168,.F.);
#206=ORIENTED_EDGE('',*,*,#164,.T.);
#207=ORIENTED_EDGE('',*,*,#169,.T.);
#208=ORIENTED_EDGE('',*,*,#162,.F.);
#209=ORIENTED_EDGE('',*,*,#170,.F.);
#210=ORIENTED_EDGE('',*,*,#167,.T.);
#211=ORIENTED_EDGE('',*,*,#161,.T.);
#212=ORIENTED_EDGE('',*,*,#165,.T.);
#213=ORIENTED_EDGE('',*,*,#168,.T.);
#214=ORIENTED_EDGE('',*,*,#170,.T.);
#215=ORIENTED_EDGE('',*,*,#171,.F.);
#216=ORIENTED_EDGE('',*,*,#172,.F.);
#217=ORIENTED_EDGE('',*,*,#173,.F.);
#218=ORIENTED_EDGE('',*,*,#174,.F.);
#219=ORIENTED_EDGE('',*,*,#175,.F.);
#220=ORIENTED_EDGE('',*,*,#176,.F.);
#221=ORIENTED_EDGE('',*,*,#177,.F.);
#222=ORIENTED_EDGE('',*,*,#178,.F.);
#223=ORIENTED_EDGE('',*,*,#159,.F.);
#224=ORIENTED_EDGE('',*,*,#169,.F.);
#225=ORIENTED_EDGE('',*,*,#166,.F.);
#226=ORIENTED_EDGE('',*,*,#163,.F.);
#227=ORIENTED_EDGE('',*,*,#179,.T.);
#228=ORIENTED_EDGE('',*,*,#180,.T.);
#229=ORIENTED_EDGE('',*,*,#181,.T.);
#230=ORIENTED_EDGE('',*,*,#182,.T.);
#231=ORIENTED_EDGE('',*,*,#183,.T.);
#232=ORIENTED_EDGE('',*,*,#184,.T.);
#233=ORIENTED_EDGE('',*,*,#185,.T.);
#234=ORIENTED_EDGE('',*,*,#186,.T.);
#235=ORIENTED_EDGE('',*,*,#175,.T.);
#236=ORIENTED_EDGE('',*,*,#187,.F.);
#237=ORIENTED_EDGE('',*,*,#184,.F.);
#238=ORIENTED_EDGE('',*,*,#188,.T.);
#239=ORIENTED_EDGE('',*,*,#176,.T.);
#240=ORIENTED_EDGE('',*,*,#188,.F.);
#241=ORIENTED_EDGE('',*,*,#183,.F.);
#242=ORIENTED_EDGE('',*,*,#189,.T.);
#243=ORIENTED_EDGE('',*,*,#177,.T.);
#244=ORIENTED_EDGE('',*,*,#189,.F.);
#245=ORIENTED_EDGE('',*,*,#186,.F.);
#246=ORIENTED_EDGE('',*,*,#190,.T.);
#247=ORIENTED_EDGE('',*,*,#178,.T.);
#248=ORIENTED_EDGE('',*,*,#190,.F.);
#249=ORIENTED_EDGE('',*,*,#185,.F.);
#250=ORIENTED_EDGE('',*,*,#187,.T.);
#251=ORIENTED_EDGE('',*,*,#171,.T.);
#252=ORIENTED_EDGE('',*,*,#191,.F.);
#253=ORIENTED_EDGE('',*,*,#180,.F.);
#254=ORIENTED_EDGE('',*,*,#192,.T.);
#255=ORIENTED_EDGE('',*,*,#172,.T.);
#256=ORIENTED_EDGE('',*,*,#192,.F.);
#257=ORIENTED_EDGE('',*,*,#179,.F.);
#258=ORIENTED_EDGE('',*,*,#193,.T.);
#259=ORIENTED_EDGE('',*,*,#173,.T.);
#260=ORIENTED_EDGE('',*,*,#193,.F.);
#261=ORIENTED_EDGE('',*,*,#182,.F.);
#262=ORIENTED_EDGE('',*,*,#194,.T.);
#263=ORIENTED_EDGE('',*,*,#174,.T.);
#264=ORIENTED_EDGE('',*,*,#194,.F.);
#265=ORIENTED_EDGE('',*,*,#181,.F.);
#266=ORIENTED_EDGE('',*,*,#191,.T.);
#267=PLANE('',#321);
#268=PLANE('',#322);
#269=PLANE('',#323);
#270=PLANE('',#324);
#271=PLANE('',#325);
#272=PLANE('',#326);
#273=PLANE('',#327);
#274=PLANE('',#328);
#275=PLANE('',#329);
#276=PLANE('',#330);
#277=PLANE('',#331);
#278=PLANE('',#332);
#279=PLANE('',#333);
#280=PLANE('',#334);
#281=ADVANCED_FACE('',(#31),#267,.F.);
#282=ADVANCED_FACE('',(#32),#268,.F.);
#283=ADVANCED_FACE('',(#33),#269,.F.);
#284=ADVANCED_FACE('',(#34),#270,.F.);
#285=ADVANCED_FACE('',(#35,#27,#28),#271,.T.);
#286=ADVANCED_FACE('',(#36,#29,#30),#272,.F.);
#287=ADVANCED_FACE('',(#37),#273,.F.);
#288=ADVANCED_FACE('',(#38),#274,.F.);
#289=ADVANCED_FACE('',(#39),#275,.F.);
#290=ADVANCED_FACE('',(#40),#276,.F.);
#291=ADVANCED_FACE('',(#41),#277,.F.);
#292=ADVANCED_FACE('',(#42),#278,.F.);
#293=ADVANCED_FACE('',(#43),#279,.F.);
#294=ADVANCED_FACE('',(#44),#280,.F.);
#295=CLOSED_SHELL('',(#281,#282,#283,#284,#285,#286,#287,#288,#289,#290,
#291,#292,#293,#294));
#296=DERIVED_UNIT_ELEMENT(#300,1.);
#297=DERIVED_UNIT_ELEMENT(#504,-3.);
#298=DERIVED_UNIT_ELEMENT(#300,1.);
#299=DERIVED_UNIT_ELEMENT(#504,-3.);
#300=(
MASS_UNIT()
NAMED_UNIT(*)
SI_UNIT(.KILO.,.GRAM.)
);
#301=DERIVED_UNIT((#296,#297));
#302=DERIVED_UNIT((#298,#299));
#303=MEASURE_REPRESENTATION_ITEM('density measure',
POSITIVE_RATIO_MEASURE(7850.),#301);
#304=MEASURE_REPRESENTATION_ITEM('density measure',
POSITIVE_RATIO_MEASURE(7850.),#302);
#305=PROPERTY_DEFINITION_REPRESENTATION(#315,#309);
#306=PROPERTY_DEFINITION_REPRESENTATION(#316,#310);
#307=PROPERTY_DEFINITION_REPRESENTATION(#317,#311);
#308=PROPERTY_DEFINITION_REPRESENTATION(#318,#312);
#309=REPRESENTATION('material name',(#313),#500);
#310=REPRESENTATION('density',(#303),#500);
#311=REPRESENTATION('material name',(#314),#501);
#312=REPRESENTATION('density',(#304),#501);
#313=DESCRIPTIVE_REPRESENTATION_ITEM('Steel','Steel');
#314=DESCRIPTIVE_REPRESENTATION_ITEM('Steel','Steel');
#315=PROPERTY_DEFINITION('material property','material name',#521);
#316=PROPERTY_DEFINITION('material property','density of part',#521);
#317=PROPERTY_DEFINITION('material property','material name',#522);
#318=PROPERTY_DEFINITION('material property','density of part',#522);
#319=AXIS2_PLACEMENT_3D('',#415,#339,#340);
#320=AXIS2_PLACEMENT_3D('',#416,#341,#342);
#321=AXIS2_PLACEMENT_3D('',#417,#343,#344);
#322=AXIS2_PLACEMENT_3D('',#426,#349,#350);
#323=AXIS2_PLACEMENT_3D('',#432,#354,#355);
#324=AXIS2_PLACEMENT_3D('',#438,#359,#360);
#325=AXIS2_PLACEMENT_3D('',#441,#363,#364);
#326=AXIS2_PLACEMENT_3D('',#458,#373,#374);
#327=AXIS2_PLACEMENT_3D('',#475,#383,#384);
#328=AXIS2_PLACEMENT_3D('',#478,#387,#388);
#329=AXIS2_PLACEMENT_3D('',#480,#390,#391);
#330=AXIS2_PLACEMENT_3D('',#482,#393,#394);
#331=AXIS2_PLACEMENT_3D('',#483,#395,#396);
#332=AXIS2_PLACEMENT_3D('',#486,#399,#400);
#333=AXIS2_PLACEMENT_3D('',#488,#402,#403);
#334=AXIS2_PLACEMENT_3D('',#490,#405,#406);
#335=AXIS2_PLACEMENT_3D('',#491,#407,#408);
#336=AXIS2_PLACEMENT_3D('',#492,#409,#410);
#337=AXIS2_PLACEMENT_3D('',#493,#411,#412);
#338=AXIS2_PLACEMENT_3D('',#494,#413,#414);
#339=DIRECTION('axis',(0.,0.,1.));
#340=DIRECTION('refdir',(1.,0.,0.));
#341=DIRECTION('axis',(0.,0.,1.));
#342=DIRECTION('refdir',(1.,0.,0.));
#343=DIRECTION('center_axis',(1.,0.,6.93889390390723E-17));
#344=DIRECTION('ref_axis',(6.93889390390723E-17,0.,-1.));
#345=DIRECTION('',(-6.93889390390723E-17,0.,1.));
#346=DIRECTION('',(0.,-1.,0.));
#347=DIRECTION('',(-6.93889390390723E-17,0.,1.));
#348=DIRECTION('',(0.,-1.,0.));
#349=DIRECTION('center_axis',(-1.38777878078145E-16,0.,-1.));
#350=DIRECTION('ref_axis',(-1.,0.,1.38777878078145E-16));
#351=DIRECTION('',(1.,0.,-1.38777878078145E-16));
#352=DIRECTION('',(0.,-1.,0.));
#353=DIRECTION('',(1.,0.,-1.38777878078145E-16));
#354=DIRECTION('center_axis',(-1.,0.,0.));
#355=DIRECTION('ref_axis',(0.,0.,1.));
#356=DIRECTION('',(0.,0.,-1.));
#357=DIRECTION('',(0.,-1.,0.));
#358=DIRECTION('',(0.,0.,-1.));
#359=DIRECTION('center_axis',(1.38777878078145E-16,0.,1.));
#360=DIRECTION('ref_axis',(1.,0.,-1.38777878078145E-16));
#361=DIRECTION('',(-1.,0.,1.38777878078145E-16));
#362=DIRECTION('',(-1.,0.,1.38777878078145E-16));
#363=DIRECTION('center_axis',(0.,1.,0.));
#364=DIRECTION('ref_axis',(0.,0.,1.));
#365=DIRECTION('',(0.,0.,1.));
#366=DIRECTION('',(-1.,0.,0.));
#367=DIRECTION('',(0.,0.,-1.));
#368=DIRECTION('',(1.,0.,-1.98254111540207E-16));
#369=DIRECTION('',(0.,0.,1.));
#370=DIRECTION('',(-1.,0.,0.));
#371=DIRECTION('',(0.,0.,-1.));
#372=DIRECTION('',(1.,0.,-1.98254111540207E-16));
#373=DIRECTION('center_axis',(0.,1.,0.));
#374=DIRECTION('ref_axis',(0.,0.,1.));
#375=DIRECTION('',(-1.,0.,0.));
#376=DIRECTION('',(0.,0.,1.));
#377=DIRECTION('',(1.,0.,-1.98254111540207E-16));
#378=DIRECTION('',(0.,0.,-1.));
#379=DIRECTION('',(-1.,0.,0.));
#380=DIRECTION('',(0.,0.,1.));
#381=DIRECTION('',(1.,0.,-1.98254111540207E-16));
#382=DIRECTION('',(0.,0.,-1.));
#383=DIRECTION('center_axis',(-1.,0.,0.));
#384=DIRECTION('ref_axis',(0.,0.,1.));
#385=DIRECTION('',(0.,1.,0.));
#386=DIRECTION('',(0.,1.,0.));
#387=DIRECTION('center_axis',(0.,0.,-1.));
#388=DIRECTION('ref_axis',(-1.,0.,0.));
#389=DIRECTION('',(0.,1.,0.));
#390=DIRECTION('center_axis',(1.,0.,0.));
#391=DIRECTION('ref_axis',(0.,0.,-1.));
#392=DIRECTION('',(0.,1.,0.));
#393=DIRECTION('center_axis',(1.98254111540207E-16,0.,1.));
#394=DIRECTION('ref_axis',(1.,0.,-1.98254111540207E-16));
#395=DIRECTION('center_axis',(-1.,0.,0.));
#396=DIRECTION('ref_axis',(0.,0.,1.));
#397=DIRECTION('',(0.,1.,0.));
#398=DIRECTION('',(0.,1.,0.));
#399=DIRECTION('center_axis',(0.,0.,-1.));
#400=DIRECTION('ref_axis',(-1.,0.,0.));
#401=DIRECTION('',(0.,1.,0.));
#402=DIRECTION('center_axis',(1.,0.,0.));
#403=DIRECTION('ref_axis',(0.,0.,-1.));
#404=DIRECTION('',(0.,1.,0.));
#405=DIRECTION('center_axis',(1.98254111540207E-16,0.,1.));
#406=DIRECTION('ref_axis',(1.,0.,-1.98254111540207E-16));
#407=DIRECTION('axis',(0.,0.,1.));
#408=DIRECTION('refdir',(1.,0.,0.));
#409=DIRECTION('',(0.,0.,1.));
#410=DIRECTION('',(1.,0.,0.));
#411=DIRECTION('',(0.,-1.,1.22464679914735E-16));
#412=DIRECTION('',(1.,0.,0.));
#413=DIRECTION('',(0.,0.,1.));
#414=DIRECTION('',(1.,0.,0.));
#415=CARTESIAN_POINT('',(0.,0.,0.));
#416=CARTESIAN_POINT('',(0.,0.,0.));
#417=CARTESIAN_POINT('Origin',(-200.,20.,200.));
#418=CARTESIAN_POINT('',(-200.,0.,-200.));
#419=CARTESIAN_POINT('',(-200.,0.,200.));
#420=CARTESIAN_POINT('',(-200.,0.,200.));
#421=CARTESIAN_POINT('',(-200.,20.,200.));
#422=CARTESIAN_POINT('',(-200.,20.,200.));
#423=CARTESIAN_POINT('',(-200.,20.,-200.));
#424=CARTESIAN_POINT('',(-200.,20.,200.));
#425=CARTESIAN_POINT('',(-200.,20.,-200.));
#426=CARTESIAN_POINT('Origin',(200.,20.,200.));
#427=CARTESIAN_POINT('',(200.,0.,200.));
#428=CARTESIAN_POINT('',(200.,0.,200.));
#429=CARTESIAN_POINT('',(200.,20.,200.));
#430=CARTESIAN_POINT('',(200.,20.,200.));
#431=CARTESIAN_POINT('',(200.,20.,200.));
#432=CARTESIAN_POINT('Origin',(200.,20.,200.));
#433=CARTESIAN_POINT('',(200.,0.,-200.));
#434=CARTESIAN_POINT('',(200.,0.,200.));
#435=CARTESIAN_POINT('',(200.,20.,-200.));
#436=CARTESIAN_POINT('',(200.,20.,-200.));
#437=CARTESIAN_POINT('',(200.,20.,200.));
#438=CARTESIAN_POINT('Origin',(200.,20.,-200.));
#439=CARTESIAN_POINT('',(200.,0.,-200.));
#440=CARTESIAN_POINT('',(200.,20.,-200.));
#441=CARTESIAN_POINT('Origin',(0.,20.,0.));
#442=CARTESIAN_POINT('',(-160.,20.,-160.));
#443=CARTESIAN_POINT('',(-160.,20.,160.));
#444=CARTESIAN_POINT('',(-160.,20.,160.));
#445=CARTESIAN_POINT('',(-20.,20.,-160.));
#446=CARTESIAN_POINT('',(-20.,20.,-160.));
#447=CARTESIAN_POINT('',(-20.,20.,160.));
#448=CARTESIAN_POINT('',(-20.,20.,160.));
#449=CARTESIAN_POINT('',(-20.,20.,160.));
#450=CARTESIAN_POINT('',(20.,20.,-160.));
#451=CARTESIAN_POINT('',(20.,20.,160.));
#452=CARTESIAN_POINT('',(20.,20.,160.));
#453=CARTESIAN_POINT('',(160.,20.,-160.));
#454=CARTESIAN_POINT('',(160.,20.,-160.));
#455=CARTESIAN_POINT('',(160.,20.,160.));
#456=CARTESIAN_POINT('',(160.,20.,160.));
#457=CARTESIAN_POINT('',(160.,20.,160.));
#458=CARTESIAN_POINT('Origin',(0.,0.,0.));
#459=CARTESIAN_POINT('',(-20.,0.,-160.));
#460=CARTESIAN_POINT('',(-160.,0.,-160.));
#461=CARTESIAN_POINT('',(-20.,0.,-160.));
#462=CARTESIAN_POINT('',(-160.,0.,160.));
#463=CARTESIAN_POINT('',(-160.,0.,160.));
#464=CARTESIAN_POINT('',(-20.,0.,160.));
#465=CARTESIAN_POINT('',(-20.,0.,160.));
#466=CARTESIAN_POINT('',(-20.,0.,160.));
#467=CARTESIAN_POINT('',(160.,0.,-160.));
#468=CARTESIAN_POINT('',(20.,0.,-160.));
#469=CARTESIAN_POINT('',(160.,0.,-160.));
#470=CARTESIAN_POINT('',(20.,0.,160.));
#471=CARTESIAN_POINT('',(20.,0.,160.));
#472=CARTESIAN_POINT('',(160.,0.,160.));
#473=CARTESIAN_POINT('',(160.,0.,160.));
#474=CARTESIAN_POINT('',(160.,0.,160.));
#475=CARTESIAN_POINT('Origin',(20.,0.,160.));
#476=CARTESIAN_POINT('',(20.,0.,160.));
#477=CARTESIAN_POINT('',(20.,0.,-160.));
#478=CARTESIAN_POINT('Origin',(160.,0.,-160.));
#479=CARTESIAN_POINT('',(160.,0.,-160.));
#480=CARTESIAN_POINT('Origin',(160.,0.,160.));
#481=CARTESIAN_POINT('',(160.,0.,160.));
#482=CARTESIAN_POINT('Origin',(160.,0.,160.));
#483=CARTESIAN_POINT('Origin',(-160.,0.,160.));
#484=CARTESIAN_POINT('',(-160.,0.,160.));
#485=CARTESIAN_POINT('',(-160.,0.,-160.));
#486=CARTESIAN_POINT('Origin',(-20.,0.,-160.));
#487=CARTESIAN_POINT('',(-20.,0.,-160.));
#488=CARTESIAN_POINT('Origin',(-20.,0.,160.));
#489=CARTESIAN_POINT('',(-20.,0.,160.));
#490=CARTESIAN_POINT('Origin',(-20.,0.,160.));
#491=CARTESIAN_POINT('',(0.,0.,0.));
#492=CARTESIAN_POINT('',(0.,0.,0.));
#493=CARTESIAN_POINT('',(0.,0.,31.5));
#494=CARTESIAN_POINT('',(0.,0.,220.212851336734));
#495=UNCERTAINTY_MEASURE_WITH_UNIT(LENGTH_MEASURE(0.01),#503,
'DISTANCE_ACCURACY_VALUE',
'Maximum model space distance between geometric entities at asserted c
onnectivities');
#496=UNCERTAINTY_MEASURE_WITH_UNIT(LENGTH_MEASURE(0.01),#503,
'DISTANCE_ACCURACY_VALUE',
'Maximum model space distance between geometric entities at asserted c
onnectivities');
#497=UNCERTAINTY_MEASURE_WITH_UNIT(LENGTH_MEASURE(0.01),#503,
'DISTANCE_ACCURACY_VALUE',
'Maximum model space distance between geometric entities at asserted c
onnectivities');
#498=UNCERTAINTY_MEASURE_WITH_UNIT(LENGTH_MEASURE(0.01),#503,
'DISTANCE_ACCURACY_VALUE',
'Maximum model space distance between geometric entities at asserted c
onnectivities');
#499=(
GEOMETRIC_REPRESENTATION_CONTEXT(3)
GLOBAL_UNCERTAINTY_ASSIGNED_CONTEXT((#495))
GLOBAL_UNIT_ASSIGNED_CONTEXT((#503,#505,#506))
REPRESENTATION_CONTEXT('','3D')
);
#500=(
GEOMETRIC_REPRESENTATION_CONTEXT(3)
GLOBAL_UNCERTAINTY_ASSIGNED_CONTEXT((#496))
GLOBAL_UNIT_ASSIGNED_CONTEXT((#503,#505,#506))
REPRESENTATION_CONTEXT('','3D')
);
#501=(
GEOMETRIC_REPRESENTATION_CONTEXT(3)
GLOBAL_UNCERTAINTY_ASSIGNED_CONTEXT((#497))
GLOBAL_UNIT_ASSIGNED_CONTEXT((#503,#505,#506))
REPRESENTATION_CONTEXT('','3D')
);
#502=(
GEOMETRIC_REPRESENTATION_CONTEXT(3)
GLOBAL_UNCERTAINTY_ASSIGNED_CONTEXT((#498))
GLOBAL_UNIT_ASSIGNED_CONTEXT((#503,#505,#506))
REPRESENTATION_CONTEXT('','3D')
);
#503=(
LENGTH_UNIT()
NAMED_UNIT(*)
SI_UNIT(.MILLI.,.METRE.)
);
#504=(
LENGTH_UNIT()
NAMED_UNIT(*)
SI_UNIT($,.METRE.)
);
#505=(
NAMED_UNIT(*)
PLANE_ANGLE_UNIT()
SI_UNIT($,.RADIAN.)
);
#506=(
NAMED_UNIT(*)
SI_UNIT($,.STERADIAN.)
SOLID_ANGLE_UNIT()
);
#507=SHAPE_DEFINITION_REPRESENTATION(#510,#516);
#508=SHAPE_DEFINITION_REPRESENTATION(#511,#517);
#509=SHAPE_DEFINITION_REPRESENTATION(#512,#518);
#510=PRODUCT_DEFINITION_SHAPE('',$,#520);
#511=PRODUCT_DEFINITION_SHAPE('',$,#521);
#512=PRODUCT_DEFINITION_SHAPE('',$,#522);
#513=PRODUCT_DEFINITION_SHAPE($,$,#20);
#514=PRODUCT_DEFINITION_SHAPE($,$,#21);
#515=PRODUCT_DEFINITION_SHAPE($,$,#22);
#516=SHAPE_REPRESENTATION('',(#319,#336,#337,#338),#499);
#517=SHAPE_REPRESENTATION('',(#320),#500);
#518=SHAPE_REPRESENTATION('',(#335),#501);
#519=PRODUCT_DEFINITION_CONTEXT('part definition',#530,'design');
#520=PRODUCT_DEFINITION('textile','textile v2',#523,#519);
#521=PRODUCT_DEFINITION('MARCO_Predeterminado','MARCO_Predeterminado',#524,
#519);
#522=PRODUCT_DEFINITION('SHEETPLATE_Predeterminado',
'SHEETPLATE_Predeterminado',#525,#519);
#523=PRODUCT_DEFINITION_FORMATION('',$,#532);
#524=PRODUCT_DEFINITION_FORMATION('',$,#533);
#525=PRODUCT_DEFINITION_FORMATION('',$,#534);
#526=PRODUCT_RELATED_PRODUCT_CATEGORY('textile v2','textile v2',(#532));
#527=PRODUCT_RELATED_PRODUCT_CATEGORY('MARCO_Predeterminado',
'MARCO_Predeterminado',(#533));
#528=PRODUCT_RELATED_PRODUCT_CATEGORY('SHEETPLATE_Predeterminado',
'SHEETPLATE_Predeterminado',(#534));
#529=APPLICATION_PROTOCOL_DEFINITION('international standard',
'automotive_design',2009,#530);
#530=APPLICATION_CONTEXT(
'Core Data for Automotive Mechanical Design Process');
#531=PRODUCT_CONTEXT('part definition',#530,'mechanical');
#532=PRODUCT('textile','textile v2','STEP AP203',(#531));
#533=PRODUCT('MARCO_Predeterminado','MARCO_Predeterminado',$,(#531));
#534=PRODUCT('SHEETPLATE_Predeterminado','SHEETPLATE_Predeterminado',$,
(#531));
#535=PRESENTATION_STYLE_ASSIGNMENT((#536));
#536=SURFACE_STYLE_USAGE(.BOTH.,#537);
#537=SURFACE_SIDE_STYLE('',(#538));
#538=SURFACE_STYLE_FILL_AREA(#539);
#539=FILL_AREA_STYLE('Steel - Satin',(#540));
#540=FILL_AREA_STYLE_COLOUR('Steel - Satin',#541);
#541=COLOUR_RGB('Steel - Satin',0.627450980392157,0.627450980392157,0.627450980392157);
ENDSEC;
END-ISO-10303-21;
