ISO-10303-21;
HEADER;
/* Generated by software containing ST-Developer
 * from STEP Tools, Inc. (www.steptools.com) 
 */

FILE_DESCRIPTION(
/* description */ (''),
/* implementation_level */ '2;1');

FILE_NAME(
/* name */ '511_HopperMount-85-120-80 v1.step',
/* time_stamp */ '2026-03-14T09:50:51+01:00',
/* author */ (''),
/* organization */ (''),
/* preprocessor_version */ 'ST-DEVELOPER v20.1',
/* originating_system */ 'Autodesk Translation Framework v14.24.0.0',
/* authorisation */ '');

FILE_SCHEMA (('AUTOMOTIVE_DESIGN { 1 0 10303 214 3 1 1 }'));
ENDSEC;

DATA;
#10=MECHANICAL_DESIGN_GEOMETRIC_PRESENTATION_REPRESENTATION('',(#13),#669);
#11=SHAPE_REPRESENTATION_RELATIONSHIP('SRR','None',#676,#12);
#12=ADVANCED_BREP_SHAPE_REPRESENTATION('',(#14),#668);
#13=STYLED_ITEM('',(#685),#14);
#14=MANIFOLD_SOLID_BREP('Body1',#261);
#15=B_SPLINE_SURFACE_WITH_KNOTS('',3,1,((#604,#605),(#606,#607),(#608,#609),
(#610,#611),(#612,#613),(#614,#615),(#616,#617),(#618,#619),(#620,#621),
(#622,#623),(#624,#625),(#626,#627),(#628,#629),(#630,#631),(#632,#633),
(#634,#635),(#636,#637),(#638,#639),(#640,#641),(#642,#643),(#644,#645),
(#646,#647),(#648,#649),(#650,#651),(#652,#653),(#654,#655),(#656,#657),
(#658,#659),(#660,#661),(#662,#663)),.UNSPECIFIED.,.T.,.F.,.F.,(4,1,1,1,
1,1,1,1,2,1,1,1,2,1,1,1,1,1,1,1,2,1,1,1,4),(2,2),(0.,0.0457306174279347,
0.0914612348558693,0.137191852283804,0.182922469711739,0.228653087139673,
0.274383704567608,0.320114321995543,0.365844939423477,0.399383704567608,
0.432922469711739,0.466461234855869,0.5,0.545730617427935,0.591461234855869,
0.637191852283804,0.682922469711739,0.728653087139673,0.774383704567608,
0.820114321995543,0.865844939423477,0.899383704567608,0.932922469711739,
0.966461234855869,1.),(0.,1.),.UNSPECIFIED.);
#16=CYLINDRICAL_SURFACE('',#292,3.50000000000001);
#17=CYLINDRICAL_SURFACE('',#293,3.50000000000001);
#18=CYLINDRICAL_SURFACE('',#294,3.50000000000001);
#19=CYLINDRICAL_SURFACE('',#295,3.50000000000001);
#20=CYLINDRICAL_SURFACE('',#296,30.025);
#21=B_SPLINE_CURVE_WITH_KNOTS('',3,(#395,#396,#397,#398,#399,#400,#401,
#402,#403,#404,#405,#406,#407,#408,#409,#410,#411,#412,#413,#414,#415,#416,
#417,#418,#419,#420,#421,#422,#423,#424,#425,#426,#427,#428,#429,#430,#431,
#432,#433,#434,#435,#436,#437,#438,#439,#440,#441,#442,#443,#444,#445,#446,
#447,#448,#449,#450,#451,#452,#453,#454,#455,#456,#457,#458,#459,#460,#461,
#462,#463,#464,#465,#466,#467),.UNSPECIFIED.,.T.,.F.,(4,3,3,3,3,3,3,3,3,
3,3,3,3,3,3,3,3,3,3,3,3,3,3,3,4),(-1.,-0.954269382572065,-0.908538765144131,
-0.862808147716196,-0.817077530288261,-0.771346912860327,-0.725616295432392,
-0.679885678004457,-0.634155060576523,-0.600616295432392,-0.567077530288261,
-0.533538765144131,-0.5,-0.454269382572065,-0.408538765144131,-0.362808147716196,
-0.317077530288261,-0.271346912860327,-0.225616295432392,-0.179885678004457,
-0.134155060576523,-0.100616295432392,-0.0670775302882614,-0.0335387651441307,
0.),.UNSPECIFIED.);
#22=B_SPLINE_CURVE_WITH_KNOTS('',3,(#501,#502,#503,#504,#505,#506,#507,
#508,#509,#510,#511,#512,#513,#514,#515,#516,#517,#518,#519,#520,#521,#522,
#523,#524,#525,#526,#527,#528,#529,#530,#531,#532,#533,#534,#535,#536,#537,
#538,#539,#540,#541,#542,#543,#544,#545,#546,#547,#548,#549,#550,#551,#552,
#553,#554,#555,#556,#557,#558,#559,#560,#561,#562,#563,#564,#565,#566,#567,
#568,#569,#570,#571,#572,#573,#574,#575,#576,#577,#578,#579,#580,#581,#582,
#583,#584,#585,#586,#587,#588,#589,#590,#591,#592,#593,#594,#595,#596,#597,
#598,#599,#600,#601,#602,#603),.UNSPECIFIED.,.T.,.F.,(4,3,3,3,3,3,3,3,3,
3,3,3,3,3,3,3,3,3,3,3,3,3,3,3,3,3,3,3,3,3,3,3,3,3,4),(-7.71247187188705,
-7.26356727277912,-7.04823516797704,-6.45557358168275,-5.81640107942782,
-5.11886330008668,-4.33005960461417,-3.45470937170524,-2.51413692713244,
-2.01125186963242,-1.72832562533405,-1.54580561416262,-1.11095947327834,
-0.807216778900389,-0.722268967511625,-0.393041828266582,-0.36760942485538,
-0.0234557302133187,8.88178419700125E-16,0.47564881539826,1.00506507959534,
1.58341820247881,2.21754845484736,2.93842981342668,3.77961703672114,4.72704748574171,
5.32119655545346,5.77012296539365,6.32002094754091,6.39250594781617,6.87323321883843,
7.24221564533482,7.35559549846878,7.78505467083094,7.98244538882212),
 .UNSPECIFIED.);
#23=B_SPLINE_CURVE_WITH_KNOTS('',1,(#664,#665),.UNSPECIFIED.,.F.,.F.,(2,
2),(0.456477702908022,1.),.UNSPECIFIED.);
#24=FACE_BOUND('',#58,.T.);
#25=FACE_BOUND('',#59,.T.);
#26=FACE_BOUND('',#61,.T.);
#27=FACE_BOUND('',#62,.T.);
#28=FACE_BOUND('',#63,.T.);
#29=FACE_BOUND('',#64,.T.);
#30=FACE_BOUND('',#65,.T.);
#31=FACE_BOUND('',#67,.T.);
#32=FACE_BOUND('',#68,.T.);
#33=FACE_BOUND('',#78,.T.);
#34=CIRCLE('',#276,3.50000000000001);
#35=CIRCLE('',#277,3.50000000000001);
#36=CIRCLE('',#279,3.50000000000001);
#37=CIRCLE('',#280,3.50000000000001);
#38=CIRCLE('',#281,3.50000000000001);
#39=CIRCLE('',#282,3.50000000000001);
#40=CIRCLE('',#284,3.50000000000001);
#41=CIRCLE('',#285,3.50000000000001);
#42=CIRCLE('',#288,30.025);
#43=CIRCLE('',#291,30.025);
#44=FACE_OUTER_BOUND('',#57,.T.);
#45=FACE_OUTER_BOUND('',#60,.T.);
#46=FACE_OUTER_BOUND('',#66,.T.);
#47=FACE_OUTER_BOUND('',#69,.T.);
#48=FACE_OUTER_BOUND('',#70,.T.);
#49=FACE_OUTER_BOUND('',#71,.T.);
#50=FACE_OUTER_BOUND('',#72,.T.);
#51=FACE_OUTER_BOUND('',#73,.T.);
#52=FACE_OUTER_BOUND('',#74,.T.);
#53=FACE_OUTER_BOUND('',#75,.T.);
#54=FACE_OUTER_BOUND('',#76,.T.);
#55=FACE_OUTER_BOUND('',#77,.T.);
#56=FACE_OUTER_BOUND('',#79,.T.);
#57=EDGE_LOOP('',(#175,#176,#177,#178));
#58=EDGE_LOOP('',(#179));
#59=EDGE_LOOP('',(#180));
#60=EDGE_LOOP('',(#181,#182,#183,#184));
#61=EDGE_LOOP('',(#185));
#62=EDGE_LOOP('',(#186));
#63=EDGE_LOOP('',(#187));
#64=EDGE_LOOP('',(#188));
#65=EDGE_LOOP('',(#189));
#66=EDGE_LOOP('',(#190,#191,#192,#193));
#67=EDGE_LOOP('',(#194));
#68=EDGE_LOOP('',(#195));
#69=EDGE_LOOP('',(#196,#197,#198,#199));
#70=EDGE_LOOP('',(#200,#201,#202,#203,#204,#205));
#71=EDGE_LOOP('',(#206,#207,#208,#209));
#72=EDGE_LOOP('',(#210,#211,#212,#213,#214,#215));
#73=EDGE_LOOP('',(#216,#217,#218,#219));
#74=EDGE_LOOP('',(#220,#221,#222,#223));
#75=EDGE_LOOP('',(#224,#225,#226,#227));
#76=EDGE_LOOP('',(#228,#229,#230,#231));
#77=EDGE_LOOP('',(#232,#233,#234,#235));
#78=EDGE_LOOP('',(#236));
#79=EDGE_LOOP('',(#237,#238,#239,#240));
#80=LINE('',#367,#100);
#81=LINE('',#369,#101);
#82=LINE('',#371,#102);
#83=LINE('',#372,#103);
#84=LINE('',#380,#104);
#85=LINE('',#382,#105);
#86=LINE('',#384,#106);
#87=LINE('',#385,#107);
#88=LINE('',#471,#108);
#89=LINE('',#473,#109);
#90=LINE('',#475,#110);
#91=LINE('',#476,#111);
#92=LINE('',#482,#112);
#93=LINE('',#483,#113);
#94=LINE('',#486,#114);
#95=LINE('',#488,#115);
#96=LINE('',#492,#116);
#97=LINE('',#494,#117);
#98=LINE('',#496,#118);
#99=LINE('',#498,#119);
#100=VECTOR('',#301,85.);
#101=VECTOR('',#302,29.975);
#102=VECTOR('',#303,85.);
#103=VECTOR('',#304,29.975);
#104=VECTOR('',#311,85.);
#105=VECTOR('',#312,120.);
#106=VECTOR('',#313,85.);
#107=VECTOR('',#314,120.);
#108=VECTOR('',#325,85.);
#109=VECTOR('',#326,29.975);
#110=VECTOR('',#327,85.);
#111=VECTOR('',#328,29.975);
#112=VECTOR('',#335,40.);
#113=VECTOR('',#336,40.);
#114=VECTOR('',#341,40.);
#115=VECTOR('',#344,40.);
#116=VECTOR('',#351,3.50000000000001);
#117=VECTOR('',#354,3.50000000000001);
#118=VECTOR('',#357,3.50000000000001);
#119=VECTOR('',#360,3.50000000000001);
#120=VERTEX_POINT('',#365);
#121=VERTEX_POINT('',#366);
#122=VERTEX_POINT('',#368);
#123=VERTEX_POINT('',#370);
#124=VERTEX_POINT('',#373);
#125=VERTEX_POINT('',#375);
#126=VERTEX_POINT('',#378);
#127=VERTEX_POINT('',#379);
#128=VERTEX_POINT('',#381);
#129=VERTEX_POINT('',#383);
#130=VERTEX_POINT('',#386);
#131=VERTEX_POINT('',#388);
#132=VERTEX_POINT('',#390);
#133=VERTEX_POINT('',#392);
#134=VERTEX_POINT('',#394);
#135=VERTEX_POINT('',#469);
#136=VERTEX_POINT('',#470);
#137=VERTEX_POINT('',#472);
#138=VERTEX_POINT('',#474);
#139=VERTEX_POINT('',#477);
#140=VERTEX_POINT('',#479);
#141=VERTEX_POINT('',#500);
#142=EDGE_CURVE('',#120,#121,#80,.T.);
#143=EDGE_CURVE('',#122,#120,#81,.T.);
#144=EDGE_CURVE('',#123,#122,#82,.T.);
#145=EDGE_CURVE('',#121,#123,#83,.T.);
#146=EDGE_CURVE('',#124,#124,#34,.T.);
#147=EDGE_CURVE('',#125,#125,#35,.T.);
#148=EDGE_CURVE('',#126,#127,#84,.T.);
#149=EDGE_CURVE('',#127,#128,#85,.T.);
#150=EDGE_CURVE('',#128,#129,#86,.T.);
#151=EDGE_CURVE('',#129,#126,#87,.T.);
#152=EDGE_CURVE('',#130,#130,#36,.T.);
#153=EDGE_CURVE('',#131,#131,#37,.T.);
#154=EDGE_CURVE('',#132,#132,#38,.T.);
#155=EDGE_CURVE('',#133,#133,#39,.T.);
#156=EDGE_CURVE('',#134,#134,#21,.T.);
#157=EDGE_CURVE('',#135,#136,#88,.F.);
#158=EDGE_CURVE('',#137,#135,#89,.T.);
#159=EDGE_CURVE('',#138,#137,#90,.T.);
#160=EDGE_CURVE('',#136,#138,#91,.T.);
#161=EDGE_CURVE('',#139,#139,#40,.T.);
#162=EDGE_CURVE('',#140,#140,#41,.T.);
#163=EDGE_CURVE('',#127,#122,#92,.T.);
#164=EDGE_CURVE('',#126,#123,#93,.T.);
#165=EDGE_CURVE('',#120,#136,#42,.T.);
#166=EDGE_CURVE('',#128,#138,#94,.T.);
#167=EDGE_CURVE('',#129,#137,#95,.T.);
#168=EDGE_CURVE('',#135,#121,#43,.T.);
#169=EDGE_CURVE('',#130,#139,#96,.T.);
#170=EDGE_CURVE('',#131,#124,#97,.T.);
#171=EDGE_CURVE('',#132,#125,#98,.T.);
#172=EDGE_CURVE('',#133,#140,#99,.T.);
#173=EDGE_CURVE('',#141,#141,#22,.T.);
#174=EDGE_CURVE('',#141,#134,#23,.T.);
#175=ORIENTED_EDGE('',*,*,#142,.F.);
#176=ORIENTED_EDGE('',*,*,#143,.F.);
#177=ORIENTED_EDGE('',*,*,#144,.F.);
#178=ORIENTED_EDGE('',*,*,#145,.F.);
#179=ORIENTED_EDGE('',*,*,#146,.T.);
#180=ORIENTED_EDGE('',*,*,#147,.T.);
#181=ORIENTED_EDGE('',*,*,#148,.T.);
#182=ORIENTED_EDGE('',*,*,#149,.T.);
#183=ORIENTED_EDGE('',*,*,#150,.T.);
#184=ORIENTED_EDGE('',*,*,#151,.T.);
#185=ORIENTED_EDGE('',*,*,#152,.F.);
#186=ORIENTED_EDGE('',*,*,#153,.F.);
#187=ORIENTED_EDGE('',*,*,#154,.F.);
#188=ORIENTED_EDGE('',*,*,#155,.F.);
#189=ORIENTED_EDGE('',*,*,#156,.F.);
#190=ORIENTED_EDGE('',*,*,#157,.F.);
#191=ORIENTED_EDGE('',*,*,#158,.F.);
#192=ORIENTED_EDGE('',*,*,#159,.F.);
#193=ORIENTED_EDGE('',*,*,#160,.F.);
#194=ORIENTED_EDGE('',*,*,#161,.T.);
#195=ORIENTED_EDGE('',*,*,#162,.T.);
#196=ORIENTED_EDGE('',*,*,#144,.T.);
#197=ORIENTED_EDGE('',*,*,#163,.F.);
#198=ORIENTED_EDGE('',*,*,#148,.F.);
#199=ORIENTED_EDGE('',*,*,#164,.T.);
#200=ORIENTED_EDGE('',*,*,#143,.T.);
#201=ORIENTED_EDGE('',*,*,#165,.T.);
#202=ORIENTED_EDGE('',*,*,#160,.T.);
#203=ORIENTED_EDGE('',*,*,#166,.F.);
#204=ORIENTED_EDGE('',*,*,#149,.F.);
#205=ORIENTED_EDGE('',*,*,#163,.T.);
#206=ORIENTED_EDGE('',*,*,#159,.T.);
#207=ORIENTED_EDGE('',*,*,#167,.F.);
#208=ORIENTED_EDGE('',*,*,#150,.F.);
#209=ORIENTED_EDGE('',*,*,#166,.T.);
#210=ORIENTED_EDGE('',*,*,#158,.T.);
#211=ORIENTED_EDGE('',*,*,#168,.T.);
#212=ORIENTED_EDGE('',*,*,#145,.T.);
#213=ORIENTED_EDGE('',*,*,#164,.F.);
#214=ORIENTED_EDGE('',*,*,#151,.F.);
#215=ORIENTED_EDGE('',*,*,#167,.T.);
#216=ORIENTED_EDGE('',*,*,#152,.T.);
#217=ORIENTED_EDGE('',*,*,#169,.T.);
#218=ORIENTED_EDGE('',*,*,#161,.F.);
#219=ORIENTED_EDGE('',*,*,#169,.F.);
#220=ORIENTED_EDGE('',*,*,#153,.T.);
#221=ORIENTED_EDGE('',*,*,#170,.T.);
#222=ORIENTED_EDGE('',*,*,#146,.F.);
#223=ORIENTED_EDGE('',*,*,#170,.F.);
#224=ORIENTED_EDGE('',*,*,#154,.T.);
#225=ORIENTED_EDGE('',*,*,#171,.T.);
#226=ORIENTED_EDGE('',*,*,#147,.F.);
#227=ORIENTED_EDGE('',*,*,#171,.F.);
#228=ORIENTED_EDGE('',*,*,#155,.T.);
#229=ORIENTED_EDGE('',*,*,#172,.T.);
#230=ORIENTED_EDGE('',*,*,#162,.F.);
#231=ORIENTED_EDGE('',*,*,#172,.F.);
#232=ORIENTED_EDGE('',*,*,#142,.T.);
#233=ORIENTED_EDGE('',*,*,#168,.F.);
#234=ORIENTED_EDGE('',*,*,#157,.T.);
#235=ORIENTED_EDGE('',*,*,#165,.F.);
#236=ORIENTED_EDGE('',*,*,#173,.T.);
#237=ORIENTED_EDGE('',*,*,#173,.F.);
#238=ORIENTED_EDGE('',*,*,#174,.T.);
#239=ORIENTED_EDGE('',*,*,#156,.T.);
#240=ORIENTED_EDGE('',*,*,#174,.F.);
#241=PLANE('',#275);
#242=PLANE('',#278);
#243=PLANE('',#283);
#244=PLANE('',#286);
#245=PLANE('',#287);
#246=PLANE('',#289);
#247=PLANE('',#290);
#248=ADVANCED_FACE('',(#44,#24,#25),#241,.T.);
#249=ADVANCED_FACE('',(#45,#26,#27,#28,#29,#30),#242,.F.);
#250=ADVANCED_FACE('',(#46,#31,#32),#243,.T.);
#251=ADVANCED_FACE('',(#47),#244,.F.);
#252=ADVANCED_FACE('',(#48),#245,.F.);
#253=ADVANCED_FACE('',(#49),#246,.F.);
#254=ADVANCED_FACE('',(#50),#247,.F.);
#255=ADVANCED_FACE('',(#51),#16,.F.);
#256=ADVANCED_FACE('',(#52),#17,.F.);
#257=ADVANCED_FACE('',(#53),#18,.F.);
#258=ADVANCED_FACE('',(#54),#19,.F.);
#259=ADVANCED_FACE('',(#55,#33),#20,.F.);
#260=ADVANCED_FACE('',(#56),#15,.F.);
#261=CLOSED_SHELL('',(#248,#249,#250,#251,#252,#253,#254,#255,#256,#257,
#258,#259,#260));
#262=DERIVED_UNIT_ELEMENT(#264,1.);
#263=DERIVED_UNIT_ELEMENT(#671,-3.);
#264=(
MASS_UNIT()
NAMED_UNIT(*)
SI_UNIT(.KILO.,.GRAM.)
);
#265=DERIVED_UNIT((#262,#263));
#266=MEASURE_REPRESENTATION_ITEM('density measure',
POSITIVE_RATIO_MEASURE(2700.),#265);
#267=PROPERTY_DEFINITION_REPRESENTATION(#272,#269);
#268=PROPERTY_DEFINITION_REPRESENTATION(#273,#270);
#269=REPRESENTATION('material name',(#271),#668);
#270=REPRESENTATION('density',(#266),#668);
#271=DESCRIPTIVE_REPRESENTATION_ITEM('6061-O (SS)','6061-O (SS)');
#272=PROPERTY_DEFINITION('material property','material name',#678);
#273=PROPERTY_DEFINITION('material property','density of part',#678);
#274=AXIS2_PLACEMENT_3D('',#363,#297,#298);
#275=AXIS2_PLACEMENT_3D('',#364,#299,#300);
#276=AXIS2_PLACEMENT_3D('',#374,#305,#306);
#277=AXIS2_PLACEMENT_3D('',#376,#307,#308);
#278=AXIS2_PLACEMENT_3D('',#377,#309,#310);
#279=AXIS2_PLACEMENT_3D('',#387,#315,#316);
#280=AXIS2_PLACEMENT_3D('',#389,#317,#318);
#281=AXIS2_PLACEMENT_3D('',#391,#319,#320);
#282=AXIS2_PLACEMENT_3D('',#393,#321,#322);
#283=AXIS2_PLACEMENT_3D('',#468,#323,#324);
#284=AXIS2_PLACEMENT_3D('',#478,#329,#330);
#285=AXIS2_PLACEMENT_3D('',#480,#331,#332);
#286=AXIS2_PLACEMENT_3D('',#481,#333,#334);
#287=AXIS2_PLACEMENT_3D('',#484,#337,#338);
#288=AXIS2_PLACEMENT_3D('',#485,#339,#340);
#289=AXIS2_PLACEMENT_3D('',#487,#342,#343);
#290=AXIS2_PLACEMENT_3D('',#489,#345,#346);
#291=AXIS2_PLACEMENT_3D('',#490,#347,#348);
#292=AXIS2_PLACEMENT_3D('',#491,#349,#350);
#293=AXIS2_PLACEMENT_3D('',#493,#352,#353);
#294=AXIS2_PLACEMENT_3D('',#495,#355,#356);
#295=AXIS2_PLACEMENT_3D('',#497,#358,#359);
#296=AXIS2_PLACEMENT_3D('',#499,#361,#362);
#297=DIRECTION('axis',(0.,0.,1.));
#298=DIRECTION('refdir',(1.,0.,0.));
#299=DIRECTION('center_axis',(0.,0.,-1.));
#300=DIRECTION('ref_axis',(-1.,0.,0.));
#301=DIRECTION('',(0.,1.,0.));
#302=DIRECTION('',(1.,0.,0.));
#303=DIRECTION('',(0.,-1.,0.));
#304=DIRECTION('',(-1.,0.,0.));
#305=DIRECTION('center_axis',(0.,0.,1.));
#306=DIRECTION('ref_axis',(1.,0.,0.));
#307=DIRECTION('center_axis',(0.,0.,1.));
#308=DIRECTION('ref_axis',(1.,0.,0.));
#309=DIRECTION('center_axis',(0.,0.,-1.));
#310=DIRECTION('ref_axis',(-1.,0.,0.));
#311=DIRECTION('',(0.,-1.,0.));
#312=DIRECTION('',(1.,0.,0.));
#313=DIRECTION('',(0.,1.,0.));
#314=DIRECTION('',(-1.,0.,0.));
#315=DIRECTION('center_axis',(0.,0.,1.));
#316=DIRECTION('ref_axis',(1.,0.,0.));
#317=DIRECTION('center_axis',(0.,0.,1.));
#318=DIRECTION('ref_axis',(1.,0.,0.));
#319=DIRECTION('center_axis',(0.,0.,1.));
#320=DIRECTION('ref_axis',(1.,0.,0.));
#321=DIRECTION('center_axis',(0.,0.,1.));
#322=DIRECTION('ref_axis',(1.,0.,0.));
#323=DIRECTION('center_axis',(0.,0.,-1.));
#324=DIRECTION('ref_axis',(-1.,0.,0.));
#325=DIRECTION('',(0.,1.,0.));
#326=DIRECTION('',(-1.,0.,0.));
#327=DIRECTION('',(0.,1.,0.));
#328=DIRECTION('',(1.,0.,0.));
#329=DIRECTION('center_axis',(0.,0.,1.));
#330=DIRECTION('ref_axis',(1.,0.,0.));
#331=DIRECTION('center_axis',(0.,0.,1.));
#332=DIRECTION('ref_axis',(1.,0.,0.));
#333=DIRECTION('center_axis',(1.,0.,0.));
#334=DIRECTION('ref_axis',(0.,0.,-1.));
#335=DIRECTION('',(0.,0.,-1.));
#336=DIRECTION('',(0.,0.,-1.));
#337=DIRECTION('center_axis',(0.,1.,0.));
#338=DIRECTION('ref_axis',(0.,0.,1.));
#339=DIRECTION('center_axis',(0.,1.,0.));
#340=DIRECTION('ref_axis',(0.,0.,1.));
#341=DIRECTION('',(0.,0.,-1.));
#342=DIRECTION('center_axis',(-1.,0.,0.));
#343=DIRECTION('ref_axis',(0.,0.,1.));
#344=DIRECTION('',(0.,0.,-1.));
#345=DIRECTION('center_axis',(0.,-1.,0.));
#346=DIRECTION('ref_axis',(0.,0.,-1.));
#347=DIRECTION('center_axis',(0.,-1.,0.));
#348=DIRECTION('ref_axis',(0.,0.,-1.));
#349=DIRECTION('center_axis',(0.,0.,-1.));
#350=DIRECTION('ref_axis',(-1.,0.,0.));
#351=DIRECTION('',(0.,0.,-1.));
#352=DIRECTION('center_axis',(0.,0.,-1.));
#353=DIRECTION('ref_axis',(-1.,0.,0.));
#354=DIRECTION('',(0.,0.,-1.));
#355=DIRECTION('center_axis',(0.,0.,-1.));
#356=DIRECTION('ref_axis',(-1.,0.,0.));
#357=DIRECTION('',(0.,0.,-1.));
#358=DIRECTION('center_axis',(0.,0.,-1.));
#359=DIRECTION('ref_axis',(-1.,0.,0.));
#360=DIRECTION('',(0.,0.,-1.));
#361=DIRECTION('center_axis',(0.,1.,0.));
#362=DIRECTION('ref_axis',(0.,0.,1.));
#363=CARTESIAN_POINT('',(0.,0.,0.));
#364=CARTESIAN_POINT('Origin',(0.,0.,0.));
#365=CARTESIAN_POINT('',(-30.025,-42.5,0.));
#366=CARTESIAN_POINT('',(-30.025,42.5,0.));
#367=CARTESIAN_POINT('',(-30.025,-42.5,0.));
#368=CARTESIAN_POINT('',(-60.,-42.5,0.));
#369=CARTESIAN_POINT('',(-60.,-42.5,0.));
#370=CARTESIAN_POINT('',(-60.,42.5,0.));
#371=CARTESIAN_POINT('',(-60.,42.5,0.));
#372=CARTESIAN_POINT('',(-30.025,42.5,0.));
#373=CARTESIAN_POINT('',(-46.5,-33.5,0.));
#374=CARTESIAN_POINT('Origin',(-50.,-33.5,0.));
#375=CARTESIAN_POINT('',(-46.5,33.5,0.));
#376=CARTESIAN_POINT('Origin',(-50.,33.5,0.));
#377=CARTESIAN_POINT('Origin',(0.,0.,40.));
#378=CARTESIAN_POINT('',(-60.,42.5,40.));
#379=CARTESIAN_POINT('',(-60.,-42.5,40.));
#380=CARTESIAN_POINT('',(-60.,42.5,40.));
#381=CARTESIAN_POINT('',(60.,-42.5,40.));
#382=CARTESIAN_POINT('',(-60.,-42.5,40.));
#383=CARTESIAN_POINT('',(60.,42.5,40.));
#384=CARTESIAN_POINT('',(60.,-42.5,40.));
#385=CARTESIAN_POINT('',(60.,42.5,40.));
#386=CARTESIAN_POINT('',(53.5000000000001,-33.5,40.));
#387=CARTESIAN_POINT('Origin',(50.,-33.5,40.));
#388=CARTESIAN_POINT('',(-46.5,-33.5,40.));
#389=CARTESIAN_POINT('Origin',(-50.,-33.5,40.));
#390=CARTESIAN_POINT('',(-46.5,33.5,40.));
#391=CARTESIAN_POINT('Origin',(-50.,33.5,40.));
#392=CARTESIAN_POINT('',(53.5000000000001,33.5,40.));
#393=CARTESIAN_POINT('Origin',(50.,33.5,40.));
#394=CARTESIAN_POINT('',(16.9941166289501,8.49705831459576,40.));
#395=CARTESIAN_POINT('Ctrl Pts',(16.9941166289501,8.49705831459576,40.));
#396=CARTESIAN_POINT('Ctrl Pts',(16.1802855455554,10.1247204813853,40.));
#397=CARTESIAN_POINT('Ctrl Pts',(15.1443897561481,11.6102766617054,40.));
#398=CARTESIAN_POINT('Ctrl Pts',(13.9385047211882,12.9120931208858,40.));
#399=CARTESIAN_POINT('Ctrl Pts',(12.7326196862284,14.2139095800663,40.));
#400=CARTESIAN_POINT('Ctrl Pts',(11.3567454057159,15.3319863181072,39.9999999999999));
#401=CARTESIAN_POINT('Ctrl Pts',(9.86602123848341,16.2377473744399,39.9999999999999));
#402=CARTESIAN_POINT('Ctrl Pts',(8.37529707125089,17.1435084307726,40.));
#403=CARTESIAN_POINT('Ctrl Pts',(6.76972301729827,17.8369538053972,40.));
#404=CARTESIAN_POINT('Ctrl Pts',(5.10624449643103,18.3010977184513,40.));
#405=CARTESIAN_POINT('Ctrl Pts',(3.44276597556378,18.7652416315053,40.));
#406=CARTESIAN_POINT('Ctrl Pts',(1.7213829877819,19.0000840829888,39.9999999999999));
#407=CARTESIAN_POINT('Ctrl Pts',(2.77555756156289E-14,19.0000840829888,
39.9999999999999));
#408=CARTESIAN_POINT('Ctrl Pts',(-1.72138298778186,19.0000840829888,39.9999999999999));
#409=CARTESIAN_POINT('Ctrl Pts',(-3.44276597556374,18.7652416315053,40.));
#410=CARTESIAN_POINT('Ctrl Pts',(-5.106244496431,18.3010977184512,40.));
#411=CARTESIAN_POINT('Ctrl Pts',(-6.76972301729824,17.8369538053972,40.));
#412=CARTESIAN_POINT('Ctrl Pts',(-8.37529707125088,17.1435084307726,39.9999999999999));
#413=CARTESIAN_POINT('Ctrl Pts',(-9.8660212384834,16.2377473744399,39.9999999999999));
#414=CARTESIAN_POINT('Ctrl Pts',(-11.3567454057159,15.3319863181072,39.9999999999999));
#415=CARTESIAN_POINT('Ctrl Pts',(-12.7326196862283,14.2139095800663,40.));
#416=CARTESIAN_POINT('Ctrl Pts',(-13.9385047211882,12.9120931208858,40.));
#417=CARTESIAN_POINT('Ctrl Pts',(-15.144389756148,11.6102766617054,40.));
#418=CARTESIAN_POINT('Ctrl Pts',(-16.1802855455553,10.1247204813853,40.));
#419=CARTESIAN_POINT('Ctrl Pts',(-16.9941166289501,8.49705831459576,40.));
#420=CARTESIAN_POINT('Ctrl Pts',(-17.590979105517,7.30333336146196,40.));
#421=CARTESIAN_POINT('Ctrl Pts',(-18.100305559001,5.96841149159916,40.));
#422=CARTESIAN_POINT('Ctrl Pts',(-18.4528016417657,4.52870228637836,40.));
#423=CARTESIAN_POINT('Ctrl Pts',(-18.8052977245304,3.08899308115757,40.));
#424=CARTESIAN_POINT('Ctrl Pts',(-19.0009634365759,1.54449654057879,40.));
#425=CARTESIAN_POINT('Ctrl Pts',(-19.0009634365759,3.33066907387547E-15,
40.));
#426=CARTESIAN_POINT('Ctrl Pts',(-19.0009634365758,-1.54449654057879,40.));
#427=CARTESIAN_POINT('Ctrl Pts',(-18.8052977245304,-3.08899308115757,40.));
#428=CARTESIAN_POINT('Ctrl Pts',(-18.4528016417657,-4.52870228637837,40.));
#429=CARTESIAN_POINT('Ctrl Pts',(-18.100305559001,-5.96841149159916,40.));
#430=CARTESIAN_POINT('Ctrl Pts',(-17.590979105517,-7.30333336146195,40.));
#431=CARTESIAN_POINT('Ctrl Pts',(-16.9941166289501,-8.49705831459575,40.));
#432=CARTESIAN_POINT('Ctrl Pts',(-16.1802855455553,-10.1247204813853,40.));
#433=CARTESIAN_POINT('Ctrl Pts',(-15.1443897561481,-11.6102766617054,40.));
#434=CARTESIAN_POINT('Ctrl Pts',(-13.9385047211882,-12.9120931208858,40.));
#435=CARTESIAN_POINT('Ctrl Pts',(-12.7326196862283,-14.2139095800663,40.));
#436=CARTESIAN_POINT('Ctrl Pts',(-11.3567454057159,-15.3319863181072,40.));
#437=CARTESIAN_POINT('Ctrl Pts',(-9.8660212384834,-16.2377473744399,40.));
#438=CARTESIAN_POINT('Ctrl Pts',(-8.37529707125087,-17.1435084307726,40.));
#439=CARTESIAN_POINT('Ctrl Pts',(-6.76972301729824,-17.8369538053972,40.));
#440=CARTESIAN_POINT('Ctrl Pts',(-5.10624449643099,-18.3010977184513,40.));
#441=CARTESIAN_POINT('Ctrl Pts',(-3.44276597556374,-18.7652416315053,40.));
#442=CARTESIAN_POINT('Ctrl Pts',(-1.72138298778187,-19.0000840829888,40.));
#443=CARTESIAN_POINT('Ctrl Pts',(5.55111512312578E-15,-19.0000840829888,
40.));
#444=CARTESIAN_POINT('Ctrl Pts',(1.72138298778188,-19.0000840829888,40.));
#445=CARTESIAN_POINT('Ctrl Pts',(3.44276597556376,-18.7652416315053,40.));
#446=CARTESIAN_POINT('Ctrl Pts',(5.10624449643101,-18.3010977184512,40.));
#447=CARTESIAN_POINT('Ctrl Pts',(6.76972301729826,-17.8369538053972,39.9999999999999));
#448=CARTESIAN_POINT('Ctrl Pts',(8.37529707125088,-17.1435084307726,39.9999999999999));
#449=CARTESIAN_POINT('Ctrl Pts',(9.86602123848341,-16.2377473744399,39.9999999999999));
#450=CARTESIAN_POINT('Ctrl Pts',(11.3567454057159,-15.3319863181072,39.9999999999999));
#451=CARTESIAN_POINT('Ctrl Pts',(12.7326196862284,-14.2139095800663,40.));
#452=CARTESIAN_POINT('Ctrl Pts',(13.9385047211882,-12.9120931208858,40.));
#453=CARTESIAN_POINT('Ctrl Pts',(15.1443897561481,-11.6102766617054,40.));
#454=CARTESIAN_POINT('Ctrl Pts',(16.1802855455554,-10.1247204813853,40.));
#455=CARTESIAN_POINT('Ctrl Pts',(16.9941166289501,-8.49705831459576,40.));
#456=CARTESIAN_POINT('Ctrl Pts',(17.590979105517,-7.30333336146196,40.));
#457=CARTESIAN_POINT('Ctrl Pts',(18.100305559001,-5.96841149159917,40.));
#458=CARTESIAN_POINT('Ctrl Pts',(18.4528016417657,-4.52870228637837,40.));
#459=CARTESIAN_POINT('Ctrl Pts',(18.8052977245304,-3.08899308115758,40.));
#460=CARTESIAN_POINT('Ctrl Pts',(19.0009634365759,-1.5444965405788,40.));
#461=CARTESIAN_POINT('Ctrl Pts',(19.0009634365759,-8.32667268468867E-15,
40.));
#462=CARTESIAN_POINT('Ctrl Pts',(19.0009634365759,1.54449654057878,40.));
#463=CARTESIAN_POINT('Ctrl Pts',(18.8052977245304,3.08899308115758,40.));
#464=CARTESIAN_POINT('Ctrl Pts',(18.4528016417657,4.52870228637837,40.));
#465=CARTESIAN_POINT('Ctrl Pts',(18.100305559001,5.96841149159916,40.));
#466=CARTESIAN_POINT('Ctrl Pts',(17.590979105517,7.30333336146196,40.));
#467=CARTESIAN_POINT('Ctrl Pts',(16.9941166289501,8.49705831459576,40.));
#468=CARTESIAN_POINT('Origin',(0.,0.,0.));
#469=CARTESIAN_POINT('',(30.025,42.5,0.));
#470=CARTESIAN_POINT('',(30.025,-42.5,0.));
#471=CARTESIAN_POINT('',(30.025,-42.5,0.));
#472=CARTESIAN_POINT('',(60.,42.5,0.));
#473=CARTESIAN_POINT('',(60.,42.5,0.));
#474=CARTESIAN_POINT('',(60.,-42.5,0.));
#475=CARTESIAN_POINT('',(60.,-42.5,0.));
#476=CARTESIAN_POINT('',(30.025,-42.5,0.));
#477=CARTESIAN_POINT('',(53.5000000000001,-33.5,0.));
#478=CARTESIAN_POINT('Origin',(50.,-33.5,0.));
#479=CARTESIAN_POINT('',(53.5000000000001,33.5,0.));
#480=CARTESIAN_POINT('Origin',(50.,33.5,0.));
#481=CARTESIAN_POINT('Origin',(-60.,42.5,40.));
#482=CARTESIAN_POINT('',(-60.,-42.5,40.));
#483=CARTESIAN_POINT('',(-60.,42.5,40.));
#484=CARTESIAN_POINT('Origin',(60.,-42.5,40.));
#485=CARTESIAN_POINT('Origin',(0.,-42.5,0.));
#486=CARTESIAN_POINT('',(60.,-42.5,40.));
#487=CARTESIAN_POINT('Origin',(60.,42.5,40.));
#488=CARTESIAN_POINT('',(60.,42.5,40.));
#489=CARTESIAN_POINT('Origin',(60.,42.5,40.));
#490=CARTESIAN_POINT('Origin',(0.,42.5,0.));
#491=CARTESIAN_POINT('Origin',(50.,-33.5,40.));
#492=CARTESIAN_POINT('',(53.5,-33.5,40.));
#493=CARTESIAN_POINT('Origin',(-50.,-33.5,40.));
#494=CARTESIAN_POINT('',(-46.5,-33.5,40.));
#495=CARTESIAN_POINT('Origin',(-50.,33.5,40.));
#496=CARTESIAN_POINT('',(-46.5,33.5,40.));
#497=CARTESIAN_POINT('Origin',(50.,33.5,40.));
#498=CARTESIAN_POINT('',(53.5,33.5,40.));
#499=CARTESIAN_POINT('Origin',(0.,-57.5,0.));
#500=CARTESIAN_POINT('',(14.2797028868379,7.13985144069356,26.4119425727006));
#501=CARTESIAN_POINT('Ctrl Pts',(14.2797028868379,7.13985144069356,26.4119425727006));
#502=CARTESIAN_POINT('Ctrl Pts',(14.104853333853,7.96623216026232,26.5064755537431));
#503=CARTESIAN_POINT('Ctrl Pts',(13.8233782949573,8.96959685701576,26.6589587298887));
#504=CARTESIAN_POINT('Ctrl Pts',(13.3449491153331,10.0623125384385,26.8963372619613));
#505=CARTESIAN_POINT('Ctrl Pts',(13.115454558022,10.5864701614582,27.0102038141143));
#506=CARTESIAN_POINT('Ctrl Pts',(12.8319605800101,11.1447638840822,27.1471205556793));
#507=CARTESIAN_POINT('Ctrl Pts',(12.5108942676612,11.6803577587565,27.2942878570481));
#508=CARTESIAN_POINT('Ctrl Pts',(11.6272189320336,13.1544803270831,27.6993384943418));
#509=CARTESIAN_POINT('Ctrl Pts',(10.5185880123207,14.3947222761123,28.1525589888184));
#510=CARTESIAN_POINT('Ctrl Pts',(9.27611032540976,15.3932842049604,28.5561622461917));
#511=CARTESIAN_POINT('Ctrl Pts',(7.93612543267471,16.4702113105438,28.9914394936114));
#512=CARTESIAN_POINT('Ctrl Pts',(6.44614032581059,17.261076951133,29.3654139058456));
#513=CARTESIAN_POINT('Ctrl Pts',(4.92442322864123,17.7837416871222,29.6184179331918));
#514=CARTESIAN_POINT('Ctrl Pts',(3.26375234402045,18.3541329320455,29.8945247224809));
#515=CARTESIAN_POINT('Ctrl Pts',(1.5771622958802,18.6012710963153,30.025));
#516=CARTESIAN_POINT('Ctrl Pts',(8.60422844084496E-15,18.6012710963153,
30.025));
#517=CARTESIAN_POINT('Ctrl Pts',(-1.78351837591547,18.6012710963153,30.025));
#518=CARTESIAN_POINT('Ctrl Pts',(-3.43790952900503,18.2943150990988,29.8655689663325));
#519=CARTESIAN_POINT('Ctrl Pts',(-4.92442322864121,17.7837416871222,29.6184179331918));
#520=CARTESIAN_POINT('Ctrl Pts',(-6.57403531928866,17.2171488102683,29.3441498032817));
#521=CARTESIAN_POINT('Ctrl Pts',(-8.0353952609336,16.3904295388252,28.9591929378252));
#522=CARTESIAN_POINT('Ctrl Pts',(-9.27611032540976,15.3932842049604,28.5561622461917));
#523=CARTESIAN_POINT('Ctrl Pts',(-10.6092708791399,14.3218417251306,28.1231017995088));
#524=CARTESIAN_POINT('Ctrl Pts',(-11.6875263236507,13.0538772170545,27.6716953697426));
#525=CARTESIAN_POINT('Ctrl Pts',(-12.5108942676611,11.6803577587565,27.2942878570481));
#526=CARTESIAN_POINT('Ctrl Pts',(-12.9511149420563,10.9459938979512,27.0925037203583));
#527=CARTESIAN_POINT('Ctrl Pts',(-13.3154229425515,10.1855297716276,26.9129810230432));
#528=CARTESIAN_POINT('Ctrl Pts',(-13.6089173948875,9.41821796566437,26.7637439895678));
#529=CARTESIAN_POINT('Ctrl Pts',(-13.7740391893879,8.98652359688315,26.679782311324));
#530=CARTESIAN_POINT('Ctrl Pts',(-13.9171222002273,8.55191600930919,26.6051406543507));
#531=CARTESIAN_POINT('Ctrl Pts',(-14.0395238224559,8.11641841623277,26.5403917800528));
#532=CARTESIAN_POINT('Ctrl Pts',(-14.1184869653484,7.83547231400544,26.4986212992354));
#533=CARTESIAN_POINT('Ctrl Pts',(-14.1972437801258,7.52957285991608,26.456524357661));
#534=CARTESIAN_POINT('Ctrl Pts',(-14.2797028868379,7.13985144069356,26.4119425727006));
#535=CARTESIAN_POINT('Ctrl Pts',(-14.4761581911323,6.21135678369031,26.3057283717517));
#536=CARTESIAN_POINT('Ctrl Pts',(-14.7099025351196,4.94668382837441,26.1753716432154));
#537=CARTESIAN_POINT('Ctrl Pts',(-14.8621166126067,3.61640858376304,26.0886587388712));
#538=CARTESIAN_POINT('Ctrl Pts',(-14.9684390785809,2.68720317276207,26.0280892437635));
#539=CARTESIAN_POINT('Ctrl Pts',(-15.0353979760169,1.76139807938515,25.9891956028822));
#540=CARTESIAN_POINT('Ctrl Pts',(-15.0606993832521,0.809680821560669,25.9745251946462));
#541=CARTESIAN_POINT('Ctrl Pts',(-15.0677754354814,0.543513767638028,25.9704223171288));
#542=CARTESIAN_POINT('Ctrl Pts',(-15.0715304592491,0.273604268214225,25.968242039382));
#543=CARTESIAN_POINT('Ctrl Pts',(-15.0715304592491,4.16333634234434E-16,
25.968242039382));
#544=CARTESIAN_POINT('Ctrl Pts',(-15.0715304592491,-1.06039165738079,25.968242039382));
#545=CARTESIAN_POINT('Ctrl Pts',(-15.0158856780806,-2.17611825031836,26.0008487900077));
#546=CARTESIAN_POINT('Ctrl Pts',(-14.8920597164587,-3.34467111872284,26.0715780573679));
#547=CARTESIAN_POINT('Ctrl Pts',(-14.882494308771,-3.43494043256109,26.0770418088211));
#548=CARTESIAN_POINT('Ctrl Pts',(-14.8725049225782,-3.52561992730912,26.0827407545183));
#549=CARTESIAN_POINT('Ctrl Pts',(-14.8621166126067,-3.61640858376303,26.0886587388712));
#550=CARTESIAN_POINT('Ctrl Pts',(-14.7215410169789,-4.84496929212448,26.1687414643198));
#551=CARTESIAN_POINT('Ctrl Pts',(-14.5168957984819,-6.01882112832071,26.2837034514842));
#552=CARTESIAN_POINT('Ctrl Pts',(-14.2797028868379,-7.13985144069356,26.4119425727006));
#553=CARTESIAN_POINT('Ctrl Pts',(-14.2635370486364,-7.21625505041019,26.4206826858444));
#554=CARTESIAN_POINT('Ctrl Pts',(-14.246841031158,-7.29231149651124,26.4296902721972));
#555=CARTESIAN_POINT('Ctrl Pts',(-14.2296248902347,-7.36801329872215,26.4389561156112));
#556=CARTESIAN_POINT('Ctrl Pts',(-13.8805060624921,-8.90313807282467,26.6268542285008));
#557=CARTESIAN_POINT('Ctrl Pts',(-13.3051799760949,-10.3553524753738,26.9302107809736));
#558=CARTESIAN_POINT('Ctrl Pts',(-12.5108942676611,-11.6803577587565,27.2942878570481));
#559=CARTESIAN_POINT('Ctrl Pts',(-11.6268223245574,-13.1551419366221,27.6995202874784));
#560=CARTESIAN_POINT('Ctrl Pts',(-10.5058724644565,-14.4049415839802,28.1566894746946));
#561=CARTESIAN_POINT('Ctrl Pts',(-9.27611032540976,-15.3932842049604,28.5561622461917));
#562=CARTESIAN_POINT('Ctrl Pts',(-7.93267450444911,-16.4729847732639,28.9925604842638));
#563=CARTESIAN_POINT('Ctrl Pts',(-6.44229862389233,-17.2623964619163,29.3660526356456));
#564=CARTESIAN_POINT('Ctrl Pts',(-4.92442322864122,-17.7837416871222,29.6184179331918));
#565=CARTESIAN_POINT('Ctrl Pts',(-3.26016195059061,-18.355366125809,29.8951216691796));
#566=CARTESIAN_POINT('Ctrl Pts',(-1.57385887275624,-18.6012710963153,30.025));
#567=CARTESIAN_POINT('Ctrl Pts',(1.29063426612674E-14,-18.6012710963153,
30.025));
#568=CARTESIAN_POINT('Ctrl Pts',(1.78916794801527,-18.6012710963153,30.025));
#569=CARTESIAN_POINT('Ctrl Pts',(3.45110251950062,-18.2897836977581,29.8633754707516));
#570=CARTESIAN_POINT('Ctrl Pts',(4.92442322864124,-17.7837416871222,29.6184179331918));
#571=CARTESIAN_POINT('Ctrl Pts',(6.64362229183611,-17.1932477469876,29.3325801203636));
#572=CARTESIAN_POINT('Ctrl Pts',(8.08820879931421,-16.3479840371391,28.9420371238026));
#573=CARTESIAN_POINT('Ctrl Pts',(9.27611032540976,-15.3932842049604,28.5561622461917));
#574=CARTESIAN_POINT('Ctrl Pts',(10.6140456210187,-14.3180043319038,28.1215507846329));
#575=CARTESIAN_POINT('Ctrl Pts',(11.6892997863768,-13.0509187759584,27.6708824668828));
#576=CARTESIAN_POINT('Ctrl Pts',(12.5108942676612,-11.6803577587565,27.2942878570481));
#577=CARTESIAN_POINT('Ctrl Pts',(13.0261295519399,-10.8208566162763,27.0581192419027));
#578=CARTESIAN_POINT('Ctrl Pts',(13.4071763651483,-9.98653596347181,26.8675274059322));
#579=CARTESIAN_POINT('Ctrl Pts',(13.7099000742713,-9.14627142397452,26.7121557526437));
#580=CARTESIAN_POINT('Ctrl Pts',(13.9386316752587,-8.51138539562548,26.59476023345));
#581=CARTESIAN_POINT('Ctrl Pts',(14.1274198125532,-7.85957759587782,26.4942749134398));
#582=CARTESIAN_POINT('Ctrl Pts',(14.2797028868379,-7.13985144069357,26.4119425727006));
#583=CARTESIAN_POINT('Ctrl Pts',(14.4662371459284,-6.25824601122654,26.3110922171958));
#584=CARTESIAN_POINT('Ctrl Pts',(14.6489445232578,-5.29316509303765,26.2095507334787));
#585=CARTESIAN_POINT('Ctrl Pts',(14.8033566779449,-4.09854433953141,26.1220454035579));
#586=CARTESIAN_POINT('Ctrl Pts',(14.8237105716459,-3.94107497528934,26.1105108570251));
#587=CARTESIAN_POINT('Ctrl Pts',(14.8433635260692,-3.78030122229382,26.0993419465346));
#588=CARTESIAN_POINT('Ctrl Pts',(14.8621166126067,-3.61640858376304,26.0886587388712));
#589=CARTESIAN_POINT('Ctrl Pts',(14.9864888286539,-2.52945734471573,26.0178067109167));
#590=CARTESIAN_POINT('Ctrl Pts',(15.0715304592491,-1.30551379566806,25.968242039382));
#591=CARTESIAN_POINT('Ctrl Pts',(15.0715304592491,4.9960036108132E-15,25.968242039382));
#592=CARTESIAN_POINT('Ctrl Pts',(15.0715304592491,1.00204768314007,25.968242039382));
#593=CARTESIAN_POINT('Ctrl Pts',(15.0203005757254,1.96769090267749,25.9980649477056));
#594=CARTESIAN_POINT('Ctrl Pts',(14.9418258695443,2.8373528665968,26.043088616449));
#595=CARTESIAN_POINT('Ctrl Pts',(14.9177123887316,3.10458008031975,26.0569233591985));
#596=CARTESIAN_POINT('Ctrl Pts',(14.8909596439683,3.36433485160008,26.0722275187058));
#597=CARTESIAN_POINT('Ctrl Pts',(14.8621166126067,3.61640858376303,26.0886587388712));
#598=CARTESIAN_POINT('Ctrl Pts',(14.752865241798,4.57121116461521,26.1508967645703));
#599=CARTESIAN_POINT('Ctrl Pts',(14.6144359855951,5.4159828406732,26.2286619934426));
#600=CARTESIAN_POINT('Ctrl Pts',(14.4792186112252,6.13951478878751,26.3030958901866));
#601=CARTESIAN_POINT('Ctrl Pts',(14.4170691536529,6.4720690801356,26.3373076645919));
#602=CARTESIAN_POINT('Ctrl Pts',(14.3565871042701,6.77647827879257,26.3703748698102));
#603=CARTESIAN_POINT('Ctrl Pts',(14.2797028868379,7.13985144069356,26.4119425727006));
#604=CARTESIAN_POINT('Ctrl Pts',(12.,5.9999999948843,15.));
#605=CARTESIAN_POINT('Ctrl Pts',(16.9941166289501,8.49705831459576,40.));
#606=CARTESIAN_POINT('Ctrl Pts',(12.,7.51518070137825,15.));
#607=CARTESIAN_POINT('Ctrl Pts',(16.1802855455554,10.1247204813853,40.));
#608=CARTESIAN_POINT('Ctrl Pts',(11.418781669556,10.5865780778793,15.));
#609=CARTESIAN_POINT('Ctrl Pts',(14.1084939667408,13.0958328420254,40.0000000000001));
#610=CARTESIAN_POINT('Ctrl Pts',(8.81133218458677,14.6052493528977,15.));
#611=CARTESIAN_POINT('Ctrl Pts',(9.9808711252035,16.450063056148,39.9999999999999));
#612=CARTESIAN_POINT('Ctrl Pts',(4.79976505782064,17.3501153902088,15.));
#613=CARTESIAN_POINT('Ctrl Pts',(5.16414896334567,18.5303991800218,40.0000000000002));
#614=CARTESIAN_POINT('Ctrl Pts',(-2.03830008427275E-14,18.325771486997,
15.));
#615=CARTESIAN_POINT('Ctrl Pts',(1.47451495458029E-14,19.2349265344723,
39.9999999999999));
#616=CARTESIAN_POINT('Ctrl Pts',(-4.79976505782062,17.3501153902087,15.));
#617=CARTESIAN_POINT('Ctrl Pts',(-5.16414896334561,18.5303991800218,40.0000000000001));
#618=CARTESIAN_POINT('Ctrl Pts',(-8.81133218458679,14.6052493528977,15.));
#619=CARTESIAN_POINT('Ctrl Pts',(-9.98087112520351,16.4500630561481,39.9999999999999));
#620=CARTESIAN_POINT('Ctrl Pts',(-11.418781669556,10.5865780778793,15.));
#621=CARTESIAN_POINT('Ctrl Pts',(-14.1084939667408,13.0958328420254,40.));
#622=CARTESIAN_POINT('Ctrl Pts',(-12.,7.51518070137826,15.));
#623=CARTESIAN_POINT('Ctrl Pts',(-16.1802855455553,10.1247204813853,40.));
#624=CARTESIAN_POINT('Ctrl Pts',(-12.,4.88876877334876,15.));
#625=CARTESIAN_POINT('Ctrl Pts',(-17.590979105517,7.30333336146196,40.));
#626=CARTESIAN_POINT('Ctrl Pts',(-12.,2.85776873337303,15.));
#627=CARTESIAN_POINT('Ctrl Pts',(-18.609632012485,4.63348962173636,40.));
#628=CARTESIAN_POINT('Ctrl Pts',(-12.,7.15573433840433E-15,15.));
#629=CARTESIAN_POINT('Ctrl Pts',(-19.1966291486213,-6.07153216591882E-15,
40.));
#630=CARTESIAN_POINT('Ctrl Pts',(-12.,-2.85776873337302,15.));
#631=CARTESIAN_POINT('Ctrl Pts',(-18.609632012485,-4.63348962173637,40.));
#632=CARTESIAN_POINT('Ctrl Pts',(-12.,-4.88876877334876,15.));
#633=CARTESIAN_POINT('Ctrl Pts',(-17.590979105517,-7.30333336146196,40.));
#634=CARTESIAN_POINT('Ctrl Pts',(-12.,-7.51518070137826,15.));
#635=CARTESIAN_POINT('Ctrl Pts',(-16.1802855455553,-10.1247204813853,40.));
#636=CARTESIAN_POINT('Ctrl Pts',(-11.418781669556,-10.5865780778793,15.));
#637=CARTESIAN_POINT('Ctrl Pts',(-14.1084939667408,-13.0958328420254,40.));
#638=CARTESIAN_POINT('Ctrl Pts',(-8.81133218458676,-14.6052493528977,15.));
#639=CARTESIAN_POINT('Ctrl Pts',(-9.98087112520349,-16.4500630561481,40.));
#640=CARTESIAN_POINT('Ctrl Pts',(-4.79976505782065,-17.3501153902088,15.));
#641=CARTESIAN_POINT('Ctrl Pts',(-5.16414896334562,-18.5303991800218,40.));
#642=CARTESIAN_POINT('Ctrl Pts',(1.73472347597681E-15,-18.325771486997,
15.));
#643=CARTESIAN_POINT('Ctrl Pts',(1.90819582357449E-14,-19.2349265344724,
40.0000000000001));
#644=CARTESIAN_POINT('Ctrl Pts',(4.79976505782063,-17.3501153902087,15.));
#645=CARTESIAN_POINT('Ctrl Pts',(5.16414896334562,-18.5303991800218,40.));
#646=CARTESIAN_POINT('Ctrl Pts',(8.81133218458678,-14.6052493528977,15.));
#647=CARTESIAN_POINT('Ctrl Pts',(9.98087112520351,-16.4500630561481,39.9999999999999));
#648=CARTESIAN_POINT('Ctrl Pts',(11.418781669556,-10.5865780778793,15.));
#649=CARTESIAN_POINT('Ctrl Pts',(14.1084939667408,-13.0958328420254,40.));
#650=CARTESIAN_POINT('Ctrl Pts',(12.,-7.51518070137826,15.));
#651=CARTESIAN_POINT('Ctrl Pts',(16.1802855455554,-10.1247204813853,40.));
#652=CARTESIAN_POINT('Ctrl Pts',(12.,-4.88876877334876,15.));
#653=CARTESIAN_POINT('Ctrl Pts',(17.590979105517,-7.30333336146197,40.));
#654=CARTESIAN_POINT('Ctrl Pts',(12.,-2.85776873337304,15.));
#655=CARTESIAN_POINT('Ctrl Pts',(18.609632012485,-4.63348962173638,40.));
#656=CARTESIAN_POINT('Ctrl Pts',(12.,2.81892564846231E-15,15.));
#657=CARTESIAN_POINT('Ctrl Pts',(19.1966291486214,-1.30104260698261E-15,
40.));
#658=CARTESIAN_POINT('Ctrl Pts',(12.,2.85776873337302,15.));
#659=CARTESIAN_POINT('Ctrl Pts',(18.6096320124849,4.63348962173637,40.));
#660=CARTESIAN_POINT('Ctrl Pts',(12.,4.88876877334875,15.));
#661=CARTESIAN_POINT('Ctrl Pts',(17.590979105517,7.30333336146196,40.));
#662=CARTESIAN_POINT('Ctrl Pts',(12.,5.9999999948843,15.));
#663=CARTESIAN_POINT('Ctrl Pts',(16.9941166289501,8.49705831459577,40.));
#664=CARTESIAN_POINT('Ctrl Pts',(14.2797028868379,7.13985144069356,26.4119425727006));
#665=CARTESIAN_POINT('Ctrl Pts',(16.9941166289501,8.49705831459576,40.));
#666=UNCERTAINTY_MEASURE_WITH_UNIT(LENGTH_MEASURE(0.01),#670,
'DISTANCE_ACCURACY_VALUE',
'Maximum model space distance between geometric entities at asserted c
onnectivities');
#667=UNCERTAINTY_MEASURE_WITH_UNIT(LENGTH_MEASURE(0.01),#670,
'DISTANCE_ACCURACY_VALUE',
'Maximum model space distance between geometric entities at asserted c
onnectivities');
#668=(
GEOMETRIC_REPRESENTATION_CONTEXT(3)
GLOBAL_UNCERTAINTY_ASSIGNED_CONTEXT((#666))
GLOBAL_UNIT_ASSIGNED_CONTEXT((#670,#672,#673))
REPRESENTATION_CONTEXT('','3D')
);
#669=(
GEOMETRIC_REPRESENTATION_CONTEXT(3)
GLOBAL_UNCERTAINTY_ASSIGNED_CONTEXT((#667))
GLOBAL_UNIT_ASSIGNED_CONTEXT((#670,#672,#673))
REPRESENTATION_CONTEXT('','3D')
);
#670=(
LENGTH_UNIT()
NAMED_UNIT(*)
SI_UNIT(.MILLI.,.METRE.)
);
#671=(
LENGTH_UNIT()
NAMED_UNIT(*)
SI_UNIT($,.METRE.)
);
#672=(
NAMED_UNIT(*)
PLANE_ANGLE_UNIT()
SI_UNIT($,.RADIAN.)
);
#673=(
NAMED_UNIT(*)
SI_UNIT($,.STERADIAN.)
SOLID_ANGLE_UNIT()
);
#674=SHAPE_DEFINITION_REPRESENTATION(#675,#676);
#675=PRODUCT_DEFINITION_SHAPE('',$,#678);
#676=SHAPE_REPRESENTATION('',(#274),#668);
#677=PRODUCT_DEFINITION_CONTEXT('part definition',#682,'design');
#678=PRODUCT_DEFINITION('511_HopperMount-85-120-80',
'511_HopperMount-85-120-80 v1',#679,#677);
#679=PRODUCT_DEFINITION_FORMATION('',$,#684);
#680=PRODUCT_RELATED_PRODUCT_CATEGORY('511_HopperMount-85-120-80 v1',
'511_HopperMount-85-120-80 v1',(#684));
#681=APPLICATION_PROTOCOL_DEFINITION('international standard',
'automotive_design',2009,#682);
#682=APPLICATION_CONTEXT(
'Core Data for Automotive Mechanical Design Process');
#683=PRODUCT_CONTEXT('part definition',#682,'mechanical');
#684=PRODUCT('511_HopperMount-85-120-80','511_HopperMount-85-120-80 v1',
$,(#683));
#685=PRESENTATION_STYLE_ASSIGNMENT((#686));
#686=SURFACE_STYLE_USAGE(.BOTH.,#687);
#687=SURFACE_SIDE_STYLE('',(#688));
#688=SURFACE_STYLE_FILL_AREA(#689);
#689=FILL_AREA_STYLE('Steel - Satin',(#690));
#690=FILL_AREA_STYLE_COLOUR('Steel - Satin',#691);
#691=COLOUR_RGB('Steel - Satin',0.627450980392157,0.627450980392157,0.627450980392157);
ENDSEC;
END-ISO-10303-21;
