ISO-10303-21;
HEADER;
/* Generated by software containing ST-Developer
 * from STEP Tools, Inc. (www.steptools.com) 
 */

FILE_DESCRIPTION(
/* description */ (''),
/* implementation_level */ '2;1');

FILE_NAME(
/* name */ 'Nema-23-PX57-Coupling v1.step',
/* time_stamp */ '2026-03-14T09:51:32+01:00',
/* author */ (''),
/* organization */ (''),
/* preprocessor_version */ 'ST-DEVELOPER v20.1',
/* originating_system */ 'Autodesk Translation Framework v14.24.0.0',
/* authorisation */ '');

FILE_SCHEMA (('AUTOMOTIVE_DESIGN { 1 0 10303 214 3 1 1 }'));
ENDSEC;

DATA;
#10=MECHANICAL_DESIGN_GEOMETRIC_PRESENTATION_REPRESENTATION('',(#35,#36),
#915);
#11=ITEM_DEFINED_TRANSFORMATION($,$,#561,#606);
#12=ITEM_DEFINED_TRANSFORMATION($,$,#561,#607);
#13=ITEM_DEFINED_TRANSFORMATION($,$,#561,#608);
#14=ITEM_DEFINED_TRANSFORMATION($,$,#561,#609);
#15=ITEM_DEFINED_TRANSFORMATION($,$,#599,#610);
#16=(
REPRESENTATION_RELATIONSHIP($,$,#932,#931)
REPRESENTATION_RELATIONSHIP_WITH_TRANSFORMATION(#11)
SHAPE_REPRESENTATION_RELATIONSHIP()
);
#17=(
REPRESENTATION_RELATIONSHIP($,$,#932,#931)
REPRESENTATION_RELATIONSHIP_WITH_TRANSFORMATION(#12)
SHAPE_REPRESENTATION_RELATIONSHIP()
);
#18=(
REPRESENTATION_RELATIONSHIP($,$,#932,#931)
REPRESENTATION_RELATIONSHIP_WITH_TRANSFORMATION(#13)
SHAPE_REPRESENTATION_RELATIONSHIP()
);
#19=(
REPRESENTATION_RELATIONSHIP($,$,#932,#931)
REPRESENTATION_RELATIONSHIP_WITH_TRANSFORMATION(#14)
SHAPE_REPRESENTATION_RELATIONSHIP()
);
#20=(
REPRESENTATION_RELATIONSHIP($,$,#933,#931)
REPRESENTATION_RELATIONSHIP_WITH_TRANSFORMATION(#15)
SHAPE_REPRESENTATION_RELATIONSHIP()
);
#21=CONTEXT_DEPENDENT_SHAPE_REPRESENTATION(#16,#926);
#22=CONTEXT_DEPENDENT_SHAPE_REPRESENTATION(#17,#927);
#23=CONTEXT_DEPENDENT_SHAPE_REPRESENTATION(#18,#928);
#24=CONTEXT_DEPENDENT_SHAPE_REPRESENTATION(#19,#929);
#25=CONTEXT_DEPENDENT_SHAPE_REPRESENTATION(#20,#930);
#26=NEXT_ASSEMBLY_USAGE_OCCURRENCE('CouplingHousing-60w-40l-N23:1',
'CouplingHousing-60w-40l-N23:1','CouplingHousing-60w-40l-N23:1',#935,#936,
'CouplingHousing-60w-40l-N23:1');
#27=NEXT_ASSEMBLY_USAGE_OCCURRENCE('CouplingHousing-60w-40l-N23:2',
'CouplingHousing-60w-40l-N23:2','CouplingHousing-60w-40l-N23:2',#935,#936,
'CouplingHousing-60w-40l-N23:2');
#28=NEXT_ASSEMBLY_USAGE_OCCURRENCE('CouplingHousing-60w-40l-N23:3',
'CouplingHousing-60w-40l-N23:3','CouplingHousing-60w-40l-N23:3',#935,#936,
'CouplingHousing-60w-40l-N23:3');
#29=NEXT_ASSEMBLY_USAGE_OCCURRENCE('CouplingHousing-60w-40l-N23:4',
'CouplingHousing-60w-40l-N23:4','CouplingHousing-60w-40l-N23:4',#935,#936,
'CouplingHousing-60w-40l-N23:4');
#30=NEXT_ASSEMBLY_USAGE_OCCURRENCE('Stock^Nema-23-PX57-Coupling:1',
'Stock^Nema-23-PX57-Coupling:1','Stock^Nema-23-PX57-Coupling:1',#935,#937,
'Stock^Nema-23-PX57-Coupling:1');
#31=SHAPE_REPRESENTATION_RELATIONSHIP('SRR','None',#932,#33);
#32=SHAPE_REPRESENTATION_RELATIONSHIP('SRR','None',#933,#34);
#33=ADVANCED_BREP_SHAPE_REPRESENTATION('',(#37),#913);
#34=ADVANCED_BREP_SHAPE_REPRESENTATION('',(#38),#914);
#35=STYLED_ITEM('',(#951),#37);
#36=STYLED_ITEM('',(#951),#38);
#37=MANIFOLD_SOLID_BREP('Body1',#535);
#38=MANIFOLD_SOLID_BREP('Body1',#536);
#39=PLANE('',#584);
#40=PLANE('',#585);
#41=PLANE('',#586);
#42=PLANE('',#587);
#43=PLANE('',#588);
#44=PLANE('',#589);
#45=PLANE('',#590);
#46=PLANE('',#591);
#47=PLANE('',#592);
#48=PLANE('',#593);
#49=PLANE('',#594);
#50=PLANE('',#595);
#51=PLANE('',#596);
#52=PLANE('',#597);
#53=PLANE('',#598);
#54=PLANE('',#600);
#55=PLANE('',#601);
#56=PLANE('',#602);
#57=PLANE('',#603);
#58=PLANE('',#604);
#59=PLANE('',#605);
#60=FACE_BOUND('',#107,.T.);
#61=FACE_BOUND('',#108,.T.);
#62=FACE_BOUND('',#111,.T.);
#63=FACE_BOUND('',#114,.T.);
#64=FACE_BOUND('',#117,.T.);
#65=FACE_BOUND('',#118,.T.);
#66=FACE_BOUND('',#119,.T.);
#67=FACE_BOUND('',#120,.T.);
#68=FACE_BOUND('',#121,.T.);
#69=FACE_BOUND('',#123,.T.);
#70=FACE_BOUND('',#124,.T.);
#71=FACE_BOUND('',#125,.T.);
#72=FACE_BOUND('',#126,.T.);
#73=FACE_BOUND('',#127,.T.);
#74=FACE_BOUND('',#129,.T.);
#75=FACE_OUTER_BOUND('',#102,.T.);
#76=FACE_OUTER_BOUND('',#103,.T.);
#77=FACE_OUTER_BOUND('',#104,.T.);
#78=FACE_OUTER_BOUND('',#105,.T.);
#79=FACE_OUTER_BOUND('',#106,.T.);
#80=FACE_OUTER_BOUND('',#109,.T.);
#81=FACE_OUTER_BOUND('',#110,.T.);
#82=FACE_OUTER_BOUND('',#112,.T.);
#83=FACE_OUTER_BOUND('',#113,.T.);
#84=FACE_OUTER_BOUND('',#115,.T.);
#85=FACE_OUTER_BOUND('',#116,.T.);
#86=FACE_OUTER_BOUND('',#122,.T.);
#87=FACE_OUTER_BOUND('',#128,.T.);
#88=FACE_OUTER_BOUND('',#130,.T.);
#89=FACE_OUTER_BOUND('',#131,.T.);
#90=FACE_OUTER_BOUND('',#132,.T.);
#91=FACE_OUTER_BOUND('',#133,.T.);
#92=FACE_OUTER_BOUND('',#134,.T.);
#93=FACE_OUTER_BOUND('',#135,.T.);
#94=FACE_OUTER_BOUND('',#136,.T.);
#95=FACE_OUTER_BOUND('',#137,.T.);
#96=FACE_OUTER_BOUND('',#138,.T.);
#97=FACE_OUTER_BOUND('',#139,.T.);
#98=FACE_OUTER_BOUND('',#140,.T.);
#99=FACE_OUTER_BOUND('',#141,.T.);
#100=FACE_OUTER_BOUND('',#142,.T.);
#101=FACE_OUTER_BOUND('',#143,.T.);
#102=EDGE_LOOP('',(#370,#371,#372,#373));
#103=EDGE_LOOP('',(#374,#375,#376,#377));
#104=EDGE_LOOP('',(#378,#379,#380,#381));
#105=EDGE_LOOP('',(#382,#383,#384,#385));
#106=EDGE_LOOP('',(#386,#387,#388,#389));
#107=EDGE_LOOP('',(#390,#391,#392,#393));
#108=EDGE_LOOP('',(#394,#395,#396,#397));
#109=EDGE_LOOP('',(#398,#399,#400,#401));
#110=EDGE_LOOP('',(#402,#403,#404,#405));
#111=EDGE_LOOP('',(#406,#407,#408,#409));
#112=EDGE_LOOP('',(#410,#411,#412,#413));
#113=EDGE_LOOP('',(#414,#415,#416,#417));
#114=EDGE_LOOP('',(#418,#419,#420,#421));
#115=EDGE_LOOP('',(#422,#423,#424,#425));
#116=EDGE_LOOP('',(#426,#427,#428,#429));
#117=EDGE_LOOP('',(#430));
#118=EDGE_LOOP('',(#431));
#119=EDGE_LOOP('',(#432));
#120=EDGE_LOOP('',(#433));
#121=EDGE_LOOP('',(#434));
#122=EDGE_LOOP('',(#435,#436,#437,#438));
#123=EDGE_LOOP('',(#439));
#124=EDGE_LOOP('',(#440));
#125=EDGE_LOOP('',(#441));
#126=EDGE_LOOP('',(#442));
#127=EDGE_LOOP('',(#443));
#128=EDGE_LOOP('',(#444));
#129=EDGE_LOOP('',(#445));
#130=EDGE_LOOP('',(#446,#447,#448,#449));
#131=EDGE_LOOP('',(#450,#451,#452,#453));
#132=EDGE_LOOP('',(#454,#455,#456,#457));
#133=EDGE_LOOP('',(#458,#459,#460,#461));
#134=EDGE_LOOP('',(#462,#463,#464,#465));
#135=EDGE_LOOP('',(#466,#467,#468,#469));
#136=EDGE_LOOP('',(#470,#471,#472,#473));
#137=EDGE_LOOP('',(#474,#475,#476,#477));
#138=EDGE_LOOP('',(#478,#479,#480,#481));
#139=EDGE_LOOP('',(#482,#483,#484,#485));
#140=EDGE_LOOP('',(#486,#487,#488,#489));
#141=EDGE_LOOP('',(#490,#491,#492,#493));
#142=EDGE_LOOP('',(#494,#495,#496,#497));
#143=EDGE_LOOP('',(#498,#499,#500,#501));
#144=LINE('',#769,#194);
#145=LINE('',#775,#195);
#146=LINE('',#781,#196);
#147=LINE('',#787,#197);
#148=LINE('',#793,#198);
#149=LINE('',#797,#199);
#150=LINE('',#801,#200);
#151=LINE('',#805,#201);
#152=LINE('',#809,#202);
#153=LINE('',#815,#203);
#154=LINE('',#820,#204);
#155=LINE('',#822,#205);
#156=LINE('',#824,#206);
#157=LINE('',#825,#207);
#158=LINE('',#828,#208);
#159=LINE('',#830,#209);
#160=LINE('',#832,#210);
#161=LINE('',#833,#211);
#162=LINE('',#836,#212);
#163=LINE('',#838,#213);
#164=LINE('',#839,#214);
#165=LINE('',#842,#215);
#166=LINE('',#844,#216);
#167=LINE('',#845,#217);
#168=LINE('',#848,#218);
#169=LINE('',#850,#219);
#170=LINE('',#852,#220);
#171=LINE('',#853,#221);
#172=LINE('',#855,#222);
#173=LINE('',#856,#223);
#174=LINE('',#861,#224);
#175=LINE('',#862,#225);
#176=LINE('',#864,#226);
#177=LINE('',#866,#227);
#178=LINE('',#869,#228);
#179=LINE('',#870,#229);
#180=LINE('',#872,#230);
#181=LINE('',#874,#231);
#182=LINE('',#880,#232);
#183=LINE('',#882,#233);
#184=LINE('',#884,#234);
#185=LINE('',#885,#235);
#186=LINE('',#888,#236);
#187=LINE('',#890,#237);
#188=LINE('',#891,#238);
#189=LINE('',#894,#239);
#190=LINE('',#896,#240);
#191=LINE('',#897,#241);
#192=LINE('',#899,#242);
#193=LINE('',#900,#243);
#194=VECTOR('',#619,2.74999999999997);
#195=VECTOR('',#626,2.74999999999997);
#196=VECTOR('',#633,2.74999999999997);
#197=VECTOR('',#640,2.75000000000003);
#198=VECTOR('',#647,20.);
#199=VECTOR('',#650,1000.);
#200=VECTOR('',#653,1000.);
#201=VECTOR('',#656,1000.);
#202=VECTOR('',#659,1000.);
#203=VECTOR('',#666,21.1);
#204=VECTOR('',#671,1000.);
#205=VECTOR('',#672,1000.);
#206=VECTOR('',#673,1000.);
#207=VECTOR('',#674,1000.);
#208=VECTOR('',#675,1000.);
#209=VECTOR('',#676,1000.);
#210=VECTOR('',#677,1000.);
#211=VECTOR('',#678,1000.);
#212=VECTOR('',#681,1000.);
#213=VECTOR('',#682,1000.);
#214=VECTOR('',#683,1000.);
#215=VECTOR('',#686,1000.);
#216=VECTOR('',#687,1000.);
#217=VECTOR('',#688,1000.);
#218=VECTOR('',#689,1000.);
#219=VECTOR('',#690,1000.);
#220=VECTOR('',#691,1000.);
#221=VECTOR('',#692,1000.);
#222=VECTOR('',#695,1000.);
#223=VECTOR('',#696,1000.);
#224=VECTOR('',#705,1000.);
#225=VECTOR('',#706,1000.);
#226=VECTOR('',#709,1000.);
#227=VECTOR('',#712,1000.);
#228=VECTOR('',#717,1000.);
#229=VECTOR('',#718,1000.);
#230=VECTOR('',#721,1000.);
#231=VECTOR('',#724,1000.);
#232=VECTOR('',#731,1000.);
#233=VECTOR('',#732,1000.);
#234=VECTOR('',#733,1000.);
#235=VECTOR('',#734,1000.);
#236=VECTOR('',#737,1000.);
#237=VECTOR('',#738,1000.);
#238=VECTOR('',#739,1000.);
#239=VECTOR('',#742,1000.);
#240=VECTOR('',#743,1000.);
#241=VECTOR('',#744,1000.);
#242=VECTOR('',#747,1000.);
#243=VECTOR('',#748,1000.);
#244=CIRCLE('',#563,2.74999999999997);
#245=CIRCLE('',#564,2.74999999999997);
#246=CIRCLE('',#566,2.74999999999997);
#247=CIRCLE('',#567,2.74999999999997);
#248=CIRCLE('',#569,2.74999999999997);
#249=CIRCLE('',#570,2.74999999999997);
#250=CIRCLE('',#572,2.75000000000003);
#251=CIRCLE('',#573,2.75000000000003);
#252=CIRCLE('',#575,20.);
#253=CIRCLE('',#576,20.);
#254=CIRCLE('',#577,20.);
#255=CIRCLE('',#578,20.);
#256=CIRCLE('',#579,20.);
#257=CIRCLE('',#580,20.);
#258=CIRCLE('',#582,21.1);
#259=CIRCLE('',#583,21.1);
#260=VERTEX_POINT('',#766);
#261=VERTEX_POINT('',#768);
#262=VERTEX_POINT('',#772);
#263=VERTEX_POINT('',#774);
#264=VERTEX_POINT('',#778);
#265=VERTEX_POINT('',#780);
#266=VERTEX_POINT('',#784);
#267=VERTEX_POINT('',#786);
#268=VERTEX_POINT('',#790);
#269=VERTEX_POINT('',#792);
#270=VERTEX_POINT('',#795);
#271=VERTEX_POINT('',#796);
#272=VERTEX_POINT('',#798);
#273=VERTEX_POINT('',#800);
#274=VERTEX_POINT('',#803);
#275=VERTEX_POINT('',#804);
#276=VERTEX_POINT('',#806);
#277=VERTEX_POINT('',#808);
#278=VERTEX_POINT('',#812);
#279=VERTEX_POINT('',#814);
#280=VERTEX_POINT('',#818);
#281=VERTEX_POINT('',#819);
#282=VERTEX_POINT('',#821);
#283=VERTEX_POINT('',#823);
#284=VERTEX_POINT('',#826);
#285=VERTEX_POINT('',#827);
#286=VERTEX_POINT('',#829);
#287=VERTEX_POINT('',#831);
#288=VERTEX_POINT('',#835);
#289=VERTEX_POINT('',#837);
#290=VERTEX_POINT('',#841);
#291=VERTEX_POINT('',#843);
#292=VERTEX_POINT('',#846);
#293=VERTEX_POINT('',#847);
#294=VERTEX_POINT('',#849);
#295=VERTEX_POINT('',#851);
#296=VERTEX_POINT('',#878);
#297=VERTEX_POINT('',#879);
#298=VERTEX_POINT('',#881);
#299=VERTEX_POINT('',#883);
#300=VERTEX_POINT('',#887);
#301=VERTEX_POINT('',#889);
#302=VERTEX_POINT('',#893);
#303=VERTEX_POINT('',#895);
#304=EDGE_CURVE('',#260,#260,#244,.T.);
#305=EDGE_CURVE('',#260,#261,#144,.T.);
#306=EDGE_CURVE('',#261,#261,#245,.T.);
#307=EDGE_CURVE('',#262,#262,#246,.T.);
#308=EDGE_CURVE('',#262,#263,#145,.T.);
#309=EDGE_CURVE('',#263,#263,#247,.T.);
#310=EDGE_CURVE('',#264,#264,#248,.T.);
#311=EDGE_CURVE('',#264,#265,#146,.T.);
#312=EDGE_CURVE('',#265,#265,#249,.T.);
#313=EDGE_CURVE('',#266,#266,#250,.T.);
#314=EDGE_CURVE('',#266,#267,#147,.T.);
#315=EDGE_CURVE('',#267,#267,#251,.T.);
#316=EDGE_CURVE('',#268,#268,#252,.T.);
#317=EDGE_CURVE('',#268,#269,#148,.T.);
#318=EDGE_CURVE('',#269,#269,#253,.T.);
#319=EDGE_CURVE('',#270,#271,#149,.T.);
#320=EDGE_CURVE('',#271,#272,#254,.T.);
#321=EDGE_CURVE('',#272,#273,#150,.T.);
#322=EDGE_CURVE('',#273,#270,#255,.T.);
#323=EDGE_CURVE('',#274,#275,#151,.T.);
#324=EDGE_CURVE('',#275,#276,#256,.T.);
#325=EDGE_CURVE('',#276,#277,#152,.T.);
#326=EDGE_CURVE('',#277,#274,#257,.T.);
#327=EDGE_CURVE('',#278,#278,#258,.T.);
#328=EDGE_CURVE('',#278,#279,#153,.T.);
#329=EDGE_CURVE('',#279,#279,#259,.T.);
#330=EDGE_CURVE('',#280,#281,#154,.T.);
#331=EDGE_CURVE('',#282,#280,#155,.T.);
#332=EDGE_CURVE('',#282,#283,#156,.T.);
#333=EDGE_CURVE('',#283,#281,#157,.T.);
#334=EDGE_CURVE('',#284,#285,#158,.T.);
#335=EDGE_CURVE('',#286,#284,#159,.T.);
#336=EDGE_CURVE('',#287,#286,#160,.T.);
#337=EDGE_CURVE('',#285,#287,#161,.T.);
#338=EDGE_CURVE('',#288,#280,#162,.T.);
#339=EDGE_CURVE('',#289,#288,#163,.T.);
#340=EDGE_CURVE('',#289,#282,#164,.T.);
#341=EDGE_CURVE('',#290,#288,#165,.T.);
#342=EDGE_CURVE('',#291,#290,#166,.T.);
#343=EDGE_CURVE('',#291,#289,#167,.T.);
#344=EDGE_CURVE('',#292,#293,#168,.T.);
#345=EDGE_CURVE('',#294,#292,#169,.T.);
#346=EDGE_CURVE('',#295,#294,#170,.T.);
#347=EDGE_CURVE('',#293,#295,#171,.T.);
#348=EDGE_CURVE('',#281,#290,#172,.T.);
#349=EDGE_CURVE('',#283,#291,#173,.T.);
#350=EDGE_CURVE('',#271,#292,#174,.T.);
#351=EDGE_CURVE('',#272,#293,#175,.T.);
#352=EDGE_CURVE('',#270,#294,#176,.T.);
#353=EDGE_CURVE('',#273,#295,#177,.T.);
#354=EDGE_CURVE('',#275,#284,#178,.T.);
#355=EDGE_CURVE('',#276,#285,#179,.T.);
#356=EDGE_CURVE('',#274,#286,#180,.T.);
#357=EDGE_CURVE('',#277,#287,#181,.T.);
#358=EDGE_CURVE('',#296,#297,#182,.T.);
#359=EDGE_CURVE('',#298,#296,#183,.T.);
#360=EDGE_CURVE('',#298,#299,#184,.T.);
#361=EDGE_CURVE('',#299,#297,#185,.T.);
#362=EDGE_CURVE('',#300,#296,#186,.T.);
#363=EDGE_CURVE('',#301,#300,#187,.T.);
#364=EDGE_CURVE('',#301,#298,#188,.T.);
#365=EDGE_CURVE('',#302,#300,#189,.T.);
#366=EDGE_CURVE('',#303,#302,#190,.T.);
#367=EDGE_CURVE('',#303,#301,#191,.T.);
#368=EDGE_CURVE('',#297,#302,#192,.T.);
#369=EDGE_CURVE('',#299,#303,#193,.T.);
#370=ORIENTED_EDGE('',*,*,#304,.T.);
#371=ORIENTED_EDGE('',*,*,#305,.T.);
#372=ORIENTED_EDGE('',*,*,#306,.F.);
#373=ORIENTED_EDGE('',*,*,#305,.F.);
#374=ORIENTED_EDGE('',*,*,#307,.T.);
#375=ORIENTED_EDGE('',*,*,#308,.T.);
#376=ORIENTED_EDGE('',*,*,#309,.F.);
#377=ORIENTED_EDGE('',*,*,#308,.F.);
#378=ORIENTED_EDGE('',*,*,#310,.T.);
#379=ORIENTED_EDGE('',*,*,#311,.T.);
#380=ORIENTED_EDGE('',*,*,#312,.F.);
#381=ORIENTED_EDGE('',*,*,#311,.F.);
#382=ORIENTED_EDGE('',*,*,#313,.T.);
#383=ORIENTED_EDGE('',*,*,#314,.T.);
#384=ORIENTED_EDGE('',*,*,#315,.F.);
#385=ORIENTED_EDGE('',*,*,#314,.F.);
#386=ORIENTED_EDGE('',*,*,#316,.T.);
#387=ORIENTED_EDGE('',*,*,#317,.T.);
#388=ORIENTED_EDGE('',*,*,#318,.T.);
#389=ORIENTED_EDGE('',*,*,#317,.F.);
#390=ORIENTED_EDGE('',*,*,#319,.T.);
#391=ORIENTED_EDGE('',*,*,#320,.T.);
#392=ORIENTED_EDGE('',*,*,#321,.T.);
#393=ORIENTED_EDGE('',*,*,#322,.T.);
#394=ORIENTED_EDGE('',*,*,#323,.T.);
#395=ORIENTED_EDGE('',*,*,#324,.T.);
#396=ORIENTED_EDGE('',*,*,#325,.T.);
#397=ORIENTED_EDGE('',*,*,#326,.T.);
#398=ORIENTED_EDGE('',*,*,#327,.F.);
#399=ORIENTED_EDGE('',*,*,#328,.T.);
#400=ORIENTED_EDGE('',*,*,#329,.T.);
#401=ORIENTED_EDGE('',*,*,#328,.F.);
#402=ORIENTED_EDGE('',*,*,#330,.F.);
#403=ORIENTED_EDGE('',*,*,#331,.F.);
#404=ORIENTED_EDGE('',*,*,#332,.T.);
#405=ORIENTED_EDGE('',*,*,#333,.T.);
#406=ORIENTED_EDGE('',*,*,#334,.F.);
#407=ORIENTED_EDGE('',*,*,#335,.F.);
#408=ORIENTED_EDGE('',*,*,#336,.F.);
#409=ORIENTED_EDGE('',*,*,#337,.F.);
#410=ORIENTED_EDGE('',*,*,#338,.F.);
#411=ORIENTED_EDGE('',*,*,#339,.F.);
#412=ORIENTED_EDGE('',*,*,#340,.T.);
#413=ORIENTED_EDGE('',*,*,#331,.T.);
#414=ORIENTED_EDGE('',*,*,#341,.F.);
#415=ORIENTED_EDGE('',*,*,#342,.F.);
#416=ORIENTED_EDGE('',*,*,#343,.T.);
#417=ORIENTED_EDGE('',*,*,#339,.T.);
#418=ORIENTED_EDGE('',*,*,#344,.F.);
#419=ORIENTED_EDGE('',*,*,#345,.F.);
#420=ORIENTED_EDGE('',*,*,#346,.F.);
#421=ORIENTED_EDGE('',*,*,#347,.F.);
#422=ORIENTED_EDGE('',*,*,#348,.F.);
#423=ORIENTED_EDGE('',*,*,#333,.F.);
#424=ORIENTED_EDGE('',*,*,#349,.T.);
#425=ORIENTED_EDGE('',*,*,#342,.T.);
#426=ORIENTED_EDGE('',*,*,#332,.F.);
#427=ORIENTED_EDGE('',*,*,#340,.F.);
#428=ORIENTED_EDGE('',*,*,#343,.F.);
#429=ORIENTED_EDGE('',*,*,#349,.F.);
#430=ORIENTED_EDGE('',*,*,#304,.F.);
#431=ORIENTED_EDGE('',*,*,#307,.F.);
#432=ORIENTED_EDGE('',*,*,#310,.F.);
#433=ORIENTED_EDGE('',*,*,#313,.F.);
#434=ORIENTED_EDGE('',*,*,#329,.F.);
#435=ORIENTED_EDGE('',*,*,#330,.T.);
#436=ORIENTED_EDGE('',*,*,#348,.T.);
#437=ORIENTED_EDGE('',*,*,#341,.T.);
#438=ORIENTED_EDGE('',*,*,#338,.T.);
#439=ORIENTED_EDGE('',*,*,#306,.T.);
#440=ORIENTED_EDGE('',*,*,#309,.T.);
#441=ORIENTED_EDGE('',*,*,#312,.T.);
#442=ORIENTED_EDGE('',*,*,#315,.T.);
#443=ORIENTED_EDGE('',*,*,#318,.F.);
#444=ORIENTED_EDGE('',*,*,#327,.T.);
#445=ORIENTED_EDGE('',*,*,#316,.F.);
#446=ORIENTED_EDGE('',*,*,#350,.T.);
#447=ORIENTED_EDGE('',*,*,#344,.T.);
#448=ORIENTED_EDGE('',*,*,#351,.F.);
#449=ORIENTED_EDGE('',*,*,#320,.F.);
#450=ORIENTED_EDGE('',*,*,#352,.T.);
#451=ORIENTED_EDGE('',*,*,#345,.T.);
#452=ORIENTED_EDGE('',*,*,#350,.F.);
#453=ORIENTED_EDGE('',*,*,#319,.F.);
#454=ORIENTED_EDGE('',*,*,#353,.T.);
#455=ORIENTED_EDGE('',*,*,#346,.T.);
#456=ORIENTED_EDGE('',*,*,#352,.F.);
#457=ORIENTED_EDGE('',*,*,#322,.F.);
#458=ORIENTED_EDGE('',*,*,#351,.T.);
#459=ORIENTED_EDGE('',*,*,#347,.T.);
#460=ORIENTED_EDGE('',*,*,#353,.F.);
#461=ORIENTED_EDGE('',*,*,#321,.F.);
#462=ORIENTED_EDGE('',*,*,#354,.T.);
#463=ORIENTED_EDGE('',*,*,#334,.T.);
#464=ORIENTED_EDGE('',*,*,#355,.F.);
#465=ORIENTED_EDGE('',*,*,#324,.F.);
#466=ORIENTED_EDGE('',*,*,#356,.T.);
#467=ORIENTED_EDGE('',*,*,#335,.T.);
#468=ORIENTED_EDGE('',*,*,#354,.F.);
#469=ORIENTED_EDGE('',*,*,#323,.F.);
#470=ORIENTED_EDGE('',*,*,#357,.T.);
#471=ORIENTED_EDGE('',*,*,#336,.T.);
#472=ORIENTED_EDGE('',*,*,#356,.F.);
#473=ORIENTED_EDGE('',*,*,#326,.F.);
#474=ORIENTED_EDGE('',*,*,#355,.T.);
#475=ORIENTED_EDGE('',*,*,#337,.T.);
#476=ORIENTED_EDGE('',*,*,#357,.F.);
#477=ORIENTED_EDGE('',*,*,#325,.F.);
#478=ORIENTED_EDGE('',*,*,#358,.F.);
#479=ORIENTED_EDGE('',*,*,#359,.F.);
#480=ORIENTED_EDGE('',*,*,#360,.T.);
#481=ORIENTED_EDGE('',*,*,#361,.T.);
#482=ORIENTED_EDGE('',*,*,#362,.F.);
#483=ORIENTED_EDGE('',*,*,#363,.F.);
#484=ORIENTED_EDGE('',*,*,#364,.T.);
#485=ORIENTED_EDGE('',*,*,#359,.T.);
#486=ORIENTED_EDGE('',*,*,#365,.F.);
#487=ORIENTED_EDGE('',*,*,#366,.F.);
#488=ORIENTED_EDGE('',*,*,#367,.T.);
#489=ORIENTED_EDGE('',*,*,#363,.T.);
#490=ORIENTED_EDGE('',*,*,#368,.F.);
#491=ORIENTED_EDGE('',*,*,#361,.F.);
#492=ORIENTED_EDGE('',*,*,#369,.T.);
#493=ORIENTED_EDGE('',*,*,#366,.T.);
#494=ORIENTED_EDGE('',*,*,#360,.F.);
#495=ORIENTED_EDGE('',*,*,#364,.F.);
#496=ORIENTED_EDGE('',*,*,#367,.F.);
#497=ORIENTED_EDGE('',*,*,#369,.F.);
#498=ORIENTED_EDGE('',*,*,#358,.T.);
#499=ORIENTED_EDGE('',*,*,#368,.T.);
#500=ORIENTED_EDGE('',*,*,#365,.T.);
#501=ORIENTED_EDGE('',*,*,#362,.T.);
#502=CYLINDRICAL_SURFACE('',#562,2.74999999999997);
#503=CYLINDRICAL_SURFACE('',#565,2.74999999999997);
#504=CYLINDRICAL_SURFACE('',#568,2.74999999999997);
#505=CYLINDRICAL_SURFACE('',#571,2.75000000000003);
#506=CYLINDRICAL_SURFACE('',#574,20.);
#507=CYLINDRICAL_SURFACE('',#581,21.1);
#508=ADVANCED_FACE('',(#75),#502,.F.);
#509=ADVANCED_FACE('',(#76),#503,.F.);
#510=ADVANCED_FACE('',(#77),#504,.F.);
#511=ADVANCED_FACE('',(#78),#505,.F.);
#512=ADVANCED_FACE('',(#79,#60,#61),#506,.F.);
#513=ADVANCED_FACE('',(#80),#507,.F.);
#514=ADVANCED_FACE('',(#81,#62),#39,.T.);
#515=ADVANCED_FACE('',(#82),#40,.T.);
#516=ADVANCED_FACE('',(#83,#63),#41,.T.);
#517=ADVANCED_FACE('',(#84),#42,.T.);
#518=ADVANCED_FACE('',(#85,#64,#65,#66,#67,#68),#43,.F.);
#519=ADVANCED_FACE('',(#86,#69,#70,#71,#72,#73),#44,.T.);
#520=ADVANCED_FACE('',(#87,#74),#45,.T.);
#521=ADVANCED_FACE('',(#88),#46,.F.);
#522=ADVANCED_FACE('',(#89),#47,.F.);
#523=ADVANCED_FACE('',(#90),#48,.F.);
#524=ADVANCED_FACE('',(#91),#49,.F.);
#525=ADVANCED_FACE('',(#92),#50,.F.);
#526=ADVANCED_FACE('',(#93),#51,.F.);
#527=ADVANCED_FACE('',(#94),#52,.F.);
#528=ADVANCED_FACE('',(#95),#53,.F.);
#529=ADVANCED_FACE('',(#96),#54,.T.);
#530=ADVANCED_FACE('',(#97),#55,.T.);
#531=ADVANCED_FACE('',(#98),#56,.T.);
#532=ADVANCED_FACE('',(#99),#57,.T.);
#533=ADVANCED_FACE('',(#100),#58,.F.);
#534=ADVANCED_FACE('',(#101),#59,.T.);
#535=CLOSED_SHELL('',(#508,#509,#510,#511,#512,#513,#514,#515,#516,#517,
#518,#519,#520,#521,#522,#523,#524,#525,#526,#527,#528));
#536=CLOSED_SHELL('',(#529,#530,#531,#532,#533,#534));
#537=DERIVED_UNIT_ELEMENT(#541,1.);
#538=DERIVED_UNIT_ELEMENT(#917,-3.);
#539=DERIVED_UNIT_ELEMENT(#541,1.);
#540=DERIVED_UNIT_ELEMENT(#917,-3.);
#541=(
MASS_UNIT()
NAMED_UNIT(*)
SI_UNIT(.KILO.,.GRAM.)
);
#542=DERIVED_UNIT((#537,#538));
#543=DERIVED_UNIT((#539,#540));
#544=MEASURE_REPRESENTATION_ITEM('density measure',
POSITIVE_RATIO_MEASURE(7850.),#542);
#545=MEASURE_REPRESENTATION_ITEM('density measure',
POSITIVE_RATIO_MEASURE(7850.),#543);
#546=PROPERTY_DEFINITION_REPRESENTATION(#556,#550);
#547=PROPERTY_DEFINITION_REPRESENTATION(#557,#551);
#548=PROPERTY_DEFINITION_REPRESENTATION(#558,#552);
#549=PROPERTY_DEFINITION_REPRESENTATION(#559,#553);
#550=REPRESENTATION('material name',(#554),#913);
#551=REPRESENTATION('density',(#544),#913);
#552=REPRESENTATION('material name',(#555),#914);
#553=REPRESENTATION('density',(#545),#914);
#554=DESCRIPTIVE_REPRESENTATION_ITEM('Steel','Steel');
#555=DESCRIPTIVE_REPRESENTATION_ITEM('Steel','Steel');
#556=PROPERTY_DEFINITION('material property','material name',#936);
#557=PROPERTY_DEFINITION('material property','density of part',#936);
#558=PROPERTY_DEFINITION('material property','material name',#937);
#559=PROPERTY_DEFINITION('material property','density of part',#937);
#560=AXIS2_PLACEMENT_3D('',#763,#611,#612);
#561=AXIS2_PLACEMENT_3D('',#764,#613,#614);
#562=AXIS2_PLACEMENT_3D('',#765,#615,#616);
#563=AXIS2_PLACEMENT_3D('',#767,#617,#618);
#564=AXIS2_PLACEMENT_3D('',#770,#620,#621);
#565=AXIS2_PLACEMENT_3D('',#771,#622,#623);
#566=AXIS2_PLACEMENT_3D('',#773,#624,#625);
#567=AXIS2_PLACEMENT_3D('',#776,#627,#628);
#568=AXIS2_PLACEMENT_3D('',#777,#629,#630);
#569=AXIS2_PLACEMENT_3D('',#779,#631,#632);
#570=AXIS2_PLACEMENT_3D('',#782,#634,#635);
#571=AXIS2_PLACEMENT_3D('',#783,#636,#637);
#572=AXIS2_PLACEMENT_3D('',#785,#638,#639);
#573=AXIS2_PLACEMENT_3D('',#788,#641,#642);
#574=AXIS2_PLACEMENT_3D('',#789,#643,#644);
#575=AXIS2_PLACEMENT_3D('',#791,#645,#646);
#576=AXIS2_PLACEMENT_3D('',#794,#648,#649);
#577=AXIS2_PLACEMENT_3D('',#799,#651,#652);
#578=AXIS2_PLACEMENT_3D('',#802,#654,#655);
#579=AXIS2_PLACEMENT_3D('',#807,#657,#658);
#580=AXIS2_PLACEMENT_3D('',#810,#660,#661);
#581=AXIS2_PLACEMENT_3D('',#811,#662,#663);
#582=AXIS2_PLACEMENT_3D('',#813,#664,#665);
#583=AXIS2_PLACEMENT_3D('',#816,#667,#668);
#584=AXIS2_PLACEMENT_3D('',#817,#669,#670);
#585=AXIS2_PLACEMENT_3D('',#834,#679,#680);
#586=AXIS2_PLACEMENT_3D('',#840,#684,#685);
#587=AXIS2_PLACEMENT_3D('',#854,#693,#694);
#588=AXIS2_PLACEMENT_3D('',#857,#697,#698);
#589=AXIS2_PLACEMENT_3D('',#858,#699,#700);
#590=AXIS2_PLACEMENT_3D('',#859,#701,#702);
#591=AXIS2_PLACEMENT_3D('',#860,#703,#704);
#592=AXIS2_PLACEMENT_3D('',#863,#707,#708);
#593=AXIS2_PLACEMENT_3D('',#865,#710,#711);
#594=AXIS2_PLACEMENT_3D('',#867,#713,#714);
#595=AXIS2_PLACEMENT_3D('',#868,#715,#716);
#596=AXIS2_PLACEMENT_3D('',#871,#719,#720);
#597=AXIS2_PLACEMENT_3D('',#873,#722,#723);
#598=AXIS2_PLACEMENT_3D('',#875,#725,#726);
#599=AXIS2_PLACEMENT_3D('',#876,#727,#728);
#600=AXIS2_PLACEMENT_3D('',#877,#729,#730);
#601=AXIS2_PLACEMENT_3D('',#886,#735,#736);
#602=AXIS2_PLACEMENT_3D('',#892,#740,#741);
#603=AXIS2_PLACEMENT_3D('',#898,#745,#746);
#604=AXIS2_PLACEMENT_3D('',#901,#749,#750);
#605=AXIS2_PLACEMENT_3D('',#902,#751,#752);
#606=AXIS2_PLACEMENT_3D('',#903,#753,#754);
#607=AXIS2_PLACEMENT_3D('',#904,#755,#756);
#608=AXIS2_PLACEMENT_3D('',#905,#757,#758);
#609=AXIS2_PLACEMENT_3D('',#906,#759,#760);
#610=AXIS2_PLACEMENT_3D('',#907,#761,#762);
#611=DIRECTION('axis',(0.,0.,1.));
#612=DIRECTION('refdir',(1.,0.,0.));
#613=DIRECTION('axis',(0.,0.,1.));
#614=DIRECTION('refdir',(1.,0.,0.));
#615=DIRECTION('center_axis',(0.,0.,-1.));
#616=DIRECTION('ref_axis',(-1.,0.,0.));
#617=DIRECTION('center_axis',(0.,0.,1.));
#618=DIRECTION('ref_axis',(-1.,0.,0.));
#619=DIRECTION('',(0.,0.,-1.));
#620=DIRECTION('center_axis',(0.,0.,1.));
#621=DIRECTION('ref_axis',(1.,0.,0.));
#622=DIRECTION('center_axis',(0.,0.,-1.));
#623=DIRECTION('ref_axis',(-1.,0.,0.));
#624=DIRECTION('center_axis',(0.,0.,1.));
#625=DIRECTION('ref_axis',(-1.,0.,0.));
#626=DIRECTION('',(0.,0.,-1.));
#627=DIRECTION('center_axis',(0.,0.,1.));
#628=DIRECTION('ref_axis',(1.,0.,0.));
#629=DIRECTION('center_axis',(0.,0.,-1.));
#630=DIRECTION('ref_axis',(-1.,0.,0.));
#631=DIRECTION('center_axis',(0.,0.,1.));
#632=DIRECTION('ref_axis',(-1.,0.,0.));
#633=DIRECTION('',(0.,0.,-1.));
#634=DIRECTION('center_axis',(0.,0.,1.));
#635=DIRECTION('ref_axis',(1.,0.,0.));
#636=DIRECTION('center_axis',(0.,0.,-1.));
#637=DIRECTION('ref_axis',(-1.,0.,0.));
#638=DIRECTION('center_axis',(0.,0.,1.));
#639=DIRECTION('ref_axis',(-1.,0.,0.));
#640=DIRECTION('',(0.,0.,-1.));
#641=DIRECTION('center_axis',(0.,0.,1.));
#642=DIRECTION('ref_axis',(1.,0.,0.));
#643=DIRECTION('center_axis',(0.,0.,-1.));
#644=DIRECTION('ref_axis',(-1.,0.,0.));
#645=DIRECTION('center_axis',(0.,0.,1.));
#646=DIRECTION('ref_axis',(1.,0.,0.));
#647=DIRECTION('',(0.,0.,-1.));
#648=DIRECTION('center_axis',(0.,0.,-1.));
#649=DIRECTION('ref_axis',(-1.,0.,0.));
#650=DIRECTION('',(0.,0.,-1.));
#651=DIRECTION('center_axis',(0.,1.15648231731787E-16,1.));
#652=DIRECTION('ref_axis',(2.77555756156289E-15,1.,-1.15648231731787E-16));
#653=DIRECTION('',(0.,0.,1.));
#654=DIRECTION('center_axis',(0.,0.,-1.));
#655=DIRECTION('ref_axis',(1.,-2.77555756156289E-15,0.));
#656=DIRECTION('',(0.,0.,-1.));
#657=DIRECTION('center_axis',(0.,-1.15648231731787E-16,1.));
#658=DIRECTION('ref_axis',(-2.77555756156289E-15,1.,1.15648231731787E-16));
#659=DIRECTION('',(0.,0.,1.));
#660=DIRECTION('center_axis',(0.,0.,-1.));
#661=DIRECTION('ref_axis',(1.,0.,0.));
#662=DIRECTION('center_axis',(0.,0.,1.));
#663=DIRECTION('ref_axis',(1.,0.,0.));
#664=DIRECTION('center_axis',(0.,0.,1.));
#665=DIRECTION('ref_axis',(1.,0.,0.));
#666=DIRECTION('',(0.,0.,1.));
#667=DIRECTION('center_axis',(0.,0.,1.));
#668=DIRECTION('ref_axis',(1.,0.,0.));
#669=DIRECTION('center_axis',(-1.,0.,0.));
#670=DIRECTION('ref_axis',(0.,0.,1.));
#671=DIRECTION('',(0.,1.,0.));
#672=DIRECTION('',(0.,0.,-1.));
#673=DIRECTION('',(0.,1.,0.));
#674=DIRECTION('',(0.,0.,-1.));
#675=DIRECTION('',(0.,-1.,-1.15648231731787E-16));
#676=DIRECTION('',(0.,0.,-1.));
#677=DIRECTION('',(0.,1.,0.));
#678=DIRECTION('',(0.,0.,1.));
#679=DIRECTION('center_axis',(-4.82705662880502E-16,-1.,0.));
#680=DIRECTION('ref_axis',(1.,-4.82705662880502E-16,0.));
#681=DIRECTION('',(-1.,4.82705662880503E-16,0.));
#682=DIRECTION('',(0.,0.,-1.));
#683=DIRECTION('',(-1.,4.82705662880503E-16,0.));
#684=DIRECTION('center_axis',(1.,0.,0.));
#685=DIRECTION('ref_axis',(0.,0.,-1.));
#686=DIRECTION('',(0.,-1.,0.));
#687=DIRECTION('',(0.,0.,-1.));
#688=DIRECTION('',(0.,-1.,0.));
#689=DIRECTION('',(0.,1.,-1.15648231731787E-16));
#690=DIRECTION('',(0.,0.,-1.));
#691=DIRECTION('',(0.,-1.,0.));
#692=DIRECTION('',(0.,0.,1.));
#693=DIRECTION('center_axis',(0.,1.,0.));
#694=DIRECTION('ref_axis',(0.,0.,1.));
#695=DIRECTION('',(1.,0.,0.));
#696=DIRECTION('',(1.,0.,0.));
#697=DIRECTION('center_axis',(0.,0.,-1.));
#698=DIRECTION('ref_axis',(-1.,0.,0.));
#699=DIRECTION('center_axis',(0.,0.,-1.));
#700=DIRECTION('ref_axis',(-1.,0.,0.));
#701=DIRECTION('center_axis',(0.,0.,1.));
#702=DIRECTION('ref_axis',(1.,0.,0.));
#703=DIRECTION('center_axis',(0.,-1.15648231731787E-16,-1.));
#704=DIRECTION('ref_axis',(0.,1.,-1.15648231731787E-16));
#705=DIRECTION('',(1.,0.,0.));
#706=DIRECTION('',(1.,0.,0.));
#707=DIRECTION('center_axis',(0.,-1.,0.));
#708=DIRECTION('ref_axis',(0.,0.,-1.));
#709=DIRECTION('',(1.,0.,0.));
#710=DIRECTION('center_axis',(0.,0.,1.));
#711=DIRECTION('ref_axis',(1.,0.,0.));
#712=DIRECTION('',(1.,0.,0.));
#713=DIRECTION('center_axis',(0.,1.,0.));
#714=DIRECTION('ref_axis',(0.,0.,1.));
#715=DIRECTION('center_axis',(0.,1.15648231731787E-16,-1.));
#716=DIRECTION('ref_axis',(0.,1.,1.15648231731787E-16));
#717=DIRECTION('',(-1.,0.,0.));
#718=DIRECTION('',(-1.,0.,0.));
#719=DIRECTION('center_axis',(0.,1.,0.));
#720=DIRECTION('ref_axis',(0.,0.,1.));
#721=DIRECTION('',(-1.,0.,0.));
#722=DIRECTION('center_axis',(0.,0.,1.));
#723=DIRECTION('ref_axis',(1.,0.,0.));
#724=DIRECTION('',(-1.,0.,0.));
#725=DIRECTION('center_axis',(0.,-1.,0.));
#726=DIRECTION('ref_axis',(0.,0.,-1.));
#727=DIRECTION('axis',(0.,0.,1.));
#728=DIRECTION('refdir',(1.,0.,0.));
#729=DIRECTION('center_axis',(1.,1.80392882254961E-16,0.));
#730=DIRECTION('ref_axis',(-1.80392882254961E-16,1.,0.));
#731=DIRECTION('',(-1.80392882254961E-16,1.,0.));
#732=DIRECTION('',(0.,0.,1.));
#733=DIRECTION('',(-1.80392882254961E-16,1.,0.));
#734=DIRECTION('',(0.,0.,1.));
#735=DIRECTION('center_axis',(0.,-1.,0.));
#736=DIRECTION('ref_axis',(0.,0.,-1.));
#737=DIRECTION('',(1.,0.,0.));
#738=DIRECTION('',(0.,0.,1.));
#739=DIRECTION('',(1.,0.,0.));
#740=DIRECTION('center_axis',(-1.,-1.80392882254961E-16,0.));
#741=DIRECTION('ref_axis',(1.80392882254961E-16,-1.,0.));
#742=DIRECTION('',(1.80392882254961E-16,-1.,0.));
#743=DIRECTION('',(0.,0.,1.));
#744=DIRECTION('',(1.80392882254961E-16,-1.,0.));
#745=DIRECTION('center_axis',(0.,1.,0.));
#746=DIRECTION('ref_axis',(0.,0.,1.));
#747=DIRECTION('',(-1.,0.,0.));
#748=DIRECTION('',(-1.,0.,0.));
#749=DIRECTION('center_axis',(0.,0.,1.));
#750=DIRECTION('ref_axis',(1.,0.,0.));
#751=DIRECTION('center_axis',(0.,0.,1.));
#752=DIRECTION('ref_axis',(1.,0.,0.));
#753=DIRECTION('',(0.,1.,0.));
#754=DIRECTION('',(-1.,0.,1.21430643318376E-16));
#755=DIRECTION('',(0.,1.,0.));
#756=DIRECTION('',(-1.,0.,1.21430643318376E-16));
#757=DIRECTION('',(0.,1.,0.));
#758=DIRECTION('',(-1.,0.,1.21430643318376E-16));
#759=DIRECTION('',(0.,1.,0.));
#760=DIRECTION('',(-1.,0.,1.21430643318376E-16));
#761=DIRECTION('',(0.,-1.,4.6513887471585E-17));
#762=DIRECTION('',(1.,-4.30800250092512E-34,-9.26175543499101E-18));
#763=CARTESIAN_POINT('',(0.,0.,0.));
#764=CARTESIAN_POINT('',(0.,0.,0.));
#765=CARTESIAN_POINT('Origin',(-342.104600328338,171.080789289515,200.));
#766=CARTESIAN_POINT('',(-339.354600328338,171.080789289515,60.));
#767=CARTESIAN_POINT('Origin',(-342.104600328338,171.080789289515,60.));
#768=CARTESIAN_POINT('',(-339.354600328338,171.080789289515,0.));
#769=CARTESIAN_POINT('',(-339.354600328338,171.080789289515,200.));
#770=CARTESIAN_POINT('Origin',(-342.104600328338,171.080789289515,0.));
#771=CARTESIAN_POINT('Origin',(-295.104600328338,218.080789289515,200.));
#772=CARTESIAN_POINT('',(-292.354600328338,218.080789289515,60.));
#773=CARTESIAN_POINT('Origin',(-295.104600328338,218.080789289515,60.));
#774=CARTESIAN_POINT('',(-292.354600328338,218.080789289515,0.));
#775=CARTESIAN_POINT('',(-292.354600328338,218.080789289515,200.));
#776=CARTESIAN_POINT('Origin',(-295.104600328338,218.080789289515,0.));
#777=CARTESIAN_POINT('Origin',(-342.104600328338,218.080789289515,200.));
#778=CARTESIAN_POINT('',(-339.354600328338,218.080789289515,60.));
#779=CARTESIAN_POINT('Origin',(-342.104600328338,218.080789289515,60.));
#780=CARTESIAN_POINT('',(-339.354600328338,218.080789289515,0.));
#781=CARTESIAN_POINT('',(-339.354600328338,218.080789289515,200.));
#782=CARTESIAN_POINT('Origin',(-342.104600328338,218.080789289515,0.));
#783=CARTESIAN_POINT('Origin',(-295.104600328338,171.080789289516,200.));
#784=CARTESIAN_POINT('',(-292.354600328338,171.080789289516,60.));
#785=CARTESIAN_POINT('Origin',(-295.104600328338,171.080789289516,60.));
#786=CARTESIAN_POINT('',(-292.354600328338,171.080789289516,0.));
#787=CARTESIAN_POINT('',(-292.354600328338,171.080789289516,200.));
#788=CARTESIAN_POINT('Origin',(-295.104600328338,171.080789289516,0.));
#789=CARTESIAN_POINT('Origin',(-318.604600328338,194.580789289516,100.));
#790=CARTESIAN_POINT('',(-298.604600328338,194.580789289516,56.));
#791=CARTESIAN_POINT('Origin',(-318.604600328338,194.580789289516,56.));
#792=CARTESIAN_POINT('',(-298.604600328338,194.580789289516,0.));
#793=CARTESIAN_POINT('',(-298.604600328338,194.580789289516,100.));
#794=CARTESIAN_POINT('Origin',(-318.604600328338,194.580789289516,0.));
#795=CARTESIAN_POINT('',(-298.870429456472,197.830789289516,48.594651422564));
#796=CARTESIAN_POINT('',(-298.870429456472,197.830789289516,11.405348577436));
#797=CARTESIAN_POINT('',(-298.870429456472,197.830789289516,100.));
#798=CARTESIAN_POINT('',(-310.423066242361,212.830789289516,11.405348577436));
#799=CARTESIAN_POINT('Origin',(-318.604600328338,194.580789289516,11.405348577436));
#800=CARTESIAN_POINT('',(-310.423066242361,212.830789289516,48.594651422564));
#801=CARTESIAN_POINT('',(-310.423066242361,212.830789289516,100.));
#802=CARTESIAN_POINT('Origin',(-318.604600328338,194.580789289516,48.594651422564));
#803=CARTESIAN_POINT('',(-338.338771200204,191.330789289516,48.594651422564));
#804=CARTESIAN_POINT('',(-338.338771200204,191.330789289516,11.405348577436));
#805=CARTESIAN_POINT('',(-338.338771200204,191.330789289516,100.));
#806=CARTESIAN_POINT('',(-326.786134414314,176.330789289516,11.405348577436));
#807=CARTESIAN_POINT('Origin',(-318.604600328338,194.580789289516,11.405348577436));
#808=CARTESIAN_POINT('',(-326.786134414314,176.330789289516,48.594651422564));
#809=CARTESIAN_POINT('',(-326.786134414314,176.330789289516,100.));
#810=CARTESIAN_POINT('Origin',(-318.604600328338,194.580789289516,48.594651422564));
#811=CARTESIAN_POINT('Origin',(-318.604600328338,194.580789289516,56.));
#812=CARTESIAN_POINT('',(-339.704600328338,194.580789289516,56.));
#813=CARTESIAN_POINT('Origin',(-318.604600328338,194.580789289516,56.));
#814=CARTESIAN_POINT('',(-339.704600328338,194.580789289516,60.));
#815=CARTESIAN_POINT('',(-339.704600328338,194.580789289516,56.));
#816=CARTESIAN_POINT('Origin',(-318.604600328338,194.580789289516,60.));
#817=CARTESIAN_POINT('Origin',(-347.354600328338,165.830789289516,60.));
#818=CARTESIAN_POINT('',(-347.354600328338,165.830789289516,0.));
#819=CARTESIAN_POINT('',(-347.354600328338,223.330789289516,0.));
#820=CARTESIAN_POINT('',(-347.354600328338,165.830789289516,0.));
#821=CARTESIAN_POINT('',(-347.354600328338,165.830789289516,60.));
#822=CARTESIAN_POINT('',(-347.354600328338,165.830789289516,60.));
#823=CARTESIAN_POINT('',(-347.354600328338,223.330789289516,60.));
#824=CARTESIAN_POINT('',(-347.354600328338,165.830789289516,60.));
#825=CARTESIAN_POINT('',(-347.354600328338,223.330789289516,60.));
#826=CARTESIAN_POINT('',(-347.354600328338,191.330789289516,11.405348577436));
#827=CARTESIAN_POINT('',(-347.354600328338,176.330789289516,11.405348577436));
#828=CARTESIAN_POINT('',(-347.354600328338,191.330789289516,11.405348577436));
#829=CARTESIAN_POINT('',(-347.354600328338,191.330789289516,48.594651422564));
#830=CARTESIAN_POINT('',(-347.354600328338,191.330789289516,48.594651422564));
#831=CARTESIAN_POINT('',(-347.354600328338,176.330789289516,48.594651422564));
#832=CARTESIAN_POINT('',(-347.354600328338,191.330789289516,48.594651422564));
#833=CARTESIAN_POINT('',(-347.354600328338,176.330789289516,48.594651422564));
#834=CARTESIAN_POINT('Origin',(-289.854600328338,165.830789289516,60.));
#835=CARTESIAN_POINT('',(-289.854600328338,165.830789289516,0.));
#836=CARTESIAN_POINT('',(-289.854600328338,165.830789289516,0.));
#837=CARTESIAN_POINT('',(-289.854600328338,165.830789289516,60.));
#838=CARTESIAN_POINT('',(-289.854600328338,165.830789289516,60.));
#839=CARTESIAN_POINT('',(-289.854600328338,165.830789289516,60.));
#840=CARTESIAN_POINT('Origin',(-289.854600328338,223.330789289516,60.));
#841=CARTESIAN_POINT('',(-289.854600328338,223.330789289516,0.));
#842=CARTESIAN_POINT('',(-289.854600328338,223.330789289516,0.));
#843=CARTESIAN_POINT('',(-289.854600328338,223.330789289516,60.));
#844=CARTESIAN_POINT('',(-289.854600328338,223.330789289516,60.));
#845=CARTESIAN_POINT('',(-289.854600328338,223.330789289516,60.));
#846=CARTESIAN_POINT('',(-289.854600328338,197.830789289516,11.405348577436));
#847=CARTESIAN_POINT('',(-289.854600328338,212.830789289516,11.405348577436));
#848=CARTESIAN_POINT('',(-289.854600328338,197.830789289516,11.405348577436));
#849=CARTESIAN_POINT('',(-289.854600328338,197.830789289516,48.594651422564));
#850=CARTESIAN_POINT('',(-289.854600328338,197.830789289516,48.594651422564));
#851=CARTESIAN_POINT('',(-289.854600328338,212.830789289516,48.594651422564));
#852=CARTESIAN_POINT('',(-289.854600328338,197.830789289516,48.594651422564));
#853=CARTESIAN_POINT('',(-289.854600328338,212.830789289516,48.594651422564));
#854=CARTESIAN_POINT('Origin',(-347.354600328338,223.330789289516,60.));
#855=CARTESIAN_POINT('',(-347.354600328338,223.330789289516,0.));
#856=CARTESIAN_POINT('',(-347.354600328338,223.330789289516,60.));
#857=CARTESIAN_POINT('Origin',(0.,0.,60.));
#858=CARTESIAN_POINT('Origin',(0.,0.,0.));
#859=CARTESIAN_POINT('Origin',(-318.604600328338,194.580789289516,56.));
#860=CARTESIAN_POINT('Origin',(-314.854600328338,197.830789289516,11.405348577436));
#861=CARTESIAN_POINT('',(-314.854600328338,197.830789289516,11.405348577436));
#862=CARTESIAN_POINT('',(-314.854600328338,212.830789289516,11.405348577436));
#863=CARTESIAN_POINT('Origin',(-314.854600328338,197.830789289516,48.594651422564));
#864=CARTESIAN_POINT('',(-314.854600328338,197.830789289516,48.594651422564));
#865=CARTESIAN_POINT('Origin',(-314.854600328338,197.830789289516,48.594651422564));
#866=CARTESIAN_POINT('',(-314.854600328338,212.830789289516,48.594651422564));
#867=CARTESIAN_POINT('Origin',(-314.854600328338,212.830789289516,48.594651422564));
#868=CARTESIAN_POINT('Origin',(-322.354600328338,191.330789289516,11.405348577436));
#869=CARTESIAN_POINT('',(-322.354600328338,191.330789289516,11.405348577436));
#870=CARTESIAN_POINT('',(-322.354600328338,176.330789289516,11.405348577436));
#871=CARTESIAN_POINT('Origin',(-322.354600328338,191.330789289516,48.594651422564));
#872=CARTESIAN_POINT('',(-322.354600328338,191.330789289516,48.594651422564));
#873=CARTESIAN_POINT('Origin',(-322.354600328338,191.330789289516,48.594651422564));
#874=CARTESIAN_POINT('',(-322.354600328338,176.330789289516,48.594651422564));
#875=CARTESIAN_POINT('Origin',(-322.354600328338,176.330789289516,48.594651422564));
#876=CARTESIAN_POINT('',(0.,0.,0.));
#877=CARTESIAN_POINT('Origin',(358.604600328338,388.44260062418,-80.));
#878=CARTESIAN_POINT('',(358.604600328338,80.7189779548524,0.));
#879=CARTESIAN_POINT('',(358.604600328338,388.44260062418,0.));
#880=CARTESIAN_POINT('',(358.604600328338,388.44260062418,0.));
#881=CARTESIAN_POINT('',(358.604600328338,80.7189779548524,-80.));
#882=CARTESIAN_POINT('',(358.604600328338,80.7189779548524,-80.));
#883=CARTESIAN_POINT('',(358.604600328338,388.44260062418,-80.));
#884=CARTESIAN_POINT('',(358.604600328338,388.44260062418,-80.));
#885=CARTESIAN_POINT('',(358.604600328338,388.44260062418,-80.));
#886=CARTESIAN_POINT('Origin',(278.604600328338,80.7189779548524,-80.));
#887=CARTESIAN_POINT('',(278.604600328338,80.7189779548524,0.));
#888=CARTESIAN_POINT('',(278.604600328338,80.7189779548524,0.));
#889=CARTESIAN_POINT('',(278.604600328338,80.7189779548524,-80.));
#890=CARTESIAN_POINT('',(278.604600328338,80.7189779548524,-80.));
#891=CARTESIAN_POINT('',(278.604600328338,80.7189779548524,-80.));
#892=CARTESIAN_POINT('Origin',(278.604600328338,388.44260062418,-80.));
#893=CARTESIAN_POINT('',(278.604600328338,388.44260062418,0.));
#894=CARTESIAN_POINT('',(278.604600328338,388.44260062418,0.));
#895=CARTESIAN_POINT('',(278.604600328338,388.44260062418,-80.));
#896=CARTESIAN_POINT('',(278.604600328338,388.44260062418,-80.));
#897=CARTESIAN_POINT('',(278.604600328338,388.44260062418,-80.));
#898=CARTESIAN_POINT('Origin',(278.604600328338,388.44260062418,-80.));
#899=CARTESIAN_POINT('',(278.604600328338,388.44260062418,0.));
#900=CARTESIAN_POINT('',(278.604600328338,388.44260062418,-80.));
#901=CARTESIAN_POINT('Origin',(0.,0.,-80.));
#902=CARTESIAN_POINT('Origin',(0.,0.,0.));
#903=CARTESIAN_POINT('',(-236.488876983322,211.164289521851,-22.6133893955408));
#904=CARTESIAN_POINT('',(-236.488876983322,211.164289521851,-102.613389395541));
#905=CARTESIAN_POINT('',(-236.488876983322,211.164289521851,-182.613389395541));
#906=CARTESIAN_POINT('',(-236.488876983322,211.164289521851,-262.613389395541));
#907=CARTESIAN_POINT('',(-236.488876983322,209.16428952185,-182.613389395541));
#908=UNCERTAINTY_MEASURE_WITH_UNIT(LENGTH_MEASURE(0.01),#916,
'DISTANCE_ACCURACY_VALUE',
'Maximum model space distance between geometric entities at asserted c
onnectivities');
#909=UNCERTAINTY_MEASURE_WITH_UNIT(LENGTH_MEASURE(0.01),#916,
'DISTANCE_ACCURACY_VALUE',
'Maximum model space distance between geometric entities at asserted c
onnectivities');
#910=UNCERTAINTY_MEASURE_WITH_UNIT(LENGTH_MEASURE(0.01),#916,
'DISTANCE_ACCURACY_VALUE',
'Maximum model space distance between geometric entities at asserted c
onnectivities');
#911=UNCERTAINTY_MEASURE_WITH_UNIT(LENGTH_MEASURE(0.01),#916,
'DISTANCE_ACCURACY_VALUE',
'Maximum model space distance between geometric entities at asserted c
onnectivities');
#912=(
GEOMETRIC_REPRESENTATION_CONTEXT(3)
GLOBAL_UNCERTAINTY_ASSIGNED_CONTEXT((#908))
GLOBAL_UNIT_ASSIGNED_CONTEXT((#916,#918,#919))
REPRESENTATION_CONTEXT('','3D')
);
#913=(
GEOMETRIC_REPRESENTATION_CONTEXT(3)
GLOBAL_UNCERTAINTY_ASSIGNED_CONTEXT((#909))
GLOBAL_UNIT_ASSIGNED_CONTEXT((#916,#918,#919))
REPRESENTATION_CONTEXT('','3D')
);
#914=(
GEOMETRIC_REPRESENTATION_CONTEXT(3)
GLOBAL_UNCERTAINTY_ASSIGNED_CONTEXT((#910))
GLOBAL_UNIT_ASSIGNED_CONTEXT((#916,#918,#919))
REPRESENTATION_CONTEXT('','3D')
);
#915=(
GEOMETRIC_REPRESENTATION_CONTEXT(3)
GLOBAL_UNCERTAINTY_ASSIGNED_CONTEXT((#911))
GLOBAL_UNIT_ASSIGNED_CONTEXT((#916,#918,#919))
REPRESENTATION_CONTEXT('','3D')
);
#916=(
LENGTH_UNIT()
NAMED_UNIT(*)
SI_UNIT(.MILLI.,.METRE.)
);
#917=(
LENGTH_UNIT()
NAMED_UNIT(*)
SI_UNIT($,.METRE.)
);
#918=(
NAMED_UNIT(*)
PLANE_ANGLE_UNIT()
SI_UNIT($,.RADIAN.)
);
#919=(
NAMED_UNIT(*)
SI_UNIT($,.STERADIAN.)
SOLID_ANGLE_UNIT()
);
#920=SHAPE_DEFINITION_REPRESENTATION(#923,#931);
#921=SHAPE_DEFINITION_REPRESENTATION(#924,#932);
#922=SHAPE_DEFINITION_REPRESENTATION(#925,#933);
#923=PRODUCT_DEFINITION_SHAPE('',$,#935);
#924=PRODUCT_DEFINITION_SHAPE('',$,#936);
#925=PRODUCT_DEFINITION_SHAPE('',$,#937);
#926=PRODUCT_DEFINITION_SHAPE($,$,#26);
#927=PRODUCT_DEFINITION_SHAPE($,$,#27);
#928=PRODUCT_DEFINITION_SHAPE($,$,#28);
#929=PRODUCT_DEFINITION_SHAPE($,$,#29);
#930=PRODUCT_DEFINITION_SHAPE($,$,#30);
#931=SHAPE_REPRESENTATION('',(#560,#606,#607,#608,#609,#610),#912);
#932=SHAPE_REPRESENTATION('',(#561),#913);
#933=SHAPE_REPRESENTATION('',(#599),#914);
#934=PRODUCT_DEFINITION_CONTEXT('part definition',#945,'design');
#935=PRODUCT_DEFINITION('Nema-23-PX57-Coupling',
'Nema-23-PX57-Coupling v1',#938,#934);
#936=PRODUCT_DEFINITION('CouplingHousing-60w-40l-N23',
'CouplingHousing-60w-40l-N23',#939,#934);
#937=PRODUCT_DEFINITION('Stock^Nema-23-PX57-Coupling',
'Stock^Nema-23-PX57-Coupling',#940,#934);
#938=PRODUCT_DEFINITION_FORMATION('',$,#947);
#939=PRODUCT_DEFINITION_FORMATION('',$,#948);
#940=PRODUCT_DEFINITION_FORMATION('',$,#949);
#941=PRODUCT_RELATED_PRODUCT_CATEGORY('Nema-23-PX57-Coupling v1',
'Nema-23-PX57-Coupling v1',(#947));
#942=PRODUCT_RELATED_PRODUCT_CATEGORY('CouplingHousing-60w-40l-N23',
'CouplingHousing-60w-40l-N23',(#948));
#943=PRODUCT_RELATED_PRODUCT_CATEGORY('Stock^Nema-23-PX57-Coupling',
'Stock^Nema-23-PX57-Coupling',(#949));
#944=APPLICATION_PROTOCOL_DEFINITION('international standard',
'automotive_design',2009,#945);
#945=APPLICATION_CONTEXT(
'Core Data for Automotive Mechanical Design Process');
#946=PRODUCT_CONTEXT('part definition',#945,'mechanical');
#947=PRODUCT('Nema-23-PX57-Coupling','Nema-23-PX57-Coupling v1',$,(#946));
#948=PRODUCT('CouplingHousing-60w-40l-N23',
'CouplingHousing-60w-40l-N23',$,(#946));
#949=PRODUCT('Stock^Nema-23-PX57-Coupling',
'Stock^Nema-23-PX57-Coupling',$,(#946));
#950=PRESENTATION_STYLE_ASSIGNMENT((#952));
#951=PRESENTATION_STYLE_ASSIGNMENT((#953));
#952=SURFACE_STYLE_USAGE(.BOTH.,#954);
#953=SURFACE_STYLE_USAGE(.BOTH.,#955);
#954=SURFACE_SIDE_STYLE('',(#956));
#955=SURFACE_SIDE_STYLE('',(#957));
#956=SURFACE_STYLE_FILL_AREA(#958);
#957=SURFACE_STYLE_FILL_AREA(#959);
#958=FILL_AREA_STYLE('Steel - Satin',(#960));
#959=FILL_AREA_STYLE('Opaque(202,209,238)',(#961));
#960=FILL_AREA_STYLE_COLOUR('Steel - Satin',#962);
#961=FILL_AREA_STYLE_COLOUR('Opaque(202,209,238)',#963);
#962=COLOUR_RGB('Steel - Satin',0.627450980392157,0.627450980392157,0.627450980392157);
#963=COLOUR_RGB('Opaque(202,209,238)',0.792156862745098,0.819607843137255,
0.933333333333333);
ENDSEC;
END-ISO-10303-21;
