ISO-10303-21;
HEADER;
/* Generated by software containing ST-Developer
 * from STEP Tools, Inc. (www.steptools.com) 
 */

FILE_DESCRIPTION(
/* description */ (''),
/* implementation_level */ '2;1');

FILE_NAME(
/* name */ '403_MountPlate_x2_4mm_INOX v1.step',
/* time_stamp */ '2026-03-14T09:50:33+01:00',
/* author */ (''),
/* organization */ (''),
/* preprocessor_version */ 'ST-DEVELOPER v20.1',
/* originating_system */ 'Autodesk Translation Framework v14.24.0.0',
/* authorisation */ '');

FILE_SCHEMA (('AUTOMOTIVE_DESIGN { 1 0 10303 214 3 1 1 }'));
ENDSEC;

DATA;
#10=MECHANICAL_DESIGN_GEOMETRIC_PRESENTATION_REPRESENTATION('',(#13),#1451);
#11=SHAPE_REPRESENTATION_RELATIONSHIP('SRR','None',#1458,#12);
#12=ADVANCED_BREP_SHAPE_REPRESENTATION('',(#14),#1450);
#13=STYLED_ITEM('',(#1468),#14);
#14=MANIFOLD_SOLID_BREP('Body1',#847);
#15=CYLINDRICAL_SURFACE('',#919,4.09999999999998);
#16=CYLINDRICAL_SURFACE('',#920,4.09999999999998);
#17=CYLINDRICAL_SURFACE('',#921,4.09999999999998);
#18=CYLINDRICAL_SURFACE('',#922,4.09999999999998);
#19=CYLINDRICAL_SURFACE('',#923,16.);
#20=CYLINDRICAL_SURFACE('',#924,16.);
#21=CYLINDRICAL_SURFACE('',#925,16.);
#22=CYLINDRICAL_SURFACE('',#926,16.);
#23=CYLINDRICAL_SURFACE('',#932,4.);
#24=CYLINDRICAL_SURFACE('',#933,4.);
#25=CYLINDRICAL_SURFACE('',#934,4.);
#26=CYLINDRICAL_SURFACE('',#935,4.);
#27=CYLINDRICAL_SURFACE('',#936,4.);
#28=CYLINDRICAL_SURFACE('',#937,4.);
#29=CYLINDRICAL_SURFACE('',#938,4.);
#30=CYLINDRICAL_SURFACE('',#939,4.);
#31=CYLINDRICAL_SURFACE('',#940,4.);
#32=CYLINDRICAL_SURFACE('',#941,4.);
#33=CYLINDRICAL_SURFACE('',#942,4.);
#34=CYLINDRICAL_SURFACE('',#943,4.);
#35=CYLINDRICAL_SURFACE('',#944,3.09999999999999);
#36=CYLINDRICAL_SURFACE('',#945,3.09999999999999);
#37=CYLINDRICAL_SURFACE('',#946,3.09999999999999);
#38=CYLINDRICAL_SURFACE('',#947,3.09999999999999);
#39=FACE_BOUND('',#98,.T.);
#40=FACE_BOUND('',#99,.T.);
#41=FACE_BOUND('',#100,.T.);
#42=FACE_BOUND('',#101,.T.);
#43=FACE_BOUND('',#102,.T.);
#44=FACE_BOUND('',#103,.T.);
#45=FACE_BOUND('',#104,.T.);
#46=FACE_BOUND('',#105,.T.);
#47=FACE_BOUND('',#107,.T.);
#48=FACE_BOUND('',#108,.T.);
#49=FACE_BOUND('',#109,.T.);
#50=FACE_BOUND('',#110,.T.);
#51=FACE_BOUND('',#111,.T.);
#52=FACE_BOUND('',#112,.T.);
#53=FACE_BOUND('',#113,.T.);
#54=FACE_BOUND('',#114,.T.);
#55=FACE_OUTER_BOUND('',#97,.T.);
#56=FACE_OUTER_BOUND('',#106,.T.);
#57=FACE_OUTER_BOUND('',#115,.T.);
#58=FACE_OUTER_BOUND('',#116,.T.);
#59=FACE_OUTER_BOUND('',#117,.T.);
#60=FACE_OUTER_BOUND('',#118,.T.);
#61=FACE_OUTER_BOUND('',#119,.T.);
#62=FACE_OUTER_BOUND('',#120,.T.);
#63=FACE_OUTER_BOUND('',#121,.T.);
#64=FACE_OUTER_BOUND('',#122,.T.);
#65=FACE_OUTER_BOUND('',#123,.T.);
#66=FACE_OUTER_BOUND('',#124,.T.);
#67=FACE_OUTER_BOUND('',#125,.T.);
#68=FACE_OUTER_BOUND('',#126,.T.);
#69=FACE_OUTER_BOUND('',#127,.T.);
#70=FACE_OUTER_BOUND('',#128,.T.);
#71=FACE_OUTER_BOUND('',#129,.T.);
#72=FACE_OUTER_BOUND('',#130,.T.);
#73=FACE_OUTER_BOUND('',#131,.T.);
#74=FACE_OUTER_BOUND('',#132,.T.);
#75=FACE_OUTER_BOUND('',#133,.T.);
#76=FACE_OUTER_BOUND('',#134,.T.);
#77=FACE_OUTER_BOUND('',#135,.T.);
#78=FACE_OUTER_BOUND('',#136,.T.);
#79=FACE_OUTER_BOUND('',#137,.T.);
#80=FACE_OUTER_BOUND('',#138,.T.);
#81=FACE_OUTER_BOUND('',#139,.T.);
#82=FACE_OUTER_BOUND('',#140,.T.);
#83=FACE_OUTER_BOUND('',#141,.T.);
#84=FACE_OUTER_BOUND('',#142,.T.);
#85=FACE_OUTER_BOUND('',#143,.T.);
#86=FACE_OUTER_BOUND('',#144,.T.);
#87=FACE_OUTER_BOUND('',#145,.T.);
#88=FACE_OUTER_BOUND('',#146,.T.);
#89=FACE_OUTER_BOUND('',#147,.T.);
#90=FACE_OUTER_BOUND('',#148,.T.);
#91=FACE_OUTER_BOUND('',#149,.T.);
#92=FACE_OUTER_BOUND('',#150,.T.);
#93=FACE_OUTER_BOUND('',#151,.T.);
#94=FACE_OUTER_BOUND('',#152,.T.);
#95=FACE_OUTER_BOUND('',#153,.T.);
#96=FACE_OUTER_BOUND('',#154,.T.);
#97=EDGE_LOOP('',(#547,#548,#549,#550,#551,#552,#553,#554,#555,#556,#557,
#558,#559,#560,#561,#562,#563,#564,#565,#566,#567,#568,#569,#570,#571,#572,
#573,#574,#575,#576,#577,#578));
#98=EDGE_LOOP('',(#579));
#99=EDGE_LOOP('',(#580));
#100=EDGE_LOOP('',(#581));
#101=EDGE_LOOP('',(#582));
#102=EDGE_LOOP('',(#583));
#103=EDGE_LOOP('',(#584));
#104=EDGE_LOOP('',(#585));
#105=EDGE_LOOP('',(#586));
#106=EDGE_LOOP('',(#587,#588,#589,#590,#591,#592,#593,#594,#595,#596,#597,
#598,#599,#600,#601,#602,#603,#604,#605,#606,#607,#608,#609,#610,#611,#612,
#613,#614,#615,#616,#617,#618));
#107=EDGE_LOOP('',(#619));
#108=EDGE_LOOP('',(#620));
#109=EDGE_LOOP('',(#621));
#110=EDGE_LOOP('',(#622));
#111=EDGE_LOOP('',(#623));
#112=EDGE_LOOP('',(#624));
#113=EDGE_LOOP('',(#625));
#114=EDGE_LOOP('',(#626));
#115=EDGE_LOOP('',(#627,#628,#629,#630));
#116=EDGE_LOOP('',(#631,#632,#633,#634));
#117=EDGE_LOOP('',(#635,#636,#637,#638));
#118=EDGE_LOOP('',(#639,#640,#641,#642));
#119=EDGE_LOOP('',(#643,#644,#645,#646));
#120=EDGE_LOOP('',(#647,#648,#649,#650));
#121=EDGE_LOOP('',(#651,#652,#653,#654));
#122=EDGE_LOOP('',(#655,#656,#657,#658));
#123=EDGE_LOOP('',(#659,#660,#661,#662));
#124=EDGE_LOOP('',(#663,#664,#665,#666));
#125=EDGE_LOOP('',(#667,#668,#669,#670));
#126=EDGE_LOOP('',(#671,#672,#673,#674));
#127=EDGE_LOOP('',(#675,#676,#677,#678));
#128=EDGE_LOOP('',(#679,#680,#681,#682));
#129=EDGE_LOOP('',(#683,#684,#685,#686));
#130=EDGE_LOOP('',(#687,#688,#689,#690));
#131=EDGE_LOOP('',(#691,#692,#693,#694));
#132=EDGE_LOOP('',(#695,#696,#697,#698));
#133=EDGE_LOOP('',(#699,#700,#701,#702));
#134=EDGE_LOOP('',(#703,#704,#705,#706));
#135=EDGE_LOOP('',(#707,#708,#709,#710));
#136=EDGE_LOOP('',(#711,#712,#713,#714));
#137=EDGE_LOOP('',(#715,#716,#717,#718));
#138=EDGE_LOOP('',(#719,#720,#721,#722));
#139=EDGE_LOOP('',(#723,#724,#725,#726));
#140=EDGE_LOOP('',(#727,#728,#729,#730));
#141=EDGE_LOOP('',(#731,#732,#733,#734));
#142=EDGE_LOOP('',(#735,#736,#737,#738));
#143=EDGE_LOOP('',(#739,#740,#741,#742));
#144=EDGE_LOOP('',(#743,#744,#745,#746));
#145=EDGE_LOOP('',(#747,#748,#749,#750));
#146=EDGE_LOOP('',(#751,#752,#753,#754));
#147=EDGE_LOOP('',(#755,#756,#757,#758));
#148=EDGE_LOOP('',(#759,#760,#761,#762));
#149=EDGE_LOOP('',(#763,#764,#765,#766));
#150=EDGE_LOOP('',(#767,#768,#769,#770));
#151=EDGE_LOOP('',(#771,#772,#773,#774));
#152=EDGE_LOOP('',(#775,#776,#777,#778));
#153=EDGE_LOOP('',(#779,#780,#781,#782));
#154=EDGE_LOOP('',(#783,#784,#785,#786));
#155=CIRCLE('',#862,16.);
#156=CIRCLE('',#863,4.);
#157=CIRCLE('',#864,4.);
#158=CIRCLE('',#865,4.);
#159=CIRCLE('',#866,4.);
#160=CIRCLE('',#867,16.);
#161=CIRCLE('',#868,4.);
#162=CIRCLE('',#869,4.);
#163=CIRCLE('',#870,4.);
#164=CIRCLE('',#871,4.);
#165=CIRCLE('',#872,16.);
#166=CIRCLE('',#873,4.);
#167=CIRCLE('',#874,4.);
#168=CIRCLE('',#875,4.);
#169=CIRCLE('',#876,4.);
#170=CIRCLE('',#877,16.);
#171=CIRCLE('',#878,3.09999999999999);
#172=CIRCLE('',#879,3.09999999999999);
#173=CIRCLE('',#880,3.09999999999999);
#174=CIRCLE('',#881,3.09999999999999);
#175=CIRCLE('',#882,4.09999999999998);
#176=CIRCLE('',#883,4.09999999999998);
#177=CIRCLE('',#884,4.09999999999998);
#178=CIRCLE('',#885,4.09999999999998);
#179=CIRCLE('',#887,16.);
#180=CIRCLE('',#888,4.);
#181=CIRCLE('',#889,4.);
#182=CIRCLE('',#890,4.);
#183=CIRCLE('',#891,4.);
#184=CIRCLE('',#892,16.);
#185=CIRCLE('',#893,4.);
#186=CIRCLE('',#894,4.);
#187=CIRCLE('',#895,4.);
#188=CIRCLE('',#896,4.);
#189=CIRCLE('',#897,16.);
#190=CIRCLE('',#898,4.);
#191=CIRCLE('',#899,4.);
#192=CIRCLE('',#900,4.);
#193=CIRCLE('',#901,4.);
#194=CIRCLE('',#902,16.);
#195=CIRCLE('',#903,4.09999999999998);
#196=CIRCLE('',#904,4.09999999999998);
#197=CIRCLE('',#905,4.09999999999998);
#198=CIRCLE('',#906,4.09999999999998);
#199=CIRCLE('',#907,3.09999999999999);
#200=CIRCLE('',#908,3.09999999999999);
#201=CIRCLE('',#909,3.09999999999999);
#202=CIRCLE('',#910,3.09999999999999);
#203=LINE('',#1209,#275);
#204=LINE('',#1211,#276);
#205=LINE('',#1213,#277);
#206=LINE('',#1217,#278);
#207=LINE('',#1223,#279);
#208=LINE('',#1229,#280);
#209=LINE('',#1233,#281);
#210=LINE('',#1237,#282);
#211=LINE('',#1241,#283);
#212=LINE('',#1245,#284);
#213=LINE('',#1249,#285);
#214=LINE('',#1253,#286);
#215=LINE('',#1259,#287);
#216=LINE('',#1265,#288);
#217=LINE('',#1269,#289);
#218=LINE('',#1270,#290);
#219=LINE('',#1290,#291);
#220=LINE('',#1292,#292);
#221=LINE('',#1294,#293);
#222=LINE('',#1296,#294);
#223=LINE('',#1300,#295);
#224=LINE('',#1306,#296);
#225=LINE('',#1312,#297);
#226=LINE('',#1316,#298);
#227=LINE('',#1320,#299);
#228=LINE('',#1324,#300);
#229=LINE('',#1328,#301);
#230=LINE('',#1332,#302);
#231=LINE('',#1336,#303);
#232=LINE('',#1342,#304);
#233=LINE('',#1348,#305);
#234=LINE('',#1351,#306);
#235=LINE('',#1369,#307);
#236=LINE('',#1370,#308);
#237=LINE('',#1372,#309);
#238=LINE('',#1373,#310);
#239=LINE('',#1375,#311);
#240=LINE('',#1376,#312);
#241=LINE('',#1378,#313);
#242=LINE('',#1379,#314);
#243=LINE('',#1381,#315);
#244=LINE('',#1382,#316);
#245=LINE('',#1384,#317);
#246=LINE('',#1385,#318);
#247=LINE('',#1387,#319);
#248=LINE('',#1388,#320);
#249=LINE('',#1390,#321);
#250=LINE('',#1391,#322);
#251=LINE('',#1393,#323);
#252=LINE('',#1395,#324);
#253=LINE('',#1397,#325);
#254=LINE('',#1399,#326);
#255=LINE('',#1405,#327);
#256=LINE('',#1406,#328);
#257=LINE('',#1408,#329);
#258=LINE('',#1409,#330);
#259=LINE('',#1411,#331);
#260=LINE('',#1412,#332);
#261=LINE('',#1414,#333);
#262=LINE('',#1415,#334);
#263=LINE('',#1417,#335);
#264=LINE('',#1418,#336);
#265=LINE('',#1420,#337);
#266=LINE('',#1423,#338);
#267=LINE('',#1426,#339);
#268=LINE('',#1429,#340);
#269=LINE('',#1436,#341);
#270=LINE('',#1438,#342);
#271=LINE('',#1440,#343);
#272=LINE('',#1442,#344);
#273=LINE('',#1444,#345);
#274=LINE('',#1446,#346);
#275=VECTOR('',#955,169.37258300203);
#276=VECTOR('',#956,7.49907839028622);
#277=VECTOR('',#957,54.0110593165642);
#278=VECTOR('',#960,7.99999999999994);
#279=VECTOR('',#965,356.);
#280=VECTOR('',#970,7.99999999999997);
#281=VECTOR('',#973,52.3542050670715);
#282=VECTOR('',#976,4.18536989130167);
#283=VECTOR('',#979,166.058874503045);
#284=VECTOR('',#982,4.18536989130153);
#285=VECTOR('',#985,52.3542050670716);
#286=VECTOR('',#988,8.00000000000001);
#287=VECTOR('',#993,356.);
#288=VECTOR('',#998,7.9999999999999);
#289=VECTOR('',#1001,54.0110593165639);
#290=VECTOR('',#1002,7.49907839028628);
#291=VECTOR('',#1021,7.49907839028632);
#292=VECTOR('',#1022,169.37258300203);
#293=VECTOR('',#1023,7.49907839028623);
#294=VECTOR('',#1024,54.0110593165639);
#295=VECTOR('',#1027,7.9999999999999);
#296=VECTOR('',#1032,356.);
#297=VECTOR('',#1037,8.00000000000001);
#298=VECTOR('',#1040,52.3542050670716);
#299=VECTOR('',#1043,4.18536989130155);
#300=VECTOR('',#1046,166.058874503045);
#301=VECTOR('',#1049,4.18536989130161);
#302=VECTOR('',#1052,52.3542050670715);
#303=VECTOR('',#1055,7.99999999999997);
#304=VECTOR('',#1060,356.);
#305=VECTOR('',#1065,7.99999999999994);
#306=VECTOR('',#1068,54.0110593165641);
#307=VECTOR('',#1087,4.);
#308=VECTOR('',#1088,4.);
#309=VECTOR('',#1091,4.);
#310=VECTOR('',#1092,4.);
#311=VECTOR('',#1095,4.);
#312=VECTOR('',#1096,4.);
#313=VECTOR('',#1099,4.);
#314=VECTOR('',#1100,4.);
#315=VECTOR('',#1103,4.);
#316=VECTOR('',#1104,4.);
#317=VECTOR('',#1107,4.);
#318=VECTOR('',#1108,4.);
#319=VECTOR('',#1111,4.);
#320=VECTOR('',#1112,4.);
#321=VECTOR('',#1115,4.);
#322=VECTOR('',#1116,4.);
#323=VECTOR('',#1119,4.09999999999998);
#324=VECTOR('',#1122,4.09999999999998);
#325=VECTOR('',#1125,4.09999999999998);
#326=VECTOR('',#1128,4.09999999999998);
#327=VECTOR('',#1139,4.);
#328=VECTOR('',#1140,4.);
#329=VECTOR('',#1143,4.);
#330=VECTOR('',#1144,4.);
#331=VECTOR('',#1147,4.);
#332=VECTOR('',#1148,4.);
#333=VECTOR('',#1151,4.);
#334=VECTOR('',#1152,4.);
#335=VECTOR('',#1155,4.);
#336=VECTOR('',#1156,4.);
#337=VECTOR('',#1159,4.);
#338=VECTOR('',#1164,4.);
#339=VECTOR('',#1169,4.);
#340=VECTOR('',#1174,4.);
#341=VECTOR('',#1187,3.09999999999999);
#342=VECTOR('',#1190,3.09999999999999);
#343=VECTOR('',#1193,3.09999999999999);
#344=VECTOR('',#1196,3.09999999999999);
#345=VECTOR('',#1199,4.);
#346=VECTOR('',#1202,4.);
#347=VERTEX_POINT('',#1207);
#348=VERTEX_POINT('',#1208);
#349=VERTEX_POINT('',#1210);
#350=VERTEX_POINT('',#1212);
#351=VERTEX_POINT('',#1214);
#352=VERTEX_POINT('',#1216);
#353=VERTEX_POINT('',#1218);
#354=VERTEX_POINT('',#1220);
#355=VERTEX_POINT('',#1222);
#356=VERTEX_POINT('',#1224);
#357=VERTEX_POINT('',#1226);
#358=VERTEX_POINT('',#1228);
#359=VERTEX_POINT('',#1230);
#360=VERTEX_POINT('',#1232);
#361=VERTEX_POINT('',#1234);
#362=VERTEX_POINT('',#1236);
#363=VERTEX_POINT('',#1238);
#364=VERTEX_POINT('',#1240);
#365=VERTEX_POINT('',#1242);
#366=VERTEX_POINT('',#1244);
#367=VERTEX_POINT('',#1246);
#368=VERTEX_POINT('',#1248);
#369=VERTEX_POINT('',#1250);
#370=VERTEX_POINT('',#1252);
#371=VERTEX_POINT('',#1254);
#372=VERTEX_POINT('',#1256);
#373=VERTEX_POINT('',#1258);
#374=VERTEX_POINT('',#1260);
#375=VERTEX_POINT('',#1262);
#376=VERTEX_POINT('',#1264);
#377=VERTEX_POINT('',#1266);
#378=VERTEX_POINT('',#1268);
#379=VERTEX_POINT('',#1271);
#380=VERTEX_POINT('',#1273);
#381=VERTEX_POINT('',#1275);
#382=VERTEX_POINT('',#1277);
#383=VERTEX_POINT('',#1279);
#384=VERTEX_POINT('',#1281);
#385=VERTEX_POINT('',#1283);
#386=VERTEX_POINT('',#1285);
#387=VERTEX_POINT('',#1288);
#388=VERTEX_POINT('',#1289);
#389=VERTEX_POINT('',#1291);
#390=VERTEX_POINT('',#1293);
#391=VERTEX_POINT('',#1295);
#392=VERTEX_POINT('',#1297);
#393=VERTEX_POINT('',#1299);
#394=VERTEX_POINT('',#1301);
#395=VERTEX_POINT('',#1303);
#396=VERTEX_POINT('',#1305);
#397=VERTEX_POINT('',#1307);
#398=VERTEX_POINT('',#1309);
#399=VERTEX_POINT('',#1311);
#400=VERTEX_POINT('',#1313);
#401=VERTEX_POINT('',#1315);
#402=VERTEX_POINT('',#1317);
#403=VERTEX_POINT('',#1319);
#404=VERTEX_POINT('',#1321);
#405=VERTEX_POINT('',#1323);
#406=VERTEX_POINT('',#1325);
#407=VERTEX_POINT('',#1327);
#408=VERTEX_POINT('',#1329);
#409=VERTEX_POINT('',#1331);
#410=VERTEX_POINT('',#1333);
#411=VERTEX_POINT('',#1335);
#412=VERTEX_POINT('',#1337);
#413=VERTEX_POINT('',#1339);
#414=VERTEX_POINT('',#1341);
#415=VERTEX_POINT('',#1343);
#416=VERTEX_POINT('',#1345);
#417=VERTEX_POINT('',#1347);
#418=VERTEX_POINT('',#1349);
#419=VERTEX_POINT('',#1352);
#420=VERTEX_POINT('',#1354);
#421=VERTEX_POINT('',#1356);
#422=VERTEX_POINT('',#1358);
#423=VERTEX_POINT('',#1360);
#424=VERTEX_POINT('',#1362);
#425=VERTEX_POINT('',#1364);
#426=VERTEX_POINT('',#1366);
#427=EDGE_CURVE('',#347,#348,#203,.T.);
#428=EDGE_CURVE('',#348,#349,#204,.T.);
#429=EDGE_CURVE('',#349,#350,#205,.T.);
#430=EDGE_CURVE('',#350,#351,#155,.T.);
#431=EDGE_CURVE('',#351,#352,#206,.T.);
#432=EDGE_CURVE('',#352,#353,#156,.T.);
#433=EDGE_CURVE('',#353,#354,#157,.F.);
#434=EDGE_CURVE('',#355,#354,#207,.T.);
#435=EDGE_CURVE('',#355,#356,#158,.F.);
#436=EDGE_CURVE('',#356,#357,#159,.T.);
#437=EDGE_CURVE('',#357,#358,#208,.T.);
#438=EDGE_CURVE('',#358,#359,#160,.T.);
#439=EDGE_CURVE('',#359,#360,#209,.T.);
#440=EDGE_CURVE('',#360,#361,#161,.T.);
#441=EDGE_CURVE('',#362,#361,#210,.T.);
#442=EDGE_CURVE('',#362,#363,#162,.F.);
#443=EDGE_CURVE('',#364,#363,#211,.T.);
#444=EDGE_CURVE('',#364,#365,#163,.F.);
#445=EDGE_CURVE('',#366,#365,#212,.T.);
#446=EDGE_CURVE('',#366,#367,#164,.T.);
#447=EDGE_CURVE('',#367,#368,#213,.T.);
#448=EDGE_CURVE('',#368,#369,#165,.T.);
#449=EDGE_CURVE('',#369,#370,#214,.T.);
#450=EDGE_CURVE('',#370,#371,#166,.T.);
#451=EDGE_CURVE('',#371,#372,#167,.F.);
#452=EDGE_CURVE('',#372,#373,#215,.T.);
#453=EDGE_CURVE('',#373,#374,#168,.F.);
#454=EDGE_CURVE('',#374,#375,#169,.T.);
#455=EDGE_CURVE('',#375,#376,#216,.T.);
#456=EDGE_CURVE('',#376,#377,#170,.T.);
#457=EDGE_CURVE('',#377,#378,#217,.T.);
#458=EDGE_CURVE('',#378,#347,#218,.T.);
#459=EDGE_CURVE('',#379,#379,#171,.T.);
#460=EDGE_CURVE('',#380,#380,#172,.T.);
#461=EDGE_CURVE('',#381,#381,#173,.T.);
#462=EDGE_CURVE('',#382,#382,#174,.T.);
#463=EDGE_CURVE('',#383,#383,#175,.T.);
#464=EDGE_CURVE('',#384,#384,#176,.T.);
#465=EDGE_CURVE('',#385,#385,#177,.T.);
#466=EDGE_CURVE('',#386,#386,#178,.T.);
#467=EDGE_CURVE('',#387,#388,#219,.T.);
#468=EDGE_CURVE('',#388,#389,#220,.T.);
#469=EDGE_CURVE('',#389,#390,#221,.T.);
#470=EDGE_CURVE('',#391,#390,#222,.T.);
#471=EDGE_CURVE('',#391,#392,#179,.F.);
#472=EDGE_CURVE('',#393,#392,#223,.T.);
#473=EDGE_CURVE('',#393,#394,#180,.F.);
#474=EDGE_CURVE('',#394,#395,#181,.T.);
#475=EDGE_CURVE('',#395,#396,#224,.T.);
#476=EDGE_CURVE('',#396,#397,#182,.T.);
#477=EDGE_CURVE('',#397,#398,#183,.F.);
#478=EDGE_CURVE('',#399,#398,#225,.T.);
#479=EDGE_CURVE('',#399,#400,#184,.F.);
#480=EDGE_CURVE('',#401,#400,#226,.T.);
#481=EDGE_CURVE('',#401,#402,#185,.F.);
#482=EDGE_CURVE('',#403,#402,#227,.T.);
#483=EDGE_CURVE('',#403,#404,#186,.T.);
#484=EDGE_CURVE('',#405,#404,#228,.T.);
#485=EDGE_CURVE('',#405,#406,#187,.T.);
#486=EDGE_CURVE('',#407,#406,#229,.T.);
#487=EDGE_CURVE('',#407,#408,#188,.F.);
#488=EDGE_CURVE('',#409,#408,#230,.T.);
#489=EDGE_CURVE('',#409,#410,#189,.F.);
#490=EDGE_CURVE('',#411,#410,#231,.T.);
#491=EDGE_CURVE('',#411,#412,#190,.F.);
#492=EDGE_CURVE('',#412,#413,#191,.T.);
#493=EDGE_CURVE('',#414,#413,#232,.T.);
#494=EDGE_CURVE('',#414,#415,#192,.T.);
#495=EDGE_CURVE('',#415,#416,#193,.F.);
#496=EDGE_CURVE('',#417,#416,#233,.T.);
#497=EDGE_CURVE('',#417,#418,#194,.F.);
#498=EDGE_CURVE('',#387,#418,#234,.T.);
#499=EDGE_CURVE('',#419,#419,#195,.T.);
#500=EDGE_CURVE('',#420,#420,#196,.T.);
#501=EDGE_CURVE('',#421,#421,#197,.T.);
#502=EDGE_CURVE('',#422,#422,#198,.T.);
#503=EDGE_CURVE('',#423,#423,#199,.T.);
#504=EDGE_CURVE('',#424,#424,#200,.T.);
#505=EDGE_CURVE('',#425,#425,#201,.T.);
#506=EDGE_CURVE('',#426,#426,#202,.T.);
#507=EDGE_CURVE('',#387,#349,#235,.T.);
#508=EDGE_CURVE('',#418,#350,#236,.F.);
#509=EDGE_CURVE('',#378,#390,#237,.T.);
#510=EDGE_CURVE('',#377,#391,#238,.T.);
#511=EDGE_CURVE('',#375,#393,#239,.F.);
#512=EDGE_CURVE('',#392,#376,#240,.F.);
#513=EDGE_CURVE('',#398,#370,#241,.F.);
#514=EDGE_CURVE('',#369,#399,#242,.T.);
#515=EDGE_CURVE('',#408,#360,#243,.T.);
#516=EDGE_CURVE('',#359,#409,#244,.T.);
#517=EDGE_CURVE('',#416,#352,#245,.T.);
#518=EDGE_CURVE('',#351,#417,#246,.T.);
#519=EDGE_CURVE('',#357,#411,#247,.T.);
#520=EDGE_CURVE('',#410,#358,#248,.F.);
#521=EDGE_CURVE('',#367,#401,#249,.T.);
#522=EDGE_CURVE('',#400,#368,#250,.F.);
#523=EDGE_CURVE('',#384,#419,#251,.T.);
#524=EDGE_CURVE('',#385,#420,#252,.T.);
#525=EDGE_CURVE('',#383,#421,#253,.T.);
#526=EDGE_CURVE('',#386,#422,#254,.T.);
#527=EDGE_CURVE('',#354,#414,#255,.T.);
#528=EDGE_CURVE('',#413,#355,#256,.F.);
#529=EDGE_CURVE('',#361,#407,#257,.F.);
#530=EDGE_CURVE('',#406,#362,#258,.F.);
#531=EDGE_CURVE('',#402,#366,#259,.F.);
#532=EDGE_CURVE('',#365,#403,#260,.T.);
#533=EDGE_CURVE('',#404,#364,#261,.F.);
#534=EDGE_CURVE('',#363,#405,#262,.T.);
#535=EDGE_CURVE('',#372,#396,#263,.T.);
#536=EDGE_CURVE('',#395,#373,#264,.F.);
#537=EDGE_CURVE('',#371,#397,#265,.T.);
#538=EDGE_CURVE('',#394,#374,#266,.T.);
#539=EDGE_CURVE('',#353,#415,#267,.F.);
#540=EDGE_CURVE('',#356,#412,#268,.T.);
#541=EDGE_CURVE('',#423,#382,#269,.T.);
#542=EDGE_CURVE('',#424,#381,#270,.T.);
#543=EDGE_CURVE('',#425,#380,#271,.T.);
#544=EDGE_CURVE('',#426,#379,#272,.T.);
#545=EDGE_CURVE('',#348,#388,#273,.T.);
#546=EDGE_CURVE('',#347,#389,#274,.T.);
#547=ORIENTED_EDGE('',*,*,#427,.T.);
#548=ORIENTED_EDGE('',*,*,#428,.T.);
#549=ORIENTED_EDGE('',*,*,#429,.T.);
#550=ORIENTED_EDGE('',*,*,#430,.T.);
#551=ORIENTED_EDGE('',*,*,#431,.T.);
#552=ORIENTED_EDGE('',*,*,#432,.T.);
#553=ORIENTED_EDGE('',*,*,#433,.T.);
#554=ORIENTED_EDGE('',*,*,#434,.F.);
#555=ORIENTED_EDGE('',*,*,#435,.T.);
#556=ORIENTED_EDGE('',*,*,#436,.T.);
#557=ORIENTED_EDGE('',*,*,#437,.T.);
#558=ORIENTED_EDGE('',*,*,#438,.T.);
#559=ORIENTED_EDGE('',*,*,#439,.T.);
#560=ORIENTED_EDGE('',*,*,#440,.T.);
#561=ORIENTED_EDGE('',*,*,#441,.F.);
#562=ORIENTED_EDGE('',*,*,#442,.T.);
#563=ORIENTED_EDGE('',*,*,#443,.F.);
#564=ORIENTED_EDGE('',*,*,#444,.T.);
#565=ORIENTED_EDGE('',*,*,#445,.F.);
#566=ORIENTED_EDGE('',*,*,#446,.T.);
#567=ORIENTED_EDGE('',*,*,#447,.T.);
#568=ORIENTED_EDGE('',*,*,#448,.T.);
#569=ORIENTED_EDGE('',*,*,#449,.T.);
#570=ORIENTED_EDGE('',*,*,#450,.T.);
#571=ORIENTED_EDGE('',*,*,#451,.T.);
#572=ORIENTED_EDGE('',*,*,#452,.T.);
#573=ORIENTED_EDGE('',*,*,#453,.T.);
#574=ORIENTED_EDGE('',*,*,#454,.T.);
#575=ORIENTED_EDGE('',*,*,#455,.T.);
#576=ORIENTED_EDGE('',*,*,#456,.T.);
#577=ORIENTED_EDGE('',*,*,#457,.T.);
#578=ORIENTED_EDGE('',*,*,#458,.T.);
#579=ORIENTED_EDGE('',*,*,#459,.F.);
#580=ORIENTED_EDGE('',*,*,#460,.F.);
#581=ORIENTED_EDGE('',*,*,#461,.F.);
#582=ORIENTED_EDGE('',*,*,#462,.F.);
#583=ORIENTED_EDGE('',*,*,#463,.F.);
#584=ORIENTED_EDGE('',*,*,#464,.F.);
#585=ORIENTED_EDGE('',*,*,#465,.F.);
#586=ORIENTED_EDGE('',*,*,#466,.F.);
#587=ORIENTED_EDGE('',*,*,#467,.T.);
#588=ORIENTED_EDGE('',*,*,#468,.T.);
#589=ORIENTED_EDGE('',*,*,#469,.T.);
#590=ORIENTED_EDGE('',*,*,#470,.F.);
#591=ORIENTED_EDGE('',*,*,#471,.T.);
#592=ORIENTED_EDGE('',*,*,#472,.F.);
#593=ORIENTED_EDGE('',*,*,#473,.T.);
#594=ORIENTED_EDGE('',*,*,#474,.T.);
#595=ORIENTED_EDGE('',*,*,#475,.T.);
#596=ORIENTED_EDGE('',*,*,#476,.T.);
#597=ORIENTED_EDGE('',*,*,#477,.T.);
#598=ORIENTED_EDGE('',*,*,#478,.F.);
#599=ORIENTED_EDGE('',*,*,#479,.T.);
#600=ORIENTED_EDGE('',*,*,#480,.F.);
#601=ORIENTED_EDGE('',*,*,#481,.T.);
#602=ORIENTED_EDGE('',*,*,#482,.F.);
#603=ORIENTED_EDGE('',*,*,#483,.T.);
#604=ORIENTED_EDGE('',*,*,#484,.F.);
#605=ORIENTED_EDGE('',*,*,#485,.T.);
#606=ORIENTED_EDGE('',*,*,#486,.F.);
#607=ORIENTED_EDGE('',*,*,#487,.T.);
#608=ORIENTED_EDGE('',*,*,#488,.F.);
#609=ORIENTED_EDGE('',*,*,#489,.T.);
#610=ORIENTED_EDGE('',*,*,#490,.F.);
#611=ORIENTED_EDGE('',*,*,#491,.T.);
#612=ORIENTED_EDGE('',*,*,#492,.T.);
#613=ORIENTED_EDGE('',*,*,#493,.F.);
#614=ORIENTED_EDGE('',*,*,#494,.T.);
#615=ORIENTED_EDGE('',*,*,#495,.T.);
#616=ORIENTED_EDGE('',*,*,#496,.F.);
#617=ORIENTED_EDGE('',*,*,#497,.T.);
#618=ORIENTED_EDGE('',*,*,#498,.F.);
#619=ORIENTED_EDGE('',*,*,#499,.T.);
#620=ORIENTED_EDGE('',*,*,#500,.T.);
#621=ORIENTED_EDGE('',*,*,#501,.T.);
#622=ORIENTED_EDGE('',*,*,#502,.T.);
#623=ORIENTED_EDGE('',*,*,#503,.T.);
#624=ORIENTED_EDGE('',*,*,#504,.T.);
#625=ORIENTED_EDGE('',*,*,#505,.T.);
#626=ORIENTED_EDGE('',*,*,#506,.T.);
#627=ORIENTED_EDGE('',*,*,#507,.F.);
#628=ORIENTED_EDGE('',*,*,#498,.T.);
#629=ORIENTED_EDGE('',*,*,#508,.T.);
#630=ORIENTED_EDGE('',*,*,#429,.F.);
#631=ORIENTED_EDGE('',*,*,#509,.F.);
#632=ORIENTED_EDGE('',*,*,#457,.F.);
#633=ORIENTED_EDGE('',*,*,#510,.T.);
#634=ORIENTED_EDGE('',*,*,#470,.T.);
#635=ORIENTED_EDGE('',*,*,#455,.F.);
#636=ORIENTED_EDGE('',*,*,#511,.T.);
#637=ORIENTED_EDGE('',*,*,#472,.T.);
#638=ORIENTED_EDGE('',*,*,#512,.T.);
#639=ORIENTED_EDGE('',*,*,#478,.T.);
#640=ORIENTED_EDGE('',*,*,#513,.T.);
#641=ORIENTED_EDGE('',*,*,#449,.F.);
#642=ORIENTED_EDGE('',*,*,#514,.T.);
#643=ORIENTED_EDGE('',*,*,#488,.T.);
#644=ORIENTED_EDGE('',*,*,#515,.T.);
#645=ORIENTED_EDGE('',*,*,#439,.F.);
#646=ORIENTED_EDGE('',*,*,#516,.T.);
#647=ORIENTED_EDGE('',*,*,#496,.T.);
#648=ORIENTED_EDGE('',*,*,#517,.T.);
#649=ORIENTED_EDGE('',*,*,#431,.F.);
#650=ORIENTED_EDGE('',*,*,#518,.T.);
#651=ORIENTED_EDGE('',*,*,#437,.F.);
#652=ORIENTED_EDGE('',*,*,#519,.T.);
#653=ORIENTED_EDGE('',*,*,#490,.T.);
#654=ORIENTED_EDGE('',*,*,#520,.T.);
#655=ORIENTED_EDGE('',*,*,#447,.F.);
#656=ORIENTED_EDGE('',*,*,#521,.T.);
#657=ORIENTED_EDGE('',*,*,#480,.T.);
#658=ORIENTED_EDGE('',*,*,#522,.T.);
#659=ORIENTED_EDGE('',*,*,#464,.T.);
#660=ORIENTED_EDGE('',*,*,#523,.T.);
#661=ORIENTED_EDGE('',*,*,#499,.F.);
#662=ORIENTED_EDGE('',*,*,#523,.F.);
#663=ORIENTED_EDGE('',*,*,#465,.T.);
#664=ORIENTED_EDGE('',*,*,#524,.T.);
#665=ORIENTED_EDGE('',*,*,#500,.F.);
#666=ORIENTED_EDGE('',*,*,#524,.F.);
#667=ORIENTED_EDGE('',*,*,#463,.T.);
#668=ORIENTED_EDGE('',*,*,#525,.T.);
#669=ORIENTED_EDGE('',*,*,#501,.F.);
#670=ORIENTED_EDGE('',*,*,#525,.F.);
#671=ORIENTED_EDGE('',*,*,#466,.T.);
#672=ORIENTED_EDGE('',*,*,#526,.T.);
#673=ORIENTED_EDGE('',*,*,#502,.F.);
#674=ORIENTED_EDGE('',*,*,#526,.F.);
#675=ORIENTED_EDGE('',*,*,#448,.F.);
#676=ORIENTED_EDGE('',*,*,#522,.F.);
#677=ORIENTED_EDGE('',*,*,#479,.F.);
#678=ORIENTED_EDGE('',*,*,#514,.F.);
#679=ORIENTED_EDGE('',*,*,#438,.F.);
#680=ORIENTED_EDGE('',*,*,#520,.F.);
#681=ORIENTED_EDGE('',*,*,#489,.F.);
#682=ORIENTED_EDGE('',*,*,#516,.F.);
#683=ORIENTED_EDGE('',*,*,#456,.F.);
#684=ORIENTED_EDGE('',*,*,#512,.F.);
#685=ORIENTED_EDGE('',*,*,#471,.F.);
#686=ORIENTED_EDGE('',*,*,#510,.F.);
#687=ORIENTED_EDGE('',*,*,#430,.F.);
#688=ORIENTED_EDGE('',*,*,#508,.F.);
#689=ORIENTED_EDGE('',*,*,#497,.F.);
#690=ORIENTED_EDGE('',*,*,#518,.F.);
#691=ORIENTED_EDGE('',*,*,#434,.T.);
#692=ORIENTED_EDGE('',*,*,#527,.T.);
#693=ORIENTED_EDGE('',*,*,#493,.T.);
#694=ORIENTED_EDGE('',*,*,#528,.T.);
#695=ORIENTED_EDGE('',*,*,#441,.T.);
#696=ORIENTED_EDGE('',*,*,#529,.T.);
#697=ORIENTED_EDGE('',*,*,#486,.T.);
#698=ORIENTED_EDGE('',*,*,#530,.T.);
#699=ORIENTED_EDGE('',*,*,#482,.T.);
#700=ORIENTED_EDGE('',*,*,#531,.T.);
#701=ORIENTED_EDGE('',*,*,#445,.T.);
#702=ORIENTED_EDGE('',*,*,#532,.T.);
#703=ORIENTED_EDGE('',*,*,#484,.T.);
#704=ORIENTED_EDGE('',*,*,#533,.T.);
#705=ORIENTED_EDGE('',*,*,#443,.T.);
#706=ORIENTED_EDGE('',*,*,#534,.T.);
#707=ORIENTED_EDGE('',*,*,#452,.F.);
#708=ORIENTED_EDGE('',*,*,#535,.T.);
#709=ORIENTED_EDGE('',*,*,#475,.F.);
#710=ORIENTED_EDGE('',*,*,#536,.T.);
#711=ORIENTED_EDGE('',*,*,#537,.F.);
#712=ORIENTED_EDGE('',*,*,#450,.F.);
#713=ORIENTED_EDGE('',*,*,#513,.F.);
#714=ORIENTED_EDGE('',*,*,#477,.F.);
#715=ORIENTED_EDGE('',*,*,#451,.F.);
#716=ORIENTED_EDGE('',*,*,#537,.T.);
#717=ORIENTED_EDGE('',*,*,#476,.F.);
#718=ORIENTED_EDGE('',*,*,#535,.F.);
#719=ORIENTED_EDGE('',*,*,#511,.F.);
#720=ORIENTED_EDGE('',*,*,#454,.F.);
#721=ORIENTED_EDGE('',*,*,#538,.F.);
#722=ORIENTED_EDGE('',*,*,#473,.F.);
#723=ORIENTED_EDGE('',*,*,#453,.F.);
#724=ORIENTED_EDGE('',*,*,#536,.F.);
#725=ORIENTED_EDGE('',*,*,#474,.F.);
#726=ORIENTED_EDGE('',*,*,#538,.T.);
#727=ORIENTED_EDGE('',*,*,#539,.F.);
#728=ORIENTED_EDGE('',*,*,#432,.F.);
#729=ORIENTED_EDGE('',*,*,#517,.F.);
#730=ORIENTED_EDGE('',*,*,#495,.F.);
#731=ORIENTED_EDGE('',*,*,#433,.F.);
#732=ORIENTED_EDGE('',*,*,#539,.T.);
#733=ORIENTED_EDGE('',*,*,#494,.F.);
#734=ORIENTED_EDGE('',*,*,#527,.F.);
#735=ORIENTED_EDGE('',*,*,#540,.F.);
#736=ORIENTED_EDGE('',*,*,#435,.F.);
#737=ORIENTED_EDGE('',*,*,#528,.F.);
#738=ORIENTED_EDGE('',*,*,#492,.F.);
#739=ORIENTED_EDGE('',*,*,#436,.F.);
#740=ORIENTED_EDGE('',*,*,#540,.T.);
#741=ORIENTED_EDGE('',*,*,#491,.F.);
#742=ORIENTED_EDGE('',*,*,#519,.F.);
#743=ORIENTED_EDGE('',*,*,#446,.F.);
#744=ORIENTED_EDGE('',*,*,#531,.F.);
#745=ORIENTED_EDGE('',*,*,#481,.F.);
#746=ORIENTED_EDGE('',*,*,#521,.F.);
#747=ORIENTED_EDGE('',*,*,#444,.F.);
#748=ORIENTED_EDGE('',*,*,#533,.F.);
#749=ORIENTED_EDGE('',*,*,#483,.F.);
#750=ORIENTED_EDGE('',*,*,#532,.F.);
#751=ORIENTED_EDGE('',*,*,#487,.F.);
#752=ORIENTED_EDGE('',*,*,#529,.F.);
#753=ORIENTED_EDGE('',*,*,#440,.F.);
#754=ORIENTED_EDGE('',*,*,#515,.F.);
#755=ORIENTED_EDGE('',*,*,#442,.F.);
#756=ORIENTED_EDGE('',*,*,#530,.F.);
#757=ORIENTED_EDGE('',*,*,#485,.F.);
#758=ORIENTED_EDGE('',*,*,#534,.F.);
#759=ORIENTED_EDGE('',*,*,#503,.F.);
#760=ORIENTED_EDGE('',*,*,#541,.T.);
#761=ORIENTED_EDGE('',*,*,#462,.T.);
#762=ORIENTED_EDGE('',*,*,#541,.F.);
#763=ORIENTED_EDGE('',*,*,#504,.F.);
#764=ORIENTED_EDGE('',*,*,#542,.T.);
#765=ORIENTED_EDGE('',*,*,#461,.T.);
#766=ORIENTED_EDGE('',*,*,#542,.F.);
#767=ORIENTED_EDGE('',*,*,#505,.F.);
#768=ORIENTED_EDGE('',*,*,#543,.T.);
#769=ORIENTED_EDGE('',*,*,#460,.T.);
#770=ORIENTED_EDGE('',*,*,#543,.F.);
#771=ORIENTED_EDGE('',*,*,#506,.F.);
#772=ORIENTED_EDGE('',*,*,#544,.T.);
#773=ORIENTED_EDGE('',*,*,#459,.T.);
#774=ORIENTED_EDGE('',*,*,#544,.F.);
#775=ORIENTED_EDGE('',*,*,#545,.T.);
#776=ORIENTED_EDGE('',*,*,#467,.F.);
#777=ORIENTED_EDGE('',*,*,#507,.T.);
#778=ORIENTED_EDGE('',*,*,#428,.F.);
#779=ORIENTED_EDGE('',*,*,#546,.T.);
#780=ORIENTED_EDGE('',*,*,#468,.F.);
#781=ORIENTED_EDGE('',*,*,#545,.F.);
#782=ORIENTED_EDGE('',*,*,#427,.F.);
#783=ORIENTED_EDGE('',*,*,#509,.T.);
#784=ORIENTED_EDGE('',*,*,#469,.F.);
#785=ORIENTED_EDGE('',*,*,#546,.F.);
#786=ORIENTED_EDGE('',*,*,#458,.F.);
#787=PLANE('',#861);
#788=PLANE('',#886);
#789=PLANE('',#911);
#790=PLANE('',#912);
#791=PLANE('',#913);
#792=PLANE('',#914);
#793=PLANE('',#915);
#794=PLANE('',#916);
#795=PLANE('',#917);
#796=PLANE('',#918);
#797=PLANE('',#927);
#798=PLANE('',#928);
#799=PLANE('',#929);
#800=PLANE('',#930);
#801=PLANE('',#931);
#802=PLANE('',#948);
#803=PLANE('',#949);
#804=PLANE('',#950);
#805=ADVANCED_FACE('',(#55,#39,#40,#41,#42,#43,#44,#45,#46),#787,.T.);
#806=ADVANCED_FACE('',(#56,#47,#48,#49,#50,#51,#52,#53,#54),#788,.F.);
#807=ADVANCED_FACE('',(#57),#789,.F.);
#808=ADVANCED_FACE('',(#58),#790,.F.);
#809=ADVANCED_FACE('',(#59),#791,.F.);
#810=ADVANCED_FACE('',(#60),#792,.F.);
#811=ADVANCED_FACE('',(#61),#793,.F.);
#812=ADVANCED_FACE('',(#62),#794,.F.);
#813=ADVANCED_FACE('',(#63),#795,.F.);
#814=ADVANCED_FACE('',(#64),#796,.F.);
#815=ADVANCED_FACE('',(#65),#15,.F.);
#816=ADVANCED_FACE('',(#66),#16,.F.);
#817=ADVANCED_FACE('',(#67),#17,.F.);
#818=ADVANCED_FACE('',(#68),#18,.F.);
#819=ADVANCED_FACE('',(#69),#19,.T.);
#820=ADVANCED_FACE('',(#70),#20,.T.);
#821=ADVANCED_FACE('',(#71),#21,.T.);
#822=ADVANCED_FACE('',(#72),#22,.T.);
#823=ADVANCED_FACE('',(#73),#797,.F.);
#824=ADVANCED_FACE('',(#74),#798,.F.);
#825=ADVANCED_FACE('',(#75),#799,.F.);
#826=ADVANCED_FACE('',(#76),#800,.F.);
#827=ADVANCED_FACE('',(#77),#801,.T.);
#828=ADVANCED_FACE('',(#78),#23,.T.);
#829=ADVANCED_FACE('',(#79),#24,.F.);
#830=ADVANCED_FACE('',(#80),#25,.T.);
#831=ADVANCED_FACE('',(#81),#26,.F.);
#832=ADVANCED_FACE('',(#82),#27,.T.);
#833=ADVANCED_FACE('',(#83),#28,.F.);
#834=ADVANCED_FACE('',(#84),#29,.F.);
#835=ADVANCED_FACE('',(#85),#30,.T.);
#836=ADVANCED_FACE('',(#86),#31,.T.);
#837=ADVANCED_FACE('',(#87),#32,.F.);
#838=ADVANCED_FACE('',(#88),#33,.T.);
#839=ADVANCED_FACE('',(#89),#34,.F.);
#840=ADVANCED_FACE('',(#90),#35,.F.);
#841=ADVANCED_FACE('',(#91),#36,.F.);
#842=ADVANCED_FACE('',(#92),#37,.F.);
#843=ADVANCED_FACE('',(#93),#38,.F.);
#844=ADVANCED_FACE('',(#94),#802,.T.);
#845=ADVANCED_FACE('',(#95),#803,.T.);
#846=ADVANCED_FACE('',(#96),#804,.T.);
#847=CLOSED_SHELL('',(#805,#806,#807,#808,#809,#810,#811,#812,#813,#814,
#815,#816,#817,#818,#819,#820,#821,#822,#823,#824,#825,#826,#827,#828,#829,
#830,#831,#832,#833,#834,#835,#836,#837,#838,#839,#840,#841,#842,#843,#844,
#845,#846));
#848=DERIVED_UNIT_ELEMENT(#850,1.);
#849=DERIVED_UNIT_ELEMENT(#1453,-3.);
#850=(
MASS_UNIT()
NAMED_UNIT(*)
SI_UNIT(.KILO.,.GRAM.)
);
#851=DERIVED_UNIT((#848,#849));
#852=MEASURE_REPRESENTATION_ITEM('density measure',
POSITIVE_RATIO_MEASURE(7850.),#851);
#853=PROPERTY_DEFINITION_REPRESENTATION(#858,#855);
#854=PROPERTY_DEFINITION_REPRESENTATION(#859,#856);
#855=REPRESENTATION('material name',(#857),#1450);
#856=REPRESENTATION('density',(#852),#1450);
#857=DESCRIPTIVE_REPRESENTATION_ITEM('Steel','Steel');
#858=PROPERTY_DEFINITION('material property','material name',#1460);
#859=PROPERTY_DEFINITION('material property','density of part',#1460);
#860=AXIS2_PLACEMENT_3D('',#1205,#951,#952);
#861=AXIS2_PLACEMENT_3D('',#1206,#953,#954);
#862=AXIS2_PLACEMENT_3D('',#1215,#958,#959);
#863=AXIS2_PLACEMENT_3D('',#1219,#961,#962);
#864=AXIS2_PLACEMENT_3D('',#1221,#963,#964);
#865=AXIS2_PLACEMENT_3D('',#1225,#966,#967);
#866=AXIS2_PLACEMENT_3D('',#1227,#968,#969);
#867=AXIS2_PLACEMENT_3D('',#1231,#971,#972);
#868=AXIS2_PLACEMENT_3D('',#1235,#974,#975);
#869=AXIS2_PLACEMENT_3D('',#1239,#977,#978);
#870=AXIS2_PLACEMENT_3D('',#1243,#980,#981);
#871=AXIS2_PLACEMENT_3D('',#1247,#983,#984);
#872=AXIS2_PLACEMENT_3D('',#1251,#986,#987);
#873=AXIS2_PLACEMENT_3D('',#1255,#989,#990);
#874=AXIS2_PLACEMENT_3D('',#1257,#991,#992);
#875=AXIS2_PLACEMENT_3D('',#1261,#994,#995);
#876=AXIS2_PLACEMENT_3D('',#1263,#996,#997);
#877=AXIS2_PLACEMENT_3D('',#1267,#999,#1000);
#878=AXIS2_PLACEMENT_3D('',#1272,#1003,#1004);
#879=AXIS2_PLACEMENT_3D('',#1274,#1005,#1006);
#880=AXIS2_PLACEMENT_3D('',#1276,#1007,#1008);
#881=AXIS2_PLACEMENT_3D('',#1278,#1009,#1010);
#882=AXIS2_PLACEMENT_3D('',#1280,#1011,#1012);
#883=AXIS2_PLACEMENT_3D('',#1282,#1013,#1014);
#884=AXIS2_PLACEMENT_3D('',#1284,#1015,#1016);
#885=AXIS2_PLACEMENT_3D('',#1286,#1017,#1018);
#886=AXIS2_PLACEMENT_3D('',#1287,#1019,#1020);
#887=AXIS2_PLACEMENT_3D('',#1298,#1025,#1026);
#888=AXIS2_PLACEMENT_3D('',#1302,#1028,#1029);
#889=AXIS2_PLACEMENT_3D('',#1304,#1030,#1031);
#890=AXIS2_PLACEMENT_3D('',#1308,#1033,#1034);
#891=AXIS2_PLACEMENT_3D('',#1310,#1035,#1036);
#892=AXIS2_PLACEMENT_3D('',#1314,#1038,#1039);
#893=AXIS2_PLACEMENT_3D('',#1318,#1041,#1042);
#894=AXIS2_PLACEMENT_3D('',#1322,#1044,#1045);
#895=AXIS2_PLACEMENT_3D('',#1326,#1047,#1048);
#896=AXIS2_PLACEMENT_3D('',#1330,#1050,#1051);
#897=AXIS2_PLACEMENT_3D('',#1334,#1053,#1054);
#898=AXIS2_PLACEMENT_3D('',#1338,#1056,#1057);
#899=AXIS2_PLACEMENT_3D('',#1340,#1058,#1059);
#900=AXIS2_PLACEMENT_3D('',#1344,#1061,#1062);
#901=AXIS2_PLACEMENT_3D('',#1346,#1063,#1064);
#902=AXIS2_PLACEMENT_3D('',#1350,#1066,#1067);
#903=AXIS2_PLACEMENT_3D('',#1353,#1069,#1070);
#904=AXIS2_PLACEMENT_3D('',#1355,#1071,#1072);
#905=AXIS2_PLACEMENT_3D('',#1357,#1073,#1074);
#906=AXIS2_PLACEMENT_3D('',#1359,#1075,#1076);
#907=AXIS2_PLACEMENT_3D('',#1361,#1077,#1078);
#908=AXIS2_PLACEMENT_3D('',#1363,#1079,#1080);
#909=AXIS2_PLACEMENT_3D('',#1365,#1081,#1082);
#910=AXIS2_PLACEMENT_3D('',#1367,#1083,#1084);
#911=AXIS2_PLACEMENT_3D('',#1368,#1085,#1086);
#912=AXIS2_PLACEMENT_3D('',#1371,#1089,#1090);
#913=AXIS2_PLACEMENT_3D('',#1374,#1093,#1094);
#914=AXIS2_PLACEMENT_3D('',#1377,#1097,#1098);
#915=AXIS2_PLACEMENT_3D('',#1380,#1101,#1102);
#916=AXIS2_PLACEMENT_3D('',#1383,#1105,#1106);
#917=AXIS2_PLACEMENT_3D('',#1386,#1109,#1110);
#918=AXIS2_PLACEMENT_3D('',#1389,#1113,#1114);
#919=AXIS2_PLACEMENT_3D('',#1392,#1117,#1118);
#920=AXIS2_PLACEMENT_3D('',#1394,#1120,#1121);
#921=AXIS2_PLACEMENT_3D('',#1396,#1123,#1124);
#922=AXIS2_PLACEMENT_3D('',#1398,#1126,#1127);
#923=AXIS2_PLACEMENT_3D('',#1400,#1129,#1130);
#924=AXIS2_PLACEMENT_3D('',#1401,#1131,#1132);
#925=AXIS2_PLACEMENT_3D('',#1402,#1133,#1134);
#926=AXIS2_PLACEMENT_3D('',#1403,#1135,#1136);
#927=AXIS2_PLACEMENT_3D('',#1404,#1137,#1138);
#928=AXIS2_PLACEMENT_3D('',#1407,#1141,#1142);
#929=AXIS2_PLACEMENT_3D('',#1410,#1145,#1146);
#930=AXIS2_PLACEMENT_3D('',#1413,#1149,#1150);
#931=AXIS2_PLACEMENT_3D('',#1416,#1153,#1154);
#932=AXIS2_PLACEMENT_3D('',#1419,#1157,#1158);
#933=AXIS2_PLACEMENT_3D('',#1421,#1160,#1161);
#934=AXIS2_PLACEMENT_3D('',#1422,#1162,#1163);
#935=AXIS2_PLACEMENT_3D('',#1424,#1165,#1166);
#936=AXIS2_PLACEMENT_3D('',#1425,#1167,#1168);
#937=AXIS2_PLACEMENT_3D('',#1427,#1170,#1171);
#938=AXIS2_PLACEMENT_3D('',#1428,#1172,#1173);
#939=AXIS2_PLACEMENT_3D('',#1430,#1175,#1176);
#940=AXIS2_PLACEMENT_3D('',#1431,#1177,#1178);
#941=AXIS2_PLACEMENT_3D('',#1432,#1179,#1180);
#942=AXIS2_PLACEMENT_3D('',#1433,#1181,#1182);
#943=AXIS2_PLACEMENT_3D('',#1434,#1183,#1184);
#944=AXIS2_PLACEMENT_3D('',#1435,#1185,#1186);
#945=AXIS2_PLACEMENT_3D('',#1437,#1188,#1189);
#946=AXIS2_PLACEMENT_3D('',#1439,#1191,#1192);
#947=AXIS2_PLACEMENT_3D('',#1441,#1194,#1195);
#948=AXIS2_PLACEMENT_3D('',#1443,#1197,#1198);
#949=AXIS2_PLACEMENT_3D('',#1445,#1200,#1201);
#950=AXIS2_PLACEMENT_3D('',#1447,#1203,#1204);
#951=DIRECTION('axis',(0.,0.,1.));
#952=DIRECTION('refdir',(1.,0.,0.));
#953=DIRECTION('center_axis',(0.,1.,0.));
#954=DIRECTION('ref_axis',(0.,0.,1.));
#955=DIRECTION('',(-1.,0.,2.09757306396981E-16));
#956=DIRECTION('',(-0.707106781186551,0.,-0.707106781186544));
#957=DIRECTION('',(-1.,0.,0.));
#958=DIRECTION('center_axis',(0.,1.,0.));
#959=DIRECTION('ref_axis',(0.,0.,1.));
#960=DIRECTION('',(0.,0.,1.));
#961=DIRECTION('center_axis',(0.,1.,0.));
#962=DIRECTION('ref_axis',(0.,0.,1.));
#963=DIRECTION('center_axis',(0.,1.,0.));
#964=DIRECTION('ref_axis',(0.,0.,1.));
#965=DIRECTION('',(4.98976640280969E-16,0.,-1.));
#966=DIRECTION('center_axis',(0.,1.,0.));
#967=DIRECTION('ref_axis',(0.,0.,1.));
#968=DIRECTION('center_axis',(0.,1.,0.));
#969=DIRECTION('ref_axis',(0.,0.,1.));
#970=DIRECTION('',(0.,0.,1.));
#971=DIRECTION('center_axis',(0.,1.,0.));
#972=DIRECTION('ref_axis',(0.,0.,1.));
#973=DIRECTION('',(1.,0.,0.));
#974=DIRECTION('center_axis',(0.,1.,0.));
#975=DIRECTION('ref_axis',(0.,0.,1.));
#976=DIRECTION('',(-0.707106781186552,0.,0.707106781186543));
#977=DIRECTION('center_axis',(0.,1.,0.));
#978=DIRECTION('ref_axis',(0.,0.,1.));
#979=DIRECTION('',(-1.,0.,0.));
#980=DIRECTION('center_axis',(0.,1.,0.));
#981=DIRECTION('ref_axis',(0.,0.,1.));
#982=DIRECTION('',(-0.707106781186554,0.,-0.707106781186541));
#983=DIRECTION('center_axis',(0.,1.,0.));
#984=DIRECTION('ref_axis',(0.,0.,1.));
#985=DIRECTION('',(1.,0.,0.));
#986=DIRECTION('center_axis',(0.,1.,0.));
#987=DIRECTION('ref_axis',(0.,0.,1.));
#988=DIRECTION('',(0.,0.,-1.));
#989=DIRECTION('center_axis',(0.,1.,0.));
#990=DIRECTION('ref_axis',(0.,0.,1.));
#991=DIRECTION('center_axis',(0.,1.,0.));
#992=DIRECTION('ref_axis',(0.,0.,1.));
#993=DIRECTION('',(-4.98976640280969E-16,0.,-1.));
#994=DIRECTION('center_axis',(0.,1.,0.));
#995=DIRECTION('ref_axis',(0.,0.,1.));
#996=DIRECTION('center_axis',(0.,1.,0.));
#997=DIRECTION('ref_axis',(0.,0.,1.));
#998=DIRECTION('',(0.,0.,-1.));
#999=DIRECTION('center_axis',(0.,1.,0.));
#1000=DIRECTION('ref_axis',(0.,0.,1.));
#1001=DIRECTION('',(-1.,0.,0.));
#1002=DIRECTION('',(-0.707106781186552,0.,0.707106781186543));
#1003=DIRECTION('center_axis',(0.,1.,0.));
#1004=DIRECTION('ref_axis',(0.,0.,-1.));
#1005=DIRECTION('center_axis',(0.,1.,0.));
#1006=DIRECTION('ref_axis',(0.,0.,1.));
#1007=DIRECTION('center_axis',(0.,1.,0.));
#1008=DIRECTION('ref_axis',(0.,0.,-1.));
#1009=DIRECTION('center_axis',(0.,1.,0.));
#1010=DIRECTION('ref_axis',(0.,0.,1.));
#1011=DIRECTION('center_axis',(0.,1.,0.));
#1012=DIRECTION('ref_axis',(0.,0.,1.));
#1013=DIRECTION('center_axis',(0.,1.,0.));
#1014=DIRECTION('ref_axis',(0.,0.,1.));
#1015=DIRECTION('center_axis',(0.,1.,0.));
#1016=DIRECTION('ref_axis',(0.,0.,-1.));
#1017=DIRECTION('center_axis',(0.,1.,0.));
#1018=DIRECTION('ref_axis',(0.,0.,-1.));
#1019=DIRECTION('center_axis',(0.,1.,0.));
#1020=DIRECTION('ref_axis',(0.,0.,1.));
#1021=DIRECTION('',(0.707106781186551,0.,0.707106781186544));
#1022=DIRECTION('',(1.,0.,-2.09757306396981E-16));
#1023=DIRECTION('',(0.707106781186552,0.,-0.707106781186543));
#1024=DIRECTION('',(-1.,0.,0.));
#1025=DIRECTION('center_axis',(0.,1.,0.));
#1026=DIRECTION('ref_axis',(0.,0.,1.));
#1027=DIRECTION('',(0.,0.,-1.));
#1028=DIRECTION('center_axis',(0.,1.,0.));
#1029=DIRECTION('ref_axis',(0.,0.,1.));
#1030=DIRECTION('center_axis',(0.,1.,0.));
#1031=DIRECTION('ref_axis',(0.,0.,1.));
#1032=DIRECTION('',(4.98976640280969E-16,0.,1.));
#1033=DIRECTION('center_axis',(0.,1.,0.));
#1034=DIRECTION('ref_axis',(0.,0.,1.));
#1035=DIRECTION('center_axis',(0.,1.,0.));
#1036=DIRECTION('ref_axis',(0.,0.,1.));
#1037=DIRECTION('',(0.,0.,-1.));
#1038=DIRECTION('center_axis',(0.,1.,0.));
#1039=DIRECTION('ref_axis',(0.,0.,1.));
#1040=DIRECTION('',(1.,0.,0.));
#1041=DIRECTION('center_axis',(0.,1.,0.));
#1042=DIRECTION('ref_axis',(0.,0.,1.));
#1043=DIRECTION('',(0.707106781186556,0.,0.707106781186539));
#1044=DIRECTION('center_axis',(0.,1.,0.));
#1045=DIRECTION('ref_axis',(0.,0.,1.));
#1046=DIRECTION('',(1.,0.,2.13943018067086E-16));
#1047=DIRECTION('center_axis',(0.,1.,0.));
#1048=DIRECTION('ref_axis',(0.,0.,1.));
#1049=DIRECTION('',(0.70710678118655,0.,-0.707106781186545));
#1050=DIRECTION('center_axis',(0.,1.,0.));
#1051=DIRECTION('ref_axis',(0.,0.,1.));
#1052=DIRECTION('',(1.,0.,0.));
#1053=DIRECTION('center_axis',(0.,1.,0.));
#1054=DIRECTION('ref_axis',(0.,0.,1.));
#1055=DIRECTION('',(0.,0.,1.));
#1056=DIRECTION('center_axis',(0.,1.,0.));
#1057=DIRECTION('ref_axis',(0.,0.,1.));
#1058=DIRECTION('center_axis',(0.,1.,0.));
#1059=DIRECTION('ref_axis',(0.,0.,1.));
#1060=DIRECTION('',(-4.98976640280969E-16,0.,1.));
#1061=DIRECTION('center_axis',(0.,1.,0.));
#1062=DIRECTION('ref_axis',(0.,0.,1.));
#1063=DIRECTION('center_axis',(0.,1.,0.));
#1064=DIRECTION('ref_axis',(0.,0.,1.));
#1065=DIRECTION('',(0.,0.,1.));
#1066=DIRECTION('center_axis',(0.,1.,0.));
#1067=DIRECTION('ref_axis',(0.,0.,1.));
#1068=DIRECTION('',(-1.,0.,0.));
#1069=DIRECTION('center_axis',(0.,1.,0.));
#1070=DIRECTION('ref_axis',(0.,0.,1.));
#1071=DIRECTION('center_axis',(0.,1.,0.));
#1072=DIRECTION('ref_axis',(0.,0.,-1.));
#1073=DIRECTION('center_axis',(0.,1.,0.));
#1074=DIRECTION('ref_axis',(0.,0.,1.));
#1075=DIRECTION('center_axis',(0.,1.,0.));
#1076=DIRECTION('ref_axis',(0.,0.,-1.));
#1077=DIRECTION('center_axis',(0.,1.,0.));
#1078=DIRECTION('ref_axis',(0.,0.,1.));
#1079=DIRECTION('center_axis',(0.,1.,0.));
#1080=DIRECTION('ref_axis',(0.,0.,1.));
#1081=DIRECTION('center_axis',(0.,1.,0.));
#1082=DIRECTION('ref_axis',(0.,0.,1.));
#1083=DIRECTION('center_axis',(0.,1.,0.));
#1084=DIRECTION('ref_axis',(0.,0.,1.));
#1085=DIRECTION('center_axis',(0.,0.,1.));
#1086=DIRECTION('ref_axis',(1.,0.,0.));
#1087=DIRECTION('',(0.,1.,0.));
#1088=DIRECTION('',(0.,-1.,0.));
#1089=DIRECTION('center_axis',(0.,0.,1.));
#1090=DIRECTION('ref_axis',(1.,0.,0.));
#1091=DIRECTION('',(0.,-1.,0.));
#1092=DIRECTION('',(0.,-1.,0.));
#1093=DIRECTION('center_axis',(-1.,0.,1.32169407693471E-16));
#1094=DIRECTION('ref_axis',(1.32169407693471E-16,0.,1.));
#1095=DIRECTION('',(0.,1.,0.));
#1096=DIRECTION('',(0.,-1.,0.));
#1097=DIRECTION('center_axis',(-1.,0.,1.32169407693471E-16));
#1098=DIRECTION('ref_axis',(1.32169407693471E-16,0.,1.));
#1099=DIRECTION('',(0.,-1.,0.));
#1100=DIRECTION('',(0.,-1.,0.));
#1101=DIRECTION('center_axis',(0.,0.,-1.));
#1102=DIRECTION('ref_axis',(-1.,0.,0.));
#1103=DIRECTION('',(0.,1.,0.));
#1104=DIRECTION('',(0.,-1.,0.));
#1105=DIRECTION('center_axis',(1.,0.,-3.96508223080413E-16));
#1106=DIRECTION('ref_axis',(-3.96508223080413E-16,0.,-1.));
#1107=DIRECTION('',(0.,1.,0.));
#1108=DIRECTION('',(0.,-1.,0.));
#1109=DIRECTION('center_axis',(1.,0.,-3.96508223080413E-16));
#1110=DIRECTION('ref_axis',(-3.96508223080413E-16,0.,-1.));
#1111=DIRECTION('',(0.,-1.,0.));
#1112=DIRECTION('',(0.,-1.,0.));
#1113=DIRECTION('center_axis',(0.,0.,-1.));
#1114=DIRECTION('ref_axis',(-1.,0.,0.));
#1115=DIRECTION('',(0.,-1.,0.));
#1116=DIRECTION('',(0.,-1.,0.));
#1117=DIRECTION('center_axis',(0.,-1.,0.));
#1118=DIRECTION('ref_axis',(0.,0.,-1.));
#1119=DIRECTION('',(0.,-1.,0.));
#1120=DIRECTION('center_axis',(0.,-1.,0.));
#1121=DIRECTION('ref_axis',(0.,0.,-1.));
#1122=DIRECTION('',(0.,-1.,0.));
#1123=DIRECTION('center_axis',(0.,-1.,0.));
#1124=DIRECTION('ref_axis',(0.,0.,-1.));
#1125=DIRECTION('',(0.,-1.,0.));
#1126=DIRECTION('center_axis',(0.,-1.,0.));
#1127=DIRECTION('ref_axis',(0.,0.,-1.));
#1128=DIRECTION('',(0.,-1.,0.));
#1129=DIRECTION('center_axis',(0.,-1.,0.));
#1130=DIRECTION('ref_axis',(0.,0.,-1.));
#1131=DIRECTION('center_axis',(0.,-1.,0.));
#1132=DIRECTION('ref_axis',(0.,0.,-1.));
#1133=DIRECTION('center_axis',(0.,-1.,0.));
#1134=DIRECTION('ref_axis',(0.,0.,-1.));
#1135=DIRECTION('center_axis',(0.,-1.,0.));
#1136=DIRECTION('ref_axis',(0.,0.,-1.));
#1137=DIRECTION('center_axis',(1.,0.,4.57509488169707E-16));
#1138=DIRECTION('ref_axis',(4.57509488169707E-16,0.,-1.));
#1139=DIRECTION('',(0.,-1.,0.));
#1140=DIRECTION('',(0.,-1.,0.));
#1141=DIRECTION('center_axis',(-0.707106781186545,0.,-0.707106781186551));
#1142=DIRECTION('ref_axis',(-0.707106781186551,0.,0.707106781186545));
#1143=DIRECTION('',(0.,1.,0.));
#1144=DIRECTION('',(0.,-1.,0.));
#1145=DIRECTION('center_axis',(0.707106781186543,0.,-0.707106781186552));
#1146=DIRECTION('ref_axis',(-0.707106781186552,0.,-0.707106781186543));
#1147=DIRECTION('',(0.,-1.,0.));
#1148=DIRECTION('',(0.,-1.,0.));
#1149=DIRECTION('center_axis',(1.63872895622642E-16,0.,-1.));
#1150=DIRECTION('ref_axis',(-1.,0.,-1.63872895622642E-16));
#1151=DIRECTION('',(0.,-1.,0.));
#1152=DIRECTION('',(0.,-1.,0.));
#1153=DIRECTION('center_axis',(1.,0.,-4.57509488169707E-16));
#1154=DIRECTION('ref_axis',(-4.57509488169707E-16,0.,-1.));
#1155=DIRECTION('',(0.,-1.,0.));
#1156=DIRECTION('',(0.,-1.,0.));
#1157=DIRECTION('center_axis',(0.,1.,0.));
#1158=DIRECTION('ref_axis',(0.,0.,1.));
#1159=DIRECTION('',(0.,-1.,0.));
#1160=DIRECTION('center_axis',(0.,1.,0.));
#1161=DIRECTION('ref_axis',(0.,0.,1.));
#1162=DIRECTION('center_axis',(0.,-1.,0.));
#1163=DIRECTION('ref_axis',(0.,0.,-1.));
#1164=DIRECTION('',(0.,1.,0.));
#1165=DIRECTION('center_axis',(0.,1.,0.));
#1166=DIRECTION('ref_axis',(0.,0.,1.));
#1167=DIRECTION('center_axis',(0.,1.,0.));
#1168=DIRECTION('ref_axis',(0.,0.,1.));
#1169=DIRECTION('',(0.,1.,0.));
#1170=DIRECTION('center_axis',(0.,1.,0.));
#1171=DIRECTION('ref_axis',(0.,0.,1.));
#1172=DIRECTION('center_axis',(0.,1.,0.));
#1173=DIRECTION('ref_axis',(0.,0.,1.));
#1174=DIRECTION('',(0.,-1.,0.));
#1175=DIRECTION('center_axis',(0.,-1.,0.));
#1176=DIRECTION('ref_axis',(0.,0.,-1.));
#1177=DIRECTION('center_axis',(0.,-1.,0.));
#1178=DIRECTION('ref_axis',(0.,0.,-1.));
#1179=DIRECTION('center_axis',(0.,1.,0.));
#1180=DIRECTION('ref_axis',(0.,0.,1.));
#1181=DIRECTION('center_axis',(0.,1.,0.));
#1182=DIRECTION('ref_axis',(0.,0.,1.));
#1183=DIRECTION('center_axis',(0.,1.,0.));
#1184=DIRECTION('ref_axis',(0.,0.,1.));
#1185=DIRECTION('center_axis',(0.,1.,0.));
#1186=DIRECTION('ref_axis',(0.,0.,1.));
#1187=DIRECTION('',(0.,1.,0.));
#1188=DIRECTION('center_axis',(0.,1.,0.));
#1189=DIRECTION('ref_axis',(0.,0.,1.));
#1190=DIRECTION('',(0.,1.,0.));
#1191=DIRECTION('center_axis',(0.,1.,0.));
#1192=DIRECTION('ref_axis',(0.,0.,1.));
#1193=DIRECTION('',(0.,1.,0.));
#1194=DIRECTION('center_axis',(0.,1.,0.));
#1195=DIRECTION('ref_axis',(0.,0.,1.));
#1196=DIRECTION('',(0.,1.,0.));
#1197=DIRECTION('center_axis',(0.707106781186545,0.,-0.707106781186551));
#1198=DIRECTION('ref_axis',(-0.707106781186551,0.,-0.707106781186545));
#1199=DIRECTION('',(0.,-1.,0.));
#1200=DIRECTION('center_axis',(-1.63872895622642E-16,0.,-1.));
#1201=DIRECTION('ref_axis',(-1.,0.,1.63872895622642E-16));
#1202=DIRECTION('',(0.,-1.,0.));
#1203=DIRECTION('center_axis',(-0.707106781186543,0.,-0.707106781186552));
#1204=DIRECTION('ref_axis',(-0.707106781186552,0.,0.707106781186543));
#1205=CARTESIAN_POINT('',(0.,0.,0.));
#1206=CARTESIAN_POINT('Origin',(0.,4.,0.));
#1207=CARTESIAN_POINT('',(84.6862915010151,4.,-204.697350817579));
#1208=CARTESIAN_POINT('',(-84.686291501015,4.,-204.697350817579));
#1209=CARTESIAN_POINT('',(84.6862915010151,4.,-204.697350817579));
#1210=CARTESIAN_POINT('',(-89.988940683436,4.,-210.));
#1211=CARTESIAN_POINT('',(-84.6862915010151,4.,-204.697350817579));
#1212=CARTESIAN_POINT('',(-144.,4.,-210.));
#1213=CARTESIAN_POINT('',(-89.988940683436,4.,-210.));
#1214=CARTESIAN_POINT('',(-160.,4.,-194.));
#1215=CARTESIAN_POINT('Origin',(-144.,4.,-194.));
#1216=CARTESIAN_POINT('',(-160.,4.,-186.));
#1217=CARTESIAN_POINT('',(-160.,4.,-194.));
#1218=CARTESIAN_POINT('',(-156.,4.,-182.));
#1219=CARTESIAN_POINT('Origin',(-156.,4.,-186.));
#1220=CARTESIAN_POINT('',(-152.,4.,-178.));
#1221=CARTESIAN_POINT('Origin',(-156.,4.,-178.));
#1222=CARTESIAN_POINT('',(-152.,4.,178.));
#1223=CARTESIAN_POINT('',(-152.,4.,178.));
#1224=CARTESIAN_POINT('',(-156.,4.,182.));
#1225=CARTESIAN_POINT('Origin',(-156.,4.,178.));
#1226=CARTESIAN_POINT('',(-160.,4.,186.));
#1227=CARTESIAN_POINT('Origin',(-156.,4.,186.));
#1228=CARTESIAN_POINT('',(-160.,4.,194.));
#1229=CARTESIAN_POINT('',(-160.,4.,186.));
#1230=CARTESIAN_POINT('',(-144.,4.,210.));
#1231=CARTESIAN_POINT('Origin',(-144.,4.,194.));
#1232=CARTESIAN_POINT('',(-91.6457949329284,4.,210.));
#1233=CARTESIAN_POINT('',(-144.,4.,210.));
#1234=CARTESIAN_POINT('',(-88.8173678081823,4.,208.828427124746));
#1235=CARTESIAN_POINT('Origin',(-91.6457949329284,4.,206.));
#1236=CARTESIAN_POINT('',(-85.8578643762689,4.,205.868923692833));
#1237=CARTESIAN_POINT('',(-85.8578643762689,4.,205.868923692833));
#1238=CARTESIAN_POINT('',(-83.0294372515227,4.,204.697350817579));
#1239=CARTESIAN_POINT('Origin',(-83.0294372515227,4.,208.697350817579));
#1240=CARTESIAN_POINT('',(83.0294372515228,4.,204.697350817579));
#1241=CARTESIAN_POINT('',(83.0294372515228,4.,204.697350817579));
#1242=CARTESIAN_POINT('',(85.857864376269,4.,205.868923692833));
#1243=CARTESIAN_POINT('Origin',(83.0294372515228,4.,208.697350817579));
#1244=CARTESIAN_POINT('',(88.8173678081823,4.,208.828427124746));
#1245=CARTESIAN_POINT('',(88.8173678081823,4.,208.828427124746));
#1246=CARTESIAN_POINT('',(91.6457949329284,4.,210.));
#1247=CARTESIAN_POINT('Origin',(91.6457949329284,4.,206.));
#1248=CARTESIAN_POINT('',(144.,4.,210.));
#1249=CARTESIAN_POINT('',(91.6457949329284,4.,210.));
#1250=CARTESIAN_POINT('',(160.,4.,194.));
#1251=CARTESIAN_POINT('Origin',(144.,4.,194.));
#1252=CARTESIAN_POINT('',(160.,4.,186.));
#1253=CARTESIAN_POINT('',(160.,4.,194.));
#1254=CARTESIAN_POINT('',(156.,4.,182.));
#1255=CARTESIAN_POINT('Origin',(156.,4.,186.));
#1256=CARTESIAN_POINT('',(152.,4.,178.));
#1257=CARTESIAN_POINT('Origin',(156.,4.,178.));
#1258=CARTESIAN_POINT('',(152.,4.,-178.));
#1259=CARTESIAN_POINT('',(152.,4.,178.));
#1260=CARTESIAN_POINT('',(156.,4.,-182.));
#1261=CARTESIAN_POINT('Origin',(156.,4.,-178.));
#1262=CARTESIAN_POINT('',(160.,4.,-186.));
#1263=CARTESIAN_POINT('Origin',(156.,4.,-186.));
#1264=CARTESIAN_POINT('',(160.,4.,-194.));
#1265=CARTESIAN_POINT('',(160.,4.,-186.));
#1266=CARTESIAN_POINT('',(144.,4.,-210.));
#1267=CARTESIAN_POINT('Origin',(144.,4.,-194.));
#1268=CARTESIAN_POINT('',(89.9889406834361,4.,-210.));
#1269=CARTESIAN_POINT('',(144.,4.,-210.));
#1270=CARTESIAN_POINT('',(89.9889406834361,4.,-210.));
#1271=CARTESIAN_POINT('',(-148.,4.,-201.1));
#1272=CARTESIAN_POINT('Origin',(-148.,4.,-198.));
#1273=CARTESIAN_POINT('',(148.,4.,-201.1));
#1274=CARTESIAN_POINT('Origin',(148.,4.,-198.));
#1275=CARTESIAN_POINT('',(148.,4.,194.9));
#1276=CARTESIAN_POINT('Origin',(148.,4.,198.));
#1277=CARTESIAN_POINT('',(-148.,4.,194.9));
#1278=CARTESIAN_POINT('Origin',(-148.,4.,198.));
#1279=CARTESIAN_POINT('',(130.,4.,176.6));
#1280=CARTESIAN_POINT('Origin',(130.,4.,172.5));
#1281=CARTESIAN_POINT('',(-130.,4.,-168.4));
#1282=CARTESIAN_POINT('Origin',(-130.,4.,-172.5));
#1283=CARTESIAN_POINT('',(130.,4.,-168.4));
#1284=CARTESIAN_POINT('Origin',(130.,4.,-172.5));
#1285=CARTESIAN_POINT('',(-130.,4.,176.6));
#1286=CARTESIAN_POINT('Origin',(-130.,4.,172.5));
#1287=CARTESIAN_POINT('Origin',(0.,0.,0.));
#1288=CARTESIAN_POINT('',(-89.988940683436,0.,-210.));
#1289=CARTESIAN_POINT('',(-84.686291501015,0.,-204.697350817579));
#1290=CARTESIAN_POINT('',(-89.988940683436,0.,-210.));
#1291=CARTESIAN_POINT('',(84.6862915010151,0.,-204.697350817579));
#1292=CARTESIAN_POINT('',(-84.686291501015,0.,-204.697350817579));
#1293=CARTESIAN_POINT('',(89.9889406834361,0.,-210.));
#1294=CARTESIAN_POINT('',(84.6862915010151,0.,-204.697350817579));
#1295=CARTESIAN_POINT('',(144.,0.,-210.));
#1296=CARTESIAN_POINT('',(144.,0.,-210.));
#1297=CARTESIAN_POINT('',(160.,0.,-194.));
#1298=CARTESIAN_POINT('Origin',(144.,0.,-194.));
#1299=CARTESIAN_POINT('',(160.,0.,-186.));
#1300=CARTESIAN_POINT('',(160.,0.,-186.));
#1301=CARTESIAN_POINT('',(156.,0.,-182.));
#1302=CARTESIAN_POINT('Origin',(156.,0.,-186.));
#1303=CARTESIAN_POINT('',(152.,0.,-178.));
#1304=CARTESIAN_POINT('Origin',(156.,0.,-178.));
#1305=CARTESIAN_POINT('',(152.,0.,178.));
#1306=CARTESIAN_POINT('',(152.,0.,-178.));
#1307=CARTESIAN_POINT('',(156.,0.,182.));
#1308=CARTESIAN_POINT('Origin',(156.,0.,178.));
#1309=CARTESIAN_POINT('',(160.,0.,186.));
#1310=CARTESIAN_POINT('Origin',(156.,0.,186.));
#1311=CARTESIAN_POINT('',(160.,0.,194.));
#1312=CARTESIAN_POINT('',(160.,0.,194.));
#1313=CARTESIAN_POINT('',(144.,0.,210.));
#1314=CARTESIAN_POINT('Origin',(144.,0.,194.));
#1315=CARTESIAN_POINT('',(91.6457949329284,0.,210.));
#1316=CARTESIAN_POINT('',(91.6457949329284,0.,210.));
#1317=CARTESIAN_POINT('',(88.8173678081823,0.,208.828427124746));
#1318=CARTESIAN_POINT('Origin',(91.6457949329284,0.,206.));
#1319=CARTESIAN_POINT('',(85.8578643762689,0.,205.868923692833));
#1320=CARTESIAN_POINT('',(85.8578643762689,0.,205.868923692833));
#1321=CARTESIAN_POINT('',(83.0294372515228,0.,204.697350817579));
#1322=CARTESIAN_POINT('Origin',(83.0294372515228,0.,208.697350817579));
#1323=CARTESIAN_POINT('',(-83.0294372515227,0.,204.697350817579));
#1324=CARTESIAN_POINT('',(-83.0294372515227,0.,204.697350817579));
#1325=CARTESIAN_POINT('',(-85.8578643762689,0.,205.868923692833));
#1326=CARTESIAN_POINT('Origin',(-83.0294372515227,0.,208.697350817579));
#1327=CARTESIAN_POINT('',(-88.8173678081822,0.,208.828427124746));
#1328=CARTESIAN_POINT('',(-88.8173678081822,0.,208.828427124746));
#1329=CARTESIAN_POINT('',(-91.6457949329284,0.,210.));
#1330=CARTESIAN_POINT('Origin',(-91.6457949329284,0.,206.));
#1331=CARTESIAN_POINT('',(-144.,0.,210.));
#1332=CARTESIAN_POINT('',(-144.,0.,210.));
#1333=CARTESIAN_POINT('',(-160.,0.,194.));
#1334=CARTESIAN_POINT('Origin',(-144.,0.,194.));
#1335=CARTESIAN_POINT('',(-160.,0.,186.));
#1336=CARTESIAN_POINT('',(-160.,0.,186.));
#1337=CARTESIAN_POINT('',(-156.,0.,182.));
#1338=CARTESIAN_POINT('Origin',(-156.,0.,186.));
#1339=CARTESIAN_POINT('',(-152.,0.,178.));
#1340=CARTESIAN_POINT('Origin',(-156.,0.,178.));
#1341=CARTESIAN_POINT('',(-152.,0.,-178.));
#1342=CARTESIAN_POINT('',(-152.,0.,-178.));
#1343=CARTESIAN_POINT('',(-156.,0.,-182.));
#1344=CARTESIAN_POINT('Origin',(-156.,0.,-178.));
#1345=CARTESIAN_POINT('',(-160.,0.,-186.));
#1346=CARTESIAN_POINT('Origin',(-156.,0.,-186.));
#1347=CARTESIAN_POINT('',(-160.,0.,-194.));
#1348=CARTESIAN_POINT('',(-160.,0.,-194.));
#1349=CARTESIAN_POINT('',(-144.,0.,-210.));
#1350=CARTESIAN_POINT('Origin',(-144.,0.,-194.));
#1351=CARTESIAN_POINT('',(-89.988940683436,0.,-210.));
#1352=CARTESIAN_POINT('',(-130.,0.,-168.4));
#1353=CARTESIAN_POINT('Origin',(-130.,0.,-172.5));
#1354=CARTESIAN_POINT('',(130.,0.,-168.4));
#1355=CARTESIAN_POINT('Origin',(130.,0.,-172.5));
#1356=CARTESIAN_POINT('',(130.,0.,176.6));
#1357=CARTESIAN_POINT('Origin',(130.,0.,172.5));
#1358=CARTESIAN_POINT('',(-130.,0.,176.6));
#1359=CARTESIAN_POINT('Origin',(-130.,0.,172.5));
#1360=CARTESIAN_POINT('',(-148.,0.,194.9));
#1361=CARTESIAN_POINT('Origin',(-148.,0.,198.));
#1362=CARTESIAN_POINT('',(148.,0.,194.9));
#1363=CARTESIAN_POINT('Origin',(148.,0.,198.));
#1364=CARTESIAN_POINT('',(148.,0.,-201.1));
#1365=CARTESIAN_POINT('Origin',(148.,0.,-198.));
#1366=CARTESIAN_POINT('',(-148.,0.,-201.1));
#1367=CARTESIAN_POINT('Origin',(-148.,0.,-198.));
#1368=CARTESIAN_POINT('Origin',(160.,4.,-210.));
#1369=CARTESIAN_POINT('',(-89.988940683436,0.,-210.));
#1370=CARTESIAN_POINT('',(-144.,4.,-210.));
#1371=CARTESIAN_POINT('Origin',(160.,4.,-210.));
#1372=CARTESIAN_POINT('',(89.9889406834361,4.,-210.));
#1373=CARTESIAN_POINT('',(144.,4.,-210.));
#1374=CARTESIAN_POINT('Origin',(160.,4.,210.));
#1375=CARTESIAN_POINT('',(160.,0.,-186.));
#1376=CARTESIAN_POINT('',(160.,4.,-194.));
#1377=CARTESIAN_POINT('Origin',(160.,4.,210.));
#1378=CARTESIAN_POINT('',(160.,4.,186.));
#1379=CARTESIAN_POINT('',(160.,4.,194.));
#1380=CARTESIAN_POINT('Origin',(-160.,4.,210.));
#1381=CARTESIAN_POINT('',(-91.6457949329284,0.,210.));
#1382=CARTESIAN_POINT('',(-144.,4.,210.));
#1383=CARTESIAN_POINT('Origin',(-160.,4.,-210.));
#1384=CARTESIAN_POINT('',(-160.,0.,-186.));
#1385=CARTESIAN_POINT('',(-160.,4.,-194.));
#1386=CARTESIAN_POINT('Origin',(-160.,4.,-210.));
#1387=CARTESIAN_POINT('',(-160.,4.,186.));
#1388=CARTESIAN_POINT('',(-160.,4.,194.));
#1389=CARTESIAN_POINT('Origin',(-160.,4.,210.));
#1390=CARTESIAN_POINT('',(91.6457949329284,4.,210.));
#1391=CARTESIAN_POINT('',(144.,4.,210.));
#1392=CARTESIAN_POINT('Origin',(-130.,4.,-172.5));
#1393=CARTESIAN_POINT('',(-130.,4.,-168.4));
#1394=CARTESIAN_POINT('Origin',(130.,4.,-172.5));
#1395=CARTESIAN_POINT('',(130.,4.,-168.4));
#1396=CARTESIAN_POINT('Origin',(130.,4.,172.5));
#1397=CARTESIAN_POINT('',(130.,4.,176.6));
#1398=CARTESIAN_POINT('Origin',(-130.,4.,172.5));
#1399=CARTESIAN_POINT('',(-130.,4.,176.6));
#1400=CARTESIAN_POINT('Origin',(144.,4.,194.));
#1401=CARTESIAN_POINT('Origin',(-144.,4.,194.));
#1402=CARTESIAN_POINT('Origin',(144.,4.,-194.));
#1403=CARTESIAN_POINT('Origin',(-144.,4.,-194.));
#1404=CARTESIAN_POINT('Origin',(-152.,10.,-182.));
#1405=CARTESIAN_POINT('',(-152.,4.,-178.));
#1406=CARTESIAN_POINT('',(-152.,4.,178.));
#1407=CARTESIAN_POINT('Origin',(-84.686291501015,10.,204.697350817579));
#1408=CARTESIAN_POINT('',(-88.8173678081822,0.,208.828427124746));
#1409=CARTESIAN_POINT('',(-85.8578643762689,4.,205.868923692833));
#1410=CARTESIAN_POINT('Origin',(84.6862915010151,10.,204.697350817579));
#1411=CARTESIAN_POINT('',(88.8173678081823,4.,208.828427124746));
#1412=CARTESIAN_POINT('',(85.8578643762689,4.,205.868923692833));
#1413=CARTESIAN_POINT('Origin',(84.6862915010151,10.,204.697350817579));
#1414=CARTESIAN_POINT('',(83.0294372515228,4.,204.697350817579));
#1415=CARTESIAN_POINT('',(-83.0294372515227,4.,204.697350817579));
#1416=CARTESIAN_POINT('Origin',(152.,10.,-182.));
#1417=CARTESIAN_POINT('',(152.,4.,178.));
#1418=CARTESIAN_POINT('',(152.,4.,-178.));
#1419=CARTESIAN_POINT('Origin',(156.,10.,186.));
#1420=CARTESIAN_POINT('',(156.,4.,182.));
#1421=CARTESIAN_POINT('Origin',(156.,10.,178.));
#1422=CARTESIAN_POINT('Origin',(156.,10.,-186.));
#1423=CARTESIAN_POINT('',(156.,0.,-182.));
#1424=CARTESIAN_POINT('Origin',(156.,10.,-178.));
#1425=CARTESIAN_POINT('Origin',(-156.,4.,-186.));
#1426=CARTESIAN_POINT('',(-156.,0.,-182.));
#1427=CARTESIAN_POINT('Origin',(-156.,10.,-178.));
#1428=CARTESIAN_POINT('Origin',(-156.,10.,178.));
#1429=CARTESIAN_POINT('',(-156.,4.,182.));
#1430=CARTESIAN_POINT('Origin',(-156.,4.,186.));
#1431=CARTESIAN_POINT('Origin',(91.6457949329284,4.,206.));
#1432=CARTESIAN_POINT('Origin',(83.0294372515228,10.,208.697350817579));
#1433=CARTESIAN_POINT('Origin',(-91.6457949329284,4.,206.));
#1434=CARTESIAN_POINT('Origin',(-83.0294372515227,10.,208.697350817579));
#1435=CARTESIAN_POINT('Origin',(-148.,-6.,198.));
#1436=CARTESIAN_POINT('',(-148.,-6.,194.9));
#1437=CARTESIAN_POINT('Origin',(148.,-6.,198.));
#1438=CARTESIAN_POINT('',(148.,-6.,194.9));
#1439=CARTESIAN_POINT('Origin',(148.,-6.,-198.));
#1440=CARTESIAN_POINT('',(148.,-6.,-201.1));
#1441=CARTESIAN_POINT('Origin',(-148.,-6.,-198.));
#1442=CARTESIAN_POINT('',(-148.,-6.,-201.1));
#1443=CARTESIAN_POINT('Origin',(-84.686291501015,10.,-204.697350817579));
#1444=CARTESIAN_POINT('',(-84.686291501015,4.,-204.697350817579));
#1445=CARTESIAN_POINT('Origin',(84.6862915010151,10.,-204.697350817579));
#1446=CARTESIAN_POINT('',(84.6862915010151,4.,-204.697350817579));
#1447=CARTESIAN_POINT('Origin',(84.6862915010151,10.,-204.697350817579));
#1448=UNCERTAINTY_MEASURE_WITH_UNIT(LENGTH_MEASURE(0.01),#1452,
'DISTANCE_ACCURACY_VALUE',
'Maximum model space distance between geometric entities at asserted c
onnectivities');
#1449=UNCERTAINTY_MEASURE_WITH_UNIT(LENGTH_MEASURE(0.01),#1452,
'DISTANCE_ACCURACY_VALUE',
'Maximum model space distance between geometric entities at asserted c
onnectivities');
#1450=(
GEOMETRIC_REPRESENTATION_CONTEXT(3)
GLOBAL_UNCERTAINTY_ASSIGNED_CONTEXT((#1448))
GLOBAL_UNIT_ASSIGNED_CONTEXT((#1452,#1454,#1455))
REPRESENTATION_CONTEXT('','3D')
);
#1451=(
GEOMETRIC_REPRESENTATION_CONTEXT(3)
GLOBAL_UNCERTAINTY_ASSIGNED_CONTEXT((#1449))
GLOBAL_UNIT_ASSIGNED_CONTEXT((#1452,#1454,#1455))
REPRESENTATION_CONTEXT('','3D')
);
#1452=(
LENGTH_UNIT()
NAMED_UNIT(*)
SI_UNIT(.MILLI.,.METRE.)
);
#1453=(
LENGTH_UNIT()
NAMED_UNIT(*)
SI_UNIT($,.METRE.)
);
#1454=(
NAMED_UNIT(*)
PLANE_ANGLE_UNIT()
SI_UNIT($,.RADIAN.)
);
#1455=(
NAMED_UNIT(*)
SI_UNIT($,.STERADIAN.)
SOLID_ANGLE_UNIT()
);
#1456=SHAPE_DEFINITION_REPRESENTATION(#1457,#1458);
#1457=PRODUCT_DEFINITION_SHAPE('',$,#1460);
#1458=SHAPE_REPRESENTATION('',(#860),#1450);
#1459=PRODUCT_DEFINITION_CONTEXT('part definition',#1464,'design');
#1460=PRODUCT_DEFINITION('403_MountPlate_x2_4mm_INOX',
'403_MountPlate_x2_4mm_INOX v1',#1461,#1459);
#1461=PRODUCT_DEFINITION_FORMATION('',$,#1466);
#1462=PRODUCT_RELATED_PRODUCT_CATEGORY('403_MountPlate_x2_4mm_INOX v1',
'403_MountPlate_x2_4mm_INOX v1',(#1466));
#1463=APPLICATION_PROTOCOL_DEFINITION('international standard',
'automotive_design',2009,#1464);
#1464=APPLICATION_CONTEXT(
'Core Data for Automotive Mechanical Design Process');
#1465=PRODUCT_CONTEXT('part definition',#1464,'mechanical');
#1466=PRODUCT('403_MountPlate_x2_4mm_INOX',
'403_MountPlate_x2_4mm_INOX v1',$,(#1465));
#1467=PRESENTATION_STYLE_ASSIGNMENT((#1469));
#1468=PRESENTATION_STYLE_ASSIGNMENT((#1470));
#1469=SURFACE_STYLE_USAGE(.BOTH.,#1471);
#1470=SURFACE_STYLE_USAGE(.BOTH.,#1472);
#1471=SURFACE_SIDE_STYLE('',(#1473));
#1472=SURFACE_SIDE_STYLE('',(#1474));
#1473=SURFACE_STYLE_FILL_AREA(#1475);
#1474=SURFACE_STYLE_FILL_AREA(#1476);
#1475=FILL_AREA_STYLE('Steel - Satin',(#1477));
#1476=FILL_AREA_STYLE('Opaque(255,242,232)',(#1478));
#1477=FILL_AREA_STYLE_COLOUR('Steel - Satin',#1479);
#1478=FILL_AREA_STYLE_COLOUR('Opaque(255,242,232)',#1480);
#1479=COLOUR_RGB('Steel - Satin',0.627450980392157,0.627450980392157,0.627450980392157);
#1480=COLOUR_RGB('Opaque(255,242,232)',1.,0.949019607843137,0.909803921568627);
ENDSEC;
END-ISO-10303-21;
