ISO-10303-21;
HEADER;
/* Generated by software containing ST-Developer
 * from STEP Tools, Inc. (www.steptools.com) 
 */

FILE_DESCRIPTION(
/* description */ (''),
/* implementation_level */ '2;1');

FILE_NAME(
/* name */ 'Plunger-130-25 v1.step',
/* time_stamp */ '2026-03-14T09:22:42+01:00',
/* author */ (''),
/* organization */ (''),
/* preprocessor_version */ 'ST-DEVELOPER v20.1',
/* originating_system */ 'Autodesk Translation Framework v14.24.0.0',
/* authorisation */ '');

FILE_SCHEMA (('AUTOMOTIVE_DESIGN { 1 0 10303 214 3 1 1 }'));
ENDSEC;

DATA;
#10=MECHANICAL_DESIGN_GEOMETRIC_PRESENTATION_REPRESENTATION('',(#13),#446);
#11=SHAPE_REPRESENTATION_RELATIONSHIP('SRR','None',#453,#12);
#12=ADVANCED_BREP_SHAPE_REPRESENTATION('',(#14),#445);
#13=STYLED_ITEM('',(#462),#14);
#14=MANIFOLD_SOLID_BREP('Body1',#254);
#15=CYLINDRICAL_SURFACE('',#287,8.);
#16=CYLINDRICAL_SURFACE('',#288,8.);
#17=CYLINDRICAL_SURFACE('',#289,8.);
#18=CYLINDRICAL_SURFACE('',#290,8.);
#19=CYLINDRICAL_SURFACE('',#291,12.5);
#20=CYLINDRICAL_SURFACE('',#294,4.4);
#21=CYLINDRICAL_SURFACE('',#295,4.4);
#22=FACE_BOUND('',#60,.T.);
#23=FACE_BOUND('',#61,.T.);
#24=FACE_BOUND('',#62,.T.);
#25=FACE_BOUND('',#64,.T.);
#26=FACE_BOUND('',#65,.T.);
#27=CIRCLE('',#273,8.);
#28=CIRCLE('',#274,8.);
#29=CIRCLE('',#275,8.);
#30=CIRCLE('',#276,8.);
#31=CIRCLE('',#277,4.4);
#32=CIRCLE('',#278,4.4);
#33=CIRCLE('',#279,12.5);
#34=CIRCLE('',#281,8.);
#35=CIRCLE('',#282,8.);
#36=CIRCLE('',#283,8.);
#37=CIRCLE('',#284,8.);
#38=CIRCLE('',#285,4.4);
#39=CIRCLE('',#286,4.4);
#40=CIRCLE('',#292,12.5);
#41=FACE_OUTER_BOUND('',#55,.T.);
#42=FACE_OUTER_BOUND('',#56,.T.);
#43=FACE_OUTER_BOUND('',#57,.T.);
#44=FACE_OUTER_BOUND('',#58,.T.);
#45=FACE_OUTER_BOUND('',#59,.T.);
#46=FACE_OUTER_BOUND('',#63,.T.);
#47=FACE_OUTER_BOUND('',#66,.T.);
#48=FACE_OUTER_BOUND('',#67,.T.);
#49=FACE_OUTER_BOUND('',#68,.T.);
#50=FACE_OUTER_BOUND('',#69,.T.);
#51=FACE_OUTER_BOUND('',#70,.T.);
#52=FACE_OUTER_BOUND('',#71,.T.);
#53=FACE_OUTER_BOUND('',#72,.T.);
#54=FACE_OUTER_BOUND('',#73,.T.);
#55=EDGE_LOOP('',(#167,#168,#169,#170));
#56=EDGE_LOOP('',(#171,#172,#173,#174));
#57=EDGE_LOOP('',(#175,#176,#177,#178));
#58=EDGE_LOOP('',(#179,#180,#181,#182));
#59=EDGE_LOOP('',(#183,#184,#185,#186,#187,#188,#189,#190));
#60=EDGE_LOOP('',(#191));
#61=EDGE_LOOP('',(#192));
#62=EDGE_LOOP('',(#193));
#63=EDGE_LOOP('',(#194,#195,#196,#197,#198,#199,#200,#201));
#64=EDGE_LOOP('',(#202));
#65=EDGE_LOOP('',(#203));
#66=EDGE_LOOP('',(#204,#205,#206,#207));
#67=EDGE_LOOP('',(#208,#209,#210,#211));
#68=EDGE_LOOP('',(#212,#213,#214,#215));
#69=EDGE_LOOP('',(#216,#217,#218,#219));
#70=EDGE_LOOP('',(#220,#221,#222,#223));
#71=EDGE_LOOP('',(#224));
#72=EDGE_LOOP('',(#225,#226,#227,#228));
#73=EDGE_LOOP('',(#229,#230,#231,#232));
#74=LINE('',#377,#93);
#75=LINE('',#379,#94);
#76=LINE('',#381,#95);
#77=LINE('',#382,#96);
#78=LINE('',#386,#97);
#79=LINE('',#388,#98);
#80=LINE('',#390,#99);
#81=LINE('',#391,#100);
#82=LINE('',#395,#101);
#83=LINE('',#397,#102);
#84=LINE('',#399,#103);
#85=LINE('',#400,#104);
#86=LINE('',#404,#105);
#87=LINE('',#406,#106);
#88=LINE('',#408,#107);
#89=LINE('',#409,#108);
#90=LINE('',#437,#109);
#91=LINE('',#440,#110);
#92=LINE('',#442,#111);
#93=VECTOR('',#300,114.);
#94=VECTOR('',#301,20.);
#95=VECTOR('',#302,114.);
#96=VECTOR('',#303,20.);
#97=VECTOR('',#306,114.);
#98=VECTOR('',#307,20.);
#99=VECTOR('',#308,114.);
#100=VECTOR('',#309,20.);
#101=VECTOR('',#312,114.);
#102=VECTOR('',#313,20.);
#103=VECTOR('',#314,114.);
#104=VECTOR('',#315,20.);
#105=VECTOR('',#318,114.);
#106=VECTOR('',#319,20.);
#107=VECTOR('',#320,114.);
#108=VECTOR('',#321,20.);
#109=VECTOR('',#364,12.5);
#110=VECTOR('',#369,4.4);
#111=VECTOR('',#372,4.4);
#112=VERTEX_POINT('',#375);
#113=VERTEX_POINT('',#376);
#114=VERTEX_POINT('',#378);
#115=VERTEX_POINT('',#380);
#116=VERTEX_POINT('',#384);
#117=VERTEX_POINT('',#385);
#118=VERTEX_POINT('',#387);
#119=VERTEX_POINT('',#389);
#120=VERTEX_POINT('',#393);
#121=VERTEX_POINT('',#394);
#122=VERTEX_POINT('',#396);
#123=VERTEX_POINT('',#398);
#124=VERTEX_POINT('',#402);
#125=VERTEX_POINT('',#403);
#126=VERTEX_POINT('',#405);
#127=VERTEX_POINT('',#407);
#128=VERTEX_POINT('',#415);
#129=VERTEX_POINT('',#417);
#130=VERTEX_POINT('',#419);
#131=VERTEX_POINT('',#426);
#132=VERTEX_POINT('',#428);
#133=VERTEX_POINT('',#435);
#134=EDGE_CURVE('',#112,#113,#74,.T.);
#135=EDGE_CURVE('',#113,#114,#75,.F.);
#136=EDGE_CURVE('',#115,#114,#76,.T.);
#137=EDGE_CURVE('',#115,#112,#77,.T.);
#138=EDGE_CURVE('',#116,#117,#78,.T.);
#139=EDGE_CURVE('',#117,#118,#79,.F.);
#140=EDGE_CURVE('',#119,#118,#80,.T.);
#141=EDGE_CURVE('',#119,#116,#81,.T.);
#142=EDGE_CURVE('',#120,#121,#82,.T.);
#143=EDGE_CURVE('',#120,#122,#83,.T.);
#144=EDGE_CURVE('',#122,#123,#84,.T.);
#145=EDGE_CURVE('',#123,#121,#85,.F.);
#146=EDGE_CURVE('',#124,#125,#86,.T.);
#147=EDGE_CURVE('',#125,#126,#87,.F.);
#148=EDGE_CURVE('',#127,#126,#88,.T.);
#149=EDGE_CURVE('',#127,#124,#89,.T.);
#150=EDGE_CURVE('',#118,#120,#27,.F.);
#151=EDGE_CURVE('',#121,#127,#28,.F.);
#152=EDGE_CURVE('',#126,#115,#29,.F.);
#153=EDGE_CURVE('',#114,#119,#30,.F.);
#154=EDGE_CURVE('',#128,#128,#31,.T.);
#155=EDGE_CURVE('',#129,#129,#32,.T.);
#156=EDGE_CURVE('',#130,#130,#33,.T.);
#157=EDGE_CURVE('',#122,#117,#34,.T.);
#158=EDGE_CURVE('',#116,#113,#35,.T.);
#159=EDGE_CURVE('',#112,#125,#36,.T.);
#160=EDGE_CURVE('',#124,#123,#37,.T.);
#161=EDGE_CURVE('',#131,#131,#38,.T.);
#162=EDGE_CURVE('',#132,#132,#39,.T.);
#163=EDGE_CURVE('',#133,#133,#40,.T.);
#164=EDGE_CURVE('',#133,#130,#90,.T.);
#165=EDGE_CURVE('',#132,#129,#91,.T.);
#166=EDGE_CURVE('',#131,#128,#92,.T.);
#167=ORIENTED_EDGE('',*,*,#134,.T.);
#168=ORIENTED_EDGE('',*,*,#135,.T.);
#169=ORIENTED_EDGE('',*,*,#136,.F.);
#170=ORIENTED_EDGE('',*,*,#137,.T.);
#171=ORIENTED_EDGE('',*,*,#138,.T.);
#172=ORIENTED_EDGE('',*,*,#139,.T.);
#173=ORIENTED_EDGE('',*,*,#140,.F.);
#174=ORIENTED_EDGE('',*,*,#141,.T.);
#175=ORIENTED_EDGE('',*,*,#142,.F.);
#176=ORIENTED_EDGE('',*,*,#143,.T.);
#177=ORIENTED_EDGE('',*,*,#144,.T.);
#178=ORIENTED_EDGE('',*,*,#145,.T.);
#179=ORIENTED_EDGE('',*,*,#146,.T.);
#180=ORIENTED_EDGE('',*,*,#147,.T.);
#181=ORIENTED_EDGE('',*,*,#148,.F.);
#182=ORIENTED_EDGE('',*,*,#149,.T.);
#183=ORIENTED_EDGE('',*,*,#140,.T.);
#184=ORIENTED_EDGE('',*,*,#150,.T.);
#185=ORIENTED_EDGE('',*,*,#142,.T.);
#186=ORIENTED_EDGE('',*,*,#151,.T.);
#187=ORIENTED_EDGE('',*,*,#148,.T.);
#188=ORIENTED_EDGE('',*,*,#152,.T.);
#189=ORIENTED_EDGE('',*,*,#136,.T.);
#190=ORIENTED_EDGE('',*,*,#153,.T.);
#191=ORIENTED_EDGE('',*,*,#154,.F.);
#192=ORIENTED_EDGE('',*,*,#155,.F.);
#193=ORIENTED_EDGE('',*,*,#156,.F.);
#194=ORIENTED_EDGE('',*,*,#144,.F.);
#195=ORIENTED_EDGE('',*,*,#157,.T.);
#196=ORIENTED_EDGE('',*,*,#138,.F.);
#197=ORIENTED_EDGE('',*,*,#158,.T.);
#198=ORIENTED_EDGE('',*,*,#134,.F.);
#199=ORIENTED_EDGE('',*,*,#159,.T.);
#200=ORIENTED_EDGE('',*,*,#146,.F.);
#201=ORIENTED_EDGE('',*,*,#160,.T.);
#202=ORIENTED_EDGE('',*,*,#161,.T.);
#203=ORIENTED_EDGE('',*,*,#162,.T.);
#204=ORIENTED_EDGE('',*,*,#150,.F.);
#205=ORIENTED_EDGE('',*,*,#139,.F.);
#206=ORIENTED_EDGE('',*,*,#157,.F.);
#207=ORIENTED_EDGE('',*,*,#143,.F.);
#208=ORIENTED_EDGE('',*,*,#153,.F.);
#209=ORIENTED_EDGE('',*,*,#135,.F.);
#210=ORIENTED_EDGE('',*,*,#158,.F.);
#211=ORIENTED_EDGE('',*,*,#141,.F.);
#212=ORIENTED_EDGE('',*,*,#152,.F.);
#213=ORIENTED_EDGE('',*,*,#147,.F.);
#214=ORIENTED_EDGE('',*,*,#159,.F.);
#215=ORIENTED_EDGE('',*,*,#137,.F.);
#216=ORIENTED_EDGE('',*,*,#151,.F.);
#217=ORIENTED_EDGE('',*,*,#145,.F.);
#218=ORIENTED_EDGE('',*,*,#160,.F.);
#219=ORIENTED_EDGE('',*,*,#149,.F.);
#220=ORIENTED_EDGE('',*,*,#163,.F.);
#221=ORIENTED_EDGE('',*,*,#164,.T.);
#222=ORIENTED_EDGE('',*,*,#156,.T.);
#223=ORIENTED_EDGE('',*,*,#164,.F.);
#224=ORIENTED_EDGE('',*,*,#163,.T.);
#225=ORIENTED_EDGE('',*,*,#162,.F.);
#226=ORIENTED_EDGE('',*,*,#165,.T.);
#227=ORIENTED_EDGE('',*,*,#155,.T.);
#228=ORIENTED_EDGE('',*,*,#165,.F.);
#229=ORIENTED_EDGE('',*,*,#161,.F.);
#230=ORIENTED_EDGE('',*,*,#166,.T.);
#231=ORIENTED_EDGE('',*,*,#154,.T.);
#232=ORIENTED_EDGE('',*,*,#166,.F.);
#233=PLANE('',#268);
#234=PLANE('',#269);
#235=PLANE('',#270);
#236=PLANE('',#271);
#237=PLANE('',#272);
#238=PLANE('',#280);
#239=PLANE('',#293);
#240=ADVANCED_FACE('',(#41),#233,.F.);
#241=ADVANCED_FACE('',(#42),#234,.F.);
#242=ADVANCED_FACE('',(#43),#235,.F.);
#243=ADVANCED_FACE('',(#44),#236,.F.);
#244=ADVANCED_FACE('',(#45,#22,#23,#24),#237,.F.);
#245=ADVANCED_FACE('',(#46,#25,#26),#238,.T.);
#246=ADVANCED_FACE('',(#47),#15,.T.);
#247=ADVANCED_FACE('',(#48),#16,.T.);
#248=ADVANCED_FACE('',(#49),#17,.T.);
#249=ADVANCED_FACE('',(#50),#18,.T.);
#250=ADVANCED_FACE('',(#51),#19,.F.);
#251=ADVANCED_FACE('',(#52),#239,.T.);
#252=ADVANCED_FACE('',(#53),#20,.F.);
#253=ADVANCED_FACE('',(#54),#21,.F.);
#254=CLOSED_SHELL('',(#240,#241,#242,#243,#244,#245,#246,#247,#248,#249,
#250,#251,#252,#253));
#255=DERIVED_UNIT_ELEMENT(#257,1.);
#256=DERIVED_UNIT_ELEMENT(#448,-3.);
#257=(
MASS_UNIT()
NAMED_UNIT(*)
SI_UNIT(.KILO.,.GRAM.)
);
#258=DERIVED_UNIT((#255,#256));
#259=MEASURE_REPRESENTATION_ITEM('density measure',
POSITIVE_RATIO_MEASURE(7850.),#258);
#260=PROPERTY_DEFINITION_REPRESENTATION(#265,#262);
#261=PROPERTY_DEFINITION_REPRESENTATION(#266,#263);
#262=REPRESENTATION('material name',(#264),#445);
#263=REPRESENTATION('density',(#259),#445);
#264=DESCRIPTIVE_REPRESENTATION_ITEM('Steel','Steel');
#265=PROPERTY_DEFINITION('material property','material name',#455);
#266=PROPERTY_DEFINITION('material property','density of part',#455);
#267=AXIS2_PLACEMENT_3D('',#373,#296,#297);
#268=AXIS2_PLACEMENT_3D('',#374,#298,#299);
#269=AXIS2_PLACEMENT_3D('',#383,#304,#305);
#270=AXIS2_PLACEMENT_3D('',#392,#310,#311);
#271=AXIS2_PLACEMENT_3D('',#401,#316,#317);
#272=AXIS2_PLACEMENT_3D('',#410,#322,#323);
#273=AXIS2_PLACEMENT_3D('',#411,#324,#325);
#274=AXIS2_PLACEMENT_3D('',#412,#326,#327);
#275=AXIS2_PLACEMENT_3D('',#413,#328,#329);
#276=AXIS2_PLACEMENT_3D('',#414,#330,#331);
#277=AXIS2_PLACEMENT_3D('',#416,#332,#333);
#278=AXIS2_PLACEMENT_3D('',#418,#334,#335);
#279=AXIS2_PLACEMENT_3D('',#420,#336,#337);
#280=AXIS2_PLACEMENT_3D('',#421,#338,#339);
#281=AXIS2_PLACEMENT_3D('',#422,#340,#341);
#282=AXIS2_PLACEMENT_3D('',#423,#342,#343);
#283=AXIS2_PLACEMENT_3D('',#424,#344,#345);
#284=AXIS2_PLACEMENT_3D('',#425,#346,#347);
#285=AXIS2_PLACEMENT_3D('',#427,#348,#349);
#286=AXIS2_PLACEMENT_3D('',#429,#350,#351);
#287=AXIS2_PLACEMENT_3D('',#430,#352,#353);
#288=AXIS2_PLACEMENT_3D('',#431,#354,#355);
#289=AXIS2_PLACEMENT_3D('',#432,#356,#357);
#290=AXIS2_PLACEMENT_3D('',#433,#358,#359);
#291=AXIS2_PLACEMENT_3D('',#434,#360,#361);
#292=AXIS2_PLACEMENT_3D('',#436,#362,#363);
#293=AXIS2_PLACEMENT_3D('',#438,#365,#366);
#294=AXIS2_PLACEMENT_3D('',#439,#367,#368);
#295=AXIS2_PLACEMENT_3D('',#441,#370,#371);
#296=DIRECTION('axis',(0.,0.,1.));
#297=DIRECTION('refdir',(1.,0.,0.));
#298=DIRECTION('center_axis',(1.,0.,0.));
#299=DIRECTION('ref_axis',(0.,0.,-1.));
#300=DIRECTION('',(0.,-1.,0.));
#301=DIRECTION('',(0.,0.,-1.));
#302=DIRECTION('',(0.,-1.,0.));
#303=DIRECTION('',(0.,0.,-1.));
#304=DIRECTION('center_axis',(0.,1.,0.));
#305=DIRECTION('ref_axis',(0.,0.,1.));
#306=DIRECTION('',(1.,0.,0.));
#307=DIRECTION('',(0.,0.,-1.));
#308=DIRECTION('',(1.,0.,0.));
#309=DIRECTION('',(0.,0.,-1.));
#310=DIRECTION('center_axis',(-1.,0.,0.));
#311=DIRECTION('ref_axis',(0.,0.,1.));
#312=DIRECTION('',(0.,1.,0.));
#313=DIRECTION('',(0.,0.,-1.));
#314=DIRECTION('',(0.,1.,0.));
#315=DIRECTION('',(0.,0.,-1.));
#316=DIRECTION('center_axis',(0.,-1.,0.));
#317=DIRECTION('ref_axis',(0.,0.,-1.));
#318=DIRECTION('',(-1.,0.,0.));
#319=DIRECTION('',(0.,0.,-1.));
#320=DIRECTION('',(-1.,0.,0.));
#321=DIRECTION('',(0.,0.,-1.));
#322=DIRECTION('center_axis',(0.,0.,-1.));
#323=DIRECTION('ref_axis',(-1.,0.,0.));
#324=DIRECTION('center_axis',(0.,0.,-1.));
#325=DIRECTION('ref_axis',(-1.,0.,0.));
#326=DIRECTION('center_axis',(0.,0.,-1.));
#327=DIRECTION('ref_axis',(-1.,0.,0.));
#328=DIRECTION('center_axis',(0.,0.,-1.));
#329=DIRECTION('ref_axis',(-1.,0.,0.));
#330=DIRECTION('center_axis',(0.,0.,-1.));
#331=DIRECTION('ref_axis',(-1.,0.,0.));
#332=DIRECTION('center_axis',(0.,0.,1.));
#333=DIRECTION('ref_axis',(1.,0.,0.));
#334=DIRECTION('center_axis',(0.,0.,1.));
#335=DIRECTION('ref_axis',(-1.,0.,0.));
#336=DIRECTION('center_axis',(0.,0.,1.));
#337=DIRECTION('ref_axis',(1.,0.,0.));
#338=DIRECTION('center_axis',(0.,0.,-1.));
#339=DIRECTION('ref_axis',(-1.,0.,0.));
#340=DIRECTION('center_axis',(0.,0.,-1.));
#341=DIRECTION('ref_axis',(-1.,0.,0.));
#342=DIRECTION('center_axis',(0.,0.,-1.));
#343=DIRECTION('ref_axis',(-1.,0.,0.));
#344=DIRECTION('center_axis',(0.,0.,-1.));
#345=DIRECTION('ref_axis',(-1.,0.,0.));
#346=DIRECTION('center_axis',(0.,0.,-1.));
#347=DIRECTION('ref_axis',(-1.,0.,0.));
#348=DIRECTION('center_axis',(0.,0.,1.));
#349=DIRECTION('ref_axis',(1.,0.,0.));
#350=DIRECTION('center_axis',(0.,0.,1.));
#351=DIRECTION('ref_axis',(-1.,0.,0.));
#352=DIRECTION('center_axis',(0.,0.,-1.));
#353=DIRECTION('ref_axis',(-1.,0.,0.));
#354=DIRECTION('center_axis',(0.,0.,-1.));
#355=DIRECTION('ref_axis',(-1.,0.,0.));
#356=DIRECTION('center_axis',(0.,0.,-1.));
#357=DIRECTION('ref_axis',(-1.,0.,0.));
#358=DIRECTION('center_axis',(0.,0.,-1.));
#359=DIRECTION('ref_axis',(-1.,0.,0.));
#360=DIRECTION('center_axis',(0.,0.,1.));
#361=DIRECTION('ref_axis',(1.,0.,0.));
#362=DIRECTION('center_axis',(0.,0.,1.));
#363=DIRECTION('ref_axis',(1.,0.,0.));
#364=DIRECTION('',(0.,0.,1.));
#365=DIRECTION('center_axis',(0.,0.,1.));
#366=DIRECTION('ref_axis',(1.,0.,0.));
#367=DIRECTION('center_axis',(0.,0.,1.));
#368=DIRECTION('ref_axis',(1.,0.,0.));
#369=DIRECTION('',(0.,0.,1.));
#370=DIRECTION('center_axis',(0.,0.,1.));
#371=DIRECTION('ref_axis',(1.,0.,0.));
#372=DIRECTION('',(0.,0.,1.));
#373=CARTESIAN_POINT('',(0.,0.,0.));
#374=CARTESIAN_POINT('Origin',(-65.,65.,20.));
#375=CARTESIAN_POINT('',(-65.,57.,0.));
#376=CARTESIAN_POINT('',(-65.,-57.,0.));
#377=CARTESIAN_POINT('',(-65.,57.,0.));
#378=CARTESIAN_POINT('',(-65.,-57.,20.));
#379=CARTESIAN_POINT('',(-65.,-57.,20.));
#380=CARTESIAN_POINT('',(-65.,57.,20.));
#381=CARTESIAN_POINT('',(-65.,57.,20.));
#382=CARTESIAN_POINT('',(-65.,57.,20.));
#383=CARTESIAN_POINT('Origin',(65.,-65.,20.));
#384=CARTESIAN_POINT('',(-57.,-65.,0.));
#385=CARTESIAN_POINT('',(57.,-65.,0.));
#386=CARTESIAN_POINT('',(-57.,-65.,0.));
#387=CARTESIAN_POINT('',(57.,-65.,20.));
#388=CARTESIAN_POINT('',(57.,-65.,20.));
#389=CARTESIAN_POINT('',(-57.,-65.,20.));
#390=CARTESIAN_POINT('',(-57.,-65.,20.));
#391=CARTESIAN_POINT('',(-57.,-65.,20.));
#392=CARTESIAN_POINT('Origin',(65.,65.,20.));
#393=CARTESIAN_POINT('',(65.,-57.,20.));
#394=CARTESIAN_POINT('',(65.,57.,20.));
#395=CARTESIAN_POINT('',(65.,-57.,20.));
#396=CARTESIAN_POINT('',(65.,-57.,0.));
#397=CARTESIAN_POINT('',(65.,-57.,20.));
#398=CARTESIAN_POINT('',(65.,57.,0.));
#399=CARTESIAN_POINT('',(65.,-57.,0.));
#400=CARTESIAN_POINT('',(65.,57.,20.));
#401=CARTESIAN_POINT('Origin',(65.,65.,20.));
#402=CARTESIAN_POINT('',(57.,65.,0.));
#403=CARTESIAN_POINT('',(-57.,65.,0.));
#404=CARTESIAN_POINT('',(57.,65.,0.));
#405=CARTESIAN_POINT('',(-57.,65.,20.));
#406=CARTESIAN_POINT('',(-57.,65.,20.));
#407=CARTESIAN_POINT('',(57.,65.,20.));
#408=CARTESIAN_POINT('',(57.,65.,20.));
#409=CARTESIAN_POINT('',(57.,65.,20.));
#410=CARTESIAN_POINT('Origin',(0.,0.,20.));
#411=CARTESIAN_POINT('Origin',(57.,-57.,20.));
#412=CARTESIAN_POINT('Origin',(57.,57.,20.));
#413=CARTESIAN_POINT('Origin',(-57.,57.,20.));
#414=CARTESIAN_POINT('Origin',(-57.,-57.,20.));
#415=CARTESIAN_POINT('',(33.1,-3.90662328928006E-15,20.));
#416=CARTESIAN_POINT('Origin',(37.5,-3.36777869765522E-15,20.));
#417=CARTESIAN_POINT('',(-41.9,-1.25526296912604E-14,20.));
#418=CARTESIAN_POINT('Origin',(-37.5,-1.25526296912604E-14,20.));
#419=CARTESIAN_POINT('',(-12.5,-1.53080849893419E-15,20.));
#420=CARTESIAN_POINT('Origin',(0.,0.,20.));
#421=CARTESIAN_POINT('Origin',(0.,0.,0.));
#422=CARTESIAN_POINT('Origin',(57.,-57.,0.));
#423=CARTESIAN_POINT('Origin',(-57.,-57.,0.));
#424=CARTESIAN_POINT('Origin',(-57.,57.,0.));
#425=CARTESIAN_POINT('Origin',(57.,57.,0.));
#426=CARTESIAN_POINT('',(33.1,-3.90662328928006E-15,0.));
#427=CARTESIAN_POINT('Origin',(37.5,-3.36777869765522E-15,0.));
#428=CARTESIAN_POINT('',(-41.9,-1.25526296912604E-14,0.));
#429=CARTESIAN_POINT('Origin',(-37.5,-1.25526296912604E-14,0.));
#430=CARTESIAN_POINT('Origin',(57.,-57.,20.));
#431=CARTESIAN_POINT('Origin',(-57.,-57.,20.));
#432=CARTESIAN_POINT('Origin',(-57.,57.,20.));
#433=CARTESIAN_POINT('Origin',(57.,57.,20.));
#434=CARTESIAN_POINT('Origin',(0.,0.,18.));
#435=CARTESIAN_POINT('',(-12.5,-1.53080849893419E-15,18.));
#436=CARTESIAN_POINT('Origin',(0.,0.,18.));
#437=CARTESIAN_POINT('',(-12.5,-1.53080849893419E-15,18.));
#438=CARTESIAN_POINT('Origin',(0.,0.,18.));
#439=CARTESIAN_POINT('Origin',(-37.5,-1.25526296912604E-14,0.));
#440=CARTESIAN_POINT('',(-41.9,-1.30914742828852E-14,0.));
#441=CARTESIAN_POINT('Origin',(37.5,-3.36777869765522E-15,0.));
#442=CARTESIAN_POINT('',(33.1,-3.90662328928006E-15,0.));
#443=UNCERTAINTY_MEASURE_WITH_UNIT(LENGTH_MEASURE(0.01),#447,
'DISTANCE_ACCURACY_VALUE',
'Maximum model space distance between geometric entities at asserted c
onnectivities');
#444=UNCERTAINTY_MEASURE_WITH_UNIT(LENGTH_MEASURE(0.01),#447,
'DISTANCE_ACCURACY_VALUE',
'Maximum model space distance between geometric entities at asserted c
onnectivities');
#445=(
GEOMETRIC_REPRESENTATION_CONTEXT(3)
GLOBAL_UNCERTAINTY_ASSIGNED_CONTEXT((#443))
GLOBAL_UNIT_ASSIGNED_CONTEXT((#447,#449,#450))
REPRESENTATION_CONTEXT('','3D')
);
#446=(
GEOMETRIC_REPRESENTATION_CONTEXT(3)
GLOBAL_UNCERTAINTY_ASSIGNED_CONTEXT((#444))
GLOBAL_UNIT_ASSIGNED_CONTEXT((#447,#449,#450))
REPRESENTATION_CONTEXT('','3D')
);
#447=(
LENGTH_UNIT()
NAMED_UNIT(*)
SI_UNIT(.MILLI.,.METRE.)
);
#448=(
LENGTH_UNIT()
NAMED_UNIT(*)
SI_UNIT($,.METRE.)
);
#449=(
NAMED_UNIT(*)
PLANE_ANGLE_UNIT()
SI_UNIT($,.RADIAN.)
);
#450=(
NAMED_UNIT(*)
SI_UNIT($,.STERADIAN.)
SOLID_ANGLE_UNIT()
);
#451=SHAPE_DEFINITION_REPRESENTATION(#452,#453);
#452=PRODUCT_DEFINITION_SHAPE('',$,#455);
#453=SHAPE_REPRESENTATION('',(#267),#445);
#454=PRODUCT_DEFINITION_CONTEXT('part definition',#459,'design');
#455=PRODUCT_DEFINITION('Plunger-130-25','Plunger-130-25 v1',#456,#454);
#456=PRODUCT_DEFINITION_FORMATION('',$,#461);
#457=PRODUCT_RELATED_PRODUCT_CATEGORY('Plunger-130-25 v1',
'Plunger-130-25 v1',(#461));
#458=APPLICATION_PROTOCOL_DEFINITION('international standard',
'automotive_design',2009,#459);
#459=APPLICATION_CONTEXT(
'Core Data for Automotive Mechanical Design Process');
#460=PRODUCT_CONTEXT('part definition',#459,'mechanical');
#461=PRODUCT('Plunger-130-25','Plunger-130-25 v1',$,(#460));
#462=PRESENTATION_STYLE_ASSIGNMENT((#463));
#463=SURFACE_STYLE_USAGE(.BOTH.,#464);
#464=SURFACE_SIDE_STYLE('',(#465));
#465=SURFACE_STYLE_FILL_AREA(#466);
#466=FILL_AREA_STYLE('Steel - Satin',(#467));
#467=FILL_AREA_STYLE_COLOUR('Steel - Satin',#468);
#468=COLOUR_RGB('Steel - Satin',0.627450980392157,0.627450980392157,0.627450980392157);
ENDSEC;
END-ISO-10303-21;
