ISO-10303-21;
HEADER;
/* Generated by software containing ST-Developer
 * from STEP Tools, Inc. (www.steptools.com) 
 */

FILE_DESCRIPTION(
/* description */ (''),
/* implementation_level */ '2;1');

FILE_NAME(
/* name */ 'Logo v2.step',
/* time_stamp */ '2026-03-14T09:49:45+01:00',
/* author */ (''),
/* organization */ (''),
/* preprocessor_version */ 'ST-DEVELOPER v20.1',
/* originating_system */ 'Autodesk Translation Framework v14.24.0.0',
/* authorisation */ '');

FILE_SCHEMA (('AUTOMOTIVE_DESIGN { 1 0 10303 214 3 1 1 }'));
ENDSEC;

DATA;
#10=MECHANICAL_DESIGN_GEOMETRIC_PRESENTATION_REPRESENTATION('',(#13),#653);
#11=SHAPE_REPRESENTATION_RELATIONSHIP('SRR','None',#660,#12);
#12=ADVANCED_BREP_SHAPE_REPRESENTATION('',(#14),#652);
#13=STYLED_ITEM('',(#669),#14);
#14=MANIFOLD_SOLID_BREP('Body3',#409);
#15=FACE_BOUND('',#58,.T.);
#16=FACE_BOUND('',#59,.T.);
#17=FACE_BOUND('',#61,.T.);
#18=FACE_BOUND('',#62,.T.);
#19=FACE_OUTER_BOUND('',#39,.T.);
#20=FACE_OUTER_BOUND('',#40,.T.);
#21=FACE_OUTER_BOUND('',#41,.T.);
#22=FACE_OUTER_BOUND('',#42,.T.);
#23=FACE_OUTER_BOUND('',#43,.T.);
#24=FACE_OUTER_BOUND('',#44,.T.);
#25=FACE_OUTER_BOUND('',#45,.T.);
#26=FACE_OUTER_BOUND('',#46,.T.);
#27=FACE_OUTER_BOUND('',#47,.T.);
#28=FACE_OUTER_BOUND('',#48,.T.);
#29=FACE_OUTER_BOUND('',#49,.T.);
#30=FACE_OUTER_BOUND('',#50,.T.);
#31=FACE_OUTER_BOUND('',#51,.T.);
#32=FACE_OUTER_BOUND('',#52,.T.);
#33=FACE_OUTER_BOUND('',#53,.T.);
#34=FACE_OUTER_BOUND('',#54,.T.);
#35=FACE_OUTER_BOUND('',#55,.T.);
#36=FACE_OUTER_BOUND('',#56,.T.);
#37=FACE_OUTER_BOUND('',#57,.T.);
#38=FACE_OUTER_BOUND('',#60,.T.);
#39=EDGE_LOOP('',(#261,#262,#263,#264));
#40=EDGE_LOOP('',(#265,#266,#267,#268));
#41=EDGE_LOOP('',(#269,#270,#271,#272));
#42=EDGE_LOOP('',(#273,#274,#275,#276));
#43=EDGE_LOOP('',(#277,#278,#279,#280));
#44=EDGE_LOOP('',(#281,#282,#283,#284));
#45=EDGE_LOOP('',(#285,#286,#287,#288));
#46=EDGE_LOOP('',(#289,#290,#291,#292));
#47=EDGE_LOOP('',(#293,#294,#295,#296));
#48=EDGE_LOOP('',(#297,#298,#299,#300));
#49=EDGE_LOOP('',(#301,#302,#303,#304));
#50=EDGE_LOOP('',(#305,#306,#307,#308));
#51=EDGE_LOOP('',(#309,#310,#311,#312));
#52=EDGE_LOOP('',(#313,#314,#315,#316));
#53=EDGE_LOOP('',(#317,#318,#319,#320));
#54=EDGE_LOOP('',(#321,#322,#323,#324));
#55=EDGE_LOOP('',(#325,#326,#327,#328));
#56=EDGE_LOOP('',(#329,#330,#331,#332));
#57=EDGE_LOOP('',(#333,#334,#335,#336,#337,#338));
#58=EDGE_LOOP('',(#339,#340,#341,#342,#343,#344));
#59=EDGE_LOOP('',(#345,#346,#347,#348,#349,#350));
#60=EDGE_LOOP('',(#351,#352,#353,#354,#355,#356));
#61=EDGE_LOOP('',(#357,#358,#359,#360,#361,#362));
#62=EDGE_LOOP('',(#363,#364,#365,#366,#367,#368));
#63=LINE('',#543,#117);
#64=LINE('',#545,#118);
#65=LINE('',#547,#119);
#66=LINE('',#548,#120);
#67=LINE('',#551,#121);
#68=LINE('',#553,#122);
#69=LINE('',#554,#123);
#70=LINE('',#557,#124);
#71=LINE('',#559,#125);
#72=LINE('',#560,#126);
#73=LINE('',#563,#127);
#74=LINE('',#565,#128);
#75=LINE('',#566,#129);
#76=LINE('',#569,#130);
#77=LINE('',#571,#131);
#78=LINE('',#572,#132);
#79=LINE('',#574,#133);
#80=LINE('',#575,#134);
#81=LINE('',#579,#135);
#82=LINE('',#581,#136);
#83=LINE('',#583,#137);
#84=LINE('',#584,#138);
#85=LINE('',#587,#139);
#86=LINE('',#589,#140);
#87=LINE('',#590,#141);
#88=LINE('',#593,#142);
#89=LINE('',#595,#143);
#90=LINE('',#596,#144);
#91=LINE('',#599,#145);
#92=LINE('',#601,#146);
#93=LINE('',#602,#147);
#94=LINE('',#605,#148);
#95=LINE('',#607,#149);
#96=LINE('',#608,#150);
#97=LINE('',#610,#151);
#98=LINE('',#611,#152);
#99=LINE('',#615,#153);
#100=LINE('',#617,#154);
#101=LINE('',#619,#155);
#102=LINE('',#620,#156);
#103=LINE('',#623,#157);
#104=LINE('',#625,#158);
#105=LINE('',#626,#159);
#106=LINE('',#629,#160);
#107=LINE('',#631,#161);
#108=LINE('',#632,#162);
#109=LINE('',#635,#163);
#110=LINE('',#637,#164);
#111=LINE('',#638,#165);
#112=LINE('',#641,#166);
#113=LINE('',#643,#167);
#114=LINE('',#644,#168);
#115=LINE('',#646,#169);
#116=LINE('',#647,#170);
#117=VECTOR('',#447,10.);
#118=VECTOR('',#448,10.);
#119=VECTOR('',#449,10.);
#120=VECTOR('',#450,10.);
#121=VECTOR('',#453,10.);
#122=VECTOR('',#454,10.);
#123=VECTOR('',#455,10.);
#124=VECTOR('',#458,10.);
#125=VECTOR('',#459,10.);
#126=VECTOR('',#460,10.);
#127=VECTOR('',#463,10.);
#128=VECTOR('',#464,10.);
#129=VECTOR('',#465,10.);
#130=VECTOR('',#468,10.);
#131=VECTOR('',#469,10.);
#132=VECTOR('',#470,10.);
#133=VECTOR('',#473,10.);
#134=VECTOR('',#474,10.);
#135=VECTOR('',#477,10.);
#136=VECTOR('',#478,10.);
#137=VECTOR('',#479,10.);
#138=VECTOR('',#480,10.);
#139=VECTOR('',#483,10.);
#140=VECTOR('',#484,10.);
#141=VECTOR('',#485,10.);
#142=VECTOR('',#488,10.);
#143=VECTOR('',#489,10.);
#144=VECTOR('',#490,10.);
#145=VECTOR('',#493,10.);
#146=VECTOR('',#494,10.);
#147=VECTOR('',#495,10.);
#148=VECTOR('',#498,10.);
#149=VECTOR('',#499,10.);
#150=VECTOR('',#500,10.);
#151=VECTOR('',#503,10.);
#152=VECTOR('',#504,10.);
#153=VECTOR('',#507,10.);
#154=VECTOR('',#508,10.);
#155=VECTOR('',#509,10.);
#156=VECTOR('',#510,10.);
#157=VECTOR('',#513,10.);
#158=VECTOR('',#514,10.);
#159=VECTOR('',#515,10.);
#160=VECTOR('',#518,10.);
#161=VECTOR('',#519,10.);
#162=VECTOR('',#520,10.);
#163=VECTOR('',#523,10.);
#164=VECTOR('',#524,10.);
#165=VECTOR('',#525,10.);
#166=VECTOR('',#528,10.);
#167=VECTOR('',#529,10.);
#168=VECTOR('',#530,10.);
#169=VECTOR('',#533,10.);
#170=VECTOR('',#534,10.);
#171=VERTEX_POINT('',#541);
#172=VERTEX_POINT('',#542);
#173=VERTEX_POINT('',#544);
#174=VERTEX_POINT('',#546);
#175=VERTEX_POINT('',#550);
#176=VERTEX_POINT('',#552);
#177=VERTEX_POINT('',#556);
#178=VERTEX_POINT('',#558);
#179=VERTEX_POINT('',#562);
#180=VERTEX_POINT('',#564);
#181=VERTEX_POINT('',#568);
#182=VERTEX_POINT('',#570);
#183=VERTEX_POINT('',#577);
#184=VERTEX_POINT('',#578);
#185=VERTEX_POINT('',#580);
#186=VERTEX_POINT('',#582);
#187=VERTEX_POINT('',#586);
#188=VERTEX_POINT('',#588);
#189=VERTEX_POINT('',#592);
#190=VERTEX_POINT('',#594);
#191=VERTEX_POINT('',#598);
#192=VERTEX_POINT('',#600);
#193=VERTEX_POINT('',#604);
#194=VERTEX_POINT('',#606);
#195=VERTEX_POINT('',#613);
#196=VERTEX_POINT('',#614);
#197=VERTEX_POINT('',#616);
#198=VERTEX_POINT('',#618);
#199=VERTEX_POINT('',#622);
#200=VERTEX_POINT('',#624);
#201=VERTEX_POINT('',#628);
#202=VERTEX_POINT('',#630);
#203=VERTEX_POINT('',#634);
#204=VERTEX_POINT('',#636);
#205=VERTEX_POINT('',#640);
#206=VERTEX_POINT('',#642);
#207=EDGE_CURVE('',#171,#172,#63,.T.);
#208=EDGE_CURVE('',#172,#173,#64,.T.);
#209=EDGE_CURVE('',#174,#173,#65,.T.);
#210=EDGE_CURVE('',#171,#174,#66,.T.);
#211=EDGE_CURVE('',#175,#171,#67,.T.);
#212=EDGE_CURVE('',#176,#174,#68,.T.);
#213=EDGE_CURVE('',#175,#176,#69,.T.);
#214=EDGE_CURVE('',#177,#175,#70,.T.);
#215=EDGE_CURVE('',#178,#176,#71,.T.);
#216=EDGE_CURVE('',#177,#178,#72,.T.);
#217=EDGE_CURVE('',#179,#177,#73,.T.);
#218=EDGE_CURVE('',#180,#178,#74,.T.);
#219=EDGE_CURVE('',#179,#180,#75,.T.);
#220=EDGE_CURVE('',#181,#179,#76,.T.);
#221=EDGE_CURVE('',#182,#180,#77,.T.);
#222=EDGE_CURVE('',#181,#182,#78,.T.);
#223=EDGE_CURVE('',#172,#181,#79,.T.);
#224=EDGE_CURVE('',#173,#182,#80,.T.);
#225=EDGE_CURVE('',#183,#184,#81,.T.);
#226=EDGE_CURVE('',#184,#185,#82,.T.);
#227=EDGE_CURVE('',#186,#185,#83,.T.);
#228=EDGE_CURVE('',#183,#186,#84,.T.);
#229=EDGE_CURVE('',#187,#183,#85,.T.);
#230=EDGE_CURVE('',#188,#186,#86,.T.);
#231=EDGE_CURVE('',#187,#188,#87,.T.);
#232=EDGE_CURVE('',#189,#187,#88,.T.);
#233=EDGE_CURVE('',#190,#188,#89,.T.);
#234=EDGE_CURVE('',#189,#190,#90,.T.);
#235=EDGE_CURVE('',#191,#189,#91,.T.);
#236=EDGE_CURVE('',#192,#190,#92,.T.);
#237=EDGE_CURVE('',#191,#192,#93,.T.);
#238=EDGE_CURVE('',#193,#191,#94,.T.);
#239=EDGE_CURVE('',#194,#192,#95,.T.);
#240=EDGE_CURVE('',#193,#194,#96,.T.);
#241=EDGE_CURVE('',#184,#193,#97,.T.);
#242=EDGE_CURVE('',#185,#194,#98,.T.);
#243=EDGE_CURVE('',#195,#196,#99,.T.);
#244=EDGE_CURVE('',#195,#197,#100,.T.);
#245=EDGE_CURVE('',#198,#197,#101,.T.);
#246=EDGE_CURVE('',#196,#198,#102,.T.);
#247=EDGE_CURVE('',#199,#196,#103,.T.);
#248=EDGE_CURVE('',#200,#198,#104,.T.);
#249=EDGE_CURVE('',#199,#200,#105,.T.);
#250=EDGE_CURVE('',#199,#201,#106,.T.);
#251=EDGE_CURVE('',#202,#200,#107,.T.);
#252=EDGE_CURVE('',#201,#202,#108,.T.);
#253=EDGE_CURVE('',#203,#201,#109,.T.);
#254=EDGE_CURVE('',#204,#202,#110,.T.);
#255=EDGE_CURVE('',#203,#204,#111,.T.);
#256=EDGE_CURVE('',#205,#203,#112,.T.);
#257=EDGE_CURVE('',#206,#204,#113,.T.);
#258=EDGE_CURVE('',#205,#206,#114,.T.);
#259=EDGE_CURVE('',#195,#205,#115,.T.);
#260=EDGE_CURVE('',#197,#206,#116,.T.);
#261=ORIENTED_EDGE('',*,*,#207,.T.);
#262=ORIENTED_EDGE('',*,*,#208,.T.);
#263=ORIENTED_EDGE('',*,*,#209,.F.);
#264=ORIENTED_EDGE('',*,*,#210,.F.);
#265=ORIENTED_EDGE('',*,*,#211,.T.);
#266=ORIENTED_EDGE('',*,*,#210,.T.);
#267=ORIENTED_EDGE('',*,*,#212,.F.);
#268=ORIENTED_EDGE('',*,*,#213,.F.);
#269=ORIENTED_EDGE('',*,*,#214,.T.);
#270=ORIENTED_EDGE('',*,*,#213,.T.);
#271=ORIENTED_EDGE('',*,*,#215,.F.);
#272=ORIENTED_EDGE('',*,*,#216,.F.);
#273=ORIENTED_EDGE('',*,*,#217,.T.);
#274=ORIENTED_EDGE('',*,*,#216,.T.);
#275=ORIENTED_EDGE('',*,*,#218,.F.);
#276=ORIENTED_EDGE('',*,*,#219,.F.);
#277=ORIENTED_EDGE('',*,*,#220,.T.);
#278=ORIENTED_EDGE('',*,*,#219,.T.);
#279=ORIENTED_EDGE('',*,*,#221,.F.);
#280=ORIENTED_EDGE('',*,*,#222,.F.);
#281=ORIENTED_EDGE('',*,*,#223,.T.);
#282=ORIENTED_EDGE('',*,*,#222,.T.);
#283=ORIENTED_EDGE('',*,*,#224,.F.);
#284=ORIENTED_EDGE('',*,*,#208,.F.);
#285=ORIENTED_EDGE('',*,*,#225,.T.);
#286=ORIENTED_EDGE('',*,*,#226,.T.);
#287=ORIENTED_EDGE('',*,*,#227,.F.);
#288=ORIENTED_EDGE('',*,*,#228,.F.);
#289=ORIENTED_EDGE('',*,*,#229,.T.);
#290=ORIENTED_EDGE('',*,*,#228,.T.);
#291=ORIENTED_EDGE('',*,*,#230,.F.);
#292=ORIENTED_EDGE('',*,*,#231,.F.);
#293=ORIENTED_EDGE('',*,*,#232,.T.);
#294=ORIENTED_EDGE('',*,*,#231,.T.);
#295=ORIENTED_EDGE('',*,*,#233,.F.);
#296=ORIENTED_EDGE('',*,*,#234,.F.);
#297=ORIENTED_EDGE('',*,*,#235,.T.);
#298=ORIENTED_EDGE('',*,*,#234,.T.);
#299=ORIENTED_EDGE('',*,*,#236,.F.);
#300=ORIENTED_EDGE('',*,*,#237,.F.);
#301=ORIENTED_EDGE('',*,*,#238,.T.);
#302=ORIENTED_EDGE('',*,*,#237,.T.);
#303=ORIENTED_EDGE('',*,*,#239,.F.);
#304=ORIENTED_EDGE('',*,*,#240,.F.);
#305=ORIENTED_EDGE('',*,*,#241,.T.);
#306=ORIENTED_EDGE('',*,*,#240,.T.);
#307=ORIENTED_EDGE('',*,*,#242,.F.);
#308=ORIENTED_EDGE('',*,*,#226,.F.);
#309=ORIENTED_EDGE('',*,*,#243,.F.);
#310=ORIENTED_EDGE('',*,*,#244,.T.);
#311=ORIENTED_EDGE('',*,*,#245,.F.);
#312=ORIENTED_EDGE('',*,*,#246,.F.);
#313=ORIENTED_EDGE('',*,*,#247,.T.);
#314=ORIENTED_EDGE('',*,*,#246,.T.);
#315=ORIENTED_EDGE('',*,*,#248,.F.);
#316=ORIENTED_EDGE('',*,*,#249,.F.);
#317=ORIENTED_EDGE('',*,*,#250,.F.);
#318=ORIENTED_EDGE('',*,*,#249,.T.);
#319=ORIENTED_EDGE('',*,*,#251,.F.);
#320=ORIENTED_EDGE('',*,*,#252,.F.);
#321=ORIENTED_EDGE('',*,*,#253,.T.);
#322=ORIENTED_EDGE('',*,*,#252,.T.);
#323=ORIENTED_EDGE('',*,*,#254,.F.);
#324=ORIENTED_EDGE('',*,*,#255,.F.);
#325=ORIENTED_EDGE('',*,*,#256,.T.);
#326=ORIENTED_EDGE('',*,*,#255,.T.);
#327=ORIENTED_EDGE('',*,*,#257,.F.);
#328=ORIENTED_EDGE('',*,*,#258,.F.);
#329=ORIENTED_EDGE('',*,*,#259,.T.);
#330=ORIENTED_EDGE('',*,*,#258,.T.);
#331=ORIENTED_EDGE('',*,*,#260,.F.);
#332=ORIENTED_EDGE('',*,*,#244,.F.);
#333=ORIENTED_EDGE('',*,*,#260,.T.);
#334=ORIENTED_EDGE('',*,*,#257,.T.);
#335=ORIENTED_EDGE('',*,*,#254,.T.);
#336=ORIENTED_EDGE('',*,*,#251,.T.);
#337=ORIENTED_EDGE('',*,*,#248,.T.);
#338=ORIENTED_EDGE('',*,*,#245,.T.);
#339=ORIENTED_EDGE('',*,*,#242,.T.);
#340=ORIENTED_EDGE('',*,*,#239,.T.);
#341=ORIENTED_EDGE('',*,*,#236,.T.);
#342=ORIENTED_EDGE('',*,*,#233,.T.);
#343=ORIENTED_EDGE('',*,*,#230,.T.);
#344=ORIENTED_EDGE('',*,*,#227,.T.);
#345=ORIENTED_EDGE('',*,*,#224,.T.);
#346=ORIENTED_EDGE('',*,*,#221,.T.);
#347=ORIENTED_EDGE('',*,*,#218,.T.);
#348=ORIENTED_EDGE('',*,*,#215,.T.);
#349=ORIENTED_EDGE('',*,*,#212,.T.);
#350=ORIENTED_EDGE('',*,*,#209,.T.);
#351=ORIENTED_EDGE('',*,*,#259,.F.);
#352=ORIENTED_EDGE('',*,*,#243,.T.);
#353=ORIENTED_EDGE('',*,*,#247,.F.);
#354=ORIENTED_EDGE('',*,*,#250,.T.);
#355=ORIENTED_EDGE('',*,*,#253,.F.);
#356=ORIENTED_EDGE('',*,*,#256,.F.);
#357=ORIENTED_EDGE('',*,*,#241,.F.);
#358=ORIENTED_EDGE('',*,*,#225,.F.);
#359=ORIENTED_EDGE('',*,*,#229,.F.);
#360=ORIENTED_EDGE('',*,*,#232,.F.);
#361=ORIENTED_EDGE('',*,*,#235,.F.);
#362=ORIENTED_EDGE('',*,*,#238,.F.);
#363=ORIENTED_EDGE('',*,*,#223,.F.);
#364=ORIENTED_EDGE('',*,*,#207,.F.);
#365=ORIENTED_EDGE('',*,*,#211,.F.);
#366=ORIENTED_EDGE('',*,*,#214,.F.);
#367=ORIENTED_EDGE('',*,*,#217,.F.);
#368=ORIENTED_EDGE('',*,*,#220,.F.);
#369=PLANE('',#423);
#370=PLANE('',#424);
#371=PLANE('',#425);
#372=PLANE('',#426);
#373=PLANE('',#427);
#374=PLANE('',#428);
#375=PLANE('',#429);
#376=PLANE('',#430);
#377=PLANE('',#431);
#378=PLANE('',#432);
#379=PLANE('',#433);
#380=PLANE('',#434);
#381=PLANE('',#435);
#382=PLANE('',#436);
#383=PLANE('',#437);
#384=PLANE('',#438);
#385=PLANE('',#439);
#386=PLANE('',#440);
#387=PLANE('',#441);
#388=PLANE('',#442);
#389=ADVANCED_FACE('',(#19),#369,.T.);
#390=ADVANCED_FACE('',(#20),#370,.T.);
#391=ADVANCED_FACE('',(#21),#371,.T.);
#392=ADVANCED_FACE('',(#22),#372,.T.);
#393=ADVANCED_FACE('',(#23),#373,.T.);
#394=ADVANCED_FACE('',(#24),#374,.T.);
#395=ADVANCED_FACE('',(#25),#375,.T.);
#396=ADVANCED_FACE('',(#26),#376,.T.);
#397=ADVANCED_FACE('',(#27),#377,.T.);
#398=ADVANCED_FACE('',(#28),#378,.T.);
#399=ADVANCED_FACE('',(#29),#379,.T.);
#400=ADVANCED_FACE('',(#30),#380,.T.);
#401=ADVANCED_FACE('',(#31),#381,.T.);
#402=ADVANCED_FACE('',(#32),#382,.T.);
#403=ADVANCED_FACE('',(#33),#383,.T.);
#404=ADVANCED_FACE('',(#34),#384,.T.);
#405=ADVANCED_FACE('',(#35),#385,.T.);
#406=ADVANCED_FACE('',(#36),#386,.T.);
#407=ADVANCED_FACE('',(#37,#15,#16),#387,.T.);
#408=ADVANCED_FACE('',(#38,#17,#18),#388,.F.);
#409=CLOSED_SHELL('',(#389,#390,#391,#392,#393,#394,#395,#396,#397,#398,
#399,#400,#401,#402,#403,#404,#405,#406,#407,#408));
#410=DERIVED_UNIT_ELEMENT(#412,1.);
#411=DERIVED_UNIT_ELEMENT(#655,-3.);
#412=(
MASS_UNIT()
NAMED_UNIT(*)
SI_UNIT(.KILO.,.GRAM.)
);
#413=DERIVED_UNIT((#410,#411));
#414=MEASURE_REPRESENTATION_ITEM('density measure',
POSITIVE_RATIO_MEASURE(7850.),#413);
#415=PROPERTY_DEFINITION_REPRESENTATION(#420,#417);
#416=PROPERTY_DEFINITION_REPRESENTATION(#421,#418);
#417=REPRESENTATION('material name',(#419),#652);
#418=REPRESENTATION('density',(#414),#652);
#419=DESCRIPTIVE_REPRESENTATION_ITEM('Steel','Steel');
#420=PROPERTY_DEFINITION('material property','material name',#662);
#421=PROPERTY_DEFINITION('material property','density of part',#662);
#422=AXIS2_PLACEMENT_3D('',#539,#443,#444);
#423=AXIS2_PLACEMENT_3D('',#540,#445,#446);
#424=AXIS2_PLACEMENT_3D('',#549,#451,#452);
#425=AXIS2_PLACEMENT_3D('',#555,#456,#457);
#426=AXIS2_PLACEMENT_3D('',#561,#461,#462);
#427=AXIS2_PLACEMENT_3D('',#567,#466,#467);
#428=AXIS2_PLACEMENT_3D('',#573,#471,#472);
#429=AXIS2_PLACEMENT_3D('',#576,#475,#476);
#430=AXIS2_PLACEMENT_3D('',#585,#481,#482);
#431=AXIS2_PLACEMENT_3D('',#591,#486,#487);
#432=AXIS2_PLACEMENT_3D('',#597,#491,#492);
#433=AXIS2_PLACEMENT_3D('',#603,#496,#497);
#434=AXIS2_PLACEMENT_3D('',#609,#501,#502);
#435=AXIS2_PLACEMENT_3D('',#612,#505,#506);
#436=AXIS2_PLACEMENT_3D('',#621,#511,#512);
#437=AXIS2_PLACEMENT_3D('',#627,#516,#517);
#438=AXIS2_PLACEMENT_3D('',#633,#521,#522);
#439=AXIS2_PLACEMENT_3D('',#639,#526,#527);
#440=AXIS2_PLACEMENT_3D('',#645,#531,#532);
#441=AXIS2_PLACEMENT_3D('',#648,#535,#536);
#442=AXIS2_PLACEMENT_3D('',#649,#537,#538);
#443=DIRECTION('axis',(0.,0.,1.));
#444=DIRECTION('refdir',(1.,0.,0.));
#445=DIRECTION('center_axis',(-0.999988070279251,-0.00488459815956145,0.));
#446=DIRECTION('ref_axis',(0.00488459815956145,-0.999988070279251,0.));
#447=DIRECTION('',(0.00488459815956145,-0.999988070279251,0.));
#448=DIRECTION('',(0.,0.,1.));
#449=DIRECTION('',(0.00488459815956145,-0.999988070279251,0.));
#450=DIRECTION('',(0.,0.,1.));
#451=DIRECTION('center_axis',(-0.499473181272597,0.866329349144673,0.));
#452=DIRECTION('ref_axis',(-0.866329349144672,-0.499473181272597,0.));
#453=DIRECTION('',(-0.866329349144672,-0.499473181272597,0.));
#454=DIRECTION('',(-0.866329349144672,-0.499473181272597,0.));
#455=DIRECTION('',(0.,0.,1.));
#456=DIRECTION('center_axis',(-0.50306496390439,-0.864248599704897,0.));
#457=DIRECTION('ref_axis',(0.864248599704897,-0.50306496390439,0.));
#458=DIRECTION('',(0.864248599704897,-0.50306496390439,0.));
#459=DIRECTION('',(0.864248599704897,-0.50306496390439,0.));
#460=DIRECTION('',(0.,0.,1.));
#461=DIRECTION('center_axis',(0.500144245965455,-0.865942107318755,0.));
#462=DIRECTION('ref_axis',(0.865942107318755,0.500144245965455,0.));
#463=DIRECTION('',(0.865942107318755,0.500144245965455,0.));
#464=DIRECTION('',(0.865942107318755,0.500144245965455,0.));
#465=DIRECTION('',(0.,0.,1.));
#466=DIRECTION('center_axis',(1.,0.,0.));
#467=DIRECTION('ref_axis',(0.,1.,0.));
#468=DIRECTION('',(0.,1.,0.));
#469=DIRECTION('',(0.,1.,0.));
#470=DIRECTION('',(0.,0.,1.));
#471=DIRECTION('center_axis',(-0.4998854104949,0.866091551958767,0.));
#472=DIRECTION('ref_axis',(-0.866091551958767,-0.4998854104949,0.));
#473=DIRECTION('',(-0.866091551958767,-0.4998854104949,0.));
#474=DIRECTION('',(-0.866091551958767,-0.4998854104949,0.));
#475=DIRECTION('center_axis',(-1.,0.,0.));
#476=DIRECTION('ref_axis',(0.,-1.,0.));
#477=DIRECTION('',(0.,-1.,0.));
#478=DIRECTION('',(0.,0.,1.));
#479=DIRECTION('',(0.,-1.,0.));
#480=DIRECTION('',(0.,0.,1.));
#481=DIRECTION('center_axis',(0.500817541051233,-0.865552881443645,0.));
#482=DIRECTION('ref_axis',(0.865552881443645,0.500817541051233,0.));
#483=DIRECTION('',(0.865552881443645,0.500817541051232,0.));
#484=DIRECTION('',(0.865552881443645,0.500817541051232,0.));
#485=DIRECTION('',(0.,0.,1.));
#486=DIRECTION('center_axis',(1.,1.75947969481461E-16,0.));
#487=DIRECTION('ref_axis',(-1.75947969481461E-16,1.,0.));
#488=DIRECTION('',(-1.75947969481461E-16,1.,0.));
#489=DIRECTION('',(-1.75947969481461E-16,1.,0.));
#490=DIRECTION('',(0.,0.,1.));
#491=DIRECTION('center_axis',(0.499645781069748,-0.86622981561431,0.));
#492=DIRECTION('ref_axis',(0.86622981561431,0.499645781069748,0.));
#493=DIRECTION('',(0.86622981561431,0.499645781069748,0.));
#494=DIRECTION('',(0.86622981561431,0.499645781069748,0.));
#495=DIRECTION('',(0.,0.,1.));
#496=DIRECTION('center_axis',(0.500144245965456,0.865942107318755,0.));
#497=DIRECTION('ref_axis',(-0.865942107318755,0.500144245965456,0.));
#498=DIRECTION('',(-0.865942107318755,0.500144245965456,0.));
#499=DIRECTION('',(-0.865942107318755,0.500144245965456,0.));
#500=DIRECTION('',(0.,0.,1.));
#501=DIRECTION('center_axis',(-0.50015518111612,0.865935791385655,0.));
#502=DIRECTION('ref_axis',(-0.865935791385655,-0.50015518111612,0.));
#503=DIRECTION('',(-0.865935791385655,-0.50015518111612,0.));
#504=DIRECTION('',(-0.865935791385655,-0.50015518111612,0.));
#505=DIRECTION('center_axis',(-0.500002066333193,0.866024210783127,0.));
#506=DIRECTION('ref_axis',(-0.866024210783127,-0.500002066333193,0.));
#507=DIRECTION('',(0.866024210783127,0.500002066333193,0.));
#508=DIRECTION('',(0.,0.,1.));
#509=DIRECTION('',(-0.866024210783127,-0.500002066333193,0.));
#510=DIRECTION('',(0.,0.,1.));
#511=DIRECTION('center_axis',(0.500008834394602,0.866020303184256,0.));
#512=DIRECTION('ref_axis',(-0.866020303184256,0.500008834394602,0.));
#513=DIRECTION('',(-0.866020303184256,0.500008834394602,0.));
#514=DIRECTION('',(-0.866020303184256,0.500008834394602,0.));
#515=DIRECTION('',(0.,0.,1.));
#516=DIRECTION('center_axis',(1.,0.,0.));
#517=DIRECTION('ref_axis',(0.,1.,0.));
#518=DIRECTION('',(0.,-1.,0.));
#519=DIRECTION('',(0.,1.,0.));
#520=DIRECTION('',(0.,0.,1.));
#521=DIRECTION('center_axis',(0.500008834551115,-0.866020303093892,0.));
#522=DIRECTION('ref_axis',(0.866020303093892,0.500008834551115,0.));
#523=DIRECTION('',(0.866020303093892,0.500008834551115,0.));
#524=DIRECTION('',(0.866020303093892,0.500008834551115,0.));
#525=DIRECTION('',(0.,0.,1.));
#526=DIRECTION('center_axis',(-0.500002066489704,-0.866024210692764,0.));
#527=DIRECTION('ref_axis',(0.866024210692764,-0.500002066489704,0.));
#528=DIRECTION('',(0.866024210692764,-0.500002066489704,0.));
#529=DIRECTION('',(0.866024210692764,-0.500002066489704,0.));
#530=DIRECTION('',(0.,0.,1.));
#531=DIRECTION('center_axis',(-1.,6.71567841378317E-17,0.));
#532=DIRECTION('ref_axis',(-6.71567841378317E-17,-1.,0.));
#533=DIRECTION('',(-6.71567841378317E-17,-1.,0.));
#534=DIRECTION('',(-6.71567841378317E-17,-1.,0.));
#535=DIRECTION('center_axis',(0.,0.,1.));
#536=DIRECTION('ref_axis',(1.,0.,0.));
#537=DIRECTION('center_axis',(0.,0.,1.));
#538=DIRECTION('ref_axis',(1.,0.,0.));
#539=CARTESIAN_POINT('',(0.,0.,0.));
#540=CARTESIAN_POINT('Origin',(16.2638427734375,-47.2611979166667,17.));
#541=CARTESIAN_POINT('',(16.2638427734375,-47.2611979166667,17.));
#542=CARTESIAN_POINT('',(16.3868326822917,-72.4400227864583,17.));
#543=CARTESIAN_POINT('',(16.2638427734375,-47.2611979166667,17.));
#544=CARTESIAN_POINT('',(16.3868326822917,-72.4400227864583,22.));
#545=CARTESIAN_POINT('',(16.3868326822917,-72.4400227864583,17.));
#546=CARTESIAN_POINT('',(16.2638427734375,-47.2611979166667,22.));
#547=CARTESIAN_POINT('',(16.2638427734375,-47.2611979166667,22.));
#548=CARTESIAN_POINT('',(16.2638427734375,-47.2611979166667,17.));
#549=CARTESIAN_POINT('Origin',(40.833321640546,-33.0959202609109,17.));
#550=CARTESIAN_POINT('',(40.833321640546,-33.0959202609109,17.));
#551=CARTESIAN_POINT('',(16.2638427734375,-47.2611979166667,17.));
#552=CARTESIAN_POINT('',(40.833321640546,-33.0959202609109,22.));
#553=CARTESIAN_POINT('',(16.2638427734375,-47.2611979166667,22.));
#554=CARTESIAN_POINT('',(40.833321640546,-33.0959202609109,17.));
#555=CARTESIAN_POINT('Origin',(27.2657552083333,-25.1984619140625,17.));
#556=CARTESIAN_POINT('',(27.2657552083333,-25.1984619140625,17.));
#557=CARTESIAN_POINT('',(27.2657552083333,-25.1984619140625,17.));
#558=CARTESIAN_POINT('',(27.2657552083333,-25.1984619140625,22.));
#559=CARTESIAN_POINT('',(27.2657552083333,-25.1984619140625,22.));
#560=CARTESIAN_POINT('',(27.2657552083333,-25.1984619140625,17.));
#561=CARTESIAN_POINT('Origin',(-8.1811767578125,-45.671630859375,17.));
#562=CARTESIAN_POINT('',(-8.1811767578125,-45.671630859375,17.));
#563=CARTESIAN_POINT('',(-8.1811767578125,-45.671630859375,17.));
#564=CARTESIAN_POINT('',(-8.1811767578125,-45.671630859375,22.));
#565=CARTESIAN_POINT('',(-8.1811767578125,-45.671630859375,22.));
#566=CARTESIAN_POINT('',(-8.1811767578125,-45.671630859375,17.));
#567=CARTESIAN_POINT('Origin',(-8.1811767578125,-86.6200358072917,17.));
#568=CARTESIAN_POINT('',(-8.1811767578125,-86.6200358072917,17.));
#569=CARTESIAN_POINT('',(-8.1811767578125,-86.6200358072917,17.));
#570=CARTESIAN_POINT('',(-8.1811767578125,-86.6200358072917,22.));
#571=CARTESIAN_POINT('',(-8.1811767578125,-86.6200358072917,22.));
#572=CARTESIAN_POINT('',(-8.1811767578125,-86.6200358072917,17.));
#573=CARTESIAN_POINT('Origin',(16.3868326822917,-72.4400227864583,17.));
#574=CARTESIAN_POINT('',(-8.1811767578125,-86.6200358072917,17.));
#575=CARTESIAN_POINT('',(-8.1811767578125,-86.6200358072917,22.));
#576=CARTESIAN_POINT('Origin',(62.7116536458333,-45.671630859375,17.));
#577=CARTESIAN_POINT('',(62.7116536458333,-45.671630859375,17.));
#578=CARTESIAN_POINT('',(62.7116536458333,-86.6200358072917,17.));
#579=CARTESIAN_POINT('',(62.7116536458333,-86.6200358072917,17.));
#580=CARTESIAN_POINT('',(62.7116536458333,-86.6200358072917,22.));
#581=CARTESIAN_POINT('',(62.7116536458333,-86.6200358072917,17.));
#582=CARTESIAN_POINT('',(62.7116536458333,-45.671630859375,22.));
#583=CARTESIAN_POINT('',(62.7116536458333,-86.6200358072917,22.));
#584=CARTESIAN_POINT('',(62.7116536458333,-45.671630859375,17.));
#585=CARTESIAN_POINT('Origin',(38.2046223958333,-59.8516438802083,17.));
#586=CARTESIAN_POINT('',(38.2046223958333,-59.8516438802083,17.));
#587=CARTESIAN_POINT('',(62.7116536458333,-45.671630859375,17.));
#588=CARTESIAN_POINT('',(38.2046223958333,-59.8516438802083,22.));
#589=CARTESIAN_POINT('',(62.7116536458333,-45.671630859375,22.));
#590=CARTESIAN_POINT('',(38.2046223958333,-59.8516438802083,17.));
#591=CARTESIAN_POINT('Origin',(38.2046223958333,-85.0914469401042,17.));
#592=CARTESIAN_POINT('',(38.2046223958333,-85.0914469401042,17.));
#593=CARTESIAN_POINT('',(38.2046223958333,-85.0914469401042,17.));
#594=CARTESIAN_POINT('',(38.2046223958333,-85.0914469401042,22.));
#595=CARTESIAN_POINT('',(38.2046223958333,-85.0914469401042,22.));
#596=CARTESIAN_POINT('',(38.2046223958333,-85.0914469401042,17.));
#597=CARTESIAN_POINT('Origin',(13.6721400266487,-99.2419080463619,17.));
#598=CARTESIAN_POINT('',(13.6721400266487,-99.2419080463619,17.));
#599=CARTESIAN_POINT('',(38.2046223958333,-85.0914469401042,17.));
#600=CARTESIAN_POINT('',(13.6721400266487,-99.2419080463619,22.));
#601=CARTESIAN_POINT('',(38.2046223958333,-85.0914469401042,22.));
#602=CARTESIAN_POINT('',(13.6721400266487,-99.2419080463619,17.));
#603=CARTESIAN_POINT('Origin',(27.2657552083333,-107.093204752604,17.));
#604=CARTESIAN_POINT('',(27.2657552083333,-107.093204752604,17.));
#605=CARTESIAN_POINT('',(27.2657552083333,-107.093204752604,17.));
#606=CARTESIAN_POINT('',(27.2657552083333,-107.093204752604,22.));
#607=CARTESIAN_POINT('',(27.2657552083333,-107.093204752604,22.));
#608=CARTESIAN_POINT('',(27.2657552083333,-107.093204752604,17.));
#609=CARTESIAN_POINT('Origin',(62.7116536458333,-86.6200358072917,17.));
#610=CARTESIAN_POINT('',(27.2657552083333,-107.093204752604,17.));
#611=CARTESIAN_POINT('',(27.2657552083333,-107.093204752604,22.));
#612=CARTESIAN_POINT('Origin',(27.2657552083333,-0.0196370580699323,17.));
#613=CARTESIAN_POINT('',(-30.,-33.0822184244792,17.));
#614=CARTESIAN_POINT('',(27.2657552083333,-0.0196370580699279,17.));
#615=CARTESIAN_POINT('',(-30.,-33.0822184244792,17.));
#616=CARTESIAN_POINT('',(-30.,-33.0822184244792,22.));
#617=CARTESIAN_POINT('',(-30.,-33.0822184244792,17.));
#618=CARTESIAN_POINT('',(27.2657552083333,-0.0196370580699323,22.));
#619=CARTESIAN_POINT('',(-30.,-33.0822184244792,22.));
#620=CARTESIAN_POINT('',(27.2657552083333,-0.0196370580699279,17.));
#621=CARTESIAN_POINT('Origin',(84.5304768880209,-33.0822184244792,17.));
#622=CARTESIAN_POINT('',(84.5304768880209,-33.0822184244792,17.));
#623=CARTESIAN_POINT('',(84.5304768880209,-33.0822184244792,17.));
#624=CARTESIAN_POINT('',(84.5304768880209,-33.0822184244792,22.));
#625=CARTESIAN_POINT('',(84.5304768880209,-33.0822184244792,22.));
#626=CARTESIAN_POINT('',(84.5304768880209,-33.0822184244792,17.));
#627=CARTESIAN_POINT('Origin',(84.5304768880209,-99.2094482421875,17.));
#628=CARTESIAN_POINT('',(84.5304768880209,-99.2094482421875,17.));
#629=CARTESIAN_POINT('',(84.5304768880209,-33.0822184244792,17.));
#630=CARTESIAN_POINT('',(84.5304768880209,-99.2094482421875,22.));
#631=CARTESIAN_POINT('',(84.5304768880209,-33.0822184244792,22.));
#632=CARTESIAN_POINT('',(84.5304768880209,-99.2094482421875,17.));
#633=CARTESIAN_POINT('Origin',(27.2657552083333,-132.272029622396,17.));
#634=CARTESIAN_POINT('',(27.2657552083333,-132.272029622396,17.));
#635=CARTESIAN_POINT('',(27.2657552083333,-132.272029622396,17.));
#636=CARTESIAN_POINT('',(27.2657552083333,-132.272029622396,22.));
#637=CARTESIAN_POINT('',(27.2657552083333,-132.272029622396,22.));
#638=CARTESIAN_POINT('',(27.2657552083333,-132.272029622396,17.));
#639=CARTESIAN_POINT('Origin',(-30.,-99.2094482421875,17.));
#640=CARTESIAN_POINT('',(-30.,-99.2094482421875,17.));
#641=CARTESIAN_POINT('',(-30.,-99.2094482421875,17.));
#642=CARTESIAN_POINT('',(-30.,-99.2094482421875,22.));
#643=CARTESIAN_POINT('',(-30.,-99.2094482421875,22.));
#644=CARTESIAN_POINT('',(-30.,-99.2094482421875,17.));
#645=CARTESIAN_POINT('Origin',(-30.,-33.0822184244792,17.));
#646=CARTESIAN_POINT('',(-30.,-33.0822184244792,17.));
#647=CARTESIAN_POINT('',(-30.,-33.0822184244792,22.));
#648=CARTESIAN_POINT('Origin',(27.2652384440104,-66.1458333402329,22.));
#649=CARTESIAN_POINT('Origin',(27.2652384440104,-66.1458333402329,17.));
#650=UNCERTAINTY_MEASURE_WITH_UNIT(LENGTH_MEASURE(0.01),#654,
'DISTANCE_ACCURACY_VALUE',
'Maximum model space distance between geometric entities at asserted c
onnectivities');
#651=UNCERTAINTY_MEASURE_WITH_UNIT(LENGTH_MEASURE(0.01),#654,
'DISTANCE_ACCURACY_VALUE',
'Maximum model space distance between geometric entities at asserted c
onnectivities');
#652=(
GEOMETRIC_REPRESENTATION_CONTEXT(3)
GLOBAL_UNCERTAINTY_ASSIGNED_CONTEXT((#650))
GLOBAL_UNIT_ASSIGNED_CONTEXT((#654,#656,#657))
REPRESENTATION_CONTEXT('','3D')
);
#653=(
GEOMETRIC_REPRESENTATION_CONTEXT(3)
GLOBAL_UNCERTAINTY_ASSIGNED_CONTEXT((#651))
GLOBAL_UNIT_ASSIGNED_CONTEXT((#654,#656,#657))
REPRESENTATION_CONTEXT('','3D')
);
#654=(
LENGTH_UNIT()
NAMED_UNIT(*)
SI_UNIT(.MILLI.,.METRE.)
);
#655=(
LENGTH_UNIT()
NAMED_UNIT(*)
SI_UNIT($,.METRE.)
);
#656=(
NAMED_UNIT(*)
PLANE_ANGLE_UNIT()
SI_UNIT($,.RADIAN.)
);
#657=(
NAMED_UNIT(*)
SI_UNIT($,.STERADIAN.)
SOLID_ANGLE_UNIT()
);
#658=SHAPE_DEFINITION_REPRESENTATION(#659,#660);
#659=PRODUCT_DEFINITION_SHAPE('',$,#662);
#660=SHAPE_REPRESENTATION('',(#422),#652);
#661=PRODUCT_DEFINITION_CONTEXT('part definition',#666,'design');
#662=PRODUCT_DEFINITION('Logo','Logo v2',#663,#661);
#663=PRODUCT_DEFINITION_FORMATION('',$,#668);
#664=PRODUCT_RELATED_PRODUCT_CATEGORY('Logo v2','Logo v2',(#668));
#665=APPLICATION_PROTOCOL_DEFINITION('international standard',
'automotive_design',2009,#666);
#666=APPLICATION_CONTEXT(
'Core Data for Automotive Mechanical Design Process');
#667=PRODUCT_CONTEXT('part definition',#666,'mechanical');
#668=PRODUCT('Logo','Logo v2',$,(#667));
#669=PRESENTATION_STYLE_ASSIGNMENT((#670));
#670=SURFACE_STYLE_USAGE(.BOTH.,#671);
#671=SURFACE_SIDE_STYLE('',(#672));
#672=SURFACE_STYLE_FILL_AREA(#673);
#673=FILL_AREA_STYLE('Steel - Satin',(#674));
#674=FILL_AREA_STYLE_COLOUR('Steel - Satin',#675);
#675=COLOUR_RGB('Steel - Satin',0.627450980392157,0.627450980392157,0.627450980392157);
ENDSEC;
END-ISO-10303-21;
