ISO-10303-21;
HEADER;
/* Generated by software containing ST-Developer
 * from STEP Tools, Inc. (www.steptools.com) 
 */

FILE_DESCRIPTION(
/* description */ (''),
/* implementation_level */ '2;1');

FILE_NAME(
/* name */ 'v8 v1.step',
/* time_stamp */ '2026-03-14T09:51:42+01:00',
/* author */ (''),
/* organization */ (''),
/* preprocessor_version */ 'ST-DEVELOPER v20.1',
/* originating_system */ 'Autodesk Translation Framework v14.24.0.0',
/* authorisation */ '');

FILE_SCHEMA (('AUTOMOTIVE_DESIGN { 1 0 10303 214 3 1 1 }'));
ENDSEC;

DATA;
#10=MECHANICAL_DESIGN_GEOMETRIC_PRESENTATION_REPRESENTATION('',(#13),#515);
#11=SHAPE_REPRESENTATION_RELATIONSHIP('SRR','None',#522,#12);
#12=ADVANCED_BREP_SHAPE_REPRESENTATION('',(#14),#514);
#13=STYLED_ITEM('',(#532),#14);
#14=MANIFOLD_SOLID_BREP('Body1',#295);
#15=FACE_BOUND('',#67,.T.);
#16=FACE_BOUND('',#68,.T.);
#17=FACE_BOUND('',#69,.T.);
#18=FACE_BOUND('',#70,.T.);
#19=FACE_BOUND('',#71,.T.);
#20=FACE_BOUND('',#72,.T.);
#21=FACE_BOUND('',#73,.T.);
#22=FACE_BOUND('',#74,.T.);
#23=FACE_BOUND('',#75,.T.);
#24=FACE_BOUND('',#76,.T.);
#25=FACE_BOUND('',#77,.T.);
#26=FACE_BOUND('',#79,.T.);
#27=FACE_BOUND('',#80,.T.);
#28=FACE_BOUND('',#81,.T.);
#29=FACE_BOUND('',#82,.T.);
#30=FACE_BOUND('',#83,.T.);
#31=FACE_BOUND('',#84,.T.);
#32=FACE_BOUND('',#85,.T.);
#33=FACE_BOUND('',#86,.T.);
#34=FACE_BOUND('',#87,.T.);
#35=FACE_BOUND('',#88,.T.);
#36=FACE_BOUND('',#89,.T.);
#37=PLANE('',#345);
#38=PLANE('',#346);
#39=CONICAL_SURFACE('',#330,30.,0.785398163397448);
#40=FACE_OUTER_BOUND('',#54,.T.);
#41=FACE_OUTER_BOUND('',#55,.T.);
#42=FACE_OUTER_BOUND('',#56,.T.);
#43=FACE_OUTER_BOUND('',#57,.T.);
#44=FACE_OUTER_BOUND('',#58,.T.);
#45=FACE_OUTER_BOUND('',#59,.T.);
#46=FACE_OUTER_BOUND('',#60,.T.);
#47=FACE_OUTER_BOUND('',#61,.T.);
#48=FACE_OUTER_BOUND('',#62,.T.);
#49=FACE_OUTER_BOUND('',#63,.T.);
#50=FACE_OUTER_BOUND('',#64,.T.);
#51=FACE_OUTER_BOUND('',#65,.T.);
#52=FACE_OUTER_BOUND('',#66,.T.);
#53=FACE_OUTER_BOUND('',#78,.T.);
#54=EDGE_LOOP('',(#198,#199,#200,#201));
#55=EDGE_LOOP('',(#202,#203,#204,#205));
#56=EDGE_LOOP('',(#206,#207,#208,#209));
#57=EDGE_LOOP('',(#210,#211,#212,#213));
#58=EDGE_LOOP('',(#214,#215,#216,#217));
#59=EDGE_LOOP('',(#218,#219,#220,#221));
#60=EDGE_LOOP('',(#222,#223,#224,#225));
#61=EDGE_LOOP('',(#226,#227,#228,#229));
#62=EDGE_LOOP('',(#230,#231,#232,#233));
#63=EDGE_LOOP('',(#234,#235,#236,#237));
#64=EDGE_LOOP('',(#238,#239,#240,#241));
#65=EDGE_LOOP('',(#242,#243,#244,#245));
#66=EDGE_LOOP('',(#246));
#67=EDGE_LOOP('',(#247));
#68=EDGE_LOOP('',(#248));
#69=EDGE_LOOP('',(#249));
#70=EDGE_LOOP('',(#250));
#71=EDGE_LOOP('',(#251));
#72=EDGE_LOOP('',(#252));
#73=EDGE_LOOP('',(#253));
#74=EDGE_LOOP('',(#254));
#75=EDGE_LOOP('',(#255));
#76=EDGE_LOOP('',(#256));
#77=EDGE_LOOP('',(#257));
#78=EDGE_LOOP('',(#258));
#79=EDGE_LOOP('',(#259));
#80=EDGE_LOOP('',(#260));
#81=EDGE_LOOP('',(#261));
#82=EDGE_LOOP('',(#262));
#83=EDGE_LOOP('',(#263));
#84=EDGE_LOOP('',(#264));
#85=EDGE_LOOP('',(#265));
#86=EDGE_LOOP('',(#266));
#87=EDGE_LOOP('',(#267));
#88=EDGE_LOOP('',(#268));
#89=EDGE_LOOP('',(#269));
#90=LINE('',#442,#102);
#91=LINE('',#448,#103);
#92=LINE('',#454,#104);
#93=LINE('',#460,#105);
#94=LINE('',#466,#106);
#95=LINE('',#472,#107);
#96=LINE('',#478,#108);
#97=LINE('',#484,#109);
#98=LINE('',#490,#110);
#99=LINE('',#496,#111);
#100=LINE('',#502,#112);
#101=LINE('',#508,#113);
#102=VECTOR('',#353,3.99999999999999);
#103=VECTOR('',#360,4.);
#104=VECTOR('',#367,4.00000000000002);
#105=VECTOR('',#374,3.99999999999999);
#106=VECTOR('',#381,3.99999999999999);
#107=VECTOR('',#388,3.99999999999999);
#108=VECTOR('',#395,3.99999999999998);
#109=VECTOR('',#402,30.);
#110=VECTOR('',#409,79.);
#111=VECTOR('',#416,8.5);
#112=VECTOR('',#423,8.5);
#113=VECTOR('',#430,8.5);
#114=CIRCLE('',#310,3.99999999999999);
#115=CIRCLE('',#311,3.99999999999999);
#116=CIRCLE('',#313,4.);
#117=CIRCLE('',#314,4.);
#118=CIRCLE('',#316,4.00000000000002);
#119=CIRCLE('',#317,4.00000000000002);
#120=CIRCLE('',#319,3.99999999999999);
#121=CIRCLE('',#320,3.99999999999999);
#122=CIRCLE('',#322,3.99999999999999);
#123=CIRCLE('',#323,3.99999999999999);
#124=CIRCLE('',#325,3.99999999999999);
#125=CIRCLE('',#326,3.99999999999999);
#126=CIRCLE('',#328,3.99999999999998);
#127=CIRCLE('',#329,3.99999999999998);
#128=CIRCLE('',#331,20.);
#129=CIRCLE('',#332,40.);
#130=CIRCLE('',#334,79.);
#131=CIRCLE('',#335,79.);
#132=CIRCLE('',#337,8.5);
#133=CIRCLE('',#338,8.5);
#134=CIRCLE('',#340,8.5);
#135=CIRCLE('',#341,8.5);
#136=CIRCLE('',#343,8.5);
#137=CIRCLE('',#344,8.5);
#138=VERTEX_POINT('',#439);
#139=VERTEX_POINT('',#441);
#140=VERTEX_POINT('',#445);
#141=VERTEX_POINT('',#447);
#142=VERTEX_POINT('',#451);
#143=VERTEX_POINT('',#453);
#144=VERTEX_POINT('',#457);
#145=VERTEX_POINT('',#459);
#146=VERTEX_POINT('',#463);
#147=VERTEX_POINT('',#465);
#148=VERTEX_POINT('',#469);
#149=VERTEX_POINT('',#471);
#150=VERTEX_POINT('',#475);
#151=VERTEX_POINT('',#477);
#152=VERTEX_POINT('',#481);
#153=VERTEX_POINT('',#483);
#154=VERTEX_POINT('',#487);
#155=VERTEX_POINT('',#489);
#156=VERTEX_POINT('',#493);
#157=VERTEX_POINT('',#495);
#158=VERTEX_POINT('',#499);
#159=VERTEX_POINT('',#501);
#160=VERTEX_POINT('',#505);
#161=VERTEX_POINT('',#507);
#162=EDGE_CURVE('',#138,#138,#114,.T.);
#163=EDGE_CURVE('',#138,#139,#90,.T.);
#164=EDGE_CURVE('',#139,#139,#115,.T.);
#165=EDGE_CURVE('',#140,#140,#116,.T.);
#166=EDGE_CURVE('',#140,#141,#91,.T.);
#167=EDGE_CURVE('',#141,#141,#117,.T.);
#168=EDGE_CURVE('',#142,#142,#118,.T.);
#169=EDGE_CURVE('',#142,#143,#92,.T.);
#170=EDGE_CURVE('',#143,#143,#119,.T.);
#171=EDGE_CURVE('',#144,#144,#120,.T.);
#172=EDGE_CURVE('',#144,#145,#93,.T.);
#173=EDGE_CURVE('',#145,#145,#121,.T.);
#174=EDGE_CURVE('',#146,#146,#122,.T.);
#175=EDGE_CURVE('',#146,#147,#94,.T.);
#176=EDGE_CURVE('',#147,#147,#123,.T.);
#177=EDGE_CURVE('',#148,#148,#124,.T.);
#178=EDGE_CURVE('',#148,#149,#95,.T.);
#179=EDGE_CURVE('',#149,#149,#125,.T.);
#180=EDGE_CURVE('',#150,#150,#126,.T.);
#181=EDGE_CURVE('',#150,#151,#96,.T.);
#182=EDGE_CURVE('',#151,#151,#127,.T.);
#183=EDGE_CURVE('',#152,#152,#128,.T.);
#184=EDGE_CURVE('',#152,#153,#97,.T.);
#185=EDGE_CURVE('',#153,#153,#129,.T.);
#186=EDGE_CURVE('',#154,#154,#130,.T.);
#187=EDGE_CURVE('',#154,#155,#98,.T.);
#188=EDGE_CURVE('',#155,#155,#131,.T.);
#189=EDGE_CURVE('',#156,#156,#132,.T.);
#190=EDGE_CURVE('',#156,#157,#99,.T.);
#191=EDGE_CURVE('',#157,#157,#133,.T.);
#192=EDGE_CURVE('',#158,#158,#134,.T.);
#193=EDGE_CURVE('',#158,#159,#100,.T.);
#194=EDGE_CURVE('',#159,#159,#135,.T.);
#195=EDGE_CURVE('',#160,#160,#136,.T.);
#196=EDGE_CURVE('',#160,#161,#101,.T.);
#197=EDGE_CURVE('',#161,#161,#137,.T.);
#198=ORIENTED_EDGE('',*,*,#162,.T.);
#199=ORIENTED_EDGE('',*,*,#163,.T.);
#200=ORIENTED_EDGE('',*,*,#164,.T.);
#201=ORIENTED_EDGE('',*,*,#163,.F.);
#202=ORIENTED_EDGE('',*,*,#165,.T.);
#203=ORIENTED_EDGE('',*,*,#166,.T.);
#204=ORIENTED_EDGE('',*,*,#167,.T.);
#205=ORIENTED_EDGE('',*,*,#166,.F.);
#206=ORIENTED_EDGE('',*,*,#168,.T.);
#207=ORIENTED_EDGE('',*,*,#169,.T.);
#208=ORIENTED_EDGE('',*,*,#170,.T.);
#209=ORIENTED_EDGE('',*,*,#169,.F.);
#210=ORIENTED_EDGE('',*,*,#171,.T.);
#211=ORIENTED_EDGE('',*,*,#172,.T.);
#212=ORIENTED_EDGE('',*,*,#173,.T.);
#213=ORIENTED_EDGE('',*,*,#172,.F.);
#214=ORIENTED_EDGE('',*,*,#174,.T.);
#215=ORIENTED_EDGE('',*,*,#175,.T.);
#216=ORIENTED_EDGE('',*,*,#176,.T.);
#217=ORIENTED_EDGE('',*,*,#175,.F.);
#218=ORIENTED_EDGE('',*,*,#177,.T.);
#219=ORIENTED_EDGE('',*,*,#178,.T.);
#220=ORIENTED_EDGE('',*,*,#179,.T.);
#221=ORIENTED_EDGE('',*,*,#178,.F.);
#222=ORIENTED_EDGE('',*,*,#180,.T.);
#223=ORIENTED_EDGE('',*,*,#181,.T.);
#224=ORIENTED_EDGE('',*,*,#182,.T.);
#225=ORIENTED_EDGE('',*,*,#181,.F.);
#226=ORIENTED_EDGE('',*,*,#183,.T.);
#227=ORIENTED_EDGE('',*,*,#184,.T.);
#228=ORIENTED_EDGE('',*,*,#185,.T.);
#229=ORIENTED_EDGE('',*,*,#184,.F.);
#230=ORIENTED_EDGE('',*,*,#186,.F.);
#231=ORIENTED_EDGE('',*,*,#187,.T.);
#232=ORIENTED_EDGE('',*,*,#188,.F.);
#233=ORIENTED_EDGE('',*,*,#187,.F.);
#234=ORIENTED_EDGE('',*,*,#189,.F.);
#235=ORIENTED_EDGE('',*,*,#190,.T.);
#236=ORIENTED_EDGE('',*,*,#191,.F.);
#237=ORIENTED_EDGE('',*,*,#190,.F.);
#238=ORIENTED_EDGE('',*,*,#192,.F.);
#239=ORIENTED_EDGE('',*,*,#193,.T.);
#240=ORIENTED_EDGE('',*,*,#194,.F.);
#241=ORIENTED_EDGE('',*,*,#193,.F.);
#242=ORIENTED_EDGE('',*,*,#195,.F.);
#243=ORIENTED_EDGE('',*,*,#196,.T.);
#244=ORIENTED_EDGE('',*,*,#197,.F.);
#245=ORIENTED_EDGE('',*,*,#196,.F.);
#246=ORIENTED_EDGE('',*,*,#186,.T.);
#247=ORIENTED_EDGE('',*,*,#195,.T.);
#248=ORIENTED_EDGE('',*,*,#192,.T.);
#249=ORIENTED_EDGE('',*,*,#189,.T.);
#250=ORIENTED_EDGE('',*,*,#185,.F.);
#251=ORIENTED_EDGE('',*,*,#162,.F.);
#252=ORIENTED_EDGE('',*,*,#165,.F.);
#253=ORIENTED_EDGE('',*,*,#168,.F.);
#254=ORIENTED_EDGE('',*,*,#171,.F.);
#255=ORIENTED_EDGE('',*,*,#174,.F.);
#256=ORIENTED_EDGE('',*,*,#177,.F.);
#257=ORIENTED_EDGE('',*,*,#180,.F.);
#258=ORIENTED_EDGE('',*,*,#188,.T.);
#259=ORIENTED_EDGE('',*,*,#197,.T.);
#260=ORIENTED_EDGE('',*,*,#194,.T.);
#261=ORIENTED_EDGE('',*,*,#191,.T.);
#262=ORIENTED_EDGE('',*,*,#183,.F.);
#263=ORIENTED_EDGE('',*,*,#164,.F.);
#264=ORIENTED_EDGE('',*,*,#167,.F.);
#265=ORIENTED_EDGE('',*,*,#170,.F.);
#266=ORIENTED_EDGE('',*,*,#173,.F.);
#267=ORIENTED_EDGE('',*,*,#176,.F.);
#268=ORIENTED_EDGE('',*,*,#179,.F.);
#269=ORIENTED_EDGE('',*,*,#182,.F.);
#270=CYLINDRICAL_SURFACE('',#309,3.99999999999999);
#271=CYLINDRICAL_SURFACE('',#312,4.);
#272=CYLINDRICAL_SURFACE('',#315,4.00000000000002);
#273=CYLINDRICAL_SURFACE('',#318,3.99999999999999);
#274=CYLINDRICAL_SURFACE('',#321,3.99999999999999);
#275=CYLINDRICAL_SURFACE('',#324,3.99999999999999);
#276=CYLINDRICAL_SURFACE('',#327,3.99999999999998);
#277=CYLINDRICAL_SURFACE('',#333,79.);
#278=CYLINDRICAL_SURFACE('',#336,8.5);
#279=CYLINDRICAL_SURFACE('',#339,8.5);
#280=CYLINDRICAL_SURFACE('',#342,8.5);
#281=ADVANCED_FACE('',(#40),#270,.F.);
#282=ADVANCED_FACE('',(#41),#271,.F.);
#283=ADVANCED_FACE('',(#42),#272,.F.);
#284=ADVANCED_FACE('',(#43),#273,.F.);
#285=ADVANCED_FACE('',(#44),#274,.F.);
#286=ADVANCED_FACE('',(#45),#275,.F.);
#287=ADVANCED_FACE('',(#46),#276,.F.);
#288=ADVANCED_FACE('',(#47),#39,.F.);
#289=ADVANCED_FACE('',(#48),#277,.T.);
#290=ADVANCED_FACE('',(#49),#278,.F.);
#291=ADVANCED_FACE('',(#50),#279,.F.);
#292=ADVANCED_FACE('',(#51),#280,.F.);
#293=ADVANCED_FACE('',(#52,#15,#16,#17,#18,#19,#20,#21,#22,#23,#24,#25),
#37,.T.);
#294=ADVANCED_FACE('',(#53,#26,#27,#28,#29,#30,#31,#32,#33,#34,#35,#36),
#38,.F.);
#295=CLOSED_SHELL('',(#281,#282,#283,#284,#285,#286,#287,#288,#289,#290,
#291,#292,#293,#294));
#296=DERIVED_UNIT_ELEMENT(#298,1.);
#297=DERIVED_UNIT_ELEMENT(#517,-3.);
#298=(
MASS_UNIT()
NAMED_UNIT(*)
SI_UNIT(.KILO.,.GRAM.)
);
#299=DERIVED_UNIT((#296,#297));
#300=MEASURE_REPRESENTATION_ITEM('density measure',
POSITIVE_RATIO_MEASURE(7850.),#299);
#301=PROPERTY_DEFINITION_REPRESENTATION(#306,#303);
#302=PROPERTY_DEFINITION_REPRESENTATION(#307,#304);
#303=REPRESENTATION('material name',(#305),#514);
#304=REPRESENTATION('density',(#300),#514);
#305=DESCRIPTIVE_REPRESENTATION_ITEM('Steel','Steel');
#306=PROPERTY_DEFINITION('material property','material name',#524);
#307=PROPERTY_DEFINITION('material property','density of part',#524);
#308=AXIS2_PLACEMENT_3D('',#437,#347,#348);
#309=AXIS2_PLACEMENT_3D('',#438,#349,#350);
#310=AXIS2_PLACEMENT_3D('',#440,#351,#352);
#311=AXIS2_PLACEMENT_3D('',#443,#354,#355);
#312=AXIS2_PLACEMENT_3D('',#444,#356,#357);
#313=AXIS2_PLACEMENT_3D('',#446,#358,#359);
#314=AXIS2_PLACEMENT_3D('',#449,#361,#362);
#315=AXIS2_PLACEMENT_3D('',#450,#363,#364);
#316=AXIS2_PLACEMENT_3D('',#452,#365,#366);
#317=AXIS2_PLACEMENT_3D('',#455,#368,#369);
#318=AXIS2_PLACEMENT_3D('',#456,#370,#371);
#319=AXIS2_PLACEMENT_3D('',#458,#372,#373);
#320=AXIS2_PLACEMENT_3D('',#461,#375,#376);
#321=AXIS2_PLACEMENT_3D('',#462,#377,#378);
#322=AXIS2_PLACEMENT_3D('',#464,#379,#380);
#323=AXIS2_PLACEMENT_3D('',#467,#382,#383);
#324=AXIS2_PLACEMENT_3D('',#468,#384,#385);
#325=AXIS2_PLACEMENT_3D('',#470,#386,#387);
#326=AXIS2_PLACEMENT_3D('',#473,#389,#390);
#327=AXIS2_PLACEMENT_3D('',#474,#391,#392);
#328=AXIS2_PLACEMENT_3D('',#476,#393,#394);
#329=AXIS2_PLACEMENT_3D('',#479,#396,#397);
#330=AXIS2_PLACEMENT_3D('',#480,#398,#399);
#331=AXIS2_PLACEMENT_3D('',#482,#400,#401);
#332=AXIS2_PLACEMENT_3D('',#485,#403,#404);
#333=AXIS2_PLACEMENT_3D('',#486,#405,#406);
#334=AXIS2_PLACEMENT_3D('',#488,#407,#408);
#335=AXIS2_PLACEMENT_3D('',#491,#410,#411);
#336=AXIS2_PLACEMENT_3D('',#492,#412,#413);
#337=AXIS2_PLACEMENT_3D('',#494,#414,#415);
#338=AXIS2_PLACEMENT_3D('',#497,#417,#418);
#339=AXIS2_PLACEMENT_3D('',#498,#419,#420);
#340=AXIS2_PLACEMENT_3D('',#500,#421,#422);
#341=AXIS2_PLACEMENT_3D('',#503,#424,#425);
#342=AXIS2_PLACEMENT_3D('',#504,#426,#427);
#343=AXIS2_PLACEMENT_3D('',#506,#428,#429);
#344=AXIS2_PLACEMENT_3D('',#509,#431,#432);
#345=AXIS2_PLACEMENT_3D('',#510,#433,#434);
#346=AXIS2_PLACEMENT_3D('',#511,#435,#436);
#347=DIRECTION('axis',(0.,0.,1.));
#348=DIRECTION('refdir',(1.,0.,0.));
#349=DIRECTION('center_axis',(0.,0.,-1.));
#350=DIRECTION('ref_axis',(-1.,0.,0.));
#351=DIRECTION('center_axis',(0.,0.,1.));
#352=DIRECTION('ref_axis',(1.,0.,0.));
#353=DIRECTION('',(0.,0.,-1.));
#354=DIRECTION('center_axis',(0.,0.,-1.));
#355=DIRECTION('ref_axis',(-1.,0.,0.));
#356=DIRECTION('center_axis',(0.,0.,-1.));
#357=DIRECTION('ref_axis',(-1.,0.,0.));
#358=DIRECTION('center_axis',(0.,0.,1.));
#359=DIRECTION('ref_axis',(1.,0.,0.));
#360=DIRECTION('',(0.,0.,-1.));
#361=DIRECTION('center_axis',(0.,0.,-1.));
#362=DIRECTION('ref_axis',(-1.,0.,0.));
#363=DIRECTION('center_axis',(0.,0.,-1.));
#364=DIRECTION('ref_axis',(-1.,0.,0.));
#365=DIRECTION('center_axis',(0.,0.,1.));
#366=DIRECTION('ref_axis',(1.,0.,0.));
#367=DIRECTION('',(0.,0.,-1.));
#368=DIRECTION('center_axis',(0.,0.,-1.));
#369=DIRECTION('ref_axis',(-1.,0.,0.));
#370=DIRECTION('center_axis',(0.,0.,-1.));
#371=DIRECTION('ref_axis',(-1.,0.,0.));
#372=DIRECTION('center_axis',(0.,0.,1.));
#373=DIRECTION('ref_axis',(1.,0.,0.));
#374=DIRECTION('',(0.,0.,-1.));
#375=DIRECTION('center_axis',(0.,0.,-1.));
#376=DIRECTION('ref_axis',(-1.,0.,0.));
#377=DIRECTION('center_axis',(0.,0.,-1.));
#378=DIRECTION('ref_axis',(-1.,0.,0.));
#379=DIRECTION('center_axis',(0.,0.,1.));
#380=DIRECTION('ref_axis',(1.,0.,0.));
#381=DIRECTION('',(0.,0.,-1.));
#382=DIRECTION('center_axis',(0.,0.,-1.));
#383=DIRECTION('ref_axis',(-1.,0.,0.));
#384=DIRECTION('center_axis',(0.,0.,-1.));
#385=DIRECTION('ref_axis',(-1.,0.,0.));
#386=DIRECTION('center_axis',(0.,0.,1.));
#387=DIRECTION('ref_axis',(1.,0.,0.));
#388=DIRECTION('',(0.,0.,-1.));
#389=DIRECTION('center_axis',(0.,0.,-1.));
#390=DIRECTION('ref_axis',(-1.,0.,0.));
#391=DIRECTION('center_axis',(0.,0.,-1.));
#392=DIRECTION('ref_axis',(-1.,0.,0.));
#393=DIRECTION('center_axis',(0.,0.,1.));
#394=DIRECTION('ref_axis',(1.,0.,0.));
#395=DIRECTION('',(0.,0.,-1.));
#396=DIRECTION('center_axis',(0.,0.,-1.));
#397=DIRECTION('ref_axis',(-1.,0.,0.));
#398=DIRECTION('center_axis',(0.,0.,1.));
#399=DIRECTION('ref_axis',(1.,0.,0.));
#400=DIRECTION('center_axis',(0.,0.,-1.));
#401=DIRECTION('ref_axis',(1.,0.,0.));
#402=DIRECTION('',(-0.707106781186547,-8.65956056235493E-17,0.707106781186548));
#403=DIRECTION('center_axis',(0.,0.,1.));
#404=DIRECTION('ref_axis',(1.,0.,0.));
#405=DIRECTION('center_axis',(0.,0.,1.));
#406=DIRECTION('ref_axis',(-1.,0.,0.));
#407=DIRECTION('center_axis',(0.,0.,1.));
#408=DIRECTION('ref_axis',(-1.,0.,0.));
#409=DIRECTION('',(0.,0.,-1.));
#410=DIRECTION('center_axis',(0.,0.,-1.));
#411=DIRECTION('ref_axis',(-1.,0.,0.));
#412=DIRECTION('center_axis',(0.,0.,-1.));
#413=DIRECTION('ref_axis',(1.,0.,0.));
#414=DIRECTION('center_axis',(0.,0.,-1.));
#415=DIRECTION('ref_axis',(1.,0.,0.));
#416=DIRECTION('',(0.,0.,-1.));
#417=DIRECTION('center_axis',(0.,0.,1.));
#418=DIRECTION('ref_axis',(1.,0.,0.));
#419=DIRECTION('center_axis',(0.,0.,-1.));
#420=DIRECTION('ref_axis',(1.,0.,0.));
#421=DIRECTION('center_axis',(0.,0.,-1.));
#422=DIRECTION('ref_axis',(1.,0.,0.));
#423=DIRECTION('',(0.,0.,-1.));
#424=DIRECTION('center_axis',(0.,0.,1.));
#425=DIRECTION('ref_axis',(1.,0.,0.));
#426=DIRECTION('center_axis',(0.,0.,-1.));
#427=DIRECTION('ref_axis',(1.,0.,0.));
#428=DIRECTION('center_axis',(0.,0.,-1.));
#429=DIRECTION('ref_axis',(1.,0.,0.));
#430=DIRECTION('',(0.,0.,-1.));
#431=DIRECTION('center_axis',(0.,0.,1.));
#432=DIRECTION('ref_axis',(1.,0.,0.));
#433=DIRECTION('center_axis',(0.,0.,1.));
#434=DIRECTION('ref_axis',(1.,0.,0.));
#435=DIRECTION('center_axis',(0.,0.,1.));
#436=DIRECTION('ref_axis',(1.,0.,0.));
#437=CARTESIAN_POINT('',(0.,0.,0.));
#438=CARTESIAN_POINT('Origin',(-69.,0.,110.));
#439=CARTESIAN_POINT('',(-65.,-4.8985871965894E-16,20.));
#440=CARTESIAN_POINT('Origin',(-69.,0.,20.));
#441=CARTESIAN_POINT('',(-65.,-4.8985871965894E-16,0.));
#442=CARTESIAN_POINT('',(-65.,-4.8985871965894E-16,110.));
#443=CARTESIAN_POINT('Origin',(-69.,0.,0.));
#444=CARTESIAN_POINT('Origin',(-48.7903679018716,-48.7903679018718,110.));
#445=CARTESIAN_POINT('',(-44.7903679018716,-48.7903679018718,20.));
#446=CARTESIAN_POINT('Origin',(-48.7903679018716,-48.7903679018718,20.));
#447=CARTESIAN_POINT('',(-44.7903679018716,-48.7903679018718,0.));
#448=CARTESIAN_POINT('',(-44.7903679018716,-48.7903679018718,110.));
#449=CARTESIAN_POINT('Origin',(-48.7903679018716,-48.7903679018718,0.));
#450=CARTESIAN_POINT('Origin',(2.63677968348475E-13,-68.9999999999999,110.));
#451=CARTESIAN_POINT('',(4.00000000000028,-68.9999999999999,20.));
#452=CARTESIAN_POINT('Origin',(2.63677968348475E-13,-68.9999999999999,20.));
#453=CARTESIAN_POINT('',(4.00000000000028,-68.9999999999999,0.));
#454=CARTESIAN_POINT('',(4.00000000000028,-68.9999999999999,110.));
#455=CARTESIAN_POINT('Origin',(2.63677968348475E-13,-68.9999999999999,0.));
#456=CARTESIAN_POINT('Origin',(48.790367901872,-48.7903679018715,110.));
#457=CARTESIAN_POINT('',(52.790367901872,-48.7903679018715,20.));
#458=CARTESIAN_POINT('Origin',(48.790367901872,-48.7903679018715,20.));
#459=CARTESIAN_POINT('',(52.790367901872,-48.7903679018715,0.));
#460=CARTESIAN_POINT('',(52.790367901872,-48.7903679018715,110.));
#461=CARTESIAN_POINT('Origin',(48.790367901872,-48.7903679018715,0.));
#462=CARTESIAN_POINT('Origin',(69.,4.92661467177413E-13,110.));
#463=CARTESIAN_POINT('',(73.,4.92171608457754E-13,20.));
#464=CARTESIAN_POINT('Origin',(69.,4.92661467177413E-13,20.));
#465=CARTESIAN_POINT('',(73.,4.92171608457754E-13,0.));
#466=CARTESIAN_POINT('',(73.,4.92171608457754E-13,110.));
#467=CARTESIAN_POINT('Origin',(69.,4.92661467177413E-13,0.));
#468=CARTESIAN_POINT('Origin',(48.7903679018713,48.7903679018722,110.));
#469=CARTESIAN_POINT('',(52.7903679018713,48.7903679018722,20.));
#470=CARTESIAN_POINT('Origin',(48.7903679018713,48.7903679018722,20.));
#471=CARTESIAN_POINT('',(52.7903679018713,48.7903679018722,0.));
#472=CARTESIAN_POINT('',(52.7903679018713,48.7903679018722,110.));
#473=CARTESIAN_POINT('Origin',(48.7903679018713,48.7903679018722,0.));
#474=CARTESIAN_POINT('Origin',(-48.7903679018724,48.7903679018712,110.));
#475=CARTESIAN_POINT('',(-44.7903679018724,48.7903679018712,20.));
#476=CARTESIAN_POINT('Origin',(-48.7903679018724,48.7903679018712,20.));
#477=CARTESIAN_POINT('',(-44.7903679018724,48.7903679018712,0.));
#478=CARTESIAN_POINT('',(-44.7903679018724,48.7903679018712,110.));
#479=CARTESIAN_POINT('Origin',(-48.7903679018724,48.7903679018712,0.));
#480=CARTESIAN_POINT('Origin',(0.,0.,10.));
#481=CARTESIAN_POINT('',(-20.,-2.44929359829471E-15,-6.66133814775094E-15));
#482=CARTESIAN_POINT('Origin',(0.,0.,0.));
#483=CARTESIAN_POINT('',(-40.,-4.89858719658941E-15,20.));
#484=CARTESIAN_POINT('',(-30.,-3.67394039744206E-15,10.));
#485=CARTESIAN_POINT('Origin',(0.,0.,20.));
#486=CARTESIAN_POINT('Origin',(0.,0.,0.));
#487=CARTESIAN_POINT('',(79.,9.67470971326409E-15,20.));
#488=CARTESIAN_POINT('Origin',(0.,0.,20.));
#489=CARTESIAN_POINT('',(79.,9.67470971326409E-15,0.));
#490=CARTESIAN_POINT('',(79.,9.67470971326409E-15,0.));
#491=CARTESIAN_POINT('Origin',(0.,0.,0.));
#492=CARTESIAN_POINT('Origin',(-59.7557528611263,-34.5,35.));
#493=CARTESIAN_POINT('',(-68.2557528611263,-34.5,20.));
#494=CARTESIAN_POINT('Origin',(-59.7557528611263,-34.5,20.));
#495=CARTESIAN_POINT('',(-68.2557528611263,-34.5,0.));
#496=CARTESIAN_POINT('',(-68.2557528611263,-34.5,35.));
#497=CARTESIAN_POINT('Origin',(-59.7557528611263,-34.5,0.));
#498=CARTESIAN_POINT('Origin',(59.7557528611263,-34.5,35.));
#499=CARTESIAN_POINT('',(51.2557528611263,-34.5,20.));
#500=CARTESIAN_POINT('Origin',(59.7557528611263,-34.5,20.));
#501=CARTESIAN_POINT('',(51.2557528611263,-34.5,0.));
#502=CARTESIAN_POINT('',(51.2557528611263,-34.5,35.));
#503=CARTESIAN_POINT('Origin',(59.7557528611263,-34.5,0.));
#504=CARTESIAN_POINT('Origin',(3.10862446895044E-14,69.,35.));
#505=CARTESIAN_POINT('',(-8.49999999999997,69.,20.));
#506=CARTESIAN_POINT('Origin',(3.10862446895044E-14,69.,20.));
#507=CARTESIAN_POINT('',(-8.49999999999997,69.,0.));
#508=CARTESIAN_POINT('',(-8.49999999999997,69.,35.));
#509=CARTESIAN_POINT('Origin',(3.10862446895044E-14,69.,0.));
#510=CARTESIAN_POINT('Origin',(0.,0.,20.));
#511=CARTESIAN_POINT('Origin',(0.,0.,0.));
#512=UNCERTAINTY_MEASURE_WITH_UNIT(LENGTH_MEASURE(0.01),#516,
'DISTANCE_ACCURACY_VALUE',
'Maximum model space distance between geometric entities at asserted c
onnectivities');
#513=UNCERTAINTY_MEASURE_WITH_UNIT(LENGTH_MEASURE(0.01),#516,
'DISTANCE_ACCURACY_VALUE',
'Maximum model space distance between geometric entities at asserted c
onnectivities');
#514=(
GEOMETRIC_REPRESENTATION_CONTEXT(3)
GLOBAL_UNCERTAINTY_ASSIGNED_CONTEXT((#512))
GLOBAL_UNIT_ASSIGNED_CONTEXT((#516,#518,#519))
REPRESENTATION_CONTEXT('','3D')
);
#515=(
GEOMETRIC_REPRESENTATION_CONTEXT(3)
GLOBAL_UNCERTAINTY_ASSIGNED_CONTEXT((#513))
GLOBAL_UNIT_ASSIGNED_CONTEXT((#516,#518,#519))
REPRESENTATION_CONTEXT('','3D')
);
#516=(
LENGTH_UNIT()
NAMED_UNIT(*)
SI_UNIT(.MILLI.,.METRE.)
);
#517=(
LENGTH_UNIT()
NAMED_UNIT(*)
SI_UNIT($,.METRE.)
);
#518=(
NAMED_UNIT(*)
PLANE_ANGLE_UNIT()
SI_UNIT($,.RADIAN.)
);
#519=(
NAMED_UNIT(*)
SI_UNIT($,.STERADIAN.)
SOLID_ANGLE_UNIT()
);
#520=SHAPE_DEFINITION_REPRESENTATION(#521,#522);
#521=PRODUCT_DEFINITION_SHAPE('',$,#524);
#522=SHAPE_REPRESENTATION('',(#308),#514);
#523=PRODUCT_DEFINITION_CONTEXT('part definition',#528,'design');
#524=PRODUCT_DEFINITION('v8','v8 v1',#525,#523);
#525=PRODUCT_DEFINITION_FORMATION('',$,#530);
#526=PRODUCT_RELATED_PRODUCT_CATEGORY('v8 v1','v8 v1',(#530));
#527=APPLICATION_PROTOCOL_DEFINITION('international standard',
'automotive_design',2009,#528);
#528=APPLICATION_CONTEXT(
'Core Data for Automotive Mechanical Design Process');
#529=PRODUCT_CONTEXT('part definition',#528,'mechanical');
#530=PRODUCT('v8','v8 v1',$,(#529));
#531=PRESENTATION_STYLE_ASSIGNMENT((#533));
#532=PRESENTATION_STYLE_ASSIGNMENT((#534));
#533=SURFACE_STYLE_USAGE(.BOTH.,#535);
#534=SURFACE_STYLE_USAGE(.BOTH.,#536);
#535=SURFACE_SIDE_STYLE('',(#537));
#536=SURFACE_SIDE_STYLE('',(#538));
#537=SURFACE_STYLE_FILL_AREA(#539);
#538=SURFACE_STYLE_FILL_AREA(#540);
#539=FILL_AREA_STYLE('Steel - Satin',(#541));
#540=FILL_AREA_STYLE('Opaque(165,158,150)',(#542));
#541=FILL_AREA_STYLE_COLOUR('Steel - Satin',#543);
#542=FILL_AREA_STYLE_COLOUR('Opaque(165,158,150)',#544);
#543=COLOUR_RGB('Steel - Satin',0.627450980392157,0.627450980392157,0.627450980392157);
#544=COLOUR_RGB('Opaque(165,158,150)',0.647058823529412,0.619607843137255,
0.588235294117647);
ENDSEC;
END-ISO-10303-21;
