ISO-10303-21;
HEADER;
/* Generated by software containing ST-Developer
 * from STEP Tools, Inc. (www.steptools.com) 
 */

FILE_DESCRIPTION(
/* description */ (''),
/* implementation_level */ '2;1');

FILE_NAME(
/* name */ 'conecter to motor v1.step',
/* time_stamp */ '2026-03-14T10:15:13+01:00',
/* author */ (''),
/* organization */ (''),
/* preprocessor_version */ 'ST-DEVELOPER v20.1',
/* originating_system */ 'Autodesk Translation Framework v14.24.0.0',
/* authorisation */ '');

FILE_SCHEMA (('AUTOMOTIVE_DESIGN { 1 0 10303 214 3 1 1 }'));
ENDSEC;

DATA;
#10=MECHANICAL_DESIGN_GEOMETRIC_PRESENTATION_REPRESENTATION('',(#13),#1604);
#11=SHAPE_REPRESENTATION_RELATIONSHIP('SRR','None',#1611,#12);
#12=ADVANCED_BREP_SHAPE_REPRESENTATION('',(#14),#1603);
#13=STYLED_ITEM('',(#1620),#14);
#14=MANIFOLD_SOLID_BREP('Body1',#908);
#15=LINE('',#1366,#52);
#16=LINE('',#1369,#53);
#17=LINE('',#1393,#54);
#18=LINE('',#1413,#55);
#19=LINE('',#1417,#56);
#20=LINE('',#1427,#57);
#21=LINE('',#1430,#58);
#22=LINE('',#1436,#59);
#23=LINE('',#1443,#60);
#24=LINE('',#1481,#61);
#25=LINE('',#1483,#62);
#26=LINE('',#1490,#63);
#27=LINE('',#1492,#64);
#28=LINE('',#1499,#65);
#29=LINE('',#1501,#66);
#30=LINE('',#1508,#67);
#31=LINE('',#1510,#68);
#32=LINE('',#1517,#69);
#33=LINE('',#1519,#70);
#34=LINE('',#1526,#71);
#35=LINE('',#1528,#72);
#36=LINE('',#1535,#73);
#37=LINE('',#1537,#74);
#38=LINE('',#1544,#75);
#39=LINE('',#1546,#76);
#40=LINE('',#1553,#77);
#41=LINE('',#1555,#78);
#42=LINE('',#1562,#79);
#43=LINE('',#1564,#80);
#44=LINE('',#1571,#81);
#45=LINE('',#1573,#82);
#46=LINE('',#1580,#83);
#47=LINE('',#1582,#84);
#48=LINE('',#1589,#85);
#49=LINE('',#1591,#86);
#50=LINE('',#1598,#87);
#51=LINE('',#1600,#88);
#52=VECTOR('',#1066,6.);
#53=VECTOR('',#1069,4.);
#54=VECTOR('',#1096,65.);
#55=VECTOR('',#1117,47.5);
#56=VECTOR('',#1122,40.);
#57=VECTOR('',#1135,6.);
#58=VECTOR('',#1138,4.);
#59=VECTOR('',#1145,47.5);
#60=VECTOR('',#1154,65.);
#61=VECTOR('',#1197,6.);
#62=VECTOR('',#1200,4.);
#63=VECTOR('',#1209,6.);
#64=VECTOR('',#1212,4.);
#65=VECTOR('',#1221,6.);
#66=VECTOR('',#1224,4.);
#67=VECTOR('',#1233,6.);
#68=VECTOR('',#1236,4.);
#69=VECTOR('',#1245,6.);
#70=VECTOR('',#1248,4.);
#71=VECTOR('',#1257,6.);
#72=VECTOR('',#1260,4.);
#73=VECTOR('',#1269,6.);
#74=VECTOR('',#1272,4.);
#75=VECTOR('',#1281,6.);
#76=VECTOR('',#1284,4.);
#77=VECTOR('',#1293,6.);
#78=VECTOR('',#1296,4.);
#79=VECTOR('',#1305,6.);
#80=VECTOR('',#1308,4.);
#81=VECTOR('',#1317,6.);
#82=VECTOR('',#1320,4.);
#83=VECTOR('',#1329,6.);
#84=VECTOR('',#1332,4.);
#85=VECTOR('',#1341,6.);
#86=VECTOR('',#1344,4.);
#87=VECTOR('',#1353,6.);
#88=VECTOR('',#1356,4.);
#89=CYLINDRICAL_SURFACE('',#925,6.);
#90=CYLINDRICAL_SURFACE('',#927,4.);
#91=CYLINDRICAL_SURFACE('',#939,65.);
#92=CYLINDRICAL_SURFACE('',#950,47.5);
#93=CYLINDRICAL_SURFACE('',#952,40.);
#94=CYLINDRICAL_SURFACE('',#957,6.);
#95=CYLINDRICAL_SURFACE('',#959,4.);
#96=CYLINDRICAL_SURFACE('',#961,47.5);
#97=CYLINDRICAL_SURFACE('',#965,65.);
#98=CYLINDRICAL_SURFACE('',#987,6.);
#99=CYLINDRICAL_SURFACE('',#988,4.);
#100=CYLINDRICAL_SURFACE('',#992,6.);
#101=CYLINDRICAL_SURFACE('',#993,4.);
#102=CYLINDRICAL_SURFACE('',#997,6.);
#103=CYLINDRICAL_SURFACE('',#998,4.);
#104=CYLINDRICAL_SURFACE('',#1002,6.);
#105=CYLINDRICAL_SURFACE('',#1003,4.);
#106=CYLINDRICAL_SURFACE('',#1007,6.);
#107=CYLINDRICAL_SURFACE('',#1008,4.);
#108=CYLINDRICAL_SURFACE('',#1012,6.);
#109=CYLINDRICAL_SURFACE('',#1013,4.);
#110=CYLINDRICAL_SURFACE('',#1017,6.);
#111=CYLINDRICAL_SURFACE('',#1018,4.);
#112=CYLINDRICAL_SURFACE('',#1022,6.);
#113=CYLINDRICAL_SURFACE('',#1023,4.);
#114=CYLINDRICAL_SURFACE('',#1027,6.);
#115=CYLINDRICAL_SURFACE('',#1028,4.);
#116=CYLINDRICAL_SURFACE('',#1032,6.);
#117=CYLINDRICAL_SURFACE('',#1033,4.);
#118=CYLINDRICAL_SURFACE('',#1037,6.);
#119=CYLINDRICAL_SURFACE('',#1038,4.);
#120=CYLINDRICAL_SURFACE('',#1042,6.);
#121=CYLINDRICAL_SURFACE('',#1043,4.);
#122=CYLINDRICAL_SURFACE('',#1047,6.);
#123=CYLINDRICAL_SURFACE('',#1048,4.);
#124=CYLINDRICAL_SURFACE('',#1052,6.);
#125=CYLINDRICAL_SURFACE('',#1053,4.);
#126=FACE_BOUND('',#238,.T.);
#127=FACE_BOUND('',#242,.T.);
#128=FACE_BOUND('',#243,.T.);
#129=FACE_BOUND('',#244,.T.);
#130=FACE_BOUND('',#245,.T.);
#131=FACE_BOUND('',#246,.T.);
#132=FACE_BOUND('',#247,.T.);
#133=FACE_BOUND('',#248,.T.);
#134=FACE_BOUND('',#249,.T.);
#135=FACE_BOUND('',#250,.T.);
#136=FACE_BOUND('',#253,.T.);
#137=FACE_BOUND('',#254,.T.);
#138=FACE_BOUND('',#255,.T.);
#139=FACE_BOUND('',#256,.T.);
#140=FACE_BOUND('',#257,.T.);
#141=FACE_BOUND('',#258,.T.);
#142=FACE_BOUND('',#259,.T.);
#143=FACE_BOUND('',#260,.T.);
#144=FACE_BOUND('',#261,.T.);
#145=FACE_BOUND('',#265,.T.);
#146=FACE_BOUND('',#270,.T.);
#147=FACE_BOUND('',#273,.T.);
#148=FACE_BOUND('',#274,.T.);
#149=FACE_BOUND('',#275,.T.);
#150=FACE_BOUND('',#276,.T.);
#151=FACE_BOUND('',#277,.T.);
#152=FACE_BOUND('',#278,.T.);
#153=FACE_BOUND('',#279,.T.);
#154=FACE_BOUND('',#280,.T.);
#155=FACE_BOUND('',#281,.T.);
#156=FACE_BOUND('',#283,.T.);
#157=FACE_BOUND('',#284,.T.);
#158=FACE_BOUND('',#285,.T.);
#159=FACE_BOUND('',#286,.T.);
#160=FACE_BOUND('',#287,.T.);
#161=FACE_BOUND('',#288,.T.);
#162=FACE_BOUND('',#289,.T.);
#163=FACE_BOUND('',#290,.T.);
#164=FACE_BOUND('',#291,.T.);
#165=FACE_BOUND('',#293,.T.);
#166=FACE_BOUND('',#297,.T.);
#167=FACE_BOUND('',#301,.T.);
#168=FACE_BOUND('',#305,.T.);
#169=FACE_BOUND('',#309,.T.);
#170=FACE_BOUND('',#313,.T.);
#171=FACE_BOUND('',#317,.T.);
#172=FACE_BOUND('',#321,.T.);
#173=FACE_BOUND('',#325,.T.);
#174=FACE_BOUND('',#329,.T.);
#175=FACE_BOUND('',#333,.T.);
#176=FACE_BOUND('',#337,.T.);
#177=FACE_BOUND('',#341,.T.);
#178=FACE_BOUND('',#345,.T.);
#179=FACE_OUTER_BOUND('',#237,.T.);
#180=FACE_OUTER_BOUND('',#239,.T.);
#181=FACE_OUTER_BOUND('',#240,.T.);
#182=FACE_OUTER_BOUND('',#241,.T.);
#183=FACE_OUTER_BOUND('',#251,.T.);
#184=FACE_OUTER_BOUND('',#252,.T.);
#185=FACE_OUTER_BOUND('',#262,.T.);
#186=FACE_OUTER_BOUND('',#263,.T.);
#187=FACE_OUTER_BOUND('',#264,.T.);
#188=FACE_OUTER_BOUND('',#266,.T.);
#189=FACE_OUTER_BOUND('',#267,.T.);
#190=FACE_OUTER_BOUND('',#268,.T.);
#191=FACE_OUTER_BOUND('',#269,.T.);
#192=FACE_OUTER_BOUND('',#271,.T.);
#193=FACE_OUTER_BOUND('',#272,.T.);
#194=FACE_OUTER_BOUND('',#282,.T.);
#195=FACE_OUTER_BOUND('',#292,.T.);
#196=FACE_OUTER_BOUND('',#294,.T.);
#197=FACE_OUTER_BOUND('',#295,.T.);
#198=FACE_OUTER_BOUND('',#296,.T.);
#199=FACE_OUTER_BOUND('',#298,.T.);
#200=FACE_OUTER_BOUND('',#299,.T.);
#201=FACE_OUTER_BOUND('',#300,.T.);
#202=FACE_OUTER_BOUND('',#302,.T.);
#203=FACE_OUTER_BOUND('',#303,.T.);
#204=FACE_OUTER_BOUND('',#304,.T.);
#205=FACE_OUTER_BOUND('',#306,.T.);
#206=FACE_OUTER_BOUND('',#307,.T.);
#207=FACE_OUTER_BOUND('',#308,.T.);
#208=FACE_OUTER_BOUND('',#310,.T.);
#209=FACE_OUTER_BOUND('',#311,.T.);
#210=FACE_OUTER_BOUND('',#312,.T.);
#211=FACE_OUTER_BOUND('',#314,.T.);
#212=FACE_OUTER_BOUND('',#315,.T.);
#213=FACE_OUTER_BOUND('',#316,.T.);
#214=FACE_OUTER_BOUND('',#318,.T.);
#215=FACE_OUTER_BOUND('',#319,.T.);
#216=FACE_OUTER_BOUND('',#320,.T.);
#217=FACE_OUTER_BOUND('',#322,.T.);
#218=FACE_OUTER_BOUND('',#323,.T.);
#219=FACE_OUTER_BOUND('',#324,.T.);
#220=FACE_OUTER_BOUND('',#326,.T.);
#221=FACE_OUTER_BOUND('',#327,.T.);
#222=FACE_OUTER_BOUND('',#328,.T.);
#223=FACE_OUTER_BOUND('',#330,.T.);
#224=FACE_OUTER_BOUND('',#331,.T.);
#225=FACE_OUTER_BOUND('',#332,.T.);
#226=FACE_OUTER_BOUND('',#334,.T.);
#227=FACE_OUTER_BOUND('',#335,.T.);
#228=FACE_OUTER_BOUND('',#336,.T.);
#229=FACE_OUTER_BOUND('',#338,.T.);
#230=FACE_OUTER_BOUND('',#339,.T.);
#231=FACE_OUTER_BOUND('',#340,.T.);
#232=FACE_OUTER_BOUND('',#342,.T.);
#233=FACE_OUTER_BOUND('',#343,.T.);
#234=FACE_OUTER_BOUND('',#344,.T.);
#235=FACE_OUTER_BOUND('',#346,.T.);
#236=FACE_OUTER_BOUND('',#347,.T.);
#237=EDGE_LOOP('',(#607));
#238=EDGE_LOOP('',(#608));
#239=EDGE_LOOP('',(#609,#610,#611,#612));
#240=EDGE_LOOP('',(#613,#614,#615,#616));
#241=EDGE_LOOP('',(#617));
#242=EDGE_LOOP('',(#618));
#243=EDGE_LOOP('',(#619));
#244=EDGE_LOOP('',(#620));
#245=EDGE_LOOP('',(#621));
#246=EDGE_LOOP('',(#622));
#247=EDGE_LOOP('',(#623));
#248=EDGE_LOOP('',(#624));
#249=EDGE_LOOP('',(#625));
#250=EDGE_LOOP('',(#626));
#251=EDGE_LOOP('',(#627,#628,#629,#630));
#252=EDGE_LOOP('',(#631));
#253=EDGE_LOOP('',(#632));
#254=EDGE_LOOP('',(#633));
#255=EDGE_LOOP('',(#634));
#256=EDGE_LOOP('',(#635));
#257=EDGE_LOOP('',(#636));
#258=EDGE_LOOP('',(#637));
#259=EDGE_LOOP('',(#638));
#260=EDGE_LOOP('',(#639));
#261=EDGE_LOOP('',(#640));
#262=EDGE_LOOP('',(#641,#642,#643,#644));
#263=EDGE_LOOP('',(#645,#646,#647,#648));
#264=EDGE_LOOP('',(#649));
#265=EDGE_LOOP('',(#650));
#266=EDGE_LOOP('',(#651,#652,#653,#654));
#267=EDGE_LOOP('',(#655,#656,#657,#658));
#268=EDGE_LOOP('',(#659,#660,#661,#662));
#269=EDGE_LOOP('',(#663));
#270=EDGE_LOOP('',(#664));
#271=EDGE_LOOP('',(#665,#666,#667,#668));
#272=EDGE_LOOP('',(#669));
#273=EDGE_LOOP('',(#670));
#274=EDGE_LOOP('',(#671));
#275=EDGE_LOOP('',(#672));
#276=EDGE_LOOP('',(#673));
#277=EDGE_LOOP('',(#674));
#278=EDGE_LOOP('',(#675));
#279=EDGE_LOOP('',(#676));
#280=EDGE_LOOP('',(#677));
#281=EDGE_LOOP('',(#678));
#282=EDGE_LOOP('',(#679));
#283=EDGE_LOOP('',(#680));
#284=EDGE_LOOP('',(#681));
#285=EDGE_LOOP('',(#682));
#286=EDGE_LOOP('',(#683));
#287=EDGE_LOOP('',(#684));
#288=EDGE_LOOP('',(#685));
#289=EDGE_LOOP('',(#686));
#290=EDGE_LOOP('',(#687));
#291=EDGE_LOOP('',(#688));
#292=EDGE_LOOP('',(#689));
#293=EDGE_LOOP('',(#690));
#294=EDGE_LOOP('',(#691,#692,#693,#694));
#295=EDGE_LOOP('',(#695,#696,#697,#698));
#296=EDGE_LOOP('',(#699));
#297=EDGE_LOOP('',(#700));
#298=EDGE_LOOP('',(#701,#702,#703,#704));
#299=EDGE_LOOP('',(#705,#706,#707,#708));
#300=EDGE_LOOP('',(#709));
#301=EDGE_LOOP('',(#710));
#302=EDGE_LOOP('',(#711,#712,#713,#714));
#303=EDGE_LOOP('',(#715,#716,#717,#718));
#304=EDGE_LOOP('',(#719));
#305=EDGE_LOOP('',(#720));
#306=EDGE_LOOP('',(#721,#722,#723,#724));
#307=EDGE_LOOP('',(#725,#726,#727,#728));
#308=EDGE_LOOP('',(#729));
#309=EDGE_LOOP('',(#730));
#310=EDGE_LOOP('',(#731,#732,#733,#734));
#311=EDGE_LOOP('',(#735,#736,#737,#738));
#312=EDGE_LOOP('',(#739));
#313=EDGE_LOOP('',(#740));
#314=EDGE_LOOP('',(#741,#742,#743,#744));
#315=EDGE_LOOP('',(#745,#746,#747,#748));
#316=EDGE_LOOP('',(#749));
#317=EDGE_LOOP('',(#750));
#318=EDGE_LOOP('',(#751,#752,#753,#754));
#319=EDGE_LOOP('',(#755,#756,#757,#758));
#320=EDGE_LOOP('',(#759));
#321=EDGE_LOOP('',(#760));
#322=EDGE_LOOP('',(#761,#762,#763,#764));
#323=EDGE_LOOP('',(#765,#766,#767,#768));
#324=EDGE_LOOP('',(#769));
#325=EDGE_LOOP('',(#770));
#326=EDGE_LOOP('',(#771,#772,#773,#774));
#327=EDGE_LOOP('',(#775,#776,#777,#778));
#328=EDGE_LOOP('',(#779));
#329=EDGE_LOOP('',(#780));
#330=EDGE_LOOP('',(#781,#782,#783,#784));
#331=EDGE_LOOP('',(#785,#786,#787,#788));
#332=EDGE_LOOP('',(#789));
#333=EDGE_LOOP('',(#790));
#334=EDGE_LOOP('',(#791,#792,#793,#794));
#335=EDGE_LOOP('',(#795,#796,#797,#798));
#336=EDGE_LOOP('',(#799));
#337=EDGE_LOOP('',(#800));
#338=EDGE_LOOP('',(#801,#802,#803,#804));
#339=EDGE_LOOP('',(#805,#806,#807,#808));
#340=EDGE_LOOP('',(#809));
#341=EDGE_LOOP('',(#810));
#342=EDGE_LOOP('',(#811,#812,#813,#814));
#343=EDGE_LOOP('',(#815,#816,#817,#818));
#344=EDGE_LOOP('',(#819));
#345=EDGE_LOOP('',(#820));
#346=EDGE_LOOP('',(#821,#822,#823,#824));
#347=EDGE_LOOP('',(#825,#826,#827,#828));
#348=CIRCLE('',#923,6.);
#349=CIRCLE('',#924,4.);
#350=CIRCLE('',#926,6.);
#351=CIRCLE('',#928,4.);
#352=CIRCLE('',#930,65.);
#353=CIRCLE('',#931,6.);
#354=CIRCLE('',#932,6.);
#355=CIRCLE('',#933,6.);
#356=CIRCLE('',#934,6.);
#357=CIRCLE('',#935,6.);
#358=CIRCLE('',#936,6.);
#359=CIRCLE('',#937,6.);
#360=CIRCLE('',#938,47.5);
#361=CIRCLE('',#940,65.);
#362=CIRCLE('',#942,4.);
#363=CIRCLE('',#943,4.);
#364=CIRCLE('',#944,4.);
#365=CIRCLE('',#945,4.);
#366=CIRCLE('',#946,4.);
#367=CIRCLE('',#947,4.);
#368=CIRCLE('',#948,4.);
#369=CIRCLE('',#949,40.);
#370=CIRCLE('',#951,47.5);
#371=CIRCLE('',#953,40.);
#372=CIRCLE('',#955,6.);
#373=CIRCLE('',#956,4.);
#374=CIRCLE('',#958,6.);
#375=CIRCLE('',#960,4.);
#376=CIRCLE('',#962,47.5);
#377=CIRCLE('',#963,47.5);
#378=CIRCLE('',#966,65.);
#379=CIRCLE('',#967,65.);
#380=CIRCLE('',#969,6.);
#381=CIRCLE('',#970,6.);
#382=CIRCLE('',#971,6.);
#383=CIRCLE('',#972,6.);
#384=CIRCLE('',#973,6.);
#385=CIRCLE('',#974,6.);
#386=CIRCLE('',#975,6.);
#387=CIRCLE('',#977,4.);
#388=CIRCLE('',#978,4.);
#389=CIRCLE('',#979,4.);
#390=CIRCLE('',#980,4.);
#391=CIRCLE('',#981,4.);
#392=CIRCLE('',#982,4.);
#393=CIRCLE('',#983,4.);
#394=CIRCLE('',#985,6.);
#395=CIRCLE('',#986,4.);
#396=CIRCLE('',#990,6.);
#397=CIRCLE('',#991,4.);
#398=CIRCLE('',#995,6.);
#399=CIRCLE('',#996,4.);
#400=CIRCLE('',#1000,6.);
#401=CIRCLE('',#1001,4.);
#402=CIRCLE('',#1005,6.);
#403=CIRCLE('',#1006,4.);
#404=CIRCLE('',#1010,6.);
#405=CIRCLE('',#1011,4.);
#406=CIRCLE('',#1015,6.);
#407=CIRCLE('',#1016,4.);
#408=CIRCLE('',#1020,6.);
#409=CIRCLE('',#1021,4.);
#410=CIRCLE('',#1025,6.);
#411=CIRCLE('',#1026,4.);
#412=CIRCLE('',#1030,6.);
#413=CIRCLE('',#1031,4.);
#414=CIRCLE('',#1035,6.);
#415=CIRCLE('',#1036,4.);
#416=CIRCLE('',#1040,6.);
#417=CIRCLE('',#1041,4.);
#418=CIRCLE('',#1045,6.);
#419=CIRCLE('',#1046,4.);
#420=CIRCLE('',#1050,6.);
#421=CIRCLE('',#1051,4.);
#422=VERTEX_POINT('',#1359);
#423=VERTEX_POINT('',#1361);
#424=VERTEX_POINT('',#1364);
#425=VERTEX_POINT('',#1368);
#426=VERTEX_POINT('',#1372);
#427=VERTEX_POINT('',#1374);
#428=VERTEX_POINT('',#1376);
#429=VERTEX_POINT('',#1378);
#430=VERTEX_POINT('',#1380);
#431=VERTEX_POINT('',#1382);
#432=VERTEX_POINT('',#1384);
#433=VERTEX_POINT('',#1386);
#434=VERTEX_POINT('',#1388);
#435=VERTEX_POINT('',#1391);
#436=VERTEX_POINT('',#1395);
#437=VERTEX_POINT('',#1397);
#438=VERTEX_POINT('',#1399);
#439=VERTEX_POINT('',#1401);
#440=VERTEX_POINT('',#1403);
#441=VERTEX_POINT('',#1405);
#442=VERTEX_POINT('',#1407);
#443=VERTEX_POINT('',#1409);
#444=VERTEX_POINT('',#1412);
#445=VERTEX_POINT('',#1416);
#446=VERTEX_POINT('',#1420);
#447=VERTEX_POINT('',#1422);
#448=VERTEX_POINT('',#1425);
#449=VERTEX_POINT('',#1429);
#450=VERTEX_POINT('',#1433);
#451=VERTEX_POINT('',#1435);
#452=VERTEX_POINT('',#1440);
#453=VERTEX_POINT('',#1442);
#454=VERTEX_POINT('',#1446);
#455=VERTEX_POINT('',#1448);
#456=VERTEX_POINT('',#1450);
#457=VERTEX_POINT('',#1452);
#458=VERTEX_POINT('',#1454);
#459=VERTEX_POINT('',#1456);
#460=VERTEX_POINT('',#1458);
#461=VERTEX_POINT('',#1461);
#462=VERTEX_POINT('',#1463);
#463=VERTEX_POINT('',#1465);
#464=VERTEX_POINT('',#1467);
#465=VERTEX_POINT('',#1469);
#466=VERTEX_POINT('',#1471);
#467=VERTEX_POINT('',#1473);
#468=VERTEX_POINT('',#1476);
#469=VERTEX_POINT('',#1478);
#470=VERTEX_POINT('',#1485);
#471=VERTEX_POINT('',#1487);
#472=VERTEX_POINT('',#1494);
#473=VERTEX_POINT('',#1496);
#474=VERTEX_POINT('',#1503);
#475=VERTEX_POINT('',#1505);
#476=VERTEX_POINT('',#1512);
#477=VERTEX_POINT('',#1514);
#478=VERTEX_POINT('',#1521);
#479=VERTEX_POINT('',#1523);
#480=VERTEX_POINT('',#1530);
#481=VERTEX_POINT('',#1532);
#482=VERTEX_POINT('',#1539);
#483=VERTEX_POINT('',#1541);
#484=VERTEX_POINT('',#1548);
#485=VERTEX_POINT('',#1550);
#486=VERTEX_POINT('',#1557);
#487=VERTEX_POINT('',#1559);
#488=VERTEX_POINT('',#1566);
#489=VERTEX_POINT('',#1568);
#490=VERTEX_POINT('',#1575);
#491=VERTEX_POINT('',#1577);
#492=VERTEX_POINT('',#1584);
#493=VERTEX_POINT('',#1586);
#494=VERTEX_POINT('',#1593);
#495=VERTEX_POINT('',#1595);
#496=EDGE_CURVE('',#422,#422,#348,.T.);
#497=EDGE_CURVE('',#423,#423,#349,.T.);
#498=EDGE_CURVE('',#424,#424,#350,.T.);
#499=EDGE_CURVE('',#424,#422,#15,.T.);
#500=EDGE_CURVE('',#423,#425,#16,.T.);
#501=EDGE_CURVE('',#425,#425,#351,.T.);
#502=EDGE_CURVE('',#426,#426,#352,.T.);
#503=EDGE_CURVE('',#427,#427,#353,.T.);
#504=EDGE_CURVE('',#428,#428,#354,.T.);
#505=EDGE_CURVE('',#429,#429,#355,.T.);
#506=EDGE_CURVE('',#430,#430,#356,.T.);
#507=EDGE_CURVE('',#431,#431,#357,.T.);
#508=EDGE_CURVE('',#432,#432,#358,.T.);
#509=EDGE_CURVE('',#433,#433,#359,.T.);
#510=EDGE_CURVE('',#434,#434,#360,.T.);
#511=EDGE_CURVE('',#435,#435,#361,.T.);
#512=EDGE_CURVE('',#435,#426,#17,.T.);
#513=EDGE_CURVE('',#436,#436,#362,.T.);
#514=EDGE_CURVE('',#437,#437,#363,.T.);
#515=EDGE_CURVE('',#438,#438,#364,.T.);
#516=EDGE_CURVE('',#439,#439,#365,.T.);
#517=EDGE_CURVE('',#440,#440,#366,.T.);
#518=EDGE_CURVE('',#441,#441,#367,.T.);
#519=EDGE_CURVE('',#442,#442,#368,.T.);
#520=EDGE_CURVE('',#443,#443,#369,.T.);
#521=EDGE_CURVE('',#434,#444,#18,.T.);
#522=EDGE_CURVE('',#444,#444,#370,.T.);
#523=EDGE_CURVE('',#443,#445,#19,.T.);
#524=EDGE_CURVE('',#445,#445,#371,.T.);
#525=EDGE_CURVE('',#446,#446,#372,.T.);
#526=EDGE_CURVE('',#447,#447,#373,.T.);
#527=EDGE_CURVE('',#448,#448,#374,.T.);
#528=EDGE_CURVE('',#448,#446,#20,.T.);
#529=EDGE_CURVE('',#447,#449,#21,.T.);
#530=EDGE_CURVE('',#449,#449,#375,.T.);
#531=EDGE_CURVE('',#450,#450,#376,.T.);
#532=EDGE_CURVE('',#450,#451,#22,.T.);
#533=EDGE_CURVE('',#451,#451,#377,.T.);
#534=EDGE_CURVE('',#452,#452,#378,.T.);
#535=EDGE_CURVE('',#452,#453,#23,.T.);
#536=EDGE_CURVE('',#453,#453,#379,.T.);
#537=EDGE_CURVE('',#454,#454,#380,.T.);
#538=EDGE_CURVE('',#455,#455,#381,.T.);
#539=EDGE_CURVE('',#456,#456,#382,.T.);
#540=EDGE_CURVE('',#457,#457,#383,.T.);
#541=EDGE_CURVE('',#458,#458,#384,.T.);
#542=EDGE_CURVE('',#459,#459,#385,.T.);
#543=EDGE_CURVE('',#460,#460,#386,.T.);
#544=EDGE_CURVE('',#461,#461,#387,.T.);
#545=EDGE_CURVE('',#462,#462,#388,.T.);
#546=EDGE_CURVE('',#463,#463,#389,.T.);
#547=EDGE_CURVE('',#464,#464,#390,.T.);
#548=EDGE_CURVE('',#465,#465,#391,.T.);
#549=EDGE_CURVE('',#466,#466,#392,.T.);
#550=EDGE_CURVE('',#467,#467,#393,.T.);
#551=EDGE_CURVE('',#468,#468,#394,.T.);
#552=EDGE_CURVE('',#469,#469,#395,.T.);
#553=EDGE_CURVE('',#460,#468,#24,.T.);
#554=EDGE_CURVE('',#469,#467,#25,.T.);
#555=EDGE_CURVE('',#470,#470,#396,.T.);
#556=EDGE_CURVE('',#471,#471,#397,.T.);
#557=EDGE_CURVE('',#459,#470,#26,.T.);
#558=EDGE_CURVE('',#471,#466,#27,.T.);
#559=EDGE_CURVE('',#472,#472,#398,.T.);
#560=EDGE_CURVE('',#473,#473,#399,.T.);
#561=EDGE_CURVE('',#458,#472,#28,.T.);
#562=EDGE_CURVE('',#473,#465,#29,.T.);
#563=EDGE_CURVE('',#474,#474,#400,.T.);
#564=EDGE_CURVE('',#475,#475,#401,.T.);
#565=EDGE_CURVE('',#457,#474,#30,.T.);
#566=EDGE_CURVE('',#475,#464,#31,.T.);
#567=EDGE_CURVE('',#476,#476,#402,.T.);
#568=EDGE_CURVE('',#477,#477,#403,.T.);
#569=EDGE_CURVE('',#456,#476,#32,.T.);
#570=EDGE_CURVE('',#477,#463,#33,.T.);
#571=EDGE_CURVE('',#478,#478,#404,.T.);
#572=EDGE_CURVE('',#479,#479,#405,.T.);
#573=EDGE_CURVE('',#455,#478,#34,.T.);
#574=EDGE_CURVE('',#479,#462,#35,.T.);
#575=EDGE_CURVE('',#480,#480,#406,.T.);
#576=EDGE_CURVE('',#481,#481,#407,.T.);
#577=EDGE_CURVE('',#454,#480,#36,.T.);
#578=EDGE_CURVE('',#481,#461,#37,.T.);
#579=EDGE_CURVE('',#482,#482,#408,.T.);
#580=EDGE_CURVE('',#483,#483,#409,.T.);
#581=EDGE_CURVE('',#433,#482,#38,.T.);
#582=EDGE_CURVE('',#483,#442,#39,.T.);
#583=EDGE_CURVE('',#484,#484,#410,.T.);
#584=EDGE_CURVE('',#485,#485,#411,.T.);
#585=EDGE_CURVE('',#432,#484,#40,.T.);
#586=EDGE_CURVE('',#485,#441,#41,.T.);
#587=EDGE_CURVE('',#486,#486,#412,.T.);
#588=EDGE_CURVE('',#487,#487,#413,.T.);
#589=EDGE_CURVE('',#431,#486,#42,.T.);
#590=EDGE_CURVE('',#487,#440,#43,.T.);
#591=EDGE_CURVE('',#488,#488,#414,.T.);
#592=EDGE_CURVE('',#489,#489,#415,.T.);
#593=EDGE_CURVE('',#430,#488,#44,.T.);
#594=EDGE_CURVE('',#489,#439,#45,.T.);
#595=EDGE_CURVE('',#490,#490,#416,.T.);
#596=EDGE_CURVE('',#491,#491,#417,.T.);
#597=EDGE_CURVE('',#429,#490,#46,.T.);
#598=EDGE_CURVE('',#491,#438,#47,.T.);
#599=EDGE_CURVE('',#492,#492,#418,.T.);
#600=EDGE_CURVE('',#493,#493,#419,.T.);
#601=EDGE_CURVE('',#428,#492,#48,.T.);
#602=EDGE_CURVE('',#493,#437,#49,.T.);
#603=EDGE_CURVE('',#494,#494,#420,.T.);
#604=EDGE_CURVE('',#495,#495,#421,.T.);
#605=EDGE_CURVE('',#427,#494,#50,.T.);
#606=EDGE_CURVE('',#495,#436,#51,.T.);
#607=ORIENTED_EDGE('',*,*,#496,.F.);
#608=ORIENTED_EDGE('',*,*,#497,.T.);
#609=ORIENTED_EDGE('',*,*,#498,.F.);
#610=ORIENTED_EDGE('',*,*,#499,.T.);
#611=ORIENTED_EDGE('',*,*,#496,.T.);
#612=ORIENTED_EDGE('',*,*,#499,.F.);
#613=ORIENTED_EDGE('',*,*,#497,.F.);
#614=ORIENTED_EDGE('',*,*,#500,.T.);
#615=ORIENTED_EDGE('',*,*,#501,.F.);
#616=ORIENTED_EDGE('',*,*,#500,.F.);
#617=ORIENTED_EDGE('',*,*,#502,.F.);
#618=ORIENTED_EDGE('',*,*,#503,.T.);
#619=ORIENTED_EDGE('',*,*,#504,.T.);
#620=ORIENTED_EDGE('',*,*,#505,.T.);
#621=ORIENTED_EDGE('',*,*,#506,.T.);
#622=ORIENTED_EDGE('',*,*,#507,.T.);
#623=ORIENTED_EDGE('',*,*,#508,.T.);
#624=ORIENTED_EDGE('',*,*,#509,.T.);
#625=ORIENTED_EDGE('',*,*,#498,.T.);
#626=ORIENTED_EDGE('',*,*,#510,.T.);
#627=ORIENTED_EDGE('',*,*,#511,.F.);
#628=ORIENTED_EDGE('',*,*,#512,.T.);
#629=ORIENTED_EDGE('',*,*,#502,.T.);
#630=ORIENTED_EDGE('',*,*,#512,.F.);
#631=ORIENTED_EDGE('',*,*,#511,.T.);
#632=ORIENTED_EDGE('',*,*,#513,.T.);
#633=ORIENTED_EDGE('',*,*,#514,.T.);
#634=ORIENTED_EDGE('',*,*,#515,.T.);
#635=ORIENTED_EDGE('',*,*,#516,.T.);
#636=ORIENTED_EDGE('',*,*,#517,.T.);
#637=ORIENTED_EDGE('',*,*,#518,.T.);
#638=ORIENTED_EDGE('',*,*,#519,.T.);
#639=ORIENTED_EDGE('',*,*,#501,.T.);
#640=ORIENTED_EDGE('',*,*,#520,.T.);
#641=ORIENTED_EDGE('',*,*,#510,.F.);
#642=ORIENTED_EDGE('',*,*,#521,.T.);
#643=ORIENTED_EDGE('',*,*,#522,.F.);
#644=ORIENTED_EDGE('',*,*,#521,.F.);
#645=ORIENTED_EDGE('',*,*,#520,.F.);
#646=ORIENTED_EDGE('',*,*,#523,.T.);
#647=ORIENTED_EDGE('',*,*,#524,.F.);
#648=ORIENTED_EDGE('',*,*,#523,.F.);
#649=ORIENTED_EDGE('',*,*,#525,.F.);
#650=ORIENTED_EDGE('',*,*,#526,.T.);
#651=ORIENTED_EDGE('',*,*,#527,.F.);
#652=ORIENTED_EDGE('',*,*,#528,.T.);
#653=ORIENTED_EDGE('',*,*,#525,.T.);
#654=ORIENTED_EDGE('',*,*,#528,.F.);
#655=ORIENTED_EDGE('',*,*,#526,.F.);
#656=ORIENTED_EDGE('',*,*,#529,.T.);
#657=ORIENTED_EDGE('',*,*,#530,.F.);
#658=ORIENTED_EDGE('',*,*,#529,.F.);
#659=ORIENTED_EDGE('',*,*,#531,.F.);
#660=ORIENTED_EDGE('',*,*,#532,.T.);
#661=ORIENTED_EDGE('',*,*,#533,.T.);
#662=ORIENTED_EDGE('',*,*,#532,.F.);
#663=ORIENTED_EDGE('',*,*,#533,.F.);
#664=ORIENTED_EDGE('',*,*,#524,.T.);
#665=ORIENTED_EDGE('',*,*,#534,.F.);
#666=ORIENTED_EDGE('',*,*,#535,.T.);
#667=ORIENTED_EDGE('',*,*,#536,.T.);
#668=ORIENTED_EDGE('',*,*,#535,.F.);
#669=ORIENTED_EDGE('',*,*,#534,.T.);
#670=ORIENTED_EDGE('',*,*,#522,.T.);
#671=ORIENTED_EDGE('',*,*,#537,.T.);
#672=ORIENTED_EDGE('',*,*,#538,.T.);
#673=ORIENTED_EDGE('',*,*,#539,.T.);
#674=ORIENTED_EDGE('',*,*,#540,.T.);
#675=ORIENTED_EDGE('',*,*,#541,.T.);
#676=ORIENTED_EDGE('',*,*,#542,.T.);
#677=ORIENTED_EDGE('',*,*,#543,.T.);
#678=ORIENTED_EDGE('',*,*,#527,.T.);
#679=ORIENTED_EDGE('',*,*,#536,.F.);
#680=ORIENTED_EDGE('',*,*,#544,.T.);
#681=ORIENTED_EDGE('',*,*,#545,.T.);
#682=ORIENTED_EDGE('',*,*,#546,.T.);
#683=ORIENTED_EDGE('',*,*,#547,.T.);
#684=ORIENTED_EDGE('',*,*,#548,.T.);
#685=ORIENTED_EDGE('',*,*,#549,.T.);
#686=ORIENTED_EDGE('',*,*,#550,.T.);
#687=ORIENTED_EDGE('',*,*,#530,.T.);
#688=ORIENTED_EDGE('',*,*,#531,.T.);
#689=ORIENTED_EDGE('',*,*,#551,.F.);
#690=ORIENTED_EDGE('',*,*,#552,.T.);
#691=ORIENTED_EDGE('',*,*,#543,.F.);
#692=ORIENTED_EDGE('',*,*,#553,.T.);
#693=ORIENTED_EDGE('',*,*,#551,.T.);
#694=ORIENTED_EDGE('',*,*,#553,.F.);
#695=ORIENTED_EDGE('',*,*,#552,.F.);
#696=ORIENTED_EDGE('',*,*,#554,.T.);
#697=ORIENTED_EDGE('',*,*,#550,.F.);
#698=ORIENTED_EDGE('',*,*,#554,.F.);
#699=ORIENTED_EDGE('',*,*,#555,.F.);
#700=ORIENTED_EDGE('',*,*,#556,.T.);
#701=ORIENTED_EDGE('',*,*,#542,.F.);
#702=ORIENTED_EDGE('',*,*,#557,.T.);
#703=ORIENTED_EDGE('',*,*,#555,.T.);
#704=ORIENTED_EDGE('',*,*,#557,.F.);
#705=ORIENTED_EDGE('',*,*,#556,.F.);
#706=ORIENTED_EDGE('',*,*,#558,.T.);
#707=ORIENTED_EDGE('',*,*,#549,.F.);
#708=ORIENTED_EDGE('',*,*,#558,.F.);
#709=ORIENTED_EDGE('',*,*,#559,.F.);
#710=ORIENTED_EDGE('',*,*,#560,.T.);
#711=ORIENTED_EDGE('',*,*,#541,.F.);
#712=ORIENTED_EDGE('',*,*,#561,.T.);
#713=ORIENTED_EDGE('',*,*,#559,.T.);
#714=ORIENTED_EDGE('',*,*,#561,.F.);
#715=ORIENTED_EDGE('',*,*,#560,.F.);
#716=ORIENTED_EDGE('',*,*,#562,.T.);
#717=ORIENTED_EDGE('',*,*,#548,.F.);
#718=ORIENTED_EDGE('',*,*,#562,.F.);
#719=ORIENTED_EDGE('',*,*,#563,.F.);
#720=ORIENTED_EDGE('',*,*,#564,.T.);
#721=ORIENTED_EDGE('',*,*,#540,.F.);
#722=ORIENTED_EDGE('',*,*,#565,.T.);
#723=ORIENTED_EDGE('',*,*,#563,.T.);
#724=ORIENTED_EDGE('',*,*,#565,.F.);
#725=ORIENTED_EDGE('',*,*,#564,.F.);
#726=ORIENTED_EDGE('',*,*,#566,.T.);
#727=ORIENTED_EDGE('',*,*,#547,.F.);
#728=ORIENTED_EDGE('',*,*,#566,.F.);
#729=ORIENTED_EDGE('',*,*,#567,.F.);
#730=ORIENTED_EDGE('',*,*,#568,.T.);
#731=ORIENTED_EDGE('',*,*,#539,.F.);
#732=ORIENTED_EDGE('',*,*,#569,.T.);
#733=ORIENTED_EDGE('',*,*,#567,.T.);
#734=ORIENTED_EDGE('',*,*,#569,.F.);
#735=ORIENTED_EDGE('',*,*,#568,.F.);
#736=ORIENTED_EDGE('',*,*,#570,.T.);
#737=ORIENTED_EDGE('',*,*,#546,.F.);
#738=ORIENTED_EDGE('',*,*,#570,.F.);
#739=ORIENTED_EDGE('',*,*,#571,.F.);
#740=ORIENTED_EDGE('',*,*,#572,.T.);
#741=ORIENTED_EDGE('',*,*,#538,.F.);
#742=ORIENTED_EDGE('',*,*,#573,.T.);
#743=ORIENTED_EDGE('',*,*,#571,.T.);
#744=ORIENTED_EDGE('',*,*,#573,.F.);
#745=ORIENTED_EDGE('',*,*,#572,.F.);
#746=ORIENTED_EDGE('',*,*,#574,.T.);
#747=ORIENTED_EDGE('',*,*,#545,.F.);
#748=ORIENTED_EDGE('',*,*,#574,.F.);
#749=ORIENTED_EDGE('',*,*,#575,.F.);
#750=ORIENTED_EDGE('',*,*,#576,.T.);
#751=ORIENTED_EDGE('',*,*,#537,.F.);
#752=ORIENTED_EDGE('',*,*,#577,.T.);
#753=ORIENTED_EDGE('',*,*,#575,.T.);
#754=ORIENTED_EDGE('',*,*,#577,.F.);
#755=ORIENTED_EDGE('',*,*,#576,.F.);
#756=ORIENTED_EDGE('',*,*,#578,.T.);
#757=ORIENTED_EDGE('',*,*,#544,.F.);
#758=ORIENTED_EDGE('',*,*,#578,.F.);
#759=ORIENTED_EDGE('',*,*,#579,.F.);
#760=ORIENTED_EDGE('',*,*,#580,.T.);
#761=ORIENTED_EDGE('',*,*,#509,.F.);
#762=ORIENTED_EDGE('',*,*,#581,.T.);
#763=ORIENTED_EDGE('',*,*,#579,.T.);
#764=ORIENTED_EDGE('',*,*,#581,.F.);
#765=ORIENTED_EDGE('',*,*,#580,.F.);
#766=ORIENTED_EDGE('',*,*,#582,.T.);
#767=ORIENTED_EDGE('',*,*,#519,.F.);
#768=ORIENTED_EDGE('',*,*,#582,.F.);
#769=ORIENTED_EDGE('',*,*,#583,.F.);
#770=ORIENTED_EDGE('',*,*,#584,.T.);
#771=ORIENTED_EDGE('',*,*,#508,.F.);
#772=ORIENTED_EDGE('',*,*,#585,.T.);
#773=ORIENTED_EDGE('',*,*,#583,.T.);
#774=ORIENTED_EDGE('',*,*,#585,.F.);
#775=ORIENTED_EDGE('',*,*,#584,.F.);
#776=ORIENTED_EDGE('',*,*,#586,.T.);
#777=ORIENTED_EDGE('',*,*,#518,.F.);
#778=ORIENTED_EDGE('',*,*,#586,.F.);
#779=ORIENTED_EDGE('',*,*,#587,.F.);
#780=ORIENTED_EDGE('',*,*,#588,.T.);
#781=ORIENTED_EDGE('',*,*,#507,.F.);
#782=ORIENTED_EDGE('',*,*,#589,.T.);
#783=ORIENTED_EDGE('',*,*,#587,.T.);
#784=ORIENTED_EDGE('',*,*,#589,.F.);
#785=ORIENTED_EDGE('',*,*,#588,.F.);
#786=ORIENTED_EDGE('',*,*,#590,.T.);
#787=ORIENTED_EDGE('',*,*,#517,.F.);
#788=ORIENTED_EDGE('',*,*,#590,.F.);
#789=ORIENTED_EDGE('',*,*,#591,.F.);
#790=ORIENTED_EDGE('',*,*,#592,.T.);
#791=ORIENTED_EDGE('',*,*,#506,.F.);
#792=ORIENTED_EDGE('',*,*,#593,.T.);
#793=ORIENTED_EDGE('',*,*,#591,.T.);
#794=ORIENTED_EDGE('',*,*,#593,.F.);
#795=ORIENTED_EDGE('',*,*,#592,.F.);
#796=ORIENTED_EDGE('',*,*,#594,.T.);
#797=ORIENTED_EDGE('',*,*,#516,.F.);
#798=ORIENTED_EDGE('',*,*,#594,.F.);
#799=ORIENTED_EDGE('',*,*,#595,.F.);
#800=ORIENTED_EDGE('',*,*,#596,.T.);
#801=ORIENTED_EDGE('',*,*,#505,.F.);
#802=ORIENTED_EDGE('',*,*,#597,.T.);
#803=ORIENTED_EDGE('',*,*,#595,.T.);
#804=ORIENTED_EDGE('',*,*,#597,.F.);
#805=ORIENTED_EDGE('',*,*,#596,.F.);
#806=ORIENTED_EDGE('',*,*,#598,.T.);
#807=ORIENTED_EDGE('',*,*,#515,.F.);
#808=ORIENTED_EDGE('',*,*,#598,.F.);
#809=ORIENTED_EDGE('',*,*,#599,.F.);
#810=ORIENTED_EDGE('',*,*,#600,.T.);
#811=ORIENTED_EDGE('',*,*,#504,.F.);
#812=ORIENTED_EDGE('',*,*,#601,.T.);
#813=ORIENTED_EDGE('',*,*,#599,.T.);
#814=ORIENTED_EDGE('',*,*,#601,.F.);
#815=ORIENTED_EDGE('',*,*,#600,.F.);
#816=ORIENTED_EDGE('',*,*,#602,.T.);
#817=ORIENTED_EDGE('',*,*,#514,.F.);
#818=ORIENTED_EDGE('',*,*,#602,.F.);
#819=ORIENTED_EDGE('',*,*,#603,.F.);
#820=ORIENTED_EDGE('',*,*,#604,.T.);
#821=ORIENTED_EDGE('',*,*,#503,.F.);
#822=ORIENTED_EDGE('',*,*,#605,.T.);
#823=ORIENTED_EDGE('',*,*,#603,.T.);
#824=ORIENTED_EDGE('',*,*,#605,.F.);
#825=ORIENTED_EDGE('',*,*,#604,.F.);
#826=ORIENTED_EDGE('',*,*,#606,.T.);
#827=ORIENTED_EDGE('',*,*,#513,.F.);
#828=ORIENTED_EDGE('',*,*,#606,.F.);
#829=PLANE('',#922);
#830=PLANE('',#929);
#831=PLANE('',#941);
#832=PLANE('',#954);
#833=PLANE('',#964);
#834=PLANE('',#968);
#835=PLANE('',#976);
#836=PLANE('',#984);
#837=PLANE('',#989);
#838=PLANE('',#994);
#839=PLANE('',#999);
#840=PLANE('',#1004);
#841=PLANE('',#1009);
#842=PLANE('',#1014);
#843=PLANE('',#1019);
#844=PLANE('',#1024);
#845=PLANE('',#1029);
#846=PLANE('',#1034);
#847=PLANE('',#1039);
#848=PLANE('',#1044);
#849=PLANE('',#1049);
#850=ADVANCED_FACE('',(#179,#126),#829,.F.);
#851=ADVANCED_FACE('',(#180),#89,.F.);
#852=ADVANCED_FACE('',(#181),#90,.F.);
#853=ADVANCED_FACE('',(#182,#127,#128,#129,#130,#131,#132,#133,#134,#135),
#830,.F.);
#854=ADVANCED_FACE('',(#183),#91,.T.);
#855=ADVANCED_FACE('',(#184,#136,#137,#138,#139,#140,#141,#142,#143,#144),
#831,.T.);
#856=ADVANCED_FACE('',(#185),#92,.T.);
#857=ADVANCED_FACE('',(#186),#93,.F.);
#858=ADVANCED_FACE('',(#187,#145),#832,.F.);
#859=ADVANCED_FACE('',(#188),#94,.F.);
#860=ADVANCED_FACE('',(#189),#95,.F.);
#861=ADVANCED_FACE('',(#190),#96,.F.);
#862=ADVANCED_FACE('',(#191,#146),#833,.T.);
#863=ADVANCED_FACE('',(#192),#97,.T.);
#864=ADVANCED_FACE('',(#193,#147,#148,#149,#150,#151,#152,#153,#154,#155),
#834,.T.);
#865=ADVANCED_FACE('',(#194,#156,#157,#158,#159,#160,#161,#162,#163,#164),
#835,.F.);
#866=ADVANCED_FACE('',(#195,#165),#836,.F.);
#867=ADVANCED_FACE('',(#196),#98,.F.);
#868=ADVANCED_FACE('',(#197),#99,.F.);
#869=ADVANCED_FACE('',(#198,#166),#837,.F.);
#870=ADVANCED_FACE('',(#199),#100,.F.);
#871=ADVANCED_FACE('',(#200),#101,.F.);
#872=ADVANCED_FACE('',(#201,#167),#838,.F.);
#873=ADVANCED_FACE('',(#202),#102,.F.);
#874=ADVANCED_FACE('',(#203),#103,.F.);
#875=ADVANCED_FACE('',(#204,#168),#839,.F.);
#876=ADVANCED_FACE('',(#205),#104,.F.);
#877=ADVANCED_FACE('',(#206),#105,.F.);
#878=ADVANCED_FACE('',(#207,#169),#840,.F.);
#879=ADVANCED_FACE('',(#208),#106,.F.);
#880=ADVANCED_FACE('',(#209),#107,.F.);
#881=ADVANCED_FACE('',(#210,#170),#841,.F.);
#882=ADVANCED_FACE('',(#211),#108,.F.);
#883=ADVANCED_FACE('',(#212),#109,.F.);
#884=ADVANCED_FACE('',(#213,#171),#842,.F.);
#885=ADVANCED_FACE('',(#214),#110,.F.);
#886=ADVANCED_FACE('',(#215),#111,.F.);
#887=ADVANCED_FACE('',(#216,#172),#843,.F.);
#888=ADVANCED_FACE('',(#217),#112,.F.);
#889=ADVANCED_FACE('',(#218),#113,.F.);
#890=ADVANCED_FACE('',(#219,#173),#844,.F.);
#891=ADVANCED_FACE('',(#220),#114,.F.);
#892=ADVANCED_FACE('',(#221),#115,.F.);
#893=ADVANCED_FACE('',(#222,#174),#845,.F.);
#894=ADVANCED_FACE('',(#223),#116,.F.);
#895=ADVANCED_FACE('',(#224),#117,.F.);
#896=ADVANCED_FACE('',(#225,#175),#846,.F.);
#897=ADVANCED_FACE('',(#226),#118,.F.);
#898=ADVANCED_FACE('',(#227),#119,.F.);
#899=ADVANCED_FACE('',(#228,#176),#847,.F.);
#900=ADVANCED_FACE('',(#229),#120,.F.);
#901=ADVANCED_FACE('',(#230),#121,.F.);
#902=ADVANCED_FACE('',(#231,#177),#848,.F.);
#903=ADVANCED_FACE('',(#232),#122,.F.);
#904=ADVANCED_FACE('',(#233),#123,.F.);
#905=ADVANCED_FACE('',(#234,#178),#849,.F.);
#906=ADVANCED_FACE('',(#235),#124,.F.);
#907=ADVANCED_FACE('',(#236),#125,.F.);
#908=CLOSED_SHELL('',(#850,#851,#852,#853,#854,#855,#856,#857,#858,#859,
#860,#861,#862,#863,#864,#865,#866,#867,#868,#869,#870,#871,#872,#873,#874,
#875,#876,#877,#878,#879,#880,#881,#882,#883,#884,#885,#886,#887,#888,#889,
#890,#891,#892,#893,#894,#895,#896,#897,#898,#899,#900,#901,#902,#903,#904,
#905,#906,#907));
#909=DERIVED_UNIT_ELEMENT(#911,1.);
#910=DERIVED_UNIT_ELEMENT(#1606,-3.);
#911=(
MASS_UNIT()
NAMED_UNIT(*)
SI_UNIT(.KILO.,.GRAM.)
);
#912=DERIVED_UNIT((#909,#910));
#913=MEASURE_REPRESENTATION_ITEM('density measure',
POSITIVE_RATIO_MEASURE(7850.),#912);
#914=PROPERTY_DEFINITION_REPRESENTATION(#919,#916);
#915=PROPERTY_DEFINITION_REPRESENTATION(#920,#917);
#916=REPRESENTATION('material name',(#918),#1603);
#917=REPRESENTATION('density',(#913),#1603);
#918=DESCRIPTIVE_REPRESENTATION_ITEM('Steel','Steel');
#919=PROPERTY_DEFINITION('material property','material name',#1613);
#920=PROPERTY_DEFINITION('material property','density of part',#1613);
#921=AXIS2_PLACEMENT_3D('',#1357,#1054,#1055);
#922=AXIS2_PLACEMENT_3D('',#1358,#1056,#1057);
#923=AXIS2_PLACEMENT_3D('',#1360,#1058,#1059);
#924=AXIS2_PLACEMENT_3D('',#1362,#1060,#1061);
#925=AXIS2_PLACEMENT_3D('',#1363,#1062,#1063);
#926=AXIS2_PLACEMENT_3D('',#1365,#1064,#1065);
#927=AXIS2_PLACEMENT_3D('',#1367,#1067,#1068);
#928=AXIS2_PLACEMENT_3D('',#1370,#1070,#1071);
#929=AXIS2_PLACEMENT_3D('',#1371,#1072,#1073);
#930=AXIS2_PLACEMENT_3D('',#1373,#1074,#1075);
#931=AXIS2_PLACEMENT_3D('',#1375,#1076,#1077);
#932=AXIS2_PLACEMENT_3D('',#1377,#1078,#1079);
#933=AXIS2_PLACEMENT_3D('',#1379,#1080,#1081);
#934=AXIS2_PLACEMENT_3D('',#1381,#1082,#1083);
#935=AXIS2_PLACEMENT_3D('',#1383,#1084,#1085);
#936=AXIS2_PLACEMENT_3D('',#1385,#1086,#1087);
#937=AXIS2_PLACEMENT_3D('',#1387,#1088,#1089);
#938=AXIS2_PLACEMENT_3D('',#1389,#1090,#1091);
#939=AXIS2_PLACEMENT_3D('',#1390,#1092,#1093);
#940=AXIS2_PLACEMENT_3D('',#1392,#1094,#1095);
#941=AXIS2_PLACEMENT_3D('',#1394,#1097,#1098);
#942=AXIS2_PLACEMENT_3D('',#1396,#1099,#1100);
#943=AXIS2_PLACEMENT_3D('',#1398,#1101,#1102);
#944=AXIS2_PLACEMENT_3D('',#1400,#1103,#1104);
#945=AXIS2_PLACEMENT_3D('',#1402,#1105,#1106);
#946=AXIS2_PLACEMENT_3D('',#1404,#1107,#1108);
#947=AXIS2_PLACEMENT_3D('',#1406,#1109,#1110);
#948=AXIS2_PLACEMENT_3D('',#1408,#1111,#1112);
#949=AXIS2_PLACEMENT_3D('',#1410,#1113,#1114);
#950=AXIS2_PLACEMENT_3D('',#1411,#1115,#1116);
#951=AXIS2_PLACEMENT_3D('',#1414,#1118,#1119);
#952=AXIS2_PLACEMENT_3D('',#1415,#1120,#1121);
#953=AXIS2_PLACEMENT_3D('',#1418,#1123,#1124);
#954=AXIS2_PLACEMENT_3D('',#1419,#1125,#1126);
#955=AXIS2_PLACEMENT_3D('',#1421,#1127,#1128);
#956=AXIS2_PLACEMENT_3D('',#1423,#1129,#1130);
#957=AXIS2_PLACEMENT_3D('',#1424,#1131,#1132);
#958=AXIS2_PLACEMENT_3D('',#1426,#1133,#1134);
#959=AXIS2_PLACEMENT_3D('',#1428,#1136,#1137);
#960=AXIS2_PLACEMENT_3D('',#1431,#1139,#1140);
#961=AXIS2_PLACEMENT_3D('',#1432,#1141,#1142);
#962=AXIS2_PLACEMENT_3D('',#1434,#1143,#1144);
#963=AXIS2_PLACEMENT_3D('',#1437,#1146,#1147);
#964=AXIS2_PLACEMENT_3D('',#1438,#1148,#1149);
#965=AXIS2_PLACEMENT_3D('',#1439,#1150,#1151);
#966=AXIS2_PLACEMENT_3D('',#1441,#1152,#1153);
#967=AXIS2_PLACEMENT_3D('',#1444,#1155,#1156);
#968=AXIS2_PLACEMENT_3D('',#1445,#1157,#1158);
#969=AXIS2_PLACEMENT_3D('',#1447,#1159,#1160);
#970=AXIS2_PLACEMENT_3D('',#1449,#1161,#1162);
#971=AXIS2_PLACEMENT_3D('',#1451,#1163,#1164);
#972=AXIS2_PLACEMENT_3D('',#1453,#1165,#1166);
#973=AXIS2_PLACEMENT_3D('',#1455,#1167,#1168);
#974=AXIS2_PLACEMENT_3D('',#1457,#1169,#1170);
#975=AXIS2_PLACEMENT_3D('',#1459,#1171,#1172);
#976=AXIS2_PLACEMENT_3D('',#1460,#1173,#1174);
#977=AXIS2_PLACEMENT_3D('',#1462,#1175,#1176);
#978=AXIS2_PLACEMENT_3D('',#1464,#1177,#1178);
#979=AXIS2_PLACEMENT_3D('',#1466,#1179,#1180);
#980=AXIS2_PLACEMENT_3D('',#1468,#1181,#1182);
#981=AXIS2_PLACEMENT_3D('',#1470,#1183,#1184);
#982=AXIS2_PLACEMENT_3D('',#1472,#1185,#1186);
#983=AXIS2_PLACEMENT_3D('',#1474,#1187,#1188);
#984=AXIS2_PLACEMENT_3D('',#1475,#1189,#1190);
#985=AXIS2_PLACEMENT_3D('',#1477,#1191,#1192);
#986=AXIS2_PLACEMENT_3D('',#1479,#1193,#1194);
#987=AXIS2_PLACEMENT_3D('',#1480,#1195,#1196);
#988=AXIS2_PLACEMENT_3D('',#1482,#1198,#1199);
#989=AXIS2_PLACEMENT_3D('',#1484,#1201,#1202);
#990=AXIS2_PLACEMENT_3D('',#1486,#1203,#1204);
#991=AXIS2_PLACEMENT_3D('',#1488,#1205,#1206);
#992=AXIS2_PLACEMENT_3D('',#1489,#1207,#1208);
#993=AXIS2_PLACEMENT_3D('',#1491,#1210,#1211);
#994=AXIS2_PLACEMENT_3D('',#1493,#1213,#1214);
#995=AXIS2_PLACEMENT_3D('',#1495,#1215,#1216);
#996=AXIS2_PLACEMENT_3D('',#1497,#1217,#1218);
#997=AXIS2_PLACEMENT_3D('',#1498,#1219,#1220);
#998=AXIS2_PLACEMENT_3D('',#1500,#1222,#1223);
#999=AXIS2_PLACEMENT_3D('',#1502,#1225,#1226);
#1000=AXIS2_PLACEMENT_3D('',#1504,#1227,#1228);
#1001=AXIS2_PLACEMENT_3D('',#1506,#1229,#1230);
#1002=AXIS2_PLACEMENT_3D('',#1507,#1231,#1232);
#1003=AXIS2_PLACEMENT_3D('',#1509,#1234,#1235);
#1004=AXIS2_PLACEMENT_3D('',#1511,#1237,#1238);
#1005=AXIS2_PLACEMENT_3D('',#1513,#1239,#1240);
#1006=AXIS2_PLACEMENT_3D('',#1515,#1241,#1242);
#1007=AXIS2_PLACEMENT_3D('',#1516,#1243,#1244);
#1008=AXIS2_PLACEMENT_3D('',#1518,#1246,#1247);
#1009=AXIS2_PLACEMENT_3D('',#1520,#1249,#1250);
#1010=AXIS2_PLACEMENT_3D('',#1522,#1251,#1252);
#1011=AXIS2_PLACEMENT_3D('',#1524,#1253,#1254);
#1012=AXIS2_PLACEMENT_3D('',#1525,#1255,#1256);
#1013=AXIS2_PLACEMENT_3D('',#1527,#1258,#1259);
#1014=AXIS2_PLACEMENT_3D('',#1529,#1261,#1262);
#1015=AXIS2_PLACEMENT_3D('',#1531,#1263,#1264);
#1016=AXIS2_PLACEMENT_3D('',#1533,#1265,#1266);
#1017=AXIS2_PLACEMENT_3D('',#1534,#1267,#1268);
#1018=AXIS2_PLACEMENT_3D('',#1536,#1270,#1271);
#1019=AXIS2_PLACEMENT_3D('',#1538,#1273,#1274);
#1020=AXIS2_PLACEMENT_3D('',#1540,#1275,#1276);
#1021=AXIS2_PLACEMENT_3D('',#1542,#1277,#1278);
#1022=AXIS2_PLACEMENT_3D('',#1543,#1279,#1280);
#1023=AXIS2_PLACEMENT_3D('',#1545,#1282,#1283);
#1024=AXIS2_PLACEMENT_3D('',#1547,#1285,#1286);
#1025=AXIS2_PLACEMENT_3D('',#1549,#1287,#1288);
#1026=AXIS2_PLACEMENT_3D('',#1551,#1289,#1290);
#1027=AXIS2_PLACEMENT_3D('',#1552,#1291,#1292);
#1028=AXIS2_PLACEMENT_3D('',#1554,#1294,#1295);
#1029=AXIS2_PLACEMENT_3D('',#1556,#1297,#1298);
#1030=AXIS2_PLACEMENT_3D('',#1558,#1299,#1300);
#1031=AXIS2_PLACEMENT_3D('',#1560,#1301,#1302);
#1032=AXIS2_PLACEMENT_3D('',#1561,#1303,#1304);
#1033=AXIS2_PLACEMENT_3D('',#1563,#1306,#1307);
#1034=AXIS2_PLACEMENT_3D('',#1565,#1309,#1310);
#1035=AXIS2_PLACEMENT_3D('',#1567,#1311,#1312);
#1036=AXIS2_PLACEMENT_3D('',#1569,#1313,#1314);
#1037=AXIS2_PLACEMENT_3D('',#1570,#1315,#1316);
#1038=AXIS2_PLACEMENT_3D('',#1572,#1318,#1319);
#1039=AXIS2_PLACEMENT_3D('',#1574,#1321,#1322);
#1040=AXIS2_PLACEMENT_3D('',#1576,#1323,#1324);
#1041=AXIS2_PLACEMENT_3D('',#1578,#1325,#1326);
#1042=AXIS2_PLACEMENT_3D('',#1579,#1327,#1328);
#1043=AXIS2_PLACEMENT_3D('',#1581,#1330,#1331);
#1044=AXIS2_PLACEMENT_3D('',#1583,#1333,#1334);
#1045=AXIS2_PLACEMENT_3D('',#1585,#1335,#1336);
#1046=AXIS2_PLACEMENT_3D('',#1587,#1337,#1338);
#1047=AXIS2_PLACEMENT_3D('',#1588,#1339,#1340);
#1048=AXIS2_PLACEMENT_3D('',#1590,#1342,#1343);
#1049=AXIS2_PLACEMENT_3D('',#1592,#1345,#1346);
#1050=AXIS2_PLACEMENT_3D('',#1594,#1347,#1348);
#1051=AXIS2_PLACEMENT_3D('',#1596,#1349,#1350);
#1052=AXIS2_PLACEMENT_3D('',#1597,#1351,#1352);
#1053=AXIS2_PLACEMENT_3D('',#1599,#1354,#1355);
#1054=DIRECTION('axis',(0.,0.,1.));
#1055=DIRECTION('refdir',(1.,0.,0.));
#1056=DIRECTION('center_axis',(0.,0.,1.));
#1057=DIRECTION('ref_axis',(-1.,0.,0.));
#1058=DIRECTION('center_axis',(0.,0.,1.));
#1059=DIRECTION('ref_axis',(-1.,0.,0.));
#1060=DIRECTION('center_axis',(0.,0.,1.));
#1061=DIRECTION('ref_axis',(-1.,0.,0.));
#1062=DIRECTION('center_axis',(0.,0.,1.));
#1063=DIRECTION('ref_axis',(-1.,0.,0.));
#1064=DIRECTION('center_axis',(0.,0.,1.));
#1065=DIRECTION('ref_axis',(-1.,0.,0.));
#1066=DIRECTION('',(0.,0.,1.));
#1067=DIRECTION('center_axis',(0.,0.,1.));
#1068=DIRECTION('ref_axis',(-1.,0.,0.));
#1069=DIRECTION('',(0.,0.,1.));
#1070=DIRECTION('center_axis',(0.,0.,-1.));
#1071=DIRECTION('ref_axis',(-1.,0.,0.));
#1072=DIRECTION('center_axis',(0.,0.,1.));
#1073=DIRECTION('ref_axis',(1.,0.,0.));
#1074=DIRECTION('center_axis',(0.,0.,1.));
#1075=DIRECTION('ref_axis',(1.,0.,0.));
#1076=DIRECTION('center_axis',(0.,0.,1.));
#1077=DIRECTION('ref_axis',(-0.707106781186547,0.707106781186548,0.));
#1078=DIRECTION('center_axis',(0.,0.,1.));
#1079=DIRECTION('ref_axis',(1.83697019872103E-16,1.,0.));
#1080=DIRECTION('center_axis',(0.,0.,1.));
#1081=DIRECTION('ref_axis',(0.707106781186548,0.707106781186547,0.));
#1082=DIRECTION('center_axis',(0.,0.,1.));
#1083=DIRECTION('ref_axis',(1.,-1.22464679914735E-16,0.));
#1084=DIRECTION('center_axis',(0.,0.,1.));
#1085=DIRECTION('ref_axis',(0.707106781186547,-0.707106781186548,0.));
#1086=DIRECTION('center_axis',(0.,0.,1.));
#1087=DIRECTION('ref_axis',(-6.12323399573677E-17,-1.,0.));
#1088=DIRECTION('center_axis',(0.,0.,1.));
#1089=DIRECTION('ref_axis',(-0.707106781186548,-0.707106781186548,0.));
#1090=DIRECTION('center_axis',(0.,0.,1.));
#1091=DIRECTION('ref_axis',(1.,0.,0.));
#1092=DIRECTION('center_axis',(0.,0.,1.));
#1093=DIRECTION('ref_axis',(1.,0.,0.));
#1094=DIRECTION('center_axis',(0.,0.,1.));
#1095=DIRECTION('ref_axis',(1.,0.,0.));
#1096=DIRECTION('',(0.,0.,-1.));
#1097=DIRECTION('center_axis',(0.,0.,1.));
#1098=DIRECTION('ref_axis',(1.,0.,0.));
#1099=DIRECTION('center_axis',(0.,0.,-1.));
#1100=DIRECTION('ref_axis',(-0.707106781186547,0.707106781186548,0.));
#1101=DIRECTION('center_axis',(0.,0.,-1.));
#1102=DIRECTION('ref_axis',(1.83697019872103E-16,1.,0.));
#1103=DIRECTION('center_axis',(0.,0.,-1.));
#1104=DIRECTION('ref_axis',(0.707106781186548,0.707106781186547,0.));
#1105=DIRECTION('center_axis',(0.,0.,-1.));
#1106=DIRECTION('ref_axis',(1.,-1.22464679914735E-16,0.));
#1107=DIRECTION('center_axis',(0.,0.,-1.));
#1108=DIRECTION('ref_axis',(0.707106781186547,-0.707106781186548,0.));
#1109=DIRECTION('center_axis',(0.,0.,-1.));
#1110=DIRECTION('ref_axis',(-6.12323399573677E-17,-1.,0.));
#1111=DIRECTION('center_axis',(0.,0.,-1.));
#1112=DIRECTION('ref_axis',(-0.707106781186548,-0.707106781186548,0.));
#1113=DIRECTION('center_axis',(0.,0.,-1.));
#1114=DIRECTION('ref_axis',(1.,0.,0.));
#1115=DIRECTION('center_axis',(0.,0.,1.));
#1116=DIRECTION('ref_axis',(1.,0.,0.));
#1117=DIRECTION('',(0.,0.,-1.));
#1118=DIRECTION('center_axis',(0.,0.,-1.));
#1119=DIRECTION('ref_axis',(1.,0.,0.));
#1120=DIRECTION('center_axis',(0.,0.,-1.));
#1121=DIRECTION('ref_axis',(1.,0.,0.));
#1122=DIRECTION('',(0.,0.,-1.));
#1123=DIRECTION('center_axis',(0.,0.,1.));
#1124=DIRECTION('ref_axis',(1.,0.,0.));
#1125=DIRECTION('center_axis',(0.,0.,-1.));
#1126=DIRECTION('ref_axis',(1.,0.,0.));
#1127=DIRECTION('center_axis',(0.,0.,-1.));
#1128=DIRECTION('ref_axis',(1.,0.,0.));
#1129=DIRECTION('center_axis',(0.,0.,-1.));
#1130=DIRECTION('ref_axis',(1.,0.,0.));
#1131=DIRECTION('center_axis',(0.,0.,-1.));
#1132=DIRECTION('ref_axis',(1.,0.,0.));
#1133=DIRECTION('center_axis',(0.,0.,-1.));
#1134=DIRECTION('ref_axis',(1.,0.,0.));
#1135=DIRECTION('',(0.,0.,-1.));
#1136=DIRECTION('center_axis',(0.,0.,-1.));
#1137=DIRECTION('ref_axis',(1.,0.,0.));
#1138=DIRECTION('',(0.,0.,-1.));
#1139=DIRECTION('center_axis',(0.,0.,1.));
#1140=DIRECTION('ref_axis',(1.,0.,0.));
#1141=DIRECTION('center_axis',(0.,0.,1.));
#1142=DIRECTION('ref_axis',(-1.,0.,0.));
#1143=DIRECTION('center_axis',(0.,0.,1.));
#1144=DIRECTION('ref_axis',(-1.,0.,0.));
#1145=DIRECTION('',(0.,0.,1.));
#1146=DIRECTION('center_axis',(0.,0.,1.));
#1147=DIRECTION('ref_axis',(-1.,0.,0.));
#1148=DIRECTION('center_axis',(0.,0.,-1.));
#1149=DIRECTION('ref_axis',(-1.,0.,0.));
#1150=DIRECTION('center_axis',(0.,0.,1.));
#1151=DIRECTION('ref_axis',(1.,0.,0.));
#1152=DIRECTION('center_axis',(0.,0.,1.));
#1153=DIRECTION('ref_axis',(1.,0.,0.));
#1154=DIRECTION('',(0.,0.,-1.));
#1155=DIRECTION('center_axis',(0.,0.,1.));
#1156=DIRECTION('ref_axis',(1.,0.,0.));
#1157=DIRECTION('center_axis',(0.,0.,1.));
#1158=DIRECTION('ref_axis',(1.,0.,0.));
#1159=DIRECTION('center_axis',(0.,0.,-1.));
#1160=DIRECTION('ref_axis',(0.707106781186547,-0.707106781186548,0.));
#1161=DIRECTION('center_axis',(0.,0.,-1.));
#1162=DIRECTION('ref_axis',(-1.83697019872103E-16,-1.,0.));
#1163=DIRECTION('center_axis',(0.,0.,-1.));
#1164=DIRECTION('ref_axis',(-0.707106781186548,-0.707106781186547,0.));
#1165=DIRECTION('center_axis',(0.,0.,-1.));
#1166=DIRECTION('ref_axis',(-1.,1.22464679914735E-16,0.));
#1167=DIRECTION('center_axis',(0.,0.,-1.));
#1168=DIRECTION('ref_axis',(-0.707106781186547,0.707106781186548,0.));
#1169=DIRECTION('center_axis',(0.,0.,-1.));
#1170=DIRECTION('ref_axis',(6.12323399573677E-17,1.,0.));
#1171=DIRECTION('center_axis',(0.,0.,-1.));
#1172=DIRECTION('ref_axis',(0.707106781186548,0.707106781186548,0.));
#1173=DIRECTION('center_axis',(0.,0.,1.));
#1174=DIRECTION('ref_axis',(1.,0.,0.));
#1175=DIRECTION('center_axis',(0.,0.,1.));
#1176=DIRECTION('ref_axis',(0.707106781186547,-0.707106781186548,0.));
#1177=DIRECTION('center_axis',(0.,0.,1.));
#1178=DIRECTION('ref_axis',(-1.83697019872103E-16,-1.,0.));
#1179=DIRECTION('center_axis',(0.,0.,1.));
#1180=DIRECTION('ref_axis',(-0.707106781186548,-0.707106781186547,0.));
#1181=DIRECTION('center_axis',(0.,0.,1.));
#1182=DIRECTION('ref_axis',(-1.,1.22464679914735E-16,0.));
#1183=DIRECTION('center_axis',(0.,0.,1.));
#1184=DIRECTION('ref_axis',(-0.707106781186547,0.707106781186548,0.));
#1185=DIRECTION('center_axis',(0.,0.,1.));
#1186=DIRECTION('ref_axis',(6.12323399573677E-17,1.,0.));
#1187=DIRECTION('center_axis',(0.,0.,1.));
#1188=DIRECTION('ref_axis',(0.707106781186548,0.707106781186548,0.));
#1189=DIRECTION('center_axis',(0.,0.,-1.));
#1190=DIRECTION('ref_axis',(0.707106781186548,0.707106781186548,0.));
#1191=DIRECTION('center_axis',(0.,0.,-1.));
#1192=DIRECTION('ref_axis',(0.707106781186548,0.707106781186548,0.));
#1193=DIRECTION('center_axis',(0.,0.,-1.));
#1194=DIRECTION('ref_axis',(0.707106781186548,0.707106781186548,0.));
#1195=DIRECTION('center_axis',(0.,0.,-1.));
#1196=DIRECTION('ref_axis',(0.707106781186548,0.707106781186548,0.));
#1197=DIRECTION('',(0.,0.,-1.));
#1198=DIRECTION('center_axis',(0.,0.,-1.));
#1199=DIRECTION('ref_axis',(0.707106781186548,0.707106781186548,0.));
#1200=DIRECTION('',(0.,0.,-1.));
#1201=DIRECTION('center_axis',(0.,0.,-1.));
#1202=DIRECTION('ref_axis',(6.12323399573677E-17,1.,0.));
#1203=DIRECTION('center_axis',(0.,0.,-1.));
#1204=DIRECTION('ref_axis',(6.12323399573677E-17,1.,0.));
#1205=DIRECTION('center_axis',(0.,0.,-1.));
#1206=DIRECTION('ref_axis',(6.12323399573677E-17,1.,0.));
#1207=DIRECTION('center_axis',(0.,0.,-1.));
#1208=DIRECTION('ref_axis',(6.12323399573677E-17,1.,0.));
#1209=DIRECTION('',(0.,0.,-1.));
#1210=DIRECTION('center_axis',(0.,0.,-1.));
#1211=DIRECTION('ref_axis',(6.12323399573677E-17,1.,0.));
#1212=DIRECTION('',(0.,0.,-1.));
#1213=DIRECTION('center_axis',(0.,0.,-1.));
#1214=DIRECTION('ref_axis',(-0.707106781186547,0.707106781186548,0.));
#1215=DIRECTION('center_axis',(0.,0.,-1.));
#1216=DIRECTION('ref_axis',(-0.707106781186547,0.707106781186548,0.));
#1217=DIRECTION('center_axis',(0.,0.,-1.));
#1218=DIRECTION('ref_axis',(-0.707106781186547,0.707106781186548,0.));
#1219=DIRECTION('center_axis',(0.,0.,-1.));
#1220=DIRECTION('ref_axis',(-0.707106781186547,0.707106781186548,0.));
#1221=DIRECTION('',(0.,0.,-1.));
#1222=DIRECTION('center_axis',(0.,0.,-1.));
#1223=DIRECTION('ref_axis',(-0.707106781186547,0.707106781186548,0.));
#1224=DIRECTION('',(0.,0.,-1.));
#1225=DIRECTION('center_axis',(0.,0.,-1.));
#1226=DIRECTION('ref_axis',(-1.,1.22464679914735E-16,0.));
#1227=DIRECTION('center_axis',(0.,0.,-1.));
#1228=DIRECTION('ref_axis',(-1.,1.22464679914735E-16,0.));
#1229=DIRECTION('center_axis',(0.,0.,-1.));
#1230=DIRECTION('ref_axis',(-1.,1.22464679914735E-16,0.));
#1231=DIRECTION('center_axis',(0.,0.,-1.));
#1232=DIRECTION('ref_axis',(-1.,1.22464679914735E-16,0.));
#1233=DIRECTION('',(0.,0.,-1.));
#1234=DIRECTION('center_axis',(0.,0.,-1.));
#1235=DIRECTION('ref_axis',(-1.,1.22464679914735E-16,0.));
#1236=DIRECTION('',(0.,0.,-1.));
#1237=DIRECTION('center_axis',(0.,0.,-1.));
#1238=DIRECTION('ref_axis',(-0.707106781186548,-0.707106781186547,0.));
#1239=DIRECTION('center_axis',(0.,0.,-1.));
#1240=DIRECTION('ref_axis',(-0.707106781186548,-0.707106781186547,0.));
#1241=DIRECTION('center_axis',(0.,0.,-1.));
#1242=DIRECTION('ref_axis',(-0.707106781186548,-0.707106781186547,0.));
#1243=DIRECTION('center_axis',(0.,0.,-1.));
#1244=DIRECTION('ref_axis',(-0.707106781186548,-0.707106781186547,0.));
#1245=DIRECTION('',(0.,0.,-1.));
#1246=DIRECTION('center_axis',(0.,0.,-1.));
#1247=DIRECTION('ref_axis',(-0.707106781186548,-0.707106781186547,0.));
#1248=DIRECTION('',(0.,0.,-1.));
#1249=DIRECTION('center_axis',(0.,0.,-1.));
#1250=DIRECTION('ref_axis',(-1.83697019872103E-16,-1.,0.));
#1251=DIRECTION('center_axis',(0.,0.,-1.));
#1252=DIRECTION('ref_axis',(-1.83697019872103E-16,-1.,0.));
#1253=DIRECTION('center_axis',(0.,0.,-1.));
#1254=DIRECTION('ref_axis',(-1.83697019872103E-16,-1.,0.));
#1255=DIRECTION('center_axis',(0.,0.,-1.));
#1256=DIRECTION('ref_axis',(-1.83697019872103E-16,-1.,0.));
#1257=DIRECTION('',(0.,0.,-1.));
#1258=DIRECTION('center_axis',(0.,0.,-1.));
#1259=DIRECTION('ref_axis',(-1.83697019872103E-16,-1.,0.));
#1260=DIRECTION('',(0.,0.,-1.));
#1261=DIRECTION('center_axis',(0.,0.,-1.));
#1262=DIRECTION('ref_axis',(0.707106781186547,-0.707106781186548,0.));
#1263=DIRECTION('center_axis',(0.,0.,-1.));
#1264=DIRECTION('ref_axis',(0.707106781186547,-0.707106781186548,0.));
#1265=DIRECTION('center_axis',(0.,0.,-1.));
#1266=DIRECTION('ref_axis',(0.707106781186547,-0.707106781186548,0.));
#1267=DIRECTION('center_axis',(0.,0.,-1.));
#1268=DIRECTION('ref_axis',(0.707106781186547,-0.707106781186548,0.));
#1269=DIRECTION('',(0.,0.,-1.));
#1270=DIRECTION('center_axis',(0.,0.,-1.));
#1271=DIRECTION('ref_axis',(0.707106781186547,-0.707106781186548,0.));
#1272=DIRECTION('',(0.,0.,-1.));
#1273=DIRECTION('center_axis',(0.,0.,1.));
#1274=DIRECTION('ref_axis',(-0.707106781186548,-0.707106781186548,0.));
#1275=DIRECTION('center_axis',(0.,0.,1.));
#1276=DIRECTION('ref_axis',(-0.707106781186548,-0.707106781186548,0.));
#1277=DIRECTION('center_axis',(0.,0.,1.));
#1278=DIRECTION('ref_axis',(-0.707106781186548,-0.707106781186548,0.));
#1279=DIRECTION('center_axis',(0.,0.,1.));
#1280=DIRECTION('ref_axis',(-0.707106781186548,-0.707106781186548,0.));
#1281=DIRECTION('',(0.,0.,1.));
#1282=DIRECTION('center_axis',(0.,0.,1.));
#1283=DIRECTION('ref_axis',(-0.707106781186548,-0.707106781186548,0.));
#1284=DIRECTION('',(0.,0.,1.));
#1285=DIRECTION('center_axis',(0.,0.,1.));
#1286=DIRECTION('ref_axis',(-6.12323399573677E-17,-1.,0.));
#1287=DIRECTION('center_axis',(0.,0.,1.));
#1288=DIRECTION('ref_axis',(-6.12323399573677E-17,-1.,0.));
#1289=DIRECTION('center_axis',(0.,0.,1.));
#1290=DIRECTION('ref_axis',(-6.12323399573677E-17,-1.,0.));
#1291=DIRECTION('center_axis',(0.,0.,1.));
#1292=DIRECTION('ref_axis',(-6.12323399573677E-17,-1.,0.));
#1293=DIRECTION('',(0.,0.,1.));
#1294=DIRECTION('center_axis',(0.,0.,1.));
#1295=DIRECTION('ref_axis',(-6.12323399573677E-17,-1.,0.));
#1296=DIRECTION('',(0.,0.,1.));
#1297=DIRECTION('center_axis',(0.,0.,1.));
#1298=DIRECTION('ref_axis',(0.707106781186547,-0.707106781186548,0.));
#1299=DIRECTION('center_axis',(0.,0.,1.));
#1300=DIRECTION('ref_axis',(0.707106781186547,-0.707106781186548,0.));
#1301=DIRECTION('center_axis',(0.,0.,1.));
#1302=DIRECTION('ref_axis',(0.707106781186547,-0.707106781186548,0.));
#1303=DIRECTION('center_axis',(0.,0.,1.));
#1304=DIRECTION('ref_axis',(0.707106781186547,-0.707106781186548,0.));
#1305=DIRECTION('',(0.,0.,1.));
#1306=DIRECTION('center_axis',(0.,0.,1.));
#1307=DIRECTION('ref_axis',(0.707106781186547,-0.707106781186548,0.));
#1308=DIRECTION('',(0.,0.,1.));
#1309=DIRECTION('center_axis',(0.,0.,1.));
#1310=DIRECTION('ref_axis',(1.,-1.22464679914735E-16,0.));
#1311=DIRECTION('center_axis',(0.,0.,1.));
#1312=DIRECTION('ref_axis',(1.,-1.22464679914735E-16,0.));
#1313=DIRECTION('center_axis',(0.,0.,1.));
#1314=DIRECTION('ref_axis',(1.,-1.22464679914735E-16,0.));
#1315=DIRECTION('center_axis',(0.,0.,1.));
#1316=DIRECTION('ref_axis',(1.,-1.22464679914735E-16,0.));
#1317=DIRECTION('',(0.,0.,1.));
#1318=DIRECTION('center_axis',(0.,0.,1.));
#1319=DIRECTION('ref_axis',(1.,-1.22464679914735E-16,0.));
#1320=DIRECTION('',(0.,0.,1.));
#1321=DIRECTION('center_axis',(0.,0.,1.));
#1322=DIRECTION('ref_axis',(0.707106781186548,0.707106781186547,0.));
#1323=DIRECTION('center_axis',(0.,0.,1.));
#1324=DIRECTION('ref_axis',(0.707106781186548,0.707106781186547,0.));
#1325=DIRECTION('center_axis',(0.,0.,1.));
#1326=DIRECTION('ref_axis',(0.707106781186548,0.707106781186547,0.));
#1327=DIRECTION('center_axis',(0.,0.,1.));
#1328=DIRECTION('ref_axis',(0.707106781186548,0.707106781186547,0.));
#1329=DIRECTION('',(0.,0.,1.));
#1330=DIRECTION('center_axis',(0.,0.,1.));
#1331=DIRECTION('ref_axis',(0.707106781186548,0.707106781186547,0.));
#1332=DIRECTION('',(0.,0.,1.));
#1333=DIRECTION('center_axis',(0.,0.,1.));
#1334=DIRECTION('ref_axis',(1.83697019872103E-16,1.,0.));
#1335=DIRECTION('center_axis',(0.,0.,1.));
#1336=DIRECTION('ref_axis',(1.83697019872103E-16,1.,0.));
#1337=DIRECTION('center_axis',(0.,0.,1.));
#1338=DIRECTION('ref_axis',(1.83697019872103E-16,1.,0.));
#1339=DIRECTION('center_axis',(0.,0.,1.));
#1340=DIRECTION('ref_axis',(1.83697019872103E-16,1.,0.));
#1341=DIRECTION('',(0.,0.,1.));
#1342=DIRECTION('center_axis',(0.,0.,1.));
#1343=DIRECTION('ref_axis',(1.83697019872103E-16,1.,0.));
#1344=DIRECTION('',(0.,0.,1.));
#1345=DIRECTION('center_axis',(0.,0.,1.));
#1346=DIRECTION('ref_axis',(-0.707106781186547,0.707106781186548,0.));
#1347=DIRECTION('center_axis',(0.,0.,1.));
#1348=DIRECTION('ref_axis',(-0.707106781186547,0.707106781186548,0.));
#1349=DIRECTION('center_axis',(0.,0.,1.));
#1350=DIRECTION('ref_axis',(-0.707106781186547,0.707106781186548,0.));
#1351=DIRECTION('center_axis',(0.,0.,1.));
#1352=DIRECTION('ref_axis',(-0.707106781186547,0.707106781186548,0.));
#1353=DIRECTION('',(0.,0.,1.));
#1354=DIRECTION('center_axis',(0.,0.,1.));
#1355=DIRECTION('ref_axis',(-0.707106781186547,0.707106781186548,0.));
#1356=DIRECTION('',(0.,0.,1.));
#1357=CARTESIAN_POINT('',(0.,0.,0.));
#1358=CARTESIAN_POINT('Origin',(0.,57.5,110.));
#1359=CARTESIAN_POINT('',(6.,57.5,110.));
#1360=CARTESIAN_POINT('Origin',(0.,57.5,110.));
#1361=CARTESIAN_POINT('',(4.,57.5,110.));
#1362=CARTESIAN_POINT('Origin',(0.,57.5,110.));
#1363=CARTESIAN_POINT('Origin',(0.,57.5,105.));
#1364=CARTESIAN_POINT('',(6.,57.5,100.));
#1365=CARTESIAN_POINT('Origin',(0.,57.5,100.));
#1366=CARTESIAN_POINT('',(6.,57.5,105.));
#1367=CARTESIAN_POINT('Origin',(0.,57.5,111.));
#1368=CARTESIAN_POINT('',(4.,57.5,120.));
#1369=CARTESIAN_POINT('',(4.,57.5,111.));
#1370=CARTESIAN_POINT('Origin',(0.,57.5,120.));
#1371=CARTESIAN_POINT('Origin',(0.,0.,100.));
#1372=CARTESIAN_POINT('',(-65.,-7.9602041944578E-15,100.));
#1373=CARTESIAN_POINT('Origin',(0.,0.,100.));
#1374=CARTESIAN_POINT('',(44.9012806053458,36.4159992311072,100.));
#1375=CARTESIAN_POINT('Origin',(40.6586399182265,40.6586399182265,100.));
#1376=CARTESIAN_POINT('',(57.5,-6.00000000000001,100.));
#1377=CARTESIAN_POINT('Origin',(57.5,-1.05625786426459E-14,100.));
#1378=CARTESIAN_POINT('',(36.4159992311072,-44.9012806053458,100.));
#1379=CARTESIAN_POINT('Origin',(40.6586399182265,-40.6586399182265,100.));
#1380=CARTESIAN_POINT('',(-6.00000000000001,-57.5,100.));
#1381=CARTESIAN_POINT('Origin',(-7.04171909509728E-15,-57.5,100.));
#1382=CARTESIAN_POINT('',(-44.9012806053458,-36.4159992311072,100.));
#1383=CARTESIAN_POINT('Origin',(-40.6586399182265,-40.6586399182265,100.));
#1384=CARTESIAN_POINT('',(-57.5,6.,100.));
#1385=CARTESIAN_POINT('Origin',(-57.5,3.52085954754864E-15,100.));
#1386=CARTESIAN_POINT('',(-36.4159992311072,44.9012806053458,100.));
#1387=CARTESIAN_POINT('Origin',(-40.6586399182265,40.6586399182265,100.));
#1388=CARTESIAN_POINT('',(-47.5,-5.81707229594993E-15,100.));
#1389=CARTESIAN_POINT('Origin',(0.,0.,100.));
#1390=CARTESIAN_POINT('Origin',(0.,0.,100.));
#1391=CARTESIAN_POINT('',(-65.,-7.9602041944578E-15,120.));
#1392=CARTESIAN_POINT('Origin',(0.,0.,120.));
#1393=CARTESIAN_POINT('',(-65.,-7.9602041944578E-15,100.));
#1394=CARTESIAN_POINT('Origin',(0.,0.,120.));
#1395=CARTESIAN_POINT('',(43.4870670429727,37.8302127934803,120.));
#1396=CARTESIAN_POINT('Origin',(40.6586399182265,40.6586399182265,120.));
#1397=CARTESIAN_POINT('',(57.5,-4.00000000000001,120.));
#1398=CARTESIAN_POINT('Origin',(57.5,-1.05625786426459E-14,120.));
#1399=CARTESIAN_POINT('',(37.8302127934803,-43.4870670429727,120.));
#1400=CARTESIAN_POINT('Origin',(40.6586399182265,-40.6586399182265,120.));
#1401=CARTESIAN_POINT('',(-4.00000000000001,-57.5,120.));
#1402=CARTESIAN_POINT('Origin',(-7.04171909509728E-15,-57.5,120.));
#1403=CARTESIAN_POINT('',(-43.4870670429727,-37.8302127934803,120.));
#1404=CARTESIAN_POINT('Origin',(-40.6586399182265,-40.6586399182265,120.));
#1405=CARTESIAN_POINT('',(-57.5,4.,120.));
#1406=CARTESIAN_POINT('Origin',(-57.5,3.52085954754864E-15,120.));
#1407=CARTESIAN_POINT('',(-37.8302127934803,43.4870670429727,120.));
#1408=CARTESIAN_POINT('Origin',(-40.6586399182265,40.6586399182265,120.));
#1409=CARTESIAN_POINT('',(-40.,-4.89858719658941E-15,120.));
#1410=CARTESIAN_POINT('Origin',(0.,0.,120.));
#1411=CARTESIAN_POINT('Origin',(0.,0.,20.));
#1412=CARTESIAN_POINT('',(-47.5,-5.81707229594993E-15,20.));
#1413=CARTESIAN_POINT('',(-47.5,-5.81707229594993E-15,20.));
#1414=CARTESIAN_POINT('Origin',(0.,0.,20.));
#1415=CARTESIAN_POINT('Origin',(0.,0.,20.));
#1416=CARTESIAN_POINT('',(-40.,-4.89858719658941E-15,3.2));
#1417=CARTESIAN_POINT('',(-40.,4.89858719658941E-15,20.));
#1418=CARTESIAN_POINT('Origin',(0.,0.,3.2));
#1419=CARTESIAN_POINT('Origin',(0.,57.5,11.));
#1420=CARTESIAN_POINT('',(-6.,57.5,11.));
#1421=CARTESIAN_POINT('Origin',(0.,57.5,11.));
#1422=CARTESIAN_POINT('',(-4.,57.5,11.));
#1423=CARTESIAN_POINT('Origin',(0.,57.5,11.));
#1424=CARTESIAN_POINT('Origin',(0.,57.5,15.5));
#1425=CARTESIAN_POINT('',(-6.,57.5,20.));
#1426=CARTESIAN_POINT('Origin',(0.,57.5,20.));
#1427=CARTESIAN_POINT('',(-6.,57.5,15.5));
#1428=CARTESIAN_POINT('Origin',(0.,57.5,9.));
#1429=CARTESIAN_POINT('',(-4.,57.5,0.));
#1430=CARTESIAN_POINT('',(-4.,57.5,9.));
#1431=CARTESIAN_POINT('Origin',(0.,57.5,0.));
#1432=CARTESIAN_POINT('Origin',(0.,0.,0.));
#1433=CARTESIAN_POINT('',(47.5,-5.81707229594993E-15,0.));
#1434=CARTESIAN_POINT('Origin',(0.,0.,0.));
#1435=CARTESIAN_POINT('',(47.5,-5.81707229594993E-15,3.2));
#1436=CARTESIAN_POINT('',(47.5,5.81707229594993E-15,0.));
#1437=CARTESIAN_POINT('Origin',(0.,0.,3.2));
#1438=CARTESIAN_POINT('Origin',(0.,0.,3.2));
#1439=CARTESIAN_POINT('Origin',(0.,0.,0.));
#1440=CARTESIAN_POINT('',(-65.,-7.9602041944578E-15,20.));
#1441=CARTESIAN_POINT('Origin',(0.,0.,20.));
#1442=CARTESIAN_POINT('',(-65.,-7.9602041944578E-15,0.));
#1443=CARTESIAN_POINT('',(-65.,-7.9602041944578E-15,0.));
#1444=CARTESIAN_POINT('Origin',(0.,0.,0.));
#1445=CARTESIAN_POINT('Origin',(0.,0.,20.));
#1446=CARTESIAN_POINT('',(36.4159992311072,44.9012806053458,20.));
#1447=CARTESIAN_POINT('Origin',(40.6586399182265,40.6586399182265,20.));
#1448=CARTESIAN_POINT('',(57.5,5.99999999999999,20.));
#1449=CARTESIAN_POINT('Origin',(57.5,-1.05625786426459E-14,20.));
#1450=CARTESIAN_POINT('',(44.9012806053458,-36.4159992311072,20.));
#1451=CARTESIAN_POINT('Origin',(40.6586399182265,-40.6586399182265,20.));
#1452=CARTESIAN_POINT('',(5.99999999999999,-57.5,20.));
#1453=CARTESIAN_POINT('Origin',(-7.04171909509728E-15,-57.5,20.));
#1454=CARTESIAN_POINT('',(-36.4159992311072,-44.9012806053458,20.));
#1455=CARTESIAN_POINT('Origin',(-40.6586399182265,-40.6586399182265,20.));
#1456=CARTESIAN_POINT('',(-57.5,-6.,20.));
#1457=CARTESIAN_POINT('Origin',(-57.5,3.52085954754864E-15,20.));
#1458=CARTESIAN_POINT('',(-44.9012806053458,36.4159992311072,20.));
#1459=CARTESIAN_POINT('Origin',(-40.6586399182265,40.6586399182265,20.));
#1460=CARTESIAN_POINT('Origin',(0.,0.,0.));
#1461=CARTESIAN_POINT('',(37.8302127934803,43.4870670429727,0.));
#1462=CARTESIAN_POINT('Origin',(40.6586399182265,40.6586399182265,0.));
#1463=CARTESIAN_POINT('',(57.5,3.99999999999999,0.));
#1464=CARTESIAN_POINT('Origin',(57.5,-1.05625786426459E-14,0.));
#1465=CARTESIAN_POINT('',(43.4870670429727,-37.8302127934803,0.));
#1466=CARTESIAN_POINT('Origin',(40.6586399182265,-40.6586399182265,0.));
#1467=CARTESIAN_POINT('',(3.99999999999999,-57.5,0.));
#1468=CARTESIAN_POINT('Origin',(-7.04171909509728E-15,-57.5,0.));
#1469=CARTESIAN_POINT('',(-37.8302127934803,-43.4870670429727,0.));
#1470=CARTESIAN_POINT('Origin',(-40.6586399182265,-40.6586399182265,0.));
#1471=CARTESIAN_POINT('',(-57.5,-4.,0.));
#1472=CARTESIAN_POINT('Origin',(-57.5,3.52085954754864E-15,0.));
#1473=CARTESIAN_POINT('',(-43.4870670429727,37.8302127934803,0.));
#1474=CARTESIAN_POINT('Origin',(-40.6586399182265,40.6586399182265,0.));
#1475=CARTESIAN_POINT('Origin',(-40.6586399182265,40.6586399182265,11.));
#1476=CARTESIAN_POINT('',(-44.9012806053458,36.4159992311072,11.));
#1477=CARTESIAN_POINT('Origin',(-40.6586399182265,40.6586399182265,11.));
#1478=CARTESIAN_POINT('',(-43.4870670429727,37.8302127934803,11.));
#1479=CARTESIAN_POINT('Origin',(-40.6586399182265,40.6586399182265,11.));
#1480=CARTESIAN_POINT('Origin',(-40.6586399182265,40.6586399182265,15.5));
#1481=CARTESIAN_POINT('',(-44.9012806053458,36.4159992311072,15.5));
#1482=CARTESIAN_POINT('Origin',(-40.6586399182265,40.6586399182265,9.));
#1483=CARTESIAN_POINT('',(-43.4870670429727,37.8302127934803,9.));
#1484=CARTESIAN_POINT('Origin',(-57.5,3.52085954754864E-15,11.));
#1485=CARTESIAN_POINT('',(-57.5,-6.,11.));
#1486=CARTESIAN_POINT('Origin',(-57.5,3.52085954754864E-15,11.));
#1487=CARTESIAN_POINT('',(-57.5,-4.,11.));
#1488=CARTESIAN_POINT('Origin',(-57.5,3.52085954754864E-15,11.));
#1489=CARTESIAN_POINT('Origin',(-57.5,3.52085954754864E-15,15.5));
#1490=CARTESIAN_POINT('',(-57.5,-6.,15.5));
#1491=CARTESIAN_POINT('Origin',(-57.5,3.52085954754864E-15,9.));
#1492=CARTESIAN_POINT('',(-57.5,-4.,9.));
#1493=CARTESIAN_POINT('Origin',(-40.6586399182265,-40.6586399182265,11.));
#1494=CARTESIAN_POINT('',(-36.4159992311072,-44.9012806053458,11.));
#1495=CARTESIAN_POINT('Origin',(-40.6586399182265,-40.6586399182265,11.));
#1496=CARTESIAN_POINT('',(-37.8302127934803,-43.4870670429727,11.));
#1497=CARTESIAN_POINT('Origin',(-40.6586399182265,-40.6586399182265,11.));
#1498=CARTESIAN_POINT('Origin',(-40.6586399182265,-40.6586399182265,15.5));
#1499=CARTESIAN_POINT('',(-36.4159992311072,-44.9012806053458,15.5));
#1500=CARTESIAN_POINT('Origin',(-40.6586399182265,-40.6586399182265,9.));
#1501=CARTESIAN_POINT('',(-37.8302127934803,-43.4870670429727,9.));
#1502=CARTESIAN_POINT('Origin',(-7.04171909509728E-15,-57.5,11.));
#1503=CARTESIAN_POINT('',(5.99999999999999,-57.5,11.));
#1504=CARTESIAN_POINT('Origin',(-7.04171909509728E-15,-57.5,11.));
#1505=CARTESIAN_POINT('',(3.99999999999999,-57.5,11.));
#1506=CARTESIAN_POINT('Origin',(-7.04171909509728E-15,-57.5,11.));
#1507=CARTESIAN_POINT('Origin',(-7.04171909509728E-15,-57.5,15.5));
#1508=CARTESIAN_POINT('',(5.99999999999999,-57.5,15.5));
#1509=CARTESIAN_POINT('Origin',(-7.04171909509728E-15,-57.5,9.));
#1510=CARTESIAN_POINT('',(3.99999999999999,-57.5,9.));
#1511=CARTESIAN_POINT('Origin',(40.6586399182265,-40.6586399182265,11.));
#1512=CARTESIAN_POINT('',(44.9012806053458,-36.4159992311072,11.));
#1513=CARTESIAN_POINT('Origin',(40.6586399182265,-40.6586399182265,11.));
#1514=CARTESIAN_POINT('',(43.4870670429727,-37.8302127934803,11.));
#1515=CARTESIAN_POINT('Origin',(40.6586399182265,-40.6586399182265,11.));
#1516=CARTESIAN_POINT('Origin',(40.6586399182265,-40.6586399182265,15.5));
#1517=CARTESIAN_POINT('',(44.9012806053458,-36.4159992311072,15.5));
#1518=CARTESIAN_POINT('Origin',(40.6586399182265,-40.6586399182265,9.));
#1519=CARTESIAN_POINT('',(43.4870670429727,-37.8302127934803,9.));
#1520=CARTESIAN_POINT('Origin',(57.5,-1.05625786426459E-14,11.));
#1521=CARTESIAN_POINT('',(57.5,5.99999999999999,11.));
#1522=CARTESIAN_POINT('Origin',(57.5,-1.05625786426459E-14,11.));
#1523=CARTESIAN_POINT('',(57.5,3.99999999999999,11.));
#1524=CARTESIAN_POINT('Origin',(57.5,-1.05625786426459E-14,11.));
#1525=CARTESIAN_POINT('Origin',(57.5,-1.05625786426459E-14,15.5));
#1526=CARTESIAN_POINT('',(57.5,5.99999999999999,15.5));
#1527=CARTESIAN_POINT('Origin',(57.5,-1.05625786426459E-14,9.));
#1528=CARTESIAN_POINT('',(57.5,3.99999999999999,9.));
#1529=CARTESIAN_POINT('Origin',(40.6586399182265,40.6586399182265,11.));
#1530=CARTESIAN_POINT('',(36.4159992311072,44.9012806053458,11.));
#1531=CARTESIAN_POINT('Origin',(40.6586399182265,40.6586399182265,11.));
#1532=CARTESIAN_POINT('',(37.8302127934803,43.4870670429727,11.));
#1533=CARTESIAN_POINT('Origin',(40.6586399182265,40.6586399182265,11.));
#1534=CARTESIAN_POINT('Origin',(40.6586399182265,40.6586399182265,15.5));
#1535=CARTESIAN_POINT('',(36.4159992311072,44.9012806053458,15.5));
#1536=CARTESIAN_POINT('Origin',(40.6586399182265,40.6586399182265,9.));
#1537=CARTESIAN_POINT('',(37.8302127934803,43.4870670429727,9.));
#1538=CARTESIAN_POINT('Origin',(-40.6586399182265,40.6586399182265,110.));
#1539=CARTESIAN_POINT('',(-36.4159992311072,44.9012806053458,110.));
#1540=CARTESIAN_POINT('Origin',(-40.6586399182265,40.6586399182265,110.));
#1541=CARTESIAN_POINT('',(-37.8302127934803,43.4870670429727,110.));
#1542=CARTESIAN_POINT('Origin',(-40.6586399182265,40.6586399182265,110.));
#1543=CARTESIAN_POINT('Origin',(-40.6586399182265,40.6586399182265,105.));
#1544=CARTESIAN_POINT('',(-36.4159992311072,44.9012806053458,105.));
#1545=CARTESIAN_POINT('Origin',(-40.6586399182265,40.6586399182265,111.));
#1546=CARTESIAN_POINT('',(-37.8302127934803,43.4870670429727,111.));
#1547=CARTESIAN_POINT('Origin',(-57.5,3.52085954754864E-15,110.));
#1548=CARTESIAN_POINT('',(-57.5,6.,110.));
#1549=CARTESIAN_POINT('Origin',(-57.5,3.52085954754864E-15,110.));
#1550=CARTESIAN_POINT('',(-57.5,4.,110.));
#1551=CARTESIAN_POINT('Origin',(-57.5,3.52085954754864E-15,110.));
#1552=CARTESIAN_POINT('Origin',(-57.5,3.52085954754864E-15,105.));
#1553=CARTESIAN_POINT('',(-57.5,6.,105.));
#1554=CARTESIAN_POINT('Origin',(-57.5,3.52085954754864E-15,111.));
#1555=CARTESIAN_POINT('',(-57.5,4.,111.));
#1556=CARTESIAN_POINT('Origin',(-40.6586399182265,-40.6586399182265,110.));
#1557=CARTESIAN_POINT('',(-44.9012806053458,-36.4159992311072,110.));
#1558=CARTESIAN_POINT('Origin',(-40.6586399182265,-40.6586399182265,110.));
#1559=CARTESIAN_POINT('',(-43.4870670429727,-37.8302127934803,110.));
#1560=CARTESIAN_POINT('Origin',(-40.6586399182265,-40.6586399182265,110.));
#1561=CARTESIAN_POINT('Origin',(-40.6586399182265,-40.6586399182265,105.));
#1562=CARTESIAN_POINT('',(-44.9012806053458,-36.4159992311072,105.));
#1563=CARTESIAN_POINT('Origin',(-40.6586399182265,-40.6586399182265,111.));
#1564=CARTESIAN_POINT('',(-43.4870670429727,-37.8302127934803,111.));
#1565=CARTESIAN_POINT('Origin',(-7.04171909509728E-15,-57.5,110.));
#1566=CARTESIAN_POINT('',(-6.00000000000001,-57.5,110.));
#1567=CARTESIAN_POINT('Origin',(-7.04171909509728E-15,-57.5,110.));
#1568=CARTESIAN_POINT('',(-4.00000000000001,-57.5,110.));
#1569=CARTESIAN_POINT('Origin',(-7.04171909509728E-15,-57.5,110.));
#1570=CARTESIAN_POINT('Origin',(-7.04171909509728E-15,-57.5,105.));
#1571=CARTESIAN_POINT('',(-6.00000000000001,-57.5,105.));
#1572=CARTESIAN_POINT('Origin',(-7.04171909509728E-15,-57.5,111.));
#1573=CARTESIAN_POINT('',(-4.00000000000001,-57.5,111.));
#1574=CARTESIAN_POINT('Origin',(40.6586399182265,-40.6586399182265,110.));
#1575=CARTESIAN_POINT('',(36.4159992311072,-44.9012806053458,110.));
#1576=CARTESIAN_POINT('Origin',(40.6586399182265,-40.6586399182265,110.));
#1577=CARTESIAN_POINT('',(37.8302127934803,-43.4870670429727,110.));
#1578=CARTESIAN_POINT('Origin',(40.6586399182265,-40.6586399182265,110.));
#1579=CARTESIAN_POINT('Origin',(40.6586399182265,-40.6586399182265,105.));
#1580=CARTESIAN_POINT('',(36.4159992311072,-44.9012806053458,105.));
#1581=CARTESIAN_POINT('Origin',(40.6586399182265,-40.6586399182265,111.));
#1582=CARTESIAN_POINT('',(37.8302127934803,-43.4870670429727,111.));
#1583=CARTESIAN_POINT('Origin',(57.5,-1.05625786426459E-14,110.));
#1584=CARTESIAN_POINT('',(57.5,-6.00000000000001,110.));
#1585=CARTESIAN_POINT('Origin',(57.5,-1.05625786426459E-14,110.));
#1586=CARTESIAN_POINT('',(57.5,-4.00000000000001,110.));
#1587=CARTESIAN_POINT('Origin',(57.5,-1.05625786426459E-14,110.));
#1588=CARTESIAN_POINT('Origin',(57.5,-1.05625786426459E-14,105.));
#1589=CARTESIAN_POINT('',(57.5,-6.00000000000001,105.));
#1590=CARTESIAN_POINT('Origin',(57.5,-1.05625786426459E-14,111.));
#1591=CARTESIAN_POINT('',(57.5,-4.00000000000001,111.));
#1592=CARTESIAN_POINT('Origin',(40.6586399182265,40.6586399182265,110.));
#1593=CARTESIAN_POINT('',(44.9012806053458,36.4159992311072,110.));
#1594=CARTESIAN_POINT('Origin',(40.6586399182265,40.6586399182265,110.));
#1595=CARTESIAN_POINT('',(43.4870670429727,37.8302127934803,110.));
#1596=CARTESIAN_POINT('Origin',(40.6586399182265,40.6586399182265,110.));
#1597=CARTESIAN_POINT('Origin',(40.6586399182265,40.6586399182265,105.));
#1598=CARTESIAN_POINT('',(44.9012806053458,36.4159992311072,105.));
#1599=CARTESIAN_POINT('Origin',(40.6586399182265,40.6586399182265,111.));
#1600=CARTESIAN_POINT('',(43.4870670429727,37.8302127934803,111.));
#1601=UNCERTAINTY_MEASURE_WITH_UNIT(LENGTH_MEASURE(0.01),#1605,
'DISTANCE_ACCURACY_VALUE',
'Maximum model space distance between geometric entities at asserted c
onnectivities');
#1602=UNCERTAINTY_MEASURE_WITH_UNIT(LENGTH_MEASURE(0.01),#1605,
'DISTANCE_ACCURACY_VALUE',
'Maximum model space distance between geometric entities at asserted c
onnectivities');
#1603=(
GEOMETRIC_REPRESENTATION_CONTEXT(3)
GLOBAL_UNCERTAINTY_ASSIGNED_CONTEXT((#1601))
GLOBAL_UNIT_ASSIGNED_CONTEXT((#1605,#1607,#1608))
REPRESENTATION_CONTEXT('','3D')
);
#1604=(
GEOMETRIC_REPRESENTATION_CONTEXT(3)
GLOBAL_UNCERTAINTY_ASSIGNED_CONTEXT((#1602))
GLOBAL_UNIT_ASSIGNED_CONTEXT((#1605,#1607,#1608))
REPRESENTATION_CONTEXT('','3D')
);
#1605=(
LENGTH_UNIT()
NAMED_UNIT(*)
SI_UNIT(.MILLI.,.METRE.)
);
#1606=(
LENGTH_UNIT()
NAMED_UNIT(*)
SI_UNIT($,.METRE.)
);
#1607=(
NAMED_UNIT(*)
PLANE_ANGLE_UNIT()
SI_UNIT($,.RADIAN.)
);
#1608=(
NAMED_UNIT(*)
SI_UNIT($,.STERADIAN.)
SOLID_ANGLE_UNIT()
);
#1609=SHAPE_DEFINITION_REPRESENTATION(#1610,#1611);
#1610=PRODUCT_DEFINITION_SHAPE('',$,#1613);
#1611=SHAPE_REPRESENTATION('',(#921),#1603);
#1612=PRODUCT_DEFINITION_CONTEXT('part definition',#1617,'design');
#1613=PRODUCT_DEFINITION('conecter to motor','conecter to motor v1',#1614,
#1612);
#1614=PRODUCT_DEFINITION_FORMATION('',$,#1619);
#1615=PRODUCT_RELATED_PRODUCT_CATEGORY('conecter to motor v1',
'conecter to motor v1',(#1619));
#1616=APPLICATION_PROTOCOL_DEFINITION('international standard',
'automotive_design',2009,#1617);
#1617=APPLICATION_CONTEXT(
'Core Data for Automotive Mechanical Design Process');
#1618=PRODUCT_CONTEXT('part definition',#1617,'mechanical');
#1619=PRODUCT('conecter to motor','conecter to motor v1',$,(#1618));
#1620=PRESENTATION_STYLE_ASSIGNMENT((#1621));
#1621=SURFACE_STYLE_USAGE(.BOTH.,#1622);
#1622=SURFACE_SIDE_STYLE('',(#1623));
#1623=SURFACE_STYLE_FILL_AREA(#1624);
#1624=FILL_AREA_STYLE('Steel - Satin',(#1625));
#1625=FILL_AREA_STYLE_COLOUR('Steel - Satin',#1626);
#1626=COLOUR_RGB('Steel - Satin',0.627450980392157,0.627450980392157,0.627450980392157);
ENDSEC;
END-ISO-10303-21;
